<svg width="20" height="20" viewBox="0 0 20 20" fill="none" xmlns="http://www.w3.org/2000/svg">
<path d="M8.6 11.8001L6.45 9.65012C6.26667 9.46679 6.03333 9.37512 5.75 9.37512C5.46667 9.37512 5.23333 9.46679 5.05 9.65012C4.86667 9.83346 4.775 10.0668 4.775 10.3501C4.775 10.6335 4.86667 10.8668 5.05 11.0501L7.9 13.9001C8.1 14.1001 8.33333 14.2001 8.6 14.2001C8.86667 14.2001 9.1 14.1001 9.3 13.9001L14.95 8.25012C15.1333 8.06679 15.225 7.83346 15.225 7.55012C15.225 7.26679 15.1333 7.03346 14.95 6.85012C14.7667 6.66679 14.5333 6.57512 14.25 6.57512C13.9667 6.57512 13.7333 6.66679 13.55 6.85012L8.6 11.8001ZM10 20.0001C8.61667 20.0001 7.31667 19.7375 6.1 19.2121C4.88333 18.6868 3.825 17.9745 2.925 17.0751C2.025 16.1751 1.31267 15.1168 0.788 13.9001C0.263333 12.6835 0.000666667 11.3835 0 10.0001C0 8.61679 0.262667 7.31679 0.788 6.10012C1.31333 4.88346 2.02567 3.82512 2.925 2.92512C3.825 2.02512 4.88333 1.31279 6.1 0.788122C7.31667 0.263456 8.61667 0.000788737 10 0.00012207C11.3833 0.00012207 12.6833 0.262789 13.9 0.788122C15.1167 1.31346 16.175 2.02579 17.075 2.92512C17.975 3.82512 18.6877 4.88346 19.213 6.10012C19.7383 7.31679 20.0007 8.61679 20 10.0001C20 11.3835 19.7373 12.6835 19.212 13.9001C18.6867 15.1168 17.9743 16.1751 17.075 17.0751C16.175 17.9751 15.1167 18.6878 13.9 19.2131C12.6833 19.7385 11.3833 20.0008 10 20.0001Z" fill="#FFFBF5"/>
</svg>
