<svg width="609" height="91" viewBox="0 0 609 91" fill="none" xmlns="http://www.w3.org/2000/svg">
<path d="M0.666667 82.999C0.666666 85.9445 3.05448 88.3323 6 88.3323C8.94552 88.3323 11.3333 85.9445 11.3333 82.999C11.3333 80.0534 8.94552 77.6656 6 77.6656C3.05448 77.6656 0.666667 80.0534 0.666667 82.999ZM135.707 83.7061C136.098 83.3156 136.098 82.6824 135.707 82.2919L129.343 75.9279C128.953 75.5374 128.319 75.5374 127.929 75.9279C127.538 76.3184 127.538 76.9516 127.929 77.3421L133.586 82.999L127.929 88.6558C127.538 89.0464 127.538 89.6795 127.929 90.07C128.319 90.4606 128.953 90.4606 129.343 90.07L135.707 83.7061ZM6 83.999L70.5 83.999L70.5 81.999L6 81.999L6 83.999ZM70.5 83.999L135 83.999L135 81.999L70.5 81.999L70.5 83.999Z" fill="#16013E"/>
<path d="M245.707 83.7061C246.098 83.3155 246.098 82.6824 245.707 82.2918L239.343 75.9279C238.953 75.5374 238.319 75.5374 237.929 75.9279C237.538 76.3184 237.538 76.9516 237.929 77.3421L243.586 82.999L237.929 88.6558C237.538 89.0463 237.538 89.6795 237.929 90.07C238.319 90.4605 238.953 90.4605 239.343 90.07L245.707 83.7061ZM135 83.999L190 83.999L190 81.999L135 81.999L135 83.999ZM190 83.999L245 83.999L245 81.999L190 81.999L190 83.999Z" fill="#16013E"/>
<path d="M369.707 83.7061C370.098 83.3155 370.098 82.6824 369.707 82.2918L363.343 75.9279C362.953 75.5374 362.319 75.5374 361.929 75.9279C361.538 76.3184 361.538 76.9516 361.929 77.3421L367.586 82.999L361.929 88.6558C361.538 89.0463 361.538 89.6795 361.929 90.07C362.319 90.4605 362.953 90.4605 363.343 90.07L369.707 83.7061ZM245 83.999L307 83.999L307 81.999L245 81.999L245 83.999ZM307 83.999L369 83.999L369 81.999L307 81.999L307 83.999Z" fill="#16013E"/>
<path d="M484.707 83.7061C485.098 83.3156 485.098 82.6824 484.707 82.2919L478.343 75.9279C477.953 75.5374 477.319 75.5374 476.929 75.9279C476.538 76.3184 476.538 76.9516 476.929 77.3421L482.586 82.999L476.929 88.6558C476.538 89.0464 476.538 89.6795 476.929 90.07C477.319 90.4606 477.953 90.4606 478.343 90.07L484.707 83.7061ZM369 83.999L426.5 83.999L426.5 81.999L369 81.999L369 83.999ZM426.5 83.999L484 83.999L484 81.999L426.5 81.999L426.5 83.999Z" fill="#16013E"/>
<path d="M597.667 82.999C597.667 85.9445 600.054 88.3323 603 88.3323C605.946 88.3323 608.333 85.9445 608.333 82.999C608.333 80.0534 605.946 77.6656 603 77.6656C600.054 77.6656 597.667 80.0534 597.667 82.999ZM484 83.999L543.5 83.999L543.5 81.999L484 81.999L484 83.999ZM543.5 83.999L603 83.999L603 81.999L543.5 81.999L543.5 83.999Z" fill="#16013E"/>
<path d="M155.978 49.4151L156.404 49.6778L156.404 49.6778L155.978 49.4151ZM154.513 51.114C154.577 51.3828 154.846 51.5491 155.115 51.4856L159.494 50.4505C159.763 50.387 159.929 50.1176 159.866 49.8489C159.802 49.5802 159.533 49.4138 159.264 49.4773L155.372 50.3974L154.451 46.5047C154.388 46.2359 154.119 46.0696 153.85 46.1331C153.581 46.1966 153.415 46.466 153.478 46.7347L154.513 51.114ZM225.633 42.9215C225.821 43.124 226.138 43.1359 226.34 42.9481C226.542 42.7603 226.554 42.4439 226.367 42.2414L225.633 42.9215ZM214.076 32.8741C213.83 32.7475 213.529 32.8437 213.402 33.0891C213.275 33.3345 213.372 33.6361 213.617 33.7628L214.076 32.8741ZM204.41 30.2753C204.678 30.3431 204.95 30.181 205.017 29.9134C205.085 29.6457 204.923 29.3737 204.655 29.3059L204.41 30.2753ZM174.353 32.2631C174.104 32.3814 173.998 32.6796 174.116 32.9291C174.234 33.1786 174.532 33.285 174.782 33.1668L174.353 32.2631ZM166.423 38.3686C166.639 38.1969 166.675 37.8824 166.503 37.6661C166.332 37.4498 166.017 37.4137 165.801 37.5854L166.423 38.3686ZM155.184 49.75C155.039 49.985 155.111 50.2931 155.346 50.4382C155.581 50.5833 155.889 50.5105 156.035 50.2755L155.184 49.75ZM155.795 50.664C155.94 50.4291 155.867 50.121 155.632 49.9759C155.397 49.8308 155.089 49.9036 154.944 50.1386L155.795 50.664ZM226.367 42.2414C222.703 38.2921 218.536 35.1761 214.076 32.8741L213.617 33.7628C217.975 36.0121 222.049 39.0579 225.633 42.9215L226.367 42.2414ZM204.655 29.3059C194.549 26.7458 183.774 27.7973 174.353 32.2631L174.782 33.1668C183.992 28.8006 194.529 27.7723 204.41 30.2753L204.655 29.3059ZM165.801 37.5854C161.87 40.7063 158.384 44.5692 155.553 49.1523L156.404 49.6778C159.173 45.1941 162.582 41.4181 166.423 38.3686L165.801 37.5854ZM155.553 49.1523L155.184 49.75L156.035 50.2755L156.404 49.6778L155.553 49.1523ZM154.944 50.1386L154.575 50.7363L155.425 51.2618L155.795 50.664L154.944 50.1386ZM155.978 49.4151L156.829 49.9406L156.829 49.9406L155.978 49.4151ZM154.027 51.229C154.154 51.7665 154.693 52.0992 155.23 51.9722L163.989 49.902C164.526 49.7749 164.859 49.2363 164.732 48.6988C164.605 48.1613 164.066 47.8286 163.529 47.9556L155.743 49.7958L153.903 42.0103C153.776 41.4729 153.237 41.1401 152.7 41.2672C152.162 41.3942 151.83 41.9329 151.957 42.4704L154.027 51.229ZM225.267 43.2616C225.642 43.6665 226.275 43.6902 226.68 43.3146C227.085 42.939 227.109 42.3063 226.733 41.9014L225.267 43.2616ZM214.305 32.4298C213.814 32.1765 213.211 32.369 212.958 32.8598C212.704 33.3506 212.897 33.9538 213.388 34.2071L214.305 32.4298ZM204.287 30.76C204.822 30.8956 205.366 30.5715 205.502 30.0361C205.638 29.5008 205.314 28.9568 204.778 28.8212L204.287 30.76ZM174.139 31.8113C173.64 32.0479 173.427 32.6442 173.664 33.1433C173.901 33.6423 174.497 33.8551 174.996 33.6186L174.139 31.8113ZM166.733 38.7602C167.166 38.4168 167.238 37.7877 166.895 37.3552C166.551 36.9227 165.922 36.8504 165.49 37.1938L166.733 38.7602ZM154.758 49.4873C154.468 49.9572 154.614 50.5734 155.084 50.8636C155.554 51.1538 156.17 51.0082 156.46 50.5383L154.758 49.4873ZM156.22 50.9268C156.51 50.4569 156.365 49.8407 155.895 49.5505C155.425 49.2603 154.809 49.4059 154.518 49.8758L156.22 50.9268ZM226.733 41.9014C223.03 37.9093 218.816 34.7581 214.305 32.4298L213.388 34.2071C217.695 36.4301 221.723 39.4407 225.267 43.2616L226.733 41.9014ZM204.778 28.8212C194.559 26.2326 183.665 27.2957 174.139 31.8113L174.996 33.6186C184.102 29.3022 194.519 28.2855 204.287 30.76L204.778 28.8212ZM165.49 37.1938C161.514 40.3503 157.989 44.2568 155.128 48.8896L156.829 49.9406C159.568 45.5066 162.937 41.774 166.733 38.7602L165.49 37.1938ZM155.128 48.8896L154.758 49.4873L156.46 50.5383L156.829 49.9406L155.128 48.8896ZM154.518 49.8758L154.149 50.4735L155.851 51.5245L156.22 50.9268L154.518 49.8758Z" fill="#BDBDBD"/>
<path d="M29.9783 49.4151L30.4037 49.6778L30.4037 49.6778L29.9783 49.4151ZM28.5134 51.114C28.5769 51.3828 28.8463 51.5491 29.115 51.4856L33.4943 50.4505C33.7631 50.387 33.9294 50.1176 33.8659 49.8489C33.8024 49.5802 33.5331 49.4138 33.2643 49.4773L29.3716 50.3974L28.4515 46.5047C28.388 46.2359 28.1186 46.0696 27.8499 46.1331C27.5811 46.1966 27.4148 46.466 27.4783 46.7347L28.5134 51.114ZM99.6334 42.9215C99.8212 43.124 100.138 43.1359 100.34 42.9481C100.542 42.7603 100.554 42.4439 100.367 42.2414L99.6334 42.9215ZM88.0757 32.8741C87.8303 32.7475 87.5287 32.8437 87.402 33.0891C87.2754 33.3345 87.3717 33.6361 87.617 33.7628L88.0757 32.8741ZM78.4099 30.2753C78.6775 30.3431 78.9495 30.181 79.0173 29.9134C79.0851 29.6457 78.9231 29.3737 78.6554 29.3059L78.4099 30.2753ZM48.3534 32.2631C48.1039 32.3814 47.9975 32.6796 48.1158 32.9291C48.2341 33.1786 48.5322 33.285 48.7818 33.1668L48.3534 32.2631ZM40.4226 38.3686C40.6389 38.1969 40.675 37.8824 40.5033 37.6661C40.3316 37.4498 40.0171 37.4137 39.8008 37.5854L40.4226 38.3686ZM29.1837 49.75C29.0386 49.985 29.1115 50.2931 29.3464 50.4382C29.5813 50.5833 29.8894 50.5105 30.0345 50.2755L29.1837 49.75ZM29.7946 50.664C29.9397 50.4291 29.8669 50.121 29.6319 49.9759C29.397 49.8308 29.0889 49.9036 28.9438 50.1386L29.7946 50.664ZM100.367 42.2414C96.7031 38.2921 92.5358 35.1761 88.0757 32.8741L87.617 33.7628C91.9752 36.0121 96.0495 39.0579 99.6334 42.9215L100.367 42.2414ZM78.6554 29.3059C68.5489 26.7458 57.7743 27.7973 48.3534 32.2631L48.7818 33.1668C57.9925 28.8006 68.5288 27.7723 78.4099 30.2753L78.6554 29.3059ZM39.8008 37.5854C35.8699 40.7063 32.3837 44.5692 29.5529 49.1523L30.4037 49.6778C33.1731 45.1941 36.5816 41.4181 40.4226 38.3686L39.8008 37.5854ZM29.5529 49.1523L29.1837 49.75L30.0345 50.2755L30.4037 49.6778L29.5529 49.1523ZM28.9438 50.1386L28.5746 50.7363L29.4254 51.2618L29.7946 50.664L28.9438 50.1386ZM29.9783 49.4151L30.8291 49.9406L30.8291 49.9406L29.9783 49.4151ZM28.0268 51.229C28.1539 51.7665 28.6926 52.0992 29.23 51.9722L37.9887 49.902C38.5262 49.7749 38.8589 49.2363 38.7318 48.6988C38.6048 48.1613 38.0661 47.8286 37.5286 47.9556L29.7432 49.7958L27.903 42.0103C27.7759 41.4729 27.2372 41.1401 26.6998 41.2672C26.1623 41.3942 25.8296 41.9329 25.9566 42.4704L28.0268 51.229ZM99.2669 43.2616C99.6425 43.6665 100.275 43.6902 100.68 43.3146C101.085 42.939 101.109 42.3063 100.733 41.9014L99.2669 43.2616ZM88.305 32.4298C87.8142 32.1765 87.211 32.369 86.9577 32.8598C86.7044 33.3506 86.8969 33.9538 87.3877 34.2071L88.305 32.4298ZM78.2871 30.76C78.8225 30.8956 79.3664 30.5715 79.502 30.0361C79.6376 29.5008 79.3136 28.9568 78.7782 28.8212L78.2871 30.76ZM48.1393 31.8113C47.6402 32.0479 47.4274 32.6442 47.664 33.1433C47.9006 33.6423 48.4969 33.8551 48.9959 33.6186L48.1393 31.8113ZM40.7335 38.7602C41.166 38.4168 41.2383 37.7877 40.8949 37.3552C40.5515 36.9227 39.9224 36.8504 39.4899 37.1938L40.7335 38.7602ZM28.7583 49.4873C28.4681 49.9572 28.6138 50.5734 29.0836 50.8636C29.5535 51.1538 30.1697 51.0082 30.4599 50.5383L28.7583 49.4873ZM30.22 50.9268C30.5102 50.4569 30.3646 49.8407 29.8947 49.5505C29.4248 49.2603 28.8086 49.4059 28.5184 49.8758L30.22 50.9268ZM100.733 41.9014C97.03 37.9093 92.8161 34.7581 88.305 32.4298L87.3877 34.2071C91.6949 36.4301 95.7226 39.4407 99.2669 43.2616L100.733 41.9014ZM78.7782 28.8212C68.5589 26.2326 57.6652 27.2957 48.1393 31.8113L48.9959 33.6186C58.1016 29.3022 68.5187 28.2855 78.2871 30.76L78.7782 28.8212ZM39.4899 37.1938C35.5141 40.3503 31.989 44.2568 29.1275 48.8896L30.8291 49.9406C33.5678 45.5066 36.9374 41.774 40.7335 38.7602L39.4899 37.1938ZM29.1275 48.8896L28.7583 49.4873L30.4599 50.5383L30.8291 49.9406L29.1275 48.8896ZM28.5184 49.8758L28.1492 50.4735L29.8508 51.5245L30.22 50.9268L28.5184 49.8758Z" fill="#BDBDBD"/>
<path d="M386.978 49.4151L387.404 49.6778L387.404 49.6778L386.978 49.4151ZM385.513 51.114C385.577 51.3828 385.846 51.5491 386.115 51.4856L390.494 50.4505C390.763 50.387 390.929 50.1176 390.866 49.8489C390.802 49.5802 390.533 49.4138 390.264 49.4773L386.372 50.3974L385.451 46.5047C385.388 46.2359 385.119 46.0696 384.85 46.1331C384.581 46.1966 384.415 46.466 384.478 46.7347L385.513 51.114ZM456.633 42.9215C456.821 43.124 457.138 43.1359 457.34 42.9481C457.542 42.7603 457.554 42.4439 457.367 42.2414L456.633 42.9215ZM445.076 32.8741C444.83 32.7475 444.529 32.8437 444.402 33.0891C444.275 33.3345 444.372 33.6361 444.617 33.7628L445.076 32.8741ZM435.41 30.2753C435.678 30.3431 435.95 30.181 436.017 29.9134C436.085 29.6457 435.923 29.3737 435.655 29.3059L435.41 30.2753ZM405.353 32.2631C405.104 32.3814 404.998 32.6796 405.116 32.9291C405.234 33.1786 405.532 33.285 405.782 33.1668L405.353 32.2631ZM397.423 38.3686C397.639 38.1969 397.675 37.8824 397.503 37.6661C397.332 37.4498 397.017 37.4137 396.801 37.5854L397.423 38.3686ZM386.184 49.75C386.039 49.985 386.111 50.2931 386.346 50.4382C386.581 50.5833 386.889 50.5105 387.035 50.2755L386.184 49.75ZM386.795 50.664C386.94 50.4291 386.867 50.121 386.632 49.9759C386.397 49.8308 386.089 49.9036 385.944 50.1386L386.795 50.664ZM457.367 42.2414C453.703 38.2921 449.536 35.1761 445.076 32.8741L444.617 33.7628C448.975 36.0121 453.049 39.0579 456.633 42.9215L457.367 42.2414ZM435.655 29.3059C425.549 26.7458 414.774 27.7973 405.353 32.2631L405.782 33.1668C414.992 28.8006 425.529 27.7723 435.41 30.2753L435.655 29.3059ZM396.801 37.5854C392.87 40.7063 389.384 44.5692 386.553 49.1523L387.404 49.6778C390.173 45.1941 393.582 41.4181 397.423 38.3686L396.801 37.5854ZM386.553 49.1523L386.184 49.75L387.035 50.2755L387.404 49.6778L386.553 49.1523ZM385.944 50.1386L385.575 50.7363L386.425 51.2618L386.795 50.664L385.944 50.1386ZM386.978 49.4151L387.829 49.9406L387.829 49.9406L386.978 49.4151ZM385.027 51.229C385.154 51.7665 385.693 52.0992 386.23 51.9722L394.989 49.902C395.526 49.7749 395.859 49.2363 395.732 48.6988C395.605 48.1613 395.066 47.8286 394.529 47.9556L386.743 49.7958L384.903 42.0103C384.776 41.4729 384.237 41.1401 383.7 41.2672C383.162 41.3942 382.83 41.9329 382.957 42.4704L385.027 51.229ZM456.267 43.2616C456.642 43.6665 457.275 43.6902 457.68 43.3146C458.085 42.939 458.109 42.3063 457.733 41.9014L456.267 43.2616ZM445.305 32.4298C444.814 32.1765 444.211 32.369 443.958 32.8598C443.704 33.3506 443.897 33.9538 444.388 34.2071L445.305 32.4298ZM435.287 30.76C435.822 30.8956 436.366 30.5715 436.502 30.0361C436.638 29.5008 436.314 28.9568 435.778 28.8212L435.287 30.76ZM405.139 31.8113C404.64 32.0479 404.427 32.6442 404.664 33.1433C404.901 33.6423 405.497 33.8551 405.996 33.6186L405.139 31.8113ZM397.733 38.7602C398.166 38.4168 398.238 37.7877 397.895 37.3552C397.551 36.9227 396.922 36.8504 396.49 37.1938L397.733 38.7602ZM385.758 49.4873C385.468 49.9572 385.614 50.5734 386.084 50.8636C386.554 51.1538 387.17 51.0082 387.46 50.5383L385.758 49.4873ZM387.22 50.9268C387.51 50.4569 387.365 49.8407 386.895 49.5505C386.425 49.2603 385.809 49.4059 385.518 49.8758L387.22 50.9268ZM457.733 41.9014C454.03 37.9093 449.816 34.7581 445.305 32.4298L444.388 34.2071C448.695 36.4301 452.723 39.4407 456.267 43.2616L457.733 41.9014ZM435.778 28.8212C425.559 26.2326 414.665 27.2957 405.139 31.8113L405.996 33.6186C415.102 29.3022 425.519 28.2855 435.287 30.76L435.778 28.8212ZM396.49 37.1938C392.514 40.3503 388.989 44.2568 386.128 48.8896L387.829 49.9406C390.568 45.5066 393.937 41.774 397.733 38.7602L396.49 37.1938ZM386.128 48.8896L385.758 49.4873L387.46 50.5383L387.829 49.9406L386.128 48.8896ZM385.518 49.8758L385.149 50.4735L386.851 51.5245L387.22 50.9268L385.518 49.8758Z" fill="#BDBDBD"/>
<path d="M272.978 49.4151L273.404 49.6778L273.404 49.6778L272.978 49.4151ZM271.513 51.114C271.577 51.3828 271.846 51.5491 272.115 51.4856L276.494 50.4505C276.763 50.387 276.929 50.1176 276.866 49.8489C276.802 49.5802 276.533 49.4138 276.264 49.4773L272.372 50.3974L271.451 46.5047C271.388 46.2359 271.119 46.0696 270.85 46.1331C270.581 46.1966 270.415 46.466 270.478 46.7347L271.513 51.114ZM342.633 42.9215C342.821 43.124 343.138 43.1359 343.34 42.9481C343.542 42.7603 343.554 42.4439 343.367 42.2414L342.633 42.9215ZM331.076 32.8741C330.83 32.7475 330.529 32.8437 330.402 33.0891C330.275 33.3345 330.372 33.6361 330.617 33.7628L331.076 32.8741ZM321.41 30.2753C321.678 30.3431 321.95 30.181 322.017 29.9134C322.085 29.6457 321.923 29.3737 321.655 29.3059L321.41 30.2753ZM291.353 32.2631C291.104 32.3814 290.998 32.6796 291.116 32.9291C291.234 33.1786 291.532 33.285 291.782 33.1668L291.353 32.2631ZM283.423 38.3686C283.639 38.1969 283.675 37.8824 283.503 37.6661C283.332 37.4498 283.017 37.4137 282.801 37.5854L283.423 38.3686ZM272.184 49.75C272.039 49.985 272.111 50.2931 272.346 50.4382C272.581 50.5833 272.889 50.5105 273.035 50.2755L272.184 49.75ZM272.795 50.664C272.94 50.4291 272.867 50.121 272.632 49.9759C272.397 49.8308 272.089 49.9036 271.944 50.1386L272.795 50.664ZM343.367 42.2414C339.703 38.2921 335.536 35.1761 331.076 32.8741L330.617 33.7628C334.975 36.0121 339.049 39.0579 342.633 42.9215L343.367 42.2414ZM321.655 29.3059C311.549 26.7458 300.774 27.7973 291.353 32.2631L291.782 33.1668C300.992 28.8006 311.529 27.7723 321.41 30.2753L321.655 29.3059ZM282.801 37.5854C278.87 40.7063 275.384 44.5692 272.553 49.1523L273.404 49.6778C276.173 45.1941 279.582 41.4181 283.423 38.3686L282.801 37.5854ZM272.553 49.1523L272.184 49.75L273.035 50.2755L273.404 49.6778L272.553 49.1523ZM271.944 50.1386L271.575 50.7363L272.425 51.2618L272.795 50.664L271.944 50.1386ZM272.978 49.4151L273.829 49.9406L273.829 49.9406L272.978 49.4151ZM271.027 51.229C271.154 51.7665 271.693 52.0992 272.23 51.9722L280.989 49.902C281.526 49.7749 281.859 49.2363 281.732 48.6988C281.605 48.1613 281.066 47.8286 280.529 47.9556L272.743 49.7958L270.903 42.0103C270.776 41.4729 270.237 41.1401 269.7 41.2672C269.162 41.3942 268.83 41.9329 268.957 42.4704L271.027 51.229ZM342.267 43.2616C342.642 43.6665 343.275 43.6902 343.68 43.3146C344.085 42.939 344.109 42.3063 343.733 41.9014L342.267 43.2616ZM331.305 32.4298C330.814 32.1765 330.211 32.369 329.958 32.8598C329.704 33.3506 329.897 33.9538 330.388 34.2071L331.305 32.4298ZM321.287 30.76C321.822 30.8956 322.366 30.5715 322.502 30.0361C322.638 29.5008 322.314 28.9568 321.778 28.8212L321.287 30.76ZM291.139 31.8113C290.64 32.0479 290.427 32.6442 290.664 33.1433C290.901 33.6423 291.497 33.8551 291.996 33.6186L291.139 31.8113ZM283.733 38.7602C284.166 38.4168 284.238 37.7877 283.895 37.3552C283.551 36.9227 282.922 36.8504 282.49 37.1938L283.733 38.7602ZM271.758 49.4873C271.468 49.9572 271.614 50.5734 272.084 50.8636C272.554 51.1538 273.17 51.0082 273.46 50.5383L271.758 49.4873ZM273.22 50.9268C273.51 50.4569 273.365 49.8407 272.895 49.5505C272.425 49.2603 271.809 49.4059 271.518 49.8758L273.22 50.9268ZM343.733 41.9014C340.03 37.9093 335.816 34.7581 331.305 32.4298L330.388 34.2071C334.695 36.4301 338.723 39.4407 342.267 43.2616L343.733 41.9014ZM321.778 28.8212C311.559 26.2326 300.665 27.2957 291.139 31.8113L291.996 33.6186C301.102 29.3022 311.519 28.2855 321.287 30.76L321.778 28.8212ZM282.49 37.1938C278.514 40.3503 274.989 44.2568 272.128 48.8896L273.829 49.9406C276.568 45.5066 279.937 41.774 283.733 38.7602L282.49 37.1938ZM272.128 48.8896L271.758 49.4873L273.46 50.5383L273.829 49.9406L272.128 48.8896ZM271.518 49.8758L271.149 50.4735L272.851 51.5245L273.22 50.9268L271.518 49.8758Z" fill="#BDBDBD"/>
<path d="M503.978 49.4151L504.404 49.6778L504.404 49.6778L503.978 49.4151ZM502.513 51.114C502.577 51.3828 502.846 51.5491 503.115 51.4856L507.494 50.4505C507.763 50.387 507.929 50.1176 507.866 49.8489C507.802 49.5802 507.533 49.4138 507.264 49.4773L503.372 50.3974L502.451 46.5047C502.388 46.2359 502.119 46.0696 501.85 46.1331C501.581 46.1966 501.415 46.466 501.478 46.7347L502.513 51.114ZM573.633 42.9215C573.821 43.124 574.138 43.1359 574.34 42.9481C574.542 42.7603 574.554 42.4439 574.367 42.2414L573.633 42.9215ZM562.076 32.8741C561.83 32.7475 561.529 32.8437 561.402 33.0891C561.275 33.3345 561.372 33.6361 561.617 33.7628L562.076 32.8741ZM552.41 30.2753C552.678 30.3431 552.95 30.181 553.017 29.9134C553.085 29.6457 552.923 29.3737 552.655 29.3059L552.41 30.2753ZM522.353 32.2631C522.104 32.3814 521.998 32.6796 522.116 32.9291C522.234 33.1786 522.532 33.285 522.782 33.1668L522.353 32.2631ZM514.423 38.3686C514.639 38.1969 514.675 37.8824 514.503 37.6661C514.332 37.4498 514.017 37.4137 513.801 37.5854L514.423 38.3686ZM503.184 49.75C503.039 49.985 503.111 50.2931 503.346 50.4382C503.581 50.5833 503.889 50.5105 504.035 50.2755L503.184 49.75ZM503.795 50.664C503.94 50.4291 503.867 50.121 503.632 49.9759C503.397 49.8308 503.089 49.9036 502.944 50.1386L503.795 50.664ZM574.367 42.2414C570.703 38.2921 566.536 35.1761 562.076 32.8741L561.617 33.7628C565.975 36.0121 570.049 39.0579 573.633 42.9215L574.367 42.2414ZM552.655 29.3059C542.549 26.7458 531.774 27.7973 522.353 32.2631L522.782 33.1668C531.992 28.8006 542.529 27.7723 552.41 30.2753L552.655 29.3059ZM513.801 37.5854C509.87 40.7063 506.384 44.5692 503.553 49.1523L504.404 49.6778C507.173 45.1941 510.582 41.4181 514.423 38.3686L513.801 37.5854ZM503.553 49.1523L503.184 49.75L504.035 50.2755L504.404 49.6778L503.553 49.1523ZM502.944 50.1386L502.575 50.7363L503.425 51.2618L503.795 50.664L502.944 50.1386ZM503.978 49.4151L504.829 49.9406L504.829 49.9406L503.978 49.4151ZM502.027 51.229C502.154 51.7665 502.693 52.0992 503.23 51.9722L511.989 49.902C512.526 49.7749 512.859 49.2363 512.732 48.6988C512.605 48.1613 512.066 47.8286 511.529 47.9556L503.743 49.7958L501.903 42.0103C501.776 41.4729 501.237 41.1401 500.7 41.2672C500.162 41.3942 499.83 41.9329 499.957 42.4704L502.027 51.229ZM573.267 43.2616C573.642 43.6665 574.275 43.6902 574.68 43.3146C575.085 42.939 575.109 42.3063 574.733 41.9014L573.267 43.2616ZM562.305 32.4298C561.814 32.1765 561.211 32.369 560.958 32.8598C560.704 33.3506 560.897 33.9538 561.388 34.2071L562.305 32.4298ZM552.287 30.76C552.822 30.8956 553.366 30.5715 553.502 30.0361C553.638 29.5008 553.314 28.9568 552.778 28.8212L552.287 30.76ZM522.139 31.8113C521.64 32.0479 521.427 32.6442 521.664 33.1433C521.901 33.6423 522.497 33.8551 522.996 33.6186L522.139 31.8113ZM514.733 38.7602C515.166 38.4168 515.238 37.7877 514.895 37.3552C514.551 36.9227 513.922 36.8504 513.49 37.1938L514.733 38.7602ZM502.758 49.4873C502.468 49.9572 502.614 50.5734 503.084 50.8636C503.554 51.1538 504.17 51.0082 504.46 50.5383L502.758 49.4873ZM504.22 50.9268C504.51 50.4569 504.365 49.8407 503.895 49.5505C503.425 49.2603 502.809 49.4059 502.518 49.8758L504.22 50.9268ZM574.733 41.9014C571.03 37.9093 566.816 34.7581 562.305 32.4298L561.388 34.2071C565.695 36.4301 569.723 39.4407 573.267 43.2616L574.733 41.9014ZM552.778 28.8212C542.559 26.2326 531.665 27.2957 522.139 31.8113L522.996 33.6186C532.102 29.3022 542.519 28.2855 552.287 30.76L552.778 28.8212ZM513.49 37.1938C509.514 40.3503 505.989 44.2568 503.128 48.8896L504.829 49.9406C507.568 45.5066 510.937 41.774 514.733 38.7602L513.49 37.1938ZM503.128 48.8896L502.758 49.4873L504.46 50.5383L504.829 49.9406L503.128 48.8896ZM502.518 49.8758L502.149 50.4735L503.851 51.5245L504.22 50.9268L502.518 49.8758Z" fill="#BDBDBD"/>
</svg>
