<svg width="12" height="13" viewBox="0 0 12 13" fill="none" xmlns="http://www.w3.org/2000/svg">
<path d="M12 1.54949C12 1.2844 11.8947 1.03017 11.7072 0.842728C11.5198 0.655282 11.2656 0.549976 11.0005 0.549976L3.00435 0.5C2.73926 0.5 2.48503 0.605306 2.29758 0.792752C2.11014 0.980198 2.00483 1.23443 2.00483 1.49952C2.00483 1.76461 2.11014 2.01884 2.29758 2.20628C2.48503 2.39373 2.73926 2.49903 3.00435 2.49903H8.56166L0.295655 10.785C0.201972 10.8779 0.127614 10.9885 0.07687 11.1103C0.0261259 11.2321 0 11.3627 0 11.4947C0 11.6266 0.0261259 11.7573 0.07687 11.8791C0.127614 12.0009 0.201972 12.1114 0.295655 12.2043C0.388574 12.298 0.499121 12.3724 0.620921 12.4231C0.742722 12.4739 0.873364 12.5 1.00531 12.5C1.13726 12.5 1.2679 12.4739 1.3897 12.4231C1.5115 12.3724 1.62205 12.298 1.71497 12.2043L10.001 3.91835V9.49565C10.001 9.76074 10.1063 10.015 10.2937 10.2024C10.4812 10.3899 10.7354 10.4952 11.0005 10.4952C11.2656 10.4952 11.5198 10.3899 11.7072 10.2024C11.8947 10.015 12 9.76074 12 9.49565V1.54949Z" fill="#3A2D52"/>
</svg>
