<svg width="81" height="54" viewBox="0 0 81 54" fill="none" xmlns="http://www.w3.org/2000/svg">
<path d="M2.88902 52.8742C1.5223 52.6781 0.573315 51.4112 0.769405 50.0445C0.965487 48.6778 2.23239 47.7288 3.5991 47.9249L2.88902 52.8742ZM40.6099 7.67444L38.8403 9.44039L40.6099 7.67444ZM15.8436 27.0628L13.9043 28.6406L15.8436 27.0628ZM77.8333 7.52803C79.214 7.53049 80.3313 8.65177 80.3289 10.0325L80.2887 32.5324C80.2863 33.9132 79.165 35.0304 77.7843 35.028C76.4036 35.0255 75.2863 33.9042 75.2887 32.5235L75.3244 12.5236L55.3245 12.4879C53.9437 12.4854 52.8265 11.3641 52.8289 9.98341C52.8314 8.6027 53.9527 7.48541 55.3334 7.48788L77.8333 7.52803ZM33.5163 41.8481L35.2882 43.6117L33.5163 41.8481ZM3.5991 47.9249C4.27114 48.0213 4.98136 48.0969 5.72387 48.1498L5.36891 53.1372C4.51548 53.0764 3.68649 52.9886 2.88902 52.8742L3.5991 47.9249ZM7.45429 48.2296C8.84492 48.2602 10.3115 48.2149 11.8184 48.086L12.2446 53.0678C10.5642 53.2116 8.91852 53.2631 7.34405 53.2283L7.45429 48.2296ZM13.5624 47.9011C14.9906 47.7203 16.4365 47.4651 17.8714 47.1309L19.0058 52.0005C17.397 52.3753 15.7817 52.6601 14.1901 52.8615L13.5624 47.9011ZM19.5625 46.6982C20.9632 46.3067 22.3372 45.8382 23.6588 45.2895L25.5759 49.9074C24.0533 50.5395 22.4872 51.0724 20.9083 51.5136L19.5625 46.6982ZM25.2264 44.5884C26.5257 43.9633 27.7537 43.2566 28.8868 42.4667L31.7461 46.5685C30.3718 47.5265 28.9092 48.3651 27.3943 49.094L25.2264 44.5884ZM30.2178 41.4638C30.7557 41.0254 31.2654 40.5656 31.7444 40.0844L35.2882 43.6117C34.6812 44.2215 34.0424 44.7969 33.3771 45.3393L30.2178 41.4638ZM31.7444 40.0844C32.2812 39.5451 32.8038 39.003 33.3113 38.4587L36.9686 41.8681C36.4226 42.4538 35.862 43.0352 35.2882 43.6117L31.7444 40.0844ZM34.5184 37.1267C35.5322 35.9751 36.4733 34.8175 37.3329 33.6594L41.3478 36.6395C40.3981 37.9189 39.3685 39.1842 38.2715 40.4304L34.5184 37.1267ZM38.3617 32.2158C39.2197 30.9591 39.974 29.709 40.6158 28.4722L45.0539 30.7751C44.3096 32.2096 43.4491 33.6318 42.4911 35.035L38.3617 32.2158ZM41.3643 26.9208C41.9679 25.5662 42.425 24.2399 42.7294 22.949L47.5959 24.0966C47.2109 25.7292 46.6458 27.3525 45.9316 28.9556L41.3643 26.9208ZM43.0316 21.3421C43.2215 19.9757 43.2288 18.6546 43.0469 17.3809L47.9966 16.6738C48.2505 18.4505 48.2324 20.2431 47.984 22.0303L43.0316 21.3421ZM42.7318 15.8547C42.4026 14.6459 41.8823 13.4536 41.1401 12.2828L45.3631 9.60574C46.366 11.1879 47.0925 12.8384 47.5561 14.541L42.7318 15.8547ZM40.2072 10.9716C39.8008 10.4583 39.3464 9.94748 38.8403 9.44039L42.3795 5.90848C43.0144 6.54471 43.5969 7.19803 44.1273 7.86795L40.2072 10.9716ZM38.8403 9.44039C38.3107 8.90966 37.7708 8.43439 37.2244 8.01073L40.2881 4.05926C41.0057 4.61563 41.7039 5.23155 42.3795 5.90848L38.8403 9.44039ZM35.8298 7.04657C34.575 6.27934 33.2873 5.75019 31.9983 5.42549L33.2197 0.576971C34.9969 1.02466 36.7523 1.75004 38.438 2.78075L35.8298 7.04657ZM30.367 5.12097C28.9682 4.94891 27.5676 5.00072 26.2064 5.24837L25.3114 0.329121C27.1463 -0.00471104 29.0548 -0.0781134 30.9774 0.158365L30.367 5.12097ZM24.5693 5.6455C23.2119 6.05862 21.9206 6.66472 20.745 7.42788L18.0224 3.23415C19.5838 2.22052 21.3006 1.41385 23.1136 0.862105L24.5693 5.6455ZM19.3806 8.42711C18.281 9.33252 17.3357 10.3779 16.5888 11.5172L12.4072 8.77585C13.444 7.1944 14.7337 5.77654 16.2024 4.56723L19.3806 8.42711ZM15.7818 12.9446C15.1962 14.1658 14.8319 15.4615 14.7251 16.7953L9.74106 16.3963C9.89994 14.4115 10.4399 12.5207 11.2733 10.7826L15.7818 12.9446ZM14.7204 18.3822C14.8126 19.6298 15.135 20.9321 15.7467 22.2646L11.2026 24.3505C10.3493 22.4916 9.87134 20.609 9.734 18.7507L14.7204 18.3822ZM16.5356 23.7356C16.8909 24.3133 17.3048 24.8975 17.7828 25.485L13.9043 28.6406C13.2938 27.8902 12.7517 27.1275 12.2766 26.3549L16.5356 23.7356ZM17.7828 25.485C18.2689 26.0825 18.7585 26.643 19.2509 27.1683L15.6031 30.5879C15.0278 29.9742 14.4615 29.3254 13.9043 28.6406L17.7828 25.485ZM20.4983 28.4194C21.6187 29.4733 22.7521 30.3568 23.8925 31.0893L21.1903 35.2962C19.7779 34.389 18.4038 33.3137 17.0724 32.0612L20.4983 28.4194ZM25.3602 31.9484C26.6527 32.6334 27.9619 33.1427 29.2834 33.498L27.9854 38.3266C26.3023 37.8741 24.6432 37.2272 23.019 36.3664L25.3602 31.9484ZM30.9311 33.8616C32.3224 34.1034 33.7388 34.1889 35.1764 34.1335L35.3691 39.1297C33.6058 39.1978 31.8366 39.0939 30.0749 38.7877L30.9311 33.8616ZM36.9006 34.0014C38.3183 33.8404 39.7548 33.5509 41.2046 33.147L42.5467 37.9635C40.8703 38.4306 39.173 38.7755 37.465 38.9695L36.9006 34.0014ZM42.91 32.6217C44.3021 32.1529 45.6991 31.5864 47.0949 30.9367L49.2048 35.4698C47.6611 36.1883 46.0922 36.8259 44.5058 37.3602L42.91 32.6217ZM48.7353 30.1353C50.0789 29.4483 51.4149 28.6915 52.7376 27.8791L55.3542 32.1398C53.9331 33.0126 52.4834 33.8346 51.0115 34.5871L48.7353 30.1353ZM54.3003 26.8903C55.5932 26.0483 56.8681 25.1599 58.1192 24.2397L61.0816 28.2676C59.7625 29.2378 58.4095 30.181 57.0288 31.0802L54.3003 26.8903ZM59.6132 23.1178C60.8626 22.1606 62.0832 21.1783 63.2692 20.1868L66.4763 24.0227C65.2422 25.0545 63.966 26.0817 62.6541 27.0868L59.6132 23.1178ZM64.7022 18.9703C65.9204 17.9208 67.0959 16.8695 68.2219 15.8353L71.6043 19.5175C70.4448 20.5826 69.2294 21.6697 67.9656 22.7584L64.7022 18.9703ZM69.6059 14.5499C70.8156 13.4145 71.9586 12.3113 73.0257 11.266L76.5243 14.8381C75.4389 15.9012 74.2696 17.0299 73.0277 18.1956L69.6059 14.5499ZM74.3815 9.93023C74.9712 9.34623 75.532 8.78744 76.0643 8.2571L79.5935 11.7989C79.0618 12.3287 78.4958 12.8927 77.9 13.4828L74.3815 9.93023Z" fill="url(#paint0_linear_2096_665)"/>
<defs>
<linearGradient id="paint0_linear_2096_665" x1="-41.7376" y1="44.8503" x2="-26.8616" y2="-30.9768" gradientUnits="userSpaceOnUse">
<stop stop-color="#55F222"/>
<stop offset="0.319792" stop-color="#00FFF6"/>
<stop offset="0.664658" stop-color="#E88AFF"/>
<stop offset="1" stop-color="#FFD719"/>
</linearGradient>
</defs>
</svg>
