<svg width="64" height="50" viewBox="0 0 64 50" fill="none" xmlns="http://www.w3.org/2000/svg">
<path d="M22.056 0L26.3738 10.5183C21.7476 11.7378 18.5606 13.3638 16.813 15.3963C15.0653 17.5305 14.2429 20.2744 14.3457 23.628V24.0854H27.9158V50H0.00453545V25.7622C-0.0982683 19.2581 1.5466 13.8211 4.93913 9.45123C8.33166 4.97968 14.0373 1.82927 22.056 0ZM58.1402 0L62.4579 10.5183C57.8318 11.7378 54.6448 13.3638 52.8972 15.3963C51.1495 17.5305 50.3271 20.2744 50.4299 23.628V24.0854H64V50H36.0887V25.7622C35.9859 19.2581 37.6308 13.8211 41.0233 9.45123C44.4158 4.97968 50.1215 1.82927 58.1402 0Z" fill="#16013E"/>
</svg>
