<svg width="159" height="25" viewBox="0 0 159 25" fill="none" xmlns="http://www.w3.org/2000/svg">
<path d="M8.35598 8.24562L0.988916 9.30309L0.858434 9.32938C0.660908 9.3813 0.480837 9.48418 0.336611 9.62753C0.192384 9.77088 0.0891689 9.94956 0.0375055 10.1453C-0.0141578 10.3411 -0.0124183 10.5469 0.0425463 10.7418C0.097511 10.9367 0.203731 11.1136 0.350361 11.2545L5.68744 16.3978L4.4288 23.6629L4.41379 23.7887C4.4017 23.9909 4.44412 24.1927 4.53671 24.3734C4.6293 24.5541 4.76873 24.7072 4.94073 24.817C5.11272 24.9268 5.3111 24.9894 5.51556 24.9983C5.72001 25.0073 5.92319 24.9622 6.10429 24.8679L12.6931 21.4382L19.2668 24.8679L19.3823 24.9205C19.5729 24.9948 19.7801 25.0176 19.9825 24.9865C20.1849 24.9554 20.3754 24.8716 20.5343 24.7436C20.6932 24.6156 20.8148 24.448 20.8867 24.2581C20.9586 24.0682 20.9782 23.8628 20.9435 23.6629L19.6837 16.3978L25.0231 11.2534L25.1132 11.1562C25.2418 10.9993 25.3262 10.8115 25.3576 10.6118C25.3891 10.4122 25.3665 10.2078 25.2922 10.0196C25.218 9.83135 25.0946 9.66598 24.9347 9.54032C24.7749 9.41466 24.5842 9.3332 24.3822 9.30423L17.0152 8.24562L13.7219 1.63788C13.6266 1.44643 13.4791 1.28521 13.2961 1.17248C13.113 1.05975 12.9017 1 12.6861 1C12.4706 1 12.2593 1.05975 12.0762 1.17248C11.8932 1.28521 11.7457 1.44643 11.6504 1.63788L8.35598 8.24562Z" fill="#FFCC00"/>
<path d="M41.7271 8.24562L34.36 9.30309L34.2295 9.32938C34.032 9.3813 33.8519 9.48418 33.7077 9.62753C33.5635 9.77088 33.4603 9.94956 33.4086 10.1453C33.3569 10.3411 33.3587 10.5469 33.4136 10.7418C33.4686 10.9367 33.5748 11.1136 33.7215 11.2545L39.0585 16.3978L37.7999 23.6629L37.7849 23.7887C37.7728 23.9909 37.8152 24.1927 37.9078 24.3734C38.0004 24.5541 38.1398 24.7072 38.3118 24.817C38.4838 24.9268 38.6822 24.9894 38.8867 24.9983C39.0911 25.0073 39.2943 24.9622 39.4754 24.8679L46.0642 21.4382L52.6379 24.8679L52.7534 24.9205C52.944 24.9948 53.1512 25.0176 53.3536 24.9865C53.556 24.9554 53.7464 24.8716 53.9053 24.7436C54.0642 24.6156 54.1859 24.448 54.2578 24.2581C54.3297 24.0682 54.3493 23.8628 54.3146 23.6629L53.0548 16.3978L58.3942 11.2534L58.4842 11.1562C58.6129 10.9993 58.6973 10.8115 58.7287 10.6118C58.7602 10.4122 58.7376 10.2078 58.6633 10.0196C58.589 9.83135 58.4657 9.66598 58.3058 9.54032C58.146 9.41466 57.9553 9.3332 57.7533 9.30423L50.3863 8.24562L47.093 1.63788C46.9977 1.44643 46.8502 1.28521 46.6671 1.17248C46.4841 1.05975 46.2728 1 46.0572 1C45.8417 1 45.6304 1.05975 45.4473 1.17248C45.2643 1.28521 45.1168 1.44643 45.0215 1.63788L41.7271 8.24562Z" fill="#FFCC00"/>
<path d="M75.0982 8.24562L67.7311 9.30309L67.6006 9.32938C67.4031 9.3813 67.223 9.48418 67.0788 9.62753C66.9346 9.77088 66.8314 9.94956 66.7797 10.1453C66.728 10.3411 66.7298 10.5469 66.7847 10.7418C66.8397 10.9367 66.9459 11.1136 67.0925 11.2545L72.4296 16.3978L71.171 23.6629L71.156 23.7887C71.1439 23.9909 71.1863 24.1927 71.2789 24.3734C71.3715 24.5541 71.5109 24.7072 71.6829 24.817C71.8549 24.9268 72.0533 24.9894 72.2577 24.9983C72.4622 25.0073 72.6654 24.9622 72.8465 24.8679L79.4353 21.4382L86.009 24.8679L86.1245 24.9205C86.3151 24.9948 86.5222 25.0176 86.7247 24.9865C86.9271 24.9554 87.1175 24.8716 87.2764 24.7436C87.4353 24.6156 87.557 24.448 87.6289 24.2581C87.7008 24.0682 87.7204 23.8628 87.6857 23.6629L86.4259 16.3978L91.7653 11.2534L91.8553 11.1562C91.984 10.9993 92.0684 10.8115 92.0998 10.6118C92.1313 10.4122 92.1087 10.2078 92.0344 10.0196C91.9601 9.83135 91.8368 9.66598 91.6769 9.54032C91.5171 9.41466 91.3264 9.3332 91.1244 9.30423L83.7573 8.24562L80.4641 1.63788C80.3688 1.44643 80.2213 1.28521 80.0382 1.17248C79.8552 1.05975 79.6439 1 79.4283 1C79.2128 1 79.0015 1.05975 78.8184 1.17248C78.6354 1.28521 78.4879 1.44643 78.3926 1.63788L75.0982 8.24562Z" fill="#FFCC00"/>
<path d="M108.469 8.24562L101.102 9.30309L100.972 9.32938C100.774 9.3813 100.594 9.48418 100.45 9.62753C100.306 9.77088 100.202 9.94956 100.151 10.1453C100.099 10.3411 100.101 10.5469 100.156 10.7418C100.211 10.9367 100.317 11.1136 100.464 11.2545L105.801 16.3978L104.542 23.6629L104.527 23.7887C104.515 23.9909 104.557 24.1927 104.65 24.3734C104.743 24.5541 104.882 24.7072 105.054 24.817C105.226 24.9268 105.424 24.9894 105.629 24.9983C105.833 25.0073 106.036 24.9622 106.218 24.8679L112.806 21.4382L119.38 24.8679L119.496 24.9205C119.686 24.9948 119.893 25.0176 120.096 24.9865C120.298 24.9554 120.489 24.8716 120.648 24.7436C120.806 24.6156 120.928 24.448 121 24.2581C121.072 24.0682 121.092 23.8628 121.057 23.6629L119.797 16.3978L125.136 11.2534L125.226 11.1562C125.355 10.9993 125.439 10.8115 125.471 10.6118C125.502 10.4122 125.48 10.2078 125.406 10.0196C125.331 9.83135 125.208 9.66598 125.048 9.54032C124.888 9.41466 124.698 9.3332 124.496 9.30423L117.128 8.24562L113.835 1.63788C113.74 1.44643 113.592 1.28521 113.409 1.17248C113.226 1.05975 113.015 1 112.799 1C112.584 1 112.373 1.05975 112.19 1.17248C112.006 1.28521 111.859 1.44643 111.764 1.63788L108.469 8.24562Z" fill="#FFCC00"/>
<path d="M141.982 9.23548L142.501 9.16099L142.735 8.69181L146.03 2.08406L146.03 2.08347C146.042 2.06025 146.06 2.03926 146.085 2.02396C146.11 2.00862 146.14 2 146.171 2C146.201 2 146.231 2.00862 146.256 2.02396C146.281 2.03926 146.3 2.06025 146.311 2.08347L146.311 2.08394L149.605 8.69168L149.838 9.16089L150.357 9.23545L157.724 10.2941L157.725 10.2941C157.754 10.2982 157.78 10.3098 157.801 10.3265C157.822 10.3432 157.838 10.3642 157.846 10.3867C157.855 10.4091 157.858 10.433 157.854 10.4562C157.851 10.4746 157.844 10.4927 157.834 10.5093L157.793 10.5529L152.474 15.6777L152.092 16.0459L152.183 16.5687L153.443 23.8338L153.443 23.8342C153.447 23.8574 153.444 23.8814 153.436 23.904C153.427 23.9266 153.412 23.9479 153.391 23.9648C153.37 23.9818 153.344 23.9936 153.315 23.9981C153.291 24.0017 153.267 24.0001 153.244 23.9936L153.19 23.9689L146.64 20.5517L146.178 20.3106L145.716 20.5512L139.127 23.9808L139.127 23.981C139.102 23.994 139.073 24.0006 139.044 23.9993C139.014 23.998 138.987 23.989 138.963 23.9741C138.94 23.9593 138.922 23.9394 138.911 23.9174C138.902 23.9002 138.897 23.8818 138.896 23.8634L138.903 23.8076L140.157 16.5685L140.248 16.0459L139.866 15.6778L134.529 10.5345L134.528 10.5336C134.509 10.5153 134.496 10.4933 134.489 10.4703C134.483 10.4474 134.483 10.4235 134.489 10.4005C134.495 10.3775 134.507 10.3553 134.526 10.3368C134.541 10.3216 134.56 10.3093 134.582 10.3013L134.643 10.2889L141.982 9.23548Z" fill="#FDF3E7" stroke="#FFCC00" stroke-width="2"/>
<mask id="mask0_1878_10555" style="mask-type:alpha" maskUnits="userSpaceOnUse" x="132" y="0" width="14" height="25">
<rect x="132" width="14" height="25" fill="#D9D9D9"/>
</mask>
<g mask="url(#mask0_1878_10555)">
<path d="M141.469 8.24562L134.102 9.30309L133.972 9.32938C133.774 9.3813 133.594 9.48418 133.45 9.62753C133.306 9.77088 133.202 9.94956 133.151 10.1453C133.099 10.3411 133.101 10.5469 133.156 10.7418C133.211 10.9367 133.317 11.1136 133.464 11.2545L138.801 16.3978L137.542 23.6629L137.527 23.7887C137.515 23.9909 137.557 24.1927 137.65 24.3734C137.743 24.5541 137.882 24.7072 138.054 24.817C138.226 24.9268 138.424 24.9894 138.629 24.9983C138.833 25.0073 139.036 24.9622 139.218 24.8679L145.806 21.4382L152.38 24.8679L152.496 24.9205C152.686 24.9948 152.893 25.0176 153.096 24.9865C153.298 24.9554 153.489 24.8716 153.648 24.7436C153.806 24.6156 153.928 24.448 154 24.2581C154.072 24.0682 154.092 23.8628 154.057 23.6629L152.797 16.3978L158.136 11.2534L158.226 11.1562C158.355 10.9993 158.439 10.8115 158.471 10.6118C158.502 10.4122 158.48 10.2078 158.406 10.0196C158.331 9.83135 158.208 9.66598 158.048 9.54032C157.888 9.41466 157.698 9.3332 157.496 9.30423L150.128 8.24562L146.835 1.63788C146.74 1.44643 146.592 1.28521 146.409 1.17248C146.226 1.05975 146.015 1 145.799 1C145.584 1 145.373 1.05975 145.19 1.17248C145.006 1.28521 144.859 1.44643 144.764 1.63788L141.469 8.24562Z" fill="#FFCC00"/>
</g>
</svg>
