<svg width="75" height="12" viewBox="0 0 75 12" fill="none" xmlns="http://www.w3.org/2000/svg">
<path d="M3.94508 3.95788L0.466893 4.46546L0.405289 4.47808C0.312032 4.503 0.227016 4.55239 0.158923 4.6212C0.0908295 4.69 0.042099 4.77577 0.0177073 4.86973C-0.00668429 4.9637 -0.00586301 5.0625 0.0200872 5.15604C0.0460375 5.24958 0.0961869 5.33451 0.165414 5.40216L2.68519 7.87094L2.09095 11.3582L2.08387 11.4185C2.07816 11.5156 2.09819 11.6125 2.1419 11.6992C2.18561 11.786 2.25144 11.8594 2.33265 11.9121C2.41385 11.9649 2.50751 11.9949 2.60404 11.9992C2.70057 12.0035 2.79649 11.9819 2.882 11.9366L5.99273 10.2903L9.09639 11.9366L9.1509 11.9618C9.24089 11.9975 9.33869 12.0084 9.43426 11.9935C9.52983 11.9786 9.61974 11.9383 9.69476 11.8769C9.76978 11.8155 9.82722 11.735 9.86117 11.6439C9.89512 11.5527 9.90437 11.4541 9.88797 11.3582L9.29319 7.87094L11.8141 5.40161L11.8566 5.35497C11.9173 5.27967 11.9572 5.1895 11.972 5.09366C11.9869 4.99782 11.9762 4.89972 11.9411 4.80938C11.9061 4.71903 11.8478 4.63965 11.7723 4.57933C11.6969 4.51902 11.6069 4.47991 11.5115 4.46601L8.0333 3.95788L6.47848 0.786161C6.43349 0.694266 6.36384 0.616883 6.27742 0.562771C6.19099 0.508659 6.09124 0.47998 5.98946 0.47998C5.88768 0.47998 5.78793 0.508659 5.70151 0.562771C5.61509 0.616883 5.54544 0.694266 5.50045 0.786161L3.94508 3.95788Z" fill="#FFCC00"/>
<path d="M19.7004 3.95788L16.2223 4.46546L16.1607 4.47808C16.0674 4.503 15.9824 4.55239 15.9143 4.6212C15.8462 4.69 15.7975 4.77577 15.7731 4.86973C15.7487 4.9637 15.7495 5.0625 15.7755 5.15604C15.8014 5.24958 15.8516 5.33451 15.9208 5.40216L18.4406 7.87094L17.8463 11.3582L17.8392 11.4186C17.8335 11.5156 17.8536 11.6125 17.8973 11.6992C17.941 11.786 18.0068 11.8594 18.088 11.9121C18.1692 11.9649 18.2629 11.9949 18.3594 11.9992C18.4559 12.0035 18.5519 11.9819 18.6374 11.9366L21.7481 10.2903L24.8518 11.9366L24.9063 11.9618C24.9963 11.9975 25.0941 12.0084 25.1896 11.9935C25.2852 11.9786 25.3751 11.9383 25.4501 11.8769C25.5252 11.8155 25.5826 11.735 25.6165 11.6439C25.6505 11.5527 25.6597 11.4541 25.6433 11.3582L25.0486 7.87094L27.5694 5.40161L27.612 5.35497C27.6727 5.27967 27.7125 5.1895 27.7274 5.09366C27.7422 4.99782 27.7316 4.89972 27.6965 4.80938C27.6614 4.71903 27.6032 4.63965 27.5277 4.57933C27.4522 4.51902 27.3622 4.47992 27.2669 4.46601L23.7887 3.95788L22.2339 0.786161C22.1889 0.694266 22.1192 0.616883 22.0328 0.562771C21.9464 0.508659 21.8466 0.47998 21.7448 0.47998C21.6431 0.47998 21.5433 0.508659 21.4569 0.562771C21.3705 0.616883 21.3008 0.694266 21.2558 0.786161L19.7004 3.95788Z" fill="#FFCC00"/>
<path d="M35.4558 3.95788L31.9776 4.46546L31.916 4.47808C31.8228 4.503 31.7378 4.55239 31.6697 4.6212C31.6016 4.69 31.5528 4.77577 31.5284 4.86973C31.5041 4.9637 31.5049 5.0625 31.5308 5.15604C31.5568 5.24958 31.6069 5.33451 31.6762 5.40216L34.1959 7.87094L33.6017 11.3582L33.5946 11.4185C33.5889 11.5156 33.6089 11.6125 33.6526 11.6992C33.6964 11.786 33.7622 11.8594 33.8434 11.9121C33.9246 11.9649 34.0183 11.9949 34.1148 11.9992C34.2113 12.0035 34.3072 11.9819 34.3927 11.9366L37.5035 10.2903L40.6071 11.9366L40.6616 11.9618C40.7516 11.9975 40.8494 12.0084 40.945 11.9935C41.0406 11.9786 41.1305 11.9383 41.2055 11.8769C41.2805 11.8155 41.338 11.735 41.3719 11.6439C41.4059 11.5527 41.4151 11.4541 41.3987 11.3582L40.8039 7.87094L43.3248 5.40161L43.3673 5.35497C43.4281 5.27967 43.4679 5.1895 43.4827 5.09366C43.4976 4.99782 43.4869 4.89972 43.4519 4.80938C43.4168 4.71903 43.3586 4.63965 43.2831 4.57933C43.2076 4.51902 43.1176 4.47991 43.0222 4.46601L39.544 3.95788L37.9892 0.786161C37.9442 0.694266 37.8746 0.616883 37.7882 0.562771C37.7017 0.508659 37.602 0.47998 37.5002 0.47998C37.3984 0.47998 37.2987 0.508659 37.2123 0.562771C37.1258 0.616883 37.0562 0.694266 37.0112 0.786161L35.4558 3.95788Z" fill="#FFCC00"/>
<path d="M51.2112 3.95788L47.733 4.46546L47.6714 4.47808C47.5781 4.503 47.4931 4.55239 47.425 4.6212C47.3569 4.69 47.3082 4.77577 47.2838 4.86973C47.2594 4.9637 47.2603 5.0625 47.2862 5.15604C47.3122 5.24958 47.3623 5.33451 47.4315 5.40216L49.9513 7.87094L49.3571 11.3582L49.35 11.4185C49.3443 11.5156 49.3643 11.6125 49.408 11.6992C49.4517 11.786 49.5176 11.8594 49.5988 11.9121C49.68 11.9649 49.7736 11.9949 49.8702 11.9992C49.9667 12.0035 50.0626 11.9819 50.1481 11.9366L53.2588 10.2903L56.3625 11.9366L56.417 11.9618C56.507 11.9975 56.6048 12.0084 56.7004 11.9935C56.7959 11.9786 56.8859 11.9383 56.9609 11.8769C57.0359 11.8155 57.0933 11.735 57.1273 11.6439C57.1612 11.5527 57.1705 11.4541 57.1541 11.3582L56.5593 7.87094L59.0802 5.40161L59.1227 5.35497C59.1834 5.27967 59.2233 5.1895 59.2381 5.09366C59.253 4.99782 59.2423 4.89972 59.2072 4.80938C59.1722 4.71903 59.1139 4.63965 59.0385 4.57933C58.963 4.51902 58.873 4.47991 58.7776 4.46601L55.2994 3.95788L53.7446 0.786161C53.6996 0.694266 53.63 0.616883 53.5435 0.562771C53.4571 0.508659 53.3574 0.47998 53.2556 0.47998C53.1538 0.47998 53.054 0.508659 52.9676 0.562771C52.8812 0.616883 52.8115 0.694266 52.7666 0.786161L51.2112 3.95788Z" fill="#FFCC00"/>
<mask id="path-5-inside-1_1534_6169" fill="white">
<path d="M66.9666 3.95788L63.4884 4.46546L63.4268 4.47808C63.3335 4.503 63.2485 4.55239 63.1804 4.6212C63.1123 4.69 63.0636 4.77577 63.0392 4.86973C63.0148 4.9637 63.0156 5.0625 63.0416 5.15604C63.0675 5.24958 63.1177 5.33451 63.1869 5.40216L65.7067 7.87094L65.1124 11.3582L65.1054 11.4185C65.0996 11.5156 65.1197 11.6125 65.1634 11.6992C65.2071 11.786 65.2729 11.8594 65.3541 11.9121C65.4353 11.9649 65.529 11.9949 65.6255 11.9992C65.7221 12.0035 65.818 11.9819 65.9035 11.9366L69.0142 10.2903L72.1179 11.9366L72.1724 11.9618C72.2624 11.9975 72.3602 12.0084 72.4557 11.9935C72.5513 11.9786 72.6412 11.9383 72.7162 11.8769C72.7913 11.8155 72.8487 11.735 72.8827 11.6439C72.9166 11.5527 72.9259 11.4541 72.9095 11.3582L72.3147 7.87094L74.8355 5.40161L74.8781 5.35497C74.9388 5.27967 74.9786 5.1895 74.9935 5.09366C75.0083 4.99782 74.9977 4.89972 74.9626 4.80938C74.9275 4.71903 74.8693 4.63965 74.7938 4.57933C74.7184 4.51902 74.6283 4.47991 74.533 4.46601L71.0548 3.95788L69.5 0.786161C69.455 0.694266 69.3853 0.616883 69.2989 0.562771C69.2125 0.508659 69.1127 0.47998 69.0109 0.47998C68.9092 0.47998 68.8094 0.508659 68.723 0.562771C68.6366 0.616883 68.5669 0.694266 68.5219 0.786161L66.9666 3.95788Z"/>
</mask>
<path d="M66.9666 3.95788L63.4884 4.46546L63.4268 4.47808C63.3335 4.503 63.2485 4.55239 63.1804 4.6212C63.1123 4.69 63.0636 4.77577 63.0392 4.86973C63.0148 4.9637 63.0156 5.0625 63.0416 5.15604C63.0675 5.24958 63.1177 5.33451 63.1869 5.40216L65.7067 7.87094L65.1124 11.3582L65.1054 11.4185C65.0996 11.5156 65.1197 11.6125 65.1634 11.6992C65.2071 11.786 65.2729 11.8594 65.3541 11.9121C65.4353 11.9649 65.529 11.9949 65.6255 11.9992C65.7221 12.0035 65.818 11.9819 65.9035 11.9366L69.0142 10.2903L72.1179 11.9366L72.1724 11.9618C72.2624 11.9975 72.3602 12.0084 72.4557 11.9935C72.5513 11.9786 72.6412 11.9383 72.7162 11.8769C72.7913 11.8155 72.8487 11.735 72.8827 11.6439C72.9166 11.5527 72.9259 11.4541 72.9095 11.3582L72.3147 7.87094L74.8355 5.40161L74.8781 5.35497C74.9388 5.27967 74.9786 5.1895 74.9935 5.09366C75.0083 4.99782 74.9977 4.89972 74.9626 4.80938C74.9275 4.71903 74.8693 4.63965 74.7938 4.57933C74.7184 4.51902 74.6283 4.47991 74.533 4.46601L71.0548 3.95788L69.5 0.786161C69.455 0.694266 69.3853 0.616883 69.2989 0.562771C69.2125 0.508659 69.1127 0.47998 69.0109 0.47998C68.9092 0.47998 68.8094 0.508659 68.723 0.562771C68.6366 0.616883 68.5669 0.694266 68.5219 0.786161L66.9666 3.95788Z" fill="#F4F8F9"/>
<path d="M66.9666 3.95788L67.2554 5.93692L68.2982 5.78473L68.7623 4.83847L66.9666 3.95788ZM63.4884 4.46546L63.1996 2.48643L63.143 2.49468L63.087 2.50616L63.4884 4.46546ZM63.4268 4.47808L63.0254 2.51878L62.9675 2.53063L62.9105 2.54587L63.4268 4.47808ZM63.1869 5.40216L64.5866 3.97357L64.5847 3.97176L63.1869 5.40216ZM65.7067 7.87094L67.6783 8.20691L67.8541 7.17496L67.1064 6.44235L65.7067 7.87094ZM65.1124 11.3582L63.1409 11.0222L63.1321 11.0734L63.1261 11.125L65.1124 11.3582ZM65.1054 11.4185L63.119 11.1853L63.1122 11.2431L63.1088 11.3012L65.1054 11.4185ZM65.9035 11.9366L64.968 10.1688L64.9672 10.1692L65.9035 11.9366ZM69.0142 10.2903L69.9514 8.52349L69.0153 8.02698L68.0787 8.52261L69.0142 10.2903ZM72.1179 11.9366L71.1807 13.7034L71.2285 13.7287L71.2775 13.7514L72.1179 11.9366ZM72.1724 11.9618L71.332 13.7767L71.383 13.8003L71.4353 13.821L72.1724 11.9618ZM72.9095 11.3582L70.9379 11.6944L70.9381 11.6952L72.9095 11.3582ZM72.3147 7.87094L70.9151 6.4422L70.1671 7.17496L70.3431 8.20721L72.3147 7.87094ZM74.8355 5.40161L76.2351 6.83036L76.2754 6.79081L76.3135 6.74904L74.8355 5.40161ZM74.8781 5.35497L76.356 6.7024L76.3968 6.65772L76.4347 6.61066L74.8781 5.35497ZM74.533 4.46601L74.2439 6.445L74.2445 6.44509L74.533 4.46601ZM71.0548 3.95788L69.259 4.83822L69.7229 5.78452L70.7657 5.93687L71.0548 3.95788ZM69.5 0.786161L67.7037 1.66558L67.7041 1.6665L69.5 0.786161ZM69.0109 0.47998V-1.52002V0.47998ZM68.5219 0.786161L70.3176 1.66675L70.3182 1.66558L68.5219 0.786161ZM66.6778 1.97884L63.1996 2.48643L63.7772 6.4445L67.2554 5.93692L66.6778 1.97884ZM63.087 2.50616L63.0254 2.51878L63.8282 6.43739L63.8898 6.42477L63.087 2.50616ZM62.9105 2.54587C62.4731 2.66273 62.0759 2.89395 61.7588 3.21439L64.602 6.02801C64.4211 6.21083 64.1939 6.34327 63.9431 6.41029L62.9105 2.54587ZM61.7588 3.21439C61.4418 3.53473 61.2161 3.93276 61.1034 4.36722L64.975 5.37225C64.911 5.61878 64.7828 5.84528 64.602 6.02801L61.7588 3.21439ZM61.1034 4.36722C60.9906 4.80163 60.9944 5.25818 61.1144 5.69069L64.9688 4.62139C65.0369 4.86681 65.039 5.12576 64.975 5.37225L61.1034 4.36722ZM61.1144 5.69069C61.2344 6.12325 61.4667 6.51751 61.7891 6.83256L64.5847 3.97176C64.7687 4.15151 64.9007 4.3759 64.9688 4.62139L61.1144 5.69069ZM61.7872 6.83076L64.307 9.29954L67.1064 6.44235L64.5866 3.97357L61.7872 6.83076ZM63.7351 7.53498L63.1409 11.0222L67.084 11.6941L67.6783 8.20691L63.7351 7.53498ZM63.1261 11.125L63.119 11.1853L67.0917 11.6518L67.0988 11.5914L63.1261 11.125ZM63.1088 11.3012C63.0824 11.7496 63.1749 12.1975 63.3774 12.5994L66.9494 10.7991C67.0645 11.0275 67.1169 11.2817 67.1019 11.5359L63.1088 11.3012ZM63.3774 12.5994C63.58 13.0013 63.8859 13.3436 64.2653 13.5898L66.443 10.2345C66.6599 10.3753 66.8342 10.5706 66.9494 10.7991L63.3774 12.5994ZM64.2653 13.5898C64.6448 13.8361 65.0836 13.9771 65.5367 13.9972L65.7143 10.0011C65.9744 10.0127 66.2259 10.0936 66.443 10.2345L64.2653 13.5898ZM65.5367 13.9972C65.9899 14.0173 66.4397 13.9158 66.8397 13.7039L64.9672 10.1692C65.1963 10.0479 65.4542 9.98959 65.7143 10.0011L65.5367 13.9972ZM66.839 13.7043L69.9497 12.0581L68.0787 8.52261L64.968 10.1688L66.839 13.7043ZM68.0771 12.0572L71.1807 13.7034L73.055 10.1697L69.9514 8.52349L68.0771 12.0572ZM71.2775 13.7514L71.332 13.7767L73.0127 10.1469L72.9582 10.1217L71.2775 13.7514ZM71.4353 13.821C71.8569 13.9882 72.3157 14.0396 72.7642 13.9696L72.1472 10.0174C72.4047 9.97724 72.6679 10.0068 72.9095 10.1026L71.4353 13.821ZM72.7642 13.9696C73.2128 13.8995 73.6335 13.7108 73.9834 13.4242L71.4491 10.3296C71.649 10.1658 71.8898 10.0576 72.1472 10.0174L72.7642 13.9696ZM73.9834 13.4242C74.3333 13.1377 74.5997 12.7639 74.7569 12.342L71.0085 10.9458C71.0977 10.7062 71.2492 10.4932 71.4491 10.3296L73.9834 13.4242ZM74.7569 12.342C74.914 11.9202 74.9566 11.4645 74.8809 11.0212L70.9381 11.6952C70.8951 11.4438 70.9192 11.1853 71.0085 10.9458L74.7569 12.342ZM74.881 11.0219L74.2862 7.53468L70.3431 8.20721L70.9379 11.6944L74.881 11.0219ZM73.7142 9.29969L76.2351 6.83036L73.436 3.97287L70.9151 6.4422L73.7142 9.29969ZM76.3135 6.74904L76.356 6.7024L73.4001 4.00754L73.3576 4.05419L76.3135 6.74904ZM76.4347 6.61066C76.7171 6.26064 76.9013 5.84279 76.9699 5.39994L73.0171 4.78738C73.056 4.53621 73.1605 4.29869 73.3214 4.09928L76.4347 6.61066ZM76.9699 5.39994C77.0385 4.95713 76.9894 4.50375 76.8271 4.0856L73.0982 5.53315C73.006 5.2957 72.9782 5.0385 73.0171 4.78738L76.9699 5.39994ZM76.8271 4.0856C76.6647 3.66738 76.3945 3.29832 76.0424 3.01697L73.5452 6.14169C73.3441 5.98098 73.1904 5.77068 73.0982 5.53315L76.8271 4.0856ZM76.0424 3.01697C75.6903 2.73555 75.2691 2.55218 74.8215 2.48693L74.2445 6.44509C73.9876 6.40765 73.7464 6.30248 73.5452 6.14169L76.0424 3.01697ZM74.8221 2.48702L71.3439 1.97889L70.7657 5.93687L74.2439 6.445L74.8221 2.48702ZM72.8506 3.07754L71.2958 -0.0941812L67.7041 1.6665L69.259 4.83822L72.8506 3.07754ZM71.2962 -0.0932634C71.0878 -0.519086 70.7641 -0.879524 70.3603 -1.13238L68.2375 2.25792C68.0065 2.11329 67.8222 1.90762 67.7037 1.66558L71.2962 -0.0932634ZM70.3603 -1.13238C69.9563 -1.38531 69.4888 -1.52002 69.0109 -1.52002V2.47998C68.7366 2.47998 68.4687 2.40263 68.2375 2.25792L70.3603 -1.13238ZM69.0109 -1.52002C68.5331 -1.52002 68.0656 -1.38531 67.6616 -1.13238L69.7843 2.25792C69.5532 2.40263 69.2853 2.47998 69.0109 2.47998V-1.52002ZM67.6616 -1.13238C67.2578 -0.879524 66.9341 -0.519086 66.7257 -0.0932634L70.3182 1.66558C70.1997 1.90762 70.0153 2.11329 69.7843 2.25792L67.6616 -1.13238ZM66.7262 -0.0944303L65.1709 3.07729L68.7623 4.83847L70.3176 1.66675L66.7262 -0.0944303Z" fill="#FFCC00" mask="url(#path-5-inside-1_1534_6169)"/>
<mask id="mask0_1534_6169" style="mask-type:alpha" maskUnits="userSpaceOnUse" x="62" y="0" width="7" height="12">
<rect x="62.3208" width="6.60977" height="12" fill="#D9D9D9"/>
</mask>
<g mask="url(#mask0_1534_6169)">
<path d="M66.7913 3.95788L63.3131 4.46546L63.2515 4.47808C63.1582 4.503 63.0732 4.55239 63.0051 4.6212C62.937 4.69 62.8883 4.77577 62.8639 4.86973C62.8395 4.9637 62.8403 5.0625 62.8663 5.15604C62.8922 5.24958 62.9424 5.33451 63.0116 5.40216L65.5314 7.87094L64.9371 11.3582L64.9301 11.4185C64.9243 11.5156 64.9444 11.6125 64.9881 11.6992C65.0318 11.786 65.0976 11.8594 65.1788 11.9121C65.26 11.9649 65.3537 11.9949 65.4502 11.9992C65.5468 12.0035 65.6427 11.9819 65.7282 11.9366L68.8389 10.2903L71.9426 11.9366L71.9971 11.9618C72.0871 11.9975 72.1849 12.0084 72.2804 11.9935C72.376 11.9786 72.4659 11.9383 72.541 11.8769C72.616 11.8155 72.6734 11.735 72.7074 11.6439C72.7413 11.5527 72.7506 11.4541 72.7342 11.3582L72.1394 7.87094L74.6602 5.40161L74.7028 5.35497C74.7635 5.27967 74.8033 5.1895 74.8182 5.09366C74.833 4.99782 74.8224 4.89972 74.7873 4.80938C74.7522 4.71903 74.694 4.63965 74.6185 4.57933C74.5431 4.51902 74.4531 4.47991 74.3577 4.46601L70.8795 3.95788L69.3247 0.786161C69.2797 0.694266 69.21 0.616883 69.1236 0.562771C69.0372 0.508659 68.9374 0.47998 68.8357 0.47998C68.7339 0.47998 68.6341 0.508659 68.5477 0.562771C68.4613 0.616883 68.3916 0.694266 68.3466 0.786161L66.7913 3.95788Z" fill="#FFCC00"/>
</g>
</svg>
