<svg width="159" height="24" viewBox="0 0 159 24" fill="none" xmlns="http://www.w3.org/2000/svg">
<path d="M8.35598 7.24562L0.988916 8.30309L0.858434 8.32938C0.660908 8.3813 0.480837 8.48418 0.336611 8.62753C0.192384 8.77088 0.0891689 8.94956 0.0375055 9.14532C-0.0141578 9.34108 -0.0124183 9.54691 0.0425463 9.74179C0.097511 9.93666 0.203731 10.1136 0.350361 10.2545L5.68744 15.3978L4.4288 22.6629L4.41379 22.7887C4.4017 22.9909 4.44412 23.1927 4.53671 23.3734C4.6293 23.5541 4.76873 23.7072 4.94073 23.817C5.11272 23.9268 5.3111 23.9894 5.51556 23.9983C5.72001 24.0073 5.92319 23.9622 6.10429 23.8679L12.6931 20.4382L19.2668 23.8679L19.3823 23.9205C19.5729 23.9948 19.7801 24.0176 19.9825 23.9865C20.1849 23.9554 20.3754 23.8716 20.5343 23.7436C20.6932 23.6156 20.8148 23.448 20.8867 23.2581C20.9586 23.0682 20.9782 22.8628 20.9435 22.6629L19.6837 15.3978L25.0231 10.2534L25.1132 10.1562C25.2418 9.99934 25.3262 9.8115 25.3576 9.61183C25.3891 9.41216 25.3665 9.2078 25.2922 9.01957C25.218 8.83135 25.0946 8.66598 24.9347 8.54032C24.7749 8.41466 24.5842 8.3332 24.3822 8.30423L17.0152 7.24562L13.7219 0.637875C13.6266 0.446427 13.4791 0.285213 13.2961 0.17248C13.113 0.0597479 12.9017 0 12.6861 0C12.4706 0 12.2593 0.0597479 12.0762 0.17248C11.8932 0.285213 11.7457 0.446427 11.6504 0.637875L8.35598 7.24562Z" fill="#FFCC00"/>
<path d="M41.7271 7.24562L34.36 8.30309L34.2295 8.32938C34.032 8.3813 33.8519 8.48418 33.7077 8.62753C33.5635 8.77088 33.4603 8.94956 33.4086 9.14532C33.3569 9.34108 33.3587 9.54691 33.4136 9.74179C33.4686 9.93666 33.5748 10.1136 33.7215 10.2545L39.0585 15.3978L37.7999 22.6629L37.7849 22.7887C37.7728 22.9909 37.8152 23.1927 37.9078 23.3734C38.0004 23.5541 38.1398 23.7072 38.3118 23.817C38.4838 23.9268 38.6822 23.9894 38.8867 23.9983C39.0911 24.0073 39.2943 23.9622 39.4754 23.8679L46.0642 20.4382L52.6379 23.8679L52.7534 23.9205C52.944 23.9948 53.1512 24.0176 53.3536 23.9865C53.556 23.9554 53.7464 23.8716 53.9053 23.7436C54.0642 23.6156 54.1859 23.448 54.2578 23.2581C54.3297 23.0682 54.3493 22.8628 54.3146 22.6629L53.0548 15.3978L58.3942 10.2534L58.4842 10.1562C58.6129 9.99934 58.6973 9.8115 58.7287 9.61183C58.7602 9.41216 58.7376 9.2078 58.6633 9.01957C58.589 8.83135 58.4657 8.66598 58.3058 8.54032C58.146 8.41466 57.9553 8.3332 57.7533 8.30423L50.3863 7.24562L47.093 0.637875C46.9977 0.446427 46.8502 0.285213 46.6671 0.17248C46.4841 0.0597479 46.2728 0 46.0572 0C45.8417 0 45.6304 0.0597479 45.4473 0.17248C45.2643 0.285213 45.1168 0.446427 45.0215 0.637875L41.7271 7.24562Z" fill="#FFCC00"/>
<path d="M75.0982 7.24562L67.7311 8.30309L67.6006 8.32938C67.4031 8.3813 67.223 8.48418 67.0788 8.62753C66.9346 8.77088 66.8314 8.94956 66.7797 9.14532C66.728 9.34108 66.7298 9.54691 66.7847 9.74179C66.8397 9.93666 66.9459 10.1136 67.0925 10.2545L72.4296 15.3978L71.171 22.6629L71.156 22.7887C71.1439 22.9909 71.1863 23.1927 71.2789 23.3734C71.3715 23.5541 71.5109 23.7072 71.6829 23.817C71.8549 23.9268 72.0533 23.9894 72.2577 23.9983C72.4622 24.0073 72.6654 23.9622 72.8465 23.8679L79.4353 20.4382L86.009 23.8679L86.1245 23.9205C86.3151 23.9948 86.5222 24.0176 86.7247 23.9865C86.9271 23.9554 87.1175 23.8716 87.2764 23.7436C87.4353 23.6156 87.557 23.448 87.6289 23.2581C87.7008 23.0682 87.7204 22.8628 87.6857 22.6629L86.4259 15.3978L91.7653 10.2534L91.8553 10.1562C91.984 9.99934 92.0684 9.8115 92.0998 9.61183C92.1313 9.41216 92.1087 9.2078 92.0344 9.01957C91.9601 8.83135 91.8368 8.66598 91.6769 8.54032C91.5171 8.41466 91.3264 8.3332 91.1244 8.30423L83.7573 7.24562L80.4641 0.637875C80.3688 0.446427 80.2213 0.285213 80.0382 0.17248C79.8552 0.0597479 79.6439 0 79.4283 0C79.2128 0 79.0015 0.0597479 78.8184 0.17248C78.6354 0.285213 78.4879 0.446427 78.3926 0.637875L75.0982 7.24562Z" fill="#FFCC00"/>
<path d="M108.469 7.24562L101.102 8.30309L100.972 8.32938C100.774 8.3813 100.594 8.48418 100.45 8.62753C100.306 8.77088 100.202 8.94956 100.151 9.14532C100.099 9.34108 100.101 9.54691 100.156 9.74179C100.211 9.93666 100.317 10.1136 100.464 10.2545L105.801 15.3978L104.542 22.6629L104.527 22.7887C104.515 22.9909 104.557 23.1927 104.65 23.3734C104.743 23.5541 104.882 23.7072 105.054 23.817C105.226 23.9268 105.424 23.9894 105.629 23.9983C105.833 24.0073 106.036 23.9622 106.218 23.8679L112.806 20.4382L119.38 23.8679L119.496 23.9205C119.686 23.9948 119.893 24.0176 120.096 23.9865C120.298 23.9554 120.489 23.8716 120.648 23.7436C120.806 23.6156 120.928 23.448 121 23.2581C121.072 23.0682 121.092 22.8628 121.057 22.6629L119.797 15.3978L125.136 10.2534L125.226 10.1562C125.355 9.99934 125.439 9.8115 125.471 9.61183C125.502 9.41216 125.48 9.2078 125.406 9.01957C125.331 8.83135 125.208 8.66598 125.048 8.54032C124.888 8.41466 124.698 8.3332 124.496 8.30423L117.128 7.24562L113.835 0.637875C113.74 0.446427 113.592 0.285213 113.409 0.17248C113.226 0.0597479 113.015 0 112.799 0C112.584 0 112.373 0.0597479 112.19 0.17248C112.006 0.285213 111.859 0.446427 111.764 0.637875L108.469 7.24562Z" fill="#FFCC00"/>
<path d="M141.982 8.23548L142.501 8.16099L142.735 7.69181L146.03 1.08406L146.03 1.08348C146.042 1.06025 146.06 1.03926 146.085 1.02396C146.11 1.00862 146.14 1 146.171 1C146.201 1 146.231 1.00862 146.256 1.02396C146.281 1.03926 146.3 1.06025 146.311 1.08348L146.311 1.08394L149.605 7.69168L149.838 8.16089L150.357 8.23545L157.724 9.29406L157.725 9.29411C157.754 9.29825 157.78 9.30977 157.801 9.3265C157.822 9.34317 157.838 9.36419 157.846 9.38669C157.855 9.40911 157.858 9.43299 157.854 9.4562C157.851 9.47456 157.844 9.49267 157.834 9.50927L157.793 9.55289L152.474 14.6777L152.092 15.0459L152.183 15.5687L153.443 22.8338L153.443 22.8342C153.447 22.8574 153.444 22.8814 153.436 22.904C153.427 22.9266 153.412 22.9479 153.391 22.9648L154.019 23.7436L153.391 22.9648C153.37 22.9818 153.344 22.9936 153.315 22.9981C153.291 23.0017 153.267 23.0001 153.244 22.9936L153.19 22.9689L146.64 19.5517L146.178 19.3106L145.716 19.5512L139.127 22.9808L139.127 22.981C139.102 22.994 139.073 23.0006 139.044 22.9993C139.014 22.998 138.987 22.989 138.963 22.9741C138.94 22.9593 138.922 22.9394 138.911 22.9174L138.032 23.3677L138.911 22.9174C138.902 22.9002 138.897 22.8818 138.896 22.8634L138.903 22.8076L140.157 15.5685L140.248 15.0459L139.866 14.6778L134.529 9.53449L134.528 9.53359C134.509 9.51529 134.496 9.49328 134.489 9.47033C134.483 9.44743 134.483 9.42345 134.489 9.4005C134.495 9.37749 134.507 9.35535 134.526 9.33679C134.541 9.32162 134.56 9.30932 134.582 9.30131L134.643 9.28895L141.982 8.23548Z" fill="white" stroke="#FFCC00" stroke-width="2"/>
</svg>
