<svg width="202" height="64" viewBox="0 0 202 64" fill="none" xmlns="http://www.w3.org/2000/svg">
<mask id="path-1-outside-1_1968_1643" maskUnits="userSpaceOnUse" x="0.270752" y="2.12341" width="107" height="13" fill="black">
<rect fill="white" x="0.270752" y="2.12341" width="107" height="13"/>
<path d="M2.71198 5.11198C2.72265 5.30398 2.72798 5.59732 2.72798 5.99198C2.73865 6.40798 2.75465 6.78665 2.77598 7.12798C2.79732 7.46932 2.83465 7.79465 2.88798 8.10398C3.06932 9.11732 3.44798 9.71998 4.02398 9.91198C4.33332 10.0187 4.57865 10.0347 4.75998 9.95998C5.14398 9.78932 5.45332 9.48532 5.68798 9.04798C5.92265 8.59998 6.16265 7.99198 6.40798 7.22398C6.57865 6.67998 6.71198 6.19998 6.80798 5.78398C6.82932 5.66665 6.84532 5.55465 6.85598 5.44798C6.86665 5.42665 6.87198 5.40532 6.87198 5.38398V5.33598C6.88265 5.32532 6.88798 5.30932 6.88798 5.28798C6.89865 5.25598 6.90932 5.21865 6.91998 5.17598C6.96265 5.07998 7.02132 4.99998 7.09598 4.93598C7.23465 4.79732 7.39998 4.72798 7.59198 4.72798C7.80532 4.72798 7.98665 4.80798 8.13598 4.96798C8.37065 5.24532 8.49332 5.61865 8.50398 6.08798C8.50398 6.19465 8.49865 6.32798 8.48798 6.48798C8.48798 6.64798 8.49865 6.73332 8.51998 6.74398C8.62665 7.54398 8.75998 8.22132 8.91998 8.77598C9.07998 9.31998 9.32532 9.84798 9.65598 10.36C9.76265 10.5307 9.79465 10.712 9.75198 10.904C9.70932 11.096 9.60265 11.2453 9.43198 11.352C9.26132 11.4587 9.07998 11.4907 8.88798 11.448C8.69598 11.4053 8.54665 11.2987 8.43998 11.128C7.98132 10.4133 7.63998 9.61332 7.41598 8.72798C6.91465 10.04 6.22132 10.888 5.33598 11.272C4.82398 11.496 4.23732 11.5013 3.57598 11.288C2.45598 10.904 1.75198 9.92265 1.46398 8.34398C1.41065 8.01332 1.36798 7.65065 1.33598 7.25598C1.31465 6.86132 1.29865 6.44532 1.28798 6.00798C1.28798 5.55998 1.28265 5.28265 1.27198 5.17598C1.26132 4.98398 1.31998 4.81332 1.44798 4.66398C1.58665 4.51465 1.75198 4.43465 1.94398 4.42398C2.14665 4.41332 2.32265 4.47732 2.47198 4.61598C2.62132 4.74398 2.70132 4.90932 2.71198 5.11198Z"/>
<path d="M16.2739 5.20798C16.2099 5.15465 16.1405 5.09065 16.0659 5.01598L15.9059 4.85598C15.8312 4.78132 15.7779 4.73865 15.7459 4.72798C15.5539 4.63198 15.2925 4.57865 14.9619 4.56798C14.6419 4.55732 14.3059 4.59465 13.9539 4.67998C13.2925 4.85065 12.9352 5.13865 12.8819 5.54398C12.9139 5.55465 12.9512 5.56532 12.9939 5.57598C13.1112 5.59732 13.2445 5.61332 13.3939 5.62398C13.5432 5.62398 13.7512 5.62398 14.0179 5.62398H14.6739C15.6125 5.64532 16.3485 5.80532 16.8819 6.10398C17.7032 6.57332 18.1405 7.35198 18.1939 8.43998C18.2259 8.51465 18.2365 8.73865 18.2259 9.11198C18.2152 9.48532 18.1352 9.79998 17.9859 10.056C17.5272 10.824 16.6152 11.2933 15.2499 11.464C14.7592 11.5387 14.2365 11.5387 13.6819 11.464C13.1379 11.4 12.6899 11.2667 12.3379 11.064C12.1565 10.968 12.0019 10.872 11.8739 10.776C11.7459 10.6693 11.6285 10.5573 11.5219 10.44C11.4259 10.312 11.3512 10.2107 11.2979 10.136C11.2445 10.0613 11.1752 9.94398 11.0899 9.78398C10.9939 9.61332 10.9245 9.49598 10.8819 9.43198C10.7752 9.26132 10.7432 9.07998 10.7859 8.88798C10.8285 8.69598 10.9352 8.54665 11.1059 8.43998C11.2765 8.33332 11.4579 8.30132 11.6499 8.34398C11.8419 8.38665 11.9912 8.49332 12.0979 8.66398L12.3219 9.04798C12.4072 9.18665 12.4659 9.28265 12.4979 9.33598C12.5299 9.37865 12.5725 9.43732 12.6259 9.51198C12.6792 9.57598 12.7379 9.62398 12.8019 9.65598L13.0419 9.81598C13.2339 9.92265 13.5059 9.99732 13.8579 10.04C14.2205 10.0827 14.6259 10.0827 15.0739 10.04C15.5112 9.98665 15.8739 9.89598 16.1619 9.76798C16.4605 9.62932 16.6525 9.47998 16.7379 9.31998C16.7699 9.26665 16.7752 8.99465 16.7539 8.50398C16.7219 7.93865 16.5299 7.55465 16.1779 7.35198C15.8685 7.18132 15.3565 7.08532 14.6419 7.06398H14.0499C13.7512 7.06398 13.4952 7.05865 13.2819 7.04798C13.0685 7.03732 12.8819 7.01598 12.7219 6.98398C12.3165 6.90932 12.0072 6.75998 11.7939 6.53598C11.5059 6.22665 11.3885 5.83732 11.4419 5.36798C11.5165 4.81332 11.7565 4.36532 12.1619 4.02398C12.5672 3.67198 13.0419 3.42665 13.5859 3.28798C14.0339 3.15998 14.5139 3.10665 15.0259 3.12798C15.5485 3.14932 15.9912 3.24532 16.3539 3.41598C16.5352 3.50132 16.7219 3.63998 16.9139 3.83198L17.2019 4.11998C17.3512 4.24798 17.4312 4.41332 17.4419 4.61598C17.4632 4.80798 17.4099 4.97865 17.2819 5.12798C17.1539 5.27732 16.9885 5.36265 16.7859 5.38398C16.5939 5.39465 16.4232 5.33598 16.2739 5.20798Z"/>
<path d="M20.4537 7.68798C20.2297 8.24265 20.2297 8.71732 20.4537 9.11198C20.7631 9.64532 21.4457 10.0133 22.5017 10.216C22.8004 10.2693 23.1897 10.3067 23.6697 10.328C24.1604 10.3493 24.5337 10.344 24.7897 10.312C25.6537 10.1627 26.6191 9.69865 27.6857 8.91998C27.8457 8.80265 28.0217 8.75998 28.2137 8.79198C28.4164 8.81332 28.5764 8.90398 28.6937 9.06398C28.8111 9.22398 28.8537 9.40532 28.8217 9.60798C28.8004 9.79998 28.7097 9.95465 28.5497 10.072C27.3017 10.9893 26.1337 11.5387 25.0457 11.72C24.6404 11.7733 24.1604 11.7893 23.6057 11.768C23.0617 11.7467 22.6084 11.6987 22.2457 11.624C20.7524 11.3467 19.7391 10.7493 19.2057 9.83198C18.7151 8.96798 18.7097 8.01332 19.1897 6.96798C19.6057 6.05065 20.3044 5.27198 21.2857 4.63198C22.2564 3.99198 23.2964 3.68265 24.4057 3.70398C24.6831 3.70398 24.8911 3.70932 25.0297 3.71998C25.1684 3.73065 25.3711 3.75732 25.6377 3.79998C25.9044 3.84265 26.1497 3.92265 26.3737 4.03998C26.5977 4.14665 26.8164 4.29065 27.0297 4.47198C27.4244 4.82398 27.6217 5.29865 27.6217 5.89598C27.6217 6.61065 27.2324 7.15998 26.4537 7.54398C25.9631 7.79998 25.3017 7.97598 24.4697 8.07198C23.6804 8.13598 22.9924 8.16265 22.4057 8.15198C21.8297 8.14132 21.3551 8.10932 20.9817 8.05598C20.7471 8.01332 20.5711 7.89065 20.4537 7.68798ZM21.1737 6.61598C21.4937 6.66932 21.9151 6.70132 22.4377 6.71198C22.9711 6.72265 23.5897 6.69598 24.2937 6.63198C24.9657 6.55732 25.4724 6.43465 25.8137 6.26398C26.0591 6.14665 26.1817 6.02398 26.1817 5.89598C26.1817 5.73598 26.1444 5.62398 26.0697 5.55998C25.8777 5.38932 25.6591 5.28265 25.4137 5.23998C25.1791 5.18665 24.8324 5.15465 24.3737 5.14398C23.7764 5.13332 23.1897 5.26665 22.6137 5.54398C22.0377 5.81065 21.5471 6.16798 21.1417 6.61598H21.1737Z"/>
<path d="M31.0135 7.36798C30.9281 6.73865 30.7148 5.76265 30.3735 4.43998C30.3308 4.24798 30.3575 4.06665 30.4535 3.89598C30.5602 3.72532 30.7095 3.61865 30.9015 3.57598C31.0935 3.52265 31.2748 3.54932 31.4455 3.65598C31.6161 3.75198 31.7281 3.89598 31.7815 4.08798L32.1815 5.73598C32.7681 5.33065 33.6001 5.12798 34.6775 5.12798C34.8801 5.12798 35.0508 5.19732 35.1895 5.33598C35.3282 5.47465 35.3975 5.64532 35.3975 5.84798C35.3975 6.05065 35.3282 6.22132 35.1895 6.35998C35.0508 6.49865 34.8801 6.56798 34.6775 6.56798C33.8135 6.56798 33.2108 6.71732 32.8695 7.01598C32.7201 7.15465 32.5921 7.34132 32.4855 7.57598C32.5281 8.06665 32.5442 8.53598 32.5335 8.98398C32.5228 9.34665 32.5015 9.66132 32.4695 9.92798C32.4268 10.2373 32.3682 10.488 32.2935 10.68C32.2295 10.8507 32.1495 10.9893 32.0535 11.096C31.8188 11.3413 31.5468 11.4267 31.2375 11.352C30.9815 11.288 30.7948 11.1333 30.6775 10.888C30.6348 10.792 30.6028 10.6747 30.5815 10.536C30.5495 10.3653 30.5388 10.1573 30.5495 9.91198C30.5601 9.46398 30.6082 9.01065 30.6935 8.55198C30.7788 8.09332 30.8855 7.69865 31.0135 7.36798Z"/>
<path d="M44.7076 9.46398C44.9103 9.33598 45.1236 9.31465 45.3476 9.39998C45.8596 9.60265 46.3076 9.74132 46.6916 9.81598C47.0756 9.87998 47.4596 9.87465 47.8436 9.79998C48.2383 9.71465 48.5956 9.53865 48.9156 9.27198C49.2143 9.01598 49.4063 8.69598 49.4916 8.31198C49.5769 7.92798 49.5556 7.54398 49.4276 7.15998C49.2889 6.75465 49.0649 6.40798 48.7556 6.11998C48.4569 5.83198 48.1156 5.65065 47.7316 5.57598C47.5503 5.54398 47.2943 5.53865 46.9636 5.55998C46.6329 5.58132 46.3823 5.62398 46.2116 5.68798C45.4436 5.98665 44.9263 6.37598 44.6596 6.85598C44.6383 7.52798 44.6543 8.39732 44.7076 9.46398ZM43.2196 6.50398C43.2516 5.55465 43.3423 4.69065 43.4916 3.91198C43.5236 3.70932 43.6196 3.55465 43.7796 3.44798C43.9503 3.33065 44.1316 3.29332 44.3236 3.33598C44.5263 3.36798 44.6809 3.46932 44.7876 3.63998C44.9049 3.79998 44.9423 3.97598 44.8996 4.16798L44.8036 4.75998C45.0596 4.61065 45.3583 4.47198 45.6996 4.34398C45.9983 4.22665 46.3876 4.15198 46.8676 4.11998C47.3369 4.08798 47.7209 4.10398 48.0196 4.16798C48.6809 4.29598 49.2569 4.59465 49.7476 5.06398C50.2383 5.53332 50.5849 6.08265 50.7876 6.71198C50.9156 7.13865 50.9796 7.56532 50.9796 7.99198C50.9796 8.40798 50.8836 8.82932 50.6916 9.25598C50.4996 9.68265 50.2169 10.0507 49.8436 10.36C49.4489 10.6907 49.0329 10.936 48.5956 11.096C48.1476 11.2453 47.6996 11.3093 47.2516 11.288C46.8143 11.2667 46.4089 11.2133 46.0356 11.128C45.6623 11.0427 45.2623 10.9147 44.8356 10.744C44.8036 10.7333 44.7769 10.7227 44.7556 10.712C44.7769 11.0533 44.7983 11.3573 44.8196 11.624V12.76C44.8196 12.792 44.8249 12.8613 44.8356 12.968L44.8516 13.288C44.8729 13.448 44.8783 13.5653 44.8676 13.64C44.8569 13.7253 44.8303 13.8053 44.7876 13.88C44.7663 13.9333 44.7289 13.992 44.6756 14.056C44.6329 14.12 44.5476 14.184 44.4196 14.248C44.2916 14.312 44.1529 14.328 44.0036 14.296C43.8009 14.264 43.6409 14.1627 43.5236 13.992C43.5023 13.9493 43.4756 13.9013 43.4436 13.848C43.2516 13.432 43.1289 12.84 43.0756 12.072C43.0649 11.8693 43.0543 11.5867 43.0436 11.224C43.0329 10.8613 43.0223 10.616 43.0116 10.488C43.0116 10.424 42.9956 10.2 42.9636 9.81598C42.9423 9.42132 42.9263 9.15998 42.9156 9.03198C42.9156 8.89332 42.9156 8.67998 42.9156 8.39198C42.9049 8.09332 42.9103 7.83732 42.9316 7.62398C42.9636 7.41065 43.0063 7.20265 43.0596 6.99998C43.1023 6.82932 43.1556 6.66398 43.2196 6.50398ZM44.6436 13.08C44.6756 13.2293 44.7129 13.2827 44.7556 13.24C44.7343 13.208 44.7183 13.1813 44.7076 13.16C44.6969 13.1387 44.6756 13.112 44.6436 13.08Z"/>
<path d="M53.1987 7.68798C52.9747 8.24265 52.9747 8.71732 53.1987 9.11198C53.5081 9.64532 54.1907 10.0133 55.2467 10.216C55.5454 10.2693 55.9347 10.3067 56.4147 10.328C56.9054 10.3493 57.2787 10.344 57.5347 10.312C58.3987 10.1627 59.3641 9.69865 60.4307 8.91998C60.5907 8.80265 60.7667 8.75998 60.9587 8.79198C61.1614 8.81332 61.3214 8.90398 61.4387 9.06398C61.5561 9.22398 61.5987 9.40532 61.5667 9.60798C61.5454 9.79998 61.4547 9.95465 61.2947 10.072C60.0467 10.9893 58.8787 11.5387 57.7907 11.72C57.3854 11.7733 56.9054 11.7893 56.3507 11.768C55.8067 11.7467 55.3534 11.6987 54.9907 11.624C53.4974 11.3467 52.4841 10.7493 51.9507 9.83198C51.4601 8.96798 51.4547 8.01332 51.9347 6.96798C52.3507 6.05065 53.0494 5.27198 54.0307 4.63198C55.0014 3.99198 56.0414 3.68265 57.1507 3.70398C57.4281 3.70398 57.6361 3.70932 57.7747 3.71998C57.9134 3.73065 58.1161 3.75732 58.3827 3.79998C58.6494 3.84265 58.8947 3.92265 59.1187 4.03998C59.3427 4.14665 59.5614 4.29065 59.7747 4.47198C60.1694 4.82398 60.3667 5.29865 60.3667 5.89598C60.3667 6.61065 59.9774 7.15998 59.1987 7.54398C58.7081 7.79998 58.0467 7.97598 57.2147 8.07198C56.4254 8.13598 55.7374 8.16265 55.1507 8.15198C54.5747 8.14132 54.1001 8.10932 53.7267 8.05598C53.4921 8.01332 53.3161 7.89065 53.1987 7.68798ZM53.9187 6.61598C54.2387 6.66932 54.6601 6.70132 55.1827 6.71198C55.7161 6.72265 56.3347 6.69598 57.0387 6.63198C57.7107 6.55732 58.2174 6.43465 58.5587 6.26398C58.8041 6.14665 58.9267 6.02398 58.9267 5.89598C58.9267 5.73598 58.8894 5.62398 58.8147 5.55998C58.6227 5.38932 58.4041 5.28265 58.1587 5.23998C57.9241 5.18665 57.5774 5.15465 57.1187 5.14398C56.5214 5.13332 55.9347 5.26665 55.3587 5.54398C54.7827 5.81065 54.2921 6.16798 53.8867 6.61598H53.9187Z"/>
<path d="M63.7585 7.36798C63.6731 6.73865 63.4598 5.76265 63.1185 4.43998C63.0758 4.24798 63.1025 4.06665 63.1985 3.89598C63.3051 3.72532 63.4545 3.61865 63.6465 3.57598C63.8385 3.52265 64.0198 3.54932 64.1905 3.65598C64.3611 3.75198 64.4731 3.89598 64.5265 4.08798L64.9265 5.73598C65.5131 5.33065 66.3452 5.12798 67.4225 5.12798C67.6252 5.12798 67.7958 5.19732 67.9345 5.33598C68.0731 5.47465 68.1425 5.64532 68.1425 5.84798C68.1425 6.05065 68.0731 6.22132 67.9345 6.35998C67.7958 6.49865 67.6252 6.56798 67.4225 6.56798C66.5585 6.56798 65.9558 6.71732 65.6145 7.01598C65.4651 7.15465 65.3371 7.34132 65.2305 7.57598C65.2731 8.06665 65.2891 8.53598 65.2785 8.98398C65.2678 9.34665 65.2465 9.66132 65.2145 9.92798C65.1718 10.2373 65.1131 10.488 65.0385 10.68C64.9745 10.8507 64.8945 10.9893 64.7985 11.096C64.5638 11.3413 64.2918 11.4267 63.9825 11.352C63.7265 11.288 63.5398 11.1333 63.4225 10.888C63.3798 10.792 63.3478 10.6747 63.3265 10.536C63.2945 10.3653 63.2838 10.1573 63.2945 9.91198C63.3051 9.46398 63.3531 9.01065 63.4385 8.55198C63.5238 8.09332 63.6305 7.69865 63.7585 7.36798Z"/>
<path d="M74.6557 5.20798C74.5917 5.15465 74.5224 5.09065 74.4477 5.01598L74.2877 4.85598C74.2131 4.78132 74.1597 4.73865 74.1277 4.72798C73.9357 4.63198 73.6744 4.57865 73.3437 4.56798C73.0237 4.55732 72.6877 4.59465 72.3357 4.67998C71.6744 4.85065 71.3171 5.13865 71.2637 5.54398C71.2957 5.55465 71.3331 5.56532 71.3757 5.57598C71.4931 5.59732 71.6264 5.61332 71.7757 5.62398C71.9251 5.62398 72.1331 5.62398 72.3997 5.62398H73.0557C73.9944 5.64532 74.7304 5.80532 75.2637 6.10398C76.0851 6.57332 76.5224 7.35198 76.5757 8.43998C76.6077 8.51465 76.6184 8.73865 76.6077 9.11198C76.5971 9.48532 76.5171 9.79998 76.3677 10.056C75.9091 10.824 74.9971 11.2933 73.6317 11.464C73.1411 11.5387 72.6184 11.5387 72.0637 11.464C71.5197 11.4 71.0717 11.2667 70.7197 11.064C70.5384 10.968 70.3837 10.872 70.2557 10.776C70.1277 10.6693 70.0104 10.5573 69.9037 10.44C69.8077 10.312 69.7331 10.2107 69.6797 10.136C69.6264 10.0613 69.5571 9.94398 69.4717 9.78398C69.3757 9.61332 69.3064 9.49598 69.2637 9.43198C69.1571 9.26132 69.1251 9.07998 69.1677 8.88798C69.2104 8.69598 69.3171 8.54665 69.4877 8.43998C69.6584 8.33332 69.8397 8.30132 70.0317 8.34398C70.2237 8.38665 70.3731 8.49332 70.4797 8.66398L70.7037 9.04798C70.7891 9.18665 70.8477 9.28265 70.8797 9.33598C70.9117 9.37865 70.9544 9.43732 71.0077 9.51198C71.0611 9.57598 71.1197 9.62398 71.1837 9.65598L71.4237 9.81598C71.6157 9.92265 71.8877 9.99732 72.2397 10.04C72.6024 10.0827 73.0077 10.0827 73.4557 10.04C73.8931 9.98665 74.2557 9.89598 74.5437 9.76798C74.8424 9.62932 75.0344 9.47998 75.1197 9.31998C75.1517 9.26665 75.1571 8.99465 75.1357 8.50398C75.1037 7.93865 74.9117 7.55465 74.5597 7.35198C74.2504 7.18132 73.7384 7.08532 73.0237 7.06398H72.4317C72.1331 7.06398 71.8771 7.05865 71.6637 7.04798C71.4504 7.03732 71.2637 7.01598 71.1037 6.98398C70.6984 6.90932 70.3891 6.75998 70.1757 6.53598C69.8877 6.22665 69.7704 5.83732 69.8237 5.36798C69.8984 4.81332 70.1384 4.36532 70.5437 4.02398C70.9491 3.67198 71.4237 3.42665 71.9677 3.28798C72.4157 3.15998 72.8957 3.10665 73.4077 3.12798C73.9304 3.14932 74.3731 3.24532 74.7357 3.41598C74.9171 3.50132 75.1037 3.63998 75.2957 3.83198L75.5837 4.11998C75.7331 4.24798 75.8131 4.41332 75.8237 4.61598C75.8451 4.80798 75.7917 4.97865 75.6637 5.12798C75.5357 5.27732 75.3704 5.36265 75.1677 5.38398C74.9757 5.39465 74.8051 5.33598 74.6557 5.20798Z"/>
<path d="M81.3956 3.86398C81.5663 3.63998 81.7903 3.54398 82.0676 3.57598C82.1209 3.58665 82.2436 3.60265 82.4356 3.62398C82.6383 3.64532 82.8303 3.67198 83.0116 3.70398C83.1929 3.72532 83.3583 3.75732 83.5076 3.79998C84.6276 4.14132 85.4383 4.72798 85.9396 5.55998C86.4516 6.38132 86.5956 7.25598 86.3716 8.18398C86.1583 9.09065 85.6409 9.83198 84.8196 10.408C84.0089 10.984 83.0116 11.2347 81.8276 11.16C81.1449 11.1173 80.5316 10.9413 79.9876 10.632C79.4543 10.3227 79.0329 9.91198 78.7236 9.39998C78.4249 8.88798 78.2543 8.32798 78.2116 7.71998C78.1689 7.10132 78.2649 6.47732 78.4996 5.84798C78.5743 5.62398 78.6916 5.35732 78.8516 5.04798C78.9476 4.85598 79.0436 4.69065 79.1396 4.55198C79.2889 4.32798 79.4436 4.17332 79.6036 4.08798C79.8063 3.97065 80.0623 3.89065 80.3716 3.84798L80.6596 3.79998C80.7449 3.78932 80.8143 3.77865 80.8676 3.76798C81.0596 3.72532 81.2356 3.75732 81.3956 3.86398ZM81.1876 5.17598C81.0916 5.19732 80.9796 5.21332 80.8516 5.22398C80.8409 5.23465 80.8036 5.24532 80.7396 5.25598C80.6756 5.25598 80.6223 5.26132 80.5796 5.27198C80.4836 5.28265 80.4089 5.29865 80.3556 5.31998L80.3396 5.35198C80.2756 5.44798 80.2063 5.56532 80.1316 5.70398C80.0036 5.95998 79.9076 6.16798 79.8436 6.32798C79.5236 7.22398 79.5609 7.99732 79.9556 8.64798C80.3503 9.30932 81.0063 9.66665 81.9236 9.71998C82.7663 9.77332 83.4543 9.61332 83.9876 9.23998C84.5209 8.86665 84.8516 8.40265 84.9796 7.84798C85.1076 7.31465 85.0169 6.79732 84.7076 6.29598C84.3983 5.78398 83.8596 5.41065 83.0916 5.17598C82.9849 5.14398 82.8729 5.12265 82.7556 5.11198C82.6489 5.09065 82.5103 5.07465 82.3396 5.06398C82.1796 5.05332 82.0249 5.03732 81.8756 5.01598C81.7689 4.99465 81.6783 4.95732 81.6036 4.90398C81.4969 5.04265 81.3583 5.13332 81.1876 5.17598Z"/>
<path d="M90.3094 4.95198C90.1814 5.53865 90.096 6.51998 90.0534 7.89598C90.0427 8.41865 90.048 8.86665 90.0694 9.23998L90.5174 8.40798C90.752 7.95998 90.9547 7.60798 91.1254 7.35198C91.7334 6.40265 92.3627 5.89598 93.0134 5.83198C93.8667 5.74665 94.6347 6.39198 95.3174 7.76798C95.52 8.17332 95.7867 8.79198 96.1174 9.62398C96.192 9.81598 96.1867 10.0027 96.1014 10.184C96.0267 10.3653 95.8934 10.4933 95.7014 10.568C95.52 10.6427 95.3387 10.6427 95.1574 10.568C94.976 10.4827 94.848 10.3493 94.7734 10.168C94.4534 9.33598 94.208 8.74932 94.0374 8.40798C93.8774 8.09865 93.7227 7.84798 93.5734 7.65598C93.4347 7.46398 93.3334 7.35198 93.2694 7.31998C93.216 7.28798 93.1734 7.27198 93.1414 7.27198C92.9494 7.29332 92.6827 7.57598 92.3414 8.11998C92.1814 8.36532 91.9947 8.69065 91.7814 9.09598L91.2534 10.088C91.04 10.4613 90.8534 10.7387 90.6934 10.92C90.32 11.336 89.92 11.4587 89.4934 11.288C89.1947 11.1707 88.9814 10.9307 88.8534 10.568C88.7787 10.3547 88.72 10.0933 88.6774 9.78398C88.624 9.28265 88.6027 8.64265 88.6134 7.86398C88.656 6.39198 88.752 5.31465 88.9014 4.63198C88.944 4.43998 89.0507 4.29065 89.2214 4.18398C89.392 4.07732 89.5734 4.04532 89.7654 4.08798C89.9574 4.13065 90.1067 4.23732 90.2134 4.40798C90.32 4.57865 90.352 4.75998 90.3094 4.95198Z"/>
<path d="M104.603 9.44798C104.422 9.25598 104.262 9.12798 104.123 9.06398C103.857 8.92532 103.462 8.80798 102.939 8.71198C102.427 8.60532 101.91 8.55732 101.387 8.56798C100.822 8.56798 100.363 8.63732 100.011 8.77598C99.6592 8.90398 99.4406 9.06932 99.3552 9.27198C99.3019 9.38932 99.2912 9.46398 99.3232 9.49598C99.4192 9.61332 99.6326 9.71998 99.9632 9.81598C100.294 9.90132 100.657 9.95998 101.051 9.99198C101.457 10.0133 101.777 10.0133 102.011 9.99198C102.427 9.95998 103.035 9.84265 103.835 9.63998C104.187 9.54398 104.443 9.47998 104.603 9.44798ZM98.7472 5.33598C98.7899 5.30398 98.8966 5.23465 99.0672 5.12798C99.2379 5.02132 99.4032 4.92532 99.5632 4.83998C99.7339 4.74398 99.8886 4.66398 100.027 4.59998C100.23 4.51465 100.587 4.45598 101.099 4.42398C101.419 4.40265 101.713 4.39198 101.979 4.39198C102.886 4.39198 103.686 4.55198 104.379 4.87198C105.073 5.18132 105.627 5.73598 106.043 6.53598C106.193 6.83465 106.369 7.33598 106.571 8.03998C106.678 8.39198 106.753 8.69598 106.795 8.95198C106.827 9.11198 106.843 9.25065 106.843 9.36798C106.833 9.61332 106.769 9.81598 106.651 9.97598C106.641 10.1467 106.577 10.3013 106.459 10.44C106.342 10.568 106.193 10.6427 106.011 10.664C105.585 10.7173 104.971 10.84 104.171 11.032C103.307 11.256 102.63 11.3893 102.139 11.432C101.947 11.464 101.574 11.464 101.019 11.432C100.475 11.4 99.9952 11.32 99.5792 11.192C98.9712 11.0213 98.5232 10.7707 98.2352 10.44C97.7979 9.92798 97.7339 9.33598 98.0432 8.66398C98.5126 7.66132 99.6219 7.14932 101.371 7.12798C102.001 7.11732 102.625 7.17065 103.243 7.28798C103.883 7.41598 104.401 7.58132 104.795 7.78398L105.035 7.92798C104.907 7.55465 104.817 7.31465 104.763 7.20798C104.507 6.69598 104.155 6.33865 103.707 6.13598C103.259 5.93332 102.683 5.83198 101.979 5.83198C101.723 5.83198 101.462 5.84265 101.195 5.86398C100.854 5.88532 100.646 5.91198 100.571 5.94398C100.465 5.98665 100.358 6.03998 100.251 6.10398C100.145 6.15732 100.017 6.23198 99.8672 6.32798C99.7179 6.42398 99.5792 6.50932 99.4512 6.58398C99.2806 6.67998 99.0992 6.70665 98.9072 6.66398C98.7152 6.61065 98.5712 6.49865 98.4752 6.32798C98.3792 6.14665 98.3526 5.95998 98.3952 5.76798C98.4486 5.57598 98.5659 5.43198 98.7472 5.33598Z"/>
</mask>
<path d="M2.71198 5.11198C2.72265 5.30398 2.72798 5.59732 2.72798 5.99198C2.73865 6.40798 2.75465 6.78665 2.77598 7.12798C2.79732 7.46932 2.83465 7.79465 2.88798 8.10398C3.06932 9.11732 3.44798 9.71998 4.02398 9.91198C4.33332 10.0187 4.57865 10.0347 4.75998 9.95998C5.14398 9.78932 5.45332 9.48532 5.68798 9.04798C5.92265 8.59998 6.16265 7.99198 6.40798 7.22398C6.57865 6.67998 6.71198 6.19998 6.80798 5.78398C6.82932 5.66665 6.84532 5.55465 6.85598 5.44798C6.86665 5.42665 6.87198 5.40532 6.87198 5.38398V5.33598C6.88265 5.32532 6.88798 5.30932 6.88798 5.28798C6.89865 5.25598 6.90932 5.21865 6.91998 5.17598C6.96265 5.07998 7.02132 4.99998 7.09598 4.93598C7.23465 4.79732 7.39998 4.72798 7.59198 4.72798C7.80532 4.72798 7.98665 4.80798 8.13598 4.96798C8.37065 5.24532 8.49332 5.61865 8.50398 6.08798C8.50398 6.19465 8.49865 6.32798 8.48798 6.48798C8.48798 6.64798 8.49865 6.73332 8.51998 6.74398C8.62665 7.54398 8.75998 8.22132 8.91998 8.77598C9.07998 9.31998 9.32532 9.84798 9.65598 10.36C9.76265 10.5307 9.79465 10.712 9.75198 10.904C9.70932 11.096 9.60265 11.2453 9.43198 11.352C9.26132 11.4587 9.07998 11.4907 8.88798 11.448C8.69598 11.4053 8.54665 11.2987 8.43998 11.128C7.98132 10.4133 7.63998 9.61332 7.41598 8.72798C6.91465 10.04 6.22132 10.888 5.33598 11.272C4.82398 11.496 4.23732 11.5013 3.57598 11.288C2.45598 10.904 1.75198 9.92265 1.46398 8.34398C1.41065 8.01332 1.36798 7.65065 1.33598 7.25598C1.31465 6.86132 1.29865 6.44532 1.28798 6.00798C1.28798 5.55998 1.28265 5.28265 1.27198 5.17598C1.26132 4.98398 1.31998 4.81332 1.44798 4.66398C1.58665 4.51465 1.75198 4.43465 1.94398 4.42398C2.14665 4.41332 2.32265 4.47732 2.47198 4.61598C2.62132 4.74398 2.70132 4.90932 2.71198 5.11198Z" fill="#BBA4FF"/>
<path d="M16.2739 5.20798C16.2099 5.15465 16.1405 5.09065 16.0659 5.01598L15.9059 4.85598C15.8312 4.78132 15.7779 4.73865 15.7459 4.72798C15.5539 4.63198 15.2925 4.57865 14.9619 4.56798C14.6419 4.55732 14.3059 4.59465 13.9539 4.67998C13.2925 4.85065 12.9352 5.13865 12.8819 5.54398C12.9139 5.55465 12.9512 5.56532 12.9939 5.57598C13.1112 5.59732 13.2445 5.61332 13.3939 5.62398C13.5432 5.62398 13.7512 5.62398 14.0179 5.62398H14.6739C15.6125 5.64532 16.3485 5.80532 16.8819 6.10398C17.7032 6.57332 18.1405 7.35198 18.1939 8.43998C18.2259 8.51465 18.2365 8.73865 18.2259 9.11198C18.2152 9.48532 18.1352 9.79998 17.9859 10.056C17.5272 10.824 16.6152 11.2933 15.2499 11.464C14.7592 11.5387 14.2365 11.5387 13.6819 11.464C13.1379 11.4 12.6899 11.2667 12.3379 11.064C12.1565 10.968 12.0019 10.872 11.8739 10.776C11.7459 10.6693 11.6285 10.5573 11.5219 10.44C11.4259 10.312 11.3512 10.2107 11.2979 10.136C11.2445 10.0613 11.1752 9.94398 11.0899 9.78398C10.9939 9.61332 10.9245 9.49598 10.8819 9.43198C10.7752 9.26132 10.7432 9.07998 10.7859 8.88798C10.8285 8.69598 10.9352 8.54665 11.1059 8.43998C11.2765 8.33332 11.4579 8.30132 11.6499 8.34398C11.8419 8.38665 11.9912 8.49332 12.0979 8.66398L12.3219 9.04798C12.4072 9.18665 12.4659 9.28265 12.4979 9.33598C12.5299 9.37865 12.5725 9.43732 12.6259 9.51198C12.6792 9.57598 12.7379 9.62398 12.8019 9.65598L13.0419 9.81598C13.2339 9.92265 13.5059 9.99732 13.8579 10.04C14.2205 10.0827 14.6259 10.0827 15.0739 10.04C15.5112 9.98665 15.8739 9.89598 16.1619 9.76798C16.4605 9.62932 16.6525 9.47998 16.7379 9.31998C16.7699 9.26665 16.7752 8.99465 16.7539 8.50398C16.7219 7.93865 16.5299 7.55465 16.1779 7.35198C15.8685 7.18132 15.3565 7.08532 14.6419 7.06398H14.0499C13.7512 7.06398 13.4952 7.05865 13.2819 7.04798C13.0685 7.03732 12.8819 7.01598 12.7219 6.98398C12.3165 6.90932 12.0072 6.75998 11.7939 6.53598C11.5059 6.22665 11.3885 5.83732 11.4419 5.36798C11.5165 4.81332 11.7565 4.36532 12.1619 4.02398C12.5672 3.67198 13.0419 3.42665 13.5859 3.28798C14.0339 3.15998 14.5139 3.10665 15.0259 3.12798C15.5485 3.14932 15.9912 3.24532 16.3539 3.41598C16.5352 3.50132 16.7219 3.63998 16.9139 3.83198L17.2019 4.11998C17.3512 4.24798 17.4312 4.41332 17.4419 4.61598C17.4632 4.80798 17.4099 4.97865 17.2819 5.12798C17.1539 5.27732 16.9885 5.36265 16.7859 5.38398C16.5939 5.39465 16.4232 5.33598 16.2739 5.20798Z" fill="#BBA4FF"/>
<path d="M20.4537 7.68798C20.2297 8.24265 20.2297 8.71732 20.4537 9.11198C20.7631 9.64532 21.4457 10.0133 22.5017 10.216C22.8004 10.2693 23.1897 10.3067 23.6697 10.328C24.1604 10.3493 24.5337 10.344 24.7897 10.312C25.6537 10.1627 26.6191 9.69865 27.6857 8.91998C27.8457 8.80265 28.0217 8.75998 28.2137 8.79198C28.4164 8.81332 28.5764 8.90398 28.6937 9.06398C28.8111 9.22398 28.8537 9.40532 28.8217 9.60798C28.8004 9.79998 28.7097 9.95465 28.5497 10.072C27.3017 10.9893 26.1337 11.5387 25.0457 11.72C24.6404 11.7733 24.1604 11.7893 23.6057 11.768C23.0617 11.7467 22.6084 11.6987 22.2457 11.624C20.7524 11.3467 19.7391 10.7493 19.2057 9.83198C18.7151 8.96798 18.7097 8.01332 19.1897 6.96798C19.6057 6.05065 20.3044 5.27198 21.2857 4.63198C22.2564 3.99198 23.2964 3.68265 24.4057 3.70398C24.6831 3.70398 24.8911 3.70932 25.0297 3.71998C25.1684 3.73065 25.3711 3.75732 25.6377 3.79998C25.9044 3.84265 26.1497 3.92265 26.3737 4.03998C26.5977 4.14665 26.8164 4.29065 27.0297 4.47198C27.4244 4.82398 27.6217 5.29865 27.6217 5.89598C27.6217 6.61065 27.2324 7.15998 26.4537 7.54398C25.9631 7.79998 25.3017 7.97598 24.4697 8.07198C23.6804 8.13598 22.9924 8.16265 22.4057 8.15198C21.8297 8.14132 21.3551 8.10932 20.9817 8.05598C20.7471 8.01332 20.5711 7.89065 20.4537 7.68798ZM21.1737 6.61598C21.4937 6.66932 21.9151 6.70132 22.4377 6.71198C22.9711 6.72265 23.5897 6.69598 24.2937 6.63198C24.9657 6.55732 25.4724 6.43465 25.8137 6.26398C26.0591 6.14665 26.1817 6.02398 26.1817 5.89598C26.1817 5.73598 26.1444 5.62398 26.0697 5.55998C25.8777 5.38932 25.6591 5.28265 25.4137 5.23998C25.1791 5.18665 24.8324 5.15465 24.3737 5.14398C23.7764 5.13332 23.1897 5.26665 22.6137 5.54398C22.0377 5.81065 21.5471 6.16798 21.1417 6.61598H21.1737Z" fill="#BBA4FF"/>
<path d="M31.0135 7.36798C30.9281 6.73865 30.7148 5.76265 30.3735 4.43998C30.3308 4.24798 30.3575 4.06665 30.4535 3.89598C30.5602 3.72532 30.7095 3.61865 30.9015 3.57598C31.0935 3.52265 31.2748 3.54932 31.4455 3.65598C31.6161 3.75198 31.7281 3.89598 31.7815 4.08798L32.1815 5.73598C32.7681 5.33065 33.6001 5.12798 34.6775 5.12798C34.8801 5.12798 35.0508 5.19732 35.1895 5.33598C35.3282 5.47465 35.3975 5.64532 35.3975 5.84798C35.3975 6.05065 35.3282 6.22132 35.1895 6.35998C35.0508 6.49865 34.8801 6.56798 34.6775 6.56798C33.8135 6.56798 33.2108 6.71732 32.8695 7.01598C32.7201 7.15465 32.5921 7.34132 32.4855 7.57598C32.5281 8.06665 32.5442 8.53598 32.5335 8.98398C32.5228 9.34665 32.5015 9.66132 32.4695 9.92798C32.4268 10.2373 32.3682 10.488 32.2935 10.68C32.2295 10.8507 32.1495 10.9893 32.0535 11.096C31.8188 11.3413 31.5468 11.4267 31.2375 11.352C30.9815 11.288 30.7948 11.1333 30.6775 10.888C30.6348 10.792 30.6028 10.6747 30.5815 10.536C30.5495 10.3653 30.5388 10.1573 30.5495 9.91198C30.5601 9.46398 30.6082 9.01065 30.6935 8.55198C30.7788 8.09332 30.8855 7.69865 31.0135 7.36798Z" fill="#BBA4FF"/>
<path d="M44.7076 9.46398C44.9103 9.33598 45.1236 9.31465 45.3476 9.39998C45.8596 9.60265 46.3076 9.74132 46.6916 9.81598C47.0756 9.87998 47.4596 9.87465 47.8436 9.79998C48.2383 9.71465 48.5956 9.53865 48.9156 9.27198C49.2143 9.01598 49.4063 8.69598 49.4916 8.31198C49.5769 7.92798 49.5556 7.54398 49.4276 7.15998C49.2889 6.75465 49.0649 6.40798 48.7556 6.11998C48.4569 5.83198 48.1156 5.65065 47.7316 5.57598C47.5503 5.54398 47.2943 5.53865 46.9636 5.55998C46.6329 5.58132 46.3823 5.62398 46.2116 5.68798C45.4436 5.98665 44.9263 6.37598 44.6596 6.85598C44.6383 7.52798 44.6543 8.39732 44.7076 9.46398ZM43.2196 6.50398C43.2516 5.55465 43.3423 4.69065 43.4916 3.91198C43.5236 3.70932 43.6196 3.55465 43.7796 3.44798C43.9503 3.33065 44.1316 3.29332 44.3236 3.33598C44.5263 3.36798 44.6809 3.46932 44.7876 3.63998C44.9049 3.79998 44.9423 3.97598 44.8996 4.16798L44.8036 4.75998C45.0596 4.61065 45.3583 4.47198 45.6996 4.34398C45.9983 4.22665 46.3876 4.15198 46.8676 4.11998C47.3369 4.08798 47.7209 4.10398 48.0196 4.16798C48.6809 4.29598 49.2569 4.59465 49.7476 5.06398C50.2383 5.53332 50.5849 6.08265 50.7876 6.71198C50.9156 7.13865 50.9796 7.56532 50.9796 7.99198C50.9796 8.40798 50.8836 8.82932 50.6916 9.25598C50.4996 9.68265 50.2169 10.0507 49.8436 10.36C49.4489 10.6907 49.0329 10.936 48.5956 11.096C48.1476 11.2453 47.6996 11.3093 47.2516 11.288C46.8143 11.2667 46.4089 11.2133 46.0356 11.128C45.6623 11.0427 45.2623 10.9147 44.8356 10.744C44.8036 10.7333 44.7769 10.7227 44.7556 10.712C44.7769 11.0533 44.7983 11.3573 44.8196 11.624V12.76C44.8196 12.792 44.8249 12.8613 44.8356 12.968L44.8516 13.288C44.8729 13.448 44.8783 13.5653 44.8676 13.64C44.8569 13.7253 44.8303 13.8053 44.7876 13.88C44.7663 13.9333 44.7289 13.992 44.6756 14.056C44.6329 14.12 44.5476 14.184 44.4196 14.248C44.2916 14.312 44.1529 14.328 44.0036 14.296C43.8009 14.264 43.6409 14.1627 43.5236 13.992C43.5023 13.9493 43.4756 13.9013 43.4436 13.848C43.2516 13.432 43.1289 12.84 43.0756 12.072C43.0649 11.8693 43.0543 11.5867 43.0436 11.224C43.0329 10.8613 43.0223 10.616 43.0116 10.488C43.0116 10.424 42.9956 10.2 42.9636 9.81598C42.9423 9.42132 42.9263 9.15998 42.9156 9.03198C42.9156 8.89332 42.9156 8.67998 42.9156 8.39198C42.9049 8.09332 42.9103 7.83732 42.9316 7.62398C42.9636 7.41065 43.0063 7.20265 43.0596 6.99998C43.1023 6.82932 43.1556 6.66398 43.2196 6.50398ZM44.6436 13.08C44.6756 13.2293 44.7129 13.2827 44.7556 13.24C44.7343 13.208 44.7183 13.1813 44.7076 13.16C44.6969 13.1387 44.6756 13.112 44.6436 13.08Z" fill="#BBA4FF"/>
<path d="M53.1987 7.68798C52.9747 8.24265 52.9747 8.71732 53.1987 9.11198C53.5081 9.64532 54.1907 10.0133 55.2467 10.216C55.5454 10.2693 55.9347 10.3067 56.4147 10.328C56.9054 10.3493 57.2787 10.344 57.5347 10.312C58.3987 10.1627 59.3641 9.69865 60.4307 8.91998C60.5907 8.80265 60.7667 8.75998 60.9587 8.79198C61.1614 8.81332 61.3214 8.90398 61.4387 9.06398C61.5561 9.22398 61.5987 9.40532 61.5667 9.60798C61.5454 9.79998 61.4547 9.95465 61.2947 10.072C60.0467 10.9893 58.8787 11.5387 57.7907 11.72C57.3854 11.7733 56.9054 11.7893 56.3507 11.768C55.8067 11.7467 55.3534 11.6987 54.9907 11.624C53.4974 11.3467 52.4841 10.7493 51.9507 9.83198C51.4601 8.96798 51.4547 8.01332 51.9347 6.96798C52.3507 6.05065 53.0494 5.27198 54.0307 4.63198C55.0014 3.99198 56.0414 3.68265 57.1507 3.70398C57.4281 3.70398 57.6361 3.70932 57.7747 3.71998C57.9134 3.73065 58.1161 3.75732 58.3827 3.79998C58.6494 3.84265 58.8947 3.92265 59.1187 4.03998C59.3427 4.14665 59.5614 4.29065 59.7747 4.47198C60.1694 4.82398 60.3667 5.29865 60.3667 5.89598C60.3667 6.61065 59.9774 7.15998 59.1987 7.54398C58.7081 7.79998 58.0467 7.97598 57.2147 8.07198C56.4254 8.13598 55.7374 8.16265 55.1507 8.15198C54.5747 8.14132 54.1001 8.10932 53.7267 8.05598C53.4921 8.01332 53.3161 7.89065 53.1987 7.68798ZM53.9187 6.61598C54.2387 6.66932 54.6601 6.70132 55.1827 6.71198C55.7161 6.72265 56.3347 6.69598 57.0387 6.63198C57.7107 6.55732 58.2174 6.43465 58.5587 6.26398C58.8041 6.14665 58.9267 6.02398 58.9267 5.89598C58.9267 5.73598 58.8894 5.62398 58.8147 5.55998C58.6227 5.38932 58.4041 5.28265 58.1587 5.23998C57.9241 5.18665 57.5774 5.15465 57.1187 5.14398C56.5214 5.13332 55.9347 5.26665 55.3587 5.54398C54.7827 5.81065 54.2921 6.16798 53.8867 6.61598H53.9187Z" fill="#BBA4FF"/>
<path d="M63.7585 7.36798C63.6731 6.73865 63.4598 5.76265 63.1185 4.43998C63.0758 4.24798 63.1025 4.06665 63.1985 3.89598C63.3051 3.72532 63.4545 3.61865 63.6465 3.57598C63.8385 3.52265 64.0198 3.54932 64.1905 3.65598C64.3611 3.75198 64.4731 3.89598 64.5265 4.08798L64.9265 5.73598C65.5131 5.33065 66.3452 5.12798 67.4225 5.12798C67.6252 5.12798 67.7958 5.19732 67.9345 5.33598C68.0731 5.47465 68.1425 5.64532 68.1425 5.84798C68.1425 6.05065 68.0731 6.22132 67.9345 6.35998C67.7958 6.49865 67.6252 6.56798 67.4225 6.56798C66.5585 6.56798 65.9558 6.71732 65.6145 7.01598C65.4651 7.15465 65.3371 7.34132 65.2305 7.57598C65.2731 8.06665 65.2891 8.53598 65.2785 8.98398C65.2678 9.34665 65.2465 9.66132 65.2145 9.92798C65.1718 10.2373 65.1131 10.488 65.0385 10.68C64.9745 10.8507 64.8945 10.9893 64.7985 11.096C64.5638 11.3413 64.2918 11.4267 63.9825 11.352C63.7265 11.288 63.5398 11.1333 63.4225 10.888C63.3798 10.792 63.3478 10.6747 63.3265 10.536C63.2945 10.3653 63.2838 10.1573 63.2945 9.91198C63.3051 9.46398 63.3531 9.01065 63.4385 8.55198C63.5238 8.09332 63.6305 7.69865 63.7585 7.36798Z" fill="#BBA4FF"/>
<path d="M74.6557 5.20798C74.5917 5.15465 74.5224 5.09065 74.4477 5.01598L74.2877 4.85598C74.2131 4.78132 74.1597 4.73865 74.1277 4.72798C73.9357 4.63198 73.6744 4.57865 73.3437 4.56798C73.0237 4.55732 72.6877 4.59465 72.3357 4.67998C71.6744 4.85065 71.3171 5.13865 71.2637 5.54398C71.2957 5.55465 71.3331 5.56532 71.3757 5.57598C71.4931 5.59732 71.6264 5.61332 71.7757 5.62398C71.9251 5.62398 72.1331 5.62398 72.3997 5.62398H73.0557C73.9944 5.64532 74.7304 5.80532 75.2637 6.10398C76.0851 6.57332 76.5224 7.35198 76.5757 8.43998C76.6077 8.51465 76.6184 8.73865 76.6077 9.11198C76.5971 9.48532 76.5171 9.79998 76.3677 10.056C75.9091 10.824 74.9971 11.2933 73.6317 11.464C73.1411 11.5387 72.6184 11.5387 72.0637 11.464C71.5197 11.4 71.0717 11.2667 70.7197 11.064C70.5384 10.968 70.3837 10.872 70.2557 10.776C70.1277 10.6693 70.0104 10.5573 69.9037 10.44C69.8077 10.312 69.7331 10.2107 69.6797 10.136C69.6264 10.0613 69.5571 9.94398 69.4717 9.78398C69.3757 9.61332 69.3064 9.49598 69.2637 9.43198C69.1571 9.26132 69.1251 9.07998 69.1677 8.88798C69.2104 8.69598 69.3171 8.54665 69.4877 8.43998C69.6584 8.33332 69.8397 8.30132 70.0317 8.34398C70.2237 8.38665 70.3731 8.49332 70.4797 8.66398L70.7037 9.04798C70.7891 9.18665 70.8477 9.28265 70.8797 9.33598C70.9117 9.37865 70.9544 9.43732 71.0077 9.51198C71.0611 9.57598 71.1197 9.62398 71.1837 9.65598L71.4237 9.81598C71.6157 9.92265 71.8877 9.99732 72.2397 10.04C72.6024 10.0827 73.0077 10.0827 73.4557 10.04C73.8931 9.98665 74.2557 9.89598 74.5437 9.76798C74.8424 9.62932 75.0344 9.47998 75.1197 9.31998C75.1517 9.26665 75.1571 8.99465 75.1357 8.50398C75.1037 7.93865 74.9117 7.55465 74.5597 7.35198C74.2504 7.18132 73.7384 7.08532 73.0237 7.06398H72.4317C72.1331 7.06398 71.8771 7.05865 71.6637 7.04798C71.4504 7.03732 71.2637 7.01598 71.1037 6.98398C70.6984 6.90932 70.3891 6.75998 70.1757 6.53598C69.8877 6.22665 69.7704 5.83732 69.8237 5.36798C69.8984 4.81332 70.1384 4.36532 70.5437 4.02398C70.9491 3.67198 71.4237 3.42665 71.9677 3.28798C72.4157 3.15998 72.8957 3.10665 73.4077 3.12798C73.9304 3.14932 74.3731 3.24532 74.7357 3.41598C74.9171 3.50132 75.1037 3.63998 75.2957 3.83198L75.5837 4.11998C75.7331 4.24798 75.8131 4.41332 75.8237 4.61598C75.8451 4.80798 75.7917 4.97865 75.6637 5.12798C75.5357 5.27732 75.3704 5.36265 75.1677 5.38398C74.9757 5.39465 74.8051 5.33598 74.6557 5.20798Z" fill="#BBA4FF"/>
<path d="M81.3956 3.86398C81.5663 3.63998 81.7903 3.54398 82.0676 3.57598C82.1209 3.58665 82.2436 3.60265 82.4356 3.62398C82.6383 3.64532 82.8303 3.67198 83.0116 3.70398C83.1929 3.72532 83.3583 3.75732 83.5076 3.79998C84.6276 4.14132 85.4383 4.72798 85.9396 5.55998C86.4516 6.38132 86.5956 7.25598 86.3716 8.18398C86.1583 9.09065 85.6409 9.83198 84.8196 10.408C84.0089 10.984 83.0116 11.2347 81.8276 11.16C81.1449 11.1173 80.5316 10.9413 79.9876 10.632C79.4543 10.3227 79.0329 9.91198 78.7236 9.39998C78.4249 8.88798 78.2543 8.32798 78.2116 7.71998C78.1689 7.10132 78.2649 6.47732 78.4996 5.84798C78.5743 5.62398 78.6916 5.35732 78.8516 5.04798C78.9476 4.85598 79.0436 4.69065 79.1396 4.55198C79.2889 4.32798 79.4436 4.17332 79.6036 4.08798C79.8063 3.97065 80.0623 3.89065 80.3716 3.84798L80.6596 3.79998C80.7449 3.78932 80.8143 3.77865 80.8676 3.76798C81.0596 3.72532 81.2356 3.75732 81.3956 3.86398ZM81.1876 5.17598C81.0916 5.19732 80.9796 5.21332 80.8516 5.22398C80.8409 5.23465 80.8036 5.24532 80.7396 5.25598C80.6756 5.25598 80.6223 5.26132 80.5796 5.27198C80.4836 5.28265 80.4089 5.29865 80.3556 5.31998L80.3396 5.35198C80.2756 5.44798 80.2063 5.56532 80.1316 5.70398C80.0036 5.95998 79.9076 6.16798 79.8436 6.32798C79.5236 7.22398 79.5609 7.99732 79.9556 8.64798C80.3503 9.30932 81.0063 9.66665 81.9236 9.71998C82.7663 9.77332 83.4543 9.61332 83.9876 9.23998C84.5209 8.86665 84.8516 8.40265 84.9796 7.84798C85.1076 7.31465 85.0169 6.79732 84.7076 6.29598C84.3983 5.78398 83.8596 5.41065 83.0916 5.17598C82.9849 5.14398 82.8729 5.12265 82.7556 5.11198C82.6489 5.09065 82.5103 5.07465 82.3396 5.06398C82.1796 5.05332 82.0249 5.03732 81.8756 5.01598C81.7689 4.99465 81.6783 4.95732 81.6036 4.90398C81.4969 5.04265 81.3583 5.13332 81.1876 5.17598Z" fill="#BBA4FF"/>
<path d="M90.3094 4.95198C90.1814 5.53865 90.096 6.51998 90.0534 7.89598C90.0427 8.41865 90.048 8.86665 90.0694 9.23998L90.5174 8.40798C90.752 7.95998 90.9547 7.60798 91.1254 7.35198C91.7334 6.40265 92.3627 5.89598 93.0134 5.83198C93.8667 5.74665 94.6347 6.39198 95.3174 7.76798C95.52 8.17332 95.7867 8.79198 96.1174 9.62398C96.192 9.81598 96.1867 10.0027 96.1014 10.184C96.0267 10.3653 95.8934 10.4933 95.7014 10.568C95.52 10.6427 95.3387 10.6427 95.1574 10.568C94.976 10.4827 94.848 10.3493 94.7734 10.168C94.4534 9.33598 94.208 8.74932 94.0374 8.40798C93.8774 8.09865 93.7227 7.84798 93.5734 7.65598C93.4347 7.46398 93.3334 7.35198 93.2694 7.31998C93.216 7.28798 93.1734 7.27198 93.1414 7.27198C92.9494 7.29332 92.6827 7.57598 92.3414 8.11998C92.1814 8.36532 91.9947 8.69065 91.7814 9.09598L91.2534 10.088C91.04 10.4613 90.8534 10.7387 90.6934 10.92C90.32 11.336 89.92 11.4587 89.4934 11.288C89.1947 11.1707 88.9814 10.9307 88.8534 10.568C88.7787 10.3547 88.72 10.0933 88.6774 9.78398C88.624 9.28265 88.6027 8.64265 88.6134 7.86398C88.656 6.39198 88.752 5.31465 88.9014 4.63198C88.944 4.43998 89.0507 4.29065 89.2214 4.18398C89.392 4.07732 89.5734 4.04532 89.7654 4.08798C89.9574 4.13065 90.1067 4.23732 90.2134 4.40798C90.32 4.57865 90.352 4.75998 90.3094 4.95198Z" fill="#BBA4FF"/>
<path d="M104.603 9.44798C104.422 9.25598 104.262 9.12798 104.123 9.06398C103.857 8.92532 103.462 8.80798 102.939 8.71198C102.427 8.60532 101.91 8.55732 101.387 8.56798C100.822 8.56798 100.363 8.63732 100.011 8.77598C99.6592 8.90398 99.4406 9.06932 99.3552 9.27198C99.3019 9.38932 99.2912 9.46398 99.3232 9.49598C99.4192 9.61332 99.6326 9.71998 99.9632 9.81598C100.294 9.90132 100.657 9.95998 101.051 9.99198C101.457 10.0133 101.777 10.0133 102.011 9.99198C102.427 9.95998 103.035 9.84265 103.835 9.63998C104.187 9.54398 104.443 9.47998 104.603 9.44798ZM98.7472 5.33598C98.7899 5.30398 98.8966 5.23465 99.0672 5.12798C99.2379 5.02132 99.4032 4.92532 99.5632 4.83998C99.7339 4.74398 99.8886 4.66398 100.027 4.59998C100.23 4.51465 100.587 4.45598 101.099 4.42398C101.419 4.40265 101.713 4.39198 101.979 4.39198C102.886 4.39198 103.686 4.55198 104.379 4.87198C105.073 5.18132 105.627 5.73598 106.043 6.53598C106.193 6.83465 106.369 7.33598 106.571 8.03998C106.678 8.39198 106.753 8.69598 106.795 8.95198C106.827 9.11198 106.843 9.25065 106.843 9.36798C106.833 9.61332 106.769 9.81598 106.651 9.97598C106.641 10.1467 106.577 10.3013 106.459 10.44C106.342 10.568 106.193 10.6427 106.011 10.664C105.585 10.7173 104.971 10.84 104.171 11.032C103.307 11.256 102.63 11.3893 102.139 11.432C101.947 11.464 101.574 11.464 101.019 11.432C100.475 11.4 99.9952 11.32 99.5792 11.192C98.9712 11.0213 98.5232 10.7707 98.2352 10.44C97.7979 9.92798 97.7339 9.33598 98.0432 8.66398C98.5126 7.66132 99.6219 7.14932 101.371 7.12798C102.001 7.11732 102.625 7.17065 103.243 7.28798C103.883 7.41598 104.401 7.58132 104.795 7.78398L105.035 7.92798C104.907 7.55465 104.817 7.31465 104.763 7.20798C104.507 6.69598 104.155 6.33865 103.707 6.13598C103.259 5.93332 102.683 5.83198 101.979 5.83198C101.723 5.83198 101.462 5.84265 101.195 5.86398C100.854 5.88532 100.646 5.91198 100.571 5.94398C100.465 5.98665 100.358 6.03998 100.251 6.10398C100.145 6.15732 100.017 6.23198 99.8672 6.32798C99.7179 6.42398 99.5792 6.50932 99.4512 6.58398C99.2806 6.67998 99.0992 6.70665 98.9072 6.66398C98.7152 6.61065 98.5712 6.49865 98.4752 6.32798C98.3792 6.14665 98.3526 5.95998 98.3952 5.76798C98.4486 5.57598 98.5659 5.43198 98.7472 5.33598Z" fill="#BBA4FF"/>
<path d="M2.71198 5.11198C2.72265 5.30398 2.72798 5.59732 2.72798 5.99198C2.73865 6.40798 2.75465 6.78665 2.77598 7.12798C2.79732 7.46932 2.83465 7.79465 2.88798 8.10398C3.06932 9.11732 3.44798 9.71998 4.02398 9.91198C4.33332 10.0187 4.57865 10.0347 4.75998 9.95998C5.14398 9.78932 5.45332 9.48532 5.68798 9.04798C5.92265 8.59998 6.16265 7.99198 6.40798 7.22398C6.57865 6.67998 6.71198 6.19998 6.80798 5.78398C6.82932 5.66665 6.84532 5.55465 6.85598 5.44798C6.86665 5.42665 6.87198 5.40532 6.87198 5.38398V5.33598C6.88265 5.32532 6.88798 5.30932 6.88798 5.28798C6.89865 5.25598 6.90932 5.21865 6.91998 5.17598C6.96265 5.07998 7.02132 4.99998 7.09598 4.93598C7.23465 4.79732 7.39998 4.72798 7.59198 4.72798C7.80532 4.72798 7.98665 4.80798 8.13598 4.96798C8.37065 5.24532 8.49332 5.61865 8.50398 6.08798C8.50398 6.19465 8.49865 6.32798 8.48798 6.48798C8.48798 6.64798 8.49865 6.73332 8.51998 6.74398C8.62665 7.54398 8.75998 8.22132 8.91998 8.77598C9.07998 9.31998 9.32532 9.84798 9.65598 10.36C9.76265 10.5307 9.79465 10.712 9.75198 10.904C9.70932 11.096 9.60265 11.2453 9.43198 11.352C9.26132 11.4587 9.07998 11.4907 8.88798 11.448C8.69598 11.4053 8.54665 11.2987 8.43998 11.128C7.98132 10.4133 7.63998 9.61332 7.41598 8.72798C6.91465 10.04 6.22132 10.888 5.33598 11.272C4.82398 11.496 4.23732 11.5013 3.57598 11.288C2.45598 10.904 1.75198 9.92265 1.46398 8.34398C1.41065 8.01332 1.36798 7.65065 1.33598 7.25598C1.31465 6.86132 1.29865 6.44532 1.28798 6.00798C1.28798 5.55998 1.28265 5.28265 1.27198 5.17598C1.26132 4.98398 1.31998 4.81332 1.44798 4.66398C1.58665 4.51465 1.75198 4.43465 1.94398 4.42398C2.14665 4.41332 2.32265 4.47732 2.47198 4.61598C2.62132 4.74398 2.70132 4.90932 2.71198 5.11198Z" stroke="#BBA4FF" stroke-width="0.6" mask="url(#path-1-outside-1_1968_1643)"/>
<path d="M16.2739 5.20798C16.2099 5.15465 16.1405 5.09065 16.0659 5.01598L15.9059 4.85598C15.8312 4.78132 15.7779 4.73865 15.7459 4.72798C15.5539 4.63198 15.2925 4.57865 14.9619 4.56798C14.6419 4.55732 14.3059 4.59465 13.9539 4.67998C13.2925 4.85065 12.9352 5.13865 12.8819 5.54398C12.9139 5.55465 12.9512 5.56532 12.9939 5.57598C13.1112 5.59732 13.2445 5.61332 13.3939 5.62398C13.5432 5.62398 13.7512 5.62398 14.0179 5.62398H14.6739C15.6125 5.64532 16.3485 5.80532 16.8819 6.10398C17.7032 6.57332 18.1405 7.35198 18.1939 8.43998C18.2259 8.51465 18.2365 8.73865 18.2259 9.11198C18.2152 9.48532 18.1352 9.79998 17.9859 10.056C17.5272 10.824 16.6152 11.2933 15.2499 11.464C14.7592 11.5387 14.2365 11.5387 13.6819 11.464C13.1379 11.4 12.6899 11.2667 12.3379 11.064C12.1565 10.968 12.0019 10.872 11.8739 10.776C11.7459 10.6693 11.6285 10.5573 11.5219 10.44C11.4259 10.312 11.3512 10.2107 11.2979 10.136C11.2445 10.0613 11.1752 9.94398 11.0899 9.78398C10.9939 9.61332 10.9245 9.49598 10.8819 9.43198C10.7752 9.26132 10.7432 9.07998 10.7859 8.88798C10.8285 8.69598 10.9352 8.54665 11.1059 8.43998C11.2765 8.33332 11.4579 8.30132 11.6499 8.34398C11.8419 8.38665 11.9912 8.49332 12.0979 8.66398L12.3219 9.04798C12.4072 9.18665 12.4659 9.28265 12.4979 9.33598C12.5299 9.37865 12.5725 9.43732 12.6259 9.51198C12.6792 9.57598 12.7379 9.62398 12.8019 9.65598L13.0419 9.81598C13.2339 9.92265 13.5059 9.99732 13.8579 10.04C14.2205 10.0827 14.6259 10.0827 15.0739 10.04C15.5112 9.98665 15.8739 9.89598 16.1619 9.76798C16.4605 9.62932 16.6525 9.47998 16.7379 9.31998C16.7699 9.26665 16.7752 8.99465 16.7539 8.50398C16.7219 7.93865 16.5299 7.55465 16.1779 7.35198C15.8685 7.18132 15.3565 7.08532 14.6419 7.06398H14.0499C13.7512 7.06398 13.4952 7.05865 13.2819 7.04798C13.0685 7.03732 12.8819 7.01598 12.7219 6.98398C12.3165 6.90932 12.0072 6.75998 11.7939 6.53598C11.5059 6.22665 11.3885 5.83732 11.4419 5.36798C11.5165 4.81332 11.7565 4.36532 12.1619 4.02398C12.5672 3.67198 13.0419 3.42665 13.5859 3.28798C14.0339 3.15998 14.5139 3.10665 15.0259 3.12798C15.5485 3.14932 15.9912 3.24532 16.3539 3.41598C16.5352 3.50132 16.7219 3.63998 16.9139 3.83198L17.2019 4.11998C17.3512 4.24798 17.4312 4.41332 17.4419 4.61598C17.4632 4.80798 17.4099 4.97865 17.2819 5.12798C17.1539 5.27732 16.9885 5.36265 16.7859 5.38398C16.5939 5.39465 16.4232 5.33598 16.2739 5.20798Z" stroke="#BBA4FF" stroke-width="0.6" mask="url(#path-1-outside-1_1968_1643)"/>
<path d="M20.4537 7.68798C20.2297 8.24265 20.2297 8.71732 20.4537 9.11198C20.7631 9.64532 21.4457 10.0133 22.5017 10.216C22.8004 10.2693 23.1897 10.3067 23.6697 10.328C24.1604 10.3493 24.5337 10.344 24.7897 10.312C25.6537 10.1627 26.6191 9.69865 27.6857 8.91998C27.8457 8.80265 28.0217 8.75998 28.2137 8.79198C28.4164 8.81332 28.5764 8.90398 28.6937 9.06398C28.8111 9.22398 28.8537 9.40532 28.8217 9.60798C28.8004 9.79998 28.7097 9.95465 28.5497 10.072C27.3017 10.9893 26.1337 11.5387 25.0457 11.72C24.6404 11.7733 24.1604 11.7893 23.6057 11.768C23.0617 11.7467 22.6084 11.6987 22.2457 11.624C20.7524 11.3467 19.7391 10.7493 19.2057 9.83198C18.7151 8.96798 18.7097 8.01332 19.1897 6.96798C19.6057 6.05065 20.3044 5.27198 21.2857 4.63198C22.2564 3.99198 23.2964 3.68265 24.4057 3.70398C24.6831 3.70398 24.8911 3.70932 25.0297 3.71998C25.1684 3.73065 25.3711 3.75732 25.6377 3.79998C25.9044 3.84265 26.1497 3.92265 26.3737 4.03998C26.5977 4.14665 26.8164 4.29065 27.0297 4.47198C27.4244 4.82398 27.6217 5.29865 27.6217 5.89598C27.6217 6.61065 27.2324 7.15998 26.4537 7.54398C25.9631 7.79998 25.3017 7.97598 24.4697 8.07198C23.6804 8.13598 22.9924 8.16265 22.4057 8.15198C21.8297 8.14132 21.3551 8.10932 20.9817 8.05598C20.7471 8.01332 20.5711 7.89065 20.4537 7.68798ZM21.1737 6.61598C21.4937 6.66932 21.9151 6.70132 22.4377 6.71198C22.9711 6.72265 23.5897 6.69598 24.2937 6.63198C24.9657 6.55732 25.4724 6.43465 25.8137 6.26398C26.0591 6.14665 26.1817 6.02398 26.1817 5.89598C26.1817 5.73598 26.1444 5.62398 26.0697 5.55998C25.8777 5.38932 25.6591 5.28265 25.4137 5.23998C25.1791 5.18665 24.8324 5.15465 24.3737 5.14398C23.7764 5.13332 23.1897 5.26665 22.6137 5.54398C22.0377 5.81065 21.5471 6.16798 21.1417 6.61598H21.1737Z" stroke="#BBA4FF" stroke-width="0.6" mask="url(#path-1-outside-1_1968_1643)"/>
<path d="M31.0135 7.36798C30.9281 6.73865 30.7148 5.76265 30.3735 4.43998C30.3308 4.24798 30.3575 4.06665 30.4535 3.89598C30.5602 3.72532 30.7095 3.61865 30.9015 3.57598C31.0935 3.52265 31.2748 3.54932 31.4455 3.65598C31.6161 3.75198 31.7281 3.89598 31.7815 4.08798L32.1815 5.73598C32.7681 5.33065 33.6001 5.12798 34.6775 5.12798C34.8801 5.12798 35.0508 5.19732 35.1895 5.33598C35.3282 5.47465 35.3975 5.64532 35.3975 5.84798C35.3975 6.05065 35.3282 6.22132 35.1895 6.35998C35.0508 6.49865 34.8801 6.56798 34.6775 6.56798C33.8135 6.56798 33.2108 6.71732 32.8695 7.01598C32.7201 7.15465 32.5921 7.34132 32.4855 7.57598C32.5281 8.06665 32.5442 8.53598 32.5335 8.98398C32.5228 9.34665 32.5015 9.66132 32.4695 9.92798C32.4268 10.2373 32.3682 10.488 32.2935 10.68C32.2295 10.8507 32.1495 10.9893 32.0535 11.096C31.8188 11.3413 31.5468 11.4267 31.2375 11.352C30.9815 11.288 30.7948 11.1333 30.6775 10.888C30.6348 10.792 30.6028 10.6747 30.5815 10.536C30.5495 10.3653 30.5388 10.1573 30.5495 9.91198C30.5601 9.46398 30.6082 9.01065 30.6935 8.55198C30.7788 8.09332 30.8855 7.69865 31.0135 7.36798Z" stroke="#BBA4FF" stroke-width="0.6" mask="url(#path-1-outside-1_1968_1643)"/>
<path d="M44.7076 9.46398C44.9103 9.33598 45.1236 9.31465 45.3476 9.39998C45.8596 9.60265 46.3076 9.74132 46.6916 9.81598C47.0756 9.87998 47.4596 9.87465 47.8436 9.79998C48.2383 9.71465 48.5956 9.53865 48.9156 9.27198C49.2143 9.01598 49.4063 8.69598 49.4916 8.31198C49.5769 7.92798 49.5556 7.54398 49.4276 7.15998C49.2889 6.75465 49.0649 6.40798 48.7556 6.11998C48.4569 5.83198 48.1156 5.65065 47.7316 5.57598C47.5503 5.54398 47.2943 5.53865 46.9636 5.55998C46.6329 5.58132 46.3823 5.62398 46.2116 5.68798C45.4436 5.98665 44.9263 6.37598 44.6596 6.85598C44.6383 7.52798 44.6543 8.39732 44.7076 9.46398ZM43.2196 6.50398C43.2516 5.55465 43.3423 4.69065 43.4916 3.91198C43.5236 3.70932 43.6196 3.55465 43.7796 3.44798C43.9503 3.33065 44.1316 3.29332 44.3236 3.33598C44.5263 3.36798 44.6809 3.46932 44.7876 3.63998C44.9049 3.79998 44.9423 3.97598 44.8996 4.16798L44.8036 4.75998C45.0596 4.61065 45.3583 4.47198 45.6996 4.34398C45.9983 4.22665 46.3876 4.15198 46.8676 4.11998C47.3369 4.08798 47.7209 4.10398 48.0196 4.16798C48.6809 4.29598 49.2569 4.59465 49.7476 5.06398C50.2383 5.53332 50.5849 6.08265 50.7876 6.71198C50.9156 7.13865 50.9796 7.56532 50.9796 7.99198C50.9796 8.40798 50.8836 8.82932 50.6916 9.25598C50.4996 9.68265 50.2169 10.0507 49.8436 10.36C49.4489 10.6907 49.0329 10.936 48.5956 11.096C48.1476 11.2453 47.6996 11.3093 47.2516 11.288C46.8143 11.2667 46.4089 11.2133 46.0356 11.128C45.6623 11.0427 45.2623 10.9147 44.8356 10.744C44.8036 10.7333 44.7769 10.7227 44.7556 10.712C44.7769 11.0533 44.7983 11.3573 44.8196 11.624V12.76C44.8196 12.792 44.8249 12.8613 44.8356 12.968L44.8516 13.288C44.8729 13.448 44.8783 13.5653 44.8676 13.64C44.8569 13.7253 44.8303 13.8053 44.7876 13.88C44.7663 13.9333 44.7289 13.992 44.6756 14.056C44.6329 14.12 44.5476 14.184 44.4196 14.248C44.2916 14.312 44.1529 14.328 44.0036 14.296C43.8009 14.264 43.6409 14.1627 43.5236 13.992C43.5023 13.9493 43.4756 13.9013 43.4436 13.848C43.2516 13.432 43.1289 12.84 43.0756 12.072C43.0649 11.8693 43.0543 11.5867 43.0436 11.224C43.0329 10.8613 43.0223 10.616 43.0116 10.488C43.0116 10.424 42.9956 10.2 42.9636 9.81598C42.9423 9.42132 42.9263 9.15998 42.9156 9.03198C42.9156 8.89332 42.9156 8.67998 42.9156 8.39198C42.9049 8.09332 42.9103 7.83732 42.9316 7.62398C42.9636 7.41065 43.0063 7.20265 43.0596 6.99998C43.1023 6.82932 43.1556 6.66398 43.2196 6.50398ZM44.6436 13.08C44.6756 13.2293 44.7129 13.2827 44.7556 13.24C44.7343 13.208 44.7183 13.1813 44.7076 13.16C44.6969 13.1387 44.6756 13.112 44.6436 13.08Z" stroke="#BBA4FF" stroke-width="0.6" mask="url(#path-1-outside-1_1968_1643)"/>
<path d="M53.1987 7.68798C52.9747 8.24265 52.9747 8.71732 53.1987 9.11198C53.5081 9.64532 54.1907 10.0133 55.2467 10.216C55.5454 10.2693 55.9347 10.3067 56.4147 10.328C56.9054 10.3493 57.2787 10.344 57.5347 10.312C58.3987 10.1627 59.3641 9.69865 60.4307 8.91998C60.5907 8.80265 60.7667 8.75998 60.9587 8.79198C61.1614 8.81332 61.3214 8.90398 61.4387 9.06398C61.5561 9.22398 61.5987 9.40532 61.5667 9.60798C61.5454 9.79998 61.4547 9.95465 61.2947 10.072C60.0467 10.9893 58.8787 11.5387 57.7907 11.72C57.3854 11.7733 56.9054 11.7893 56.3507 11.768C55.8067 11.7467 55.3534 11.6987 54.9907 11.624C53.4974 11.3467 52.4841 10.7493 51.9507 9.83198C51.4601 8.96798 51.4547 8.01332 51.9347 6.96798C52.3507 6.05065 53.0494 5.27198 54.0307 4.63198C55.0014 3.99198 56.0414 3.68265 57.1507 3.70398C57.4281 3.70398 57.6361 3.70932 57.7747 3.71998C57.9134 3.73065 58.1161 3.75732 58.3827 3.79998C58.6494 3.84265 58.8947 3.92265 59.1187 4.03998C59.3427 4.14665 59.5614 4.29065 59.7747 4.47198C60.1694 4.82398 60.3667 5.29865 60.3667 5.89598C60.3667 6.61065 59.9774 7.15998 59.1987 7.54398C58.7081 7.79998 58.0467 7.97598 57.2147 8.07198C56.4254 8.13598 55.7374 8.16265 55.1507 8.15198C54.5747 8.14132 54.1001 8.10932 53.7267 8.05598C53.4921 8.01332 53.3161 7.89065 53.1987 7.68798ZM53.9187 6.61598C54.2387 6.66932 54.6601 6.70132 55.1827 6.71198C55.7161 6.72265 56.3347 6.69598 57.0387 6.63198C57.7107 6.55732 58.2174 6.43465 58.5587 6.26398C58.8041 6.14665 58.9267 6.02398 58.9267 5.89598C58.9267 5.73598 58.8894 5.62398 58.8147 5.55998C58.6227 5.38932 58.4041 5.28265 58.1587 5.23998C57.9241 5.18665 57.5774 5.15465 57.1187 5.14398C56.5214 5.13332 55.9347 5.26665 55.3587 5.54398C54.7827 5.81065 54.2921 6.16798 53.8867 6.61598H53.9187Z" stroke="#BBA4FF" stroke-width="0.6" mask="url(#path-1-outside-1_1968_1643)"/>
<path d="M63.7585 7.36798C63.6731 6.73865 63.4598 5.76265 63.1185 4.43998C63.0758 4.24798 63.1025 4.06665 63.1985 3.89598C63.3051 3.72532 63.4545 3.61865 63.6465 3.57598C63.8385 3.52265 64.0198 3.54932 64.1905 3.65598C64.3611 3.75198 64.4731 3.89598 64.5265 4.08798L64.9265 5.73598C65.5131 5.33065 66.3452 5.12798 67.4225 5.12798C67.6252 5.12798 67.7958 5.19732 67.9345 5.33598C68.0731 5.47465 68.1425 5.64532 68.1425 5.84798C68.1425 6.05065 68.0731 6.22132 67.9345 6.35998C67.7958 6.49865 67.6252 6.56798 67.4225 6.56798C66.5585 6.56798 65.9558 6.71732 65.6145 7.01598C65.4651 7.15465 65.3371 7.34132 65.2305 7.57598C65.2731 8.06665 65.2891 8.53598 65.2785 8.98398C65.2678 9.34665 65.2465 9.66132 65.2145 9.92798C65.1718 10.2373 65.1131 10.488 65.0385 10.68C64.9745 10.8507 64.8945 10.9893 64.7985 11.096C64.5638 11.3413 64.2918 11.4267 63.9825 11.352C63.7265 11.288 63.5398 11.1333 63.4225 10.888C63.3798 10.792 63.3478 10.6747 63.3265 10.536C63.2945 10.3653 63.2838 10.1573 63.2945 9.91198C63.3051 9.46398 63.3531 9.01065 63.4385 8.55198C63.5238 8.09332 63.6305 7.69865 63.7585 7.36798Z" stroke="#BBA4FF" stroke-width="0.6" mask="url(#path-1-outside-1_1968_1643)"/>
<path d="M74.6557 5.20798C74.5917 5.15465 74.5224 5.09065 74.4477 5.01598L74.2877 4.85598C74.2131 4.78132 74.1597 4.73865 74.1277 4.72798C73.9357 4.63198 73.6744 4.57865 73.3437 4.56798C73.0237 4.55732 72.6877 4.59465 72.3357 4.67998C71.6744 4.85065 71.3171 5.13865 71.2637 5.54398C71.2957 5.55465 71.3331 5.56532 71.3757 5.57598C71.4931 5.59732 71.6264 5.61332 71.7757 5.62398C71.9251 5.62398 72.1331 5.62398 72.3997 5.62398H73.0557C73.9944 5.64532 74.7304 5.80532 75.2637 6.10398C76.0851 6.57332 76.5224 7.35198 76.5757 8.43998C76.6077 8.51465 76.6184 8.73865 76.6077 9.11198C76.5971 9.48532 76.5171 9.79998 76.3677 10.056C75.9091 10.824 74.9971 11.2933 73.6317 11.464C73.1411 11.5387 72.6184 11.5387 72.0637 11.464C71.5197 11.4 71.0717 11.2667 70.7197 11.064C70.5384 10.968 70.3837 10.872 70.2557 10.776C70.1277 10.6693 70.0104 10.5573 69.9037 10.44C69.8077 10.312 69.7331 10.2107 69.6797 10.136C69.6264 10.0613 69.5571 9.94398 69.4717 9.78398C69.3757 9.61332 69.3064 9.49598 69.2637 9.43198C69.1571 9.26132 69.1251 9.07998 69.1677 8.88798C69.2104 8.69598 69.3171 8.54665 69.4877 8.43998C69.6584 8.33332 69.8397 8.30132 70.0317 8.34398C70.2237 8.38665 70.3731 8.49332 70.4797 8.66398L70.7037 9.04798C70.7891 9.18665 70.8477 9.28265 70.8797 9.33598C70.9117 9.37865 70.9544 9.43732 71.0077 9.51198C71.0611 9.57598 71.1197 9.62398 71.1837 9.65598L71.4237 9.81598C71.6157 9.92265 71.8877 9.99732 72.2397 10.04C72.6024 10.0827 73.0077 10.0827 73.4557 10.04C73.8931 9.98665 74.2557 9.89598 74.5437 9.76798C74.8424 9.62932 75.0344 9.47998 75.1197 9.31998C75.1517 9.26665 75.1571 8.99465 75.1357 8.50398C75.1037 7.93865 74.9117 7.55465 74.5597 7.35198C74.2504 7.18132 73.7384 7.08532 73.0237 7.06398H72.4317C72.1331 7.06398 71.8771 7.05865 71.6637 7.04798C71.4504 7.03732 71.2637 7.01598 71.1037 6.98398C70.6984 6.90932 70.3891 6.75998 70.1757 6.53598C69.8877 6.22665 69.7704 5.83732 69.8237 5.36798C69.8984 4.81332 70.1384 4.36532 70.5437 4.02398C70.9491 3.67198 71.4237 3.42665 71.9677 3.28798C72.4157 3.15998 72.8957 3.10665 73.4077 3.12798C73.9304 3.14932 74.3731 3.24532 74.7357 3.41598C74.9171 3.50132 75.1037 3.63998 75.2957 3.83198L75.5837 4.11998C75.7331 4.24798 75.8131 4.41332 75.8237 4.61598C75.8451 4.80798 75.7917 4.97865 75.6637 5.12798C75.5357 5.27732 75.3704 5.36265 75.1677 5.38398C74.9757 5.39465 74.8051 5.33598 74.6557 5.20798Z" stroke="#BBA4FF" stroke-width="0.6" mask="url(#path-1-outside-1_1968_1643)"/>
<path d="M81.3956 3.86398C81.5663 3.63998 81.7903 3.54398 82.0676 3.57598C82.1209 3.58665 82.2436 3.60265 82.4356 3.62398C82.6383 3.64532 82.8303 3.67198 83.0116 3.70398C83.1929 3.72532 83.3583 3.75732 83.5076 3.79998C84.6276 4.14132 85.4383 4.72798 85.9396 5.55998C86.4516 6.38132 86.5956 7.25598 86.3716 8.18398C86.1583 9.09065 85.6409 9.83198 84.8196 10.408C84.0089 10.984 83.0116 11.2347 81.8276 11.16C81.1449 11.1173 80.5316 10.9413 79.9876 10.632C79.4543 10.3227 79.0329 9.91198 78.7236 9.39998C78.4249 8.88798 78.2543 8.32798 78.2116 7.71998C78.1689 7.10132 78.2649 6.47732 78.4996 5.84798C78.5743 5.62398 78.6916 5.35732 78.8516 5.04798C78.9476 4.85598 79.0436 4.69065 79.1396 4.55198C79.2889 4.32798 79.4436 4.17332 79.6036 4.08798C79.8063 3.97065 80.0623 3.89065 80.3716 3.84798L80.6596 3.79998C80.7449 3.78932 80.8143 3.77865 80.8676 3.76798C81.0596 3.72532 81.2356 3.75732 81.3956 3.86398ZM81.1876 5.17598C81.0916 5.19732 80.9796 5.21332 80.8516 5.22398C80.8409 5.23465 80.8036 5.24532 80.7396 5.25598C80.6756 5.25598 80.6223 5.26132 80.5796 5.27198C80.4836 5.28265 80.4089 5.29865 80.3556 5.31998L80.3396 5.35198C80.2756 5.44798 80.2063 5.56532 80.1316 5.70398C80.0036 5.95998 79.9076 6.16798 79.8436 6.32798C79.5236 7.22398 79.5609 7.99732 79.9556 8.64798C80.3503 9.30932 81.0063 9.66665 81.9236 9.71998C82.7663 9.77332 83.4543 9.61332 83.9876 9.23998C84.5209 8.86665 84.8516 8.40265 84.9796 7.84798C85.1076 7.31465 85.0169 6.79732 84.7076 6.29598C84.3983 5.78398 83.8596 5.41065 83.0916 5.17598C82.9849 5.14398 82.8729 5.12265 82.7556 5.11198C82.6489 5.09065 82.5103 5.07465 82.3396 5.06398C82.1796 5.05332 82.0249 5.03732 81.8756 5.01598C81.7689 4.99465 81.6783 4.95732 81.6036 4.90398C81.4969 5.04265 81.3583 5.13332 81.1876 5.17598Z" stroke="#BBA4FF" stroke-width="0.6" mask="url(#path-1-outside-1_1968_1643)"/>
<path d="M90.3094 4.95198C90.1814 5.53865 90.096 6.51998 90.0534 7.89598C90.0427 8.41865 90.048 8.86665 90.0694 9.23998L90.5174 8.40798C90.752 7.95998 90.9547 7.60798 91.1254 7.35198C91.7334 6.40265 92.3627 5.89598 93.0134 5.83198C93.8667 5.74665 94.6347 6.39198 95.3174 7.76798C95.52 8.17332 95.7867 8.79198 96.1174 9.62398C96.192 9.81598 96.1867 10.0027 96.1014 10.184C96.0267 10.3653 95.8934 10.4933 95.7014 10.568C95.52 10.6427 95.3387 10.6427 95.1574 10.568C94.976 10.4827 94.848 10.3493 94.7734 10.168C94.4534 9.33598 94.208 8.74932 94.0374 8.40798C93.8774 8.09865 93.7227 7.84798 93.5734 7.65598C93.4347 7.46398 93.3334 7.35198 93.2694 7.31998C93.216 7.28798 93.1734 7.27198 93.1414 7.27198C92.9494 7.29332 92.6827 7.57598 92.3414 8.11998C92.1814 8.36532 91.9947 8.69065 91.7814 9.09598L91.2534 10.088C91.04 10.4613 90.8534 10.7387 90.6934 10.92C90.32 11.336 89.92 11.4587 89.4934 11.288C89.1947 11.1707 88.9814 10.9307 88.8534 10.568C88.7787 10.3547 88.72 10.0933 88.6774 9.78398C88.624 9.28265 88.6027 8.64265 88.6134 7.86398C88.656 6.39198 88.752 5.31465 88.9014 4.63198C88.944 4.43998 89.0507 4.29065 89.2214 4.18398C89.392 4.07732 89.5734 4.04532 89.7654 4.08798C89.9574 4.13065 90.1067 4.23732 90.2134 4.40798C90.32 4.57865 90.352 4.75998 90.3094 4.95198Z" stroke="#BBA4FF" stroke-width="0.6" mask="url(#path-1-outside-1_1968_1643)"/>
<path d="M104.603 9.44798C104.422 9.25598 104.262 9.12798 104.123 9.06398C103.857 8.92532 103.462 8.80798 102.939 8.71198C102.427 8.60532 101.91 8.55732 101.387 8.56798C100.822 8.56798 100.363 8.63732 100.011 8.77598C99.6592 8.90398 99.4406 9.06932 99.3552 9.27198C99.3019 9.38932 99.2912 9.46398 99.3232 9.49598C99.4192 9.61332 99.6326 9.71998 99.9632 9.81598C100.294 9.90132 100.657 9.95998 101.051 9.99198C101.457 10.0133 101.777 10.0133 102.011 9.99198C102.427 9.95998 103.035 9.84265 103.835 9.63998C104.187 9.54398 104.443 9.47998 104.603 9.44798ZM98.7472 5.33598C98.7899 5.30398 98.8966 5.23465 99.0672 5.12798C99.2379 5.02132 99.4032 4.92532 99.5632 4.83998C99.7339 4.74398 99.8886 4.66398 100.027 4.59998C100.23 4.51465 100.587 4.45598 101.099 4.42398C101.419 4.40265 101.713 4.39198 101.979 4.39198C102.886 4.39198 103.686 4.55198 104.379 4.87198C105.073 5.18132 105.627 5.73598 106.043 6.53598C106.193 6.83465 106.369 7.33598 106.571 8.03998C106.678 8.39198 106.753 8.69598 106.795 8.95198C106.827 9.11198 106.843 9.25065 106.843 9.36798C106.833 9.61332 106.769 9.81598 106.651 9.97598C106.641 10.1467 106.577 10.3013 106.459 10.44C106.342 10.568 106.193 10.6427 106.011 10.664C105.585 10.7173 104.971 10.84 104.171 11.032C103.307 11.256 102.63 11.3893 102.139 11.432C101.947 11.464 101.574 11.464 101.019 11.432C100.475 11.4 99.9952 11.32 99.5792 11.192C98.9712 11.0213 98.5232 10.7707 98.2352 10.44C97.7979 9.92798 97.7339 9.33598 98.0432 8.66398C98.5126 7.66132 99.6219 7.14932 101.371 7.12798C102.001 7.11732 102.625 7.17065 103.243 7.28798C103.883 7.41598 104.401 7.58132 104.795 7.78398L105.035 7.92798C104.907 7.55465 104.817 7.31465 104.763 7.20798C104.507 6.69598 104.155 6.33865 103.707 6.13598C103.259 5.93332 102.683 5.83198 101.979 5.83198C101.723 5.83198 101.462 5.84265 101.195 5.86398C100.854 5.88532 100.646 5.91198 100.571 5.94398C100.465 5.98665 100.358 6.03998 100.251 6.10398C100.145 6.15732 100.017 6.23198 99.8672 6.32798C99.7179 6.42398 99.5792 6.50932 99.4512 6.58398C99.2806 6.67998 99.0992 6.70665 98.9072 6.66398C98.7152 6.61065 98.5712 6.49865 98.4752 6.32798C98.3792 6.14665 98.3526 5.95998 98.3952 5.76798C98.4486 5.57598 98.5659 5.43198 98.7472 5.33598Z" stroke="#BBA4FF" stroke-width="0.6" mask="url(#path-1-outside-1_1968_1643)"/>
<path d="M167.945 34.2392L167.258 32.906L167.945 34.2392ZM198.929 19.4568C199.181 18.6677 198.746 17.8235 197.957 17.5713L185.097 13.4616C184.308 13.2094 183.464 13.6447 183.212 14.4338C182.96 15.2229 183.395 16.0671 184.184 16.3192L195.615 19.9723L191.962 31.4028C191.709 32.1919 192.145 33.036 192.934 33.2882C193.723 33.5404 194.567 33.1051 194.819 32.316L198.929 19.4568ZM63.671 24.0626C63.1533 23.4158 62.2094 23.3112 61.5626 23.8289C60.9159 24.3466 60.8113 25.2906 61.329 25.9373L63.671 24.0626ZM95 48L94.5968 49.4448L94.5968 49.4448L95 48ZM168.633 35.5724L198.188 20.3333L196.813 17.6669L167.258 32.906L168.633 35.5724ZM62.5 24.9999C61.329 25.9373 61.3292 25.9377 61.3296 25.9381C61.3297 25.9383 61.3301 25.9388 61.3305 25.9392C61.3312 25.9401 61.3322 25.9413 61.3333 25.9428C61.3357 25.9457 61.3389 25.9497 61.343 25.9547C61.3512 25.9649 61.3628 25.9793 61.3779 25.9978C61.4081 26.035 61.452 26.0887 61.5094 26.1582C61.6242 26.297 61.7927 26.4987 62.0125 26.7556C62.4521 27.2694 63.0968 28.0046 63.926 28.9006C65.5836 30.6916 67.9833 33.1306 70.9598 35.7309C76.8891 40.9111 85.2136 46.8262 94.5968 49.4448L95.4032 46.5552C86.6441 44.1108 78.7187 38.5258 72.9336 33.4717C70.0528 30.9549 67.7292 28.5932 66.1278 26.8629C65.3275 25.9981 64.7087 25.2924 64.2922 24.8055C64.084 24.5621 63.9263 24.3734 63.8219 24.2471C63.7697 24.1839 63.7308 24.1363 63.7056 24.1053C63.693 24.0897 63.6837 24.0783 63.678 24.0712C63.6751 24.0676 63.6731 24.0651 63.6719 24.0636C63.6713 24.0629 63.671 24.0625 63.6708 24.0623C63.6707 24.0622 63.6708 24.0623 63.6708 24.0622C63.6709 24.0624 63.671 24.0626 62.5 24.9999ZM167.258 32.906C144.751 44.5109 119.282 53.2193 95.4032 46.5552L94.5968 49.4448C119.636 56.4325 146 47.2426 168.633 35.5724L167.258 32.906Z" fill="#BBA4FF"/>
</svg>
