<svg width="731" height="70" viewBox="0 0 731 70" fill="none" xmlns="http://www.w3.org/2000/svg">
<mask id="mask0_1878_6742" style="mask-type:luminance" maskUnits="userSpaceOnUse" x="0" y="0" width="731" height="71">
<path d="M731 0.00012207H0V70.0001H731V0.00012207Z" fill="white"/>
</mask>
<g mask="url(#mask0_1878_6742)">
<path d="M257.958 47.2003V22.8005" stroke="#16013E" stroke-width="3" stroke-linecap="round" stroke-linejoin="round"/>
<path d="M251.176 43.9996V26.0006" stroke="#16013E" stroke-width="3" stroke-linecap="round" stroke-linejoin="round"/>
<path d="M244.497 47.2003V22.8005" stroke="#16013E" stroke-width="3" stroke-linecap="round" stroke-linejoin="round"/>
<path d="M183.87 41.6004V28.4003" stroke="#16013E" stroke-width="3" stroke-linecap="round" stroke-linejoin="round"/>
<path d="M204.113 41.6004V28.4003" stroke="#16013E" stroke-width="3" stroke-linecap="round" stroke-linejoin="round"/>
<path d="M231.036 42.8002V27.1001" stroke="#16013E" stroke-width="3" stroke-linecap="round" stroke-linejoin="round"/>
<path d="M237.715 54.9991V14.9996" stroke="#16013E" stroke-width="3" stroke-linecap="round" stroke-linejoin="round"/>
<path d="M210.792 63.8002V6.10022" stroke="#16013E" stroke-width="3" stroke-linecap="round" stroke-linejoin="round"/>
<path d="M224.253 16.4994V53.3996" stroke="#16013E" stroke-width="3" stroke-linecap="round" stroke-linejoin="round"/>
<path d="M217.573 16.4994V53.3995" stroke="#16013E" stroke-width="3" stroke-linecap="round" stroke-linejoin="round"/>
<path d="M264.637 41.6004V28.4003" stroke="#16013E" stroke-width="3" stroke-linecap="round" stroke-linejoin="round"/>
<path d="M291.559 41.3004V28.6" stroke="#16013E" stroke-width="3" stroke-linecap="round" stroke-linejoin="round"/>
<path d="M271.419 58.4V11.6007" stroke="#16013E" stroke-width="3" stroke-linecap="round" stroke-linejoin="round"/>
<path d="M284.88 20.0005V49.9009" stroke="#16013E" stroke-width="3" stroke-linecap="round" stroke-linejoin="round"/>
<path d="M278.098 20.0005V49.9009" stroke="#16013E" stroke-width="3" stroke-linecap="round" stroke-linejoin="round"/>
<path d="M197.331 16.1994V53.7998" stroke="#16013E" stroke-width="3" stroke-linecap="round" stroke-linejoin="round"/>
<path d="M190.65 16.1994V53.7998" stroke="#16013E" stroke-width="3" stroke-linecap="round" stroke-linejoin="round"/>
<path d="M177.191 59.4994V10.5001" stroke="#16013E" stroke-width="3" stroke-linecap="round" stroke-linejoin="round"/>
<path d="M170.409 68.0001V2.00012" stroke="#16013E" stroke-width="3" stroke-linecap="round" stroke-linejoin="round"/>
<path d="M365.551 47.2003V22.8005" stroke="#16013E" stroke-width="3" stroke-linecap="round" stroke-linejoin="round"/>
<path d="M358.866 43.9996V26.0006" stroke="#16013E" stroke-width="3" stroke-linecap="round" stroke-linejoin="round"/>
<path d="M352.09 47.2003V22.8005" stroke="#16013E" stroke-width="3" stroke-linecap="round" stroke-linejoin="round"/>
<path d="M311.803 41.6004V28.4003" stroke="#16013E" stroke-width="3" stroke-linecap="round" stroke-linejoin="round"/>
<path d="M338.628 42.8002V27.1001" stroke="#16013E" stroke-width="3" stroke-linecap="round" stroke-linejoin="round"/>
<path d="M345.407 54.9991V14.9996" stroke="#16013E" stroke-width="3" stroke-linecap="round" stroke-linejoin="round"/>
<path d="M318.483 63.8002V6.10022" stroke="#16013E" stroke-width="3" stroke-linecap="round" stroke-linejoin="round"/>
<path d="M331.944 16.4994V53.3996" stroke="#16013E" stroke-width="3" stroke-linecap="round" stroke-linejoin="round"/>
<path d="M325.264 16.4994V53.3996" stroke="#16013E" stroke-width="3" stroke-linecap="round" stroke-linejoin="round"/>
<path d="M372.329 41.6004V28.4003" stroke="#16013E" stroke-width="3" stroke-linecap="round" stroke-linejoin="round"/>
<path d="M305.021 16.1994V53.7998" stroke="#16013E" stroke-width="3" stroke-linecap="round" stroke-linejoin="round"/>
<path d="M298.342 16.1994V53.7998" stroke="#16013E" stroke-width="3" stroke-linecap="round" stroke-linejoin="round"/>
<path d="M392.473 47.2003V22.8005" stroke="#16013E" stroke-width="3" stroke-linecap="round" stroke-linejoin="round"/>
<path d="M385.788 43.9996V26.0006" stroke="#16013E" stroke-width="3" stroke-linecap="round" stroke-linejoin="round"/>
<path d="M379.012 47.2003V22.8005" stroke="#16013E" stroke-width="3" stroke-linecap="round" stroke-linejoin="round"/>
<path d="M399.252 41.6004V28.4003" stroke="#16013E" stroke-width="3" stroke-linecap="round" stroke-linejoin="round"/>
<path d="M426.174 41.3004V28.6" stroke="#16013E" stroke-width="3" stroke-linecap="round" stroke-linejoin="round"/>
<path d="M405.934 58.4V11.6007" stroke="#16013E" stroke-width="3" stroke-linecap="round" stroke-linejoin="round"/>
<path d="M419.396 20.0005V49.9009" stroke="#16013E" stroke-width="3" stroke-linecap="round" stroke-linejoin="round"/>
<path d="M412.711 20.0005V49.9009" stroke="#16013E" stroke-width="3" stroke-linecap="round" stroke-linejoin="round"/>
<path d="M446.318 41.6004V28.4003" stroke="#16013E" stroke-width="3" stroke-linecap="round" stroke-linejoin="round"/>
<path d="M453.096 63.8002V6.10022" stroke="#16013E" stroke-width="3" stroke-linecap="round" stroke-linejoin="round"/>
<path d="M459.779 16.4994V53.3996" stroke="#16013E" stroke-width="3" stroke-linecap="round" stroke-linejoin="round"/>
<path d="M439.635 16.1994V53.7998" stroke="#16013E" stroke-width="3" stroke-linecap="round" stroke-linejoin="round"/>
<path d="M432.857 16.1994V53.7998" stroke="#16013E" stroke-width="3" stroke-linecap="round" stroke-linejoin="round"/>
<path d="M143.486 41.6004V28.4003" stroke="#16013E" stroke-width="3" stroke-linecap="round" stroke-linejoin="round"/>
<path d="M123.344 41.6004V28.4003" stroke="#16013E" stroke-width="3" stroke-linecap="round" stroke-linejoin="round"/>
<path d="M96.4216 42.8002V27.1001" stroke="#16013E" stroke-width="3" stroke-linecap="round" stroke-linejoin="round"/>
<path d="M116.564 63.8002V6.10022" stroke="#16013E" stroke-width="3" stroke-linecap="round" stroke-linejoin="round"/>
<path d="M103.103 16.4994V53.3996" stroke="#16013E" stroke-width="3" stroke-linecap="round" stroke-linejoin="round"/>
<path d="M89.6414 16.4994V53.3996" stroke="#16013E" stroke-width="3" stroke-linecap="round" stroke-linejoin="round"/>
<path d="M82.9604 16.4994V53.3996" stroke="#16013E" stroke-width="3" stroke-linecap="round" stroke-linejoin="round"/>
<path d="M76.1802 16.4994V53.3996" stroke="#16013E" stroke-width="3" stroke-linecap="round" stroke-linejoin="round"/>
<path d="M69.4993 16.4994V53.3996" stroke="#16013E" stroke-width="3" stroke-linecap="round" stroke-linejoin="round"/>
<path d="M62.719 16.4994V53.3996" stroke="#16013E" stroke-width="3" stroke-linecap="round" stroke-linejoin="round"/>
<path d="M56.0381 16.4994V53.3996" stroke="#16013E" stroke-width="3" stroke-linecap="round" stroke-linejoin="round"/>
<path d="M49.3572 18.2007V51.7006" stroke="#16013E" stroke-width="3" stroke-linecap="round" stroke-linejoin="round"/>
<path d="M42.5769 20.0005V49.9009" stroke="#16013E" stroke-width="3" stroke-linecap="round" stroke-linejoin="round"/>
<path d="M35.8979 16.4994V53.3996" stroke="#16013E" stroke-width="3" stroke-linecap="round" stroke-linejoin="round"/>
<path d="M109.884 16.4994V53.3996" stroke="#16013E" stroke-width="3" stroke-linecap="round" stroke-linejoin="round"/>
<path d="M130.025 16.1994V53.7998" stroke="#16013E" stroke-width="3" stroke-linecap="round" stroke-linejoin="round"/>
<path d="M136.806 16.1994V53.7998" stroke="#16013E" stroke-width="3" stroke-linecap="round" stroke-linejoin="round"/>
<path d="M150.269 59.4994V10.5001" stroke="#16013E" stroke-width="3" stroke-linecap="round" stroke-linejoin="round"/>
<path d="M156.948 68.0001V2.00012" stroke="#16013E" stroke-width="3" stroke-linecap="round" stroke-linejoin="round"/>
<path d="M163.728 39.6999V30.2001" stroke="#16013E" stroke-width="3" stroke-linecap="round" stroke-linejoin="round"/>
<path d="M621.316 43.9996V26.0006" stroke="#16013E" stroke-width="3" stroke-linecap="round" stroke-linejoin="round"/>
<path d="M614.534 47.2003V22.8005" stroke="#16013E" stroke-width="3" stroke-linecap="round" stroke-linejoin="round"/>
<path d="M554.007 41.6004V28.4003" stroke="#16013E" stroke-width="3" stroke-linecap="round" stroke-linejoin="round"/>
<path d="M574.247 41.6004V28.4003" stroke="#16013E" stroke-width="3" stroke-linecap="round" stroke-linejoin="round"/>
<path d="M601.169 42.8002V27.1001" stroke="#16013E" stroke-width="3" stroke-linecap="round" stroke-linejoin="round"/>
<path d="M607.855 54.9991V14.9996" stroke="#16013E" stroke-width="3" stroke-linecap="round" stroke-linejoin="round"/>
<path d="M580.931 63.8002V6.10022" stroke="#16013E" stroke-width="3" stroke-linecap="round" stroke-linejoin="round"/>
<path d="M594.394 16.4994V53.3996" stroke="#16013E" stroke-width="3" stroke-linecap="round" stroke-linejoin="round"/>
<path d="M587.708 16.4994V53.3996" stroke="#16013E" stroke-width="3" stroke-linecap="round" stroke-linejoin="round"/>
<path d="M567.47 16.1994V53.7998" stroke="#16013E" stroke-width="3" stroke-linecap="round" stroke-linejoin="round"/>
<path d="M560.786 16.1994V53.7998" stroke="#16013E" stroke-width="3" stroke-linecap="round" stroke-linejoin="round"/>
<path d="M547.324 59.4994V10.5001" stroke="#16013E" stroke-width="3" stroke-linecap="round" stroke-linejoin="round"/>
<path d="M540.546 68.0001V2.00012" stroke="#16013E" stroke-width="3" stroke-linecap="round" stroke-linejoin="round"/>
<path d="M513.626 41.6004V28.4003" stroke="#16013E" stroke-width="3" stroke-linecap="round" stroke-linejoin="round"/>
<path d="M493.48 41.6004V28.4003" stroke="#16013E" stroke-width="3" stroke-linecap="round" stroke-linejoin="round"/>
<path d="M466.557 42.8002V27.1001" stroke="#16013E" stroke-width="3" stroke-linecap="round" stroke-linejoin="round"/>
<path d="M486.701 63.8002V6.10022" stroke="#16013E" stroke-width="3" stroke-linecap="round" stroke-linejoin="round"/>
<path d="M473.24 16.4994V53.3996" stroke="#16013E" stroke-width="3" stroke-linecap="round" stroke-linejoin="round"/>
<path d="M480.019 16.4994V53.3996" stroke="#16013E" stroke-width="3" stroke-linecap="round" stroke-linejoin="round"/>
<path d="M695.301 47.2003V22.8005" stroke="#16013E" stroke-width="3" stroke-linecap="round" stroke-linejoin="round"/>
<path d="M688.622 43.9996V26.0006" stroke="#16013E" stroke-width="3" stroke-linecap="round" stroke-linejoin="round"/>
<path d="M681.842 47.2003V22.8005" stroke="#16013E" stroke-width="3" stroke-linecap="round" stroke-linejoin="round"/>
<path d="M641.456 41.6004V28.4003" stroke="#16013E" stroke-width="3" stroke-linecap="round" stroke-linejoin="round"/>
<path d="M668.378 42.8002V27.1001" stroke="#16013E" stroke-width="3" stroke-linecap="round" stroke-linejoin="round"/>
<path d="M675.161 54.9991V14.9996" stroke="#16013E" stroke-width="3" stroke-linecap="round" stroke-linejoin="round"/>
<path d="M648.238 63.8002V6.10022" stroke="#16013E" stroke-width="3" stroke-linecap="round" stroke-linejoin="round"/>
<path d="M661.7 16.4994V53.3996" stroke="#16013E" stroke-width="3" stroke-linecap="round" stroke-linejoin="round"/>
<path d="M654.917 16.4994V53.3996" stroke="#16013E" stroke-width="3" stroke-linecap="round" stroke-linejoin="round"/>
<path d="M702.083 41.6004V28.4003" stroke="#16013E" stroke-width="3" stroke-linecap="round" stroke-linejoin="round"/>
<path d="M1.99463 41.6004V28.4003" stroke="#16013E" stroke-width="3" stroke-linecap="round" stroke-linejoin="round"/>
<path d="M634.777 16.1994V53.7998" stroke="#16013E" stroke-width="3" stroke-linecap="round" stroke-linejoin="round"/>
<path d="M627.995 16.1994V53.7998" stroke="#16013E" stroke-width="3" stroke-linecap="round" stroke-linejoin="round"/>
<path d="M722.223 47.2003V22.8005" stroke="#16013E" stroke-width="3" stroke-linecap="round" stroke-linejoin="round"/>
<path d="M22.1387 47.2003V22.8005" stroke="#16013E" stroke-width="3" stroke-linecap="round" stroke-linejoin="round"/>
<path d="M715.544 43.9996V26.0006" stroke="#16013E" stroke-width="3" stroke-linecap="round" stroke-linejoin="round"/>
<path d="M15.4558 43.9996V26.0006" stroke="#16013E" stroke-width="3" stroke-linecap="round" stroke-linejoin="round"/>
<path d="M708.764 47.2003V22.8005" stroke="#16013E" stroke-width="3" stroke-linecap="round" stroke-linejoin="round"/>
<path d="M8.67944 47.2003V22.8005" stroke="#16013E" stroke-width="3" stroke-linecap="round" stroke-linejoin="round"/>
<path d="M729.005 41.6004V28.4003" stroke="#16013E" stroke-width="3" stroke-linecap="round" stroke-linejoin="round"/>
<path d="M28.917 41.6004V28.4003" stroke="#16013E" stroke-width="3" stroke-linecap="round" stroke-linejoin="round"/>
<path d="M500.163 16.1994V53.7998" stroke="#16013E" stroke-width="3" stroke-linecap="round" stroke-linejoin="round"/>
<path d="M506.941 16.1994V53.7998" stroke="#16013E" stroke-width="3" stroke-linecap="round" stroke-linejoin="round"/>
<path d="M520.402 59.4994V10.5001" stroke="#16013E" stroke-width="3" stroke-linecap="round" stroke-linejoin="round"/>
<path d="M527.085 68.0001V2.00012" stroke="#16013E" stroke-width="3" stroke-linecap="round" stroke-linejoin="round"/>
<path d="M533.863 39.6994V30.2001" stroke="#16013E" stroke-width="3" stroke-linecap="round" stroke-linejoin="round"/>
</g>
</svg>
