<svg width="20" height="20" fill="none" xmlns="http://www.w3.org/2000/svg"><path d="M8.6 11.8L6.45 9.65a.948.948 0 00-.7-.275.948.948 0 00-.7.275.948.948 0 00-.275.7c0 .284.092.517.275.7L7.9 13.9c.2.2.433.3.7.3.267 0 .5-.1.7-.3l5.65-5.65a.948.948 0 00.275-.7.948.948 0 00-.275-.7.948.948 0 00-.7-.275.948.948 0 00-.7.275L8.6 11.8zM10 20a9.731 9.731 0 01-3.9-.788 10.112 10.112 0 01-3.175-2.137c-.9-.9-1.612-1.958-2.137-3.175A9.755 9.755 0 010 10a9.74 9.74 0 01.788-3.9 10.114 10.114 0 012.137-3.175c.9-.9 1.958-1.612 3.175-2.137A9.755 9.755 0 0110 0a9.74 9.74 0 013.9.788 10.114 10.114 0 013.175 2.137c.9.9 1.613 1.958 2.138 3.175A9.72 9.72 0 0120 10a9.732 9.732 0 01-.788 3.9 10.114 10.114 0 01-2.137 3.175c-.9.9-1.958 1.613-3.175 2.138A9.719 9.719 0 0110 20z" fill="#FFFBF5"/></svg>