<svg width="609" height="91" fill="none" xmlns="http://www.w3.org/2000/svg"><path d="M.667 82.999a5.333 5.333 0 1010.666 0 5.333 5.333 0 00-10.666 0zm135.04.707a1 1 0 000-1.414l-6.364-6.364a1 1 0 10-1.414 1.414L133.586 83l-5.657 5.657a1 1 0 101.414 1.414l6.364-6.364zM6 84h64.5v-2H6v2zm64.5 0H135v-2H70.5v2z" fill="#16013E"/><path d="M245.707 83.706a1 1 0 000-1.414l-6.364-6.364a1 1 0 10-1.414 1.414L243.586 83l-5.657 5.657a1 1 0 101.414 1.414l6.364-6.364zM135 84h55v-2h-55v2zm55 0h55v-2h-55v2z" fill="#16013E"/><path d="M369.707 83.706a1 1 0 000-1.414l-6.364-6.364a1 1 0 10-1.414 1.414L367.586 83l-5.657 5.657a1 1 0 101.414 1.414l6.364-6.364zM245 84h62v-2h-62v2zm62 0h62v-2h-62v2z" fill="#16013E"/><path d="M484.707 83.706a1 1 0 000-1.414l-6.364-6.364a1 1 0 10-1.414 1.414L482.586 83l-5.657 5.657a1 1 0 101.414 1.414l6.364-6.364zM369 84h57.5v-2H369v2zm57.5 0H484v-2h-57.5v2z" fill="#16013E"/><path d="M597.667 82.999a5.333 5.333 0 1010.666 0 5.333 5.333 0 10-10.666 0zm-113.667 1h59.5v-2H484v2zm59.5 0H603v-2h-59.5v2z" fill="#16013E"/><path d="M155.978 49.415l.426.263-.426-.263zm-1.465 1.699a.5.5 0 00.602.372l4.379-1.035a.5.5 0 00-.23-.974l-3.892.92-.921-3.892a.499.499 0 10-.973.23l1.035 4.379zm71.12-8.192a.5.5 0 00.734-.68l-.734.68zm-11.557-10.048a.5.5 0 00-.459.889l.459-.889zm-9.666-2.599a.5.5 0 10.245-.97l-.245.97zm-30.057 1.988a.5.5 0 00.429.904l-.429-.904zm-7.93 6.106a.5.5 0 00-.622-.784l.622.784zM155.184 49.75a.5.5 0 10.851.526l-.851-.526zm.611.914a.5.5 0 00-.851-.525l.851.525zm70.572-8.423c-3.664-3.949-7.831-7.065-12.291-9.367l-.459.889a43.725 43.725 0 0112.016 9.159l.734-.68zm-21.712-12.935a45.094 45.094 0 00-30.302 2.957l.429.904a44.093 44.093 0 0129.628-2.892l.245-.97zm-38.854 8.28c-3.931 3.12-7.417 6.983-10.248 11.566l.851.526a43.71 43.71 0 0110.019-11.31l-.622-.783zm-10.248 11.566l-.369.598.851.526.369-.598-.851-.526zm-.609.987l-.369.597.85.526.37-.598-.851-.525zm1.034-.724l.851.526-.851-.526zm-1.951 1.814a1 1 0 001.203.743l8.759-2.07a1 1 0 00-.46-1.946l-7.786 1.84-1.84-7.786a1 1 0 00-1.946.46l2.07 8.759zm71.24-7.967a1 1 0 101.466-1.36l-1.466 1.36zM214.305 32.43a1 1 0 10-.917 1.777l.917-1.777zm-10.018-1.67a1 1 0 00.491-1.939l-.491 1.939zm-30.148 1.051a1 1 0 10.857 1.808l-.857-1.808zm-7.406 6.95a1 1 0 10-1.243-1.567l1.243 1.566zm-11.975 10.726a1 1 0 001.702 1.051l-1.702-1.05zm1.462 1.44a1 1 0 10-1.702-1.051l1.702 1.05zm70.513-9.026c-3.703-3.992-7.917-7.143-12.428-9.471l-.917 1.777c4.307 2.223 8.335 5.234 11.879 9.055l1.466-1.36zm-21.955-13.08a45.594 45.594 0 00-30.639 2.99l.857 1.808a43.593 43.593 0 0129.291-2.859l.491-1.939zm-39.288 8.373c-3.976 3.156-7.501 7.063-10.362 11.696l1.701 1.05c2.739-4.433 6.108-8.166 9.904-11.18l-1.243-1.566zM155.128 48.89l-.37.597 1.702 1.051.369-.597-1.701-1.051zm-.61.986l-.369.598 1.702 1.05.369-.597-1.702-1.051zm-124.54-.461l.426.263-.426-.263zm-1.465 1.699a.5.5 0 00.602.372l4.38-1.035a.5.5 0 10-.23-.974l-3.893.92-.92-3.892a.5.5 0 10-.974.23l1.035 4.379zm71.12-8.192a.5.5 0 00.734-.68l-.734.68zM88.076 32.873a.5.5 0 00-.459.889l.459-.889zm-9.666-2.599a.5.5 0 00.245-.97l-.245.97zm-30.057 1.988a.5.5 0 00.429.904l-.429-.904zm-7.93 6.106a.5.5 0 10-.622-.784l.622.784zM29.183 49.75a.5.5 0 00.852.526l-.851-.526zm.612.914a.5.5 0 10-.851-.525l.85.525zm70.572-8.423c-3.664-3.949-7.831-7.065-12.291-9.367l-.459.889a43.725 43.725 0 0112.016 9.159l.734-.68zM78.655 29.306a45.094 45.094 0 00-30.302 2.957l.429.904a44.094 44.094 0 0129.628-2.892l.245-.97zm-38.854 8.28c-3.931 3.12-7.417 6.983-10.248 11.566l.85.526c2.77-4.484 6.179-8.26 10.02-11.31l-.622-.783zM29.553 49.151l-.37.598.852.526.369-.598-.851-.526zm-.61.987l-.368.597.85.526.37-.598-.851-.525zm1.035-.724l.851.526-.85-.526zm-1.951 1.814a1 1 0 001.203.743l8.759-2.07a1 1 0 10-.46-1.946l-7.786 1.84-1.84-7.786a1 1 0 00-1.946.46l2.07 8.759zm71.24-7.967a1 1 0 101.466-1.36l-1.466 1.36zM88.305 32.43a1 1 0 10-.917 1.777l.917-1.777zm-10.018-1.67a1 1 0 00.491-1.939l-.49 1.939zM48.14 31.811a1 1 0 10.857 1.808l-.857-1.808zm-7.406 6.95a1 1 0 00-1.243-1.567l1.243 1.566zM28.758 49.486a1 1 0 001.702 1.051l-1.702-1.05zm1.462 1.44a1 1 0 10-1.702-1.051l1.702 1.05zm70.513-9.026c-3.703-3.992-7.917-7.143-12.428-9.471l-.917 1.777c4.307 2.223 8.335 5.234 11.879 9.055l1.466-1.36zM78.778 28.82a45.594 45.594 0 00-30.639 2.99l.857 1.808a43.593 43.593 0 0129.291-2.859l.491-1.939zM39.49 37.194c-3.976 3.156-7.501 7.063-10.363 11.696l1.702 1.05c2.739-4.433 6.108-8.166 9.904-11.18l-1.243-1.566zM29.127 48.89l-.369.597 1.702 1.051.37-.597-1.702-1.051zm-.609.986l-.369.598 1.702 1.05.369-.597-1.702-1.051zm358.46-.461l.426.263-.426-.263zm-1.465 1.699a.5.5 0 00.602.372l4.379-1.035a.5.5 0 00-.23-.974l-3.892.92-.921-3.892a.499.499 0 10-.973.23l1.035 4.379zm71.12-8.192a.5.5 0 00.734-.68l-.734.68zm-11.557-10.048a.5.5 0 00-.459.889l.459-.889zm-9.666-2.599a.5.5 0 10.245-.97l-.245.97zm-30.057 1.988a.5.5 0 00.429.904l-.429-.904zm-7.93 6.106a.5.5 0 00-.622-.784l.622.784zM386.184 49.75a.5.5 0 10.851.526l-.851-.526zm.611.914a.5.5 0 00-.851-.525l.851.525zm70.572-8.423c-3.664-3.949-7.831-7.065-12.291-9.367l-.459.889a43.725 43.725 0 0112.016 9.159l.734-.68zm-21.712-12.935a45.094 45.094 0 00-30.302 2.957l.429.904a44.093 44.093 0 0129.628-2.892l.245-.97zm-38.854 8.28c-3.931 3.12-7.417 6.983-10.248 11.566l.851.526a43.71 43.71 0 0110.019-11.31l-.622-.783zm-10.248 11.566l-.369.598.851.526.369-.598-.851-.526zm-.609.987l-.369.597.85.526.37-.598-.851-.525zm1.034-.724l.851.526-.851-.526zm-1.951 1.814a1 1 0 001.203.743l8.759-2.07a1 1 0 00-.46-1.946l-7.786 1.84-1.84-7.786a1 1 0 00-1.946.46l2.07 8.759zm71.24-7.967a1 1 0 101.466-1.36l-1.466 1.36zM445.305 32.43a1 1 0 10-.917 1.777l.917-1.777zm-10.018-1.67a1 1 0 00.491-1.939l-.491 1.939zm-30.148 1.051a1 1 0 10.857 1.808l-.857-1.808zm-7.406 6.95a1 1 0 10-1.243-1.567l1.243 1.566zm-11.975 10.726a1 1 0 001.702 1.051l-1.702-1.05zm1.462 1.44a1 1 0 10-1.702-1.051l1.702 1.05zm70.513-9.026c-3.703-3.992-7.917-7.143-12.428-9.471l-.917 1.777c4.307 2.223 8.335 5.234 11.879 9.055l1.466-1.36zm-21.955-13.08a45.594 45.594 0 00-30.639 2.99l.857 1.808a43.593 43.593 0 0129.291-2.859l.491-1.939zm-39.288 8.373c-3.976 3.156-7.501 7.063-10.362 11.696l1.701 1.05c2.739-4.433 6.108-8.166 9.904-11.18l-1.243-1.566zM386.128 48.89l-.37.597 1.702 1.051.369-.597-1.701-1.051zm-.61.986l-.369.598 1.702 1.05.369-.597-1.702-1.051zm-112.54-.461l.426.263-.426-.263zm-1.465 1.699a.5.5 0 00.602.372l4.379-1.035a.5.5 0 00-.23-.974l-3.892.92-.921-3.892a.499.499 0 10-.973.23l1.035 4.379zm71.12-8.192a.5.5 0 00.734-.68l-.734.68zm-11.557-10.048a.5.5 0 00-.459.889l.459-.889zm-9.666-2.599a.5.5 0 10.245-.97l-.245.97zm-30.057 1.988a.5.5 0 00.429.904l-.429-.904zm-7.93 6.106a.5.5 0 00-.622-.784l.622.784zM272.184 49.75a.5.5 0 10.851.526l-.851-.526zm.611.914a.5.5 0 00-.851-.525l.851.525zm70.572-8.423c-3.664-3.949-7.831-7.065-12.291-9.367l-.459.889a43.725 43.725 0 0112.016 9.159l.734-.68zm-21.712-12.935a45.094 45.094 0 00-30.302 2.957l.429.904a44.093 44.093 0 0129.628-2.892l.245-.97zm-38.854 8.28c-3.931 3.12-7.417 6.983-10.248 11.566l.851.526a43.71 43.71 0 0110.019-11.31l-.622-.783zm-10.248 11.566l-.369.598.851.526.369-.598-.851-.526zm-.609.987l-.369.597.85.526.37-.598-.851-.525zm1.034-.724l.851.526-.851-.526zm-1.951 1.814a1 1 0 001.203.743l8.759-2.07a1 1 0 00-.46-1.946l-7.786 1.84-1.84-7.786a1 1 0 00-1.946.46l2.07 8.759zm71.24-7.967a1 1 0 101.466-1.36l-1.466 1.36zM331.305 32.43a1 1 0 10-.917 1.777l.917-1.777zm-10.018-1.67a1 1 0 00.491-1.939l-.491 1.939zm-30.148 1.051a1 1 0 10.857 1.808l-.857-1.808zm-7.406 6.95a1 1 0 10-1.243-1.567l1.243 1.566zm-11.975 10.726a1 1 0 001.702 1.051l-1.702-1.05zm1.462 1.44a1 1 0 10-1.702-1.051l1.702 1.05zm70.513-9.026c-3.703-3.992-7.917-7.143-12.428-9.471l-.917 1.777c4.307 2.223 8.335 5.234 11.879 9.055l1.466-1.36zm-21.955-13.08a45.594 45.594 0 00-30.639 2.99l.857 1.808a43.593 43.593 0 0129.291-2.859l.491-1.939zm-39.288 8.373c-3.976 3.156-7.501 7.063-10.362 11.696l1.701 1.05c2.739-4.433 6.108-8.166 9.904-11.18l-1.243-1.566zM272.128 48.89l-.37.597 1.702 1.051.369-.597-1.701-1.051zm-.61.986l-.369.598 1.702 1.05.369-.597-1.702-1.051zm232.46-.461l.426.263-.426-.263zm-1.465 1.699a.5.5 0 00.602.372l4.379-1.035a.5.5 0 00-.23-.974l-3.892.92-.921-3.892a.499.499 0 10-.973.23l1.035 4.379zm71.12-8.192a.5.5 0 00.734-.68l-.734.68zm-11.557-10.048a.5.5 0 00-.459.889l.459-.889zm-9.666-2.599a.5.5 0 10.245-.97l-.245.97zm-30.057 1.988a.5.5 0 00.429.904l-.429-.904zm-7.93 6.106a.5.5 0 00-.622-.784l.622.784zM503.184 49.75a.5.5 0 10.851.526l-.851-.526zm.611.914a.5.5 0 00-.851-.525l.851.525zm70.572-8.423c-3.664-3.949-7.831-7.065-12.291-9.367l-.459.889a43.725 43.725 0 0112.016 9.159l.734-.68zm-21.712-12.935a45.094 45.094 0 00-30.302 2.957l.429.904a44.093 44.093 0 0129.628-2.892l.245-.97zm-38.854 8.28c-3.931 3.12-7.417 6.983-10.248 11.566l.851.526a43.71 43.71 0 0110.019-11.31l-.622-.783zm-10.248 11.566l-.369.598.851.526.369-.598-.851-.526zm-.609.987l-.369.597.85.526.37-.598-.851-.525zm1.034-.724l.851.526-.851-.526zm-1.951 1.814a1 1 0 001.203.743l8.759-2.07a1 1 0 00-.46-1.946l-7.786 1.84-1.84-7.786a1 1 0 00-1.946.46l2.07 8.759zm71.24-7.967a1 1 0 101.466-1.36l-1.466 1.36zM562.305 32.43a1 1 0 10-.917 1.777l.917-1.777zm-10.018-1.67a1 1 0 00.491-1.939l-.491 1.939zm-30.148 1.051a1 1 0 10.857 1.808l-.857-1.808zm-7.406 6.95a1 1 0 10-1.243-1.567l1.243 1.566zm-11.975 10.726a1 1 0 001.702 1.051l-1.702-1.05zm1.462 1.44a1 1 0 10-1.702-1.051l1.702 1.05zm70.513-9.026c-3.703-3.992-7.917-7.143-12.428-9.471l-.917 1.777c4.307 2.223 8.335 5.234 11.879 9.055l1.466-1.36zm-21.955-13.08a45.594 45.594 0 00-30.639 2.99l.857 1.808a43.593 43.593 0 0129.291-2.859l.491-1.939zm-39.288 8.373c-3.976 3.156-7.501 7.063-10.362 11.696l1.701 1.05c2.739-4.433 6.108-8.166 9.904-11.18l-1.243-1.566zM503.128 48.89l-.37.597 1.702 1.051.369-.597-1.701-1.051zm-.61.986l-.369.598 1.702 1.05.369-.597-1.702-1.051z" fill="#BDBDBD"/></svg>