<svg width="81" height="54" fill="none" xmlns="http://www.w3.org/2000/svg"><path d="M2.889 52.874a2.5 2.5 0 01.71-4.95l-.71 4.95zm37.72-45.2L38.84 9.44l1.77-1.766zM15.845 27.063l-1.94 1.578 1.94-1.578zm61.99-19.535a2.5 2.5 0 012.495 2.505l-.04 22.5a2.5 2.5 0 11-5-.01l.035-20-20-.035a2.5 2.5 0 01.01-5l22.5.04zm-44.318 34.32l1.772 1.764-1.772-1.764zM3.6 47.925c.672.096 1.382.172 2.125.225l-.355 4.987a35.019 35.019 0 01-2.48-.263l.71-4.95zm3.855.305c1.39.03 2.858-.015 4.364-.144l.427 4.982c-1.68.144-3.326.195-4.9.16l.11-4.998zm6.108-.329a42.655 42.655 0 004.31-.77L19.005 52a47.43 47.43 0 01-4.816.86l-.628-4.96zm6-1.203a35.9 35.9 0 004.097-1.409l1.917 4.618a40.887 40.887 0 01-4.668 1.607l-1.346-4.816zm5.664-2.11a26.45 26.45 0 003.66-2.121l2.86 4.102a31.454 31.454 0 01-4.352 2.525l-2.168-4.506zm4.992-3.124a19.819 19.819 0 001.526-1.38l3.544 3.528a24.848 24.848 0 01-1.91 1.727l-3.16-3.875zm1.526-1.38a67.772 67.772 0 001.567-1.625l3.658 3.41a74.04 74.04 0 01-1.68 1.743l-3.545-3.528zm2.774-2.957a53.7 53.7 0 002.815-3.468l4.015 2.98a58.74 58.74 0 01-3.076 3.791l-3.754-3.303zm3.844-4.911a36.398 36.398 0 002.254-3.744l4.438 2.303a41.377 41.377 0 01-2.563 4.26l-4.13-2.82zm3.002-5.295a22.451 22.451 0 001.365-3.972l4.867 1.148a27.45 27.45 0 01-1.664 4.859l-4.568-2.035zm1.668-5.579c.19-1.366.197-2.687.015-3.961l4.95-.707c.254 1.777.235 3.57-.013 5.356l-4.952-.688zm-.3-5.487a13.045 13.045 0 00-1.592-3.572l4.223-2.677a18.043 18.043 0 012.193 4.935l-4.824 1.314zm-2.525-4.883A17.893 17.893 0 0038.84 9.44l3.54-3.532c.634.637 1.217 1.29 1.747 1.96l-3.92 3.104zM38.84 9.44c-.53-.53-1.07-1.006-1.616-1.43l3.064-3.95a22.008 22.008 0 012.092 1.848L38.84 9.44zm-3.01-2.393a13.778 13.778 0 00-3.832-1.622L33.22.577a18.777 18.777 0 015.218 2.204L35.83 7.047zM30.367 5.12c-1.399-.172-2.8-.12-4.16.127L25.31.33a18.808 18.808 0 015.666-.17l-.61 4.962zm-5.798.524a15.132 15.132 0 00-3.824 1.783l-2.723-4.194A20.13 20.13 0 0123.114.862l1.455 4.784zm-5.188 2.782a13.89 13.89 0 00-2.792 3.09l-4.182-2.741a18.89 18.89 0 013.795-4.209l3.179 3.86zm-3.6 4.518a10.905 10.905 0 00-1.056 3.85l-4.984-.399a15.905 15.905 0 011.532-5.613l4.509 2.162zm-1.06 5.437c.092 1.248.414 2.55 1.026 3.883l-4.544 2.085c-.854-1.858-1.332-3.741-1.469-5.6l4.986-.368zm1.815 5.354c.355.577.769 1.162 1.247 1.749l-3.879 3.156a21.326 21.326 0 01-1.627-2.286l4.259-2.62zm1.247 1.749c.486.598.976 1.158 1.468 1.683l-3.648 3.42a36.872 36.872 0 01-1.699-1.947l3.879-3.156zm2.715 2.934a23.486 23.486 0 003.394 2.67l-2.702 4.207a28.473 28.473 0 01-4.118-3.235l3.426-3.642zm4.862 3.53a18.746 18.746 0 003.923 1.549l-1.298 4.829a23.744 23.744 0 01-4.966-1.96l2.341-4.419zm5.571 1.913c1.391.241 2.808.327 4.245.271l.193 4.997a25.18 25.18 0 01-5.294-.342l.856-4.926zm5.97.14a27.703 27.703 0 004.304-.855l1.342 4.817a32.693 32.693 0 01-5.082 1.005L36.901 34zm6.009-1.38a40.79 40.79 0 004.185-1.685l2.11 4.533a45.806 45.806 0 01-4.7 1.89l-1.595-4.738zm5.825-2.487a58.9 58.9 0 004.003-2.256l2.616 4.26a63.863 63.863 0 01-4.343 2.448l-2.276-4.452zM54.3 26.89a81.8 81.8 0 003.82-2.65l2.962 4.028a86.822 86.822 0 01-4.053 2.812L54.3 26.89zm5.313-3.772c1.25-.957 2.47-1.94 3.656-2.931l3.207 3.836a115.114 115.114 0 01-3.822 3.064l-3.04-3.97zm5.09-4.148c1.217-1.05 2.393-2.1 3.519-3.135l3.382 3.682a152.923 152.923 0 01-3.638 3.241l-3.264-3.788zm4.903-4.42a221.67 221.67 0 003.42-3.284l3.498 3.572a227.606 227.606 0 01-3.496 3.358l-3.422-3.646zm4.776-4.62c.59-.584 1.15-1.143 1.682-1.673l3.53 3.542c-.532.53-1.098 1.094-1.694 1.684L74.381 9.93z" fill="url(#paint0_linear_2096_665)"/><defs><linearGradient id="paint0_linear_2096_665" x1="-41.738" y1="44.85" x2="-26.862" y2="-30.977" gradientUnits="userSpaceOnUse"><stop stop-color="#55F222"/><stop offset=".32" stop-color="#00FFF6"/><stop offset=".665" stop-color="#E88AFF"/><stop offset="1" stop-color="#FFD719"/></linearGradient></defs></svg>