<svg width="75" height="12" fill="none" xmlns="http://www.w3.org/2000/svg"><path d="M3.945 3.958l-3.478.507-.062.013a.544.544 0 00-.387.392.552.552 0 00.147.532l2.52 2.469-.594 3.487-.007.06a.552.552 0 00.249.494.542.542 0 00.549.025l3.11-1.647 3.104 1.647.055.025a.542.542 0 00.71-.318.552.552 0 00.027-.286l-.595-3.487 2.521-2.47.043-.046a.55.55 0 00-.345-.889l-3.479-.508L6.478.786A.548.548 0 005.99.48a.543.543 0 00-.49.306L3.945 3.958zm15.755 0l-3.478.507-.061.013a.544.544 0 00-.388.392.552.552 0 00.148.532l2.52 2.469-.595 3.487-.007.06a.552.552 0 00.249.494.542.542 0 00.55.025l3.11-1.647 3.104 1.647.054.025a.542.542 0 00.71-.318.552.552 0 00.027-.286l-.594-3.487 2.52-2.47.043-.046a.551.551 0 00-.345-.889l-3.478-.508L22.234.786a.548.548 0 00-.49-.306.543.543 0 00-.488.306L19.7 3.958zm15.756 0l-3.478.507-.062.013a.544.544 0 00-.388.392.554.554 0 00.148.532l2.52 2.469-.594 3.487-.007.06a.552.552 0 00.248.494.542.542 0 00.55.025l3.11-1.647 3.104 1.647.055.025a.542.542 0 00.71-.318.552.552 0 00.027-.286l-.595-3.487 2.52-2.47.043-.046a.55.55 0 00-.345-.889l-3.478-.508L37.989.786A.548.548 0 0037.5.48a.542.542 0 00-.489.306l-1.555 3.172zm15.755 0l-3.478.507-.062.013a.544.544 0 00-.387.392.553.553 0 00.148.532l2.52 2.469-.595 3.487-.007.06a.552.552 0 00.249.494.542.542 0 00.55.025l3.11-1.647 3.103 1.647.055.025a.542.542 0 00.71-.318.553.553 0 00.027-.286l-.595-3.487L59.08 5.4l.043-.046a.55.55 0 00-.345-.889l-3.479-.508L53.745.786a.547.547 0 00-.49-.306.543.543 0 00-.488.306L51.21 3.958z" fill="#FC0"/><mask id="a" fill="#fff"><path d="M66.967 3.958l-3.479.507-.061.013a.544.544 0 00-.388.392.552.552 0 00.148.532l2.52 2.469-.595 3.487-.007.06a.55.55 0 00.52.581.542.542 0 00.278-.062l3.111-1.647 3.104 1.647.054.025a.542.542 0 00.71-.318.553.553 0 00.027-.286l-.594-3.487 2.52-2.47.043-.046a.551.551 0 00-.345-.889l-3.478-.508L69.5.786a.548.548 0 00-.49-.306.543.543 0 00-.488.306l-1.555 3.172z"/></mask><path d="M66.967 3.958l-3.479.507-.061.013a.544.544 0 00-.388.392.552.552 0 00.148.532l2.52 2.469-.595 3.487-.007.06a.55.55 0 00.52.581.542.542 0 00.278-.062l3.111-1.647 3.104 1.647.054.025a.542.542 0 00.71-.318.553.553 0 00.027-.286l-.594-3.487 2.52-2.47.043-.046a.551.551 0 00-.345-.889l-3.478-.508L69.5.786a.548.548 0 00-.49-.306.543.543 0 00-.488.306l-1.555 3.172z" fill="#F4F8F9"/><path d="M66.967 3.958l.288 1.979 1.043-.152.464-.947-1.795-.88zm-3.479.507L63.2 2.486l-.057.009-.056.011.401 1.96zm-.061.013l-.402-1.96-.057.013-.058.015.517 1.932zm-.24.924l1.4-1.428-.002-.002-1.398 1.43zm2.52 2.469l1.971.336.176-1.032-.748-.733-1.4 1.429zm-.595 3.487l-1.971-.336-.009.051-.006.052 1.986.233zm-.007.06l-1.986-.233-.007.058-.003.058 1.996.117zm.798.519l-.935-1.768.935 1.768zm3.111-1.647l.937-1.767-.936-.496-.936.496.935 1.767zm3.104 1.647l-.937 1.766.047.026.05.022.84-1.814zm.054.025l-.84 1.815.051.023.052.021.737-1.86zm.737-.604l-1.971.336v.001l1.971-.337zm-.594-3.487l-1.4-1.429-.748.733.176 1.032 1.972-.336zm2.52-2.47l1.4 1.43.04-.04.038-.042-1.478-1.347zm.043-.046l1.478 1.347.04-.044.039-.047-1.557-1.256zm-.345-.889l-.29 1.979h.002l.288-1.979zm-3.478-.508l-1.796.88.464.947 1.043.152.289-1.98zM69.5.786l-1.796.88L69.5.787zM69.01.48v-2 2zm-.488.306l1.796.88-1.796-.88zM66.678 1.98l-3.478.507.577 3.958 3.478-.507-.577-3.958zm-3.591.527l-.062.013.803 3.918.062-.012-.803-3.919zm-.177.04a2.544 2.544 0 00-1.151.668l2.843 2.814c-.18.183-.408.315-.659.382l-1.032-3.864zm-1.151.668c-.317.32-.543.719-.656 1.153l3.872 1.005a1.45 1.45 0 01-.373.656l-2.843-2.814zm-.656 1.153c-.112.435-.109.891.011 1.324l3.855-1.07c.068.246.07.505.006.751l-3.872-1.005zm.011 1.324c.12.432.353.827.675 1.142l2.796-2.861c.184.18.316.404.384.65L61.114 5.69zm.673 1.14l2.52 2.469 2.8-2.858-2.52-2.468-2.8 2.857zm1.948.704l-.594 3.487 3.943.672.594-3.487-3.943-.672zm-.609 3.59l-.007.06 3.973.467.007-.06-3.973-.467zm-.017.176c-.027.449.066.896.268 1.298l3.572-1.8c.115.229.168.483.153.737l-3.993-.235zm.268 1.298c.203.402.509.745.888.99l2.178-3.354c.217.14.391.336.506.564l-3.572 1.8zm.888.99c.38.247.819.388 1.272.408l.177-3.996c.26.012.512.093.729.234l-2.178 3.355zm1.272.408c.453.02.903-.081 1.303-.293l-1.873-3.535c.23-.121.487-.18.747-.168l-.177 3.996zm1.302-.293l3.11-1.646-1.87-3.535-3.111 1.646 1.871 3.535zm1.238-1.647l3.104 1.646 1.874-3.533-3.104-1.647-1.874 3.534zm3.2 1.694l.055.026 1.68-3.63-.054-.025-1.68 3.63zm.158.07c.422.167.88.219 1.33.149l-.618-3.953c.258-.04.52-.01.762.086l-1.474 3.718zm1.33.149c.448-.07.868-.26 1.218-.546L71.45 10.33c.2-.164.44-.272.698-.313l.617 3.953zm1.218-.546c.35-.286.617-.66.774-1.082l-3.749-1.396c.09-.24.241-.453.441-.616l2.534 3.094zm.774-1.082c.157-.422.2-.878.124-1.32l-3.943.673a1.447 1.447 0 01.07-.75l3.749 1.397zm.124-1.32l-.595-3.487-3.943.672.595 3.487 3.943-.672zM73.714 9.3l2.521-2.47-2.799-2.857-2.52 2.47L73.713 9.3zm2.6-2.551l.042-.047L73.4 4.008l-.042.046 2.956 2.695zm.12-.138A2.55 2.55 0 0076.97 5.4l-3.953-.613c.039-.25.144-.488.304-.688l3.114 2.512zM76.97 5.4a2.54 2.54 0 00-.143-1.314l-3.729 1.447a1.448 1.448 0 01-.08-.746l3.952.613zm-.143-1.314a2.549 2.549 0 00-.785-1.069l-2.497 3.125a1.451 1.451 0 01-.447-.609l3.73-1.447zm-.785-1.069a2.543 2.543 0 00-1.22-.53l-.578 3.958a1.457 1.457 0 01-.699-.303l2.497-3.125zm-1.22-.53l-3.478-.508-.578 3.958 3.478.508.578-3.958zm-1.971.59l-1.555-3.17-3.592 1.76 1.555 3.172 3.592-1.76zm-1.555-3.17a2.547 2.547 0 00-.936-1.04l-2.123 3.39a1.452 1.452 0 01-.533-.591l3.592-1.76zm-.936-1.04a2.543 2.543 0 00-1.35-.387v4a1.46 1.46 0 01-.773-.222l2.123-3.39zm-1.35-.387a2.54 2.54 0 00-1.348.388l2.122 3.39a1.457 1.457 0 01-.773.222v-4zm-1.348.388a2.547 2.547 0 00-.936 1.039l3.592 1.759a1.453 1.453 0 01-.534.592l-2.122-3.39zm-.936 1.038l-1.555 3.171 3.591 1.761 1.556-3.171-3.592-1.761z" fill="#FC0" mask="url(#a)"/><mask id="b" style="mask-type:alpha" maskUnits="userSpaceOnUse" x="62" y="0" width="7" height="12"><path fill="#D9D9D9" d="M62.321 0h6.61v12h-6.61z"/></mask><g mask="url(#b)"><path d="M66.791 3.958l-3.478.507-.062.013a.544.544 0 00-.387.392.552.552 0 00.148.532l2.52 2.469-.595 3.487-.007.06a.55.55 0 00.52.581.542.542 0 00.278-.062l3.11-1.647 3.105 1.647.054.025a.542.542 0 00.71-.318.553.553 0 00.027-.286l-.595-3.487L74.66 5.4l.043-.046a.551.551 0 00-.345-.889l-3.479-.508L69.325.786a.548.548 0 00-.49-.306.543.543 0 00-.488.306L66.79 3.958z" fill="#FC0"/></g></svg>