<svg width="159" height="24" fill="none" xmlns="http://www.w3.org/2000/svg"><path d="M8.356 7.246L.989 8.303l-.13.026a1.158 1.158 0 00-.821.816 1.132 1.132 0 00.312 1.11l5.337 5.143-1.258 7.265-.015.126a1.134 1.134 0 00.527 1.028 1.162 1.162 0 001.163.05l6.59-3.429 6.573 3.43.115.053a1.166 1.166 0 001.152-.177 1.144 1.144 0 00.41-1.081l-1.26-7.265 5.34-5.145.09-.097a1.137 1.137 0 00-.732-1.852l-7.367-1.058L13.722.638A1.148 1.148 0 0012.686 0a1.164 1.164 0 00-1.036.638L8.356 7.246zm33.371 0L34.36 8.303l-.13.026a1.157 1.157 0 00-.821.816 1.133 1.133 0 00.313 1.11l5.337 5.143-1.26 7.265-.014.126a1.133 1.133 0 00.527 1.028 1.163 1.163 0 001.163.05l6.59-3.429 6.573 3.43.115.053a1.166 1.166 0 001.152-.177 1.144 1.144 0 00.41-1.081l-1.26-7.265 5.34-5.145.09-.097a1.137 1.137 0 00-.18-1.616 1.16 1.16 0 00-.552-.236l-7.367-1.058L47.093.638a1.163 1.163 0 00-2.072 0l-3.294 6.608zm33.371 0l-7.367 1.057-.13.026a1.157 1.157 0 00-.821.816 1.133 1.133 0 00.313 1.11l5.337 5.143-1.259 7.265-.015.126a1.133 1.133 0 00.527 1.028 1.163 1.163 0 001.163.05l6.59-3.429 6.573 3.43.115.053a1.166 1.166 0 001.152-.177 1.144 1.144 0 00.41-1.081l-1.26-7.265 5.34-5.145.09-.097a1.137 1.137 0 00-.18-1.616 1.16 1.16 0 00-.552-.236l-7.367-1.058L80.464.638a1.163 1.163 0 00-2.072 0l-3.294 6.608zm33.371 0l-7.367 1.057-.13.026a1.154 1.154 0 00-.821.816 1.128 1.128 0 00.313 1.11l5.337 5.143-1.259 7.265-.015.126c-.012.202.03.404.123.584a1.15 1.15 0 00.979.625c.204.01.407-.036.589-.13l6.588-3.43 6.574 3.43.116.053a1.164 1.164 0 001.152-.177c.158-.128.28-.296.352-.486a1.13 1.13 0 00.057-.595l-1.26-7.265 5.339-5.145.09-.097a1.14 1.14 0 00.18-1.136 1.15 1.15 0 00-.91-.716l-7.368-1.058-3.293-6.608a1.162 1.162 0 00-2.071 0l-3.295 6.608z" fill="#FC0"/><path d="M141.982 8.235l.519-.074.234-.47 3.295-6.607h0a.15.15 0 01.055-.06.165.165 0 01.171 0 .143.143 0 01.055.06h0l3.294 6.608.233.469.519.074 7.367 1.06h.001a.157.157 0 01.076.031.138.138 0 01.033.183l-.041.044-5.319 5.125-.382.368.091.523 1.26 7.265h0a.139.139 0 01-.052.13l.628.78-.628-.78a.16.16 0 01-.076.034.168.168 0 01-.071-.004l-.054-.025-6.55-3.417-.462-.241-.462.24-6.589 3.43h0a.165.165 0 01-.164-.007.146.146 0 01-.052-.057l-.879.45.879-.45a.132.132 0 01-.015-.054l.007-.055 1.254-7.24.091-.522-.382-.368-5.337-5.144h-.001a.148.148 0 01-.039-.064.138.138 0 01.037-.133.151.151 0 01.056-.036l.061-.012 7.339-1.054z" fill="#fff" stroke="#FC0" stroke-width="2"/></svg>