<svg width="202" height="64" fill="none" xmlns="http://www.w3.org/2000/svg"><mask id="a" maskUnits="userSpaceOnUse" x=".271" y="2.123" width="107" height="13" fill="#000"><path fill="#fff" d="M.271 2.123h107v13h-107z"/><path d="M2.712 5.112c.01.192.016.485.016.88.01.416.027.795.048 1.136.021.341.059.667.112.976.181 1.013.56 1.616 1.136 1.808.31.107.555.123.736.048.384-.17.693-.475.928-.912.235-.448.475-1.056.72-1.824.17-.544.304-1.024.4-1.44a4.6 4.6 0 00.048-.336.142.142 0 00.016-.064v-.048c.01-.01.016-.027.016-.048l.032-.112a.668.668 0 01.176-.24.677.677 0 01.496-.208c.213 0 .395.08.544.24.235.277.357.65.368 1.12a6.2 6.2 0 01-.016.4c0 .16.01.245.032.256.107.8.24 1.477.4 2.032.16.544.405 1.072.736 1.584a.7.7 0 01.096.544.686.686 0 01-.32.448.703.703 0 01-.544.096.686.686 0 01-.448-.32 8.076 8.076 0 01-1.024-2.4c-.501 1.312-1.195 2.16-2.08 2.544-.512.224-1.099.23-1.76.016-1.12-.384-1.824-1.365-2.112-2.944a14.04 14.04 0 01-.128-1.088 44.62 44.62 0 01-.048-1.248c0-.448-.005-.725-.016-.832a.711.711 0 01.672-.752.693.693 0 01.528.192c.15.128.23.293.24.496zm13.562.096a3.136 3.136 0 01-.208-.192l-.16-.16a.563.563 0 00-.16-.128c-.192-.096-.454-.15-.784-.16-.32-.01-.656.027-1.008.112-.662.17-1.019.459-1.072.864l.112.032c.117.021.25.037.4.048h1.28c.939.021 1.675.181 2.208.48.821.47 1.258 1.248 1.312 2.336.032.075.043.299.032.672-.01.373-.09.688-.24.944-.459.768-1.37 1.237-2.736 1.408a5.508 5.508 0 01-1.568 0c-.544-.064-.992-.197-1.344-.4a3.522 3.522 0 01-.464-.288 3.52 3.52 0 01-.352-.336c-.096-.128-.17-.23-.224-.304a3.407 3.407 0 01-.208-.352 6.405 6.405 0 00-.208-.352.703.703 0 01-.096-.544.686.686 0 01.32-.448.703.703 0 01.544-.096.69.69 0 01.448.32l.224.384.176.288c.032.043.075.101.128.176a.552.552 0 00.176.144l.24.16c.192.107.464.181.816.224.362.043.768.043 1.216 0 .437-.053.8-.144 1.088-.272.299-.139.49-.288.576-.448.032-.053.037-.325.016-.816-.032-.565-.224-.95-.576-1.152-.31-.17-.822-.267-1.536-.288h-.592c-.299 0-.555-.005-.768-.016-.213-.01-.4-.032-.56-.064-.405-.075-.715-.224-.928-.448-.288-.31-.405-.699-.352-1.168.075-.555.315-1.003.72-1.344a3.43 3.43 0 011.424-.736 4.527 4.527 0 011.44-.16c.523.021.965.117 1.328.288.181.085.368.224.56.416l.288.288c.15.128.23.293.24.496a.647.647 0 01-.16.512.73.73 0 01-.496.256.7.7 0 01-.512-.176zm4.18 2.48c-.224.555-.224 1.03 0 1.424.31.533.992.901 2.048 1.104a9.4 9.4 0 001.168.112c.49.021.864.016 1.12-.016.864-.15 1.83-.613 2.896-1.392a.673.673 0 01.528-.128.654.654 0 01.48.272.7.7 0 01.128.544.642.642 0 01-.272.464c-1.248.917-2.416 1.467-3.504 1.648-.406.053-.886.07-1.44.048a8.57 8.57 0 01-1.36-.144c-1.494-.277-2.507-.875-3.04-1.792-.49-.864-.496-1.819-.016-2.864.416-.917 1.114-1.696 2.096-2.336.97-.64 2.01-.95 3.12-.928.277 0 .485.005.624.016.138.01.341.037.608.08.266.043.512.123.736.24.224.107.442.25.656.432.394.352.592.827.592 1.424 0 .715-.39 1.264-1.168 1.648-.49.256-1.152.432-1.984.528-.79.064-1.478.09-2.064.08a11.9 11.9 0 01-1.424-.096.733.733 0 01-.528-.368zm.72-1.072c.32.053.741.085 1.264.096.533.01 1.152-.016 1.856-.08.672-.075 1.178-.197 1.52-.368.245-.117.368-.24.368-.368 0-.16-.038-.272-.112-.336a1.309 1.309 0 00-.656-.32c-.235-.053-.582-.085-1.04-.096a3.855 3.855 0 00-1.76.4 4.52 4.52 0 00-1.472 1.072h.032zm9.84.752c-.086-.63-.3-1.605-.64-2.928a.744.744 0 01.08-.544.686.686 0 01.447-.32.655.655 0 01.544.08.69.69 0 01.337.432l.4 1.648c.586-.405 1.418-.608 2.495-.608a.7.7 0 01.513.208.7.7 0 01.208.512c0 .203-.07.373-.209.512a.696.696 0 01-.511.208c-.864 0-1.467.15-1.808.448-.15.139-.278.325-.384.56.042.49.058.96.047 1.408a10.7 10.7 0 01-.064.944c-.042.31-.1.56-.175.752-.064.17-.144.31-.24.416-.235.245-.507.33-.817.256a.816.816 0 01-.56-.464 1.39 1.39 0 01-.096-.352c-.032-.17-.042-.379-.032-.624.011-.448.06-.901.145-1.36.085-.459.192-.853.32-1.184zm13.694 2.096a.683.683 0 01.64-.064c.512.203.96.341 1.344.416a3.21 3.21 0 001.152-.016 2.469 2.469 0 001.072-.528c.298-.256.49-.576.576-.96a2.123 2.123 0 00-.064-1.152 2.508 2.508 0 00-.672-1.04 2.004 2.004 0 00-1.024-.544 3.424 3.424 0 00-.768-.016c-.331.021-.582.064-.752.128-.768.299-1.286.688-1.552 1.168-.022.672-.006 1.541.048 2.608zm-1.488-2.96c.032-.95.122-1.813.272-2.592a.653.653 0 01.288-.464.669.669 0 01.544-.112.64.64 0 01.464.304.63.63 0 01.112.528l-.096.592a5.88 5.88 0 01.896-.416c.298-.117.688-.192 1.168-.224.469-.032.853-.016 1.152.048a3.382 3.382 0 011.728.896 3.91 3.91 0 011.04 1.648c.128.427.192.853.192 1.28 0 .416-.096.837-.288 1.264a3.04 3.04 0 01-.848 1.104 4.2 4.2 0 01-1.248.736 3.66 3.66 0 01-1.344.192 6.989 6.989 0 01-1.216-.16 8.128 8.128 0 01-1.28-.416c.02.341.042.645.064.912v1.136c0 .032.005.101.016.208l.016.32c.02.16.026.277.016.352a.64.64 0 01-.08.24.68.68 0 01-.112.176.66.66 0 01-.256.192.616.616 0 01-.416.048.691.691 0 01-.48-.304 2.142 2.142 0 00-.08-.144c-.192-.416-.315-1.008-.368-1.776a33.452 33.452 0 01-.032-.848 18.524 18.524 0 00-.032-.736c0-.064-.016-.288-.048-.672a33.648 33.648 0 00-.048-.784v-.64a5.791 5.791 0 01.016-.768c.032-.213.074-.421.128-.624a3.85 3.85 0 01.16-.496zm1.424 6.576c.032.15.069.203.112.16a.799.799 0 01-.048-.08.345.345 0 00-.064-.08zm8.555-5.392c-.224.555-.224 1.03 0 1.424.31.533.992.901 2.048 1.104a9.4 9.4 0 001.168.112c.49.021.864.016 1.12-.016.864-.15 1.83-.613 2.896-1.392a.673.673 0 01.528-.128.654.654 0 01.48.272.7.7 0 01.128.544.642.642 0 01-.272.464c-1.248.917-2.416 1.467-3.504 1.648-.406.053-.886.07-1.44.048a8.57 8.57 0 01-1.36-.144c-1.494-.277-2.507-.875-3.04-1.792-.49-.864-.496-1.819-.016-2.864.416-.917 1.114-1.696 2.096-2.336.97-.64 2.01-.95 3.12-.928.277 0 .485.005.624.016.138.01.341.037.608.08.266.043.512.123.736.24.224.107.442.25.656.432.394.352.592.827.592 1.424 0 .715-.39 1.264-1.168 1.648-.49.256-1.152.432-1.984.528-.79.064-1.478.09-2.064.08a11.9 11.9 0 01-1.424-.096.733.733 0 01-.528-.368zm.72-1.072c.32.053.741.085 1.264.096.533.01 1.152-.016 1.856-.08.672-.075 1.178-.197 1.52-.368.245-.117.368-.24.368-.368 0-.16-.038-.272-.112-.336a1.309 1.309 0 00-.656-.32c-.235-.053-.582-.085-1.04-.096a3.855 3.855 0 00-1.76.4 4.52 4.52 0 00-1.472 1.072h.032zm9.839.752c-.085-.63-.298-1.605-.64-2.928a.744.744 0 01.08-.544.686.686 0 01.449-.32.655.655 0 01.544.08c.17.096.282.24.335.432l.4 1.648c.587-.405 1.42-.608 2.496-.608a.7.7 0 01.513.208.7.7 0 01.207.512.698.698 0 01-.207.512.696.696 0 01-.513.208c-.864 0-1.466.15-1.807.448-.15.139-.278.325-.384.56.042.49.058.96.047 1.408a10.7 10.7 0 01-.064.944c-.042.31-.1.56-.175.752-.064.17-.145.31-.24.416-.235.245-.507.33-.817.256a.816.816 0 01-.56-.464 1.39 1.39 0 01-.095-.352 2.789 2.789 0 01-.032-.624 8.5 8.5 0 01.143-1.36c.086-.459.192-.853.32-1.184zm10.898-2.16a3.161 3.161 0 01-.208-.192l-.16-.16a.561.561 0 00-.16-.128c-.192-.096-.454-.15-.784-.16-.32-.01-.656.027-1.008.112-.662.17-1.019.459-1.072.864l.112.032c.117.021.25.037.4.048h1.28c.938.021 1.674.181 2.208.48.821.47 1.258 1.248 1.312 2.336.032.075.042.299.032.672-.01.373-.09.688-.24.944-.459.768-1.37 1.237-2.736 1.408a5.508 5.508 0 01-1.568 0c-.544-.064-.992-.197-1.344-.4a3.528 3.528 0 01-.464-.288 3.531 3.531 0 01-.352-.336c-.096-.128-.17-.23-.224-.304a3.444 3.444 0 01-.208-.352 6.34 6.34 0 00-.208-.352.703.703 0 01-.096-.544.686.686 0 01.32-.448.703.703 0 01.544-.096.69.69 0 01.448.32l.224.384.176.288.128.176a.553.553 0 00.176.144l.24.16c.192.107.464.181.816.224.362.043.768.043 1.216 0 .437-.053.8-.144 1.088-.272.298-.139.49-.288.576-.448.032-.053.037-.325.016-.816-.032-.565-.224-.95-.576-1.152-.31-.17-.822-.267-1.536-.288h-.592c-.299 0-.555-.005-.768-.016-.214-.01-.4-.032-.56-.064-.406-.075-.715-.224-.928-.448-.288-.31-.406-.699-.352-1.168.074-.555.314-1.003.72-1.344a3.43 3.43 0 011.424-.736 4.527 4.527 0 011.44-.16c.522.021.965.117 1.328.288.181.085.368.224.56.416l.288.288c.15.128.23.293.24.496a.647.647 0 01-.16.512.73.73 0 01-.496.256.701.701 0 01-.512-.176zm6.74-1.344a.695.695 0 01.672-.288c.053.01.176.027.368.048.202.021.394.048.576.08.18.021.346.053.496.096 1.12.341 1.93.928 2.432 1.76.512.821.656 1.696.432 2.624-.214.907-.731 1.648-1.552 2.224-.811.576-1.808.827-2.992.752a4.2 4.2 0 01-1.84-.528A3.5 3.5 0 0178.724 9.4a3.819 3.819 0 01-.512-1.68 4.437 4.437 0 01.288-1.872 5.78 5.78 0 01.352-.8 4.11 4.11 0 01.288-.496c.149-.224.304-.379.464-.464.202-.117.458-.197.768-.24l.288-.048a2.99 2.99 0 00.208-.032.658.658 0 01.528.096zm-.208 1.312a2.535 2.535 0 01-.336.048.3.3 0 01-.112.032.674.674 0 00-.16.016.892.892 0 00-.224.048l-.016.032a4.437 4.437 0 00-.208.352 8.673 8.673 0 00-.288.624c-.32.896-.283 1.67.112 2.32.394.661 1.05 1.019 1.968 1.072.842.053 1.53-.107 2.064-.48.533-.373.864-.837.992-1.392.128-.533.037-1.05-.272-1.552-.31-.512-.848-.885-1.616-1.12a1.704 1.704 0 00-.336-.064 3.224 3.224 0 00-.416-.048 6.187 6.187 0 01-.464-.048.697.697 0 01-.272-.112.735.735 0 01-.416.272zm9.122-.224c-.129.587-.214 1.568-.257 2.944-.01.523-.005.97.016 1.344l.448-.832c.235-.448.438-.8.608-1.056.608-.95 1.238-1.456 1.888-1.52.854-.085 1.622.56 2.304 1.936.203.405.47 1.024.8 1.856a.683.683 0 01-.016.56.678.678 0 01-.4.384.688.688 0 01-.544 0 .74.74 0 01-.384-.4c-.32-.832-.565-1.419-.736-1.76a4.84 4.84 0 00-.464-.752c-.138-.192-.24-.304-.304-.336a.274.274 0 00-.128-.048c-.192.021-.458.304-.8.848-.16.245-.346.57-.56.976l-.528.992c-.213.373-.4.65-.56.832-.373.416-.773.539-1.2.368-.298-.117-.512-.357-.64-.72a4.094 4.094 0 01-.176-.784 16.602 16.602 0 01-.064-1.92c.043-1.472.139-2.55.288-3.232a.686.686 0 01.32-.448.703.703 0 01.544-.096c.192.043.342.15.448.32a.7.7 0 01.096.544zm14.293 4.496c-.181-.192-.341-.32-.48-.384-.266-.139-.661-.256-1.184-.352a6.895 6.895 0 00-1.552-.144c-.565 0-1.024.07-1.376.208-.352.128-.57.293-.656.496-.053.117-.064.192-.032.224.096.117.31.224.64.32.331.085.694.144 1.088.176.406.021.726.021.96 0 .416-.032 1.024-.15 1.824-.352.352-.096.608-.16.768-.192zm-5.856-4.112c.043-.032.15-.101.32-.208a8.39 8.39 0 01.496-.288c.17-.096.326-.176.464-.24.203-.085.56-.144 1.072-.176.32-.021.614-.032.88-.032.907 0 1.707.16 2.4.48.694.31 1.248.864 1.664 1.664.15.299.326.8.528 1.504.107.352.182.656.224.912.032.16.048.299.048.416-.01.245-.074.448-.192.608a.771.771 0 01-.192.464.695.695 0 01-.448.224c-.426.053-1.04.176-1.84.368-.864.224-1.541.357-2.032.4-.192.032-.565.032-1.12 0a6.138 6.138 0 01-1.44-.24c-.608-.17-1.056-.421-1.344-.752-.437-.512-.501-1.104-.192-1.776.47-1.003 1.579-1.515 3.328-1.536.63-.01 1.254.043 1.872.16.64.128 1.158.293 1.552.496l.24.144a7.33 7.33 0 00-.272-.72c-.256-.512-.608-.87-1.056-1.072-.448-.203-1.024-.304-1.728-.304-.256 0-.517.01-.784.032-.341.021-.549.048-.624.08a2.293 2.293 0 00-.32.16 4.416 4.416 0 00-.384.224c-.15.096-.288.181-.416.256a.745.745 0 01-.544.08.687.687 0 01-.432-.336.795.795 0 01-.08-.56.678.678 0 01.352-.432z"/></mask><path d="M2.712 5.112c.01.192.016.485.016.88.01.416.027.795.048 1.136.021.341.059.667.112.976.181 1.013.56 1.616 1.136 1.808.31.107.555.123.736.048.384-.17.693-.475.928-.912.235-.448.475-1.056.72-1.824.17-.544.304-1.024.4-1.44a4.6 4.6 0 00.048-.336.142.142 0 00.016-.064v-.048c.01-.01.016-.027.016-.048l.032-.112a.668.668 0 01.176-.24.677.677 0 01.496-.208c.213 0 .395.08.544.24.235.277.357.65.368 1.12a6.2 6.2 0 01-.016.4c0 .16.01.245.032.256.107.8.24 1.477.4 2.032.16.544.405 1.072.736 1.584a.7.7 0 01.096.544.686.686 0 01-.32.448.703.703 0 01-.544.096.686.686 0 01-.448-.32 8.076 8.076 0 01-1.024-2.4c-.501 1.312-1.195 2.16-2.08 2.544-.512.224-1.099.23-1.76.016-1.12-.384-1.824-1.365-2.112-2.944a14.04 14.04 0 01-.128-1.088 44.62 44.62 0 01-.048-1.248c0-.448-.005-.725-.016-.832a.711.711 0 01.672-.752.693.693 0 01.528.192c.15.128.23.293.24.496zm13.562.096a3.136 3.136 0 01-.208-.192l-.16-.16a.563.563 0 00-.16-.128c-.192-.096-.454-.15-.784-.16-.32-.01-.656.027-1.008.112-.662.17-1.019.459-1.072.864l.112.032c.117.021.25.037.4.048h1.28c.939.021 1.675.181 2.208.48.821.47 1.258 1.248 1.312 2.336.032.075.043.299.032.672-.01.373-.09.688-.24.944-.459.768-1.37 1.237-2.736 1.408a5.508 5.508 0 01-1.568 0c-.544-.064-.992-.197-1.344-.4a3.522 3.522 0 01-.464-.288 3.52 3.52 0 01-.352-.336c-.096-.128-.17-.23-.224-.304a3.407 3.407 0 01-.208-.352 6.405 6.405 0 00-.208-.352.703.703 0 01-.096-.544.686.686 0 01.32-.448.703.703 0 01.544-.096.69.69 0 01.448.32l.224.384.176.288c.032.043.075.101.128.176a.552.552 0 00.176.144l.24.16c.192.107.464.181.816.224.362.043.768.043 1.216 0 .437-.053.8-.144 1.088-.272.299-.139.49-.288.576-.448.032-.053.037-.325.016-.816-.032-.565-.224-.95-.576-1.152-.31-.17-.822-.267-1.536-.288h-.592c-.299 0-.555-.005-.768-.016-.213-.01-.4-.032-.56-.064-.405-.075-.715-.224-.928-.448-.288-.31-.405-.699-.352-1.168.075-.555.315-1.003.72-1.344a3.43 3.43 0 011.424-.736 4.527 4.527 0 011.44-.16c.523.021.965.117 1.328.288.181.085.368.224.56.416l.288.288c.15.128.23.293.24.496a.647.647 0 01-.16.512.73.73 0 01-.496.256.7.7 0 01-.512-.176zm4.18 2.48c-.224.555-.224 1.03 0 1.424.31.533.992.901 2.048 1.104a9.4 9.4 0 001.168.112c.49.021.864.016 1.12-.016.864-.15 1.83-.613 2.896-1.392a.673.673 0 01.528-.128.654.654 0 01.48.272.7.7 0 01.128.544.642.642 0 01-.272.464c-1.248.917-2.416 1.467-3.504 1.648-.406.053-.886.07-1.44.048a8.57 8.57 0 01-1.36-.144c-1.494-.277-2.507-.875-3.04-1.792-.49-.864-.496-1.819-.016-2.864.416-.917 1.114-1.696 2.096-2.336.97-.64 2.01-.95 3.12-.928.277 0 .485.005.624.016.138.01.341.037.608.08.266.043.512.123.736.24.224.107.442.25.656.432.394.352.592.827.592 1.424 0 .715-.39 1.264-1.168 1.648-.49.256-1.152.432-1.984.528-.79.064-1.478.09-2.064.08a11.9 11.9 0 01-1.424-.096.733.733 0 01-.528-.368zm.72-1.072c.32.053.741.085 1.264.096.533.01 1.152-.016 1.856-.08.672-.075 1.178-.197 1.52-.368.245-.117.368-.24.368-.368 0-.16-.038-.272-.112-.336a1.309 1.309 0 00-.656-.32c-.235-.053-.582-.085-1.04-.096a3.855 3.855 0 00-1.76.4 4.52 4.52 0 00-1.472 1.072h.032zm9.84.752c-.086-.63-.3-1.605-.64-2.928a.744.744 0 01.08-.544.686.686 0 01.447-.32.655.655 0 01.544.08.69.69 0 01.337.432l.4 1.648c.586-.405 1.418-.608 2.495-.608a.7.7 0 01.513.208.7.7 0 01.208.512c0 .203-.07.373-.209.512a.696.696 0 01-.511.208c-.864 0-1.467.15-1.808.448-.15.139-.278.325-.384.56.042.49.058.96.047 1.408a10.7 10.7 0 01-.064.944c-.042.31-.1.56-.175.752-.064.17-.144.31-.24.416-.235.245-.507.33-.817.256a.816.816 0 01-.56-.464 1.39 1.39 0 01-.096-.352c-.032-.17-.042-.379-.032-.624.011-.448.06-.901.145-1.36.085-.459.192-.853.32-1.184zm13.694 2.096a.683.683 0 01.64-.064c.512.203.96.341 1.344.416a3.21 3.21 0 001.152-.016 2.469 2.469 0 001.072-.528c.298-.256.49-.576.576-.96a2.123 2.123 0 00-.064-1.152 2.508 2.508 0 00-.672-1.04 2.004 2.004 0 00-1.024-.544 3.424 3.424 0 00-.768-.016c-.331.021-.582.064-.752.128-.768.299-1.286.688-1.552 1.168-.022.672-.006 1.541.048 2.608zm-1.488-2.96c.032-.95.122-1.813.272-2.592a.653.653 0 01.288-.464.669.669 0 01.544-.112.64.64 0 01.464.304.63.63 0 01.112.528l-.096.592a5.88 5.88 0 01.896-.416c.298-.117.688-.192 1.168-.224.469-.032.853-.016 1.152.048a3.382 3.382 0 011.728.896 3.91 3.91 0 011.04 1.648c.128.427.192.853.192 1.28 0 .416-.096.837-.288 1.264a3.04 3.04 0 01-.848 1.104 4.2 4.2 0 01-1.248.736 3.66 3.66 0 01-1.344.192 6.989 6.989 0 01-1.216-.16 8.128 8.128 0 01-1.28-.416c.02.341.042.645.064.912v1.136c0 .032.005.101.016.208l.016.32c.02.16.026.277.016.352a.64.64 0 01-.08.24.68.68 0 01-.112.176.66.66 0 01-.256.192.616.616 0 01-.416.048.691.691 0 01-.48-.304 2.142 2.142 0 00-.08-.144c-.192-.416-.315-1.008-.368-1.776a33.452 33.452 0 01-.032-.848 18.524 18.524 0 00-.032-.736c0-.064-.016-.288-.048-.672a33.648 33.648 0 00-.048-.784v-.64a5.791 5.791 0 01.016-.768c.032-.213.074-.421.128-.624a3.85 3.85 0 01.16-.496zm1.424 6.576c.032.15.069.203.112.16a.799.799 0 01-.048-.08.345.345 0 00-.064-.08zm8.555-5.392c-.224.555-.224 1.03 0 1.424.31.533.992.901 2.048 1.104a9.4 9.4 0 001.168.112c.49.021.864.016 1.12-.016.864-.15 1.83-.613 2.896-1.392a.673.673 0 01.528-.128.654.654 0 01.48.272.7.7 0 01.128.544.642.642 0 01-.272.464c-1.248.917-2.416 1.467-3.504 1.648-.406.053-.886.07-1.44.048a8.57 8.57 0 01-1.36-.144c-1.494-.277-2.507-.875-3.04-1.792-.49-.864-.496-1.819-.016-2.864.416-.917 1.114-1.696 2.096-2.336.97-.64 2.01-.95 3.12-.928.277 0 .485.005.624.016.138.01.341.037.608.08.266.043.512.123.736.24.224.107.442.25.656.432.394.352.592.827.592 1.424 0 .715-.39 1.264-1.168 1.648-.49.256-1.152.432-1.984.528-.79.064-1.478.09-2.064.08a11.9 11.9 0 01-1.424-.096.733.733 0 01-.528-.368zm.72-1.072c.32.053.741.085 1.264.096.533.01 1.152-.016 1.856-.08.672-.075 1.178-.197 1.52-.368.245-.117.368-.24.368-.368 0-.16-.038-.272-.112-.336a1.309 1.309 0 00-.656-.32c-.235-.053-.582-.085-1.04-.096a3.855 3.855 0 00-1.76.4 4.52 4.52 0 00-1.472 1.072h.032zm9.839.752c-.085-.63-.298-1.605-.64-2.928a.744.744 0 01.08-.544.686.686 0 01.449-.32.655.655 0 01.544.08c.17.096.282.24.335.432l.4 1.648c.587-.405 1.42-.608 2.496-.608a.7.7 0 01.513.208.7.7 0 01.207.512.698.698 0 01-.207.512.696.696 0 01-.513.208c-.864 0-1.466.15-1.807.448-.15.139-.278.325-.384.56.042.49.058.96.047 1.408a10.7 10.7 0 01-.064.944c-.042.31-.1.56-.175.752-.064.17-.145.31-.24.416-.235.245-.507.33-.817.256a.816.816 0 01-.56-.464 1.39 1.39 0 01-.095-.352 2.789 2.789 0 01-.032-.624 8.5 8.5 0 01.143-1.36c.086-.459.192-.853.32-1.184zm10.898-2.16a3.161 3.161 0 01-.208-.192l-.16-.16a.561.561 0 00-.16-.128c-.192-.096-.454-.15-.784-.16-.32-.01-.656.027-1.008.112-.662.17-1.019.459-1.072.864l.112.032c.117.021.25.037.4.048h1.28c.938.021 1.674.181 2.208.48.821.47 1.258 1.248 1.312 2.336.032.075.042.299.032.672-.01.373-.09.688-.24.944-.459.768-1.37 1.237-2.736 1.408a5.508 5.508 0 01-1.568 0c-.544-.064-.992-.197-1.344-.4a3.528 3.528 0 01-.464-.288 3.531 3.531 0 01-.352-.336c-.096-.128-.17-.23-.224-.304a3.444 3.444 0 01-.208-.352 6.34 6.34 0 00-.208-.352.703.703 0 01-.096-.544.686.686 0 01.32-.448.703.703 0 01.544-.096.69.69 0 01.448.32l.224.384.176.288.128.176a.553.553 0 00.176.144l.24.16c.192.107.464.181.816.224.362.043.768.043 1.216 0 .437-.053.8-.144 1.088-.272.298-.139.49-.288.576-.448.032-.053.037-.325.016-.816-.032-.565-.224-.95-.576-1.152-.31-.17-.822-.267-1.536-.288h-.592c-.299 0-.555-.005-.768-.016-.214-.01-.4-.032-.56-.064-.406-.075-.715-.224-.928-.448-.288-.31-.406-.699-.352-1.168.074-.555.314-1.003.72-1.344a3.43 3.43 0 011.424-.736 4.527 4.527 0 011.44-.16c.522.021.965.117 1.328.288.181.085.368.224.56.416l.288.288c.15.128.23.293.24.496a.647.647 0 01-.16.512.73.73 0 01-.496.256.701.701 0 01-.512-.176zm6.74-1.344a.695.695 0 01.672-.288c.053.01.176.027.368.048.202.021.394.048.576.08.18.021.346.053.496.096 1.12.341 1.93.928 2.432 1.76.512.821.656 1.696.432 2.624-.214.907-.731 1.648-1.552 2.224-.811.576-1.808.827-2.992.752a4.2 4.2 0 01-1.84-.528A3.5 3.5 0 0178.724 9.4a3.819 3.819 0 01-.512-1.68 4.437 4.437 0 01.288-1.872 5.78 5.78 0 01.352-.8 4.11 4.11 0 01.288-.496c.149-.224.304-.379.464-.464.202-.117.458-.197.768-.24l.288-.048a2.99 2.99 0 00.208-.032.658.658 0 01.528.096zm-.208 1.312a2.535 2.535 0 01-.336.048.3.3 0 01-.112.032.674.674 0 00-.16.016.892.892 0 00-.224.048l-.016.032a4.437 4.437 0 00-.208.352 8.673 8.673 0 00-.288.624c-.32.896-.283 1.67.112 2.32.394.661 1.05 1.019 1.968 1.072.842.053 1.53-.107 2.064-.48.533-.373.864-.837.992-1.392.128-.533.037-1.05-.272-1.552-.31-.512-.848-.885-1.616-1.12a1.704 1.704 0 00-.336-.064 3.224 3.224 0 00-.416-.048 6.187 6.187 0 01-.464-.048.697.697 0 01-.272-.112.735.735 0 01-.416.272zm9.122-.224c-.129.587-.214 1.568-.257 2.944-.01.523-.005.97.016 1.344l.448-.832c.235-.448.438-.8.608-1.056.608-.95 1.238-1.456 1.888-1.52.854-.085 1.622.56 2.304 1.936.203.405.47 1.024.8 1.856a.683.683 0 01-.016.56.678.678 0 01-.4.384.688.688 0 01-.544 0 .74.74 0 01-.384-.4c-.32-.832-.565-1.419-.736-1.76a4.84 4.84 0 00-.464-.752c-.138-.192-.24-.304-.304-.336a.274.274 0 00-.128-.048c-.192.021-.458.304-.8.848-.16.245-.346.57-.56.976l-.528.992c-.213.373-.4.65-.56.832-.373.416-.773.539-1.2.368-.298-.117-.512-.357-.64-.72a4.094 4.094 0 01-.176-.784 16.602 16.602 0 01-.064-1.92c.043-1.472.139-2.55.288-3.232a.686.686 0 01.32-.448.703.703 0 01.544-.096c.192.043.342.15.448.32a.7.7 0 01.096.544zm14.293 4.496c-.181-.192-.341-.32-.48-.384-.266-.139-.661-.256-1.184-.352a6.895 6.895 0 00-1.552-.144c-.565 0-1.024.07-1.376.208-.352.128-.57.293-.656.496-.053.117-.064.192-.032.224.096.117.31.224.64.32.331.085.694.144 1.088.176.406.021.726.021.96 0 .416-.032 1.024-.15 1.824-.352.352-.096.608-.16.768-.192zm-5.856-4.112c.043-.032.15-.101.32-.208a8.39 8.39 0 01.496-.288c.17-.096.326-.176.464-.24.203-.085.56-.144 1.072-.176.32-.021.614-.032.88-.032.907 0 1.707.16 2.4.48.694.31 1.248.864 1.664 1.664.15.299.326.8.528 1.504.107.352.182.656.224.912.032.16.048.299.048.416-.01.245-.074.448-.192.608a.771.771 0 01-.192.464.695.695 0 01-.448.224c-.426.053-1.04.176-1.84.368-.864.224-1.541.357-2.032.4-.192.032-.565.032-1.12 0a6.138 6.138 0 01-1.44-.24c-.608-.17-1.056-.421-1.344-.752-.437-.512-.501-1.104-.192-1.776.47-1.003 1.579-1.515 3.328-1.536.63-.01 1.254.043 1.872.16.64.128 1.158.293 1.552.496l.24.144a7.33 7.33 0 00-.272-.72c-.256-.512-.608-.87-1.056-1.072-.448-.203-1.024-.304-1.728-.304-.256 0-.517.01-.784.032-.341.021-.549.048-.624.08a2.293 2.293 0 00-.32.16 4.416 4.416 0 00-.384.224c-.15.096-.288.181-.416.256a.745.745 0 01-.544.08.687.687 0 01-.432-.336.795.795 0 01-.08-.56.678.678 0 01.352-.432z" fill="#BBA4FF"/><path d="M2.712 5.112c.01.192.016.485.016.88.01.416.027.795.048 1.136.021.341.059.667.112.976.181 1.013.56 1.616 1.136 1.808.31.107.555.123.736.048.384-.17.693-.475.928-.912.235-.448.475-1.056.72-1.824.17-.544.304-1.024.4-1.44a4.6 4.6 0 00.048-.336.142.142 0 00.016-.064v-.048c.01-.01.016-.027.016-.048l.032-.112a.668.668 0 01.176-.24.677.677 0 01.496-.208c.213 0 .395.08.544.24.235.277.357.65.368 1.12a6.2 6.2 0 01-.016.4c0 .16.01.245.032.256.107.8.24 1.477.4 2.032.16.544.405 1.072.736 1.584a.7.7 0 01.096.544.686.686 0 01-.32.448.703.703 0 01-.544.096.686.686 0 01-.448-.32 8.076 8.076 0 01-1.024-2.4c-.501 1.312-1.195 2.16-2.08 2.544-.512.224-1.099.23-1.76.016-1.12-.384-1.824-1.365-2.112-2.944a14.04 14.04 0 01-.128-1.088 44.62 44.62 0 01-.048-1.248c0-.448-.005-.725-.016-.832a.711.711 0 01.672-.752.693.693 0 01.528.192c.15.128.23.293.24.496zm13.562.096a3.136 3.136 0 01-.208-.192l-.16-.16a.563.563 0 00-.16-.128c-.192-.096-.454-.15-.784-.16-.32-.01-.656.027-1.008.112-.662.17-1.019.459-1.072.864l.112.032c.117.021.25.037.4.048h1.28c.939.021 1.675.181 2.208.48.821.47 1.258 1.248 1.312 2.336.032.075.043.299.032.672-.01.373-.09.688-.24.944-.459.768-1.37 1.237-2.736 1.408a5.508 5.508 0 01-1.568 0c-.544-.064-.992-.197-1.344-.4a3.522 3.522 0 01-.464-.288 3.52 3.52 0 01-.352-.336c-.096-.128-.17-.23-.224-.304a3.407 3.407 0 01-.208-.352 6.405 6.405 0 00-.208-.352.703.703 0 01-.096-.544.686.686 0 01.32-.448.703.703 0 01.544-.096.69.69 0 01.448.32l.224.384.176.288c.032.043.075.101.128.176a.552.552 0 00.176.144l.24.16c.192.107.464.181.816.224.362.043.768.043 1.216 0 .437-.053.8-.144 1.088-.272.299-.139.49-.288.576-.448.032-.053.037-.325.016-.816-.032-.565-.224-.95-.576-1.152-.31-.17-.822-.267-1.536-.288h-.592c-.299 0-.555-.005-.768-.016-.213-.01-.4-.032-.56-.064-.405-.075-.715-.224-.928-.448-.288-.31-.405-.699-.352-1.168.075-.555.315-1.003.72-1.344a3.43 3.43 0 011.424-.736 4.527 4.527 0 011.44-.16c.523.021.965.117 1.328.288.181.085.368.224.56.416l.288.288c.15.128.23.293.24.496a.647.647 0 01-.16.512.73.73 0 01-.496.256.7.7 0 01-.512-.176zm4.18 2.48c-.224.555-.224 1.03 0 1.424.31.533.992.901 2.048 1.104a9.4 9.4 0 001.168.112c.49.021.864.016 1.12-.016.864-.15 1.83-.613 2.896-1.392a.673.673 0 01.528-.128.654.654 0 01.48.272.7.7 0 01.128.544.642.642 0 01-.272.464c-1.248.917-2.416 1.467-3.504 1.648-.406.053-.886.07-1.44.048a8.57 8.57 0 01-1.36-.144c-1.494-.277-2.507-.875-3.04-1.792-.49-.864-.496-1.819-.016-2.864.416-.917 1.114-1.696 2.096-2.336.97-.64 2.01-.95 3.12-.928.277 0 .485.005.624.016.138.01.341.037.608.08.266.043.512.123.736.24.224.107.442.25.656.432.394.352.592.827.592 1.424 0 .715-.39 1.264-1.168 1.648-.49.256-1.152.432-1.984.528-.79.064-1.478.09-2.064.08a11.9 11.9 0 01-1.424-.096.733.733 0 01-.528-.368zm.72-1.072c.32.053.741.085 1.264.096.533.01 1.152-.016 1.856-.08.672-.075 1.178-.197 1.52-.368.245-.117.368-.24.368-.368 0-.16-.038-.272-.112-.336a1.309 1.309 0 00-.656-.32c-.235-.053-.582-.085-1.04-.096a3.855 3.855 0 00-1.76.4 4.52 4.52 0 00-1.472 1.072h.032zm9.84.752c-.086-.63-.3-1.605-.64-2.928a.744.744 0 01.08-.544.686.686 0 01.447-.32.655.655 0 01.544.08.69.69 0 01.337.432l.4 1.648c.586-.405 1.418-.608 2.495-.608a.7.7 0 01.513.208.7.7 0 01.208.512c0 .203-.07.373-.209.512a.696.696 0 01-.511.208c-.864 0-1.467.15-1.808.448-.15.139-.278.325-.384.56.042.49.058.96.047 1.408a10.7 10.7 0 01-.064.944c-.042.31-.1.56-.175.752-.064.17-.144.31-.24.416-.235.245-.507.33-.817.256a.816.816 0 01-.56-.464 1.39 1.39 0 01-.096-.352c-.032-.17-.042-.379-.032-.624.011-.448.06-.901.145-1.36.085-.459.192-.853.32-1.184zm13.694 2.096a.683.683 0 01.64-.064c.512.203.96.341 1.344.416a3.21 3.21 0 001.152-.016 2.469 2.469 0 001.072-.528c.298-.256.49-.576.576-.96a2.123 2.123 0 00-.064-1.152 2.508 2.508 0 00-.672-1.04 2.004 2.004 0 00-1.024-.544 3.424 3.424 0 00-.768-.016c-.331.021-.582.064-.752.128-.768.299-1.286.688-1.552 1.168-.022.672-.006 1.541.048 2.608zm-1.488-2.96c.032-.95.122-1.813.272-2.592a.653.653 0 01.288-.464.669.669 0 01.544-.112.64.64 0 01.464.304.63.63 0 01.112.528l-.096.592a5.88 5.88 0 01.896-.416c.298-.117.688-.192 1.168-.224.469-.032.853-.016 1.152.048a3.382 3.382 0 011.728.896 3.91 3.91 0 011.04 1.648c.128.427.192.853.192 1.28 0 .416-.096.837-.288 1.264a3.04 3.04 0 01-.848 1.104 4.2 4.2 0 01-1.248.736 3.66 3.66 0 01-1.344.192 6.989 6.989 0 01-1.216-.16 8.128 8.128 0 01-1.28-.416c.02.341.042.645.064.912v1.136c0 .032.005.101.016.208l.016.32c.02.16.026.277.016.352a.64.64 0 01-.08.24.68.68 0 01-.112.176.66.66 0 01-.256.192.616.616 0 01-.416.048.691.691 0 01-.48-.304 2.142 2.142 0 00-.08-.144c-.192-.416-.315-1.008-.368-1.776a33.452 33.452 0 01-.032-.848 18.524 18.524 0 00-.032-.736c0-.064-.016-.288-.048-.672a33.648 33.648 0 00-.048-.784v-.64a5.791 5.791 0 01.016-.768c.032-.213.074-.421.128-.624a3.85 3.85 0 01.16-.496zm1.424 6.576c.032.15.069.203.112.16a.799.799 0 01-.048-.08.345.345 0 00-.064-.08zm8.555-5.392c-.224.555-.224 1.03 0 1.424.31.533.992.901 2.048 1.104a9.4 9.4 0 001.168.112c.49.021.864.016 1.12-.016.864-.15 1.83-.613 2.896-1.392a.673.673 0 01.528-.128.654.654 0 01.48.272.7.7 0 01.128.544.642.642 0 01-.272.464c-1.248.917-2.416 1.467-3.504 1.648-.406.053-.886.07-1.44.048a8.57 8.57 0 01-1.36-.144c-1.494-.277-2.507-.875-3.04-1.792-.49-.864-.496-1.819-.016-2.864.416-.917 1.114-1.696 2.096-2.336.97-.64 2.01-.95 3.12-.928.277 0 .485.005.624.016.138.01.341.037.608.08.266.043.512.123.736.24.224.107.442.25.656.432.394.352.592.827.592 1.424 0 .715-.39 1.264-1.168 1.648-.49.256-1.152.432-1.984.528-.79.064-1.478.09-2.064.08a11.9 11.9 0 01-1.424-.096.733.733 0 01-.528-.368zm.72-1.072c.32.053.741.085 1.264.096.533.01 1.152-.016 1.856-.08.672-.075 1.178-.197 1.52-.368.245-.117.368-.24.368-.368 0-.16-.038-.272-.112-.336a1.309 1.309 0 00-.656-.32c-.235-.053-.582-.085-1.04-.096a3.855 3.855 0 00-1.76.4 4.52 4.52 0 00-1.472 1.072h.032zm9.839.752c-.085-.63-.298-1.605-.64-2.928a.744.744 0 01.08-.544.686.686 0 01.449-.32.655.655 0 01.544.08c.17.096.282.24.335.432l.4 1.648c.587-.405 1.42-.608 2.496-.608a.7.7 0 01.513.208.7.7 0 01.207.512.698.698 0 01-.207.512.696.696 0 01-.513.208c-.864 0-1.466.15-1.807.448-.15.139-.278.325-.384.56.042.49.058.96.047 1.408a10.7 10.7 0 01-.064.944c-.042.31-.1.56-.175.752-.064.17-.145.31-.24.416-.235.245-.507.33-.817.256a.816.816 0 01-.56-.464 1.39 1.39 0 01-.095-.352 2.789 2.789 0 01-.032-.624 8.5 8.5 0 01.143-1.36c.086-.459.192-.853.32-1.184zm10.898-2.16a3.161 3.161 0 01-.208-.192l-.16-.16a.561.561 0 00-.16-.128c-.192-.096-.454-.15-.784-.16-.32-.01-.656.027-1.008.112-.662.17-1.019.459-1.072.864l.112.032c.117.021.25.037.4.048h1.28c.938.021 1.674.181 2.208.48.821.47 1.258 1.248 1.312 2.336.032.075.042.299.032.672-.01.373-.09.688-.24.944-.459.768-1.37 1.237-2.736 1.408a5.508 5.508 0 01-1.568 0c-.544-.064-.992-.197-1.344-.4a3.528 3.528 0 01-.464-.288 3.531 3.531 0 01-.352-.336c-.096-.128-.17-.23-.224-.304a3.444 3.444 0 01-.208-.352 6.34 6.34 0 00-.208-.352.703.703 0 01-.096-.544.686.686 0 01.32-.448.703.703 0 01.544-.096.69.69 0 01.448.32l.224.384.176.288.128.176a.553.553 0 00.176.144l.24.16c.192.107.464.181.816.224.362.043.768.043 1.216 0 .437-.053.8-.144 1.088-.272.298-.139.49-.288.576-.448.032-.053.037-.325.016-.816-.032-.565-.224-.95-.576-1.152-.31-.17-.822-.267-1.536-.288h-.592c-.299 0-.555-.005-.768-.016-.214-.01-.4-.032-.56-.064-.406-.075-.715-.224-.928-.448-.288-.31-.406-.699-.352-1.168.074-.555.314-1.003.72-1.344a3.43 3.43 0 011.424-.736 4.527 4.527 0 011.44-.16c.522.021.965.117 1.328.288.181.085.368.224.56.416l.288.288c.15.128.23.293.24.496a.647.647 0 01-.16.512.73.73 0 01-.496.256.701.701 0 01-.512-.176zm6.74-1.344a.695.695 0 01.672-.288c.053.01.176.027.368.048.202.021.394.048.576.08.18.021.346.053.496.096 1.12.341 1.93.928 2.432 1.76.512.821.656 1.696.432 2.624-.214.907-.731 1.648-1.552 2.224-.811.576-1.808.827-2.992.752a4.2 4.2 0 01-1.84-.528A3.5 3.5 0 0178.724 9.4a3.819 3.819 0 01-.512-1.68 4.437 4.437 0 01.288-1.872 5.78 5.78 0 01.352-.8 4.11 4.11 0 01.288-.496c.149-.224.304-.379.464-.464.202-.117.458-.197.768-.24l.288-.048a2.99 2.99 0 00.208-.032.658.658 0 01.528.096zm-.208 1.312a2.535 2.535 0 01-.336.048.3.3 0 01-.112.032.674.674 0 00-.16.016.892.892 0 00-.224.048l-.016.032a4.437 4.437 0 00-.208.352 8.673 8.673 0 00-.288.624c-.32.896-.283 1.67.112 2.32.394.661 1.05 1.019 1.968 1.072.842.053 1.53-.107 2.064-.48.533-.373.864-.837.992-1.392.128-.533.037-1.05-.272-1.552-.31-.512-.848-.885-1.616-1.12a1.704 1.704 0 00-.336-.064 3.224 3.224 0 00-.416-.048 6.187 6.187 0 01-.464-.048.697.697 0 01-.272-.112.735.735 0 01-.416.272zm9.122-.224c-.129.587-.214 1.568-.257 2.944-.01.523-.005.97.016 1.344l.448-.832c.235-.448.438-.8.608-1.056.608-.95 1.238-1.456 1.888-1.52.854-.085 1.622.56 2.304 1.936.203.405.47 1.024.8 1.856a.683.683 0 01-.016.56.678.678 0 01-.4.384.688.688 0 01-.544 0 .74.74 0 01-.384-.4c-.32-.832-.565-1.419-.736-1.76a4.84 4.84 0 00-.464-.752c-.138-.192-.24-.304-.304-.336a.274.274 0 00-.128-.048c-.192.021-.458.304-.8.848-.16.245-.346.57-.56.976l-.528.992c-.213.373-.4.65-.56.832-.373.416-.773.539-1.2.368-.298-.117-.512-.357-.64-.72a4.094 4.094 0 01-.176-.784 16.602 16.602 0 01-.064-1.92c.043-1.472.139-2.55.288-3.232a.686.686 0 01.32-.448.703.703 0 01.544-.096c.192.043.342.15.448.32a.7.7 0 01.096.544zm14.293 4.496c-.181-.192-.341-.32-.48-.384-.266-.139-.661-.256-1.184-.352a6.895 6.895 0 00-1.552-.144c-.565 0-1.024.07-1.376.208-.352.128-.57.293-.656.496-.053.117-.064.192-.032.224.096.117.31.224.64.32.331.085.694.144 1.088.176.406.021.726.021.96 0 .416-.032 1.024-.15 1.824-.352.352-.096.608-.16.768-.192zm-5.856-4.112c.043-.032.15-.101.32-.208a8.39 8.39 0 01.496-.288c.17-.096.326-.176.464-.24.203-.085.56-.144 1.072-.176.32-.021.614-.032.88-.032.907 0 1.707.16 2.4.48.694.31 1.248.864 1.664 1.664.15.299.326.8.528 1.504.107.352.182.656.224.912.032.16.048.299.048.416-.01.245-.074.448-.192.608a.771.771 0 01-.192.464.695.695 0 01-.448.224c-.426.053-1.04.176-1.84.368-.864.224-1.541.357-2.032.4-.192.032-.565.032-1.12 0a6.138 6.138 0 01-1.44-.24c-.608-.17-1.056-.421-1.344-.752-.437-.512-.501-1.104-.192-1.776.47-1.003 1.579-1.515 3.328-1.536.63-.01 1.254.043 1.872.16.64.128 1.158.293 1.552.496l.24.144a7.33 7.33 0 00-.272-.72c-.256-.512-.608-.87-1.056-1.072-.448-.203-1.024-.304-1.728-.304-.256 0-.517.01-.784.032-.341.021-.549.048-.624.08a2.293 2.293 0 00-.32.16 4.416 4.416 0 00-.384.224c-.15.096-.288.181-.416.256a.745.745 0 01-.544.08.687.687 0 01-.432-.336.795.795 0 01-.08-.56.678.678 0 01.352-.432z" stroke="#BBA4FF" stroke-width=".6" mask="url(#a)"/><path d="M167.945 34.24l-.687-1.334.687 1.333zm30.984-14.783a1.5 1.5 0 00-.972-1.886l-12.86-4.11a1.5 1.5 0 10-.913 2.858l11.431 3.653-3.653 11.43a1.5 1.5 0 102.857.914l4.11-12.86zM63.671 24.063a1.5 1.5 0 10-2.342 1.874l2.342-1.874zM95 48l-.403 1.445L95 48zm73.633-12.428l29.555-15.239-1.375-2.666-29.555 15.239 1.375 2.666zM62.5 25a210.094 210.094 0 00-1.17.94l.003.003.01.012.035.043.131.16c.115.139.284.34.504.598.44.513 1.084 1.249 1.913 2.145a93.54 93.54 0 007.034 6.83c5.93 5.18 14.254 11.095 23.637 13.714l.806-2.89c-8.759-2.444-16.684-8.03-22.47-13.083a90.557 90.557 0 01-6.805-6.61c-.8-.864-1.42-1.57-1.836-2.056a43.726 43.726 0 01-.586-.7l-.028-.035a2.683 2.683 0 01-.006-.007l-.001-.002L62.5 25zm104.758 7.906c-22.507 11.605-47.976 20.313-71.855 13.65l-.806 2.889c25.039 6.987 51.403-2.202 74.036-13.873l-1.375-2.666z" fill="#BBA4FF"/></svg>