<svg width="731" height="70" fill="none" xmlns="http://www.w3.org/2000/svg"><mask id="a" style="mask-type:luminance" maskUnits="userSpaceOnUse" x="0" y="0" width="731" height="71"><path d="M731 0H0v70h731V0z" fill="#fff"/></mask><g mask="url(#a)" stroke="#16013E" stroke-width="3" stroke-linecap="round" stroke-linejoin="round"><path d="M257.958 47.2V22.8M251.176 44V26m-6.679 21.2V22.8M183.87 41.6V28.4m20.243 13.2V28.4m26.923 14.4V27.1m6.679 27.9V15m-26.923 48.8V6.1m13.461 10.4v36.9m-6.68-36.9v36.9m47.064-11.8V28.4m26.922 12.9V28.6m-20.14 29.8V11.6M284.88 20v29.9M278.098 20v29.9m-80.767-33.7v37.6m-6.681-37.6v37.6m-13.459 5.7v-49M170.409 68V2m195.142 45.2V22.8M358.866 44V26m-6.776 21.2V22.8m-40.287 18.8V28.4m26.825 14.4V27.1m6.779 27.9V15m-26.924 48.8V6.1m13.461 10.4v36.9m-6.68-36.9v36.9m47.065-11.8V28.4m-67.308-12.2v37.6m-6.679-37.6v37.6m94.131-6.6V22.8M385.788 44V26m-6.776 21.2V22.8m20.24 18.8V28.4m26.922 12.9V28.6m-20.24 29.8V11.6m13.462 8.4v29.9M412.711 20v29.9m33.607-8.3V28.4m6.778 35.4V6.1m6.683 10.4v36.9m-20.144-37.2v37.6m-6.778-37.6v37.6M143.486 41.6V28.4m-20.142 13.2V28.4M96.422 42.8V27.1m20.142 36.7V6.1m-13.461 10.4v36.9M89.641 16.5v36.9M82.96 16.5v36.9m-6.78-36.9v36.9M69.5 16.5v36.9m-6.781-36.9v36.9m-6.681-36.9v36.9m-6.681-35.2v33.5M42.577 20v29.9m-6.679-33.4v36.9m73.986-36.9v36.9m20.141-37.2v37.6m6.781-37.6v37.6m13.463 5.7v-49m6.679 57.5V2m6.78 37.7v-9.5M621.316 44V26m-6.782 21.2V22.8m-60.527 18.8V28.4m20.24 13.2V28.4m26.922 14.4V27.1m6.686 27.9V15m-26.924 48.8V6.1m13.463 10.4v36.9m-6.686-36.9v36.9M567.47 16.2v37.6m-6.684-37.6v37.6m-13.462 5.7v-49M540.546 68V2m-26.92 39.6V28.4M493.48 41.6V28.4m-26.923 14.4V27.1m20.144 36.7V6.1M473.24 16.5v36.9m6.779-36.9v36.9m215.282-6.2V22.8M688.622 44V26m-6.78 21.2V22.8m-40.386 18.8V28.4m26.922 14.4V27.1m6.783 27.9V15m-26.923 48.8V6.1M661.7 16.5v36.9m-6.783-36.9v36.9m47.166-11.8V28.4M1.995 41.6V28.4m632.782-12.2v37.6m-6.782-37.6v37.6m94.228-6.6V22.8M22.139 47.2V22.8M715.544 44V26M15.456 44V26m693.308 21.2V22.8M8.68 47.2V22.8m720.325 18.8V28.4M28.917 41.6V28.4m471.246-12.2v37.6m6.778-37.6v37.6m13.461 5.7v-49m6.683 57.5V2m6.778 37.7v-9.5"/></g></svg>