<svg width="106" height="36" viewBox="0 0 106 36" fill="none" xmlns="http://www.w3.org/2000/svg">
<path d="M43.3429 0.388916C43.8937 0.388916 44.4052 0.388916 44.9659 0.388916C44.9659 0.497119 44.9659 0.605322 44.9659 0.713525C44.9659 5.85808 44.9757 11.0125 44.9561 16.157C44.9561 17.2784 44.838 18.3998 44.3462 19.4425C43.7855 20.6327 42.9297 21.4787 41.6116 21.8131C41.4149 21.8623 41.2083 21.882 41.0214 21.941C40.9526 21.9607 40.8935 22.0492 40.8542 22.118C40.8345 22.1574 40.8444 22.2164 40.8444 22.2754C40.8444 25.5117 40.8444 28.7479 40.8345 31.994C40.8345 32.1907 40.9034 32.2989 41.0509 32.3875C41.6903 32.7908 41.8674 33.4203 41.769 34.0302C41.6608 34.7089 41.1788 35.1122 40.4804 35.2794C39.6345 35.4762 38.9754 34.9057 38.7393 34.3941C38.4049 33.6859 38.6508 32.8203 39.2902 32.417C39.4869 32.2891 39.5459 32.1612 39.5459 31.9252C39.5361 28.7283 39.5361 25.5313 39.5459 22.3344C39.5459 22.059 39.4967 21.9705 39.182 21.9213C38.4541 21.8131 37.7852 21.5082 37.2146 21.0163C36.2703 20.1999 35.7785 19.1474 35.6211 17.9375C35.5523 17.3768 35.5031 16.8161 35.4932 16.2554C35.4834 11.1108 35.4834 5.95645 35.4834 0.811891C35.4834 0.684015 35.4834 0.565975 35.4834 0.418426C36.0047 0.418426 36.5064 0.418426 37.0376 0.418426C37.0376 0.526629 37.0376 0.634832 37.0376 0.752871C37.0376 6.03514 37.0278 11.3174 37.0474 16.5997C37.0474 17.6325 37.2835 18.626 37.9229 19.472C38.3459 20.0327 38.9361 20.3278 39.6049 20.436C40.2738 20.5442 40.9427 20.4852 41.5723 20.1802C42.4674 19.7376 42.9199 18.9506 43.1363 18.0358C43.2642 17.4948 43.3232 16.9243 43.3232 16.3636C43.333 11.1699 43.333 5.98596 43.333 0.792218C43.3429 0.664342 43.3429 0.546302 43.3429 0.388916Z" fill="#3A2D52"/>
<path d="M9.63293 21.6754C9.07224 21.6754 8.58041 21.6754 8.04923 21.6754C7.99021 21.1245 7.94103 20.5835 7.88201 19.9933C7.60658 20.3179 7.39018 20.6425 7.11475 20.8983C6.40651 21.577 5.56056 21.941 4.56706 22C3.61291 22.059 2.72761 21.9114 1.92101 21.3901C0.937348 20.7507 0.475026 19.7769 0.1996 18.685C-0.00696887 17.8391 -0.0266417 16.9735 0.0225415 16.1078C0.101235 14.6815 0.563556 13.3929 1.52755 12.2912C2.23578 11.4748 3.11124 10.8944 4.0654 10.4026C5.04906 9.90092 6.00321 9.34023 6.7508 8.50411C7.40001 7.76637 7.79348 6.93025 7.80332 5.93675C7.81315 5.12031 7.86234 4.29404 7.61642 3.48743C7.34099 2.55295 6.82949 1.80537 5.79664 1.63815C4.08507 1.36272 2.84565 1.97259 2.46203 3.91041C2.32431 4.60881 2.34399 5.34656 2.33415 6.06463C2.32431 6.35973 2.24562 6.44826 1.96036 6.42858C1.55706 6.40891 1.15375 6.41875 0.750452 6.41875C0.750452 5.81871 0.720942 5.22852 0.760289 4.64815C0.789799 4.18583 0.848818 3.71367 0.966858 3.26119C1.31114 1.88406 2.04889 0.792195 3.42602 0.28069C4.10474 0.0347739 4.82282 -0.0340823 5.5704 0.0446108C6.07207 0.103631 6.55406 0.16265 7.01639 0.36922C7.81315 0.723338 8.38368 1.3037 8.75747 2.09063C9.15094 2.91691 9.36734 3.79237 9.38701 4.71701C9.39685 5.13999 9.44603 5.56296 9.44603 5.98594C9.44603 10.0485 9.44603 14.1012 9.45587 18.1637C9.45587 18.9113 9.48538 19.649 9.52473 20.3966C9.51489 20.8097 9.58375 21.2229 9.63293 21.6754ZM7.80332 9.23202C7.78364 9.22219 7.77381 9.21235 7.75413 9.19268C7.72462 9.24186 7.69511 9.29104 7.65577 9.34023C7.22295 10.0288 6.59341 10.5403 5.91468 10.9633C5.20645 11.4158 4.44903 11.8092 3.75062 12.2814C2.3735 13.2159 1.68493 14.5438 1.68493 16.2062C1.68493 16.7275 1.69477 17.2587 1.75379 17.7801C1.84232 18.5178 2.08823 19.2162 2.60958 19.7572C3.35716 20.5442 4.56706 20.7409 5.63926 20.2195C7.05573 19.531 7.71479 18.3112 7.78364 16.7866C7.84266 15.4783 7.79348 14.17 7.79348 12.8617C7.80332 11.6617 7.80332 10.4518 7.80332 9.23202Z" fill="#3A2D52"/>
<path d="M68.4068 11.0124C68.4068 12.96 68.4166 14.9175 68.3969 16.8652C68.3871 17.7603 68.21 18.6456 67.8264 19.4719C67.2264 20.7408 66.2624 21.6064 64.8557 21.8917C63.4884 22.1671 62.1802 22.0392 60.9899 21.2523C60.0555 20.6326 59.5243 19.7276 59.2489 18.6653C59.0816 18.016 58.9439 17.3472 58.9439 16.6783C58.9144 12.8813 58.9046 9.07455 58.9439 5.27761C58.9538 3.97917 59.2587 2.72992 60.0653 1.66756C60.6752 0.86096 61.5014 0.329782 62.5146 0.133049C64.0393 -0.16205 65.4951 0.0150099 66.7247 1.04786C67.4723 1.6774 67.9248 2.52335 68.1412 3.46767C68.3084 4.18574 68.3773 4.94316 68.3969 5.69075C68.4363 7.46134 68.4068 9.24177 68.4068 11.0124ZM60.5571 11.0025C60.5571 12.783 60.5473 14.5732 60.567 16.3537C60.5768 16.9143 60.6358 17.475 60.7539 18.0259C60.9604 18.9505 61.4228 19.7375 62.3277 20.1703C62.9573 20.4752 63.6262 20.5047 64.3147 20.3867C65.3476 20.2194 65.987 19.5899 66.4099 18.6849C66.7936 17.8587 66.8427 16.9635 66.8427 16.0782C66.8427 12.4977 66.8034 8.927 66.7936 5.34646C66.7936 4.71692 66.6952 4.10705 66.4689 3.51685C66.1443 2.64139 65.5738 1.98234 64.659 1.71675C64.2164 1.58887 63.754 1.54952 63.272 1.60854C62.4064 1.70691 61.7769 2.11021 61.285 2.78894C60.7637 3.51685 60.5768 4.37264 60.5571 5.2481C60.5375 7.16624 60.5571 9.08438 60.5571 11.0025Z" fill="#3A2D52"/>
<path d="M79.197 21.6852C79.197 21.518 79.197 21.4098 79.197 21.2918C79.197 16.0882 79.2069 10.8945 79.1872 5.69088C79.1872 4.76624 79.1282 3.8416 78.7249 2.96614C78.4003 2.2579 77.8789 1.81525 77.151 1.64803C76.5412 1.51032 75.9214 1.56934 75.3214 1.79558C74.5246 2.10051 74.0426 2.70055 73.7377 3.44813C73.4131 4.2449 73.2852 5.09085 73.2852 5.95647C73.2951 11.0617 73.2852 16.1669 73.2852 21.2721C73.2852 21.4 73.2852 21.518 73.2852 21.6656C72.7442 21.6656 72.2229 21.6656 71.6622 21.6656C71.6622 21.5475 71.6622 21.4393 71.6622 21.3311C71.6622 14.4553 71.6622 7.58935 71.6523 0.713549C71.6523 0.398777 71.7409 0.280737 72.0556 0.320084C72.2917 0.339757 72.5376 0.339757 72.7737 0.320084C73.0688 0.290574 73.1869 0.38894 73.1672 0.693875C73.1377 1.09718 73.1573 1.49064 73.1573 1.93329C73.3541 1.68738 73.5115 1.47097 73.6787 1.2644C74.2984 0.516816 75.105 0.162698 76.0592 0.0643313C76.7576 -0.0143617 77.4166 0.0544945 78.0855 0.251227C78.9019 0.487306 79.5216 0.979138 79.9446 1.68738C80.4266 2.49398 80.6332 3.38911 80.7119 4.33343C80.9381 7.26475 80.8004 10.1961 80.8299 13.1175C80.8594 15.8423 80.8299 18.5769 80.8398 21.3016C80.8398 21.6066 80.7512 21.7049 80.4561 21.6852C80.0332 21.6656 79.6299 21.6852 79.197 21.6852Z" fill="#3A2D52"/>
<path d="M85.4932 8.7402C85.4932 11.3371 85.4932 13.9339 85.4932 16.521C85.4932 17.3964 85.6702 18.2325 86.0932 19.0195C86.5457 19.8654 87.2736 20.3081 88.1884 20.4163C88.877 20.5048 89.5655 20.4261 90.1852 20.0523C90.7853 19.6982 91.1591 19.167 91.405 18.5375C91.6902 17.8096 91.7788 17.0522 91.7788 16.2849C91.7886 11.0912 91.7788 5.90725 91.7788 0.713507C91.7788 0.310206 91.7788 0.310206 92.1919 0.310206C92.4968 0.310206 92.7919 0.310206 93.0969 0.310206C93.3034 0.310206 93.4116 0.379062 93.4116 0.615141C93.4018 5.85807 93.4215 11.101 93.392 16.3341C93.3821 17.5145 93.2248 18.6949 92.6149 19.7572C91.9165 20.9868 90.8935 21.7049 89.4868 21.9311C88.5819 22.0688 87.7064 22.0098 86.8703 21.7147C86.0538 21.4295 85.3653 20.9081 84.8735 20.1605C84.5292 19.6294 84.2833 19.0588 84.1259 18.449C84.0373 18.1145 83.9685 17.7702 83.939 17.4259C83.8898 16.9833 83.8701 16.5406 83.8701 16.098C83.8701 10.9731 83.8701 5.84823 83.8701 0.713507C83.8701 0.300369 83.8701 0.300369 84.2833 0.300369C84.5882 0.300369 84.8833 0.310205 85.1882 0.300369C85.4145 0.290532 85.503 0.369225 85.4932 0.605305C85.4833 1.37256 85.4932 2.13982 85.4932 2.90708C85.4932 4.86457 85.4932 6.80238 85.4932 8.7402Z" fill="#3A2D52"/>
<path d="M47.4157 15.7242C47.9272 15.7242 48.4289 15.7242 48.9601 15.7242C48.9601 16.0389 48.9404 16.3635 48.9601 16.6783C49.0093 17.4259 49.0781 18.1735 49.4126 18.8719C49.7962 19.6785 50.3962 20.2293 51.252 20.4261C52.2849 20.6622 53.2587 20.4654 54.0456 19.7277C54.5374 19.2654 54.8129 18.6456 54.9309 17.9866C55.167 16.7373 55.0686 15.5274 54.4391 14.3962C54.0554 13.7077 53.5341 13.1371 52.9144 12.6355C52.6291 12.3994 52.3635 12.1436 52.0881 11.8879C51.2028 11.0714 50.3077 10.2747 49.4519 9.42872C48.6158 8.60244 47.9764 7.62862 47.7305 6.45806C47.5338 5.54325 47.5043 4.60877 47.6911 3.67429C47.8387 2.91687 48.0846 2.21847 48.5568 1.58892C49.147 0.81183 49.9241 0.329835 50.8585 0.133102C51.7537 -0.053794 52.6488 -0.0636307 53.5538 0.231468C54.5079 0.546241 55.2162 1.11677 55.6982 1.99223C56.1802 2.87752 56.3572 3.85135 56.3769 4.84485C56.3867 5.24815 56.3769 5.65145 56.3769 6.07443C55.8359 6.07443 55.3145 6.07443 54.7539 6.07443C54.7539 5.67113 54.7539 5.26782 54.7539 4.86452C54.744 3.95955 54.5571 3.1136 53.9571 2.38569C53.6128 1.97255 53.18 1.72664 52.6783 1.62827C52.1471 1.52007 51.616 1.54958 51.0848 1.72664C50.1798 2.03157 49.6683 2.69063 49.4126 3.54641C49.1273 4.50057 49.1371 5.49407 49.4814 6.42855C49.6781 6.9794 50.0028 7.52041 50.3864 7.96306C50.9569 8.61228 51.6356 9.17297 52.275 9.773C53.2587 10.7075 54.2915 11.5928 55.2162 12.5863C55.9638 13.3929 56.4064 14.3864 56.5835 15.4979C56.7802 16.6882 56.731 17.8489 56.3375 18.9801C55.7965 20.5441 54.7145 21.5573 53.0816 21.8917C52.0586 22.0983 51.0258 22.0491 50.0519 21.6458C48.9109 21.1737 48.1928 20.308 47.7698 19.167C47.3665 18.0751 47.3665 16.9144 47.4157 15.7242Z" fill="#3A2D52"/>
<path d="M104.812 6.10393C104.271 6.10393 103.76 6.10393 103.199 6.10393C103.199 5.80883 103.189 5.51373 103.199 5.21863C103.228 4.56942 103.179 3.9202 102.943 3.31033C102.579 2.36601 101.96 1.7463 100.887 1.61843C99.8643 1.50039 99.0381 1.79549 98.3692 2.56274C97.9659 3.0349 97.8183 3.6251 97.7199 4.2153C97.6019 4.92354 97.6904 5.62194 97.8773 6.30066C98.0839 7.02858 98.4872 7.66796 99.0282 8.17946C100.022 9.13361 101.055 10.0386 102.058 10.9731C102.953 11.8092 103.868 12.6158 104.448 13.7273C104.783 14.3765 105.029 15.0454 105.078 15.7733C105.117 16.2652 105.156 16.7668 105.137 17.2587C105.058 18.6751 104.635 19.9736 103.543 20.9376C102.914 21.4983 102.176 21.8229 101.33 21.9409C100.336 22.0786 99.3823 22.0196 98.4577 21.636C97.5035 21.2425 96.8543 20.5244 96.4313 19.6096C95.8608 18.3801 95.8018 17.0619 95.8805 15.7143C96.3822 15.7143 96.874 15.7143 97.4248 15.7143C97.4248 15.9799 97.4248 16.2357 97.4248 16.5013C97.4445 17.2292 97.533 17.9374 97.7888 18.626C98.0839 19.4227 98.5954 20.0228 99.402 20.308C100.71 20.7704 102.363 20.4162 103.061 18.9604C103.533 17.9964 103.632 16.9537 103.445 15.8815C103.179 14.4257 102.314 13.3732 101.212 12.4682C100.937 12.242 100.681 11.9862 100.415 11.7403C99.7856 11.16 99.1561 10.5796 98.5364 9.97956C98.0642 9.51724 97.5921 9.06476 97.1888 8.55325C96.6576 7.88436 96.3231 7.10727 96.1756 6.26132C95.9002 4.69729 95.9985 3.18245 96.8642 1.80532C97.4347 0.890516 98.3101 0.329828 99.3627 0.133095C100.691 -0.122657 101.989 -0.0538005 103.13 0.801987C103.769 1.28398 104.183 1.92336 104.468 2.66111C104.861 3.78249 104.842 4.92354 104.812 6.10393Z" fill="#3A2D52"/>
<path d="M21.3191 6.10385C20.7879 6.10385 20.2666 6.10385 19.7157 6.10385C19.7157 5.75957 19.7354 5.43496 19.7157 5.11035C19.6567 4.23489 19.4895 3.38894 18.978 2.66103C18.555 2.061 17.9943 1.72655 17.2566 1.62818C16.6861 1.54949 16.1647 1.60851 15.6434 1.82492C14.7876 2.17903 14.3253 2.88727 14.1285 3.73322C13.9613 4.4513 13.8728 5.20872 13.8728 5.94646C13.8433 9.54667 13.8433 13.1469 13.8728 16.7471C13.8826 17.6619 14.0498 18.5669 14.5909 19.3538C15.063 20.0424 15.7122 20.4161 16.5582 20.4457C17.0402 20.4653 17.5025 20.4358 17.955 20.2391C18.7124 19.9046 19.1354 19.2751 19.4108 18.5275C19.6862 17.7799 19.7551 17.0127 19.7157 16.2257C19.7059 15.9602 19.7944 15.8716 20.0502 15.8913C20.3846 15.911 20.7191 15.9011 21.0437 15.8913C21.2503 15.8815 21.3388 15.9503 21.3388 16.1766C21.3486 17.3274 21.2404 18.4783 20.7486 19.5309C20.1486 20.849 19.1452 21.7146 17.6599 21.9507C16.8828 22.0687 16.1254 22.0392 15.368 21.8228C14.404 21.5474 13.6662 20.967 13.1449 20.1112C12.5252 19.0784 12.2891 17.9472 12.2793 16.7569C12.2596 13.1666 12.2202 9.58602 12.2301 5.99565C12.2301 4.91362 12.3186 3.83159 12.7219 2.79874C13.2924 1.34292 14.3154 0.369095 15.8598 0.103505C17.2172 -0.132574 18.5354 0.064159 19.6371 0.988802C20.1682 1.44129 20.5617 2.03149 20.8076 2.6807C21.2404 3.74306 21.3781 4.97264 21.3191 6.10385Z" fill="#3A2D52"/>
<path d="M31.3621 15.9011C31.8441 15.9011 32.3359 15.9011 32.8966 15.9011C32.8671 16.5208 32.8572 17.1209 32.7982 17.7307C32.7294 18.4685 32.513 19.1669 32.1785 19.8259C31.5982 20.9572 30.6637 21.6654 29.4341 21.931C28.4406 22.1376 27.4373 22.0785 26.4929 21.6752C25.5683 21.2818 24.8994 20.5834 24.4764 19.6784C24.1125 18.9111 23.8961 18.0947 23.8862 17.2389C23.8764 16.7471 23.8272 16.2552 23.8272 15.7536C23.8174 12.2616 23.8075 8.77941 23.8371 5.2874C23.8469 3.88076 24.1715 2.52331 25.0961 1.40193C25.647 0.742879 26.3651 0.310067 27.211 0.142844C28.5488 -0.122745 29.8374 -0.0145421 30.9785 0.821572C31.8342 1.45112 32.3359 2.33641 32.6113 3.34959C32.8572 4.23488 32.9163 5.14969 32.8474 6.09401C32.3556 6.09401 31.8539 6.09401 31.3326 6.09401C31.3031 5.66119 31.2834 5.21855 31.2342 4.78573C31.1457 3.90044 30.8998 3.05449 30.3096 2.37576C29.9948 2.0118 29.5521 1.78556 29.0701 1.66752C28.4799 1.52981 27.8996 1.54948 27.3291 1.75605C26.5126 2.05115 26.0208 2.67086 25.7749 3.45779C25.588 4.03815 25.4601 4.6677 25.4601 5.27757C25.4306 9.17287 25.4404 13.0583 25.4503 16.9536C25.4503 17.7603 25.6372 18.557 26.07 19.2554C26.5323 19.9932 27.211 20.3866 28.0963 20.4457C29.0013 20.5145 29.7882 20.2686 30.3981 19.5702C30.8604 19.039 31.067 18.3898 31.1752 17.7209C31.2736 17.1307 31.3031 16.5307 31.3621 15.9011Z" fill="#3A2D52"/>
</svg>
