<svg width="108" height="24" viewBox="0 0 108 24" fill="none" xmlns="http://www.w3.org/2000/svg">
<path d="M0.386719 8.82399L10.1935 8.82597L16.1567 8.82701V2.83105L0.386719 8.82399Z" fill="#FF9D28"/>
<path d="M16.1562 2.83128V24L23.6041 0L16.1562 2.83128Z" fill="#68C5ED"/>
<path d="M16.1565 8.82623L10.1934 8.8252L16.1565 23.999V8.82623Z" fill="#044D80"/>
<path d="M0.386719 8.82422L11.7227 12.7196L10.1935 8.82621L0.386719 8.82422Z" fill="#E54747"/>
<path d="M36.5119 18.4266C36.4254 18.5144 36.2813 18.6239 36.0798 18.7554C35.878 18.887 35.6154 19.0185 35.2914 19.1502C34.9674 19.2815 34.5712 19.3946 34.1034 19.49C33.6352 19.5847 33.099 19.6324 32.4942 19.6324C31.3277 19.6324 30.3196 19.4423 29.4701 19.0625C28.6202 18.6827 27.9183 18.1525 27.364 17.473C26.8095 16.7934 26.4029 15.9897 26.1437 15.0614C25.8844 14.1334 25.7549 13.114 25.7549 12.0031C25.7549 10.8926 25.8953 9.86563 26.1761 8.92296C26.4568 7.9802 26.878 7.16571 27.4396 6.47845C28.0013 5.79171 28.7033 5.25451 29.5457 4.86707C30.3881 4.48007 31.378 4.28613 32.5158 4.28613C33.0774 4.28613 33.585 4.33745 34.0386 4.43958C34.4923 4.54192 34.8881 4.6626 35.2267 4.80132C35.5648 4.94041 35.8457 5.08627 36.0691 5.23978C36.2922 5.39323 36.4614 5.52142 36.5768 5.62339C36.7063 5.74061 36.8178 5.87933 36.9116 6.03992C37.0051 6.20094 37.052 6.37633 37.052 6.56615C37.052 6.85868 36.9439 7.15084 36.728 7.44307C36.512 7.7356 36.2743 8.00597 36.0151 8.25425C35.8423 8.07887 35.6479 7.90009 35.4319 7.7172C35.2159 7.53452 34.9746 7.37394 34.7083 7.23485C34.4417 7.09613 34.1393 6.97928 33.801 6.88408C33.4625 6.78917 33.0846 6.74153 32.6671 6.74153C31.9326 6.74153 31.3171 6.89159 30.8202 7.19097C30.3234 7.49071 29.9238 7.88154 29.6214 8.36389C29.319 8.84623 29.103 9.39801 28.9734 10.0191C28.8438 10.6404 28.779 11.2725 28.779 11.9155C28.779 12.6026 28.8438 13.2603 28.9734 13.8885C29.1029 14.517 29.326 15.0725 29.643 15.5546C29.9595 16.0369 30.3737 16.4243 30.885 16.7165C31.3959 17.0091 32.0332 17.155 32.7967 17.155C33.1996 17.155 33.5706 17.104 33.9091 17.0017C34.2472 16.8995 34.5462 16.7751 34.8054 16.6287C35.0646 16.4829 35.2915 16.3296 35.4858 16.1686C35.6803 16.0078 35.8423 15.8692 35.9719 15.752C36.0583 15.8544 36.1588 15.9788 36.2743 16.1247C36.3903 16.2722 36.4984 16.4259 36.5983 16.5851C36.6989 16.7461 36.7853 16.9068 36.8575 17.0673C36.9294 17.2284 36.9654 17.3743 36.9654 17.5057C36.9654 17.6959 36.9294 17.8566 36.8575 17.9881C36.7852 18.1197 36.6701 18.266 36.5119 18.4266ZM47.6435 16.7452C47.6435 17.9069 47.8098 18.7524 48.1432 19.2817C47.8825 19.3844 47.6398 19.458 47.4152 19.5021C47.1905 19.5463 46.9552 19.5682 46.709 19.5682C46.1875 19.5682 45.7926 19.4653 45.5248 19.2595C45.2566 19.0539 45.0864 18.7598 45.0141 18.3773C44.6952 18.7158 44.2752 19.0024 43.7537 19.2377C43.2322 19.4725 42.5945 19.5905 41.8414 19.5905C41.4502 19.5905 41.0592 19.5354 40.668 19.4258C40.2767 19.3154 39.9217 19.1362 39.6031 18.8873C39.2843 18.6379 39.0236 18.3045 38.8208 17.8867C38.6178 17.4689 38.5166 16.9597 38.5166 16.3589C38.5166 15.6114 38.6939 15.0029 39.049 14.5341C39.4039 14.0649 39.8493 13.6949 40.3855 13.4236C40.9213 13.1527 41.5009 12.9662 42.124 12.8633C42.7467 12.7606 43.3192 12.6949 43.8406 12.6652C44.0146 12.6507 44.1846 12.6431 44.3513 12.6431H44.8185V12.2417C44.8185 11.6765 44.6698 11.275 44.373 11.0372C44.0759 10.7994 43.5941 10.6802 42.9279 10.6802C42.3049 10.6802 41.7507 10.7832 41.2655 10.9889C40.78 11.195 40.3056 11.43 39.8422 11.6947C39.6391 11.4448 39.4761 11.1692 39.3532 10.8677C39.2301 10.5665 39.1685 10.3422 39.1685 10.195C39.1685 9.98926 39.2806 9.79075 39.5054 9.59946C39.7298 9.40862 40.0378 9.23559 40.4289 9.08119C40.8202 8.92678 41.269 8.80206 41.7763 8.70626C42.2832 8.61077 42.8193 8.56291 43.3844 8.56291C44.1666 8.56291 44.8294 8.6439 45.3726 8.80552C45.9159 8.9675 46.3577 9.21733 46.6983 9.55536C47.0385 9.89384 47.2812 10.3163 47.4262 10.8236C47.5708 11.3309 47.6435 11.9229 47.6435 12.599L47.6435 16.7452ZM44.8618 14.1869H44.5577C44.4561 14.1869 44.3546 14.1945 44.2535 14.209C43.8911 14.2386 43.5325 14.2827 43.1778 14.3412C42.8227 14.4002 42.5075 14.5031 42.2326 14.6501C41.9572 14.7972 41.7327 14.9885 41.5589 15.2234C41.385 15.4588 41.2981 15.7604 41.2981 16.1278C41.2981 16.5396 41.4139 16.8886 41.6458 17.1754C41.8773 17.4621 42.2685 17.6055 42.8192 17.6055C43.0943 17.6055 43.3551 17.569 43.6016 17.4951C43.8477 17.4219 44.065 17.3262 44.2535 17.2086C44.4416 17.0909 44.5903 16.9623 44.699 16.8225C44.8076 16.6829 44.8619 16.5544 44.8619 16.4366L44.8618 14.1869ZM53.054 9.842C53.285 9.56287 53.6462 9.27962 54.1371 8.99283C54.6281 8.70612 55.2491 8.56276 56.0002 8.56276C56.5347 8.56276 57.0437 8.65472 57.5276 8.83843C58.0111 9.02243 58.4409 9.32026 58.8164 9.7317C59.192 10.1435 59.4916 10.6876 59.7156 11.3638C59.9394 12.0403 60.0514 12.8712 60.0514 13.856C60.0514 15.0028 59.9213 15.9478 59.6614 16.6901C59.4013 17.4329 59.0657 18.0211 58.6543 18.4547C58.2427 18.8884 57.7839 19.1935 57.2787 19.3699C56.7732 19.5463 56.2676 19.6347 55.7623 19.6347C55.3434 19.6347 54.9786 19.5868 54.6684 19.4913C54.3577 19.3955 54.0942 19.2893 53.8776 19.1715C53.661 19.0539 53.495 18.9365 53.3795 18.8185C53.2641 18.701 53.1917 18.62 53.1629 18.5758V23.9975H50.2075V8.87149C50.2802 8.85706 50.3678 8.84226 50.4703 8.82746C50.558 8.81303 50.6601 8.80191 50.7769 8.79432C50.8936 8.78711 51.0323 8.78335 51.1928 8.78335C51.6743 8.78335 52.0831 8.86435 52.4188 9.02596C52.7545 9.18795 52.9665 9.45979 53.054 9.842ZM56.9656 13.9221C56.9656 13.4811 56.9296 13.0696 56.8576 12.6871C56.7856 12.305 56.6668 11.9741 56.5011 11.6947C56.3354 11.4155 56.1119 11.1984 55.8312 11.0439C55.55 10.8896 55.2081 10.8125 54.805 10.8125C54.2 10.8125 53.7787 10.9303 53.5409 11.1653C53.3033 11.4007 53.1845 11.6581 53.1845 11.9373V16.613C53.2995 16.7309 53.5045 16.8703 53.7999 17.0321C54.0954 17.194 54.4373 17.2745 54.8264 17.2745C55.5611 17.2745 56.1013 16.9808 56.4471 16.3925C56.7928 15.8044 56.9656 14.9808 56.9656 13.9221ZM62.3324 17.7158C62.2308 17.4219 62.1657 17.1129 62.1368 16.7894C62.1076 16.4661 62.0933 16.1427 62.0933 15.8188V5.58525C62.1945 5.57082 62.3032 5.55602 62.4193 5.54115C62.5204 5.52672 62.6291 5.51575 62.7452 5.50809C62.861 5.50087 62.9768 5.49712 63.0928 5.49712C63.3244 5.49712 63.5564 5.51921 63.7883 5.56324C64.0198 5.60742 64.23 5.69562 64.4186 5.82786C64.6067 5.96017 64.7587 6.14049 64.8748 6.36823C64.9907 6.59633 65.0486 6.89417 65.0486 7.26143V8.82731H68.091V11.055H65.0486V15.7583C65.0486 16.7839 65.4615 17.2966 66.2874 17.2966C66.4901 17.2966 66.6819 17.2637 66.8632 17.1974C67.0442 17.1313 67.2072 17.0578 67.3522 16.9769C67.4969 16.8961 67.6238 16.8116 67.7325 16.7233C67.8411 16.635 67.9172 16.5689 67.9605 16.5248C68.1779 16.8485 68.3442 17.1287 68.4604 17.3651C68.5762 17.6018 68.6342 17.824 68.6342 18.0315C68.6342 18.2247 68.5583 18.414 68.406 18.5994C68.2538 18.7848 68.04 18.9558 67.7649 19.1115C67.4896 19.2672 67.1566 19.3934 66.7654 19.4899C66.3743 19.5864 65.9467 19.6347 65.4833 19.6347C64.5848 19.6347 63.8859 19.4582 63.3862 19.1054C62.8864 18.7524 62.5349 18.2892 62.3324 17.7158ZM75.576 17.429C75.9393 17.429 76.2592 17.3887 76.5356 17.3077C76.8117 17.2271 77.0588 17.1278 77.2769 17.0101C77.4948 16.8926 77.684 16.7639 77.844 16.6242C78.0038 16.4846 78.1491 16.3559 78.2803 16.2381C78.4545 16.4585 78.6361 16.7418 78.8252 17.0871C79.0142 17.4329 79.1087 17.7158 79.1087 17.9362C79.1087 18.2598 78.9275 18.5539 78.5656 18.8185C78.2613 19.0539 77.83 19.2561 77.2726 19.425C76.7147 19.5939 76.059 19.6786 75.306 19.6786C74.6247 19.6786 73.9548 19.5905 73.2959 19.414C72.6366 19.2376 72.0497 18.9288 71.5357 18.4876C71.0212 18.0467 70.6047 17.4549 70.2861 16.7123C69.9674 15.9698 69.8081 15.0327 69.8081 13.9002C69.8081 12.9738 69.9494 12.1764 70.2316 11.5072C70.5143 10.8383 70.8908 10.2832 71.362 9.84207C71.8324 9.40096 72.3648 9.07772 72.959 8.87156C73.5529 8.66591 74.1614 8.56283 74.7845 8.56283C75.5957 8.56283 76.2838 8.69176 76.8487 8.9488C77.4139 9.20621 77.8735 9.55182 78.2287 9.98543C78.5834 10.4192 78.8406 10.9154 79.0001 11.4741C79.1592 12.0331 79.2391 12.621 79.2391 13.2385V13.5473C79.2391 13.6652 79.2354 13.7899 79.2282 13.9222C79.2208 14.0546 79.2137 14.1835 79.2066 14.3081C79.1991 14.4334 79.1882 14.5325 79.1741 14.606H72.7634C72.8215 15.4147 73.0686 16.0873 73.5047 16.6242C73.9405 17.161 74.631 17.429 75.576 17.429ZM76.5662 12.9517C76.5662 12.246 76.4313 11.6726 76.1618 11.2315C75.8922 10.7904 75.4076 10.5698 74.7086 10.5698C74.1109 10.5698 73.6338 10.7794 73.277 11.1984C72.9198 11.6175 72.7416 12.2019 72.7416 12.9517L76.5662 12.9517ZM84.3822 9.89774C84.4689 9.76653 84.5848 9.62074 84.7298 9.46008C84.8744 9.29957 85.052 9.15371 85.2622 9.0225C85.4721 8.89122 85.7039 8.78159 85.9576 8.69411C86.2108 8.60657 86.4826 8.56283 86.7726 8.56283C86.9464 8.56283 87.1311 8.57763 87.3266 8.60657C87.5222 8.63587 87.7031 8.69065 87.8698 8.77062C88.0363 8.85095 88.1705 8.96014 88.2719 9.09871C88.3731 9.23728 88.424 9.40854 88.424 9.61257C88.424 9.93337 88.3442 10.3018 88.185 10.7177C88.0254 11.1341 87.8663 11.489 87.707 11.7829C87.4604 11.5772 87.2142 11.4191 86.968 11.3088C86.7216 11.1986 86.4319 11.1433 86.0988 11.1433C85.6497 11.1433 85.2731 11.2761 84.969 11.5414C84.6645 11.8067 84.5124 12.1238 84.5124 12.4924V19.6322H81.5572V8.87149C81.6295 8.85706 81.7164 8.84226 81.8179 8.82746C81.9048 8.81303 82.0061 8.80191 82.1221 8.79432C82.238 8.78711 82.3755 8.78335 82.535 8.78335C82.9985 8.78335 83.4005 8.87458 83.7411 9.05667C84.0812 9.23853 84.2952 9.51906 84.3822 9.89774ZM92.7846 9.89774C92.8715 9.76653 92.9873 9.62074 93.1323 9.46008C93.277 9.29957 93.4545 9.15371 93.6647 9.0225C93.8746 8.89122 94.1064 8.78159 94.3601 8.69411C94.6134 8.60657 94.885 8.56283 95.175 8.56283C95.3487 8.56283 95.5334 8.57763 95.729 8.60657C95.9245 8.63587 96.1056 8.69065 96.2723 8.77062C96.4388 8.85095 96.5727 8.96014 96.6745 9.09871C96.7756 9.23728 96.8265 9.40854 96.8265 9.61257C96.8265 9.93337 96.7466 10.3018 96.5875 10.7177C96.4277 11.1341 96.2686 11.489 96.1093 11.7829C95.863 11.5772 95.6165 11.4191 95.3705 11.3088C95.1241 11.1986 94.8344 11.1433 94.5013 11.1433C94.0522 11.1433 93.6755 11.2761 93.3713 11.5414C93.0671 11.8067 92.915 12.1238 92.915 12.4924V19.6322H89.9597V8.87149C90.032 8.85706 90.1189 8.84226 90.2205 8.82746C90.3074 8.81303 90.4087 8.80191 90.5247 8.79432C90.6404 8.78711 90.7779 8.78335 90.9374 8.78335C91.4011 8.78335 91.803 8.87458 92.1434 9.05667C92.4837 9.23853 92.6975 9.51906 92.7846 9.89774ZM106.888 16.7452C106.888 17.9069 107.054 18.7524 107.388 19.2817C107.127 19.3844 106.884 19.458 106.66 19.5021C106.435 19.5463 106.2 19.5682 105.954 19.5682C105.432 19.5682 105.037 19.4653 104.769 19.2595C104.501 19.0539 104.331 18.7598 104.258 18.3773C103.94 18.7158 103.52 19.0024 102.998 19.2377C102.477 19.4725 101.839 19.5905 101.086 19.5905C100.695 19.5905 100.304 19.5354 99.9123 19.4258C99.5212 19.3154 99.166 19.1362 98.8476 18.8873C98.5287 18.6379 98.268 18.3045 98.0652 17.8867C97.8623 17.4689 97.7611 16.9597 97.7611 16.3589C97.7611 15.6114 97.9382 15.0029 98.2935 14.5341C98.6483 14.0649 99.0939 13.6949 99.63 13.4236C100.166 13.1527 100.745 12.9662 101.368 12.8633C101.991 12.7606 102.564 12.6949 103.085 12.6652C103.259 12.6507 103.429 12.6431 103.596 12.6431H104.063V12.2417C104.063 11.6765 103.914 11.275 103.617 11.0372C103.32 10.7994 102.839 10.6802 102.172 10.6802C101.549 10.6802 100.995 10.7832 100.51 10.9889C100.024 11.195 99.5502 11.43 99.0866 11.6947C98.8837 11.4448 98.7205 11.1692 98.5977 10.8677C98.4745 10.5665 98.413 10.3422 98.413 10.195C98.413 9.98926 98.525 9.79075 98.7499 9.59946C98.9743 9.40862 99.2823 9.23559 99.6734 9.08119C100.065 8.92678 100.513 8.80206 101.021 8.70626C101.528 8.61077 102.064 8.56291 102.629 8.56291C103.411 8.56291 104.074 8.6439 104.617 8.80552C105.16 8.9675 105.602 9.21733 105.943 9.55536C106.283 9.89384 106.526 10.3163 106.671 10.8236C106.815 11.3309 106.888 11.9229 106.888 12.599V16.7452ZM104.106 14.1869H103.802C103.701 14.1869 103.599 14.1945 103.498 14.209C103.136 14.2386 102.777 14.2827 102.422 14.3412C102.067 14.4002 101.752 14.5031 101.477 14.6501C101.202 14.7972 100.977 14.9885 100.803 15.2234C100.63 15.4588 100.543 15.7604 100.543 16.1278C100.543 16.5396 100.658 16.8886 100.89 17.1754C101.122 17.4621 101.513 17.6055 102.064 17.6055C102.339 17.6055 102.6 17.569 102.846 17.4951C103.092 17.4219 103.309 17.3262 103.498 17.2086C103.686 17.0909 103.835 16.9623 103.943 16.8225C104.052 16.6829 104.106 16.5544 104.106 16.4366L104.106 14.1869Z" fill="#044D80"/>
</svg>
