<svg width="59" height="48" viewBox="0 0 59 48" fill="none" xmlns="http://www.w3.org/2000/svg">
<path d="M12.381 47.9999C12.3426 47.9999 12.2947 47.9904 12.2563 47.981L10.166 47.216C10.003 47.1593 9.90708 46.9987 9.92625 46.8287L10.5303 42.3143C10.5591 42.116 10.7413 41.9743 10.9427 42.0026C11.144 42.031 11.2879 42.2104 11.2591 42.4087L10.6934 46.6304L12.5152 47.2915C12.707 47.3576 12.8029 47.5654 12.7358 47.7543C12.6782 47.9054 12.5344 47.9999 12.381 47.9999Z" fill="#222222"/>
<path d="M14.6992 46.7535C14.6608 46.7535 14.6129 46.7441 14.5745 46.7346L12.4746 45.9696C12.3116 45.913 12.2157 45.7524 12.2348 45.5824L12.8389 41.068C12.8677 40.8696 13.0499 40.728 13.2513 40.7563C13.4526 40.7846 13.5965 40.9641 13.5677 41.1624L13.002 45.3841L14.8238 46.0452C15.0156 46.1113 15.1115 46.3191 15.0444 46.508C14.9868 46.6685 14.843 46.7535 14.6992 46.7535Z" fill="#222222"/>
<path d="M13.7895 26.4951C13.7895 26.4951 9.4074 28.2518 7.71977 33.569C6.03214 38.8862 5.18832 41.3796 1.52539 41.4457C1.52539 41.4457 9.55124 46.6968 18.6798 39.859C18.6798 39.859 27.3193 35.014 20.8181 26.8257L13.7895 26.4951Z" fill="#348BD1"/>
<g opacity="0.5">
<path d="M20.358 26.8256H16.8868C23.3785 35.0233 14.7485 39.8589 14.7485 39.8589C11.8527 42.0311 9.07193 42.9756 6.61719 43.2683C9.72397 43.6367 13.8376 43.1361 18.2197 39.8589C18.2197 39.8589 26.8496 35.0139 20.358 26.8256Z" fill="white"/>
</g>
<path d="M8.82172 43.8349C8.08338 43.8349 7.34504 43.7783 6.61629 43.6744C3.40403 43.2022 1.35202 41.8894 1.27531 41.8327L0 41.0016L1.51503 40.9733C2.34926 40.9544 3.02048 40.8127 3.57663 40.5199C4.11361 40.2366 4.55469 39.821 4.96701 39.2166C5.83 37.9416 6.49163 35.8449 7.26833 33.4272C7.67106 32.171 8.24639 30.9999 8.99432 29.9516C9.58882 29.111 10.2888 28.346 11.0847 27.6849C12.4367 26.5422 13.5682 26.0794 13.6161 26.0605L13.712 26.0227L21.0666 26.3721L21.2009 26.5421C23.2721 29.1583 24.0775 31.7272 23.5789 34.1733C23.3967 35.0799 23.0419 35.9583 22.5146 36.7988C22.0926 37.4599 21.5749 38.1022 20.9516 38.6972C19.9927 39.6227 19.1201 40.1516 18.9475 40.246C16.8188 41.8327 14.5654 42.9094 12.2545 43.4477C11.123 43.7027 9.97238 43.8349 8.82172 43.8349ZM3.06842 41.7099C3.94101 42.0877 5.22591 42.5316 6.78889 42.7583C8.55323 43.0133 10.3272 42.9283 12.0627 42.5316C14.2394 42.0216 16.3681 41.0016 18.3914 39.4905L18.4201 39.4716L18.4489 39.4527C18.4585 39.4433 19.3502 38.9427 20.3091 38.0077C20.8653 37.4694 21.3447 36.8838 21.7187 36.2888C22.1789 35.5522 22.4954 34.7683 22.6584 33.9844C23.0803 31.8688 22.3899 29.6116 20.5872 27.2788L13.8846 26.9577C13.6065 27.0899 12.7052 27.5338 11.6696 28.4121C10.9504 29.026 10.308 29.7344 9.76142 30.4994C9.08062 31.4627 8.54364 32.5394 8.17927 33.701C7.26833 36.5816 6.66423 38.4138 5.76288 39.7266C5.05331 40.7749 4.1999 41.4172 3.06842 41.7099Z" fill="#222222"/>
<path d="M20.9805 27.5528C21.7188 27.9211 26.1393 27.7511 26.1393 27.7511L23.4736 23.9828L21.6229 27.1561" fill="white"/>
<path d="M23.9338 28.2516C23.9051 28.2516 23.8667 28.2516 23.838 28.2516C21.6133 28.2516 21.0284 28.1005 20.7695 27.9683L21.201 27.1372C21.2202 27.1466 21.3353 27.1938 21.7668 27.2411L21.2106 26.9294L23.0613 23.7561C23.138 23.6144 23.2914 23.5294 23.4544 23.52C23.6174 23.5105 23.7708 23.5861 23.8667 23.7183L26.5324 27.4866C26.6283 27.6283 26.6475 27.8077 26.5708 27.9588C26.4941 28.11 26.3406 28.2138 26.168 28.2138C26.1489 28.2138 25.0941 28.2516 23.9338 28.2516ZM22.0928 27.2694C22.4859 27.2977 23.0421 27.3166 23.8284 27.3166C24.3462 27.3166 24.8448 27.3072 25.2475 27.2977L23.5119 24.8422L22.0928 27.2694Z" fill="#222222"/>
<path d="M11.8023 24.9459C11.8023 24.9459 8.00511 23.5387 9.7311 17.617C9.7311 17.617 10.1146 19.9309 11.6105 20.1576C11.6105 20.1576 10.3448 18.0043 12.4735 15.7281C12.4735 15.7281 11.9461 18.7315 15.3693 19.0715C15.3693 19.0715 16.4529 26.9198 11.8023 24.9459Z" fill="#FDB527"/>
<path d="M13.1647 25.7301C12.6948 25.7301 12.1866 25.6167 11.6305 25.3806C11.4962 25.324 10.499 24.9084 9.73187 23.7656C9.26202 23.0667 8.97435 22.2451 8.85929 21.3195C8.72504 20.1862 8.86888 18.9017 9.2812 17.4945C9.33873 17.2867 9.54009 17.1451 9.76064 17.1545C9.98118 17.164 10.1634 17.3245 10.2017 17.5417C10.2017 17.5417 10.2976 18.0801 10.5565 18.6278C10.6332 18.7884 10.7099 18.9301 10.7962 19.0623C10.7866 18.9867 10.7771 18.9112 10.7771 18.8356C10.7291 17.9951 10.9209 16.7201 12.1387 15.4167C12.2825 15.2656 12.503 15.2278 12.6948 15.3128C12.8866 15.4073 12.9921 15.6056 12.9537 15.8134C12.9537 15.8228 12.7811 16.8806 13.4044 17.6834C13.8167 18.2123 14.4975 18.524 15.4276 18.6184C15.6482 18.6373 15.8208 18.8073 15.8495 19.0151C15.8591 19.0623 16.0126 20.2051 15.9454 21.5273C15.8591 23.3973 15.3893 24.6628 14.5455 25.2862C14.1427 25.5884 13.6825 25.7301 13.1647 25.7301ZM11.9757 24.5117C11.9852 24.5117 11.9852 24.5117 11.9948 24.5212C12.8578 24.8895 13.5003 24.899 13.9701 24.5495C14.2866 24.3134 14.5359 23.8978 14.7181 23.3217C14.8715 22.8212 14.9674 22.1978 15.0057 21.4895C15.0441 20.6678 14.9961 19.9123 14.9578 19.4967C13.9414 19.3267 13.1743 18.9112 12.6565 18.2406C12.3688 17.8628 12.1962 17.4567 12.1003 17.079C11.8222 17.6173 11.6976 18.1651 11.7263 18.7412C11.7551 19.4401 12.0236 19.9123 12.0332 19.9406C12.1291 20.0917 12.1195 20.2901 12.014 20.4412C11.9085 20.5923 11.7263 20.6678 11.5442 20.6395C10.8538 20.5356 10.2784 20.0823 9.84694 19.3267C9.75105 19.9973 9.73187 20.6112 9.79899 21.1873C9.88529 21.9617 10.1154 22.6512 10.4894 23.2178C11.1127 24.1623 11.9373 24.4928 11.9757 24.5117Z" fill="#222222"/>
<path d="M18.0363 29.1203C21.1608 29.1203 23.6937 26.6255 23.6937 23.5481C23.6937 20.4706 21.1608 17.9758 18.0363 17.9758C14.9118 17.9758 12.3789 20.4706 12.3789 23.5481C12.3789 26.6255 14.9118 29.1203 18.0363 29.1203Z" fill="#348BD1"/>
<g opacity="0.5">
<path d="M17.6337 18.0612C19.6186 18.524 21.2774 20.0351 21.8048 22.1129C22.5719 25.0973 20.7405 28.129 17.7104 28.8846C17.3269 28.979 16.9433 29.0357 16.5693 29.0546C17.4323 29.2529 18.3529 29.2623 19.2638 29.0357C22.2939 28.2801 24.1253 25.2484 23.3582 22.264C22.687 19.6573 20.2514 17.9479 17.6337 18.0612Z" fill="white"/>
</g>
<path d="M18.0374 29.5834C16.3977 29.5834 14.8635 28.9601 13.7033 27.8173C12.543 26.6745 11.9102 25.1634 11.9102 23.5484C11.9102 21.9334 12.543 20.4223 13.7033 19.2795C14.8635 18.1368 16.3977 17.5134 18.0374 17.5134C19.6771 17.5134 21.2113 18.1368 22.3716 19.2795C23.5318 20.4223 24.1647 21.9334 24.1647 23.5484C24.1647 25.1634 23.5318 26.6745 22.3716 27.8173C21.2113 28.9601 19.6771 29.5834 18.0374 29.5834ZM18.0374 18.4484C16.6566 18.4484 15.3525 18.9773 14.3745 19.9407C13.3964 20.904 12.8595 22.1884 12.8595 23.5484C12.8595 24.9084 13.3964 26.1929 14.3745 27.1562C15.3525 28.1195 16.6566 28.6484 18.0374 28.6484C19.4182 28.6484 20.7223 28.1195 21.7003 27.1562C22.6784 26.1929 23.2154 24.9084 23.2154 23.5484C23.2154 22.1884 22.6784 20.904 21.7003 19.9407C20.7223 18.9773 19.4278 18.4484 18.0374 18.4484Z" fill="#222222"/>
<path d="M18.93 25.6166C19.7985 25.6166 20.5026 24.9231 20.5026 24.0677C20.5026 23.2123 19.7985 22.5188 18.93 22.5188C18.0615 22.5188 17.3574 23.2123 17.3574 24.0677C17.3574 24.9231 18.0615 25.6166 18.93 25.6166Z" fill="white"/>
<path d="M18.93 25.9284C17.8944 25.9284 17.041 25.0973 17.041 24.0678C17.041 23.0384 17.8848 22.2073 18.93 22.2073C19.9752 22.2073 20.819 23.0384 20.819 24.0678C20.819 25.0973 19.9752 25.9284 18.93 25.9284ZM18.93 22.8306C18.2396 22.8306 17.6739 23.3878 17.6739 24.0678C17.6739 24.7478 18.2396 25.3051 18.93 25.3051C19.6204 25.3051 20.1862 24.7478 20.1862 24.0678C20.1862 23.3878 19.6204 22.8306 18.93 22.8306Z" fill="#222222"/>
<path d="M19.2464 24.4175C19.5589 24.4175 19.8121 24.1681 19.8121 23.8603C19.8121 23.5526 19.5589 23.3031 19.2464 23.3031C18.934 23.3031 18.6807 23.5526 18.6807 23.8603C18.6807 24.1681 18.934 24.4175 19.2464 24.4175Z" fill="#222222"/>
<path d="M15.3503 31.5762C15.3503 31.5762 13.9887 26.1645 7.51627 29.045C1.04381 31.9256 1.63832 37.5828 1.63832 37.5828C1.63832 37.5828 1.10135 39.5284 3.93005 38.5556C6.75875 37.5828 7.70804 36.1095 7.70804 36.1095C7.70804 36.1095 5.14783 37.885 6.67245 38.9995C8.19707 40.1045 12.023 36.5912 12.023 36.5912C12.023 36.5912 9.85594 38.4328 11.7066 39.3773C13.5572 40.3217 16.7791 35.2312 15.3503 31.5762Z" fill="#348BD1"/>
<g opacity="0.5">
<path d="M9.55166 30.9055C11.9009 29.8666 13.579 29.9138 14.7584 30.3955C13.9146 28.9883 11.8817 27.071 7.4517 29.0449C0.979249 31.916 1.56417 37.5827 1.56417 37.5827C1.56417 37.5827 1.05596 39.4433 3.67371 38.6216C3.77919 36.931 4.60382 33.106 9.55166 30.9055Z" fill="white"/>
</g>
<path d="M12.1858 39.9437C11.9461 39.9437 11.7064 39.887 11.4858 39.7737C11.0735 39.5659 10.5749 39.1787 10.4886 38.5176C10.479 38.4704 10.479 38.4231 10.479 38.3759C10.3735 38.442 10.2776 38.5176 10.1721 38.5837C9.47216 39.037 8.82971 39.3487 8.28315 39.5187C7.49686 39.7548 6.85441 39.7076 6.38456 39.3581C5.89553 39.0087 5.74211 38.6026 5.71334 38.2815C5.25308 38.527 4.70651 38.7726 4.08324 38.9898C2.86546 39.4054 2.03123 39.3865 1.53261 38.9331C1.27372 38.697 1.13947 38.3665 1.12988 37.9604C1.12988 37.7904 1.14906 37.6392 1.16824 37.5448C1.14906 37.2048 1.11071 35.8637 1.7148 34.2204C2.11753 33.1342 2.73122 32.1426 3.52709 31.2642C4.51474 30.1781 5.79964 29.2904 7.33385 28.6009C9.63517 27.5809 11.5913 27.4392 13.1543 28.1948C15.12 29.1392 15.7337 31.1415 15.8104 31.4248C16.0693 32.0954 16.1939 32.832 16.1843 33.6254C16.1747 34.3431 16.0597 35.0798 15.8391 35.8165C15.4268 37.1859 14.6693 38.4515 13.8159 39.207C13.2597 39.6981 12.7036 39.9437 12.1858 39.9437ZM12.2529 37.0065C11.9557 37.2898 11.3803 37.932 11.4379 38.4137C11.4475 38.4892 11.4762 38.7159 11.9269 38.9426C12.1091 39.037 12.5118 39.1031 13.1734 38.5176C13.9022 37.8754 14.5542 36.7704 14.9186 35.5615C15.3309 34.1826 15.3309 32.832 14.909 31.7459C14.8994 31.727 14.8994 31.7081 14.8898 31.6892C14.8898 31.6892 14.7652 31.2076 14.4296 30.6504C13.9885 29.9137 13.4228 29.3754 12.7228 29.0448C11.4187 28.4309 9.74065 28.5726 7.70782 29.4698C6.29826 30.0931 5.12842 30.9054 4.23666 31.8781C3.5175 32.6526 2.97094 33.5404 2.60656 34.5131C1.9737 36.1754 2.09835 37.5259 2.09835 37.5448C2.10794 37.6015 2.09835 37.6581 2.08877 37.7148C2.06959 37.7998 2.02164 38.1304 2.17506 38.2626C2.25178 38.3287 2.59697 38.527 3.76681 38.1209C4.86952 37.7337 5.6654 37.2804 6.20237 36.8931C6.31744 36.742 6.45168 36.5909 6.59551 36.4398C6.99824 36.0242 7.40097 35.7504 7.42015 35.7315C7.60234 35.5992 7.85165 35.6181 8.01466 35.7787C8.17767 35.9298 8.20644 36.1754 8.09137 36.3642C8.0626 36.402 7.72699 36.9215 6.88318 37.5542C6.72976 37.7809 6.64346 37.9887 6.64346 38.1587C6.64346 38.272 6.67222 38.4326 6.94071 38.6309C7.3818 38.952 8.36944 38.6592 9.65435 37.8281C10.5557 37.252 11.3324 36.572 11.6009 36.3454C11.6488 36.2981 11.6872 36.2604 11.7064 36.2509C11.8981 36.0809 12.1954 36.0998 12.368 36.2887C12.5406 36.4776 12.531 36.7704 12.3392 36.9404C12.3392 36.9309 12.3009 36.9592 12.2529 37.0065Z" fill="#222222"/>
<path d="M48.289 17.3812C48.289 17.3812 43.111 19.3268 41.8357 12.5834C40.57 5.84009 45.5274 3.13897 45.5274 3.13897C45.5274 3.13897 46.8219 1.62786 47.5986 4.41397C48.3753 7.20009 47.7041 8.77731 47.7041 8.77731C47.7041 8.77731 47.7233 5.75509 49.4876 6.34064C51.2424 6.93564 50.5136 11.9318 50.5136 11.9318C50.5136 11.9318 52.067 16.4745 48.289 17.3812Z" fill="#ED1E24"/>
<path d="M46.6469 18.0989C45.9469 18.0989 45.1127 17.9667 44.2976 17.5133C42.8113 16.6917 41.8237 15.0578 41.373 12.6683C41.0758 11.0722 41.0854 9.55166 41.421 8.16333C41.6895 7.03944 42.1593 6.00055 42.8209 5.07499C43.8182 3.67722 44.9401 2.95944 45.2277 2.77999C45.4003 2.60055 45.9181 2.15666 46.5702 2.29833C47.2222 2.43999 47.7112 3.09166 48.0468 4.29111C48.2194 4.91444 48.3249 5.47166 48.3825 5.98166C48.6605 5.83055 49.0824 5.72666 49.6386 5.91555C50.1852 6.10444 50.5879 6.57666 50.8276 7.33222C51.0002 7.86111 51.0961 8.54111 51.1153 9.35333C51.144 10.4961 51.0194 11.5633 50.981 11.9033C51.1344 12.4039 51.681 14.5006 50.7797 16.1156C50.3002 16.975 49.5043 17.5417 48.4112 17.8156C48.2674 17.8722 47.5674 18.0989 46.6469 18.0989ZM46.3209 3.19555C46.1291 3.19555 45.9181 3.39388 45.8798 3.4411C45.8414 3.48833 45.8031 3.51666 45.7455 3.54499C45.7359 3.55444 44.5565 4.20611 43.5497 5.63222C42.9648 6.46333 42.5429 7.39833 42.3127 8.39944C42.0155 9.65555 42.0059 11.0344 42.284 12.4983C42.6771 14.6044 43.5113 16.0211 44.7387 16.7106C45.4003 17.0789 46.1578 17.23 47.0017 17.1639C47.6537 17.1167 48.1044 16.9467 48.114 16.9467C48.1331 16.9372 48.1523 16.9372 48.1715 16.9278C49.0249 16.72 49.6098 16.3139 49.9742 15.6717C50.7892 14.2172 50.0797 12.1017 50.0701 12.0733C50.0509 12.0072 50.0413 11.9317 50.0509 11.8656C50.0509 11.8561 50.2331 10.6283 50.1947 9.36277C50.1564 7.88944 49.8399 6.94499 49.3413 6.77499C49.0345 6.67111 48.8811 6.74666 48.7948 6.80333C48.6414 6.90722 48.5263 7.09611 48.44 7.33222C48.392 8.35222 48.1619 8.90944 48.1427 8.95666C48.0564 9.155 47.8359 9.26833 47.6249 9.23055C47.4044 9.18333 47.251 8.99444 47.251 8.77722C47.251 8.75833 47.2606 8.28611 47.366 7.72888C47.4044 7.52111 47.4619 7.33222 47.5195 7.16222C47.5386 6.52944 47.4715 5.64166 47.1647 4.54611C46.8387 3.38444 46.4839 3.22388 46.388 3.20499C46.3592 3.19555 46.34 3.19555 46.3209 3.19555Z" fill="#222222"/>
<path d="M53.2274 26.4952C53.1795 26.4952 53.1315 26.4857 53.0836 26.4669C52.9014 26.3913 52.8151 26.1835 52.8918 26.0041L53.6302 24.2757L50.1878 21.8391C50.0248 21.7257 49.9864 21.4991 50.1015 21.348C50.2165 21.1874 50.4467 21.1496 50.6001 21.263L54.2726 23.8696C54.4069 23.9641 54.4548 24.1435 54.3973 24.2946L53.5439 26.278C53.5055 26.4102 53.3713 26.4952 53.2274 26.4952Z" fill="#222222"/>
<path d="M49.7471 27.3356C49.6895 27.3356 49.632 27.3261 49.5841 27.2978C49.4115 27.2128 49.3348 26.9956 49.4306 26.8161L50.3032 25.1445L47.0526 22.4622C46.8992 22.3395 46.88 22.1128 47.0047 21.9617C47.1293 21.8106 47.3595 21.7917 47.5129 21.9145L50.984 24.7761C51.1087 24.88 51.147 25.0595 51.0703 25.2106L50.0731 27.1278C50.006 27.26 49.8813 27.3356 49.7471 27.3356Z" fill="#222222"/>
<path d="M39.7464 9.90119C39.7464 9.90119 44.2819 8.96619 48.6065 12.3851C52.9311 15.804 55.0022 17.3717 58.0227 15.4545C58.0227 15.4545 54.4173 24.049 43.1888 23.4162C43.1888 23.4162 33.4753 24.134 34.2041 13.9717L39.7464 9.90119Z" fill="#ED1E24"/>
<g opacity="0.5">
<path d="M34.5869 13.7168L37.406 11.8468C36.6773 22.009 46.3907 21.2912 46.3907 21.2912C49.9482 21.4896 52.7385 20.7718 54.896 19.6857C52.5755 21.6596 48.951 23.4729 43.5716 23.1613C43.5716 23.1613 33.8581 23.879 34.5869 13.7168Z" fill="white"/>
</g>
<path d="M44.3585 23.8978C43.9749 23.8978 43.5818 23.8883 43.1886 23.8695C42.9968 23.8789 41.99 23.9261 40.6955 23.69C39.8613 23.5389 39.0846 23.3028 38.375 22.9817C37.4833 22.585 36.697 22.0561 36.0449 21.4233C34.2806 19.695 33.5039 17.1733 33.7436 13.9339L33.7628 13.7261L39.5449 9.47612L39.6407 9.45723C39.6887 9.44779 40.8681 9.21167 42.5941 9.41001C43.6009 9.52334 44.5982 9.7689 45.5475 10.1278C46.7365 10.5811 47.8584 11.2139 48.8844 12.0261C50.8597 13.5845 52.5569 14.9256 53.9664 15.4922C54.6377 15.7661 55.2322 15.8606 55.8267 15.8039C56.4404 15.7378 57.0732 15.5017 57.754 15.0578L59.0006 14.2645L58.4348 15.615C58.3965 15.7095 57.4664 17.8817 55.1171 19.9972C53.7363 21.2345 52.1446 22.1978 50.3994 22.8495C48.5679 23.5483 46.5351 23.8978 44.3585 23.8978ZM43.1886 22.9533H43.2174C45.7009 23.095 48.0022 22.7833 50.0542 22.0183C51.6939 21.4139 53.1802 20.5167 54.4747 19.3645C55.6253 18.3445 56.4116 17.2867 56.9102 16.5122C55.8267 16.8711 54.7815 16.8145 53.6213 16.3517C52.1638 15.7567 50.6487 14.595 48.309 12.7533C47.3693 12.0072 46.3337 11.4217 45.2406 11.0061C44.368 10.6756 43.4571 10.4489 42.527 10.3356C41.2037 10.175 40.2257 10.2978 39.9188 10.345L34.645 14.2172C34.482 17.0789 35.1628 19.2889 36.6874 20.7811C37.2531 21.3383 37.9435 21.8011 38.7298 22.1506C39.3723 22.4339 40.0722 22.6511 40.8298 22.7928C42.1338 23.0383 43.1311 22.9628 43.1407 22.9628L43.1886 22.9533Z" fill="#222222"/>
<path d="M34.4803 14.6518C34.0872 15.3507 30.3955 17.5891 30.3955 17.5891L30.4722 13.0935L33.742 14.6802" fill="white"/>
<path d="M30.3955 18.0423C30.3188 18.0423 30.2421 18.0234 30.1654 17.9856C30.0215 17.9006 29.9256 17.7495 29.9352 17.5795L30.0119 13.0839C30.0119 12.9234 30.0982 12.7817 30.2325 12.7062C30.3667 12.6306 30.5393 12.6212 30.6832 12.6873L33.9529 14.2739L33.6749 14.8312C34.0009 14.5667 34.068 14.4628 34.0776 14.4439L34.8831 14.8878C34.7392 15.1334 34.3557 15.5678 32.553 16.7767C31.5845 17.4189 30.6544 17.9856 30.6448 17.9951C30.5681 18.0139 30.4818 18.0423 30.3955 18.0423ZM30.9229 13.8112L30.8749 16.7484C31.201 16.5406 31.6133 16.2762 32.0352 16.0023C32.6776 15.5773 33.1187 15.2562 33.416 15.0201L30.9229 13.8112Z" fill="#222222"/>
<path d="M40.4939 7.57782C40.4939 7.57782 42.8048 4.3856 38.1063 0.503932C38.1063 0.503932 39.0748 2.59116 37.9913 3.58282C37.9913 3.58282 37.8282 1.14615 34.8269 0.447266C34.8269 0.447266 36.9269 2.61004 34.3379 4.7256C34.3283 4.7256 37.8091 11.6862 40.4939 7.57782Z" fill="#FDB527"/>
<path d="M38.5942 9.33454C38.5559 9.33454 38.5079 9.33454 38.4696 9.33454C37.434 9.27788 36.3505 8.50343 35.2381 7.0301C34.4519 5.99121 33.9437 4.97121 33.9149 4.93343C33.819 4.74454 33.8669 4.51787 34.0395 4.37621C34.7491 3.8001 35.1231 3.17676 35.1614 2.5251C35.219 1.55232 34.4998 0.777873 34.4902 0.768429C34.3464 0.626762 34.3176 0.400095 34.4231 0.230095C34.5286 0.0506504 34.7299 -0.0343496 34.9313 0.0128726C36.6381 0.409539 37.5107 1.34454 37.9326 2.05287C37.971 2.11898 38.0093 2.1851 38.0381 2.25121C38.0381 2.1001 38.0285 1.93954 37.9997 1.76954C37.9038 1.18398 37.6833 0.702317 37.6833 0.702317C37.597 0.503984 37.6545 0.277317 37.8271 0.145095C37.9997 0.0128726 38.2394 0.0223171 38.4025 0.154539C39.5244 1.0801 40.349 2.05287 40.8764 3.0351C41.3079 3.84732 41.5188 4.67843 41.5284 5.49065C41.538 6.84121 40.9627 7.71954 40.886 7.83288C40.2243 8.83399 39.4572 9.33454 38.5942 9.33454ZM34.9121 4.82954C35.1135 5.19788 35.497 5.84954 35.9861 6.49176C36.9066 7.7101 37.7792 8.37121 38.5175 8.41843C38.5367 8.41843 38.5655 8.41843 38.5846 8.41843C39.1312 8.41843 39.6298 8.05954 40.1093 7.33232C40.1093 7.32288 40.1189 7.32288 40.1189 7.31343C40.138 7.2851 40.6271 6.55788 40.5983 5.44343C40.5791 4.77287 40.3873 4.09287 40.0326 3.41287C39.7641 2.91232 39.4093 2.42121 38.9586 1.9301C39.0161 2.6101 38.9011 3.3751 38.3162 3.91343C38.1819 4.03621 37.9901 4.07399 37.8271 4.00787C37.6641 3.94176 37.5491 3.79065 37.5395 3.61121C37.5395 3.58287 37.4819 3.05399 37.1271 2.46843C36.8299 1.98676 36.4176 1.60898 35.8998 1.32565C36.034 1.68454 36.1203 2.10954 36.1011 2.57232C36.034 3.39399 35.6409 4.14954 34.9121 4.82954Z" fill="#222222"/>
<path d="M37.7495 14.3337C40.2889 12.6502 40.9618 9.25792 39.2526 6.75679C37.5434 4.25566 34.0992 3.59284 31.5598 5.27634C29.0205 6.95984 28.3475 10.3522 30.0568 12.8533C31.766 15.3544 35.2102 16.0172 37.7495 14.3337Z" fill="#ED1E24"/>
<g opacity="0.5">
<path d="M38.2961 13.9717C39.3796 12.3189 39.5235 10.1467 38.4687 8.3145C36.9633 5.68894 33.5784 4.76339 30.9127 6.24617C30.5771 6.43506 30.2703 6.65228 29.9922 6.88839C30.462 6.17061 31.1141 5.55672 31.9195 5.10339C34.5852 3.62061 37.9701 4.54617 39.4755 7.17172C40.7892 9.47617 40.2426 12.3095 38.2961 13.9717Z" fill="white"/>
</g>
<path d="M34.6638 15.7189C34.2802 15.7189 33.8871 15.6811 33.5036 15.6056C31.931 15.3034 30.5694 14.4156 29.668 13.1028C28.7763 11.79 28.4502 10.2128 28.7571 8.66391C29.0639 7.11502 29.9653 5.77391 31.2981 4.88613C32.631 4.0078 34.2323 3.68669 35.8049 3.98891C37.3774 4.29113 38.739 5.17891 39.6404 6.49169C40.5322 7.80447 40.8582 9.38169 40.5513 10.9306C40.2445 12.4795 39.3431 13.8206 38.0103 14.7084C37.0035 15.3789 35.8432 15.7189 34.6638 15.7189ZM34.6446 4.80113C33.6474 4.80113 32.6693 5.09391 31.8159 5.65113C30.694 6.39725 29.9269 7.53058 29.668 8.84336C29.4091 10.1561 29.6776 11.4878 30.4351 12.5928C31.1926 13.6978 32.3433 14.4534 33.6762 14.7084C35.009 14.9634 36.361 14.6989 37.4829 13.9528C38.6048 13.2067 39.3719 12.0734 39.6308 10.7606C39.8897 9.4478 39.6212 8.11614 38.8637 7.01113C38.1062 5.90613 36.9555 5.15058 35.6227 4.89558C35.2967 4.82947 34.9706 4.80113 34.6446 4.80113Z" fill="#222222"/>
<path d="M35.0752 11.9669C35.7825 11.498 35.9699 10.5531 35.4938 9.85639C35.0177 9.15971 34.0584 8.97508 33.351 9.44401C32.6437 9.91295 32.4563 10.8579 32.9324 11.5545C33.4085 12.2512 34.3678 12.4359 35.0752 11.9669Z" fill="white"/>
<path d="M34.2216 12.5268C34.1065 12.5268 33.9819 12.5174 33.8668 12.489C33.3778 12.3946 32.9654 12.1207 32.6874 11.7146C32.1216 10.8835 32.3422 9.75015 33.186 9.18348C33.5983 8.90959 34.0873 8.81514 34.5764 8.90959C35.0654 9.00403 35.4777 9.27792 35.7558 9.68403C36.0339 10.0901 36.1298 10.5718 36.0339 11.0535C35.938 11.5351 35.6599 11.9413 35.2476 12.2151C34.9407 12.4229 34.586 12.5268 34.2216 12.5268ZM33.1956 11.384C33.3778 11.6485 33.6558 11.8374 33.9819 11.894C34.3079 11.9601 34.6339 11.894 34.9024 11.7146C35.1709 11.5351 35.3626 11.2613 35.4202 10.9401C35.4873 10.619 35.4202 10.2979 35.238 10.0335C35.0558 9.76903 34.7777 9.58014 34.4517 9.52348C34.1257 9.45737 33.7997 9.52348 33.5312 9.70292C32.9654 10.0713 32.812 10.8268 33.1956 11.384Z" fill="#222222"/>
<path d="M34.1918 11.5771C34.4422 11.4111 34.5085 11.0765 34.34 10.8299C34.1714 10.5832 33.8318 10.5179 33.5814 10.6839C33.3309 10.8499 33.2646 11.1844 33.4331 11.4311C33.6017 11.6778 33.9413 11.7431 34.1918 11.5771Z" fill="#222222"/>
<path d="M45.68 17.2865C45.68 17.2865 40.1856 16.5782 42.3144 10.0521C44.4431 3.52597 50.1197 3.4693 50.1197 3.4693C50.1197 3.4693 51.9799 2.74208 51.3279 5.56597C50.6758 8.38986 49.3142 9.45708 49.3142 9.45708C49.3142 9.45708 50.8005 6.79375 52.0662 8.1443C53.3319 9.49486 50.2731 13.5465 50.2731 13.5465C50.2731 13.5465 51.8552 11.2704 52.9867 12.9421C54.1182 14.6043 49.4484 18.2499 45.68 17.2865Z" fill="#ED1E24"/>
<g opacity="0.5">
<path d="M44.3852 11.7903C43.6085 14.1609 43.8386 15.7664 44.4523 16.8431C42.9756 16.1914 40.8565 14.4536 42.314 9.97698C44.4427 3.45086 50.1193 3.3942 50.1193 3.3942C50.1193 3.3942 51.9028 2.70475 51.3658 5.30197C49.7166 5.59475 46.0153 6.80364 44.3852 11.7903Z" fill="white"/>
</g>
<path d="M47.0045 17.9008C46.5155 17.9008 46.0456 17.8441 45.5949 17.7308C45.3073 17.6835 43.2553 17.3247 42.1142 15.5397C41.2033 14.123 41.1265 12.2246 41.8841 9.91076C42.3923 8.36187 43.1306 7.0302 44.0991 5.96298C44.8758 5.10353 45.7867 4.40465 46.8223 3.90409C48.3757 3.13909 49.7085 3.0352 50.0442 3.01631C50.2839 2.94076 50.9455 2.78964 51.4537 3.22409C51.9619 3.65853 52.077 4.45187 51.7893 5.6702C51.6455 6.29353 51.4633 6.84131 51.2715 7.31354C51.588 7.31354 52.0099 7.41742 52.4126 7.84242C52.8057 8.25798 52.9304 8.87187 52.777 9.64631C52.6715 10.1941 52.4318 10.8363 52.0578 11.5635C52.0003 11.6674 51.9427 11.7808 51.8852 11.8846C51.9331 11.8846 51.9811 11.8752 52.029 11.8752C52.6907 11.8752 53.1222 12.3191 53.3715 12.6874C53.7934 13.3108 53.6879 14.123 53.0646 14.973C52.4126 15.8702 51.2428 16.7391 49.9387 17.2869C49.2291 17.5797 48.5099 17.778 47.81 17.863C47.5319 17.8819 47.2634 17.9008 47.0045 17.9008ZM50.6003 3.83798C50.4661 3.83798 50.3318 3.87576 50.2935 3.8852C50.2455 3.90409 50.188 3.91353 50.1304 3.91353C50.1209 3.91353 48.7688 3.94187 47.1963 4.72576C46.2757 5.17909 45.4607 5.80242 44.7703 6.57687C43.9073 7.54965 43.2265 8.75854 42.7662 10.1752C42.095 12.2246 42.143 13.8585 42.9005 15.0391C43.8785 16.5597 45.7292 16.8147 45.7484 16.8147C45.7675 16.8147 45.7867 16.8241 45.8059 16.8241C46.9278 17.1074 48.2702 16.9658 49.5839 16.418C50.7441 15.9363 51.7605 15.1902 52.3167 14.4158C52.8249 13.7169 52.7098 13.3296 52.6044 13.1691C52.3263 12.763 52.0962 12.763 52.0194 12.763C51.5688 12.763 51.003 13.3296 50.7345 13.6791C50.6866 13.7452 50.6578 13.7924 50.6482 13.7924C50.4948 13.9908 50.2167 14.038 50.0058 13.8963C49.8044 13.7546 49.7469 13.4713 49.8907 13.2635C49.9003 13.2446 49.9291 13.2069 49.977 13.1502C50.1784 12.8763 50.7633 12.0358 51.2428 11.1102C51.914 9.78798 52.0962 8.8152 51.7318 8.42798C51.5112 8.19187 51.3482 8.18242 51.2332 8.20131C51.0702 8.2202 50.8688 8.32409 50.6674 8.49409C50.14 9.36298 49.6606 9.7502 49.6222 9.77854C49.4496 9.91076 49.2003 9.91076 49.0373 9.76909C48.8647 9.62743 48.8264 9.39131 48.9318 9.20243C48.9414 9.18354 49.1716 8.76798 49.5359 8.33354C49.6702 8.17298 49.8044 8.03131 49.9483 7.89909C50.2647 7.35131 50.6387 6.53909 50.8976 5.42465C51.1756 4.25353 50.9359 3.94187 50.8592 3.87576C50.7825 3.85687 50.6962 3.83798 50.6003 3.83798Z" fill="#222222"/>
</svg>
