<svg width="37" height="37" viewBox="0 0 37 37" fill="none" xmlns="http://www.w3.org/2000/svg">
<path d="M18.5 37C28.7173 37 37 28.7173 37 18.5C37 8.28273 28.7173 0 18.5 0C8.28273 0 0 8.28273 0 18.5C0 28.7173 8.28273 37 18.5 37Z" fill="#FF492C"/>
<path d="M26.5068 14.1709H23.347C23.4321 13.6751 23.7392 13.3976 24.3608 13.0831L24.9417 12.7871C25.9814 12.2543 26.5364 11.6512 26.5364 10.667C26.5364 10.0491 26.2959 9.56067 25.8186 9.20917C25.3413 8.85767 24.7789 8.68377 24.1203 8.68377C23.6108 8.67778 23.1106 8.82051 22.681 9.09448C22.2481 9.36088 21.9262 9.70497 21.7264 10.1342L22.6403 11.0518C22.9955 10.334 23.5098 9.98247 24.1869 9.98247C24.7604 9.98247 25.1119 10.2785 25.1119 10.6892C25.1119 11.0333 24.9417 11.3182 24.2831 11.6512L23.9094 11.8325C23.0991 12.2432 22.5367 12.7131 22.2111 13.2459C21.8855 13.7787 21.7264 14.4484 21.7264 15.2587V15.4807H26.5068V14.1709ZM26.085 16.9903H20.8532L18.2373 21.5191H23.4691L26.085 26.0516L28.7009 21.5191L26.085 16.9903Z" fill="white"/>
<path d="M18.6891 24.5417C15.3591 24.5417 12.647 21.8296 12.647 18.4996C12.647 15.1696 15.3591 12.4575 18.6891 12.4575L20.7574 8.13221C20.0763 7.99677 19.3835 7.92861 18.6891 7.92871C12.8505 7.92871 8.11816 12.661 8.11816 18.4996C8.11816 24.3382 12.8505 29.0705 18.6891 29.0705C20.9265 29.0747 23.1069 28.3643 24.9125 27.0429L22.6259 23.0765C21.5319 24.0215 20.1346 24.5415 18.6891 24.5417Z" fill="white"/>
</svg>
