<svg width="75" height="26" viewBox="0 0 75 26" fill="none" xmlns="http://www.w3.org/2000/svg">
<mask id="mask0_1534_6142" style="mask-type:luminance" maskUnits="userSpaceOnUse" x="0" y="0" width="75" height="26">
<path d="M75 0H0V26H75V0Z" fill="white"/>
</mask>
<g mask="url(#mask0_1534_6142)">
<path d="M35.2344 2.60632L35.1352 3.82714H34.6389C33.8449 3.82714 33.4314 4.47054 33.4314 5.08094V7.83603H32.0254V2.60632H33.3653L33.3983 3.26622C33.6795 2.82079 34.1758 2.60632 34.7713 2.60632H35.2344Z" fill="#002856"/>
<path d="M25.4258 7.81904H24.0031V5.06398C24.0031 4.48657 23.9535 3.76068 23.143 3.76068C22.3656 3.76068 22.0512 4.3216 22.0512 4.98149V7.81904H20.6287V2.60586H21.9355L21.9685 3.26576C22.2498 2.82033 22.7791 2.47388 23.54 2.47388C24.9626 2.47388 25.4092 3.49672 25.4092 4.55256V7.81904H25.4258Z" fill="#002856"/>
<path d="M20.0156 6.59851L19.9164 7.7863C19.569 7.88527 19.2713 7.90182 18.9074 7.90182C17.5675 7.90182 17.187 7.29141 17.187 6.07059V1.12134H18.6096V2.58961H20.0156L19.9164 3.81042H18.6096V5.97161C18.6096 6.4665 18.7419 6.73046 19.2547 6.73046C19.4698 6.73046 19.7179 6.71397 20.0156 6.59851Z" fill="#002856"/>
<path d="M16.7238 2.60632L16.6081 3.82714H16.2276C15.4336 3.82714 15.0366 4.47054 15.0366 5.08094V7.83603H13.614V2.60632H14.9539L14.9869 3.26622C15.2681 2.82079 15.7644 2.60632 16.3764 2.60632H16.7238Z" fill="#002856"/>
<path d="M7.22949 7.24193C6.27007 7.75336 5.31067 8.05029 4.03696 8.01732C1.70458 7.95132 0.017334 6.49951 0.017334 4.04142C0.017334 1.5833 1.72112 0.032537 4.0535 -0.00045791C5.22795 -0.0334529 6.2866 0.279999 7.11372 1.00589L6.12118 2.01223C5.60841 1.5668 4.86404 1.31934 3.95425 1.35233C2.49858 1.41832 1.60533 2.49066 1.58879 3.95894C1.57225 5.54269 2.54821 6.63152 4.07004 6.68104C4.78133 6.69753 5.29412 6.59855 5.74074 6.40054V4.7838H4.15275L4.25199 3.44751H7.22949V7.24193Z" fill="#002856"/>
<path d="M29.9572 4.61853C29.9076 3.95863 29.4113 3.54619 28.7331 3.56269C28.0384 3.59569 27.5917 4.04111 27.4925 4.61853H29.9572ZM31.3632 5.70736H27.476C27.5917 6.36725 28.1211 6.77971 28.7662 6.79619C29.4113 6.81268 29.7587 6.61472 30.2219 6.15281L31.1482 6.8622C30.4865 7.67056 29.7091 7.96749 28.7993 7.96749C27.2278 7.96749 26.0369 6.8622 26.0369 5.22894C26.0369 3.59569 27.2113 2.49036 28.7331 2.49036C30.4204 2.49036 31.3302 3.5132 31.3302 5.31142V5.70736H31.3632Z" fill="#002856"/>
<path d="M11.3652 5.54241H11.1667C10.505 5.54241 9.31406 5.5754 9.33059 6.26832C9.33059 7.25815 11.3652 6.94467 11.3652 5.75687V5.54241ZM12.7382 4.40408V7.81904H11.4976L11.4645 7.30761C11.084 7.78607 10.4554 7.95105 9.82686 7.95105C8.86744 7.95105 7.95761 7.47259 7.94108 6.36729C7.90802 4.63504 9.89299 4.50306 11.1502 4.50306H11.3983V4.45358C11.3983 3.87616 11.0178 3.56271 10.3065 3.56271C9.79374 3.56271 9.28094 3.76068 8.91703 4.12362L8.10651 3.29875C8.85091 2.70485 9.61179 2.47388 10.4389 2.47388C12.0103 2.47388 12.7382 3.21627 12.7382 4.40408Z" fill="#002856"/>
<path d="M34.5557 7.17641V6.92893H34.7211C34.8038 6.92893 34.903 6.94542 34.903 7.0444C34.903 7.17641 34.8038 7.17641 34.7046 7.17641H34.5557ZM34.5557 7.27538H34.7046L34.9196 7.62183H35.0519L34.8203 7.2589C34.9362 7.24241 35.0354 7.17641 35.0354 7.02791C35.0354 6.86293 34.9362 6.79698 34.7542 6.79698H34.4399V7.60535H34.5557V7.27538ZM34.7046 7.91877C35.085 7.91877 35.4158 7.62183 35.4158 7.20938C35.4158 6.81347 35.085 6.51648 34.7046 6.51648C34.3241 6.51648 33.9933 6.81347 33.9933 7.20938C33.9767 7.62183 34.3075 7.91877 34.7046 7.91877ZM34.1256 7.22587C34.1256 6.89596 34.3737 6.64849 34.7046 6.64849C35.0189 6.64849 35.2835 6.89596 35.2835 7.22587C35.2835 7.57232 35.0354 7.81979 34.7046 7.81979C34.3737 7.8033 34.1256 7.55583 34.1256 7.22587Z" fill="#002856"/>
<path d="M6.50102 16.8764V16.9259C6.50102 18.9056 5.01226 19.681 3.22576 19.681H1.70393V23.4754H0.579102V14.1543H3.24231C5.02881 14.1543 6.50102 14.9462 6.50102 16.8764ZM5.37618 16.9424V16.8929C5.37618 15.5731 4.58218 15.0782 3.32502 15.0782H1.72047V18.8066H3.30848C4.64835 18.7901 5.37618 18.1467 5.37618 16.9424Z" fill="#002856"/>
<path d="M6.81641 20.1594V20.0605C6.81641 17.9982 8.13974 16.563 10.0255 16.563C11.6135 16.563 13.1023 17.5198 13.1023 19.9615V20.3079H7.95778C8.00743 21.8587 8.75178 22.7165 10.1578 22.7165C11.2165 22.7165 11.8285 22.3206 11.9774 21.5287H13.0692C12.8376 22.898 11.6962 23.6239 10.1413 23.6239C8.20592 23.6074 6.81641 22.2546 6.81641 20.1594ZM10.0421 17.4538C8.93374 17.4538 8.18939 18.2127 8.00743 19.4336H12.0105C11.8947 18.0147 11.1669 17.4538 10.0421 17.4538Z" fill="#002856"/>
<path d="M14.061 20.1594V20.0605C14.061 17.9982 15.3844 16.563 17.2701 16.563C18.8581 16.563 20.3468 17.5198 20.3468 19.9615V20.3079H15.1858C15.2355 21.8587 15.9798 22.7165 17.3859 22.7165C18.4445 22.7165 19.0566 22.3206 19.2055 21.5287H20.2972C20.0656 22.898 18.9243 23.6239 17.3693 23.6239C15.434 23.6074 14.061 22.2546 14.061 20.1594ZM17.2701 17.4538C16.1618 17.4538 15.4174 18.2127 15.2189 19.4336H19.222C19.1393 18.0147 18.3949 17.4538 17.2701 17.4538Z" fill="#002856"/>
<path d="M22.8122 17.8827C23.2423 17.1073 23.8378 16.5794 25.0619 16.5299V17.5528C23.6889 17.6187 22.8122 18.0477 22.8122 19.7304V23.4753H21.7205V16.6619H22.8122V17.8827Z" fill="#002856"/>
<path d="M29.8247 23.4919H28.6833V14.1543H29.8247V23.4919Z" fill="#40B3E1"/>
<path d="M32.5058 17.7514C32.8201 17.108 33.581 16.5471 34.7058 16.5471C36.1284 16.5471 37.1209 17.3225 37.1209 19.3022V23.4925H36.0292V19.2197C36.0292 18.0153 35.5164 17.4874 34.4246 17.4874C33.4156 17.4874 32.5058 18.1309 32.5058 19.3517V23.4925H31.4141V16.6626H32.5058V17.7514Z" fill="#40B3E1"/>
<path d="M37.9968 21.3974H39.0555C39.1382 22.2057 39.5683 22.7172 40.6766 22.7172C41.7021 22.7172 42.1654 22.3707 42.1654 21.6283C42.1654 20.8859 41.636 20.6715 40.5608 20.4735C38.7743 20.1436 38.1788 19.6486 38.1788 18.4608C38.1788 17.1905 39.4195 16.5471 40.4947 16.5471C41.7187 16.5471 42.7939 17.042 42.9759 18.5268H41.9338C41.7849 17.7844 41.3548 17.4545 40.4947 17.4545C39.7007 17.4545 39.2044 17.8504 39.2044 18.4278C39.2044 19.0382 39.5518 19.2857 40.8089 19.5166C42.2315 19.7806 43.224 20.0941 43.224 21.5459C43.224 22.7832 42.3804 23.6245 40.7097 23.6245C39.0555 23.608 38.063 22.7832 37.9968 21.3974Z" fill="#40B3E1"/>
<path d="M44.2327 14.5171C44.2327 14.1212 44.547 13.7913 44.9605 13.7913C45.374 13.7913 45.6884 14.1047 45.6884 14.5006C45.6884 14.8966 45.374 15.2265 44.9605 15.2265C44.5635 15.2265 44.2327 14.9131 44.2327 14.5171ZM45.5229 23.4917H44.4312V16.6618H45.5229V23.4917Z" fill="#40B3E1"/>
<path d="M46.8794 23.8878H47.9877C48.1531 24.6797 48.7982 25.0756 49.9726 25.0756C51.3125 25.0756 52.1727 24.4322 52.1727 22.9639V21.9741C51.6599 22.7659 50.7998 23.2444 49.8569 23.2609C48.0538 23.2609 46.7305 21.9081 46.7305 20.0274V19.9284C46.7305 18.0807 48.0373 16.5299 49.9231 16.5299C51.0644 16.5299 51.7757 17.0743 52.1562 17.7507V16.6619H53.2313V23.0299C53.2148 25.0096 51.875 25.983 49.9561 25.983C47.9546 25.9995 47.0613 25.0426 46.8794 23.8878ZM52.2058 19.9614V19.8624C52.2058 18.3282 51.3622 17.4372 50.0388 17.4372C48.6824 17.4372 47.8718 18.4436 47.8718 19.8789V19.9779C47.8718 21.4626 48.8313 22.3535 49.9892 22.3535C51.2464 22.37 52.2058 21.4791 52.2058 19.9614Z" fill="#40B3E1"/>
<path d="M56.0608 17.7512C56.375 17.1078 57.136 16.5469 58.2608 16.5469C59.6668 16.5469 60.6758 17.3223 60.6758 19.302V23.4923H59.5839V19.2195C59.5839 18.0152 59.0713 17.4873 57.9796 17.4873C56.9706 17.4873 56.0608 18.1307 56.0608 19.3515V23.4923H54.969V13.3959H56.0608V17.7512Z" fill="#40B3E1"/>
<path d="M62.4287 21.7924V17.5856H61.4529V16.6617H62.4287V15.111H63.5207V16.6617H65.1251V17.5856H63.5207V21.6935C63.5207 22.3534 63.8187 22.6833 64.3644 22.6833C64.6458 22.6833 64.9432 22.6338 65.2081 22.5348V23.4422C64.9101 23.5412 64.596 23.5907 64.2814 23.5907C63.0248 23.5907 62.4287 22.8483 62.4287 21.7924Z" fill="#40B3E1"/>
<path d="M65.7368 21.3974H66.7956C66.8785 22.2057 67.3087 22.7172 68.4001 22.7172C69.4423 22.7172 69.889 22.3707 69.889 21.6283C69.889 20.8859 69.3593 20.6715 68.2845 20.4735C66.4976 20.1436 65.9021 19.6486 65.9021 18.4608C65.9021 17.1905 67.1428 16.5471 68.2182 16.5471C69.4423 16.5471 70.5176 17.042 70.6995 18.5268H69.6573C69.492 17.7844 69.0785 17.4545 68.2182 17.4545C67.4242 17.4545 66.9277 17.8504 66.9277 18.4278C66.9277 19.0382 67.2755 19.2857 68.5328 19.5166C69.9554 19.7806 70.9478 20.0941 70.9478 21.5459C70.9478 22.7832 70.1041 23.6245 68.4332 23.6245C66.779 23.608 65.8032 22.7832 65.7368 21.3974Z" fill="#40B3E1"/>
<path d="M71.8574 22.0232H73.0981V22.2707H72.6348V23.673H72.3207V22.2707H71.8574V22.0232Z" fill="#002856"/>
<path d="M74.1565 23.1622L74.5866 22.0404H75.0002V23.6902H74.6855V22.4364L74.1896 23.6902H74.0901L73.5942 22.4364V23.6902H73.3127V22.0404H73.7263L74.1565 23.1622Z" fill="#002856"/>
</g>
</svg>
