<svg width="54" height="64" viewBox="0 0 54 64" fill="none" xmlns="http://www.w3.org/2000/svg">
<path d="M53.8259 2.14652L26.7582 0L0.188574 2.05005C0.188574 2.05005 0 8.07959 0 15.5466C0 53.8077 26.9226 64 26.9226 64C26.9226 64 54 53.9041 54 15.6431C54 8.17606 53.8114 2.13687 53.8114 2.13687" fill="#ED1C24"/>
<path d="M27.8718 24.4366C22.6111 24.4366 17.8387 26.2117 15.8901 27.0462C15.712 26.5821 15.7 26.0709 15.8562 25.5991C16.0778 25.5762 16.2823 25.4699 16.428 25.3018C16.5737 25.1337 16.6497 24.9165 16.6405 24.6944C16.6312 24.4724 16.5374 24.2622 16.3782 24.1067C16.219 23.9513 16.0064 23.8622 15.7837 23.8578C15.7419 23.8528 15.6997 23.8528 15.658 23.8578L15.5178 23.8867L15.3824 23.9398L15.3292 23.9639L15.2325 24.0411L15.1406 24.1182C14.8505 24.3932 13.9753 25.4013 14.4878 27.3018C14.3304 27.3764 14.1922 27.4861 14.0841 27.6224C13.9759 27.7588 13.9007 27.9181 13.8641 28.0881C13.7358 28.0134 13.5924 27.9682 13.4444 27.9557C13.2963 27.9432 13.1474 27.9637 13.0083 28.0157C12.8452 28.0902 12.7026 28.2027 12.5923 28.3437C12.4821 28.4848 12.4075 28.6502 12.3748 28.8261C12.2469 28.7465 12.1026 28.6969 11.9527 28.681C11.8027 28.6651 11.6511 28.6834 11.5093 28.7345C11.3436 28.8096 11.1993 28.9248 11.0895 29.0697C10.9797 29.2146 10.908 29.3845 10.8808 29.5641C10.7543 29.4793 10.6096 29.4254 10.4583 29.407C10.3071 29.3886 10.1536 29.406 10.0104 29.458C9.84341 29.536 9.69926 29.6555 9.59175 29.805C9.48424 29.9545 9.41696 30.129 9.39633 30.3118C9.27012 30.219 9.12319 30.1582 8.9682 30.1347C8.81321 30.1112 8.65481 30.1256 8.50665 30.1767C7.9506 30.3986 7.73301 31.2138 8.02313 31.9952C8.31324 32.7767 8.99017 33.2301 9.5704 33.0034C9.72324 32.9342 9.8566 32.8284 9.95866 32.6954C10.0607 32.5625 10.1283 32.4065 10.1555 32.2412C10.2885 32.3499 10.4472 32.4228 10.6164 32.4532C10.7856 32.4836 10.9598 32.4704 11.1225 32.4149C11.2714 32.3445 11.402 32.2409 11.5043 32.1121C11.6066 31.9833 11.6778 31.8327 11.7124 31.672C11.8488 31.7746 12.0086 31.8416 12.1775 31.8669C12.3464 31.8921 12.5189 31.8749 12.6795 31.8168C12.8276 31.7484 12.9581 31.6473 13.0612 31.5211C13.1642 31.3949 13.2371 31.2469 13.2742 31.0884C13.413 31.1862 13.5736 31.2488 13.7421 31.2706C13.9107 31.2925 14.082 31.273 14.2412 31.2138C14.3877 31.1479 14.5178 31.0507 14.6222 30.929C14.7267 30.8072 14.803 30.664 14.8457 30.5096C14.9837 30.5971 15.1399 30.6521 15.3024 30.6705C15.4649 30.6889 15.6295 30.6701 15.7837 30.6157C15.8381 30.5941 15.89 30.5666 15.9384 30.5337C16.0929 30.9947 16.0635 31.4974 15.8562 31.9373H15.8272C15.7092 31.9315 15.5913 31.9494 15.4804 31.99C15.3696 32.0306 15.268 32.093 15.1818 32.1736C15.0956 32.2542 15.0266 32.3512 14.9788 32.459C14.931 32.5667 14.9055 32.683 14.9037 32.8008C14.9017 32.952 14.9398 33.101 15.0141 33.2327C15.0884 33.3645 15.1963 33.4744 15.3268 33.5512C15.4573 33.6281 15.6059 33.6692 15.7574 33.6704C15.9089 33.6716 16.0581 33.6328 16.1898 33.5581H16.2527C16.8082 33.1821 17.1937 32.6036 17.3261 31.947C17.4762 31.234 17.4209 30.4931 17.1666 29.8101C19.5474 29.1301 22.0106 28.7795 24.4871 28.7682C27.0833 28.7195 29.6639 29.1784 32.0833 30.1188C32.8763 28.7923 34.2156 28.1411 35.1972 28.6717C36.1787 29.2023 36.4205 30.8038 35.7484 32.2605L37.199 33.7076H45.9363V33.5243C45.9363 32.1158 42.7934 24.8418 27.8573 24.4366" fill="white"/>
<path d="M27.7642 36.9056H27.5031C24.1184 36.9056 19.8344 38.3189 18.0115 38.9894C17.8556 38.6038 17.8368 38.1765 17.9583 37.7787C18.1461 37.7576 18.3188 37.6661 18.4414 37.5228C18.5641 37.3794 18.6275 37.1949 18.6189 37.0067C18.6103 36.8184 18.5303 36.6404 18.3951 36.5088C18.2598 36.3772 18.0795 36.3018 17.8906 36.2978C17.8552 36.2948 17.8197 36.2948 17.7843 36.2978C17.7441 36.2933 17.7036 36.2933 17.6634 36.2978C17.6263 36.3102 17.5907 36.3263 17.557 36.3461H17.5038L17.4168 36.4136L17.3491 36.4763C17.0251 36.7754 16.353 37.6243 16.8317 39.2161C16.8012 39.2128 16.7704 39.2128 16.7399 39.2161C16.6059 39.2765 16.4875 39.3665 16.3937 39.4793C16.2999 39.5922 16.233 39.7249 16.1983 39.8673C16.0817 39.8216 15.9566 39.8014 15.8315 39.808C15.7063 39.8147 15.5841 39.8481 15.473 39.9059C15.338 39.9672 15.2189 40.0587 15.125 40.1733C15.0311 40.2879 14.9649 40.4225 14.9315 40.5668C14.8243 40.5084 14.7057 40.4738 14.5838 40.4655C14.4619 40.4572 14.3397 40.4753 14.2255 40.5185C14.0874 40.5804 13.9666 40.6753 13.8738 40.7947C13.7811 40.9142 13.7192 41.0545 13.6937 41.2035C13.587 41.1355 13.466 41.0931 13.3401 41.0797C13.2143 41.0663 13.087 41.0822 12.9684 41.1263C12.8307 41.1902 12.7115 41.2879 12.6219 41.4102C12.5322 41.5325 12.4751 41.6755 12.4558 41.8257C12.3606 41.7536 12.2496 41.705 12.1319 41.6838C12.0142 41.6626 11.8931 41.6695 11.7786 41.7038C11.6641 41.7381 11.5593 41.7989 11.4728 41.8813C11.3863 41.9637 11.3205 42.0653 11.2809 42.1779C11.1434 42.5333 11.1434 42.927 11.2809 43.2825C11.5275 43.9433 12.127 44.334 12.6009 44.1411C12.7272 44.082 12.8372 43.9931 12.9214 43.8822C13.0056 43.7713 13.0616 43.6416 13.0844 43.5044C13.1972 43.592 13.33 43.6502 13.471 43.6738C13.612 43.6974 13.7566 43.6856 13.8919 43.6394C14.0151 43.5812 14.123 43.495 14.207 43.3878C14.2909 43.2806 14.3486 43.1554 14.3754 43.022C14.4899 43.1045 14.6227 43.1581 14.7625 43.1782C14.9023 43.1984 15.0448 43.1845 15.1781 43.1378C15.2977 43.0808 15.4031 42.998 15.4868 42.8954C15.5704 42.7928 15.6301 42.6729 15.6616 42.5444C15.777 42.6192 15.9082 42.6663 16.0449 42.6822C16.1816 42.6981 16.3202 42.6823 16.4497 42.6361C16.5665 42.5788 16.6699 42.4977 16.7532 42.398C16.8365 42.2982 16.8978 42.1822 16.9333 42.0573C17.0497 42.1279 17.1805 42.1715 17.3161 42.1848C17.4517 42.1982 17.5886 42.181 17.7166 42.1344C17.7896 42.102 17.858 42.0598 17.9197 42.009C18.0131 42.3108 18.0029 42.635 17.8906 42.9303C17.7814 42.905 17.6679 42.9046 17.5585 42.9292C17.4491 42.9537 17.3467 43.0026 17.2589 43.0722C17.1711 43.1417 17.1002 43.2302 17.0515 43.3309C17.0027 43.4316 16.9774 43.542 16.9774 43.6539C16.9774 43.7657 17.0027 43.8761 17.0515 43.9769C17.1002 44.0776 17.1711 44.166 17.2589 44.2356C17.3467 44.3052 17.4491 44.354 17.5585 44.3786C17.6679 44.4032 17.7814 44.4028 17.8906 44.3774C18.0128 44.3737 18.1322 44.3406 18.2388 44.281H18.2871C18.7436 43.9595 19.0601 43.4765 19.172 42.9303C19.2927 42.4172 19.2658 41.8806 19.0946 41.382C21.1127 40.7784 23.206 40.4617 25.3127 40.4413C27.0226 40.3981 28.7248 40.683 30.3269 41.2807C31.0909 40.0603 32.3432 39.4766 33.228 39.9783C34.1129 40.4799 34.374 41.8257 33.8711 43.1378L35.2298 44.3774H42.2554V44.2182C42.2554 43.0895 39.7363 37.2626 27.7497 36.9201" fill="white"/>
<path d="M27.4929 47.754H27.3721C24.9887 47.7976 22.6348 48.2885 20.4335 49.2011L20.2449 49.2686C20.1601 49.1148 20.1109 48.944 20.1009 48.7687C20.0908 48.5934 20.1202 48.4181 20.1869 48.2557C20.3527 48.2355 20.5044 48.1528 20.6108 48.0245C20.7173 47.8961 20.7705 47.732 20.7593 47.5658C20.7482 47.3996 20.6736 47.2439 20.5509 47.1309C20.4282 47.0179 20.2668 46.956 20.0999 46.9581C20.071 46.9546 20.0417 46.9546 20.0128 46.9581C19.9758 46.9546 19.9386 46.9546 19.9016 46.9581L19.8146 46.9919H19.7759L19.6937 47.0498L19.626 47.1125C19.4181 47.3054 18.7895 48.0338 19.1812 49.4037C19.0752 49.4508 18.9814 49.5212 18.9069 49.6098C18.8323 49.6984 18.779 49.8028 18.7508 49.915C18.6648 49.8708 18.5705 49.845 18.4739 49.8392C18.3774 49.8333 18.2806 49.8477 18.1899 49.8812C18.0819 49.9291 17.9867 50.0016 17.912 50.093C17.8372 50.1843 17.785 50.2919 17.7596 50.407C17.6744 50.3586 17.5797 50.3292 17.482 50.3209C17.3844 50.3125 17.286 50.3255 17.1939 50.3588C17.0861 50.4088 16.9915 50.4833 16.9176 50.5763C16.8437 50.6692 16.7926 50.7781 16.7684 50.8942C16.6836 50.8428 16.5883 50.811 16.4896 50.801C16.3909 50.791 16.2912 50.803 16.1978 50.8363C16.0889 50.8873 15.9941 50.9641 15.9216 51.0599C15.8492 51.1557 15.8012 51.2677 15.782 51.3862C15.698 51.3289 15.6013 51.2929 15.5002 51.2811C15.3991 51.2694 15.2967 51.2822 15.2018 51.3187C15.1198 51.3528 15.0457 51.4034 14.9842 51.4673C14.9226 51.5312 14.8749 51.607 14.8439 51.6901C14.7304 51.9801 14.7304 52.3021 14.8439 52.5921C15.047 53.1324 15.5354 53.4555 15.9319 53.2915C16.0304 53.2473 16.1172 53.1806 16.1852 53.0968C16.2532 53.013 16.3006 52.9145 16.3235 52.8092C16.4139 52.8742 16.5187 52.9166 16.629 52.9325C16.7393 52.9485 16.8518 52.9376 16.9569 52.9008C17.0551 52.8553 17.1417 52.7883 17.2104 52.7048C17.279 52.6213 17.3279 52.5234 17.3534 52.4185C17.4372 52.4811 17.5348 52.5229 17.638 52.5404C17.7412 52.5578 17.8471 52.5505 17.9469 52.5189C18.0467 52.4872 18.1375 52.4323 18.2117 52.3586C18.286 52.285 18.3415 52.1947 18.3737 52.0953C18.4649 52.1548 18.569 52.192 18.6774 52.2037C18.7858 52.2154 18.8955 52.2014 18.9974 52.1628C19.093 52.1209 19.1786 52.0592 19.2487 51.9819C19.3187 51.9046 19.3715 51.8134 19.4036 51.7142C19.4966 51.7678 19.6005 51.7999 19.7076 51.8082C19.8146 51.8166 19.9222 51.8009 20.0225 51.7624C20.0651 51.7464 20.1057 51.7253 20.1434 51.6997C20.2255 51.9754 20.2067 52.2712 20.0902 52.5342C19.9171 52.5342 19.751 52.6028 19.6286 52.725C19.5062 52.8471 19.4374 53.0127 19.4374 53.1854C19.4374 53.3581 19.5062 53.5238 19.6286 53.6459C19.751 53.768 19.9171 53.8366 20.0902 53.8366C20.1954 53.8343 20.2983 53.8062 20.39 53.7546L20.4383 53.7305C20.6381 53.5992 20.8097 53.4298 20.9433 53.2319C21.077 53.034 21.1699 52.8116 21.2168 52.5776C21.328 52.1219 21.3011 51.6434 21.1394 51.2029C22.6518 50.7569 24.2188 50.5216 25.7958 50.5035C26.9146 50.4736 28.0302 50.6368 29.0934 50.9858C29.7413 50.0211 30.7471 49.6111 31.482 50.0211C32.217 50.4311 32.4491 51.5068 32.0719 52.5776L33.0777 53.4266H38.3964V53.2626C38.3964 52.1339 36.4623 47.9566 27.4929 47.7492" fill="white"/>
<path d="M26.9235 17.1576C23.8822 17.1576 21.4984 16.6463 21.4984 15.9855C21.4984 15.1799 24.2206 14.8134 26.9235 14.8134C29.5297 14.8134 32.3438 15.1848 32.3438 15.9855C32.3438 16.6463 29.9601 17.1576 26.9235 17.1576ZM34.9984 7.23542C34.8477 7.16199 34.6826 7.12247 34.5149 7.11965C34.2846 7.12179 34.0598 7.19032 33.8676 7.31698C33.6754 7.44364 33.5241 7.62304 33.4318 7.83355C33.3641 7.98577 33.3264 8.14951 33.3206 8.31591L32.6775 8.5571L33.1078 9.78712C32.6243 10.6795 32.0247 11.567 31.6572 12.0735C30.4843 11.7091 29.2716 11.4872 28.0453 11.4127C27.968 10.9834 27.7117 9.48323 27.5618 8.06026L28.4611 7.13895L27.9776 6.63246C28.0535 6.46858 28.0914 6.28973 28.0885 6.10922C28.0856 5.92871 28.0419 5.75119 27.9607 5.58984C27.8795 5.4285 27.7629 5.28749 27.6195 5.1773C27.4762 5.0671 27.3098 4.99057 27.1327 4.95338C26.9556 4.91618 26.7724 4.9193 26.5967 4.96248C26.421 5.00566 26.2573 5.0878 26.1178 5.20279C25.9783 5.31779 25.8665 5.46268 25.7909 5.62668C25.7153 5.79069 25.6777 5.9696 25.6809 6.1501C25.6804 6.31573 25.7133 6.47977 25.7776 6.63246L25.2941 7.13895L26.1886 8.06026C26.0629 9.44464 25.7873 10.9882 25.7051 11.4368C24.5056 11.483 23.318 11.6923 22.1753 12.0591C21.8369 11.5767 21.2663 10.6747 20.7538 9.77265L21.1841 8.54262L20.5362 8.30144C20.5343 8.13507 20.4981 7.97087 20.4298 7.81908C20.3372 7.60782 20.1851 7.42792 19.992 7.3012C19.7988 7.17448 19.573 7.10639 19.3419 7.10518C19.1731 7.1125 19.0079 7.15697 18.8584 7.23542C18.5684 7.3827 18.3466 7.63604 18.2394 7.94253C18.1322 8.24902 18.1478 8.58499 18.283 8.88028C18.347 9.02801 18.4408 9.16101 18.5586 9.27099L18.3216 9.93666L19.5159 10.3901C19.9995 11.4802 20.6667 15.9469 20.6764 15.9951C20.9085 17.3216 23.5389 18.2815 26.9622 18.2815C30.3856 18.2815 32.9724 17.3409 33.2094 15.9951C33.2384 15.8311 33.2771 15.5803 33.3254 15.2668C33.5478 13.8486 33.954 11.239 34.3698 10.3949L35.569 9.93666L35.2982 9.25652C35.4174 9.1478 35.5115 9.01447 35.5738 8.86581C35.7046 8.57213 35.7179 8.23967 35.6109 7.93654C35.5039 7.63342 35.2848 7.38258 34.9984 7.23542Z" fill="white"/>
</svg>
