<svg width="124" height="26" viewBox="0 0 124 26" fill="none" xmlns="http://www.w3.org/2000/svg">
<path d="M43.4544 15.4511L42.7123 17.5434H42.6504C42.5267 17.0716 42.3 16.3536 41.9289 15.4921L37.9501 5.54338H34.0537V21.3998H36.6307V11.6152C36.6307 10.9998 36.6307 10.3024 36.61 9.44082C36.5894 9.01005 36.5482 8.68184 36.5276 8.43569H36.5894C36.7131 9.05107 36.8574 9.50236 36.9605 9.78953L41.7433 21.3588H43.5575L48.2991 9.68697C48.4022 9.4203 48.5053 8.88697 48.6084 8.43569H48.6702C48.6084 9.60492 48.5671 10.6511 48.5465 11.287V21.3382H51.2884V5.50236H47.5363L43.4544 15.4511ZM53.886 9.97415H56.566V21.3382H53.886V9.97415ZM55.2466 5.17415C54.793 5.17415 54.422 5.33826 54.1127 5.62544C53.8035 5.91262 53.6386 6.28185 53.6386 6.73313C53.6386 7.1639 53.8035 7.53313 54.1127 7.82031C54.422 8.10748 54.793 8.25107 55.2466 8.25107C55.7001 8.25107 56.0918 8.08697 56.3804 7.82031C56.6897 7.53313 56.8546 7.1639 56.8546 6.73313C56.8546 6.30236 56.6897 5.93313 56.3804 5.62544C56.1124 5.33826 55.7207 5.17415 55.2466 5.17415ZM66.0698 9.87158C65.575 9.76902 65.0596 9.70748 64.5649 9.70748C63.3485 9.70748 62.2353 9.97415 61.3076 10.5075C60.3799 11.0408 59.6377 11.7793 59.1636 12.7024C58.6688 13.6459 58.4214 14.7331 58.4214 15.9844C58.4214 17.0716 58.6688 18.0357 59.1429 18.9177C59.6171 19.7793 60.2768 20.4767 61.1633 20.9485C62.0085 21.4203 62.9981 21.6664 64.1113 21.6664C65.3895 21.6664 66.4821 21.3998 67.348 20.9075L67.3686 20.887V18.4254L67.2655 18.5075C66.8738 18.7947 66.4203 19.0408 65.9667 19.1844C65.4926 19.3485 65.0596 19.4305 64.6886 19.4305C63.6165 19.4305 62.7713 19.1229 62.1734 18.4459C61.555 17.7895 61.2457 16.887 61.2457 15.7588C61.2457 14.5895 61.555 13.6665 62.1941 12.9895C62.8331 12.3126 63.6784 11.9639 64.7092 11.9639C65.575 11.9639 66.4615 12.2511 67.2655 12.8254L67.3686 12.9075V10.3024L67.348 10.2818C66.9975 10.1383 66.6058 9.97415 66.0698 9.87158ZM74.9139 9.78953C74.2542 9.78953 73.6357 9.99466 73.0997 10.4254C72.6462 10.7947 72.337 11.328 72.069 11.9639H72.0483V9.97415H69.3683V21.3382H72.0483V15.5331C72.0483 14.5485 72.2545 13.728 72.708 13.1331C73.1616 12.5177 73.7388 12.21 74.4398 12.21C74.6871 12.21 74.9345 12.2716 75.2438 12.3126C75.5324 12.3947 75.7385 12.4767 75.8829 12.5793L75.9859 12.6613V9.99466L75.9241 9.97415C75.7385 9.85107 75.3675 9.78953 74.9139 9.78953ZM82.2119 9.728C80.3358 9.728 78.8309 10.2818 77.7795 11.369C76.7075 12.4562 76.1921 13.9536 76.1921 15.8408C76.1921 17.6049 76.7281 19.0408 77.7589 20.087C78.7897 21.1126 80.1915 21.6459 81.9438 21.6459C83.7786 21.6459 85.2424 21.0921 86.2938 19.9844C87.3658 18.8767 87.8812 17.3998 87.8812 15.5741C87.8812 13.769 87.3864 12.3331 86.3762 11.287C85.4073 10.2408 83.9848 9.728 82.2119 9.728ZM84.3559 18.4664C83.8611 19.1023 83.0777 19.41 82.1088 19.41C81.1398 19.41 80.3564 19.1023 79.7998 18.4254C79.2432 17.7895 78.9752 16.8665 78.9752 15.6972C78.9752 14.487 79.2638 13.5639 79.7998 12.9075C80.3564 12.2511 81.1192 11.9229 82.0882 11.9229C83.0365 11.9229 83.7786 12.2306 84.3146 12.8665C84.8507 13.5024 85.1393 14.4254 85.1393 15.6357C85.098 16.8664 84.8713 17.8306 84.3559 18.4664ZM93.8597 14.6921C93.0145 14.3434 92.4784 14.0767 92.2311 13.8511C92.0249 13.6459 91.9218 13.3588 91.9218 12.9895C91.9218 12.6818 92.0455 12.3741 92.3547 12.169C92.664 11.9639 93.0145 11.8613 93.5298 11.8613C93.9834 11.8613 94.4575 11.9434 94.9111 12.0665C95.3646 12.1895 95.7769 12.3741 96.1068 12.6203L96.2099 12.7024V10.1998L96.148 10.1793C95.8388 10.0562 95.4265 9.93312 94.9317 9.83056C94.4369 9.74851 93.9834 9.70748 93.6123 9.70748C92.3341 9.70748 91.2827 10.0152 90.4581 10.6921C89.6335 11.328 89.2418 12.1895 89.2418 13.1947C89.2418 13.728 89.3242 14.1998 89.5098 14.5895C89.6953 14.9793 89.9633 15.3485 90.3344 15.6562C90.7055 15.9434 91.2415 16.2716 91.9837 16.5793C92.6021 16.8459 93.0763 17.0511 93.3649 17.2152C93.6535 17.3793 93.8391 17.5639 93.9834 17.7075C94.0865 17.8716 94.1483 18.0767 94.1483 18.3434C94.1483 19.1023 93.5711 19.4716 92.396 19.4716C91.9424 19.4716 91.4683 19.3895 90.9117 19.2049C90.355 19.0203 89.8396 18.7536 89.4067 18.4459L89.3036 18.3639V20.969L89.3655 20.9895C89.7572 21.1741 90.2313 21.2972 90.8086 21.4408C91.3858 21.5434 91.9012 21.6254 92.3547 21.6254C93.736 21.6254 94.8699 21.3177 95.6739 20.6408C96.4985 19.9844 96.9314 19.1434 96.9314 18.0562C96.9314 17.2972 96.7253 16.6203 96.2717 16.1075C95.6739 15.6152 94.9317 15.1023 93.8597 14.6921ZM104.003 9.728C102.127 9.728 100.622 10.2818 99.5702 11.369C98.5188 12.4562 97.9828 13.9536 97.9828 15.8408C97.9828 17.6049 98.5188 19.0408 99.5496 20.087C100.58 21.1126 101.982 21.6459 103.735 21.6459C105.569 21.6459 107.033 21.0921 108.084 19.9844C109.157 18.8767 109.672 17.3998 109.672 15.5741C109.672 13.769 109.177 12.3331 108.167 11.287C107.198 10.2408 105.776 9.728 104.003 9.728ZM106.126 18.4664C105.631 19.1023 104.848 19.41 103.879 19.41C102.889 19.41 102.127 19.1023 101.57 18.4254C101.013 17.7895 100.745 16.8665 100.745 15.6972C100.745 14.487 101.034 13.5639 101.57 12.9075C102.127 12.2511 102.889 11.9229 103.858 11.9229C104.786 11.9229 105.549 12.2306 106.085 12.8665C106.621 13.5024 106.909 14.4254 106.909 15.6357C106.909 16.8664 106.641 17.8306 106.126 18.4664ZM124 12.169V9.97415H121.299V6.61005L121.217 6.63056L118.66 7.38954L118.598 7.41005V9.97415H114.558V8.53825C114.558 7.88184 114.723 7.36902 115.011 7.04082C115.3 6.71261 115.733 6.54851 116.269 6.54851C116.64 6.54851 117.032 6.63056 117.465 6.81518L117.568 6.87672V4.55877L117.506 4.53826C117.135 4.41518 116.64 4.33313 116.001 4.33313C115.197 4.33313 114.496 4.51774 113.857 4.82544C113.218 5.17415 112.744 5.64595 112.393 6.28185C112.043 6.89723 111.857 7.59467 111.857 8.39466V9.97415H109.981V12.1485H111.857V21.3382H114.558V12.169H118.598V18.0152C118.598 20.4152 119.732 21.6254 122 21.6254C122.371 21.6254 122.763 21.5639 123.134 21.5023C123.526 21.4203 123.814 21.3177 123.979 21.2357L124 21.2152V19.0203L123.897 19.1023C123.732 19.2049 123.587 19.287 123.34 19.3485C123.134 19.41 122.948 19.4305 122.804 19.4305C122.268 19.4305 121.897 19.3075 121.629 18.9998C121.382 18.7126 121.258 18.2408 121.258 17.5434V12.169H124Z" fill="#3A2D52"/>
<path d="M0 0H12.2257V12.1333H0V0Z" fill="#F25022"/>
<path d="M13.9735 0H26.1992V12.1333H13.9735V0Z" fill="#7FBA00"/>
<path d="M0 13.8667H12.2257V26H0V13.8667Z" fill="#00A4EF"/>
<path d="M13.9736 13.8667H26.1993V26H13.9736V13.8667Z" fill="#FFB900"/>
</svg>
