<svg width="108" height="31" viewBox="0 0 108 31" fill="none" xmlns="http://www.w3.org/2000/svg">
<path d="M29.3536 24.7661V13.4878L27.8335 13.243V11.9062H30.7048C31.0426 11.9062 31.4555 11.8874 31.9434 11.8497C32.7441 11.7995 33.4009 11.7744 33.9139 11.7744C35.5779 11.7744 36.854 12.0945 37.7423 12.7347C38.6305 13.3748 39.0747 14.4606 39.0747 15.992C39.0747 16.946 38.837 17.7744 38.3616 18.4773C37.8861 19.1803 37.2418 19.72 36.4286 20.0966C35.6279 20.4732 34.7459 20.6614 33.7825 20.6614C32.8942 20.6614 32.2874 20.674 31.9622 20.6991V24.7661L34.2892 25.105V26.1782H27.7021V25.105L29.3536 24.7661ZM31.9622 19.2681C32.3875 19.3435 32.938 19.3811 33.6136 19.3811C34.4894 19.3811 35.1775 19.105 35.6779 18.5527C36.1909 18.0004 36.4474 17.1217 36.4474 15.9167C36.4474 15.0004 36.1784 14.2974 35.6404 13.8079C35.1024 13.3183 34.3768 13.0736 33.4635 13.0736C32.888 13.0736 32.3875 13.1301 31.9622 13.243V19.2681ZM44.5614 15.5966C45.7499 15.5966 46.6757 15.9292 47.3388 16.5945C48.0019 17.2598 48.3647 18.2075 48.4273 19.4376C48.4398 19.8644 48.421 20.2598 48.371 20.6238C48.3334 20.9878 48.3084 21.2137 48.2959 21.3016H41.7839C41.8339 22.4188 42.128 23.2849 42.6659 23.8999C43.2164 24.5025 43.9921 24.8037 44.993 24.8037C45.4434 24.8037 45.9188 24.7598 46.4192 24.6719C46.9322 24.5715 47.3701 24.4334 47.7329 24.2577L48.1645 25.2368C47.7392 25.6008 47.1449 25.8895 46.3817 26.1029C45.6185 26.3163 44.8679 26.423 44.1297 26.423C42.5283 26.423 41.2897 25.9585 40.4139 25.0297C39.5507 24.1008 39.119 22.8204 39.119 21.1886C39.119 20.1091 39.3505 19.1489 39.8134 18.3079C40.2763 17.4543 40.9206 16.7891 41.7464 16.3121C42.5721 15.8351 43.5104 15.5966 44.5614 15.5966ZM44.0547 16.7828C43.4166 16.7828 42.8974 17.0589 42.497 17.6112C42.0967 18.151 41.859 18.9292 41.7839 19.946H45.7812C45.8062 19.6447 45.8187 19.4125 45.8187 19.2493C45.8187 18.5338 45.6811 18.0066 45.4058 17.6677C45.2057 17.0778 44.7553 16.7828 44.0547 16.7828ZM54.9395 15.5966C56.128 15.5966 57.0538 15.9292 57.7169 16.5945C58.38 17.2598 58.7428 18.2075 58.8054 19.4376C58.8179 19.8644 58.7991 20.2598 58.7491 20.6238C58.7115 20.9878 58.6865 21.2137 58.674 21.3016H52.162C52.212 22.4188 52.5061 23.2849 53.044 23.8999C53.5945 24.5025 54.3702 24.8037 55.3711 24.8037C55.8215 24.8037 56.2969 24.7598 56.7973 24.6719C57.3103 24.5715 57.7482 24.4334 58.111 24.2577L58.5426 25.2368C58.1173 25.6008 57.523 25.8895 56.7598 26.1029C55.9966 26.3163 55.246 26.423 54.5078 26.423C52.9064 26.423 51.6678 25.9585 50.792 25.0297C49.9288 24.1008 49.4972 22.8204 49.4972 21.1886C49.4972 20.1091 49.7286 19.1489 50.1915 18.3079C50.6544 17.4543 51.2987 16.7891 52.1245 16.3121C52.9502 15.8351 53.8885 15.5966 54.9395 15.5966ZM54.4328 16.7828C53.7947 16.7828 53.2755 17.0589 52.8751 17.6112C52.4748 18.151 52.2371 18.9292 52.162 19.946H56.1593C56.1843 19.6447 56.1968 19.4125 56.1968 19.2493C56.1968 18.5338 56.0592 18.0066 55.7839 17.6677C55.5838 17.0778 55.1334 16.7828 54.4328 16.7828ZM60.9637 24.8979V18.2891L59.6876 17.4418V16.538L62.6715 15.6342L63.2345 15.8225V17.4606C63.4096 17.0087 63.7912 16.5945 64.3792 16.2179C64.9798 15.8414 65.5365 15.6531 66.0495 15.6531C66.5374 15.6531 66.8502 15.6782 66.9878 15.7284V18.2514C66.8001 18.1384 66.5561 18.0443 66.2559 17.969C65.9556 17.8937 65.6553 17.856 65.3551 17.856C64.642 17.856 64.0539 18.0066 63.591 18.3079V24.8414L65.9181 25.1238V26.1782H59.6876V25.1238L60.9637 24.8979ZM73.1978 26.423C72.3971 26.423 71.5464 26.3414 70.6456 26.1782C69.7448 26.015 69.1004 25.8267 68.7126 25.6133V22.2054H69.8386L70.5893 24.22C70.8895 24.5966 71.2711 24.8539 71.734 24.992C72.1969 25.1301 72.7349 25.1991 73.3479 25.1991C74.0235 25.1991 74.5865 25.0108 75.0369 24.6343C75.4998 24.2577 75.7313 23.7242 75.7313 23.0338C75.7313 22.4941 75.4936 22.0045 75.0182 21.5652C74.5553 21.1259 73.8984 20.6614 73.0477 20.1719C72.0593 19.6322 71.2774 19.1614 70.7019 18.7598C70.1263 18.3581 69.6509 17.8937 69.2756 17.3665C68.9128 16.8267 68.7314 16.2054 68.7314 15.5025C68.7314 14.7117 68.9566 14.0401 69.407 13.4878C69.8699 12.923 70.4579 12.4962 71.171 12.2075C71.8842 11.9188 72.6223 11.7744 73.3855 11.7744C74.1111 11.7744 74.8805 11.8435 75.6938 11.9815C76.507 12.1196 77.0762 12.2765 77.4015 12.4522V15.2765H76.2005L75.3935 13.4313C75.2183 13.2932 74.9431 13.1803 74.5678 13.0924C74.1924 12.992 73.8296 12.9418 73.4793 12.9418C72.8913 12.9418 72.3658 13.0924 71.9029 13.3937C71.44 13.6949 71.2086 14.1594 71.2086 14.787C71.2086 15.4397 71.4775 16.0108 72.0155 16.5004C72.566 16.9773 73.4105 17.5234 74.549 18.1384C75.7501 18.7786 76.6759 19.4188 77.3265 20.0589C77.977 20.6991 78.3023 21.4773 78.3023 22.3937C78.3023 23.2723 78.0709 24.0192 77.6079 24.6343C77.1576 25.2368 76.5445 25.6886 75.7688 25.9899C74.9931 26.2786 74.1361 26.423 73.1978 26.423ZM85.1159 15.5966C86.392 15.5966 87.3929 16.0296 88.1186 16.8958C88.8567 17.7619 89.2258 19.0296 89.2258 20.6991C89.2258 21.7409 88.9818 22.6949 88.4939 23.561C88.0185 24.4271 87.3554 25.1175 86.5046 25.6322C85.6664 26.1343 84.7343 26.3853 83.7084 26.3853C83.4707 26.3853 83.1955 26.3602 82.8827 26.31C82.5699 26.2723 82.3822 26.2472 82.3197 26.2347L82.4135 28.174V29.5673L84.2151 29.8121V30.8853H78.6039V29.8121L79.805 29.5673V18.2891L78.5476 17.4418V16.538L81.5315 15.6342L82.057 15.8225V16.9522C82.2947 16.6008 82.7075 16.287 83.2956 16.0108C83.8961 15.7347 84.5029 15.5966 85.1159 15.5966ZM84.0274 17.084C83.7022 17.084 83.3894 17.1656 83.0891 17.3288C82.8014 17.4794 82.5699 17.6489 82.3948 17.8372V24.333C82.5074 24.5715 82.7263 24.7535 83.0516 24.879C83.3769 24.992 83.746 25.0485 84.1588 25.0485C84.6342 25.0485 85.0534 24.8853 85.4162 24.5589C85.7915 24.22 86.0855 23.7493 86.2982 23.1468C86.5109 22.5317 86.6172 21.81 86.6172 20.9815C86.6172 19.7514 86.3795 18.7974 85.9041 18.1196C85.4287 17.4292 84.8031 17.084 84.0274 17.084ZM95.4999 15.5778C97.1013 15.5652 98.3274 16.0296 99.1781 16.9711C100.029 17.9125 100.448 19.1991 100.435 20.8309C100.435 21.9355 100.21 22.9146 99.7599 23.7681C99.3095 24.6092 98.6965 25.2619 97.9208 25.7263C97.1451 26.1782 96.2631 26.4041 95.2747 26.4041C93.6357 26.4041 92.3846 25.9146 91.5214 24.9355C90.6706 23.9439 90.2452 22.6384 90.2452 21.0192C90.2452 19.9146 90.4704 18.9606 90.9208 18.1573C91.3838 17.3414 92.0093 16.7137 92.7975 16.2744C93.5982 15.8351 94.499 15.6029 95.4999 15.5778ZM95.3685 16.8016C94.5303 16.8016 93.9297 17.1468 93.5669 17.8372C93.2166 18.5276 93.0415 19.4941 93.0415 20.7368C93.0415 21.9292 93.2416 22.9648 93.642 23.8435C94.0424 24.7221 94.6241 25.1615 95.3873 25.1615C96.238 25.1615 96.8323 24.7974 97.1701 24.0694C97.5079 23.3288 97.6768 22.2932 97.6768 20.9627C97.6768 19.7326 97.4891 18.7347 97.1138 17.969C96.7385 17.1907 96.1567 16.8016 95.3685 16.8016ZM104.563 15.8978H107.603V17.3476H104.638V21.2263C104.638 22.1803 104.657 22.8895 104.695 23.3539C104.732 23.8184 104.826 24.1698 104.976 24.4083C105.126 24.6343 105.37 24.7472 105.708 24.7472C105.958 24.7472 106.258 24.7096 106.609 24.6343C106.972 24.5589 107.228 24.4774 107.378 24.3895L107.791 25.3497C107.478 25.6761 106.997 25.9334 106.346 26.1217C105.695 26.31 105.076 26.4041 104.488 26.4041C103.637 26.4041 103.024 26.1656 102.649 25.6886C102.274 25.1991 102.086 24.4271 102.086 23.3727V17.3476H100.716V16.4627C101.267 16.3372 101.648 16.2242 101.861 16.1238C102.086 16.0234 102.274 15.8539 102.424 15.6154C102.636 15.2891 102.93 14.561 103.306 13.4313H104.563V15.8978Z" fill="#08090D"/>
<path d="M10.5534 21.209L0.791016 30.9998V11.418H20.3158L10.5534 21.209Z" fill="#FFD700"/>
<path d="M20.3158 0H0.791016V19.5898H20.3158V0Z" fill="#FFD700"/>
<path d="M16.2473 4.08301H12.1797V15.5058H16.2473V4.08301Z" fill="white"/>
</svg>
