<svg width="71" height="41" viewBox="0 0 71 41" fill="none" xmlns="http://www.w3.org/2000/svg">
<path d="M70.9996 0H51.4688V4.54112H70.9996V0Z" fill="#7DC142"/>
<path d="M71.0002 0H66.4736V19.5937H71.0002V0Z" fill="#7DC142"/>
<path d="M10.3223 18.3594C9.99854 18.2814 9.62295 18.2035 9.22793 18.119C7.73203 17.8072 5.86702 17.4174 5.42667 16.6573C5.32306 16.4754 5.30363 16.287 5.36839 16.0726C5.80226 14.7083 7.30463 14.7798 8.19829 14.8187C8.26304 14.8187 8.3278 14.8252 8.37961 14.8252C9.2085 14.8577 11.475 15.332 12.8479 16.5468L12.9644 16.6508L14.415 13.1231V13.1036C14.415 12.9867 13.6962 12.4475 12.7119 12.0057C11.6822 11.551 9.92731 11.0052 7.42767 11.0052C6.17786 11.0052 4.87623 11.2781 3.75593 11.7848C2.51906 12.337 1.63836 13.1101 1.21096 14.0132C0.44035 15.6438 0.362641 17.0861 0.977837 18.2814C1.80673 19.8926 3.93725 21.0815 6.98085 21.6272C7.0456 21.6402 7.09093 21.6467 7.11036 21.6532H7.12979C7.15569 21.6532 9.57114 21.7636 10.1604 22.881C10.3094 23.1669 10.3094 23.4982 10.154 23.7775C9.88845 24.2453 9.21498 24.5377 8.24362 24.6026C6.77362 24.6936 3.95668 24.5766 1.58008 22.7121L1.46352 22.6212L0 26.3307L0.0582817 26.3827C0.0841846 26.4087 2.6421 28.5006 7.2075 28.5006C7.55719 28.5006 7.91983 28.4876 8.28895 28.4616C12.6601 28.1563 14.8424 26.3437 14.7712 23.0824C14.7064 19.8211 12.2003 18.8271 10.3223 18.3594Z" fill="#232323"/>
<path d="M20.0038 33.7499H19.8225C18.89 33.7499 18.087 34.2501 17.7568 34.9582C17.42 34.2501 16.617 33.7499 15.691 33.7499H15.5097C14.7391 33.7499 14.0526 34.0942 13.6511 34.6204V33.8993H11.7861V40.6493H13.6511V36.3095C13.813 35.9197 14.2404 35.5884 14.7391 35.5884H14.8362C15.4708 35.5884 15.9954 36.0432 15.9954 36.5954V40.6493H17.9187V36.381C18.0287 35.9262 18.495 35.5819 19.0519 35.5819H19.149C19.7837 35.5819 20.3082 36.0367 20.3082 36.5889V40.6428H22.238V35.6924C22.238 34.6204 21.2278 33.7499 20.0038 33.7499Z" fill="#232323"/>
<path d="M58.139 33.6199V34.4774C57.5238 33.8343 56.6949 33.438 55.7689 33.438C53.8909 33.438 52.3691 35.0946 52.3691 37.1345C52.3691 39.1745 53.8909 40.8311 55.7689 40.8311C56.6885 40.8311 57.5238 40.4348 58.139 39.7917V40.6492H59.8033V33.6329H58.139V33.6199ZM55.9891 39.2589C54.9076 39.2589 54.0269 38.3039 54.0269 37.1281C54.0269 35.9522 54.9076 34.9972 55.9891 34.9972C57.0705 34.9972 57.9512 35.9522 57.9512 37.1281C57.9512 38.3039 57.0705 39.2589 55.9891 39.2589Z" fill="#232323"/>
<path d="M41.6008 28.8384V34.419C40.9661 33.7498 40.0984 33.334 39.1465 33.334C37.1973 33.334 35.6172 35.0491 35.6172 37.167C35.6172 39.2849 37.1973 41 39.1465 41C40.1049 41 40.9661 40.5907 41.6008 39.9151V40.8051H43.537V28.8384H41.6008ZM39.3666 39.3823C38.2463 39.3823 37.3333 38.3949 37.3333 37.1735C37.3333 35.9521 38.2463 34.9647 39.3666 34.9647C40.4869 34.9647 41.4 35.9521 41.4 37.1735C41.4 38.3884 40.4869 39.3823 39.3666 39.3823Z" fill="#232323"/>
<path d="M49.0474 31.6124H47.1436V41H49.0474V31.6124Z" fill="#232323"/>
<path d="M54.9586 11.1157H54.5507C52.4655 11.1157 50.6652 12.2396 49.914 13.8313C49.1628 12.2396 47.3691 11.1157 45.2774 11.1157H44.8759C43.1469 11.1157 41.6121 11.8888 40.712 13.0647V11.4406H36.5352V27.9159H40.712V17.3979C41.0746 16.5274 42.0331 15.6698 43.1598 15.6698H43.3735C44.8047 15.6698 45.9768 16.6898 45.9768 17.9306V26.6556C46.3912 25.8825 47.2007 25.3563 48.1332 25.3563C49.0787 25.3563 49.8946 25.8955 50.3026 26.6881V17.5668C50.5551 16.5469 51.6042 15.6633 52.8411 15.6633H53.0548C54.4859 15.6633 55.6515 16.6833 55.6515 17.9242V27.9029H59.9773V15.4749C59.9644 13.0777 57.7108 11.1157 54.9586 11.1157Z" fill="#232323"/>
<path d="M24.5447 11.4016C19.9857 11.4016 16.2881 15.1112 16.2881 19.6848C16.2881 24.2584 19.9857 27.9679 24.5447 27.9679C29.1036 27.9679 32.8012 24.2584 32.8012 19.6848C32.8012 15.1112 29.1036 11.4016 24.5447 11.4016ZM24.8749 24.4403C22.2522 24.4403 20.1282 22.3094 20.1282 19.6783C20.1282 17.0472 22.2522 14.9163 24.8749 14.9163C27.4976 14.9163 29.6216 17.0472 29.6216 19.6783C29.6216 22.3094 27.4976 24.4403 24.8749 24.4403Z" fill="#232323"/>
<path d="M33.8626 11.4406H29.6533V27.8509H33.8626V11.4406Z" fill="#232323"/>
<path d="M32.3213 37.6673C32.3407 37.5179 32.9106 33.542 28.9927 33.3796C26.9529 33.2951 25.2692 35.0102 25.2368 37.0956C25.2044 39.181 26.8298 40.7792 28.8697 40.8117C30.4109 40.8377 31.7125 39.9281 32.2889 38.5639L30.249 38.5314C30.249 38.5314 30.2166 39.3694 28.6495 39.246C27.0824 39.1226 27.2896 37.5829 27.2896 37.5829L32.3213 37.6673ZM28.9085 34.9518C29.6274 34.9647 30.2231 35.478 30.3721 36.1471H27.3932C27.5422 35.452 28.1703 34.9388 28.9085 34.9518Z" fill="#232323"/>
<path d="M48.1203 26.1877C47.2331 26.1877 46.5078 26.9154 46.5078 27.8054C46.5078 28.6954 47.2331 29.423 48.1203 29.423C49.0074 29.423 49.7327 28.6954 49.7327 27.8054C49.7327 26.9154 49.0074 26.1877 48.1203 26.1877Z" fill="#7DC142"/>
</svg>
