<svg width="106" height="18" viewBox="0 0 106 18" fill="none" xmlns="http://www.w3.org/2000/svg">
<path d="M8.50879 0.0585938C8.57886 0.09115 8.64283 0.135449 8.69793 0.189572L11.7564 3.24716C11.8167 3.30674 11.8646 3.37762 11.8974 3.45573C11.9302 3.53384 11.9473 3.61765 11.9477 3.70236V17.7857C11.9477 17.8427 11.925 17.8973 11.8847 17.9376C11.8444 17.9778 11.7898 18.0005 11.7328 18.0005C11.6767 17.9985 11.6233 17.9764 11.5823 17.9382L8.69578 15.0588C8.57561 14.9378 8.50837 14.7741 8.50879 14.6036V0.0585938Z" fill="url(#paint0_linear_1878_10606)"/>
<path d="M16.9189 0.198161C16.9719 0.140366 17.0354 0.0930255 17.1059 0.0585938V14.6015C17.1061 14.6864 17.0895 14.7705 17.057 14.849C17.0246 14.9275 16.9769 14.9988 16.9167 15.0588L14.0324 17.9382C13.9921 17.9782 13.9376 18.0006 13.8808 18.0006C13.8241 18.0006 13.7696 17.9782 13.7293 17.9382C13.6906 17.8993 13.6683 17.847 13.667 17.7922V3.69807C13.6688 3.53057 13.7359 3.37037 13.854 3.25145L16.9146 0.198161H16.9189Z" fill="url(#paint1_linear_1878_10606)"/>
<path d="M22.4797 11.3809L22.2648 11.1662V8.16016H19.3439C19.2875 8.16039 19.2335 8.18276 19.1934 8.22242L17.1064 10.3073L23.7929 16.9894C23.9139 17.1081 24.0769 17.1745 24.2464 17.174H27.7584C27.8154 17.174 27.8701 17.1514 27.9104 17.1111C27.9507 17.0709 27.9733 17.0163 27.9733 16.9593C27.9714 16.9033 27.9493 16.8499 27.911 16.809L22.4797 11.3809Z" fill="url(#paint2_linear_1878_10606)"/>
<path d="M17.373 0C17.2881 0.00147833 17.2043 0.0196898 17.1265 0.0535891C17.0487 0.0874885 16.9783 0.136408 16.9195 0.197541L13.8545 3.24654C13.801 3.30005 13.7574 3.36256 13.7256 3.4312H22.2648V11.1611L22.4797 11.3758L25.5124 8.35683C25.6333 8.23615 25.7014 8.07241 25.7015 7.90163V3.70389C25.7014 3.53311 25.6333 3.36937 25.5124 3.24869L22.4518 0.197541C22.331 0.0767038 22.1671 0.00873908 21.9961 0.00858873L17.373 0Z" fill="url(#paint3_linear_1878_10606)"/>
<path d="M8.6961 0.197541C8.637 0.136154 8.56629 0.0870868 8.48808 0.0531791C8.40987 0.0192713 8.3257 0.00119631 8.24045 0H0.214934C0.157931 0 0.103263 0.022622 0.0629554 0.0628895C0.0226481 0.103157 3.66609e-06 0.157771 3.66609e-06 0.214718C-0.000164533 0.243488 0.00545658 0.271999 0.0165331 0.298556C0.0276097 0.325114 0.0439158 0.349176 0.0644829 0.369315L2.94456 3.24654C3.06536 3.36738 3.22926 3.43534 3.40021 3.43549H11.5181C11.6322 3.43549 11.7415 3.48074 11.8221 3.56127C11.9027 3.64181 11.948 3.75103 11.948 3.86493V3.70389C11.9479 3.53311 11.8798 3.36937 11.7589 3.24869L8.6961 0.197541Z" fill="url(#paint4_linear_1878_10606)"/>
<path d="M16.9146 0.197541C16.974 0.135898 17.045 0.086683 17.1236 0.0527668C17.2022 0.0188506 17.2868 0.000912811 17.3724 0H21.9956C22.1665 0.000150347 22.3304 0.0681151 22.4512 0.188952L25.5118 3.24654C25.572 3.30655 25.6197 3.37786 25.6521 3.45635C25.6846 3.53484 25.7012 3.61896 25.701 3.70389V3.86493C25.701 3.75103 25.6557 3.64181 25.5751 3.56127C25.4945 3.48074 25.3851 3.43549 25.2711 3.43549H14.0969C13.9828 3.43549 13.8735 3.48074 13.7929 3.56127C13.7123 3.64181 13.667 3.75103 13.667 3.86493V3.70389C13.6671 3.53311 13.7352 3.36937 13.8561 3.24869L16.9146 0.197541Z" fill="url(#paint5_linear_1878_10606)"/>
<path d="M25.7044 7.72949C25.7044 7.84339 25.6591 7.95261 25.5785 8.03315C25.4979 8.11368 25.3885 8.15893 25.2745 8.15893H19.5144C19.4929 8.1588 19.4719 8.1651 19.454 8.17702C19.4361 8.18895 19.4223 8.20594 19.4142 8.22582C19.4061 8.24569 19.4041 8.26753 19.4086 8.28853C19.413 8.30952 19.4237 8.3287 19.4391 8.34359L22.4804 11.3797L25.5152 8.35647C25.6362 8.23578 25.7042 8.07205 25.7044 7.90127V7.72949Z" fill="url(#paint6_linear_1878_10606)"/>
<path d="M55.7568 8.99984C54.5382 8.69923 54.2115 8.45875 54.2115 8.03146C54.2115 7.60417 54.5941 7.32074 55.3893 7.32074C56.2681 7.34866 57.128 7.58255 57.8997 8.00355L58.1576 6.44469C57.2862 6.07922 56.3494 5.8951 55.4044 5.9036C53.5753 5.9036 52.4963 6.84407 52.4963 8.15385C52.4963 9.5624 53.2916 10.1035 55.2066 10.5716C56.5392 10.8851 56.9089 11.0998 56.9089 11.6688C56.9089 12.1798 56.3973 12.4933 55.5032 12.4933C54.4788 12.4629 53.4824 12.1517 52.6232 11.5936L52.3545 13.1632C53.3153 13.634 54.3687 13.8863 55.4388 13.9019C57.5128 13.9019 58.6219 13.0065 58.6219 11.497C58.6219 10.0455 57.7858 9.50443 55.7568 8.99984Z" fill="#126CF3"/>
<path d="M72.0988 6.55775C72.0988 4.57375 70.6652 3.44434 68.2966 3.44434H65.0361V13.7508H66.9705V9.76779H67.9055L70.8006 13.8474L72.836 13.4717L69.8721 9.42853C71.2197 8.9991 72.0988 8.06078 72.0988 6.55775ZM68.0452 8.31844H66.949V5.04399H68.1548C69.4745 5.04399 70.1687 5.62158 70.1687 6.65437C70.1687 7.72797 69.3605 8.31844 68.0452 8.31844Z" fill="#126CF3"/>
<path d="M49.6153 11.2602C49.0049 11.8571 48.3472 12.2522 47.6809 12.2522C46.9157 12.2522 46.6062 11.7863 46.6062 11.1056V6.01034H44.7256V11.593C44.7256 13.023 45.5208 13.8884 47.0382 13.8884C48.1129 13.8884 48.9726 13.3387 49.7227 12.658L49.9914 13.723H51.4959V5.99316H49.6153V11.2602Z" fill="#126CF3"/>
<path d="M64.0673 7.51318L63.7449 6.01015H62.1071V3.32617L60.2759 3.6504V6.0123H59.0186V7.51532H60.278V11.595C60.278 13.3127 61.3011 13.8624 62.8314 13.8624C63.2461 13.8712 63.6603 13.8301 64.0651 13.74L63.8373 12.1962C63.6178 12.2384 63.3945 12.2571 63.171 12.252C62.4037 12.252 62.1071 11.9128 62.1071 11.2901V7.51318H64.0673Z" fill="#126CF3"/>
<path d="M41.0001 7.62107L40.639 6.01283H39.2441V13.7427H41.0711V9.33881C41.3802 8.8726 41.7935 8.48448 42.2783 8.20503C42.7632 7.92557 43.3064 7.76242 43.8652 7.72843L43.4353 5.90332C42.2532 6.11804 41.5396 6.74072 41.0001 7.62107Z" fill="#126CF3"/>
<path d="M96.8994 11.2602C96.289 11.8571 95.6313 12.2522 94.9651 12.2522C94.1999 12.2522 93.8904 11.7863 93.8904 11.1056V6.01034H92.0098V11.593C92.0098 13.023 92.805 13.8884 94.3224 13.8884C95.3863 13.8884 96.2568 13.3387 97.0069 12.658L97.2756 13.723H98.7801V5.99316H96.8994V11.2602Z" fill="#126CF3"/>
<path d="M89.9678 4.77804C90.5611 4.77804 91.042 4.29738 91.042 3.70445C91.042 3.11152 90.5611 2.63086 89.9678 2.63086C89.3745 2.63086 88.8936 3.11152 88.8936 3.70445C88.8936 4.29738 89.3745 4.77804 89.9678 4.77804Z" fill="#126CF3"/>
<path d="M103.135 8.99926C101.916 8.69865 101.59 8.45817 101.59 8.03088C101.59 7.60359 101.972 7.32016 102.767 7.32016C103.646 7.34808 104.506 7.58197 105.278 8.00296L105.534 6.45055C104.662 6.08508 103.725 5.90096 102.78 5.90946C100.951 5.90946 99.8723 6.84993 99.8723 8.15971C99.8723 9.56826 100.668 10.1093 102.583 10.5774C103.915 10.8909 104.285 11.1056 104.285 11.6746C104.285 12.1857 103.773 12.4992 102.879 12.4992C101.847 12.4691 100.842 12.1596 99.9712 11.6038L99.7305 13.1691C100.689 13.6399 101.74 13.8921 102.808 13.9077C104.88 13.9077 106 13.0123 106 11.5029C106 10.0449 105.164 9.50384 103.135 8.99926Z" fill="#126CF3"/>
<path d="M90.8965 6.01074H89.0381V13.7406H90.8965V6.01074Z" fill="#126CF3"/>
<path d="M86.0678 6.30037C85.4602 6.09837 84.8232 5.99825 84.1829 6.00406C82.3087 6.00406 80.6494 7.27948 80.6494 10.1266C80.6494 12.7033 82.0121 13.8971 83.6993 13.8971C84.8212 13.8971 85.6014 13.3302 86.1817 12.6775L86.3451 13.7404H87.927V2.25293L86.0678 2.57501V6.30037ZM86.0678 11.1616C85.5154 11.8272 84.9201 12.2524 84.1528 12.2524C83.2178 12.2524 82.5215 11.5309 82.5215 10.015C82.5215 8.31443 83.3317 7.49205 84.4365 7.49205C84.9995 7.47468 85.5585 7.59094 86.0678 7.83131V11.1616Z" fill="#126CF3"/>
<path d="M76.8308 5.93362C75.7503 5.93073 74.68 6.14239 73.6821 6.55631L73.9099 8.03142C74.7596 7.65358 75.6754 7.44638 76.6051 7.42162C77.4971 7.42162 78.0237 7.73296 78.0237 8.56822V8.81085C74.7309 9.12219 73.1426 9.9145 73.1426 11.7718C73.1426 13.1031 74.0646 13.8975 75.4402 13.8975C75.9437 13.8969 76.4419 13.7949 76.905 13.5975C77.3681 13.4001 77.7866 13.1115 78.1354 12.7488L78.3074 13.7408H79.8678V8.48448C79.8678 6.67011 78.8748 5.93362 76.8308 5.93362ZM78.0237 11.6301C77.4912 12.1525 76.7834 12.4586 76.0377 12.489C75.3929 12.489 74.9867 12.1347 74.9867 11.5807C74.9867 10.8442 75.5692 10.1786 78.0237 9.90806V11.6301Z" fill="#126CF3"/>
<path d="M39.9947 3.43359H30.8623V5.15134H34.3012V13.7401H36.2356V5.15134H40.4246L39.9947 3.43359Z" fill="#126CF3"/>
<defs>
<linearGradient id="paint0_linear_1878_10606" x1="10.2199" y1="18.0026" x2="10.2199" y2="-0.0337347" gradientUnits="userSpaceOnUse">
<stop offset="0.71" stop-color="#116BF2"/>
<stop offset="1" stop-color="#1E50E5"/>
</linearGradient>
<linearGradient id="paint1_linear_1878_10606" x1="15.3781" y1="18.0069" x2="15.3781" y2="-0.0294409" gradientUnits="userSpaceOnUse">
<stop offset="0.71" stop-color="#116BF2"/>
<stop offset="1" stop-color="#1E50E5"/>
</linearGradient>
<linearGradient id="paint2_linear_1878_10606" x1="18.7887" y1="8.44303" x2="27.1621" y2="16.8247" gradientUnits="userSpaceOnUse">
<stop offset="0.41" stop-color="#116BF2"/>
<stop offset="1" stop-color="#185DEC"/>
</linearGradient>
<linearGradient id="paint3_linear_1878_10606" x1="19.7037" y1="11.3715" x2="19.7037" y2="-0.0687098" gradientUnits="userSpaceOnUse">
<stop offset="0.58" stop-color="#116BF2"/>
<stop offset="1" stop-color="#1E50E5"/>
</linearGradient>
<linearGradient id="paint4_linear_1878_10606" x1="8.0024" y1="-0.144299" x2="4.56652" y2="3.29498" gradientUnits="userSpaceOnUse">
<stop offset="0.03" stop-color="#59C5FF"/>
<stop offset="0.99" stop-color="#21B1FF"/>
</linearGradient>
<linearGradient id="paint5_linear_1878_10606" x1="16.6356" y1="0.7116" x2="20.0715" y2="4.15088" gradientUnits="userSpaceOnUse">
<stop offset="0.04" stop-color="#59C5FF"/>
<stop offset="0.99" stop-color="#21B1FF"/>
</linearGradient>
<linearGradient id="paint6_linear_1878_10606" x1="24.2646" y1="9.75268" x2="21.6881" y2="7.17359" gradientUnits="userSpaceOnUse">
<stop offset="0.04" stop-color="#57C4FF"/>
<stop offset="0.99" stop-color="#21B1FF"/>
</linearGradient>
</defs>
</svg>
