<svg width="62" height="14" viewBox="0 0 62 14" fill="none" xmlns="http://www.w3.org/2000/svg">
<path d="M3.02796 1.58242H0V0.114048H7.64334V1.58242H4.61539V10.0933H3.02796V1.58242Z" fill="#757575"/>
<path d="M16.5284 2.90823H18.0443V3.73508C18.1873 3.48799 18.4304 3.2694 18.7737 3.07931C19.1264 2.88922 19.5173 2.79419 19.9464 2.79419C20.9951 2.79419 21.8007 3.13159 22.3632 3.80636C22.9257 4.48116 23.207 5.3793 23.207 6.50077C23.207 7.62225 22.9257 8.52036 22.3632 9.19516C21.8007 9.86996 20.9951 10.2074 19.9464 10.2074C19.5745 10.2074 19.2074 10.1265 18.8452 9.96499C18.4924 9.79393 18.2254 9.58009 18.0443 9.32347V13.0015H16.5284V2.90823ZM19.7604 8.89579C20.3229 8.89579 20.7758 8.68195 21.119 8.25427C21.4622 7.81707 21.6339 7.23257 21.6339 6.50077C21.6339 5.76895 21.4622 5.18921 21.119 4.76153C20.7758 4.32435 20.3229 4.10576 19.7604 4.10576C19.2074 4.10576 18.7594 4.32435 18.4161 4.76153C18.0729 5.18921 17.9013 5.76895 17.9013 6.50077C17.9013 7.23257 18.0729 7.81707 18.4161 8.25427C18.7594 8.68195 19.2074 8.89579 19.7604 8.89579Z" fill="#757575"/>
<path d="M28.0015 10.2074C27.2674 10.2074 26.6477 10.0315 26.1422 9.67987C25.637 9.32822 25.2557 8.87201 24.9982 8.3113C24.7504 7.74104 24.6264 7.13754 24.6264 6.50077C24.6264 5.86401 24.7504 5.26524 24.9982 4.7045C25.2557 4.13426 25.637 3.6733 26.1422 3.32165C26.6477 2.97001 27.2674 2.79419 28.0015 2.79419C28.7165 2.79419 29.3219 2.9605 29.8176 3.29315C30.3134 3.6258 30.6854 4.05823 30.9331 4.59044C31.1811 5.12268 31.3051 5.68342 31.3051 6.27266V6.89993H26.1996C26.2186 7.46067 26.3902 7.93587 26.7143 8.32555C27.0481 8.7057 27.5008 8.89579 28.0729 8.89579C28.5115 8.89579 28.8738 8.79598 29.16 8.59642C29.4554 8.39683 29.7223 8.08318 29.9609 7.6555L31.205 8.14021C30.8903 8.83401 30.4756 9.35197 29.9609 9.69412C29.4459 10.0363 28.7929 10.2074 28.0015 10.2074ZM29.7605 5.67392C29.6747 5.20821 29.4841 4.83281 29.1884 4.54769C28.9025 4.25307 28.5067 4.10576 28.0015 4.10576C27.5344 4.10576 27.1481 4.25782 26.8432 4.56194C26.538 4.85656 26.3426 5.22724 26.2567 5.67392H29.7605Z" fill="#757575"/>
<path d="M33.4449 4.21979H32.458V2.90823H33.4449V2.50907C33.4449 1.67271 33.6547 1.04544 34.0741 0.627266C34.5033 0.209089 35.0943 0 35.8475 0C36.3528 0 36.7532 0.0855362 37.0488 0.256608L36.7199 1.49689C36.4434 1.37334 36.1716 1.31156 35.9047 1.31156C35.266 1.31156 34.9465 1.66796 34.9465 2.38076V2.90823H36.5339V4.21979H34.9465V10.0933H33.4449V4.21979Z" fill="#757575"/>
<path d="M41.0238 10.2074C40.2898 10.2074 39.6511 10.041 39.1074 9.70837C38.5735 9.37575 38.1636 8.92904 37.8776 8.3683C37.5915 7.80756 37.4485 7.18505 37.4485 6.50077C37.4485 5.81648 37.5915 5.19396 37.8776 4.63322C38.1636 4.07248 38.5735 3.6258 39.1074 3.29315C39.6511 2.9605 40.2898 2.79419 41.0238 2.79419C41.7485 2.79419 42.3824 2.9605 42.9258 3.29315C43.4694 3.6258 43.884 4.07248 44.1701 4.63322C44.4561 5.19396 44.599 5.81648 44.599 6.50077C44.599 7.18505 44.4561 7.80756 44.1701 8.3683C43.884 8.92904 43.4694 9.37575 42.9258 9.70837C42.3824 10.041 41.7485 10.2074 41.0238 10.2074ZM41.0238 8.89579C41.6435 8.89579 42.1298 8.66295 42.4826 8.19724C42.8353 7.73153 43.0116 7.16605 43.0116 6.50077C43.0116 5.83548 42.8353 5.26999 42.4826 4.80431C42.1298 4.3386 41.6435 4.10576 41.0238 4.10576C40.404 4.10576 39.9131 4.3386 39.5509 4.80431C39.1981 5.26999 39.0218 5.83548 39.0218 6.50077C39.0218 7.16605 39.1981 7.73153 39.5509 8.19724C39.9131 8.66295 40.404 8.89579 41.0238 8.89579Z" fill="#757575"/>
<path d="M46.0745 2.90823H47.5904V4.10576C47.8286 3.67805 48.1338 3.35493 48.5055 3.13634C48.8775 2.90823 49.2826 2.79419 49.7212 2.79419C49.9976 2.79419 50.3076 2.85122 50.6509 2.96526L50.3648 4.36235C50.1265 4.21979 49.85 4.14851 49.5354 4.14851C48.9728 4.14851 48.5055 4.42413 48.1338 4.97537C47.7715 5.51711 47.5904 6.34871 47.5904 7.47019V10.0933H46.0745V2.90823Z" fill="#757575"/>
<path d="M51.9893 2.90823H53.5052V4.16276C54.0486 3.25037 54.7588 2.79419 55.636 2.79419C56.1318 2.79419 56.5512 2.9225 56.8945 3.17909C57.2473 3.42621 57.4953 3.80161 57.6382 4.30532C57.8957 3.83964 58.2198 3.47374 58.6107 3.20762C59.0112 2.932 59.4355 2.79419 59.8835 2.79419C60.5699 2.79419 61.0943 2.98903 61.4566 3.37868C61.8189 3.76836 62 4.32435 62 5.04665V10.0933H60.4984V5.28899C60.4984 4.88034 60.4126 4.58094 60.2409 4.39088C60.0788 4.20079 59.8262 4.10576 59.4831 4.10576C59.1588 4.10576 58.8634 4.22454 58.5964 4.46216C58.3389 4.69975 58.134 5.0514 57.9813 5.51711C57.8288 5.97329 57.7525 6.52928 57.7525 7.18505V10.0933H56.2509V5.28899C56.2509 4.88034 56.1651 4.58094 55.9934 4.39088C55.8315 4.20079 55.5789 4.10576 55.2356 4.10576C54.7304 4.10576 54.3156 4.38613 53.9915 4.94687C53.6671 5.49808 53.5052 6.28219 53.5052 7.29911V10.0933H51.9893V2.90823Z" fill="#757575"/>
<path d="M10.5827 9.76543L7.57561 2.90825H9.3435L11.4418 7.81234L13.408 2.90825H15.1594L10.9131 13.0015H9.22785L10.5827 9.76543Z" fill="#757575"/>
</svg>
