<svg width="82" height="26" viewBox="0 0 82 26" fill="none" xmlns="http://www.w3.org/2000/svg">
<path d="M23.1496 12.1942V0H28.5922V25.5876C28.5922 25.7522 28.4926 25.9009 28.3391 25.9662C28.1856 26.0314 28.0074 26.0007 27.8857 25.8879L0 0H7.7727L21.6191 12.8442C21.8825 13.0894 22.2688 13.1567 22.6017 13.0153C22.9346 12.8739 23.15 12.5511 23.1496 12.1942Z" fill="#00FFF6"/>
<path d="M56.6783 0.0767049L82 17.8705H72.6296L62.8895 11.0266C62.6134 10.8319 62.2502 10.806 61.9485 10.9594C61.6469 11.1128 61.4575 11.4198 61.4582 11.7547V25.5873C61.4584 25.6732 61.4312 25.7569 61.3804 25.8266C61.3324 25.8932 61.2659 25.9437 61.1895 25.9726C61.1638 25.9824 61.1369 25.9897 61.1093 25.9943C60.9998 26.0124 60.8877 25.9869 60.7974 25.9234L39.5967 11.0266C39.3206 10.8319 38.9573 10.806 38.6557 10.9594C38.354 11.1128 38.1647 11.4198 38.1653 11.7547L38.1574 20.635H32.7281V0.412759C32.7287 0.259039 32.816 0.118406 32.9543 0.0477955C33.0927 -0.0227996 33.2593 -0.0116627 33.3868 0.0767049L54.5869 14.9735C54.8629 15.1682 55.2262 15.1942 55.5278 15.0407C55.8295 14.8873 56.0188 14.5803 56.0183 14.2455V0.412759C56.0183 0.184794 56.2056 0 56.4366 0C56.4509 0 56.465 0.000726987 56.4791 0.00215003C56.4954 0.00378961 56.5114 0.00637274 56.5272 0.009853C56.5618 0.0174786 56.5952 0.0294507 56.6268 0.0455372C56.6369 0.0506571 56.6467 0.0561946 56.6563 0.0621497C56.6639 0.0667591 56.6711 0.071616 56.6783 0.0767049Z" fill="#00FFF6"/>
</svg>
