<svg width="228" height="26" viewBox="0 0 228 26" fill="none" xmlns="http://www.w3.org/2000/svg">
<path d="M22.9246 12.3807V0.351318H28.3142V25.5932C28.3142 25.7555 28.2156 25.9023 28.0636 25.9666C27.9116 26.031 27.7351 26.0006 27.6146 25.8894L0 0.351318H7.69714L21.4089 13.0219C21.6698 13.2638 22.0524 13.3302 22.382 13.1907C22.7117 13.0513 22.9249 12.7328 22.9246 12.3807Z" fill="#00FFF6"/>
<path d="M56.1273 0.426987L81.2029 17.9803H71.9236L62.2782 11.229C62.0048 11.0369 61.645 11.0112 61.3463 11.1626C61.0476 11.3139 60.8601 11.6168 60.8607 11.9471V25.5929C60.861 25.6776 60.834 25.7601 60.7837 25.8289C60.7362 25.8946 60.6703 25.9445 60.5947 25.9729C60.5692 25.9826 60.5426 25.9898 60.5153 25.9943C60.4069 26.0123 60.2958 25.9871 60.2064 25.9244L39.2118 11.229C38.9384 11.0369 38.5786 11.0112 38.2799 11.1626C37.9812 11.3139 37.7937 11.6168 37.7943 11.9471L37.7865 20.7075H32.4099V0.758499C32.4105 0.606857 32.4969 0.468124 32.6339 0.398468C32.771 0.328827 32.936 0.339813 33.0623 0.426987L54.0563 15.1224C54.3296 15.3145 54.6893 15.3402 54.988 15.1888C55.2867 15.0375 55.4742 14.7346 55.4738 14.4043V0.758499C55.4738 0.533615 55.6592 0.351318 55.8879 0.351318C55.9021 0.351318 55.9161 0.352036 55.9301 0.353439C55.9462 0.355057 55.962 0.357605 55.9777 0.361038C56.012 0.368561 56.045 0.380371 56.0763 0.39624C56.0863 0.401291 56.0961 0.406754 56.1056 0.412628C56.113 0.417175 56.1202 0.421967 56.1273 0.426987Z" fill="#00FFF6"/>
<path d="M81 17.9804H81.2029L81 17.8383V17.9804Z" fill="#1F2024"/>
<path fill-rule="evenodd" clip-rule="evenodd" d="M100.435 9.13416C100.435 14.4633 103.771 18.2703 109.161 18.2703C114.553 18.2703 117.887 14.4633 117.887 9.13416C117.887 3.80499 114.553 0 109.161 0C103.769 0 100.435 3.80499 100.435 9.13416ZM104.027 9.13416C104.027 5.5831 105.827 3.04449 109.161 3.04449C112.499 3.04449 114.295 5.57986 114.295 9.13351C114.295 12.6872 112.497 15.2251 109.161 15.2251C105.825 15.2251 104.027 12.6852 104.027 9.13416Z" fill="#1F2024"/>
<path d="M99.1887 0.351349L90.6089 18.0946H89.9608L81.381 0.351349H85.0255L85.4014 0.60498L89.7488 9.9429C89.8431 10.1523 90.0533 10.2872 90.2852 10.2872C90.517 10.2872 90.7272 10.1523 90.8215 9.9429L95.1689 0.60498L95.5389 0.351349H99.1887Z" fill="#1F2024"/>
<path d="M125.646 18.0946H122.594L122.339 17.8416V0.60434L122.594 0.351349H125.646L125.9 0.60434V17.8416L125.646 18.0946Z" fill="#1F2024"/>
<path d="M143.39 12.4345L143.133 12.6878C142.62 14.4633 141.333 15.2251 139.275 15.2251C135.675 15.2251 134.13 12.6859 134.13 9.13416C134.13 5.58246 135.675 3.04449 139.275 3.04449C141.334 3.04279 142.62 3.80435 143.133 5.32919L143.39 5.58246H146.476L146.735 5.32919C146.219 2.02881 143.39 0 139.275 0C133.616 0 130.53 3.80499 130.53 9.13416C130.53 14.4633 133.616 18.2703 139.275 18.2703C143.39 18.2703 146.22 16.2415 146.735 12.6878L146.476 12.4345H143.39Z" fill="#1F2024"/>
<path d="M163.217 18.0946H151.09L150.831 17.8416V0.60434L151.09 0.351349H163.217L163.474 0.60434V3.13937L163.217 3.39301H154.701L154.443 3.64532V7.19553L154.701 7.44852H162.699L162.957 7.70151V10.2365L162.699 10.4895H154.701L154.443 10.7451V14.8006L154.701 15.0536H163.217L163.474 15.3066V17.8416L163.217 18.0946Z" fill="#1F2024"/>
<path fill-rule="evenodd" clip-rule="evenodd" d="M191.967 9.13416C191.967 14.4633 195.302 18.2703 200.691 18.2703C206.081 18.2703 209.418 14.4633 209.418 9.13416C209.418 3.80499 206.082 0 200.691 0C195.3 0 191.967 3.80499 191.967 9.13416ZM195.558 9.13416C195.558 5.5831 197.358 3.04449 200.691 3.04449C204.028 3.04449 205.825 5.57986 205.825 9.13351C205.825 12.6872 204.026 15.2251 200.691 15.2251C197.356 15.2251 195.558 12.6852 195.558 9.13416Z" fill="#1F2024"/>
<path fill-rule="evenodd" clip-rule="evenodd" d="M219.052 18.0946H213.419L213.158 17.8416V0.60434L213.419 0.351349H219.052C225.456 0.351349 227.76 3.64276 227.76 9.22202C227.76 14.8013 225.456 18.0946 219.052 18.0946ZM219.308 3.39236H217.003L216.747 3.64532V14.8006L217.003 15.0536H219.308C222.896 15.0536 224.176 13.2775 224.176 9.22202C224.176 5.16647 222.895 3.39236 219.308 3.39236Z" fill="#1F2024"/>
<path d="M184.625 18.0894H187.606L187.871 17.8364V0.60434L187.61 0.351349H184.583L184.322 0.60434L178.778 10.7319C178.678 10.928 178.475 11.0517 178.253 11.0517C178.031 11.0517 177.828 10.928 177.728 10.7319L172.182 0.60434L171.921 0.351349H168.895L168.639 0.60434V17.8364L168.895 18.0894H171.875L172.131 17.8364V7.95413H172.387L177.899 18.0946H178.601L184.113 7.95413H184.369V17.8364L184.625 18.0894Z" fill="#1F2024"/>
</svg>
