<svg width="47" height="46" viewBox="0 0 47 46" fill="none" xmlns="http://www.w3.org/2000/svg">
<path d="M23.1 45C35.2502 45 45.1 35.1503 45.1 23C45.1 10.8497 35.2502 1 23.1 1C10.9497 1 1.09998 10.8497 1.09998 23C1.09998 35.1503 10.9497 45 23.1 45Z" stroke="url(#paint0_linear_127_321)" stroke-width="2"/>
<path d="M21.1239 21.9511C22.8889 23.0911 24.3709 24.6941 25.4199 26.5391L31.4399 20.5191C32.4589 19.5011 32.4589 17.8471 31.4399 16.8191L23.3829 8.76212C22.8889 8.26712 22.2229 7.99512 21.5379 7.99512H13.7729V8.03512L22.5559 16.8191C23.5749 17.8371 23.5749 19.4911 22.5559 20.5191L21.1239 21.9511Z" fill="url(#paint1_linear_127_321)"/>
<path d="M23.4439 37.238L31.4399 29.242C32.4589 28.223 32.4589 26.57 31.4399 25.541L23.3829 17.484C22.8889 16.99 22.2229 16.718 21.5379 16.718H13.7729V16.758L22.5559 25.541C23.5749 26.56 23.5749 28.213 22.5559 29.242L13.8029 37.995H21.5879C22.2839 38.005 22.9499 37.733 23.4339 37.238H23.4439Z" fill="#81154D"/>
<path d="M28.9189 23.02L23.3829 17.484C22.8889 16.99 22.2229 16.718 21.5379 16.718H13.7729V16.758L22.5559 25.541C23.5749 26.56 23.5749 28.213 22.5559 29.242" fill="#4B153E"/>
<defs>
<linearGradient id="paint0_linear_127_321" x1="6.29998" y1="23" x2="47.1" y2="23" gradientUnits="userSpaceOnUse">
<stop stop-color="#69255F"/>
<stop offset="1" stop-color="#D02185"/>
</linearGradient>
<linearGradient id="paint1_linear_127_321" x1="12.5999" y1="7.00012" x2="26.5999" y2="21.0001" gradientUnits="userSpaceOnUse">
<stop stop-color="#69255F"/>
<stop offset="1" stop-color="#D02185"/>
</linearGradient>
</defs>
</svg>
