<svg width="158" height="28" viewBox="0 0 158 28" fill="none" xmlns="http://www.w3.org/2000/svg">
<path d="M53.6757 5.40356H48.7617V10.181H53.6757V5.40356Z" fill="#0957E8"/>
<path d="M41.4382 5.40344H36.5244V10.1808H41.4382V5.40344Z" fill="#0957E8"/>
<path d="M48.7619 12.546V13.2083C48.7619 16.1409 47.2027 17.8911 45.0766 17.8911C42.6669 17.8911 41.4384 15.7625 41.4384 13.2083V12.546H36.5244V13.5394C36.5244 19.3101 39.9736 22.4793 45.0766 22.4793C50.6046 22.4793 53.6757 18.9317 53.6757 13.5394V12.546H48.7619Z" fill="#0957E8"/>
<path d="M12.1531 5.40344L8.58696 15.0876L4.97389 5.40344H0L6.10003 21.876L3.80079 27.9999H8.82157L17.1739 5.40344H12.1531Z" fill="#0957E8"/>
<path d="M25.7608 5.40344C21.0167 5.40344 17.1738 9.2505 17.1738 13.9999C17.1738 18.7494 21.0167 22.5965 25.7608 22.5965C30.505 22.5965 34.3478 18.7494 34.3478 13.9999C34.3478 9.2505 30.505 5.40344 25.7608 5.40344ZM25.7608 17.8945C23.6259 17.8945 21.9181 16.1372 21.9181 14.0474C21.9181 11.9577 23.6733 10.2004 25.7608 10.2004C27.8482 10.2004 29.6036 11.9577 29.6036 14.0474C29.6036 16.1372 27.8956 17.8945 25.7608 17.8945Z" fill="#0957E8"/>
<path d="M149.413 5.40344C144.669 5.40344 140.826 9.2505 140.826 13.9999C140.826 18.7494 144.669 22.5965 149.413 22.5965C154.157 22.5965 158 18.7494 158 13.9999C158 9.2505 154.157 5.40344 149.413 5.40344ZM149.413 17.8945C147.278 17.8945 145.57 16.1372 145.57 14.0474C145.57 11.9577 147.326 10.2004 149.413 10.2004C151.5 10.2004 153.256 11.9577 153.256 14.0474C153.256 16.1372 151.548 17.8945 149.413 17.8945Z" fill="#0957E8"/>
<path d="M65.4985 5.36428C63.9315 5.36428 62.412 5.79153 61.1774 6.55107V0H56.4287V22.5965H61.1774V21.4096C62.4594 22.1693 63.9315 22.5965 65.4985 22.5965C70.247 22.5965 74.0933 18.7513 74.0933 14.0041C74.0933 9.25697 70.247 5.36428 65.4985 5.36428ZM65.4985 17.8493C63.3618 17.8493 61.6522 16.0929 61.6522 14.0041C61.6522 11.9154 63.4092 10.1589 65.4985 10.1589C67.5879 10.1589 69.3448 11.9154 69.3448 14.0041C69.3448 16.0929 67.6353 17.8493 65.4985 17.8493Z" fill="#0957E8"/>
<path d="M109.586 10.1164C109.492 9.64367 109.351 9.2182 109.117 8.84002C108.929 8.46184 108.648 8.03637 108.32 7.65819C108.086 7.32729 107.757 7.09094 107.429 6.85459C107.101 6.61821 106.726 6.42911 106.351 6.28729C105.976 6.14549 105.554 6.05094 105.179 5.95639C104.757 5.90911 104.382 5.86184 104.007 5.86184C103.163 5.86184 102.366 6.00364 101.616 6.33456C100.866 6.66547 100.303 7.18547 99.9282 7.89457L99.8814 8.13092V0H95.1934V22.502H99.8814V13.5673C99.8814 13.3782 99.8814 13.0946 99.9282 12.7637C99.975 12.3855 100.069 12.0546 100.209 11.7237C100.35 11.3928 100.632 11.0618 101.007 10.8255C101.382 10.5418 101.897 10.4473 102.554 10.4473C103.163 10.4473 103.679 10.5891 104.054 10.8728C104.429 11.1564 104.663 11.4873 104.804 11.8655C104.945 12.2437 105.038 12.6219 105.085 13.0001C105.132 13.3782 105.132 13.6619 105.132 13.851V22.5965H109.914V13.6146C109.914 12.9055 109.914 12.2437 109.867 11.7237C109.773 11.1091 109.726 10.5891 109.586 10.1164Z" fill="#0957E8"/>
<path d="M136.709 6.96643C136.472 7.20326 136.235 7.6769 136.235 7.6769V5.40344H131.503V22.5965H136.235V12.7448C136.377 11.0397 137.939 9.71352 139.879 9.71352C140.211 9.71352 140.542 9.76087 140.826 9.80825V5.4508C138.223 5.4508 136.945 6.68225 136.709 6.96643Z" fill="#0957E8"/>
<path d="M92.5487 15.4327H81.3151C81.6974 17.2952 83.2749 18.2982 85.1871 18.2982C86.7167 18.2982 88.0552 17.6295 89.2025 16.2923L92.023 19.4443C90.6367 21.2115 88.103 22.5965 84.6613 22.5965C79.7375 22.5965 76.0566 19.1578 76.0566 13.9999C76.0566 8.9853 79.5941 5.40344 84.47 5.40344C89.3458 5.40344 92.7399 8.93755 92.7399 13.8567C92.6443 14.3342 92.5965 15.0984 92.5487 15.4327ZM81.2673 12.3284L87.4816 12.2806C87.1471 10.6568 86.0476 9.65391 84.47 9.65391C82.8925 9.65391 81.6497 10.6091 81.2673 12.3284Z" fill="#0957E8"/>
<path d="M128.859 15.4327H117.626C118.008 17.2952 119.585 18.2982 121.498 18.2982C123.027 18.2982 124.366 17.6295 125.513 16.2923L128.334 19.4443C126.947 21.2115 124.414 22.5965 120.972 22.5965C116.048 22.5965 112.367 19.1578 112.367 13.9999C112.367 8.9853 115.905 5.40344 120.781 5.40344C125.656 5.40344 129.05 8.93755 129.05 13.8567C129.003 14.3342 128.955 15.0984 128.859 15.4327ZM117.626 12.3284L123.84 12.2806C123.505 10.6568 122.406 9.65391 120.828 9.65391C119.251 9.65391 117.96 10.6091 117.626 12.3284Z" fill="#0957E8"/>
</svg>
