<svg width="123" height="22" fill="none" xmlns="http://www.w3.org/2000/svg"><rect width="123" height="22" rx="11" fill="url(#paint0_linear_1072_327)"/><path d="M112.002 8.582l-1.895-1.896a1.07 1.07 0 00-1.512 0l-5.851 5.85a2.427 2.427 0 00-.545.783 2.405 2.405 0 001.3 3.19 2.41 2.41 0 002.651-.565l5.85-5.85a1.068 1.068 0 00.002-1.512zm-6.69 6.522a1.225 1.225 0 01-1.731-1.731l3.306-3.305c.02.03.043.057.067.083l1.582 1.581a.536.536 0 00.083.067l-3.307 3.305zm4.129-4.127a.588.588 0 00-.067-.083l-1.581-1.581a.604.604 0 00-.084-.067l1.641-1.64 1.731 1.73-1.64 1.641zM113.105 4l-.559 1.022-1.022.56 1.022.559.559 1.021.56-1.021 1.022-.56-1.022-.56-.56-1.021zm0 7.51l-.488.894-.895.49.895.489.488.895.488-.896.896-.488-.896-.49-.488-.893zM105.5 5.091l-.894.49.894.49.49.894.49-.894.894-.49-.894-.49-.49-.893-.49.893zM9 15l3.19-7.05h1.08L16.5 15h-1.31l-.86-1.98.52.35h-4.23l.54-.35L10.3 15H9zm3.72-5.67l-1.41 3.34-.26-.31h3.36l-.21.31-1.44-3.34h-.04zm6.942 5.77c-.567 0-1.09-.07-1.57-.21a4.01 4.01 0 01-1.22-.6l.4-1.01c.227.16.463.297.71.41.247.107.51.19.79.25.28.053.577.08.89.08.527 0 .907-.087 1.14-.26a.81.81 0 00.35-.68c0-.247-.08-.433-.24-.56-.16-.133-.447-.243-.86-.33l-1.13-.23c-.647-.133-1.13-.357-1.45-.67-.32-.313-.48-.733-.48-1.26 0-.44.116-.823.35-1.15.233-.327.56-.58.98-.76.42-.18.91-.27 1.47-.27.5 0 .963.073 1.39.22.427.14.783.343 1.07.61l-.4.96c-.287-.24-.6-.417-.94-.53-.34-.12-.72-.18-1.14-.18-.473 0-.843.093-1.11.28-.26.18-.39.43-.39.75 0 .247.08.443.24.59.166.147.447.26.84.34l1.12.22c.666.133 1.16.353 1.48.66.32.3.48.707.48 1.22 0 .42-.113.79-.34 1.11-.227.313-.547.56-.96.74-.414.173-.904.26-1.47.26zm6.445 0c-.566 0-1.09-.07-1.57-.21a4.011 4.011 0 01-1.22-.6l.4-1.01c.227.16.463.297.71.41.247.107.51.19.79.25.28.053.577.08.89.08.527 0 .907-.087 1.14-.26a.81.81 0 00.35-.68c0-.247-.08-.433-.24-.56-.16-.133-.447-.243-.86-.33l-1.13-.23c-.646-.133-1.13-.357-1.45-.67-.32-.313-.48-.733-.48-1.26 0-.44.117-.823.35-1.15.233-.327.56-.58.98-.76.42-.18.91-.27 1.47-.27.5 0 .964.073 1.39.22.427.14.784.343 1.07.61l-.4.96c-.287-.24-.6-.417-.94-.53-.34-.12-.72-.18-1.14-.18-.473 0-.843.093-1.11.28-.26.18-.39.43-.39.75 0 .247.08.443.24.59.167.147.447.26.84.34l1.12.22c.667.133 1.16.353 1.48.66.32.3.48.707.48 1.22 0 .42-.113.79-.34 1.11-.226.313-.546.56-.96.74-.413.173-.903.26-1.47.26zm3.986-.1V7.95h1.29V15h-1.29zm5.301.1c-.566 0-1.09-.07-1.57-.21a4.011 4.011 0 01-1.22-.6l.4-1.01c.227.16.464.297.71.41.247.107.51.19.79.25.28.053.577.08.89.08.527 0 .907-.087 1.14-.26.234-.173.35-.4.35-.68 0-.247-.08-.433-.24-.56-.16-.133-.446-.243-.86-.33l-1.13-.23c-.646-.133-1.13-.357-1.45-.67-.32-.313-.48-.733-.48-1.26 0-.44.117-.823.35-1.15.234-.327.56-.58.98-.76.42-.18.91-.27 1.47-.27.5 0 .964.073 1.39.22.427.14.784.343 1.07.61l-.4.96c-.286-.24-.6-.417-.94-.53-.34-.12-.72-.18-1.14-.18-.473 0-.843.093-1.11.28-.26.18-.39.43-.39.75 0 .247.08.443.24.59.167.147.447.26.84.34l1.12.22c.667.133 1.16.353 1.48.66.32.3.48.707.48 1.22 0 .42-.113.79-.34 1.11-.226.313-.546.56-.96.74-.413.173-.903.26-1.47.26zm5.499-.1V9.01h-2.33V7.95h5.95v1.06h-2.33V15h-1.29zm2.97 0l3.19-7.05h1.08l3.23 7.05h-1.31l-.86-1.98.52.35h-4.23l.54-.35-.86 1.98h-1.3zm3.72-5.67l-1.41 3.34-.26-.31h3.36l-.21.31-1.44-3.34h-.04zm4.56 5.67V7.95h.97l4.09 5.29h-.26V7.95h1.2V15h-.97l-4.08-5.29h.25V15h-1.2zm9.209 0V9.01h-2.33V7.95h5.95v1.06h-2.33V15h-1.29zm7.286 0V7.95h1.13l2.59 5.83h-.31l2.59-5.83h1.12V15h-1.17V9.77h.36L72.578 15h-.77l-2.37-5.23h.37V15h-1.17zm8.461-3.53c0-.74.133-1.38.4-1.92a2.94 2.94 0 011.17-1.25c.507-.3 1.11-.45 1.81-.45.693 0 1.293.15 1.8.45.507.293.897.71 1.17 1.25.28.54.42 1.177.42 1.91 0 .74-.14 1.383-.42 1.93a3.01 3.01 0 01-1.17 1.26c-.507.3-1.107.45-1.8.45-.7 0-1.303-.15-1.81-.45-.5-.3-.887-.72-1.16-1.26-.273-.547-.41-1.187-.41-1.92zm1.35 0c0 .793.17 1.413.51 1.86.34.447.846.67 1.52.67.653 0 1.156-.223 1.51-.67.353-.447.53-1.067.53-1.86 0-.8-.177-1.42-.53-1.86-.347-.44-.85-.66-1.51-.66-.674 0-1.18.22-1.52.66-.34.44-.51 1.06-.51 1.86zM85.2 15V7.95h2.56c.807 0 1.487.14 2.04.42.56.273.983.673 1.27 1.2.287.52.43 1.153.43 1.9 0 .74-.143 1.373-.43 1.9-.287.527-.71.93-1.27 1.21-.553.28-1.233.42-2.04.42H85.2zm1.29-1.07h1.19c.853 0 1.487-.203 1.9-.61.413-.407.62-1.023.62-1.85 0-.833-.207-1.45-.62-1.85-.413-.407-1.047-.61-1.9-.61h-1.19v4.92zM92.817 15V7.95h4.75v1.01h-3.51v1.95h3.28v1.02h-3.28v2.05h3.51V15h-4.75z" fill="#F0F0F0"/><defs><linearGradient id="paint0_linear_1072_327" x1="104.801" y1="3.031" x2="100.985" y2="31.873" gradientUnits="userSpaceOnUse"><stop stop-color="#F5B70D"/><stop offset="1" stop-color="#F2383E"/></linearGradient></defs></svg>