<svg width="194" height="36" fill="none" xmlns="http://www.w3.org/2000/svg"><path d="M56.803 19.83v7.136h-2.212V8.084h5.188c2.019 0 3.581.492 4.687 1.475 1.115.983 1.673 2.37 1.673 4.16 0 1.791-.62 3.257-1.857 4.399-1.229 1.14-2.892 1.711-4.99 1.711h-2.489zm0-9.744v7.742h2.318c1.527 0 2.69-.347 3.489-1.04.807-.703 1.211-1.69 1.211-2.963 0-2.493-1.474-3.74-4.424-3.74h-2.594zm19.645 5.582c-.377-.29-.921-.434-1.632-.434-.922 0-1.695.434-2.318 1.303-.614.87-.921 2.055-.921 3.556v6.873h-2.16V13.483h2.16v2.778h.052c.307-.948.777-1.685 1.41-2.212.631-.536 1.338-.803 2.119-.803.562 0 .992.061 1.29.184v2.238zm7.611 11.614c-1.993 0-3.586-.628-4.78-1.883-1.185-1.264-1.777-2.936-1.777-5.017 0-2.265.619-4.033 1.856-5.306 1.238-1.273 2.91-1.91 5.017-1.91 2.01 0 3.577.62 4.7 1.857 1.133 1.238 1.7 2.954 1.7 5.149 0 2.15-.611 3.875-1.831 5.174-1.212 1.29-2.84 1.936-4.885 1.936zm.158-12.298c-1.387 0-2.484.474-3.292 1.422-.807.939-1.211 2.238-1.211 3.897 0 1.598.408 2.857 1.224 3.78.817.92 1.91 1.382 3.279 1.382 1.396 0 2.466-.452 3.213-1.357.755-.904 1.132-2.19 1.132-3.858 0-1.685-.377-2.984-1.132-3.897-.747-.913-1.817-1.37-3.213-1.37zM96.383 26.4c0 2.212-.447 3.915-1.343 5.108-.886 1.203-2.16 1.804-3.818 1.804a4.06 4.06 0 01-1.79-.421v-2.015c.649.395 1.263.593 1.842.593 1.967 0 2.95-1.571 2.95-4.714V13.483h2.16v12.916zM95.33 10.06a1.37 1.37 0 01-.988-.396 1.333 1.333 0 01-.408-1c0-.404.136-.738.408-1.001.273-.272.602-.408.988-.408.395 0 .728.136 1 .408.282.263.422.597.422 1 0 .387-.14.716-.421.988a1.36 1.36 0 01-1.001.408zm16.261 10.704h-9.52c.036 1.501.439 2.66 1.212 3.476.772.817 1.834 1.225 3.186 1.225 1.519 0 2.915-.5 4.187-1.501v2.027c-1.185.86-2.752 1.29-4.7 1.29-1.905 0-3.402-.61-4.49-1.83-1.089-1.228-1.633-2.953-1.633-5.174 0-2.098.593-3.805 1.778-5.122 1.193-1.326 2.672-1.988 4.437-1.988 1.764 0 3.129.57 4.095 1.711.965 1.142 1.448 2.726 1.448 4.754v1.132zm-2.212-1.83c-.009-1.247-.311-2.217-.908-2.91-.589-.694-1.409-1.04-2.463-1.04a3.489 3.489 0 00-2.594 1.093c-.711.728-1.149 1.68-1.316 2.857h7.281zm14.681 7.413c-1.035.623-2.264.935-3.686.935-1.923 0-3.476-.623-4.662-1.87-1.176-1.255-1.764-2.88-1.764-4.872 0-2.22.637-4.003 1.909-5.346 1.273-1.351 2.972-2.027 5.096-2.027 1.185 0 2.23.22 3.134.658v2.212c-1.001-.702-2.072-1.053-3.213-1.053-1.378 0-2.511.496-3.397 1.488-.878.983-1.317 2.277-1.317 3.884 0 1.58.413 2.826 1.238 3.74.834.912 1.949 1.369 3.344 1.369 1.177 0 2.283-.39 3.318-1.172v2.054zm9.52.487c-.509.28-1.18.421-2.014.421-2.362 0-3.542-1.316-3.542-3.95v-7.979h-2.318v-1.843h2.318V10.19l2.159-.698v3.99h3.397v1.843h-3.397v7.597c0 .905.154 1.55.461 1.936.307.386.816.58 1.527.58.545 0 1.014-.15 1.409-.448v1.843zm27.559-18.75l-4.991 18.882h-4.713l-3.134-12.114a10.078 10.078 0 01-.303-2.12h-.053c-.079.86-.193 1.567-.342 2.12l-3.213 12.114h-4.911l-4.964-18.882h4.648l2.66 12.575c.114.535.197 1.255.25 2.16h.079a10.41 10.41 0 01.382-2.213l3.423-12.522h4.556l3.094 12.68c.114.465.215 1.141.303 2.028h.053a13.6 13.6 0 01.276-2.107l2.607-12.6h4.293zm4.095 3.266c-.703 0-1.277-.207-1.725-.62a2.035 2.035 0 01-.672-1.54c0-.623.224-1.132.672-1.527.448-.395 1.022-.593 1.725-.593.711 0 1.286.198 1.725.593.447.395.671.904.671 1.527 0 .632-.224 1.15-.671 1.554-.439.404-1.014.606-1.725.606zm2.054 15.616h-4.161V13.483h4.161v13.483zm12.298-9.731c-.501-.272-1.084-.408-1.751-.408-.905 0-1.611.334-2.12 1-.509.66-.764 1.559-.764 2.7v6.439h-4.161V13.483h4.161v2.501h.053c.658-1.825 1.843-2.738 3.555-2.738.439 0 .781.052 1.027.158v3.831zm13.957 4.175h-8.796c.141 1.957 1.374 2.936 3.7 2.936 1.484 0 2.787-.352 3.911-1.054v3.002c-1.247.667-2.866 1-4.859 1-2.177 0-3.867-.6-5.069-1.803-1.203-1.211-1.804-2.897-1.804-5.056 0-2.238.65-4.012 1.949-5.32 1.299-1.308 2.896-1.962 4.793-1.962 1.966 0 3.484.584 4.555 1.752 1.08 1.167 1.62 2.752 1.62 4.753v1.751zm-3.858-2.555c0-1.931-.781-2.897-2.344-2.897-.667 0-1.246.277-1.738.83-.483.553-.777 1.242-.882 2.067h4.964z" fill="#424242"/><path fill-rule="evenodd" clip-rule="evenodd" d="M19.701.062a2.247 2.247 0 012.527 1.168l7.366 14.5h8.608a2.247 2.247 0 110 4.495h-9.987c-.846 0-1.62-.475-2.004-1.23l-3.74-7.361v22.074a2.247 2.247 0 01-4.25 1.017l-7.365-14.5H2.247a2.247 2.247 0 010-4.495h9.988c.846 0 1.62.476 2.003 1.23l3.74 7.362V2.247c0-1.04.712-1.943 1.723-2.185z" fill="#424242"/></svg>