<svg width="64" height="64" fill="none" xmlns="http://www.w3.org/2000/svg"><path d="M33.565 37.354V18.698H30.34v18.656h3.224z" fill="#000"/><path d="M33.565 18.698V.043H30.34v18.655h3.224z" fill="#0019FF"/><path d="M33.797 18.728L34.122.075 30.9.02l-.326 18.652 3.224.057z" fill="#0015FF"/><path d="M34.028 18.761L34.68.117 31.457.005l-.65 18.643 3.221.113z" fill="#01F"/><path d="M34.259 18.798l.976-18.63L32.016 0l-.976 18.63 3.219.168z" fill="#000CFF"/><path d="M34.49 18.84L35.79.23 32.576.005l-1.302 18.61 3.216.225z" fill="#0008FF"/><path d="M34.718 18.885L36.344.301l-3.212-.28-1.626 18.583 3.212.281z" fill="#0004FF"/><path d="M34.947 18.935L36.897.382 33.691.045l-1.95 18.553 3.206.337z" fill="#00F"/><path d="M35.174 18.988L37.448.472l-3.2-.393-2.273 18.516 3.2.393z" fill="#0500FF"/><path d="M35.4 19.046L37.998.572 34.805.123l-2.597 18.474 3.193.449z" fill="#0900FF"/><path d="M35.627 19.107L38.545.68 35.36.177l-2.918 18.426 3.184.504z" fill="#0D00FF"/><path d="M35.85 19.172L39.09.8 35.916.24l-3.24 18.372 3.175.56z" fill="#10F"/><path d="M36.074 19.241L39.634.93 36.468.314l-3.56 18.312 3.165.615z" fill="#1600FF"/><path d="M36.296 19.314l3.879-18.247-3.153-.67-3.88 18.247 3.154.67z" fill="#1A00FF"/><path d="M36.517 19.391l4.196-18.177-3.14-.725-4.197 18.177 3.14.725z" fill="#1E00FF"/><path d="M36.736 19.472L41.25 1.371 38.12.59l-4.513 18.101 3.128.78z" fill="#20F"/><path d="M36.954 19.557l4.828-18.02-3.114-.834-4.828 18.02 3.114.834z" fill="#2700FF"/><path d="M37.17 19.645l5.143-17.933-3.099-.888-5.142 17.932 3.099.889z" fill="#2B00FF"/><path d="M37.386 19.737l5.454-17.84-3.083-.943-5.454 17.84 3.083.943z" fill="#2F00FF"/><path d="M37.599 19.833l5.764-17.742-3.066-.996-5.764 17.742 3.066.996z" fill="#30F"/><path d="M37.81 19.933l6.074-17.64-3.048-1.049-6.074 17.639 3.048 1.05z" fill="#3800FF"/><path d="M38.02 20.036l6.38-17.53-3.029-1.103-6.38 17.53 3.029 1.103z" fill="#3C00FF"/><path d="M38.228 20.143l6.686-17.417-3.01-1.155-6.686 17.416 3.01 1.156z" fill="#4000FF"/><path d="M38.434 20.253l6.988-17.297-2.99-1.207-6.988 17.297 2.99 1.207z" fill="#40F"/><path d="M38.638 20.367l7.289-17.172-2.968-1.26-7.289 17.173 2.968 1.26z" fill="#4800FF"/><path d="M38.84 20.485l7.588-17.043-2.945-1.31-7.588 17.042 2.945 1.31z" fill="#4D00FF"/><path d="M39.04 20.606l7.884-16.907-2.922-1.363-7.884 16.908 2.922 1.362z" fill="#5100FF"/><path d="M39.238 20.73l8.178-16.767-2.898-1.413-8.178 16.767 2.898 1.414z" fill="#50F"/><path d="M39.433 20.859l8.47-16.622-2.873-1.464-8.47 16.622 2.873 1.464z" fill="#5900FF"/><path d="M39.627 20.99l8.758-16.472-2.847-1.513-8.758 16.472 2.847 1.513z" fill="#5E00FF"/><path d="M39.817 21.125l9.044-16.316-2.82-1.563-9.043 16.316 2.82 1.563z" fill="#6200FF"/><path d="M40.006 21.263l9.328-16.156-2.792-1.612-9.328 16.156 2.792 1.612z" fill="#60F"/><path d="M40.192 21.404L49.8 5.414l-2.763-1.66-9.608 15.99 2.763 1.66z" fill="#6A00FF"/><path d="M40.376 21.549l9.886-15.82-2.734-1.71-9.886 15.821 2.734 1.709z" fill="#6F00FF"/><path d="M40.557 21.697L50.717 6.05l-2.703-1.756-10.16 15.646 2.703 1.756z" fill="#7300FF"/><path d="M40.735 21.848L51.167 6.382l-2.673-1.803-10.431 15.466 2.672 1.803z" fill="#70F"/><path d="M40.912 22.002l10.7-15.282-2.64-1.849L38.27 20.152l2.64 1.85z" fill="#7B00FF"/><path d="M41.084 22.159L52.05 7.066l-2.608-1.895-10.966 15.093 2.608 1.895z" fill="#8000FF"/><path d="M41.255 22.319l11.227-14.9-2.575-1.94-11.227 14.9 2.575 1.94z" fill="#8400FF"/><path d="M41.422 22.482l11.485-14.7-2.54-1.986-11.485 14.7 2.54 1.986z" fill="#80F"/><path d="M41.587 22.648L53.328 8.15l-2.505-2.03-11.74 14.499 2.505 2.029z" fill="#8C00FF"/><path d="M41.749 22.816L53.74 8.526l-2.47-2.073-11.99 14.291 2.469 2.072z" fill="#9100FF"/><path d="M41.907 22.988l12.24-14.08-2.433-2.114-12.24 14.079 2.434 2.115z" fill="#9500FF"/><path d="M42.063 23.162L54.546 9.3 52.15 7.14 39.667 21.005l2.396 2.157z" fill="#90F"/><path d="M42.216 23.34L54.94 9.694l-2.358-2.198L39.858 21.14l2.358 2.2z" fill="#9D00FF"/><path d="M42.366 23.519l12.959-13.42-2.32-2.24-12.958 13.42 2.319 2.24z" fill="#A100FF"/><path d="M42.512 23.7l13.192-13.19-2.28-2.28-13.191 13.191 2.28 2.28z" fill="#A600FF"/><path d="M42.656 23.886l13.42-12.96-2.24-2.318-13.42 12.959 2.24 2.319z" fill="#A0F"/><path d="M42.795 24.073L56.44 11.35l-2.2-2.358-13.643 12.723 2.198 2.358z" fill="#AE00FF"/><path d="M42.932 24.262L56.795 11.78l-2.157-2.396-13.863 12.483 2.157 2.395z" fill="#B200FF"/><path d="M43.066 24.454l14.079-12.239-2.115-2.433-14.08 12.24 2.116 2.433z" fill="#B700FF"/><path d="M43.196 24.649l14.29-11.992-2.072-2.47-14.29 11.992 2.072 2.47z" fill="#B0F"/><path d="M43.322 24.845l14.498-11.74-2.03-2.505-14.497 11.74 2.029 2.505z" fill="#BF00FF"/><path d="M43.445 25.044l14.7-11.485-1.984-2.54-14.7 11.485 1.984 2.54z" fill="#C300FF"/><path d="M43.565 25.245l14.899-11.227-1.94-2.575L41.625 22.67l1.94 2.575z" fill="#C800FF"/><path d="M43.681 25.448l15.092-10.966-1.894-2.608L41.786 22.84l1.895 2.608z" fill="#C0F"/><path d="M43.794 25.652l15.281-10.7-1.849-2.64-15.281 10.7 1.849 2.64z" fill="#D000FF"/><path d="M43.902 25.86l15.466-10.433-1.803-2.672L42.1 23.187l1.802 2.672z" fill="#D400FF"/><path d="M44.008 26.068l15.646-10.16-1.756-2.704-15.646 10.16 1.756 2.704z" fill="#D900FF"/><path d="M44.11 26.278l15.82-9.885-1.708-2.734-15.82 9.885 1.708 2.734z" fill="#D0F"/><path d="M44.208 26.49l15.99-9.608-1.66-2.763-15.99 9.608 1.66 2.764z" fill="#E100FF"/><path d="M44.301 26.704l16.157-9.327-1.612-2.792-16.156 9.328 1.611 2.791z" fill="#E500FF"/><path d="M44.392 26.92l16.316-9.044-1.562-2.82L42.829 24.1l1.563 2.82z" fill="#EA00FF"/><path d="M44.479 27.137l16.472-8.758-1.514-2.847-16.471 8.759 1.513 2.846z" fill="#E0F"/><path d="M44.562 27.356l16.622-8.47-1.463-2.872-16.622 8.47 1.463 2.872z" fill="#F200FF"/><path d="M44.641 27.576l16.768-8.178-1.413-2.898-16.768 8.178 1.413 2.898z" fill="#F600FF"/><path d="M44.717 27.797l16.907-7.884-1.362-2.922-16.908 7.884 1.363 2.922z" fill="#FA00FF"/><path d="M44.788 28.02l17.043-7.588-1.312-2.945-17.042 7.587 1.311 2.945z" fill="#F0F"/><path d="M44.855 28.243l17.173-7.289-1.26-2.968-17.172 7.29 1.26 2.967z" fill="#FF00FB"/><path d="M44.92 28.468l17.296-6.988-1.207-2.99-17.297 6.99 1.207 2.988z" fill="#FF00F7"/><path d="M44.979 28.694l17.416-6.685-1.155-3.01-17.416 6.686 1.155 3.01z" fill="#FF00F3"/><path d="M45.034 28.921l17.53-6.38-1.102-3.03-17.53 6.38 1.102 3.03z" fill="#F0E"/><path d="M45.086 29.15l17.64-6.074-1.05-3.049-17.64 6.074 1.05 3.048z" fill="#FF00EA"/><path d="M45.134 29.378l17.742-5.765-.996-3.066-17.742 5.765.996 3.066z" fill="#FF00E6"/><path d="M45.178 29.608l17.84-5.455-.943-3.083-17.84 5.455.943 3.083z" fill="#FF00E2"/><path d="M45.217 29.838l17.933-5.142-.889-3.099-17.932 5.142.888 3.099z" fill="#F0D"/><path d="M45.253 30.069l18.02-4.828-.834-3.114-18.02 4.828.834 3.114z" fill="#FF00D9"/><path d="M45.285 30.3l18.101-4.513-.78-3.128-18.1 4.514.78 3.128z" fill="#FF00D5"/><path d="M45.313 30.533l18.177-4.197-.725-3.141-18.178 4.197.726 3.14z" fill="#FF00D1"/><path d="M45.336 30.765l18.248-3.878-.67-3.154-18.248 3.879.67 3.153z" fill="#F0C"/><path d="M45.355 30.998l18.313-3.56-.615-3.164-18.313 3.56.615 3.164z" fill="#FF00C8"/><path d="M45.371 31.231l18.372-3.239-.56-3.175-18.371 3.24.56 3.174z" fill="#FF00C4"/><path d="M45.383 31.465l18.425-2.918-.504-3.184-18.426 2.918.505 3.184z" fill="#FF00C0"/><path d="M45.39 31.699l18.474-2.597-.449-3.192-18.474 2.596.449 3.193z" fill="#F0B"/><path d="M45.393 31.932L63.91 29.66l-.393-3.2L45 28.733l.393 3.2z" fill="#FF00B7"/><path d="M45.392 32.166l18.553-1.95-.337-3.206-18.553 1.95.337 3.206z" fill="#FF00B3"/><path d="M45.387 32.4l18.585-1.626-.281-3.212-18.585 1.626.281 3.212z" fill="#FF00AF"/><path d="M45.378 32.633l18.61-1.301-.225-3.216-18.61 1.301.225 3.216z" fill="#FF00AB"/><path d="M45.365 32.867l18.63-.977-.169-3.219-18.63.976.17 3.22z" fill="#FF00A6"/><path d="M45.348 33.1l18.644-.651-.112-3.222-18.644.651.112 3.222z" fill="#FF00A2"/><path d="M45.327 33.333l18.653-.326-.057-3.223-18.652.325.056 3.224z" fill="#FF009E"/><path d="M45.302 33.565h18.655v-3.224H45.302v3.224z" fill="#FF009A"/><path d="M45.272 33.797l18.653.326.056-3.224-18.652-.325-.057 3.223z" fill="#FF0095"/><path d="M45.239 34.028l18.644.651.112-3.221-18.644-.651-.112 3.221z" fill="#FF0091"/><path d="M45.201 34.259l18.63.976.169-3.219-18.63-.976-.169 3.219z" fill="#FF008D"/><path d="M45.16 34.49l18.61 1.3.224-3.215-18.61-1.302-.224 3.216z" fill="#FF0089"/><path d="M45.114 34.718L63.7 36.344l.28-3.211-18.584-1.626-.28 3.211z" fill="#FF0084"/><path d="M45.065 34.947l18.553 1.95.337-3.206-18.553-1.95-.337 3.206z" fill="#FF0080"/><path d="M45.012 35.174l18.516 2.274.393-3.2-18.517-2.273-.392 3.2z" fill="#FF007C"/><path d="M44.955 35.401l18.473 2.596.449-3.192-18.474-2.596-.448 3.192z" fill="#FF0078"/><path d="M44.893 35.627l18.425 2.918.505-3.184-18.426-2.918-.504 3.184z" fill="#FF0073"/><path d="M44.828 35.851l18.372 3.24.56-3.175-18.372-3.24-.56 3.175z" fill="#FF006F"/><path d="M44.759 36.074l18.312 3.56.615-3.165-18.312-3.56-.615 3.165z" fill="#FF006B"/><path d="M44.685 36.296l18.248 3.879.67-3.153-18.247-3.879-.67 3.153z" fill="#FF0067"/><path d="M44.608 36.517l18.178 4.197.725-3.141-18.177-4.197-.726 3.141z" fill="#FF0062"/><path d="M44.528 36.736l18.1 4.514.78-3.128-18.1-4.514-.78 3.129z" fill="#FF005E"/><path d="M44.443 36.954l18.02 4.829.834-3.114-18.02-4.828-.834 3.113z" fill="#FF005A"/><path d="M44.355 37.17l17.933 5.143.888-3.099-17.932-5.142-.889 3.099z" fill="#FF0056"/><path d="M44.263 37.386l17.84 5.454.943-3.083-17.84-5.454-.943 3.083z" fill="#FF0052"/><path d="M44.166 37.599l17.743 5.765.996-3.066-17.742-5.765-.997 3.066z" fill="#FF004D"/><path d="M44.067 37.81l17.64 6.074 1.049-3.048-17.64-6.074-1.049 3.048z" fill="#FF0049"/><path d="M43.964 38.02l17.53 6.38 1.103-3.029-17.53-6.38-1.103 3.03z" fill="#FF0045"/><path d="M43.857 38.228l17.416 6.685 1.156-3.01-17.416-6.685-1.156 3.01z" fill="#FF0041"/><path d="M43.747 38.434l17.297 6.988 1.207-2.989-17.297-6.988-1.207 2.989z" fill="#FF003C"/><path d="M43.633 38.638l17.172 7.29 1.26-2.968-17.172-7.29-1.26 2.968z" fill="#FF0038"/><path d="M43.515 38.84l17.042 7.588 1.311-2.945-17.042-7.588-1.311 2.945z" fill="#FF0034"/><path d="M43.394 39.04L60.3 46.924l1.363-2.922-16.908-7.884-1.362 2.922z" fill="#FF0030"/><path d="M43.27 39.238l16.767 8.178 1.413-2.898-16.768-8.178-1.413 2.898z" fill="#FF002B"/><path d="M43.141 39.433l16.622 8.47 1.464-2.873-16.622-8.47-1.464 2.873z" fill="#FF0027"/><path d="M43.01 39.627l16.471 8.758 1.514-2.847-16.472-8.758-1.513 2.847z" fill="#FF0023"/><path d="M42.875 39.818l16.316 9.044 1.563-2.82-16.316-9.044-1.563 2.82z" fill="#FF001F"/><path d="M42.737 40.006l16.156 9.328 1.611-2.792-16.155-9.328-1.612 2.792z" fill="#FF001A"/><path d="M42.596 40.192l15.99 9.608 1.66-2.763-15.99-9.608-1.66 2.763z" fill="#FF0016"/><path d="M42.45 40.376l15.822 9.886 1.708-2.734-15.82-9.886-1.71 2.734z" fill="#FF0012"/><path d="M42.303 40.557l15.646 10.16 1.756-2.703-15.646-10.16-1.756 2.703z" fill="#FF000E"/><path d="M42.152 40.736l15.466 10.432 1.803-2.673-15.466-10.432-1.803 2.673z" fill="#FF0009"/><path d="M41.998 40.911l15.282 10.7 1.849-2.64-15.282-10.7-1.849 2.64z" fill="#FF0005"/><path d="M41.841 41.085L56.934 52.05l1.895-2.608-15.093-10.965-1.895 2.608z" fill="#FF0001"/><path d="M41.681 41.255l14.9 11.227 1.94-2.575-14.9-11.227-1.94 2.575z" fill="#FF0300"/><path d="M41.518 41.423l14.7 11.485 1.985-2.54-14.7-11.486-1.985 2.54z" fill="#FF0700"/><path d="M41.352 41.587l14.498 11.74 2.029-2.505-14.498-11.74-2.029 2.505z" fill="#FF0C00"/><path d="M41.183 41.749L55.474 53.74l2.072-2.47-14.29-11.99-2.073 2.469z" fill="#FF1000"/><path d="M41.012 41.908l14.08 12.239 2.114-2.433-14.08-12.24-2.114 2.434z" fill="#FF1400"/><path d="M40.838 42.064l13.864 12.482 2.157-2.395-13.864-12.483-2.157 2.396z" fill="#FF1800"/><path d="M40.661 42.216L54.305 54.94l2.198-2.358L42.86 39.86l-2.199 2.357z" fill="#FF1D00"/><path d="M40.481 42.366l13.42 12.959 2.24-2.319-13.42-12.96-2.24 2.32z" fill="#FF2100"/><path d="M40.299 42.512L53.49 55.704l2.28-2.28-13.192-13.191-2.28 2.28z" fill="#FF2500"/><path d="M40.114 42.656l12.96 13.42 2.318-2.24-12.959-13.42-2.319 2.24z" fill="#FF2900"/><path d="M39.927 42.796L52.65 56.439l2.358-2.198-12.723-13.644-2.358 2.199z" fill="#FF2E00"/><path d="M39.737 42.932L52.22 56.796l2.395-2.157-12.482-13.864-2.396 2.157z" fill="#FF3200"/><path d="M39.545 43.066l12.24 14.079 2.432-2.115-12.239-14.08-2.433 2.116z" fill="#FF3600"/><path d="M39.35 43.196l11.992 14.29 2.47-2.072-11.992-14.29-2.47 2.072z" fill="#FF3A00"/><path d="M39.155 43.322l11.74 14.498 2.505-2.029-11.74-14.497-2.505 2.028z" fill="#FF3F00"/><path d="M38.956 43.445L50.44 58.146l2.54-1.985-11.485-14.7-2.54 1.984z" fill="#FF4300"/><path d="M38.755 43.565l11.227 14.899 2.575-1.94-11.227-14.9-2.575 1.941z" fill="#FF4700"/><path d="M38.552 43.681l10.966 15.093 2.608-1.895L41.16 41.786l-2.608 1.895z" fill="#FF4B00"/><path d="M38.348 43.794l10.7 15.281 2.64-1.849-10.7-15.281-2.64 1.849z" fill="#FF5000"/><path d="M38.14 43.903l10.432 15.466 2.673-1.803L40.813 42.1l-2.673 1.803z" fill="#FF5400"/><path d="M37.932 44.008l10.16 15.646 2.704-1.756-10.16-15.646-2.704 1.756z" fill="#FF5800"/><path d="M37.722 44.11l9.885 15.82 2.734-1.708-9.886-15.82-2.733 1.708z" fill="#FF5C00"/><path d="M37.509 44.208l9.608 15.99 2.764-1.66-9.609-15.99-2.763 1.66z" fill="#FF6000"/><path d="M37.295 44.302l9.328 16.156 2.792-1.612-9.328-16.156-2.792 1.612z" fill="#FF6500"/><path d="M37.08 44.393l9.044 16.316 2.82-1.563-9.045-16.316-2.82 1.563z" fill="#FF6900"/><path d="M36.862 44.48l8.759 16.471 2.846-1.513-8.758-16.472-2.847 1.513z" fill="#FF6D00"/><path d="M36.644 44.562l8.47 16.622 2.872-1.463-8.47-16.622-2.872 1.463z" fill="#FF7100"/><path d="M36.424 44.642l8.178 16.767 2.898-1.413-8.178-16.768-2.898 1.413z" fill="#FF7600"/><path d="M36.203 44.717l7.884 16.907 2.922-1.362-7.884-16.908-2.922 1.363z" fill="#FF7A00"/><path d="M35.98 44.788l7.588 17.043 2.945-1.312-7.588-17.042-2.945 1.311z" fill="#FF7E00"/><path d="M35.757 44.856l7.289 17.172 2.967-1.26-7.289-17.172-2.967 1.26z" fill="#FF8200"/><path d="M35.532 44.92l6.988 17.296 2.989-1.207-6.988-17.297-2.99 1.207z" fill="#FF8700"/><path d="M35.305 44.979l6.686 17.416L45 61.24l-6.686-17.416-3.01 1.155z" fill="#FF8B00"/><path d="M35.078 45.035l6.381 17.53 3.03-1.103-6.381-17.53-3.03 1.103z" fill="#FF8F00"/><path d="M34.85 45.087l6.074 17.638 3.048-1.05L37.9 44.038l-3.048 1.05z" fill="#FF9300"/><path d="M34.622 45.134l5.765 17.742 3.066-.996-5.765-17.742-3.066.996z" fill="#FF9800"/><path d="M34.392 45.178l5.454 17.84 3.083-.942-5.454-17.84-3.083.942z" fill="#FF9C00"/><path d="M34.162 45.218l5.142 17.932 3.099-.888-5.142-17.933-3.1.889z" fill="#FFA000"/><path d="M33.93 45.254l4.83 18.02 3.113-.835-4.828-18.02-3.114.835z" fill="#FFA400"/><path d="M33.7 45.285l4.512 18.101 3.128-.78-4.513-18.1-3.128.78z" fill="#FFA900"/><path d="M33.467 45.313l4.197 18.177 3.14-.725-4.196-18.177-3.141.725z" fill="#FFAD00"/><path d="M33.235 45.336l3.878 18.248 3.154-.67-3.88-18.248-3.152.67z" fill="#FFB100"/><path d="M33.002 45.356l3.56 18.313 3.164-.616-3.56-18.312-3.164.615z" fill="#FFB500"/><path d="M32.768 45.371l3.24 18.372 3.175-.56-3.24-18.371-3.175.56z" fill="#FFB900"/><path d="M32.535 45.383l2.918 18.425 3.184-.504-2.918-18.426-3.184.505z" fill="#FFBE00"/><path d="M32.302 45.39l2.596 18.474 3.192-.449-2.596-18.474-3.192.449z" fill="#FFC200"/><path d="M32.068 45.393L34.34 63.91l3.2-.393L35.268 45l-3.2.393z" fill="#FFC600"/><path d="M31.834 45.392l1.95 18.553 3.206-.337-1.95-18.553-3.206.337z" fill="#FFCA00"/><path d="M31.6 45.388l1.626 18.584 3.211-.281-1.626-18.585-3.211.282z" fill="#FFCF00"/><path d="M31.366 45.378l1.301 18.61 3.216-.225-1.3-18.61-3.217.225z" fill="#FFD300"/><path d="M31.133 45.365l.976 18.63 3.22-.169-.977-18.63-3.219.17z" fill="gold"/><path d="M30.9 45.348l.651 18.644 3.222-.112-.651-18.644-3.222.112z" fill="#FFDB00"/><path d="M30.667 45.327l.326 18.652 3.223-.056-.326-18.652-3.223.056z" fill="#FFE000"/><path d="M30.435 45.302v18.655h3.224V45.302h-3.224z" fill="#FFE400"/><path d="M30.203 45.272l-.326 18.653 3.224.056.325-18.652-3.223-.057z" fill="#FFE800"/><path d="M29.972 45.239l-.651 18.644 3.222.112.65-18.643-3.221-.113z" fill="#FFEC00"/><path d="M29.741 45.202l-.976 18.63 3.219.168.976-18.63-3.219-.168z" fill="#FFF100"/><path d="M29.51 45.16l-1.3 18.61 3.215.225 1.302-18.61-3.216-.225z" fill="#FFF500"/><path d="M29.281 45.115l-1.626 18.584 3.212.28 1.626-18.583-3.212-.281z" fill="#FFF900"/><path d="M29.053 45.065l-1.95 18.553 3.206.337 1.95-18.553-3.206-.337z" fill="#FFFD00"/><path d="M28.826 45.012l-2.274 18.516 3.2.393 2.274-18.516-3.2-.393z" fill="#FCFF00"/><path d="M28.599 44.954l-2.597 18.474 3.193.449 2.596-18.474-3.192-.449z" fill="#F8FF00"/><path d="M28.373 44.893L25.455 63.32l3.184.504 2.919-18.426-3.185-.504z" fill="#F4FF00"/><path d="M28.149 44.828L24.909 63.2l3.175.56 3.24-18.372-3.175-.56z" fill="#F0FF00"/><path d="M27.925 44.759l-3.56 18.312 3.165.615 3.56-18.312-3.165-.615z" fill="#ECFF00"/><path d="M27.703 44.686l-3.878 18.247 3.153.67 3.879-18.247-3.154-.67z" fill="#E7FF00"/><path d="M27.482 44.609l-4.196 18.177 3.14.725 4.197-18.177-3.14-.725z" fill="#E3FF00"/><path d="M27.263 44.528L22.75 62.629l3.128.78 4.513-18.101-3.128-.78z" fill="#DFFF00"/><path d="M27.045 44.443l-4.828 18.02 3.114.834 4.828-18.02-3.114-.834z" fill="#DBFF00"/><path d="M26.83 44.355l-5.143 17.933 3.099.888 5.142-17.932-3.099-.889z" fill="#D6FF00"/><path d="M26.614 44.263l-5.454 17.84 3.083.943 5.454-17.84-3.083-.943z" fill="#D2FF00"/><path d="M26.401 44.167l-5.765 17.742 3.066.997 5.765-17.743-3.066-.996z" fill="#CEFF00"/><path d="M26.19 44.068l-6.074 17.638 3.048 1.05 6.073-17.639-3.048-1.05z" fill="#CAFF00"/><path d="M25.98 43.964l-6.38 17.53 3.028 1.103 6.381-17.53-3.03-1.103z" fill="#C5FF00"/><path d="M25.772 43.857l-6.686 17.417 3.01 1.155 6.686-17.416-3.01-1.156z" fill="#C1FF00"/><path d="M25.566 43.747l-6.989 17.297 2.99 1.207 6.988-17.296-2.99-1.208z" fill="#BDFF00"/><path d="M25.362 43.633l-7.29 17.172 2.968 1.26 7.29-17.173-2.968-1.26z" fill="#B9FF00"/><path d="M25.16 43.515l-7.588 17.043 2.945 1.31 7.588-17.042-2.945-1.31z" fill="#B4FF00"/><path d="M24.96 43.394l-7.884 16.907 2.921 1.363 7.884-16.908-2.921-1.362z" fill="#B0FF00"/><path d="M24.762 43.27l-8.178 16.767 2.898 1.413 8.177-16.767-2.897-1.414z" fill="#ACFF00"/><path d="M24.567 43.141l-8.47 16.622 2.873 1.464 8.469-16.622-2.872-1.464z" fill="#A8FF00"/><path d="M24.373 43.01l-8.758 16.472 2.847 1.513 8.758-16.472-2.847-1.513z" fill="#A3FF00"/><path d="M24.182 42.875l-9.044 16.316 2.82 1.563 9.044-16.316-2.82-1.563z" fill="#9FFF00"/><path d="M23.993 42.737l-9.327 16.156 2.791 1.612 9.328-16.156-2.792-1.612z" fill="#9BFF00"/><path d="M23.807 42.596L14.2 58.586l2.763 1.66 9.609-15.99-2.764-1.66z" fill="#97FF00"/><path d="M23.624 42.451l-9.886 15.82 2.734 1.71 9.886-15.822-2.734-1.708z" fill="#93FF00"/><path d="M23.443 42.303L13.283 57.95l2.703 1.756 10.16-15.646-2.703-1.756z" fill="#8EFF00"/><path d="M23.264 42.153L12.832 57.618l2.673 1.803 10.432-15.466-2.673-1.802z" fill="#8AFF00"/><path d="M23.088 41.998l-10.7 15.282 2.64 1.849L25.73 43.847l-2.64-1.849z" fill="#86FF00"/><path d="M22.915 41.841L11.95 56.934l2.608 1.895 10.965-15.093-2.608-1.895z" fill="#82FF00"/><path d="M22.745 41.681l-11.227 14.9 2.574 1.94 11.227-14.9-2.574-1.94z" fill="#7DFF00"/><path d="M22.577 41.518l-11.485 14.7 2.54 1.986 11.486-14.7-2.54-1.986z" fill="#79FF00"/><path d="M22.413 41.352L10.673 55.85l2.505 2.03 11.74-14.499-2.505-2.029z" fill="#75FF00"/><path d="M22.25 41.184l-11.99 14.29 2.469 2.073L24.72 43.256l-2.47-2.072z" fill="#71FF00"/><path d="M22.092 41.012L9.853 55.092l2.433 2.114 12.239-14.079-2.433-2.115z" fill="#6CFF00"/><path d="M21.936 40.838L9.453 54.702l2.396 2.157 12.483-13.864-2.396-2.157z" fill="#68FF00"/><path d="M21.783 40.66L9.061 54.306l2.357 2.198L24.141 42.86l-2.358-2.198z" fill="#64FF00"/><path d="M21.634 40.481l-12.96 13.42 2.32 2.24 12.959-13.42-2.32-2.24z" fill="#60FF00"/><path d="M21.488 40.3L8.296 53.49l2.28 2.28 13.191-13.191-2.28-2.28z" fill="#5BFF00"/><path d="M21.344 40.114l-13.42 12.96 2.24 2.318 13.42-12.959-2.24-2.319z" fill="#57FF00"/><path d="M21.204 39.927L7.561 52.65l2.198 2.358 13.644-12.723-2.199-2.358z" fill="#53FF00"/><path d="M21.067 39.737L7.204 52.22l2.157 2.396 13.863-12.483-2.157-2.396z" fill="#4FFF00"/><path d="M20.934 39.546L6.855 51.785l2.115 2.433 14.08-12.24-2.116-2.432z" fill="#4AFF00"/><path d="M20.804 39.351L6.514 51.343l2.071 2.47L22.876 41.82l-2.072-2.47z" fill="#46FF00"/><path d="M20.678 39.155L6.18 50.895 8.208 53.4l14.498-11.74-2.028-2.505z" fill="#42FF00"/><path d="M20.554 38.956l-14.7 11.485 1.984 2.54 14.7-11.485-1.984-2.54z" fill="#3EFF00"/><path d="M20.435 38.755L5.536 49.982l1.94 2.575L22.375 41.33l-1.94-2.575z" fill="#3AFF00"/><path d="M20.319 38.552L5.226 49.518l1.895 2.608L22.213 41.16l-1.895-2.609z" fill="#35FF00"/><path d="M20.206 38.347l-15.281 10.7 1.849 2.642 15.281-10.7-1.849-2.642z" fill="#31FF00"/><path d="M20.097 38.14L4.63 48.574l1.803 2.672 15.465-10.432-1.802-2.672z" fill="#2DFF00"/><path d="M19.992 37.932L4.346 48.092l1.756 2.704 15.646-10.16-1.756-2.704z" fill="#29FF00"/><path d="M19.89 37.722L4.07 47.607l1.708 2.734 15.82-9.886-1.708-2.733z" fill="#24FF00"/><path d="M19.792 37.51l-15.99 9.608 1.66 2.763 15.99-9.608-1.66-2.764z" fill="#20FF00"/><path d="M19.698 37.295L3.54 46.623l1.612 2.792 16.156-9.328-1.611-2.792z" fill="#1CFF00"/><path d="M19.607 37.08L3.29 46.124l1.562 2.82L21.17 39.9l-1.563-2.82z" fill="#18FF00"/><path d="M19.52 36.863L3.05 45.62l1.513 2.846 16.472-8.758-1.514-2.846z" fill="#13FF00"/><path d="M19.437 36.644l-16.622 8.47 1.464 2.872 16.622-8.47-1.464-2.872z" fill="#0FFF00"/><path d="M19.359 36.424L2.59 44.602 4.005 47.5l16.767-8.178-1.413-2.898z" fill="#0BFF00"/><path d="M19.283 36.203L2.375 44.087l1.363 2.922 16.907-7.884-1.362-2.922z" fill="#07FF00"/><path d="M19.211 35.98L2.17 43.569l1.311 2.945 17.043-7.587-1.312-2.945z" fill="#02FF00"/><path d="M19.144 35.757L1.972 43.046l1.26 2.968 17.172-7.29-1.26-2.967z" fill="#00FF02"/><path d="M19.08 35.532L1.785 42.52l1.207 2.99 17.297-6.99-1.207-2.988z" fill="#00FF06"/><path d="M19.02 35.306L1.605 41.99 2.761 45l17.416-6.686-1.155-3.01z" fill="#00FF0A"/><path d="M18.965 35.079l-17.53 6.38 1.102 3.03 17.53-6.38-1.102-3.03z" fill="#00FF0F"/><path d="M18.913 34.85L1.274 40.925l1.05 3.049L19.963 37.9l-1.05-3.048z" fill="#00FF13"/><path d="M18.865 34.622L1.123 40.387l.996 3.066 17.742-5.765-.996-3.066z" fill="#00FF17"/><path d="M18.822 34.392L.982 39.847l.942 3.083 17.84-5.455-.942-3.083z" fill="#00FF1B"/><path d="M18.782 34.162L.849 39.304l.889 3.099 17.932-5.142-.888-3.099z" fill="#00FF1F"/><path d="M18.746 33.931L.726 38.76l.835 3.114 18.02-4.828-.835-3.114z" fill="#00FF24"/><path d="M18.714 33.7l-18.1 4.513.78 3.128 18.1-4.514-.78-3.128z" fill="#00FF28"/><path d="M18.687 33.467L.51 37.664l.725 3.141 18.177-4.197-.725-3.14z" fill="#00FF2C"/><path d="M18.664 33.235L.416 37.113l.67 3.154 18.248-3.879-.67-3.153z" fill="#00FF30"/><path d="M18.644 33.002L.33 36.562l.615 3.164 18.313-3.56-.615-3.164z" fill="#00FF35"/><path d="M18.629 32.769L.257 36.008l.56 3.175 18.372-3.24-.56-3.174z" fill="#00FF39"/><path d="M18.617 32.535L.191 35.453l.505 3.184L19.12 35.72l-.504-3.184z" fill="#00FF3D"/><path d="M18.61 32.301L.136 34.898l.449 3.192 18.474-2.596-.449-3.193z" fill="#00FF41"/><path d="M18.607 32.068L.09 34.34l.393 3.2L19 35.267l-.393-3.2z" fill="#00FF46"/><path d="M18.607 31.834L.054 33.784l.337 3.206 18.553-1.95-.337-3.206z" fill="#00FF4A"/><path d="M18.613 31.6L.028 33.226l.281 3.212 18.585-1.626-.281-3.212z" fill="#00FF4E"/><path d="M18.622 31.367L.012 32.668l.225 3.216 18.61-1.301-.225-3.216z" fill="#00FF52"/><path d="M18.635 31.133l-18.63.977.169 3.219 18.63-.976-.17-3.22z" fill="#00FF57"/><path d="M18.652 30.9l-18.644.651.112 3.222 18.644-.651-.112-3.222z" fill="#00FF5B"/><path d="M18.673 30.667l-18.652.326.056 3.223 18.652-.325-.056-3.224z" fill="#00FF5F"/><path d="M18.698 30.435H.043v3.224h18.655v-3.224z" fill="#00FF63"/><path d="M18.728 30.203L.075 29.878.02 33.1l18.652.325.057-3.223z" fill="#00FF68"/><path d="M18.76 29.972L.118 29.32l-.113 3.221 18.644.651.113-3.221z" fill="#00FF6C"/><path d="M18.798 29.741l-18.63-.976L0 31.984l18.63.976.168-3.219z" fill="#00FF70"/><path d="M18.84 29.51L.23 28.21l-.225 3.215 18.61 1.302.225-3.216z" fill="#00FF74"/><path d="M18.885 29.282L.301 27.656.02 30.867l18.584 1.626.281-3.211z" fill="#00FF78"/><path d="M18.934 29.053L.381 27.103.044 30.31l18.553 1.95.337-3.206z" fill="#00FF7D"/><path d="M18.988 28.826L.472 26.552l-.393 3.2 18.516 2.273.393-3.2z" fill="#00FF81"/><path d="M19.046 28.599L.572 26.003l-.449 3.192 18.474 2.596.448-3.192z" fill="#00FF85"/><path d="M19.107 28.373L.68 25.455.177 28.64l18.425 2.919.505-3.185z" fill="#00FF89"/><path d="M19.172 28.149L.8 24.909l-.56 3.175 18.372 3.24.56-3.175z" fill="#00FF8E"/><path d="M19.241 27.926L.93 24.366l-.615 3.165 18.312 3.56.615-3.165z" fill="#00FF92"/><path d="M19.314 27.704L1.066 23.825l-.67 3.153 18.248 3.879.67-3.153z" fill="#00FF96"/><path d="M19.391 27.483L1.214 23.286l-.725 3.141 18.177 4.197.725-3.141z" fill="#00FF9A"/><path d="M19.472 27.264L1.37 22.75l-.78 3.128 18.1 4.514.78-3.128z" fill="#00FF9F"/><path d="M19.556 27.046l-18.02-4.829-.834 3.114 18.02 4.829.834-3.114z" fill="#00FFA3"/><path d="M19.645 26.83L1.712 21.686l-.889 3.099 17.933 5.142.889-3.099z" fill="#00FFA7"/><path d="M19.737 26.614L1.897 21.16l-.943 3.083 17.84 5.454.943-3.083z" fill="#00FFAB"/><path d="M19.833 26.401L2.09 20.636l-.996 3.066 17.742 5.765.997-3.066z" fill="#00FFB0"/><path d="M19.932 26.19L2.293 20.116l-1.05 3.048 17.64 6.074 1.05-3.048z" fill="#00FFB4"/><path d="M20.035 25.98L2.505 19.6l-1.103 3.029 17.53 6.38 1.103-3.03z" fill="#00FFB8"/><path d="M20.142 25.772L2.726 19.087l-1.155 3.01 17.416 6.685 1.155-3.01z" fill="#00FFBC"/><path d="M20.253 25.566L2.956 18.578l-1.208 2.989 17.297 6.988 1.207-2.989z" fill="#00FFC1"/><path d="M20.367 25.362l-17.172-7.29-1.26 2.968 17.172 7.29 1.26-2.968z" fill="#00FFC5"/><path d="M20.484 25.16L3.442 17.572 2.13 20.517l17.042 7.588 1.311-2.945z" fill="#00FFC9"/><path d="M20.606 24.96L3.698 17.076l-1.362 2.922 16.907 7.884 1.363-2.922z" fill="#00FFCD"/><path d="M20.73 24.762L3.964 16.584 2.55 19.482l16.767 8.178 1.414-2.898z" fill="#00FFD1"/><path d="M20.858 24.567l-16.622-8.47-1.463 2.873 16.622 8.47 1.463-2.873z" fill="#00FFD6"/><path d="M20.99 24.373L4.518 15.615l-1.513 2.847 16.471 8.758 1.514-2.847z" fill="#00FFDA"/><path d="M21.124 24.182L4.808 15.138l-1.563 2.82 16.316 9.044 1.563-2.82z" fill="#00FFDE"/><path d="M21.262 23.994L5.106 14.666l-1.611 2.792 16.155 9.328 1.612-2.792z" fill="#00FFE2"/><path d="M21.404 23.808L5.414 14.2l-1.66 2.763 15.99 9.608 1.66-2.763z" fill="#00FFE7"/><path d="M21.549 23.624L5.728 13.738 4.02 16.472l15.82 9.886 1.709-2.734z" fill="#00FFEB"/><path d="M21.696 23.443L6.051 13.283l-1.756 2.703 15.646 10.16 1.755-2.703z" fill="#00FFEF"/><path d="M21.848 23.264L6.382 12.832l-1.803 2.673 15.466 10.432 1.803-2.673z" fill="#00FFF3"/><path d="M22.001 23.088L6.72 12.389 4.87 15.03l15.282 10.7 1.85-2.64z" fill="#00FFF8"/><path d="M22.158 22.915L7.066 11.95 5.17 14.558l15.093 10.965 1.894-2.608z" fill="#00FFFC"/><path d="M22.319 22.745l-14.9-11.227-1.94 2.574 14.9 11.228 1.94-2.575z" fill="#00FEFF"/><path d="M22.481 22.577l-14.7-11.485-1.985 2.54 14.7 11.486 1.985-2.54z" fill="#00FAFF"/><path d="M22.647 22.413L8.15 10.673l-2.028 2.505 14.498 11.74 2.028-2.505z" fill="#00F5FF"/><path d="M22.816 22.251L8.526 10.26l-2.073 2.47 14.291 11.99 2.072-2.469z" fill="#00F1FF"/><path d="M22.988 22.092L8.908 9.853l-2.115 2.433 14.08 12.24 2.114-2.434z" fill="#00EDFF"/><path d="M23.162 21.936L9.298 9.454l-2.157 2.395 13.864 12.483 2.157-2.396z" fill="#00E9FF"/><path d="M23.339 21.784L9.695 9.06l-2.198 2.357L21.14 24.142l2.199-2.357z" fill="#00E4FF"/><path d="M23.519 21.634L10.099 8.675l-2.24 2.319 13.42 12.96 2.24-2.32z" fill="#00E0FF"/><path d="M23.701 21.488L10.51 8.296l-2.28 2.28 13.192 13.191 2.28-2.28z" fill="#00DCFF"/><path d="M23.885 21.344L10.926 7.924l-2.319 2.24 12.96 13.42 2.318-2.24z" fill="#00D8FF"/><path d="M24.073 21.204L11.35 7.561 8.992 9.759l12.723 13.644 2.358-2.199z" fill="#00D4FF"/><path d="M24.262 21.068L11.78 7.204 9.384 9.361l12.482 13.864 2.396-2.157z" fill="#00CFFF"/><path d="M24.454 20.934L12.215 6.855 9.782 8.97l12.24 14.08 2.432-2.116z" fill="#00CBFF"/><path d="M24.649 20.804L12.657 6.514l-2.47 2.072 11.992 14.29 2.47-2.072z" fill="#00C7FF"/><path d="M24.845 20.678L13.105 6.18 10.6 8.209l11.74 14.497 2.505-2.028z" fill="#00C3FF"/><path d="M25.044 20.555L13.558 5.854l-2.54 1.985 11.485 14.7 2.54-1.984z" fill="#00BEFF"/><path d="M25.244 20.435L14.017 5.536l-2.574 1.94 11.226 14.9 2.575-1.941z" fill="#00BAFF"/><path d="M25.447 20.319L14.482 5.226l-2.608 1.895 10.965 15.093 2.608-1.895z" fill="#00B6FF"/><path d="M25.652 20.206l-10.7-15.281-2.64 1.849 10.7 15.281 2.64-1.849z" fill="#00B2FF"/><path d="M25.859 20.097L15.427 4.631l-2.673 1.803L23.186 21.9l2.673-1.803z" fill="#00ADFF"/><path d="M26.068 19.992L15.908 4.346l-2.704 1.756 10.16 15.646 2.704-1.756z" fill="#00A9FF"/><path d="M26.278 19.89L16.393 4.07l-2.734 1.708 9.885 15.82 2.734-1.708z" fill="#00A5FF"/><path d="M26.49 19.792l-9.608-15.99-2.763 1.66 9.608 15.99 2.764-1.66z" fill="#00A1FF"/><path d="M26.704 19.698L17.376 3.542l-2.791 1.612 9.327 16.156 2.792-1.612z" fill="#009CFF"/><path d="M26.92 19.607L17.875 3.291l-2.82 1.563L24.1 21.17l2.82-1.563z" fill="#0098FF"/><path d="M27.137 19.52L18.378 3.05l-2.846 1.513 8.758 16.472 2.847-1.513z" fill="#0094FF"/><path d="M27.356 19.438l-8.47-16.622-2.872 1.463 8.47 16.622 2.872-1.463z" fill="#0090FF"/><path d="M27.575 19.358L19.398 2.591 16.5 4.004l8.178 16.768 2.897-1.413z" fill="#008BFF"/><path d="M27.797 19.283L19.913 2.376 16.99 3.738l7.884 16.908 2.922-1.363z" fill="#0087FF"/><path d="M28.019 19.212L20.431 2.169l-2.945 1.312 7.588 17.042 2.945-1.311z" fill="#0083FF"/><path d="M28.243 19.144L20.954 1.972l-2.967 1.26 7.289 17.172 2.967-1.26z" fill="#007FFF"/><path d="M28.468 19.08L21.48 1.785 18.49 2.99l6.989 17.297 2.989-1.207z" fill="#007BFF"/><path d="M28.694 19.021L22.008 1.605l-3.01 1.155 6.686 17.416 3.01-1.155z" fill="#0076FF"/><path d="M28.921 18.965l-6.38-17.53-3.03 1.103 6.38 17.53 3.03-1.103z" fill="#0072FF"/><path d="M29.149 18.913L23.075 1.275l-3.048 1.05 6.074 17.638 3.048-1.05z" fill="#006EFF"/><path d="M29.378 18.866L23.613 1.123l-3.066.997 5.765 17.742 3.066-.996z" fill="#006AFF"/><path d="M29.607 18.822L24.153.982l-3.083.942 5.454 17.84 3.083-.942z" fill="#0065FF"/><path d="M29.837 18.782L24.695.85l-3.099.888 5.142 17.933 3.1-.889z" fill="#0061FF"/><path d="M30.07 18.747L25.24.727l-3.113.834 4.828 18.02 3.114-.834z" fill="#005DFF"/><path d="M30.3 18.715L25.787.614l-3.128.78 4.513 18.1 3.128-.78z" fill="#0059FF"/><path d="M30.532 18.687L26.337.51l-3.141.725 4.196 18.177 3.142-.725z" fill="#0054FF"/><path d="M30.765 18.664L26.886.416l-3.153.67 3.879 18.248 3.153-.67z" fill="#0050FF"/><path d="M30.998 18.644L27.438.332l-3.164.615 3.56 18.312 3.164-.615z" fill="#004CFF"/><path d="M31.231 18.629L27.991.257l-3.174.56 3.24 18.371 3.174-.56z" fill="#0048FF"/><path d="M31.465 18.617L28.546.192l-3.184.504 2.919 18.426 3.184-.505z" fill="#0043FF"/><path d="M31.698 18.61L29.102.136 25.91.585l2.596 18.474 3.192-.449z" fill="#003FFF"/><path d="M31.932 18.607L29.66.09l-3.2.393L28.733 19l3.2-.393z" fill="#003BFF"/><path d="M32.166 18.608L30.216.055 27.01.39l1.95 18.554 3.206-.337z" fill="#0037FF"/><path d="M32.4 18.613L30.772.027l-3.21.283 1.626 18.584 3.211-.28z" fill="#0032FF"/><path d="M32.633 18.622L31.33.012l-3.215.225 1.301 18.61 3.216-.225z" fill="#002EFF"/><path d="M32.867 18.635L31.89.005l-3.22.169.977 18.63 3.22-.17z" fill="#002AFF"/><path d="M33.1 18.652L32.449.008 29.227.12l.651 18.644 3.222-.112z" fill="#0026FF"/><path d="M33.332 18.673L33.007.021l-3.223.056.325 18.652 3.223-.056z" fill="#02F"/><path d="M32.944 62.887h-1.831a.736.736 0 00-.256-.039 33.277 33.277 0 01-2.91-.256c-1.8-.232-3.57-.628-5.292-1.178a31.04 31.04 0 01-8.264-4.073 30.673 30.673 0 01-6.286-5.818 30.404 30.404 0 01-5.013-8.697 30.276 30.276 0 01-1.894-8.766c0-.163-.031-.326-.085-.488v-3.189c.054-.14.077-.287.085-.434a30.47 30.47 0 013.275-11.963 30.813 30.813 0 013.957-5.951 30.98 30.98 0 015.167-4.856 30.633 30.633 0 0110.274-5.004 30.658 30.658 0 015.548-.977c.334-.03.683 0 1.017-.085h3.135c.24.07.489.031.729.054a34.66 34.66 0 013.7.505 30.524 30.524 0 0110.74 4.335 30.85 30.85 0 016.814 5.966 30.345 30.345 0 014.043 6.074 30.242 30.242 0 012.763 8.137c.279 1.505.489 3.025.496 4.562 0 .102.023.21.03.31v1.83c-.03.116-.03.24-.038.365 0 .294 0 .59-.023.885a32.263 32.263 0 01-.9 5.562 30.603 30.603 0 01-4.323 9.565 30.853 30.853 0 01-5.2 5.903 30.894 30.894 0 01-6.495 4.39 30.484 30.484 0 01-8.544 2.832 30.712 30.712 0 01-3.468.403c-.307.035-.632.028-.95.096z" fill="#383838"/><path style="mix-blend-mode:lighten" d="M23.966 19.184c-.022.568.079 1.188.246 1.809.319 1.18.847 2.262 1.47 3.284 1.418 2.324 3.205 4.314 5.145 6.161.158.152.348.28.55.378a.68.68 0 00.615.015c.202-.09.384-.22.536-.386a65.951 65.951 0 001.975-2.112c.897-1.022 1.752-2.074 2.526-3.201.703-1.022 1.332-2.097 1.794-3.263.463-1.158.688-2.353.536-3.61-.253-2.072-1.1-3.829-2.612-5.206-1.79-1.626-3.873-2.277-6.217-1.914-3.814.59-6.579 4.103-6.564 8.045z" fill="url(#paint0_radial_1878_3817)"/><path d="M43.703 47.441a6.696 6.696 0 01-1.558-.159c-1.594-.349-2.948-1.074-3.989-2.359a14.64 14.64 0 01-1.623-2.526 26.606 26.606 0 01-1.382-3.259 35.426 35.426 0 01-1.202-4.1c-.174-.778.022-1.264.881-1.532a39.946 39.946 0 013.312-.893c1.855-.407 3.726-.668 5.634-.603.539.021 1.076.08 1.608.174a6.94 6.94 0 013.923 2.105c1.828 1.916 2.554 4.202 2.104 6.808-.648 3.725-3.953 6.374-7.708 6.344z" fill="url(#paint1_radial_1878_3817)"/><path d="M19.667 47.441a6.696 6.696 0 001.558-.159c1.594-.349 2.948-1.074 3.988-2.359a14.64 14.64 0 001.624-2.526 26.47 26.47 0 001.382-3.259c.48-1.342.888-2.714 1.202-4.1.174-.778-.022-1.264-.881-1.532a39.946 39.946 0 00-3.312-.893c-1.856-.407-3.726-.668-5.634-.603a11.92 11.92 0 00-1.609.174 6.94 6.94 0 00-3.922 2.105c-1.828 1.916-2.555 4.202-2.104 6.808.648 3.725 3.952 6.374 7.708 6.344z" fill="url(#paint2_radial_1878_3817)"/><defs><radialGradient id="paint0_radial_1878_3817" cx="0" cy="0" r="1" gradientUnits="userSpaceOnUse" gradientTransform="matrix(8.1732 .68963 -1.27478 15.10821 31.837 29.87)"><stop stop-color="#fff"/><stop offset="1" stop-color="#009BD8"/></radialGradient><radialGradient id="paint1_radial_1878_3817" cx="0" cy="0" r="1" gradientUnits="userSpaceOnUse" gradientTransform="matrix(16.7969 6.71009 -3.58573 8.9759 33.977 34.563)"><stop stop-color="#fff"/><stop offset="1" stop-color="#FF3044"/></radialGradient><radialGradient id="paint2_radial_1878_3817" cx="0" cy="0" r="1" gradientUnits="userSpaceOnUse" gradientTransform="matrix(-15.21084 10.13632 -4.6075 -6.91414 29.297 33.907)"><stop stop-color="#fff"/><stop offset="1" stop-color="#FCFF7C"/></radialGradient></defs></svg>