<svg width="45" height="50" fill="none" xmlns="http://www.w3.org/2000/svg"><path d="M27.078 20.978c-1.458 0-2.608 1.236-2.608 2.774s1.175 2.773 2.608 2.773c1.457 0 2.608-1.235 2.608-2.773s-1.176-2.774-2.608-2.774zm-9.334 0c-1.458 0-2.608 1.236-2.608 2.774s1.176 2.773 2.608 2.773c1.458 0 2.608-1.235 2.608-2.773.026-1.538-1.15-2.774-2.608-2.774z" fill="#5865F2"/><path d="M39.509 0H5.243C2.353 0 0 2.32 0 5.169v33.787c0 2.85 2.353 5.169 5.243 5.169H34.24l-1.356-4.614 3.273 2.975 3.095 2.799L44.776 50V5.169C44.75 2.319 42.398 0 39.51 0zm-9.872 32.653s-.92-1.085-1.687-2.018c3.35-.933 4.628-2.975 4.628-2.975a14.675 14.675 0 01-2.94 1.488 18.52 18.52 0 01-3.709 1.084c-2.454.454-4.705.328-6.622-.025-1.457-.278-2.71-.656-3.76-1.085a15.027 15.027 0 01-1.866-.857c-.077-.05-.153-.075-.23-.126-.051-.025-.077-.05-.102-.05-.461-.252-.717-.429-.717-.429s1.228 1.992 4.476 2.95a105.98 105.98 0 01-1.714 2.068c-5.651-.177-7.8-3.808-7.8-3.808 0-8.043 3.683-14.574 3.683-14.574 3.682-2.697 7.16-2.622 7.16-2.622l.256.303c-4.603 1.286-6.7 3.278-6.7 3.278s.563-.303 1.509-.706c2.736-1.185 4.91-1.488 5.805-1.589.153-.025.28-.05.435-.05a21.942 21.942 0 015.165-.05c2.43.277 5.037.983 7.697 2.395 0 0-2.02-1.891-6.367-3.177l.358-.404s3.503-.075 7.16 2.623c0 0 3.682 6.53 3.682 14.573 0-.025-2.148 3.606-7.8 3.783z" fill="#5865F2"/></svg>