<svg width="24" height="24" fill="none" xmlns="http://www.w3.org/2000/svg"><circle cx="12" cy="12" r="11.5" fill="#5F6064" stroke="#79757B"/><circle cx="12" cy="12" r="10.345" fill="#4D4F55"/><mask id="a" style="mask-type:luminance" maskUnits="userSpaceOnUse" x="7" y="4" width="11" height="16"><path d="M7.448 4.965h9.931v14.897H7.45V4.965z" fill="#fff"/></mask><g mask="url(#a)"><path d="M9.933 19.861a2.483 2.483 0 002.483-2.482v-2.483H9.933a2.483 2.483 0 000 4.965z" fill="#31DA99"/><path d="M7.451 12.414a2.483 2.483 0 012.482-2.482h2.483v4.965H9.933a2.483 2.483 0 01-2.482-2.483z" fill="#B47AFF"/><path d="M7.451 7.448a2.483 2.483 0 012.482-2.483h2.483v4.966H9.933a2.483 2.483 0 01-2.482-2.483z" fill="#FF6F45"/><path d="M12.416 4.965h2.482a2.483 2.483 0 010 4.966h-2.482V4.965z" fill="#FF8C7F"/><path d="M17.38 12.414a2.483 2.483 0 11-4.966-.001 2.483 2.483 0 014.967.001z" fill="#4BCBFF"/></g><path d="M13.486 10.131c-.354.22-.654.519-.873.873v-.873h.873zm-.873 4.765v-1.073a2.681 2.681 0 004.964-1.41c0-1.12-.688-2.081-1.665-2.482a2.683 2.683 0 00-1.018-5.166H9.932a2.683 2.683 0 00-1.018 5.166 2.685 2.685 0 000 4.965 2.685 2.685 0 001.018 5.166 2.683 2.683 0 002.682-2.683v-2.483z" stroke="#9677A4" stroke-width=".4"/></svg>