<svg width="20" height="20" fill="none" xmlns="http://www.w3.org/2000/svg"><mask id="a" style="mask-type:luminance" maskUnits="userSpaceOnUse" x="4" y="2" width="12" height="16"><path d="M4.766 2.188h10.418v15.624H4.766V2.188z" fill="#fff"/></mask><g mask="url(#a)"><path d="M7.373 17.812a2.605 2.605 0 002.604-2.604v-2.604H7.373a2.605 2.605 0 000 5.208z" fill="#0ACF83"/><path d="M4.769 10a2.605 2.605 0 012.604-2.604h2.604v5.208H7.373A2.605 2.605 0 014.769 10z" fill="#A259FF"/><path d="M4.769 4.792a2.605 2.605 0 012.604-2.604h2.604v5.208H7.373a2.605 2.605 0 01-2.604-2.604z" fill="#F24E1E"/><path d="M9.977 2.188h2.604a2.605 2.605 0 010 5.208H9.977V2.188z" fill="#FF7262"/><path d="M15.185 10a2.605 2.605 0 01-5.208 0 2.605 2.605 0 015.208 0z" fill="#1ABCFE"/></g></svg>