<svg width="20" height="20" fill="none" xmlns="http://www.w3.org/2000/svg"><path d="M10 2.344A7.813 7.813 0 007.53 17.57c.39.072.534-.17.534-.376 0-.186-.007-.802-.01-1.455-2.174.473-2.633-.921-2.633-.921-.355-.903-.867-1.144-.867-1.144-.709-.484.053-.474.053-.474.785.055 1.198.805 1.198.805.697 1.194 1.828.849 2.273.649.07-.505.273-.85.496-1.045-1.735-.197-3.559-.867-3.559-3.86 0-.854.305-1.55.805-2.098-.081-.197-.349-.991.076-2.067 0 0 .656-.21 2.149.8A7.49 7.49 0 0110 6.123a7.51 7.51 0 011.957.263c1.491-1.011 2.146-.801 2.146-.801.426 1.076.158 1.87.077 2.067.501.547.804 1.244.804 2.097 0 3.001-1.828 3.662-3.567 3.855.28.242.53.718.53 1.447 0 1.045-.01 1.886-.01 2.144 0 .208.141.451.537.375A7.813 7.813 0 0010 2.344zM5.114 13.473c-.018.039-.079.05-.134.024-.057-.026-.089-.079-.07-.118.016-.04.078-.05.134-.024.057.025.09.079.07.118zm.384.343c-.037.034-.11.018-.16-.036-.05-.055-.06-.128-.023-.163.039-.034.11-.018.16.036.052.056.062.128.023.163zm.263.438c-.047.034-.126.003-.174-.067-.048-.07-.048-.153.001-.186.048-.033.126-.003.175.066.047.07.047.153-.002.188zm.446.509c-.042.047-.134.034-.2-.03-.069-.063-.088-.153-.045-.2.044-.047.135-.034.203.03.067.063.088.153.042.2zm.577.171c-.02.061-.107.09-.196.063-.088-.027-.146-.098-.128-.16.018-.062.107-.09.196-.063.088.027.146.098.128.16zm.655.073c.003.064-.072.118-.165.119-.094.002-.17-.05-.17-.114 0-.065.073-.117.166-.119.093-.002.17.05.17.114zm.645-.025c.01.063-.054.128-.146.145-.09.016-.175-.022-.186-.085-.011-.064.054-.129.145-.145.092-.017.175.021.187.085z" fill="#161614"/></svg>