<svg width="59" height="24" fill="none" xmlns="http://www.w3.org/2000/svg"><path fill-rule="evenodd" clip-rule="evenodd" d="M12.5 2.102c6.935-7.299 24.273 5.474 0 21.898-24.273-16.422-6.935-29.197 0-21.898z" fill="#FF415C"/><path d="M47.769 9.531c-.67 0-1.19.52-1.19 1.162 0 .642.52 1.162 1.19 1.162.612 0 1.131-.52 1.131-1.162 0-.642-.519-1.162-1.131-1.162zm-8.125 0c-.67 0-1.19.52-1.19 1.162 0 .642.52 1.162 1.19 1.162.613 0 1.132-.52 1.132-1.162 0-.642-.52-1.162-1.132-1.162z" fill="#16013E"/><path d="M57.083 7.323a9.98 9.98 0 00-5.484-3.777v.003a10.655 10.655 0 00-1.683-1.514c-4.75-3.457-11.418-2.403-14.885 2.353-2.794 3.865-2.675 9.063.174 12.755l.023 3.853a.927.927 0 001.207.88l3.674-1.16c.972.347 1.975.544 2.974.6l-.015.011a10.072 10.072 0 009.082 1.424l3.688 1.202a.928.928 0 001.216-.883v-3.893a10.06 10.06 0 00.029-11.854zM40.515 18.654l-.348-.145-2.873.9-.029-3.021-.232-.262c-2.455-2.998-2.617-7.318-.32-10.488 2.798-3.841 8.16-4.69 11.984-1.918 3.836 2.792 4.686 8.153 1.915 11.97a8.62 8.62 0 01-10.097 2.964zm14.653-.494l-.232.29.029 3.022-2.844-.959-.348.146a8.004 8.004 0 01-4.962.203l-.005-.003a10.659 10.659 0 005.49-3.92 10.67 10.67 0 001.288-10.18l.017.012A7.843 7.843 0 0155.4 8.572a7.895 7.895 0 01-.232 9.588z" fill="#16013E"/><path d="M43.707 9.531c-.67 0-1.19.52-1.19 1.162 0 .642.52 1.162 1.19 1.162.612 0 1.131-.52 1.131-1.162 0-.642-.52-1.162-1.131-1.162z" fill="#16013E"/></svg>