<svg width="53" height="50" fill="none" xmlns="http://www.w3.org/2000/svg"><path d="M.716 25h17.11v24.28a.719.719 0 01-.717.718H.716A.714.714 0 010 49.28V25.717a.715.715 0 01.716-.718zm38.608 3.73l13.409 20.15a.707.707 0 01.119.363c.01.13-.02.258-.081.373a.733.733 0 01-.262.277.739.739 0 01-.371.102H32.914a1.431 1.431 0 01-1.242-.723L17.825 24.995 31.673.722c.125-.22.308-.402.522-.53a1.44 1.44 0 01.719-.193h19.224a.74.74 0 01.371.102c.11.067.2.163.262.278a.68.68 0 01.081.373.709.709 0 01-.119.363l-13.41 20.149a.75.75 0 01-.276.244l-6.962 3.487 6.962 3.487c.11.058.205.144.277.249zM8.913 17.858c4.923 0 8.913-3.998 8.913-8.929S13.836 0 8.913 0 0 3.998 0 8.93c0 4.93 3.99 8.928 8.913 8.928z" fill="#131032"/></svg>