<svg width="59" height="50" fill="none" xmlns="http://www.w3.org/2000/svg"><path d="M33.4 15v10.443L46.97 14.09V4c0-2.21-1.742-4-3.884-4H13.672l-.02 15H33.4z" fill="#FFBA00"/><path d="M33.4 35.89H13.62L13.59 50h29.496c2.152 0 3.884-1.79 3.884-4v-9.107L33.4 25.447v10.442z" fill="#00AC47"/><path d="M13.652 15l-.03 20.89h19.78V14.998h-19.75z" fill="#fff"/><path d="M13.672 0L0 15h13.651l.02-15z" fill="#E94235"/><path d="M0 35.89V46c0 2.21 1.763 4 3.946 4h9.644l.02-14.11H0z" fill="#0066DA"/><path d="M13.651 15H0v20.89h13.62L13.652 15z" fill="#2684FC"/><path d="M58.91 42.444V8.11c-.769-4.557-5.585.666-5.585.666L46.98 14.09v22.804l9.091 7.663c3.28.442 2.84-2.114 2.84-2.114z" fill="#00AC47"/><path d="M33.4 25.443l13.58 11.45V14.089L33.4 25.443z" fill="#00832D"/></svg>