<svg width="58" height="56" fill="none" xmlns="http://www.w3.org/2000/svg"><path d="M10.269 0H47.73C53.436 0 58 4.525 58 10.182v35.636C58 51.475 53.436 56 47.731 56H10.27C4.564 56 0 51.475 0 45.818V10.182C0 4.525 4.564 0 10.269 0z" fill="#00005B"/><path d="M13.692 39.407v-24.7c0-.189 0-.189.19-.189h7.607c1.902 0 3.613.189 4.944.755 1.141.377 2.282 1.131 3.233 1.885.76.754 1.331 1.697 1.712 2.64.38.943.57 2.074.57 3.205 0 2.074-.57 3.771-1.521 5.091-.951 1.32-2.282 2.263-3.803 3.017-1.712.566-3.423.754-5.515.754h-2.092v7.73c0 .19-.19.378-.19.378h-4.754c-.19-.377-.38-.377-.38-.566zm5.325-20.363v8.107h2.282c.95 0 1.902-.188 2.852-.377.761-.188 1.522-.754 1.902-1.32.57-.565.76-1.32.76-2.45 0-.755-.19-1.51-.57-2.075-.38-.565-.95-1.131-1.711-1.32a7.687 7.687 0 00-2.853-.565h-2.662zm16.353 1.32h4.184c.19 0 .38.188.57.377 0 .188.19.377.19.565 0 .189.19.566.19.755v.942c.761-.754 1.522-1.508 2.663-2.074 1.141-.565 2.472-.942 3.613-.942.19 0 .38.188.38.188v4.714c0 .188-.19.188-.38.188-.95 0-1.711 0-2.662.189-.76.189-1.331.377-2.092.566-.38.188-.95.565-1.14.942V39.03c0 .189-.191.377-.381.377H35.75c-.19 0-.38-.188-.38-.377V21.872c0-.566 0-1.131-.19-1.697 0 .377 0 .189.19.189z" fill="#99F"/></svg>