<svg width="29" height="40" fill="none" xmlns="http://www.w3.org/2000/svg"><path fill-rule="evenodd" clip-rule="evenodd" d="M14.363 0c7.765 0 14.106 6.168 14.355 13.911l.006.235.002.217v22.665a2.971 2.971 0 01-4.25 2.683l-.11-.056-.069-.036-.184-.113-1.645-1.151-.008.017-.066.123-.072.12-.078.117a2.972 2.972 0 01-3.712.978l-.11-.055-.069-.037-.185-.113-1.643-1.15-.008.016-.066.123-.072.12-.078.117a2.972 2.972 0 01-3.712.98l-.11-.057-.07-.036-.184-.113-10.958-7.672a2.972 2.972 0 01-1.225-1.936l-.02-.138-.01-.075-.012-.21V14.363C0 6.43 6.43 0 14.363 0z" fill="#00FFF6"/><path fill-rule="evenodd" clip-rule="evenodd" d="M14.363 2.476c6.499 0 11.78 5.216 11.885 11.69l.001.197v22.665a.495.495 0 01-.726.438l-.053-.032-4.386-3.071a.496.496 0 00-.776.348l-.003.058v2.258a.496.496 0 01-.726.438l-.053-.032-4.385-3.07a.495.495 0 00-.776.348l-.003.058v2.258a.495.495 0 01-.726.438l-.053-.032-10.895-7.629a.495.495 0 01-.208-.345l-.004-.06V14.363c0-6.565 5.322-11.887 11.887-11.887zm0 3.963a7.924 7.924 0 00-7.923 7.768l-.002.156v12.715a.99.99 0 00.359.763l.063.048 2.761 1.934a.495.495 0 00.776-.348l.004-.058v-2.26a.495.495 0 01.726-.438l.053.033 4.385 3.07a.495.495 0 00.776-.348l.003-.058v-2.258a.495.495 0 01.726-.439l.054.033 4.383 3.07a.496.496 0 00.776-.348l.004-.058V14.363a7.924 7.924 0 00-7.611-7.918l-.157-.005-.156-.001zM10.4 14.363a1.981 1.981 0 110 3.962 1.981 1.981 0 010-3.962zm7.924 0a1.981 1.981 0 110 3.962 1.981 1.981 0 010-3.962z" fill="#0053D8"/></svg>