<svg width="41" height="40" fill="none" xmlns="http://www.w3.org/2000/svg"><path d="M18.797 0c.563 0 1.112.16 1.586.459l.117.077 12.86 8.999a2.965 2.965 0 011.263 2.303l.003.126v12.11l4.67 3.268a2.965 2.965 0 011.255 2.172l.009.131.002.126v7.263a2.966 2.966 0 01-2.856 2.964l-.112.002H2.968a2.967 2.967 0 01-2.966-2.854L0 37.034v-7.157c0-.925.432-1.795 1.164-2.354l.102-.075 4.67-3.268v-4.374c0-.881.392-1.712 1.061-2.273l.103-.082.102-.074 8.627-6.037V2.966A2.967 2.967 0 0118.576.008l.11-.006.111-.002z" fill="#E88AFF"/><path d="M18.803 2.535c.1 0 .2.031.282.09l12.817 8.965c.132.092.21.243.21.403v12.835c0 .322.157.623.421.807l5.285 3.697c.132.092.21.243.21.404v7.236c0 .272-.22.493-.493.493h-2.958a.493.493 0 01-.493-.493v-4.93a.985.985 0 00-.42-.807l-5.285-3.696a.493.493 0 01-.21-.404V14.3a.985.985 0 00-.42-.806l-4.72-3.301a.493.493 0 00-.776.403v3.852c0 .16-.078.311-.21.403l-9.228 6.456a.985.985 0 00-.42.807v5.127c0 .161-.08.312-.211.404l-5.285 3.697a.985.985 0 00-.42.807v4.823c0 .253-.19.461-.436.49l-.057.003H3.028a.493.493 0 01-.493-.493v-7.13c0-.161.079-.312.21-.404l5.285-3.697a.985.985 0 00.42-.807v-5.127c0-.16.08-.311.21-.403l9.229-6.456a.984.984 0 00.42-.807V3.028c0-.272.221-.493.494-.493zm1.479 23.11a5.913 5.913 0 015.913 5.76l.002.15v5.417c0 .272-.22.493-.493.493h-2.958a.493.493 0 01-.492-.493v-5.417a1.97 1.97 0 00-1.874-1.968l-.098-.002c-1.056 0-1.919.83-1.97 1.872l-.002.098v5.417c0 .272-.22.493-.493.493h-2.958a.493.493 0 01-.493-.493v-5.417a5.913 5.913 0 015.765-5.908l.15-.002z" fill="#001E68"/></svg>