<svg width="32" height="40" fill="none" xmlns="http://www.w3.org/2000/svg"><path d="M15.571 0C20.613 0 24.7 4.114 24.7 9.19a9.217 9.217 0 01-2.018 5.765l-.147.18h5.386a3.23 3.23 0 013.213 3.001l.007.12.002.122v3.244a3.234 3.234 0 01-3.1 3.24l-.122.003h-1.716l.016.046a11.39 11.39 0 01.613 3.18l.01.3.003.258C26.847 34.918 21.8 40 15.571 40 9.344 40 4.296 34.918 4.296 28.649c0-1.186.181-2.346.532-3.45l.091-.276.02-.058H3.222A3.23 3.23 0 01.01 21.864l-.007-.12L0 21.621v-3.244a3.234 3.234 0 013.1-3.24l.122-.003h5.39l-.107-.128A9.236 9.236 0 016.467 9.83l-.014-.233-.007-.21-.003-.199C6.443 4.114 10.53 0 15.571 0z" fill="#0053D8"/><path d="M15.572 2.571c3.59 0 6.5 2.903 6.5 6.483a6.468 6.468 0 01-2.694 5.254l-.448.33-.763.573a1.08 1.08 0 00-.429.86v.545c0 .597.485 1.08 1.084 1.08h9.208a.54.54 0 01.541.54v3.242a.54.54 0 01-.541.54h-4.684a.907.907 0 00-.789 1.356l.051.08a8.588 8.588 0 011.63 5.046c0 4.773-3.88 8.643-8.666 8.643-4.787 0-8.667-3.87-8.667-8.643 0-1.806.555-3.483 1.505-4.869l.126-.18a.903.903 0 00-.736-1.433H3.113a.541.541 0 01-.541-.54v-3.241a.54.54 0 01.541-.54h9.209c.598 0 1.083-.484 1.083-1.08v-.547a1.08 1.08 0 00-.427-.86l-.944-.707-.244-.177a6.47 6.47 0 01-2.716-5.108l-.002-.164c0-3.58 2.91-6.483 6.5-6.483zm0 21.608a4.327 4.327 0 00-4.334 4.321 4.327 4.327 0 004.334 4.321 4.327 4.327 0 004.333-4.321 4.327 4.327 0 00-4.334-4.321z" fill="#00FFF6"/></svg>