<svg width="40" height="40" fill="none" xmlns="http://www.w3.org/2000/svg"><path fill-rule="evenodd" clip-rule="evenodd" d="M20 0c3.451 0 6.78.878 9.755 2.537l.296.169.045.027L32.734.886c.462-.324.998-.52 1.555-.573l.152-.01.154-.004a3.243 3.243 0 013.204 2.744l.017.124.01.078.012.22v7.508l.184.373.228.48.135.296.148.348.016.04A19.95 19.95 0 0140 20c0 11.046-8.954 20-20 20S0 31.046 0 20c0-2.477.452-4.896 1.333-7.19l.129-.327.111-.264.124-.28.139-.298.153-.32.172-.348.001-7.43A3.244 3.244 0 015.163.308L5.283.3h.123a3.234 3.234 0 011.732.5l.128.084 2.638 1.848.152-.09A19.919 19.919 0 0120 0z" fill="#780080"/><path fill-rule="evenodd" clip-rule="evenodd" d="M20 2.703c3.159 0 6.12.846 8.668 2.325l.181.108.1.061.219.139.375.245c.37.246.854.24 1.219-.015L34.285 3.1a.54.54 0 01.847.38l.003.063.001 7.818c0 .17.04.339.118.49l.175.347.157.319.14.292c.022.046.044.091.064.136l.114.251.097.225.043.102c.808 2 1.254 4.187 1.254 6.478 0 9.553-7.745 17.297-17.298 17.297-9.553 0-17.297-7.744-17.297-17.297 0-2.289.444-4.474 1.252-6.473l.089-.212.106-.239.123-.266.14-.292.158-.32.175-.347a1.08 1.08 0 00.118-.491l.001-7.818a.54.54 0 01.85-.443L9.24 5.567c.364.255.847.26 1.217.015l.406-.265.236-.148.209-.126A17.218 17.218 0 0120 2.703zm0 4.324C12.835 7.027 7.027 12.835 7.027 20c0 7.165 5.808 12.973 12.973 12.973 7.165 0 12.973-5.808 12.973-12.973 0-7.165-5.808-12.973-12.973-12.973zm3.714 17.297a.54.54 0 01.535.62c-.064.433-.144.766-.237.998a4.326 4.326 0 01-8 .057c-.092-.219-.176-.569-.251-1.05a.54.54 0 01.534-.625h7.42zm-11.29-9.629a.538.538 0 01.065.039l4.864 3.406a.54.54 0 01.133.752l-.024.032-.026.03c-.051.054-.098.1-.14.137a3.567 3.567 0 01-5.743-3.839l.019-.05.053-.123.073-.148a.54.54 0 01.727-.236zm15.152 0a.54.54 0 01.727.236l.072.148.054.122.019.051a3.567 3.567 0 01-5.744 3.839 2.103 2.103 0 01-.09-.086l-.05-.052a.54.54 0 01.03-.772l.054-.041 4.863-3.406a.537.537 0 01.065-.039z" fill="#FDF69B"/></svg>