<svg width="50" height="50" fill="none" xmlns="http://www.w3.org/2000/svg"><path d="M48.23 29.174c-.015.088-.026.177-.043.265l-.086-.505c.047.079.086.16.13.24.258-1.408.392-2.85.392-4.29 0-3.195-.623-6.294-1.856-9.213a23.573 23.573 0 00-5.06-7.522 23.519 23.519 0 00-16.693-6.932 23.68 23.68 0 00-4.47.424c-.004 0-.008 0-.012.002.083.043.165.082.246.127l-.496-.078c.083-.015.167-.033.25-.05A13.96 13.96 0 0013.977 0a13.866 13.866 0 00-9.883 4.104A13.94 13.94 0 000 14.012c0 2.382.611 4.724 1.758 6.792.016-.085.026-.172.043-.257l.085.496c-.044-.078-.083-.159-.128-.239a23.963 23.963 0 00-.355 4.08c0 3.195.624 6.294 1.857 9.212a23.578 23.578 0 005.057 7.523 23.495 23.495 0 007.506 5.07 23.375 23.375 0 009.19 1.863c1.388 0 2.778-.127 4.136-.368-.08-.045-.16-.085-.241-.132l.504.089c-.087.016-.175.027-.263.043A13.947 13.947 0 0036.025 50c3.732 0 7.241-1.455 9.881-4.103A13.93 13.93 0 0050 35.99c0-2.39-.615-4.739-1.77-6.816zM25.108 39.378c-8.388 0-12.14-4.134-12.14-7.232 0-1.589 1.17-2.703 2.783-2.703 3.589 0 2.66 5.167 9.357 5.167 3.428 0 5.322-1.866 5.322-3.775 0-1.149-.566-2.422-2.823-2.98l-7.46-1.867c-6.009-1.51-7.1-4.766-7.1-7.827 0-6.355 5.97-8.741 11.575-8.741 5.163 0 11.25 2.86 11.25 6.673 0 1.634-1.411 2.584-3.023 2.584-3.064 0-2.5-4.25-8.67-4.25-3.063 0-4.759 1.389-4.759 3.378 0 1.985 2.418 2.62 4.518 3.099l5.523 1.229c6.049 1.35 7.583 4.89 7.583 8.225 0 5.165-3.955 9.02-11.936 9.02zm3.8 8.674c.08.047.162.087.24.132.09-.016.177-.027.264-.043l-.504-.089zM48.187 29.44c.017-.088.028-.177.044-.265-.044-.08-.083-.161-.13-.24l.086.505zM1.8 20.547c-.017.085-.027.172-.043.257.045.08.084.161.128.239l-.085-.496zM20.778 1.77c-.08-.045-.163-.084-.246-.127l-.25.05.496.077z" fill="#0078D7"/></svg>