<svg width="50" height="50" fill="none" xmlns="http://www.w3.org/2000/svg"><path fill-rule="evenodd" clip-rule="evenodd" d="M18.487 0a5.041 5.041 0 100 10.082h5.044V5.043A5.05 5.05 0 0018.487 0zm0 13.445H5.044a5.041 5.041 0 100 10.084h13.443a5.047 5.047 0 005.044-5.04 5.047 5.047 0 00-5.044-5.044z" fill="#36C5F0"/><path fill-rule="evenodd" clip-rule="evenodd" d="M50 18.486a5.041 5.041 0 00-5.044-5.04 5.047 5.047 0 00-5.044 5.04v5.043h5.044a5.042 5.042 0 005.043-5.043zm-13.444 0V5.041a5.044 5.044 0 00-10.087 0v13.445a5.044 5.044 0 005.043 5.043 5.047 5.047 0 005.044-5.043z" fill="#2EB67D"/><path fill-rule="evenodd" clip-rule="evenodd" d="M31.512 50a5.041 5.041 0 100-10.081H26.47v5.04A5.05 5.05 0 0031.512 50zm0-13.446h13.444a5.041 5.041 0 100-10.083H31.512a5.047 5.047 0 00-5.043 5.04c0 2.784 2.26 5.04 5.043 5.043z" fill="#ECB22E"/><path fill-rule="evenodd" clip-rule="evenodd" d="M0 31.512a5.041 5.041 0 005.044 5.04 5.047 5.047 0 005.043-5.04V26.47H5.044A5.041 5.041 0 000 31.51zm13.444 0v13.445a5.044 5.044 0 0010.087.002V31.516a5.045 5.045 0 00-10.087-.004z" fill="#E01E5A"/></svg>