<svg width="50" height="50" fill="none" xmlns="http://www.w3.org/2000/svg"><path d="M39.788 22.163c-8.058-4.786-21.35-5.226-29.044-2.89a2.338 2.338 0 11-1.357-4.476c8.83-2.68 23.511-2.163 32.788 3.344a2.339 2.339 0 01-2.387 4.022zm-.263 7.088a1.95 1.95 0 01-2.682.642c-6.718-4.13-16.963-5.326-24.911-2.913a1.952 1.952 0 01-2.433-1.299 1.952 1.952 0 011.3-2.43c9.08-2.756 20.368-1.421 28.084 3.32a1.95 1.95 0 01.642 2.68zm-3.06 6.808a1.557 1.557 0 01-2.142.518c-5.87-3.588-13.26-4.398-21.962-2.41a1.557 1.557 0 11-.694-3.038c9.523-2.177 17.692-1.24 24.281 2.787.735.449.966 1.408.517 2.143zM25 0C11.193 0 0 11.193 0 25c0 13.808 11.193 25 25 25s25-11.192 25-25C50 11.193 38.807 0 25 0z" fill="#1ED760"/></svg>