<svg width="56" height="50" fill="none" xmlns="http://www.w3.org/2000/svg"><path d="M38.75 18.75H53.1c1.356 0 2.454 1.064 2.454 2.375v12.646c0 4.821-4.039 8.73-9.021 8.73h-.043c-4.983 0-9.023-3.907-9.023-8.728V19.992c0-.686.574-1.242 1.283-1.242zm9.7-2.5c3.21 0 5.813-2.518 5.813-5.624C54.264 7.519 51.66 5 48.45 5c-3.211 0-5.814 2.518-5.814 5.625s2.603 5.625 5.814 5.625z" fill="#5059C9"/><path d="M30.36 16.25c4.639 0 8.399-3.638 8.399-8.125S34.999 0 30.36 0s-8.398 3.638-8.398 8.125 3.76 8.125 8.398 8.125zm11.199 2.5H17.87c-1.34.032-2.399 1.108-2.368 2.404v14.424C15.316 43.355 21.676 49.81 29.715 50c8.039-.19 14.399-6.645 14.211-14.422V21.154c.032-1.296-1.028-2.372-2.367-2.404z" fill="#7B83EB"/><path opacity=".1" d="M31.007 18.75v20.212c-.006.927-.587 1.76-1.472 2.113a2.353 2.353 0 01-.892.175H16.641a14.466 14.466 0 01-.453-1.25 14.764 14.764 0 01-.684-4.425V21.15c-.031-1.294 1.027-2.368 2.364-2.4h13.14z" fill="#000"/><path opacity=".2" d="M29.715 18.75v21.462c0 .296-.061.59-.18.863-.365.857-1.226 1.418-2.184 1.425H17.248c-.22-.413-.427-.825-.607-1.25a12.297 12.297 0 01-.453-1.25 14.762 14.762 0 01-.684-4.425V21.15c-.031-1.294 1.027-2.368 2.364-2.4h11.848z" fill="#000"/><path opacity=".2" d="M29.715 18.75v18.962c-.01 1.26-1.062 2.278-2.364 2.288H16.188a14.762 14.762 0 01-.684-4.425V21.15c-.031-1.294 1.027-2.368 2.364-2.4h11.848z" fill="#000"/><path opacity=".2" d="M28.424 18.75v18.962c-.01 1.26-1.063 2.278-2.365 2.288h-9.87a14.762 14.762 0 01-.685-4.425V21.15c-.031-1.294 1.027-2.368 2.364-2.4h10.556z" fill="#000"/><path opacity=".1" d="M31.008 12.288v3.937c-.22.013-.427.025-.646.025-.22 0-.427-.012-.646-.025a7.313 7.313 0 01-1.292-.2c-2.617-.6-4.778-2.374-5.814-4.775a6.773 6.773 0 01-.414-1.25h6.447c1.304.005 2.36 1.026 2.365 2.288z" fill="#000"/><path opacity=".2" d="M29.715 13.537v2.687a7.304 7.304 0 01-1.291-.2c-2.617-.6-4.778-2.374-5.815-4.775h4.742c1.304.005 2.36 1.026 2.364 2.288z" fill="#000"/><path opacity=".2" d="M29.715 13.537v2.687a7.304 7.304 0 01-1.291-.2c-2.617-.6-4.778-2.374-5.815-4.775h4.742c1.304.005 2.36 1.026 2.364 2.288z" fill="#000"/><path opacity=".2" d="M28.424 13.537v2.487c-2.617-.6-4.778-2.374-5.815-4.775h3.45c1.304.005 2.36 1.026 2.364 2.288z" fill="#000"/><path d="M2.368 11.25h23.687c1.308 0 2.368 1.027 2.368 2.292v22.917c0 1.266-1.06 2.291-2.368 2.291H2.368C1.06 38.75 0 37.725 0 36.46V13.541c0-1.265 1.06-2.291 2.368-2.291z" fill="url(#paint0_linear_2957_42671)"/><path d="M20.444 19.972h-4.736v12.475h-3.016V19.972H7.979v-2.42h12.465v2.42z" fill="#fff"/><defs><linearGradient id="paint0_linear_2957_42671" x1="4.938" y1="9.46" x2="22.582" y2="41.046" gradientUnits="userSpaceOnUse"><stop stop-color="#5A62C3"/><stop offset=".5" stop-color="#4D55BD"/><stop offset="1" stop-color="#3940AB"/></linearGradient></defs></svg>