<svg width="71" height="23" fill="none" xmlns="http://www.w3.org/2000/svg"><path d="M19.892 10.483V0h4.676v21.998c0 .142-.085.27-.217.325a.364.364 0 01-.39-.067L0 0h6.679l11.897 11.042a.788.788 0 00.845.147.768.768 0 00.47-.706zM48.701.066L70.46 15.363h-8.051l-8.37-5.883a.786.786 0 00-.808-.058.767.767 0 00-.422.684v11.892a.358.358 0 01-.3.35.362.362 0 01-.267-.061L34.024 9.48a.786.786 0 00-.809-.058.766.766 0 00-.421.684l-.007 7.634h-4.665V.355c0-.132.075-.253.194-.314a.363.363 0 01.372.025l18.216 12.807c.237.167.55.19.809.058a.767.767 0 00.421-.684V.355a.357.357 0 01.548-.302.336.336 0 01.02.013z" fill="#00FFF6"/></svg>