<svg width="50" height="50" fill="none" xmlns="http://www.w3.org/2000/svg"><path d="M39.047 0h-28.1C4.897 0 0 4.898 0 10.948v28.11C0 45.102 4.897 50 10.947 50h28.106C45.097 50 50 45.102 50 39.052V10.948C49.994 4.898 45.096 0 39.047 0z" fill="#0048FF"/><path fill-rule="evenodd" clip-rule="evenodd" d="M21.227 21.835a4.457 4.457 0 00-3.158-1.309h-.006a4.47 4.47 0 103.164 1.31zm-1.26 5.062a2.683 2.683 0 110-3.795 2.693 2.693 0 010 3.795zm10.65-5.062a4.45 4.45 0 00-3.165-1.309 4.472 4.472 0 00-3.158 7.632 4.471 4.471 0 006.323 0 4.467 4.467 0 000-6.323zm-1.261 5.062a2.682 2.682 0 01-3.795 0 2.682 2.682 0 010-3.794 2.682 2.682 0 013.795 0 2.682 2.682 0 010 3.794z" fill="#fff"/><path fill-rule="evenodd" clip-rule="evenodd" d="M6.886 29.45l.448.024h6.71l-.024-.449c-.06-.733-.582-1.273-1.321-1.321l-.449-.024H8.225l5.364-5.365-.024-.449c-.036-.74-.576-1.28-1.321-1.322l-.449-.024h-6.71l.025.449c.06.727.588 1.279 1.321 1.321l.449.025h4.03l-5.364 5.364.024.449c.043.74.576 1.273 1.316 1.322zm30.615-6.244c.152.266.2.563.219.897l.024.448v3.128l.024.449c.043.733.582 1.273 1.321 1.322l.449.024V24.55l.024-.448c.019-.334.067-.637.219-.904a1.782 1.782 0 011.545-.89c.66 0 1.242.357 1.552.89.151.261.2.57.218.898l.025.448v3.128l.024.449c.048.733.582 1.279 1.32 1.321l.45.025v-5.365a3.575 3.575 0 00-6.262-2.364 3.554 3.554 0 00-2.686-1.213 3.58 3.58 0 00-2.006.612c-.345-.388-1.127-.612-1.575-.612v8.942l.448-.025c.746-.048 1.29-.576 1.321-1.321l.025-.449V24.55l.024-.448c.018-.334.067-.637.218-.897a1.782 1.782 0 011.545-.892 1.79 1.79 0 011.534.892z" fill="#fff"/></svg>