<svg width="64" height="64" viewBox="0 0 64 64" fill="none" xmlns="http://www.w3.org/2000/svg">
<path d="M33.5649 37.3536V18.6983H30.3412V37.3536H33.5649Z" fill="black"/>
<path d="M33.5649 18.6983V0.0430298L30.3412 0.0430298V18.6983H33.5649Z" fill="#0019FF"/>
<path d="M33.7965 18.7277L34.1221 0.0751953L30.8988 0.018933L30.5732 18.6714L33.7965 18.7277Z" fill="#0015FF"/>
<path d="M34.0281 18.761L34.6792 0.117096L31.4574 0.00458854L30.8063 18.6485L34.0281 18.761Z" fill="#0011FF"/>
<path d="M34.259 18.7984L35.2354 0.168701L32.016 -1.70943e-05L31.0397 18.6297L34.259 18.7984Z" fill="#000CFF"/>
<path d="M34.4892 18.8399L35.7905 0.230011L32.5746 0.00513326L31.2733 18.615L34.4892 18.8399Z" fill="#0008FF"/>
<path d="M34.7178 18.8853L36.3438 0.301025L33.1323 0.0200567L31.5063 18.6044L34.7178 18.8853Z" fill="#0004FF"/>
<path d="M34.947 18.9348L36.897 0.381683L33.6909 0.0447093L31.7409 18.5978L34.947 18.9348Z" fill="#0000FF"/>
<path d="M35.1742 18.9882L37.4478 0.471954L34.248 0.0790775L31.9745 18.5953L35.1742 18.9882Z" fill="#0500FF"/>
<path d="M35.4008 19.0456L37.9971 0.571838L34.8047 0.123178L32.2084 18.5969L35.4008 19.0456Z" fill="#0900FF"/>
<path d="M35.6266 19.1069L38.5449 0.681274L35.3609 0.176968L32.4425 18.6026L35.6266 19.1069Z" fill="#0D00FF"/>
<path d="M35.8509 19.1722L39.0903 0.800262L35.9156 0.240463L32.6761 18.6124L35.8509 19.1722Z" fill="#1100FF"/>
<path d="M36.0737 19.2413L39.6333 0.928772L36.4688 0.313651L32.9092 18.6262L36.0737 19.2413Z" fill="#1600FF"/>
<path d="M36.2961 19.3144L40.1748 1.06674L37.0215 0.396486L33.1428 18.6441L36.2961 19.3144Z" fill="#1A00FF"/>
<path d="M36.5168 19.3913L40.7134 1.21414L37.5722 0.488955L33.3757 18.6661L36.5168 19.3913Z" fill="#1E00FF"/>
<path d="M36.7364 19.472L41.2495 1.37088L38.1215 0.590983L33.6084 18.6922L36.7364 19.472Z" fill="#2200FF"/>
<path d="M36.9539 19.5566L41.7822 1.53699L38.6683 0.702618L33.84 18.7223L36.9539 19.5566Z" fill="#2700FF"/>
<path d="M37.1709 19.645L42.313 1.71234L39.2141 0.823754L34.072 18.7564L37.1709 19.645Z" fill="#2B00FF"/>
<path d="M37.3856 19.7371L42.8398 1.89694L39.757 0.954408L34.3027 18.7946L37.3856 19.7371Z" fill="#2F00FF"/>
<path d="M37.5985 19.833L43.3633 2.09073L40.2973 1.09453L34.5325 18.8368L37.5985 19.833Z" fill="#3300FF"/>
<path d="M37.8102 19.9326L43.8838 2.29361L40.8357 1.24406L34.7621 18.883L37.8102 19.9326Z" fill="#3800FF"/>
<path d="M38.0199 20.0358L44.4004 2.50552L41.3711 1.40293L34.9906 18.9332L38.0199 20.0358Z" fill="#3C00FF"/>
<path d="M38.2281 20.1427L44.9136 2.72644L41.9039 1.57115L35.2185 18.9874L38.2281 20.1427Z" fill="#4000FF"/>
<path d="M38.4335 20.2532L45.4219 2.95627L42.4329 1.74863L35.4445 19.0455L38.4335 20.2532Z" fill="#4400FF"/>
<path d="M38.6375 20.3672L45.9268 3.19495L42.9593 1.93533L35.6701 19.1076L38.6375 20.3672Z" fill="#4800FF"/>
<path d="M38.8399 20.4849L46.4277 3.44238L43.4827 2.13116L35.8949 19.1736L38.8399 20.4849Z" fill="#4D00FF"/>
<path d="M39.0398 20.606L46.9238 3.69855L44.0021 2.33613L36.118 19.2436L39.0398 20.606Z" fill="#5100FF"/>
<path d="M39.2376 20.7306L47.4155 3.96332L44.518 2.55012L36.3401 19.3174L39.2376 20.7306Z" fill="#5500FF"/>
<path d="M39.433 20.8586L47.9023 4.23663L45.03 2.77308L36.5606 19.3951L39.433 20.8586Z" fill="#5900FF"/>
<path d="M39.6266 20.99L48.3848 4.51837L45.5384 3.00491L36.7802 19.4766L39.6266 20.99Z" fill="#5E00FF"/>
<path d="M39.8171 21.1248L48.8613 4.80853L46.0418 3.24563L36.9975 19.5619L39.8171 21.1248Z" fill="#6200FF"/>
<path d="M40.0058 21.2629L49.3335 5.10693L46.5416 3.49506L37.214 19.651L40.0058 21.2629Z" fill="#6600FF"/>
<path d="M40.1921 21.4043L49.8003 5.41354L47.037 3.75319L37.4288 19.7439L40.1921 21.4043Z" fill="#6A00FF"/>
<path d="M40.3759 21.5489L50.2617 5.72827L47.5278 4.01994L37.642 19.8405L40.3759 21.5489Z" fill="#6F00FF"/>
<path d="M40.5569 21.6967L50.7173 6.05099L48.0136 4.29521L37.8532 19.9409L40.5569 21.6967Z" fill="#7300FF"/>
<path d="M40.7351 21.8476L51.167 6.38162L48.4944 4.57892L38.0625 20.0449L40.7351 21.8476Z" fill="#7700FF"/>
<path d="M40.9116 22.0016L51.6118 6.72003L48.9711 4.87096L38.2708 20.1525L40.9116 22.0016Z" fill="#7B00FF"/>
<path d="M41.0845 22.1586L52.0498 7.06616L49.4417 5.17129L38.4764 20.2637L41.0845 22.1586Z" fill="#8000FF"/>
<path d="M41.2549 22.3187L52.4819 7.41986L49.9073 5.47976L38.6803 20.3785L41.2549 22.3187Z" fill="#8400FF"/>
<path d="M41.4219 22.4817L52.9072 7.78107L50.3669 5.79633L38.8815 20.4969L41.4219 22.4817Z" fill="#8800FF"/>
<path d="M41.5875 22.6476L53.3276 8.14966L50.8223 6.12088L39.0821 20.6188L41.5875 22.6476Z" fill="#8C00FF"/>
<path d="M41.7488 22.8163L53.7402 8.52551L51.2707 6.45332L39.2793 20.7441L41.7488 22.8163Z" fill="#9100FF"/>
<path d="M41.9075 22.9878L54.1465 8.90851L51.7135 6.79354L39.4745 20.8729L41.9075 22.9878Z" fill="#9500FF"/>
<path d="M42.0631 23.1621L54.5459 9.29852L52.1502 7.14141L39.6673 21.005L42.0631 23.1621Z" fill="#9900FF"/>
<path d="M42.2161 23.3391L54.939 9.6955L52.5813 7.4969L39.8584 21.1405L42.2161 23.3391Z" fill="#9D00FF"/>
<path d="M42.3656 23.5187L55.3247 10.0992L53.0057 7.85984L40.0467 21.2793L42.3656 23.5187Z" fill="#A100FF"/>
<path d="M42.5123 23.7009L55.7036 10.5096L53.4241 8.2301L40.2328 21.4214L42.5123 23.7009Z" fill="#A600FF"/>
<path d="M42.6557 23.8856L56.0752 10.9266L53.8358 8.6076L40.4163 21.5667L42.6557 23.8856Z" fill="#AA00FF"/>
<path d="M42.7953 24.0729L56.439 11.35L54.2404 8.99227L40.5967 21.7152L42.7953 24.0729Z" fill="#AE00FF"/>
<path d="M42.9318 24.2625L56.7954 11.7796L54.6383 9.38392L40.7747 21.8668L42.9318 24.2625Z" fill="#B200FF"/>
<path d="M43.0657 24.4545L57.145 12.2155L55.03 9.78249L40.9507 22.0215L43.0657 24.4545Z" fill="#B700FF"/>
<path d="M43.1955 24.6487L57.4863 12.6573L55.4141 10.1878L41.1233 22.1792L43.1955 24.6487Z" fill="#BB00FF"/>
<path d="M43.3219 24.8452L57.8198 13.1051L55.791 10.5997L41.2932 22.3399L43.3219 24.8452Z" fill="#BF00FF"/>
<path d="M43.4449 25.0439L58.1455 13.5586L56.1608 11.0182L41.4602 22.5036L43.4449 25.0439Z" fill="#C300FF"/>
<path d="M43.5651 25.2447L58.4639 14.0177L56.5238 11.4431L41.625 22.6701L43.5651 25.2447Z" fill="#C800FF"/>
<path d="M43.681 25.4476L58.7734 14.4823L56.8786 11.8742L41.7861 22.8395L43.681 25.4476Z" fill="#CC00FF"/>
<path d="M43.7937 25.6525L59.0752 14.9522L57.2261 12.3115L41.9446 23.0117L43.7937 25.6525Z" fill="#D000FF"/>
<path d="M43.9022 25.8593L59.3682 15.4273L57.5655 12.7547L42.0995 23.1866L43.9022 25.8593Z" fill="#D400FF"/>
<path d="M44.0081 26.0679L59.6538 15.9075L57.898 13.2038L42.2524 23.3642L44.0081 26.0679Z" fill="#D900FF"/>
<path d="M44.1096 26.2784L59.9302 16.3926L58.2218 13.6587L42.4012 23.5445L44.1096 26.2784Z" fill="#DD00FF"/>
<path d="M44.2075 26.4906L60.1982 16.8824L58.5379 14.1191L42.5472 23.7273L44.2075 26.4906Z" fill="#E100FF"/>
<path d="M44.3015 26.7045L60.4575 17.3769L58.8456 14.585L42.6897 23.9127L44.3015 26.7045Z" fill="#E500FF"/>
<path d="M44.3922 26.92L60.7085 17.8757L59.1456 15.0562L42.8293 24.1004L44.3922 26.92Z" fill="#EA00FF"/>
<path d="M44.479 27.1371L60.9507 18.3789L59.4372 15.5325L42.9656 24.2907L44.479 27.1371Z" fill="#EE00FF"/>
<path d="M44.5621 27.3556L61.1841 18.8863L59.7205 16.0139L43.0985 24.4832L44.5621 27.3556Z" fill="#F200FF"/>
<path d="M44.6414 27.5756L61.4087 19.3976L59.9955 16.5001L43.2282 24.6781L44.6414 27.5756Z" fill="#F600FF"/>
<path d="M44.7166 27.7969L61.624 19.9128L60.2616 16.9911L43.3542 24.8751L44.7166 27.7969Z" fill="#FA00FF"/>
<path d="M44.7881 28.0194L61.8306 20.4316L60.5193 17.4866L43.4769 25.0744L44.7881 28.0194Z" fill="#FF00FF"/>
<path d="M44.8555 28.2432L62.0278 20.954L60.7682 17.9865L43.5959 25.2757L44.8555 28.2432Z" fill="#FF00FB"/>
<path d="M44.9194 28.4682L62.2163 21.4798L61.0087 18.4908L43.7118 25.4792L44.9194 28.4682Z" fill="#FF00F7"/>
<path d="M44.9788 28.6942L62.395 22.0087L61.2397 18.9991L43.8235 25.6845L44.9788 28.6942Z" fill="#FF00F3"/>
<path d="M45.0342 28.9212L62.5645 22.5407L61.4619 19.5114L43.9316 25.8919L45.0342 28.9212Z" fill="#FF00EE"/>
<path d="M45.0862 29.1492L62.7251 23.0756L61.6755 20.0275L44.0366 26.101L45.0862 29.1492Z" fill="#FF00EA"/>
<path d="M45.1337 29.378L62.876 23.6132L61.8798 20.5472L44.1375 26.312L45.1337 29.378Z" fill="#FF00E6"/>
<path d="M45.1779 29.6076L63.0181 24.1533L62.0755 21.0704L44.2354 26.5247L45.1779 29.6076Z" fill="#FF00E2"/>
<path d="M45.2173 29.838L63.1499 24.6959L62.2613 21.597L44.3287 26.7391L45.2173 29.838Z" fill="#FF00DD"/>
<path d="M45.2533 30.069L63.2729 25.2406L62.4386 22.1267L44.4189 26.9551L45.2533 30.069Z" fill="#FF00D9"/>
<path d="M45.2851 30.3006L63.3862 25.7874L62.6063 22.6594L44.5052 27.1726L45.2851 30.3006Z" fill="#FF00D5"/>
<path d="M45.3126 30.5327L63.4897 26.3362L62.7646 23.195L44.5874 27.3916L45.3126 30.5327Z" fill="#FF00D1"/>
<path d="M45.3363 30.7653L63.584 26.8866L62.9137 23.7333L44.6661 27.6119L45.3363 30.7653Z" fill="#FF00CC"/>
<path d="M45.3554 30.9982L63.668 27.4386L63.0528 24.2741L44.7403 27.8337L45.3554 30.9982Z" fill="#FF00C8"/>
<path d="M45.3713 31.2314L63.7432 27.992L63.1834 24.8172L44.8115 28.0567L45.3713 31.2314Z" fill="#FF00C4"/>
<path d="M45.3825 31.4649L63.8081 28.5466L63.3038 25.3625L44.8782 28.2808L45.3825 31.4649Z" fill="#FF00C0"/>
<path d="M45.39 31.6986L63.8638 29.1022L63.4151 25.9099L44.9414 28.5062L45.39 31.6986Z" fill="#FF00BB"/>
<path d="M45.3934 31.9323L63.9097 29.6588L63.5168 26.4591L45.0005 28.7326L45.3934 31.9323Z" fill="#FF00B7"/>
<path d="M45.3922 32.166L63.9453 30.216L63.6083 27.0099L45.0552 28.96L45.3922 32.166Z" fill="#FF00B3"/>
<path d="M45.3874 32.3998L63.9717 30.7738L63.6907 27.5623L45.1064 29.1883L45.3874 32.3998Z" fill="#FF00AF"/>
<path d="M45.3784 32.6333L63.9883 31.332L63.7634 28.1161L45.1535 29.4174L45.3784 32.6333Z" fill="#FF00AB"/>
<path d="M45.3654 32.8667L63.9951 31.8904L63.8264 28.671L45.1967 29.6474L45.3654 32.8667Z" fill="#FF00A6"/>
<path d="M45.3482 33.0999L63.9922 32.4488L63.8797 29.227L45.2357 29.8781L45.3482 33.0999Z" fill="#FF00A2"/>
<path d="M45.327 33.3326L63.9795 33.007L63.9232 29.7838L45.2708 30.1094L45.327 33.3326Z" fill="#FF009E"/>
<path d="M45.3017 33.565H63.957V30.3413L45.3017 30.3413V33.565Z" fill="#FF009A"/>
<path d="M45.2723 33.7969L63.9248 34.1225L63.9811 30.8992L45.3286 30.5737L45.2723 33.7969Z" fill="#FF0095"/>
<path d="M45.2389 34.0283L63.8828 34.6794L63.9953 31.4576L45.3514 30.8065L45.2389 34.0283Z" fill="#FF0091"/>
<path d="M45.2013 34.259L63.8311 35.2354L63.9998 32.016L45.37 31.0397L45.2013 34.259Z" fill="#FF008D"/>
<path d="M45.1597 34.4891L63.7695 35.7904L63.9944 32.5745L45.3845 31.2732L45.1597 34.4891Z" fill="#FF0089"/>
<path d="M45.1144 34.7184L63.6987 36.3443L63.9797 33.1328L45.3954 31.5069L45.1144 34.7184Z" fill="#FF0084"/>
<path d="M45.0646 34.9468L63.6177 36.8969L63.9546 33.6908L45.4015 31.7407L45.0646 34.9468Z" fill="#FF0080"/>
<path d="M45.0116 35.1744L63.5278 37.4479L63.9207 34.2482L45.4045 31.9747L45.0116 35.1744Z" fill="#FF007C"/>
<path d="M44.9545 35.401L63.4282 37.9973L63.8769 34.805L45.4031 32.2086L44.9545 35.401Z" fill="#FF0078"/>
<path d="M44.8927 35.6266L63.3184 38.5449L63.8227 35.3609L45.397 32.4425L44.8927 35.6266Z" fill="#FF0073"/>
<path d="M44.8278 35.8511L63.1997 39.0905L63.7595 35.9157L45.3876 32.6763L44.8278 35.8511Z" fill="#FF006F"/>
<path d="M44.7587 36.0743L63.0713 39.6339L63.6864 36.4694L45.3739 32.9098L44.7587 36.0743Z" fill="#FF006B"/>
<path d="M44.6855 36.2964L62.9331 40.175L63.6034 37.0217L45.3557 33.1431L44.6855 36.2964Z" fill="#FF0067"/>
<path d="M44.6085 36.5172L62.7856 40.7137L63.5108 37.5726L45.3337 33.376L44.6085 36.5172Z" fill="#FF0062"/>
<path d="M44.5277 36.7365L62.6289 41.2496L63.4088 38.1216L45.3076 33.6085L44.5277 36.7365Z" fill="#FF005E"/>
<path d="M44.4432 36.9544L62.4629 41.7828L63.2973 38.6689L45.2776 33.8405L44.4432 36.9544Z" fill="#FF005A"/>
<path d="M44.355 37.1708L62.2876 42.3129L63.1762 39.2141L45.2436 34.072L44.355 37.1708Z" fill="#FF0056"/>
<path d="M44.2629 37.3857L62.103 42.84L63.0456 39.7571L45.2054 34.3028L44.2629 37.3857Z" fill="#FF0052"/>
<path d="M44.1664 37.5989L61.9087 43.3637L62.9049 40.2977L45.1626 34.5329L44.1664 37.5989Z" fill="#FF004D"/>
<path d="M44.0671 37.8104L61.7061 43.8839L62.7556 40.8358L45.1167 34.7622L44.0671 37.8104Z" fill="#FF0049"/>
<path d="M43.9639 38.0201L61.4941 44.4006L62.5967 41.3712L45.0665 34.9907L43.9639 38.0201Z" fill="#FF0045"/>
<path d="M43.8572 38.228L61.2734 44.9134L62.4287 41.9038L45.0125 35.2183L43.8572 38.228Z" fill="#FF0041"/>
<path d="M43.7466 38.434L61.0435 45.4224L62.2511 42.4334L44.9542 35.4449L43.7466 38.434Z" fill="#FF003C"/>
<path d="M43.6329 38.638L60.8052 45.9272L62.0648 42.9597L44.8925 35.6705L43.6329 38.638Z" fill="#FF0038"/>
<path d="M43.5147 38.84L60.5571 46.4278L61.8683 43.4827L44.8259 35.895L43.5147 38.84Z" fill="#FF0034"/>
<path d="M43.3938 39.0399L60.3013 46.924L61.6637 44.0023L44.7562 36.1182L43.3938 39.0399Z" fill="#FF0030"/>
<path d="M43.2693 39.2377L60.0366 47.4156L61.4498 44.5182L44.6825 36.3402L43.2693 39.2377Z" fill="#FF002B"/>
<path d="M43.1412 39.4333L59.7632 47.9026L61.2267 45.0302L44.6047 36.5609L43.1412 39.4333Z" fill="#FF0027"/>
<path d="M43.0098 39.6266L59.4814 48.3847L60.9949 45.5383L44.5232 36.7802L43.0098 39.6266Z" fill="#FF0023"/>
<path d="M42.8746 39.8176L59.1909 48.8618L60.7538 46.0423L44.4375 36.998L42.8746 39.8176Z" fill="#FF001F"/>
<path d="M42.7366 40.0062L58.8926 49.3339L60.5045 46.542L44.3485 37.2144L42.7366 40.0062Z" fill="#FF001A"/>
<path d="M42.5957 40.1923L58.5864 49.8005L60.2468 47.0372L44.2561 37.429L42.5957 40.1923Z" fill="#FF0016"/>
<path d="M42.4509 40.376L58.2715 50.2618L59.9798 47.5279L44.1592 37.6421L42.4509 40.376Z" fill="#FF0012"/>
<path d="M42.3031 40.5571L57.9487 50.7176L59.7045 48.0139L44.0589 37.8535L42.3031 40.5571Z" fill="#FF000E"/>
<path d="M42.1522 40.7357L57.6182 51.1676L59.4209 48.495L43.9549 38.0631L42.1522 40.7357Z" fill="#FF0009"/>
<path d="M41.9982 40.9115L57.2798 51.6118L59.1289 48.971L43.8473 38.2708L41.9982 40.9115Z" fill="#FF0005"/>
<path d="M41.8411 41.0846L56.9336 52.05L58.8285 49.4419L43.736 38.4766L41.8411 41.0846Z" fill="#FF0001"/>
<path d="M41.6813 41.255L56.5801 52.4821L58.5202 49.9075L43.6214 38.6804L41.6813 41.255Z" fill="#FF0300"/>
<path d="M41.5182 41.4226L56.2188 52.9079L58.2035 50.3676L43.5029 38.8822L41.5182 41.4226Z" fill="#FF0700"/>
<path d="M41.3522 41.5873L55.8501 53.3274L57.8789 50.8221L43.381 39.0819L41.3522 41.5873Z" fill="#FF0C00"/>
<path d="M41.1833 41.749L55.4741 53.7404L57.5463 51.2709L43.2555 39.2795L41.1833 41.749Z" fill="#FF1000"/>
<path d="M41.012 41.9078L55.0913 54.1468L57.2063 51.7138L43.1269 39.4748L41.012 41.9078Z" fill="#FF1400"/>
<path d="M40.8381 42.0636L54.7017 54.5464L56.8588 52.1507L42.9952 39.6679L40.8381 42.0636Z" fill="#FF1800"/>
<path d="M40.6611 42.2163L54.3047 54.9392L56.5033 52.5815L42.8597 39.8586L40.6611 42.2163Z" fill="#FF1D00"/>
<path d="M40.4814 42.3659L53.9009 55.325L56.1403 53.006L42.7208 40.0469L40.4814 42.3659Z" fill="#FF2100"/>
<path d="M40.2989 42.5123L53.4902 55.7036L55.7698 53.4241L42.5785 40.2328L40.2989 42.5123Z" fill="#FF2500"/>
<path d="M40.1142 42.6556L53.0732 56.0751L55.3922 53.8357L42.4331 40.4162L40.1142 42.6556Z" fill="#FF2900"/>
<path d="M39.927 42.7956L52.6499 56.4392L55.0076 54.2406L42.2847 40.597L39.927 42.7956Z" fill="#FF2E00"/>
<path d="M39.7369 42.9323L52.2197 56.7959L54.6154 54.6388L42.1326 40.7752L39.7369 42.9323Z" fill="#FF3200"/>
<path d="M39.5452 43.0656L51.7842 57.145L54.2172 55.03L41.9782 40.9507L39.5452 43.0656Z" fill="#FF3600"/>
<path d="M39.3509 43.1957L51.3423 57.4865L53.8118 55.4143L41.8204 41.1235L39.3509 43.1957Z" fill="#FF3A00"/>
<path d="M39.1549 43.3223L50.895 57.8202L53.4003 55.7914L41.6602 41.2935L39.1549 43.3223Z" fill="#FF3F00"/>
<path d="M38.9556 43.4454L50.4409 58.146L52.9813 56.1612L41.4959 41.4606L38.9556 43.4454Z" fill="#FF4300"/>
<path d="M38.7549 43.565L49.9819 58.4638L52.5565 56.5237L41.3295 41.6249L38.7549 43.565Z" fill="#FF4700"/>
<path d="M38.5523 43.6812L49.5176 58.7736L52.1257 56.8787L41.1603 41.7863L38.5523 43.6812Z" fill="#FF4B00"/>
<path d="M38.3476 43.7938L49.0479 59.0753L51.6886 57.2262L40.9884 41.9447L38.3476 43.7938Z" fill="#FF5000"/>
<path d="M38.1403 43.9028L48.5723 59.3687L51.2449 57.566L40.813 42.1001L38.1403 43.9028Z" fill="#FF5400"/>
<path d="M37.9319 44.0081L48.0923 59.6537L50.796 57.898L40.6355 42.2523L37.9319 44.0081Z" fill="#FF5800"/>
<path d="M37.7216 44.1098L47.6074 59.9304L50.3413 58.2221L40.4555 42.4015L37.7216 44.1098Z" fill="#FF5C00"/>
<path d="M37.509 44.2078L47.1172 60.1985L49.8805 58.5382L40.2723 42.5475L37.509 44.2078Z" fill="#FF6000"/>
<path d="M37.2954 44.3021L46.623 60.4581L49.4149 58.8462L40.0872 42.6902L37.2954 44.3021Z" fill="#FF6500"/>
<path d="M37.0798 44.3927L46.124 60.709L48.9436 59.146L39.8993 42.8297L37.0798 44.3927Z" fill="#FF6900"/>
<path d="M36.8625 44.4794L45.6206 60.9511L48.467 59.4376L39.7089 42.966L36.8625 44.4794Z" fill="#FF6D00"/>
<path d="M36.6444 44.5624L45.1138 61.1844L47.9862 59.7208L39.5168 43.0988L36.6444 44.5624Z" fill="#FF7100"/>
<path d="M36.4241 44.6415L44.6021 61.4088L47.4995 59.9956L39.3216 43.2283L36.4241 44.6415Z" fill="#FF7600"/>
<path d="M36.2028 44.7168L44.0869 61.6243L47.0086 60.2619L39.1246 43.3544L36.2028 44.7168Z" fill="#FF7A00"/>
<path d="M35.9801 44.7882L43.5679 61.8307L46.5129 60.5195L38.9251 43.477L35.9801 44.7882Z" fill="#FF7E00"/>
<path d="M35.7567 44.8558L43.0459 62.0281L46.0134 60.7685L38.7242 43.5962L35.7567 44.8558Z" fill="#FF8200"/>
<path d="M35.5316 44.9193L42.52 62.2162L45.509 61.0086L38.5206 43.7117L35.5316 44.9193Z" fill="#FF8700"/>
<path d="M35.3053 44.979L41.9907 62.3953L45.0004 61.24L38.3149 43.8237L35.3053 44.979Z" fill="#FF8B00"/>
<path d="M35.0785 45.0347L41.459 62.565L44.4883 61.4624L38.1078 43.9322L35.0785 45.0347Z" fill="#FF8F00"/>
<path d="M34.8507 45.0865L40.9243 62.7255L43.9724 61.6759L37.8989 44.037L34.8507 45.0865Z" fill="#FF9300"/>
<path d="M34.6219 45.1343L40.3867 62.8765L43.4527 61.8803L37.6879 44.1381L34.6219 45.1343Z" fill="#FF9800"/>
<path d="M34.3919 45.178L39.8462 63.0182L42.9291 62.0757L37.4748 44.2355L34.3919 45.178Z" fill="#FF9C00"/>
<path d="M34.1616 45.2178L39.3037 63.1504L42.4026 62.2618L37.2605 44.3292L34.1616 45.2178Z" fill="#FFA000"/>
<path d="M33.9309 45.2535L38.7593 63.2731L41.8732 62.4388L37.0448 44.4191L33.9309 45.2535Z" fill="#FFA400"/>
<path d="M33.6993 45.2852L38.2124 63.3864L41.3404 62.6065L36.8273 44.5053L33.6993 45.2852Z" fill="#FFA900"/>
<path d="M33.467 45.3128L37.6636 63.49L40.8047 62.7648L36.6082 44.5876L33.467 45.3128Z" fill="#FFAD00"/>
<path d="M33.2346 45.3364L37.1133 63.584L40.2666 62.9138L36.3879 44.6661L33.2346 45.3364Z" fill="#FFB100"/>
<path d="M33.0019 45.3559L36.5615 63.6685L39.726 63.0533L36.1664 44.7408L33.0019 45.3559Z" fill="#FFB500"/>
<path d="M32.7684 45.3714L36.0078 63.7433L39.1826 63.1835L35.9431 44.8116L32.7684 45.3714Z" fill="#FFB900"/>
<path d="M32.5348 45.3827L35.4531 63.8083L38.6372 63.304L35.7189 44.8784L32.5348 45.3827Z" fill="#FFBE00"/>
<path d="M32.3016 45.39L34.8979 63.8638L38.0903 63.4151L35.494 44.9414L32.3016 45.39Z" fill="#FFC200"/>
<path d="M32.0678 45.3933L34.3413 63.9095L37.541 63.5166L35.2675 45.0004L32.0678 45.3933Z" fill="#FFC600"/>
<path d="M31.8337 45.3924L33.7837 63.9455L36.9898 63.6085L35.0398 45.0554L31.8337 45.3924Z" fill="#FFCA00"/>
<path d="M31.5997 45.3875L33.2256 63.9718L36.4371 63.6908L34.8112 45.1065L31.5997 45.3875Z" fill="#FFCF00"/>
<path d="M31.3662 45.3784L32.6675 63.9883L35.8834 63.7634L34.5821 45.1536L31.3662 45.3784Z" fill="#FFD300"/>
<path d="M31.133 45.3654L32.1094 63.9951L35.3287 63.8264L34.3524 45.1967L31.133 45.3654Z" fill="#FFD700"/>
<path d="M30.9002 45.3482L31.5513 63.9921L34.7731 63.8796L34.122 45.2357L30.9002 45.3482Z" fill="#FFDB00"/>
<path d="M30.6671 45.327L30.9927 63.9794L34.2159 63.9232L33.8904 45.2707L30.6671 45.327Z" fill="#FFE000"/>
<path d="M30.4351 45.3017L30.4351 63.957H33.6588V45.3017H30.4351Z" fill="#FFE400"/>
<path d="M30.203 45.2723L29.8774 63.9248L33.1007 63.9811L33.4263 45.3286L30.203 45.2723Z" fill="#FFE800"/>
<path d="M29.9719 45.239L29.3208 63.8829L32.5426 63.9954L33.1937 45.3515L29.9719 45.239Z" fill="#FFEC00"/>
<path d="M29.741 45.2015L28.7646 63.8313L31.984 64L32.9603 45.3702L29.741 45.2015Z" fill="#FFF100"/>
<path d="M29.5108 45.1601L28.2095 63.77L31.4254 63.9948L32.7267 45.385L29.5108 45.1601Z" fill="#FFF500"/>
<path d="M29.2812 45.1147L27.6553 63.699L30.8668 63.9799L32.4927 45.3956L29.2812 45.1147Z" fill="#FFF900"/>
<path d="M29.053 45.0652L27.103 63.6183L30.3091 63.9553L32.2591 45.4022L29.053 45.0652Z" fill="#FFFD00"/>
<path d="M28.8258 45.0118L26.5522 63.528L29.752 63.9209L32.0255 45.4047L28.8258 45.0118Z" fill="#FCFF00"/>
<path d="M28.5988 44.9544L26.0024 63.4282L29.1948 63.8768L31.7911 45.4031L28.5988 44.9544Z" fill="#F8FF00"/>
<path d="M28.3734 44.8931L25.4551 63.3187L28.6391 63.823L31.5575 45.3974L28.3734 44.8931Z" fill="#F4FF00"/>
<path d="M28.1486 44.8278L24.9092 63.1997L28.084 63.7595L31.3234 45.3876L28.1486 44.8278Z" fill="#F0FF00"/>
<path d="M27.9253 44.7587L24.3657 63.0712L27.5302 63.6863L31.0898 45.3738L27.9253 44.7587Z" fill="#ECFF00"/>
<path d="M27.7034 44.6856L23.8247 62.9333L26.978 63.6035L30.8567 45.3559L27.7034 44.6856Z" fill="#E7FF00"/>
<path d="M27.4822 44.6087L23.2856 62.7859L26.4268 63.5111L30.6233 45.3339L27.4822 44.6087Z" fill="#E3FF00"/>
<path d="M27.2631 44.528L22.75 62.6291L25.878 63.409L30.3911 45.3078L27.2631 44.528Z" fill="#DFFF00"/>
<path d="M27.0451 44.4434L22.2168 62.463L25.3307 63.2974L30.1591 45.2777L27.0451 44.4434Z" fill="#DBFF00"/>
<path d="M26.8291 44.355L21.687 62.2877L24.7859 63.1762L29.928 45.2436L26.8291 44.355Z" fill="#D6FF00"/>
<path d="M26.6144 44.2629L21.1602 62.1031L24.243 63.0456L29.6973 45.2054L26.6144 44.2629Z" fill="#D2FF00"/>
<path d="M26.401 44.167L20.6362 61.9093L23.7022 62.9055L29.467 45.1632L26.401 44.167Z" fill="#CEFF00"/>
<path d="M26.1893 44.0675L20.1157 61.7064L23.1638 62.756L29.2374 45.117L26.1893 44.0675Z" fill="#CAFF00"/>
<path d="M25.9796 43.9642L19.5991 61.4945L22.6285 62.5971L29.009 45.0668L25.9796 43.9642Z" fill="#C5FF00"/>
<path d="M25.7719 43.8573L19.0864 61.2736L22.0961 62.4288L28.7815 45.0126L25.7719 43.8573Z" fill="#C1FF00"/>
<path d="M25.5656 43.7468L18.5771 61.0437L21.5662 62.2514L28.5546 44.9545L25.5656 43.7468Z" fill="#BDFF00"/>
<path d="M25.362 43.6328L18.0728 60.8051L21.0402 62.0647L28.3294 44.8924L25.362 43.6328Z" fill="#B9FF00"/>
<path d="M25.1596 43.5151L17.5718 60.5576L20.5168 61.8688L28.1046 44.8264L25.1596 43.5151Z" fill="#B4FF00"/>
<path d="M24.9598 43.394L17.0757 60.3015L19.9974 61.6639L27.8815 44.7564L24.9598 43.394Z" fill="#B0FF00"/>
<path d="M24.7619 43.2694L16.584 60.0367L19.4815 61.4499L27.6594 44.6826L24.7619 43.2694Z" fill="#ACFF00"/>
<path d="M24.5665 43.1414L16.0972 59.7634L18.9696 61.2269L27.4389 44.6049L24.5665 43.1414Z" fill="#A8FF00"/>
<path d="M24.3734 43.0099L15.6152 59.4816L18.4616 60.9951L27.2198 44.5234L24.3734 43.0099Z" fill="#A3FF00"/>
<path d="M24.182 42.8752L15.1377 59.1915L17.9573 60.7544L27.0015 44.4381L24.182 42.8752Z" fill="#9FFF00"/>
<path d="M23.9932 42.7371L14.6655 58.8931L17.4574 60.5049L26.785 44.349L23.9932 42.7371Z" fill="#9BFF00"/>
<path d="M23.8074 42.5957L14.1992 58.5864L16.9625 60.2468L26.5707 44.2561L23.8074 42.5957Z" fill="#97FF00"/>
<path d="M23.6236 42.4511L13.7378 58.2717L16.4717 59.9801L26.3575 44.1595L23.6236 42.4511Z" fill="#93FF00"/>
<path d="M23.4426 42.3034L13.2822 57.949L15.9859 59.7048L26.1463 44.0592L23.4426 42.3034Z" fill="#8EFF00"/>
<path d="M23.2639 42.1525L12.832 57.6184L15.5046 59.4211L25.9366 43.9552L23.2639 42.1525Z" fill="#8AFF00"/>
<path d="M23.0884 41.9984L12.3882 57.28L15.0289 59.129L25.7292 43.8475L23.0884 41.9984Z" fill="#86FF00"/>
<path d="M22.915 41.8414L11.9497 56.9339L14.5578 58.8287L25.5231 43.7363L22.915 41.8414Z" fill="#82FF00"/>
<path d="M22.7446 41.6813L11.5176 56.5801L14.0922 58.5202L25.3192 43.6215L22.7446 41.6813Z" fill="#7DFF00"/>
<path d="M22.5772 41.5183L11.0918 56.2189L13.6322 58.2037L25.1175 43.5031L22.5772 41.5183Z" fill="#79FF00"/>
<path d="M22.4125 41.3524L10.6724 55.8503L13.1777 57.8791L24.9179 43.3812L22.4125 41.3524Z" fill="#75FF00"/>
<path d="M22.2507 41.1837L10.2593 55.4745L12.7288 57.5467L24.7202 43.2559L22.2507 41.1837Z" fill="#71FF00"/>
<path d="M22.092 41.0122L9.85303 55.0915L12.286 57.2065L24.525 43.1272L22.092 41.0122Z" fill="#6CFF00"/>
<path d="M21.936 40.8379L9.45312 54.7015L11.8488 56.8586L24.3317 42.995L21.936 40.8379Z" fill="#68FF00"/>
<path d="M21.7834 40.6609L9.06055 54.3045L11.4183 56.5031L24.1411 42.8595L21.7834 40.6609Z" fill="#64FF00"/>
<path d="M21.6339 40.4813L8.6748 53.9008L10.9938 56.1402L23.9528 42.7207L21.6339 40.4813Z" fill="#60FF00"/>
<path d="M21.4877 40.2991L8.29639 53.4904L10.5759 55.7699L23.7672 42.5786L21.4877 40.2991Z" fill="#5BFF00"/>
<path d="M21.3443 40.1143L7.9248 53.0734L10.1642 55.3924L23.5837 42.4333L21.3443 40.1143Z" fill="#57FF00"/>
<path d="M21.2042 39.9271L7.56055 52.65L9.75914 55.0077L23.4028 42.2848L21.2042 39.9271Z" fill="#53FF00"/>
<path d="M21.0672 39.7375L7.20361 52.2204L9.36073 54.6161L23.2243 42.1332L21.0672 39.7375Z" fill="#4FFF00"/>
<path d="M20.9343 39.5456L6.85498 51.7845L8.96995 54.2175L23.0493 41.9786L20.9343 39.5456Z" fill="#4AFF00"/>
<path d="M20.804 39.3513L6.51318 51.3427L8.58537 53.8122L22.8762 41.8208L20.804 39.3513Z" fill="#46FF00"/>
<path d="M20.6776 39.1548L6.17969 50.8949L8.20846 53.4003L22.7064 41.6601L20.6776 39.1548Z" fill="#42FF00"/>
<path d="M20.5541 38.9561L5.85352 50.4414L7.83826 52.9818L22.5388 41.4964L20.5541 38.9561Z" fill="#3EFF00"/>
<path d="M20.4349 38.7553L5.53613 49.9823L7.47624 52.5569L22.375 41.3299L20.4349 38.7553Z" fill="#3AFF00"/>
<path d="M20.3185 38.5524L5.22607 49.5177L7.12095 52.1258L22.2134 41.1605L20.3185 38.5524Z" fill="#35FF00"/>
<path d="M20.2063 38.3475L4.9248 49.0478L6.77387 51.6885L22.0554 40.9883L20.2063 38.3475Z" fill="#31FF00"/>
<path d="M20.0968 38.1407L4.63086 48.5727L6.43356 51.2453L21.8995 40.8134L20.0968 38.1407Z" fill="#2DFF00"/>
<path d="M19.9919 37.9321L4.34619 48.0925L6.10197 50.7962L21.7476 40.6358L19.9919 37.9321Z" fill="#29FF00"/>
<path d="M19.8899 37.7216L4.06934 47.6074L5.77767 50.3413L21.5983 40.4555L19.8899 37.7216Z" fill="#24FF00"/>
<path d="M19.792 37.5094L3.80127 47.1176L5.46163 49.8809L21.4523 40.2727L19.792 37.5094Z" fill="#20FF00"/>
<path d="M19.6975 37.2955L3.5415 46.6231L5.15338 49.415L21.3094 40.0873L19.6975 37.2955Z" fill="#1CFF00"/>
<path d="M19.6068 37.08L3.29053 46.1243L4.85343 48.9438L21.1697 39.8996L19.6068 37.08Z" fill="#18FF00"/>
<path d="M19.5205 36.8629L3.04883 45.6211L4.56229 48.4675L21.0339 39.7093L19.5205 36.8629Z" fill="#13FF00"/>
<path d="M19.4374 36.6444L2.81543 45.1137L4.27898 47.9861L20.901 39.5168L19.4374 36.6444Z" fill="#0FFF00"/>
<path d="M19.3586 36.4244L2.59131 44.6024L4.00451 47.4999L20.7718 39.3219L19.3586 36.4244Z" fill="#0BFF00"/>
<path d="M19.2829 36.2031L2.37549 44.0872L3.73791 47.0089L20.6454 39.1249L19.2829 36.2031Z" fill="#07FF00"/>
<path d="M19.2114 35.9806L2.16895 43.5684L3.48016 46.5134L20.5226 38.9256L19.2114 35.9806Z" fill="#02FF00"/>
<path d="M19.144 35.7568L1.97168 43.046L3.2313 46.0135L20.4036 38.7243L19.144 35.7568Z" fill="#00FF02"/>
<path d="M19.0806 35.5318L1.78369 42.5202L2.99133 45.5092L20.2882 38.5208L19.0806 35.5318Z" fill="#00FF06"/>
<path d="M19.0207 35.3058L1.60449 41.9913L2.75978 45.0009L20.176 38.3154L19.0207 35.3058Z" fill="#00FF0A"/>
<path d="M18.9648 35.0788L1.43457 41.4593L2.53716 44.4886L20.0674 38.1081L18.9648 35.0788Z" fill="#00FF0F"/>
<path d="M18.9134 34.8509L1.27441 40.9244L2.32397 43.9726L19.9629 37.899L18.9134 34.8509Z" fill="#00FF13"/>
<path d="M18.8653 34.622L1.12305 40.3868L2.11924 43.4528L19.8615 37.688L18.8653 34.622Z" fill="#00FF17"/>
<path d="M18.8221 34.3924L0.981934 39.8467L1.92447 42.9296L19.7646 37.4753L18.8221 34.3924Z" fill="#00FF1B"/>
<path d="M18.7818 34.162L0.849121 39.3041L1.73771 42.403L19.6703 37.2609L18.7818 34.162Z" fill="#00FF1F"/>
<path d="M18.7462 33.9311L0.726562 38.7594L1.56093 41.8733L19.5806 37.045L18.7462 33.9311Z" fill="#00FF24"/>
<path d="M18.7144 33.6994L0.613281 38.2126L1.39318 41.3406L19.4943 36.8274L18.7144 33.6994Z" fill="#00FF28"/>
<path d="M18.6869 33.4673L0.509766 37.6638L1.23495 40.805L19.4121 36.6084L18.6869 33.4673Z" fill="#00FF2C"/>
<path d="M18.6637 33.2347L0.416016 37.1134L1.08627 40.2667L19.3339 36.3881L18.6637 33.2347Z" fill="#00FF30"/>
<path d="M18.6436 33.0018L0.331055 36.5614L0.946176 39.726L19.2587 36.1664L18.6436 33.0018Z" fill="#00FF35"/>
<path d="M18.6287 32.7686L0.256836 36.008L0.816635 39.1828L19.1885 35.9433L18.6287 32.7686Z" fill="#00FF39"/>
<path d="M18.617 32.5351L0.191406 35.4534L0.695713 38.6375L19.1213 35.7192L18.617 32.5351Z" fill="#00FF3D"/>
<path d="M18.61 32.3014L0.13623 34.8978L0.58489 38.0901L19.0586 35.4938L18.61 32.3014Z" fill="#00FF41"/>
<path d="M18.6066 32.0677L0.090332 34.3412L0.483209 37.5409L18.9995 35.2674L18.6066 32.0677Z" fill="#00FF46"/>
<path d="M18.6073 31.834L0.0541992 33.784L0.391173 36.9901L18.9443 35.04L18.6073 31.834Z" fill="#00FF4A"/>
<path d="M18.6126 31.6002L0.0283203 33.2262L0.309289 36.4377L18.8936 34.8117L18.6126 31.6002Z" fill="#00FF4E"/>
<path d="M18.6216 31.3667L0.0117188 32.668L0.236596 35.8839L18.8465 34.5826L18.6216 31.3667Z" fill="#00FF52"/>
<path d="M18.6346 31.1333L0.00488281 32.1096L0.173601 35.329L18.8033 34.3526L18.6346 31.1333Z" fill="#00FF57"/>
<path d="M18.6518 30.9001L0.0078125 31.5512L0.12032 34.773L18.7643 34.1219L18.6518 30.9001Z" fill="#00FF5B"/>
<path d="M18.673 30.6674L0.0205078 30.993L0.0767701 34.2162L18.7292 33.8906L18.673 30.6674Z" fill="#00FF5F"/>
<path d="M18.6983 30.435H0.0429688V33.6588H18.6983V30.435Z" fill="#00FF63"/>
<path d="M18.7277 30.2031L0.0751953 29.8775L0.018933 33.1008L18.6714 33.4263L18.7277 30.2031Z" fill="#00FF68"/>
<path d="M18.7606 29.9717L0.116699 29.3206L0.00419182 32.5424L18.6481 33.1935L18.7606 29.9717Z" fill="#00FF6C"/>
<path d="M18.7982 29.741L0.168457 28.7646L-0.000261235 31.984L18.6295 32.9603L18.7982 29.741Z" fill="#00FF70"/>
<path d="M18.8398 29.5109L0.22998 28.2096L0.00510274 31.4255L18.615 32.7268L18.8398 29.5109Z" fill="#00FF74"/>
<path d="M18.8851 29.2816L0.300781 27.6557L0.0198125 30.8672L18.6041 32.4931L18.8851 29.2816Z" fill="#00FF78"/>
<path d="M18.9345 29.0532L0.381348 27.1031L0.0443736 30.3092L18.5975 32.2593L18.9345 29.0532Z" fill="#00FF7D"/>
<path d="M18.9879 28.8256L0.47168 26.5521L0.0788029 29.7518L18.5951 32.0253L18.9879 28.8256Z" fill="#00FF81"/>
<path d="M19.0455 28.599L0.571777 26.0027L0.123117 29.195L18.5969 31.7914L19.0455 28.599Z" fill="#00FF85"/>
<path d="M19.1068 28.3734L0.681152 25.4551L0.176846 28.6391L18.6025 31.5575L19.1068 28.3734Z" fill="#00FF89"/>
<path d="M19.1722 28.1489L0.800293 24.9095L0.240494 28.0843L18.6124 31.3237L19.1722 28.1489Z" fill="#00FF8E"/>
<path d="M19.2413 27.9257L0.928711 24.3661L0.31359 27.5306L18.6261 31.0902L19.2413 27.9257Z" fill="#00FF92"/>
<path d="M19.3141 27.7036L1.06641 23.825L0.39615 26.9783L18.6438 30.8569L19.3141 27.7036Z" fill="#00FF96"/>
<path d="M19.391 27.4829L1.21387 23.2863L0.48868 26.4275L18.6659 30.624L19.391 27.4829Z" fill="#00FF9A"/>
<path d="M19.4718 27.2635L1.37061 22.7504L0.590709 25.8784L18.6919 30.3915L19.4718 27.2635Z" fill="#00FF9F"/>
<path d="M19.5563 27.0456L1.53662 22.2172L0.702252 25.3311L18.7219 30.1595L19.5563 27.0456Z" fill="#00FFA3"/>
<path d="M19.6445 26.8292L1.71191 21.6871L0.823327 24.7859L18.756 29.928L19.6445 26.8292Z" fill="#00FFA7"/>
<path d="M19.7371 26.6143L1.89697 21.16L0.954438 24.2429L18.7946 29.6972L19.7371 26.6143Z" fill="#00FFAB"/>
<path d="M19.8326 26.4011L2.09033 20.6363L1.09414 23.7023L18.8364 29.4671L19.8326 26.4011Z" fill="#00FFB0"/>
<path d="M19.9324 26.1896L2.29346 20.1161L1.24391 23.1642L18.8828 29.2378L19.9324 26.1896Z" fill="#00FFB4"/>
<path d="M20.0351 25.9799L2.50488 19.5994L1.40229 22.6288L18.9326 29.0093L20.0351 25.9799Z" fill="#00FFB8"/>
<path d="M20.1423 25.772L2.72607 19.0866L1.57078 22.0962L18.987 28.7817L20.1423 25.772Z" fill="#00FFBC"/>
<path d="M20.2525 25.566L2.95557 18.5776L1.74793 21.5666L19.0448 28.5551L20.2525 25.566Z" fill="#00FFC1"/>
<path d="M20.3671 25.362L3.19482 18.0728L1.9352 21.0403L19.1075 28.3295L20.3671 25.362Z" fill="#00FFC5"/>
<path d="M20.4844 25.16L3.44189 17.5722L2.13068 20.5173L19.1731 28.105L20.4844 25.16Z" fill="#00FFC9"/>
<path d="M20.6057 24.9601L3.69824 17.076L2.33582 19.9977L19.2433 27.8818L20.6057 24.9601Z" fill="#00FFCD"/>
<path d="M20.7307 24.7623L3.96338 16.5844L2.55018 19.4818L19.3175 27.6598L20.7307 24.7623Z" fill="#00FFD1"/>
<path d="M20.8583 24.5667L4.23633 16.0974L2.77277 18.9698L19.3948 27.4391L20.8583 24.5667Z" fill="#00FFD6"/>
<path d="M20.9897 24.3734L4.51807 15.6153L3.00461 18.4617L19.4763 27.2198L20.9897 24.3734Z" fill="#00FFDA"/>
<path d="M21.1244 24.1824L4.80811 15.1382L3.2452 17.9577L19.5615 27.002L21.1244 24.1824Z" fill="#00FFDE"/>
<path d="M21.2624 23.9938L5.10645 14.6662L3.49457 17.458L19.6505 26.7857L21.2624 23.9938Z" fill="#00FFE2"/>
<path d="M21.4043 23.8077L5.41357 14.1995L3.75322 16.9628L19.7439 26.571L21.4043 23.8077Z" fill="#00FFE7"/>
<path d="M21.5486 23.624L5.72803 13.7382L4.0197 16.4721L19.8403 26.3579L21.5486 23.624Z" fill="#00FFEB"/>
<path d="M21.6964 23.4429L6.05078 13.2824L4.295 15.9861L19.9407 26.1465L21.6964 23.4429Z" fill="#00FFEF"/>
<path d="M21.8478 23.2643L6.38184 12.8324L4.57914 15.505L20.0451 25.937L21.8478 23.2643Z" fill="#00FFF3"/>
<path d="M22.0013 23.0885L6.71973 12.3882L4.87066 15.029L20.1522 25.7292L22.0013 23.0885Z" fill="#00FFF8"/>
<path d="M22.1584 22.9153L7.06592 11.95L5.17104 14.5581L20.2635 25.5234L22.1584 22.9153Z" fill="#00FFFC"/>
<path d="M22.3187 22.745L7.41992 11.5179L5.47982 14.0925L20.3786 25.3196L22.3187 22.745Z" fill="#00FEFF"/>
<path d="M22.4813 22.5774L7.78076 11.0921L5.79602 13.6324L20.4966 25.1178L22.4813 22.5774Z" fill="#00FAFF"/>
<path d="M22.6473 22.4127L8.14941 10.6726L6.12064 13.1779L20.6185 24.9181L22.6473 22.4127Z" fill="#00F5FF"/>
<path d="M22.8162 22.251L8.52539 10.2596L6.4532 12.7291L20.744 24.7205L22.8162 22.251Z" fill="#00F1FF"/>
<path d="M22.9875 22.0922L8.9082 9.85321L6.79323 12.2862L20.8726 24.5252L22.9875 22.0922Z" fill="#00EDFF"/>
<path d="M23.1619 21.9364L9.29834 9.45355L7.14123 11.8493L21.0048 24.3321L23.1619 21.9364Z" fill="#00E9FF"/>
<path d="M23.3389 21.7837L9.69531 9.06082L7.49672 11.4185L21.1403 24.1414L23.3389 21.7837Z" fill="#00E4FF"/>
<path d="M23.5186 21.6341L10.0991 8.67502L7.85971 10.994L21.2792 23.9531L23.5186 21.6341Z" fill="#00E0FF"/>
<path d="M23.7011 21.4877L10.5098 8.29636L8.23023 10.5759L21.4215 23.7672L23.7011 21.4877Z" fill="#00DCFF"/>
<path d="M23.8853 21.3444L10.9263 7.92493L8.60729 10.1643L21.5664 23.5838L23.8853 21.3444Z" fill="#00D8FF"/>
<path d="M24.0725 21.2044L11.3496 7.56079L8.9919 9.75939L21.7148 23.403L24.0725 21.2044Z" fill="#00D4FF"/>
<path d="M24.2621 21.0677L11.7793 7.20413L9.38358 9.36124L21.8664 23.2248L24.2621 21.0677Z" fill="#00CFFF"/>
<path d="M24.4543 20.9344L12.2153 6.85501L9.78233 8.96998L22.0213 23.0493L24.4543 20.9344Z" fill="#00CBFF"/>
<path d="M24.6486 20.8043L12.6572 6.51355L10.1877 8.58574L22.1791 22.8765L24.6486 20.8043Z" fill="#00C7FF"/>
<path d="M24.8451 20.6778L13.105 6.17987L10.5997 8.20864L22.3398 22.7065L24.8451 20.6778Z" fill="#00C3FF"/>
<path d="M25.0435 20.5546L13.5581 5.85403L11.0178 7.83878L22.5031 22.5394L25.0435 20.5546Z" fill="#00BEFF"/>
<path d="M25.2441 20.435L14.0171 5.53616L11.4425 7.47627L22.6695 22.3751L25.2441 20.435Z" fill="#00BAFF"/>
<path d="M25.4472 20.3188L14.4819 5.22635L11.8739 7.12122L22.8392 22.2137L25.4472 20.3188Z" fill="#00B6FF"/>
<path d="M25.6524 20.2062L14.9521 4.92471L12.3114 6.77378L23.0116 22.0553L25.6524 20.2062Z" fill="#00B2FF"/>
<path d="M25.8587 20.0973L15.4268 4.63132L12.7541 6.43402L23.1861 21.9L25.8587 20.0973Z" fill="#00ADFF"/>
<path d="M26.0676 19.9919L15.9072 4.34625L13.2036 6.10203L23.364 21.7477L26.0676 19.9919Z" fill="#00A9FF"/>
<path d="M26.2784 19.8902L16.3926 4.06961L13.6587 5.77794L23.5445 21.5985L26.2784 19.8902Z" fill="#00A5FF"/>
<path d="M26.4905 19.7922L16.8823 3.80148L14.119 5.46184L23.7272 21.4526L26.4905 19.7922Z" fill="#00A1FF"/>
<path d="M26.7041 19.6979L17.3765 3.54193L14.5846 5.15381L23.9123 21.3098L26.7041 19.6979Z" fill="#009CFF"/>
<path d="M26.9198 19.6073L17.8755 3.29105L15.0559 4.85395L24.1002 21.1703L26.9198 19.6073Z" fill="#0098FF"/>
<path d="M27.1366 19.5206L18.3784 3.04892L15.532 4.56238L24.2901 21.034L27.1366 19.5206Z" fill="#0094FF"/>
<path d="M27.3556 19.4376L18.8862 2.81561L16.0138 4.27917L24.4832 20.9012L27.3556 19.4376Z" fill="#0090FF"/>
<path d="M27.5754 19.3585L19.3975 2.59119L16.5 4.00439L24.6779 20.7717L27.5754 19.3585Z" fill="#008BFF"/>
<path d="M27.7967 19.2832L19.9126 2.37573L16.9909 3.73815L24.875 20.6456L27.7967 19.2832Z" fill="#0087FF"/>
<path d="M28.019 19.2118L20.4312 2.16928L17.4861 3.4805L25.0739 20.523L28.019 19.2118Z" fill="#0083FF"/>
<path d="M28.2433 19.1442L20.9541 1.97192L17.9866 3.23155L25.2758 20.4038L28.2433 19.1442Z" fill="#007FFF"/>
<path d="M28.4679 19.0806L21.4795 1.78372L18.4905 2.99136L25.4789 20.2883L28.4679 19.0806Z" fill="#007BFF"/>
<path d="M28.6938 19.021L22.0083 1.60474L18.9987 2.76003L25.6841 20.1763L28.6938 19.021Z" fill="#0076FF"/>
<path d="M28.921 18.9653L22.5405 1.435L19.5112 2.53759L25.8917 20.0678L28.921 18.9653Z" fill="#0072FF"/>
<path d="M29.1488 18.9135L23.0752 1.27457L20.0271 2.32412L26.1007 19.9631L29.1488 18.9135Z" fill="#006EFF"/>
<path d="M29.3776 18.8657L23.6128 1.12347L20.5468 2.11967L26.3116 19.8619L29.3776 18.8657Z" fill="#006AFF"/>
<path d="M29.6071 18.822L24.1528 0.981812L21.0699 1.92435L26.5242 19.7645L29.6071 18.822Z" fill="#0065FF"/>
<path d="M29.8374 18.7822L24.6953 0.849579L21.5964 1.73817L26.7385 19.6708L29.8374 18.7822Z" fill="#0061FF"/>
<path d="M30.0691 18.7465L25.2407 0.726868L22.1268 1.56124L26.9552 19.5809L30.0691 18.7465Z" fill="#005DFF"/>
<path d="M30.3002 18.7148L25.7871 0.613678L22.6591 1.39357L27.1722 19.4947L30.3002 18.7148Z" fill="#0059FF"/>
<path d="M30.5325 18.6872L26.3359 0.51001L23.1948 1.2352L27.3913 19.4124L30.5325 18.6872Z" fill="#0054FF"/>
<path d="M30.7649 18.6636L26.8862 0.415955L23.7329 1.08621L27.6116 19.3339L30.7649 18.6636Z" fill="#0050FF"/>
<path d="M30.9981 18.6441L27.4385 0.331543L24.274 0.946664L27.8336 19.2592L30.9981 18.6441Z" fill="#004CFF"/>
<path d="M31.2312 18.6286L27.9917 0.256744L24.8169 0.816543L28.0564 19.1884L31.2312 18.6286Z" fill="#0048FF"/>
<path d="M31.4647 18.6173L28.5464 0.19162L25.3623 0.695926L28.2807 19.1216L31.4647 18.6173Z" fill="#0043FF"/>
<path d="M31.6984 18.61L29.1021 0.1362L25.9097 0.58486L28.506 19.0586L31.6984 18.61Z" fill="#003FFF"/>
<path d="M31.9322 18.6067L29.6587 0.0904846L26.459 0.483361L28.7325 18.9996L31.9322 18.6067Z" fill="#003BFF"/>
<path d="M32.1658 18.6076L30.2158 0.0545044L27.0097 0.391478L28.9597 18.9446L32.1658 18.6076Z" fill="#0037FF"/>
<path d="M32.3994 18.6125L30.7734 0.0282288L27.562 0.309197L29.1879 18.8935L32.3994 18.6125Z" fill="#0032FF"/>
<path d="M32.6329 18.6216L31.3315 0.0116882L28.1156 0.236566L29.417 18.8464L32.6329 18.6216Z" fill="#002EFF"/>
<path d="M32.8665 18.6347L31.8901 0.00491333L28.6708 0.173632L29.6471 18.8034L32.8665 18.6347Z" fill="#002AFF"/>
<path d="M33.0998 18.6518L32.4487 0.00784302L29.2269 0.12035L29.878 18.7643L33.0998 18.6518Z" fill="#0026FF"/>
<path d="M33.3324 18.673L33.0068 0.0205688L29.7836 0.0768311L30.1092 18.7293L33.3324 18.673Z" fill="#0022FF"/>
<path d="M32.9442 62.8869H31.113C31.028 62.8561 30.9428 62.8483 30.8571 62.8483C29.8793 62.802 28.9087 62.7232 27.9466 62.5924C26.1468 62.3596 24.3771 61.9637 22.6546 61.4135C19.6982 60.4674 16.9436 59.1098 14.3906 57.3406C12.0233 55.6955 9.929 53.7563 8.10513 51.5226C5.95494 48.9003 4.27947 46.0063 3.09172 42.8264C2.02828 40.0025 1.39216 37.0785 1.19773 34.0603C1.19773 33.8974 1.16685 33.7345 1.11279 33.5716V30.3831C1.16685 30.2426 1.19001 30.0958 1.19773 29.9487C1.23634 29.227 1.31356 28.5053 1.40776 27.7921C1.87369 24.3479 2.89729 21.0812 4.47283 17.9857C5.55912 15.852 6.87845 13.8669 8.42975 12.035C9.96638 10.2201 11.6891 8.59808 13.5974 7.17883C16.7093 4.86663 20.1316 3.19889 23.8714 2.17545C25.6869 1.67956 27.5421 1.35371 29.4193 1.19804C29.7525 1.16715 30.1025 1.19804 30.4358 1.1131H33.5706C33.8109 1.18259 34.0596 1.14398 34.2997 1.16715C35.542 1.27525 36.7756 1.43139 38.0009 1.67153C41.8577 2.43182 45.4344 3.87516 48.7407 6.00744C51.3096 7.65974 53.5753 9.65333 55.5538 11.9728C57.1449 13.8348 58.4944 15.8598 59.5966 18.0465C60.9002 20.6304 61.8309 23.3372 62.3597 26.184C62.6386 27.6888 62.8487 29.2094 62.8558 30.7456C62.8558 30.8475 62.8789 30.9556 62.8866 31.0557V32.8866C62.8558 33.0024 62.8558 33.1268 62.848 33.2509C62.848 33.5454 62.848 33.8412 62.8249 34.1355C62.6843 36.0133 62.3903 37.867 61.9244 39.6977C61.0322 43.1346 59.5958 46.3231 57.6016 49.2627C56.1192 51.4506 54.3893 53.4213 52.4024 55.1663C50.4239 56.9042 48.2583 58.3705 45.9069 59.5567C43.1981 60.9216 40.3505 61.8689 37.3628 62.3878C36.2147 62.5893 35.0583 62.7209 33.8946 62.7909C33.5881 62.8264 33.2628 62.819 32.9442 62.8869Z" fill="#383838"/>
<path style="mix-blend-mode:lighten" d="M23.9658 19.1843C23.9442 19.7518 24.045 20.3722 24.2122 20.9928C24.5308 22.1735 25.0587 23.2554 25.6813 24.2773C27.0995 26.6012 28.8871 28.5908 30.8267 30.438C30.9855 30.5898 31.1746 30.7181 31.3771 30.8158C31.5798 30.9213 31.7823 30.9213 31.9919 30.8308C32.1943 30.7405 32.3755 30.6118 32.5276 30.4447C33.2007 29.7488 33.866 29.0519 34.5031 28.3326C35.4003 27.3107 36.2548 26.2594 37.0291 25.1316C37.7316 24.1098 38.3608 23.0349 38.8235 21.8694C39.2862 20.711 39.5111 19.5161 39.3592 18.2598C39.1059 16.1867 38.2595 14.4302 36.7467 13.0528C34.9579 11.4269 32.8744 10.7759 30.5296 11.1386C26.7158 11.7296 23.9511 15.2415 23.9658 19.1843Z" fill="url(#paint0_radial_1878_3817)"/>
<path d="M43.7031 47.4413C43.223 47.4559 42.6841 47.3965 42.1452 47.2821C40.5511 46.9331 39.197 46.2083 38.1565 44.9232C37.5236 44.1396 36.9916 43.2903 36.533 42.3972C35.9939 41.3448 35.5434 40.2483 35.1506 39.1383C34.6706 37.7958 34.263 36.4238 33.9493 35.0372C33.775 34.2604 33.9709 33.7737 34.8301 33.506C35.9215 33.165 37.021 32.8601 38.1418 32.6129C39.9975 32.2062 41.8679 31.9454 43.7756 32.0097C44.3146 32.0313 44.8524 32.0892 45.3844 32.1835C46.9276 32.4525 48.2375 33.1639 49.3073 34.2885C51.1347 36.2048 51.8615 38.4912 51.4109 41.0975C50.7633 44.8216 47.4585 47.4707 43.7031 47.4413Z" fill="url(#paint1_radial_1878_3817)"/>
<path d="M19.6668 47.4413C20.1469 47.4559 20.6858 47.3965 21.2247 47.2821C22.8188 46.9331 24.1729 46.2083 25.2134 44.9232C25.8463 44.1396 26.3783 43.2903 26.8369 42.3972C27.376 41.3448 27.8265 40.2483 28.2193 39.1383C28.6993 37.7958 29.1069 36.4238 29.4206 35.0372C29.5949 34.2604 29.399 33.7737 28.5398 33.506C27.4484 33.165 26.3489 32.8601 25.2281 32.6129C23.3724 32.2062 21.502 31.9454 19.5943 32.0097C19.0553 32.0313 18.5175 32.0892 17.9855 32.1835C16.4423 32.4525 15.1324 33.1639 14.0626 34.2885C12.2352 36.2048 11.5084 38.4912 11.959 41.0975C12.6066 44.8216 15.9114 47.4707 19.6668 47.4413Z" fill="url(#paint2_radial_1878_3817)"/>
<defs>
<radialGradient id="paint0_radial_1878_3817" cx="0" cy="0" r="1" gradientUnits="userSpaceOnUse" gradientTransform="translate(31.8341 29.8676) rotate(4.82254) scale(8.20225 15.1619)">
<stop stop-color="white"/>
<stop offset="1" stop-color="#009BD8"/>
</radialGradient>
<radialGradient id="paint1_radial_1878_3817" cx="0" cy="0" r="1" gradientUnits="userSpaceOnUse" gradientTransform="translate(33.9769 34.5626) rotate(21.7759) scale(18.0876 9.66562)">
<stop stop-color="white"/>
<stop offset="1" stop-color="#FF3044"/>
</radialGradient>
<radialGradient id="paint2_radial_1878_3817" cx="0" cy="0" r="1" gradientUnits="userSpaceOnUse" gradientTransform="translate(29.2971 33.9072) rotate(146.321) scale(18.2788 8.30869)">
<stop stop-color="white"/>
<stop offset="1" stop-color="#FCFF7C"/>
</radialGradient>
</defs>
</svg>
