<svg width="45" height="50" viewBox="0 0 45 50" fill="none" xmlns="http://www.w3.org/2000/svg">
<path d="M27.0776 20.9783C25.6202 20.9783 24.4697 22.2137 24.4697 23.7518C24.4697 25.2899 25.6454 26.5254 27.0776 26.5254C28.535 26.5254 29.6863 25.2899 29.6863 23.7518C29.6863 22.2137 28.5098 20.9783 27.0776 20.9783ZM17.7437 20.9783C16.2863 20.9783 15.1359 22.2137 15.1359 23.7518C15.1359 25.2899 16.3124 26.5254 17.7437 26.5254C19.2019 26.5254 20.3524 25.2899 20.3524 23.7518C20.3776 22.2137 19.2019 20.9783 17.7437 20.9783Z" fill="#5865F2"/>
<path d="M39.5087 0H5.2426C2.35304 0 0 2.31974 0 5.16896V38.9562C0 41.8054 2.35304 44.125 5.2426 44.125H34.2408L32.8852 39.5109L36.1582 42.4862L39.253 45.285L44.7765 50V5.16896C44.7504 2.31974 42.3983 0 39.5087 0ZM29.6374 32.6525C29.6374 32.6525 28.7174 31.5683 27.9504 30.6354C31.3 29.7024 32.5782 27.6601 32.5782 27.6601C31.5304 28.3409 30.533 28.82 29.6374 29.1477C28.3591 29.6772 27.1313 30.005 25.9295 30.232C23.4748 30.6858 21.2244 30.5597 19.307 30.2068C17.8496 29.9294 16.5965 29.5512 15.5478 29.1225C14.9591 28.8956 14.32 28.6183 13.6808 28.2652C13.6043 28.2148 13.5278 28.1897 13.4504 28.1392C13.4 28.114 13.3739 28.0888 13.3487 28.0888C12.8878 27.8366 12.6322 27.6601 12.6322 27.6601C12.6322 27.6601 13.86 29.652 17.1078 30.6102C16.34 31.5683 15.3939 32.6777 15.3939 32.6777C9.74261 32.5012 7.59479 28.8704 7.59479 28.8704C7.59479 20.827 11.2774 14.2965 11.2774 14.2965C14.9591 11.5986 18.4374 11.6743 18.4374 11.6743L18.6931 11.9768C14.0904 13.2627 11.993 15.2547 11.993 15.2547C11.993 15.2547 12.5556 14.9521 13.5017 14.5487C16.2382 13.3636 18.4113 13.061 19.307 12.9602C19.46 12.935 19.5878 12.9097 19.7417 12.9097C21.3017 12.708 23.0661 12.6576 24.907 12.8593C27.3365 13.1366 29.9443 13.8426 32.6043 15.2546C32.6043 15.2546 30.5835 13.3636 26.2365 12.0777L26.5948 11.6742C26.5948 11.6742 30.0983 11.5986 33.7548 14.2965C33.7548 14.2965 37.4374 20.827 37.4374 28.8703C37.4374 28.8451 35.2887 32.476 29.6374 32.6525Z" fill="#5865F2"/>
</svg>
