<svg width="20" height="20" viewBox="0 0 20 20" fill="none" xmlns="http://www.w3.org/2000/svg">
<mask id="mask0_988_555" style="mask-type:luminance" maskUnits="userSpaceOnUse" x="4" y="2" width="12" height="16">
<path d="M4.76562 2.1875H15.1844V17.8125H4.76562V2.1875Z" fill="white"/>
</mask>
<g mask="url(#mask0_988_555)">
<path d="M7.37277 17.8124C8.81027 17.8124 9.97691 16.6457 9.97691 15.2082V12.604H7.37277C5.93527 12.604 4.76855 13.7707 4.76855 15.2082C4.76855 16.6457 5.93527 17.8124 7.37277 17.8124Z" fill="#0ACF83"/>
<path d="M4.76855 10.0001C4.76855 8.56264 5.93527 7.396 7.37277 7.396H9.97691V12.6043H7.37277C5.93527 12.6043 4.76855 11.4376 4.76855 10.0001Z" fill="#A259FF"/>
<path d="M4.76855 4.79164C4.76855 3.35414 5.93527 2.1875 7.37277 2.1875H9.97691V7.39586H7.37277C5.93527 7.39586 4.76855 6.22914 4.76855 4.79164Z" fill="#F24E1E"/>
<path d="M9.97656 2.1875H12.5807C14.0182 2.1875 15.1849 3.35414 15.1849 4.79164C15.1849 6.22914 14.0182 7.39586 12.5807 7.39586H9.97656V2.1875Z" fill="#FF7262"/>
<path d="M15.1849 10.0001C15.1849 11.4376 14.0182 12.6043 12.5807 12.6043C11.1432 12.6043 9.97656 11.4376 9.97656 10.0001C9.97656 8.56264 11.1432 7.396 12.5807 7.396C14.0182 7.396 15.1849 8.56264 15.1849 10.0001Z" fill="#1ABCFE"/>
</g>
</svg>
