<svg width="24" height="24" viewBox="0 0 24 24" fill="none" xmlns="http://www.w3.org/2000/svg">
<circle cx="12" cy="12" r="11.5" fill="#5F6064" stroke="#79757B"/>
<circle cx="12.0001" cy="12.0001" r="10.3448" fill="#4D4F55"/>
<mask id="mask0_2606_23923" style="mask-type:luminance" maskUnits="userSpaceOnUse" x="7" y="4" width="11" height="16">
<path d="M7.44824 4.96533H17.3793V19.8619H7.44824V4.96533Z" fill="white"/>
</mask>
<g mask="url(#mask0_2606_23923)">
<path d="M9.93348 19.8615C11.3037 19.8615 12.4157 18.7493 12.4157 17.3788V14.896H9.93348C8.56328 14.896 7.45117 16.0083 7.45117 17.3788C7.45117 18.7493 8.56328 19.8615 9.93348 19.8615Z" fill="#31DA99"/>
<path d="M7.45117 12.4144C7.45117 11.0439 8.56328 9.93164 9.93348 9.93164H12.4157V14.8971H9.93348C8.56328 14.8971 7.45117 13.7849 7.45117 12.4144Z" fill="#B47AFF"/>
<path d="M7.45117 7.44807C7.45117 6.07758 8.56328 4.96533 9.93348 4.96533H12.4157V9.93087H9.93348C8.56328 9.93087 7.45117 8.81855 7.45117 7.44807Z" fill="#FF6F45"/>
<path d="M12.416 4.96533H14.8983C16.2685 4.96533 17.3806 6.07758 17.3806 7.44807C17.3806 8.81855 16.2685 9.93087 14.8983 9.93087H12.416V4.96533Z" fill="#FF8C7F"/>
<path d="M17.3806 12.4144C17.3806 13.7849 16.2685 14.8971 14.8983 14.8971C13.528 14.8971 12.416 13.7849 12.416 12.4144C12.416 11.0439 13.528 9.93164 14.8983 9.93164C16.2685 9.93164 17.3806 11.0439 17.3806 12.4144Z" fill="#4BCBFF"/>
</g>
<path d="M13.4857 10.131C13.1315 10.3503 12.8321 10.6498 12.6128 11.0041L12.6128 10.1311L13.4857 10.131ZM12.6128 14.8961V13.8235C13.0857 14.5874 13.9312 15.0966 14.895 15.0966C16.3757 15.0966 17.5773 13.8947 17.5773 12.4138C17.5773 11.2931 16.8891 10.332 15.9125 9.93089C16.8891 9.52977 17.5773 8.56881 17.5773 7.44807C17.5773 5.96716 16.3757 4.76533 14.895 4.76533H12.4128H9.93055C8.44986 4.76533 7.24824 5.96716 7.24824 7.44807C7.24824 8.5688 7.93647 9.52989 8.91306 9.93107C7.9365 10.3322 7.24828 11.2931 7.24828 12.4138C7.24828 13.5346 7.93646 14.4952 8.91295 14.8962C7.93644 15.2973 7.24828 16.2582 7.24828 17.3789C7.24828 18.8598 8.44989 20.0617 9.93059 20.0617C11.4113 20.0617 12.6128 18.8598 12.6128 17.3789V14.8961Z" stroke="#9677A4" stroke-width="0.4"/>
</svg>
