<svg width="20" height="20" viewBox="0 0 20 20" fill="none" xmlns="http://www.w3.org/2000/svg">
<path d="M10.0001 2.34375C5.68586 2.34375 2.1875 5.84141 2.1875 10.1563C2.1875 13.6081 4.42602 16.5366 7.53023 17.5696C7.92063 17.642 8.06398 17.4002 8.06398 17.1938C8.06398 17.0075 8.05672 16.3921 8.05336 15.7393C5.87992 16.2119 5.42133 14.8175 5.42133 14.8175C5.06586 13.9145 4.55383 13.6744 4.55383 13.6744C3.845 13.1895 4.60727 13.1995 4.60727 13.1995C5.3918 13.2545 5.80492 14.0045 5.80492 14.0045C6.50172 15.1989 7.63258 14.8536 8.07836 14.654C8.14852 14.149 8.35094 13.8044 8.57438 13.6093C6.83906 13.4117 5.015 12.7418 5.015 9.74828C5.015 8.89531 5.32016 8.19836 5.81992 7.65125C5.73875 7.45445 5.47133 6.65984 5.89555 5.58375C5.89555 5.58375 6.55164 5.37375 8.04461 6.38453C8.66781 6.21148 9.33609 6.12469 10.0001 6.12172C10.664 6.12469 11.3329 6.21148 11.9572 6.38461C13.4484 5.37375 14.1035 5.58383 14.1035 5.58383C14.5287 6.65984 14.2613 7.45453 14.1801 7.65125C14.681 8.19836 14.9841 8.89531 14.9841 9.74828C14.9841 12.749 13.1565 13.4097 11.4168 13.603C11.697 13.8455 11.9467 14.3209 11.9467 15.0498C11.9467 16.0952 11.9377 16.9365 11.9377 17.1938C11.9377 17.4017 12.0783 17.6453 12.4743 17.5686C15.5768 16.5344 17.8125 13.607 17.8125 10.1563C17.8125 5.84149 14.3146 2.34375 10.0001 2.34375ZM5.11359 13.4729C5.09641 13.5117 5.03531 13.5234 4.97969 13.4967C4.92297 13.4712 4.89117 13.4183 4.90953 13.3794C4.92633 13.3394 4.98758 13.3283 5.04406 13.3551C5.10086 13.3805 5.1332 13.434 5.11359 13.4729ZM5.49789 13.8158C5.46063 13.8504 5.38773 13.8343 5.33836 13.7797C5.28727 13.7252 5.27766 13.6524 5.31547 13.6173C5.35383 13.5828 5.42453 13.599 5.4757 13.6534C5.5268 13.7086 5.5368 13.7809 5.49789 13.8158ZM5.76148 14.2545C5.71359 14.2878 5.63531 14.2566 5.58695 14.1871C5.53906 14.1177 5.53906 14.0344 5.58797 14.0009C5.63648 13.9676 5.71359 13.9976 5.76266 14.0666C5.81039 14.1372 5.81039 14.2205 5.76148 14.2545ZM6.20734 14.7627C6.16453 14.8098 6.07336 14.7972 6.00656 14.7327C5.93828 14.6698 5.91922 14.5804 5.96219 14.5331C6.00555 14.4858 6.09727 14.4991 6.16453 14.563C6.23234 14.6259 6.25305 14.7159 6.20734 14.7627ZM6.78359 14.9341C6.76469 14.9954 6.67688 15.0232 6.58836 14.9972C6.50008 14.9704 6.44219 14.8988 6.46008 14.8369C6.47844 14.7753 6.56664 14.7463 6.65578 14.7741C6.74406 14.8008 6.80195 14.872 6.78359 14.9341ZM7.43937 15.007C7.44156 15.0713 7.36656 15.1248 7.27367 15.1259C7.18023 15.128 7.10469 15.0759 7.10367 15.0125C7.10367 14.9474 7.17703 14.8945 7.27039 14.893C7.36336 14.8912 7.43937 14.9429 7.43937 15.007ZM8.08359 14.9823C8.09477 15.0451 8.03023 15.1097 7.93797 15.1269C7.84727 15.1434 7.76328 15.1046 7.7518 15.0423C7.74055 14.9778 7.80625 14.9133 7.8968 14.8966C7.98922 14.8805 8.07188 14.9184 8.08359 14.9823Z" fill="#161614"/>
</svg>
