<svg width="59" height="24" viewBox="0 0 59 24" fill="none" xmlns="http://www.w3.org/2000/svg">
<path fill-rule="evenodd" clip-rule="evenodd" d="M12.5 2.10248C19.4346 -5.1967 36.7725 7.57606 12.5 24C-11.7725 7.57766 5.56544 -5.1967 12.5 2.10248Z" fill="#FF415C"/>
<path d="M47.7688 9.53106C47.0985 9.53106 46.5791 10.0511 46.5791 10.6932C46.5791 11.3353 47.0985 11.8554 47.7688 11.8554C48.381 11.8554 48.9004 11.3353 48.9004 10.6932C48.9004 10.0511 48.381 9.53106 47.7688 9.53106ZM39.6443 9.53106C38.974 9.53106 38.4546 10.0511 38.4546 10.6932C38.4546 11.3353 38.974 11.8554 39.6443 11.8554C40.2565 11.8554 40.7759 11.3353 40.7759 10.6932C40.7759 10.0511 40.2565 9.53106 39.6443 9.53106Z" fill="#16013E"/>
<path d="M57.083 7.32294C55.6873 5.40537 53.7374 4.12408 51.5989 3.5459V3.54881C51.1027 2.99678 50.5427 2.48833 49.916 2.03509C45.1661 -1.42235 38.4982 -0.367687 35.0307 4.38847C32.2365 8.25267 32.3555 13.4505 35.2048 17.1432L35.228 20.9958C35.228 21.0888 35.2426 21.1818 35.2716 21.2689C35.4254 21.7599 35.9476 22.0301 36.4351 21.8761L40.1086 20.7169C41.0806 21.0626 42.0845 21.2602 43.0827 21.3154L43.0682 21.327C45.6535 23.2126 49.0426 23.7792 52.1502 22.7507L55.8382 23.9535C55.931 23.9826 56.0268 24 56.1254 24C56.639 24 57.0539 23.5845 57.0539 23.0703V19.177C59.6103 15.7021 59.677 10.8995 57.083 7.32294ZM40.5148 18.654L40.1666 18.5088L37.294 19.4094L37.265 16.3878L37.0328 16.1263C34.5781 13.1279 34.4156 8.8076 36.7137 5.6378C39.5108 1.79684 44.873 0.948464 48.6973 3.72023C52.5332 6.51233 53.3834 11.8728 50.6124 15.6905C48.2882 18.8836 44.1273 20.0632 40.5148 18.654ZM55.1679 18.1601L54.9358 18.4507L54.9648 21.4723L52.1212 20.5135L51.773 20.6588C50.1481 21.2631 48.4159 21.3125 46.8113 20.8622L46.8055 20.8593C48.9498 20.1997 50.8938 18.8632 52.2953 16.9398C54.5121 13.8805 54.8719 10.0366 53.5836 6.75929L53.601 6.77091C54.2684 7.2503 54.8806 7.84882 55.4 8.57226C57.5066 11.4661 57.3876 15.4058 55.1679 18.1601Z" fill="#16013E"/>
<path d="M43.7066 9.53106C43.0363 9.53106 42.5169 10.0511 42.5169 10.6932C42.5169 11.3353 43.0363 11.8554 43.7066 11.8554C44.3188 11.8554 44.8382 11.3353 44.8382 10.6932C44.8382 10.0511 44.3188 9.53106 43.7066 9.53106Z" fill="#16013E"/>
</svg>
