<svg width="53" height="50" viewBox="0 0 53 50" fill="none" xmlns="http://www.w3.org/2000/svg">
<path d="M0.716204 24.9994H17.8257V49.2813C17.8257 49.4718 17.75 49.6542 17.6157 49.7889C17.4814 49.9237 17.2991 49.9989 17.1091 49.9989H0.716204C0.526204 49.9989 0.344276 49.9237 0.20999 49.7889C0.0752281 49.6542 0 49.4718 0 49.2813V25.717C0 25.5266 0.0752281 25.3442 0.20999 25.2099C0.344276 25.0751 0.526204 24.9994 0.716204 24.9994Z" fill="#131032"/>
<path d="M39.3235 28.7309L52.733 48.8795C52.8044 48.9876 52.8473 49.1128 52.852 49.2428C52.8615 49.3724 52.8329 49.5014 52.771 49.6162C52.7091 49.7305 52.6187 49.8266 52.5092 49.8933C52.3949 49.96 52.2663 49.9952 52.1377 49.9952H32.9139C32.6615 49.9952 32.4139 49.9285 32.1949 49.8014C31.9806 49.6747 31.7977 49.4919 31.6725 49.2724L17.8254 24.9947L31.6725 0.722355C31.7977 0.502355 31.9806 0.319975 32.1949 0.192832C32.4139 0.0661652 32.6615 -0.000976562 32.9139 -0.000976562H52.1377C52.2663 -0.000976562 52.3949 0.034736 52.5092 0.101403C52.6187 0.168069 52.7091 0.263784 52.771 0.378546C52.8329 0.492832 52.8615 0.621881 52.852 0.751881C52.8473 0.881405 52.8044 1.00712 52.733 1.11521L39.3235 21.2638C39.252 21.3676 39.1568 21.4519 39.0473 21.5076L32.0854 24.9947L39.0473 28.4824C39.1568 28.54 39.252 28.6257 39.3235 28.7309Z" fill="#131032"/>
<path d="M8.91334 17.8577C13.8357 17.8577 17.8262 13.8601 17.8262 8.92916C17.8262 3.99774 13.8357 0.000112811 8.91334 0.000112811C3.99048 0.000112811 0 3.99774 0 8.92916C0 13.8601 3.99048 17.8577 8.91334 17.8577Z" fill="#131032"/>
</svg>
