<svg width="59" height="50" viewBox="0 0 59 50" fill="none" xmlns="http://www.w3.org/2000/svg">
<path d="M33.4009 15.0002V25.4427L46.9703 14.0901V4.00011C46.9703 1.78944 45.2281 0 43.0861 0H13.6719L13.6514 15.0002H33.4009Z" fill="#FFBA00"/>
<path d="M33.4008 35.8893H13.6206L13.5898 49.9999H43.086C45.2382 49.9999 46.9702 48.2094 46.9702 45.9998V36.8927L33.4008 25.4468V35.8893Z" fill="#00AC47"/>
<path d="M13.6517 14.9993L13.6211 35.8894H33.4012V25.4428V14.9993H13.6517Z" fill="white"/>
<path d="M13.6719 0L0 15.0002H13.6514L13.6719 0Z" fill="#E94235"/>
<path d="M0 35.8894V45.9999C0 48.2095 1.76277 50 3.94577 50H13.5899L13.6105 35.8894H0Z" fill="#0066DA"/>
<path d="M13.6514 15.0002H0V35.8904H13.6207L13.6514 15.0002Z" fill="#2684FC"/>
<path d="M58.9101 42.4435V8.10994C58.1414 3.55331 53.3246 8.77611 53.3246 8.77611L46.9805 14.0901V36.8937L56.0712 44.5568C59.3508 44.9995 58.9101 42.4435 58.9101 42.4435Z" fill="#00AC47"/>
<path d="M33.4004 25.4428L46.9801 36.8927V14.0891L33.4004 25.4428Z" fill="#00832D"/>
</svg>
