<svg width="13" height="19" viewBox="0 0 13 19" fill="none" xmlns="http://www.w3.org/2000/svg">
<path d="M3.16667 0C3.44662 0 3.7151 0.11121 3.91306 0.309165C4.11101 0.50712 4.22222 0.775605 4.22222 1.05556V17.9444C4.22222 18.2244 4.11101 18.4929 3.91306 18.6908C3.7151 18.8888 3.44662 19 3.16667 19H1.05556C0.775605 19 0.50712 18.8888 0.309165 18.6908C0.11121 18.4929 0 18.2244 0 17.9444V1.05556C0 0.775605 0.11121 0.50712 0.309165 0.309165C0.50712 0.11121 0.775605 0 1.05556 0H3.16667ZM11.6111 0C11.8911 0 12.1595 0.11121 12.3575 0.309165C12.5555 0.50712 12.6667 0.775605 12.6667 1.05556V17.9444C12.6667 18.2244 12.5555 18.4929 12.3575 18.6908C12.1595 18.8888 11.8911 19 11.6111 19H9.5C9.22005 19 8.95156 18.8888 8.75361 18.6908C8.55565 18.4929 8.44444 18.2244 8.44444 17.9444V1.05556C8.44444 0.775605 8.55565 0.50712 8.75361 0.309165C8.95156 0.11121 9.22005 0 9.5 0H11.6111Z" fill="#FFFBF5"/>
</svg>
