<svg width="20" height="20" viewBox="0 0 20 20" fill="none" xmlns="http://www.w3.org/2000/svg">
<path fill-rule="evenodd" clip-rule="evenodd" d="M10 20C15.5228 20 20 15.5228 20 10C20 4.47715 15.5228 0 10 0C4.47715 0 0 4.47715 0 10C0 15.5228 4.47715 20 10 20ZM7.59485 7.88857V12.1115C7.59485 12.414 7.73834 12.6443 8.02533 12.8021C8.31232 12.96 8.59247 12.9468 8.8658 12.7626L12.2687 10.6709C12.5283 10.5131 12.6581 10.2894 12.6581 10C12.6581 9.7106 12.5283 9.48695 12.2687 9.32909L8.8658 7.23738C8.59247 7.0532 8.31232 7.04005 8.02533 7.19791C7.73834 7.35578 7.59485 7.586 7.59485 7.88857Z" fill="#16013E"/>
</svg>
