<svg width="58" height="56" viewBox="0 0 58 56" fill="none" xmlns="http://www.w3.org/2000/svg">
<path d="M10.2688 0H47.7312C53.4361 0 58 4.52526 58 10.1818V45.8182C58 51.4747 53.4361 56 47.7312 56H10.2688C4.56392 56 0 51.4747 0 45.8182V10.1818C0 4.52526 4.56392 0 10.2688 0Z" fill="#00005B"/>
<path d="M13.6924 39.4074V14.7071C13.6924 14.5185 13.6924 14.5185 13.8826 14.5185C14.2629 14.5185 14.6432 14.5185 15.2137 14.5185C15.7842 14.5185 16.3547 14.5185 17.1153 14.5185C17.6858 14.5185 18.4465 14.5185 19.2072 14.5185C19.9678 14.5185 20.7285 14.5185 21.4891 14.5185C23.3908 14.5185 25.1022 14.707 26.4334 15.2727C27.5743 15.6498 28.7154 16.404 29.6662 17.1582C30.4268 17.9124 30.9973 18.8552 31.3776 19.798C31.758 20.7407 31.9481 21.872 31.9481 23.0033C31.9481 25.0774 31.3776 26.7744 30.4268 28.0943C29.476 29.4141 28.1448 30.3569 26.6235 31.1111C24.9121 31.6767 23.2006 31.8653 21.1088 31.8653C20.5383 31.8653 20.158 31.8653 19.9678 31.8653C19.7776 31.8653 19.3973 31.8653 19.017 31.8653V39.5959C19.017 39.7845 18.8268 39.973 18.8268 39.973H14.0727C13.8825 39.5959 13.6924 39.5959 13.6924 39.4074ZM19.017 19.0437V27.1515C19.3973 27.1515 19.5875 27.1515 19.9678 27.1515H21.2989C22.2498 27.1515 23.2006 26.9629 24.1514 26.7744C24.9121 26.5858 25.6727 26.0202 26.053 25.4545C26.6235 24.8889 26.8137 24.1347 26.8137 23.0033C26.8137 22.2491 26.6235 21.4949 26.2432 20.9293C25.8629 20.3636 25.2924 19.798 24.5317 19.6094C23.5809 19.2323 22.6301 19.0437 21.6793 19.0437C21.1088 19.0437 20.5383 19.0437 19.9678 19.0437C19.5875 19.0437 19.2071 19.0437 19.017 19.0437Z" fill="#9999FF"/>
<path d="M35.3704 20.3636H39.554C39.7441 20.3636 39.9343 20.5522 40.1244 20.7407C40.1244 20.9293 40.3146 21.1178 40.3146 21.3064C40.3146 21.4949 40.5048 21.872 40.5048 22.0606C40.5048 22.2491 40.5048 22.6262 40.5048 23.0033C41.2654 22.2491 42.0261 21.4949 43.1671 20.9293C44.308 20.3636 45.6392 19.9865 46.7802 19.9865C46.9704 19.9865 47.1605 20.1751 47.1605 20.1751V24.8889C47.1605 25.0774 46.9704 25.0774 46.7802 25.0774C45.8294 25.0774 45.0687 25.0774 44.1179 25.266C43.3572 25.4545 42.7867 25.6431 42.0261 25.8316C41.6458 26.0202 41.0753 26.3973 40.8851 26.7744V39.0303C40.8851 39.2188 40.6949 39.4074 40.5048 39.4074H35.7507C35.5605 39.4074 35.3704 39.2188 35.3704 39.0303V25.6431C35.3704 25.0774 35.3704 24.5118 35.3704 23.7576C35.3704 23.1919 35.3704 22.4377 35.3704 21.872C35.3704 21.3064 35.3703 20.7407 35.1802 20.1751C35.1802 20.5522 35.1802 20.3636 35.3704 20.3636Z" fill="#9999FF"/>
</svg>
