<svg width="29" height="40" viewBox="0 0 29 40" fill="none" xmlns="http://www.w3.org/2000/svg">
<path fill-rule="evenodd" clip-rule="evenodd" d="M14.3629 0C22.1284 0 28.4689 6.16793 28.7184 13.9111L28.724 14.1462L28.7257 14.3629V37.0281C28.7257 37.638 28.5381 38.2331 28.1883 38.7326C27.3501 39.9296 25.7761 40.3311 24.4763 39.7111L24.3656 39.6554L24.2972 39.6193L24.1125 39.5064L22.4675 38.3548L22.46 38.3716L22.3939 38.4947L22.3219 38.6148L22.2441 38.7317C21.406 39.9286 19.832 40.3303 18.5321 39.7103L18.4214 39.6546L18.353 39.6185L18.1684 39.5055L16.5247 38.3553L16.5168 38.3713L16.4507 38.4944L16.3787 38.6145L16.3009 38.7314C15.4628 39.9284 13.8889 40.33 12.589 39.7101L12.4782 39.6544L12.4098 39.6183L12.2252 39.5053L1.26723 31.8329C0.613958 31.3755 0.174727 30.677 0.0420808 29.8971L0.021874 29.7586L0.0127623 29.6839L0 29.4738V14.3629C0 6.43047 6.43047 0 14.3629 0Z" fill="#00FFF6"/>
<path fill-rule="evenodd" clip-rule="evenodd" d="M14.3628 2.47638C20.8619 2.47638 26.1428 7.69225 26.2477 14.1663L26.2493 14.3629V37.0281C26.2493 37.1298 26.2181 37.229 26.1598 37.3122C26.0149 37.5191 25.7406 37.5814 25.5231 37.4663L25.47 37.4338L21.0845 34.3629C21.0012 34.3046 20.902 34.2733 20.8004 34.2733C20.5464 34.2733 20.337 34.4645 20.3084 34.7108L20.3051 34.7686L20.3051 37.0273C20.3051 37.1289 20.2738 37.2281 20.2155 37.3114C20.0707 37.5182 19.7964 37.5805 19.5789 37.4655L19.5258 37.433L15.1412 34.3629C15.0579 34.3046 14.9588 34.2733 14.8571 34.2733C14.6031 34.2733 14.3938 34.4645 14.3652 34.7108L14.3618 34.7686L14.3619 37.027C14.3619 37.1287 14.3306 37.2278 14.2723 37.3111C14.1275 37.5179 13.8532 37.5803 13.6356 37.4652L13.5825 37.4328L2.68752 29.8044C2.5717 29.7233 2.49686 29.5972 2.47996 29.4587L2.47632 29.3987V14.3629C2.47632 7.79815 7.79809 2.47638 14.3628 2.47638ZM14.3628 6.43855C10.0384 6.43855 6.52308 9.90243 6.43999 14.2069L6.43849 14.3629L6.43801 27.0779C6.43801 27.3741 6.57049 27.6533 6.7965 27.8406L6.86043 27.8893L9.62142 29.8225C9.70466 29.8808 9.80382 29.912 9.90543 29.912C10.1594 29.912 10.3688 29.7209 10.3974 29.4746L10.4008 29.4168L10.401 27.1576C10.401 27.056 10.4323 26.9568 10.4906 26.8736C10.6354 26.6668 10.9097 26.6045 11.1273 26.7195L11.1804 26.752L15.5647 29.8219C15.6479 29.8802 15.7471 29.9115 15.8487 29.9115C16.1027 29.9115 16.312 29.7204 16.3407 29.474L16.344 29.4163L16.3443 27.1576C16.3443 27.056 16.3755 26.9568 16.4338 26.8735C16.5787 26.6667 16.853 26.6044 17.0705 26.7195L17.1236 26.752L21.5073 29.8218C21.5906 29.8801 21.6898 29.9114 21.7914 29.9114C22.0454 29.9114 22.2547 29.7202 22.2834 29.4739L22.2867 29.4161L22.2872 14.3629C22.2872 10.0912 18.9073 6.609 14.6759 6.44462L14.5188 6.44005L14.3628 6.43855ZM10.4007 14.3629C11.4948 14.3629 12.3817 15.2498 12.3817 16.344C12.3817 17.4381 11.4948 18.3251 10.4007 18.3251C9.30653 18.3251 8.41957 17.4381 8.41957 16.344C8.41957 15.2498 9.30653 14.3629 10.4007 14.3629ZM18.325 14.3629C19.4191 14.3629 20.3061 15.2498 20.3061 16.344C20.3061 17.4381 19.4191 18.3251 18.325 18.3251C17.2309 18.3251 16.3439 17.4381 16.3439 16.344C16.3439 15.2498 17.2309 14.3629 18.325 14.3629Z" fill="#0053D8"/>
</svg>
