<svg width="40" height="40" viewBox="0 0 40 40" fill="none" xmlns="http://www.w3.org/2000/svg">
<path fill-rule="evenodd" clip-rule="evenodd" d="M20 0C23.4514 0 26.7808 0.877687 29.7547 2.53735L30.051 2.70591L30.0957 2.73297L32.7343 0.885532C33.1956 0.562477 33.7316 0.366148 34.2889 0.313386L34.4413 0.302568L34.5946 0.298945C36.2032 0.298945 37.5558 1.4746 37.7993 3.04273L37.8162 3.16733L37.8252 3.24522L37.8378 3.46418L37.8384 10.9735L38.0224 11.3459L38.2502 11.8252L38.3849 12.1225L38.533 12.4695L38.5491 12.5091C39.5033 14.8699 40 17.4027 40 20C40 31.0457 31.0457 40 20 40C8.9543 40 0 31.0457 0 20C0 17.5228 0.451838 15.1042 1.33303 12.8095L1.46183 12.4826L1.57305 12.2186L1.69745 11.9392L1.83603 11.641L1.98949 11.3217L2.16108 10.9735L2.16216 3.54219C2.16216 1.83241 3.48521 0.431651 5.16336 0.307841L5.28382 0.301182L5.40541 0.298945C6.01981 0.298945 6.62049 0.473444 7.138 0.800512L7.2656 0.885445L9.90378 2.73297L10.056 2.64391C13.0583 0.920545 16.4653 0 20 0Z" fill="#780080"/>
<path fill-rule="evenodd" clip-rule="evenodd" d="M20.0002 2.7027C23.1586 2.7027 26.1192 3.5492 28.6677 5.0277L28.849 5.13571C28.8813 5.15539 28.9146 5.17592 28.949 5.19729L29.1678 5.33561L29.5429 5.58097C29.9134 5.82729 30.397 5.82146 30.7615 5.56627L34.2847 3.09941C34.3756 3.03578 34.4838 3.00164 34.5948 3.00164C34.872 3.00164 35.1004 3.21031 35.1317 3.47915L35.1353 3.54218L35.136 11.3597C35.136 11.5304 35.1764 11.6987 35.254 11.8507L35.4287 12.1967L35.5861 12.5157L35.7263 12.8077C35.7483 12.8541 35.7695 12.8994 35.79 12.9436L35.9043 13.1951L36.0014 13.4197C36.0162 13.4549 36.0302 13.489 36.0435 13.5219C36.8522 15.5227 37.2975 17.7094 37.2975 20C37.2975 29.553 29.5532 37.2973 20.0002 37.2973C10.4471 37.2973 2.70288 29.553 2.70288 20C2.70288 17.7112 3.14741 15.5263 3.95485 13.5268L4.04353 13.3151L4.1495 13.0763L4.27278 12.8105L4.41335 12.5176L4.57122 12.1977L4.74638 11.8507C4.82392 11.6987 4.86434 11.5304 4.86436 11.3597L4.86504 3.54218C4.86504 3.24365 5.10705 3.00164 5.40558 3.00164C5.51652 3.00164 5.62477 3.03578 5.71564 3.09941L9.2396 5.56677C9.60379 5.82174 10.0869 5.82779 10.4574 5.58199L10.8629 5.31749L11.0989 5.16897L11.3076 5.04269C11.3401 5.0235 11.3714 5.00523 11.4016 4.98789C13.9345 3.53401 16.8702 2.7027 20.0002 2.7027ZM20.0002 7.02702C12.8354 7.02702 7.0272 12.8352 7.0272 20C7.0272 27.1648 12.8354 32.973 20.0002 32.973C27.165 32.973 32.9732 27.1648 32.9732 20C32.9732 12.8352 27.165 7.02702 20.0002 7.02702ZM23.7143 24.3243C24.0128 24.3243 24.2548 24.5663 24.2548 24.8649C24.2548 24.8915 24.2529 24.9181 24.249 24.9444C24.1845 25.3774 24.1054 25.7101 24.0116 25.9425C23.3709 27.5291 21.8163 28.6486 20.0002 28.6486C18.2055 28.6486 16.6662 27.5554 16.0119 25.9986C15.9201 25.7801 15.8363 25.4301 15.7607 24.9487C15.7144 24.6538 15.916 24.3772 16.2109 24.3309C16.2386 24.3265 16.2667 24.3243 16.2947 24.3243H23.7143ZM12.4247 14.6952C12.4471 14.7066 12.4685 14.7195 12.4891 14.7339L17.3529 18.1396C17.5974 18.3108 17.6568 18.6479 17.4856 18.8924L17.4618 18.9238L17.4358 18.9535C17.3848 19.0076 17.3384 19.0533 17.2967 19.0907C16.0906 20.1729 14.2567 20.3243 12.8722 19.3549C11.5321 18.4165 11.0348 16.7231 11.5526 15.252L11.5718 15.2011L11.6249 15.0793L11.6976 14.931C11.8333 14.6651 12.1588 14.5595 12.4247 14.6952ZM27.5756 14.6952C27.8415 14.5595 28.1671 14.6651 28.3028 14.931L28.3755 15.0793L28.4286 15.2011C28.4358 15.2191 28.4422 15.2361 28.4478 15.252C28.9656 16.7231 28.4683 18.4165 27.1281 19.3549C25.7437 20.3243 23.9098 20.1729 22.7037 19.0907C22.6759 19.0658 22.646 19.0371 22.614 19.0048L22.5645 18.9535C22.5465 18.9344 22.5298 18.9139 22.5147 18.8924C22.3567 18.6667 22.3952 18.3621 22.5944 18.1819L22.6475 18.1396L27.5113 14.7339C27.5318 14.7195 27.5533 14.7066 27.5756 14.6952Z" fill="#FDF69B"/>
</svg>
