<svg width="41" height="40" viewBox="0 0 41 40" fill="none" xmlns="http://www.w3.org/2000/svg">
<path d="M18.7975 0.00012207C19.3597 0.00012207 19.9094 0.159674 20.383 0.458765L20.4998 0.536433L33.3614 9.53477C34.1202 10.0656 34.5854 10.9183 34.6244 11.8383L34.6271 11.9641L34.6268 24.0742L39.2977 27.3417C40.0204 27.8473 40.4767 28.6448 40.5523 29.5143L40.5607 29.6453L40.5634 29.7711V37.0344C40.5634 38.6351 39.2943 39.9396 37.7066 39.9981L37.5953 40.0001H2.96805C1.3661 40.0001 0.0605622 38.732 0.0020472 37.1456L0 37.0344V29.8774C0 28.9519 0.432176 28.0821 1.16391 27.5225L1.26553 27.4481L5.93563 24.1805L5.93606 19.8062C5.93613 18.9249 6.32813 18.094 6.9975 17.5335L7.09997 17.4515L7.20159 17.3772L15.8286 11.3404L15.8294 2.96575C15.8294 1.40229 17.0402 0.121464 18.576 0.00825616L18.6862 0.00216754L18.7975 0.00012207Z" fill="#E88AFF"/>
<path d="M18.8026 2.53534C18.9037 2.53534 19.0024 2.56644 19.0853 2.6244L31.9022 11.59C32.034 11.6822 32.1124 11.8327 32.1124 11.9934L32.1126 24.8283C32.1126 25.1497 32.2695 25.4508 32.533 25.6351L37.8179 29.3321C37.9497 29.4243 38.0281 29.5749 38.0281 29.7356V36.9724C38.0281 37.2444 37.8074 37.4649 37.5352 37.4649H34.5774C34.3052 37.4649 34.0845 37.2444 34.0844 36.9724L34.084 32.0418C34.084 31.7205 33.927 31.4194 33.6636 31.2351L28.3791 27.5386C28.2474 27.4464 28.1689 27.2958 28.1689 27.1352L28.1685 14.3005C28.1685 13.9791 28.0115 13.678 27.7481 13.4937L23.0292 10.1925C22.8061 10.0365 22.4988 10.0907 22.3426 10.3135C22.2846 10.3963 22.2535 10.4949 22.2535 10.5959L22.2534 14.448C22.2534 14.6087 22.175 14.7593 22.0432 14.8514L12.8147 21.307C12.5512 21.4913 12.3943 21.7925 12.3943 22.1138L12.3942 27.2414C12.3941 27.4021 12.3157 27.5527 12.184 27.6448L6.89922 31.3419C6.63573 31.5262 6.47882 31.8274 6.47882 32.1487L6.47883 36.9724C6.47884 37.225 6.28854 37.4332 6.04337 37.4616L5.98588 37.4649H3.02811C2.75586 37.4649 2.53516 37.2444 2.53516 36.9724V29.8415C2.53516 29.6808 2.61361 29.5302 2.74535 29.4381L8.02981 25.741C8.29327 25.5567 8.45017 25.2556 8.45019 24.9343L8.45061 19.8071C8.45062 19.6465 8.52907 19.4959 8.6608 19.4038L17.8889 12.9476C18.1524 12.7633 18.3093 12.4622 18.3093 12.1409L18.3096 3.02781C18.3096 2.75582 18.5303 2.53534 18.8026 2.53534ZM20.2816 25.6452C23.4984 25.6452 26.1155 28.2103 26.1953 31.4049L26.1971 31.5551V36.9724C26.1971 37.2444 25.9764 37.4649 25.7042 37.4649H22.7464C22.4742 37.4649 22.2535 37.2444 22.2535 36.9724V31.5551C22.2535 30.5001 21.4234 29.6388 20.3801 29.5875L20.2816 29.5851C19.2256 29.5851 18.3635 30.4144 18.3122 31.4567L18.3098 31.5551L18.3098 36.9724C18.3098 37.2444 18.0891 37.4649 17.8169 37.4649H14.8591C14.5869 37.4649 14.3662 37.2444 14.3662 36.9724V31.5551C14.3662 28.3414 16.9338 25.7268 20.1313 25.6471L20.2816 25.6452Z" fill="#001E68"/>
</svg>
