<svg width="32" height="40" viewBox="0 0 32 40" fill="none" xmlns="http://www.w3.org/2000/svg">
<path d="M15.5714 0C20.6127 0 24.6995 4.11414 24.6995 9.1892C24.6995 11.3331 23.9634 13.3554 22.6824 14.9554L22.5345 15.1351H27.9212C29.6197 15.1351 31.0111 16.4582 31.134 18.1363L31.1406 18.2568L31.1429 18.3784V21.6216C31.1429 23.372 29.7654 24.7984 28.0421 24.8626L27.9213 24.8649L26.2046 24.8654L26.2209 24.9106C26.5725 25.9259 26.781 26.9951 26.8339 28.0913L26.8444 28.3909L26.8473 28.6486C26.8473 34.9177 21.7989 40 15.5714 40C9.34394 40 4.29557 34.9177 4.29557 28.6486C4.29557 27.4633 4.4772 26.3033 4.82794 25.1984L4.91914 24.9234L4.93991 24.8654L3.22123 24.8649C1.52307 24.8646 0.131806 23.5417 0.00883551 21.8637L0.00222185 21.7432L0 21.6216V18.3784C0 16.6279 1.37757 15.2013 3.10089 15.1374L3.22169 15.1351H8.61154L8.5052 15.0066C7.33106 13.5609 6.60514 11.766 6.46686 9.83054L6.45309 9.59763L6.4456 9.38771L6.44334 9.1892C6.44334 4.11414 10.5301 0 15.5714 0Z" fill="#0053D8"/>
<path d="M15.5715 2.57141C19.1614 2.57141 22.0715 5.47355 22.0715 9.05355C22.0715 11.2156 21.0101 13.1305 19.3785 14.3082L18.9303 14.6374L18.1669 15.2106C17.8968 15.4149 17.7382 15.7334 17.7382 16.0715V16.6161C17.7382 17.2127 18.2232 17.6964 18.8215 17.6964H28.0299C28.329 17.6964 28.5715 17.9383 28.5715 18.2366V21.4777C28.5715 21.776 28.329 22.0178 28.0299 22.0179L23.3456 22.0182C22.8438 22.0182 22.437 22.4238 22.4371 22.9243C22.4371 23.0827 22.4787 23.2377 22.557 23.3742L22.6084 23.4538C23.634 24.8737 24.2382 26.6165 24.2382 28.5C24.2382 33.2734 20.358 37.1428 15.5715 37.1428C10.7851 37.1428 6.90488 33.2734 6.90488 28.5C6.90488 26.6941 7.46028 25.0175 8.41002 23.631L8.53613 23.4518C8.82908 23.0464 8.73708 22.481 8.33065 22.1889C8.17622 22.0779 7.99065 22.0182 7.80028 22.0182L3.11319 22.0179C2.81406 22.0178 2.57153 21.776 2.57153 21.4777V18.2366C2.57153 17.9383 2.81404 17.6964 3.11319 17.6964H12.3215C12.9198 17.6964 13.4049 17.2127 13.4049 16.6161V16.07C13.4049 15.7326 13.2468 15.4146 12.9776 15.2103L12.0339 14.5033L11.7898 14.3263C10.1857 13.1801 9.12625 11.3238 9.07359 9.2183L9.07153 9.05355C9.07153 5.47355 11.9817 2.57141 15.5715 2.57141ZM15.5715 24.1786C13.1783 24.1786 11.2382 26.1133 11.2382 28.5C11.2382 30.8866 13.1783 32.8214 15.5715 32.8214C17.9648 32.8214 19.9049 30.8866 19.9049 28.5C19.9049 26.1133 17.9648 24.1786 15.5715 24.1786Z" fill="#00FFF6"/>
</svg>
