<svg width="50" height="50" viewBox="0 0 50 50" fill="none" xmlns="http://www.w3.org/2000/svg">
<path d="M48.2305 29.1739C48.2148 29.2617 48.2035 29.3513 48.1869 29.4391L48.1008 28.9339C48.1478 29.013 48.187 29.0948 48.2305 29.1739C48.4887 27.7661 48.6235 26.3243 48.6235 24.8835C48.6235 21.6887 48 18.5896 46.7669 15.6713C45.5774 12.853 43.8756 10.3217 41.7061 8.1487C39.54 5.97565 37.013 4.26957 34.2026 3.07739C31.293 1.84348 28.2009 1.21739 25.0139 1.21739C23.5122 1.21739 22.007 1.35912 20.5435 1.64086C20.54 1.64173 20.5357 1.64175 20.5322 1.64262C20.6148 1.68609 20.6974 1.72523 20.7783 1.77044L20.2817 1.69219C20.3652 1.67653 20.4487 1.65914 20.5322 1.64262C18.5235 0.571311 16.2643 0 13.9774 0C10.2435 0 6.73392 1.45739 4.09392 4.10435C1.45479 6.75044 0 10.2696 0 14.0122C0 16.3939 0.611281 18.7356 1.75824 20.8043C1.77389 20.7191 1.78433 20.6322 1.80086 20.547L1.88609 21.0426C1.84174 20.9652 1.80258 20.8843 1.75824 20.8043C1.52606 22.1452 1.40349 23.5156 1.40349 24.8835C1.40349 28.0791 2.02698 31.1783 3.26002 34.0965C4.44785 36.9156 6.15044 39.4452 8.31739 41.6191C10.487 43.7922 13.0105 45.5 15.8235 46.6896C18.7339 47.9261 21.8269 48.5522 25.0139 48.5522C26.4009 48.5522 27.7913 48.4252 29.1487 48.1843C29.0696 48.1391 28.9887 48.0991 28.9078 48.0522L29.4122 48.1409C29.3252 48.1574 29.2374 48.1678 29.1487 48.1843C31.24 49.3696 33.6078 50 36.0252 50C39.7574 50 43.2661 48.5452 45.9061 45.8974C48.5469 43.2522 50 39.733 50 35.9904C50 33.6009 49.3852 31.2513 48.2305 29.1739ZM25.1078 39.3783C16.72 39.3783 12.9678 35.2443 12.9678 32.1461C12.9678 30.5574 14.1383 29.4435 15.7513 29.4435C19.34 29.4435 18.4105 34.6104 25.1078 34.6104C28.5365 34.6104 30.4296 32.7443 30.4296 30.8348C30.4296 29.6861 29.8643 28.413 27.6069 27.8548L20.1461 25.9878C14.1383 24.4774 13.0478 21.2217 13.0478 18.1609C13.0478 11.8061 19.0165 9.42001 24.6217 9.42001C29.7852 9.42001 35.8722 12.2809 35.8722 16.093C35.8722 17.7269 34.4609 18.6765 32.8487 18.6765C29.7852 18.6765 30.3496 14.4261 24.1783 14.4261C21.1165 14.4261 19.42 15.8157 19.42 17.8052C19.42 19.7904 21.8383 20.4243 23.9383 20.9035L29.4609 22.133C35.5096 23.4835 37.0435 27.0235 37.0435 30.3582C37.0435 35.5226 33.0887 39.3783 25.1078 39.3783ZM28.9078 48.0522C28.9887 48.0991 29.0696 48.1391 29.1487 48.1843C29.2374 48.1678 29.3252 48.1574 29.4122 48.1409L28.9078 48.0522ZM48.1869 29.4391C48.2035 29.3513 48.2148 29.2617 48.2305 29.1739C48.187 29.0948 48.1478 29.013 48.1008 28.9339L48.1869 29.4391ZM1.80086 20.547C1.78433 20.6322 1.77389 20.7191 1.75824 20.8043C1.80258 20.8843 1.84174 20.9652 1.88609 21.0426L1.80086 20.547ZM20.7783 1.77044C20.6974 1.72523 20.6148 1.68609 20.5322 1.64262C20.4487 1.65914 20.3652 1.67653 20.2817 1.69219L20.7783 1.77044Z" fill="#0078D7"/>
</svg>
