<svg width="50" height="50" viewBox="0 0 50 50" fill="none" xmlns="http://www.w3.org/2000/svg">
<path fill-rule="evenodd" clip-rule="evenodd" d="M18.487 0C15.6957 0.00208697 13.4435 2.2594 13.4435 5.04098C13.4435 7.82255 15.6957 10.08 18.487 10.082H23.5306V5.04307C23.5306 2.26149 21.2697 0.00417393 18.487 0ZM18.487 13.4454H5.04354C2.25223 13.4474 0 15.7048 0 18.4863C0 21.2679 2.25223 23.5253 5.04354 23.5294H18.487C21.2697 23.5273 23.5306 21.27 23.5306 18.4884C23.5306 15.7048 21.2697 13.4474 18.487 13.4454Z" fill="#36C5F0"/>
<path fill-rule="evenodd" clip-rule="evenodd" d="M49.9993 18.4863C49.9993 15.7048 47.7471 13.4474 44.9558 13.4454C42.1732 13.4474 39.9124 15.7048 39.9124 18.4863V23.5294H44.9558C47.7471 23.5273 49.9993 21.27 49.9993 18.4863ZM36.5558 18.4863V5.04098C36.5558 2.26149 34.3036 0.00417393 31.5123 0C28.7297 0.00208697 26.4688 2.2594 26.4688 5.04098V18.4863C26.4688 21.2679 28.721 23.5253 31.5123 23.5294C34.2949 23.5273 36.5558 21.27 36.5558 18.4863Z" fill="#2EB67D"/>
<path fill-rule="evenodd" clip-rule="evenodd" d="M31.5123 50C34.3036 49.998 36.5558 47.7409 36.5558 44.9595C36.5558 42.1782 34.3036 39.921 31.5123 39.9189H26.4688V44.9595C26.4688 47.7388 28.7297 49.9959 31.5123 50ZM31.5123 36.5538H44.9558C47.7471 36.5518 49.9993 34.2946 49.9993 31.5132C49.9993 28.7319 47.7471 26.4748 44.9558 26.4707H31.5123C28.7297 26.4727 26.4688 28.7298 26.4688 31.5112C26.4688 34.2946 28.7297 36.5518 31.5123 36.5538Z" fill="#ECB22E"/>
<path fill-rule="evenodd" clip-rule="evenodd" d="M0 31.5117C0 34.2932 2.25223 36.5506 5.04354 36.5526C7.82616 36.5506 10.087 34.2932 10.087 31.5117V26.4707H5.04354C2.25223 26.4727 0 28.7301 0 31.5117ZM13.4435 31.5117V44.957C13.4435 47.7386 15.6957 49.9959 18.487 50C21.2697 49.998 23.5306 47.7406 23.5306 44.959V31.5157C23.5306 28.7342 21.2784 26.4769 18.487 26.4727C15.6957 26.4727 13.4435 28.7301 13.4435 31.5117Z" fill="#E01E5A"/>
</svg>
