<svg width="50" height="50" viewBox="0 0 50 50" fill="none" xmlns="http://www.w3.org/2000/svg">
<path d="M39.7884 22.163C31.7298 17.3773 18.4373 16.9372 10.7444 19.2721C9.50897 19.647 8.20253 18.9493 7.82832 17.7143C7.45387 16.4781 8.15053 15.1726 9.38687 14.797C18.2178 12.1165 32.898 12.6342 42.1752 18.1412C43.2863 18.801 43.6508 20.236 42.9923 21.3453C42.3331 22.4564 40.8969 22.8227 39.7884 22.163ZM39.5245 29.2514C38.9591 30.1688 37.7596 30.4566 36.8434 29.8932C30.1249 25.7635 19.8803 24.5671 11.9319 26.9799C10.9011 27.2914 9.8124 26.7101 9.4993 25.6814C9.18873 24.6506 9.77019 23.5639 10.7991 23.2504C19.879 20.4951 31.1668 21.8297 38.8833 26.5717C39.7995 27.136 40.0878 28.3361 39.5245 29.2514ZM36.4654 36.0589C36.0162 36.7956 35.057 37.0264 34.3229 36.5774C28.4521 32.9894 21.0629 32.1791 12.3606 34.1667C11.5221 34.359 10.6863 33.8335 10.4951 32.995C10.303 32.1567 10.8265 31.3208 11.6669 31.1295C21.19 28.9524 29.3589 29.8894 35.9484 33.916C36.6831 34.3647 36.9144 35.3244 36.4654 36.0589ZM25.0001 -2.04404e-05C11.1931 -2.04404e-05 0 11.1929 0 24.9996C0 38.8081 11.1931 50 25.0001 50C38.8074 50 50 38.8081 50 24.9996C50 11.1929 38.8074 -2.04404e-05 25.0001 -2.04404e-05Z" fill="#1ED760"/>
</svg>
