<svg width="56" height="50" viewBox="0 0 56 50" fill="none" xmlns="http://www.w3.org/2000/svg">
<path d="M38.7496 18.7502H53.0998C54.4556 18.7502 55.5545 19.8136 55.5545 21.1252V33.7713C55.5545 38.5921 51.5153 42.5001 46.5326 42.5001H46.4901C41.5073 42.5007 37.4674 38.5935 37.4668 33.7727C37.4668 33.7732 37.4668 33.7721 37.4668 33.7727V19.9916C37.4668 19.306 38.0412 18.7502 38.7496 18.7502Z" fill="#5059C9"/>
<path d="M48.4496 16.2509C51.6604 16.2509 54.2635 13.7325 54.2635 10.6259C54.2635 7.51935 51.6604 5.00098 48.4496 5.00098C45.2388 5.00098 42.6357 7.51935 42.6357 10.6259C42.6357 13.7325 45.2388 16.2509 48.4496 16.2509Z" fill="#5059C9"/>
<path d="M30.3607 16.2499C34.9987 16.2499 38.7587 12.6123 38.7587 8.12495C38.7587 3.63767 34.9987 0 30.3607 0C25.7226 0 21.9629 3.63767 21.9629 8.12495C21.9629 12.6123 25.7226 16.2499 30.3607 16.2499Z" fill="#7B83EB"/>
<path d="M41.5585 18.7502H17.8713C16.5316 18.7823 15.472 19.858 15.503 21.1541V35.5777C15.316 43.3554 21.6761 49.8098 29.715 50.0001C37.7535 49.8098 44.1138 43.3554 43.9265 35.5777V21.1541C43.9577 19.858 42.8979 18.7823 41.5585 18.7502Z" fill="#7B83EB"/>
<path opacity="0.1" d="M31.0074 18.7498V38.9621C31.001 39.8891 30.4205 40.7219 29.5347 41.0746C29.2524 41.1902 28.9494 41.2496 28.643 41.2496H16.6406C16.4726 40.8371 16.3176 40.4246 16.1884 39.9996C15.7361 38.5652 15.5053 37.0744 15.5036 35.5747V21.1497C15.4725 19.8559 16.5305 18.7818 17.8679 18.7498H31.0074Z" fill="black"/>
<path opacity="0.2" d="M29.7155 18.7498V40.2121C29.7155 40.5085 29.6538 40.8019 29.5347 41.0746C29.1699 41.9318 28.3091 42.4935 27.3511 42.4996H17.2478C17.0282 42.0871 16.8215 41.6746 16.6406 41.2496C16.4597 40.8246 16.3176 40.4246 16.1884 39.9996C15.7361 38.5655 15.5053 37.0744 15.5036 35.5747V21.1497C15.4725 19.8559 16.5305 18.7818 17.8679 18.7498H29.7155Z" fill="black"/>
<path opacity="0.2" d="M29.7155 18.7498V37.7121C29.7055 38.9716 28.6527 39.9902 27.3511 39.9996H16.1884C15.7361 38.5655 15.5053 37.0744 15.5036 35.5747V21.1497C15.4725 19.8559 16.5305 18.7818 17.8679 18.7498H29.7155Z" fill="black"/>
<path opacity="0.2" d="M28.4235 18.7498V37.7121C28.4135 38.9716 27.3608 39.9902 26.0591 39.9996H16.1884C15.7361 38.5655 15.5053 37.0744 15.5036 35.5747V21.1497C15.4725 19.8559 16.5305 18.7818 17.8679 18.7498H28.4235Z" fill="black"/>
<path opacity="0.1" d="M31.0076 12.2877V16.2252C30.7879 16.2377 30.5812 16.2502 30.3617 16.2502C30.142 16.2502 29.9354 16.2377 29.7156 16.2252C29.2795 16.1972 28.847 16.1302 28.4237 16.0252C25.8073 15.4257 23.6459 13.6506 22.6098 11.2502C22.4315 10.8471 22.2929 10.4286 22.1963 10.0002H28.6434C29.947 10.005 31.0026 11.0263 31.0076 12.2877Z" fill="black"/>
<path opacity="0.2" d="M29.7154 13.5367V16.2242C29.2793 16.1962 28.8468 16.1293 28.4235 16.0242C25.8071 15.4248 23.6458 13.6496 22.6094 11.2493H27.351C28.6549 11.254 29.7104 12.2754 29.7154 13.5367Z" fill="black"/>
<path opacity="0.2" d="M29.7154 13.5367V16.2242C29.2793 16.1962 28.8468 16.1293 28.4235 16.0242C25.8071 15.4248 23.6458 13.6496 22.6094 11.2493H27.351C28.6549 11.254 29.7104 12.2754 29.7154 13.5367Z" fill="black"/>
<path opacity="0.2" d="M28.4235 13.5368V16.0242C25.8071 15.4248 23.6458 13.6496 22.6094 11.2493H26.0591C27.363 11.2541 28.4185 12.2754 28.4235 13.5368Z" fill="black"/>
<path d="M2.36818 11.2507H26.0554C27.3635 11.2507 28.4234 12.2766 28.4234 13.5419V36.4593C28.4234 37.7246 27.3632 38.7504 26.0554 38.7504H2.36818C1.06027 38.7504 0 37.7246 0 36.4593V13.5419C0 12.2766 1.0603 11.2507 2.36818 11.2507Z" fill="url(#paint0_linear_2957_42671)"/>
<path d="M20.4436 19.9721H15.7084V32.447H12.6917V19.9721H7.97852V17.5522H20.4436V19.9721Z" fill="white"/>
<defs>
<linearGradient id="paint0_linear_2957_42671" x1="4.93775" y1="9.46041" x2="22.5818" y2="41.046" gradientUnits="userSpaceOnUse">
<stop stop-color="#5A62C3"/>
<stop offset="0.5" stop-color="#4D55BD"/>
<stop offset="1" stop-color="#3940AB"/>
</linearGradient>
</defs>
</svg>
