<svg width="71" height="23" viewBox="0 0 71 23" fill="none" xmlns="http://www.w3.org/2000/svg">
<path d="M19.8915 10.4835V0H24.568V21.998C24.568 22.1395 24.4825 22.2674 24.3506 22.3235C24.2187 22.3796 24.0656 22.3531 23.961 22.2562L0 0H6.67876L18.5764 11.0423C18.8027 11.2531 19.1347 11.311 19.4207 11.1894C19.7068 11.0679 19.8918 10.7903 19.8915 10.4835Z" fill="#00FFF6"/>
<path d="M48.7013 0.0659442L70.4592 15.3635H62.4076L54.0383 9.47976C53.8011 9.31235 53.4889 9.29003 53.2298 9.42192C52.9706 9.5538 52.8079 9.81775 52.8084 10.1056V21.9978C52.8086 22.0716 52.7852 22.1436 52.7416 22.2034C52.7004 22.2607 52.6432 22.3042 52.5776 22.329C52.5555 22.3374 52.5324 22.3437 52.5087 22.3476C52.4146 22.3633 52.3182 22.3413 52.2407 22.2867L34.0238 9.47976C33.7865 9.31235 33.4744 9.29003 33.2152 9.42192C32.956 9.5538 32.7933 9.81775 32.7939 10.1056L32.7871 17.7402H28.1219V0.354854C28.1224 0.2227 28.1974 0.101795 28.3162 0.0410905C28.4352 -0.0196011 28.5784 -0.0100266 28.6879 0.0659442L46.9042 12.8729C47.1414 13.0403 47.4535 13.0626 47.7127 12.9307C47.9719 12.7988 48.1346 12.5349 48.1342 12.247V0.354854C48.1342 0.15887 48.2951 0 48.4936 0C48.5059 0 48.518 0.000625001 48.5301 0.00184841C48.5441 0.00325798 48.5579 0.00547873 48.5714 0.00847076C48.6012 0.0150266 48.6299 0.0253192 48.657 0.039149C48.6657 0.0435506 48.6742 0.0483112 48.6824 0.0534309C48.6889 0.0573937 48.6951 0.0615692 48.7013 0.0659442Z" fill="#00FFF6"/>
</svg>
