<svg width="50" height="50" viewBox="0 0 50 50" fill="none" xmlns="http://www.w3.org/2000/svg">
<path d="M39.0469 0H10.9469C4.89738 0 0 4.89817 0 10.9481V39.0579C0 45.1018 4.89738 50 10.9469 50H39.0531C45.0965 50 50 45.1018 50 39.0519V10.9481C49.9939 4.89817 45.0965 0 39.0469 0Z" fill="#0048FF"/>
<path fill-rule="evenodd" clip-rule="evenodd" d="M21.227 21.8355C20.354 20.9626 19.2087 20.5261 18.0687 20.5261H18.0626C16.9174 20.5261 15.7774 20.9626 14.9053 21.8355C13.1592 23.5814 13.1592 26.4124 14.9053 28.1583C16.6505 29.9041 19.4809 29.9041 21.227 28.1583C22.9722 26.4185 22.9722 23.5814 21.227 21.8355ZM19.9661 26.8973C18.9174 27.9461 17.22 27.9461 16.1714 26.8973C15.1235 25.8486 15.1235 24.1513 16.1714 23.1025C17.22 22.0538 18.9174 22.0538 19.9661 23.1025C21.0088 24.1513 21.0088 25.8486 19.9661 26.8973Z" fill="white"/>
<path fill-rule="evenodd" clip-rule="evenodd" d="M30.6169 21.8355C29.7438 20.9626 28.6047 20.5261 27.4525 20.5261C26.3073 20.5261 25.1673 20.9626 24.2943 21.8355C22.549 23.5814 22.549 26.4124 24.2943 28.1583C26.0404 29.9041 28.8708 29.9041 30.6169 28.1583C32.3621 26.4124 32.3682 23.5814 30.6169 21.8355ZM29.356 26.8973C28.3073 27.9461 26.6099 27.9461 25.5612 26.8973C24.5126 25.8486 24.5126 24.1513 25.5612 23.1025C26.6099 22.0538 28.3073 22.0538 29.356 23.1025C30.4047 24.1513 30.4047 25.8486 29.356 26.8973Z" fill="white"/>
<path fill-rule="evenodd" clip-rule="evenodd" d="M6.88577 29.4496L7.33446 29.4739H14.044L14.0197 29.0253C13.9597 28.2918 13.4379 27.7522 12.6988 27.7037L12.2501 27.6795H8.22488L13.5892 22.3146L13.5649 21.866C13.5292 21.1264 12.9892 20.5868 12.244 20.5444L11.7953 20.5201H5.08577L5.11013 20.9687C5.17013 21.6962 5.69794 22.2479 6.43098 22.2903L6.87967 22.3146H10.9101L5.54576 27.6795L5.57012 28.128C5.61273 28.8676 6.14577 29.4011 6.88577 29.4496Z" fill="white"/>
<path fill-rule="evenodd" clip-rule="evenodd" d="M37.5014 23.2056C37.6527 23.4723 37.7014 23.7693 37.7196 24.1027L37.744 24.5513V27.6793L37.7684 28.1279C37.811 28.8615 38.3501 29.401 39.0892 29.4495L39.5379 29.4738V24.5513L39.5623 24.1027C39.5805 23.7693 39.6292 23.4662 39.7805 23.1995C40.0892 22.666 40.6657 22.3084 41.3257 22.3084C41.9866 22.3084 42.5683 22.666 42.8779 23.1995C43.0292 23.4602 43.0779 23.7693 43.0961 24.0966L43.1205 24.5453V27.6733L43.1449 28.1219C43.1927 28.8554 43.7266 29.401 44.4657 29.4434L44.9144 29.4677V24.1027C44.9144 22.1265 43.3144 20.5261 41.3379 20.5261C40.2718 20.5261 39.3135 20.9929 38.6527 21.7386C37.9988 20.9929 37.0405 20.5261 35.9674 20.5261C35.2283 20.5261 34.5371 20.7504 33.9614 21.1384C33.6162 20.7504 32.8344 20.5261 32.3857 20.5261V29.4677L32.8344 29.4434C33.5796 29.3949 34.1249 28.8675 34.1553 28.1219L34.1796 27.6733V24.5513L34.204 24.1027C34.2223 23.7693 34.2709 23.4662 34.4222 23.2056C34.7309 22.6721 35.3074 22.3145 35.9674 22.3145C36.6161 22.3145 37.1927 22.6781 37.5014 23.2056Z" fill="white"/>
</svg>
