<svg width="625" height="390" fill="none" xmlns="http://www.w3.org/2000/svg"><path d="M23.533 38.553c-1.137-14.626 6.27-20.194 13.998-20.194 7.729 0 13.992 6.725 13.992 15.009v5.734m-8.7 16.059l-5.172 9.368h-1.03l-5.173-9.368" stroke="#FFFBF5" stroke-width="2.763" stroke-miterlimit="10"/><path d="M51.523 35.088c0 .575-.04 6.256-.107 6.812a14.118 14.118 0 01-27.889 0c-.067-.556-.107-6.237-.107-6.812" stroke="#FFFBF5" stroke-width="2.763" stroke-miterlimit="10"/><path d="M51.523 36.426c-11.027-.274-17.263-8.699-17.263-8.699h-1.92s-1.44 5.166-9.589 8.7m33.844 35.69l2.509 23.42-.85 2.843-5.688.609-.468-4.363 2.101-1.853-6.142-21.8" stroke="#FFFBF5" stroke-width="2.763" stroke-miterlimit="10"/><path d="M41.486 43.786a4.015 4.015 0 01-8.029 0" stroke="#FFFBF5" stroke-width="2.763"/><path d="M20.541 23.512a5.6 5.6 0 014.63-10.198 5.354 5.354 0 012.597 2.41M54.6 24.081a5.6 5.6 0 00-4.63-10.197 5.414 5.414 0 00-2.597 2.409" stroke="#FFFBF5" stroke-width="2.763" stroke-miterlimit="10"/><path d="M42.489 49.808a1.004 1.004 0 100-2.007 1.004 1.004 0 000 2.007z" fill="#FFFBF5"/><path d="M19.478 41.96v-9.91a18.087 18.087 0 0136.173-.253V41.96m1.659-10.098V41.96M17.832 31.862V41.96" stroke="#1AEBFF" stroke-width="2.763" stroke-miterlimit="10"/><path d="M26.765 145.158h8.698m5.352 0h8.03M1.144 66.536h8.578M0 59.096h12.01M0 57.383h12.01M1.713 62.528h8.585m-8.585 0h8.585m-8.151-3.573v13.162m7.435-13.162v12.586m42.08 14.461l6.297 1.144m-33.201 5.486l23.42-2.676" stroke="#FFFBF5" stroke-width="2.763"/><path d="M49.85 144.823l-1.004-.14v.1l1.004.04zm3.345 15.39v1.004H54.2v-1.004h-1.004zm-15.39 0h-1.003v1.004h1.004v-1.004zm3.614-6.136v1.004h1.07l-.066-1.064-1.004.06zm-3.493-53.416l1.004-.067-.06-.936h-.944v1.003zm-1.733 0v-1.003h-.977v.977l.977.026zm-1.15 59.552v1.004h1.003v-1.004h-1.004zm-15.156 0l-.997-.053-.06 1.057h1.057v-1.004zm.147-2.71l-.97-.254v.207l.97.047zm7.36-3.426v1.004h1.004v-1.004h-1.004zm1.158-77.31h1.003v-.415l-.287-.288-.716.703zm-2.898-6.885l.997-.12-2.007.053 1.01.067zm-1.15 17.337l.669.756.307-.274v-.415l-.977-.067zm-4.015 3.6l-.743.669.67.73.735-.67-.662-.73zM9.509 78.935l.736-.67-.302-.32h-.435v.99zm-5.126 0l-.79.616.302.388h.488v-1.004zm-2.375-3.071H1.004v.348l.207.267.797-.615zm0-4.216v-1.003H1.004v1.003h1.004zm4.617 0h1.003v-1.003H6.625v1.003zm0-1.532v-1.004h-.997v1.004h.997zm5.486 3.714l-.876.481.073.134.107.1.696-.715zm16.414 13.389l.575.823.428-.301v-.522h-1.003zm19.652 1.472h-1.004v.428l.308.301.696-.73zm1.338 65.386l-1.004-.033v.709l.67.261.334-.937zm3.7 5.132h-15.39v2.008h15.39v-2.008zm-14.406 1.004v-1.338h-2.007v1.338h2.007zm0-1.338c-.02-1 .28-1.98.857-2.797a2.238 2.238 0 011.753-1.01v-2.008a4.242 4.242 0 00-3.346 1.814 6.687 6.687 0 00-1.271 4.001h2.007zm3.614-4.871l-3.46-53.43-2.007.128 3.466 53.429 2-.127zm-4.464-54.366h-1.766v2.007h1.733l.033-2.007zm-2.763 1.023l-1.158 51.128 2.008.047 1.15-51.175h-2zm-.154 58.582H19.887v2.007h15.155v-2.007zM20.89 160.3l.147-2.676-2.007-.107-.14 2.676 2 .107zm.114-2.502c.495-1.881 1.753-2.677 3.078-2.677v-2.007c-2.309 0-4.31 1.485-5.018 4.175l1.94.509zm3.078-2.677h3.305v-2.007H24.09l-.007 2.007zm.575-85.266L23.5 87.199l2.007.127 1.151-17.337-2-.134zm-.823 16.654l-4.014 3.594 1.338 1.505 4.015-3.593-1.339-1.505zm-2.63 3.667l-10.96-11.924-1.478 1.339 10.96 11.903 1.479-1.318zM9.509 77.911H4.383v2.008h5.125V77.91zM5.18 78.3l-2.375-3.064-1.593 1.23 2.382 3.072L5.18 78.3zm-2.168-2.435v-4.216H1.004v4.216H3.01zm-1.003-3.212h4.617v-2.007H2.008v2.007zm3.613-1.004v1.96h2.007v-1.96H5.621zm2.007 1.96v-3.492H5.621v3.493h2.007zm-.997-2.488c1.713 0 3.46 1.097 4.61 3.191l1.76-.97c-1.412-2.563-3.747-4.229-6.37-4.229v2.008zm4.791 3.446l7.48 7.24 1.4-1.44-7.481-7.259-1.399 1.459zm39.766 26.095c0 13.691-.582 24.711-1.171 32.299a266.016 266.016 0 01-.796 8.698c-.114.991-.201 1.747-.268 2.255 0 .255-.053.442-.074.569.003.047.003.094 0 .141v.04l.998.14.996.141v-.04a.831.831 0 010-.148c0-.133.04-.327.074-.588.067-.516.154-1.278.268-2.282.22-2.007.515-4.972.81-8.786.581-7.634 1.17-18.735 1.17-32.452l-2.007.013zm-27.434-.562a17.398 17.398 0 012.83-9.247 13.268 13.268 0 011.78-2.154c.178-.18.366-.35.562-.51l.14-.113h.034l-.582-.823c-.582-.823-.582-.816-.589-.816l-.06.047-.2.16a7.98 7.98 0 00-.67.623 15.467 15.467 0 00-2.007 2.469 19.337 19.337 0 00-3.165 10.304l1.927.06zm5.774-12.874V76.767h-2.007v10.452l2.008.006zm-1.157 66.859c0-7.22-1.392-14.406-2.676-22.844a164.657 164.657 0 01-1.974-31.141l-2.008-.067a166.293 166.293 0 002.008 31.503c1.27 8.564 2.622 15.523 2.622 22.549h2.028zm18.782-84.202V88.69h2.008V69.88h-2.008zm1.024 18.809l-.67.722.108.108c.094.1.234.267.401.488.495.64.927 1.326 1.292 2.047a18.668 18.668 0 011.88 8.605h2.007a20.69 20.69 0 00-2.127-9.481c-.42-.836-.92-1.629-1.493-2.369a10.404 10.404 0 00-.508-.609 1.223 1.223 0 00-.154-.16l-.04-.047-.696.696zm-14.139 63.091v8.431h2.008v-8.431h-2.008zm-5.493-75.015l.716-.67-.04-.04-.154-.173a11.802 11.802 0 01-.522-.616 7.429 7.429 0 01-1.07-1.76l-1.874.73a9.31 9.31 0 001.338 2.268c.234.294.448.549.609.723.16.174.14.154.187.2l.054.06.756-.722zm-1.11-3.305a14.045 14.045 0 01-.596-2.329c-.067-.388-.12-.736-.16-.984 0-.12 0-.22-.041-.287v-.094l-.997.12-.99.12v.088c0 .073 0 .18.04.314.04.268.1.67.174 1.05.143.911.367 1.807.669 2.677l1.9-.675zm21.411 71.321l-.355 9.261 2.008.073.354-9.253-2.007-.081zm.67 9.294l-.369.937.094.04.361.181a7 7 0 011.118.723 3.374 3.374 0 011.472 2.582H54.2a5.348 5.348 0 00-2.228-4.142 9.495 9.495 0 00-1.432-.936c-.194-.101-.361-.174-.475-.228l-.14-.06h-.047l-.362.903z" fill="#FFFBF5"/><path d="M56.875 72.987c-1.224-10.432-9.407-18.495-19.324-18.495-10.786 0-19.485 9.495-19.485 21.211v.201" stroke="#FFFBF5" stroke-width="2.763" stroke-miterlimit="10"/><path d="M17.731 75.904v4.015m-1.318-2.389L14.7 83.82" stroke="#FFFBF5" stroke-width="2.763"/><path d="M184.426 88.618a21.668 21.668 0 001.097-17.304c-2.716-7.594-2.074-9.267-1.652-13.663.455-4.684-3.667-18.549-17.806-18.549-14.138 0-18.16 13.604-17.678 18.549.422 4.396 1.613 6.068-1.104 13.663a21.497 21.497 0 001.178 17.304" stroke="#FFFBF5" stroke-width="2.763" stroke-miterlimit="10"/><path d="M179.461 58.508v5.888a12.714 12.714 0 01-25.427 0v-3.212" stroke="#FFFBF5" stroke-width="2.763" stroke-miterlimit="10"/><path d="M183.422 61.184l.054-2.35c-8.846-.48-15.939-12.371-15.939-12.371s-13.202 6.276-13.503 14.674" stroke="#FFFBF5" stroke-width="2.763" stroke-miterlimit="10"/><path d="M164.474 61.324a6.487 6.487 0 01-.469 4.296 4.786 4.786 0 01-2.904 2.636 4.92 4.92 0 01-5.254-1.882 4.92 4.92 0 01-.808-1.791 19.648 19.648 0 01-.582-3.881v-.616c.241 0 .522-.053.836-.074a38.468 38.468 0 013.821-.133 15.572 15.572 0 013.821.455c1.111.314 1.465.716 1.539.99zm4.549 0a6.4 6.4 0 00.468 4.296 4.787 4.787 0 002.904 2.636 4.911 4.911 0 006.056-3.674c.326-1.27.521-2.57.582-3.88v-.616c-.241 0-.522-.053-.836-.074a38.468 38.468 0 00-3.821-.133 15.572 15.572 0 00-3.821.455c-1.104.314-1.465.716-1.532.99zm.154 2.536a2.461 2.461 0 00-4.898 0" stroke="#FFFBF5" stroke-width="2.763"/><path d="M163.02 156.267v3.947h1.05v-9.367h-5.259l-3.152 5.42-6.309 2.964v.983h9.461l4.209-3.947z" stroke="#FFFBF5" stroke-width="2.763" stroke-miterlimit="10"/><path d="M157.38 137.464l2.007 12.713m4.35-12.713v12.044" stroke="#FFFBF5" stroke-width="2.763"/><path d="M169.806 156.267v3.947h-1.05v-9.367h5.252l3.159 5.42 6.31 2.964v.983h-9.469l-4.202-3.947z" stroke="#FFFBF5" stroke-width="2.763" stroke-miterlimit="10"/><path d="M175.447 137.464l-2.008 12.713m-4.349-12.713v12.044" stroke="#FFFBF5" stroke-width="2.763"/><path d="M177.046 90.625c-.255 4.724-2.182 7.073-2.182 7.073s4.684 10.759 5.206 18.126c.629 8.839-4.015 22.309-4.015 22.309h-19.491s-4.169-14.213-3.814-22.309a39.07 39.07 0 011.338-7.875" stroke="#FFFBF5" stroke-width="2.763" stroke-miterlimit="10"/><path d="M160.39 76.574l-1.003 4.015s1.251 2.007 7.025 2.007c5.775 0 7.026-2.007 7.026-2.007l-1.258-4.015" stroke="#FFFBF5" stroke-width="2.763"/><path d="M182.398 106.483h-4.028c-.924 0-1.673.749-1.673 1.673v13.938c0 .924.749 1.673 1.673 1.673h4.028c.924 0 1.673-.749 1.673-1.673v-13.938c0-.924-.749-1.673-1.673-1.673z" fill="#FFFBF5" stroke="#1AEBFF" stroke-width="2.763"/><path d="M176.738 112.252l3.647 2.088 3.647-2.088m-3.647-6.237v-20.87" stroke="#1AEBFF" stroke-width="2.763"/><path d="M154.804 90.94l4.684 13.589h6.53l2.61-1.766h2.656v1.244h4.182v2.677l-2.094 2.676h-19.351l-6.022-14.326c0-6.022 5.748-14.051 11.496-15.115" stroke="#FFFBF5" stroke-width="2.763" stroke-miterlimit="10"/><path d="M159.053 104.008v4.684" stroke="#FFFBF5" stroke-width="2.763"/><path d="M184.252 118.167l3.299-1.874-2.262-6.644 3.045-.743s-.883-6.249-3.045-15.135c-2.161-8.886-9.073-12.513-11.683-13.316m119.643 75.898l-6.457 3.861h-10.599v-2.416l4.149-2.409 9.234-6.269v-7.24h8.297v12.713m-1.679-23.821v10.553m-4.443-10.553v10.553" stroke="#FFFBF5" stroke-width="2.763" stroke-miterlimit="10"/><path d="M315.084 141.88v18.334h-4.61v-3.861l-6.457 3.861h-10.599v-2.416l4.149-2.409 9.22-6.269v-7.24h8.297zm-1.674-11.108v10.553m-4.429-10.553v10.553m-19.337-47.656v3.908h-1.545v2.783h-3.346l-1.8-2.924V93.67m32.787-.001v3.908h1.7v2.783h3.68l2.007-2.924V93.67m-40.174-26.095a20.072 20.072 0 0134.268-14.195 20.076 20.076 0 015.879 14.195m-40.214-.671v28.103m40.146-28.103v28.103" stroke="#FFFBF5" stroke-width="2.763" stroke-miterlimit="10"/><path d="M291.249 53.188l11.73 3.01 10.96-3.01V90.07l4.476 41.739h-31.448l4.282-41.74V53.188zm-2.942 65.574h28.772" stroke="#1AEBFF" stroke-width="2.763"/><path d="M313.398 73.93h-21.412v6.023h21.412V73.93z" stroke="#1AEBFF" stroke-width="2.763"/><path d="M297.672 78.28a1.338 1.338 0 100-2.676 1.338 1.338 0 000 2.676zm5.354 0a1.338 1.338 0 100-2.676 1.338 1.338 0 000 2.676zm5.353 0a1.339 1.339 0 100-2.678 1.339 1.339 0 000 2.678z" fill="#FFFBF5"/><path d="M303.1 8.323c0 7.327-4.684 13.945-11.924 16.728l-2.168.85m14.093-17.578c0 7.327 4.683 13.945 11.923 16.728l2.168.85" stroke="#FFFBF5" stroke-width="2.763" stroke-miterlimit="10"/><path d="M288.908 24.543v8.384a14.053 14.053 0 0028.103 0v-8.384" stroke="#FFFBF5" stroke-width="2.763" stroke-miterlimit="10"/><path d="M317.546 25.941a4.092 4.092 0 014.095 4.095c0 2.262-1.834 4.095-4.684 4.095" stroke="#FFFBF5" stroke-width="2.763"/><path d="M319.012 37.056a1.465 1.465 0 10.001-2.931 1.465 1.465 0 00-.001 2.93z" fill="#FFFBF5"/><path d="M319.012 39.979a1.465 1.465 0 10.001-2.931 1.465 1.465 0 00-.001 2.93z" fill="#FFFBF5"/><path d="M288.3 25.941a4.096 4.096 0 00-4.075 4.095c0 2.262 1.833 4.095 4.683 4.095" stroke="#FFFBF5" stroke-width="2.763"/><path d="M286.84 37.056a1.465 1.465 0 10.001-2.931 1.465 1.465 0 00-.001 2.93z" fill="#FFFBF5"/><path d="M286.84 39.979a1.465 1.465 0 10.001-2.931 1.465 1.465 0 00-.001 2.93z" fill="#FFFBF5"/><path d="M324.92 72.452s13.048-8.217 1.552-19.96c-.354-.361 4.075-9.113.669-16.882-3.439-7.922-2.616-9.669-2.101-14.259C325.616 16.44 320.39 2 302.431 2c-17.96 0-23.052 14.199-22.449 19.351.542 4.59 2.054 6.337-1.399 14.259-3.366 7.769 1.419 16.206.79 16.875-10.927 11.449 2.067 19.96 2.067 19.96" stroke="#FFFBF5" stroke-width="2.763" stroke-miterlimit="10"/><path d="M292.923 37.296c3.085 3.199 3.345-1.479 6.176-1.479 2.83 0 3.566 2.951 3.566 2.951m9.983-1.472c-3.092 3.199-3.346-1.479-6.183-1.479-2.837 0-3.56 2.951-3.56 2.951m-.528 3.38v4.228m-2.148-2.891v2.817m4.296-2.817v2.817" stroke="#FFFBF5" stroke-width="2.763"/><path d="M442.457 82.597a6.024 6.024 0 0010.28 4.258 6.02 6.02 0 001.764-4.258m-10.706-12.045a4.953 4.953 0 009.368 0m-13.53 13.751a16.181 16.181 0 004.516 7.969 15.663 15.663 0 013.848 5.079m9.702-13.048a16.527 16.527 0 01-4.516 8.103c-3.647 3.5-4.43 6.109-4.517 8.103v25.948m-9.555-41.854a58.38 58.38 0 012.878 12.045M454.502 102a56.675 56.675 0 013.346-16.728" stroke="#FFFBF5" stroke-width="2.763" stroke-miterlimit="10"/><path d="M439.112 109.361l-4.35 2.007h-7.695v-8.203a21.315 21.315 0 0120.991-21.238c12.004-.234 21.833 9.742 21.833 21.646v11.375l-8.33 11.81h-2.376l-6.249-7.963" stroke="#FFFBF5" stroke-width="2.763" stroke-miterlimit="10"/><path d="M453.832 120.736h4.256l5.781-7.735v-8.324m-20.074 40.816v-18.735m2.007 31.817a6.332 6.332 0 00-9.745-3.169 6.332 6.332 0 00-2.299 3.169v1.64h12.044v-1.64z" stroke="#FFFBF5" stroke-width="2.763" stroke-miterlimit="10"/><path d="M444.465 156.534v-11.041h-9.367v11.041m1.337-29.776v19.404m25.426-.669v-18.735m2.007 31.817a6.33 6.33 0 00-12.044 0v1.64h12.044v-1.64z" stroke="#FFFBF5" stroke-width="2.763" stroke-miterlimit="10"/><path d="M462.53 156.534v-11.041h-9.368v11.041m1.192-29.408v18.735m-18.589-19.103h24.757" stroke="#FFFBF5" stroke-width="2.763" stroke-miterlimit="10"/><path d="M466.545 50.666a1.341 1.341 0 00.98-1.12 1.336 1.336 0 00-.66-1.332 1.337 1.337 0 10-.32 2.452z" fill="#FFFBF5"/><path d="M464.51 48.752a1.338 1.338 0 10-.69-2.586 1.338 1.338 0 00.69 2.586zm3.392 4.497a1.336 1.336 0 00.853-1.886 1.345 1.345 0 00-1.29-.742 1.334 1.334 0 00-1.178.908 1.335 1.335 0 00.601 1.587c.307.177.672.225 1.014.133z" fill="#FFFBF5"/><path d="M468.599 55.83a1.34 1.34 0 10-.692-2.587 1.34 1.34 0 00.692 2.587z" fill="#FFFBF5"/><path d="M469.295 58.42a1.34 1.34 0 00.98-1.119 1.336 1.336 0 00-.66-1.333 1.338 1.338 0 10-.32 2.453z" fill="#FFFBF5"/><path d="M469.985 61.01a1.336 1.336 0 00.981-1.117 1.343 1.343 0 00-.656-1.334 1.339 1.339 0 10-.325 2.451z" fill="#FFFBF5"/><path d="M470.004 63.594a1.335 1.335 0 00.986-1.114 1.338 1.338 0 10-.986 1.114z" fill="#FFFBF5"/><path d="M469.363 66.176a1.338 1.338 0 10-.464-2.636 1.338 1.338 0 00.464 2.636z" fill="#FFFBF5"/><path d="M469.382 68.766a1.335 1.335 0 00.986-1.114 1.338 1.338 0 10-.986 1.114z" fill="#FFFBF5"/><path d="M468.738 71.348a1.336 1.336 0 00.32-2.452 1.336 1.336 0 00-1.935.732 1.335 1.335 0 00.6 1.588 1.34 1.34 0 001.015.132z" fill="#FFFBF5"/><path d="M468.098 73.931a1.337 1.337 0 10-.695-2.582 1.337 1.337 0 00.695 2.582zm-.997-25.875a1.34 1.34 0 00.304-2.457 1.337 1.337 0 10-.304 2.457zm2.026 1.92a1.34 1.34 0 10-.692-2.588 1.34 1.34 0 00.692 2.588z" fill="#FFFBF5"/><path d="M470.493 52.56a1.336 1.336 0 00.98-1.117 1.334 1.334 0 00-.655-1.334 1.339 1.339 0 10-.325 2.45zm.689 2.602a1.339 1.339 0 10-.697-2.585 1.339 1.339 0 00.697 2.585z" fill="#FFFBF5"/><path d="M471.879 57.732a1.339 1.339 0 10-.691-2.588 1.339 1.339 0 00.691 2.588z" fill="#FFFBF5"/><path d="M472.566 60.314a1.336 1.336 0 00.853-1.886 1.344 1.344 0 00-1.289-.741 1.334 1.334 0 00-1.179.907 1.335 1.335 0 00.601 1.588c.307.177.672.224 1.014.132z" fill="#FFFBF5"/><path d="M472.594 62.897a1.333 1.333 0 00.979-1.119 1.335 1.335 0 00-1.416-1.508 1.34 1.34 0 00-1.203 1.684 1.343 1.343 0 001.64.943z" fill="#FFFBF5"/><path d="M471.945 65.487a1.336 1.336 0 00.981-1.117 1.342 1.342 0 00-.656-1.334 1.338 1.338 0 10-.325 2.45z" fill="#FFFBF5"/><path d="M471.972 68.07a1.338 1.338 0 10-.696-2.585 1.338 1.338 0 00.696 2.584z" fill="#FFFBF5"/><path d="M471.322 70.653a1.338 1.338 0 10-.682-2.587 1.338 1.338 0 00.682 2.587zm.429-21.373a1.34 1.34 0 00.98-1.12 1.336 1.336 0 00-.66-1.332 1.337 1.337 0 10-.32 2.452z" fill="#FFFBF5"/><path d="M473.089 51.863a1.34 1.34 0 00.98-1.12 1.344 1.344 0 00-.66-1.332 1.337 1.337 0 10-.32 2.452z" fill="#FFFBF5"/><path d="M473.758 54.452a1.338 1.338 0 10-.69-2.586 1.338 1.338 0 00.69 2.586z" fill="#FFFBF5"/><path d="M474.461 57.036a1.34 1.34 0 00.98-1.12 1.336 1.336 0 00-.66-1.332 1.338 1.338 0 10-.32 2.452z" fill="#FFFBF5"/><path d="M475.157 59.625a1.336 1.336 0 00.981-1.117 1.342 1.342 0 00-.656-1.333 1.339 1.339 0 10-.325 2.45z" fill="#FFFBF5"/><path d="M475.178 62.208a1.339 1.339 0 10-.691-2.587 1.339 1.339 0 00.691 2.587z" fill="#FFFBF5"/><path d="M474.534 64.79a1.341 1.341 0 00.98-1.118 1.336 1.336 0 00-.66-1.333 1.337 1.337 0 10-.32 2.452z" fill="#FFFBF5"/><path d="M474.555 67.38a1.34 1.34 0 10-.692-2.587 1.34 1.34 0 00.692 2.587zm1.109-16.233a1.335 1.335 0 00.981-1.117 1.342 1.342 0 00-.655-1.334 1.339 1.339 0 10-.326 2.45zm.69 2.61a1.338 1.338 0 10-.696-2.584 1.338 1.338 0 00.696 2.584zm.695 2.59a1.337 1.337 0 00.318-2.422 1.34 1.34 0 00-.987-.168 1.34 1.34 0 00-.912 1.617 1.34 1.34 0 001.581.973z" fill="#FFFBF5"/><path d="M477.772 58.93a1.344 1.344 0 00.981-1.117 1.335 1.335 0 00-.656-1.334 1.339 1.339 0 10-.325 2.45z" fill="#FFFBF5"/><path d="M477.774 61.511a1.339 1.339 0 10-.697-2.584 1.339 1.339 0 00.697 2.584z" fill="#FFFBF5"/><path d="M477.104 64.1a1.344 1.344 0 00.981-1.116 1.335 1.335 0 00-.656-1.334 1.339 1.339 0 10-.325 2.45z" fill="#FFFBF5"/><path d="M477.145 66.684a1.338 1.338 0 10-.696-2.583 1.338 1.338 0 00.696 2.583z" fill="#FFFBF5"/><path d="M476.494 69.267a1.34 1.34 0 00.98-1.119 1.336 1.336 0 00-.66-1.333 1.337 1.337 0 10-.32 2.452z" fill="#FFFBF5"/><path d="M475.853 71.89a1.343 1.343 0 00.981-1.117 1.334 1.334 0 00-.656-1.334 1.339 1.339 0 10-.325 2.45zm-45.641-21.224a1.337 1.337 0 11.682-2.587 1.337 1.337 0 01-.682 2.587z" fill="#FFFBF5"/><path d="M432.272 48.752a1.339 1.339 0 11.629-2.602 1.339 1.339 0 01-.629 2.602zm-3.426 4.497a1.338 1.338 0 11.696-2.584 1.338 1.338 0 01-.696 2.584z" fill="#FFFBF5"/><path d="M428.152 55.83a1.34 1.34 0 11.692-2.587 1.34 1.34 0 01-.692 2.587z" fill="#FFFBF5"/><path d="M427.462 58.42a1.336 1.336 0 01-.853-1.885 1.345 1.345 0 011.289-.742 1.335 1.335 0 011.179.907 1.336 1.336 0 01-.601 1.588 1.336 1.336 0 01-1.014.133z" fill="#FFFBF5"/><path d="M426.766 61.01a1.34 1.34 0 11.692-2.587 1.34 1.34 0 01-.692 2.587z" fill="#FFFBF5"/><path d="M426.745 63.593a1.336 1.336 0 01-.98-1.117 1.334 1.334 0 01.655-1.334 1.339 1.339 0 11.325 2.451z" fill="#FFFBF5"/><path d="M427.388 66.175a1.338 1.338 0 11.696-2.583 1.338 1.338 0 01-.696 2.584z" fill="#FFFBF5"/><path d="M427.368 68.765a1.334 1.334 0 01-.981-1.117 1.342 1.342 0 01.655-1.334 1.338 1.338 0 11.326 2.45z" fill="#FFFBF5"/><path d="M428.01 71.348a1.338 1.338 0 11.696-2.583 1.338 1.338 0 01-.696 2.583z" fill="#FFFBF5"/><path d="M428.66 73.931a1.34 1.34 0 01-.852-1.885 1.333 1.333 0 011.289-.742 1.34 1.34 0 011.202 1.684 1.337 1.337 0 01-1.639.943zm.996-25.875a1.335 1.335 0 01-.976-1.127 1.34 1.34 0 11.976 1.127z" fill="#FFFBF5"/><path d="M427.621 49.976a1.336 1.336 0 01-.98-1.117 1.334 1.334 0 01.655-1.334 1.339 1.339 0 11.325 2.45zm-1.371 2.584a1.336 1.336 0 01-.981-1.117 1.343 1.343 0 01.656-1.334 1.339 1.339 0 11.325 2.45z" fill="#FFFBF5"/><path d="M425.581 55.162a1.337 1.337 0 01.437-2.628 1.339 1.339 0 11-.437 2.628z" fill="#FFFBF5"/><path d="M424.912 57.731a1.343 1.343 0 01-.987-1.114 1.346 1.346 0 01.653-1.337 1.339 1.339 0 11.334 2.451zm-.73 2.583a1.338 1.338 0 11.696-2.583 1.338 1.338 0 01-.696 2.583z" fill="#FFFBF5"/><path d="M424.163 62.897a1.337 1.337 0 11.682-2.586 1.337 1.337 0 01-.682 2.586z" fill="#FFFBF5"/><path d="M424.805 65.487a1.339 1.339 0 11.691-2.588 1.339 1.339 0 01-.691 2.588z" fill="#FFFBF5"/><path d="M424.778 68.07a1.34 1.34 0 01-.98-1.12 1.335 1.335 0 01.66-1.333 1.338 1.338 0 11.32 2.452z" fill="#FFFBF5"/><path d="M425.427 70.652a1.337 1.337 0 11.695-2.582 1.337 1.337 0 01-.695 2.582zm-.387-21.372a1.336 1.336 0 01-.852-1.886 1.332 1.332 0 011.289-.742 1.34 1.34 0 011.202 1.685 1.337 1.337 0 01-1.639.943zm-1.366 2.583a1.338 1.338 0 11.696-2.583 1.338 1.338 0 01-.696 2.583z" fill="#FFFBF5"/><path d="M422.986 54.452a1.338 1.338 0 11.69-2.586 1.338 1.338 0 01-.69 2.586z" fill="#FFFBF5"/><path d="M422.29 57.036a1.336 1.336 0 01-.32-2.452 1.336 1.336 0 011.935.732 1.335 1.335 0 01-.6 1.587 1.34 1.34 0 01-1.015.133zm-.689 2.589a1.338 1.338 0 11.691-2.586 1.338 1.338 0 01-.691 2.586z" fill="#FFFBF5"/><path d="M421.567 62.208a1.339 1.339 0 11.691-2.587 1.339 1.339 0 01-.691 2.587z" fill="#FFFBF5"/><path d="M422.237 64.79a1.341 1.341 0 01-.98-1.118 1.336 1.336 0 01.66-1.333 1.337 1.337 0 11.32 2.452z" fill="#FFFBF5"/><path d="M422.195 67.38a1.34 1.34 0 11.692-2.587 1.34 1.34 0 01-.692 2.587zm-1.104-16.233a1.344 1.344 0 01-.981-1.117 1.335 1.335 0 01.656-1.334 1.339 1.339 0 11.325 2.45z" fill="#FFFBF5"/><path d="M420.396 53.757a1.333 1.333 0 01-.979-1.12 1.335 1.335 0 011.416-1.508 1.34 1.34 0 011.202 1.684 1.337 1.337 0 01-1.639.944z" fill="#FFFBF5"/><path d="M419.706 56.347a1.336 1.336 0 01-.98-1.117 1.334 1.334 0 01.655-1.334 1.339 1.339 0 11.325 2.45z" fill="#FFFBF5"/><path d="M419.012 58.93a1.34 1.34 0 11.692-2.587 1.34 1.34 0 01-.692 2.587z" fill="#FFFBF5"/><path d="M418.991 61.511a1.341 1.341 0 01-.98-1.119 1.336 1.336 0 01.66-1.333 1.337 1.337 0 11.32 2.453z" fill="#FFFBF5"/><path d="M419.634 64.1a1.344 1.344 0 01-.981-1.116 1.335 1.335 0 01.656-1.334 1.339 1.339 0 11.325 2.45z" fill="#FFFBF5"/><path d="M419.613 66.684a1.34 1.34 0 01-.98-1.119 1.336 1.336 0 01.66-1.333 1.337 1.337 0 11.32 2.452z" fill="#FFFBF5"/><path d="M420.229 69.267a1.333 1.333 0 01-.979-1.119 1.335 1.335 0 011.416-1.508 1.34 1.34 0 011.202 1.684 1.337 1.337 0 01-1.639.943z" fill="#FFFBF5"/><path d="M420.897 71.89a1.338 1.338 0 11.69-2.586 1.338 1.338 0 01-.69 2.586zm27.582-16.058a1.335 1.335 0 001.236-.826 1.334 1.334 0 00-.975-1.825 1.338 1.338 0 10-.261 2.65zm0-8.031a1.336 1.336 0 001.312-1.599 1.334 1.334 0 00-1.051-1.051 1.337 1.337 0 10-.261 2.65z" fill="#FFFBF5"/><path d="M448.479 50.478a1.335 1.335 0 001.236-.826 1.334 1.334 0 00-.975-1.825 1.336 1.336 0 00-1.599 1.313 1.338 1.338 0 001.338 1.338z" fill="#FFFBF5"/><path d="M448.479 53.155a1.336 1.336 0 001.312-1.6 1.334 1.334 0 00-1.051-1.05 1.337 1.337 0 10-.261 2.65z" fill="#FFFBF5"/><path d="M448.479 55.832a1.335 1.335 0 001.236-.826 1.334 1.334 0 00-.975-1.825 1.338 1.338 0 10-.261 2.65zm-3.969-4.865a1.338 1.338 0 10-.691-2.586 1.338 1.338 0 00.691 2.586z" fill="#FFFBF5"/><path d="M445.199 53.55a1.337 1.337 0 00-.437-2.628 1.34 1.34 0 00-1.202 1.684 1.337 1.337 0 001.639.944z" fill="#FFFBF5"/><path d="M445.895 56.139a1.344 1.344 0 00.981-1.117 1.335 1.335 0 00-.656-1.334 1.339 1.339 0 10-.325 2.45zm6.545-5.173a1.34 1.34 0 01-.317-2.45 1.341 1.341 0 011.482.096 1.332 1.332 0 01.481 1.404 1.341 1.341 0 01-.625.818 1.337 1.337 0 01-1.021.132z" fill="#FFFBF5"/><path d="M451.752 53.55a1.337 1.337 0 11.692-2.583 1.337 1.337 0 01-.692 2.583z" fill="#FFFBF5"/><path d="M451.061 56.139a1.34 1.34 0 01-.776-2.123 1.329 1.329 0 01.912-.515 1.34 1.34 0 011.445 1.665 1.34 1.34 0 01-1.581.973zm5.448-4.369a1.337 1.337 0 011.125-2.412 1.34 1.34 0 11-1.125 2.412z" fill="#FFFBF5"/><path d="M455.17 54.084a1.335 1.335 0 01-.659-1.334 1.341 1.341 0 012.39-.639 1.338 1.338 0 01-1.731 1.973z" fill="#FFFBF5"/><path d="M453.832 56.406a1.337 1.337 0 111.725-1.978 1.337 1.337 0 01-1.23 2.145 1.332 1.332 0 01-.495-.167zm-13.569-4.636a1.339 1.339 0 10-1.34-2.318 1.339 1.339 0 001.34 2.318z" fill="#FFFBF5"/><path d="M441.6 54.084a1.338 1.338 0 10-1.339-2.317 1.338 1.338 0 001.339 2.317z" fill="#FFFBF5"/><path d="M442.94 56.406a1.335 1.335 0 00.661-1.331 1.34 1.34 0 00-2.387-.647 1.342 1.342 0 00.242 1.877 1.336 1.336 0 001.484.101zm-4.845-1.585a1.337 1.337 0 10-2.183-1.458 1.337 1.337 0 002.183 1.458z" fill="#FFFBF5"/><path d="M439.981 56.708a1.335 1.335 0 00.294-1.46 1.34 1.34 0 00-2.475 0 1.335 1.335 0 001.237 1.849c.354 0 .693-.14.944-.389zm18.696-1.887a1.335 1.335 0 01-.29-1.458 1.343 1.343 0 011.236-.826 1.34 1.34 0 011.313 1.599 1.335 1.335 0 01-1.313 1.078 1.338 1.338 0 01-.946-.393z" fill="#FFFBF5"/><path d="M456.782 56.708a1.342 1.342 0 01-.289-1.458 1.336 1.336 0 012.472 0 1.342 1.342 0 01-1.236 1.85 1.343 1.343 0 01-.947-.392z" fill="#FFFBF5"/><path d="M462.531 60.516v7.434c0 6.978-6.297 12.64-14.052 12.64s-14.051-5.662-14.051-12.64v-7.434" stroke="#FFFBF5" stroke-width="2.763" stroke-miterlimit="10"/><path d="M434.428 66.537v-7.434c0-6.98 6.289-12.64 14.051-12.64 7.762 0 14.052 5.66 14.052 12.64v7.434" stroke="#FFFBF5" stroke-width="2.763" stroke-miterlimit="10"/><path d="M462.73 54.492l2.135-.843s.535-1.177-1.198-3.66c-1.733-2.482-3.025-2.375-3.025-2.375l-1.452 1.82m-25.064 5.058l-2.135-.843s-.535-1.177 1.198-3.66c1.733-2.482 3.018-2.375 3.018-2.375l1.452 1.82m24.242 67.247l3.781 3.787m-37.278-8.765v8.732m-.145-1.004h18.735" stroke="#FFFBF5" stroke-width="2.763"/><path d="M432.272 97.316h15.39m-6.544 6.023h4.015m-12.192 9.067v8.029m0-24.088v7.327" stroke="#1AEBFF" stroke-width="2.763"/><path d="M434.052 119.13l2.007 8.029" stroke="#FFFBF5" stroke-width="2.763"/><path d="M432.272 119.431h15.725" stroke="#1AEBFF" stroke-width="2.763"/><path d="M430.078 105.346l6.39-3.265.85 1.472 2.409-1.392 1.84 3.185-1.539 3.179-3.259 1.887" stroke="#FFFBF5" stroke-width="2.763" stroke-miterlimit="10"/><path d="M448.666 96.347v24.088" stroke="#1AEBFF" stroke-width="2.763"/><path d="M28.323 245c0 8.913-6.022 17.625-14.258 21.051M28.785 245c0 8.913 6.022 17.625 14.26 21.051M2.228 308.734v26.765l2.917 2.677m40.575-12.045l5.574-9.367v-5.353l-2.677-5.353m-.22 27.099l15.39-14.386 1.003-7.36-1.787-6.022" stroke="#FFFBF5" stroke-width="2.763" stroke-miterlimit="10"/><path d="M47.171 324.284l-4.844.228-2.181 2.181 1.545 1.559-3.345 3.653 5.353 4.41 6.29-4.543m-31.208-45.614c1.446 4.129 9.542 11.536 9.542 11.536s8.699-7.407 10.157-11.536" stroke="#FFFBF5" stroke-width="2.763" stroke-miterlimit="10"/><path d="M63.118 306.057c-6.692-19.404-18.368-21.003-36.642-20.742-17.711.254-24.248 11.241-24.248 24.757m45.5 47.508H10.926c-8.698-13.717-4.316-37.672 2.128-43.493" stroke="#FFFBF5" stroke-width="2.763" stroke-miterlimit="10"/><path d="M10.075 357.58h36.802c4.476-7.053 5.487-18.823 4.536-27.434m-6.69-16.059c1.505 1.338 2.897 3.714 4.014 6.691.087.221.248.669.248.669m-38.782-24.088c-5.64 10.633 2.73 17.398 2.73 17.398m34.179-17.398c5.64 10.633-2.73 17.398-2.73 17.398m9.474-22.551s6.156-2.757 1.486-12.961c-3.674-8.029-2.81-9.802-2.235-14.453.615-4.978-4.958-19.625-24.089-19.625-19.13 0-24.556 14.399-23.907 19.625.568 4.684 2.181 6.424-1.492 14.453-4.684 10.204 3.92 14.099 3.92 14.099" stroke="#FFFBF5" stroke-width="2.763" stroke-miterlimit="10"/><path d="M43.044 264.906v7.561c0 7.093-6.297 12.847-14.052 12.847S14.94 279.56 14.94 272.467v-7.561m7.36 118.836v3.948h1.339v-9.368h-6.691l-4.015 5.42-8.03 2.964v.984h12.045l5.352-3.948z" stroke="#FFFBF5" stroke-width="2.763" stroke-miterlimit="10"/><path d="M12.265 357.914l5.353 19.739m10.036-20.073l-4.35 20.074" stroke="#FFFBF5" stroke-width="2.763"/><path d="M39.698 383.742v3.948h1.338v-9.368h-6.691l-4.015 5.42-8.03 2.964v.984h12.045l5.353-3.948z" stroke="#FFFBF5" stroke-width="2.763" stroke-miterlimit="10"/><path d="M29.661 357.914l5.353 19.739m10.037-20.073l-4.349 20.074m-30.446-57.211h37.47m-37.47-5.352h35.463m5.354-4.015h12.713" stroke="#FFFBF5" stroke-width="2.763"/><path d="M23.639 275.278a5.568 5.568 0 005.28 3.854 5.756 5.756 0 005.426-3.854" stroke="#FFFBF5" stroke-width="2.763" stroke-miterlimit="10"/><path d="M16.244 265.91h6.611c1.62 0 3.038 1.171 3.426 3.199a3.24 3.24 0 01-3.426 2.823c-2.482 0-4.838-.836-6.39-3.345l-.22-.355v-2.322zm25.429 0h-6.605c-1.619 0-3.037 1.171-3.425 3.199a3.24 3.24 0 003.425 2.823c2.483 0 4.838-.836 6.39-3.345l.221-.355v-2.322h-.006zm-15.39 2.007h5.353" stroke="#1AEBFF" stroke-width="2.763" stroke-miterlimit="10"/><path d="M2.228 310.741h8.029m3.011-21.412v2.677m6.691-2.677v2.677m20.073-2.677v2.677m6.691-2.677v2.677m-40.146 5.353v2.677m6.691-2.677v2.677m6.691-2.677v2.677m6.691-2.677v2.677m6.692-2.677v2.677m6.69-2.677v2.677m6.691-2.677v2.677m6.693-2.677v2.677m-46.839 5.353v2.676m6.691-2.676v2.676m6.691-2.676v2.676m6.691-2.676v2.676m6.692-2.676v2.676m6.69-2.676v2.676m6.691-2.676v2.676m6.693-2.676v2.676m6.69-2.676v2.676m-46.838 13.382v2.677m6.691-2.677v2.677m6.691-2.677v2.677m6.692-2.677v2.677m6.69-2.677v2.677m6.691-2.677v2.677m-40.146 5.354v2.676m6.691-2.676v2.676m6.691-2.676v2.676m6.691-2.676v2.676m6.692-2.676v2.676m-26.765 5.352v2.676m6.691-2.676v2.676m6.691-2.676v2.676m6.691-2.676v2.676m6.692-2.676v2.676m6.69-2.676v2.676m6.691-2.676v2.676m-33.455 5.354v2.677m6.691-2.677v2.677m6.691-2.677v2.677m6.692-2.677v2.677m6.69-2.677v2.677m6.691-2.677v2.677m-33.455 5.352v2.677m6.691-2.677v2.677m6.691-2.677v2.677m6.692-2.677v2.677m6.69-2.677v2.677m6.691-2.677v2.677" stroke="#FFFBF5" stroke-width="2.763"/><path d="M166.388 275.458v-7.026a14.053 14.053 0 0128.103 0v7.026m-27.341 36.34l2.677-4.597 3.212-1.023.736 2.281 5.239-1.418 4.249 2.81-2.677 4.597-7.567 3.834-5.869-5.353m39.719 1.339v10.491l-2.007 3.681h-5.353m5.687-.336v1.011a13.725 13.725 0 01-4.014 9.695h-2.342m-27.1-48.296c1.225 3.499 8.364 6.022 8.364 6.022s7.133-2.523 8.364-6.022" stroke="#FFFBF5" stroke-width="2.763" stroke-miterlimit="10"/><path d="M207.037 316.93c0-14.901-12.091-27.367-26.858-27.079a26.457 26.457 0 00-25.835 26.557m7.407 51.054h14.005v17.397l-1.754 2.677h-19.27c-.964 0-1.747-.603-1.747-1.339v-4.014c0-1.914 1.767-3.56 4.216-3.935l4.53-.08.02-10.706zm1.753 6.691h5.279m30.94-6.691h-14.6v17.397l1.827 2.677h16.42c1.004 0 1.827-.603 1.827-1.339v-4.014c0-1.914-1.847-3.56-4.403-3.935l-1.071-.08v-10.706z" stroke="#FFFBF5" stroke-width="2.763" stroke-miterlimit="10"/><path d="M201.57 378.168h-11.884c-2.522 0-4.563 1.499-4.563 3.346m12.774-7.361h-5.473" stroke="#FFFBF5" stroke-width="2.763" stroke-miterlimit="10"/><path d="M160.7 335.679l1.004 31.114m17.396-21.412l-3.345 21.412m5.353-21.412l4.015 21.412m15.055-31.783l-1.004 31.783" stroke="#FFFBF5" stroke-width="2.763"/><path d="M196.946 295.866a16.925 16.925 0 01-2.616 17.029m-29.95 22.449h35.577c0-8.364-.314-17.223-5.821-24.088" stroke="#FFFBF5" stroke-width="2.763" stroke-miterlimit="10"/><path d="M196.612 335.345h-35.577a85.406 85.406 0 01.415-9.702m2.482-29.777a16.912 16.912 0 002.609 17.029" stroke="#FFFBF5" stroke-width="2.763" stroke-miterlimit="10"/><path d="M165.05 288.506a4.365 4.365 0 01-6.098 4.338 4.365 4.365 0 01-2.601-4.338m-.281.843a4.36 4.36 0 01-6.243-1.419 4.35 4.35 0 01-.39-3.471 4.36 4.36 0 012.284-2.645m43.439 6.692c-.047.6.03 1.203.228 1.771a4.349 4.349 0 002.373 2.567 4.345 4.345 0 003.496 0 4.351 4.351 0 002.601-4.338m.294.843a4.36 4.36 0 005.054-.088 4.37 4.37 0 001.747-3.026 4.357 4.357 0 00-1.034-3.337 4.359 4.359 0 00-1.417-1.084m-24.048-30.11a4.364 4.364 0 012.601-4.338 4.345 4.345 0 013.496 0 4.351 4.351 0 012.601 4.338" stroke="#FFFBF5" stroke-width="2.763"/><path d="M175.755 251.704a4.347 4.347 0 011.146-3.303 4.345 4.345 0 011.455-1.035 4.345 4.345 0 013.496 0 4.355 4.355 0 012.374 2.567c.197.568.274 1.171.227 1.771" stroke="#FFFBF5" stroke-width="2.763"/><path d="M167.057 251.704a4.365 4.365 0 016.098-4.338 4.365 4.365 0 012.601 4.338m-12.326 7.869a4.363 4.363 0 114.349-7.534" stroke="#FFFBF5" stroke-width="2.763"/><path d="M159.068 267.095a4.357 4.357 0 01-2.301-2.648 4.36 4.36 0 01.392-3.485 4.379 4.379 0 011.198-1.333 4.38 4.38 0 013.425-.758 4.365 4.365 0 011.648.703m-8.698 15.067a4.362 4.362 0 114.336-7.547" stroke="#FFFBF5" stroke-width="2.763"/><path d="M150.368 282.169a4.366 4.366 0 01-2.191-2.648 4.362 4.362 0 01.41-3.413 4.343 4.343 0 011.168-1.309 4.346 4.346 0 013.343-.799 4.364 4.364 0 011.633.641m42.103-15.068a4.359 4.359 0 002.283-2.644 4.362 4.362 0 00-6.633-4.89" stroke="#FFFBF5" stroke-width="2.763"/><path d="M201.181 267.093a4.346 4.346 0 002.283-2.644 4.36 4.36 0 00-1.578-4.802 4.373 4.373 0 00-3.407-.774 4.365 4.365 0 00-1.647.686" stroke="#FFFBF5" stroke-width="2.763"/><path d="M205.531 274.642a4.366 4.366 0 001.821-6.077 4.373 4.373 0 00-2.768-2.065 4.364 4.364 0 00-3.402.594" stroke="#FFFBF5" stroke-width="2.763"/><path d="M209.881 282.169a4.35 4.35 0 002.238-2.643 4.367 4.367 0 00-1.575-4.761 4.345 4.345 0 00-3.373-.787 4.366 4.366 0 00-1.64.663" stroke="#FFFBF5" stroke-width="2.763"/><path d="M174.417 275.457a4.349 4.349 0 100-8.698 4.349 4.349 0 000 8.698z" fill="#1AEBFF" stroke="#1AEBFF" stroke-width="2.763"/><path d="M166.775 278.864l14.721-14.72" stroke="#1AEBFF" stroke-width="2.763"/><path d="M175.086 278.469a5.573 5.573 0 005.279 3.854 5.766 5.766 0 005.427-3.854" stroke="#FFFBF5" stroke-width="2.763" stroke-miterlimit="10"/><path d="M161.034 340.362h38.14m-44.163-29.775s-2.087 8.939.669 13.382a19.981 19.981 0 003.011 3.346l20.409-11.71m9.703-23.753v8.698m-18.066-8.698v8.698m-3.747 10.84l-5.353 4.014m13.784-8.162v-6.022m10.706 18.066V301.22m-11.71 17.062h11.375m-10.706-15.389h10.706m4.056-32.106a4.366 4.366 0 00-2.192 2.648 4.358 4.358 0 006.554 4.88" stroke="#FFFBF5" stroke-width="2.763"/><path d="M185.511 263.254a4.36 4.36 0 00-1.894 6.116 4.362 4.362 0 006.243 1.418" stroke="#FFFBF5" stroke-width="2.763"/><path d="M181.15 255.719a4.358 4.358 0 00-2.402 4.415 4.372 4.372 0 001.74 3.004 4.367 4.367 0 003.382.783 4.348 4.348 0 001.642-.668" stroke="#FFFBF5" stroke-width="2.763"/><path d="M194.492 274.119a14.061 14.061 0 01-4.958 10.72 14.05 14.05 0 01-11.382 3.151 13.893 13.893 0 01-11.764-13.871v-5.854" stroke="#FFFBF5" stroke-width="2.763" stroke-miterlimit="10"/><path d="M336.205 253a4.091 4.091 0 013.783 2.522 4.09 4.09 0 01.312 1.566c0 2.262-1.833 4.095-4.684 4.095M306.964 253a4.083 4.083 0 00-3.783 2.522 4.09 4.09 0 00-.312 1.566c0 2.262 1.834 4.095 4.684 4.095" stroke="#FFFBF5" stroke-width="2.763"/><path d="M307.714 260.174v-7.026a14.053 14.053 0 0123.987-9.936 14.05 14.05 0 014.116 9.936v7.026m-19.405 5.017a5.574 5.574 0 005.279 3.855 5.757 5.757 0 005.427-3.855" stroke="#FFFBF5" stroke-width="2.763" stroke-miterlimit="10"/><path d="M315.074 232.404a1.338 1.338 0 100-2.678 1.338 1.338 0 000 2.678z" fill="#FFFBF5"/><path d="M315.074 235.081a1.339 1.339 0 10-.003-2.678 1.339 1.339 0 00.003 2.678zm2.676-2.677a1.345 1.345 0 001.237-.826 1.338 1.338 0 10-1.237.826z" fill="#FFFBF5"/><path d="M317.75 235.081a1.34 1.34 0 00.947-2.285 1.346 1.346 0 00-1.459-.29 1.338 1.338 0 00.512 2.575zm8.03-2.677a1.338 1.338 0 100-2.678 1.338 1.338 0 000 2.678z" fill="#FFFBF5"/><path d="M325.78 235.081a1.339 1.339 0 10-.003-2.678 1.339 1.339 0 00.003 2.678zm2.675-2.677a1.338 1.338 0 10.002-2.678 1.338 1.338 0 00-.002 2.678z" fill="#FFFBF5"/><path d="M328.455 235.081a1.34 1.34 0 00.947-2.285 1.343 1.343 0 00-1.459-.29 1.338 1.338 0 00.512 2.575zm-18.734 2.677a1.342 1.342 0 001.236-.827 1.336 1.336 0 00-1.748-1.748 1.335 1.335 0 00-.826 1.236 1.34 1.34 0 001.338 1.339z" fill="#FFFBF5"/><path d="M309.721 240.434a1.333 1.333 0 001.236-.826 1.336 1.336 0 00-1.748-1.748 1.336 1.336 0 00-.434 2.182c.251.251.591.392.946.392zm2.678-5.353a1.339 1.339 0 10-.003-2.678 1.339 1.339 0 00.003 2.678z" fill="#FFFBF5"/><path d="M312.399 237.758a1.339 1.339 0 10-.003-2.678 1.339 1.339 0 00.003 2.678zm18.734-2.677a1.34 1.34 0 00.946-2.285 1.339 1.339 0 10-.946 2.285z" fill="#FFFBF5"/><path d="M331.133 237.758a1.34 1.34 0 00.946-2.285 1.332 1.332 0 00-1.458-.29 1.338 1.338 0 00.512 2.575z" fill="#FFFBF5"/><path d="M333.809 237.758a1.337 1.337 0 001.312-1.6 1.335 1.335 0 00-1.824-.975 1.335 1.335 0 00-.826 1.236 1.34 1.34 0 001.338 1.339z" fill="#FFFBF5"/><path d="M333.809 240.434a1.336 1.336 0 001.312-1.599 1.332 1.332 0 00-1.051-1.051 1.328 1.328 0 00-.773.076 1.336 1.336 0 00-.434 2.182c.251.251.591.392.946.392zm-13.383-9.367a1.339 1.339 0 10.002-2.678 1.339 1.339 0 00-.002 2.678z" fill="#FFFBF5"/><path d="M320.426 233.744a1.34 1.34 0 00.946-2.285 1.339 1.339 0 10-.946 2.285zm2.677-2.677a1.336 1.336 0 001.312-1.599 1.333 1.333 0 00-1.824-.976 1.342 1.342 0 00-.826 1.237 1.337 1.337 0 001.338 1.338z" fill="#FFFBF5"/><path d="M323.103 233.744a1.337 1.337 0 001.312-1.599 1.338 1.338 0 10-1.312 1.599z" fill="#FFFBF5"/><path d="M326.355 229.728l.763-3.125s-.957-1.559-5.353-1.559-5.353 1.559-5.353 1.559l.957 3.125" stroke="#FFFBF5" stroke-width="2.763"/><path d="M307.714 252.271v8.384c0 3.726 1.48 7.3 4.115 9.936a14.054 14.054 0 0019.872 0 14.051 14.051 0 004.116-9.936v-8.384" stroke="#FFFBF5" stroke-width="2.763" stroke-miterlimit="10"/><path d="M307.714 255.489v-7.025a14.051 14.051 0 1128.103 0v7.025" stroke="#FFFBF5" stroke-width="2.763" stroke-miterlimit="10"/><path d="M315.421 257.832a3.684 3.684 0 003.4-2.272 3.675 3.675 0 00-.797-4.01 3.682 3.682 0 00-5.663.557 3.684 3.684 0 00.458 4.647 3.68 3.68 0 002.602 1.078zm12.714 0a3.684 3.684 0 003.4-2.272 3.675 3.675 0 00-.797-4.01 3.682 3.682 0 00-5.663.557 3.684 3.684 0 00.458 4.647 3.68 3.68 0 002.602 1.078zm-9.047-4.016h6.022" stroke="#FFFBF5" stroke-width="2.763" stroke-miterlimit="10"/><path d="M316.986 262.764c1.31-.351 2.324-.812 2.266-1.03-.058-.217-1.168-.109-2.478.242-1.31.351-2.324.812-2.266 1.03.058.217 1.168.109 2.478-.242z" stroke="#FFFBF5" stroke-width="2.763"/><path d="M329.921 260.682c.059-.219-.96-.682-2.276-1.035-1.316-.352-2.429-.461-2.488-.242-.059.218.96.682 2.276 1.034 1.315.353 2.429.461 2.488.243z" stroke="#FFFBF5" stroke-width="2.775"/><path d="M321.766 215.676a1.336 1.336 0 001.313-1.599 1.344 1.344 0 00-1.052-1.051 1.336 1.336 0 00-1.599 1.312 1.34 1.34 0 001.338 1.338z" fill="#FFFBF5"/><path d="M321.766 218.353a1.336 1.336 0 001.313-1.599 1.34 1.34 0 00-2.426-.482 1.336 1.336 0 00.167 1.689c.251.251.591.392.946.392z" fill="#FFFBF5"/><path d="M321.766 221.03c.265 0 .523-.078.743-.226a1.332 1.332 0 00.57-1.373 1.339 1.339 0 10-1.313 1.599z" fill="#FFFBF5"/><path d="M321.766 223.706a1.337 1.337 0 001.236-.826 1.34 1.34 0 00-.29-1.459 1.339 1.339 0 10-.946 2.285zm-5.375-7.226c-.255.069-.526.06-.777-.024a1.345 1.345 0 01-.907-1.179 1.337 1.337 0 112.495.578 1.337 1.337 0 01-.811.625z" fill="#FFFBF5"/><path d="M317.081 219.069a1.333 1.333 0 01-1.406-.481 1.343 1.343 0 01-.094-1.483 1.336 1.336 0 012.484.847 1.324 1.324 0 01-.514.887c-.14.107-.3.185-.47.23z" fill="#FFFBF5"/><path d="M317.777 221.652a1.335 1.335 0 01-1.684-1.203 1.337 1.337 0 112.495.578 1.34 1.34 0 01-.811.625z" fill="#FFFBF5"/><path d="M318.467 224.241a1.335 1.335 0 01-1.66-1.227 1.342 1.342 0 01.755-1.277 1.343 1.343 0 011.875.865 1.328 1.328 0 01-.142 1.022 1.347 1.347 0 01-.828.617zm-6.739-5.486a1.338 1.338 0 11-1.343-2.314 1.338 1.338 0 011.343 2.314z" fill="#FFFBF5"/><path d="M313.067 221.076a1.34 1.34 0 01-1.554-2.164 1.34 1.34 0 111.554 2.164z" fill="#FFFBF5"/><path d="M314.405 223.392a1.342 1.342 0 01-1.484-.096 1.335 1.335 0 01-.479-1.408 1.335 1.335 0 011.885-.854 1.339 1.339 0 01.078 2.358z" fill="#FFFBF5"/><path d="M315.742 225.714a1.336 1.336 0 01-1.961-1.504 1.336 1.336 0 011.881-.858 1.337 1.337 0 01.08 2.362zm11.584-9.234a1.342 1.342 0 001.406-.482 1.343 1.343 0 00.094-1.483 1.342 1.342 0 00-1.334-.656 1.345 1.345 0 00-1.117.981 1.352 1.352 0 00.135 1.017 1.34 1.34 0 00.816.623z" fill="#FFFBF5"/><path d="M326.63 219.069a1.335 1.335 0 001.684-1.203 1.337 1.337 0 10-2.495.578c.177.308.469.532.811.625z" fill="#FFFBF5"/><path d="M325.94 221.652a1.333 1.333 0 001.406-.481 1.335 1.335 0 00.094-1.483 1.336 1.336 0 00-2.484.847 1.342 1.342 0 00.984 1.117z" fill="#FFFBF5"/><path d="M325.245 224.242a1.335 1.335 0 001.684-1.203 1.337 1.337 0 10-2.495.578c.177.307.469.532.811.625zm6.737-5.487a1.337 1.337 0 101.321-2.326 1.337 1.337 0 00-1.321 2.326zm-1.339 2.321a1.337 1.337 0 101.321-2.326 1.337 1.337 0 00-1.321 2.326z" fill="#FFFBF5"/><path d="M329.306 223.392a1.342 1.342 0 001.952-1.519 1.337 1.337 0 10-2.347 1.177c.108.139.242.255.395.342z" fill="#FFFBF5"/><path d="M327.967 225.714a1.336 1.336 0 001.553-2.164 1.34 1.34 0 10-1.553 2.164z" fill="#FFFBF5"/><path d="M336.272 312.03h10.251v-4.791c0-17.678-11.088-32.01-24.758-32.01s-24.757 14.332-24.757 32.01v4.35h11.054" stroke="#FFFBF5" stroke-width="2.763" stroke-miterlimit="10"/><path d="M304.154 301.993a42.934 42.934 0 014.396 19.057v59.083h-7.361c-2.375 0-4.489 1.76-5.279 4.39l-.91 3.118h19.572v-9.709h4.516l3.346-34.038m18.066-41.901a40.399 40.399 0 00-4.684 18.95v19.859m-26.764-12.713h27.434" stroke="#FFFBF5" stroke-width="2.763" stroke-miterlimit="10"/><path d="M301.691 318.052v12.044l1.606 5.353h4.416m35.463-17.731v12.379l-1.605 5.352h-4.417m-1.338 0v42.463h-3.044v9.729h-11.676l1.338-5.474c.529-2.007 2.061-3.345 3.801-3.345l-4.015-34.092m8.912-67.495v9.368h-.669l-7.681-6.872h-1.338l-8.351 6.872h-.669v-9.368" stroke="#FFFBF5" stroke-width="2.763" stroke-miterlimit="10"/><path d="M335.147 327.42v10.706h-.99l-10.632-7.849h-1.934l-11.576 7.849h-.963V327.42" stroke="#FFFBF5" stroke-width="2.763" stroke-miterlimit="10"/><path d="M309.051 318.052h-13.703v-8.364m39.478 9.033h13.717v-8.364M315.074 285.6l6.691 7.025 6.692-7.025m-7.026 6.356v36.802" stroke="#FFFBF5" stroke-width="2.763"/><path d="M336.82 327.754h7.361m1.005-3.01v6.022" stroke="#1AEBFF" stroke-width="2.763"/><path d="M466.795 323.64h-24.088v-16.059s-4.436-4.516-1.874-12.044m25.967 28.438v-15.658s4.436-4.791 1.873-12.78" stroke="#FFFBF5" stroke-width="2.763" stroke-miterlimit="10"/><path d="M445.382 279.479C437.815 283.54 432 291.703 432 300.89v26.765h9.368m22.08-48.176a24.093 24.093 0 0112.714 21.237m-21.197 36.307l-1.339 44.162h-1.338v5.353h-8.029V385.2l2.007-2.676v-2.008h-3.345c0-19.592-4.229-32.787 0-55.865m24.088-.676c4.804 9.033 0 56.534 0 56.534h-2.007v2.007l5.353 2.676v1.339H458.98v-6.022h-1.339l-2.676-42.155" stroke="#FFFBF5" stroke-width="2.763" stroke-miterlimit="10"/><path d="M440.029 326.986v9.368h-4.416l-1.606-4.724v-3.934m35.464 2.301l2.676 5.353h6.966v-2.007l-5.28-6.357m2.329-26.764v27.434m-28.103-47.509l6.691 8.03 6.691-8.03" stroke="#FFFBF5" stroke-width="2.763" stroke-miterlimit="10"/><path d="M440.03 284.162h6.564v4.015l8.157 2.676 8.029-2.676v-4.015h6.692m-30.781-20.074v-8.029A16.058 16.058 0 01454.75 240h2.677a4.015 4.015 0 014.015 4.015c2.484 0 4.867.987 6.624 2.743a9.372 9.372 0 012.743 6.624v12.045" stroke="#FFFBF5" stroke-width="2.763" stroke-miterlimit="10"/><path d="M470.808 265.428a16.05 16.05 0 01-5.673 12.259 16.065 16.065 0 01-13.022 3.592 15.876 15.876 0 01-13.423-15.851v-6.692" stroke="#FFFBF5" stroke-width="2.763" stroke-miterlimit="10"/><path d="M471.11 257.398c-6.691 0-8.029-5.353-8.029-5.353h-1.338s-1.091 6.986-6.692 8.029c-9.588 1.787-8.029 9.368-8.029 9.368-3.854 0-8.331-1.238-8.331-6.691" stroke="#FFFBF5" stroke-width="2.763" stroke-miterlimit="10"/><path d="M476.201 323.012l-8.029 8.029" stroke="#FFFBF5" stroke-width="2.763"/><path d="M475.172 343.045v-1.786a3.342 3.342 0 013.345-3.346 3.346 3.346 0 013.346 3.346v1.786" stroke="#1AEBFF" stroke-width="2.763" stroke-miterlimit="10"/><path d="M475.158 342.376v45.5" stroke="#1AEBFF" stroke-width="2.763"/><path d="M458.444 274.126v-1.004h-7.36v1.004a2.785 2.785 0 001.184 2.221 4.34 4.34 0 004.992 0 2.775 2.775 0 001.184-2.221z" stroke="#FFFBF5" stroke-width="2.763"/><path d="M571.021 351.536l4.959-1.553a8.189 8.189 0 005.747-7.815m20.075 9.368l-4.958-1.553a8.187 8.187 0 01-5.748-7.815" stroke="#FFFBF5" stroke-width="2.763" stroke-miterlimit="10"/><path d="M565 327.206v10.231a4.5 4.5 0 004.503 4.503h18.2" stroke="#1AEBFF" stroke-width="2.763" stroke-miterlimit="10"/><path d="M609.162 327.206v21.746M565 327.207a21.345 21.345 0 018.029-16.728m36.132 16.727a21.367 21.367 0 00-7.695-16.447m-11.708 45.567v11.268h1.338v19.164h13.382v-2.677l-6.691-2.342v-3.011h-1.338v-11.134h3.346v-10.706m-25.427-.669v11.375h3.513v12.472l-2.175 4.015v2.676h9.368v-8.029h-2.007v-11.134h2.676l1.338-11.375" stroke="#FFFBF5" stroke-width="2.763" stroke-miterlimit="10"/><path d="M587.081 320.514l-1.606-.428a22.39 22.39 0 01-13.115-9.608 4.015 4.015 0 014.015-4.015h3.346v1.338c.87 3.486 2.777 5.293 5.46 7.682l1.9 1.686m0 3.345l1.606-.428a22.387 22.387 0 0013.115-9.608 4.015 4.015 0 00-4.015-4.015h-3.346v1.338c-.869 3.486-2.776 5.293-5.46 7.682l-1.9 1.686v24.998m-15.39-56.446h29.442" stroke="#FFFBF5" stroke-width="2.763" stroke-miterlimit="10"/><path d="M565 329.36h22.75" stroke="#1AEBFF" stroke-width="2.763" stroke-miterlimit="10"/><path d="M587.081 336.815h3.219c.948 0 1.869.323 2.609.917l.669.509a4.169 4.169 0 011.566 3.258m6.658 14.72v-24.316c0-2.424.963-4.749 2.676-6.464m-32.787 16.729v9.368l2.677 4.684h26.765m-.001-69.161v7.434c0 6.978-6.296 12.639-14.051 12.639s-14.052-5.661-14.052-12.639v-7.434" stroke="#FFFBF5" stroke-width="2.763" stroke-miterlimit="10"/><path d="M573.029 291.074v-7.441c0-6.972 6.29-12.633 14.052-12.633s14.051 5.661 14.051 12.633v7.441" stroke="#FFFBF5" stroke-width="2.763" stroke-miterlimit="10"/><path d="M574.81 301.653c-2.831 1.719-6.692.562-8.605-2.59-1.914-3.152-1.171-7.106 1.659-8.832l4.811-2.837" stroke="#FFFBF5" stroke-width="2.763" stroke-miterlimit="10"/><path d="M591.095 281.706h-8.03s0-4.015 4.015-4.015 4.015 4.015 4.015 4.015z" stroke="#FFFBF5" stroke-width="2.763"/><path d="M592.434 293.751a1.338 1.338 0 100-2.676 1.338 1.338 0 000 2.676z" fill="#FFFBF5"/><path d="M577.713 295.089a3.55 3.55 0 003.299 2.676 3.659 3.659 0 003.392-2.676" stroke="#FFFBF5" stroke-width="2.763" stroke-miterlimit="10"/><path d="M583.066 292.412h-4.014m14.934-6.497l6.692 12.713m4.1 59.692l-.595-2.429a6.08 6.08 0 014.329-7.36 6.087 6.087 0 017.454 4.302l7.227 26.979a6.136 6.136 0 01-2.195 6.457 6.134 6.134 0 01-6.702.503 6.13 6.13 0 01-2.893-3.56l-.569-1.834m-3.814-16.059l2.241 9.033" stroke="#FFFBF5" stroke-width="2.763"/><path d="M605.883 364.403a3.01 3.01 0 100-6.022 3.01 3.01 0 000 6.022zm4.684 16.159a3.01 3.01 0 100-6.022 3.01 3.01 0 000 6.022zm-31.515-1.499h4.014m9.368 0h4.014" stroke="#FFFBF5" stroke-width="2.763"/><path d="M587.034 329.408v13.383" stroke="#1AEBFF" stroke-width="2.763"/><path d="M588.037 341.786h8.03" stroke="#FFFBF5" stroke-width="2.763"/><path d="M567.961 75.082h3.346m-3.346 4.684h3.346m7.361 24.088h24.088" stroke="#1AEBFF" stroke-width="2.763" stroke-miterlimit="10"/><path d="M603.426 109.884V73.751m-33.457 23.412v1.01a13.728 13.728 0 004.014 9.696h4.684m34.126-10.706v1.01a13.728 13.728 0 01-4.014 9.696h-5.353m-36.134-14.721h11.375m25.427 0h11.375" stroke="#FFFBF5" stroke-width="2.763" stroke-miterlimit="10"/><path d="M578.668 98.501h24.088" stroke="#1AEBFF" stroke-width="2.763" stroke-linejoin="round"/><path d="M580.676 52.332c1.673 6.618 11.375 11.375 11.375 11.375s9.709-4.757 11.375-11.375" stroke="#1AEBFF" stroke-width="2.763" stroke-miterlimit="10"/><path d="M585.358 50.324c.984 3.895 6.692 6.691 6.692 6.691s5.714-2.797 6.691-6.69" stroke="#1AEBFF" stroke-width="2.763" stroke-miterlimit="10"/><path d="M586.784 36.273h-2.931c-1.258 0-1.967-1.024-2.275-2.195l-.596-3.345h-2.984v-1.151h10.572l1.7 1.117-.609 3.393a3.2 3.2 0 01-2.871 2.175l-.006.006zm10.537 0h2.924c1.265 0 2.007-1.024 2.282-2.195l.595-3.345h2.978v-1.151h-10.566l-1.706 1.117.616 3.393a3.2 3.2 0 002.87 2.175l.007.006zm-8.176-5.011h5.245m3.682 10.029a4.014 4.014 0 01-2.676 1.004h-6.692a4.477 4.477 0 01-2.837-1.004" stroke="#FFFBF5" stroke-width="2.763" stroke-miterlimit="10"/><path d="M606.657 28.913a4.096 4.096 0 014.095 4.095c0 2.262-1.833 4.095-4.684 4.095m-28.659-8.19a4.094 4.094 0 00-4.095 4.095c0 2.262 1.834 4.095 4.684 4.095" stroke="#FFFBF5" stroke-width="2.763"/><path d="M577.998 28.036v8.404a14.048 14.048 0 0014.052 14.052 14.054 14.054 0 0014.051-14.052v-8.404m-11.04-19.632c-5.581-.957-8.03 1.258-8.03 2.81v1.64" stroke="#FFFBF5" stroke-width="2.763" stroke-miterlimit="10"/><path d="M577.998 33.932v-7.026a14.048 14.048 0 0114.052-14.051 14.054 14.054 0 0114.051 14.051v7.026" stroke="#FFFBF5" stroke-width="2.763" stroke-miterlimit="10"/><path d="M574.986 30.251v-8.03m3.681-1.003h-5.353m35.798 9.033v-8.03m-3.679-1.003h5.353m-23.921 17.618l-2.677 4.015m13.047-4.015l2.677 4.015" stroke="#FFFBF5" stroke-width="2.763"/><path d="M577.997 72.74v81.633h-6.477a4.982 4.982 0 00-4.684 3.346l-.836 2.368h17.397v-7.36h4.015V104.55m16.014-4.375v52.693h-4.015v7.36h-10.706l1.204-4.141a3.653 3.653 0 013.48-2.55v-48.678" stroke="#FFFBF5" stroke-width="2.763" stroke-miterlimit="10"/><path d="M585.693 49.655s-4.015.83-9.702 5.56a24.046 24.046 0 00-8.699 18.529v19.404l2.007 4.015h8.699m18.735-47.508s4.015.83 9.703 5.56a24.023 24.023 0 018.698 18.529v19.404l-2.007 4.015h-8.699" stroke="#FFFBF5" stroke-width="2.763" stroke-miterlimit="10"/></svg>