<svg width="314" height="247" fill="none" xmlns="http://www.w3.org/2000/svg"><path d="M290.926 97.087c-.101.833-.076 1.465 1.111 1.793 4.698 1.238 8.917 3.36 11.619 7.628 1.137 1.819 2.223 7.073 2.198 7.679-.101 2.779-.707 5.456-1.263 8.184-.227 1.187-.505 2.4-.379 3.612.227 1.996 7.325 5.658 9.093 5.76.607.025.379.631.329.934-.404 3.511-1.491 6.744-3.941 9.397-2.273 2.45-5.102 3.586-8.436 3.511-2.097-.026-2.097 0-2.097 2.147v14.827c0 3.081-1.667 4.774-4.774 4.799-.985 0-1.995.025-2.98 0-.556-.025-.809.076-.809.733.051 5.127.051 10.255.051 15.408 0 2.955-.051 5.885-.051 8.84v31.499c0 6.163 0 12.326.026 18.49 0 .53-.379 1.237.606 1.54.353.101.101.985.101 1.516.025 1.541 0 1.541-1.491 1.541H108.225c-1.515 0-1.515 0-1.515-1.491 0-.202.025-.378 0-.581-.126-.858.151-1.161 1.086-1.136 4.471.05 8.967 0 13.438.05.833 0 1.238-.075 1.137-1.086-.278-2.324 2.071-5.127 4.268-6.062 1.794-.758 3.638-.783 5.482-.733.783.026 1.035-.176 1.035-1.01-.025-13.185-.025-26.371 0-39.531 0-.555-.101-1.061-.379-1.54-.277-.455-.505-.935-.757-1.415-2.526-4.774-2.526-4.774-2.526-10.255 0-2.981-.026-5.987.025-8.967 0-.783-.227-1.011-.96-.935-2.4.253-4.799.48-7.224.682-.758.076-1.541-.076-2.299.025-.909.127-1.212-.303-1.288-1.086-.151-1.591-.328-3.157-.48-4.749-.353-3.384-.732-6.744-1.111-10.128-.303-2.779-.278-5.558.278-8.336 1.288-6.517 4.218-12.15 8.638-17.075 1.743-1.945 3.587-3.814 5.835-5.103 1.642-.934 2.147-2.222 2.223-3.94.076-1.314-.05-2.804.53-3.89.834-1.541-.303-2.071-.934-2.829-1.44-1.768-2.829-3.587-3.738-5.709-1.213-2.879-2.122-5.809-2.198-8.992-.126-5.506-.202-11.038.202-16.52.126-1.59.379-3.258 1.086-4.799.733-1.616 1.389-3.208 2.4-4.723 2.576-3.94 5.86-6.972 10.205-8.866 1.54-.657 3.106-1.339 4.748-1.465 3.132-.253 6.239-.91 9.397-.38 2.551.43 4.875 2.502 5.506 4.952.253.985 1.213.732 1.819.833 2.905.48 5.229 1.844 7.199 4.042.758.858 1.44 1.717 2.021 2.702.277.455.631.884.429 1.465-.227.682.581.632.707 1.137.278 1.263.758 2.5.758 3.789 0 6.441.354 12.882-.177 19.298-.303 3.839-1.692 7.452-3.89 10.685a12.844 12.844 0 01-1.894 2.172c-.657.606-.935 1.238-.808 2.097.202 1.49.025 3.031.631 4.47.051.127.101.304.076.43-.329 2.071.808 3.309 2.5 4.142 1.289.632 2.324 1.541 3.259 2.577 1.389 1.541 2.98 2.879 4.218 4.597.91 1.263 1.844 2.501 2.526 3.915 1.263 2.652 2.577 5.305 3.233 8.209 1.945 5.709-.606 26.598-.934 26.902-.354 1.566-5.835-.304-7.679-.632-1.036-.177-1.061.126-1.061.909.025 4.219-.025 8.437.051 12.655.025 1.162-.354 2.097-.91 3.031-1.061 1.769-1.768 3.714-2.627 5.583-.202.429-.126.985-.126 1.465 0 13.109-.025 26.194.025 39.303 0 .985-.177 1.389-1.238 1.263-.833-.101-1.692 0-2.525-.025-.581-.025-.834.126-.809.758.026 1.995.026 3.991 0 5.986 0 .581.228.733.758.682.177-.025.379 0 .581 0 26.472 0 52.943 0 79.44.025 1.061 0 1.465-.278 1.263-1.313-.151-.909.202-1.44 1.061-1.869 4.016-1.996 7.654-4.648 11.443-7.022.48-.304.631-.657.631-1.213-.025-1.92.025-3.839-.025-5.734-.025-.707.126-.985.934-.985 2.703 0 2.703-.025 2.703-2.753 0-11.569-.025-23.138.025-34.706 0-1.162-.277-1.516-1.465-1.465-2.172.101-2.172.025-2.172-2.173 0-7.022-.025-14.019-.025-21.041.05-.176-.025-.227-.177-.202-2.677 0-5.355-.05-8.032-.025-1.642.025-3.031-.455-3.991-1.819-.329-.454-.708-.48-1.188-.48-2.298 0-4.597-.025-6.895 0-2.4.026-4.219-1.111-5.835-2.677-.632-.631-1.137-1.339-.935-2.324.152-.783-.278-.859-.909-.833-3.511.025-7.047-.026-10.558.025-.809 0-1.162-.227-1.44-1.036-1.667-4.951-3.436-9.876-5.153-14.802-2.198-6.34-4.345-12.68-6.517-19.045-.227-.682-.429-1.364-.657-2.021-.404-1.212-.404-1.212.96-1.212h26.649c2.298 0 4.597.025 6.895-.026.783-.025 1.162.253 1.364 1.036.657 2.4 6.871 27.28 9.776 29.377 2.02-.076 4.041-.051 6.062-.076.151.025.227-.051.177-.202.025-1.642 4.294-28.594 3.839-29.225-.404-.581-1.616-.581-2.475-.809-2.375-.606-4.547-1.692-6.669-2.879-.303-.177-.732-.253-.833-.682-.101-.177-.278-.202-.455-.202-2.273-1.415-3.764-3.587-5.355-5.658-1.819-2.4-2.298-5.229-3.081-7.982-.304-1.036-.152-2.198-.152-3.31 0-3.914-.379-11.543.53-14.321 1.39-6.795 5.532-11.746 11.822-14.625 4.066-1.844 8.335-2.855 12.806-2.4 4.698.48 9.043 1.945 12.756 5.052 2.602 1.844 6.138 7.224 6.669 8.639.555 1.44 1.136 2.88 1.389 4.395.101.884.758 10.33.278 13.943zm-3.688 107.377c-.834-.202-1.187-.025-1.162.985.05 6.365.05 12.731 0 19.121 0 .985.328 1.187 1.162.985.151.026.227-.025.177-.202v-20.687c.05-.177-.026-.227-.177-.202zm-35.616-44.355c4.901 0 9.801-.051 14.701 0 .985 0 1.314-.278 1.162-1.188.051-.05.076-.126.126-.176h-.176c-1.945 0-3.89 0-5.861-.026-1.187 0-2.551.329-3.511-.151-.909-.48-1.389-1.794-2.071-2.753-.101-.152-.151-.379-.303-.48-.278-.177-.758-.329-.808.151-.076.783-.607.556-1.011.556-1.541.025-3.056.025-4.597 0-.758-.025-.909.278-.556.884a81.707 81.707 0 002.072 3.082c.126.202.353.075.53.075.051.076.076.177.126.253a1.39 1.39 0 00.177-.227zm35.793 82.471c0-3.839.025-7.653.025-11.493 0-2.273 0-2.273-2.248-2.273-2.753 0-2.956.025-2.703 2.703.253 2.526-.556 4.041-2.829 5.254-2.627 1.389-5.052 3.182-7.578 4.774-.379.227-.555.479-.505.909.051.581.505.328.783.353.581.051 1.137 0 1.718.026 2.02.025 3.965.101 5.809-1.187 1.895-1.314 3.991-2.324 6.164-3.562 0 1.364.075 2.551-.026 3.713-.075 1.01.329 1.187 1.162.985.202.025.278-.025.228-.202zM161.699 120.275c-2.071 1.01-4.117 1.995-6.416 2.475-3.106.657-6.188.632-9.346.253-3.132-.379-5.885-1.718-8.537-3.233-.48-.278-.682-.379-.783.328-.177 1.566-.455 3.107-.657 4.648-.151 1.086.126 1.869 1.288 2.298 1.465.531 2.956.884 4.446 1.289 1.187.328 2.4.58 3.637.656 1.743.101 3.511.127 5.279.127 4.37 0 8.664-.531 12.807-2.122 1.061-.404 1.162-1.036 1.036-1.92-.203-1.465-.455-2.955-.657-4.42-.076-.48-.076-1.061-.48-1.263-.581-.253-1.086.076-1.389.656a.98.98 0 00-.228.228zm109.954 84.391c0 3.132-.025 6.264-.025 9.396 0 7.907.025 15.813.025 23.719.025.076.076.151.101.252.101-.075.227-.151.328-.227 2.223-1.414 4.421-2.854 6.669-4.243.53-.329.555-.758.555-1.263 0-1.92.026-3.815-.025-5.734-.025-.707.227-.935.909-.884.682.05 1.39-.026 2.072.025.505.025.631-.177.631-.657a2654.69 2654.69 0 010-19.955c0-.48-.126-.682-.631-.656-3.486.05-6.947.05-10.432.075-.177-.101-.228-.025-.177.152zm-110.914-69.008h.379c1.667 2.172 3.335 4.344 5.052 6.592 1.844-3.208 3.612-6.34 5.431-9.447.227-.378.126-.581-.152-.858-1.111-1.162-2.349-2.173-3.688-3.107-.479-.329-.858-.329-1.313-.051a17.245 17.245 0 01-3.966 1.869c-4.269 1.39-8.689 1.566-13.109 1.743-1.945.076-3.915-.101-5.835-.454-3.334-.632-6.719-1.238-9.649-3.133-.43-.277-.682-.151-1.011.101a166.088 166.088 0 01-3.384 2.526c-.354.278-.505.581-.253 1.087 1.617 3.182 3.183 6.365 4.799 9.649 1.769-2.35 3.461-4.572 5.204-6.871 1.616 2.147 3.208 4.143 4.647 6.239.682.985.96.783 1.541-.05 1.491-2.072 3.057-4.092 4.597-6.138 1.617 2.197 3.208 4.294 4.749 6.415.48.682.783.708 1.314 0 1.515-2.046 3.081-4.066 4.647-6.112zm141.275-25.26c-.252-.858-.606-1.667-1.136-2.424-1.945-2.804-10.382-6.517-10.609-6.088-.051.682 2.45 1.869 3.006 2.4 2.071 2.096 2.804 4.496 2.298 7.401-.505 2.854-1.086 5.683-1.641 8.512-.682 3.486-1.162 6.997-1.996 10.432-.758 3.082-.455 6.012 1.718 8.437 2.399 2.677 5.329 4.016 9.068 3.283 3.839-.732 5.885-3.233 7.047-6.693.505-1.465.505-1.415-.96-1.617-3.688-.505-6.416-2.627-7.578-6.567-.757-2.653.354-5.128.632-7.679.126-1.187.606-2.349.732-3.536.228-1.895 0-3.789-.429-5.633l-.152-.228zm-14.776 57.011c-.43-.026-.834-.051-1.263-.051-5.785 0-11.569-.025-17.353.025-.809 0-1.162-.126-1.137-1.061.025-1.01.505-2.374-.227-2.904-.682-.48-1.996-.101-3.031-.152-.632-.025-.758.177-.758.783.025 6.239.025 12.478 0 18.717 0 .556.101.809.732.809 7.477-.026 14.929-.026 22.405 0 .682 0 .834-.253.834-.859-.025-5.027-.025-10.028-.051-15.055.076-.177.026-.252-.151-.252zm-154.461 17.706c-.025.152.026.228.177.177 12.125 0 24.274.025 36.399.051.682 0 .808-.228.808-.859-.025-4.143-.025-8.26 0-12.402 0-.48-.05-.682-.657-.783-2.955-.506-5.91-1.162-8.866-1.668-1.515-.252-3.056-.808-4.647-.353-.682.202-1.339.202-2.021.202-1.667 0-3.309.379-4.951.556-2.804.303-5.633.53-8.436.858-2.425.278-4.85.632-7.3.884-.581.051-.556.329-.556.733.025 4.168.025 8.386.05 12.604zm33.722 47.816c.025-.354.05-.682.05-1.036 0-11.695 0-23.364.025-35.059 0-.96-.252-1.188-1.187-1.162-9.245.05-18.464.05-27.709 0-1.011 0-1.339.177-1.339 1.288.05 13.64.025 27.28.05 40.92 0 .909-.227 1.162-1.136 1.137-1.945-.026-3.915-.127-5.86.101-1.592.202-2.779 1.035-3.562 2.399-.581 1.011-.303 1.541.808 1.541 4.017 0 8.058-.025 12.074.025.91.026 1.061-.278 1.036-1.086-.051-2.576.025-5.127-.025-7.704-.026-.859.151-1.238 1.111-1.162 1.213.101 2.45 0 3.688.025.631.026.884-.176.909-.833.051-1.288.127-2.602.278-3.89.202-1.945.531-3.89.632-5.835.101-1.844.429-3.663.505-5.532.126-2.627.606-5.228.884-7.855.278-2.627.429-5.254.682-7.881.151-1.541.177-1.541 1.793-1.541 1.642 0 3.309.05 4.951-.025.935-.051 1.112.278 1.112 1.136-.026 12.074-.026 24.123-.026 36.197 0 1.718 0 1.718-1.743 1.819-2.879.176-3.789.985-3.789 3.283 0 .758.253.859.91.859 3.182-.025 6.365-.025 9.548 0 .732 0 .96-.177.96-.935-.051-2.728 0-5.43-.026-8.158 0-.632.152-.859.834-.834 1.137.051 2.299 0 3.435-.025.076.05.127-.025.127-.177zm107.654-131.5c.986 1.188 1.743 2.501 3.158 3.309 1.945 1.137 3.94 1.819 6.188 1.768.506 0 .91-.075 1.238-.555 1.869-2.88 2.829-6.062 3.183-9.447.252-2.551.126-5.128.202-7.679.05-2.475-.303-4.875-1.162-7.199-2.299-6.163-6.492-10.356-12.781-12.427-3.309-1.087-6.643-1.238-10.053-.607-3.789.708-7.3 2.021-10.23 4.598-2.93 2.55-4.673 5.91-5.684 9.573-.758 2.753-.227 5.683-.353 8.537-.026.506.277.53.656.53.96-.024 1.895-.176 2.829-.15 3.133.05 6.239-.102 9.372.328 3.561.48 6.618 1.844 9.244 4.243 1.491 1.364 2.905 2.855 3.688 4.8.026.252.228.353.505.378zM264.1 134.824c-.429 0-.581.278-.555.682.025.303-.733 10.079-.708 11.165 0 .606.202.783.783.783 1.491-.025 2.981-.051 4.471 0 1.566.025 2.577 1.061 2.602 2.652 0 .758-.051 1.541.025 2.299.101.934-.177 1.263-1.162 1.212-1.995-.076-2.071-.025-1.995-1.97.025-.91-.303-1.036-1.112-1.036-4.799.025-9.573.025-14.372.025-1.844 0-1.869-.682-2.324-1.616-.227-.682-8.285-27.583-8.437-27.937-.176-.96-.656-.833-1.263-.833h-23.44c-1.238 0-2.45.05-3.688-.026-.935-.05-.985.228-.707 1.011.606 1.667 1.136 3.334 1.692 5.026-.076.177.051.202.152.253 1.086 2.576 1.743 5.304 2.753 7.931 1.263 3.36 2.374 6.795 3.486 10.205.707 2.198 1.768 4.294 2.248 6.567.177.91.732.783 1.339.783 8.815 0 29.3.101 29.982-.025 2.551-.454 4.32.404 5.305 2.829.278.657.808.783 1.49.783 3.006-.025 6.012 0 9.018 0 5.91 0 11.796 0 17.706.026.758 0 1.011-.203.985-.96-.05-1.617-.025-3.208-.025-4.825 0-2.172 0-2.122 2.147-2.172.91-.025 1.061.303 1.036 1.111-.051 2.905-.076 5.835 0 8.74.025 1.01-.227 1.288-1.263 1.263-6.163-.051-12.327 0-18.49-.051-.808 0-1.187.152-1.111 1.061a26.264 26.264 0 010 3.436c-.051.732.177.959.96.959 7.653-.025 15.332-.025 22.986 0 1.086 0 1.389-.505 1.389-1.465-.025-5.632-.025-11.265 0-16.898 0-.859-.303-1.238-1.011-1.642-4.319-2.501-6.769-6.113-6.592-11.266.025-1.06.252-2.096.581-3.081.656-2.046.278-3.713-1.541-4.951-.152-.101-.152-.227-.253-.354-1.111-1.54-2.803-2.475-4.066-3.89-.758-.858-2.173-1.288-3.234-2.046-.379-.277-.682-.202-.959.177-.986 1.465-11.847 16.141-14.828 16.065zm-117.784 32.281c-1.641-.505-3.233-.808-4.849-1.035-2.88-.404-5.684-1.288-8.614-1.263-1.844.025-3.688 0-5.506 0-.43 0-.834.076-.834-.606 0-1.44.076-2.855.404-4.269a291.453 291.453 0 001.869-8.134c.127-.581.304-.707.859-.783 2.602-.328 4.875.43 7.073 1.819 2.349 1.49 4.875 2.728 7.275 4.117.757.455 1.566 1.061 2.601 1.036 3.991-.051 7.957-.051 11.948-.025.682 0 .934-.228.808-.859-.404-2.071.455-3.612 2.071-4.799.253-.177.43-.43.657-.657 1.238-1.263 1.288-1.288 2.602-.152.581.505.909.404 1.389-.101.707-.732 1.541-1.364 2.273-2.096.405-.404.809-.607 1.39-.581 2.121.126 4.269.202 6.39.252.581.026.809.152.809.783a237.598 237.598 0 000 6.088c0 .303-.026.556-.253.833a93.943 93.943 0 00-2.576 3.638c-.43.631-.935.859-1.693.859-8.007-.026-16.014-.076-24.021.025-2.173.025-4.067-.379-5.936-1.516-3.006-1.818-6.113-3.435-9.22-5.127-1.137-.632-1.591-.43-1.945.757-.227.809-.783 1.44-.657 2.451.127.909-.353 1.894-.555 2.854-.152.707.025 1.061.858 1.01 1.289-.076 2.627-.151 3.916.025 2.02.278 4.016.682 6.011 1.137 2.274.505 4.623.581 6.82 1.187 2.552.708 5.204.96 7.78 1.465 2.425.506 4.875 1.036 7.325 1.415 2.173.328 4.345.657 6.517 1.162 2.779.631 5.633.909 8.437 1.566.48.101 1.566.657 1.642-.43.101-1.818.404-3.612.53-5.405.126-1.768.505-3.511.581-5.254.126-2.273.733-4.496.43-6.82-.379-3.031-.935-5.986-2.147-8.841-1.061-2.45-2.249-4.824-3.815-6.996-.808-1.137-.833-1.112-1.49.05-2.071 3.612-4.117 7.249-6.214 10.862-.732 1.237-.808 1.237-1.642.126-1.566-2.046-3.106-4.092-4.723-6.239-1.642 2.197-3.258 4.294-4.799 6.416-.505.707-.733.606-1.187-.026-.885-1.263-1.819-2.45-2.754-3.688a650.234 650.234 0 01-2.096-2.727c-1.642 2.197-3.208 4.243-4.724 6.314-.505.708-.758.859-1.338.026-1.364-1.945-2.83-3.815-4.244-5.709-.429-.581-.758-.707-1.162-.025-.101.202-.278.379-.404.555-1.339 1.769-2.652 3.511-3.991 5.254-.48.607-.909.91-1.288-.101-.177-.48-.455-.96-.682-1.414-1.693-3.385-3.36-6.744-5.077-10.104-.152-.278-.329-1.137-.859-.455-1.137 1.516-2.248 3.032-3.208 4.673-1.112 1.945-1.869 4.042-2.652 6.113-.657 1.718-1.162 3.562-1.213 5.355-.076 2.324.101 4.673.303 6.997.329 3.511.985 7.022 1.011 10.558 0 .708.303 1.162 1.136 1.011a19.11 19.11 0 011.667-.228c4.446-.353 8.866-.833 13.312-1.364 3.183-.328 6.391-.606 9.674-.96zM130.1 95.091c0 .354-.051.708 0 1.036.227 1.566-.152 3.183 1.01 4.648 1.491 1.869 3.511 2.576 5.684 3.031.252.05.985.202 1.288-.708.177-.606-.177-.909-.076-1.389.429-2.248 1.566-4.218 3.006-5.835 2.096-2.349 4.9-3.688 7.982-4.268 1.313-.253 2.576-.53 3.688-1.238 2.374-1.516 3.965-3.663 4.572-6.365.833-3.562.858-3.688 4.42-3.511h.227c.455 0 .657.277.758.707.733 3.081 3.562 5.708 6.669 6.213.555.101.858.026.833-.656-.05-1.137 0-2.299-.025-3.436-.152-5-4.572-10.583-10.761-10.381h-.126c-1.692 0-1.692 0-1.743-1.718-.076-1.92-1.263-3.208-3.132-3.587-1.945-.404-3.865-.227-5.81-.151-3.233.151-6.289 1.086-9.017 2.778-2.551 1.592-4.648 3.688-6.365 6.24-1.668 2.5-2.931 6.137-3.158 9.295-.151 3.107.202 6.188.076 9.295zm.581 9.675c.025.53.05.934.151 1.389.531 2.172 1.794 3.915 2.931 5.759 1.768 2.804 4.294 4.875 7.198 6.189 4.017 1.793 8.26 2.854 12.782 1.768 3.485-.834 6.618-2.173 9.346-4.522 3.056-2.652 5.203-5.86 6.264-9.8 1.263-4.724.657-9.548.808-14.322 0-.404-.202-.505-.556-.556-3.738-.48-6.567-2.374-8.638-5.507-.127-.176-.177-.53-.43-.429-.202.076-.379.379-.429.606-.278 1.592-1.137 2.88-2.021 4.143-1.768 2.526-4.016 4.294-7.173 4.9-2.451.455-4.8 1.213-6.82 2.905-2.299 1.945-3.183 4.344-3.057 7.224.025.581.278 1.162.43 1.768.176.657-.026.859-.708.859-1.743.025-3.485-.227-5.203-.429-1.743-.228-3.334-.986-4.875-1.945zm150.823 4.748c-1.415-.252-2.753-.505-4.016-1.061-2.956-1.313-4.976-3.612-6.618-6.264-1.314-2.147-3.006-3.99-5.077-5.304-1.743-1.086-3.764-1.718-5.886-1.895-3.738-.328-7.476-.176-11.24-.227-.328 0-.808-.253-.884.404-.202 2.248-.101 4.597.53 6.669.404 1.338 1.213 2.803 2.122 4.041 1.061 1.44 2.501 2.299 4.269 2.198 2.399-.152 4.269-1.238 5.229-3.587.075-.177 0-.682.555-.48.708.252 1.465.353 2.198.53.429.101.555.303.379.708-.758 1.717-1.642 3.283-3.36 4.319-1.263.758-2.601 1.339-4.041 1.642.05.151.076.252.126.278 3.258 1.717 6.517 3.334 10.356 3.384 1.87.026 3.713-.075 5.583-.303 2.576-.328 4.723-1.869 7.173-2.45.505-1.212 1.869-1.49 2.602-2.602zm-4.244 77.218c-3.056 0-6.112.025-9.194 0-.682 0-1.01.076-1.01.909.05 4.219.05 8.412 0 12.63 0 .758.227.96.985.96 6.163-.026 12.326-.026 18.49 0 .656 0 .934-.101.934-.859-.05-4.244-.025-8.487 0-12.756 0-.733-.227-.884-.909-.884-3.107.025-6.214 0-9.296 0zm-124.275 32.786v-15.61c0-.581-.051-.96-.783-.859-.43.051-.859-.151-.91.632-.176 2.677-.328 5.355-.707 8.007-.581 4.067-.758 8.184-1.313 12.276-.505 3.89-.682 7.83-1.162 11.746-.076.505-.202.631-.682.631-1.187-.025-2.375.025-3.562-.025-.783-.025-1.086.177-1.035 1.01.075 1.213.025 2.45.025 3.663 0 2.753 0 2.753 2.804 2.753 1.945 0 1.995 0 1.919-1.995-.05-1.541.076-2.981 1.314-4.092.884-.783 1.894-1.314 3.056-1.491.884-.126 1.036-.555 1.036-1.364v-15.282zm16.115-30.942h-35.363c.228.252.253.556.303.783.708 2.677 2.4 3.284 5.077 3.233 8.993-.202 18.01-.076 27.003-.076.454 0 .985.177 1.263-.48.53-1.136 1.111-2.248 1.717-3.46zm110.206-73.681c4.421 1.869 7.654 4.799 10.71 8.032.202-.328.354-.505.404-.707.708-3.612 1.465-7.224 2.072-10.862.202-1.288.353-2.652-.632-3.839-.707-.859-1.364-1.718-2.399-2.248-.48-.253-.758-.152-.96.353-.606 1.415-1.415 2.703-2.476 3.789-1.945 1.971-3.662 4.219-6.719 5.482zM267.03 240.711c.682-.404 1.415-.379 1.415-1.238v-9.977c0-.48-.152-.682-.657-.657a84.548 84.548 0 01-3.561 0c-.556-.025-.733.202-.708.733.026 1.414-.025 2.829.026 4.243.025.783-.202 1.263-.884 1.667-1.718 1.061-3.41 2.173-5.103 3.284-2.096 1.364-4.168 2.753-6.34 3.991.935.076 1.869 0 2.753.101 3.335.404 6.29-.429 9.018-2.4 1.212-.884 2.602-1.515 4.041-2.323v2.576zm9.422-123.871c-.48 0-.732-.051-.934 0-2.627.808-5.305 1.288-8.033 1.364-.429 0-.429.328-.53.606-1.314 3.965-1.996 8.083-2.703 12.175-.101.656.278.732.732.53.859-.379 1.415-1.035 1.971-1.819 1.591-2.273 3.309-4.445 4.976-6.668 1.439-1.97 2.904-3.991 4.521-6.188zm-109.246 41.172h3.789c.303 0 .656.025.884-.101 1.162-.707 2.273-4.294 1.743-5.557-.051-.101-.101-.202-.202-.253-.607-.378-3.587-.025-4.143.506-1.036.985-2.071 1.97-3.082 2.98-.909.884-1.212.354-1.768-.101-.96-.783-1.389-.682-1.919.404-.632 1.263-.127 2.147 1.237 2.147 1.187-.025 2.324-.025 3.461-.025zm99.875 56.935v9.649c0 .454-.202.985.657 1.01.833.025.682-.505.682-.96v-19.298c0-.48.151-.985-.682-.96-.859.025-.632.581-.632 1.011-.025 3.207-.025 6.365-.025 9.548zm-26.118-59.789c-1.137 0-2.299-.025-3.435.025-.354.025-.885-.278-1.061.278-.177.581.075 1.111.581 1.364.833.429 1.667.935 2.652.96 1.692.025 3.359.025 5.052.05.48 0 .707-.101.656-.631-.025-.379-.05-.758 0-1.137.101-.707-.151-.934-.884-.909-1.187.05-2.374 0-3.561 0zM57.302 105.346c.38.303.253.884.253 1.238 0 9.043 0 18.06-.025 27.103 0 .606.227.985.631 1.364 2.097 1.869 3.94 3.94 5.38 6.365.329.556 1.87 3.309 2.122 3.941 1.036 2.576 2.223 5.153 2.45 7.931.228 2.829.733 5.633.707 8.538-.1 11.367-.025 22.733-.05 34.125 0 5.052-1.39 9.599-4.85 13.413-2.753 3.031-6.087 5.077-10.18 5.734-.883.126-1.237.429-1.136 1.364.101.934.05 1.919.05 2.854-1.06.202-2.121.05-3.157.101a68.624 68.624 0 01-.025-3.208c.025-.657-.202-.884-.859-.859-1.87.025-3.738-.025-5.607.025-1.087.026-2.602-.505-3.183.228-.556.682-.152 2.122-.202 3.208-.05.631.151.859.808.859 2.93-.051 5.886-.026 8.84-.051h3.461c1.112-.177 1.465.253 1.415 1.415-.101 2.803 0 5.582-.05 8.386-.026.985.227 1.364 1.288 1.288 1.717-.126 3.384-.051 4.875 1.086 1.869 1.415 2.803 3.258 2.88 5.557.05 1.793.075 3.612-.026 5.406-.05.884.177 1.06 1.036 1.06 7.476-.025 14.953 0 22.404-.05 1.162 0 1.516.328 1.314 1.389a1.379 1.379 0 000 .455c.177 1.086-.177 1.389-1.339 1.389-28.366-.025-56.707-.025-85.073 0-1.111 0-1.54-.202-1.44-1.414.127-1.794.026-1.819 1.794-1.819 2.172 0 4.37-.025 6.542.025.732.025 1.01-.05.985-.934-.05-2.147-.227-4.295.076-6.416.379-2.627 1.894-4.471 4.32-5.456.782-.329 1.06-.657 1.035-1.491-.05-2.955 0-5.91-.025-8.84 0-.758.126-1.162.985-1.011.985.177 1.364-.177 1.262-1.212-.1-.935.278-2.097-.126-2.829-.404-.733-1.667-.505-2.551-.758-3.789-1.036-6.896-3.107-9.371-6.087-2.854-3.461-4.37-7.477-4.37-11.973 0-12.529 0-25.058.126-37.586.076-8.942 3.436-16.595 9.498-23.112.43-.455.631-.884.631-1.516-.025-17.959.026-35.944-.05-53.903-.026-3.612 1.136-6.416 4.294-8.26a7.71 7.71 0 013.966-1.06c9.85 0 19.702-.026 29.553 0 4.117 0 7.426 2.146 8.538 6.365.353 1.313.277 2.702.277 4.041 0 1.692.026 3.385-.025 5.052-.025.732.202.91.91.884 3.359-.025 6.744 0 10.103 0 .076.076.152.126.227.202v2.753c-.075.05-.151.127-.202.177-3.334 0-6.643.05-9.977 0-.884-.025-1.06.253-1.06 1.086l-.077 13.438h-2.98c0-.909-.177-9.371-.127-13.514 0-.808-.227-1.01-1.01-1.01-3.132.05-6.29-.025-9.422.025-6.744.127-13.513-.404-20.232.506-.152-.026-.228.025-.177.176 0 3.057.126 6.138-.101 9.169-.152 2.097.606 3.638 1.97 5.052.581.606 4.345 3.259 5.709 3.89.682.303 1.313.682 1.642 1.44.858-.657 1.06-1.642 1.515-2.475.96-1.693 2.147-2.93 4.294-2.88 2.728.051 5.43.025 8.159 0 1.06 0 1.894.429 2.753 1.036 1.137.808 1.54 2.02 2.172 3.132.127.227.102.581.607.404 1.414-.505 2.324-1.768 2.349-3.309 0-.455-.076-1.187-.076-1.642.96-.05 1.819-.227 2.955 0zM13.907 91.933c.076-.025.152-.075.202-.1l.227-.228c.91-.707 1.794-1.414 2.83-1.894 2.879-1.844 28.138-2.072 35.716-2.021 1.111 0 1.313-.354 1.263-1.339-.076-1.995-.152-3.99 0-5.961.227-3.157-1.996-6.012-5.91-5.961-9.372.126-18.768.05-28.14.025-1.389 0-2.753.126-3.965.834l-.228.151c-.96.682-1.667 1.617-1.818 2.753-.202.455 0 .455-.202.784.025 4.117.05 12.907.025 12.957zm17.025 76.612c.328 0 .656.025.985.025 1.288.834 2.096 1.819 1.995 3.511-.075 1.364-.631 2.248-1.692 2.854-1.187.657-2.45.859-3.637-.05-.076-.051-.152-.076-.228-.126-1.869-1.263-1.869-4.497 0-5.76l.227-.151c.278-.152.556-.278.86-.455-3.006-.227-5.86-.783-8.589-1.945-.53-.227-.758-.177-.758.455.026.884 0 1.768 0 2.652v28.695c0 .53-.202 1.111.784 1.111 5-.05 10.027-.05 15.029-.05.151.025.278.025.252-.177.026-.43.076-.834.076-1.263v-26.952c0-2.526 0-2.526-2.576-2.526h-1.137c-.53-.202-1.06-.025-1.591-.05-.253.075-.556-.379-.834.076.253.202.556.126.834.126zM12.72 243.009c4.976 0 9.952.025 14.928.025.151 0 .278-.101.43-.151 1.49-2.046 1.313-4.37 1.136-6.669-.101-1.338-1.339-2.349-2.677-2.399-.076-.228-.152-.531-.48-.177-3.335 0-6.644 0-9.978-.025-1.616-.026-3.688 1.793-3.587 3.688.101 1.742.026 3.511.05 5.279-.05.202-.176.404.178.429zm7.603-27.684c-.177-.076-.253-.025-.202.177 0 1.111.025 2.223-.026 3.334-.025.606.177.783.784.783a382.82 382.82 0 017.577 0c.581 0 .834-.126.783-.758-.05-.884-.05-1.768 0-2.627.05-.707-.202-.909-.91-.909h-8.006zm8.891 15.534c0-2.45 0-4.9.05-7.35 0-.53-.151-.758-.707-.758-3.283.025-6.592 0-9.876 0-.505 0-.733.152-.707.733.025 2.071.05 4.142 0 6.188-.026.682.303.707.833.707 2.173-.025 4.37 0 6.542 0 1.188 0 2.324.228 3.46.48.127.127.279.455.405 0zm-9.093-18.868c-.05.202 0 .252.202.177 9.346 0 18.692 0 28.038.025.833 0 1.136-.177 1.11-1.061-.075-2.526-.05-5.052 0-7.578.026-.833-.277-.985-1.035-.985-9.118.025-18.237.025-27.355 0-.733 0-.986.152-.986.935.05 2.803.026 5.658.026 8.487zm19.298-12.857c-.025.151.025.227.177.177h9.421c.152.05.202-.051.228-.177.227-.101.176-.303.176-.48 0-9.801 0-19.601.026-29.427 0-.682-.228-.859-.86-.834-2.752.026-5.506.051-8.284 0-.808-.025-.935.278-.935 1.011.05 9.901.05 19.828.05 29.73zm13.311-5.279c0 .151.05.227.203.176H65.36c.152.051.227-.025.202-.176 0-.455 0-.91.05-1.364.076-.783-.025-1.162-1.035-1.213-1.667-.05-3.385-1.995-3.334-3.435.05-1.895 1.465-3.511 3.384-3.562.935-.025 1.01-.328.986-1.086-.026-7.78 0-15.56-.026-23.339 0-1.844-.025-3.663-.43-5.507-.934-4.319-2.247-8.462-4.874-12.099-.783-1.086-1.44-2.248-2.5-3.082l-.152-.151c0 .05 0 .101-.026.177 0 3.839.026 7.653-.025 11.493-.025 1.717.278 3.308 1.112 4.799.252.454.454.682 1.06.682.758.025 1.541.101 2.299.076.733-.026.96.176.985.934.05 1.415-.252 2.804-.556 4.143-.454 2.02-1.566 3.688-3.081 5.153-1.592 1.515-3.638 1.692-5.633 1.869-.935.075-1.212.278-1.187 1.237.025 7.78.025 15.56.025 23.315.025.278.101.606.126.96zm-48.952-2.526v2.526c-.025.151.025.227.177.176H16.61c.177.051.227-.05.227-.202.177-.202.126-.429.126-.656 0-9.422 0-18.844.025-28.266 0-.555-.201-.909-.555-1.288-1.415-1.541-2.551-3.208-3.31-5.178-.48-1.263-.58-2.677-.984-3.89-.657-1.894-.834-3.839-.935-5.708-.126-2.754-.657-5.507-.404-8.285 0-.051.025-.101.025-.177-.05.025-.1.075-.176.101-2.855 3.283-4.775 7.123-5.86 11.291-.506 1.919-.935 3.915-.91 5.986.05 8.715-.05 17.454-.076 26.169-.05.177 0 .278.202.227.404.076.809.177 1.213.227 1.212.152 2.955 2.147 2.45 3.815-.556 1.894-1.39 2.98-3.663 2.904-.202 0-.252.051-.227.228zm30.892-76.763c-.758-.202-5.91-2.4-7.4-3.334-2.628-1.642-4.901-3.638-6.619-6.24-.379-.58-.53-1.136-.53-1.818.025-3.334-.026-6.669.025-10.003.025-1.036-.354-1.187-1.213-.808-1.641.732-2.955 1.819-3.687 3.486a15.008 15.008 0 00-1.289 6.289c.202 14.221-.48 28.442.329 42.663.151 2.602-.101 5.203.48 7.805.606 2.829 1.313 5.582 3.157 7.906.455.556.808 1.263 1.44 1.592 2.374 1.237 4.622 2.677 7.451 2.778 1.39.051 2.779.303 4.193.303 7.326-.05 14.625 0 21.95.076 3.916.025 5.633-1.591 6.619-5.178.151-.53.075-.834-.632-1.01-1.364-.354-2.576-1.162-3.183-2.425a14.053 14.053 0 01-1.364-6.113c.051-12.301.026-24.603 0-36.904 0-.278.102-.606-.151-.909-1.617.707-3.082 1.768-4.926 1.97a16.219 16.219 0 00-.505-1.768c-.227-.455-.227-1.162-.278-1.718-.151-1.414-1.389-2.349-2.829-2.349h-6.213c-2.021 0-3.259 1.213-3.436 3.41.101-.025-.202 2.627-1.389 2.299zm4.95 118.238v9.296c0 .555.026.934.784.934 6.29-.025 12.554-.025 18.843 0 .556 0 .758-.202.758-.732-.025-1.718.076-3.461-.025-5.178-.127-2.072-1.693-3.461-3.814-3.511-1.39-.026-2.754-.101-4.143-.051-.96.051-1.137-.328-1.111-1.187.05-2.905 0-5.81.025-8.74 0-.758-.202-.96-.96-.934-3.107.05-6.214.025-9.295 0-.758 0-1.086.126-1.061.985.025 3.081 0 6.113 0 9.118zm-22.657-28.138c0-2.173-.025-4.37 0-6.543 0-.606-.1-.884-.808-.884a880.56 880.56 0 01-11.72 0c-.53 0-.733.152-.708.708.101 1.389.43 2.753.935 4.041 1.036 2.753 2.652 5.102 4.976 6.972 1.819 1.49 3.89 2.425 6.163 2.98.809.202 1.238.051 1.187-.985-.075-2.071-.025-4.193-.025-6.289zm35.666-.127v6.643c0 .379-.151.935.581.783 3.031-.631 5.658-1.995 7.83-4.193 2.678-2.728 4.093-6.062 4.547-9.851.101-.757-.353-.682-.808-.682-3.738 0-7.502.026-11.24-.025-.809 0-.91.303-.91.985.026 2.147 0 4.244 0 6.34zm-21.42 39.203c1.743 0 3.259-.026 4.774 0 .48 0 .506-.177.506-.607-.026-8.259-.026-16.519-.026-24.779 0-.985.43-2.324-.202-2.854-.606-.505-1.894-.127-2.88-.202-.782-.076-.96.227-.96.96.051 2.172.077 4.369.077 6.542 0 4.016.05 8.032-.076 12.048-.101 2.956.758 6.037-1.212 8.892zm33.949-56.278c-.126.101-.253.126-.278.202-.05.152.05.202.177.177.076 0 .177-.051.177-.101 0-.076-.05-.152-.076-.278z" fill="#fff"/><path d="M59.222 60.94c0-2.728-.025-5.43-.025-8.159 0-.656-.102-.985-.86-1.136-4.622-1.036-7.527-4.017-8.992-8.437a7.008 7.008 0 01-.328-2.096c.025-10.104-.05-20.233.076-30.337.05-3.334 1.743-6.037 4.294-8.159C55.407.95 57.807.04 60.459.04c15.106-.025 30.185-.076 45.29 0 5.684.025 9.927 3.764 11.19 8.79.253.985.379 2.021.379 3.031.025 9.422.025 18.844.025 28.265 0 5.633-3.915 10.433-9.447 11.57-.884.176-1.793.227-2.702.227-10.154.025-20.309.025-30.463 0-.834 0-1.54.176-2.248.656-4.041 2.754-8.108 5.431-12.276 7.982-.177.127-.328.303-.505.455-.177-.025-.329-.05-.48-.076zm3.157-5.43c3.107-2.072 6.037-3.992 8.942-5.987a4.298 4.298 0 012.551-.783c10.23.025 20.46.025 30.69.025.657 0 1.314.126 1.945 0 4.648-.884 7.628-4.041 7.628-8.967 0-9.245-.05-18.464.026-27.71.025-4.9-3.612-8.916-8.689-8.916-14.878 0-29.73.025-44.608-.025-4.825-.025-8.74 4.142-8.664 8.866.126 9.27.025 18.54.05 27.81 0 .657.026 1.314.152 1.945.556 3.31 3.536 6.972 8.588 6.921 1.238-.025 1.515.354 1.44 1.516-.127 1.692-.05 3.385-.05 5.304z" fill="#FEFEFE"/><path d="M234.446 73.014c-2.425-1.617-4.85-3.233-7.275-4.825-1.97-1.313-3.94-2.601-5.86-3.94-.657-.455-1.339-.606-2.147-.606-10.079.025-20.157-.025-30.235.025-5.911.025-10.483-3.208-12.226-9.22-.253-.858-.177-1.818-.177-2.753 0-9.295.051-18.616-.025-27.911-.051-5.633 3.713-10.357 8.841-11.645 1.061-.252 2.172-.353 3.258-.353 14.701-.026 29.427-.026 44.128 0 7.401 0 12.125 5.683 12.074 12.099-.076 9.22-.025 18.464-.025 27.684 0 3.612-1.187 6.744-3.966 9.093-1.49 1.263-3.233 2.172-5.178 2.602-.758.177-1.111.43-1.086 1.313.076 2.4.025 4.825.025 7.25.051.353.152.732-.126 1.187zm-50.443-13.665c0 .126.025.252.202.151 1.692.809 3.511.96 5.38.96 10.18-.025 20.385 0 30.564-.025.859 0 1.541.227 2.223.682a929.962 929.962 0 008.209 5.481c.227.152.429.48.859.253 0-1.768.05-3.562-.025-5.355-.026-.783.202-1.036 1.01-1.01 1.591.05 3.132-.152 4.572-.986 3.233-1.844 4.648-4.647 4.648-8.31-.026-8.992-.101-18.01.025-27.002.076-5.355-3.89-9.422-9.245-9.296-6.214.152-12.402.026-18.616.026-8.386 0-16.772-.026-25.158 0-5.153.025-8.917 3.536-8.967 8.462-.076 9.548-.051 19.07 0 28.618.025 2.98 1.338 5.38 3.814 7.123.05.101.076.253.227.127.126.05.202.076.278.1z" fill="#fff"/><path d="M52.73 219.542h-3.46c.076-.05.152-.126.227-.176 1.061-.051 2.122.101 3.158-.101.025.101.05.202.075.277z" fill="#404040"/><path d="M253.213 113.378c.177 0 .354.025.455.202-.151-.076-.303-.126-.455-.202z" fill="#F6F6F6"/><path d="M59.222 60.94l.455.076c-.177.177-.38.38-.455-.076z" fill="#C7C7C7"/><path d="M68.34 90.823a1.45 1.45 0 00.203-.177c.051.151-.05.202-.202.177z" fill="#F6F6F6"/><path d="M68.568 87.867c-.076-.076-.151-.126-.227-.202.177-.025.252.025.227.202z" fill="#C7C7C7"/><path d="M260.109 163.316c.152-.026.228.025.178.202a1.405 1.405 0 00-.178-.202z" fill="#404040"/><path d="M273.673 100.977c.127.176.506.101.48.429-.278 0-.48-.101-.48-.429z" fill="#F6F6F6"/><path d="M271.652 237.756c.152 0 .303 0 .43.025-.101.076-.228.152-.329.227-.025-.075-.075-.176-.101-.252z" fill="#2E2E2E"/><path d="M251.344 160.107h.253c-.051.076-.076.152-.127.254-.025-.102-.076-.178-.126-.254z" fill="#C7C7C7"/><path d="M287.237 242.783c.051-.076.127-.127.178-.203.05.177-.026.228-.178.203zm-154.46-57.669l.177.178c-.152.05-.228-.026-.177-.178z" fill="#404040"/><path d="M160.739 135.657c.126-.328.252-.252.379 0h-.379zm141.426-25.031c-.126-.026-.252-.051-.176-.228.075.076.126.152.176.228zm-140.288 9.421c.025.152-.051.228-.203.203a.784.784 0 00.203-.203z" fill="#F6F6F6"/><path d="M271.829 204.438c-.051.076-.127.152-.177.227-.051-.176 0-.252.177-.227z" fill="#2E2E2E"/><path d="M287.415 204.666c-.051-.076-.127-.127-.178-.203.152-.025.228.025.178.203zm-.001-37.03c-.051-.075-.126-.151-.177-.227.177 0 .227.076.177.227z" fill="#404040"/><path d="M275.744 123.228c.076-.05.152-.126.227-.176z" fill="#F6F6F6"/><path d="M287.237 225.53c.051-.076.127-.127.178-.203.05.178-.026.254-.178.203zm-120.941 7.578c.076-.051.127-.127.203-.177 0 .152-.051.228-.203.177z" fill="#404040"/><path d="M267.485 158.921c-.076-.051-.102-.102-.051-.178h.177a.779.779 0 00-.126.178z" fill="#777"/><path d="M213.961 126.261c.05.076.101.177.152.253-.127-.051-.228-.076-.152-.253z" fill="#212121"/><path d="M12.72 242.833c.404-.253.884-.228 1.338-.228h12.453c.53 0 1.061.025 1.541.303-.152.051-.278.152-.43.152-4.976 0-9.952-.025-14.928-.025.026-.076.026-.152.026-.202z" fill="#202020"/><path d="M30.932 168.342a.278.278 0 000 .202c-.278 0-.581.076-.834-.126.278-.455.556.025.834-.076z" fill="#FEFEFE"/><path d="M65.158 187.463c.026.126.076.227.076.303 0 .051-.1.076-.177.101-.126 0-.227-.05-.177-.177.026-.101.127-.151.278-.227z" fill="#F6F6F6"/><path d="M26.511 233.814c-.202.051-.404.101-.48-.177.329-.353.404-.05.48.177z" fill="#C7C7C7"/><path d="M28.784 230.885c.152 0 .303-.026.43-.026-.127.455-.278.127-.43.026zM12.72 242.832v.202c-.33-.025-.228-.253-.178-.43.051.051.101.127.177.228z" fill="#404040"/><path d="M28.557 174.909c-.177.101-.177-.025-.227-.126.075.025.151.076.227.126z" fill="#FEFEFE"/><path d="M10.775 140.558l-.101.026-.051-.076c.05-.026.101-.076.177-.102-.025.051-.025.102-.025.152zm-6.997 43.394c.076.076.126.152.202.227-.202.051-.252-.05-.202-.227z" fill="#777"/><path d="M28.33 169.024c.05-.101.075-.253.227-.152l-.227.152z" fill="#FEFEFE"/><path d="M3.98 191.126l-.177.178c-.05-.152 0-.203.178-.178zm-.202 2.728l.178.178c-.152.025-.203-.025-.178-.178zm12.832.177c.076-.076.151-.126.227-.202 0 .177-.05.252-.227.202zm36.12-.177c.077.051.153.127.203.178-.152.051-.203-.025-.203-.178zm12.63.178c.076-.051.127-.127.203-.178.025.153-.05.229-.203.178z" fill="#2E2E2E"/><path d="M35.933 199.336c.076-.051.152-.127.253-.178.025.178-.101.203-.253.178z" fill="#212121"/><path d="M39.419 199.134l.177.177c-.152.051-.202 0-.177-.177zm9.623.201c.076-.051.152-.126.228-.177-.026.126-.076.202-.228.177z" fill="#202020"/><path d="M23.506 91.352l-.177.177c-.051-.152.025-.202.177-.177z" fill="#2E2E2E"/><path d="M20.12 211.99c.077.051.128.127.204.178-.178.076-.254 0-.203-.178zm.204 3.335c-.076.05-.127.126-.203.177-.05-.203.025-.253.203-.177z" fill="#777"/><path d="M57.783 139.143l-.076.026h-.076c0-.051 0-.102.025-.178a.65.65 0 00.127.152z" fill="#404040"/><path d="M184.002 59.349c.076.05.152.101.203.152-.152.101-.203 0-.203-.152zm-.479-.227c.076.05.151.101.227.126-.151.126-.177-.025-.227-.126z" fill="#212121"/><path d="M150.256 116.157c-3.713-.303-6.87-2.475-8.083-6.037-.025-.101-.101-.253-.076-.328.556-.809 1.541-.581 2.299-.91.404-.177.657-.101.834.404.454 1.263 1.313 2.223 2.475 2.905 2.854 1.667 6.466.48 7.881-2.576.379-.809.707-.834 1.44-.632 2.248.632 2.298.632 1.086 2.653-1.465 2.475-3.562 4.041-6.517 4.268-.505.051-1.011.329-1.339.253zm-119.324 69.64c-1.945-.026-3.764-1.794-3.738-3.612.025-1.188 1.616-3.461 2.425-3.436 3.435.101 5.051 1.516 4.925 4.269-.05 1.111-2.223 2.804-3.612 2.779zm-.177 3.461c2.728-.101 3.536 1.818 3.764 4.142.126 1.213-2.248 2.753-4.118 2.753-1.515 0-2.955-1.768-3.056-3.536-.05-1.566 1.44-3.688 3.41-3.359z" fill="#FEFEFE"/><path d="M83.522 18.328c4.976 0 9.952.025 14.928-.025.808 0 1.238.075 1.187 1.086-.076 2.071-.025 2.071-2.122 2.071-9.725 0-19.45-.025-29.174.025-.96 0-1.238-.252-1.187-1.212.075-1.996.025-1.996 2.02-1.996 4.774.026 9.574.026 14.348.05 0-.024 0-.024 0 0zM81.324 33.61c-4.395 0-8.815-.026-13.21.025-.733 0-.986-.177-.986-.935 0-2.273-.025-2.273 2.299-2.273 8.31 0 16.62.025 24.93-.026 1.037 0 1.39.228 1.34 1.314-.101 1.894-.026 1.894-1.97 1.894H81.323zm129.58-3.639c5.052 0 10.104.026 15.156-.025.859 0 1.212.127 1.187 1.112-.076 2.096 0 2.096-2.097 2.096-9.775 0-19.525-.025-29.3.025-1.036 0-1.289-.277-1.238-1.263.076-1.945.025-1.945 1.945-1.945h14.347zm2.172 12.125c4.319 0 8.664.026 12.983-.025.834 0 1.213.127 1.162 1.086-.076 2.097 0 2.097-2.122 2.097-8.386 0-16.772-.025-25.158.025-.96 0-1.339-.177-1.288-1.238.101-1.97.025-1.97 1.995-1.97 4.168.026 8.311.026 12.428.026z" fill="#2FE4D0"/></svg>