<svg version="1.1" id="Layer_1" xmlns="http://www.w3.org/2000/svg" x="0" y="0" viewBox="0 0 194.5 184.7" xml:space="preserve"><style>.st0{fill:#16013e}</style><path class="st0" d="M91.6 149.1c-.3-1.1-1.4-1.6-2.2-2.2-2.9-2-2.6-4.6-1.6-7.3.4-1.1.9-2.1 1.6-2.9.7-.9.5-1.8-.1-2.4-1.5-1.4-1.1-3.2-.7-4.7.7-2.9 2-5.7 3.3-8.4 1.4-3.1 3.1-6 5-8.8.6-.9 1.3-1.7 1.9-2.5.7-.9.5-1.4-.7-1.7-2.9-.7-5.7-1.8-8.6-2.8-3.9-1.4-7.8-3.1-11.6-4.8-.9-.4-1.7.1-2.5.2-3 .2-5.9.2-9.2.2 4 6.1 7.9 12 12 18.2-2.4-.3-3-2-3.9-3.3-3.1-4.5-6-9.1-9-13.6-.6-.9-1.3-1.4-2.6-1.4-2-.1-4.2.4-6-1.3-.7-.6-1.2-1.2-1.5-2-.6-1.5-.3-2.3 1.3-2.8 1.3-.4 2.6-.6 4-.6h6c-2.4-2.1-4.4-4-5.8-6.4-1.9-3.1-2.2-6.2-.8-9.5 2.6-6.2 7.4-10.6 12.6-14.5 4.3-3.2 9-5.7 13.9-8 3.9-1.8 7.9-3.4 12.1-4.8 2.8-.9 5.5-1.9 8.3-2.7 5.2-1.5 10.5-2.8 15.9-3.3.7-.1 1.3 0 2 .2-3.2 1.2-6.5 2.2-9.8 2.7-1.6.2-3.1.8-4.7 1.2-3.1.8-6 1.9-9.1 2.8-4.2 1.3-8.3 2.9-12.3 4.6-4.2 1.8-8.2 3.9-12 6.4-.8.5-.3 1.1-.1 1.5 2.4 4.4 5.4 8.4 9.8 11 2 1.2 4.2 1.9 6.5 2.4 1.9.4 3.4-.9 5-1.4 3.3-1.2 6.7-1.9 10.1-2.7.4-.1.8 0 1.2 0 .1.6-.4.8-.7.9-3.7 1.1-7.5 2-11 3.4-3.2 1.3-6.5 2.6-9.3 4.7-1.1.8 0 1.4.5 1.7 4.1 1.7 8.1 3.6 12.1 5.4 4 1.9 7.9 3.9 11.3 6.6 2 1.6 3.7 3.4 4.8 5.7.5 1.2.6 2.4.6 3.6 0 4.2-1.2 8-2.8 11.8-1.7 3.9-3.8 7.5-6.1 11.1-2 3.1-4.1 6.1-6.7 8.8-1 1-2.3 1.6-3.8 1.6-.8 0-1.9-.6-2.2.6-.4 1.4-1.5 2.8 0 4.2 1.9 1.8 3.8 3.7 5.7 5.5 1.4 1.4 2.2 3.5 1.5 4.1-1.4 1-3 .5-4.3-.2-2.2-1.1-4.5-2.1-6.4-3.7-.2-.4-.6-.4-.9-.4zm-.5-12.3c-.1.1-.3.2-.4.3-.8 1.5-1.7 3-2.3 4.6-.3.9-.4 2 .5 3 3.2 3.4 7.2 5.4 11.4 7.2.3.1.8.4 1-.1.2-.4-.2-.5-.4-.8-1.8-1.8-3.6-3.6-5.6-5.4-1.6-1.4-2.4-3.2-1.6-5.1.5-1.2 0-1.6-.6-2.1s-1.3-1-2-1.6zM58.9 98.4c-.6-.9-.4-1.9-1.5-2-.3 0-.4.3-.4.6 0 .9.6 1.3 1.9 1.4zm95.6-76.9c-3.2 2.9-6.6 4.5-10.5 5.9 1.3.2 2.1.2 2.9.5 2.2.7 3.3-.9 4.7-1.9 2.8-2 6-1.6 8.2 1 .6.7.4 1.5.8 2.3-.8 0-1-.5-1.4-.9-1.7-2-3.9-2.8-5.8-1.9-2.1.9-4.3 3.7-3.9 6.3.5 3.2 4.3 4.9 7 3 .6-.4.7-.7.4-1.3-.2-.4-.5-.8-.3-1.2.3-.8.4-1.2-.6-1.4-.3 0-.6-.3-.5-.7.1-.4.4-.7.9-.5 1 .3 2 .6 2.9.9.6.2.6.6.6 1.1.1 3.4-4.5 6.6-7.7 5.4-2.6-1-4.5-4.2-3.9-6.9.3-1.2.1-1.6-1.1-1.5-.3 0-.5 0-.8-.1-3.2-.6-3.2-.6-3.4 2.7-.1.9-.1 1.8-1.2 2-1 .2-1.7-.4-2.1-1.3-.4-.9-.8-1.9-1-2.9-.2-1.1-.6-2.3-1.8-2.6-.9-.2-1.9-.2-2.6.8-.8 1.2-1.2 2.3-.4 3.6.9 1.6 1.3 1.9 4.8 3.3-.6.8-1.4.7-2.2.7-.4 0-1-.2-1.1.3-.1.4.2.8.4 1.2.1.3.4.5.7.7.4.2.5.5.3.8-.3.4-.7.3-1 0-.9-.9-2-1.8-2.2-3.2-.1-.5-.2-.9-.4-1.5-.7.7-1.4 1.3-2 1.9-2.4 2.4-7.3 2-9.3-1.7-1.1-2 0-5.6 3.6-6.5.5-.1.9-.2 1.7-.3-1.4-1.2-2.7-2-3.6-3.3-2.6-4.2-2.7-7.4.8-11.9 2.8-3.6 7.6-3 11.1-.7.4.2.7.6 1.1.7.8.2 1.4.5 1.6-.9.7-3.9 2.7-7.1 6.2-9.2 3.3-2 6.9-2.5 10.6-1.8 3.5.7 6.1 5 5.4 8.5-.1.5-.2 1.1-.1 1.8 2.2-1.6 4.5-3 7.2-3.6 4.2-1 8.5 2.4 9.1 6.5.3 2.4.4 4.7-.7 6.9-1 2.2-2.5 3.9-4.9 4.8-.3.1-.8.1-.9.7.6.6 1.4.3 2.1.4.4 0 1-.3 1 .4s-.6.5-1 .5c-4.7.4-8.1-1.9-10.6-5.5-.9-1.3-2-2.6-2.7-4.1-.4-.9-1.1-.1-1.3.3-.9 1.2-1.9 2.3-3.1 3.6 1.4.5 2.8.1 4 .2 1.4.1 2.1 1.1 3 1.7.3.2.4.7.1 1-.4.4-.7.2-1-.1-1.3-1.5-3.1-1.3-4.8-1.3-.6-.1-1.6.1-1.3-1.7zm-13-13.9c2.6-2.6 5.6-4.3 9.2-4.7 4.1-.4 6.6 2 8.5 5.6.2-2.6-1.4-4.9-3.2-6.1-3.8-2.5-12.6.3-14.5 5.2zM169 8.9c6.2 2.6 6.1 7.3 4.3 12.9 2.9-3.5 2.6-6.8.9-10.1-1-2-2.8-2.9-5.2-2.8zM123.8 19c.8-4.9 4.1-6.7 8.8-6.9-2.3-1.9-4.4-1-6.1.3-2 1.6-3 3.9-2.7 6.6zm1.7 16.5c-1.8-2-1.7-3.9.3-5.9-1.6 0-2.2.9-2.5 2-.5 1.5.2 2.6 2.2 3.9z"/><path class="st0" d="M54.7 112.4c-2.8 1-5.4 1.6-7.9 1.8-9.9.8-19.7.5-29.5-.6-3.3-.4-6.4-3.7-6.5-6.7-.1-1.5.6-1.9 1.9-1.9 2.3 0 4.6-.1 6.8-.1h21.3c.7 0 1.8.5 1.8-.7 0-1-.6-1.6-1.9-1.7-1.7-.1-2.9.7-4.3 1.3-.8.4-1.8.9-2.5-.1-.6-.8-.2-1.5.4-2.3 1-1.3 1.9-2.7 2.8-4 .8-1.4 1-2.9.3-4.3-1-1.9-1.2-1.9-2.8-.5-1 .9-3.8 1-4.8 0s-1.8-.8-2.7.1c-2 2-3 4.5-4 7.1-.2.4-.2.9-.9 1.2-.4-3.1 1.2-5.5 2.8-7.8 1.8-2.6 4.5-3.8 7.5-4.4 3.7-.7 7.3 3.7 6.5 7.7-.5 2.1-1.7 3.8-3 5.3-.2.2-.4.3-.2.8 1-.5 2.1-1 3.2-1.2 1.6-.3 3-.2 4.4.9.7.7.6 1.3.6 2 0 .5.1.9.7.8.6-.1.6-.5.5-.9-.3-.9-.5-1.8-.8-2.6-1-2.2-2.2-2.5-4.2-1.1 0-1.4 1.2-2.2 2.8-1.7 1.2.4 2.1 1 3.5.7 1.2-.3 3.1 2.2 2.9 3.9-.2 2.1.8 2.3 2.4 2.3 1.2 0 2.4.2 3.5.3 2.1.1 2.8 2 3.8 3.3 2.8 3.8 5.4 7.8 8.1 11.8.9 1.3 2 2.5 2.7 3.9.6 1.2 1.3.9 2 .3 1.4-1.1 2.4-2.5 3.9-3.6.5-.4 1.1-.8 1.6-.2.4.5-.2 1-.6 1.3l-4.2 3.9c-.6.6-1 1-.4 1.9 2.1 2.8 4.1 5.7 6.1 8.6 2.3 3.3 4.5 6.7 6.8 10.1 2.3 3.4 4.7 6.8 7 10.2.3.5.5.8 1.4.6 4.2-1.1 9.5.3 11.1 4.8.2.6.3 1.2 0 2-1.3-1.5-2-3.5-3.8-4.3-2-.9-3.9-2-6.3-1.3-.8.3-.8.5-.4 1.1.6.9 1.2 1.9 1.8 2.8.3.5.7.7 1.3.7 1.6 0 3 1.3 2.8 3.1-.2 1.6-1.3 2.9-2.9 3.2-1.3.2-3.3-1.1-3.6-2.5-.2-.9 0-1.8.7-2.5s.8-1.4 0-2.1c-.3-.3-.5-.7-.7-1.1-1.1-1.8-1.5-1.9-2.7-.1-2.9 4.2-2.6 9.4 1.9 12.5 2.4 1.7 5.2 1.7 7.8.3 2.3-1.2 3.6-3.3 3.7-5.9.1-.8.1-1.5 1.1-1.9 1.1 1.6.7 3.4 0 4.8-2.7 5.8-10 7.6-14.8 2.8-4.3-4.3-4.1-10.5.2-14.5.8-.8.8-1.1.2-2-4.4-6.2-8.7-12.5-13.1-18.8-2.3-3.3-4.5-6.6-6.7-9.9-.4-.6-.5-.6-1-.1-1.7 1.6-3.3 3.1-5.1 4.6-.7.5-.8.9-.3 1.6 1.4 1.8 2.6 3.8 3.5 5.9 1.3 3 2.4 6.1 2.2 9.5-.2 2.9.4 5.7 0 8.6-.6 4.9-2.6 9.3-5.3 13.3-2.7 4-6.5 6.7-10.8 8.7-5 2.2-10.2 3.2-15.7 2.6-3.2-.4-6.5-.1-9.8-.2-5.5-.1-11.1-.2-16.6-.2h-.5c-.7-.1-1.8 0-1.7-.8.1-.6.9-1.2 1.9-1.2 5.2.2 10.5.1 15.8 0-1.1-1.1-2.6-1.5-3.9-2.3-4.1-2.6-7.4-5.8-9.8-10-1.1-1.9-1.9-3.9-2.5-6-1.1-4.1-1.2-8.1-.8-12.4.5-5.3 2.6-9.9 5.5-14.1 2.2-3.2 5-5.8 8.3-7.9 3-1.9 6.3-3.3 9.8-4 3.5-.7 7.1-.8 10.7-.6 3 .2 5.9.9 8.7 2.1 2.8 1.2 5.2 2.8 7.4 4.8.5.5 1.2.8 1.6 1.5.3.6.9.2 1.2-.1 1.8-1.6 3.5-3.2 5.3-4.8.5-.4.5-.7.2-1.2-3.4-4.9-6.7-9.8-10.1-14.7-.8-1.1-1.5-2.2-2.3-3.3-.9-1.3-2.3-1.3-3.7-1.4-6.2-.2-12.4-.3-18.5-.4-5.8-.1-11.5-.1-17.3-.2-.5 0-1.2-.3-1.5.4-.2.7 0 1.4.5 2 2.2 2.7 5.1 3.7 8.5 3.8 8.1.4 16.2.5 24.2 0 1.7-.3 3.4-.6 5.5-.4zm-33 54.9c.1-.6.5-.9.9-1.1 3.8-2.6 7.7-5.1 11.5-7.7 1.2-.8 2.8-1.7 1.5-3.6-.1-.1 0-.3 0-.5-.3-3.8 3.3-6.2 7.3-5 1.2.4 1.7-.3 2.4-.6.3-.1.5-.6.8-.8 5.2-3.8 9.7-8.3 14.6-12.5 1.3-1.1.9-1.7 0-2.5-3.8-3.4-7.9-6-13.1-6.8-3.5-.6-7-.7-10.5-.2-5.5.7-10.4 2.8-14.6 6.4-5.3 4.5-8.6 10-9.9 16.9-.6 3.5-.8 6.8-.2 10.3.9 5.6 3.4 10.4 7.3 14.3 4.1 4.1 9.1 6.6 14.8 7.8 3.5.7 6.8.9 10.2.2 4.4-.8 8.6-2.3 12.1-5 3.8-2.9 7-6.4 9-10.8 1.6-3.4 2.7-7 2.8-10.6.3-6.3-1.2-12.3-4.2-17.8-1.2-2.1-1.5-2.1-3.2-.6-5.2 4.5-10.5 9.1-16 13.3-.5.4-.4.6-.1 1.1 1.1 2.4.7 4.8-1 6.2-1.7 1.5-3.9 1.6-6.2.2-.7-.4-.9.1-1.2.3-3.8 2.9-7.9 5.4-12 7.8-.9.4-1.6 1.6-3 1.3zm25.5-62.1c.7-.1 1.4.2 1.3-.7-.1-1.3-.6-2.6-1.4-3.7-.3-.3-.8-.6-1.3-.3s-.1.7 0 1.1c.3.8.5 1.5.4 2.3 0 1 .3 1.4 1 1.3zm-4 51.3c1.2-1.3 1.3-2.7.8-4.2-.1-.3-.3-.5-.6-.4-.4 0-.4.4-.3.6.2 1.3.4 2.6.1 4zm106.4 25.3c-4.8-2.3-8.8-5.3-11.8-9.6-1.8-2.6-3.3-5.3-4.1-8.3-1.2-4.7-1.6-9.4-.5-14.2 1-4.5 2.7-8.7 5.4-12.4 2.7-3.6 6-6.6 10.1-8.8 2.8-1.6 5.8-2.3 8.8-3 .5-.1.9-.2.8-.9-1.2-6.1-1.7-12.3-2.5-18.5-12.4 12.3-25.8 23.2-37.6 36.1.3-2.5 2.1-4.1 3.7-5.8 3.3-3.4 6.7-6.7 10.1-10 4.1-3.9 8.4-7.8 12.6-11.7 3.5-3.2 6.7-6.5 10.4-9.5.6-.4.6-1 .5-1.6-.4-2.4-.7-4.9-1.1-7.4-.1-1-.3-2.3.8-2.4.8-.1.9 1.4 1 2.3l2.1 14.4c.5 3.5.8 7.1 1.2 10.6.1 1 .2 2 .4 3.1.1.8.5 1.3 1.5 1.2 3.4-.3 6.8.2 10.1 1 3.6 1 6.9 2.5 10 4.7 4.6 3.3 8.1 7.6 10.1 12.9 1.1 3.1 2.3 6.2 1.2 9.8-.4 1.2.3 2.8.4 4.3.2 3.7-1.2 7.1-2.6 10.4-1.8 4.1-4.5 7.5-8.1 10.2-4.8 3.6-10.2 5.7-16.2 6-7.3.3-14.3-.7-21.3-.9-3.9-.1-7.8-.4-11.7-.5-.5 0-1.5.4-1.5-.4-.1-.8.8-1.2 1.6-1.2 1.2 0 2.4-.1 3.6 0 3.5.5 6.9 0 10.4 0 .6.1 1.4.6 2.2.1zm28-11.4l-.3.3c-1.4-.6-2.5-1.6-3.6-2.7-2.6-2.7-5.1-5.4-7.6-8.1-.4-.4-.7-.8-1.3-.3-1.7 1.1-5.5-.5-6.3-2.6-1.1-2.9-.5-5.3 2.2-6.7.9-.4 1-.8.8-1.5-1.4-6.4-1.6-12.9-2.8-19.4-.4-2.2-.8-2.5-3-2l-.9.3c-3 1.1-5.9 2.4-8.6 4.3-3 2.1-5.7 4.7-7.3 7.8-1.8 3.5-3.1 7.4-3.6 11.4-.7 5.6.2 10.8 2.8 15.6 2.2 4.2 5.2 7.8 9.2 10.6 5.3 3.7 11.2 5.4 17.6 5.5 1.5 0 2.9-.5 4.3-.7 4.8-.6 8.9-2.8 12.5-5.8 4.8-4 7.4-9.3 8.8-15.4 1-4.6 1.2-8.9 0-13.4-1.4-5.6-4.3-10.2-8.5-13.8-5.7-4.9-12.5-7-19.9-7-2.2 0-2.4.1-2 2.3 1.2 6.2 1.6 12.6 2.5 18.9.1 1 .4 1.6 1.6 1.8 3.3.8 4.8 4.8 2.8 7.6-.4.5-.6 1-.1 1.4 1.8 1.5 3.2 3.4 4.7 5.1 2.1 2.3 4.1 4.4 6 6.5zm-18-14.8c0-1.9 1-3.2 2.4-4.3-2.5 1-2.9 1.7-2.4 4.3zM96 111.9c-.6 1.1-1.1 2-1.6 2.9-1.8 3.4-3.6 6.8-5.1 10.4-.6 1.3-1.3.1-1.6-.3-1.2-1.3-2.2-2.7-3.3-4.1-2.1-2.9-4.2-5.8-6.2-8.7-1.9-2.9-3.8-5.8-5.3-8.9-.6-1.2-.6-1.8 1-1.7.2 0 .5.1.7 0 3.1-1.4 5.3.8 7.8 1.9 3.4 1.4 6.8 2.9 10.4 3.6.7.2 1.2.3 1.4 1.1.4 1.4 1 2.7 1.8 3.8z"/><path class="st0" d="M110.3 150.5c2 .3 2.6 2 3.7 3.2 1.6 1.8 2.2 2.1 4.1.9 3.2-1.9 5.8-4.4 8.6-6.9.2-.2.5-.4.3-.7-.2-.3-.6-.2-.9-.1-2 .9-4 1.8-6.1 2.6-1.6.6-3.1 1.8-5 1.4-.4-.1-.8.1-1.1-.3-1.6-2.2-3.6-1.1-5.3-.5-3.1 1.2-2.9 1.2-5.1-1.4-2.1-2.5-3.6-5.5-5-8.5-.2-.5-.1-.7.4-.8 3.4-.1 4.3-3.4 6.4-5.2.1-.1.1-.4.2-.6 2-2.9 2.9-2.8 5 .3 1.5 2.3 2.7 4.7 3.9 7.1.8 1.8 1 3.5-.4 5.1-.5.6-.8 1-.2 1.8.6.8 1.2 1 2.2.9 1.5-.2 2.6-1.2 4-1.7 1.8-.7 3.5-1.5 5.4-2.1.6-.2 1.2-.1 1.8-.2.8-.1 1.4.4 1.7 1 .3.6-.1 1.1-.5 1.6-2.6 3.1-5.8 5.4-9.1 7.4-.8.5-1.6 1.2-2.7 1.4-2.3.3-3.3-1.5-4.5-2.9-.7-.4-1.4-1.5-1.8-2.8zM28.2 67.3c-.1.6-.1 1.2-.3 1.7-.5 1.5-.2 2.1 1.6 2.8 1.7.7 2.1.6 2.9-1 1.1-2.1.9-4.5 2.1-6.6.6-1.1 1.2-2.2 2.1-3.1.2-.2.5-.5.8-.3.3.3.1.6-.1.8-1.6 2.1-2.7 4.4-2.9 7.2-.1 1.2-.8 2.3-1.3 3.4-.7 1.3-3.4 1.6-4.8.7-.1-.1-.2-.2-.4-.3-1.2-1-2.2-1.1-3.4.1-1.1 1.1-2.7.8-4 .5-1.2-.3-1.7-2.3-1.1-4.1.1-.2.1-.4.2-.6 1.1-2.4.6-3.3-2-3.6-2.7-.3-3.8-1.1-3.9-2.9-.2-1.8 1.2-3.6 3.2-4.6 3.3-1.7 6.9-1.9 10.4-2.6 2.5-.5 4.8-1.5 6.6-3.5 1.1-1.3 1.8-2.8 2.5-4.3 2-4.5 6.5-4.9 10.2-2.9 2.4 1.3 4.2 3.4 6.3 5 1.8 1.3 3.8 2.2 6.1 2.4 1.3.1 2.6-.6 4-.7 1.4 0 1.7.8 1.7 1.8 0 1.2-.7 1.7-1.8 1.8-1.2.2-2.2-.2-2.6-1.5-.2-.5-.1-.9-.8-.8-2.7.6-4.8-.6-7-2.1-2.5-1.6-4.3-4-7-5.4-3-1.5-6.4-.4-7.7 2.6-1.2 2.8-2.5 5.7-5.5 7.1-1.6.7-2.4 2-3.4 3.3-1.7 2.3-5.8 2.3-8.2 1-2-1.1-5.3.5-5.6 2.7-.2 1.1.7 1.3 1.4 1.8.4.3.9.2 1.4.2 3.1.1 4.6 2.5 3.4 5.3-.3.8-1.4 1.7-.3 2.4 1 .6 2.5.5 3.5-.5.8-.9 1.6-1.8 2.3-2.7.3 0 .6-.5 1.4-.5z"/><path class="st0" d="M28.1 73.6c.3 1.2-.2 2.2-.9 3.1-.4.4-.8.7.1 1.2 1.5.7 2 2.1 1.9 3.7-.1 2-1.4 3.2-3 4-1.2.5-2.3 1.2-3.7 1-.6-.1-.8.4-.9.8-1.3 4.6-2.4 9.3-1.3 14.2.1.4.2.8 0 1.3-.1.3-.2.7-.6.7-.4-.1-.5-.4-.5-.7-.2-1.4-.8-2.8-.7-4.3 0-.6-.2-1-.6-1.4-1.9-1.9-3.9-3.8-6.3-4.9-2.2-1-4.7-1.6-7.3-1.2 1.3.8 2.7.7 3.9.9 1.8.3 2.9 1.5 4.2 2.4.5.3.4.9-.3 1-.5 0-1 0-1.6-.1.3.8 1.1.9 1.6 1.3.4.4.7.7.5 1.2-.2.5-.8.4-1.2.3-1.6-.3-3.1-.7-4.7-1.1-.6-.1-1.2-.4-2 .2 2.8 1 6.1.4 7.9 3.2-2.7-1.3-5.5-2-8.5-2-1 0-1.5-1-.8-1.8.2-.3.6-.5 1-.9-1.1-.4-2.6.1-2.9-1.2-.4-1.4 1.4-1.2 2.1-2.1-1-.1-1.9-.1-2.7-.2-.9-.2-1.3-.6-.4-1.4C2.6 88.7 5 88.4 7.7 89c4.2 1.1 7.9 3.1 10.8 6.7.7-8.7 4.9-15.5 9.6-22.1zM9.8 94.9c-1.8-1-3.7-.9-5.6-.8 1.8.4 3.7 1 5.6.8zm128-12.4c3.7 2 7.4 2.8 11.5 3.3-1.2-1.7-.1-2.9.5-4.2.4-.9.4-1.3-.5-1.6-2.7-1.1-5.3-2.4-8.3-2.3-.5 0-1.1 0-1.1-.7s.6-.6 1.1-.6c3.8-.1 7.3 1.2 10.5 3.1 1.2.7 1.6 1.5-.2 2.8 2.7-.2 4.6.5 6.6 1 2.2.5 3.6 1.8 3.6 4.1 0 1.1.3 1.5 1.3.8 1.1-.8 2.5-.3 3.5-1.1.3-.2.5 0 .6.3.3.6.1.9-.4 1.2-1.1.7-2.4 1-3.6 1.2-1.1.2-2 .5-2.9 1.3-.5.5-1.5 0-1.9.9-.1.1-.4-.5-.2-.8.6-1 .8-2.1.8-3.2 0-.3 0-.6.4-.6.4-.1.6.2.7.6.2.8-.1 1.5-.1 2.2 1.1-1.1.8-2.6.6-3.9-.3-1.2-1.7-1.8-2.8-1.8-1.9-.1-3.7-.7-5.6-1-1.4-.3-1.8.8-2.2 1.9-.4 1.3.7 1.1 1.3 1.3 1.5.6 2.8 1.3 3.2 3 .1.6.4 1.1 1.2.8.7-.2 1.6-.2 1.4-1.3-.1-.3-.4-1 .3-1 .4 0 .8.5.9 1 .3 1.4-.8 2.6-2.2 2.8-.8.1-1.5.4-1.6 1.5-.2 1.6-1.2 2.8-2.5 4 0-2 1.3-3.5 1.4-5.5.1-2.9-.7-3.6-3.6-4.2-3.1-.7-6.3-1.2-9.4-2.1-.1-.1-.3-.2-.4-.2-.9-.3-1.6-1.4-2.6-.9-1.3.7-2.5 1.6-3.3 2.9-.6.9-1.5 1.8-1.3 3 0 .2 0 .5-.3.5s-.5-.2-.6-.5c-.1-.9-.2-1.7.1-2.6 1.1-2.7 2.5-5.1 4.9-6.8.7-.5.4-.8-.2-1-1.7-.9-3.5-1.6-5.4-2-1.4-.3-2.6-1.1-4-1.2-.3 0-.8-.3-.8-.7 0-.5.4-.5.7-.4 4.2 1.1 8.6 1.6 12.2 4.3 1.4 1.1 1.4 1.2-.1 2.1-.4-.2-.6-.1-1.2.3z"/><path class="st0" d="M127.5 69.6c1.9-2.3 3.8-4.5 5.6-6.8 1.9-2.5 4-5.1 4.7-8.2.6-2.7-1.1-4.1-3.9-3.7-3 .4-5 2.2-7.1 4-5 4.5-8.8 9.7-11.7 15.8-.8 1.7-1.6 3.3-2 5.1-.8 3.7 1.2 5.8 4.1 7.7 3.7 2.4 7.9 3.6 12 5.2.2.1.5.2.8.3.4.1.5.4.4.8-.1.4-.6.3-.8.2-1.7-.5-3.3-.9-4.9-1.5-3.6-1.2-7.1-2.7-10.1-5.1-2.2-1.8-3.7-4.2-2.8-7.6 1.7-6.5 5.3-11.9 9.4-17 2.1-2.6 4.5-5.1 7.2-7 1.9-1.3 3.9-2.5 6.2-2.6 3.1-.2 5.4 1.3 4.9 4.7-.2 1.1-.5 2.2-1 3.2-2.2 4.4-5.1 8.4-8.9 11.6-.3.2-.3.7-.8.8-.4 0-.7.3-.9.6-.2-.3-.3-.4-.4-.5zm35.8-28c-2.1-.5-2.9-1.4-3.1-3.1-.5-3.9.9-7.1 3.3-9.9.7-.8 1.8-1.3 2.9-1 1.1.4 1.6 1.1 1.8 2.3.7 3.1-1.6 7.9-4.1 8.2-.4.1-.9.1-1.3.1s-.9-.2-1-.7c0-.6.5-.5.9-.6 1.2-.2 2.4-1.9 1.9-3-.1-.1-.2-.2-.4-.2-.7 0-1.1-.2-.9-.9.2-.6.8-.3 1.3-.2.7.1 1.6.5 1.9-.2.3-.9.5-2-.1-2.8-.6-.9-1.6-.5-2.3.2-1.4 1.3-2.2 3-2.7 4.8-.4 2.5-.3 4.8 1.9 7zM44.1 70c.8.8.6 1.7.5 2.5-.7 5.9-.6 11.8-.6 17.8 0 1.6.1 3.2.5 4.8.2.6.3 1.5-.5 1.6-.7.1-.8-.8-.8-1.3-.3-3-.5-6-.3-9.1.1-1.4.6-2.6-1.2-3.6-1.3-.7-1.5-3.5-.3-5.2 1.5-2.2 2.7-4.3 2.4-7 0-.2.2-.4.3-.5zm110.6-24.3c-1.3-.3-1.9-.9-2.4-1.8-.2-.4-.3-.8.1-1.2.5-.4.7 0 1 .4 2 2.1 3.5 1.9 4.9-.7.3-.6.6-1.1 1.2-1.6.3 1.2-.1 2.2-.8 3.1-3.7 4.3-8.4 6-13.9 4.7-2.1-.5-4-1.8-5.6-3.3-.2-.2-.4-.5-.2-.9s.6-.3.8-.2c.9.5 1.9 1 2.8 1.6 3.6 2.5 7.3 2.4 11.1.6.3 0 .5-.2 1-.7zM145 93c-2.6.5-4.8-.4-6.6-2.1-.3-.3-.7-.4-.4-.9.2-.3.7-.2 1.1-.1.1 0 .1 0 .1.1 2.1 1.8 4.6 2.2 7.3 1.6 1-.2 1.6 1.5 1.1 3-.3.8-.8 1.4-1.1 2.1-.2.5-.4.8-.9.6-.4-.2-.3-.6-.2-1 .1-.3.2-.7.3-1.2-1.9.1-3.5.8-5.3 1.1-.7.1-1.8.7-2.1-.2-.4-1.3 1-1.1 1.8-1.3 1.7-.4 3.4-.8 5.1-1.1-.2-.3-.2-.4-.2-.6z"/><path class="st0" d="M135.5 74.8c-1.1-1-.9-1.9-.7-2.9.6-2.5 2.1-4.7 3.5-6.8 2.3-3.5 4.7-7 4.8-11.5 0-.5.1-.9.6-1 .7 0 .6.6.6 1 .3 3.4-1.2 6.2-2.8 8.9-1.6 2.8-3.9 5.2-5.2 8.3-.4 1.4-.8 2.5-.8 4zm-43.9 74.3c1 1.2 2.5 1.9 3.7 2.9 1.8 1.4 3.7 2.8 5.8 3.8.5.2 1.4.7.9 1.5-.5.9-1.3.2-1.9-.1-3.4-1.8-6.4-4.2-9.5-6.6-1.7-1.3-3.4-2.6-5.2-4.1.9-.5 1.4-.3 2 .1 1.4.8 2.8 1.7 4.2 2.5 0 0-.1 0 0 0zM43.7 59.6c7.5 1.9 14.2.5 20.1-5.1-.5 2.6-4 5.2-7.2 6-4.4 1.1-8.7 1.6-12.9-.9zm72.4 100.3c.7-1.9 2.4-2.2 3.7-3.1 2.5-1.9 5.2-3.5 7.7-5.2.3-.2.7-.4 1-.6.4-.2.7-.3 1 .1.3.5 0 .7-.4 1.1-1.4 1.3-3.1 2.1-4.6 3.1-2.2 1.5-4.6 2.8-6.8 4.3-.5.2-.9.3-1.6.3zM43.7 67c-1.9-.4-3.8-.8-5.5-1.9-.4-.3-.7-.5-.5-1 .2-.4.7-.4 1.2-.1 1 .6 2 1.1 3.3 1.2 1.1.1 2.1.4 3.2 0 .3-.1.8-.2.9.3.1.4 0 .7-.4 1-.7.3-1.3.6-2.2.5zm6.2-12.4c-1.6-.1-2.9-1-4.1-2.1-.3-.3-.5-.7-.1-1 .3-.2.6-.1.9.1.8.7 1.7 1.3 2.8 1.6.3.1.6.3.9 0 .3-.3.1-.7 0-1-.3-.7-1.5-1.6-.4-2.1.7-.3 1.3 1.1 1.7 1.9.7 1.6.1 2.6-1.7 2.6zm139.4-38.2c1.6.6 3.6.7 4.9 2.2.2.3.5.5.2.8-.2.3-.6.4-.9.2-1.8-.6-3.6-1.2-5.3-1.8-.4-.1-.9-.3-.7-.9.4-.8 1.2-.2 1.8-.5zM40.8 84.2c.8.6.7 1.1.6 1.5-.2 3.8.4 7.5.8 11.3 0 .4.2.8-.2 1-.5.2-.6-.3-.8-.7-.2-.4-.3-.8-.3-1.2-.2-3.9-.1-7.8-.1-11.9zM190.6 6.5c-.4.4-1 .8-1.4 1.3-1 1-2.1 1.8-3.2 2.6-.2.2-.6.4-.9.1-.2-.2-.4-.5-.2-.9 1.2-1.6 2.7-2.9 4.6-3.8.2-.1.9-.3 1.1.7zm-40.9 90.3c-.3-.6-.1-1.1.2-1.5 1-1.4 1.1-3 .8-4.6-.1-.4-.3-.8.3-.9.4-.1.7 0 .9.5.7 1.9-.4 5.5-2.2 6.5z"/><path class="st0" d="M150.2 92.7c-.3 1.4-.8 2.8-1.9 4-.2.2-.5.5-.8.2-.3-.2 0-.5.1-.7.4-1 1.3-1.8 1.2-3.1 0-.3.1-.6.1-.9.1-.5-.9-1.2.2-1.3 1-.2 1 .8 1.1 1.8zm-115.4 81c-.7-2.2.6-4 1.1-5.9.5-1.9 1.7-3.6 2.2-5.5.1-.6.3-1.6 1.1-1.3 1 .3.6 1.3.4 1.9-.5 1.4-1.1 2.9-1.8 4.3-1.2 2.1-2 4.3-3 6.5zm147.3-22.4c-3.4.8-6.8 1.7-10.3 2.1-.4 0-.9.2-1-.4-.1-.5.3-.8.8-.8 3.5 0 6.9-1.3 10.5-.9z"/></svg>