<svg width="150" height="199" fill="none" xmlns="http://www.w3.org/2000/svg"><path d="M75.065 29.21c-2.984 0-5.968-.629-8.796-1.728-.942-.471-1.728-.471-2.67.471-3.141 2.827-5.026 6.44-6.125 10.524-.943 3.612-1.571 7.225-.943 10.994.157.629-.157 1.257-.942 1.414-.786.157-.943-.628-1.1-1.256-.471-1.885-.942-3.927-2.042-5.498-.942-1.256-2.041-2.042-3.612-1.728-1.57.315-2.356 1.257-2.827 2.828-.943 3.612 1.413 6.596 4.24 7.853 1.1.471 2.2 1.1 3.613 1.414.314 0 .628.157.628.47 0 .472-.471.472-.785.63-1.57.627-2.985-.158-4.241-.786-2.984-1.257-5.026-3.299-5.654-6.754-.472-2.356.157-4.555 1.727-6.283.629-.628.629-1.1.157-1.57-1.884-2.357-3.298-4.87-4.24-7.697-1.728-4.712-2.357-9.424-.629-14.293 1.257-3.613 3.299-6.44 6.597-8.325 2.67-1.413 5.498-2.042 8.482-1.57 2.513.47 4.712 1.256 6.597 3.141.628.628.942.157 1.1-.314 1.57-4.398 4.711-7.382 8.795-9.424 4.24-2.042 8.639-2.356 13.037-.471 2.513 1.099 4.712 2.513 6.125 4.869 2.042 3.298 2.513 6.596 1.414 10.21-1.257 4.711-3.77 8.324-8.168 10.523-2.984 1.57-6.282 2.356-9.738 2.356zm11.623-5.969c2.984-1.885 6.44-8.953 3.927-14.607-1.414-3.299-6.283-6.44-9.581-5.812 3.612 2.042 6.44 4.555 7.696 8.639.942 4.24 0 8.01-2.042 11.78zM58.416 11.618c-3.77-1.885-7.853-1.885-11.466 1.257-4.398 3.77-5.497 8.795-4.712 14.293.157-4.398 1.413-8.168 4.712-11.466 3.141-3.142 6.91-4.398 11.466-4.084zm46.492 73.665c-2.042 1.885-4.555 2.513-6.911 2.984-3.141.628-6.283 1.1-9.581 1.57-2.984.472-5.812 1.414-8.796 1.886-1.257.157-1.414.785-1.414 1.727-.157 4.241-.628 8.325-1.1 12.409-.156 1.57 0 1.885 1.572 1.885 5.183.157 9.58 2.199 13.822 4.869a32.289 32.289 0 018.638 8.638c2.356 3.456 3.927 7.226 4.712 11.152.629 3.456.629 6.911.314 10.367-.471 3.612-1.57 6.911-3.141 10.209-1.571 3.141-3.927 5.812-6.597 8.168-2.356 2.042-4.869 3.612-7.696 4.869-.157.157-.471.314-.628.314-2.67.942-2.67.942-1.728 3.612 1.256 3.456 2.199 6.911 2.984 10.367.314 1.571 1.1 3.141 1.57 4.712.943 3.455 2.043 6.911 2.828 10.524-.471-.629-.942-1.257-1.413-1.728-.315-.471-.786-.314-1.257-.157-.471.157-.157.628-.157.942.314 1.1.628 2.199 2.042 2.513.314 0 .628.471 1.1.628.313.158.47.472.313.786a.864.864 0 01-.785.471c-.942-.157-2.042-.157-2.984-.471-1.885-.471-3.77-.943-5.498-1.728-1.413-.628-1.57-2.356-2.041-3.613-.629-2.356-1.1-4.869-1.571-7.225-1.1-5.654-2.67-11.151-3.456-16.806-.628-4.398-.628-4.241 3.456-6.44 2.984-1.57 6.125-3.141 8.796-5.183 3.612-2.67 6.596-6.126 8.01-10.366 1.728-4.869 1.885-9.896.314-15.079-1.728-6.126-5.183-10.995-10.68-14.293-3.927-2.356-8.168-3.299-12.566-3.299-1.256 0-2.042-.471-2.67-1.413-.471-.785-1.1-1.414-1.728-2.042-1.1-1.257-1.413-2.827-1.256-4.398.314-3.927 0-7.853.157-11.78.157-2.199.314-2.513 2.513-3.298 3.927-1.257 8.167-2.042 12.251-2.828 5.34-1.1 10.838-2.041 16.178-3.141 1.414-.628 2.827-.314 4.084-.314zm-2.513 64.241c-1.885.471-2.199 2.042-2.984 3.298-.157.314-.786.785-.315 1.1.472.314.943-.158 1.257-.629.942-.942 1.414-2.199 2.042-3.769zm-27.958-39.581c2.199.471 4.24 1.099 6.597.628-2.2-.943-4.398-.628-6.597-.628zm13.508 71.465c-.786 1.885.628 3.299.785 5.027 0 .314.314.314.628.314.314-.157.314-.314.157-.629-.471-1.57-1.1-3.141-1.57-4.712zm2.042 6.597c-.315 0-.472.157-.629.471-.157 1.1.314 2.199.942 3.142.315.314.943.314.943-.157-.157-1.1-.628-2.199-.942-3.299 0-.157-.314-.157-.314-.157zm-5.812-76.492c1.728 1.571 3.77 1.885 5.654 2.67-1.57-1.413-3.141-2.67-5.654-2.67zm-8.639-10.523c.629-1.414.629-2.513.157-3.927-.942 1.414-.785 2.513-.157 3.927zm20.576 57.486c.628-.157.785-.628.943-1.099.157-.471-.315-.628-.629-.471-.471.157-1.1.314-.942 1.099.157.314.314.471.628.471zm7.539-14.764c-.628 1.1-.628 1.885-.471 2.827.314-.942.943-1.57.471-2.827zm-9.11-108.534c1.885 3.77 4.87 6.126 8.011 8.482-2.199.314-3.613-.471-5.183-1.414-2.2-1.57-3.77-3.77-4.87-6.125-.156-.314-.313-.629-.628-.629-1.413.472-2.984 0-4.24.315-1.571.47-2.356 1.884-1.885 3.926.628 3.299 1.413 6.44 2.042 9.739.157.942.628 1.57 1.57 1.57.943.157 1.1-.785 1.414-1.256.942-1.414.628-3.142.942-4.555.157-.786.314-1.414 1.257-1.257 1.1.157.471.943.471 1.414.157 2.042-.628 3.926-1.414 5.811-.314.943-1.413 1.728-2.513 1.728-.942 0-1.1.471-.942 1.257.157 1.727.628 3.455 0 5.34-.314 1.1-1.1 1.728-2.042 2.042-1.728.47-3.613.628-5.497.157-.943-.314-1.414-.786-1.1-1.57.314-.943.943-.315 1.57-.158.472 0 .943.314 1.572.314 3.455.157 4.555-1.256 4.083-4.555-.628-4.084-1.413-8.324-2.513-12.251-.471-1.728-.471-3.613-.471-5.34 0-2.67 1.885-3.613 5.026-4.084 2.2-.314 2.356-.157 2.042-2.356-.471-3.299.157-6.283 1.1-9.424 1.1-3.456 2.827-6.754 5.34-9.424 3.141-3.299 6.754-4.398 11.309-3.927 8.167.942 13.193 10.838 10.68 17.749-1.57 4.24-3.926 7.696-8.01 9.738-3.141 1.57-6.44 1.885-9.895 1.57-2.513-.628-4.712-1.57-7.225-2.827zm-1.413-7.225c.942-.942.628-1.885.942-2.513 1.414-3.298 3.142-6.597 5.812-9.11 2.827-2.67 6.125-4.24 10.052-4.398 1.1 0 2.042.314 3.456.628-.629-.785-1.257-.785-1.885-1.099-3.77-1.57-7.225-1.257-10.681 1.257-2.827 2.041-4.555 5.026-5.968 8.167-1.1 1.885-1.571 4.398-1.728 7.068zm-71.623 91.414c4.869-1.885 9.895-.629 14.921-1.885-5.968-2.356-11.466-1.257-16.806.628-3.298 1.1-5.654 3.613-7.696 6.44-3.613 4.712-6.44 10.052-9.11 15.393-.785 1.57-1.57 3.141-2.67 4.869-.471-2.199.314-3.77.942-5.184 1.414-3.141 2.984-6.282 4.712-9.267 2.513-4.397 5.183-9.11 9.424-11.937 2.513-1.728 3.299-3.769 4.555-5.968 2.513-4.555 5.969-8.325 9.895-11.78 3.613-2.985 7.697-5.34 12.095-7.225 2.199-.943 4.398-1.414 6.754-2.042a2.18 2.18 0 011.413 0c3.613 1.256 7.54 1.57 11.152 2.984.471.157.785.314 1.1.785-.943 1.57-2.67 1.1-3.927 1.414-2.984.628-6.126.785-9.11 1.885-2.827 1.1-5.497 2.67-7.854 4.555-2.827 2.199-5.34 4.712-7.068 7.853l-1.884 3.298c1.57.943 3.455.472 5.026 1.414 1.256.628 2.042 1.414 1.413 2.827-.157.314-.157.471.315.629 1.256.628 1.256 1.57.942 2.67-.314.942-1.1 1.727-.471 2.984.314.785-1.728 3.455-2.984 3.613-1.571.314-2.514 1.256-2.985 2.827-.314 1.256-1.57 1.727-2.513 2.042-1.413.471-3.141.785-4.712.942-.942.157-1.413.628-1.885 1.414-1.256 2.356-3.612 3.141-5.968 3.926-1.1.314-2.356.314-3.613.314-.314 0-.785.158-.785-.628 0-.628.314-.628.785-.628 2.356-.314 4.555-.785 6.597-2.199.471-.314.785-.785 1.1-1.257.314-.314.314-.628-.158-.628-.314 0-.628 0-.628-.471s.314-.628.785-.628c1.414-.314 2.67-.786 4.084-1.1 1.885-.157 3.456-1.099 5.184-2.513-3.456-.471-6.597.943-10.053.157 1.414-1.099 2.67-1.413 4.084-1.57 3.612-.629 7.382-1.1 10.68-2.985.158 0 .315-.157.629-.314-1.571-.628-2.828-.314-4.084-.157-2.513.471-5.026.471-7.54.942h-1.413c-.314-.157-.785-.314-.942-.785-.157-.471.314-.628.628-.942.942-.629 2.042-.786 3.298-.786 2.828 0 5.655-.785 8.482-1.099.314 0 .628-.157.943-.314.628-.157 1.57-.471 1.413-1.257-.157-.628-.942-.628-1.57-.628-3.142-.157-6.126.157-9.268.471-1.727.157-3.298-.157-5.026-.471l-.628-.628zm7.382-9.424h2.2c.47 0 1.256.314 1.57-.315.471-1.099 1.256-1.884 2.042-2.827.628-.785.47-1.413-.629-1.413-.628 0-1.256-.157-1.885-.157-2.513 0-5.026 0-6.596 2.513-.314.628-.471 1.256-.314 1.727.157.629.785.472 1.413.472h2.2zm-.942 4.555c1.727.471 2.67-.158 3.141-1.728.314-.943 0-1.414-.785-1.414-2.042 0-4.241-.471-6.44.314-1.414.472-1.885 1.257-2.199 2.356-.314.943 0 1.414 1.1 1.257 1.727-.471 3.612-.628 5.183-.785zm16.02-16.178h-.942c-.942-.157-2.199-.629-2.67-.315-.942.786-1.885.786-2.984.629-.471 0-.628.157-.785.47 0 .472.314.63.628.786 2.67.629 5.026.943 6.754-1.57zm-5.183 3.926c-.785-.785-1.57-.628-2.198-.628-1.257 0-1.571.157-1.414.785.157 1.1.628 1.571 1.728 1.414.942-.157 1.1-1.257 1.884-1.571zm9.582-6.125c-.472-.157-1.1-.472-1.571-.629-.314-.157-.785-.47-1.1-.157-.314.472-.47 1.1-.314 1.57.157.63.943.315 1.414.315.628-.157 1.257-.471 1.57-1.1zm-21.519 42.565c.471 4.084.786 8.325 1.885 12.251.942 3.77 2.513 7.54 4.712 10.838 2.67 3.927 5.812 7.225 9.267 10.209.785.629 1.1.629 1.414-.314 1.256-2.827 3.298-4.869 5.968-6.282 1.57-.786 1.728-1.571.786-3.77-2.2-4.712-5.027-9.11-9.11-12.408-2.67-2.042-7.226-2.513-10.053-.786-.47.314-.785.471-1.413.314 2.356-1.884 4.555-2.984 7.382-2.513 2.984.629 5.34 2.199 7.382 4.084 3.613 3.456 6.126 7.539 8.01 12.094.472.943.786 1.257 1.885 1.1 2.67-.471 5.026.471 7.383 1.413.47.157 1.413.472 1.099 1.1-.314.785-1.1.314-1.728.157-2.042-.785-4.24-.785-6.44-.628-1.099 0-1.256.471-1.099 1.413.628 3.456 1.1 6.754 0 10.21-.314.785-.157 1.57.942 1.884 3.456 1.257 6.911 2.042 10.524 2.357 1.728.157 3.612.471 5.34.628.629 0 1.257.314 1.257.785 0 .628-.628.628-1.1.785-5.968.786-12.094 1.1-18.062-.471-2.828-.785-5.812-1.413-8.482-2.356-2.984-1.099-5.969-2.356-8.639-4.084-3.298-2.041-6.44-4.24-9.11-7.068-3.298-3.455-5.968-7.225-7.853-11.623-.943-2.356-1.728-4.712-2.513-7.225-.629-2.042-.628-4.083-.628-6.282 0-.315 0-.629.628-.786.628 1.728 1.256 3.456 1.57 5.183 0 .315 0 .786.157 1.1.786 2.984 1.1 3.298 4.241 3.298h3.613c.942 0 .942-.314.785-1.099-.471-2.042-.785-4.084-1.1-6.126-.47-2.67.629-5.026 1.1-7.382zm.471 27.958c-.157.314-.314.471-.47.785 1.256 1.1 2.512 2.199 3.769 3.142 1.728 1.256 3.141 2.984 5.654 2.042 1.728-.629 2.042-1.414.943-2.67-2.042-2.356-4.084-4.398-5.498-7.069-.157-.314-.47-.628-.942-.471-1.728.786-3.456.157-5.183.314-.471 0-.943-.314-1.257.315-.314.471 0 .942.314 1.413 1.1 1.414 4.712 2.042 6.754 1.257.314-.157.628-.629 1.1-.314.157.157.157.471.157.785 0 .628-.628.471-1.1.628-1.413.157-2.827 0-4.24-.157zm26.074 6.44c0-2.199-.315-3.77-.629-5.183-.157-.786-.628-1.1-1.413-.629-2.356 1.257-3.927 2.985-5.184 5.184-.47.785-.785 1.727.315 2.356 1.727.942 3.455 2.042 5.183 2.984.628.314 1.1 0 1.256-.628.157-1.728.315-3.299.472-4.084zm-26.86-12.408c.943.314 1.728 0 2.67 0 .786 0 1.1-.158.786-1.1-.629-1.414-1.257-2.827-1.885-4.398-.157-.471-.471-1.099-1.1-.785-1.727.628-3.455.157-5.183-.314-.471-.157-1.1-.157-1.414.314-.628.942 1.885 5.968 2.828 6.125h.157c.942.158 2.042.158 3.141.158zm16.178 16.649c.942.157 1.257 0 1.57-.471.315-.472-.313-.629-.628-.943-1.099-1.099-2.67-1.571-4.083-2.199-.629-.314-1.1-.314-1.414.157-.314.471.471 1.257.628 1.257 1.414.157 2.2 1.099 3.142 1.885.314.157.628.157.785.314z" fill="#16013E"/><path d="M119.986 117.325c-.471.628-.942.628-1.57.628-3.142.157-6.754-2.513-7.225-5.497-.157-1.414-.943-1.571-1.885-1.571-3.299-.157-5.026-2.827-5.183-5.34-.472-5.183 1.256-9.581 4.869-13.194.628-.628.628-1.414 0-2.042-.786-.942-1.1-2.042-1.571-3.141-.314-.629-.314-1.257.157-1.57.628-.472.785.313 1.1.627 1.099 1.1 1.57 2.514 2.356 3.77 1.413 2.356 2.67 4.87 3.769 7.225 2.042 4.398 4.241 8.482 5.812 13.037.785 2.199 1.57 4.555 2.67 6.754.471.942.628 2.042.785 3.141.157.942.629 1.414 1.728 1.257 3.141-.315 5.969.785 8.325 2.827 2.041 1.728 3.612 4.084 4.869 6.44 1.099 2.199 2.042 4.398 2.67 6.754 1.099 3.926 2.67 7.696 2.513 11.937 0 .314 0 .471-.471.785-.472-1.414-1.571-2.356-1.728-4.084-.471-2.513-1.1-5.026-2.042-7.382-1.414-3.612-2.513-7.225-5.026-10.366-2.827-3.77-6.44-5.498-11.152-4.712-3.141.471-6.283 1.099-9.267 2.67-.314.157-.471.314-.785.471-.629.314-1.257.785-1.1 1.571.314.785 1.1.314 1.728.314 2.513-.157 4.712-1.571 7.382-1.571.314 0 .628-.157.943-.157.785.157 2.041 0 2.041.942 0 1.1-1.099.472-1.727.629a59.449 59.449 0 00-10.21 3.298c-.471.157-1.099.628-.942 1.257.157.628.942.471 1.414.314 2.356-.471 4.869-.943 7.225-1.414 1.413-.314 2.67-.628 4.083-.942.472-.157.943 0 1.414.157.314.157.628.314.628.628.157.471-.314.628-.628.785-2.984 1.414-5.654 3.142-8.325 4.87-.157.157-.314.157-.471.314-.314.471-1.099.628-.628 1.413.471.629 1.099.157 1.571 0 2.513-1.099 4.869-2.513 7.382-3.769.628-.314 1.413-.786 1.885-.157.628.628.471 1.57-.157 2.356-1.1 1.413-2.514 2.513-3.927 3.769-.314.314-1.1.628-.628 1.257.471.628 1.099.157 1.57-.157 1.257-.943 2.513-2.042 3.77-2.985.471-.471 1.256-1.256 1.728-.628.471.471-.157 1.414-.629 1.885-2.042 1.728-3.612 4.084-6.439 4.555-1.728.314-2.671-.314-2.514-2.042.158-1.414-.628-1.571-1.727-1.257-1.257.472-2.356.472-3.613-.157-1.256-.628-1.57-1.413-1.256-2.67.157-.785 1.099-1.413.628-2.199-.628-.942-1.728-1.099-2.67-1.256-2.827-.628-3.299-1.885-1.571-4.084.471-.628.471-1.099.157-1.728-.785-1.727 0-2.827 1.257-3.926 2.67-2.199 5.811-3.299 9.11-3.927.314 0 .628-.157 1.099-.157 1.257-.157 1.414-.786.785-1.885-1.884-2.984-2.67-6.283-3.926-9.581-.157-.471-.314-.943-.629-1.414-.628-.942-1.256-1.256-2.041-.157-.629.943-1.571 1.257-2.513 1.728-.629.314-.786.785-.629 1.571.471 1.727 2.827 3.769 4.712 3.926 1.1.157 1.885.472 2.67 1.257zm-10.209-7.696c.785 0 1.099-.315 1.257-1.1.471-1.885 1.256-3.613 2.984-4.712.785-.471.785-1.099.471-1.728l-3.77-8.01c-.314-.471-.785-1.257-1.57-.471-2.985 3.141-4.398 7.068-4.084 11.308.314 2.671 2.67 4.87 4.712 4.713zm6.126-3.927c0-.314 0-.471-.314-.628-.472-.158-.786-.158-1.1.157-.942.628-1.256 1.57-1.571 2.513-.157.314-.314.628 0 .785.315.314.629.157.943.157 1.256-.628 1.728-1.728 2.042-2.984z" fill="#16013E"/><path d="M96.583 198.215c1.257-1.728 2.985-2.828 4.87-3.613 2.513-1.099 4.712-2.513 7.382-3.455 1.099-.315 1.099-1.571 1.256-2.514.314-2.67 1.414-5.026 2.513-7.382a50.34 50.34 0 016.911-11.937c1.728-2.042 3.456-4.241 5.969-5.34 3.77-1.728 6.754-.786 8.482 2.827.157.157.157.314.314.628.471 1.414 1.256 1.885 2.67.943 1.728-1.257 4.555.942 5.183 3.141.157.628 0 1.257.628 1.414.943.157 1.257-.786 1.885-1.1.628-.314.157-.785 0-1.256-1.728-4.241-3.612-8.325-5.34-12.723-1.414-3.612-2.827-7.225-4.398-10.838-.785-1.727-1.885-3.141-2.513-4.869-.157-.471-.471-.785-.157-1.413 2.199.157 2.827 2.199 3.612 3.612 1.728 3.299 3.299 6.754 4.87 10.053 1.57 3.298 2.984 6.597 4.397 10.052.629 1.571 1.885 2.984 2.356 4.555.315.628.786 1.257.315 2.042-.158.314-.157.628.314.785 1.727.314.785.628.157 1.257-2.827 2.513-6.283 4.084-9.738 5.811-3.142 1.728-6.44 3.142-9.739 4.712-3.141 1.571-6.439 2.985-9.581 4.555-3.455 1.571-6.911 3.299-10.366 4.712-3.77 1.571-7.383 3.77-11.466 5.184-.157.157-.472.314-.786.157zm13.508-7.697c1.885-.942 3.77-1.727 5.498-2.513 4.083-2.042 8.167-4.084 12.408-5.968 1.414-.629 2.984-1.257 2.67-3.456-.157-1.571.628-3.298 1.414-4.712 1.256-1.885 1.727-3.612.628-5.497v-.157c-1.257-2.356-2.984-4.241-6.44-2.67-4.241 2.041-6.597 5.654-9.11 9.424-2.356 3.612-4.083 7.696-5.811 11.78-.471 1.099-1.414 2.199-1.257 3.769zm25.602-16.649c.157 0 .157 0 0 0 0 .785.157 1.414 0 2.199 0 1.257.629 1.1 1.257.785.942-.471 1.885-1.256 2.827-1.727.942-.472.942-1.1.628-1.728-.157-.628-.314-1.257-.628-1.885-.471-.785-1.257-2.042-2.356-1.571-1.099.315-2.356.943-1.885 2.671.314.314.157.785.157 1.256zm-1.885 1.414c-1.099.942-1.256 2.042-1.099 3.455 1.099-1.099 1.414-2.199 1.099-3.455zM63.756 98.005c1.1 1.885 1.1 3.613 1.414 5.184.942 4.083.471 8.481 1.256 12.565.314 1.414.471 1.885 2.2 1.728 5.497-.471 10.837.314 15.549 3.612 3.141 2.042 5.183 4.869 6.597 8.325 1.1 2.984 1.885 5.969 1.728 9.267-.157 4.869-1.885 9.11-5.34 12.565-2.67 2.828-5.97 4.712-9.582 5.812-1.57.471-3.298 1.099-5.183.628-.314-.157-.785-.157-.785-.471 0-.314.314-.628.785-.628 2.984-.629 5.811-1.728 8.481-3.142 4.084-2.356 7.069-5.497 8.482-10.366 1.57-5.498.629-10.524-2.042-15.393-1.57-2.984-4.398-5.026-7.539-6.597-3.612-1.57-7.382-2.042-11.309-1.884-.785 0-1.728 0-2.356.314-.942.471-1.256-.157-1.413-.943-.315-4.083-.629-8.167-.943-12.094 0-2.67-.157-5.34 0-8.482zm-8.953-40.68c1.728 2.356 2.042 4.712 2.827 6.91 1.257 3.927 3.142 7.54 6.283 10.524 3.613 3.299 7.697 5.026 12.566 4.398 2.513-.314 4.712-1.885 6.754-3.612 3.77-3.456 6.282-7.697 8.324-12.252 1.885-4.24 3.299-8.638 4.398-13.35.314-1.571.471-3.456 2.199-4.398.471.47.471.785.314 1.256-.471 3.299-1.256 6.44-2.199 9.581-1.413 4.555-3.298 8.796-5.497 12.88-1.728 3.141-4.084 5.969-6.911 8.325-2.67 2.198-5.812 3.612-8.953 4.397-4.084 1.257-8.01-.47-10.838-3.612-2.827-3.141-5.34-6.597-7.068-10.68-1.1-2.67-2.042-5.498-2.199-8.325-.157-.629-.157-1.1 0-2.042zm-49.319 65.34c-.314-2.199 1.1-3.77 1.885-5.497 3.612-6.44 8.167-12.095 13.508-17.278 3.298-3.141 6.754-6.126 10.366-8.796 3.613-2.67 7.54-5.026 11.623-6.91 2.984-1.414 6.283-2.514 9.581-3.456 2.513-.628 4.87-1.1 7.383-1.1.157.472-.157.786-.315.943-2.513 1.256-5.026 2.827-7.853 3.455-3.298.786-6.597 1.885-9.581 3.299-3.927 1.885-7.854 4.084-11.309 6.91-3.77 3.142-7.382 6.283-10.838 9.896-4.084 4.398-7.696 9.267-10.837 14.293-.629 1.1-1.257 2.042-1.885 3.142-.471.628-.943.785-1.728 1.099zm68.01 59.058c-.628-1.414-1.413-2.828-1.413-4.398 0-2.356-.786-4.555-1.1-6.754-.314-2.513-.785-5.183-1.1-7.697-.156-.942-.47-1.727-.627-2.67-.157-.628.157-1.256.785-1.57.785-.314.628.471.942.942 1.414 2.199 1.257 4.869 1.57 7.225.472 4.555 1.415 8.953 1.415 13.508v1.257c-.157.157-.315.157-.472.157z" fill="#16013E"/><path d="M80.091 47.586c.157-.942-.314-1.884-.157-2.984 0-.628.314-1.1.942-1.1.629 0 .786.472.786 1.1 0 2.042.785 3.927 0 5.969-.628 1.57-2.513 2.513-4.084 2.199-2.67-.629-4.24-2.513-5.497-4.712-.314-.629-.629-1.414-.943-2.042-.314-.628 0-1.1.629-1.257.628-.157.942 0 1.1.786.47 2.198 1.727 3.612 3.455 5.026.785.628 1.727.942 2.513.47.942-.47 1.256-1.256 1.1-2.355.156-.314.156-.628.156-1.1zm52.461-25.601c-.471-.157-.942.157-1.1-.314-.314-.629.315-.786.629-1.1 1.885-1.57 4.241-2.356 6.282-3.613 1.414-.942 2.828-1.099 4.398-1.413.314 0 .786-.157.943.314.314.471-.157.628-.314.942-1.1 1.414-2.828 2.2-4.398 2.985-1.728.942-3.77 1.256-5.498 2.199-.314.157-.628 0-.942 0zM75.85 33.45c1.414-.157 2.828 0 4.241.786.471.314.943.628.472 1.256-.315.472-.629.786-1.414.629-3.927-1.257-7.382-.943-10.21 2.356-.47.47-.942.314-1.413 0-.471-.314-.471-.786-.157-1.414.47-.785 1.256-1.257 2.042-1.885 1.884-1.1 3.926-1.885 6.44-1.727zm63.299 1.885c-1.571 0-3.142-.157-4.712-.157-.471 0-1.1-.157-1.257-.785-.157-.628.471-.785.786-1.1 1.727-1.256 3.769-.942 5.811-.942 1.099 0 2.199.471 2.199 1.57 0 1.257-1.257 1.257-2.199 1.257-.314.314-.471.157-.628.157zm-12.88-20.89c.471-2.513.786-4.869 2.67-6.754.314-.314.629-.628 1.1-.471.471.157.314.785.314 1.1.157.942-.471 1.884-.785 2.827-.315 1.413-.786 2.827-1.414 4.083-.157.472-.314 1.1-1.099 1.1-.943 0-.472-.785-.786-1.257v-.628zM93.285 86.068c-.314.629-.942.472-1.257.314-1.413-.628-2.67-1.57-3.926-2.513-.943-.785-2.2-1.1-3.142-1.727-.628-.315-.47-.943-.47-1.257.156-.471.627-.628 1.099-.314 2.984 1.1 5.026 3.298 7.382 5.34.157-.157.157 0 .314.157zM77.107 69.105c-1.728-.628-3.927-1.1-4.87-3.456-.156-.47-.313-.942.158-1.1.471-.156 1.1-.47 1.413.315.786 1.728 2.356 2.042 3.927 2.67.471.157 1.414-.157 1.257.942-.157.629-.943.786-1.885.629z" fill="#16013E"/></svg>