<svg width="100" height="102" fill="none" xmlns="http://www.w3.org/2000/svg"><path fill-rule="evenodd" clip-rule="evenodd" d="M29.633 19.201l13.03 8.095 10.395 35.91-1.074.31-10.276-35.498-12.112-7.526-5.86 3.192-.534-.98 6.431-3.503z" fill="#BCBCBC"/><path d="M77.568 42.752c2.697 4.47 3.652 10.457 3.792 12.893h2.107c.773-5.444 2.065-17.062 1.054-19.985C83.257 32.007 80.517 29 71.879 29c-8.639 0-13.696 8.38-18.331 9.025-4.636.645-4.846-.86-13.696-.645-8.849.215-15.38 7.092-15.802 12.034-.337 3.954-6.462 5.802-9.482 6.232 1.335.501 4.762 1.461 7.796 1.29 3.793-.216 3.793-9.026 15.381-11.175 11.589-2.149 12.642 1.504 16.646.86 4.003-.645 9.481-7.092 11.167-8.596 1.685-1.504 8.638-.86 12.01 4.727z" fill="url(#paint0_linear_1878_3736)"/><path fill-rule="evenodd" clip-rule="evenodd" d="M71.92 32.51c2.697.079 4.817 1.206 6.318 2.577.859.785 1.547 2.088 2.099 3.678.553 1.594.973 3.489 1.288 5.47.63 3.964.839 8.286.839 11.26h-.223c0-2.966-.21-7.276-.837-11.225-.314-1.974-.731-3.855-1.278-5.432-.548-1.58-1.222-2.84-2.039-3.587-1.469-1.341-3.539-2.442-6.174-2.52-2.635-.077-5.85.868-9.605 3.642a112.493 112.493 0 00-3.367 2.603c-.43.342-.835.665-1.223.967-1.257.979-2.331 1.743-3.461 2.254-2.271 1.025-4.747 1.017-9.363-.238-9.168-2.492-15.264 1.94-17.194 4.964-.206.322-.43.86-.69 1.512l-.131.334c-.224.566-.47 1.191-.747 1.805-.332.738-.71 1.466-1.148 2.063-.438.596-.942 1.072-1.53 1.291-.886.332-1.671.746-2.297 1.08l-.067.036c-.284.152-.536.286-.746.384a2.969 2.969 0 01-.308.128.821.821 0 01-.252.05v-.223c.04 0 .1-.011.181-.038.08-.027.175-.067.284-.118.204-.096.451-.228.738-.38l.064-.035c.626-.334 1.424-.755 2.325-1.092.53-.198 1.002-.635 1.427-1.215.425-.579.796-1.29 1.125-2.022.274-.609.519-1.228.742-1.794a139 139 0 01.133-.336c.257-.647.489-1.206.708-1.55 1.98-3.1 8.174-7.578 17.442-5.059 4.6 1.251 7.013 1.243 9.211.25 1.105-.499 2.16-1.249 3.417-2.227.384-.3.788-.62 1.217-.962.97-.77 2.069-1.646 3.377-2.611 3.785-2.796 7.047-3.764 9.745-3.685z" fill="#F9F9F9"/><path d="M82.412 40.724c0 7.625 1.906 13.22 3.472 14.827h2.74c-1.835-4.835.285-15.619 1.352-20.334.766-3.389.218-8.977-3.603-12.285-3.82-3.309-17.335.765-20.02-2.43-2.684-3.195-6.273-7.231-8.9-10.222-2.626-2.991-9.028-2.25-10.968 2.497-1.726 4.224-4.27 8.137-6.002 10.546 1.996-1.236 6.952-2.047 9.857-4.823 3.63-3.47 6.643 3.157 11.454 6.842 4.811 3.684 18.195 1.153 20.618 4.202 2.422 3.05 0 3.74 0 11.18z" fill="url(#paint1_linear_1878_3736)"/><path fill-rule="evenodd" clip-rule="evenodd" d="M51.35 13.517c.686-.476 1.371-.788 2.032-.788.67 0 1.307.373 1.946.968.64.597 1.299 1.434 2.013 2.394.21.283.426.577.648.88 1.287 1.753 2.777 3.784 4.672 5.564 1.094 1.027 2.587 1.614 4.297 1.944 1.71.33 3.628.4 5.56.4.71 0 1.42-.01 2.125-.02 1.212-.015 2.401-.031 3.513.002 1.757.052 3.343.227 4.548.724 1.195.493 2.032 1.043 2.593 1.716.562.676.838 1.468.927 2.427.088.956-.01 2.084-.197 3.438-.1.72-.225 1.509-.364 2.373-.12.76-.251 1.576-.381 2.455-.444 3-.213 6.55.258 9.77.47 3.221 1.18 6.106 1.69 7.777l-.213.065c-.513-1.681-1.225-4.577-1.698-7.809-.472-3.23-.706-6.804-.258-9.836.131-.886.262-1.703.383-2.461.137-.86.263-1.644.362-2.364.187-1.352.282-2.458.196-3.387-.086-.926-.35-1.671-.877-2.304-.528-.636-1.33-1.168-2.505-1.653-1.166-.48-2.717-.655-4.47-.708-1.109-.033-2.288-.017-3.496 0-.705.009-1.42.018-2.135.018-1.936 0-3.87-.07-5.603-.404-1.731-.333-3.27-.933-4.408-2-1.91-1.795-3.415-3.845-4.7-5.598-.222-.302-.437-.595-.646-.876-.715-.96-1.363-1.782-1.986-2.363-.625-.583-1.209-.909-1.794-.909-.593 0-1.233.282-1.905.749-.672.465-1.363 1.105-2.059 1.802-.348.348-.696.71-1.042 1.07l-.007.007a80.39 80.39 0 01-1.025 1.053c-.68.681-1.35 1.3-1.986 1.725l-.124-.186c.618-.413 1.273-1.017 1.952-1.697.337-.338.679-.692 1.023-1.05l.006-.007c.346-.36.696-.723 1.045-1.073.698-.699 1.401-1.35 2.09-1.828z" fill="#F9F9F9"/><path d="M86.954 42.012c-1.044 2.876.507 10.716 2.174 13.324h3.913c-.218-3.102-1.74-6.133.652-10.152 2.055-3.453 5.435-10.363 5.218-16.497-.218-6.134-6.74-8.037-7.61-12.902-.695-3.891 1.305-8.812 2.392-10.786-2.754 1.903-8.261 6.725-8.261 10.786 0 5.076 5.217 5.922 5.87 10.787.652 4.864-3.044 11.844-4.349 15.44z" fill="url(#paint2_linear_1878_3736)"/><path fill-rule="evenodd" clip-rule="evenodd" d="M90.83 8.734c-.737.923-2.382 3.439-3.046 6.098-.198.794.097 1.79.697 2.934.597 1.14 1.48 2.398 2.422 3.707l.325.451c.841 1.166 1.705 2.364 2.424 3.538.813 1.325 1.449 2.63 1.662 3.837.426 2.416-.57 4.54-1.825 6.808-.166.3-.336.602-.508.908-1.137 2.016-2.364 4.194-2.966 6.843-1.107 4.88.463 9.802 1.385 11.648l-.199.1c-.937-1.875-2.526-6.852-1.403-11.798.61-2.683 1.854-4.89 2.99-6.906.172-.305.342-.606.506-.904 1.255-2.268 2.21-4.33 1.8-6.66-.205-1.165-.824-2.441-1.632-3.76-.715-1.166-1.573-2.356-2.414-3.523-.11-.15-.218-.301-.326-.451-.94-1.308-1.833-2.579-2.439-3.734-.603-1.15-.935-2.212-.715-3.093.674-2.7 2.339-5.245 3.088-6.183l.174.14z" fill="#F9F9F9"/><path d="M72.572 55.336H100l-3.265 34.966a4.47 4.47 0 01-4.459 4.046H81.451a4.471 4.471 0 01-4.443-3.902l-4.436-35.11z" fill="#D7E9F9"/><path d="M72.572 55.336H100l-3.265 34.966a4.47 4.47 0 01-4.459 4.046H81.451a4.471 4.471 0 01-4.443-3.902l-4.436-35.11z" fill="url(#paint3_linear_1878_3736)" fill-opacity=".25"/><path d="M72.572 55.336H100l-3.265 34.966a4.47 4.47 0 01-4.459 4.046H81.451a4.471 4.471 0 01-4.443-3.902l-4.436-35.11z" fill="url(#paint4_linear_1878_3736)" fill-opacity=".5"/><mask id="a" style="mask-type:alpha" maskUnits="userSpaceOnUse" x="72" y="55" width="29" height="40"><path d="M72.572 55.336H100l-3.265 34.966a4.47 4.47 0 01-4.459 4.046H81.451a4.471 4.471 0 01-4.443-3.902l-4.436-35.11z" fill="#424242"/></mask><g mask="url(#a)" fill-rule="evenodd" clip-rule="evenodd" fill="#000"><path d="M100.54 59.651H72.392v-.36h28.148v.36zm0 1.259H72.392v-.18h28.148v.18zm0 29.663H72.392v-.18h28.148v.18z"/></g><path d="M20.747 96.595h58.57l-8.428 3.416h-58.57l8.428-3.416z" fill="#D7E9F9"/><path d="M22.26 97.315h4.359l-2.386.899h-4.359l2.386-.9zm5.936 0h4.358l-2.386.899H25.81l2.386-.9zm5.967 0h4.416l-2.418.899h-4.416l2.418-.9zm5.935 0h4.416l-2.418.899H37.68l2.418-.9zm5.935 0h4.416l-2.418.899h-4.416l2.418-.9zm5.877 0h4.474l-2.45.899H49.46l2.45-.9zm5.993 0h4.417l-2.418.899h-4.417l2.418-.9zm5.903 0h4.359l-2.386.899H61.42l2.386-.9zm5.936 0h4.359l-2.386.899h-4.359l2.386-.9zm-50 1.348h4.359l-2.386.81h-4.359l2.386-.81zm5.935 0h4.359l-2.386.81h-4.36l2.386-.81zm5.936 0h4.358l-2.386.81h-4.358l2.386-.81zm5.934 0h4.359l-2.386.81h-4.36l2.386-.81zm5.936 0h4.358l-2.386.81h-4.358l2.386-.81zm5.935 0h4.359l-2.386.81h-4.359l2.386-.81zm5.935 0h4.359l-2.386.81h-4.359l2.386-.81zm5.91 0h4.474l-2.45.81h-4.474l2.45-.81zm5.872 0h4.358l-2.386.81H64.75l2.386-.81z" fill="#F9F9F9"/><path d="M20.683 63.735c0-.617.501-1.118 1.119-1.118h56.755c.618 0 1.119.5 1.119 1.118v33.22H20.683v-33.22z" fill="#D7E9F9"/><path d="M20.683 63.735c0-.617.501-1.118 1.119-1.118h56.755c.618 0 1.119.5 1.119 1.118v33.22H20.683v-33.22z" fill="url(#paint5_linear_1878_3736)" fill-opacity=".25"/><path d="M23.291 65.584h53.777v28.315H23.291V65.584z" fill="url(#paint6_linear_1878_3736)"/><path d="M57.554 78.931c0-3.896-3.12-7.055-6.97-7.055-3.849 0-6.97 3.159-6.97 7.055 0 1.16.277 2.279.799 3.28l-.778 3.028a.605.605 0 00.154.574.592.592 0 00.568.156l2.99-.788c.998.53 2.11.807 3.237.805 3.85 0 6.97-3.158 6.97-7.055zm-6.97-2.822c.37 0 .724.149.986.413.261.265.408.624.408.998v2.822c0 .374-.147.733-.408.998a1.385 1.385 0 01-.986.413h-2.09c-.37 0-.725-.148-.986-.413a1.42 1.42 0 01-.409-.998V77.52c0-.374.147-.733.409-.998.261-.264.616-.413.985-.413h2.091zm2.091 3.642v-1.64l1.209-1.158a.521.521 0 01.882.384v3.188a.534.534 0 01-.316.486.517.517 0 01-.567-.102l-1.208-1.158z" fill="#fff"/><mask id="b" style="mask-type:alpha" maskUnits="userSpaceOnUse" x="20" y="62" width="60" height="35"><path d="M20.683 63.735c0-.617.501-1.118 1.119-1.118h56.755c.618 0 1.119.5 1.119 1.118v33.22H20.683v-33.22z" fill="#D7E9F9"/><path d="M20.683 63.735c0-.617.501-1.118 1.119-1.118h56.755c.618 0 1.119.5 1.119 1.118v33.22H20.683v-33.22z" fill="url(#paint7_linear_1878_3736)" fill-opacity=".25"/><path d="M57.554 78.931c0-3.896-3.12-7.055-6.97-7.055-3.849 0-6.97 3.159-6.97 7.055 0 1.16.277 2.279.799 3.28l-.778 3.028a.605.605 0 00.154.574.592.592 0 00.568.156l2.99-.788c.998.53 2.11.807 3.237.805 3.85 0 6.97-3.158 6.97-7.055zm-6.97-2.822c.37 0 .724.149.986.413.261.265.408.624.408.998v2.822c0 .374-.147.733-.408.998a1.385 1.385 0 01-.986.413h-2.09c-.37 0-.725-.148-.986-.413a1.42 1.42 0 01-.409-.998V77.52c0-.374.147-.733.409-.998.261-.264.616-.413.985-.413h2.091zm2.091 3.642v-1.64l1.209-1.158a.521.521 0 01.882.384v3.188a.534.534 0 01-.316.486.517.517 0 01-.567-.102l-1.208-1.158z" fill="#fff"/></mask><g filter="url(#filter0_d_1878_3736)" mask="url(#b)"><path d="M64.986 43.564c10.528-.17 16.698 8.127 18.467 12.297h-3.396c-3.396-3.605-13.16-4.877-18.043-3.605-4.728 1.232-6.818.755-16.794 11.144s-19.302 11.177-24.897 9.5c-1.819-.545-5.855-4.107-7.553-6.015.636.495 3.014 1.484 7.429 1.484 5.518 0 17.83-13.145 21.65-16.113 3.821-2.968 9.977-8.48 23.137-8.692z" fill="url(#paint8_linear_1878_3736)"/></g><path d="M71.223 99.679l8.093-3.084c0 .797-.495 1.51-1.246 1.797l-6.654 2.534a1.115 1.115 0 01-.4.074h-.602l.809-1.321z" fill="#64B0F6"/><path d="M12.32 100.011h58.633c0 .547-.5.989-1.117.989h-56.4c-.616 0-1.116-.442-1.116-.989z" fill="#D7E9F9"/><path d="M12.32 100.011h58.633c0 .547-.5.989-1.117.989h-56.4c-.616 0-1.116-.442-1.116-.989z" fill="url(#paint9_linear_1878_3736)"/><path fill-rule="evenodd" clip-rule="evenodd" d="M3.112 86.609c.708.52 1.382 1.276 1.789 1.809a.664.664 0 01-.107.914.62.62 0 01-.887-.11c-.366-.48-.955-1.133-1.528-1.553-.291-.213-.53-.331-.7-.368-.143-.03-.175.003-.198.026-.081.084-.21.375-.217.958-.006.54.098 1.198.314 1.84.452 1.344 1.266 2.307 2.243 2.384.348.028.608.34.581.699a.638.638 0 01-.678.599C1.96 93.667.88 92.027.384 90.55A7.123 7.123 0 010 88.271c.007-.665.14-1.404.587-1.864.398-.41.903-.475 1.349-.38.42.09.826.325 1.176.582z" fill="#D8D8D8"/><path d="M3.417 84.28H14.57v8.99c0 2.482-1.997 4.494-4.46 4.494H7.877c-2.464 0-4.46-2.012-4.46-4.494v-8.99z" fill="#D8D8D8"/><path d="M3.417 84.28H14.57v8.99c0 2.482-1.997 4.494-4.46 4.494H7.877c-2.464 0-4.46-2.012-4.46-4.494v-8.99z" fill="url(#paint10_linear_1878_3736)" fill-opacity=".5"/><path d="M6.669 81.198c.174 1.704 1.525 3.125 2.178 3.622-.871-3.196 3.05-1.705 3.703-3.622.654-1.918-.218-3.41-1.742-5.114-1.22-1.364-2.687-1.42-3.268-1.279.436.498 1.307 1.79 1.307 2.983 0 1.492-2.396 1.279-2.178 3.41z" fill="url(#paint11_linear_1878_3736)"/><g filter="url(#filter1_d_1878_3736)"><path d="M82.46 71.75l-.07.053a2.465 2.465 0 00-.639.748 2.46 2.46 0 00-4.116.828 2.46 2.46 0 00-3.058 1.09l-2.084-2.663a2.482 2.482 0 00-3.91 3.057l5.634 7.197-.186-.063-.085-.025a2.433 2.433 0 00-2.93 1.952 2.441 2.441 0 001.772 2.771l9.58 3.329 2.173 2.775a.77.77 0 001.08.132l8.02-6.273a.77.77 0 00.133-1.08l-2.16-2.76-.156-3.37a.769.769 0 00-.162-.44l-5.358-6.845a2.484 2.484 0 00-3.478-.413z" fill="#fff"/></g><path d="M82.46 71.75l-.07.053a2.465 2.465 0 00-.639.748 2.46 2.46 0 00-4.116.828 2.46 2.46 0 00-3.058 1.09l-2.084-2.663a2.482 2.482 0 00-3.91 3.057l5.634 7.197-.186-.063-.085-.025a2.433 2.433 0 00-2.93 1.952 2.441 2.441 0 001.772 2.771l9.58 3.329 2.173 2.775a.77.77 0 001.08.132l8.02-6.273a.77.77 0 00.133-1.08l-2.16-2.76-.156-3.37a.769.769 0 00-.162-.44l-5.358-6.845a2.484 2.484 0 00-3.478-.413z" fill="#fff"/><path d="M82.46 71.75l-.07.053a2.465 2.465 0 00-.639.748 2.46 2.46 0 00-4.116.828 2.46 2.46 0 00-3.058 1.09l-2.084-2.663a2.482 2.482 0 00-3.91 3.057l5.634 7.197-.186-.063-.085-.025a2.433 2.433 0 00-2.93 1.952 2.441 2.441 0 001.772 2.771l9.58 3.329 2.173 2.775a.77.77 0 001.08.132l8.02-6.273a.77.77 0 00.133-1.08l-2.16-2.76-.156-3.37a.769.769 0 00-.162-.44l-5.358-6.845a2.484 2.484 0 00-3.478-.413zm7.467 8.016l.156 3.37a.77.77 0 00.162.44l1.844 2.356-6.804 5.32-1.844-2.355a.77.77 0 00-.353-.251l-9.824-3.392-.067-.019a.899.899 0 01-.665-1.024.893.893 0 011.039-.72l2.611.862a.77.77 0 00.86-1.2l-7.238-9.245a.941.941 0 111.484-1.16l5.76 7.358a.77.77 0 001.213-.949l-2.268-2.897a.941.941 0 111.483-1.16l2.268 2.897a.77.77 0 001.213-.948l-1.746-2.231a.941.941 0 111.484-1.16l2.464 3.147a.77.77 0 001.212-.948l-.537-.687-.023-.028-.638-.817a.939.939 0 01.16-1.318l.07-.053a.94.94 0 011.318.16l5.206 6.651z" fill="#1473E6"/><path d="M64.839 43.564c10.498-.169 16.401 7.574 18.165 11.708h-3.387c-3.386-3.573-12.873-4.352-17.742-3.09-4.715 1.22-6.773 1.05-16.72 11.35-9.949 10.3-19.262 11.35-24.977 9.248-1.775-.653-5.715-4.204-7.408-6.095.635.49 3.006 1.471 7.408 1.471 5.503 0 17.78-13.032 21.59-15.975 3.81-2.942 9.948-8.407 23.07-8.617z" fill="url(#paint12_linear_1878_3736)"/><path fill-rule="evenodd" clip-rule="evenodd" d="M74.36 49.856c3.411 1.706 5.941 3.883 7.025 5.345l-.18.133c-1.057-1.427-3.556-3.583-6.944-5.278-3.386-1.694-7.65-2.921-12.233-2.504-8.06.733-13.064 5-19.208 11.426-3.074 3.215-6.575 6.579-10.502 8.858-3.928 2.28-8.288 3.479-13.073 2.353l.051-.218c4.714 1.11 9.016-.067 12.91-2.328 3.897-2.263 7.38-5.607 10.453-8.82 6.149-6.43 11.203-10.753 19.349-11.494 4.635-.422 8.94.82 12.353 2.527z" fill="#F9F9F9"/><path fill-rule="evenodd" clip-rule="evenodd" d="M22.06 21.03a2.257 2.257 0 00-3.172.168l-3.001 3.315-9.053 1.662L22.7 40.325l.702-9.11 3.002-3.314a2.216 2.216 0 00-.17-3.147L22.06 21.03z" fill="#64B0F6"/><path fill-rule="evenodd" clip-rule="evenodd" d="M22.06 21.03a2.257 2.257 0 00-3.172.168l-3.001 3.315-9.053 1.662L22.7 40.325l.702-9.11 3.002-3.314a2.216 2.216 0 00-.17-3.147L22.06 21.03z" fill="url(#paint13_linear_1878_3736)"/><path d="M22.493 40.579c-.928 1.032-5.214-1.306-9.573-5.222-4.36-3.916-7.141-7.927-6.213-8.96.928-1.031 5.214 1.307 9.573 5.223 4.36 3.916 7.141 7.927 6.213 8.959z" fill="#D7E9F9"/><mask id="c" style="mask-type:alpha" maskUnits="userSpaceOnUse" x="6" y="26" width="17" height="15"><path d="M22.49 40.583c-.927 1.032-5.212-1.306-9.57-5.224-4.36-3.917-7.14-7.929-6.213-8.96.928-1.033 5.213 1.305 9.572 5.222 4.358 3.917 7.14 7.93 6.212 8.962z" fill="#D7E9F9"/></mask><g mask="url(#c)"><path d="M19.604 31.785a3.956 3.956 0 01-3.957 3.956 3.956 3.956 0 113.957-3.956z" fill="#fff"/></g><path d="M31.295 20.145c0 .918-.765 1.663-1.709 1.663-.944 0-1.709-.745-1.709-1.663s.765-1.663 1.71-1.663c.943 0 1.708.745 1.708 1.663zm12.231 7.191a1.663 1.663 0 11-3.327 0 1.663 1.663 0 013.327 0z" fill="#1473E6"/><defs><linearGradient id="paint13_linear_1878_3736" x1="16.906" y1="20.459" x2="16.906" y2="40.325" gradientUnits="userSpaceOnUse"><stop stop-color="#1473E6"/><stop offset="1" stop-color="#1473E6" stop-opacity="0"/></linearGradient><linearGradient id="paint12_linear_1878_3736" x1="48.012" y1="47.186" x2="56.807" y2="63.782" gradientUnits="userSpaceOnUse"><stop stop-color="#13E28E"/><stop offset="1" stop-color="#1473E6"/></linearGradient><linearGradient id="paint0_linear_1878_3736" x1="54.474" y1="28.999" x2="65.427" y2="47.426" gradientUnits="userSpaceOnUse"><stop stop-color="#13E28E"/><stop offset="1" stop-color="#1473E6"/></linearGradient><linearGradient id="paint1_linear_1878_3736" x1="67.026" y1="7.537" x2="55.728" y2="35.31" gradientUnits="userSpaceOnUse"><stop stop-color="#13E28E"/><stop offset="1" stop-color="#1473E6"/></linearGradient><linearGradient id="paint2_linear_1878_3736" x1="85.432" y1="44.15" x2="101.683" y2="49.093" gradientUnits="userSpaceOnUse"><stop stop-color="#13E28E"/><stop offset="1" stop-color="#1473E6"/></linearGradient><linearGradient id="paint3_linear_1878_3736" x1="95.382" y1="58.123" x2="64.698" y2="83.454" gradientUnits="userSpaceOnUse"><stop stop-color="#13E28E"/><stop offset="1" stop-color="#1473E6"/></linearGradient><linearGradient id="paint4_linear_1878_3736" x1="74.929" y1="74.842" x2="95.472" y2="82.445" gradientUnits="userSpaceOnUse"><stop stop-color="#13E28E" stop-opacity="0"/><stop offset=".824" stop-color="#1473E6"/></linearGradient><linearGradient id="paint5_linear_1878_3736" x1="50.179" y1="62.617" x2="50.179" y2="96.955" gradientUnits="userSpaceOnUse"><stop offset=".606" stop-color="#1473E6" stop-opacity="0"/><stop offset="1" stop-color="#1473E6"/></linearGradient><linearGradient id="paint6_linear_1878_3736" x1="50.179" y1="65.584" x2="50.179" y2="93.899" gradientUnits="userSpaceOnUse"><stop stop-color="#1473E6"/><stop offset="1" stop-color="#0A58B7"/></linearGradient><linearGradient id="paint7_linear_1878_3736" x1="50.179" y1="62.617" x2="50.179" y2="96.955" gradientUnits="userSpaceOnUse"><stop offset=".606" stop-color="#1473E6" stop-opacity="0"/><stop offset="1" stop-color="#1473E6"/></linearGradient><linearGradient id="paint8_linear_1878_3736" x1="71.552" y1="45.706" x2="56.166" y2="88.239" gradientUnits="userSpaceOnUse"><stop stop-color="#13E28E"/><stop offset="1" stop-color="#1473E6"/></linearGradient><linearGradient id="paint9_linear_1878_3736" x1="41.636" y1="100.011" x2="41.636" y2="101" gradientUnits="userSpaceOnUse"><stop stop-color="#D7E9F9" stop-opacity="0"/><stop offset=".708" stop-color="#64B0F6"/></linearGradient><linearGradient id="paint10_linear_1878_3736" x1="14.569" y1="91.022" x2="3.417" y2="91.022" gradientUnits="userSpaceOnUse"><stop stop-color="#D8D8D8"/><stop offset="1" stop-color="#D8D8D8" stop-opacity="0"/></linearGradient><linearGradient id="paint11_linear_1878_3736" x1="9.712" y1="74.752" x2="9.712" y2="84.82" gradientUnits="userSpaceOnUse"><stop stop-color="#ABCAE6"/><stop offset="1" stop-color="#64B0F6" stop-opacity="0"/></linearGradient><filter id="filter1_d_1878_3736" x="64.056" y="70.854" width="33.881" height="30.241" filterUnits="userSpaceOnUse" color-interpolation-filters="sRGB"><feFlood flood-opacity="0" result="BackgroundImageFix"/><feColorMatrix in="SourceAlpha" values="0 0 0 0 0 0 0 0 0 0 0 0 0 0 0 0 0 0 127 0" result="hardAlpha"/><feOffset dy="4"/><feGaussianBlur stdDeviation="2"/><feComposite in2="hardAlpha" operator="out"/><feColorMatrix values="0 0 0 0 0 0 0 0 0 0 0 0 0 0 0 0 0 0 0.25 0"/><feBlend in2="BackgroundImageFix" result="effect1_dropShadow_1878_3736"/><feBlend in="SourceGraphic" in2="effect1_dropShadow_1878_3736" result="shape"/></filter><filter id="filter0_d_1878_3736" x="8.77" y="43.561" width="78.684" height="38.023" filterUnits="userSpaceOnUse" color-interpolation-filters="sRGB"><feFlood flood-opacity="0" result="BackgroundImageFix"/><feColorMatrix in="SourceAlpha" values="0 0 0 0 0 0 0 0 0 0 0 0 0 0 0 0 0 0 127 0" result="hardAlpha"/><feOffset dy="4"/><feGaussianBlur stdDeviation="2"/><feComposite in2="hardAlpha" operator="out"/><feColorMatrix values="0 0 0 0 0 0 0 0 0 0 0 0 0 0 0 0 0 0 0.25 0"/><feBlend in2="BackgroundImageFix" result="effect1_dropShadow_1878_3736"/><feBlend in="SourceGraphic" in2="effect1_dropShadow_1878_3736" result="shape"/></filter></defs></svg>