<svg width="120" height="121" fill="none" xmlns="http://www.w3.org/2000/svg"><g filter="url(#filter0_d_1878_3637)"><path d="M21.328 63.37l8.186 44.593c.11.601.634 1.037 1.245 1.037h56.44c.79 0 1.386-.716 1.244-1.494l-7.968-43.607a1.265 1.265 0 00-1.244-1.038H53.62c-.385 0-.748-.175-.988-.475l-1.224-1.53c-.24-.3-.604-.476-.988-.476H23.817a2.532 2.532 0 00-2.49 2.99z" fill="#BCBCBC"/><path d="M21.328 63.37l8.186 44.593c.11.601.634 1.037 1.245 1.037h56.44c.79 0 1.386-.716 1.244-1.494l-7.968-43.607a1.265 1.265 0 00-1.244-1.038H53.62c-.385 0-.748-.175-.988-.475l-1.224-1.53c-.24-.3-.604-.476-.988-.476H23.817a2.532 2.532 0 00-2.49 2.99z" fill="url(#paint0_linear_1878_3637)"/><path d="M59.226 46.831l3.816-16.273c0-.72.502-1.732 1.133-2.017.314-.147.67-.182 1.006-.098l9.089 2.32a1.454 1.454 0 011.106 1.17l.493 2.46 11.888 3.026c1.617.269 2.287 1.768 1.878 2.89l-3.624 13.73c-.577 1.583-2.307 2.447-3.688 2.094l-21.015-5.359c-1.438-.363-2.337-1.95-2.082-3.943z" fill="#1473E6"/><path d="M58.97 46.508l3.353-13.61c.395-1.042 1.304-1.658 2.139-1.442l24.17 6.1c1.006.26 1.5 1.603 1.05 2.877l-3.371 12.588c-.795 3.136-2.682 3.647-4.12 3.284l-20.877-5.327c-2.146-.548-3.138-1.781-2.344-4.47z" fill="#64B0F6"/><path d="M74.803 47.945a3.882 3.882 0 01-3.861-3.523 3.894 3.894 0 012.044-3.803 3.876 3.876 0 014.291.436 3.889 3.889 0 011.24 4.137 3.887 3.887 0 01-3.715 2.753zm0-7.449a3.546 3.546 0 00-3.171 1.955 3.562 3.562 0 001.845 4.902 3.546 3.546 0 004.72-2.258 3.564 3.564 0 00-.543-3.15 3.552 3.552 0 00-2.847-1.442l-.004-.007z" fill="#F9F9F9"/><path d="M73.945 43.762l.497-1.555 1.153 1.19 1.153 1.194-1.65.364-1.65.364.497-1.557z" fill="#F9F9F9"/><path d="M84.56 15.806l.913 2.24c-.135.006-.27.03-.403.085-.624.254-.93.944-.685 1.545.245.6.946.88 1.57.626.578-.236.879-.851.72-1.42l.013-.004-1.081-2.654 1.001-.409-.295-.724-1.752.715z" fill="#1473E6"/><path d="M92.358 21.739l-1.618 4.23a2.302 2.302 0 00-.66-.4c-1.177-.453-2.478.097-2.912 1.232-.434 1.135.165 2.418 1.342 2.871 1.093.42 2.291-.033 2.802-1.013l.023.009 1.918-5.015 1.891.728.523-1.367-3.31-1.275zM100.5 99.33l-13.4-4.87a1.798 1.798 0 01-1.076-2.302l6.757-18.687a1.794 1.794 0 012.297-1.076l8.548 3.121 4.071 9.198-4.895 13.545a1.792 1.792 0 01-2.302 1.07z" fill="#64B0F6"/><path d="M98.675 87.631a3.965 3.965 0 01-4.04-3.489 3.972 3.972 0 011.986-3.936 3.964 3.964 0 015.718 2.212c.246.745.265 1.546.056 2.303a3.978 3.978 0 01-3.72 2.91zm-.202-7.6a3.627 3.627 0 00-3.51 4.033 3.633 3.633 0 002.342 3 3.625 3.625 0 004.12-5.633 3.63 3.63 0 00-2.948-1.393l-.004-.007z" fill="#F9F9F9"/><path d="M97.67 83.407l.458-1.647 1.197 1.22 1.198 1.223-1.656.427-1.656.428.458-1.65z" fill="#F9F9F9"/><path d="M87.832 87.151l16.76 6.11-1.91 5.28a1.498 1.498 0 01-1.921.898l-13.94-5.08a1.504 1.504 0 01-.9-1.927l1.91-5.28z" fill="#1473E6"/><path d="M93.865 94.639l1.014-2.802-.705-.257-1.554 1.712-.016-.006-.098-2.312-.705-.256-1.014 2.802.542.197.684-1.891.017.006.105 2.178.382.14 1.475-1.606.016.006-.685 1.892.542.197zm1.497-2.627l-1.014 2.802.609.222.32-.884.543.198c.613.222 1.177-.008 1.385-.583.209-.576-.064-1.108-.66-1.325l-1.183-.43zm.44.685l.414.15c.348.127.485.379.37.697-.116.32-.384.426-.733.299l-.41-.15.36-.996zm2.414 3.523l.578.21.186-.515.383.14.17-.469-.384-.139.659-1.82-.858-.311c-.902.628-1.395 1.002-1.817 1.374l-.177.49 1.446.525-.186.515zm-.561-1.316c.383-.333.79-.635 1.423-1.067l.012.004-.512 1.416-.929-.337.006-.016z" fill="#F9F9F9"/><path d="M100.5 99.33l-13.4-4.87a1.798 1.798 0 01-1.076-2.302l6.757-18.687a1.794 1.794 0 012.297-1.076l8.548 3.121 4.071 9.198-4.895 13.545a1.792 1.792 0 01-2.302 1.07z" fill="url(#paint1_linear_1878_3637)" fill-opacity=".5"/><path d="M32.007 92.105L18.38 96.296a1.792 1.792 0 01-2.241-1.19l-5.825-19a1.799 1.799 0 011.188-2.244l8.702-2.661 8.775 4.89 4.224 13.77a1.799 1.799 0 01-1.196 2.244z" fill="#64B0F6"/><path d="M23.7 83.808a3.915 3.915 0 01-1.019.586 3.96 3.96 0 01-5.349-2.988 3.979 3.979 0 011.76-4.046 3.963 3.963 0 014.404.074 3.963 3.963 0 011.566 4.29 3.989 3.989 0 01-1.361 2.084zm-4.725-5.948a3.639 3.639 0 00-.382 5.338 3.62 3.62 0 005.34-.08 3.64 3.64 0 00.672-3.75 3.626 3.626 0 00-2.432-2.17 3.618 3.618 0 00-3.191.665l-.007-.003z" fill="#F9F9F9"/><path d="M22.542 80.136l-.17-.554c-.027-.087-.143-.129-.26-.093l-2.527.777c-.116.036-.189.136-.162.223l.485 1.584c.027.087.143.129.26.093l2.527-.777c.116-.036.189-.136.162-.224l-.17-.554 1.037.374-.534-1.741-.648.892z" fill="#F9F9F9"/><path d="M14.576 90.017L31.63 84.79l1.646 5.37a1.503 1.503 0 01-.995 1.875l-14.184 4.348a1.5 1.5 0 01-1.876-.996l-1.645-5.369z" fill="#1473E6"/><path d="M22.953 92.396l.7-.215-1.968-2.513-.774.238-.22 3.186.676-.208.028-.765 1.106-.34.452.617zm-1.507-2.058l.015-.005.762 1.043-.823.253.046-1.291zm3.841 1.34l.185-3.175-.718.221-.035 2.457-.015.005-1.405-2.015-.737.227 1.93 2.525.795-.245zm2.039-.627l-.873-2.85-.659.203.873 2.85.66-.203z" fill="#F9F9F9"/><path d="M32.007 92.105L18.38 96.296a1.792 1.792 0 01-2.241-1.19l-5.825-19a1.799 1.799 0 011.188-2.244l8.702-2.661 8.775 4.89 4.224 13.77a1.799 1.799 0 01-1.196 2.244z" fill="url(#paint2_linear_1878_3637)" fill-opacity=".5"/><path d="M28.75 67.999c0-.701.566-1.27 1.265-1.27H87.98c.699 0 1.265.569 1.265 1.27v39.732c0 .701-.566 1.269-1.265 1.269H30.015a1.267 1.267 0 01-1.265-1.269V67.999z" fill="#D8D8D8"/><path fill-rule="evenodd" clip-rule="evenodd" d="M85.984 68.548H32.01c-.558 0-1.011.453-1.011 1.012v37.131c0 .559.453 1.012 1.011 1.012h53.974c.559 0 1.012-.453 1.012-1.012v-37.13c0-.56-.453-1.013-1.012-1.013zm-53.974-.253c-.698 0-1.264.567-1.264 1.265v37.131c0 .699.566 1.265 1.264 1.265h53.974c.699 0 1.265-.566 1.265-1.265v-37.13c0-.7-.566-1.266-1.265-1.266H32.01z" fill="#BCBCBC"/><path d="M28.75 67.999c0-.701.566-1.27 1.265-1.27H87.98c.699 0 1.265.569 1.265 1.27v39.732c0 .701-.566 1.269-1.265 1.269H30.015a1.267 1.267 0 01-1.265-1.269V67.999z" fill="url(#paint3_linear_1878_3637)"/><path d="M56.952 82.147l-13.4-4.87a1.797 1.797 0 01-1.076-2.302l6.757-18.687a1.794 1.794 0 012.298-1.076l8.547 3.121 4.071 9.198-4.895 13.545a1.798 1.798 0 01-1.61 1.18 1.798 1.798 0 01-.692-.11z" fill="#64B0F6"/><path d="M56.952 82.147l-13.4-4.87a1.797 1.797 0 01-1.076-2.302l6.757-18.687a1.794 1.794 0 012.298-1.076l8.547 3.121 4.071 9.198-4.895 13.545a1.798 1.798 0 01-1.61 1.18 1.798 1.798 0 01-.692-.11z" fill="url(#paint4_linear_1878_3637)"/><path d="M55.127 70.448a3.966 3.966 0 01-4.04-3.489 3.971 3.971 0 014.232-4.44 3.965 3.965 0 013.472 2.715 3.972 3.972 0 01-3.664 5.214zm-.203-7.6a3.627 3.627 0 00-3.51 4.033 3.631 3.631 0 004.314 3.157 3.628 3.628 0 00-.8-7.183l-.003-.007z" fill="#F9F9F9"/><path d="M54.12 66.224l.458-1.647 1.198 1.22 1.198 1.223-1.656.428-1.657.427.459-1.65z" fill="#F9F9F9"/><path d="M44.283 69.968l16.76 6.11-1.91 5.28a1.5 1.5 0 01-1.92.898l-13.94-5.08a1.504 1.504 0 01-.9-1.927l1.91-5.28z" fill="#1473E6"/><path d="M50.317 77.456l1.014-2.803-.705-.256-1.554 1.712-.016-.006-.098-2.312-.705-.256-1.014 2.802.542.197.684-1.891.016.006.105 2.178.383.14 1.474-1.605.016.005-.684 1.892.542.197zm1.497-2.626L50.8 77.631l.608.22.32-.883.544.198c.612.222 1.176-.008 1.385-.583.208-.577-.064-1.109-.66-1.325l-1.183-.43zm.44.684l.413.15c.349.127.486.379.37.697-.116.32-.384.426-.732.299l-.411-.15.36-.996zm2.413 3.523l.578.21.187-.515.382.14.17-.469-.383-.139.659-1.82-.858-.311c-.902.628-1.396 1.002-1.818 1.374l-.177.49 1.447.525-.187.515zm-.56-1.316c.382-.333.79-.635 1.423-1.067l.012.005-.513 1.415-.928-.337.005-.016z" fill="#F9F9F9"/><path d="M33.574 70.362c.08-.634.617-1.11 1.255-1.11h57.925c.76 0 1.35.668 1.255 1.425l-4.64 37.212A1.266 1.266 0 0188.112 109H30.188c-.76 0-1.35-.668-1.255-1.425l4.641-37.213z" fill="#F0F0F0"/><path fill-rule="evenodd" clip-rule="evenodd" d="M93.38 75.688H32.916l.119-.957h60.463l-.118.957z" fill="#F9F9F9"/><path fill-rule="evenodd" clip-rule="evenodd" d="M31.46 12.793L57.37 8.73l2.96 18.963-25.908 4.063-2.962-18.963zm.344.25l2.868 18.369 25.315-3.97L57.12 9.074l-25.315 3.97z" fill="#F0F0F0"/><path d="M32.978 13.902l23.284-3.65 2.55 16.332-23.283 3.65-2.55-16.332z" fill="#F0F0F0"/><path d="M42.038 18.457l-5.927 11.686 22.12-3.468-7.006-6.67-3.037 3.464-6.15-5.012z" fill="#D8D8D8"/><path d="M42.73 41.73l-1.363-4.217a1.267 1.267 0 00-1.592-.815L25.346 41.38a1.27 1.27 0 00-.813 1.595l3.894 12.05c.214.662.93 1.029 1.592.814l14.428-4.682a1.27 1.27 0 00.813-1.595l-1.362-4.218 6.367 3.26-4.284-13.255-3.252 6.38z" fill="url(#paint5_linear_1878_3637)"/><path fill-rule="evenodd" clip-rule="evenodd" d="M42.106 51.905L37.42 37.449l.92-.299 4.684 14.456-.92.299z" fill="#D7E9F9"/><path d="M54.071 14.22c0 1.055-.792 1.91-1.77 1.91-.976 0-1.768-.855-1.768-1.91 0-1.054.792-1.909 1.769-1.909.977 0 1.769.855 1.769 1.91z" fill="#BCBCBC"/><path d="M91.404 60.21l-1.723 5.411a2.883 2.883 0 00-.855-.454c-1.506-.484-3.095.299-3.557 1.75-.463 1.453.38 3.015 1.885 3.498 1.397.448 2.865-.205 3.434-1.469l.03.01 2.043-6.415 2.42.776.557-1.75-4.234-1.358z" fill="url(#paint6_linear_1878_3637)"/><path d="M31.453 8.947a.15.15 0 01.261-.07l1.288 1.487a.15.15 0 00.133.05l1.95-.245a.15.15 0 01.148.227l-1.014 1.687a.151.151 0 00-.007.142l.836 1.783a.15.15 0 01-.17.21l-1.915-.444a.15.15 0 00-.136.037l-1.434 1.348a.15.15 0 01-.253-.097l-.17-1.962a.15.15 0 00-.077-.12l-1.722-.949a.15.15 0 01.014-.27l1.81-.769a.15.15 0 00.089-.11l.369-1.935z" fill="#64B0F6"/><path d="M86.131 91.518a.126.126 0 01.24 0l.518 1.59a.126.126 0 00.12.087h1.676c.123 0 .173.156.075.228l-1.356.982a.126.126 0 00-.046.141l.518 1.59c.037.116-.096.213-.195.14l-1.355-.982a.126.126 0 00-.149 0l-1.356.983c-.099.072-.232-.025-.194-.14l.518-1.59a.126.126 0 00-.046-.142l-1.356-.982a.126.126 0 01.074-.228h1.676a.126.126 0 00.12-.087l.518-1.59z" fill="#00C9A5"/><path d="M97.978 40.998a.126.126 0 01.229.075l-.01 2.257c0 .055.034.104.087.12l2.138.708c.116.038.116.204-.001.241l-2.145.688a.127.127 0 00-.088.12l-.01 2.257a.126.126 0 01-.23.073l-1.315-1.832a.127.127 0 00-.14-.046l-2.146.687c-.116.038-.213-.096-.14-.195l1.332-1.82a.127.127 0 000-.15l-1.315-1.83c-.072-.1.026-.234.142-.195l2.139.707a.126.126 0 00.141-.046l1.332-1.82z" fill="#D8D8D8"/><path d="M81.738 25.867c0 .528-.466.957-1.041.957s-1.042-.429-1.042-.957.467-.957 1.042-.957 1.041.429 1.041.957z" fill="#C4C4C4"/><path d="M19.425 56.553l-1.623 3.712a2.056 2.056 0 00-.573-.386c-1.032-.455-2.218-.018-2.653.978-.436.996.046 2.167 1.079 2.622.958.421 2.048.067 2.545-.788l.02.01 1.925-4.4 1.658.73.525-1.2-2.903-1.278z" fill="#64B0F6"/></g><defs><linearGradient id="paint0_linear_1878_3637" x1="63.171" y1="96.272" x2="45.44" y2="27.598" gradientUnits="userSpaceOnUse"><stop offset=".126" stop-color="#2663BE"/><stop offset="1" stop-color="#BCBCBC" stop-opacity="0"/></linearGradient><linearGradient id="paint1_linear_1878_3637" x1="89.254" y1="84.484" x2="104.119" y2="84.8" gradientUnits="userSpaceOnUse"><stop stop-color="#0B4376"/><stop offset="1" stop-color="#64B0F6" stop-opacity="0"/></linearGradient><linearGradient id="paint2_linear_1878_3637" x1="30.774" y1="85.325" x2="11.797" y2="85.641" gradientUnits="userSpaceOnUse"><stop stop-color="#083762"/><stop offset="1" stop-color="#64B0F6" stop-opacity="0"/></linearGradient><linearGradient id="paint3_linear_1878_3637" x1="70.164" y1="70.863" x2="62.848" y2="107.655" gradientUnits="userSpaceOnUse"><stop stop-color="#D8D8D8" stop-opacity="0"/><stop offset="1" stop-color="silver"/></linearGradient><linearGradient id="paint4_linear_1878_3637" x1="55.408" y1="63.378" x2="55.408" y2="55.138" gradientUnits="userSpaceOnUse"><stop stop-color="#00539F"/><stop offset="1" stop-color="#64B0F6" stop-opacity="0"/></linearGradient><linearGradient id="paint5_linear_1878_3637" x1="42.477" y1="36.962" x2="38.195" y2="57.697" gradientUnits="userSpaceOnUse"><stop stop-color="#13E28E"/><stop offset="1" stop-color="#1473E6"/></linearGradient><linearGradient id="paint6_linear_1878_3637" x1="94.075" y1="61.893" x2="83.405" y2="66.561" gradientUnits="userSpaceOnUse"><stop stop-color="#13E28E"/><stop offset="1" stop-color="#1473E6"/></linearGradient><filter id="filter0_d_1878_3637" x="2.235" y=".73" width="117.462" height="120.27" filterUnits="userSpaceOnUse" color-interpolation-filters="sRGB"><feFlood flood-opacity="0" result="BackgroundImageFix"/><feColorMatrix in="SourceAlpha" values="0 0 0 0 0 0 0 0 0 0 0 0 0 0 0 0 0 0 127 0" result="hardAlpha"/><feOffset dx="2" dy="2"/><feGaussianBlur stdDeviation="5"/><feComposite in2="hardAlpha" operator="out"/><feColorMatrix values="0 0 0 0 0 0 0 0 0 0 0 0 0 0 0 0 0 0 0.1 0"/><feBlend in2="BackgroundImageFix" result="effect1_dropShadow_1878_3637"/><feBlend in="SourceGraphic" in2="effect1_dropShadow_1878_3637" result="shape"/></filter></defs></svg>