<svg width="120" height="87" fill="none" xmlns="http://www.w3.org/2000/svg"><g filter="url(#filter0_d_1878_3702)"><path d="M59.484 48.564c0 14.176-11.525 25.668-25.742 25.668S8 62.74 8 48.564C8 34.39 19.525 22.897 33.742 22.897s25.742 11.492 25.742 25.667z" fill="#D8D8D8" fill-opacity=".25"/><path fill-rule="evenodd" clip-rule="evenodd" d="M33.742 71.899c12.924 0 23.402-10.447 23.402-23.335 0-12.887-10.478-23.334-23.402-23.334-12.924 0-23.402 10.447-23.402 23.334 0 12.888 10.477 23.335 23.402 23.335zm0 2.333c14.217 0 25.742-11.492 25.742-25.668 0-14.175-11.525-25.667-25.742-25.667S8 34.389 8 48.564C8 62.74 19.525 74.232 33.742 74.232z" fill="url(#paint0_linear_1878_3702)"/><path d="M29.484 51.33H18.98v2.989h10.505v4.483l5.98-5.977-5.98-5.977v4.482zm8.961-1.494v-4.483H48.95v-2.988H38.445v-4.483l-5.979 5.977 5.98 5.977z" fill="url(#paint1_linear_1878_3702)"/><path fill-rule="evenodd" clip-rule="evenodd" d="M84.325 20.126a27.48 27.48 0 012.292.716l1.33-4.963 3.085-.659a.823.823 0 00.576-.615l.828-3.087a.733.733 0 00-.407-.939l-9.602-2.572a.733.733 0 00-.822.61l-.827 3.086a.824.824 0 00.192.82l2.343 2.114-1.33 4.963c.78.138 1.565.317 2.342.526zm-.893 3.334a25.86 25.86 0 1018.287 31.672A25.889 25.889 0 0083.432 23.46zM71 69.856a22.172 22.172 0 1127.156-15.678A22.197 22.197 0 0171 69.856zM96.89 42.19l-3.593.961.426 1.589 3.592-.961-.425-1.59zm-8.455-6.608l2.63-2.63 1.163 1.163-2.63 2.63-1.163-1.163zm-5.446-7.292l-1.589-.426-.963 3.595 1.589.426.963-3.595zm-26.4 13.9l3.594.963-.425 1.589-3.595-.963.426-1.59zm3.165 9.95l-3.591.963.426 1.589 3.59-.963-.425-1.589zm1.496-18.025l1.163-1.163 2.63 2.628-1.163 1.164-2.63-2.63zm2.63 26.022l-2.63 2.628 1.163 1.163 2.63-2.629-1.164-1.163zm6.608-31.847l1.59-.425.96 3.592-1.589.425-.96-3.592zm2.55 37.132l-1.588-.426-.963 3.594 1.589.426.963-3.594zm7.401.002l1.59-.425.96 3.592-1.588.425-.962-3.591zm9.157-5.287L88.434 61.3l2.63 2.628 1.163-1.164-2.63-2.628zm4.125-7.998l3.594.963-.425 1.59-3.595-.964.426-1.589zm.21-4.047a.278.278 0 01-.23.357l-14.124 1.84a3.399 3.399 0 11-.06-3.785l14.175 1.392a.28.28 0 01.239.196zM56.89 20.624l4.56-2.745a1.315 1.315 0 011.806.449l1.11 1.844a1.315 1.315 0 01-.449 1.805l-4.561 2.745a1.316 1.316 0 01-1.805-.449l-1.11-1.844a1.315 1.315 0 01.448-1.805zm46.581 8.48l-1.884 1.041a1.317 1.317 0 00-.513 1.788l2.577 4.658a1.316 1.316 0 001.787.514l1.884-1.042a1.314 1.314 0 00.514-1.788l-2.578-4.658a1.313 1.313 0 00-1.787-.514z" fill="url(#paint2_linear_1878_3702)"/><mask id="a" style="mask-type:alpha" maskUnits="userSpaceOnUse" x="48" y="29" width="17" height="20"><path d="M55.181 48.045l-6.602-9.421 6.602-9.05 9.496 16.913-9.496 1.558z" fill="#C4C4C4"/></mask><g mask="url(#a)"><path fill-rule="evenodd" clip-rule="evenodd" d="M33.742 71.899c12.924 0 23.402-10.447 23.402-23.335 0-12.887-10.478-23.334-23.402-23.334-12.924 0-23.402 10.447-23.402 23.334 0 12.888 10.477 23.335 23.402 23.335zm0 2.333c14.217 0 25.742-11.492 25.742-25.668 0-14.175-11.525-25.667-25.742-25.667S8 34.389 8 48.564C8 62.74 19.525 74.232 33.742 74.232z" fill="url(#paint3_linear_1878_3702)"/></g></g><defs><linearGradient id="paint0_linear_1878_3702" x1="50.816" y1="26.564" x2="10.238" y2="74.348" gradientUnits="userSpaceOnUse"><stop stop-color="#13E28E"/><stop offset="1" stop-color="#1473E6"/></linearGradient><linearGradient id="paint1_linear_1878_3702" x1="43.904" y1="39.376" x2="29.183" y2="64.14" gradientUnits="userSpaceOnUse"><stop stop-color="#13E28E"/><stop offset="1" stop-color="#1473E6"/></linearGradient><linearGradient id="paint2_linear_1878_3702" x1="104.736" y1="15.256" x2="61.339" y2="78.609" gradientUnits="userSpaceOnUse"><stop stop-color="#2794FF"/><stop offset="1" stop-color="#E7F0F9"/></linearGradient><linearGradient id="paint3_linear_1878_3702" x1="50.816" y1="26.564" x2="10.238" y2="74.348" gradientUnits="userSpaceOnUse"><stop stop-color="#13E28E"/><stop offset="1" stop-color="#1473E6"/></linearGradient><filter id="filter0_d_1878_3702" x="0" y="0" width="120" height="86.3" filterUnits="userSpaceOnUse" color-interpolation-filters="sRGB"><feFlood flood-opacity="0" result="BackgroundImageFix"/><feColorMatrix in="SourceAlpha" values="0 0 0 0 0 0 0 0 0 0 0 0 0 0 0 0 0 0 127 0" result="hardAlpha"/><feOffset dx="2" dy="2"/><feGaussianBlur stdDeviation="5"/><feComposite in2="hardAlpha" operator="out"/><feColorMatrix values="0 0 0 0 0 0 0 0 0 0 0 0 0 0 0 0 0 0 0.1 0"/><feBlend in2="BackgroundImageFix" result="effect1_dropShadow_1878_3702"/><feBlend in="SourceGraphic" in2="effect1_dropShadow_1878_3702" result="shape"/></filter></defs></svg>