<svg version="1.1" id="Layer_1" xmlns="http://www.w3.org/2000/svg" x="0" y="0" viewBox="0 0 130.2 169.5" xml:space="preserve"><style>.st0{fill:#16013e}</style><path class="st0" d="M100.1 127.8c-3.9 6.3-7.9 12.7-11.8 19-.2.4-.5.8-.7 1.2-.3.7-1.3 1.3-.8 2 .2.4 1.3.2 2 .2 7.1-.1 14.1-.1 21.2-.2h.2c4 .1 4.1.1 4.2 4 0 1.2.6 1.4 1.5 1.5 1 .1 2 0 3.1 0 .8 0 1.2-.3 1.4-1.2.5-2.1 1.2-4.1 2.4-5.9.5-.9 1.2-1.9 2.3-1.6 1.1.3.9 1.5.9 2.5 0 .2.1.3.1.6.2-.1.4-.2.4-.3.6-.9 1.3-1.9 2.6-1.5 1.4.5 1.1 1.9 1 2.9-.2 3.6-.9 7.1-2.5 10.5h2.7c-.6 1-1.5.8-2.1.9-4.7.5-9.4 1.4-14.2 1.8-4.7.4-9.4.9-14.1 1.5-2.8.4-5.2 0-7.3-1.9-.6-.6-1.3-1.2-2.4-1.1-.1.8.6 1.1.9 1.7.2.3.8.6.3 1-.3.3-.8.1-1.1-.2-1.8-1.1-3.7-1.7-5.6-2.2-.5-.1-1.2-.3-1.5.2-.3.5.2 1 .6 1.4.5.6 1 1.2 1.6 1.9-5.2.4-10.3.8-15.4 1.1-5.1.3-10.3.6-15.3.4-.5.7 1 1 .2 1.6-.7.5-1.2-.3-1.6-.7-1.5-1.3-2.9-2.2-4.6-.4-.1.1-.4.2-.7.2-.5-.1-1 .8-1.4.1-.3-.4.2-.9.4-1.3.3-.6.5-1.2 1-2.1-2 .8-3.7 1.8-5 3.1-.8.7-1.3.6-2 .2-1.4-.8-2.8-1.7-4.2-2.4-.5-.3-1.1-.7-1.9-.7.7 1.8 2.2 2.6 3.4 3.5-.2.5-.6.4-.8.3-1.6-1.3-3.7-1.2-5.4-1.8-4-1.5-5.5-4.9-6.5-8.6-.2-.9-.3-1.9-.4-2.8-.2-1.5-.7-2.8-1.7-4.1-2.2-2.8-2.8-6.3-3.3-9.7-.7-4.4-.9-8.9-.4-13.4.8-6.2 2.2-12.3 6-17.5 1.1-1.6 2.5-2.8 4.4-3.7-.1 1-.8 1.3-1.3 1.8-4.5 4.7-6.6 10.6-7.7 16.8-1.3 7.3-.8 14.5 1.3 21.7 1.2 4.1 4 5.8 7.9 6.4 5.5.8 10.8-.5 16.1-1.6 1-.2 2.4-.2 3-.8.7-.7-.2-2 0-3 .2-1.7.2-3.5.4-5.2.2-1.2-.1-1.6-1.4-1.3-3.7.8-7.3 1.5-11 2.3-.8.2-1.5.2-2.6.1 2-1.3 4-1.2 5.9-1.6 6.2-1.2 12.3-2.9 18.3-4.7 4.4-1.3 9.4-.2 11 4.2-.6.2-.8-.4-1.1-.7-3-3.5-6.7-3.7-10.7-2.3-1.9.6-3.7 1.2-5.7 1.7-1.2.3-1.8.8-1.9 2.2-.1 2.8-.2 2.8 2.4 1.9 1.4-.4 2.7-.7 4.2-.4 1.2.3 2.4-.1 3.3-.9 2.1-1.7 4.4-1.3 6 1.3-1.3-.2-2-1.6-3.4-1.4-.6.1-1.3-.1-1.8.5-1.2 1.3-2.8 1.5-4.5 1.4-2.9-.2-2.9-.2-3.7 2.7-.1.3-.1.5-.2.9 1.2-.7.7-2.2 1.8-2.9.7 1.1-.1 1.9-.3 2.8-.1.5-.8 1.3-.2 1.6.7.3 2.1.5 2.4-.4.7-1.9 2.2-1.7 3.7-1.8l21.9-.3c1.1 0 1.7-.4 2.3-1.3 3.9-6 7.8-11.9 11.6-17.9 1-1.5 1.9-2.5 3.9-1.8zm17.6 31.4c-3.1-.2-3-.1-3.7 2.8-.3 1.4.2 1.4 1.2 1.3 2.4-.3 4.8-.6 7.3-1 1.4-.2 3.2-.1 4-1.3 2.2-3.4 2.7-7.3 2.6-11.3 0-.9-.6-.9-1.2-.2-.3.4-.6.9-.9 1.3-1.1 1.9-1.7 4.1-2.4 6.2-.3 1-.8 1.9-1.9 1.9-1.8 0-3.5.5-5 .3zm-.8-2.9c-.3 0-.6-.1-.9 0-.6.1-1.6-.6-1.6.7 0 1.2.9.9 1.5.9 1.9 0 3.9 0 5.8-.1.6 0 1.1 0 1.3-.6 1.1-2.7 1.9-5.5 1.8-8.4 0-.3-.1-.7-.3-.8-.4-.3-.6.2-.8.4-1.3 1.7-2.1 3.6-2.6 5.6-.4 1.8-1.4 2.2-3 2.3h-1.2zM20 93.1c-2 1.8-3.7 1.8-5.5.6-1.6-1.1-2.4-3-1.6-4.7.6-1.4.1-1.7-1-2.3-4.2-2.3-6.1-7.1-5-12.1 1.1-4.6 4.7-7.7 9.6-7.9 1.9-.1 3.7-.1 5.5.6.8.3 1 .2 1.5-.7 2.1-4.2 5.5-7.3 9.7-9.5 2.4-1.2 4.9-1.3 7.5-.5 1.9.6 3.2 1.8 3.5 3.8.1.7.3.8 1 .9 4.4.2 6.9 3.8 5.7 8.2-1.2 4.1-4.3 6.1-8.1 7.4-.9.3-2.4-.1-2.6 1.7 0 .4-.7.2-1.1.1-3.4-1.2-6.5-.4-9.4 1.6-.3.2-.6.4-1 .1-.4-.4-.3-.7 0-1.1.6-.8 1.6-1.1 2.5-1.7-1.8-.7-3.6-1.2-5.1-2.1-.5-.3-.8.1-1.1.4-3.9 2.5-5.1 5.6-4.1 10.3.2 1.2 1 2.8-.3 3.7-1.2.8-2.1-.6-3.1-1.3-1.1-.7-2.1-1.2-3.2-.2-1 .9-1 2.7 0 3.9 1.4 1.7 3.3 1.5 5.7.8zm2-42.7c5.4.8 10.7 1 15.9-1 4.2-1.6 7.2-4.4 9-8.5 2.4-5.4.9-9.1-4.5-11.3.5-.6 1.2-.9 1.9-1 2.3-.5 4.6-1.1 6.8-2.2 6.9-3.4 6.1-11.6 1-14.9-6.4-4.2-13.3-4.6-20.2-1.1-.5.3-1 .6-1.8 1 .2-1 .8-1.4 1.4-1.8 3.3-2.3 7-3 10.9-2.8 4.6.2 9 1.3 12.4 4.8 4.5 4.5 3.8 11.1-1.5 14.7-1.9 1.3-4 2.1-6.2 2.7-1 .3-1.1.6-.3 1.2 3.1 2.7 3.1 6 1.9 9.5-2.4 6.9-7.7 10.4-14.5 11.9-3.3.7-6.6.7-9.9.1-.9-.2-1.4-1.1-2.3-1.3zM.5 43.8c.6.9.5 1.7.5 2.5v29.2c.2 10.9.2 21.7.6 32.5.2 7.3.1 14.7.3 22.1.2 8.7.4 17.4.6 26.2 0 1.4 0 2.9-.2 4.3-.7-1-.8-2.1-.8-3.2-.2-8.8-.4-17.7-.5-26.5C.8 115.4.7 99.8.3 84.3-.1 71.5.1 58.7 0 46c0-.7 0-1.4.5-2.2z"/><path class="st0" d="M24.5 169.4c-1.5-.2-2-1.1-2.4-2-1.1-2.4-2.2-4.8-3.4-7.1-.4-.7-.6-1.7-1.6-1.8-1.1 0-1.6.9-2 1.8-.8 1.9-1.5 3.8-2.3 5.6-.1.4-.3.9-.8.8-.3-.1-.4-.5-.5-.9-.3-1.4-.6-2.9-1-4.3-.6-1.8-1.2-2-2.7-.8-1.7 1.4-2.8 3.2-4.2 4.8-.6.7-1.1 1.6-2.5 1.5 2.1-2.4 3.7-5 5.9-7s3.6-1.6 4.7 1.1c.2.5.4 1.1.7 2.1.6-2.1 1.1-3.8 2.7-4.9.3-.2.3-.6.3-1-.4-10.1-1-20.1-1.2-30.2-.2-7.7-.1-15.3-.1-23 0-1.3.9-2.3 1.1-4 .6 1 .4 1.7.4 2.4.1 10.1-.4 20.2 0 30.3.4 7.6.7 15.3.8 22.9 0 .9 0 1.6 1.3 1.8 1.1.2 1.6 1.5 2.1 2.5 1.5 3.1 2.5 6.3 4.7 9.4zm18.3-39.6c-1.3-2.7-4.5-1.5-6.5-3.7 0 1.9.5 3.3.9 4.7.2.6 4.5 2.9 5.2 2.9.6 0 .7-.4.7-.9s-.2-.9-.3-1.4c0-.3-.1-.8.4-.9.4 0 .5.4.6.7.1.6.2 1.2.2 1.8-.1 1.7-.7 1.9-2.3 1.4-4.2-1.4-5.9-4.5-6.3-8.8-.3-3.6-1-7.1-1.1-10.6 0-.5-.2-1.5.3-1.3.9.3 2.1-.8 2.8.5.2.5.5.9.7 1.5 1.2 4.4 2.8 8.6 5 12.6-.1.5.2.9-.3 1.5zm-7.3-8.2c.1 1.9 1.8 3.5 3.7 3.7.7.1.8-.2.6-.8-.4-1.8-1.2-3.2-3.3-3.6-.8-.2-1.1-.1-1 .7zm2.4-2.2c-.4-1.5-.7-2.7-1-3.8-.1-.6-.4-.8-1-.7-.5.1-1 .1-1 .9.1 2 1.2 2.8 3 3.6zM23.1 36c6.8-5.9 7.1-6.1 9.1-5.8C19.3 38 15.4 50.1 16.5 64.5H16c-.4-1.3-.9-2.6-1-4-.5-8.3 1.5-15.8 6.5-22.5.5-.7.6-1.3.3-2.1-.7-1.9-1.3-3.8-1.2-5.9 0-.4-.2-1 .4-1 .5 0 .6.6.6 1 .1 1.7.5 3.3.8 4.9.3.4.3.9.7 1.1zm16.7 49.2c1.1-1.1 0-2.7 1.2-4.3.2 2.1.7 3.6-.5 5.1-.3.3-.6.6-.2 1 1.4 1.3 1.6 2.9 1.4 4.8-.3 2.1-.2 4.3-.9 6.3-1.5 4.9-6.1 7.2-10.9 5.4-3.8-1.4-6.5-4.2-8.3-7.8-.3-.6-.7-1.3-.3-2 .8.4 1 1.1 1.4 1.8 1.4 2.8 3.3 5 6 6.4 5.2 2.8 10.4.4 11.5-5.5.3-1.5.4-3.1.7-4.6.1-.6-.3-.8-.9-.8-.8-.1-1.5-.2-2.3-.3-.4-.1-.9-.1-.8-.7.1-.6.7-.4 1.1-.3 1 .3 2.3.8 2.8 0 .4-.8-.8-1.7-1.3-2.5-.8-1.4-1.4-2.8-2-4.3-.1-.2-.2-.6.2-.8.4-.1.5.2.7.5.3.9.4 2 1.4 2.6zM34.1 6.3C26.3-.8 18.2.5 9.8 4.6 10.9 2 18.2-.3 23.1 0c5.2.4 10.1 3 11 6.3zm26.3 128.9c-.4-.2-.9-.4-1.3-.6-2.3-1.4-4.6-1.6-6.9-.2-.6.4-1.3.6-2 .8-1.5.5-2.8.1-3.7-1.3-1.6-2.7-2.1-5.8-2.5-9.1 1 .8.9 1.7 1.1 2.5.5 1.9.8 3.7 1.8 5.4 1.1 2 1.8 2.2 3.9 1.3 2.1-.9 4.1-2 6.5-1.2 1.3.5 2.7.7 3.4 2.1-.1 0-.2.1-.3.3zm-25.6-23.1c-1.9 1.7-3.7 3.2-5.9 4.2-1.1.4-2 .3-2-1.1 0-2.6 2.2-6.2 4.5-7.1.2-.1.5 0 1.1-.1-1.4 1.2-2.5 2.2-3.2 3.5-.4.7-.7 1.4-.9 2.1-.1.4-.6.9-.1 1.3s.9-.1 1.3-.3c1-.6 2-1.3 3-2 .5-.5 1.1-1 2.2-.5zm1.2-4.3c1.7.1 2.4 1 3.1 1.7 1.1 1.1 2 2.3 2.7 3.8.3.6.3 1.2-.2 1.6-.4.3-.8.4-1.3.2-1.5-.7-2.9-1.6-3.9-3.2 1.4-.4 2 .8 2.8 1.2.5.2 1 1.1 1.5.6.6-.6-.2-1.2-.5-1.7-1-1.4-2.5-2.5-4.2-4.2z"/><path class="st0" d="M31.1 83.8c1.4.2 1.4 1.3 1.9 2 .5.5.8 1.4 1.6 1.2.9-.2.7-1.3.8-2 0-.6-.2-1.2-.2-1.8 0-.3-.2-.8.3-.8.4-.1.7.2.7.6 0 1.2.4 2.3.1 3.5-.5 1.7-1.8 2.2-3.1.9-1-.9-1.7-2-2.1-3.6zM28 134.1c1.1.7 1 1.5 1 2.2 0 2.4.7 4.5 2.4 6.3.3.3.8.6.4 1-.5.5-.9-.1-1.2-.4-1.7-1.7-2.3-4-2.5-6.3-.2-.8-.1-1.7-.1-2.8zm-15.2-10.6c-.4-3.4-.7-6.8-.4-10.2.5 3.3.5 6.7.4 10.2zM69.2 144c-1.5-1.5-2.9-3.2-5.1-3.6-.1 0-.2-.3-.2-.4 0-.3.3-.3.5-.3 1.3.1 2.4.7 3.3 1.6.7.7 1.3 1.5 1.9 2.2-.2.3-.3.4-.4.5zm-.8.8c-1.6-1.1-2.9-2.4-4.9-2.6-.2 0-.3-.4-.2-.6.2-.3.5-.3.8-.2 2 .4 3.4 1.6 4.3 3.4zM36.9 96.5c-.4-.1-.8-.2-1.3-.3-.3-.1-.6-.4-.5-.8.2-.4.5-.4.9-.3.4.1.8.2 1.2.2.5.1 1.2-.5 1.3.3 0 1-.9.8-1.6.9zM17.1 31c.4-.2.4-.3.5-.3 1.2 0 2 .9 2.8 1.6l-.1.4c-1.4.1-2-1-3.2-1.7zM3.2 64.7v-7h.3v7.2l-.3-.2z"/></svg>