<svg version="1.1" id="Layer_1" xmlns="http://www.w3.org/2000/svg" x="0" y="0" viewBox="0 0 526.7 700.8" xml:space="preserve"><style>.st0{fill:#16013e}</style><path class="st0" d="M199.7 206.8c-2.6 3.2-5.1 3.7-7.8 3.1-10.7-2.1-19.8-6.9-24.9-17-4.7-9.3-3.6-20.6 3.7-27.6 1.8-1.7 1.4-3 .1-4.6-5.9-7.5-10.6-15.7-13.8-24.6-5.3-14.9-7.6-29.8-2.3-45.4 4-11.7 10.6-21.2 21.2-27.4 8.3-4.8 17.3-6.7 27-5.1 8.1 1.3 15.5 4.1 21.5 10 1.9 1.8 2.7 1.2 3.5-.8 5.3-14 15.2-23.9 28.3-30.2 13.7-6.6 27.9-7.5 42.4-1.7 8.3 3.4 14.9 8.2 19.6 15.9 6.2 10.1 7.7 20.4 4.8 32-3.9 15.5-12.3 27.7-26.7 34.4-14.9 7-30.8 9.4-47.2 5.2-4.4-1.1-9-1.6-13.1-4-2.6-1.5-5.1-1-7.8 1.4-10.5 9.3-16.6 20.7-20.1 34.2-3 11.6-5.1 23-3 35 .4 2.3-.7 4.7-3.1 4.9-2.4.3-2.9-2.2-3.3-4.1-1.2-5.5-2.4-10.9-5.6-15.6-4.2-6.4-8.7-8.8-14-7.2-5.1 1.5-8.1 6.4-8.4 13.5-.4 9.4 6.1 16.2 13.8 20.1 4.7 2.3 9.6 4 15.2 5.6zm83.8-167.1c11.5 7 21.3 14.7 24.9 28.4 3.6 13.5.3 25.5-5.8 37.4 11.5-9.3 19.8-30.8 11.7-47.5-5.1-10.5-19.6-19.6-30.8-18.3zm-124.3 78.7c3.1-31.8 19.1-49.9 53.2-50.1-28.7-13.1-58.4 10.8-53.2 50.1zm167 540.8c-2.8-1.2-4-3.2-4.9-4.9-1.2-2.3-2.7-2.2-4.4-1.7-2.4.8-.6 2.4-.4 3.7.7 3.8 2.2 6.8 6.6 7.2.7.1 1.4.8 2.1 1.3 1.2.8 3 1.3 2.3 3.2-.6 1.5-2.2 1.3-3.5 1.2-9.5-1.1-18.7-3.9-27.3-7.6-3.7-1.6-4.4-7.1-5.5-11.2-1.8-6.6-2.8-13.4-4.3-20.1-4.2-19-9.1-37.8-11.9-57.1 0-.3-.1-.7-.2-1-4.8-11.8.5-14.5 9.6-19.1 14.9-7.5 29.8-14.9 41.4-27.4 12-13 17.8-28.5 18.8-46 .9-15.5-3-30.1-10.2-43.6-8.2-15.2-20.6-26.1-37-32.6-10.5-4.2-21.2-5.7-32.3-5.9-1.5 0-3 .1-4.1-1.2-6.7-8.5-14.5-15.9-12.3-29 1.8-10.8.5-22.1.6-33.2.1-7 1.2-8 7.8-10.1 12.6-4 25.7-6.5 38.6-9 17.6-3.5 35.4-6.6 53-10.4 3.8-.8 7.9-.1 12.9-.1-3.1 3.3-6.3 4.7-9.7 5.9-12.7 4.3-25.9 5.6-39 7.9-11.4 2-22.7 4.7-34.2 6.9-3 .6-3.7 2.1-3.8 4.7-.6 13.9-1.9 27.7-3.8 41.4-.5 3.9.5 5.7 4.9 5.7 16.7 0 31 6.8 44.7 15.7 13.9 9 24.7 21 32.6 35.3 7 12.8 11.4 26.7 12.2 41.7.8 16.7-1.1 33-8.2 48.2-5.7 12.2-14 22.6-24.5 31.3-7.5 6.2-15.5 11.3-24.2 15.4-.6.3-1.1.8-1.7 1-8.4 3.1-8.5 3.2-5.4 11.4 4.1 10.9 6.9 22.2 9.5 33.5 1.2 5 3.5 9.8 5 14.9 3.2 11 6.7 22 10.2 33.7zm26.6-148.1c-2.3.7-4.1.8-5.1 2.5-1.7 2.8-3.3 5.6-4.8 8.5-.6 1.1-2.7 2.4-.6 3.7 1.5.9 2.9-.4 3.8-1.6 2.8-3.8 4.8-8 6.7-13.1zm-90.7-127.2c7.3 1.5 14.5 3.8 22.1 2.3-7.1-3.2-14.7-2.4-22.1-2.3zm31.2 4.7c5.7 5.2 12.9 6.2 19.2 9.2-4.3-5.1-12.2-9.1-19.2-9.2zM306.2 613c-2.6 6.1 1.9 10.7 2.3 16.2.1.9 1.3 1.4 2.4 1.1 1.1-.3 1-1 .7-1.9-1.8-5.1-3.6-10.2-5.4-15.4zm4.4 25.2c.7 1.9 1.7 4.5 2.7 7.1.6 1.4 1.9 1.9 3.3 1.2 1.6-.8.5-2 .2-3-.8-2.3-2.2-4.3-2.1-6.9.1-1.2-.8-2.2-2.2-2.1-1.8.2-1.7 1.7-1.9 3.7zM267.3 341c-2.5 4.7-3.6 9.6-.9 15.3 3-5.4 1.4-10.4.9-15.3zm89 148.6c-.6 3-1.2 6-1.9 9-.2.9-1 2.1.3 2.5 1.7.5 1.5-1.2 1.9-2.2 1.4-3 .7-6.1-.3-9.3zm-56 106c-.4.1-.8.1-1.2.2 1 3.5 2.1 7.1 3.1 10.6.2.8.8 1.1 1.5.8.7-.3.6-.8.3-1.6-1.3-3.2-2.5-6.6-3.7-10zm36.1-59.7c.2-1.1-.6-1.7-1.3-1.7-2.2.2-3.9 1.4-4.5 3.6-.3 1 .1 2.1 1.4 2.1 2.5-.1 3.2-2.4 4.4-4zm-9.1-391.8c6.1 12.3 15.6 19.5 25.9 27.1-10.4 1.1-16.8-4.3-22.7-10.4-4.1-4.2-7.4-9-9.7-14.5-.3-.8-.7-1.9-1.5-1.6-4.8 1.4-9.9-.5-14.6 1.6-4.9 2.2-6.8 5.8-5.6 11.8 2 10.4 4.6 20.7 6.8 31.1.6 2.9 2 4.9 4.9 5.4 3.4.6 3.8-2.5 5.1-4.5 2.9-4.6 1.7-10 3.1-14.9.6-2.2.7-4.2 3.8-4 3.6.2 1.9 2.9 2 4.5.5 6.6-2.1 12.7-4.4 18.6-1.3 3.3-4.8 6-9 5.8-2.6-.1-2.8 1-2.6 3.2.6 6 2.1 11.9-.2 18.1-1.3 3.4-3.5 5.1-6.3 6.1-5.9 2-11.9 2-18 .3-2.7-.8-4-2.6-3.4-5.1.8-3.3 3.1-1.1 4.8-.9 1.3.2 2.5.8 3.8 1 11.4 1.5 15.9-3.5 14-15-2.2-13.1-4.7-26.2-7.8-39.1-1.3-5.5-1.9-11.4-1.5-17.2.6-8.7 6.1-11.8 16.2-13.1 7.2-.9 7.5-.4 6.6-7.2-2.2-15.8 2.3-30.2 9.3-43.9 4.6-9 10.6-16.9 19.1-22.9 8.3-5.8 17.4-7.3 27.1-6.3 24.3 2.7 39.4 25.8 37.8 47.3-1 13.9-7.4 25.8-18.1 34.9-12.3 10.4-26.6 13.1-42.4 11.1-7.9-.6-14.6-3.7-22.5-7.3zm59.5-73.4c-1.3-2.2-3.4-2.5-5.1-3.2-12.3-5.4-23.7-4.3-34.6 3.7-9.2 6.7-14.7 16-18.9 26.1-3 7.1-4.6 14.9-5.2 23.1 3-2.1 1.8-5.2 2.8-7.5 4.7-10.9 10.1-21.4 18.8-29.9 4.7-4.6 9.9-8.7 15.9-10.8 8.4-2.9 17.2-5.6 26.3-1.5zM141.3 408.2c-19.1-7.5-36.7-3.7-53.9 1.9-10.4 3.4-18 11.4-24.5 20-7.3 9.6-13.9 19.7-19.6 30.3-4.8 9-9.2 18.3-13.7 27.5-1.2 2.5-2.8 4.7-4.5 7.4-2.1-2.4-1.3-4.4-.7-6.4 2.3-8.6 6.2-16.5 10.4-24.2 3.7-6.8 7.4-13.7 11.4-20.4 7.5-12.4 15.2-25 27-33 7.9-5.3 10.8-12.4 14.7-19.6 8-14.8 19.2-26.9 31.9-37.6 11.6-9.7 24.6-17.2 38.5-22.9 7.1-2.9 14.6-4.7 22-6.8 1.2-.4 2.8-.4 3.9 0 11.9 4.2 24.7 5.1 36.5 9.8 1.4.6 2.7 1.1 3.5 2.3-2.9 5-8.2 3.6-12.5 4.3-10.4 1.7-20.9 2.5-30.8 6.3-8.7 3.4-16.8 8.1-24 14-8.9 7.2-17.2 15.2-22.9 25.3-2.1 3.8-4.4 7.5-6.7 11.5 6.2 2.1 13.2 1.3 18.7 5.4.9.7 2.6 1 2.5 2.1-.6 4.6.6 8.5 3.8 11.8.2.2.4.7.3.9-3.3 7.1-.7 16.1-7 22.2-.5.5-.9 1-1.5 1.2-6.4 2.4-10.9 6-13.7 13-2.2 5.3-9.5 5.8-14.8 6.3-7.3.7-12.2 3.6-16.2 9.5-3.9 5.8-10.6 7.4-16.9 8.7-3.2.7-6.4 1.5-9.8 1.1-1.3-.2-3.1.7-3.3-1.8-.1-2.3 1.4-2 2.9-2.2 7.4-.9 14.5-2.4 20.7-7 1.5-1.1 2.7-2.4 3.8-3.8.7-.9 1.2-1.8-.4-2.1-1.2-.2-2.5-.2-2.1-1.9.3-1.3 1.5-1.6 2.6-2.1 6.8-3 14.4-2.5 21.2-5.8 2.9-1.4 5.2-3.1 8.3-5.4-7.2-1.8-13.4.7-19.6.7-1.6 0-3.3.6-4.9.5-2.1-.2-5.6 1.3-6.1-1.4-.3-1.8 3.4-2.9 5.4-3.3 8.2-1.4 16.3-3.4 24.5-5.1 5.5-1.1 10.5-3.3 15.5-5.8.7-.4 1.7-.8 1.3-1.7-.4-.9-1.6-1.2-2.6-1.1-3.3.3-6.6.6-9.8 1-8 .9-16 1.9-24 2.8-1.1.1-2.4.1-3.4-.2-1.4-.4-2.8-1-3.1-2.8-.3-1.8 1.2-2.1 2.2-2.8 3-1.9 6.4-2.3 9.9-2.4 9.9-.2 19.6-2.4 29.3-3.9.6-.1 1.3-.3 1.9-.5 1.8-.7 4.3-1.6 3.9-3.7-.3-1.5-2.9-1.8-4.7-1.9-10.1-.5-20.2.5-30.2 1.5-6.4.6-12.6 0-19.4-3.8 16.2-5.8 32.4-2 48.8-5.9zM116.9 384c2.8 0 5.6.1 8.4 0 1.2 0 2.8.4 3.5-1.2 1.6-3.4 3.8-6.4 6.4-9.1.9-.9 1.2-2.1.8-3.2-.4-1.3-1.7-1.6-2.9-1.4-4.3.5-8.7-.3-13-.2-7.5.2-11.7 4.5-15.2 10-1.8 2.8-.7 4.9 2.6 5.1 3.1.2 6.2 0 9.4 0zm-5.6 14.7c10.3.2 10.1.1 12.6-5.9 1.5-3.6-.3-4.7-3-4.6-6.9.1-13.9-1.2-20.9 1.2-4.6 1.6-5.7 4.9-6.8 8.5-.7 2.3 0 3.6 3.1 2.9 5.7-1.2 11.6-1.7 15-2.1zm54-51.5c-4.1-.1-8.1-3.1-11.5-1-2.9 1.8-5.4 2.7-8.6 2-1.1-.3-2.5-.5-2.8 1.1-.3 1.7.9 2.8 2.3 2.5 2.8-.6 5.1.8 7.5 1.6 6.1 1.8 8.4-4.6 13.1-6.2zm-23 9.9c-1.8.9-5.3-1.1-5.7 2-.2 1.4-.1 5.8 4.8 5.2 3.9-.5 5.8-3.3 6.4-5.6.5-1.8-3.2-1.4-5.5-1.6zm38.5-17.3c-2.7-1-4.3-1.8-6-2.3-1.3-.3-2.9-1.6-3.7.6-.5 1.3-1.9 2.6-1.2 4 .9 1.7 3 1.4 4.4.9 2-.5 3.7-1.8 6.5-3.2zm-70.9 136.4c2 13.1 3.3 26.2 6.3 39 1.7 7 4 13.9 6.9 20.4 8.3 18.4 21.7 32.9 36.2 46.5 4.3 4 5 3.8 7.6-1.2 4.2-8 10.1-14.3 18.3-18.4 5-2.5 5.7-5.1 2.8-12-6.8-15.7-16.2-29.7-29.8-40.4-9.1-7.1-22.4-7.8-32.5-1.7-1 .6-2 1-3.2.6 3.2-5.4 15.3-9.8 22.4-8.3 9.5 2.1 17.2 7 24.3 13.6 11.7 10.9 19.5 24.3 25.9 38.7 1.3 2.9 2.5 3.6 5.4 3.2 9.1-1.2 17.6 1 25.5 5.5 1.1.6 3.4.9 2.4 2.9-.9 1.8-2.9 1.4-4.4.7-5.1-2.3-10.5-2.7-16-2.8h-.5c-8.9-.5-9.7.3-8 9 1.8 9.5 2.5 18.9-.8 28.3-1.1 3.2-.4 5.5 3.2 6.7 11.1 3.7 22.3 6.5 34.1 7.2 5.7.3 11.4 1.3 17.2 1.8 1.9.2 3.6 1.1 3.7 2.7.1 2-2.1 2.2-3.7 2.4-19.4 2.3-38.6 3.6-57.9-1.2-11.9-3-23.8-5.9-35-10.8-11.4-4.9-22-11.1-32.1-18.5-10.4-7.6-19.7-16-27.6-26.2-12.1-15.6-19.5-33.4-24.2-52.3-1.2-5-.8-10.5-1.2-15.8-.1-1-.1-2.3 1-2.6 1.7-.5 1.6 1.2 2.1 2.1 3 7 3.4 14.6 5.5 21.8 1.3 4.5 4 6.1 8.3 6 5 0 9.9-.1 14.9.1 3.4.1 3.6-1 3-4-2-10.4-5.7-20.8-3.1-31.7 1.1-3.8 2-7.5 3-11.3zm1.8 89.5c-.5.8-.9 1.5-1.4 2.3 4.1 3.5 7.9 7.3 12.3 10.5 5.1 3.6 9.5 9.5 17.2 6.4 2.1-.8 4.8-.8 5.6-3.4.7-2.3-.8-3.9-2.2-5.6-6.2-7.2-12.9-14-17.4-22.5-.5-1-1.4-2.2-2.7-1.6-5.4 2.6-11 .6-16.5 1.2-1.5.1-3.7-1.3-4.5.6-.8 1.8.6 3.7 2 5.2 3.9 4.3 15 5.9 21.7 3.3 1.1-.4 2.7-2.4 3.3.5.4 1.9-.5 2.9-2.6 3.3-5 .9-9.9 1-14.8-.2zm83.8 19.9c-.1-6.5-.9-11.4-2.1-16.1-.6-2.4-1.9-3.4-4.7-2-7.2 3.8-12.5 9.5-16.6 16.4-1.5 2.5-3 5.9.9 8.2 5.3 3.1 10.8 6.1 16.2 9.1 2.2 1.2 3.9.6 4.3-2 .8-5 1.5-10.1 2-13.6zm-83-38.8c8.4.9 9.2-.4 5.2-8-.4-.7-.9-1.4-1.1-2.2-.7-2.9-2.1-5.5-3.7-8-2.4-3.8-5.7 0-8.6-.5-3.7-.6-7.4-1.2-11.2-1.9-2.9-.5-5.6-.7-4.2 4.2 1.6 5.4 4 10.3 6.9 15 .7 1.2 1.6 1.4 2.8 1.4h13.9zm54.5 49.8c-.6-.3-1.6-.7-2.3-1.3-3.8-3.4-8.4-5-12.8-7.2-2.1-1-4-1.4-5.2.4-1.4 2 1.4 4.2 2.1 4.2 4.8.3 7 4.3 10.3 6.6 1 .7 2.4 1.2 3.7 1.3 1.9.2 3.1-1.2 4.2-4z"/><path class="st0" d="M409.1 407.4c-1.3 1.9-2.9 2.3-4.8 2.4-9.7.6-21.9-7.9-23.5-17.5-.7-4.3-2.9-5-6.1-5.3-8.6-.9-15.3-6.5-16.7-15.3-1.5-9.4-.4-18.8 3.8-27.5 3-6.3 6-12.8 11.8-17.4 2.2-1.8 1.5-4.5-.3-6.6-2.5-3-3.2-6.8-5-10.1-1-1.8-.7-4 .9-4.9 1.6-1 2.5 1.3 3.4 2.2 3.5 3.5 5.2 8.3 7.6 12.5 4.8 8.2 9.6 16.4 13.2 25.1 5.6 13.4 12.7 26.1 17.4 39.9 2.5 7.2 5.1 14.4 8.4 21.4 1.4 3.1 2.4 6.5 3 9.8.6 3.6 1.8 5.1 5.8 4.7 10.2-1 19.2 2.7 26.8 9.2 6.6 5.6 11.2 12.9 15.2 20.4 5.6 10.7 9.2 22.3 12.5 33.9 2.6 9.2 5.8 18.5 3.2 28.7-1.9-3.4-4.7-6.7-5.4-10.4-1.6-8.9-3.8-17.7-6.8-26.1-4.2-11.6-8.2-23.4-16.1-33.5-9.3-12-20.8-17.5-35.9-15-10.2 1.7-20.4 3.6-29.5 8.8-.8.5-1.7.9-2.5 1.4-1.9 1.3-4.6 2.7-3.4 5.3 1 2.1 3.7.7 5.8.6 8.1-.3 15.3-5 23.5-4.9 1.3 0 2.8-.7 3.9-.3 2 .7 5.6 0 5.5 2.9 0 3.2-3.3 1.4-5.2 1.9-11.4 2.6-22.4 6.2-33.1 10.9-1.6.7-3.7 1.9-3.3 3.7.4 1.9 2.8 1.5 4.4 1.2 7.6-1.3 15.2-2.4 22.7-4.2 4.4-1.1 9-1.7 13.4-3 1.3-.4 2.6-.4 3.9.1 1.2.5 2.6.9 2.7 2.6.1 1.7-1.4 1.6-2.4 2.1-9.3 4.3-17.7 10.2-26.3 15.6-2 1.3-5.4 3.1-4 5.3 1.8 3.1 4.5 0 6.9-.8 7.8-2.6 14.5-7.4 21.8-11.2 2.4-1.2 4.8-2.8 6.5-.3 1.6 2.2 1.3 5.2-.8 7.8-3.6 4.4-8.1 7.9-12.2 11.8-1.2 1.2-3.7 2.2-1.9 4.2 1.5 1.6 3.6.2 4.9-.8 3.8-2.7 7.4-5.8 11.1-8.8 1.2-.9 2.2-2 3.4-2.9 1-.8 2.3-.8 3.3-.2 1.4.8.5 2.1-.1 3-6.3 8-12.6 16-23.4 18-4.8.9-7.5-1.6-7.6-6.6-.1-5-.8-5.6-5.8-4-3.8 1.2-7.3 1.3-10.9-.7-3.7-1.9-5.3-4.8-3.9-8.7 2.7-7.6 2-9-6-11.2-10.7-2.9-11.4-4.7-5.3-13.6 1.1-1.7 1-3.4.3-5.2-2.3-5.2.1-8.9 3.9-12.1 8.8-7.4 19.2-11.1 30.3-13 7.6-1.3 7.7-1.9 3.8-8.7-5.1-8.8-7.3-18.8-11.2-28.1-.6-1.4-.9-2.8-1.6-4.1-2.6-4.5-4.2-4.8-7.3-.7-1.9 2.5-4.6 3.5-7.1 4.9-2.9 1.5-3.3 3.3-2.1 6 2.9 6.7 8 10.6 15 11.8 2.6.5 5.1 1.8 7.5 3.6zm-32.9-24.3c2.4 0 3.6-.9 4.3-3.6 1.5-6 4.1-11.6 9.6-15 2.7-1.7 2.6-3.8 1.7-5.9-3.8-8.5-7.8-16.9-12-25.1-1.2-2.4-2.9-3.5-5.8-.8-3.9 3.6-6.2 8.1-8.1 12.7-2.9 6.9-5.3 14.2-4.5 22 1 8.6 7.7 15.7 14.8 15.7zm19.8-12.8c.1-.9 0-1.7-.8-2.2-1.3-.8-2.6-.4-3.7.3-3.1 2-4.3 5.3-5.5 8.6-.4 1-.6 1.9.1 2.8 1 1.2 2.3.6 3.2.2 4.2-1.9 5.9-5.6 6.7-9.7z"/><path class="st0" d="M448.1 482.6c7.3.6 9.1 6.6 11.5 11.3 5.7 10.9 10.9 22.2 16.1 33.4 4.9 10.8 9.4 21.8 14.4 32.5 2.1 4.6 5.3 8.6 7.3 13.3 1 2.4 2.6 4.5 1.4 7.4-.4.9.1 2 1.4 2.1 4.2.5 3 1.5.7 3.6-9.3 8.3-20.7 13.3-31.5 19.1-10.5 5.6-21.3 10.7-32 15.8-10.1 4.8-20.4 9.5-30.6 14.2-10.7 4.9-21.3 9.8-32.1 14.5-12.7 5.6-24.8 12.5-37.9 17.1-.7.3-1.5.4-3.1.7 4.1-6.4 9.9-9.6 15.7-12.1 8-3.4 15.2-8.4 23.5-10.9 3.7-1.1 3.8-5 4.1-7.9.9-8.5 4.7-16.1 7.9-23.7 5.9-13.7 12.9-26.8 22.4-38.4 5.5-6.7 11.4-13.1 19.2-17.4 10-5.5 22.3-1.9 27.1 8.2.2.4.2 1 .4 1.4 3 6.6 3 6.6 9.8 3.8 3.8-1.6 9.6.1 12.2 4 1.7 2.5 3.9 4.7 3.8 8.3 0 3.2 2.2 3.6 4.8 2 4.8-3 5-4.7 1.5-12-8.5-17.9-15.3-36.5-22.6-54.8-3.4-8.5-6.9-17-11.8-24.8-1.9-3-3.7-6.5-3.6-10.7zm-11.7 77.3c-.5.1-1.8.5-3.1.8-11.6 3.5-19 12.2-25.9 21.3-9.1 12-15.9 25.4-22 39.2-2.6 5.8-5.1 11.6-7.7 17.5-.5 1.1-.7 2.4.1 3.3.9.9 1.7-.3 2.6-.7 4.9-2.3 9.8-4.5 14.6-6.9 15-7.3 30-14.6 45-21.8 1.7-.8 3.2-1.4 3.1-3.8-.4-8.1 2-15.5 6.4-22.2 3.1-4.7 4.1-9 .8-13.8-.3-.5-.2-1.3-.4-1.9-1.9-5.9-7.8-11-13.5-11zm23.4 29.2h.1c0 2.5.1 5 0 7.4-.1 2.8 1 3.7 3.5 2.2 2.4-1.4 4.6-3 7.1-4.2 5.2-2.3 6.9-5.7 3.6-10.8-.4-.7-.2-1.7-.6-2.4-1.9-2.8-3.9-6.7-7.8-5.3-3.4 1.2-7.6 3.1-6.1 8.5.5 1.5.2 3.1.2 4.6zm-6.4 3.4c-3.8 5.7-4.2 7.1-3.2 12 3.5-3.2 4-6.9 3.2-12zm-223.7-246c2 7.2 3.4 14.5 4.5 21.9 1.7 11.4.6 23.1 2.9 34.5.8 3.8 1.3 5.8 6.4 5.3 12.7-1.3 25.1.2 37.4 4.7 18.7 6.8 30 20.3 36.2 38.4 4.9 14.5 5.5 29.6.2 44.1-5.5 14.9-16.1 25.8-29.9 33.6-7.7 4.3-15.8 7.2-24.5 8.3-.7.1-1.3.4-1.9.4-2.4-.2-6 .1-6.4-2.3-.4-2.4 3.2-1.8 5.1-2.5 13.1-4.7 26.5-8.8 36.8-18.9 15-14.6 19.6-32.4 15.8-52.7-2.4-12.8-7.6-24-17.4-32.5-10.6-9.2-23.2-14.1-37.1-14.8-7.4-.4-14.9-1.3-22.1 1.2-2.3.8-2.7-.5-3-1.9-.5-2.4-1.2-4.9-1.2-7.3-.1-18.5-3.6-36.9-3.1-55.4v-3.9c.4-.1.9-.1 1.3-.2zm108.5-170c1.3 1.1 1.5 2.4 1.3 3.8-1.5 9.6-3.2 19.1-6.2 28.3-4.2 13.1-8.9 25.9-15.5 38.1-8.7 16.2-19 31.1-36 39.5-7.2 3.6-14.4 7.7-22.8 8.4-14.5 1.2-25-5.8-33.3-16.5-5.7-7.3-11.5-14.7-15.8-23-5.5-10.8-9.7-22.1-10.4-34.4-.1-1.1 0-2.3.2-3.5 0-.4.4-.7.7-1.2 4.8 5.1 6.2 11.6 7.9 17.7 3.8 14.1 10.2 26.6 20.8 36.8 11.2 10.9 24.6 16 40.1 13.8 8.2-1.2 15.3-5.9 21.5-11.4 12.1-10.9 20-24.9 26.6-39.5 6.1-13.7 10.8-27.9 14-42.7.9-4.9 1.5-11 6.9-14.2zM41.5 424.7c-.6-6.9 3.6-12.2 6.6-17.6 13.4-23.9 31-44.4 51.2-62.8 10.2-9.3 20.9-18.1 32.3-25.8 15.3-10.3 31.6-18.6 49.3-24.3 8.7-2.8 17.2-6.1 26.5-7.1 3-.3 5.9-.5 8.8-.3.3 1.5-.6 2.5-1.5 2.9-8.1 3.8-15.7 8.8-24.6 10.6-10.8 2.2-21.1 6.1-30.9 10.7-12.8 6-25.1 13.1-36.3 22-15.8 12.6-30.4 26.4-43.6 41.7-11.5 13.4-21.3 27.9-30.1 43.2-1.6 2.8-2.9 6.8-7.7 6.8zm218.8 190.2c-3-4.7-4.7-9.6-4.8-14.3-.1-7.7-2.8-14.9-3.7-22.3-1-8-2.4-15.9-3.4-23.8-.4-3.2-1.2-6.1-2-9.1-.6-2.2.4-4.2 2.3-5 2.4-.9 2.3 1.7 3 2.9 4.4 7.2 4 15.6 4.8 23.5 1.6 14.2 4.4 28.3 4.6 42.7.1 1.5.5 3.2-.8 5.4z"/><path class="st0" d="M281.1 184.4c.7-3-.8-6.3-.7-9.8.1-2.1.6-3.7 3-3.7 2.2 0 2.6 1.7 2.6 3.5-.2 6.4 2.7 12.7-.1 19.1-2.1 5.1-8.2 8.2-13.6 6.9-8.2-2.1-13-8-16.9-14.9-1.1-2-2-4.2-2.8-6.3-.8-2.1-.6-4 2.1-4.5 2.1-.4 3.1.4 3.7 2.8 1.7 7.5 6.6 13 12.9 17 4.4 2.8 9.5-.2 9.9-5.5-.1-1.5-.1-2.8-.1-4.6zm168.4-82.7c-1.5-.3-3.1.6-3.7-1.1-.6-1.6 1-2.3 1.9-3.1 5.9-5.3 13.5-7.8 20.1-11.8 4.5-2.8 9.2-3.8 14.2-4.6 1.4-.2 2.7-.4 3.5 1 .7 1.4-.6 2-1.3 2.9-3.9 4.7-9.5 7-14.8 9.6-5.4 2.7-11.4 3.9-16.7 6.9-.9.4-2.3.2-3.2.2zm-182.2 36.9c4.3-.4 8.6 0 12.6 2.4 1.7 1 3.9 1.8 2.5 4.4-1.1 1.9-2.4 2.2-4.9 1.5-12.1-3.8-23.2-2.3-32.2 7.5-1.6 1.7-3.3 1.4-4.7.4-1.4-1-1.6-2.8-.4-4.4 1.7-2.3 3.9-3.9 6.3-5.5 6.2-4.3 12.9-7.1 20.8-6.3zm203.4 5.7c-5.2 0-10.5.1-15.7-.1-1.6 0-3.4-.6-3.8-2.5-.4-2 1.4-2.3 2.6-3.1 5.8-4.1 12.5-3.3 18.9-3.2 3.4.1 7 1.4 6.8 5.3-.1 3.7-3.9 3.7-6.9 4-.7.1-1.3 0-2 0 .1-.1.1-.3.1-.4zm-28.3-86c-.8 2.9-1.4 6-2.4 8.9-1.6 4.7-3.3 9.5-5.1 14.1-.5 1.2-1.1 2.9-3.1 2.4-1.8-.4-1.6-1.8-1.8-3.1-1.5-9.5 1.9-17.4 7.7-24.6.7-.9 1.7-2.3 3.3-1.7 1.8.7.9 2.6 1.4 4zM297.2 288.7c2.5.8 5.2 1 7.1 2.4 6 4.5 11.8 9.5 17.6 14.3.7.6 1.8 1.2 1.3 2.3-.6 1.2-1.8 1-3.1 1-3.5-.2-5.8-2.9-8.2-4.7-4.9-3.5-9.9-6.9-15.3-9.5-1.8-.9-1.6-2.2-1.6-3.7.1-1.5 1.3-1.7 2.2-2.1zm-25-35.9c-5.5-1.8-12.7-3-16.1-10.5-.7-1.5-1.8-3.4.5-4.1 1.4-.4 3.3-1.4 4.7 1.6 2.4 5.1 7.8 6.7 12.9 8 1.7.4 3.6.3 3.3 2.5-.2 2.1-1.9 2.8-5.3 2.5z"/></svg>