<svg width="239" height="201" fill="none" xmlns="http://www.w3.org/2000/svg"><path d="M211.367 124.619c2.175 1.087 3.108 3.263 4.04 5.283a107.443 107.443 0 013.729 8.857 70.717 70.717 0 012.797 8.08c.311 1.398.777 2.641 1.243 4.04 1.709 4.817 2.953 9.634 4.351 14.451 1.088 3.729 1.865 7.614 2.797 11.498.932 4.662 2.02 9.323 2.486 14.14.155 1.554.466 3.263.311 4.817 0 .933-.155 1.243-1.243.622-1.709-.933-3.729-.933-5.283-.156-3.885 1.71-7.925 2.02-12.12 2.02-1.399 0-2.642-.155-3.885.622.155.621.622.311.932.311h23.308c.932 0 1.709.155 2.797.777-2.02.155-3.729.31-5.438.31-8.702.156-17.248.311-25.95.311-2.641 0-5.283.622-7.924.311-2.642-.311-5.283-.155-7.925-.155h-39.779c-36.049-.156-72.098-.467-107.992-.311H17.602c-.622 0-1.243 0-1.865-.466 1.088-.622 2.175-.777 3.263-.777 5.439-.466 10.877-.311 16.316-.311 11.343 0 22.841 0 34.184.155 1.554 0 3.263 0 4.817.156 1.554.155 1.554-.622 1.399-1.71-.156-1.243-.311-2.33-.777-3.573-.466-1.71-.156-3.419-.311-4.973 0-.311.155-.777-.31-.777-.311 0-.467.311-.622.622-1.399 2.331-2.176 4.817-2.953 7.458-.155.466-.155 1.088-.776 1.088-.622-.155-.622-.777-.467-1.398.777-2.953 1.865-5.75 3.574-8.391.777-1.088 1.243-2.176 1.243-3.574-1.087-10.411-.621-20.822-.621-31.388 0-.932.31-1.398 1.243-1.554 2.175-.466 4.195-.777 6.37-.932 8.236-.466 16.471-.777 24.707-.777 7.303 0 14.606.466 22.065.777 2.02 0 4.195.621 6.215.932 1.554.311 2.486 1.71 2.486 3.885.622 12.741.932 25.328.311 38.069 0 1.554 0 3.108-.311 4.506-.311 1.088 0 1.554 1.243 1.554h18.025c1.088 0 1.398-.466 1.243-1.398-.311-2.02-.622-4.04-.777-5.905-.311-4.351-1.554-8.546-2.486-12.741-.777-2.797-1.554-5.594-2.642-8.236-1.243-2.952-2.33-5.904-3.729-8.701-2.486-4.973-5.128-9.634-8.857-13.674-3.108-3.419-6.837-6.526-11.343-7.925-.466-.155-.622-.466-.777-.932 2.486.155 4.662 1.087 6.526 2.486 5.905 3.885 9.789 9.323 13.363 15.383 2.486 4.195 4.507 8.702 6.216 13.208 1.864 4.972 3.418 10.255 4.351 15.538.621 4.04 2.02 7.925 1.398 12.12-.155 1.088.311 1.243 1.243 1.243h32.009c.933 0 1.244-.155 1.399-1.243.155-2.02.777-3.884.932-5.904.311-3.419.622-6.837.777-10.256.311-8.391-.311-16.781-1.554-25.172-.932-5.439-1.709-10.877-3.263-16.16-.311-1.088-.311-2.176-.777-3.263-.621 1.087-1.243 2.02-1.554 3.107-.155.311-.155 1.088-.621.933-.777-.156-.311-.777-.311-1.243 0-1.088.466-2.176.932-3.108.933-1.865.777-3.729.156-5.594-1.865-5.283-3.574-10.566-5.439-15.849-1.087-2.797-2.486-5.594-3.884-8.391-.156-.311-.311-.622-.156-.932 1.088 0 1.399 1.087 1.71 1.709 1.864 3.418 3.418 6.992 4.816 10.566.933 2.331 1.865 4.662 2.642 7.148 1.088 3.418 2.02 6.992 3.108 10.566 1.709 5.439 2.797 11.032 3.884 16.626.467 2.176.933 2.642 2.953 2.797 6.837.933 12.741-.777 17.869-4.972 1.088-.777 1.865-1.865 2.952-2.642 2.02-1.554 1.865-3.263 1.088-5.283-1.554-4.195-3.263-8.235-5.128-12.275-.777-2.331-1.864-4.196-2.952-6.06zM103.53 151.345c-8.857.155-17.559-.622-26.416.777-1.554.311-2.02.466-2.02 2.02-.155 7.614.466 15.383.622 22.997.155 6.682.621 13.518 1.087 20.2v1.088c0 .621.467.777 1.088.777.622 0 .777-.467.622-.933-.467-1.864-.156-3.884-.311-5.749-1.088-6.681-1.088-13.518-1.865-20.2-.621-5.283-.155-10.722-.31-16.005 0-1.554.466-2.33 2.02-2.641 3.418-.466 6.992-.933 10.41-1.243 4.507-.622 9.168-.311 13.674-.311 10.877-.155 21.599-.466 32.32 2.175.311 0 .622.311.777-.155.156-.311 0-.622-.311-.932-.621-.467-1.243-.622-1.864-.777-3.885-.466-7.769-1.088-11.654-1.088-6.06-.155-11.965 0-17.869 0zm-.933 23.308c0 2.331 2.487 4.972 4.973 4.972 1.864 0 4.35-2.02 4.35-4.195-.155-2.486-1.709-4.817-4.816-4.973-2.487 0-4.507 1.865-4.507 4.196zM78.823 50.5c4.196.466 6.837 3.108 9.013 6.526.466.622.621 2.02-.467 2.797-.466.466-.621.933.156 1.243l.466.466c.777.622 1.71 1.399 1.088 2.176-.467.777-1.399 1.71-2.642 1.71-.31 0-.932-.622-.932 0 0 .62.155 1.398 1.087 1.553 1.865.31 3.419-.155 4.817-1.398 3.108-2.797 2.642-1.71 0-4.817-.466-.622-1.087-1.243-1.864-1.399-.311 0-.622-.31-.466-.777.155-.31.466-.31.777-.155 2.02.932 3.573 2.486 4.661 4.506.31.466-.155.932-.466 1.243-2.02 2.175-4.195 4.35-7.614 3.73-.777-.156-.621.466-.621.776.155 1.088-.311 2.176-1.088 2.486-1.243.311-2.486.467-3.73-.466-1.087-.932-2.641-1.398-3.729-2.952 1.554.155 2.331 1.243 3.419 1.71.155.155.31.31.466.31.932.155 1.865.932 2.952.155.933-.777.311-1.709.311-2.641 0-.311-.155-.466-.31-.777-.467-.932-.156-2.486-.933-2.952-.777-.622-1.71.621-2.797.776-3.73.777-8.08-2.641-8.08-6.526 0-2.02.155-4.04 1.243-5.904.31-.467.622-1.088-.155-1.554-2.176-.932-4.196-2.331-6.216-3.73-1.087-.621-1.709-.31-2.02.622-.466 1.399-1.554 2.486-2.486 3.574-.621.621-1.243.932-2.02.621-.777-.31-1.088-.932-1.243-1.864 0-2.02.155-3.885-.31-5.905-.467-2.02-1.71-3.418-3.264-3.418-2.175 0-3.574 1.554-3.885 3.884-.621 3.885 1.71 5.75 4.973 7.459-1.399.466-2.33-.156-3.108-.777-4.04-2.642-3.263-9.323 0-11.343.466-.31.777-.466.31-1.243-1.864-3.574-2.02-7.303-1.242-11.188 1.088-4.817 3.884-8.39 8.235-10.41 6.06-2.953 12.431-3.108 18.646 1.553 2.953 2.175 5.284 4.972 6.993 8.08.31.466.466.932 1.243.622 4.972-2.331 10.255-2.331 15.538-1.71 5.284.622 9.945 2.797 12.742 7.614 1.243 2.02 1.554 4.506 1.243 6.837 0 .311-.466.777-.621 1.088-.311.466-.622.932-1.088.622-.622-.311-.156-.777.155-1.244.777-.932.777-2.175.466-3.263-1.243-4.04-3.573-7.147-7.769-8.857-4.506-1.864-9.012-2.33-13.83-1.709-.154 0-.31.155-.465.622h4.04c4.35-.156 8.391 1.087 11.964 3.418 3.73 2.33 5.905 5.905 4.351 10.722-.311 1.243.622 1.398 1.088 1.864.777.777.466-.466.777-.621.621-.311.932.155 1.243.466 1.864 2.02 2.331 4.35 1.554 6.992-1.71 5.905-7.925 9.79-13.674 9.79-3.419 0-6.682-.777-9.323-3.108-.933-.933-2.487-.31-3.419-1.088-.466-.31-.932-.932-1.554-.932-.466 0-.777-.31-.777-.777 0-.622.622-.466 1.088-.466h.777c-.155-1.243-.932-2.02-1.554-2.797-1.554-2.486-2.797-5.128-3.884-7.77-.467-1.087-1.243-1.864-1.399-3.107 0-.466-.466-.31-.777-.156-5.438 2.487-11.343 3.108-17.248 4.04-.466.156-.776.156-.932.622-.155.622.31.622.466.777a88.526 88.526 0 006.371 4.04c2.02 1.088 2.02 1.398 1.088 3.73-.933 2.02-1.399 4.195-.622 6.525.777 2.486 4.351 4.507 6.682 3.73 2.641-.777 4.506-2.642 6.06-4.973.621-.932.155-1.709-.31-2.33-1.71-2.331-3.886-3.885-6.527-5.128-.466.932-.932.777-1.088.155zm38.691-3.729c-.311 2.02 0 3.73-.932 5.438-.777 1.399-2.02 2.642-2.797 4.196 3.574-2.486 4.972-6.992 3.729-9.634z" fill="#16013E"/><path d="M79.854 21.101c-2.98-3.31-6.482-4.413-7.861-4.551h-6.621l-4.137 1.241-4.551 3.31-2.896 4.965-.828 5.38.828 4.55 2.068 2.07 2.483 2.068 1.241 1.655.828 4.965.827 2.896 1.241-1.241 2.897-4.138 1.24-1.655 1.656-.827h2.896l5.379-.828 4.137-1.655 3.724-.827h1.655l.414.827.827 1.655 2.483 4.138 1.241 2.482 2.069 3.724 1.241 2.483 1.241.827 1.655 1.241 4.138 2.07 4.965.413 3.31-.414 2.896-1.241 3.31-2.896 1.655-2.897v-3.31l-.414-3.31-2.068-1.655v-.827l.827-3.724-.827-3.31-2.483-3.31-3.31-2.896-3.724-1.655-5.378-.414h-4.552c-.827.276-2.896.993-4.551 1.655-2.069.828-4.965 1.241-5.379 0-.413-1.241-2.069-2.896-5.792-7.034z" fill="#00C9A5"/><path d="M54.894 77.848a167.13 167.13 0 00-4.662-1.088c-2.486-.621-5.127-.466-7.614 0-6.526 1.243-12.275 4.196-17.869 7.77-7.614 4.972-13.83 11.343-19.268 18.646-2.175 3.107-4.506 6.215-4.816 10.255-.311 4.196 0 8.391.932 12.431a85.028 85.028 0 002.33 9.012c.311 1.088.933 2.02 1.244 2.953.155.466.777.466 1.087.466 2.331-.156 4.662-.311 6.527-2.02.155-.156.31-.311.466-.311 2.175-.466 1.554-1.554.932-2.952-2.02-4.351-2.797-9.013-3.108-13.83 0-.466-.31-1.243.466-1.398.777 0 .622.777.622 1.243.466 1.865.31 3.885 1.088 6.06 2.02-4.506 4.195-8.546 6.837-12.275 1.243-1.865 2.33-3.885 4.195-5.439.155-.155.466-.777.932-.466.311.311.156.777-.155 1.088-.932 1.398-1.865 2.641-2.952 4.04-.622.932-1.243 1.864-2.02 2.797-.933 1.243-.311 2.175.31 3.263 2.642 4.972 6.06 9.478 11.033 12.431 2.641 1.553 5.594 2.486 8.857 2.175 2.175-.155 4.35-2.175 4.972-4.817.622-2.486 1.865-4.506 2.797-6.837 1.71-3.885 3.73-7.769 6.06-11.343.932-1.399 1.71-2.952 3.108-4.195.31 1.553-.777 2.641-1.399 3.573-2.02 3.574-4.04 6.993-5.749 10.722-1.398 2.797-2.642 5.749-3.73 8.702-.776 2.02-1.398 4.35-2.175 6.37-1.864 5.283-3.107 10.877-4.195 16.316-1.398 6.526-2.02 13.363-2.797 20.044-.932 8.08-.621 16.005-.31 24.085 0 .777.155 1.554-.467 2.176-.621-1.399-.777-2.642-.777-4.04-.31-6.837-.31-13.83.156-20.667.31-5.438.932-10.877 2.02-16.315.621-3.885 1.553-7.769 2.175-11.809.31-1.865 1.243-3.73 1.554-5.594.155-.933-.156-1.088-.932-.933-6.216.467-11.033-2.486-15.694-6.215-3.264-2.486-5.439-5.905-7.459-9.479l-.466-1.398c-.777.932-1.243 2.02-1.71 2.952-.155.466-.465 1.088-.776 1.399-.777.621-.777 1.554-.466 2.331 1.087 2.797 1.709 5.749 3.263 8.39.155.311.31.933.932.777.466 0 .31-.621.466-.932.156-.622.466-1.398 1.243-1.243.933.311.466 1.088.156 1.554-2.176 5.438-5.905 9.323-11.343 11.654-.467.155-.777.31-1.244.31-1.709.156-2.33-.466-2.02-2.33.156-.933.777-1.554 1.244-2.331.155-.311.466-.466.776-.156.156.311.156.933.622.467.466-.311.932-.622.932-1.243 0-2.02-1.087-3.264-3.107-3.73-1.865-.466-2.02-2.33-2.487-3.729-2.33-6.837-3.729-13.985-3.418-21.288.155-3.884 1.71-6.837 3.574-9.789 3.108-4.506 6.526-8.702 10.566-12.43 4.35-4.04 9.012-7.615 14.14-10.722 3.73-2.176 7.459-3.885 11.654-5.128 4.972-1.398 9.945-1.71 14.762.932-.311.466-.156.622.155 1.088zm-43.819 66.816c.156 0 .156 0 .311-.156 1.865-1.554 4.196-2.952 5.439-5.283.155-.311-.777-3.108-1.243-3.263-.156 0-.311 0-.467.155-1.553 1.554-3.574 2.487-5.749 2.953-.777.155-.621.621-.466 1.087.621 1.243.777 2.642 1.554 3.885.155.311.155.622.621.622zm110.013-5.905c1.709-.155 2.642 1.709 4.195 1.088 0 1.087-.621 1.864-1.243 2.486-2.641 3.263-6.06 5.438-10.255 6.526-3.729.932-7.925-1.243-10.411-4.972-.311-.622-.777-1.088-1.088-1.554-.466-.777-.621-1.554.311-2.175 1.088-.777.933-1.244-.155-2.176-2.02-1.864-3.419-4.351-4.662-6.837-1.243-2.486-2.33-4.817-2.952-7.458-.466-2.176-1.243-4.351-.622-6.682.311 1.088.933 2.176 1.088 3.419.31 2.797 1.554 5.283 2.486 7.769 1.399 3.574 3.574 6.992 6.371 9.634.932.932 2.02 1.864 3.263 2.486 2.952 1.554 6.06 1.243 9.012-.311 3.73-2.02 6.061-5.128 7.459-9.168.466-1.243.932-2.33 1.554-3.573.155-.311.621-.933 1.088-.622.31.155.155.777 0 1.243-.933 3.885-2.487 7.303-5.128 10.411 0 0-.156.155-.311.466zm107.216 18.18a354.705 354.705 0 003.884-6.682c2.176-3.729 4.04-7.458 4.507-11.809.31-2.02-.311-3.884-.933-5.749-3.263-8.546-9.012-15.228-15.538-21.288-3.574-3.263-7.459-6.215-11.499-8.857a71.929 71.929 0 00-11.343-6.06c-.777-.31-1.398-.777-2.331-1.088-.777-.155-.155-.932-.31-1.243-.156-.932-.777-1.864-1.399-2.641-1.865-2.953-4.351-5.128-7.614-6.371-2.02-.777-3.729.31-5.127 1.088-3.264 1.709-5.905 4.195-7.925 7.303-.622.932-.622 2.175-1.709 3.108-.311-1.244-.156-2.176.466-3.264 2.02-3.573 5.128-6.06 8.391-8.235 3.574-2.33 6.992-1.865 10.721 1.243 2.02 1.71 3.729 3.574 4.817 6.06.156.31.311.622.311.777-.777 2.02.932 1.865 2.02 2.33 4.506 1.555 8.546 3.73 12.431 6.372 5.127 3.263 9.789 7.147 13.984 11.187 2.953 2.797 5.594 5.75 7.925 9.013 2.02 2.952 3.885 6.06 5.128 9.323 1.087 2.952 1.709 6.06.932 9.323-1.398 5.438-4.195 10.255-7.303 14.762-.622.621-1.088 1.398-2.486 1.398zm-38.07-101.777c1.244.932 1.399 2.486 2.176 3.729 3.418 5.438 9.478 6.215 14.606 3.73 2.331-1.089 3.574-4.818 2.642-7.77-.467-1.71-1.399-3.108-2.487-4.35-2.33-2.642-3.263-5.75-2.641-9.48.777-4.66.466-9.167-2.02-13.363-2.642-4.35-8.857-6.836-13.674-5.438-3.729 1.088-6.06 3.108-7.769 6.526-.466.777-.156 1.71-1.088 2.486.155-3.107 1.088-5.749 3.263-7.458 3.729-2.952 8.08-4.196 12.897-2.642 5.283 1.71 8.235 5.439 9.789 10.877.933 3.574.933 6.837 0 10.411-.466 1.865.311 3.73 1.399 5.283 1.398 1.865 2.952 3.73 4.351 5.594 2.486 3.73 1.398 8.39-2.331 10.722-3.108 1.864-6.371 2.33-9.945 1.398-3.574-.932-6.371-2.797-8.391-5.904-.932-1.244-1.398-3.264-.777-4.351z" fill="#16013E"/><path d="M177.182 65.262c.622.621 1.088.932 1.398 1.554.933 1.243 2.331.932 3.264-.311.932-1.243.932-2.797 1.243-4.196.932-4.35.621-8.546-.156-12.897-.621-4.195-2.175-7.769-4.351-11.343-2.02-3.107-4.661-5.594-8.08-6.681-2.641-.777-5.438-.777-8.08-.156-3.729.933-7.147 2.486-9.478 5.594-.466.622-.777 1.399-1.243 2.02-.156-1.864.777-3.263 2.02-4.35 4.351-3.73 9.478-5.284 15.228-4.351 2.02.31 3.884.777 5.593 2.02.467.31.933.31 1.554.155 2.642-.932 6.526.466 7.614 3.108.932 1.864 1.865 3.884 1.088 6.06-.156.31-.156.777-.311.932-1.709 1.399-.932 3.108-.466 4.662 1.865 6.681 1.554 13.207-.155 19.734-.156.466-.467.776-.622 1.087-.777 1.243-1.709 2.642-3.574 2.176-1.709-.466-2.797-2.797-2.486-4.817z" fill="#16013E"/><path d="M156.671 41.177c-1.709 1.088-3.574.932-5.128.622-2.952-.622-5.749-1.399-8.546-2.176-3.418-.932-6.681-.777-10.1.156-3.884 1.087-6.681 3.418-8.391 6.837-1.709 3.418-2.02 7.147-.932 10.877.932 2.796 2.331 5.127 4.662 6.837 2.02 1.398 4.195 2.02 6.526 1.398 1.088-.31 2.175-.466 3.263-.777.621-.155 1.709-.31.932-1.398-.155-.156 0-.466.156-.466 1.087-.622 2.33-1.244 3.729-.933.621.155 1.088.622.932 1.243-.155.777-.777.466-1.243.311-1.088-.155-2.02-.155-2.641 1.088-.622 1.087-1.865 1.243-3.108 1.709-3.574 1.398-6.992 1.088-9.945-1.398-4.04-3.419-5.749-7.77-5.438-13.053.311-4.506 2.02-8.39 5.749-11.343 3.729-2.952 8.235-3.574 12.897-3.263 2.952.155 5.594 1.554 8.391 2.175a42.89 42.89 0 006.215.933c.622.155 1.399 0 2.02.621z" fill="#16013E"/><path d="M134.14 58.425c1.399-.466 2.487.31 3.574.621 5.128 1.554 9.79.777 14.296-1.709.932-.466 1.864-1.243 2.33-2.33.777-1.554 1.865-1.71 2.953-.311 2.331 2.641 5.283 3.263 8.546 3.729 1.088.155 1.709-.155 1.554-1.554-.156-1.71.621-3.263 1.398-4.506 1.554-2.486 5.439-2.175 7.303.466.777 1.088 1.088 2.175.933 3.574 0 2.33.31 4.817-.933 6.992-.777 1.399-2.02 2.331-3.418 1.865-.311-.156-.622-.156-.622-.622 0-.31.311-.621.622-.621 1.865-.156 2.331-1.554 2.797-2.953.777-2.33.932-4.506 0-6.837-.622-1.398-1.865-2.175-3.419-2.175-1.553 0-2.33.932-2.797 2.33-.31.778-.621 1.555-.621 2.332 0 2.486-1.088 3.418-3.574 3.418-3.418 0-6.215-1.398-8.391-4.04-.621-.621-.621-.932-1.087 0-.467.777-1.244 1.399-1.865 2.02-.311.466-.932.777-.466 1.554.311.466 0 .932-.622.777-1.864-.156-3.574 0-4.506 1.864-.155.311-.466.311-.932.311-.466-.155-.466-.621-.466-.932.155-.777 0-.777-.777-.622-3.574.311-7.148-.31-10.567-1.398-.31-.31-.776-.622-1.243-1.243zM6.103 165.796c.622-2.486 2.33-4.04 3.885-5.749.621-.622.466-.932.155-1.554-.932-1.554-2.33-2.797-3.263-4.506 1.71.621 2.797 2.02 3.73 3.418.776 1.088 1.242.777 1.864 0 1.088-1.087 2.02-2.175 3.107-3.107 1.554-1.399 1.554-1.554.156-3.263-.466-.622-.932-1.244-1.243-2.176 1.398 0 2.02 1.088 2.486 1.865.932 1.709 1.71.932 2.33.155 1.865-2.02 3.885-3.574 6.216-5.128.31.467-.155.622-.31.933l-4.973 4.972c-1.71 1.554-1.71 1.865-.31 3.729 1.242 1.71 1.864 3.574 2.64 5.75-2.175-1.554-2.951-3.73-3.884-5.75-.466-1.087-.932-1.554-1.864-.466a29.285 29.285 0 01-3.108 3.108c-1.243.932-1.088 1.865-.31 3.108 1.087 1.864 2.02 3.729 3.107 5.593.621 1.244 1.243 1.244 2.175.311 1.554-1.709 2.953-3.418 4.662-5.127-.466 2.02-1.865 3.418-3.108 4.816-1.71 1.865-2.641 3.574-.31 5.594-.933.311-.933-.466-1.244-.621-1.554-1.399-1.709-1.399-3.107.311a47.392 47.392 0 01-6.837 6.836c.31-1.864 1.709-3.107 2.796-4.35 1.399-1.71 2.953-3.263 4.507-4.817.466-.466.466-.622.155-1.088-1.554-2.175-2.641-4.661-3.885-7.148-.466-1.087-.777-1.243-1.553-.31-1.71 1.864-3.264 3.263-4.662 4.661zM115.184 92.61c-1.554-.622-2.176-1.865-3.264-2.953-3.884-4.35-10.877-6.526-16.47-2.641-2.176 1.554-3.73 3.884-5.128 6.06-1.71 2.641-3.419 5.438-5.75 7.614-.155.155-.466.31-.62.466-2.798 1.709-3.575 5.749-1.865 8.546 1.553 2.486 3.573 4.195 6.526 4.661.31 0 .621.311.932.622-1.398.622-3.419.466-5.283-.932-3.108-2.176-4.817-5.128-4.662-9.013 0-1.709.777-3.107 2.331-4.04 3.263-2.02 5.128-5.127 7.303-8.235 1.865-2.642 3.419-5.594 6.371-7.148 2.797-1.398 5.594-2.486 8.857-1.709 3.729.932 7.148 2.33 9.323 5.75.466.932.932 2.02 1.399 2.952zM65.46 87.482c1.554.777 1.865 2.175 2.02 3.73.156 3.262-.466 6.525-1.088 9.633-1.087 5.749-2.796 11.499-4.506 17.092-.932 2.797-1.864 5.75-3.418 8.391-1.399 2.176-3.419 3.885-5.283 5.749-3.108 3.264-6.06 6.527-8.702 10.101-.31.466-.777.776-1.398 1.243.155-1.088.777-1.71 1.243-2.487 3.107-4.661 7.303-8.546 11.032-12.741 2.176-2.486 3.419-5.283 4.506-8.236.933-2.641 1.865-5.438 2.642-8.08 2.02-7.147 4.35-14.45 3.73-22.064-.156-1.243-.156-1.243-.778-2.331zM114.406 101c.622 2.797 2.02 5.128 3.574 7.148 1.865 2.486 4.04 4.817 6.682 6.682.932.777 1.864.932 2.952 0 1.865-1.554 3.729-1.554 5.439-.311 1.243.932 2.02 3.418 1.553 5.283-.932 3.419-3.573 4.972-7.769 4.506 1.088-1.087 2.486-1.087 3.574-1.398 2.952-.777 4.195-4.506 2.331-6.993-.777-1.087-2.797-1.087-4.196-.155-2.175 1.554-2.486 1.554-4.661.155-2.797-1.709-5.439-3.729-7.303-6.526-.622-.932-1.554-.777-2.486-.466-.311.156-.622.466-.933.622-.621.31-1.398.621-1.864-.156-.622-.932.777-.932.777-1.554 0-.155.31-.155.31-.31.933-.156 2.02-.466 2.331-1.088.311-.622-.466-1.554-.621-2.331-.622-1.864-.777-1.864.31-3.108zm-90.589 96.65c-.932-.932-1.088-2.02-1.088-3.108-.155-6.526.311-13.052.777-19.578.31-4.662 1.243-9.168 1.865-13.674.31-2.02.466-4.04 1.398-5.905.156-.311.311-.932.777-.777.622.156.31.777.31 1.088-.931 3.108-1.398 6.215-1.708 9.323-.466 3.574-1.088 6.992-1.243 10.566-.156 3.263-.311 6.526-.622 9.79-.31 3.418-.155 6.992-.155 10.41-.156.622 0 1.243-.311 1.865zM144.551 75.517c.466 1.865-.932 3.263-1.088 4.973 0 .776-.466 1.553-.466 2.33 0 .777.311 1.71.933 2.02.777.311 1.554 0 2.175-.621.622-.622 1.088-1.399 1.865-1.554.466 2.952 2.486 4.817 4.661 6.681 3.263 2.797 7.148 3.885 11.188 2.176 2.952-1.243 5.438-3.108 7.148-5.905.777-1.243 1.398-2.33 2.33-3.884.311 2.02-.466 3.263-1.398 4.506-2.175 3.418-5.283 5.75-9.168 6.837-3.729 1.088-7.147.155-10.255-2.176-2.02-1.398-3.574-3.263-4.817-5.283-.466-.621-.932-.777-1.399-.31-.932.621-1.864.932-2.797.31-1.087-.777-1.553-1.864-1.398-2.952.311-2.33 1.088-4.506 2.02-6.682-.311-.466 0-.621.466-.466zM4.083 199.204c-3.263-5.439-2.02-45.217 1.554-48.947 0 2.331-.933 4.351-1.243 6.682-.311 3.729-.777 7.614-.933 11.343-.31 8.546.311 17.092.622 25.639 0 1.243.31 2.486.31 3.729 0 .311.156 1.087-.31 1.554zm113.12-106.439c-.311-2.33 1.399-2.952 2.797-3.574 4.04-1.71 8.08-1.71 11.809.932 3.108 2.331 4.817 5.594 5.284 9.323.155 2.487.466 5.128-.311 7.614-.311 1.243-.622 2.642-1.554 3.574-.311.311-.622.622-1.088.311-.311-.311-.155-.777 0-1.088.933-2.02 1.709-4.04 1.865-6.215.466-5.439-1.088-10.255-5.749-13.363-2.487-1.71-5.283-2.02-8.236-.777-1.864.932-3.263 1.865-4.817 3.263zM56.448 63.086c.466.622.777 1.088.932 1.865.466 2.797 1.088 5.594 2.176 8.236 1.864 4.04 7.147 6.992 11.498 5.438 3.263-1.243 5.905-3.108 8.236-5.439.621-.621 1.087-.777 1.864-.932-.932 2.02-2.33 3.419-4.04 4.662-1.554 1.087-3.108 2.02-4.972 2.797-5.283 2.175-11.343-.933-13.519-5.905-1.243-2.952-2.175-5.75-2.33-9.012-.156-.622-.156-1.088.155-1.71zM55.36 81.733c-.466 2.797 1.088 4.972 3.263 6.837.932.777 1.865.621 2.797.466.777-.31.932-1.243.932-2.02 0-1.088.311-2.02.622-2.953.155-.466.31-.776.777-.621.466 0 .621.466.466.932-.155 1.71-.31 3.419-.777 5.128-.777 2.642-3.73 3.263-5.905 1.398-3.263-2.952-3.884-6.681-3.729-10.877 0-.466.31-.776.466-1.243.156-.31.466-.466.777-.31.311.155.311.466.311.621v2.642zm51.122 34.495c.621 2.175-1.088 3.574-1.709 5.128-.622 1.554-1.399 2.952-1.865 4.661-.311 1.399.622 2.486 2.02 2.176 1.088-.311 2.175-.777 3.108-1.399.466-.311 1.087-.777 1.554-.155.621.777-.467 1.088-.933 1.398-1.398.933-3.107 1.554-4.817 1.399-1.709-.156-2.797-1.554-2.33-3.108.31-1.243.466-2.486 1.398-3.574.466-.466 1.088-1.398-.466-1.398-.932-.156-1.243-1.088-1.243-1.865 0-.932-.311-1.398-1.243-1.554-.466-.155-.777-.311-.622-.777.156-.466.466-.466 1.088-.31 1.088.31 2.02.621 3.108.776 1.243-.31 2.175-.466 2.952-1.398zM30.81 95.406c-.622 1.71-2.02 2.487-3.264 3.419-4.506 3.108-8.546 6.682-12.12 10.877-1.243 1.398-2.486 2.797-2.797 4.817 0 .311-.31.621-.466.777-.31.311-.466.621-.932.311-.466-.156-.311-.622-.156-.933.622-2.175 1.865-4.195 3.263-5.904 2.487-2.797 5.128-5.594 8.08-7.925 2.02-1.554 4.196-2.486 6.216-4.04.466-.622 1.087-1.399 2.175-1.399z" fill="#16013E"/><path d="M4.083 176.984c2.175 1.553 3.73 3.573 5.283 5.749a53.771 53.771 0 013.419 4.817c.466.777.466.621 1.087 0 1.399-1.554 2.486-3.419 4.351-4.351-1.088 2.02-2.175 4.04-3.73 5.749-.465.622-.62.933 0 1.399.778.932 1.4 2.02 2.02 3.107-1.242-.776-2.33-1.864-3.262-3.263-1.243 2.02-2.797 3.574-4.351 5.128-.155.155-.31.466-.622.311-.31-.156-.155-.466 0-.777.777-1.554 1.71-3.108 3.108-4.351 1.243-1.088.932-2.02.155-3.108-2.33-3.418-4.506-6.836-7.303-9.944-.155-.156-.155-.311-.155-.466zm89.813-60.756h-.933c-.31 0-.466-.155-.621-.466 0-.311.155-.466.466-.466 1.243-.311 2.33-.932 3.574-.932 3.418 0 6.06-1.865 8.701-3.574 2.331-1.554 4.04-3.885 5.439-6.371.466-.777.311-1.554.777-2.331.311-.466.311-1.088 1.087-.777.622.311.156.777 0 1.088-1.553 5.128-4.506 9.012-9.323 11.343-2.797 1.554-6.06 2.02-9.167 2.486zm95.406 37.293c-2.797-2.487-5.749-4.662-7.458-7.925-.466-.777-.933-1.398-1.243-2.175-1.088-2.331-.311-4.507.155-6.682 1.088-4.04 2.02-8.235 3.418-12.586.467.932.311 1.864.156 2.486-.622 2.486-1.088 4.817-1.865 7.148-.621 1.864-.777 3.884-1.243 5.749-.621 2.331.777 4.195 2.02 6.06 1.399 2.175 3.263 3.885 5.283 5.749.466.622 1.243 1.088.777 2.176zm29.213-25.95c.932-.466 1.398.156 2.02.466 2.33 1.865 4.195 4.196 5.904 6.837.622.933 1.243 1.865 2.02 3.108.311-.932 0-1.865 1.243-2.331 0 .933.156 1.865-.155 2.797-1.088 3.263-1.554 6.682-3.108 9.945-.155.311-.155.932-.621.621-.622-.31-.311-.777-.156-1.087.777-2.487 1.554-4.973 2.02-7.614 0-.466.156-.777-.155-1.088-2.175-3.108-3.885-6.681-6.526-9.478-.622-.933-1.865-1.244-2.486-2.176zM92.031 103.797c1.398-2.797 1.398-6.06 2.797-8.701 1.865-3.73 7.148-6.216 11.654-4.196.932.466 2.02.622 2.641 1.554.156.31.777.466.467.777-.311.466-.777 0-1.088-.155-1.709-.933-3.263-1.554-5.283-1.554-5.128.155-7.459 3.263-8.546 7.458-.622 1.709-.933 3.574-2.642 4.817zM22.73 138.448c1.553.933 10.41 11.965 11.032 13.519-2.487-.777-10.877-10.877-11.033-13.519zm152.587-70.7c.311 1.865-1.087 2.02-2.02 2.33-1.243.467-2.952-.31-3.263-1.398-.466-1.243.156-2.175 1.088-2.952.466-.31.932-.31 1.554 0 .777.466 1.398 1.088 2.486 1.088.311 0 .155.777.155.932zm-24.24 121.511c0 .622-.621.777-.932 1.088-2.02 1.398-4.04 2.641-6.06 4.04-1.243.932-2.486 2.02-3.418 3.418-.311.311-.467 1.088-1.088.622-.466-.311-.311-.777 0-1.243 2.797-3.574 6.526-5.905 10.566-7.925.466-.466.777-.621.932 0zm-36.981-68.525c-.777.156-1.088-.31-1.399-.776-.621-.933-.155-2.331-1.709-2.797-.311 0 0-.933.622-.777 1.709.466 3.574.621 5.283.155.311-.155.621.155.777.466.155.311-.156.777-.466.777-1.399 0-1.554 1.088-2.02 2.02-.156.777-.311 1.243-1.088.932zm30.766-51.898c-.466 1.553-.311 3.263-1.243 4.817-.622.932-1.088 1.709-2.331 1.709-1.088 0-1.554-.932-1.865-1.71-.31-.621-.466-1.398-.621-2.175-.155-.466-.155-.777.311-.932.621-.156.777.31.932.621.155.467.155.933.155 1.399.156.621.467 1.243 1.243 1.398.622 0 .933-.466 1.088-1.087.466-1.399.932-2.642.932-4.04 0-.466.156-.933.777-.933.777 0 .622.466.622.933zm4.351 3.884c-1.243.311-1.71-.621-2.176-1.398-.466-.622-.466-1.554-.777-2.33-.155-.467-.466-.933.156-1.244.777-.31.777.466.932.777.311.777.466 1.554.777 2.175.466.933 1.088 1.399 2.02.156.777-.932 1.088-2.02 1.554-3.108.155-.466.311-1.243 1.088-.932.621.31.31.932.155 1.243-.466 1.243-.777 2.486-1.709 3.574-.622.777-1.088 1.243-2.02 1.087zM80.532 60.134c0-.466 0-.932.467-1.398.621-.467.621-.933-.156-1.399-.466-.155-.466-.466-.155-.777.155-.31.621-.31.932-.155 1.243.621 2.486 1.398 3.108 2.486.621.932-.777 1.243-1.243 1.865-.466.621-1.088 1.087-2.02.776-.622-.155-1.088-.621-.933-1.398zM31.275 172.477c.622-.31 1.244-1.554 1.865-1.087.777.621-.31 1.243-.777 1.864-.466.777 0 1.243 0 1.865.156.777.777 1.398.622 2.486-.777-.466-1.088-.932-1.399-1.554-.466-1.398-.932-.932-1.554-.155-.466.621-.932 1.088-1.864 1.088.155-1.554 2.02-2.02 1.864-3.574-.155-1.399-1.398-2.331-1.398-3.73 1.398.467 1.554 2.176 2.641 2.797zM80.999 46.926c2.33-.932 5.127 0 6.06 2.331.31.777 1.088 1.399 1.088 2.33 0 .312.155.622-.311.933-.311.156-.622-.155-.777-.466-.311-.622-.933-1.088-1.399-1.865-.777-1.398-2.02-2.02-3.418-2.486-.466-.31-.933-.31-1.243-.777z" fill="#16013E"/><path d="M110.677 96.494c-1.088.156-1.398-.466-1.709-.932-2.486-2.642-4.351-1.71-6.993-.466-.621.31-1.243.932-1.864 1.243-.31.155-.622.155-.777 0-.31-.31 0-.466.155-.622 1.865-2.33 5.283-3.418 7.925-2.486 1.709.622 2.331 1.865 3.263 3.263zm61.688 1.554c1.088.31 2.486 1.243 3.729 2.331.777.777 1.554 1.709 2.331 2.486.311.311.777.777.311 1.243-.466.466-.932 0-1.243-.311-1.088-.932-1.865-2.175-2.952-3.107-.777-.622-1.71-1.243-2.797-1.554-.311-.156-.933.155-.777-.466 0-.777.466-.777 1.398-.622zm-71.166 44.129c-.467.466-.777 1.088-1.243 1.399-2.176 1.554-4.507 2.952-6.371 5.127-.311.311-.622.311-.777.156-.31-.311-.156-.622.155-.932a29.945 29.945 0 014.662-4.196c.932-.621 1.709-1.243 2.641-1.865.156-.31.622-.31.933.311zm42.42-122.132c0 .777-.466 1.087-.932.621-1.243-1.398-2.953-2.486-3.885-4.04-.155-.31-.466-.621-.155-.932.155-.155.31-.31.777-.155 1.243.155 4.35 3.263 4.195 4.506zM53.185 3.574c0 .466.155 1.088.155 1.71 0 .465-.155.931-.622 1.087-.621.155-.621-.466-.776-.777-.622-1.71-.777-3.263 0-4.972.155-.311.155-.622.621-.622.622 0 .622.466.622.777.31.777.155 1.71 0 2.797zm65.883 94.474c.621 3.729 2.02 7.148 4.972 9.945-2.952-.311-5.594-5.439-4.972-9.945zM45.26 13.052c-1.398.156-2.642-1.243-4.35-1.864a.854.854 0 01-.467-.777c.156-.466.622-.466.932-.311 1.554.466 3.108.932 4.507 1.554.31.155.776.466.621.932 0 .622-.31.622-1.243.466zm104.885 5.128c.155-1.243.777-2.175 1.243-3.263.155-.311.622-.777 1.088-.466.311.155.621.621.466 1.087-.311 1.088-.622 2.331-1.399 3.263-.155.311-.466.467-.932.467-.466-.311-.466-.777-.466-1.088zM32.984 155.385c-.31 0-.466 0-.466-.311 0-.155 0-.466.156-.621 1.398-1.243 2.641-2.952 4.506-3.729.31-.156.466-.311.777 0v.466c-.156.466-4.506 4.195-4.973 4.195zm143.421-59.979c2.02.156 2.952 1.088 3.574 2.642.155.31.311.622-.155.777-.156.155-.622 0-.777-.155-.933-.933-1.71-2.02-3.108-2.331-.155 0-.311-.466-.311-.466.311-.467.777-.467.777-.467zm9.168 13.364s-.311-.156-.466-.311c-.156-.466-.156-.777.155-1.243.622-.777 1.243-1.399 1.709-2.176.311-.311.466-.311.933-.311.31 0 .31.311.466.622.155.932-1.709 3.419-2.797 3.419zM50.699 120.734c.466 2.952-.933 6.371-3.419 7.769 1.398-2.797 2.952-4.972 3.419-7.769zm131.611-19.578c2.486-2.797 5.438-4.817 9.168-5.594-3.264 1.71-6.527 3.108-9.168 5.594zm-71.788 33.874c-.311-.156-1.243 0-1.243-.777 0-.933.777-.466 1.243-.466 1.243.155 1.865-.622 2.797-1.243.311-.156.777-.467 1.088 0 .31.466 0 .776-.311 1.087-1.088.933-2.02 1.399-3.574 1.399zm16.315 9.168c-.932 2.33-2.641 2.796-4.195 3.729-.156.155-.466.155-.777.155-.466.311-.932.777-1.399.156-.31-.467.467-.777.933-.933 2.02-.466 3.263-2.02 5.438-3.107zM55.205 97.893c-1.088.155-1.399-.622-1.399-1.399.156-.621.31-1.71 1.399-1.554.932 0 1.243.777 1.243 1.399 0 .777.155 1.864-1.243 1.554zm-.932 3.729c-.311.777-.777 1.243-1.554 1.243s-1.243-.466-1.243-1.243c0-.777.466-1.554 1.243-1.554.777-.155 1.243.622 1.553 1.554zm-23.464 59.357c.155 0 .466 0 .622.311l1.864 2.797c.156.31.311.777 0 .932-.31.155-.621 0-.932-.311-.932-.932-1.399-2.175-2.02-3.263-.31-.155-.155-.466.466-.466zm179.625-22.22c-.621-.622-2.02-.622-2.33-1.865-.156-.466.466-.932.932-.777.932.622 2.175.622 2.486 1.865 0 .466-.311.932-1.088.777zM28.012 181.024c1.244 1.398 2.176 2.797 3.264 4.04.31.31.466.777.155.932-.31.311-.777-.155-.932-.311-1.399-1.243-2.486-2.486-2.486-4.661zm172.789-37.448c-.777.466-.466 2.02-1.865 2.175-.621 0-.932-.155-.777-.777.311-.932.777-1.864 1.709-2.33.467-.156.777.31.933.932zm7.924-36.205c0 .311-.311.466-.621.466-.467 0-.933-.155-1.399-.31-.777-.311-1.709-.933-1.243-1.865.466-.777 1.243-.155 1.865.311.466.466 1.243.311 1.398 1.398zm-7.924 13.363c.466 0 .777.156.621.622 0 .466-1.709 2.33-2.175 2.175-.466 0-.622-.311-.622-.777-.155-.311 1.554-2.02 2.176-2.02zm-17.093-26.571c-.777-.621-1.554-1.398-2.486-2.175-.155-.156 0-.466.311-.622.932-.31 2.952 1.399 2.797 2.331 0 .31 0 .622-.622.466zM74.317 73.186c-.31.622-.31 1.554-1.243 1.554-.777 0-1.088-.466-1.088-1.087.156-.777.311-1.554 1.243-1.554.933 0 .777.777 1.088 1.087zm152.899 51.899c-.622-.155-1.709 0-1.865-1.243 0-.466.156-.777.622-.621.932.31 2.02.466 2.331 1.398.31.466-.622.311-1.088.466zm6.215 17.559c0 .621-.155 1.087-.621.932-1.243-.311-.777-1.554-1.088-2.331-.311-.466.156-.932.622-.777.932.466.621 1.554 1.087 2.176zm-80.489-56.405c-.622-.156-1.243-.466-1.243-1.243 0-.777.621-.932 1.243-.932.622 0 .777.776.932 1.398 0 .31-.31.777-.932.777zm33.097 48.946c0 .622-.311.777-.777.777-.777-.155-1.243-.932-1.554-1.554-.155-.311.156-.466.466-.621 1.244 0 1.399.932 1.865 1.398zm-81.577 12.586c-1.088.622-1.399-.311-1.865-.777-.621-.311-.621-1.087-1.243-1.554-.155-.155-.311-.466 0-.777.311-.31.466 0 .622.156.466 1.243 1.553 2.02 2.486 2.952z" fill="#16013E"/><path d="M111.713 88.956l2.482 3.31 2.069 1.241.827-.413.828-1.241 2.482-1.655 2.483-1.242 2.069-.413h2.068l3.31 1.24 3.724 3.31 1.655 2.897.828 3.31v3.31l-1.242 6.62-4.137 5.379h-1.241l-2.069.827-2.069 1.242-.827-1.242-4.138-2.482-4.965-6.206-1.655-5.379-1.655 1.241h-.827l-1.655 4.138-4.552 4.551-5.378 3.31-4.552.827-2.896.414-4.965-.414-3.31-2.482-2.482-1.655-1.242-4.551v-2.897l2.483-2.482 2.896-3.31 1.655-2.483 3.31-4.137 1.655-2.483 2.896-2.896 2.483-.828 4.551-.827 4.965 1.655 4.138 2.896z" fill="#16013E"/></svg>