<svg width="291" height="199" fill="none" xmlns="http://www.w3.org/2000/svg"><path d="M53.875 157.349c1.158.144 2.027.723 2.172 1.591.724 2.603 1.592 5.061.434 7.809-.145.434-.29.868.145 1.302 2.172 2.314 2.461 5.496 3.474 8.388 1.303 3.905 1.882 8.243 2.606 12.293.145 1.157.434 2.169-1.448 1.88-.868-.145-1.447.723-2.171 1.302-3.909 4.194-8.397 6.074-14.042 3.904-1.882-.723-3.185-.434-5.067.579-3.475 2.169-7.528 2.025-11.002-.145-2.461-1.591-4.488-.578-6.66.434-.434.145-.434.579-.434 1.012 0 .579 0 1.302-.579 1.302-.724 0-1.158-.868-1.303-1.302-.29-1.88-1.158-3.615-1.303-5.351-.145-4.483-1.447-8.822-.434-13.305.579-2.314-.434-5.062 1.447-7.086.145-.145 0-.579 0-.723-1.013-2.459-.289-4.918.145-7.376.145-.723.435-1.157.869-1.446.434-.434 1.158-.434 1.737-.145.58.289.145.868-.145 1.302-.868 1.735-.868 3.615-.868 5.495 0 1.302.434 1.88 1.592 2.025 5.067.868 10.279 1.446 15.49.578 5.356-.867 10.279-2.747 15.345-4.338.869-.289 1.014-.868 1.158-1.446.724-3.182.29-5.93-1.158-8.533zm-21.57-65.514c1.593.868 2.316 2.17 2.606 3.76.29 2.17.434 4.484.724 6.798 0 .433 0 .867.434 1.012 1.448.578 2.895.145 4.198-.434 1.014-.434 1.593-1.157 1.593-2.314 0-1.88.29-3.905-.29-5.785-.145-.434-.434-1.012.145-1.157.58-.144.869.29 1.013.723.724 1.88 1.303 3.76 1.158 5.785.29 0 .435.145.58.145.868-.289 2.026-1.302 2.46-.434.58 1.157-1.013 1.446-1.881 1.88-.724.289-1.448.868-2.027 1.591-1.593 1.591-3.474 2.314-5.501 2.314-2.317 0-3.909 1.157-5.212 2.892-.29.434-.434.868-.724 1.157-.29.29-.579.868-1.158.579-.579-.434-.434-1.013-.144-1.446 1.158-1.302.579-1.591-.87-2.025-1.302-.434-2.026-1.736-2.46-3.037-.145-.579-.29-1.157-.724-1.591-.29 0-.58.289-.434.578.145 1.447-.58 2.459-1.738 2.893-1.302.578-2.605 0-3.619-1.013-1.447-1.59-2.316-3.47-2.026-5.64 1.013 1.446 2.026 2.748 3.33 4.05.434.434 1.013 1.012 1.736.723.58-.289.724-1.013.724-1.736.145-3.47-.434-6.797-2.316-9.834-1.013-1.735-2.316-1.88-3.33 0-1.447 2.603-2.316 5.64-2.316 8.533 0 3.326-.869 6.508-.145 9.979.58 2.747 1.882 5.206 3.33 7.52 2.606 4.339 5.935 7.954 9.844 11.136.724.578 1.593 1.012 1.737 2.169-1.737.289-2.75-1.012-3.908-2.024-4.778-4.195-8.831-8.967-11.582-14.607-1.303-2.748-2.171-5.785-1.592-8.822.724-4.628.869-9.256 2.316-13.74.724-2.169 2.606-3.615 4.922-3.326 1.014.145 1.303-.434 1.593-1.012.868-2.025 2.316-3.182 4.487-3.182 1.014 0 1.014-.578 1.014-1.301.145-2.603 1.303-3.471 3.908-2.893 5.212 1.447 10.279 3.327 15.635 4.194 1.593.29 2.606 1.88 3.04 3.471 1.593 5.207 2.75 10.413 3.04 15.909.145 3.181-1.158 5.929-2.026 8.822-1.303 4.194-3.185 8.098-4.778 12.148-.29.723-.724 1.301-1.447 2.458-.145-2.024.144-3.471.723-4.917 1.593-3.905 3.185-7.809 4.633-11.714 1.593-4.339 1.593-8.677.58-13.16-.58-2.315-.87-4.773-1.593-7.087-1.158-3.471-2.027-4.628-5.502-4.917-2.46-.145-4.922-1.013-7.238-1.736-1.737-.578-3.33-1.302-5.067-1.88-.579-.145-1.158-.434-1.592.145-.434.578-.724 1.157-.29 1.88 1.303 3.037 3.764 4.772 6.95 5.64 2.316.579 4.776.145 7.382 1.302-3.184 1.446-5.79 2.169-8.83.723-2.317-1.157-4.778-2.17-6.225-4.628-.58-1.013-1.738-1.302-3.04-.723-2.462 1.012-3.33 2.892-2.317 5.495 1.158 3.038 2.027 6.075 3.764 8.822.29.434.29.868.434 1.302.435 2.314 2.896 3.471 5.067 2.603.724-.289.58-1.012.58-1.591 0-3.181.289-6.219-1.159-9.256-.579-1.012-.434-1.59-.579-2.169zm152.439 64.212c1.737.868 2.027 0 1.593-1.301-.724-2.17-1.303-4.194-2.172-6.364-.579-1.446-.724-2.892-.434-4.917 1.447 2.025 1.882 4.049 2.606 6.074.723 1.88 1.158 3.76 2.316 5.496 1.303 1.88 1.592 4.339 2.75 6.363 2.461 4.339 4.778 8.678 7.239 13.016.579.868 1.013.579 1.592.289.434-.144 1.014-.289 1.303.29.145.434 0 .867-.289 1.157-1.159 1.157-.435 2.024.289 3.037 1.303 1.88 2.751 3.615 3.619 5.785.29.723.579 1.157-1.013 1.59-3.04 1.013-6.515.868-9.41 3.038-2.316 1.735-5.791 1.735-8.831 1.59-1.013 0-2.316-.723-2.461 1.157-.145.723-.868.145-1.303-.289-1.592-1.591-2.605-3.615-3.619-5.64-1.882-3.76-3.619-7.665-5.211-11.57-1.159-2.748-1.882-5.496-2.751-8.243-.145-.579-.434-1.447.29-1.591.868-.289 1.013.723 1.302 1.157 1.014 3.471 2.172 6.942 3.62 10.268 1.013 2.169 2.026 4.339 3.04 6.653.434.867 1.303.867 2.026.867 4.488-.144 8.686-1.735 12.45-3.905 1.014-.578 1.738-1.446 2.751-1.88 2.171-.867 1.592-2.169.724-3.471-2.751-4.483-5.067-9.255-7.528-13.883-.434-.723-.579-1.302-1.737-.723-1.158.578-2.461-.434-2.606-1.736-.29-.723-.145-1.446-.145-2.314zm-71.659-65.369c.724-1.012 1.447-2.17 2.316-3.037 2.461-2.603 4.922-5.35 8.541-6.508 2.751-.868 4.199.29 4.633 3.182.289 1.446-.145 2.892-.145 4.338 0 .579-.289 1.013-1.013 1.157-.29-1.59 0-3.326-.435-4.917-.723-2.458-1.447-2.748-3.619-1.59-5.211 3.037-8.686 7.664-11.726 12.87l-.145.145c-.144 1.157-1.013 2.314-.144 3.182.868.868 1.737-.434 2.605-.868 2.172-1.157 3.764-2.748 5.357-4.628.434-.578 1.013-.723 1.592-1.012.29-.145.724 0 .869.145.289.289 0 .578-.29.867-2.171 2.17-3.619 5.062-6.369 6.653-1.159.579-4.488 1.012-5.212.289-1.448-1.446-1.013-3.037-.434-4.628.579-1.301 1.158-2.458 1.447-3.76-1.592 1.157-3.04 2.17-4.777 3.037-1.448.723-2.895 1.013-4.343.145-1.882-1.302-2.171-2.603-.869-4.773a260.4 260.4 0 003.764-6.508c-3.04-.434-5.935-1.301-7.817-3.904.724-.579 1.303-.434 1.882-.145 3.474 1.735 7.094 1.88 10.857 1.012.724-.144 1.303-.289 1.448-1.157 0-.723-.434-1.157-1.013-1.301-3.475-1.302-6.37-3.471-9.555-5.207-2.316-1.301-3.474-1.157-5.356.723-3.62 3.616-6.37 7.955-8.252 12.727-1.303 3.327-2.027 6.653-1.013 9.98 1.013 3.325 2.75 6.363 4.632 9.4 2.316 3.615 4.488 7.375 6.66 10.991.144.289.434.578 0 .868-.435.289-.724 0-1.014-.29-2.75-2.603-4.343-5.785-6.225-8.966a90.49 90.49 0 01-4.777-9.111c-1.882-4.194-2.027-8.388-.29-12.727 2.172-5.351 4.922-10.413 9.41-14.462 2.75-2.604 4.488-2.604 7.818-.434 2.461 1.59 5.066 2.892 7.672 4.483 1.014.579 1.158 0 1.448-.578 1.303-2.025 2.895-3.905 5.211-4.628 1.882-.579 3.33.289 4.054 2.024 1.013 2.17.724 4.484.579 6.653 0 .579-.29 1.157-.869 1.157s-1.013-.434-1.013-1.157v-5.062c-.145-2.17-1.448-2.748-3.33-1.735-1.447.723-2.316 2.024-3.329 3.326-.435.434-.724 1.012 0 1.736 1.303 1.446.434 2.603-.579 3.615-1.014.868-2.172 1.735-3.475 1.735-1.158 0-1.737.724-2.171 1.591-.869 2.314-2.896 3.905-3.764 6.22-.145.433-.869 1.011-.145 1.59.579.434 1.158.723 2.027.434 3.474-1.157 6.08-3.471 8.107-6.364.434-.578.724-1.301 1.592-.867.869.434 0 1.157-.145 1.735-.434.868-1.158 1.302-.868 2.314zm-32.862 99.211c-1.303-3.326-.145-6.364 0-9.256.29-5.929 2.027-11.714 3.04-17.644.434-2.458 1.303-4.917 1.882-7.376 1.592-6.218 3.04-12.437 4.922-18.511 1.303-4.339 2.027-8.822 3.62-13.016.289-.868.289-1.736.578-2.893 1.303 1.591 1.014 3.182.724 4.628l-1.303 5.207c-.29 1.157.145 1.301 1.013 1.157 4.778-.723 9.41-.29 14.043 1.157 2.316.723 2.461.578 2.461-1.88 0-3.616 1.303-7.087 1.737-10.703 0-.289.145-.867.724-.723.579.145.434.724.434 1.157 0 3.327-.868 6.508-1.447 9.835-.145.867-.145 1.735-.29 2.603 0 .578.145.868.869 1.012 1.882.434 3.474 1.591 5.066 2.748.869.579.869 1.157 1.014 2.025.145 4.917-.579 9.834-1.014 14.751-.723 7.231-2.316 14.318-3.04 21.404-.579 5.062-1.592 10.124-2.461 15.041-.434 1.88.145 4.049-1.158 5.785-.724-1.012-.724-2.169-.579-3.326.29-3.616.724-7.087 1.303-10.702 1.013-7.087 2.461-14.173 3.185-21.405a270.418 270.418 0 011.737-15.185c.29-1.88.145-3.905.145-5.785 0-.723-.29-1.157-1.014-1.591-3.184-2.169-6.948-2.458-10.567-3.326-3.764-.868-7.673-.289-11.582-.434-1.592 0-1.447 1.591-1.737 2.459-1.158 3.905-2.316 7.665-3.474 11.57-1.159 3.904-2.317 7.954-3.04 12.003-.435 2.459-1.303 4.773-1.738 7.376-.868 4.483-1.592 8.966-2.316 13.45-.579 2.748-.579 5.64-1.737 8.388zm80.779-82.724c-2.461-.145-3.474-1.88-4.343-3.326-2.75-4.339-4.777-9.112-6.659-14.029-1.882-4.483-3.329-9.4-6.225-13.594-1.303 2.17-1.303 4.338-.868 6.797 1.013 6.508 3.619 12.438 5.935 18.512.869 2.169 1.882 4.194 2.751 6.363.723 1.88.868 3.905.723 5.785 0 1.302-.144 2.459.145 3.76.145.434.435 1.012-.289 1.157-.724.145-.724-.434-.869-1.012-.724-2.459-1.448-5.062-1.158-7.665.145-.868.145-1.88-1.013-2.603-.435 2.024-.435 3.76-.145 5.64.579 4.338 1.013 8.822 2.461 13.16 1.013 3.182 3.474 5.351 5.791 7.665 2.895 2.893 6.514 4.773 10.133 6.798.29.144.434.433.724.723-1.882.723-3.185.578-5.646-1.157-4.343-3.037-8.541-6.219-11.436-10.847-1.593-2.748-2.172-5.785-2.751-8.822-.869-4.194-1.013-8.388-.724-12.727 0-.289 0-.867.145-.867 2.171-.723.724-1.88.434-2.893-1.447-4.338-3.474-8.388-4.777-12.727-.869-2.892-1.737-5.784-2.461-8.822-.579-2.603-.145-5.061 1.448-7.23.868-1.157 1.882-1.013 2.895 0 1.592 1.735 2.461 4.049 3.474 6.074 2.027 4.772 3.909 9.545 5.936 14.317.579 1.157 1.303 2.17 2.895 1.446.579-.289 1.303 0 2.027 0 1.737.29 3.185 1.447 5.356.29 2.172-1.157 4.198.289 5.791 2.024 1.158 1.302 2.316 2.459 3.329 3.905.435.579.579 1.302 0 1.736-.723.578-1.302.144-1.592-.434-1.158-1.88-2.316-3.616-4.198-4.917-.579-.434-1.303-.724-1.882-1.013-.724-.289-1.593 0-2.027.579-.579.723.434 1.157.724 1.301 1.592 1.447 2.316 3.471 3.474 5.062.29.434.579 1.012 0 1.446-.579.434-1.013-.144-1.303-.434a25.515 25.515 0 01-2.026-3.326c-1.303-2.169-3.33-3.47-5.646-4.483-.869-.434-2.027-.434-2.606.29-.434.722.434 1.445.724 2.024.724 2.314 2.461 3.905 3.329 6.074zm53.854-40.495c5.501.29 9.844 2.604 13.608 6.653.289.29.579.724.144 1.013-.289.289-.723 0-1.013-.145-2.461-1.157-4.198-3.182-6.804-4.194-2.895-1.157-5.791-2.748-9.12-.868-1.593.868-1.882 2.314-.869 3.905 1.737 2.748 4.633 4.194 7.383 5.785 1.882 1.012 3.764 2.025 6.08 1.59.724-.144 1.448-.288 1.738-1.012.289-.867-.145-1.301-.724-1.88-.869-1.012-2.461-1.301-3.04-2.747-.145-.29-.579-.724 0-1.013.289-.144.724-.144 1.013-.144 1.737 1.157 3.619 1.88 4.633 4.049.723 1.59.289 2.892-.579 3.616-1.014.867-1.014 1.735-.869 2.747.289 2.17-1.013 3.471-2.751 4.194-.723.29-1.158.579-1.303 1.447-.144 2.024-1.447 3.181-3.184 3.904-.579.29-1.014.434-1.014 1.013 0 2.17-1.882 3.326-3.764 3.326-3.329 0-6.659-.434-9.699-1.735-2.461-1.013-3.185-3.471-1.592-5.496.579-.868.434-1.302-.145-1.88-2.172-2.025-1.737-5.785 1.013-6.797 1.013-.29.724-.868.579-1.591-.289-.868-.724-1.88-.579-2.893.145-2.024 1.448-3.181 3.33-3.615.724-.145 1.447-.29 1.158-1.446-.724-3.905 1.013-5.93 4.922-5.93a6.658 6.658 0 001.448.145zm4.922 20.103c.434 0 1.013.145 1.447 0 1.158-.289 2.317-.434 2.461-1.88.145-1.446-.144-2.748-2.026-3.037-1.159-.144-2.317-.434-3.33-1.012-2.895-1.447-5.501-3.182-7.817-5.351-.29-.29-.579-.434-.869-.29-1.448.434-2.895.579-3.619 2.17-.579 1.59 0 2.892 1.013 4.05 3.619 3.326 7.962 4.772 12.74 5.35zM215 92.27c1.448-.145 2.751-.145 3.909-1.157.724-.723 1.013-1.59.869-2.459-.145-.723-1.158-.144-1.738-.289-3.908-.868-7.527-2.17-10.712-4.772-.724-.579-1.303-.868-2.172-.145-2.316 1.88-2.316 3.905.29 5.64 3.04 1.88 6.225 2.748 9.554 3.182zm-2.461 4.05h1.303c1.158 0 2.461.144 2.461-1.447 0-1.59-1.303-1.446-2.316-1.302-2.606.145-5.067-.723-7.094-1.88-1.447-.867-1.881-.289-2.605.724-.724 1.301.434 2.024 1.158 2.313 2.461.724 4.777 2.025 7.093 1.591zm21.715 42.951c-1.882-.289-3.908 0-5.646-1.157-1.447-.868-1.302-2.024-.434-3.181 1.013-1.302 2.172-2.459 3.764-2.893.869-.289 1.013-.578.724-1.446-1.014-3.182-1.448-6.508-2.316-9.834-.435-1.447-1.159-2.604-1.738-4.05-.144-.434-.434-.868.145-1.157.434-.144.724.145 1.014.434.723 1.012 1.447 2.169 1.882 3.471 1.158 4.483 2.316 9.111 2.895 13.739.145 1.157.868 2.169 1.158 3.182.289.868.724.578 1.303.578 5.646-.144 10.568-2.314 15.49-4.772.724-.434 1.013-1.157 1.882-1.447.434-.144.289-.578 0-1.012-4.054-5.64-7.239-11.859-10.134-18.222l-.434-.868c-.145-.578-.29-1.157.289-1.446.579-.289.869.289 1.159.578 1.158 1.302 1.447 3.037 2.026 4.484 1.593 3.76 3.619 7.231 5.501 10.846.435.723.579.723 1.303.579 1.593-.29 3.185-.434 4.778-.145 1.013.145 2.026.145 2.316 1.446.434 1.157-.145 2.17-1.014 3.037-2.316 2.314-5.211 3.471-8.106 4.773-2.896 1.302-6.081 2.314-9.121 3.182-2.75.867-5.79.867-8.686 1.301z" fill="#3A2D52"/><path d="M182.428 138.114c-.724-4.917-.29-9.834.579-14.462 1.013-5.062.145-9.545-1.737-14.173-2.751-6.653-4.633-13.45-5.791-20.536-.579-3.327-1.303-6.798-2.461-9.98-.434-1.446-.434-3.036-1.882-4.193-.724 1.012-.868 2.169-.868 3.326 0 3.037.723 6.074 1.013 9.111.289 4.05 2.171 7.954 1.303 12.582-1.303-2.17-1.882-4.194-2.027-6.219-.289-3.037-1.013-5.929-1.448-8.821-.434-3.182-.144-6.364-.289-9.545 0-1.447 1.013-2.46 2.461-2.46 1.882-.144 2.75 1.592 3.04 2.893 1.448 5.496 2.895 10.992 3.909 16.632 1.013 5.93 3.04 11.425 5.067 17.065a27.533 27.533 0 011.592 13.306c-.434 4.772-1.448 9.545-1.737 14.462-.145.144-.145.578-.724 1.012zM50.112 157.638c1.013-.145 2.171-1.735 2.605-.434.435 1.013-1.158 1.302-2.171 1.736-6.804 3.037-14.042 4.049-21.425 3.904-2.027 0-3.764-.433-5.646-1.301.29-.434.723-.723 1.013-.579 2.171.724 2.171-.433 2.171-2.024-.29-5.93.724-11.859 1.159-17.789.144-2.892-.145-5.785-.435-8.822 1.158.434 1.448 1.157 1.593 2.17.724 4.049.29 7.954.145 12.003-.29 4.628-.58 9.111-1.014 13.739-.145 1.157.29 1.302 1.303 1.302 6.37.434 12.16-1.591 17.806-4.05.724-.289.724-1.012.724-1.735-.145-4.339-1.448-8.677-2.027-12.871-.579-3.471-1.013-7.087-1.737-10.558-.145-.723-.29-1.446.724-1.591.869-.144.869.723 1.013 1.157 1.159 3.037 1.014 6.364 1.593 9.545 1.158 5.496 1.882 10.847 2.606 16.198zm190.222-50.328c2.606-3.761 2.896-7.52 2.461-11.426-.289-3.181-.434-6.363-1.447-9.4-.869-2.748-.579-5.64.145-8.243 1.158-5.062 2.75-9.98 5.211-14.463.724-1.157 1.303-2.458 2.027-3.615.434-.579.579-1.302 0-1.88-.434-.579-1.158-.724-1.882-.434-3.33 1.012-5.646 3.181-7.238 6.363-1.738 3.76-2.606 8.099-5.212 11.425-1.013 1.302-2.027 2.603-4.053 2.893 1.447-2.17 2.895-4.194 4.053-6.074 1.882-2.893 2.316-6.364 3.909-9.4 1.592-2.893 5.646-6.798 8.83-6.509 3.041.145 4.199 1.88 2.751 4.628-1.592 2.892-3.185 5.785-4.343 8.822-1.882 5.496-3.764 11.136-2.316 17.21.868 4.194 1.882 8.388 1.447 12.871-.289 2.314-.723 4.339-2.171 6.219-.434.434-1.013.579-2.172 1.013zm22.15 78.24c-2.606 1.013-4.922.579-7.239-.144-7.383-2.314-12.16-7.231-15.634-14.029-1.882-3.76-4.199-7.375-6.081-11.136-2.026-4.049-4.343-7.954-4.922-12.726-.144-.723 0-1.302.145-1.88.29-1.302.724-2.748-.869-3.761-.868-.578-1.158-1.59-.723-2.892.868 1.157 1.737 2.025 2.895 2.603.724.434.869 1.446.869 2.314.144 3.76 1.447 7.231 2.895 10.847 1.882 5.062 4.777 9.545 7.238 14.173 2.172 4.194 4.778 8.243 8.252 11.28 3.04 2.603 6.804 4.339 11.147 4.628.434 0 .869.145 1.303.145.145.289.289.434.724.578zM94.555 72.022c-2.317-3.76-2.75-7.81-3.185-11.86-.434-5.061-1.303-10.123-1.014-15.33 0-1.012.145-2.024.435-2.892.29-1.301.579-2.747 2.316-2.892 1.737-.145 2.606 1.012 3.33 2.314 2.171 3.326 2.75 7.231 3.33 11.136.868 5.785 2.46 11.425 2.605 17.354-1.448-.433-1.737-1.446-2.027-2.458-1.158-5.496-1.737-10.991-2.895-16.342-.579-2.748-1.592-5.352-2.461-7.955-.29-.723-.724-1.88-1.737-1.59-.869.144-.869 1.157-.869 2.024 0 6.797-.29 13.595 1.448 20.247.579 2.17.724 4.484 1.158 6.653.145.434 0 .868-.434 1.59zm9.989-.579c-.724-4.917.144-9.255 1.158-13.739 1.158-5.206 2.461-10.268 4.487-15.04.869-2.17 1.882-4.628 4.343-5.64 2.317-1.013 4.488.144 4.199 2.602-.435 2.893-.435 5.785-1.158 8.678a129.27 129.27 0 00-3.475 20.97c0 .723 0 1.446-1.013 1.446-1.014 0-.579-.867-.579-1.446-.145-4.05.434-7.954 1.303-11.859 1.303-5.496 2.605-10.847 3.185-16.487.144-.868.579-2.17-.724-2.603-1.158-.29-1.738.578-2.461 1.446-2.896 3.76-3.764 8.244-5.212 12.582-1.158 3.616-1.737 7.52-2.316 11.28-.434 2.46-.579 5.062-1.737 7.81zm158.084 57.849c2.027 0 2.606 1.012 2.751 2.314.579 4.628 2.751 8.533 4.633 12.727 1.737 4.049 3.619 8.243 4.777 12.437 1.013 3.905 2.606 7.231 6.225 9.545 2.461 1.591 5.067 3.037 8.107 3.182.724 0 1.592 0 1.592 1.012 0 1.157-1.013 1.013-1.592 1.013-2.606.144-5.067-.723-7.239-2.17-1.303-.867-3.04-1.88-4.053-1.88-3.33.29-2.606-2.603-2.895-3.76-1.014-3.615-2.317-7.231-3.475-10.702-2.027-5.785-4.488-11.57-6.659-17.354-.434-1.302-.579-2.748-.724-4.05-.289-.868-.434-1.591-1.448-2.314zM126.982 96.029c-.289 1.302-.434 2.748-1.013 3.905-2.316 4.772-4.488 9.545-7.962 13.45-1.882 2.169-3.764 4.194-5.646 6.218-.289.29-.724.724-1.158.434-.579-.434-.145-1.012.145-1.301a79.614 79.614 0 014.487-5.351c2.751-2.748 4.488-6.364 6.225-9.69 1.448-2.603 2.172-5.64 3.33-8.388.145-.579.579-1.012 1.158-.868.579.579.29 1.157.434 1.591zm104.811 16.198c-.724 1.012-1.592 1.012-2.316.867-7.383-1.59-13.174-5.495-17.662-11.569l-.434-.868c-.145-.434-.145-1.012.145-1.302.579-.289.868.145 1.158.434 1.592 1.736 3.185 3.76 4.922 5.351 3.474 3.327 7.673 5.496 12.45 6.364.579.289 1.013.434 1.737.723zm5.357 32.395c.868-.723 1.592-.723 2.461-.868 5.935-1.157 11.726-2.748 16.937-5.785 0 0 .145 0 .145-.144.869-.145 1.882-1.157 2.316-.289.435.867-.868 1.157-1.447 1.735-4.633 3.037-9.844 4.483-15.201 5.351-1.592.145-3.185 1.012-5.211 0zm-61.816 16.198c0-1.447 0-1.447 1.738-2.025.434-.145.434-.434.434-.868 0-1.446 1.013-1.301 1.737-.867 1.737.867 1.737 2.603 1.448 4.194-.435 1.446-1.593 2.314-3.185 2.314-1.882 0-2.316-1.302-2.172-2.748zm-6.225-2.025c.579-.578-.289-1.735 1.014-1.88 1.158-.144 2.027.434 2.316 1.157.434 1.012.579 2.459-.289 3.326-.869.868-2.027 1.447-3.185.579-1.303-.868-1.593-2.169-1.303-3.616 0-.144.289-.434.579-.578.724-.145.145 1.012.868 1.012zm25.19-10.413c.289 1.013-.29 1.88-1.303 2.314-.869.434-2.172.579-3.04-.144-.579-.579-2.027-1.302-.145-2.025.434-.145.434-.579.434-.868-.289-1.591.29-2.169 1.882-2.025 1.593.29 2.317 1.013 2.172 2.748zM102.227 0c.29 2.314-1.158 3.47-2.026 4.917-.869 1.302-1.882 2.459-2.461 4.05-.145.433-.724 1.156-1.303 1.012-.724-.29-.435-1.012-.29-1.59 1.013-3.616 3.04-6.075 6.08-8.389zm63.987 157.204c.29 1.736-.724 2.893-2.171 3.037-1.303.145-1.882-1.012-1.882-2.458.144-1.736 1.158-3.327 2.316-3.182 1.592.145 2.027 1.157 1.737 2.603zM35.056 22.127c2.606 1.591 3.619 4.05 5.067 6.364.144.289.29.578.29.867.144.868 1.592 1.736.433 2.314-.723.434-1.302-1.012-1.881-1.735-1.448-1.88-2.606-3.905-3.91-5.93-.144-.434-.289-1.012 0-1.88zm243.642 58.861c0 .868-.435 1.447-1.303 1.88-.869.434-1.593.145-2.172-.289-.579-.578-1.158-1.301 0-1.88v-.29c-.145 0-.289 0-.434-.144-.579-.723-.434-1.446.289-2.025.579-.578 1.303-.433 1.882.145 1.014.723 1.738 1.446 1.738 2.603zm-109.01 73.179c.145.434 0 .723-.434.868-.434.145-.724 0-1.013-.434-.435-.868-.724-1.88-.724-2.892 0-2.025-.29-3.905-1.013-5.785-.145-.434-.435-1.013.144-1.302.579-.289 1.014.145 1.303.579.29.578.724 1.157.869 1.735-.145 2.603-.145 5.062.868 7.231zM184.31 47.291c-.579 2.604-1.737 5.062-3.764 7.087-.145.145-.434.434-.724.145-.289-.145-.434-.434-.289-.868 1.013-2.314 1.882-4.483 3.04-6.797.144-.434.579-1.157 1.303-.868.579.145.434.723.434 1.301zM55.323 35.866c-.145.723-.29 1.446-1.303 1.591-1.013.145-1.882-.145-2.606-1.012-.723-.868-.723-2.025-.29-2.748.58-1.157.87.29 1.304.434.145 0 .29-.145.579-.145 1.592-.434 2.46.145 2.316 1.88zM171.57 20.247c-.144.868.29 1.59-.434 1.88-1.013.29-.868-.868-1.158-1.301-1.013-2.025-1.013-4.34-2.171-6.364-.145-.29-.29-.723.144-1.012.435-.145.724.145 1.014.434 1.592 1.88 1.882 4.338 2.605 6.363zM18.842 65.659c-.145 1.156-1.013 1.88-2.316 1.88s-2.027-1.013-2.027-2.025c0-1.302 1.013-2.17 2.316-2.17 1.158 0 2.027.724 2.027 2.315zm212.227-25.743c-.579-1.447.435-1.88 1.593-1.88s2.027.578 1.882 2.169c-.145 1.446-.724 2.459-2.027 2.314-1.448 0-1.737-1.302-1.448-2.603zM92.673 92.269c-.869 0-.58-.723-.434-1.013 1.881-2.458 2.75-5.35 4.053-8.098.145-.434.579-.579 1.013-.434.435.144.435.578.29.867-1.158 3.038-2.316 6.075-4.633 8.533 0 0-.145.145-.29.145zm60.367-73.323c0 1.446-.868 2.169-2.026 2.169s-1.882-.868-1.882-1.88c-.145-1.591 1.303-1.591 2.316-1.88 1.303-.29 1.158 1.012 1.592 1.59zm42.851 13.16c1.448.145 2.461.29 2.461 1.59 0 1.303-1.013 2.026-2.026 2.026-1.014 0-1.882-.724-1.882-1.88-.145-1.157.723-1.736 1.447-1.736zm-37.35 31.384c.435-1.303 1.738-1.736 2.751-2.17.724-.29 1.737.289 1.592 1.446 0 1.446-1.013 2.025-2.171 2.17-.869 0-1.592-.58-2.172-1.447zm98.007-47.582c0 1.013-3.185 5.207-4.053 5.351-.724.145-1.158-.289-.724-.867 1.013-1.88 2.316-3.471 3.909-4.773.724-.434.868-.144.868.29zM67.05 154.89c-1.159.145-1.593-1.012-1.448-1.446.579-.868 0-2.603 1.737-2.603 1.303 0 1.592 1.157 1.447 2.025 0 .867-.29 2.169-1.737 2.024zm69.053 15.041c0 1.012-.869 1.736-1.448 1.446-.869-.289-2.171-.578-2.171-2.024 0-1.013.868-1.591 1.737-1.591 1.158.144 1.737 1.157 1.882 2.169zM72.116 71.01c-.145 1.012-.58 1.735-1.448 1.88a1.24 1.24 0 01-1.447-1.447c.144-.723-.145-2.024 1.302-2.024 1.014 0 1.303.723 1.593 1.59zm28.085 73.757c-.145.867-1.014 1.012-1.738 1.591-.29-.724-1.592-.579-1.447-1.591.144-.868.579-1.591 1.447-1.736 1.159-.144 1.448.723 1.738 1.736zm7.528 23.862c-.145.724-.724 1.302-1.448 1.302s-1.593-.145-1.593-1.157.579-1.591 1.303-1.446c.724 0 1.593.434 1.738 1.301zM91.37 156.626c.724.289 1.592.578 1.737 1.446 0 .868-1.013 1.012-1.592 1.591-.435-.579-1.448-.723-1.593-1.736 0-1.157 1.014-.867 1.448-1.301zm7.093-19.958c2.606-.145 5.067-.434 7.673.578-1.448.723-2.751.434-3.909 0s-2.46-.289-3.764-.578zm39.232-72.456c0 .868-.434 1.157-1.158 1.157-.869 0-1.158-.434-1.303-1.157 0-.723.434-1.157 1.013-1.157 1.014 0 1.303.723 1.448 1.157zm83.096-58.861c.724-.144 1.303.29 1.448 1.013.144.723-.435 1.157-1.014 1.157-.868 0-1.447-.434-1.447-1.302-.145-.723.434-.868 1.013-.868zM29.265 40.205c0 .723-.29 1.012-.868 1.157-.724.145-1.303-.29-1.303-1.157-.145-.723.144-1.157.868-1.302.724 0 1.014.724 1.303 1.302zm78.174 102.248c.579.144 1.158.434 1.303 1.012.145.868-.579 1.302-1.013 1.446-.58.145-1.303-.578-1.303-1.157-.29-.578.434-.867 1.013-1.301zm-44.443-78.53c0 .723 0 1.302-.724 1.446-.724 0-1.303-.434-1.303-1.157 0-.578.29-1.012 1.013-1.012.58-.145.869.29 1.014.723zm28.229 109.913c0 .868-.434 1.157-1.158 1.301-.724 0-1.158-.289-1.303-1.012 0-.723.58-1.301 1.158-1.301.724-.145 1.303.433 1.303 1.012zM219.633 47.147c0 .434 0 1.157-.724 1.012-.724 0-1.303-.434-1.303-1.301 0-.723.435-1.157 1.158-1.157.869 0 .869.723.869 1.446zM108.742 22.706c-.145.578-.29 1.301-1.013 1.157-.724 0-1.159-.723-1.159-1.447 0-.578.29-1.012 1.014-1.157 1.013.145.724 1.157 1.158 1.447zm40.534 13.45c.869 0 1.159.433 1.303 1.157 0 .578-.289 1.012-1.013 1.012-.579 0-1.158-.434-1.013-1.157 0-.434-.145-1.012.723-1.012zM1.18 110.057c-.723-.144-1.302-.433-1.158-1.157 0-.578.435-1.012 1.014-.867.579.144 1.158.578 1.158 1.157 0 .578-.58.723-1.014.867zM184.744 34.13c0 .58-.289.869-.868.724-.579-.145-1.303-.29-1.159-1.012.145-.724.58-.868 1.303-.868.724 0 .724.578.724 1.157zm78.174-2.458c.724 0 1.013.434 1.013 1.013 0 .578-.144 1.012-.868 1.012-.434-.145-1.158-.145-1.158-.868-.145-.723.434-1.012 1.013-1.157z" fill="#3A2D52"/></svg>