<svg version="1.1" id="Layer_1" xmlns="http://www.w3.org/2000/svg" x="0" y="0" viewBox="0 0 231.6 152.9" xml:space="preserve"><style>.st0{fill:#16013e}</style><path class="st0" d="M229.4 84.6c1.7-5.4-2-12.9-7.1-15.5-4.1-2.1-8.1-2.7-12.5-1.2-.8.3-1.7.1-2.4.7-.2.2-.5.1-.7-.2-.1-.3 0-.6.2-.7.7-.5 1.4-1.2 2.2-1.5 5.3-1.6 10.5-1.1 15.1 2.1 3.2 2.2 5.7 5.2 6.8 9 .7 2.3.7 4.8.4 7.3-.4 4-1.9 7.7-4.1 11-1.2 1.8-2.6 3.3-4.2 4.7-1.6 1.4-3.3 2.8-5.3 3.6-.6.2-.6.6-.6 1.1.4 4-4.1 7.9-8.3 7.4h-.5c-.6-.3-1.9-.3-1.7-1.3.1-.9 1.2-.4 1.8-.3 3.8.2 6.6-2.2 6.9-4.8.1-.9 0-1.8-.3-2.7-.5-1.8-2.6-2.1-4-.8-.9.8-1.9 1.6-2.9 2.3-1.3.9-2.4.3-2.6-1.3-.2-2.7.7-5 2.3-7 .4-.6.7-.9 0-1.5-2.8-2.6-3.9-6.3-5.5-9.6-1.2-2.4-2-5.1-4.2-6.9-.4-.4-1-.6-1.4-1-.3-.2-.9-.2-.3-1 .4-.5-.5-.7-.9-.8-1.4-.3-2.3.8-3.5 1.2.4.8 1-.2 1.4.4-3.2 3.1-6.9 5.6-11.2 7.7 1.7.3 3.1 0 4.4.9 1.5 1.1 1.8 2.6 1.7 4-.2 2.9-1.3 5.6-3.3 7.9-1.8 2.1-3.7 4.1-6.1 5.4-.3.2-.7.4-.6.8.1.4.5.3.8.4 1.4.5 2.7.3 4.1-.2.8-.3 2.1-.5 2.3 0 .3 1-1 1.1-1.7 1.4-2.6 1.1-5.1.7-7.4-.5-1-.5-.7-1.9.4-2.6 1.8-1.1 3.5-2.3 5-3.7 2.5-2.3 4.5-5 5-8.6.4-2.9-1.5-4.6-4.3-3.9-1.4.3-2.8.9-4.3 1-.2-.5.6-.7.3-1.2-.2 0-.4-.1-.6 0-7.4 2.3-14.1-1.6-17.1-7.9-1.8-3.8-1.7-8.7 1.7-11.8.8-.7 1.7-1.2 2.6-1.4 1.3-.3 1.5-1 1.5-2.1 0-3.9 3.1-7.8 6.9-8.7 4.4-1.1 8.4-.2 11.8 3 .3.3.8.6 1.4 1 0-1.7.3-3.2 1.3-4.5 1.5-2.1 4.5-3.4 7.1-3.1 5.3.7 8.7 5 9.9 9.5.4 1.7 1.1 3.3.9 5.1 0 .4 0 .9-.4.9-.5.1-.5-.4-.6-.7-1-2.1-1.2-4.4-2.1-6.6-1.3-3-5.4-7-9.1-6.5-2.9.4-5.1 1.8-5.2 5.2 1.3-1.6 2.5-3.2 4.6-3.5 3.9-.5 7.1.5 8.7 4.6 1.1 2.6 2 5.2 2.2 8 .1 2 1.7 2.9 3.8 2.5 2.5-.6 4.9-1.2 7.5-1.2 4.7 0 8.2 2.1 10.7 5.9 1.8 2.8 3.2 5.7 3.2 9.1-.3.5-.1 1 .1 1.7zm-61-20.9c3.6-7.8 9.5-7.3 16.3-4.4-4.6-4.8-8.4-4.5-12.1-2.6-2.9 1.6-4.9 3.8-4.2 7zm-.7 3c-3-.2-4.7.9-6.1 3.8-.9 2-.6 5.5 1.4 7.8-.2-6.6 1.2-10.2 4.7-11.6zM61.8 77.8c.5.3.9.5 1.3.7.8.4.9.9.6 1.7-.4 1-1.1.7-1.7.4-1.5-.8-3.1-.7-4.8-.6-2.1.1-4.1.8-6.2.8-.6 0-1.4-.1-1.2 1.1.1.7-.5 1.2-1.4 1.1-3.2-.2-6.2.5-8.8 2.3-.8.5-1.6.4-2.1-.3-.7-.9.3-1.4.8-1.7.9-.6 1.8-1.2 2.8-1.7-1.5-.2-3.1-.4-4.6-.6-1.9-.2-3.8-.3-5.6-1.1-.3-.1-.8-.2-1 .2-.2.3.1.6.3.8 2.4 3.1 4.1 6.7 4.9 10.5.7 3.3.6 6.9-1.5 9.9-.2.2-.3.4-.4.7-.1.6-.3 1.1-.9 1.1-.8.1-1-.6-1.2-1.1-.7-1.3-1.5-2.4-2.8-3.2-1.9-1.1-3-1.1-4.4.3-.9.9-1.1 2.9-.5 4.3 1 2.2 2.8 3.6 4.8 4.9 1.1.7 3.4.3 4.5-.6.3-.3.6-1.2 1.2-.6.5.5.3 1.2-.1 1.8-1 1.4-3.6 2.2-5.3 1.4-.9-.4-1.9-.6-2.6-1.4-1-1.2-2.6-.8-3.9-1.3-4-1.3-6.8-4.1-8.8-7.6C10 94.8 10 89.2 12 83.6c1.2-3.4 2.8-7.1 6.2-8.2 3.3-1.1 3.7-3.8 5.1-5.9 1.8-2.5 3.7-4.8 6-6.9 3.1-2.8 6.6-5 10.4-6.6 5.9-2.5 12-3.4 18.3-2.3 4.2.8 8 2.6 10.7 6 2 2.5 2.7 5.4 2 8.6-1.4 4.8-4.8 7.4-8.9 9.5zm-18-21.2c8.7-.9 16.9.6 24.1 6.3-1.7-6.7-14.7-10-24.1-6.3zm-28 23c5-1.8 9.1-.6 12.8 2.6-1.9-3-4.3-5.4-7.6-6.6-.4-.1-.8-.4-1.2 0-1.3 1.3-2.9 2.2-4 4zm72.4 42.3c-1.1-.4-1.3-.9-1.3-1.6v-3.2c.1-2.5-.2-4.7-1.9-6.9-2.8-3.6-2.6-7.9-1.7-12.2 1.3-6.1 3.2-12 6-17.5 2.6-5.1 5.4-10.1 9.1-14.6 2.4-3 4.9-5.8 7.9-8.1 3.2-2.5 6.9-3.4 10.9-2.2 1.2.4 2.3 1.3 3 2.5.4.8.9.8 1.5.1 4-4.2 9.7-4.8 14.5-1.1 4.2 3.3 7.2 7.6 10 12.1 2.2 3.6 4.3 7.3 6 11.2 1.7 3.8 3.3 7.7 4.7 11.6.9 2.5 1.8 5 2.5 7.6 1.2 4.1 2.2 8.1 1.9 12.4-.1 1.3-.9 2.1-1.8 2.8-2.9 2.8-6.4 4.6-10.2 6.2-4 1.7-8.1 2.3-12.4 2.1-1.6-.1-3.2-.1-4.1-1.8-1-1.8.1-3.4 1-4.8.5-.8 1.1-1.8 2.5-2-1.1 1.3-.9 2.8-.8 4.1.1 1.3 1.5 2.1 3.2 2.2 2.6.2 4.9-.6 7.3-1.3 3.3-1 6.3-2.8 9.2-4.8 3.8-2.6 4.9-6.2 3.4-10.6-1.6-4.8-3.1-9.7-4.9-14.4-1.5-3.8-3.1-7.6-5-11.2-1.4-2.8-2.9-5.7-4.5-8.4-2.6-4.2-5.4-8.2-9.4-11.1-3.1-2.3-6.3-2.6-9.7-.9-.5.3-1.1.4-1.6.7-1 .7-2.1 2.2-2.9 2-1-.2-1.7-1.8-2.8-2.6-2.1-1.6-5.9-1.8-8.2-.5-5.1 2.8-8.7 7.1-11.9 11.8-2.8 4-5.3 8.3-7.3 12.8-1.9 4.2-3.5 8.5-4.6 13-.6 2.4-1.1 4.8-1.2 7.3-.3 5.2 2.4 8.6 6.9 10.8.2.1.6.2.7.3.3.4 1.3.7 1 1.3-.4.8-1.1.1-1.7 0-.6-.1-1.1-.3-1.6-.5-1.6-.7-1.6-.8-1.7 1.1-.1 2.2-.1 4.2 0 6.3z"/><path class="st0" d="M107.7 83.1c1-.8 2.1-1 3.2-1 2.7 0 5.4.6 7.7 1.9 1.3.7 2 1.9 1.6 3.6-.6 2.8-1.3 5.3-3.4 7.4-2.4 2.5-6.5 2.1-8.5-.4-1.1-1.3-1.4-2.9-2.2-4.6-1.1 1.4-2.1 2.8-3.1 4.1-1 1.3-2 2.5-2.9 3.8-.2.3-.6.6-.3 1 .2.4.6.4 1 .4 1.4 0 2.8-.1 4.1 0 .4 0 1-.1 1.1.4.1.5-.4.7-.8.9-.4.3-.8.2-1.2.2-1.3 0-2.7.1-4 0-1.2-.1-1.6.5-1.3 1.5 1.4 4.4 3.2 8.5 7.2 11.3 2.8 2 6 3.1 9.5 2.9 2.1-.2 4.1-.8 6.3-1.2-1.1 1.7-2.8 2.2-4.4 2.4-4.3.5-8.4-.1-12.1-2.6-2.9-2-5.2-4.6-6.5-8-1.3-3.2-2.3-6.3-2.2-9.8 0-.4 0-.8.1-1.1.1-.4.5-.6.8-.7.5-.1.5.4.6.7.2.4-.2.9.3 1.4.7-.9 1.3-1.8 2.1-3-1.9.4-3.6.4-5.2-.6-3-1.9-3.3-4.8-3-7.9.1-.9-.1-1.9.6-2.7.3-.3.6-.7 1.1-.5.6.2.3.7.2 1.1-.4 2-.8 3.9.2 5.9 1.2 2.4 3.9 3.4 6.6 2.8.9-.2 1.2-1 1.7-1.6.5-.5-.3-.6-.6-.6-.7-.1-.9-.5-.9-1.1 0-.6-.1-1.3.6-1.7.2-.2.7.4.7-.2 0-.4-.3-.6-.7-.5-.7.2-1.2.3-1.2-.7 0-.8.5-1 1.3-1 1.4 0 1.8.2 2.4 1.9.1-.9.7-1.4 1.4-1.2.8.2 1.5-.8 1.6-.7.8 1.5 2.3.1 3.4.9s1.3 1.7.9 2.7c-.4 1.1-.9 2.5-2.6 2 .5 2.1 1.9 3.7 3.8 3.6 1.8-.1 3.3-.9 4.3-2.8.7-1.4 1.1-2.8 1.6-4.2.4-1.2-.4-1.7-1.1-2.1-1.8-1-3.8-1.5-5.9-1.7-1.5-.2-2.6-.4-3.9-.6z"/><path class="st0" d="M116.4 74.8c-1.2-.9-1.9-2.2-2.7-3.3-1.8 2-4.2 3.3-6.7 4.1-.4.1-.8.2-.9.6-.2 1.7-1.4 1.1-2.2.8-1.1-.3-2-.5-3 0-1.1.6-1.6-.4-2.3-.9-.5-.3.1-.7.4-.7.9-.2 1.9-.4 2.8-.4 3.6-.2 6.9-1.5 9.6-3.9.7-.7 1.2-1.6 1.9-2.3.4-.5 1-.8 1.3 0 1.2 3.3 3.9 5 6.7 6.7 1.4.9 3.1 1.5 4.7 2.1 2.4.9 2.4 3.1 2.7 5.1.2 1.6.1 3.1-.4 4.7 1.1-.1 1.4-.9 2-1.3 3.5-1.8 6.8.3 7.3 4.3.3 2.7-.8 4.8-3.1 6.2-.5.3-.6.3-.3.9 1.3 1.9.9 4.1-.5 5.8-.9 1-1.9.7-2.8.6-.9-.2-.9-1.2-1-2v-1.1c.2-.8.7-1.7.5-2.4-.2-.9-1.6 0-2.1-1.2 1.4-.5 2.9-.9 4.3-1.5 3-1.3 4-4.3 2.3-6.7-1.2-1.8-3.3-1.8-4.6 0-.1.1-.1.2-.1.3-.6.6-.7 1.9-1.9 1.5-1.2-.5-.1-1.5-.3-2.6-1.5 2.6-4.5 4.1-3.8 7.5.4 1.7 1.6 2.9 2.5 4.3.8 1.1 1 3.4.3 4.7-1.2 2-2.2 2.7-4.1 2.5 1-1.1 2.2-1.9 2.6-3.4.2-.8.4-1.4-.1-2.1-.9-1.4-1.9-2.7-2.5-4.2-1.5-3.3-.7-6.3 1.6-8.9 1.8-2.2 2-4.5 1.1-7.1-.3-.9-1-1.4-1.8-1.6-1.1-.2-1.8-.9-2.6-1.4-.9-.5-1.5-1.7-2.8-.8-.1 0-.2 0-.3-.1-1.7-.9-3.4-.9-5.2-.1-.3.1-1.1.3-1.1-.4s.5-1.3 1.1-1.4c1.2-.2 2.3-.9 3.5-.9zm2.3-45.7c-2.1.7-4.1.8-6.1.8-9.4.2-18.7-.2-28.1-.1-7.7 0-15.3-.3-23-.1-1.8.1-3.6.3-5.5.3-1.1 0-1.4.5-1.4 1.4 0 1.3-.1 2.7-.2 4 0 .5-.1 1.2-.8 1.2-.7 0-.6-.8-.6-1.3v-5c0-1.2.6-1.7 1.7-1.9 1.8-.5 3.7-.6 5.5-.6 10.1.1 20.2 0 30.3.5 8.7.4 17.4.2 26.1.5.6 0 1.2-.2 2.1.3zM53.3 41.7c-1.2-1.2-2.1-2.2-2.8-3.5-.4-.7-.2-.9.5-.9.2 0 .5-.1.6 0 1.6.9 3 .3 4.5-.7.5 2.1-1 3.3-1.7 5.2h2.5c2.9 0 5.7 0 8.6.3 2.3.2 2.6.4 2.9 2.7.3 2.4.3 4.9.2 7.3 0 .4-.1.8-.3 1.2-.1.3-.2.8-.7.8-.6 0-.5-.6-.5-1-.2-2.7-.3-5.4-.4-8.1 0-1-.2-1.4-1.3-1.4-9.1-.1-18.3-.2-27.4-.4-1.5 0-2.1.4-2 2 .2 3-.4 6 .3 9 .1.4-.2.5-.4.5-.5.1-.8-.2-.8-.7-.1-2.4-.2-4.8-.2-7.2 0-1.1.3-2.1.2-3.2-.1-1.3.5-1.6 1.7-1.6 5.3 0 10.5-.2 15.8-.3.1.1.3.1.7 0zm120.4 93.8c-.9.5-1.6.4-2.4.4h-16.4c-1.4 0-1.9.5-1.9 1.8v7.2c0 .9.4 1.2 1.4 1.3 7.1.5 14.1.2 21.2.3 1.3 0 1.9-.4 1.7-1.8-.3-1.8-.1-3.6 0-5.4 0-.7.2-1.3.8-1.3.8 0 .5.8.5 1.3.3 2.3-.1 4.7-.2 7 0 .7-.4 1.1-1.1 1.2-1.7.4-3.4.3-5.1.2-6.2-.1-12.3-.3-18.5-.4-1.5 0-2.1-.6-2-2.1.1-2.9.1-5.9 0-8.8 0-1.1.4-1.5 1.3-1.8.9-.2 1.8-.5 2.6-.6 5.8-.3 11.6 0 17.3.9.2.2.4.4.8.6zm-69.5 1.4c-1.3-3.1-1.1-6.1-1-8.9 0-1.3-.4-1.7-1.7-1.7-8-.1-16-.2-24.1-.4-2.1 0-2.1 0-2.1 2v6.9c0 .5.2 1.2-.6 1.3-.8.1-.6-.7-.7-1.1-.2-2.8-.5-5.5-.6-8.3-.1-2.2.2-2.5 2.4-2.5 8.9-.1 17.8.2 26.8.4 1.4 0 2.1.5 2 2 0 3.3.3 6.6-.4 10.3zm8 2.1c-1 1-2.2.9-3.5.9-2.7 0-5.3 0-8-.1-1.5 0-2.2.3-2.2 2.1.1 2.5 0 5.1 0 7.6 0 1.1.4 1.6 1.6 1.7 4.6.4 9.2-.1 13.8-.4.8-.1.9-.5.9-1.2 0-1.8 0-3.6-.1-5.4v-2.1c0-.6.2-1.4.8-1.4.7 0 .5.8.6 1.2.4 2.9.2 5.8.2 8.8 0 .9-.6 1.5-1.5 1.6-5.2.5-10.5 1-15.7.4-1-.1-1.5-.5-1.6-1.5-.5-3.4-.7-6.9-.4-10.3.1-2 .8-2.5 2.8-2.5H110c.8-.1 1.5 0 2.2.6zm62.7-49.1c.4 2.8-.1 5.6-.3 8.3-.5 5.7-.3 11.3 1.5 16.6 1.3 3.9 3.7 7.4 7.7 9.2 3 1.3 6 .8 8.9-.1.8-.2 1.8-1.1 2.2-.3.3.6-.9 1.4-1.7 1.7-5.9 2.4-11.1.9-15.2-3.9-3.9-4.5-5.2-9.8-5.3-15.6v-8.9c0-2.1.5-4.2 1.2-6.2.2-.4.4-.6 1-.8zm-109 15.9c.8 1.8.2 3.5 0 5.2-.5 3.8-1.9 7.3-4.3 10.3-2.9 3.6-6.5 5.4-11.3 4.5-3.8-.8-7.2-2.4-10.3-4.8-.7-.5-.7-.5-1.3-1.7 1.6.2 2.9 1.1 4.1 1.9 2.4 1.5 5 2.6 7.8 3 4 .5 7.1-.8 9.6-4.1 2.7-3.7 3.7-7.9 4.4-12.3.3-.6.5-1.4 1.3-2zm-9.1-4.9c1.9-.2 2.9 1.3 4.3 1.7 1.3.4 2.6.6 3.9.5 1.1-.1 1.4-.8 1.1-1.8-.3-1.2-1.1-2-1.9-2.8-2-2.1-4.1-4.1-6.2-6.1-.5-.5-.9-1.2-1.2-1.9-.2-.4-.5-.9 0-1.3.5-.3.9.1 1.2.4 1.3 1.6 2.7 3.1 4.4 4.3.5.3.9.7 1.4.4.6-.3.5-1.1.3-1.6-.5-1.3-1.1-2.5-2.1-3.5-.5-.6-.8-1.3 0-1.8.7-.5 1.1.2 1.5.7 1.4 1.8 2.9 3.7 2.3 6.2-.1.2 0 .5-.1.6-1.7 1.2-.1 1.8.4 2.6.7 1.2 1.9 2 1.9 3.6 0 1.9-.9 3.2-2.8 3.3-3 .2-5.7-.9-8-2.7-.2.1-.2-.3-.4-.8zm60.1-83.1c-3.1 0-6.2.3-9.3-.5-.9-.2-1.2-.6-1.3-1.4L106 4.6c0-.5-.2-1.1.4-1.2.6-.1.6.6.8 1 1 2.7 1 5.5 1 8.3 0 3.2 0 3.1 3.2 3.3 4.9.4 9.8-.1 14.8-.1h1.8c.5 0 1 .1 1 .7s-.5.7-1 .8c-2 .1-3.9.2-5.9.3-1.8.1-3.5.1-5.2.1zm-5.5 27.3c-.1-2.1-.4-4.5-.3-6.8 0-.3-.1-.7.3-.8.5-.2.6.3.7.7.2 1.5.5 3 .5 4.5.1 1.3.2 2.5.3 3.8.1.7.4 1.1 1.1 1.1 7.8-.4 15.6.8 23.4.3 1.3-.1 2.9.5 3.4-1.6.2-.6.8-.1 1 .3.4.9-.4 2.3-1.4 2.5-.2.1-.5 0-.8 0h-26.4c-1.3 0-1.8-.6-1.8-1.8v-2.2zm-26.2 96.6c.4 3.4.6 6.5.6 9.6 0 .9-.8 1.2-1.6 1.2-6 .5-12 .4-18 .3-.9 0-1.5-.3-1.5-1.4 0-3.4 0-6.9.1-10.4 0-.4 0-1 .6-.9.6 0 .4.7.5 1 .1 2.8.2 5.5.1 8.3 0 1.4.4 1.7 1.8 1.9 5.2.6 10.3-.1 15.4-.1 1.1 0 1.5-.4 1.4-1.5-.1-1.7-.1-3.4-.1-5.1.1-.8.1-1.7.7-2.9zm6.1-71.6c-.8.9-1.8 1.1-2.8 1.1-2.9 0-5.8.1-8.6 0-1.4-.1-2.1.2-2.2 1.8-.3 3-.1 5.9-.2 8.9 0 .7.3.9 1 .8 1.1-.1 2.2-.1 3.3-.2.9-.1 1.9-.1 2.9-.1.5 0 1.2.1 1.1.8-.1.6-.7.6-1.1.6-2.4 0-4.9 0-7.3.1-.9 0-1.1-.4-1.1-1.2 0-3.8.1-7.7 0-11.5 0-1.2.9-1.5 1.6-1.6 4.5-.6 9 0 13.4.5zm-6.2-6.6c-1-.5-1.1-1.2-1.1-2V43.8c0-2.3-.2-4.7-.3-7 0-.5-.1-1.2.6-1.3.7-.1.8.5.9 1 .2.9.3 1.9.3 2.8-.1 7.5-.2 15-.2 22.5 0 .6-.1 1-.2 1.7zM55.2 95.2c0 2.7-1.7 3.8-4 3-2.8-.9-4.6-2.8-5.9-5.4-.3-.6-.4-1.2.3-1.5.5-.2.8.1 1.1.6 1.1 1.6 2.2 3.2 3.9 4.2.6.3 1.2.4 1.8.5 1 .1 1.4-.4 1.2-1.3-.3-1.3-.6-2.6-1.2-3.8-.2-.3-.4-.7-.4-1 0-.4-.3-1 .3-1.2.6-.2 1.1.1 1.2.7.7 1.9 2.1 3.4 1.7 5.2zm111 13.5c-.2 3.8 0 7.5-.5 11.3-.1 1 0 2 .1 3 .1.9.1 1.9.2 2.9 0 .5 0 1.1-.6 1.1-.4 0-.5-.6-.5-1 0-1.4-.3-2.8.2-4.1.1-.4.2-.8.1-1.2-1.1-5.2-.2-10.4-.1-15.5 0-.4 0-1 .5-1 .6 0 .5.6.5 1 .1 1 .1 2.3.1 3.5zm-53.9-73.1c3.6-1 7-.5 10.5-.8 2.5-.2 2.5-.1 2.8-2.5.1-.7-.1-2 .8-1.9.9.1.6 1.3.6 2-.1 3.4-.1 3.5-3.4 3.8-3.1.2-6.3.2-9.4.2-.5-.1-1.1-.2-1.9-.8zm-43 102c4.1.2 8.2.8 12.4.6.3 0 1-.3 1 .4 0 .5-.6.5-1 .5-4.2.3-8.5-.2-12.7 0h-2.5c-.5 0-.9-.2-.9-.7 0-.5.3-.8.8-.8h2.9zm121.4-43.1c.5 0 1.1-.1 1.6 0s1 .4 1 .8c.1.5-.6.6-.9.6-.6.1-.7.3-.6.9.1 1.8-.6 2.7-2.1 2.7-1.3 0-2-.8-2-2.2 0-2 .6-2.8 2.2-2.9.3.1.6.1.8.1zm-9.6 2c-.9 0-1.4-1.1-1.5-2.2-.1-1.1.1-2.5 1.4-2.9 1.1-.3 2.4-.3 3.6.1.3.1.8.3.8.7.1.5-.5.6-.8.6-1.1 0-1.2.5-1.1 1.5.2 1.3-.7 2.2-2.4 2.2zm-4.7-66.4c1.7-.9 3.4-.7 5.1-.6 1.4 0 2.8.1 4.1.3 1.9.2 2.1.5 2.1 2.4 0 .6 0 1.3-.4 2-.6-.4-.8-1-.9-1.6-.1-1.3-.9-1.6-2.1-1.6-2.3 0-4.7.2-7-.4-.3-.2-.6-.4-.9-.5zm18 55.8c2.6 0 4.5.8 5.9 2.6.4.5 1 1.3.2 1.9-.8.6-1.2-.1-1.6-.7-1.4-2-3.4-2.3-5.6-1.8-.8.2-1.4.2-1.5-.7-.1-.8.4-1.1 1.2-1.1.4 0 1.1-.1 1.4-.2zM87.6 64.5c-.5 1.4-.9 2.8-2.1 3.7-.6.5-1.2.1-1.7-.3-.8-.7-1.3-1.6-1.8-2.5-.2-.3-.3-.7 0-1 .3-.3.7-.3 1-.1 1.1.8 1.9.4 2.9-.2.5-.4 1.3-.6 1.7.4zm42.7-59.7c-.6.6-1.3.5-2 .5-2.9-.1-5.8-.2-8.8-.3-1.6-.1-3.2.1-4.8.3-.4.1-1 .1-1.1-.4-.1-.7.6-.4.9-.5 2.3-.6 4.7-.4 7-.2 2.6.2 5.2.4 7.8.3.4 0 .8-.1 1 .3zM121.6 1c-5.2.3-10.3.5-15.4.8v-.4c5-1.9 10.3-.6 15.4-1.3-.1.2-.1.5 0 .9z"/><path class="st0" d="M105 83.3c-2 .8-3.3-.3-4.8-.5-1.6-.2-3.2-.6-4.9-.5-.4 0-.9 0-.9-.6 0-.4-.1-1 .7-1 3.5-.3 6.7.4 9.9 2.6zm-44.5 29.6c-1.9-.2-3.6-.5-4.8-2-.3-.4-.8-.9-.3-1.3.3-.3 1-.3 1.5.1 1.5 1.1 3.1 1.8 5 .8.3-.2.7-.1.7.3 0 .6.5 1.4-.5 1.8-.6.2-1.2.3-1.6.3zm-4.7-66c-.4.9-1.1.8-1.7.8h-11c-.4 0-1.2.2-1.2-.4 0-.6.7-.4 1.2-.4h12.7zm110.9 82.9c-.6-.1-1.2.1-1.5.7s.1.9.5 1.1c.3.2.6.3.4.7-.2.4-.6.4-.9.4-.7-.1-2.7-2.6-2.6-3.4 0-1 1.1-.7 1.3-.6 1 .7 1.8.2 2.7-.1.4-.2.8-.2 1.2.1.3.3.2.6.1.9-.3.5-.7.4-1.2.2zM12.8 56.1V59c0 .2.1.6-.3.7-.2.1-.4 0-.7-.2-1.1-1.2-1.5-5.5-.1-6.7.2-.2.3-.4.6-.3.5 0 .4.4.4.7.1.9 0 1.9.1 2.9zM215.2 52c.1.5-.1.9-.5 1.3-1 .9-2 1.8-3 2.6-.3.3-.7.4-1 .2-.5-.3-.1-.7 0-1 .7-1.7 1.9-3 3.5-3.9.7-.4 1.1-.1 1 .8zM106 106.9c.1-.5.3-.6.7-.5 2.2.5 3.9-.1 5.3-1.9.2-.3.5-.4.8-.2.4.2.7.5.5 1-.4.9-1 1.6-2 1.9-1.7.4-3.3 1.3-5 0-.2 0-.2-.2-.3-.3zm78.6 8.7c-.4-.1-.9-.2-1.2-.4-.4-.2-1.1-.3-.9-1.1.2-.6.7-.5 1.2-.5 1.1 0 2.2.1 3.1-.8.5-.4 1.4-.6 1.9 0s-.4 1-.7 1.4c-1 1-2.3 1-3.4 1.4zm-14.9 23.7c-4 .8-8 .7-12 .1 4-.9 8-.1 12-.1zm-98.5 8.1c.2-1.4-.9-1.3-1.5-1.6-.5-.3-1.5-.2-1.2-1.1.2-.7 1-.9 1.7-.9 2.2 0 4.4 0 6.7.1-2.1.7-4.4.3-6.6 1 .3.8 3.2.5.9 2.5zM170.7 52c-.8-.9-.9-1.7-.8-2.6.1-1.3.2-2.6.4-4 .1-.6.4-1.3 1.1-1.1.9.2 0 .7 0 1.1.1 1.2 0 2.3 0 3.5 0 1.1 0 2.1-.7 3.1zM3.5 64.8c.7.2 2-.1 2.1.8.2 1-1.1.8-1.8 1-1 .4-2 .7-3 .6-.3 0-.7 0-.8-.4-.1-.4 0-.7.3-.9 1-.7 2-1 3.2-1.1zm4.8-3.7c-.1.4-.4.7-.8.4-1.3-.9-2.6-1.9-3.9-2.8-.4-.3-.6-.7-.3-1.1.3-.4.7-.3 1.1-.2 1.1.2 3.9 2.8 3.9 3.7zM124.7 8.9h-7.9c-.3 0-.6 0-.7-.3-.1-.4.2-.6.4-.7.3-.1.6-.1.9-.1 2.5-.1 4.9.1 7.3 1.1zm-21.2 135.7c1.9-.5 3.8-.2 5.7 0 .2 0 .6-.1.6.3.1.4-.3.6-.6.6-.8.1-1.7.1-2.5-.2-1.1-.3-2.2-.4-3.2-.7zm102.1-93.9c.1-.6-.4-1.5.8-1.5.9 0 .9.7.8 1.2-.2.8.2 2-.9 2.1-1.1 0-.5-1.2-.7-1.8zm-75-14.9c1.6-.6 2.9-1.3 4.3-.5-1.1 1-2.2 1.1-4.3.5z"/></svg>