<svg width="224" height="199" fill="none" xmlns="http://www.w3.org/2000/svg"><path d="M79.224 17.497c-2.664-1.243-5.328-.177-7.814.71-2.664.889-4.973 2.665-6.393 5.15-.71 1.422-1.243 3.02-1.421 4.618-.178 1.066.355 1.599 1.42 1.776-1.953.888-4.794 0-6.57-1.776-2.487-2.308-4.618-5.15-4.973-8.524-.888-5.15-.71-10.478 3.552-14.563C60.577 1.336 65.017-.44 69.989.093c4.085.533 7.814 2.486 10.3 6.038 1.954 2.842 2.842 6.038 2.842 9.413 0 .888.356 1.065 1.066.888 3.907-.71 7.281.177 10.656 1.953-.178-3.019 1.598-4.972 3.551-6.748 2.842-2.664 6.216-4.085 9.946-5.15 5.15-1.421 10.122-1.777 15.45-.533 3.019.71 5.683 1.953 8.17 3.907 3.729 3.019 4.439 7.104 4.084 11.543-.355 4.263-2.308 7.992-5.15 11.011-3.197 3.197-6.926 5.15-11.366 6.394-3.552.888-6.926 1.065-10.478 1.065-2.131 0-3.907.888-4.795 3.02-.178.532-.533.887-1.243.71-.711-.178-.533-.71-.533-1.243 0-1.421 1.243-1.954 1.776-3.02-.71-.532-1.598-.71-2.486-1.065-1.066-.355-1.421.177-1.066 1.065.888 2.842.355 5.506 0 8.347-.71 4.262-2.308 7.992-5.15 11.189-1.066 1.243-1.776 1.065-2.664 0-.71-.888-1.243-1.776-2.131-2.664-.888-.71-3.552-1.243-4.618-.71-1.243.532-2.308 2.486-2.308 3.907.177 2.13 2.308 4.617 4.262 5.15.71.177 1.42.532 2.131.355.71 0 1.42 0 2.309-.355-.71 1.243-2.664 1.953-4.085 1.776-2.486-.533-4.44-1.776-5.683-4.085-.355-.71-.888-1.066-1.598-.888-2.664.533-4.795-1.066-6.571-2.486-3.374-2.487-5.683-5.683-7.282-9.59-2.13-5.328-3.196-10.656-1.776-16.517 1.599-6.57 5.328-11.543 11.544-14.562.355.177 1.066-.533 2.131-.71zm48.661 14.918c6.749-5.15 8.347-17.404 2.131-20.778 3.374 7.103 2.131 13.852-2.131 20.778zM26.834 180.529c0-2.131-1.954-3.375-4.973-3.375-2.13 0-4.084.178-6.216-.355-2.486-.71-4.617-1.776-6.038-4.084-1.243-1.776-6.216-3.02-7.991-2.132-.533.178-.71 1.599-1.421.888-.533-.532.177-1.42.355-2.308 1.598-5.683 4.44-10.478 8.702-14.563 1.954-1.954 4.617-1.954 7.104-1.954 1.42 0 1.776-.71 2.131-1.598 1.42-3.907 1.42-7.992.888-12.076-.355-3.197.533-5.683 2.841-7.992 1.954-1.954 4.263-3.374 6.571-4.618 1.954-.888 3.73-1.065 5.506 0 .533.356.888.356 1.065-.355 0-.177.178-.533.356-.71.532-.711 1.065-1.598 1.243-2.309.177-1.065-1.243-.71-1.954-1.243-1.953-1.598-2.309-3.552-2.13-5.861.354-4.262 2.84-7.636 4.972-11.188 1.953-3.197 4.262-6.216 6.393-9.235 1.066-1.598 2.131-3.197 3.552-4.44 1.953-1.953 4.617-2.13 7.281-1.598 3.375.71 6.571 1.953 8.88 4.972 1.598 2.132 1.954 5.506.888 7.992-2.309 4.973-5.505 9.59-8.347 14.208a81.207 81.207 0 01-4.795 6.926c-1.066 1.421-2.486 1.776-4.262 1.598-.355 0-.888-.177-.888-.71 0-.355.177-.355.533-.533 1.776-.355 3.374-.888 3.729-2.841.355-2.309-.71-4.085-2.309-5.506-2.663-2.664-6.038-3.729-9.767-2.486-2.664.888-3.73 4.795-1.954 6.748.888.888 1.42 1.066 2.131-.177.533-1.066 1.243-1.954 2.131-2.842 1.421-1.065 3.02-1.065 4.796.533 1.42 1.066 1.775 2.664 1.065 4.085-.888 1.953-2.131 3.729-3.197 5.505-.177.178-.177.355-.355.533-.533 3.729-3.73 3.729-6.393 4.44-1.42.355-3.02.71-4.44.71-.888 0-1.776 0-1.954-.888-.177-.888.178-1.598 1.066-2.131.888-.71 1.953-.888 2.486-1.776-4.262-.71-7.459 1.243-10.478 3.907-3.019 2.664-3.552 6.038-2.664 9.768.533 2.486.355 4.973-.355 7.281-.178.711-.355 1.599-.533 2.309-.177.533 0 .71.533.888 1.954.533 4.085.888 5.86 1.954 2.31 1.42 3.73 1.065 5.328-.888 1.777-2.132 4.44-2.842 6.927-3.73 1.243-.533 1.776-1.598 2.308-2.664.178-.177.178-.533 0-.71-.177-.178-.355-.178-.532 0-.355.177-.888.71-1.244 0-.355-.711.356-1.066.888-1.421 1.244-.533 2.487-.888 3.375-1.954.355-.532 1.065-1.243.533-1.953-.356-.533-1.244-.178-1.776 0-.356 0-1.066.355-1.244-.178-.355-.71.178-1.065.71-1.42 1.066-.533 2.132-1.066 2.842-2.132.355-.71.888-1.42.355-2.308-.887.71-1.953.888-3.019 1.243-.532.178-1.243.178-1.598-.355-.178-.533.177-1.066.888-1.421 1.066-.533 2.309-1.066 3.197-1.954 1.065-1.065 1.42-2.486.71-3.907-.177-.532-.533-1.065.178-1.243.71-.177.888 0 1.065.711.355 1.598.533 3.019-.177 4.439-.356.533-.178.888.177 1.244.533.888.888 1.776.533 2.664-.71 1.775-1.066 3.374-1.243 5.327-.178 1.954-1.776 3.197-3.374 3.907-.71.356-.888.533-.356 1.066.71.888.178 1.598-.355 2.486-1.243 1.954-3.552 2.309-5.328 3.197-1.776.888-3.374 1.776-4.617 3.197-.71.888-.355 1.42.533 1.776 1.42.71 2.841 1.598 3.73 3.019-1.6.355-2.487-.533-3.553-1.243-3.019-1.776-6.216-3.02-9.945-3.73.355.71.888.71 1.42.888 3.198.888 6.394 2.309 9.058 4.262 2.664 1.954 3.197 4.085 1.776 7.637-1.776 4.085-4.262 7.992-6.926 11.543 0 .888-.355 1.066-.888 1.244zM48.5 100.966c-1.065 0-2.309.356-2.841 1.599-.533 1.065.177 1.953.888 2.841 2.13 2.131 6.393 1.066 7.636-1.776.355-.71.178-1.42-.355-1.953-.533-.533-1.42-.711-1.954-.355-.887.532-1.42.177-1.953-.178-.355-.178-.888-.355-1.42-.178zm-2.663 19.536c-.178-.178-.356-.178-.533-.355-1.776 3.196-3.552 6.393-5.506 9.412.178.178.355.178.533.355 1.776-3.196 4.262-6.038 5.505-9.412zm136.747-45.464c-1.065.178-1.954.71-3.019.355.888 1.776 2.664 2.664 3.552 4.262.177.356.533.178.888.178.177 0 .355 0 .533-.178 1.243-.532 1.776.533 2.486.888.71.178 1.776-.71 2.841-.355 1.066.533.711 1.776 1.243 2.309.356.533 1.776-.178 2.309.888.711 1.42 0 2.486-.71 3.374-1.954 2.309-4.618 4.085-7.459 5.15-.355.178-.711.178-1.066.178-.177 0-.532.178-.71-.178-.178-.355.178-.532.355-.71 1.243-.71 2.664-1.42 3.73-2.131 1.243-.888 2.663-1.776 3.551-3.197.178-.355.889-.533.356-.888-.355-.177-1.066-.177-1.244.178-1.42 1.598-3.374 2.664-5.327 3.552-1.421.71-2.487 1.598-4.085 1.953-.533.178-1.066.71-1.421-.177-.177-.71.355-1.066.888-1.243 1.421-.533 2.664-1.066 3.907-1.954 1.421-1.243 3.019-2.309 4.085-3.907.178-.355.533-.71.355-1.066-.355-.532-.533 0-.888.178-1.953.888-3.019 2.841-4.795 3.907-1.953 1.42-4.084 1.954-6.393 2.486-1.776.356-3.552-1.598-3.197-3.196.178-.533.355-.888.888-.888.355 0 .533.355.71.71.533 1.598 1.244 2.131 2.664 1.42 2.842-1.42 5.683-2.84 7.637-6.037-1.598.532-2.842 1.243-3.907 2.13-1.066.711-2.131 1.066-3.197 1.422-1.598.532-3.019-.356-3.197-2.132 0-.888-.71-.888-1.065-1.065-1.954-1.599-2.131-1.599-4.085.177-.888.71-1.953 1.599-2.664 2.487-.177.177-.532.355-.355.71.178.355.533.178.888.178 1.598 0 2.842-.888 4.085-1.776.532-.356 1.065-1.243 1.598-.533.533.71 0 1.42-.71 1.954-1.599 1.243-3.552 1.953-5.683 2.308-.888.178-1.776-.177-2.309-1.065-.533-.888 0-1.776.533-2.487 1.065-1.42 2.486-2.308 3.729-3.374.711-.533 1.243-.888-.177-1.42a31.285 31.285 0 00-7.815-2.665c-5.15-1.243-7.636-4.44-7.814-9.235 0-3.729 1.599-6.215 6.216-7.103 1.954-.355 3.907.177 5.683.71 1.599.533 3.197 4.085 2.842 5.86-.711 3.02-2.309 5.15-5.151 6.572-.532.355-1.065.71-1.598 1.243 1.598 1.065 4.618.177 6.571-1.954 1.776-1.953 1.954-4.44 2.131-7.103 1.243.71.888 1.953 1.243 2.841.711-.355.888-1.598 2.131-1.42.888.177 1.599.532 2.487.887 2.131 1.066 3.907 2.486 6.038 3.374 2.664 1.066 5.683.888 8.524 1.776 2.309.71 4.085 1.776 5.506 3.73 1.776 2.486 2.664 5.328 4.262 7.992 1.066 1.776 2.309 3.374 3.907 4.795.356.177.533.533.888.177 1.066-1.243 2.842-1.243 3.907-2.308.356-.356.533-.178 1.066-.178 3.907.355 6.926 2.664 9.945 4.973a20.427 20.427 0 013.019 2.486c.356.355 1.421 1.243-.177 1.42-.533 0-.533.356-.356.889.356 4.44-1.598 7.991-4.084 11.366a2.76 2.76 0 01-1.421 1.065c-2.486.888-3.019 3.019-3.552 5.15-.355 1.066-.355 2.309-.71 3.552-.533 1.599-1.954 2.309-3.552 3.019-.71.356-1.776-.355-2.131 1.066 0 .355-.888-.178-1.243-.533-1.776-1.776-3.197-3.729-4.973-5.505-1.776-1.776-3.73-3.552-5.861-4.973-.355-.355-.888-.533-.71-1.065 0-.533-.355-.711-.71-1.066-2.487-1.421-3.02-4.44-1.954-7.281.355-.711.178-2.131 1.243-1.954.711.178.178 1.421.355 2.309 0 .888 0 1.598.178 2.486 1.243-1.953 2.131-4.262 3.73-6.038.532-.533-.178-.888-.533-1.066-1.954-1.243-4.085-1.598-6.216-1.953-.533 0-1.066 0-1.421-.178-.355-.177-1.065 0-1.065-.71.177-.533.71-.71 1.243-.533 4.617.533 8.879 1.243 11.366 5.86.888 1.777 1.065 1.599 2.309.178 1.42-1.776 2.486-3.907 3.019-6.038.177-.71.177-1.243-.711-1.776-3.019-1.776-5.15-4.44-6.748-7.459-1.243-2.664-2.487-5.328-4.263-7.636-1.065-1.421-3.019-2.131-4.617-2.309-4.973-.355-9.412-1.954-13.497-4.795-.711-.533-1.776-1.42-2.309-.71-.71.888.533 1.776 1.066 2.486 1.776 1.953 3.907 3.374 6.571 3.907.71-.533 1.243-.178 1.598 0zm38.005 20.246c.355-.71-.177-1.244-.71-1.776-1.243-1.243-2.664-2.131-4.085-3.02-1.598-1.065-3.552-1.065-5.328-.355-1.243.356-1.243 1.776-1.598 2.664-1.421 3.375-3.552 6.216-5.861 8.88-.71.888-1.243 1.598-1.953 2.486-.355.533 0 .533.355.888 2.664 1.776 3.197 1.599 5.328-.71.533-.71 1.065-1.243 1.42-2.131.888-1.776 1.954-1.776 3.197-.178.533.888 1.066.888 1.776.355 1.066-.532 1.954-1.42 2.664-2.131.178-.177.533-.71.888-.532.355.355.178.71 0 1.065-.71 1.421-1.776 2.486-2.841 3.552-.178.178-.533.355-.356.533.178.355.533.355.711.355 1.243 0 2.131-.71 2.841-1.598 1.421-1.776 2.131-3.73 2.309-5.861 0-.355-.355-.888.355-.888 1.066.178.888-.71.888-1.598zm-16.516 14.74c.533 0 1.243-.178 1.953-.533 2.309-1.421 3.375-3.552 4.263-6.038.177-.533.532-1.421-.356-1.776s-1.065.533-1.42 1.243c-.888 2.664-2.664 4.44-4.973 5.861-.355.177-1.066 0-.888.888.355.355.888.355 1.421.355zm-40.492 79.207c-.71 3.019 0 5.86.356 8.702 0 .355.532.888-.178.888-.533.177-.711-.178-.888-.711-1.066-3.551-.888-7.458-.888-11.188 0-.533.178-.888.533-1.066.533-.177.71.178 1.065.356.888 1.065 1.954 1.953 3.552 2.308.355 0 .888.178.888-.355 0-3.196.178-6.393-1.598-9.235-.888-1.42-2.486-.888-3.374-1.776-.888-.71-1.954-1.065-3.02-1.776-.532-.355-1.243-.71-1.953-.71-.888 0-.888-.178-.888-1.065 0-.533-.533-.533-.711-.533-1.065.71-1.598-.178-2.131-.888-.355-.355-.532-.888-.888-1.243-.71-.888-1.42-1.599-3.019-1.599-2.664 0-4.795-1.953-5.86-4.262-.533-.888-1.243-1.421-1.954-1.776-1.065-.71-1.598-1.776-2.309-2.841-.177-.178-.177-.711-.177-.711 1.421-1.421 0-2.131-.71-3.019-1.244-1.776-.888-3.197.887-4.262.533-.355.533-.533.178-.888-.888-.888-1.243-2.309-2.309-3.019-.355-.355-.355-.711-.177-1.066.355-.533 0-1.065-.355-1.243-1.421-.355-.711-1.066-.178-1.598 1.421-1.776 3.552-2.842 5.328-4.085 2.131-1.421 4.617-2.309 7.104-3.019 2.131-.71 2.664-.355 4.439 2.309.711 1.065 1.421 2.308 2.309 3.551.533.888 1.066 1.599 2.131 1.954 1.954.71 3.374 2.309 4.973 3.73a33.583 33.583 0 008.169 6.038c1.599.888 2.487 2.131 3.197 3.552 1.953 3.374 2.486 7.281 3.019 11.188.355 3.197.178 6.393.533 9.413.177.887.355 1.065 1.243.532 3.197-1.776 4.795-1.243 6.216 2.131 1.598 3.907 1.953 7.992 1.776 12.254 0 .711-.178 1.421-.711 2.132-.71-.533-.355-1.066-.355-1.776.178-3.907-.71-7.815-1.953-11.544-.178-.71-.711-1.243-1.066-1.776-.888-1.066-2.131-.888-3.552.355-1.598 1.243-3.019 2.664-4.262 4.44-1.066 1.421-2.486 2.664-4.085 3.73-2.664 1.598-5.15 1.243-7.636-.356-.533 0-.533 0-.711-.177zm-14.03-28.238c1.243.355 1.954.178 2.842.533.888.355 1.776.71 1.953 1.598.178.888-.888 1.421-1.598 1.599-.888.355-.71.888-.355 1.421.888 1.42 1.776 3.019 3.019 4.262.533.533 1.066.533 1.598 0 .888-.711 1.599-1.599 2.664-2.131 2.309-1.599 4.618-3.197 7.282-3.907.355-.178.71-.356.888.177.177.355 0 .711-.178 1.066-.355.177-.71.355-1.066.71-3.551 3.197-4.617 4.085-2.841 8.702.533 1.421 1.954 2.309 3.729 2.309 2.132 0 2.131 0 1.599 1.954 0 .177-.178.532-.178.71.888 2.131.178 4.262.355 6.393 0 .888.178 1.421 1.243 1.243.533 0 .889-.177 1.421-.355 1.776-1.243 3.019-3.019 4.44-4.617.711-.711 1.421-1.599 1.066-3.019-.533-2.842-.888-5.683-.888-8.525 0-4.44-1.243-8.347-3.375-12.076-.532-.888-1.243-1.421-2.486-1.243-1.598.355-2.841 1.065-3.197 2.664-.177 1.065.356 1.953 1.421 2.308.533.178.888.533 1.243.888.178.178.533.355.355.533 0 .178-.355.355-.532.355-.356 0-1.066.178-1.243 0-2.309-1.953-5.151-3.552-6.039-6.748-.177-.711-.355-1.776-1.243-2.132-1.421-.71-2.486-1.775-3.552-2.841-1.42-1.776-3.019-3.729-1.776-6.393.178-.356 0-.533-.177-.888-1.599-1.599-2.664-3.552-3.73-5.328-.533-.711-.888-.888-1.776-.711-3.907.711-7.103 2.842-10.3 4.973-.71.533-.533.71-.178 1.066.711.71.888 1.598.888 2.486-.177.533 0 1.243.533 1.598 1.243 1.066 2.664 1.954 4.085 2.842.888.533 2.308.355 3.019 1.421.177.177.355.177.533 0 .355-1.066 1.598-1.066 2.308-1.599 1.243-.888 2.309-.355 3.019.888 1.244 1.954 2.309 3.907 3.552 5.861 1.243 1.953.888 2.841-1.243 3.552-.533.177-1.243.71-1.776-.178-.888-1.421-2.664-2.131-3.552-3.729.533 1.243-.355 1.776-1.776 2.308zm-5.505-3.729v-.355c-.355-.356-1.243.177-1.243-.711 0-.888.888-.71 1.42-.888.888-.177 1.954-.355 3.02-.532-1.954-1.421-4.085-.888-6.039-.888-.888 0-.888.887-.71 1.598.533 1.776 1.421 2.309 3.552 1.776zm5.15 2.131c-2.131-.888-4.085-.533-6.038 0-.533.178-.888.533-1.243.888 1.065.178.177 1.953 1.42 1.953.533 0 1.244.356 1.421-.532.178-1.066 1.066-1.421 1.776-1.421 1.066 0 1.776-.533 2.664-.888zm-.355 3.197c-.71.177-1.954-.178-2.131.888-.178.888 1.065.71 1.598 1.243 0 0 .178.177.355.177.533-.177 1.421-.177 1.599-1.243-.178-1.065-.711-1.065-1.421-1.065zm-1.243-5.861c1.243.355 2.486.888 3.729 1.243 0-.533-.177-.71-.532-1.065-.711-.533-.533-1.776-1.244-1.776-.888.177-1.065 1.243-1.953 1.598zM105.686 84.45c-1.421 1.954-3.375 2.664-4.973 3.552-3.02 1.598-6.216 3.197-9.057 4.973-3.02 1.776-5.861 3.73-8.703 5.683-4.084 3.019-7.991 6.216-11.543 9.767-4.795 4.618-9.057 9.59-12.787 15.096-2.486 3.907-4.617 7.814-5.505 12.431-.533 3.02.888 5.328 2.308 7.815 2.664 4.439 6.216 7.814 10.123 11.01 3.73 2.842 7.814 5.328 11.9 7.637 2.663 1.421 5.505 2.486 7.813 4.617-1.598.356-2.841-.355-3.907-.71-3.73-1.598-7.281-3.552-10.655-5.683-3.907-2.664-7.815-5.328-11.189-8.702-2.664-2.664-4.973-5.328-6.749-8.702-1.243-2.131-1.953-4.44-1.776-6.926.178-2.487 1.066-4.973 2.132-7.282 3.019-6.393 7.281-11.898 12.076-17.049 3.907-4.262 7.992-7.991 12.432-11.543 4.262-3.552 8.88-6.749 13.497-9.768 3.552-2.309 7.281-4.262 11.366-5.683.888-.178 1.953-.178 3.197-.533zm23.442-.888c3.019 0 5.505.71 7.992 1.776 4.972 2.131 9.767 4.263 14.563 6.927 3.019 1.775 6.038 3.374 9.057 5.15 4.262 2.486 8.169 5.328 11.898 8.524 2.132 1.954 4.085 4.085 5.506 6.749.178.533.355.888.355 1.421.355 4.617-.888 8.702-2.841 12.786-1.776 3.552-3.552 7.104-6.394 10.123-.888 1.066-1.776 1.954-3.196 2.487-.533.177-1.066.355-1.776 0 1.243-1.421 2.841-2.664 3.907-4.263 3.019-3.907 5.505-8.169 7.103-12.964.711-1.954 1.066-4.085 1.421-6.038.178-1.954-.71-3.552-1.776-4.973-3.374-4.262-7.636-7.459-12.076-10.478-2.664-1.776-5.328-3.374-7.992-4.973-3.729-1.953-7.459-3.907-11.188-5.683-3.019-1.42-6.216-2.486-9.235-3.907-1.776-.71-3.375-1.42-5.328-2.664z" fill="#3A2D52"/><path d="M94.142 64.027c1.42.177 2.842.888 4.085 1.42a65.977 65.977 0 016.926 3.73c.71.533 1.421.888 1.421 1.954 0 1.065-.711 1.243-1.421 1.598-3.73 1.954-7.459 3.73-11.189 5.683-1.243.533-1.598 0-1.598-1.066.178-3.907.355-7.814.71-11.72 0-1.6.178-1.6 1.066-1.6zm9.945 6.926c-3.196-2.309-6.57-4.085-10.655-5.15 1.065 1.42 1.065 2.664 1.243 4.085.355 3.374 2.664 4.794 5.328 3.374 1.243-.888 2.486-1.599 4.084-2.309zm25.041-9.413c.178-3.374-.533-6.57-1.776-9.59-.355-.71-.71-1.953.178-2.308.533-.178 1.065.888 1.42 1.598 1.599 4.085 2.309 8.17 1.954 12.61-.533 5.682-3.019 10.122-8.347 12.43-3.552 1.6-7.281 1.6-11.011.711-1.42-.355-2.664-.71-3.907-1.598-.355-.178-.533-.355-.533-.71.178-.356.355-.178.711-.178.71 0 1.421 0 1.953.355 3.375 1.42 7.104 1.42 10.478.533 3.552-1.066 6.216-3.374 7.814-7.281 1.066-2.132 1.066-4.44 1.066-6.571zm-42.8 101.052c.71-3.375 1.243-6.927 3.552-9.591.888-1.065.888-1.776-.533-2.486-4.617-2.486-8.525-5.86-12.61-9.057-.177-.178-.532-.355-.71-.711-.177-.355-.532-.71-.177-1.065.355-.355.71-.178 1.065 0 1.244 1.065 2.664 2.131 4.085 3.197 3.552 2.841 7.46 5.15 11.899 6.038 1.243.177 1.42 1.065.888 2.131-1.066 2.131-2.842 3.552-3.907 5.683-1.421 2.486-1.954 5.15-2.131 7.814 0 .355.355 1.066-.356 1.066-.532 0-.71-.533-.888-1.066 0-.533-.177-1.243-.177-1.953zm22.021 4.617c-.887-.355-.887-1.065-1.065-1.776-.178-1.065 0-2.131-.355-3.196-.178-.533 0-1.599-.711-1.244-.71.356-1.776.178-1.953 1.421 0 .533-.178.888-.178 1.421-.355 1.421-1.421 2.131-2.841 1.954-1.421-.178-3.02-.178-4.44-.888-.71-.356-1.599-.711-2.486-.711-.178 0-.533 0-.533-.355s.177-.533.532-.533c.888 0 1.599-.177 2.487.178 1.243.71 2.664.71 4.085.71.888 0 1.598-.177 2.131-1.065.355-.888 0-1.421-.711-2.132.355-.532.888-.71 1.599-.532.888 0 1.42-.355 1.776-1.243.355-.888.177-1.776-.533-2.309-.355-.355-.888-.711-.533-1.243.178-.533.888-.356 1.243-.356.533 0 1.243.356 1.421-.355.355-.888-.355-1.243-.888-1.598-.888-.71-2.131-.888-3.019-1.421-1.243-.71-1.243-1.776-1.066-2.841.178-.888 2.487-2.131 3.375-1.954.71.355.532.711.177 1.243-.355.711-1.421 1.243-1.243 1.954.178.533 1.243.71 1.954 1.065 1.065.533 1.776 1.244 2.308 2.309.356.711.355 1.598-.177 2.309-1.066 1.243-.888 2.664-.533 4.085.355 2.308.71 4.617.177 7.103zm16.517-84.179c.888.532 1.598 1.065 1.421 2.308-.178 1.776.355 3.552-.533 5.15-1.776 2.842-4.618 3.197-7.814 1.421-3.019-1.598-5.683-3.73-8.702-5.15-.711-.355-1.244-.71-1.066-1.42.355-.711 1.243-.533 1.776-.178 1.066.533 2.131 1.065 3.197 1.42 2.841 1.066 5.683 2.665 8.879 2.487 1.954 0 2.664-.71 2.664-2.664 0-1.243-.355-2.309.178-3.374zm16.871 21.844c2.664.177 3.375.71 3.552 3.374.178 2.309 1.243 4.262 1.954 6.216 1.953 4.617 3.552 9.235 4.084 14.207.178 1.776 1.066 3.374.888 5.328 0 .533 0 1.066-.71 1.243-.71.178-.71-.533-.888-.888-1.065-2.486-1.065-4.972-1.598-7.459-.533-2.131-.888-4.262-1.599-6.216-1.065-3.551-2.308-6.926-3.729-10.3-.533-1.776-1.243-3.552-1.954-5.505zm-67.486 31.434c-.71-1.954.178-3.197 1.244-4.263 3.019-3.907 6.748-7.281 10.833-10.3 1.42-1.066 2.309-3.019 4.084-3.729.356-.178.533-.356.888-.356.533 0 1.243-.177 1.421.178.355.533-.177.888-.532 1.421-1.421 1.776-3.197 3.019-4.973 4.44-4.262 3.196-8.525 6.571-11.366 11.188-.533.355-1.066.71-1.599 1.421zm28.771 6.393c0 .355 0 .533-.355.711-.355.177-.533 0-.711-.356-.532-.71-.888-1.42-1.065-2.131-.711-2.664-1.42-5.15-2.664-7.636-1.066-2.487-2.131-4.973-3.374-7.282-.356-.71-1.421-1.243-1.244-2.308 0-.356 0-.711.356-.888.355-.178.532.177.888.355 1.243 1.065 2.13 2.486 2.841 4.084 1.598 3.375 2.842 6.927 4.085 10.479.533 1.42.888 3.196 1.243 4.972zm20.423-98.92c1.421 0 1.776.888 2.486 1.243 1.421.888 1.421 2.842 0 4.263-1.065.888-2.308 1.776-3.196 3.019-.356.355-.711.533-1.066.355-.533-.178-.177-.71-.177-1.066.355-.888 1.243-1.243 1.775-1.953.888-.71 1.954-1.42 1.776-2.486-.177-1.066-1.42-1.599-2.486-1.954-1.065-.355-1.953-1.066-3.019-1.066-.355 0-.71-.355-.71-.71 0-.533.355-.533.71-.71 1.421-.355 3.019-.178 4.085-1.421.355-.355.888-.178 1.065.177.355.356.355 1.066 0 1.421-.177.178-.533.355-1.243.888zm22.022 0c3.907.178 7.281 1.954 10.3 3.907.888.533 1.598 1.421 2.486 1.954.356.177.533.71.356 1.065-.356.533-.711 0-.888 0-2.131-.888-4.263-1.953-6.216-3.196-.533-.355-1.066-.355-1.421-.533-1.598-.533-3.374-1.066-4.795-1.954-.533-.355-1.421-.355-1.243-.888 0-.71.888-.177 1.421-.355zm6.393 57.008c1.421-.178 3.197 1.598 3.197 3.019 0 1.243-.888 2.131-2.309 2.131-1.598 0-3.729-1.953-3.552-3.196 0-1.244 1.243-1.954 2.664-1.954zm-29.303-2.309c-2.486.178-4.44-.71-6.393-1.776-1.066-.532-2.132-.887-3.02-1.42-.532-.356-1.243-.71-.888-1.421.356-.71 1.066-.178 1.599 0 2.131 1.066 4.262 2.309 6.571 3.019 1.776.533 3.374.71 4.973-.355.177-.178.71-.533 1.065-.178.355.355 0 .71-.355 1.066-1.066 1.243-2.309 1.243-3.552 1.065zm39.249 18.648c.177.177 0 .355-.178.355-.355 0-.71 0-.888-.178-1.776-2.309-4.618-2.131-6.926-2.841-1.243-.355-2.131-1.066-3.375-1.421-.355-.178-.532-.355-.355-.71.178-.356.533-.533.711-.356 3.729.888 7.814.711 10.478 4.263.355.355.533.532.533.888zm-6.749 14.918c.177-1.599 1.065-2.309 1.776-3.02 2.486-2.131 4.084-4.795 5.505-7.636.178-.355.355-.888.355-1.421s.178-.888.711-.888c.533 0 .71.355.888.711.177.532 0 1.065-.178 1.775-1.065 2.842-3.019 5.151-5.328 7.282-1.065 1.065-2.308 1.953-3.729 3.197zm-49.726-9.946c-.178-1.42.888-2.131 1.776-2.486 1.243-.533 2.663-1.066 3.907 0 .71.533.71 1.598.355 2.309-.356.71-1.066.71-1.776.355-.888-.355-1.599 0-1.954.71-.355.533-.71 1.066-1.598.711-.711-.356-.71-.888-.71-1.599zm32.144 52.746c1.066 0 .71.532.533 1.243-.533 1.953-1.954 3.552-3.019 5.15-.533.71-1.066 1.598-1.599 2.309-.177.355-.532 1.065-1.065.71-.533-.177-.355-.888-.178-1.243.355-1.066.533-2.131 1.243-3.019.888-1.421 1.421-3.374 2.842-4.44.533-.355.888-.71 1.243-.71zm29.481 18.47c3.196 1.065 5.505-.711 7.991-2.132 1.243-.71 2.309-1.42 3.375-2.131.355-.177.71-.71 1.065-.177.178.355.355 1.065-.177 1.243-2.664 1.953-5.506 3.729-8.88 4.44-1.243.355-2.486.177-3.374-1.243zm5.683 4.617c1.42.355 2.841-.533 4.262-1.065 1.598-.711 3.374-1.421 4.617-2.664.355-.356 1.066-.888 1.599-.356.532.533-.178.888-.533 1.244-.71 1.065-1.954 1.776-3.019 2.308-2.487 1.243-4.973 1.954-7.814 1.421-.533 0-1.066 0-1.066-.533 0-.71.711-.355 1.243-.355h.711zm-67.486-51.325h-.355c-3.375-1.598-5.683.533-7.992 2.664-.355.355-.888.888-1.243.355-.533-.532 0-.888.355-1.42 1.776-2.842 6.393-4.44 9.59-3.019.355.177 1.243.177 1.066.888-.356.887-1.066.532-1.421.532zm-6.038-47.062c1.421 0 2.131.888 2.131 2.308 0 1.599-1.243 3.02-2.486 3.02-1.066 0-2.132-1.066-2.132-2.487 0-1.776.888-2.841 2.487-2.841zm-1.243 3.729c.355 0 .71-.177.71-.71 0-.533-.355-.711-.71-.711-.356 0-.533.178-.71.533 0 .533.177.711.71.888zm10.478-55.231h-.888c-.888-.178-1.954-.533-1.599-1.599.178-.888 1.066-.533 1.776-.355 1.954.533 3.375-.71 4.795-1.776.711-.533 1.421-.71 1.954-.178.533.533 0 1.243-.533 1.599-1.598 1.598-3.552 2.309-5.505 2.309zM38.377 80.72c.356-1.953.71-3.906 1.954-5.327.355-.355.71-.888 1.243-.533.355.178.533.71.355 1.066-.532 2.308-1.598 4.44-2.664 6.393-.177.355-.71.355-.888-.178v-1.42zM156.3 35.79h-2.309c-.355 0-.71-.178-.71-.533 0-.356.177-.533.533-.71 2.131-1.244 4.262-1.244 6.571-.534.355.178.888.178.888.888 0 .533-.533.533-.888.533-1.421.178-2.842.533-4.085.355zm15.983 84.357c0 1.598-.887 2.486-2.131 2.486-1.065 0-1.776-.711-1.776-1.776-.177-1.243 1.243-2.309 2.487-2.486 1.42 0 1.598.888 1.42 1.776zm-43.688 21.666c0 1.066-1.065 2.486-2.131 2.309-1.065-.178-1.953-.533-1.953-1.954 0-1.243 1.243-2.486 2.308-2.308 1.244.177 1.776.888 1.776 1.953z" fill="#3A2D52"/><path d="M121.136 62.961c-1.243 0-3.374-1.776-3.374-2.841 0-.533.178-.71.533-1.066.71-.355 1.066 0 1.243.533.533 1.243 1.066 1.776 2.309.888.355-.178.71-.178.888.178.177.355.355.532.177 1.065 0 .888-.71 1.421-1.776 1.243zM30.386 90.31c-1.243-.177-2.842.534-3.907-1.065-.178-.355-.533-.532-.355-.888.177-.355.532-.177.887-.355 2.132-.355 3.908.888 6.039 1.066.177 0 .533.355.533.71 0 .533-.533.355-.888.355-.71.178-1.421.178-2.31.178zm.355-13.674c.533.178.888.533 1.243.888 1.243 1.243 1.598 3.02 2.841 4.44.178.177.178.71-.177 1.066-.355.355-.533 0-.71-.178-1.776-1.42-3.02-3.197-3.73-5.328-.177-.355-.177-.888.533-.888zm97.854 96.611c-.355 0-.71.001-.887-.177-.178-.355-.001-.71.355-.888 1.598-1.421 3.729-1.421 5.86-1.776.178 0 .533.178.711.533 0 .355-.178.533-.356.533-2.131.355-3.729 1.42-5.683 1.775zm21.489-25.573c-1.243 0-2.486-1.243-2.486-2.487 0-1.065 1.243-2.486 2.309-2.486 1.243 0 2.664 1.243 2.664 2.309 0 1.243-1.244 2.664-2.487 2.664zm-5.683-1.954c2.131.178 2.486.533 2.486 2.664 0 1.243-1.243 2.131-2.486 1.954-1.421-.178-2.309-1.243-2.309-2.487 0-1.42.888-2.308 2.309-2.131zm.888 1.243c-.355 1.244-.355 1.244-1.243.533 0 0-.178-.177-.178 0-.177.178-.355.355-.355.533 0 .355.178.888.533.888.355.178.888.178 1.243-.178.533-.532.533-1.065 0-1.776z" fill="#3A2D52"/></svg>