<svg width="265" height="204" fill="none" xmlns="http://www.w3.org/2000/svg"><path d="M98.02 200.289c2.847-2.344 6.196-2.177 9.545-2.512 4.019-.335 8.206 0 12.225-.335 2.177-.167 5.191 1.34 5.694-2.679.167-1.005 1.842-.503 2.847-.503h39.354c1.507 0 3.014 0 4.521-.334-3.014-3.182-6.531-5.359-11.052-5.359-6.699.167-12.895-.67-19.091-3.684-2.68-1.173-5.527.669-8.374 1.172-12.057 2.512-23.444 6.866-34.832 11.387-10.55 4.019-21.603 6.866-32.99 6.531-2.345 0-4.69-.502-6.866-1.004-5.526-1.508-7.87-4.522-8.373-10.383-1.34-17.416 3.349-33.828 8.708-50.072 3.852-11.555 8.875-22.775 16.579-32.655 3.014-4.019 6.53-7.201 11.387-8.876 4.857-1.674 8.54-.837 12.225 3.35 3.349 3.684 6.029 8.038 8.708 12.225 2.01 2.846 3.852 5.861 6.866 7.87 1.675 1.173 3.517 1.675 5.191.503 1.508-1.173 1.675-2.847 1.34-4.689-.335-2.177-.335-4.354-.335-6.699 0-1.34.335-2.679 2.01-2.847 1.507-.167 1.842 1.34 2.009 2.512 2.01 8.373 2.512 16.747 2.345 25.287-.168 5.861.335 11.89-.838 17.751-.334 1.507.503 2.345 1.843 2.68 14.234 4.521 28.468 8.373 43.54 8.708 8.373.167 15.072 3.517 18.756 11.555.502 1.339 2.01 3.516 0 3.851-1.842.335-3.852 3.852-6.029.168-1.507-2.512-3.349-4.857-6.866-4.689-.67 0-1.004-.502-1.004-1.172 0-.838.669-.838 1.339-.838 2.01.335 4.187.67 5.861 2.512-.167-2.512-2.512-2.512-3.181-4.019 2.344-.335 2.344-.335 6.698 3.852-.837-4.187-5.694-8.206-10.717-8.876-12.56-1.507-25.287-2.177-37.68-5.359-3.851-1.004-6.028 3.015-9.21 6.197 3.516 0 6.363.335 9.043 0 14.904-2.01 27.799 3.349 40.191 10.55.837.502 1.842.837 1.507 2.009-.167 1.005-1.34.838-2.009 1.005-.503.168-1.005.168-1.675.168 0 1.507 1.172 2.177 1.675 3.181.502 1.173 2.679 2.345.837 3.35-1.172.837-2.847 2.847-5.191 0-3.182-3.852-7.704-6.364-12.728-7.536-.837-.168-2.177-.168-1.842-1.507.335-1.173 1.675-1.005 2.345-.67 4.354 1.674 8.708 3.349 12.225 6.698.502.503 1.004.838 1.674 1.507-.67-3.851-1.34-4.354-16.076-11.052 1.674-2.01 4.019.167 6.028-1.005-7.033-4.689-14.904-5.359-22.775-5.024-11.722.503-23.444 1.507-34.832 4.522-2.847.67-4.354 1.842-4.856 4.521-.168.838-.503 1.507-.503 2.345-.837 8.038.168 9.043 7.536 6.363 9.378-3.349 19.091-6.028 28.804-8.038 1.004-.167 1.842-.335 2.679.168 5.191 3.349 10.885 4.019 16.746 3.684 4.354-.168 8.206 1.172 11.723 3.851.335.168.837.335.837.67 1.507 5.192 5.861 2.68 8.876 3.35 5.694 1.172 8.708-1.508 11.555-6.197 11.387-18.253 23.445-36.339 35.167-54.425.837-1.172 1.34-2.512 3.182-1.34 2.177 1.34.502 2.345-.168 3.349-12.225 19.091-24.617 38.015-36.842 57.105-.502.838-1.842 1.675-1.004 2.68.335.502 1.674.335 2.679.335 20.765-.168 41.531-.838 62.296-2.01 2.177-.167 4.689-.67 6.866 1.172-1.674 1.173-3.516 1.173-5.358 1.34-15.407.67-30.814 1.34-46.22 1.675-30.646.837-61.459 1.339-92.105 2.177-6.699.502-14.569.837-22.44.502z" fill="#16013E"/><path d="M102.541 27.802c-1.507-4.689-.167-8.373 4.187-10.718 12.56-7.033 25.957-10.382 40.359-6.866 5.191 1.173 9.545 3.852 12.894 8.039 6.699 8.373 5.359 19.593-3.181 25.956-5.192 3.852-11.22 5.862-17.752 6.03-4.019.167-8.373.502-9.712 5.19-.838 2.847-.67 6.03-.838 9.21 0 1.006.335 1.843 1.675 1.676 1.507-.168.67-1.173.67-1.843 0-1.004.335-1.507 1.339-1.674 1.005-.168 2.177-.168 2.68 1.005.67 1.507-.503 2.177-1.842 3.349 3.014.67 5.861 1.507 7.703-.67 2.177-2.344 4.019-5.861 2.679-8.54-2.344-4.69-7.703-3.35-11.889-3.685 0-.335-.168-.67 0-.837 2.512-2.01 8.205-1.34 12.392 1.34 2.679 1.674 2.177 4.186 1.34 6.53-.838 3.015-1.508 6.197-4.522 7.871-1.172.67-.837 1.842-1.005 2.847-1.004 6.197-2.009 12.393-4.354 18.254-2.009 5.359-5.359 9.21-11.22 10.55-2.177.502-4.019 2.01-6.028 2.679-8.039 2.68-15.24-3.851-13.23-11.89.335-1.674 0-2.846-.67-4.186-2.344-4.522-4.354-9.043-6.531-13.565-.167-.502-.335-1.004-.67-2.177 2.345.838 3.014 2.345 3.684 3.852 2.01 4.187 4.019 8.373 6.197 12.56 1.507 2.847 3.349 5.359 5.693 7.536 6.364 5.861 14.737 4.689 19.426-2.68 3.014-4.689 3.852-10.215 4.856-15.574.503-2.512.838-5.024 2.01-7.536-3.182-.167-6.196-.167-9.21-1.507 0 2.345 2.511 3.517 1.339 6.196-4.019-3.349-4.521-8.038-5.191-12.56-.168-.67.502-1.842-.837-2.009-1.173-.167-1.173.837-1.34 1.675-2.01 5.86-3.517 7.2-8.708 7.368-4.857.167-10.215-2.512-11.053-6.866-1.005-5.526-4.354-5.861-8.54-6.029-.168.168-.335.503-.335.503.335 1.172 2.344 2.512 1.004 3.684-1.172.837-1.842-1.172-2.847-1.842-1.507-1.005-3.014-2.177-4.856-1.005-1.675 1.172-1.675 2.847-1.005 4.689 1.34 4.187 4.354 6.029 8.54 6.866.67.167 2.01-.168 1.843 1.005 0 1.34-1.34 1.004-2.177 1.004-4.354 0-8.708-3.516-10.048-7.87-.335-.837-.167-1.842-.837-2.68-6.364-5.693-5.861-12.894-4.187-20.43.838-3.684 2.01-7.369 4.187-10.383 2.512-3.517 5.694-6.698 10.383-7.2 3.684-.168 5.693 2.679 7.535 5.358 1.005 9.043-.669 17.416-4.856 25.454 3.684 1.508 3.684 1.508 6.029-1.507.335-.335.67-.67 1.005-.837 3.349-2.177 13.899-1.842 17.248.502-1.005 1.173-2.344.67-3.517.503-3.349-.503-6.698-.67-10.047-.335-1.842.335-3.35 1.005-3.684 3.182-.335 2.846-.168 5.526 1.507 8.038 2.177 3.35 5.526 4.521 9.378 4.186 2.846-.167 5.024-1.507 5.693-4.354.503-2.512.838-5.023 4.354-4.856.335 0 .838-.502.838-1.005.837-3.684 2.847-6.363 6.698-8.206-5.861-2.01-11.052-4.186-15.909-7.2-5.694-3.517-10.383-8.374-14.737-13.565zM12.655 199.117H45.94c1.172 0 2.847-.335 2.847 1.172 0 1.34-1.675.837-2.68 1.005-13.062 1.34-26.124.502-39.186.67 4.094.167 12.516 0-3.895 0-1.005 0-2.847.67-3.014-.838-.168-1.339 1.674-1.339 2.68-1.674 1.171-.335 2.344-.168 3.516-.168 13.9-.167 3.132-.167 6.448-.167zM63.523 5.697c1.674 1.005 2.177 0 2.846-1.172 1.005-1.843 2.68-2.345 4.522-1.675 1.34.502 2.01 1.842 1.675 3.517-.335 1.842-1.675 2.847-3.517 2.68-1.507-.168-2.512.167-3.517 1.506-1.172 1.507-3.014 1.842-4.689.838-1.34-.67-1.507-2.177-1.005-3.35.67-1.842 2.177-2.344 3.685-2.344zm5.358 1.842c1.173-.168 2.01-.837 2.177-2.177 0-.837-.502-1.34-1.34-1.34-1.339 0-2.176.837-2.344 2.01-.335 1.172.503 1.507 1.507 1.507zM59.336 51.08c-5.861 2.344-9.043 6.363-9.21 13.061-2.68-2.177-4.187-4.186-5.192-6.866 2.345-.167 2.177 2.512 3.852 2.68 1.842-1.842.837-5.191 3.349-6.531 2.177-.837 4.02-2.68 7.2-2.345zm-3.182 54.09c-.837-.335-1.675-.502-2.68-.837-.67-.168-2.009-.335-1.841-1.173.334-1.507 1.507-.502 2.176-.167 3.015 1.172 3.015-1.507 3.852-3.014 1.172-2.01-.335-2.68-1.842-3.182-.502-.168-.837-.335-1.34-.503-.67-.334-1.842-.502-1.34-1.507.503-1.172 1.508 0 2.01.168 5.694 2.177 5.694 2.177 2.847 7.703 0 .837.168 2.512-1.842 2.512z" fill="#16013E"/><path d="M124.48 86.581c-2.177-.335-4.02-1.507-5.359-3.349-.335-.502-.503-1.172 0-1.674.67-.67 1.34-.335 1.842.167 2.177 2.512 4.354 3.35 7.201 1.005.502-.335 1.172-.335 1.674.167.67.67.168 1.34-.334 1.842-1.508 1.172-3.182 1.675-5.024 1.842zm53.923-78.54c-.335-1.507.502-2.01 1.172-2.68 1.005-1.004 1.507-2.009.168-3.18-.503-.503-1.173-1.173-.503-1.843 1.005-1.005 1.507.502 1.675 1.005.837 2.847 4.019-1.507 3.684.837-.335 1.675-1.34 2.847.167 4.354.168.168.168.837.168 1.34 0 .167-.67.335-.837.167-3.182-1.004-3.852-1.004-5.694 0zM20.485 120.074c-2.01 2.68-3.852 5.527-7.369 8.206.838-2.344 2.345-4.186 0-5.526-.335-.168.335-1.507.838-2.01.335-.335.837-.502 1.172-.335 1.675.503.167 2.01.837 3.015 1.842-.838 2.01-3.517 4.522-3.35zM192.47 59.453c-2.847.67-5.526.837-8.708.502 1.339-1.675 3.014-.837 4.019-1.34.502-.837-.503-1.172-.503-1.842 0-.837.503-1.172 1.34-1.34.67 0 1.34.503 1.172 1.005-1.172 2.512 1.173 2.177 2.68 3.014zm16.913 52.416c2.512.502 3.182-3.015 6.531-2.345-3.517 3.014-6.866 5.024-10.55 6.699.67-2.177 3.182-2.512 4.019-4.354zm-60.956 21.937c-1.172.837-3.517.837-1.842 3.014.502.67-.168 1.005-.837 1.173-.503 0-1.34.335-1.508-.335-.502-1.675.168-3.349.838-4.689.837-1.34 2.177-.335 3.349.837z" fill="#16013E"/><path d="M209.551 111.869c-1.508.502-3.015 1.172-3.685-.838-.335-.837-.167-1.842.67-2.512.67-.502 1.507-.669 2.177-.167 1.675 1.005 1.005 2.344.838 3.517zm4.521 4.688c-.335 1.173-.838 2.01-2.177 1.843-1.34 0-1.843-.838-1.843-2.01 0-1.172.838-1.675 1.843-1.675 1.339 0 2.177.503 2.177 1.842zm-102.32-73.181c3.35-.167 6.364.503 8.708 2.68.503.502 1.173 1.172.503 2.177-.67.837-1.34.67-2.01 0-4.354-3.517-8.875-2.345-13.564-.67-1.172.502-2.68 1.507-3.182-.335-.502-1.507 1.34-1.675 2.177-2.01 2.344-1.172 4.856-2.177 7.368-1.842zm7.201 19.761c-.167 1.34-.837 1.842-2.009 1.842-1.34 0-2.01-.838-2.177-2.177-.168-1.507 1.005-1.675 2.009-1.675 1.173 0 2.01.837 2.177 2.01z" fill="#16013E"/></svg>