<svg width="100" height="34" fill="none" xmlns="http://www.w3.org/2000/svg"><path d="M8.088 20.533s-.245-.933-.245-1.866C7.108 20.067 6.127 21 4.167 21 1.47 21 0 19.133 0 15.867c0-3.034 1.716-4.9 3.922-6.067 2.45-1.167 3.921-2.333 3.921-4.667C7.843 2.8 7.108 1.4 5.147 1.4c-1.96 0-2.941 1.4-2.941 3.733v.7H.736v-.7C.735 2.1 1.96 0 5.146 0 8.333 0 9.56 2.1 9.56 5.6v11.667c0 1.633.245 3.5.245 3.5H8.088v-.234zM7.843 8.4c-.49.933-1.225 1.633-2.941 2.567-2.451 1.166-3.186 2.566-3.186 4.9 0 2.566.98 3.733 2.696 3.733 1.715 0 3.431-1.633 3.431-3.967V8.4zM16.296 21c-2.862 0-4.531-1.867-4.531-5.367V5.367c0-3.5 1.669-5.367 4.53-5.367 2.624 0 4.293 1.867 4.293 5.367v.466h-1.43v-.466c0-2.567-.955-3.967-2.862-3.967-1.908 0-2.862 1.4-2.862 3.967V15.4c0 2.567.954 3.967 2.862 3.967 1.907 0 2.861-1.4 2.861-3.967v-.233h1.431v.466c0 3.5-1.67 5.367-4.292 5.367zm10.664 0c-2.695 0-4.41-1.867-4.41-5.367V5.367c0-3.5 1.715-5.367 4.41-5.367 2.697 0 4.413 1.867 4.413 5.367v.466h-1.471v-.466c0-2.567-.98-3.967-2.941-3.967C25 1.4 24.02 2.8 24.02 5.367V15.4c0 2.567.98 3.967 2.94 3.967 1.962 0 2.942-1.4 2.942-3.967v-.233h1.47v.466c0 3.5-1.715 5.367-4.411 5.367zM52.064 5.833V4.667c0-1.867-.929-3.267-2.554-3.267-1.625 0-2.786 1.167-2.786 3.267 0 1.4.696 2.566 1.625 3.5l3.25 3.033c1.394 1.167 2.323 2.567 2.323 4.9 0 3.033-1.626 4.9-4.412 4.9-3.25 0-4.412-2.333-4.412-5.133v-.934h1.393v.934c0 2.333.93 3.733 3.019 3.733 1.858 0 3.019-1.4 3.019-3.5 0-1.4-.697-2.567-1.626-3.733L47.42 9.333c-1.393-1.166-2.322-2.566-2.322-4.666 0-2.8 1.626-4.667 4.18-4.667 2.786 0 4.18 1.867 4.18 4.667V5.6h-1.394v.233zM60.659 21c-2.766 0-4.777-1.867-4.777-5.367V5.367c0-3.5 2.011-5.367 4.777-5.367 3.016 0 5.027 1.867 5.027 5.367V15.4c0 3.733-2.01 5.6-5.027 5.6zm3.268-15.633c0-2.567-1.257-3.967-3.268-3.967S57.39 2.8 57.39 5.367V15.4c0 2.567 1.257 3.967 3.268 3.967 2.01 0 3.268-1.4 3.268-3.967V5.367zM75.163 21V5.489c0-2.625-.653-4.057-2.396-4.057-1.96 0-2.832 1.67-2.832 4.534V21h-1.308V.239h1.308v1.67C70.153.716 71.46 0 72.767 0c2.614 0 3.704 1.67 3.704 5.489V21h-1.308zM98.142 5.833V4.667c0-1.867-.928-3.267-2.554-3.267-1.625 0-2.786 1.167-2.786 3.267 0 1.4.697 2.566 1.625 3.5l3.251 3.033c1.393 1.167 2.322 2.567 2.322 4.9 0 2.8-1.625 4.9-4.412 4.9-3.25 0-4.411-2.333-4.411-5.133v-.934h1.393v.934c0 2.333.929 3.733 3.018 3.733 1.858 0 3.019-1.4 3.019-3.5 0-1.4-.697-2.567-1.626-3.733l-3.25-3.034c-1.393-1.166-2.322-2.566-2.322-4.666 0-2.8 1.625-4.667 4.18-4.667 2.553 0 3.947 1.867 3.947 4.667V5.6h-1.394v.233zM87.822 0v15.511c0 2.625-1.16 4.057-3.018 4.057-1.858 0-3.019-1.432-3.019-4.057V0h-1.393v15.511c0 3.819 1.858 5.489 4.412 5.489s4.412-1.91 4.412-5.489V0h-1.394zM41.744 13.169v2.394c0 2.634-1.161 4.07-3.019 4.07-1.857 0-3.018-1.436-3.018-4.07V0h-1.393v15.563c0 3.353 1.625 5.268 3.947 5.507v10.057c-.464.24-.929.718-.929 1.436 0 .958.697 1.437 1.393 1.437.93 0 1.394-.718 1.394-1.437 0-.718-.465-1.197-.93-1.436V21.31c2.323-.24 3.948-2.155 3.948-5.507V0h-1.393v13.169z" fill="#F0F0F0"/></svg>