<svg width="75" height="23" fill="none" xmlns="http://www.w3.org/2000/svg"><path d="M2.996 19.714v-7.151h9.503V9.76H2.996V2.836h10.308V0H0v22.549h13.465v-2.835H2.995zm37.44 2.835h3.318l-5.315-9.02c2.706-.966 4.67-3.575 4.67-6.539 0-3.865-3.156-6.99-7.022-6.99h-9.02v22.549h2.996v-8.633h5.316l5.057 8.633zM30.063 2.803h6.024c2.223 0 4.027 1.868 4.027 4.187 0 2.32-1.804 4.22-4.027 4.22h-6.024V2.803zm41.533 19.746h3.19L66.377 0h-3.382l-8.408 22.549h3.19l1.835-5.057H69.76l1.836 5.057zm-10.952-7.86l4.027-11.113 4.058 11.113h-8.085z" fill="#F0F0F0"/></svg>