<svg width="433" height="30" fill="none" xmlns="http://www.w3.org/2000/svg"><path d="M56.016 23.193H52L61.947.756h3.243l9.947 22.437h-3.954L63.09 3.908h1.081l-8.155 19.285zm.37-5.262l1.514-3.152h11.214l1.451 3.152H56.388zm26.474 5.483c-1.914 0-3.356-.536-4.324-1.607-.947-1.093-1.42-2.731-1.42-4.916V7.279h3.86v9.643c0 1.156.237 2.007.711 2.553.474.546 1.184.82 2.132.82 1.132 0 2.038-.379 2.718-1.135.68-.757 1.02-1.765 1.02-3.026V7.28h3.892v15.914h-3.77v-3.277l.403-.032c-.454 1.156-1.133 2.038-2.04 2.648-.905.588-1.966.882-3.181.882zm27.671-.221h-3.8V19.16l.371.567c-.35 1.176-1.019 2.09-2.008 2.741-.968.63-2.111.946-3.429.946-1.359 0-2.564-.336-3.614-1.009-1.03-.693-1.833-1.67-2.41-2.93-.576-1.26-.865-2.72-.865-4.38 0-1.66.278-3.11.835-4.35.576-1.239 1.39-2.195 2.44-2.867 1.05-.672 2.255-1.008 3.614-1.008 1.318 0 2.461.336 3.429 1.008a4.957 4.957 0 012.008 2.71l-.433.473V0h3.862v23.193zm-7.816-2.804c1.277 0 2.266-.452 2.966-1.355.7-.904 1.05-2.196 1.05-3.876 0-1.66-.35-2.942-1.05-3.845-.7-.903-1.689-1.355-2.966-1.355-1.297 0-2.306.452-3.027 1.355-.72.882-1.081 2.143-1.081 3.781 0 1.681.36 2.984 1.081 3.908.721.925 1.73 1.387 3.027 1.387zm11.991 2.804V7.28h3.861v15.914h-3.861zM114.52.063h4.294v3.876h-4.294V.063zm15.315 23.351c-1.627 0-3.038-.336-4.232-1.009a6.877 6.877 0 01-2.719-2.836c-.638-1.24-.957-2.71-.957-4.411 0-1.681.319-3.141.957-4.38.639-1.261 1.545-2.228 2.719-2.9 1.194-.672 2.605-1.008 4.232-1.008 1.586 0 2.965.336 4.139 1.008 1.195.672 2.111 1.639 2.75 2.9.659 1.239.988 2.699.988 4.38 0 1.701-.329 3.172-.988 4.411a6.82 6.82 0 01-2.75 2.837c-1.174.672-2.553 1.008-4.139 1.008zm0-3.025c1.277 0 2.255-.431 2.935-1.292.7-.883 1.05-2.196 1.05-3.94 0-1.722-.35-3.014-1.05-3.876-.68-.882-1.658-1.323-2.935-1.323-1.298 0-2.307.441-3.027 1.323-.701.862-1.051 2.154-1.051 3.877 0 1.743.35 3.056 1.051 3.939.7.861 1.709 1.292 3.027 1.292zm29.94 3.056c-2.183 0-4.078-.462-5.684-1.386-1.606-.946-2.842-2.28-3.707-4.002-.844-1.723-1.267-3.76-1.267-6.114 0-2.332.423-4.348 1.267-6.05.865-1.723 2.101-3.046 3.707-3.97 1.606-.946 3.501-1.419 5.684-1.419 1.483 0 2.873.231 4.17.693 1.318.442 2.41 1.093 3.275 1.954l-1.298 2.962c-1.009-.819-1.997-1.407-2.965-1.764a8.498 8.498 0 00-3.12-.567c-2.122 0-3.769.703-4.943 2.11-1.153 1.387-1.73 3.404-1.73 6.051 0 2.647.577 4.685 1.73 6.114 1.174 1.407 2.821 2.111 4.943 2.111a8.944 8.944 0 003.12-.536c.968-.378 1.956-.977 2.965-1.796l1.298 2.962c-.865.862-1.957 1.523-3.275 1.986-1.297.44-2.687.661-4.17.661zm10.83-.252V0h3.861v23.193h-3.861zm21.431-1.764c-.741.63-1.658 1.123-2.749 1.48a10.872 10.872 0 01-3.274.505c-1.689 0-3.151-.326-4.387-.977a6.722 6.722 0 01-2.811-2.836c-.659-1.24-.989-2.71-.989-4.412 0-1.639.32-3.078.958-4.317.638-1.26 1.524-2.238 2.657-2.93 1.132-.715 2.44-1.072 3.923-1.072 1.441 0 2.677.325 3.707.977 1.029.63 1.822 1.544 2.378 2.741.577 1.198.865 2.616.865 4.254v.6h-11.09l.031-2.112h8.773l-1.05 1.071c.021-1.533-.278-2.7-.896-3.498-.597-.798-1.472-1.197-2.626-1.197-1.235 0-2.193.452-2.872 1.355-.68.882-1.02 2.153-1.02 3.813 0 1.89.381 3.288 1.143 4.191.762.883 1.915 1.324 3.46 1.324.844 0 1.668-.137 2.471-.41a8.147 8.147 0 002.286-1.26l1.112 2.71zm9.603 1.985c-1.359 0-2.564-.326-3.614-.977-1.051-.672-1.864-1.618-2.441-2.836-.556-1.24-.834-2.69-.834-4.349 0-1.68.288-3.14.865-4.38.577-1.26 1.38-2.238 2.41-2.93 1.05-.715 2.255-1.072 3.614-1.072 1.318 0 2.461.336 3.429 1.008.988.651 1.658 1.565 2.008 2.742l-.371.22V7.28h3.8v15.913h-3.8v-3.592l.371.126c-.35 1.176-1.02 2.09-2.008 2.741-.968.63-2.111.946-3.429.946zm1.05-3.025c1.277 0 2.265-.452 2.966-1.355.7-.904 1.05-2.185 1.05-3.845 0-1.702-.35-2.994-1.05-3.876-.701-.903-1.689-1.355-2.966-1.355-1.297 0-2.306.462-3.027 1.386-.721.925-1.081 2.227-1.081 3.908 0 1.639.36 2.91 1.081 3.813.721.883 1.73 1.324 3.027 1.324zm11.99 2.804V11.786c0-.757-.02-1.513-.062-2.27a19.91 19.91 0 00-.185-2.237h3.645l.34 3.152-.34.094c.494-1.197 1.226-2.1 2.193-2.71.989-.63 2.122-.945 3.399-.945 3.706 0 5.56 2.185 5.56 6.554v9.77h-3.862v-9.612c0-1.24-.236-2.143-.71-2.71-.474-.588-1.205-.883-2.193-.883-1.195 0-2.152.39-2.873 1.166-.7.757-1.05 1.765-1.05 3.026v9.012h-3.862zm18.645-6.933v-3.12h9.298v3.12h-9.298zm22.874 7.185c-3.027 0-5.324-.787-6.889-2.363-1.544-1.576-2.317-3.897-2.317-6.964V.756h3.893v13.582c0 1.933.443 3.404 1.328 4.412.906.987 2.235 1.481 3.985 1.481 1.689 0 2.976-.504 3.861-1.513.907-1.008 1.36-2.468 1.36-4.38V.756h3.954v13.362c0 3.046-.793 5.367-2.379 6.964-1.565 1.576-3.83 2.363-6.796 2.363zM269.674 30V11.786c0-.736-.021-1.481-.062-2.238a20.301 20.301 0 00-.185-2.269h3.645l.34 3.152-.217.189c.33-1.177.979-2.09 1.946-2.742.968-.672 2.111-1.008 3.429-1.008 1.36 0 2.554.357 3.584 1.071 1.05.693 1.874 1.67 2.471 2.93.597 1.24.896 2.7.896 4.381 0 1.66-.299 3.11-.896 4.349-.597 1.218-1.411 2.164-2.44 2.836-1.03.651-2.235.977-3.615.977-1.318 0-2.461-.315-3.429-.946-.967-.65-1.616-1.565-1.946-2.741l.34-.504V30h-3.861zm7.908-9.611c1.277 0 2.265-.441 2.965-1.324.701-.903 1.051-2.174 1.051-3.813 0-1.68-.35-2.983-1.051-3.908-.7-.924-1.688-1.386-2.965-1.386-1.318 0-2.327.452-3.027 1.355-.68.882-1.02 2.174-1.02 3.876 0 1.66.34 2.941 1.02 3.845.7.903 1.709 1.355 3.027 1.355zm21.671 2.804h-4.016L305.184.756h3.244l9.947 22.437h-3.955l-8.093-19.285h1.081l-8.155 19.285zm.371-5.262l1.513-3.152h11.214l1.452 3.152h-14.179zm26.325 5.483c-2.842 0-5.086-.662-6.734-1.985l1.081-2.773a8.966 8.966 0 002.688 1.418 9.714 9.714 0 003.027.472c.947 0 1.668-.157 2.163-.473.494-.315.741-.756.741-1.323 0-.483-.175-.861-.525-1.134-.35-.295-.948-.547-1.792-.757l-2.595-.599c-1.421-.315-2.492-.84-3.212-1.575-.701-.756-1.051-1.712-1.051-2.868 0-.966.268-1.817.803-2.552.536-.757 1.288-1.345 2.255-1.765.968-.42 2.091-.63 3.368-.63a9.73 9.73 0 013.212.535c1.03.337 1.926.83 2.688 1.482l-1.112 2.71c-.783-.61-1.586-1.061-2.41-1.355a6.963 6.963 0 00-2.409-.442c-.886 0-1.576.168-2.07.505-.494.336-.741.798-.741 1.386 0 .462.144.83.432 1.103.309.273.834.494 1.576.662l2.625.662c1.545.336 2.667.882 3.367 1.638.721.736 1.082 1.712 1.082 2.931 0 1.45-.577 2.605-1.73 3.466-1.154.84-2.729 1.26-4.727 1.26zm15.476 0c-2.842 0-5.087-.662-6.734-1.985l1.081-2.773a8.966 8.966 0 002.688 1.418 9.71 9.71 0 003.027.472c.947 0 1.668-.157 2.162-.473.494-.315.742-.756.742-1.323 0-.483-.175-.861-.526-1.134-.35-.295-.947-.547-1.791-.757l-2.595-.599c-1.421-.315-2.492-.84-3.213-1.575-.7-.756-1.05-1.712-1.05-2.868 0-.966.268-1.817.803-2.552.536-.757 1.287-1.345 2.255-1.765.968-.42 2.09-.63 3.367-.63 1.112 0 2.183.178 3.213.535 1.03.337 1.926.83 2.687 1.482l-1.112 2.71c-.782-.61-1.585-1.061-2.409-1.355a6.964 6.964 0 00-2.41-.442c-.885 0-1.575.168-2.069.505-.495.336-.742.798-.742 1.386 0 .462.144.83.433 1.103.309.273.834.494 1.575.662l2.626.662c1.545.336 2.667.882 3.367 1.638.721.736 1.081 1.712 1.081 2.931 0 1.45-.576 2.605-1.73 3.466-1.153.84-2.728 1.26-4.726 1.26zm9.73-.221V7.28h3.861v15.914h-3.861zM350.97.063h4.294v3.876h-4.294V.063zm13.955 23.351c-2.842 0-5.087-.662-6.734-1.985l1.081-2.773a8.966 8.966 0 002.688 1.418 9.714 9.714 0 003.027.472c.947 0 1.668-.157 2.162-.473.495-.315.742-.756.742-1.323 0-.483-.175-.861-.525-1.134-.35-.295-.948-.547-1.792-.757l-2.595-.599c-1.421-.315-2.492-.84-3.213-1.575-.7-.756-1.05-1.712-1.05-2.868 0-.966.268-1.817.803-2.552.536-.757 1.287-1.345 2.255-1.765.968-.42 2.091-.63 3.367-.63 1.113 0 2.183.178 3.213.535 1.03.337 1.926.83 2.688 1.482l-1.112 2.71c-.783-.61-1.586-1.061-2.41-1.355a6.963 6.963 0 00-2.409-.442c-.886 0-1.576.168-2.07.505-.494.336-.742.798-.742 1.386 0 .462.145.83.433 1.103.309.273.834.494 1.575.662l2.626.662c1.545.336 2.667.882 3.367 1.638.721.736 1.081 1.712 1.081 2.931 0 1.45-.576 2.605-1.729 3.466-1.154.84-2.729 1.26-4.727 1.26zm7.664-13.172V7.279h10.997v2.963h-10.997zm10.997 9.674v3.12a5.243 5.243 0 01-1.235.283 7.98 7.98 0 01-1.267.095c-1.75 0-3.11-.504-4.077-1.513-.948-1.008-1.421-2.458-1.421-4.349V3.403l3.861-1.323v15.283c0 .715.113 1.282.34 1.702.226.4.525.683.896.851a3.25 3.25 0 001.297.252c.268 0 .525-.02.772-.063.247-.042.525-.105.834-.189zm8.709 3.498c-1.36 0-2.564-.326-3.615-.977-1.05-.672-1.863-1.618-2.44-2.836-.556-1.24-.834-2.69-.834-4.349 0-1.68.288-3.14.865-4.38.577-1.26 1.38-2.238 2.409-2.93 1.051-.715 2.255-1.072 3.615-1.072 1.318 0 2.461.336 3.429 1.008.988.651 1.657 1.565 2.008 2.742l-.371.22V7.28h3.799v15.913h-3.799v-3.592l.371.126c-.351 1.176-1.02 2.09-2.008 2.741-.968.63-2.111.946-3.429.946zm1.05-3.025c1.277 0 2.265-.452 2.966-1.355.7-.904 1.05-2.185 1.05-3.845 0-1.702-.35-2.994-1.05-3.876-.701-.903-1.689-1.355-2.966-1.355-1.297 0-2.307.462-3.027 1.386-.721.925-1.082 2.227-1.082 3.908 0 1.639.361 2.91 1.082 3.813.72.883 1.73 1.324 3.027 1.324zm11.99 2.804V11.786c0-.757-.021-1.513-.062-2.27a19.91 19.91 0 00-.185-2.237h3.645l.34 3.152-.34.094c.494-1.197 1.225-2.1 2.193-2.71.989-.63 2.122-.945 3.398-.945 3.707 0 5.561 2.185 5.561 6.554v9.77h-3.862v-9.612c0-1.24-.236-2.143-.71-2.71-.474-.588-1.205-.883-2.193-.883-1.195 0-2.152.39-2.873 1.166-.7.757-1.051 1.765-1.051 3.026v9.012h-3.861zm16.668-12.951V7.279H433v2.963h-10.997zM433 19.916v3.12a5.251 5.251 0 01-1.236.283 7.957 7.957 0 01-1.266.095c-1.751 0-3.11-.504-4.078-1.513-.947-1.008-1.421-2.458-1.421-4.349V3.403l3.862-1.323v15.283c0 .715.113 1.282.339 1.702.227.4.526.683.896.851.391.168.824.252 1.298.252.267 0 .525-.02.772-.063.247-.042.525-.105.834-.189zM5.7 3v19H0V3h5.7zM19 3v19h-5.7V3H19zm14 0v19h-5.7V3H33z" fill="#F0F0F0"/><path d="M56.016 23.193H52L61.947.756h3.243l9.947 22.437h-3.954L63.09 3.908h1.081l-8.155 19.285zm.37-5.262l1.514-3.152h11.214l1.451 3.152H56.388zm26.474 5.483c-1.914 0-3.356-.536-4.324-1.607-.947-1.093-1.42-2.731-1.42-4.916V7.279h3.86v9.643c0 1.156.237 2.007.711 2.553.474.546 1.184.82 2.132.82 1.132 0 2.038-.379 2.718-1.135.68-.757 1.02-1.765 1.02-3.026V7.28h3.892v15.914h-3.77v-3.277l.403-.032c-.454 1.156-1.133 2.038-2.04 2.648-.905.588-1.966.882-3.181.882zm27.671-.221h-3.8V19.16l.371.567c-.35 1.176-1.019 2.09-2.008 2.741-.968.63-2.111.946-3.429.946-1.359 0-2.564-.336-3.614-1.009-1.03-.693-1.833-1.67-2.41-2.93-.576-1.26-.865-2.72-.865-4.38 0-1.66.278-3.11.835-4.35.576-1.239 1.39-2.195 2.44-2.867 1.05-.672 2.255-1.008 3.614-1.008 1.318 0 2.461.336 3.429 1.008a4.957 4.957 0 012.008 2.71l-.433.473V0h3.862v23.193zm-7.816-2.804c1.277 0 2.266-.452 2.966-1.355.7-.904 1.05-2.196 1.05-3.876 0-1.66-.35-2.942-1.05-3.845-.7-.903-1.689-1.355-2.966-1.355-1.297 0-2.306.452-3.027 1.355-.72.882-1.081 2.143-1.081 3.781 0 1.681.36 2.984 1.081 3.908.721.925 1.73 1.387 3.027 1.387zm11.991 2.804V7.28h3.861v15.914h-3.861zM114.52.063h4.294v3.876h-4.294V.063zm15.315 23.351c-1.627 0-3.038-.336-4.232-1.009a6.877 6.877 0 01-2.719-2.836c-.638-1.24-.957-2.71-.957-4.411 0-1.681.319-3.141.957-4.38.639-1.261 1.545-2.228 2.719-2.9 1.194-.672 2.605-1.008 4.232-1.008 1.586 0 2.965.336 4.139 1.008 1.195.672 2.111 1.639 2.75 2.9.659 1.239.988 2.699.988 4.38 0 1.701-.329 3.172-.988 4.411a6.82 6.82 0 01-2.75 2.837c-1.174.672-2.553 1.008-4.139 1.008zm0-3.025c1.277 0 2.255-.431 2.935-1.292.7-.883 1.05-2.196 1.05-3.94 0-1.722-.35-3.014-1.05-3.876-.68-.882-1.658-1.323-2.935-1.323-1.298 0-2.307.441-3.027 1.323-.701.862-1.051 2.154-1.051 3.877 0 1.743.35 3.056 1.051 3.939.7.861 1.709 1.292 3.027 1.292zm29.94 3.056c-2.183 0-4.078-.462-5.684-1.386-1.606-.946-2.842-2.28-3.707-4.002-.844-1.723-1.267-3.76-1.267-6.114 0-2.332.423-4.348 1.267-6.05.865-1.723 2.101-3.046 3.707-3.97 1.606-.946 3.501-1.419 5.684-1.419 1.483 0 2.873.231 4.17.693 1.318.442 2.41 1.093 3.275 1.954l-1.298 2.962c-1.009-.819-1.997-1.407-2.965-1.764a8.498 8.498 0 00-3.12-.567c-2.122 0-3.769.703-4.943 2.11-1.153 1.387-1.73 3.404-1.73 6.051 0 2.647.577 4.685 1.73 6.114 1.174 1.407 2.821 2.111 4.943 2.111a8.944 8.944 0 003.12-.536c.968-.378 1.956-.977 2.965-1.796l1.298 2.962c-.865.862-1.957 1.523-3.275 1.986-1.297.44-2.687.661-4.17.661zm10.83-.252V0h3.861v23.193h-3.861zm21.431-1.764c-.741.63-1.658 1.123-2.749 1.48a10.872 10.872 0 01-3.274.505c-1.689 0-3.151-.326-4.387-.977a6.722 6.722 0 01-2.811-2.836c-.659-1.24-.989-2.71-.989-4.412 0-1.639.32-3.078.958-4.317.638-1.26 1.524-2.238 2.657-2.93 1.132-.715 2.44-1.072 3.923-1.072 1.441 0 2.677.325 3.707.977 1.029.63 1.822 1.544 2.378 2.741.577 1.198.865 2.616.865 4.254v.6h-11.09l.031-2.112h8.773l-1.05 1.071c.021-1.533-.278-2.7-.896-3.498-.597-.798-1.472-1.197-2.626-1.197-1.235 0-2.193.452-2.872 1.355-.68.882-1.02 2.153-1.02 3.813 0 1.89.381 3.288 1.143 4.191.762.883 1.915 1.324 3.46 1.324.844 0 1.668-.137 2.471-.41a8.147 8.147 0 002.286-1.26l1.112 2.71zm9.603 1.985c-1.359 0-2.564-.326-3.614-.977-1.051-.672-1.864-1.618-2.441-2.836-.556-1.24-.834-2.69-.834-4.349 0-1.68.288-3.14.865-4.38.577-1.26 1.38-2.238 2.41-2.93 1.05-.715 2.255-1.072 3.614-1.072 1.318 0 2.461.336 3.429 1.008.988.651 1.658 1.565 2.008 2.742l-.371.22V7.28h3.8v15.913h-3.8v-3.592l.371.126c-.35 1.176-1.02 2.09-2.008 2.741-.968.63-2.111.946-3.429.946zm1.05-3.025c1.277 0 2.265-.452 2.966-1.355.7-.904 1.05-2.185 1.05-3.845 0-1.702-.35-2.994-1.05-3.876-.701-.903-1.689-1.355-2.966-1.355-1.297 0-2.306.462-3.027 1.386-.721.925-1.081 2.227-1.081 3.908 0 1.639.36 2.91 1.081 3.813.721.883 1.73 1.324 3.027 1.324zm11.99 2.804V11.786c0-.757-.02-1.513-.062-2.27a19.91 19.91 0 00-.185-2.237h3.645l.34 3.152-.34.094c.494-1.197 1.226-2.1 2.193-2.71.989-.63 2.122-.945 3.399-.945 3.706 0 5.56 2.185 5.56 6.554v9.77h-3.862v-9.612c0-1.24-.236-2.143-.71-2.71-.474-.588-1.205-.883-2.193-.883-1.195 0-2.152.39-2.873 1.166-.7.757-1.05 1.765-1.05 3.026v9.012h-3.862zm18.645-6.933v-3.12h9.298v3.12h-9.298zm22.874 7.185c-3.027 0-5.324-.787-6.889-2.363-1.544-1.576-2.317-3.897-2.317-6.964V.756h3.893v13.582c0 1.933.443 3.404 1.328 4.412.906.987 2.235 1.481 3.985 1.481 1.689 0 2.976-.504 3.861-1.513.907-1.008 1.36-2.468 1.36-4.38V.756h3.954v13.362c0 3.046-.793 5.367-2.379 6.964-1.565 1.576-3.83 2.363-6.796 2.363zM269.674 30V11.786c0-.736-.021-1.481-.062-2.238a20.301 20.301 0 00-.185-2.269h3.645l.34 3.152-.217.189c.33-1.177.979-2.09 1.946-2.742.968-.672 2.111-1.008 3.429-1.008 1.36 0 2.554.357 3.584 1.071 1.05.693 1.874 1.67 2.471 2.93.597 1.24.896 2.7.896 4.381 0 1.66-.299 3.11-.896 4.349-.597 1.218-1.411 2.164-2.44 2.836-1.03.651-2.235.977-3.615.977-1.318 0-2.461-.315-3.429-.946-.967-.65-1.616-1.565-1.946-2.741l.34-.504V30h-3.861zm7.908-9.611c1.277 0 2.265-.441 2.965-1.324.701-.903 1.051-2.174 1.051-3.813 0-1.68-.35-2.983-1.051-3.908-.7-.924-1.688-1.386-2.965-1.386-1.318 0-2.327.452-3.027 1.355-.68.882-1.02 2.174-1.02 3.876 0 1.66.34 2.941 1.02 3.845.7.903 1.709 1.355 3.027 1.355zm21.671 2.804h-4.016L305.184.756h3.244l9.947 22.437h-3.955l-8.093-19.285h1.081l-8.155 19.285zm.371-5.262l1.513-3.152h11.214l1.452 3.152h-14.179zm26.325 5.483c-2.842 0-5.086-.662-6.734-1.985l1.081-2.773a8.966 8.966 0 002.688 1.418 9.714 9.714 0 003.027.472c.947 0 1.668-.157 2.163-.473.494-.315.741-.756.741-1.323 0-.483-.175-.861-.525-1.134-.35-.295-.948-.547-1.792-.757l-2.595-.599c-1.421-.315-2.492-.84-3.212-1.575-.701-.756-1.051-1.712-1.051-2.868 0-.966.268-1.817.803-2.552.536-.757 1.288-1.345 2.255-1.765.968-.42 2.091-.63 3.368-.63a9.73 9.73 0 013.212.535c1.03.337 1.926.83 2.688 1.482l-1.112 2.71c-.783-.61-1.586-1.061-2.41-1.355a6.963 6.963 0 00-2.409-.442c-.886 0-1.576.168-2.07.505-.494.336-.741.798-.741 1.386 0 .462.144.83.432 1.103.309.273.834.494 1.576.662l2.625.662c1.545.336 2.667.882 3.367 1.638.721.736 1.082 1.712 1.082 2.931 0 1.45-.577 2.605-1.73 3.466-1.154.84-2.729 1.26-4.727 1.26zm15.476 0c-2.842 0-5.087-.662-6.734-1.985l1.081-2.773a8.966 8.966 0 002.688 1.418 9.71 9.71 0 003.027.472c.947 0 1.668-.157 2.162-.473.494-.315.742-.756.742-1.323 0-.483-.175-.861-.526-1.134-.35-.295-.947-.547-1.791-.757l-2.595-.599c-1.421-.315-2.492-.84-3.213-1.575-.7-.756-1.05-1.712-1.05-2.868 0-.966.268-1.817.803-2.552.536-.757 1.287-1.345 2.255-1.765.968-.42 2.09-.63 3.367-.63 1.112 0 2.183.178 3.213.535 1.03.337 1.926.83 2.687 1.482l-1.112 2.71c-.782-.61-1.585-1.061-2.409-1.355a6.964 6.964 0 00-2.41-.442c-.885 0-1.575.168-2.069.505-.495.336-.742.798-.742 1.386 0 .462.144.83.433 1.103.309.273.834.494 1.575.662l2.626.662c1.545.336 2.667.882 3.367 1.638.721.736 1.081 1.712 1.081 2.931 0 1.45-.576 2.605-1.73 3.466-1.153.84-2.728 1.26-4.726 1.26zm9.73-.221V7.28h3.861v15.914h-3.861zM350.97.063h4.294v3.876h-4.294V.063zm13.955 23.351c-2.842 0-5.087-.662-6.734-1.985l1.081-2.773a8.966 8.966 0 002.688 1.418 9.714 9.714 0 003.027.472c.947 0 1.668-.157 2.162-.473.495-.315.742-.756.742-1.323 0-.483-.175-.861-.525-1.134-.35-.295-.948-.547-1.792-.757l-2.595-.599c-1.421-.315-2.492-.84-3.213-1.575-.7-.756-1.05-1.712-1.05-2.868 0-.966.268-1.817.803-2.552.536-.757 1.287-1.345 2.255-1.765.968-.42 2.091-.63 3.367-.63 1.113 0 2.183.178 3.213.535 1.03.337 1.926.83 2.688 1.482l-1.112 2.71c-.783-.61-1.586-1.061-2.41-1.355a6.963 6.963 0 00-2.409-.442c-.886 0-1.576.168-2.07.505-.494.336-.742.798-.742 1.386 0 .462.145.83.433 1.103.309.273.834.494 1.575.662l2.626.662c1.545.336 2.667.882 3.367 1.638.721.736 1.081 1.712 1.081 2.931 0 1.45-.576 2.605-1.729 3.466-1.154.84-2.729 1.26-4.727 1.26zm7.664-13.172V7.279h10.997v2.963h-10.997zm10.997 9.674v3.12a5.243 5.243 0 01-1.235.283 7.98 7.98 0 01-1.267.095c-1.75 0-3.11-.504-4.077-1.513-.948-1.008-1.421-2.458-1.421-4.349V3.403l3.861-1.323v15.283c0 .715.113 1.282.34 1.702.226.4.525.683.896.851a3.25 3.25 0 001.297.252c.268 0 .525-.02.772-.063.247-.042.525-.105.834-.189zm8.709 3.498c-1.36 0-2.564-.326-3.615-.977-1.05-.672-1.863-1.618-2.44-2.836-.556-1.24-.834-2.69-.834-4.349 0-1.68.288-3.14.865-4.38.577-1.26 1.38-2.238 2.409-2.93 1.051-.715 2.255-1.072 3.615-1.072 1.318 0 2.461.336 3.429 1.008.988.651 1.657 1.565 2.008 2.742l-.371.22V7.28h3.799v15.913h-3.799v-3.592l.371.126c-.351 1.176-1.02 2.09-2.008 2.741-.968.63-2.111.946-3.429.946zm1.05-3.025c1.277 0 2.265-.452 2.966-1.355.7-.904 1.05-2.185 1.05-3.845 0-1.702-.35-2.994-1.05-3.876-.701-.903-1.689-1.355-2.966-1.355-1.297 0-2.307.462-3.027 1.386-.721.925-1.082 2.227-1.082 3.908 0 1.639.361 2.91 1.082 3.813.72.883 1.73 1.324 3.027 1.324zm11.99 2.804V11.786c0-.757-.021-1.513-.062-2.27a19.91 19.91 0 00-.185-2.237h3.645l.34 3.152-.34.094c.494-1.197 1.225-2.1 2.193-2.71.989-.63 2.122-.945 3.398-.945 3.707 0 5.561 2.185 5.561 6.554v9.77h-3.862v-9.612c0-1.24-.236-2.143-.71-2.71-.474-.588-1.205-.883-2.193-.883-1.195 0-2.152.39-2.873 1.166-.7.757-1.051 1.765-1.051 3.026v9.012h-3.861zm16.668-12.951V7.279H433v2.963h-10.997zM433 19.916v3.12a5.251 5.251 0 01-1.236.283 7.957 7.957 0 01-1.266.095c-1.751 0-3.11-.504-4.078-1.513-.947-1.008-1.421-2.458-1.421-4.349V3.403l3.862-1.323v15.283c0 .715.113 1.282.339 1.702.227.4.526.683.896.851.391.168.824.252 1.298.252.267 0 .525-.02.772-.063.247-.042.525-.105.834-.189zM5.7 3v19H0V3h5.7zM19 3v19h-5.7V3H19zm14 0v19h-5.7V3H33z" fill="#BCBCBC"/><path d="M56.016 23.193H52L61.947.756h3.243l9.947 22.437h-3.954L63.09 3.908h1.081l-8.155 19.285zm.37-5.262l1.514-3.152h11.214l1.451 3.152H56.388zm26.474 5.483c-1.914 0-3.356-.536-4.324-1.607-.947-1.093-1.42-2.731-1.42-4.916V7.279h3.86v9.643c0 1.156.237 2.007.711 2.553.474.546 1.184.82 2.132.82 1.132 0 2.038-.379 2.718-1.135.68-.757 1.02-1.765 1.02-3.026V7.28h3.892v15.914h-3.77v-3.277l.403-.032c-.454 1.156-1.133 2.038-2.04 2.648-.905.588-1.966.882-3.181.882zm27.671-.221h-3.8V19.16l.371.567c-.35 1.176-1.019 2.09-2.008 2.741-.968.63-2.111.946-3.429.946-1.359 0-2.564-.336-3.614-1.009-1.03-.693-1.833-1.67-2.41-2.93-.576-1.26-.865-2.72-.865-4.38 0-1.66.278-3.11.835-4.35.576-1.239 1.39-2.195 2.44-2.867 1.05-.672 2.255-1.008 3.614-1.008 1.318 0 2.461.336 3.429 1.008a4.957 4.957 0 012.008 2.71l-.433.473V0h3.862v23.193zm-7.816-2.804c1.277 0 2.266-.452 2.966-1.355.7-.904 1.05-2.196 1.05-3.876 0-1.66-.35-2.942-1.05-3.845-.7-.903-1.689-1.355-2.966-1.355-1.297 0-2.306.452-3.027 1.355-.72.882-1.081 2.143-1.081 3.781 0 1.681.36 2.984 1.081 3.908.721.925 1.73 1.387 3.027 1.387zm11.991 2.804V7.28h3.861v15.914h-3.861zM114.52.063h4.294v3.876h-4.294V.063zm15.315 23.351c-1.627 0-3.038-.336-4.232-1.009a6.877 6.877 0 01-2.719-2.836c-.638-1.24-.957-2.71-.957-4.411 0-1.681.319-3.141.957-4.38.639-1.261 1.545-2.228 2.719-2.9 1.194-.672 2.605-1.008 4.232-1.008 1.586 0 2.965.336 4.139 1.008 1.195.672 2.111 1.639 2.75 2.9.659 1.239.988 2.699.988 4.38 0 1.701-.329 3.172-.988 4.411a6.82 6.82 0 01-2.75 2.837c-1.174.672-2.553 1.008-4.139 1.008zm0-3.025c1.277 0 2.255-.431 2.935-1.292.7-.883 1.05-2.196 1.05-3.94 0-1.722-.35-3.014-1.05-3.876-.68-.882-1.658-1.323-2.935-1.323-1.298 0-2.307.441-3.027 1.323-.701.862-1.051 2.154-1.051 3.877 0 1.743.35 3.056 1.051 3.939.7.861 1.709 1.292 3.027 1.292zm29.94 3.056c-2.183 0-4.078-.462-5.684-1.386-1.606-.946-2.842-2.28-3.707-4.002-.844-1.723-1.267-3.76-1.267-6.114 0-2.332.423-4.348 1.267-6.05.865-1.723 2.101-3.046 3.707-3.97 1.606-.946 3.501-1.419 5.684-1.419 1.483 0 2.873.231 4.17.693 1.318.442 2.41 1.093 3.275 1.954l-1.298 2.962c-1.009-.819-1.997-1.407-2.965-1.764a8.498 8.498 0 00-3.12-.567c-2.122 0-3.769.703-4.943 2.11-1.153 1.387-1.73 3.404-1.73 6.051 0 2.647.577 4.685 1.73 6.114 1.174 1.407 2.821 2.111 4.943 2.111a8.944 8.944 0 003.12-.536c.968-.378 1.956-.977 2.965-1.796l1.298 2.962c-.865.862-1.957 1.523-3.275 1.986-1.297.44-2.687.661-4.17.661zm10.83-.252V0h3.861v23.193h-3.861zm21.431-1.764c-.741.63-1.658 1.123-2.749 1.48a10.872 10.872 0 01-3.274.505c-1.689 0-3.151-.326-4.387-.977a6.722 6.722 0 01-2.811-2.836c-.659-1.24-.989-2.71-.989-4.412 0-1.639.32-3.078.958-4.317.638-1.26 1.524-2.238 2.657-2.93 1.132-.715 2.44-1.072 3.923-1.072 1.441 0 2.677.325 3.707.977 1.029.63 1.822 1.544 2.378 2.741.577 1.198.865 2.616.865 4.254v.6h-11.09l.031-2.112h8.773l-1.05 1.071c.021-1.533-.278-2.7-.896-3.498-.597-.798-1.472-1.197-2.626-1.197-1.235 0-2.193.452-2.872 1.355-.68.882-1.02 2.153-1.02 3.813 0 1.89.381 3.288 1.143 4.191.762.883 1.915 1.324 3.46 1.324.844 0 1.668-.137 2.471-.41a8.147 8.147 0 002.286-1.26l1.112 2.71zm9.603 1.985c-1.359 0-2.564-.326-3.614-.977-1.051-.672-1.864-1.618-2.441-2.836-.556-1.24-.834-2.69-.834-4.349 0-1.68.288-3.14.865-4.38.577-1.26 1.38-2.238 2.41-2.93 1.05-.715 2.255-1.072 3.614-1.072 1.318 0 2.461.336 3.429 1.008.988.651 1.658 1.565 2.008 2.742l-.371.22V7.28h3.8v15.913h-3.8v-3.592l.371.126c-.35 1.176-1.02 2.09-2.008 2.741-.968.63-2.111.946-3.429.946zm1.05-3.025c1.277 0 2.265-.452 2.966-1.355.7-.904 1.05-2.185 1.05-3.845 0-1.702-.35-2.994-1.05-3.876-.701-.903-1.689-1.355-2.966-1.355-1.297 0-2.306.462-3.027 1.386-.721.925-1.081 2.227-1.081 3.908 0 1.639.36 2.91 1.081 3.813.721.883 1.73 1.324 3.027 1.324zm11.99 2.804V11.786c0-.757-.02-1.513-.062-2.27a19.91 19.91 0 00-.185-2.237h3.645l.34 3.152-.34.094c.494-1.197 1.226-2.1 2.193-2.71.989-.63 2.122-.945 3.399-.945 3.706 0 5.56 2.185 5.56 6.554v9.77h-3.862v-9.612c0-1.24-.236-2.143-.71-2.71-.474-.588-1.205-.883-2.193-.883-1.195 0-2.152.39-2.873 1.166-.7.757-1.05 1.765-1.05 3.026v9.012h-3.862zm18.645-6.933v-3.12h9.298v3.12h-9.298zm22.874 7.185c-3.027 0-5.324-.787-6.889-2.363-1.544-1.576-2.317-3.897-2.317-6.964V.756h3.893v13.582c0 1.933.443 3.404 1.328 4.412.906.987 2.235 1.481 3.985 1.481 1.689 0 2.976-.504 3.861-1.513.907-1.008 1.36-2.468 1.36-4.38V.756h3.954v13.362c0 3.046-.793 5.367-2.379 6.964-1.565 1.576-3.83 2.363-6.796 2.363zM269.674 30V11.786c0-.736-.021-1.481-.062-2.238a20.301 20.301 0 00-.185-2.269h3.645l.34 3.152-.217.189c.33-1.177.979-2.09 1.946-2.742.968-.672 2.111-1.008 3.429-1.008 1.36 0 2.554.357 3.584 1.071 1.05.693 1.874 1.67 2.471 2.93.597 1.24.896 2.7.896 4.381 0 1.66-.299 3.11-.896 4.349-.597 1.218-1.411 2.164-2.44 2.836-1.03.651-2.235.977-3.615.977-1.318 0-2.461-.315-3.429-.946-.967-.65-1.616-1.565-1.946-2.741l.34-.504V30h-3.861zm7.908-9.611c1.277 0 2.265-.441 2.965-1.324.701-.903 1.051-2.174 1.051-3.813 0-1.68-.35-2.983-1.051-3.908-.7-.924-1.688-1.386-2.965-1.386-1.318 0-2.327.452-3.027 1.355-.68.882-1.02 2.174-1.02 3.876 0 1.66.34 2.941 1.02 3.845.7.903 1.709 1.355 3.027 1.355zm21.671 2.804h-4.016L305.184.756h3.244l9.947 22.437h-3.955l-8.093-19.285h1.081l-8.155 19.285zm.371-5.262l1.513-3.152h11.214l1.452 3.152h-14.179zm26.325 5.483c-2.842 0-5.086-.662-6.734-1.985l1.081-2.773a8.966 8.966 0 002.688 1.418 9.714 9.714 0 003.027.472c.947 0 1.668-.157 2.163-.473.494-.315.741-.756.741-1.323 0-.483-.175-.861-.525-1.134-.35-.295-.948-.547-1.792-.757l-2.595-.599c-1.421-.315-2.492-.84-3.212-1.575-.701-.756-1.051-1.712-1.051-2.868 0-.966.268-1.817.803-2.552.536-.757 1.288-1.345 2.255-1.765.968-.42 2.091-.63 3.368-.63a9.73 9.73 0 013.212.535c1.03.337 1.926.83 2.688 1.482l-1.112 2.71c-.783-.61-1.586-1.061-2.41-1.355a6.963 6.963 0 00-2.409-.442c-.886 0-1.576.168-2.07.505-.494.336-.741.798-.741 1.386 0 .462.144.83.432 1.103.309.273.834.494 1.576.662l2.625.662c1.545.336 2.667.882 3.367 1.638.721.736 1.082 1.712 1.082 2.931 0 1.45-.577 2.605-1.73 3.466-1.154.84-2.729 1.26-4.727 1.26zm15.476 0c-2.842 0-5.087-.662-6.734-1.985l1.081-2.773a8.966 8.966 0 002.688 1.418 9.71 9.71 0 003.027.472c.947 0 1.668-.157 2.162-.473.494-.315.742-.756.742-1.323 0-.483-.175-.861-.526-1.134-.35-.295-.947-.547-1.791-.757l-2.595-.599c-1.421-.315-2.492-.84-3.213-1.575-.7-.756-1.05-1.712-1.05-2.868 0-.966.268-1.817.803-2.552.536-.757 1.287-1.345 2.255-1.765.968-.42 2.09-.63 3.367-.63 1.112 0 2.183.178 3.213.535 1.03.337 1.926.83 2.687 1.482l-1.112 2.71c-.782-.61-1.585-1.061-2.409-1.355a6.964 6.964 0 00-2.41-.442c-.885 0-1.575.168-2.069.505-.495.336-.742.798-.742 1.386 0 .462.144.83.433 1.103.309.273.834.494 1.575.662l2.626.662c1.545.336 2.667.882 3.367 1.638.721.736 1.081 1.712 1.081 2.931 0 1.45-.576 2.605-1.73 3.466-1.153.84-2.728 1.26-4.726 1.26zm9.73-.221V7.28h3.861v15.914h-3.861zM350.97.063h4.294v3.876h-4.294V.063zm13.955 23.351c-2.842 0-5.087-.662-6.734-1.985l1.081-2.773a8.966 8.966 0 002.688 1.418 9.714 9.714 0 003.027.472c.947 0 1.668-.157 2.162-.473.495-.315.742-.756.742-1.323 0-.483-.175-.861-.525-1.134-.35-.295-.948-.547-1.792-.757l-2.595-.599c-1.421-.315-2.492-.84-3.213-1.575-.7-.756-1.05-1.712-1.05-2.868 0-.966.268-1.817.803-2.552.536-.757 1.287-1.345 2.255-1.765.968-.42 2.091-.63 3.367-.63 1.113 0 2.183.178 3.213.535 1.03.337 1.926.83 2.688 1.482l-1.112 2.71c-.783-.61-1.586-1.061-2.41-1.355a6.963 6.963 0 00-2.409-.442c-.886 0-1.576.168-2.07.505-.494.336-.742.798-.742 1.386 0 .462.145.83.433 1.103.309.273.834.494 1.575.662l2.626.662c1.545.336 2.667.882 3.367 1.638.721.736 1.081 1.712 1.081 2.931 0 1.45-.576 2.605-1.729 3.466-1.154.84-2.729 1.26-4.727 1.26zm7.664-13.172V7.279h10.997v2.963h-10.997zm10.997 9.674v3.12a5.243 5.243 0 01-1.235.283 7.98 7.98 0 01-1.267.095c-1.75 0-3.11-.504-4.077-1.513-.948-1.008-1.421-2.458-1.421-4.349V3.403l3.861-1.323v15.283c0 .715.113 1.282.34 1.702.226.4.525.683.896.851a3.25 3.25 0 001.297.252c.268 0 .525-.02.772-.063.247-.042.525-.105.834-.189zm8.709 3.498c-1.36 0-2.564-.326-3.615-.977-1.05-.672-1.863-1.618-2.44-2.836-.556-1.24-.834-2.69-.834-4.349 0-1.68.288-3.14.865-4.38.577-1.26 1.38-2.238 2.409-2.93 1.051-.715 2.255-1.072 3.615-1.072 1.318 0 2.461.336 3.429 1.008.988.651 1.657 1.565 2.008 2.742l-.371.22V7.28h3.799v15.913h-3.799v-3.592l.371.126c-.351 1.176-1.02 2.09-2.008 2.741-.968.63-2.111.946-3.429.946zm1.05-3.025c1.277 0 2.265-.452 2.966-1.355.7-.904 1.05-2.185 1.05-3.845 0-1.702-.35-2.994-1.05-3.876-.701-.903-1.689-1.355-2.966-1.355-1.297 0-2.307.462-3.027 1.386-.721.925-1.082 2.227-1.082 3.908 0 1.639.361 2.91 1.082 3.813.72.883 1.73 1.324 3.027 1.324zm11.99 2.804V11.786c0-.757-.021-1.513-.062-2.27a19.91 19.91 0 00-.185-2.237h3.645l.34 3.152-.34.094c.494-1.197 1.225-2.1 2.193-2.71.989-.63 2.122-.945 3.398-.945 3.707 0 5.561 2.185 5.561 6.554v9.77h-3.862v-9.612c0-1.24-.236-2.143-.71-2.71-.474-.588-1.205-.883-2.193-.883-1.195 0-2.152.39-2.873 1.166-.7.757-1.051 1.765-1.051 3.026v9.012h-3.861zm16.668-12.951V7.279H433v2.963h-10.997zM433 19.916v3.12a5.251 5.251 0 01-1.236.283 7.957 7.957 0 01-1.266.095c-1.751 0-3.11-.504-4.078-1.513-.947-1.008-1.421-2.458-1.421-4.349V3.403l3.862-1.323v15.283c0 .715.113 1.282.339 1.702.227.4.526.683.896.851.391.168.824.252 1.298.252.267 0 .525-.02.772-.063.247-.042.525-.105.834-.189zM5.7 3v19H0V3h5.7zM19 3v19h-5.7V3H19zm14 0v19h-5.7V3H33z" fill="#D8D8D8"/></svg>