<svg width="194" height="36" fill="none" xmlns="http://www.w3.org/2000/svg"><path d="M56.803 19.83v7.136h-2.212V8.085h5.188c2.02 0 3.582.491 4.688 1.474 1.114.983 1.672 2.37 1.672 4.161 0 1.79-.619 3.257-1.857 4.398-1.229 1.141-2.892 1.712-4.99 1.712h-2.489zm0-9.744v7.742h2.318c1.527 0 2.69-.346 3.489-1.04.808-.702 1.211-1.69 1.211-2.963 0-2.493-1.474-3.739-4.424-3.739h-2.594z" fill="url(#paint0_linear_818_720)"/><path d="M76.449 15.669c-.378-.29-.922-.435-1.633-.435-.922 0-1.694.435-2.317 1.304-.615.869-.922 2.054-.922 3.555v6.873h-2.16V13.483h2.16v2.778h.052c.308-.948.777-1.685 1.41-2.212.631-.535 1.338-.803 2.12-.803.561 0 .991.061 1.29.184v2.239z" fill="url(#paint1_linear_818_720)"/><path d="M84.06 27.282c-1.993 0-3.587-.628-4.78-1.883-1.186-1.264-1.778-2.936-1.778-5.016 0-2.265.619-4.034 1.857-5.307 1.237-1.273 2.91-1.909 5.016-1.909 2.01 0 3.577.619 4.7 1.857 1.133 1.237 1.7 2.953 1.7 5.148 0 2.15-.61 3.875-1.83 5.175-1.212 1.29-2.84 1.935-4.886 1.935zm.157-12.298c-1.387 0-2.484.474-3.292 1.422-.807.94-1.211 2.239-1.211 3.898 0 1.597.408 2.857 1.225 3.779.816.921 1.909 1.382 3.278 1.382 1.396 0 2.467-.452 3.213-1.356.755-.904 1.132-2.19 1.132-3.858 0-1.686-.377-2.985-1.132-3.898-.746-.912-1.817-1.369-3.213-1.369z" fill="url(#paint2_linear_818_720)"/><path d="M96.383 26.4c0 2.212-.447 3.915-1.343 5.109-.886 1.202-2.159 1.804-3.818 1.804a4.06 4.06 0 01-1.79-.422v-2.014c.649.395 1.263.592 1.843.592 1.966 0 2.95-1.571 2.95-4.714V13.483h2.159V26.4zM95.33 10.06c-.386 0-.715-.132-.987-.395a1.333 1.333 0 01-.409-1.001c0-.404.136-.737.409-1 .272-.273.6-.409.987-.409.395 0 .729.136 1 .408.282.264.422.597.422 1 0 .387-.14.716-.421.988a1.36 1.36 0 01-1 .409z" fill="url(#paint3_linear_818_720)"/><path d="M111.591 20.764h-9.519c.035 1.502.439 2.66 1.211 3.477.773.816 1.835 1.224 3.186 1.224 1.519 0 2.915-.5 4.188-1.501v2.028c-1.185.86-2.752 1.29-4.701 1.29-1.905 0-3.402-.61-4.49-1.83-1.088-1.229-1.633-2.954-1.633-5.175 0-2.098.593-3.805 1.778-5.122 1.194-1.325 2.673-1.988 4.437-1.988 1.764 0 3.129.57 4.095 1.712.966 1.14 1.448 2.725 1.448 4.753v1.132zm-2.212-1.83c-.008-1.246-.311-2.216-.908-2.91-.588-.693-1.409-1.04-2.462-1.04a3.487 3.487 0 00-2.594 1.093c-.711.728-1.15 1.681-1.317 2.857h7.281z" fill="url(#paint4_linear_818_720)"/><path d="M124.061 26.347c-1.036.623-2.265.935-3.687.935-1.923 0-3.476-.623-4.661-1.87-1.177-1.255-1.765-2.879-1.765-4.871 0-2.221.637-4.003 1.91-5.346 1.272-1.352 2.971-2.028 5.095-2.028 1.185 0 2.23.22 3.134.658v2.213c-1.001-.703-2.072-1.054-3.213-1.054-1.378 0-2.51.496-3.397 1.488-.878.983-1.317 2.278-1.317 3.884 0 1.58.413 2.827 1.238 3.74.834.913 1.949 1.37 3.345 1.37 1.176 0 2.282-.392 3.318-1.173v2.054z" fill="url(#paint5_linear_818_720)"/><path d="M133.58 26.834c-.509.281-1.18.422-2.014.422-2.361 0-3.542-1.317-3.542-3.95v-7.98h-2.317v-1.843h2.317v-3.292l2.159-.698v3.99h3.397v1.843h-3.397v7.598c0 .904.154 1.55.461 1.935.307.387.817.58 1.528.58.544 0 1.013-.15 1.408-.448v1.843z" fill="url(#paint6_linear_818_720)"/><path d="M161.139 8.085l-4.99 18.881h-4.714l-3.134-12.114a10.078 10.078 0 01-.303-2.12h-.052c-.079.86-.193 1.567-.343 2.12l-3.212 12.114h-4.912l-4.964-18.881h4.648l2.66 12.574c.114.536.197 1.255.25 2.16h.079c.035-.676.163-1.414.382-2.213l3.423-12.521h4.556l3.094 12.68c.115.465.216 1.14.303 2.027h.053c.035-.693.127-1.396.276-2.107l2.608-12.6h4.292z" fill="url(#paint7_linear_818_720)"/><path d="M165.234 11.35c-.702 0-1.277-.206-1.725-.619a2.034 2.034 0 01-.671-1.54c0-.624.223-1.133.671-1.528.448-.395 1.023-.592 1.725-.592.711 0 1.286.197 1.725.592.448.395.671.904.671 1.528 0 .632-.223 1.15-.671 1.553-.439.404-1.014.606-1.725.606zm2.054 15.616h-4.161V13.483h4.161v13.483z" fill="url(#paint8_linear_818_720)"/><path d="M179.586 17.236c-.5-.273-1.084-.409-1.751-.409-.904 0-1.611.334-2.12 1.001-.509.659-.764 1.558-.764 2.7v6.438h-4.161V13.483h4.161v2.502h.053c.658-1.826 1.843-2.739 3.555-2.739.439 0 .781.053 1.027.158v3.832z" fill="url(#paint9_linear_818_720)"/><path d="M193.543 21.41h-8.795c.14 1.957 1.373 2.936 3.699 2.936 1.484 0 2.787-.351 3.911-1.053v3.002c-1.246.667-2.866 1-4.859 1-2.177 0-3.866-.601-5.069-1.804-1.202-1.211-1.804-2.896-1.804-5.056 0-2.238.65-4.011 1.949-5.32 1.299-1.307 2.897-1.961 4.793-1.961 1.966 0 3.485.584 4.556 1.751 1.079 1.168 1.619 2.752 1.619 4.753v1.752zm-3.858-2.555c0-1.931-.781-2.896-2.344-2.896-.667 0-1.246.276-1.738.829-.482.553-.776 1.242-.882 2.067h4.964z" fill="url(#paint10_linear_818_720)"/><path fill-rule="evenodd" clip-rule="evenodd" d="M19.701.062a2.247 2.247 0 012.527 1.168l7.366 14.5h8.608a2.247 2.247 0 110 4.495h-9.987c-.846 0-1.62-.475-2.004-1.23l-3.74-7.361v22.074a2.247 2.247 0 01-4.25 1.017l-7.365-14.5H2.247a2.247 2.247 0 010-4.495h9.988c.846 0 1.62.476 2.003 1.23l3.74 7.362V2.247c0-1.04.712-1.943 1.723-2.185z" fill="url(#paint11_linear_818_720)"/><defs><linearGradient id="paint1_linear_818_720" x1="64.818" y1="20.035" x2="193.274" y2="15.32" gradientUnits="userSpaceOnUse"><stop stop-color="#147AE1"/><stop offset="1" stop-color="#13E28E"/></linearGradient><linearGradient id="paint6_linear_818_720" x1="64.818" y1="20.035" x2="193.274" y2="15.32" gradientUnits="userSpaceOnUse"><stop stop-color="#147AE1"/><stop offset="1" stop-color="#13E28E"/></linearGradient><linearGradient id="paint2_linear_818_720" x1="64.818" y1="20.035" x2="193.274" y2="15.32" gradientUnits="userSpaceOnUse"><stop stop-color="#147AE1"/><stop offset="1" stop-color="#13E28E"/></linearGradient><linearGradient id="paint3_linear_818_720" x1="64.818" y1="20.035" x2="193.274" y2="15.32" gradientUnits="userSpaceOnUse"><stop stop-color="#147AE1"/><stop offset="1" stop-color="#13E28E"/></linearGradient><linearGradient id="paint4_linear_818_720" x1="64.818" y1="20.035" x2="193.274" y2="15.32" gradientUnits="userSpaceOnUse"><stop stop-color="#147AE1"/><stop offset="1" stop-color="#13E28E"/></linearGradient><linearGradient id="paint5_linear_818_720" x1="64.818" y1="20.035" x2="193.274" y2="15.32" gradientUnits="userSpaceOnUse"><stop stop-color="#147AE1"/><stop offset="1" stop-color="#13E28E"/></linearGradient><linearGradient id="paint0_linear_818_720" x1="64.818" y1="20.035" x2="193.274" y2="15.32" gradientUnits="userSpaceOnUse"><stop stop-color="#147AE1"/><stop offset="1" stop-color="#13E28E"/></linearGradient><linearGradient id="paint7_linear_818_720" x1="64.818" y1="20.035" x2="193.274" y2="15.32" gradientUnits="userSpaceOnUse"><stop stop-color="#147AE1"/><stop offset="1" stop-color="#13E28E"/></linearGradient><linearGradient id="paint8_linear_818_720" x1="64.818" y1="20.035" x2="193.274" y2="15.32" gradientUnits="userSpaceOnUse"><stop stop-color="#147AE1"/><stop offset="1" stop-color="#13E28E"/></linearGradient><linearGradient id="paint9_linear_818_720" x1="64.818" y1="20.035" x2="193.274" y2="15.32" gradientUnits="userSpaceOnUse"><stop stop-color="#147AE1"/><stop offset="1" stop-color="#13E28E"/></linearGradient><linearGradient id="paint10_linear_818_720" x1="64.818" y1="20.035" x2="193.274" y2="15.32" gradientUnits="userSpaceOnUse"><stop stop-color="#147AE1"/><stop offset="1" stop-color="#13E28E"/></linearGradient><linearGradient id="paint11_linear_818_720" x1="0" y1="18.267" x2="38.596" y2="20.035" gradientUnits="userSpaceOnUse"><stop stop-color="#1476E4"/><stop offset="1" stop-color="#13E28E"/></linearGradient></defs></svg>