<svg width="330" height="62" fill="none" xmlns="http://www.w3.org/2000/svg"><path d="M96.4 33.652v12.112h-3.755V13.72h8.804c3.427 0 6.078.835 7.955 2.503 1.892 1.668 2.838 4.022 2.838 7.061 0 3.04-1.05 5.527-3.15 7.463-2.086 1.937-4.909 2.905-8.469 2.905h-4.224zm0-16.535v13.139h3.932c2.592 0 4.566-.588 5.922-1.765 1.37-1.192 2.055-2.868 2.055-5.028 0-4.23-2.502-6.346-7.508-6.346h-4.402zm33.339 9.474c-.641-.491-1.564-.737-2.771-.737-1.564 0-2.875.737-3.933 2.212-1.043 1.475-1.564 3.486-1.564 6.033v11.665h-3.665V22.882h3.665v4.715h.089c.522-1.61 1.319-2.86 2.391-3.754 1.073-.909 2.272-1.363 3.598-1.363.953 0 1.683.104 2.19.313v3.798zM142.654 46.3c-3.381 0-6.085-1.065-8.111-3.195-2.011-2.146-3.017-4.983-3.017-8.514 0-3.844 1.051-6.845 3.151-9.005 2.101-2.16 4.938-3.24 8.514-3.24 3.411 0 6.07 1.05 7.977 3.15 1.922 2.1 2.883 5.013 2.883 8.737 0 3.65-1.036 6.577-3.106 8.782-2.056 2.19-4.82 3.285-8.291 3.285zm.269-20.87c-2.354 0-4.216.804-5.587 2.413-1.37 1.594-2.056 3.798-2.056 6.614 0 2.711.693 4.849 2.079 6.413 1.385 1.564 3.24 2.346 5.564 2.346 2.368 0 4.186-.767 5.452-2.301 1.281-1.535 1.922-3.717 1.922-6.547 0-2.86-.641-5.066-1.922-6.615-1.266-1.55-3.084-2.324-5.452-2.324zm20.647 19.373c0 3.754-.76 6.644-2.279 8.67-1.505 2.04-3.665 3.061-6.481 3.061a6.895 6.895 0 01-3.039-.715V52.4c1.103.67 2.146 1.006 3.129 1.006 3.337 0 5.005-2.667 5.005-8V22.882h3.665v21.92zm-1.788-27.73a2.323 2.323 0 01-1.676-.671c-.462-.447-.692-1.013-.692-1.699 0-.685.23-1.25.692-1.698a2.284 2.284 0 011.676-.693c.671 0 1.237.231 1.698.693.477.447.715 1.013.715 1.698 0 .656-.238 1.215-.715 1.676-.461.462-1.027.693-1.698.693zm27.597 18.166h-16.156c.06 2.547.745 4.514 2.056 5.9 1.311 1.385 3.113 2.077 5.407 2.077 2.578 0 4.946-.849 7.106-2.547v3.441c-2.011 1.46-4.67 2.19-7.977 2.19-3.233 0-5.773-1.035-7.62-3.106-1.847-2.086-2.771-5.013-2.771-8.782 0-3.56 1.006-6.458 3.017-8.692 2.026-2.25 4.536-3.374 7.53-3.374 2.995 0 5.311.968 6.95 2.904 1.639 1.937 2.458 4.626 2.458 8.067v1.922zm-3.754-3.106c-.015-2.115-.529-3.762-1.542-4.938-.998-1.177-2.391-1.766-4.179-1.766-1.728 0-3.195.619-4.402 1.855-1.206 1.236-1.951 2.853-2.234 4.849h12.357zm24.915 12.58c-1.758 1.058-3.843 1.587-6.257 1.587-3.262 0-5.899-1.058-7.91-3.173-1.996-2.13-2.994-4.886-2.994-8.268 0-3.769 1.08-6.793 3.24-9.072 2.16-2.294 5.042-3.441 8.647-3.441 2.012 0 3.784.372 5.319 1.117v3.754c-1.699-1.192-3.516-1.788-5.453-1.788-2.338 0-4.26.842-5.765 2.525-1.489 1.669-2.234 3.866-2.234 6.592 0 2.682.7 4.797 2.1 6.346 1.415 1.55 3.307 2.324 5.676 2.324 1.996 0 3.873-.663 5.631-1.989v3.486zm16.156.827c-.864.477-2.004.715-3.419.715-4.007 0-6.011-2.234-6.011-6.703V26.01h-3.933v-3.128h3.933v-5.587l3.665-1.184v6.77h5.765v3.13h-5.765v12.893c0 1.534.26 2.629.782 3.284.521.656 1.385.984 2.592.984.923 0 1.72-.254 2.391-.76v3.128z" fill="#424242"/><path fill-rule="evenodd" clip-rule="evenodd" d="M33.435.105a3.814 3.814 0 014.288 1.982l12.5 24.609h14.609a3.814 3.814 0 110 7.627h-16.95a3.814 3.814 0 01-3.4-2.087l-6.346-12.493v37.462a3.814 3.814 0 01-7.214 1.727l-12.5-24.609H3.815a3.814 3.814 0 110-7.627h16.95c1.435 0 2.749.806 3.4 2.086l6.345 12.494V3.814A3.814 3.814 0 0133.435.105z" fill="#424242"/><path d="M274.183 13.72l-8.469 32.044h-8l-5.318-20.558c-.283-1.072-.455-2.272-.514-3.597h-.09c-.134 1.46-.327 2.659-.581 3.597l-5.452 20.558h-8.335L229 13.721h7.888l4.514 21.34c.193.908.335 2.13.424 3.664h.134c.06-1.147.276-2.398.648-3.754l5.81-21.25h7.732l5.251 21.518c.194.79.365 1.937.514 3.442h.089c.06-1.177.216-2.37.47-3.576l4.424-21.384h7.285z" fill="url(#paint0_linear_936_842)"/><path d="M281.132 19.262c-1.192 0-2.168-.35-2.927-1.05-.76-.715-1.14-1.587-1.14-2.614 0-1.058.38-1.922 1.14-2.593.759-.67 1.735-1.005 2.927-1.005 1.207 0 2.182.335 2.927 1.005.76.67 1.14 1.535 1.14 2.593 0 1.072-.38 1.951-1.14 2.636-.745.686-1.72 1.028-2.927 1.028zm3.486 26.502h-7.061V22.882h7.061v22.882z" fill="url(#paint1_linear_936_842)"/><path d="M305.489 29.25c-.85-.461-1.84-.692-2.972-.692-1.535 0-2.734.566-3.598 1.698-.864 1.117-1.296 2.645-1.296 4.581v10.927h-7.061V22.882h7.061v4.246h.089c1.118-3.099 3.129-4.648 6.034-4.648.744 0 1.325.09 1.743.268v6.503z" fill="url(#paint2_linear_936_842)"/><path d="M329.175 36.334h-14.927c.238 3.322 2.331 4.983 6.279 4.983 2.518 0 4.73-.596 6.637-1.787v5.094c-2.116 1.133-4.864 1.699-8.246 1.699-3.694 0-6.562-1.02-8.603-3.062-2.041-2.056-3.061-4.916-3.061-8.58 0-3.8 1.102-6.808 3.307-9.028 2.205-2.22 4.916-3.33 8.134-3.33 3.337 0 5.914.991 7.731 2.973 1.833 1.98 2.749 4.67 2.749 8.066v2.972zM322.628 32c0-3.277-1.326-4.916-3.978-4.916-1.132 0-2.115.47-2.95 1.408-.819.939-1.318 2.108-1.497 3.508h8.425z" fill="url(#paint3_linear_936_842)"/><defs><linearGradient id="paint0_linear_936_842" x1="312.309" y1="14.452" x2="297.522" y2="65.124" gradientUnits="userSpaceOnUse"><stop stop-color="#13E28E"/><stop offset="1" stop-color="#1473E6"/></linearGradient><linearGradient id="paint1_linear_936_842" x1="312.309" y1="14.452" x2="297.522" y2="65.124" gradientUnits="userSpaceOnUse"><stop stop-color="#13E28E"/><stop offset="1" stop-color="#1473E6"/></linearGradient><linearGradient id="paint2_linear_936_842" x1="312.309" y1="14.452" x2="297.522" y2="65.124" gradientUnits="userSpaceOnUse"><stop stop-color="#13E28E"/><stop offset="1" stop-color="#1473E6"/></linearGradient><linearGradient id="paint3_linear_936_842" x1="312.309" y1="14.452" x2="297.522" y2="65.124" gradientUnits="userSpaceOnUse"><stop stop-color="#13E28E"/><stop offset="1" stop-color="#1473E6"/></linearGradient></defs></svg>