<svg width="160" height="86" fill="none" xmlns="http://www.w3.org/2000/svg"><path d="M59.305 53.053c-7.55-2.383-5.4-4.28 1.805-6.987 3.452-1.3 1.353-4.039 1.447-6.23.042-1.004 3.986-.804 3.7-4.673-.201-2.725-6.204-6.607-7.84-8.264-.944-.956 1.926-3.572-.095-5.873-2.76-3.144-3.195-8.615-4.865-11.675 0 0 1.273-1.944.298-3.05-8.416-9.525-39.818-8.65-47.843 5.369-9.009 15.738-9.13 37.49 9.602 49.208 8.33 5.211-2.34 23.664-2.34 23.664H46.21c0-3.15-3.684-14.453 2.764-13.946 5.603.44 12.464.198 11.856-6.13-.184-1.908-.4-3.627.933-5.208 1.333-1.58 3.263-4.4-2.457-6.205z" fill="#424242"/><path d="M93 41v20m6-16v12-12zm6 4v4-4zm-18-4v12-12zm-6 4v4-4z" stroke="#424242" stroke-width="4" stroke-linecap="round"/><path d="M139.5 64.028c4.861 0 8.756-4.024 8.756-9.007l.03-18.014c0-4.984-3.925-9.007-8.786-9.007s-8.786 4.023-8.786 9.007V55.02c0 4.983 3.925 9.007 8.786 9.007zm15.521-9.007c0 9.007-7.438 15.311-15.521 15.311-8.083 0-15.521-6.304-15.521-15.311H119c0 10.237 7.966 18.704 17.571 20.175v9.847h5.858v-9.847C152.034 73.755 160 65.288 160 55.021h-4.979z" fill="#424242"/></svg>