<svg width="454" height="398" fill="none" xmlns="http://www.w3.org/2000/svg"><rect x="98" width="210" height="50" rx="6" fill="#99F3FF"/><path d="M126.387 31v-7.568c-.235.235-.555.416-.96.544a4.293 4.293 0 01-1.328.192h-.56v-2.4h.352c.757-.01 1.381-.176 1.872-.496.48-.31.843-.773 1.088-1.392h2.288V31h-2.752zm30.989-11.36h1.568v6.784c.011 1.045.331 1.888.96 2.528.629.65 1.525.987 2.688 1.008 1.163-.021 2.059-.357 2.688-1.008.619-.64.933-1.483.944-2.528V19.64h1.584v6.864c-.011 1.43-.464 2.581-1.36 3.456-.885.885-2.171 1.339-3.856 1.36-1.685-.021-2.976-.475-3.872-1.36-.885-.875-1.333-2.027-1.344-3.456V19.64zM170.74 31v-8h1.36v1.744c.661-1.333 1.824-2 3.488-2 1.152 0 2.021.315 2.608.944.597.63.896 1.552.896 2.768V31h-1.408v-4.336c0-1.792-.848-2.688-2.544-2.688-.918.01-1.643.288-2.176.832-.534.544-.806 1.296-.816 2.256V31h-1.408zm14.404.24c-1.227-.021-2.214-.416-2.96-1.184-.747-.757-1.131-1.776-1.152-3.056.021-1.27.416-2.288 1.184-3.056.757-.768 1.776-1.163 3.056-1.184.736 0 1.376.128 1.92.384a3.464 3.464 0 011.376 1.2V19.4h1.408V31h-1.36v-1.552a3.36 3.36 0 01-1.376 1.328c-.576.31-1.275.464-2.096.464zm.384-1.232c.928-.01 1.669-.267 2.224-.768.554-.501.837-1.179.848-2.032v-.368c-.011-.875-.299-1.568-.864-2.08-.566-.512-1.323-.773-2.272-.784-.918.01-1.638.277-2.16.8-.512.533-.774 1.275-.784 2.224.01.95.282 1.685.816 2.208.522.523 1.253.79 2.192.8zm15.585-3.392v.8h-7.392c.032.81.32 1.445.864 1.904.555.459 1.318.693 2.288.704.715 0 1.323-.133 1.824-.4.491-.267.87-.661 1.136-1.184l1.184.544c-.384.747-.928 1.307-1.632 1.68-.704.384-1.562.576-2.576.576-1.418-.01-2.522-.373-3.312-1.088-.8-.715-1.205-1.733-1.216-3.056.022-1.387.427-2.453 1.216-3.2.8-.747 1.883-1.125 3.248-1.136 1.376.01 2.443.341 3.2.992.768.661 1.158 1.616 1.168 2.864zm-1.456-.304V26.2c-.021-.768-.298-1.355-.832-1.76-.533-.405-1.232-.608-2.096-.608-.896.01-1.61.235-2.144.672-.522.437-.81 1.04-.864 1.808h5.936zm5.098-1.28a3.4 3.4 0 011.072-1.616c.501-.416 1.109-.63 1.824-.64.224 0 .426.016.608.048V24.2a1.701 1.701 0 00-.24-.016 1.825 1.825 0 00-.256-.016c-.502 0-.918.07-1.248.208a2.164 2.164 0 00-.832.56 2.686 2.686 0 00-.688 1.296 6.47 6.47 0 00-.144 1.52V31h-1.408v-8h1.312v2.032zm8.927 6.208c-1.184 0-2.144-.224-2.88-.672-.725-.448-1.237-1.088-1.536-1.92l1.328-.432a2.556 2.556 0 001.12 1.392c.533.32 1.227.48 2.08.48.725 0 1.275-.107 1.648-.32.373-.213.56-.533.56-.96.011-.373-.101-.65-.336-.832-.224-.192-.597-.304-1.12-.336l-2.352-.176c-.864-.085-1.509-.325-1.936-.72-.427-.395-.64-.917-.64-1.568.011-.757.336-1.35.976-1.776.64-.416 1.531-.63 2.672-.64 1.109.01 2.016.219 2.72.624.704.405 1.168.965 1.392 1.68l-1.328.448a2.44 2.44 0 00-.992-1.2c-.469-.288-1.093-.432-1.872-.432-.693 0-1.232.107-1.616.32-.373.213-.565.523-.576.928 0 .661.512 1.04 1.536 1.136l2.384.176c.885.085 1.52.32 1.904.704.395.384.587.901.576 1.552 0 .79-.304 1.408-.912 1.856-.608.448-1.541.677-2.8.688zm4.777-7.088V23h1.92v-2.096l1.424-.592V23h2.848v1.152h-2.848v4.128c0 .544.128.944.384 1.2.267.245.667.368 1.2.368.235 0 .459-.016.672-.048.203-.021.405-.059.608-.112v1.264a3.519 3.519 0 01-.688.144 5.479 5.479 0 01-.864.064c-1.099-.021-1.835-.299-2.208-.832-.384-.533-.56-1.19-.528-1.968v-4.208h-1.92zm10.87 7.088c-.992-.01-1.781-.224-2.368-.64-.576-.416-.869-.992-.88-1.728 0-.384.086-.736.256-1.056a2.11 2.11 0 01.736-.768c.278-.17.646-.32 1.104-.448.459-.117 1.083-.213 1.872-.288l2.976-.224v-.144c0-.693-.208-1.21-.624-1.552-.416-.33-1.034-.496-1.856-.496-.778 0-1.397.144-1.856.432a1.677 1.677 0 00-.8 1.248h-1.536c.096-.853.518-1.53 1.264-2.032.736-.512 1.712-.773 2.928-.784 1.312 0 2.294.272 2.944.816.64.555.96 1.397.96 2.528v2.112c0 .661.016 1.205.048 1.632.043.427.107.81.192 1.152h-1.472a5.155 5.155 0 01-.08-.736 21.001 21.001 0 01-.048-.816 3.107 3.107 0 01-1.392 1.328c-.629.31-1.418.464-2.368.464zm.384-1.12c1.003-.01 1.803-.25 2.4-.72.608-.459.918-1.093.928-1.904v-.4l-3.248.304c-.81.085-1.386.24-1.728.464-.33.235-.49.56-.48.976 0 .405.187.72.56.944.363.224.886.336 1.568.336zm7.605.88v-8h1.36v1.744c.661-1.333 1.824-2 3.488-2 1.152 0 2.021.315 2.608.944.597.63.896 1.552.896 2.768V31h-1.408v-4.336c0-1.792-.848-2.688-2.544-2.688-.918.01-1.643.288-2.176.832-.534.544-.806 1.296-.816 2.256V31h-1.408zm14.404.24c-1.227-.021-2.213-.416-2.96-1.184-.747-.757-1.131-1.776-1.152-3.056.021-1.27.416-2.288 1.184-3.056.757-.768 1.776-1.163 3.056-1.184.736 0 1.376.128 1.92.384a3.458 3.458 0 011.376 1.2V19.4h1.408V31h-1.36v-1.552a3.36 3.36 0 01-1.376 1.328c-.576.31-1.275.464-2.096.464zm.384-1.232c.928-.01 1.669-.267 2.224-.768.555-.501.837-1.179.848-2.032v-.368c-.011-.875-.299-1.568-.864-2.08s-1.323-.773-2.272-.784c-.917.01-1.637.277-2.16.8-.512.533-.773 1.275-.784 2.224.011.95.283 1.685.816 2.208.523.523 1.253.79 2.192.8z" fill="#16013E"/><circle cx="127" cy="25" r="15.5" stroke="#FFFBF5" stroke-width="3"/><rect x="98" y="58" width="210" height="50" rx="6" fill="#BFE0FF"/><path d="M121.934 89v-1.968a51.866 51.866 0 002.992-1.504c.874-.48 1.61-.939 2.208-1.376.618-.448 1.056-.885 1.312-1.312.256-.437.378-.907.368-1.408 0-.533-.16-.955-.48-1.264-.32-.32-.811-.485-1.472-.496-.64 0-1.142.165-1.504.496-.352.33-.534.79-.544 1.376 0 .107.005.219.016.336l.064.4-2.832-.272a4.348 4.348 0 01-.064-.752c.021-1.13.474-2.021 1.36-2.672.885-.661 2.08-.997 3.584-1.008 1.536.01 2.72.336 3.552.976.832.64 1.253 1.53 1.264 2.672 0 .779-.192 1.472-.576 2.08-.384.608-.928 1.168-1.632 1.68-.459.32-.987.64-1.584.96-.608.31-1.296.613-2.064.912h6.032V89h-10zm35.778 0V77.64h4.88c1.824.01 3.28.507 4.368 1.488 1.077.97 1.632 2.336 1.664 4.096-.032 1.76-.592 3.157-1.68 4.192-1.088 1.035-2.539 1.563-4.352 1.584h-4.88zm1.568-1.312h3.296c1.397-.021 2.475-.432 3.232-1.232.757-.81 1.141-1.888 1.152-3.232-.011-1.344-.411-2.39-1.2-3.136-.789-.747-1.877-1.125-3.264-1.136h-3.216v8.736zm19.474-3.072v.8h-7.392c.032.81.32 1.445.864 1.904.555.459 1.317.693 2.288.704.715 0 1.323-.133 1.824-.4a2.711 2.711 0 001.136-1.184l1.184.544c-.384.747-.928 1.307-1.632 1.68-.704.384-1.563.576-2.576.576-1.419-.01-2.523-.373-3.312-1.088-.8-.715-1.205-1.733-1.216-3.056.021-1.387.427-2.453 1.216-3.2.8-.747 1.883-1.125 3.248-1.136 1.376.01 2.443.341 3.2.992.768.661 1.157 1.616 1.168 2.864zm-1.456-.304V84.2c-.021-.768-.299-1.355-.832-1.76-.533-.405-1.232-.608-2.096-.608-.896.01-1.611.235-2.144.672-.523.437-.811 1.04-.864 1.808h5.936zM185.947 81v1.152h-2.752V89h-1.408v-6.848h-1.904V81h1.904v-.96c0-.885.24-1.568.72-2.048s1.184-.72 2.112-.72c.256 0 .496.016.72.048.224.021.427.053.608.096v1.216a3.628 3.628 0 00-.608-.08 6.126 6.126 0 00-.608-.032c-.544 0-.933.128-1.168.384-.245.256-.368.661-.368 1.216V81h2.752zm1.758-1.472v-1.776h1.648v1.776h-1.648zm.128 9.472v-8h1.408v8h-1.408zm4.516 0v-8h1.36v1.744c.661-1.333 1.824-2 3.488-2 1.152 0 2.021.315 2.608.944.597.63.896 1.552.896 2.768V89h-1.408v-4.336c0-1.792-.848-2.688-2.544-2.688-.917.01-1.643.288-2.176.832-.533.544-.805 1.296-.816 2.256V89h-1.408zm19.108-4.384v.8h-7.392c.032.81.32 1.445.864 1.904.555.459 1.317.693 2.288.704.715 0 1.323-.133 1.824-.4a2.711 2.711 0 001.136-1.184l1.184.544c-.384.747-.928 1.307-1.632 1.68-.704.384-1.563.576-2.576.576-1.419-.01-2.523-.373-3.312-1.088-.8-.715-1.205-1.733-1.216-3.056.021-1.387.427-2.453 1.216-3.2.8-.747 1.883-1.125 3.248-1.136 1.376.01 2.443.341 3.2.992.768.661 1.157 1.616 1.168 2.864zm-1.456-.304V84.2c-.021-.768-.299-1.355-.832-1.76-.533-.405-1.232-.608-2.096-.608-.896.01-1.611.235-2.144.672-.523.437-.811 1.04-.864 1.808h5.936z" fill="#16013E"/><circle cx="127" cy="83" r="15.5" stroke="#FFFBF5" stroke-width="3"/><rect x="98" y="116" width="210" height="50" rx="6" fill="#D3BFFF"/><path d="M126.927 147.304c-1.579-.011-2.816-.347-3.712-1.008-.885-.661-1.355-1.573-1.408-2.736l2.8-.256c.043.629.267 1.109.672 1.44.395.341.949.512 1.664.512.704 0 1.243-.133 1.616-.4.363-.267.544-.645.544-1.136 0-.512-.192-.885-.576-1.12-.384-.224-.944-.336-1.68-.336h-.912v-1.776h.896c.661 0 1.168-.123 1.52-.368.352-.245.528-.603.528-1.072 0-.459-.171-.816-.512-1.072-.352-.256-.859-.384-1.52-.384-.693 0-1.227.176-1.6.528-.373.363-.571.864-.592 1.504l-2.752-.336c.021-1.109.469-2 1.344-2.672.864-.672 2.091-1.019 3.68-1.04 1.557.011 2.747.293 3.568.848.811.555 1.221 1.333 1.232 2.336-.021.704-.261 1.264-.72 1.68-.459.427-1.045.699-1.76.816.875.107 1.552.384 2.032.832.48.437.725 1.045.736 1.824-.011 1.024-.459 1.84-1.344 2.448-.875.619-2.123.933-3.744.944zm30.785-.304v-11.36h4.88c1.824.011 3.28.507 4.368 1.488 1.077.971 1.632 2.336 1.664 4.096-.032 1.76-.592 3.157-1.68 4.192-1.088 1.035-2.539 1.563-4.352 1.584h-4.88zm1.568-1.312h3.296c1.397-.021 2.475-.432 3.232-1.232.757-.811 1.141-1.888 1.152-3.232-.011-1.344-.411-2.389-1.2-3.136-.789-.747-1.877-1.125-3.264-1.136h-3.216v8.736zm11.394-8.16v-1.776h1.648v1.776h-1.648zm.128 9.472v-8h1.408v8h-1.408zm6.804 0l-3.744-8h1.568l2.656 5.792c.128.32.224.619.288.896h.032c.042-.139.085-.283.128-.432.042-.149.096-.304.16-.464L181.35 139h1.568l-3.744 8h-1.568zm14.914-4.384v.8h-7.392c.032.811.32 1.445.864 1.904.554.459 1.317.693 2.288.704.714 0 1.322-.133 1.824-.4.49-.267.869-.661 1.136-1.184l1.184.544c-.384.747-.928 1.307-1.632 1.68-.704.384-1.563.576-2.576.576-1.419-.011-2.523-.373-3.312-1.088-.8-.715-1.206-1.733-1.216-3.056.021-1.387.426-2.453 1.216-3.2.8-.747 1.882-1.125 3.248-1.136 1.376.011 2.442.341 3.2.992.768.661 1.157 1.616 1.168 2.864zm-1.456-.304v-.112c-.022-.768-.299-1.355-.832-1.76-.534-.405-1.232-.608-2.096-.608-.896.011-1.611.235-2.144.672-.523.437-.811 1.04-.864 1.808h5.936zm5.097-1.28c.213-.661.571-1.2 1.072-1.616.501-.416 1.109-.629 1.824-.64.224 0 .427.016.608.048v1.376a1.658 1.658 0 00-.24-.016 1.78 1.78 0 00-.256-.016c-.501 0-.917.069-1.248.208a2.167 2.167 0 00-.832.56 2.692 2.692 0 00-.688 1.296 6.47 6.47 0 00-.144 1.52V147h-1.408v-8h1.312v2.032zm12.959-2.128c-.33 0-.602.059-.816.176a1.017 1.017 0 00-.48.512c.288.245.512.528.672.848.15.331.224.693.224 1.088-.01.832-.336 1.499-.976 2-.65.512-1.552.773-2.704.784-.778 0-1.45-.128-2.016-.384-.224.075-.4.181-.528.32a.68.68 0 00-.208.496c0 .245.107.437.32.576.214.149.56.224 1.04.224h3.152c.95 0 1.659.192 2.128.576.48.373.72.923.72 1.648.011.821-.362 1.456-1.12 1.904-.757.448-1.941.677-3.552.688-1.578-.011-2.704-.219-3.376-.624-.682-.395-1.013-.923-.992-1.584 0-.384.112-.72.336-1.008.224-.288.56-.501 1.008-.64-.33-.139-.57-.325-.72-.56a1.387 1.387 0 01-.24-.8c0-.405.123-.741.368-1.008.235-.267.56-.469.976-.608a2.527 2.527 0 01-.736-.88 2.478 2.478 0 01-.256-1.12c.011-.832.342-1.499.992-2 .64-.501 1.542-.757 2.704-.768.822 0 1.51.133 2.064.4.118-.448.347-.805.688-1.072.352-.256.816-.389 1.392-.4.096 0 .187.005.272.016.096.011.198.027.304.048v1.216a2.671 2.671 0 00-.64-.064zm-4.08 4.368c.715-.011 1.275-.171 1.68-.48.406-.32.614-.741.624-1.264-.01-.523-.218-.939-.624-1.248-.405-.299-.965-.453-1.68-.464-.714 0-1.274.155-1.68.464-.405.299-.613.715-.624 1.248.011.523.219.939.624 1.248.406.32.966.485 1.68.496zm1.488 3.504H203.6c-.277 0-.528-.016-.752-.048-.298.128-.522.293-.672.496a1.18 1.18 0 00-.224.688c.011.469.283.805.816 1.008.534.203 1.296.304 2.288.304 1.174 0 2.006-.123 2.496-.368.48-.245.715-.576.704-.992 0-.363-.138-.635-.416-.816-.288-.181-.725-.272-1.312-.272zm13.148-4.16v.8h-7.392c.032.811.32 1.445.864 1.904.555.459 1.317.693 2.288.704.715 0 1.323-.133 1.824-.4a2.711 2.711 0 001.136-1.184l1.184.544c-.384.747-.928 1.307-1.632 1.68-.704.384-1.563.576-2.576.576-1.419-.011-2.523-.373-3.312-1.088-.8-.715-1.205-1.733-1.216-3.056.021-1.387.427-2.453 1.216-3.2.8-.747 1.883-1.125 3.248-1.136 1.376.011 2.443.341 3.2.992.768.661 1.157 1.616 1.168 2.864zm-1.456-.304v-.112c-.021-.768-.299-1.355-.832-1.76-.533-.405-1.232-.608-2.096-.608-.896.011-1.611.235-2.144.672-.523.437-.811 1.04-.864 1.808h5.936z" fill="#16013E"/><circle cx="127" cy="141" r="15.5" stroke="#FFFBF5" stroke-width="3"/><rect x="98" y="174" width="210" height="50" rx="6" fill="#FFBFF1"/><path d="M132.528 202.568h-1.984V205h-2.736v-2.432h-6.304v-1.808l5.968-6.88h3.072v6.736h1.984v1.952zm-4.64-5.136v-.784c.011-.181.027-.357.048-.528h-.048c-.075.16-.176.331-.304.512-.139.192-.32.416-.544.672l-2 2.352c-.192.224-.357.411-.496.56a7.775 7.775 0 01-.432.4h3.776v-3.184zm34.784 7.888c-1.973-.032-3.472-.603-4.496-1.712-1.024-1.109-1.541-2.544-1.552-4.304.011-1.803.549-3.243 1.616-4.32 1.067-1.077 2.565-1.632 4.496-1.664 1.557.011 2.795.379 3.712 1.104.907.725 1.483 1.728 1.728 3.008l-1.632.16c-.192-.917-.613-1.637-1.264-2.16-.661-.512-1.536-.773-2.624-.784-1.387.021-2.459.443-3.216 1.264-.768.821-1.157 1.947-1.168 3.376.011 1.387.4 2.507 1.168 3.36.779.864 1.867 1.307 3.264 1.328 1.024-.011 1.872-.256 2.544-.736.661-.48 1.12-1.168 1.376-2.064l1.552.272c-.331 1.173-.949 2.107-1.856 2.8-.896.693-2.112 1.051-3.648 1.072zm11.435-.08c-1.386-.011-2.49-.395-3.312-1.152-.821-.747-1.242-1.776-1.264-3.088.022-1.312.443-2.341 1.264-3.088.822-.757 1.926-1.141 3.312-1.152 1.387.011 2.491.395 3.312 1.152.811.747 1.227 1.776 1.248 3.088-.021 1.312-.437 2.341-1.248 3.088-.821.757-1.925 1.141-3.312 1.152zm0-1.216c.95 0 1.696-.261 2.24-.784.544-.523.822-1.269.832-2.24-.01-.971-.288-1.717-.832-2.24-.544-.523-1.29-.784-2.24-.784-.949 0-1.696.261-2.24.784-.544.523-.821 1.269-.832 2.24.011.971.288 1.717.832 2.24.544.523 1.291.784 2.24.784zm6.804.976v-8h1.36v1.744c.662-1.333 1.824-2 3.488-2 1.152 0 2.022.315 2.608.944.598.629.896 1.552.896 2.768V205h-1.408v-4.336c0-1.792-.848-2.688-2.544-2.688-.917.011-1.642.288-2.176.832-.533.544-.805 1.296-.816 2.256V205h-1.408zm13.445 0l-3.744-8h1.568l2.656 5.792c.128.32.224.619.288.896h.032c.042-.139.085-.283.128-.432.042-.149.096-.304.16-.464L198.1 197h1.568l-3.744 8h-1.568zm14.914-4.384v.8h-7.392c.032.811.32 1.445.864 1.904.554.459 1.317.693 2.288.704.714 0 1.322-.133 1.824-.4.49-.267.869-.661 1.136-1.184l1.184.544c-.384.747-.928 1.307-1.632 1.68-.704.384-1.563.576-2.576.576-1.419-.011-2.523-.373-3.312-1.088-.8-.715-1.206-1.733-1.216-3.056.021-1.387.426-2.453 1.216-3.2.8-.747 1.882-1.125 3.248-1.136 1.376.011 2.442.341 3.2.992.768.661 1.157 1.616 1.168 2.864zm-1.456-.304v-.112c-.022-.768-.299-1.355-.832-1.76-.534-.405-1.232-.608-2.096-.608-.896.011-1.611.235-2.144.672-.523.437-.811 1.04-.864 1.808h5.936zm5.097-1.28c.213-.661.571-1.2 1.072-1.616.501-.416 1.109-.629 1.824-.64.224 0 .427.016.608.048v1.376a1.658 1.658 0 00-.24-.016 1.78 1.78 0 00-.256-.016c-.501 0-.917.069-1.248.208a2.167 2.167 0 00-.832.56 2.692 2.692 0 00-.688 1.296 6.47 6.47 0 00-.144 1.52V205h-1.408v-8h1.312v2.032zm12.959-2.128c-.33 0-.602.059-.816.176a1.017 1.017 0 00-.48.512c.288.245.512.528.672.848.15.331.224.693.224 1.088-.01.832-.336 1.499-.976 2-.65.512-1.552.773-2.704.784-.778 0-1.45-.128-2.016-.384-.224.075-.4.181-.528.32a.68.68 0 00-.208.496c0 .245.107.437.32.576.214.149.56.224 1.04.224h3.152c.95 0 1.659.192 2.128.576.48.373.72.923.72 1.648.011.821-.362 1.456-1.12 1.904-.757.448-1.941.677-3.552.688-1.578-.011-2.704-.219-3.376-.624-.682-.395-1.013-.923-.992-1.584 0-.384.112-.72.336-1.008.224-.288.56-.501 1.008-.64-.33-.139-.57-.325-.72-.56a1.387 1.387 0 01-.24-.8c0-.405.123-.741.368-1.008.235-.267.56-.469.976-.608a2.527 2.527 0 01-.736-.88 2.478 2.478 0 01-.256-1.12c.011-.832.342-1.499.992-2 .64-.501 1.542-.757 2.704-.768.822 0 1.51.133 2.064.4.118-.448.347-.805.688-1.072.352-.256.816-.389 1.392-.4.096 0 .187.005.272.016.096.011.198.027.304.048v1.216a2.671 2.671 0 00-.64-.064zm-4.08 4.368c.715-.011 1.275-.171 1.68-.48.406-.32.614-.741.624-1.264-.01-.523-.218-.939-.624-1.248-.405-.299-.965-.453-1.68-.464-.714 0-1.274.155-1.68.464-.405.299-.613.715-.624 1.248.011.523.219.939.624 1.248.406.32.966.485 1.68.496zm1.488 3.504h-2.928c-.277 0-.528-.016-.752-.048-.298.128-.522.293-.672.496a1.18 1.18 0 00-.224.688c.011.469.283.805.816 1.008.534.203 1.296.304 2.288.304 1.174 0 2.006-.123 2.496-.368.48-.245.715-.576.704-.992 0-.363-.138-.635-.416-.816-.288-.181-.725-.272-1.312-.272zm13.148-4.16v.8h-7.392c.032.811.32 1.445.864 1.904.555.459 1.317.693 2.288.704.715 0 1.323-.133 1.824-.4a2.711 2.711 0 001.136-1.184l1.184.544c-.384.747-.928 1.307-1.632 1.68-.704.384-1.563.576-2.576.576-1.419-.011-2.523-.373-3.312-1.088-.8-.715-1.205-1.733-1.216-3.056.021-1.387.427-2.453 1.216-3.2.8-.747 1.883-1.125 3.248-1.136 1.376.011 2.443.341 3.2.992.768.661 1.157 1.616 1.168 2.864zm-1.456-.304v-.112c-.021-.768-.299-1.355-.832-1.76-.533-.405-1.232-.608-2.096-.608-.896.011-1.611.235-2.144.672-.523.437-.811 1.04-.864 1.808h5.936z" fill="#16013E"/><circle cx="127" cy="199" r="15.5" stroke="#FFFBF5" stroke-width="3"/><rect x="98" y="232" width="210" height="50" rx="6" fill="#FFBFBF"/><path d="M126.949 263.304c-1.366-.011-2.48-.299-3.344-.864-.864-.576-1.398-1.371-1.6-2.384l2.72-.4c.106.491.352.875.736 1.152.384.288.88.432 1.488.432.704 0 1.253-.176 1.648-.528.384-.341.576-.827.576-1.456-.011-.629-.198-1.12-.56-1.472-.374-.352-.896-.528-1.568-.528-.566 0-1.03.117-1.392.352a2.095 2.095 0 00-.832 1.024l-2.48-.224.72-6.528h8.224v2.096h-6.144l-.336 2.592c.288-.395.693-.699 1.216-.912.533-.213 1.152-.32 1.856-.32 1.29.011 2.293.352 3.008 1.024.714.672 1.077 1.616 1.088 2.832-.011 1.28-.459 2.283-1.344 3.008-.886.725-2.112 1.093-3.68 1.104zm32.331-1.616h7.136V263h-8.704v-11.36h8.592v1.312h-7.024v3.568h6.752v1.312h-6.752v3.856zm12.331 1.552c-.992-.011-1.782-.224-2.368-.64-.576-.416-.87-.992-.88-1.728 0-.384.085-.736.255-1.056a2.12 2.12 0 01.737-.768c.277-.171.645-.32 1.104-.448.458-.117 1.082-.213 1.872-.288l2.976-.224v-.144c0-.693-.208-1.211-.624-1.552-.416-.331-1.035-.496-1.856-.496-.779 0-1.398.144-1.856.432a1.671 1.671 0 00-.8 1.248h-1.536c.096-.853.517-1.531 1.264-2.032.736-.512 1.712-.773 2.928-.784 1.312 0 2.293.272 2.944.816.64.555.96 1.397.96 2.528v2.112c0 .661.016 1.205.048 1.632.042.427.106.811.191 1.152h-1.471a4.877 4.877 0 01-.08-.736 17.724 17.724 0 01-.048-.816 3.116 3.116 0 01-1.392 1.328c-.63.309-1.419.464-2.368.464zm.384-1.12c1.002-.011 1.802-.251 2.4-.72.608-.459.917-1.093.928-1.904v-.4l-3.248.304c-.811.085-1.387.24-1.728.464-.331.235-.491.56-.48.976 0 .405.186.72.56.944.362.224.885.336 1.568.336zm8.916-5.088c.213-.661.571-1.2 1.072-1.616.501-.416 1.109-.629 1.824-.64.224 0 .427.016.608.048v1.376a1.658 1.658 0 00-.24-.016 1.78 1.78 0 00-.256-.016c-.501 0-.917.069-1.248.208a2.167 2.167 0 00-.832.56 2.692 2.692 0 00-.688 1.296 6.47 6.47 0 00-.144 1.52V263h-1.408v-8h1.312v2.032zm6.863-5.632V263h-1.408v-11.6h1.408zm3.2 14.848c-.128 0-.261-.005-.4-.016a7.31 7.31 0 01-.432-.048v-1.248c.256.032.486.048.688.048.63 0 1.142-.139 1.536-.416.406-.267.71-.661.912-1.184l.176-.432-3.952-7.952h1.632l2.768 5.872c.128.309.214.56.256.752h.016c.064-.192.15-.443.256-.752l2.592-5.872h1.568l-3.904 8.512c-.448.992-.976 1.701-1.584 2.128-.597.416-1.306.619-2.128.608zM208.77 263l-4.8-11.36h1.696l3.536 8.56c.107.277.192.517.256.72.064.213.117.411.16.592h.048c.043-.181.096-.379.16-.592.064-.203.149-.443.256-.72l3.52-8.56h1.712l-4.8 11.36h-1.744zm10.637.24c-.992-.011-1.781-.224-2.368-.64-.576-.416-.869-.992-.88-1.728 0-.384.086-.736.256-1.056.171-.309.416-.565.736-.768.278-.171.646-.32 1.104-.448.459-.117 1.083-.213 1.872-.288l2.976-.224v-.144c0-.693-.208-1.211-.624-1.552-.416-.331-1.034-.496-1.856-.496-.778 0-1.397.144-1.856.432a1.677 1.677 0 00-.8 1.248h-1.536c.096-.853.518-1.531 1.264-2.032.736-.512 1.712-.773 2.928-.784 1.312 0 2.294.272 2.944.816.64.555.96 1.397.96 2.528v2.112c0 .661.016 1.205.048 1.632.043.427.107.811.192 1.152h-1.472a5.15 5.15 0 01-.08-.736 21.071 21.071 0 01-.048-.816 3.106 3.106 0 01-1.392 1.328c-.629.309-1.418.464-2.368.464zm.384-1.12c1.003-.011 1.803-.251 2.4-.72.608-.459.918-1.093.928-1.904v-.4l-3.248.304c-.81.085-1.386.24-1.728.464-.33.235-.49.56-.48.976 0 .405.187.72.56.944.363.224.886.336 1.568.336zm9.093-10.72V263h-1.408v-11.6h1.408zm3.056 2.128v-1.776h1.648v1.776h-1.648zm.128 9.472v-8h1.408v8h-1.408zm7.763.24c-1.226-.021-2.213-.416-2.96-1.184-.746-.757-1.13-1.776-1.152-3.056.022-1.269.416-2.288 1.184-3.056.758-.768 1.776-1.163 3.056-1.184.736 0 1.376.128 1.92.384a3.455 3.455 0 011.376 1.2V251.4h1.408V263h-1.36v-1.552a3.36 3.36 0 01-1.376 1.328c-.576.309-1.274.464-2.096.464zm.384-1.232c.928-.011 1.67-.267 2.224-.768.555-.501.838-1.179.848-2.032v-.368c-.01-.875-.298-1.568-.864-2.08-.565-.512-1.322-.773-2.272-.784-.917.011-1.637.277-2.16.8-.512.533-.773 1.275-.784 2.224.011.949.283 1.685.816 2.208.523.523 1.254.789 2.192.8zm10.13 1.232c-.992-.011-1.781-.224-2.368-.64-.576-.416-.869-.992-.88-1.728 0-.384.085-.736.256-1.056.171-.309.416-.565.736-.768.277-.171.645-.32 1.104-.448.459-.117 1.083-.213 1.872-.288l2.976-.224v-.144c0-.693-.208-1.211-.624-1.552-.416-.331-1.035-.496-1.856-.496-.779 0-1.397.144-1.856.432a1.674 1.674 0 00-.8 1.248h-1.536c.096-.853.517-1.531 1.264-2.032.736-.512 1.712-.773 2.928-.784 1.312 0 2.293.272 2.944.816.64.555.96 1.397.96 2.528v2.112c0 .661.016 1.205.048 1.632.043.427.107.811.192 1.152h-1.472a5.01 5.01 0 01-.08-.736 21.071 21.071 0 01-.048-.816 3.106 3.106 0 01-1.392 1.328c-.629.309-1.419.464-2.368.464zm.384-1.12c1.003-.011 1.803-.251 2.4-.72.608-.459.917-1.093.928-1.904v-.4l-3.248.304c-.811.085-1.387.24-1.728.464-.331.235-.491.56-.48.976 0 .405.187.72.56.944.363.224.885.336 1.568.336zm6.308-5.968V255h1.92v-2.096l1.424-.592V255h2.848v1.152h-2.848v4.128c0 .544.128.944.384 1.2.267.245.667.368 1.2.368.235 0 .459-.016.672-.048a4.03 4.03 0 00.608-.112v1.264a3.519 3.519 0 01-.688.144 5.425 5.425 0 01-.864.064c-1.098-.021-1.834-.299-2.208-.832-.384-.533-.56-1.189-.528-1.968v-4.208h-1.92zm8.246-2.624v-1.776h1.648v1.776h-1.648zm.128 9.472v-8h1.408v8h-1.408zm8.212.24c-1.387-.011-2.491-.395-3.312-1.152-.821-.747-1.243-1.776-1.264-3.088.021-1.312.443-2.341 1.264-3.088.821-.757 1.925-1.141 3.312-1.152 1.387.011 2.491.395 3.312 1.152.811.747 1.227 1.776 1.248 3.088-.021 1.312-.437 2.341-1.248 3.088-.821.757-1.925 1.141-3.312 1.152zm0-1.216c.949 0 1.696-.261 2.24-.784.544-.523.821-1.269.832-2.24-.011-.971-.288-1.717-.832-2.24-.544-.523-1.291-.784-2.24-.784-.949 0-1.696.261-2.24.784-.544.523-.821 1.269-.832 2.24.011.971.288 1.717.832 2.24.544.523 1.291.784 2.24.784zm6.804.976v-8h1.36v1.744c.661-1.333 1.824-2 3.488-2 1.152 0 2.021.315 2.608.944.597.629.896 1.552.896 2.768V263h-1.408v-4.336c0-1.792-.848-2.688-2.544-2.688-.917.011-1.643.288-2.176.832-.533.544-.805 1.296-.816 2.256V263h-1.408z" fill="#16013E"/><circle cx="127" cy="257" r="15.5" stroke="#FFFBF5" stroke-width="3"/><rect x="98" y="290" width="210" height="50" rx="6" fill="#FFD6BF"/><path d="M127.952 313.448c1.333.011 2.357.347 3.072 1.008.725.651 1.093 1.579 1.104 2.784-.021 1.216-.475 2.192-1.36 2.928-.875.736-2.053 1.115-3.536 1.136-1.696-.011-3.008-.512-3.936-1.504-.917-.981-1.381-2.379-1.392-4.192.011-1.899.485-3.376 1.424-4.432.939-1.056 2.256-1.589 3.952-1.6 1.312 0 2.368.261 3.168.784.811.523 1.317 1.28 1.52 2.272l-2.704.384c-.128-.469-.363-.827-.704-1.072-.352-.235-.8-.352-1.344-.352-.821.011-1.456.293-1.904.848-.459.565-.709 1.376-.752 2.432.341-.469.8-.821 1.376-1.056.576-.245 1.248-.368 2.016-.368zm-.768 5.84c.683-.011 1.221-.187 1.616-.528.395-.352.597-.832.608-1.44 0-.619-.192-1.099-.576-1.44-.384-.341-.923-.512-1.616-.512-.608 0-1.131.149-1.568.448-.437.288-.768.699-.992 1.232.139.725.421 1.28.848 1.664.427.384.987.576 1.68.576zm40.928-9.648V321h-1.568v-5.152h-7.264V321h-1.568v-11.36h1.568v4.896h7.264v-4.896h1.568zm3.14 1.888v-1.776h1.648v1.776h-1.648zm.128 9.472v-8h1.408v8h-1.408zm3.812-5.104h6.176v1.296h-6.176v-1.296zm17.346-4.944h-7.024v3.584h6.752v1.312h-6.752V321h-1.568v-11.36h8.592v1.312zm2.152.576v-1.776h1.648v1.776h-1.648zm.128 9.472v-8h1.408v8h-1.408zm15.333-11.36c1.238.011 2.208.32 2.912.928.715.619 1.078 1.456 1.088 2.512-.01 1.077-.389 1.925-1.136 2.544-.736.619-1.744.933-3.024.944h-3.68V321h-1.568v-11.36h5.408zm-.224 5.616c.8-.011 1.43-.208 1.888-.592.448-.373.678-.901.688-1.584-.01-.661-.24-1.179-.688-1.552-.458-.373-1.082-.565-1.872-.576h-3.632v4.304h3.616zm7.453-.224c.213-.661.57-1.2 1.072-1.616.501-.416 1.109-.629 1.824-.64.224 0 .426.016.608.048v1.376a1.658 1.658 0 00-.24-.016 1.78 1.78 0 00-.256-.016c-.502 0-.918.069-1.248.208a2.167 2.167 0 00-.832.56 2.684 2.684 0 00-.688 1.296 6.47 6.47 0 00-.144 1.52V321h-1.408v-8h1.312v2.032zm9.071 6.208c-1.387-.011-2.491-.395-3.312-1.152-.821-.747-1.243-1.776-1.264-3.088.021-1.312.443-2.341 1.264-3.088.821-.757 1.925-1.141 3.312-1.152 1.387.011 2.491.395 3.312 1.152.811.747 1.227 1.776 1.248 3.088-.021 1.312-.437 2.341-1.248 3.088-.821.757-1.925 1.141-3.312 1.152zm0-1.216c.949 0 1.696-.261 2.24-.784.544-.523.821-1.269.832-2.24-.011-.971-.288-1.717-.832-2.24-.544-.523-1.291-.784-2.24-.784-.949 0-1.696.261-2.24.784-.544.523-.821 1.269-.832 2.24.011.971.288 1.717.832 2.24.544.523 1.291.784 2.24.784zm5.508-5.872V313h1.92v-2.096l1.424-.592V313h2.848v1.152h-2.848v4.128c0 .544.128.944.384 1.2.267.245.667.368 1.2.368.235 0 .459-.016.672-.048.203-.021.405-.059.608-.112v1.264a3.519 3.519 0 01-.688.144 5.443 5.443 0 01-.864.064c-1.099-.021-1.835-.299-2.208-.832-.384-.533-.56-1.189-.528-1.968v-4.208h-1.92zm12.07 7.088c-1.386-.011-2.49-.395-3.312-1.152-.821-.747-1.242-1.776-1.264-3.088.022-1.312.443-2.341 1.264-3.088.822-.757 1.926-1.141 3.312-1.152 1.387.011 2.491.395 3.312 1.152.811.747 1.227 1.776 1.248 3.088-.021 1.312-.437 2.341-1.248 3.088-.821.757-1.925 1.141-3.312 1.152zm0-1.216c.95 0 1.696-.261 2.24-.784.544-.523.822-1.269.832-2.24-.01-.971-.288-1.717-.832-2.24-.544-.523-1.29-.784-2.24-.784-.949 0-1.696.261-2.24.784-.544.523-.821 1.269-.832 2.24.011.971.288 1.717.832 2.24.544.523 1.291.784 2.24.784zm5.508-5.872V313h1.92v-2.096l1.424-.592V313h2.848v1.152h-2.848v4.128c0 .544.128.944.384 1.2.267.245.667.368 1.2.368.235 0 .459-.016.672-.048a4.03 4.03 0 00.608-.112v1.264a3.519 3.519 0 01-.688.144 5.425 5.425 0 01-.864.064c-1.098-.021-1.834-.299-2.208-.832-.384-.533-.56-1.189-.528-1.968v-4.208h-1.92zm8.39 10.096c-.128 0-.261-.005-.4-.016a7.31 7.31 0 01-.432-.048v-1.248c.256.032.486.048.688.048.63 0 1.142-.139 1.536-.416.406-.267.71-.661.912-1.184l.176-.432-3.952-7.952h1.632l2.768 5.872c.128.309.214.56.256.752h.016c.064-.192.15-.443.256-.752l2.592-5.872h1.568l-3.904 8.512c-.448.992-.976 1.701-1.584 2.128-.597.416-1.306.619-2.128.608zm9.25-.128V313h1.36v1.568a3.529 3.529 0 011.424-1.344c.608-.309 1.301-.464 2.08-.464 1.237.021 2.224.411 2.96 1.168.725.757 1.099 1.787 1.12 3.088-.021 1.28-.411 2.299-1.168 3.056-.757.757-1.755 1.147-2.992 1.168-.779-.011-1.467-.165-2.064-.464-.597-.299-1.035-.677-1.312-1.136v4.48h-1.408zm4.4-4.112c.949-.011 1.696-.277 2.24-.8.533-.523.805-1.253.816-2.192-.011-.949-.272-1.691-.784-2.224-.523-.523-1.248-.789-2.176-.8-.939.011-1.691.267-2.256.768-.565.512-.853 1.2-.864 2.064v.368c.011.864.288 1.547.832 2.048.533.501 1.264.757 2.192.768zm14.74-3.392v.8h-7.393c.033.811.321 1.445.865 1.904.554.459 1.317.693 2.288.704.714 0 1.322-.133 1.824-.4a2.71 2.71 0 001.135-1.184l1.184.544c-.383.747-.927 1.307-1.631 1.68-.704.384-1.563.576-2.576.576-1.419-.011-2.523-.373-3.312-1.088-.8-.715-1.206-1.733-1.216-3.056.021-1.387.426-2.453 1.216-3.2.8-.747 1.882-1.125 3.248-1.136 1.376.011 2.442.341 3.2.992.768.661 1.157 1.616 1.168 2.864zm-1.456-.304v-.112c-.022-.768-.299-1.355-.832-1.76-.534-.405-1.232-.608-2.096-.608-.896.011-1.611.235-2.144.672-.523.437-.811 1.04-.865 1.808h5.937z" fill="#16013E"/><circle cx="127" cy="315" r="15.5" stroke="#FFFBF5" stroke-width="3"/><rect x="98" y="348" width="210" height="50" rx="6" fill="#FFDC84"/><path d="M124.43 379v-.224a9.892 9.892 0 011.2-4.672c.779-1.472 1.883-2.811 3.312-4.016h-6.592v-2.208h9.376v2.064c-1.323 1.099-2.357 2.352-3.104 3.76-.757 1.397-1.141 2.997-1.152 4.8V379h-3.04zm33.282 0v-11.36h1.568v10.016h6.688V379h-8.256zm18.183-4.384v.8h-7.392c.032.811.32 1.445.864 1.904.554.459 1.317.693 2.288.704.714 0 1.322-.133 1.824-.4.49-.267.869-.661 1.136-1.184l1.184.544c-.384.747-.928 1.307-1.632 1.68-.704.384-1.563.576-2.576.576-1.419-.011-2.523-.373-3.312-1.088-.8-.715-1.206-1.733-1.216-3.056.021-1.387.426-2.453 1.216-3.2.8-.747 1.882-1.125 3.248-1.136 1.376.011 2.442.341 3.2.992.768.661 1.157 1.616 1.168 2.864zm-1.456-.304v-.112c-.022-.768-.299-1.355-.832-1.76-.534-.405-1.232-.608-2.096-.608-.896.011-1.611.235-2.144.672-.523.437-.811 1.04-.864 1.808h5.936zm6.281 4.928c-.992-.011-1.781-.224-2.368-.64-.576-.416-.869-.992-.88-1.728 0-.384.085-.736.256-1.056.171-.309.416-.565.736-.768.277-.171.645-.32 1.104-.448.459-.117 1.083-.213 1.872-.288l2.976-.224v-.144c0-.693-.208-1.211-.624-1.552-.416-.331-1.035-.496-1.856-.496-.779 0-1.397.144-1.856.432a1.674 1.674 0 00-.8 1.248h-1.536c.096-.853.517-1.531 1.264-2.032.736-.512 1.712-.773 2.928-.784 1.312 0 2.293.272 2.944.816.64.555.96 1.397.96 2.528v2.112c0 .661.016 1.205.048 1.632.043.427.107.811.192 1.152h-1.472a5.01 5.01 0 01-.08-.736 21.071 21.071 0 01-.048-.816 3.106 3.106 0 01-1.392 1.328c-.629.309-1.419.464-2.368.464zm.384-1.12c1.003-.011 1.803-.251 2.4-.72.608-.459.917-1.093.928-1.904v-.4l-3.248.304c-.811.085-1.387.24-1.728.464-.331.235-.491.56-.48.976 0 .405.187.72.56.944.363.224.885.336 1.568.336zm8.916-5.088c.214-.661.571-1.2 1.072-1.616.502-.416 1.11-.629 1.824-.64.224 0 .427.016.608.048v1.376a1.638 1.638 0 00-.24-.016 1.771 1.771 0 00-.256-.016c-.501 0-.917.069-1.248.208-.33.128-.608.315-.832.56a2.692 2.692 0 00-.688 1.296 6.579 6.579 0 00-.144 1.52V379h-1.408v-8h1.312v2.032zm5.376 5.968v-8h1.36v1.744c.661-1.333 1.824-2 3.488-2 1.152 0 2.021.315 2.608.944.597.629.896 1.552.896 2.768V379h-1.408v-4.336c0-1.792-.848-2.688-2.544-2.688-.918.011-1.643.288-2.176.832-.534.544-.806 1.296-.816 2.256V379h-1.408z" fill="#16013E"/><circle cx="127" cy="373" r="15.5" stroke="#FFFBF5" stroke-width="3"/><path d="M347.343 176h-1.568v-11.36h1.568V176zm1.96-6.848V168h1.92v-2.096l1.424-.592V168h2.848v1.152h-2.848v4.128c0 .544.128.944.384 1.2.267.245.667.368 1.2.368.235 0 .459-.016.672-.048.203-.021.405-.059.608-.112v1.264a3.519 3.519 0 01-.688.144 5.443 5.443 0 01-.864.064c-1.099-.021-1.835-.299-2.208-.832-.384-.533-.56-1.189-.528-1.968v-4.208h-1.92zm16.326 2.464v.8h-7.392c.032.811.32 1.445.864 1.904.555.459 1.317.693 2.288.704.715 0 1.323-.133 1.824-.4a2.711 2.711 0 001.136-1.184l1.184.544c-.384.747-.928 1.307-1.632 1.68-.704.384-1.563.576-2.576.576-1.419-.011-2.523-.373-3.312-1.088-.8-.715-1.205-1.733-1.216-3.056.021-1.387.427-2.453 1.216-3.2.8-.747 1.883-1.125 3.248-1.136 1.376.011 2.443.341 3.2.992.768.661 1.157 1.616 1.168 2.864zm-1.456-.304v-.112c-.021-.768-.299-1.355-.832-1.76-.533-.405-1.232-.608-2.096-.608-.896.011-1.611.235-2.144.672-.523.437-.811 1.04-.864 1.808h5.936zm5.097-1.28c.214-.661.571-1.2 1.072-1.616.502-.416 1.11-.629 1.824-.64.224 0 .427.016.608.048v1.376a1.638 1.638 0 00-.24-.016 1.771 1.771 0 00-.256-.016c-.501 0-.917.069-1.248.208-.33.128-.608.315-.832.56a2.692 2.692 0 00-.688 1.296 6.579 6.579 0 00-.144 1.52V176h-1.408v-8h1.312v2.032zm7.872 6.208c-.992-.011-1.782-.224-2.368-.64-.576-.416-.87-.992-.88-1.728 0-.384.085-.736.256-1.056a2.11 2.11 0 01.736-.768c.277-.171.645-.32 1.104-.448.458-.117 1.082-.213 1.872-.288l2.976-.224v-.144c0-.693-.208-1.211-.624-1.552-.416-.331-1.035-.496-1.856-.496-.779 0-1.398.144-1.856.432a1.671 1.671 0 00-.8 1.248h-1.536c.096-.853.517-1.531 1.264-2.032.736-.512 1.712-.773 2.928-.784 1.312 0 2.293.272 2.944.816.64.555.96 1.397.96 2.528v2.112c0 .661.016 1.205.048 1.632.042.427.106.811.192 1.152h-1.472a4.877 4.877 0 01-.08-.736 17.724 17.724 0 01-.048-.816 3.116 3.116 0 01-1.392 1.328c-.63.309-1.419.464-2.368.464zm.384-1.12c1.002-.011 1.802-.251 2.4-.72.608-.459.917-1.093.928-1.904v-.4l-3.248.304c-.811.085-1.387.24-1.728.464-.331.235-.491.56-.48.976 0 .405.186.72.56.944.362.224.885.336 1.568.336zm6.308-5.968V168h1.92v-2.096l1.424-.592V168h2.848v1.152h-2.848v4.128c0 .544.128.944.384 1.2.267.245.667.368 1.2.368.235 0 .459-.016.672-.048.203-.021.405-.059.608-.112v1.264a3.519 3.519 0 01-.688.144 5.443 5.443 0 01-.864.064c-1.099-.021-1.835-.299-2.208-.832-.384-.533-.56-1.189-.528-1.968v-4.208h-1.92zm16.326 2.464v.8h-7.392c.032.811.32 1.445.864 1.904.555.459 1.318.693 2.288.704.715 0 1.323-.133 1.824-.4.491-.267.87-.661 1.136-1.184l1.184.544c-.384.747-.928 1.307-1.632 1.68-.704.384-1.562.576-2.576.576-1.418-.011-2.522-.373-3.312-1.088-.8-.715-1.205-1.733-1.216-3.056.022-1.387.427-2.453 1.216-3.2.8-.747 1.883-1.125 3.248-1.136 1.376.011 2.443.341 3.2.992.768.661 1.158 1.616 1.168 2.864zm-1.456-.304v-.112c-.021-.768-.298-1.355-.832-1.76-.533-.405-1.232-.608-2.096-.608-.896.011-1.61.235-2.144.672-.522.437-.81 1.04-.864 1.808h5.936zM377 128a2 2 0 100 4v-4zm-7.086 3.414a2 2 0 000-2.828l-12.728-12.728a2 2 0 10-2.828 2.828L365.672 130l-11.314 11.314a2 2 0 102.828 2.828l12.728-12.728zM377 132h27v-4h-27v4zm33 6v64h4v-64h-4zm-6 70h-64v4h64v-4zm-70-6v-64h-4v64h4zm6-70h28.5v-4H340v4zm-6 6a6 6 0 016-6v-4c-5.523 0-10 4.477-10 10h4zm6 70a6 6 0 01-6-6h-4c0 5.523 4.477 10 10 10v-4zm70-6a6 6 0 01-6 6v4c5.523 0 10-4.477 10-10h-4zm-6-70a6 6 0 016 6h4c0-5.523-4.477-10-10-10v4zm-40.373 148.64v1.328h-4.336V292h-1.568v-10.032h-4.336v-1.328h10.24zm9.666 6.976v.8h-7.392c.032.811.32 1.445.864 1.904.555.459 1.317.693 2.288.704.715 0 1.323-.133 1.824-.4a2.711 2.711 0 001.136-1.184l1.184.544c-.384.747-.928 1.307-1.632 1.68-.704.384-1.563.576-2.576.576-1.419-.011-2.523-.373-3.312-1.088-.8-.715-1.205-1.733-1.216-3.056.021-1.387.427-2.453 1.216-3.2.8-.747 1.883-1.125 3.248-1.136 1.376.011 2.443.341 3.2.992.768.661 1.157 1.616 1.168 2.864zm-1.456-.304v-.112c-.021-.768-.299-1.355-.832-1.76-.533-.405-1.232-.608-2.096-.608-.896.011-1.611.235-2.144.672-.523.437-.811 1.04-.864 1.808h5.936zm7.337 4.928c-1.184 0-2.144-.224-2.88-.672-.725-.448-1.237-1.088-1.536-1.92l1.328-.432a2.56 2.56 0 001.12 1.392c.534.32 1.227.48 2.08.48.726 0 1.275-.107 1.648-.32.374-.213.56-.533.56-.96.011-.373-.101-.651-.336-.832-.224-.192-.597-.304-1.12-.336l-2.352-.176c-.864-.085-1.509-.325-1.936-.72-.426-.395-.64-.917-.64-1.568.011-.757.336-1.349.976-1.776.64-.416 1.531-.629 2.672-.64 1.11.011 2.016.219 2.72.624.704.405 1.168.965 1.392 1.68l-1.328.448a2.435 2.435 0 00-.992-1.2c-.469-.288-1.093-.432-1.872-.432-.693 0-1.232.107-1.616.32-.373.213-.565.523-.576.928 0 .661.512 1.04 1.536 1.136l2.384.176c.886.085 1.52.32 1.904.704.395.384.587.901.576 1.552 0 .789-.304 1.408-.912 1.856-.608.448-1.541.677-2.8.688zm4.777-7.088V284h1.92v-2.096l1.424-.592V284h2.848v1.152h-2.848v4.128c0 .544.128.944.384 1.2.267.245.667.368 1.2.368.235 0 .459-.016.672-.048a4.03 4.03 0 00.608-.112v1.264a3.519 3.519 0 01-.688.144 5.425 5.425 0 01-.864.064c-1.098-.021-1.834-.299-2.208-.832-.384-.533-.56-1.189-.528-1.968v-4.208h-1.92zM377 244a2 2 0 100 4v-4zm-7.086 3.414a2 2 0 000-2.828l-12.728-12.728a2 2 0 10-2.828 2.828L365.672 246l-11.314 11.314a2 2 0 102.828 2.828l12.728-12.728zM377 248h27v-4h-27v4zm33 6v64h4v-64h-4zm-6 70h-64v4h64v-4zm-70-6v-64h-4v64h4zm6-70h28.5v-4H340v4zm-6 6a6 6 0 016-6v-4c-5.523 0-10 4.477-10 10h4zm6 70a6 6 0 01-6-6h-4c0 5.523 4.477 10 10 10v-4zm70-6a6 6 0 01-6 6v4c5.523 0 10-4.477 10-10h-4zm-6-70a6 6 0 016 6h4c0-5.523-4.477-10-10-10v4zm-72 126a2 2 0 100 4v-4zm-1.414-350.414a2 2 0 000 2.828l12.728 12.728a2 2 0 102.828-2.828L334.828 25l11.314-11.314a2 2 0 00-2.828-2.828l-12.728 12.728zM332 378h112v-4H332v4zm122-10V142h-4v226h4zm0-226V33h-4v109h4zM444 23H332v4h112v-4zm10 10c0-5.523-4.477-10-10-10v4a6 6 0 016 6h4zm-10 345c5.523 0 10-4.477 10-10h-4a6 6 0 01-6 6v4z" fill="#16013E"/><rect x="50" width="166" height="50" rx="6" transform="rotate(90 50 0)" fill="#007A8B"/><path d="M31 123.288H19.64v-4.88c.01-1.824.507-3.28 1.488-4.368.97-1.077 2.336-1.632 4.096-1.664 1.76.032 3.157.592 4.192 1.68 1.035 1.088 1.563 2.539 1.584 4.352v4.88zm-1.312-1.568v-3.296c-.021-1.397-.432-2.475-1.232-3.232-.81-.757-1.888-1.141-3.232-1.152-1.344.011-2.39.411-3.136 1.2-.747.789-1.125 1.877-1.136 3.264v3.216h8.736zm-8.16-11.394h-1.776v-1.648h1.776v1.648zm9.472-.128h-8v-1.408h8v1.408zm.24-8.068c0 1.184-.224 2.144-.672 2.88-.448.726-1.088 1.238-1.92 1.536l-.432-1.328a2.551 2.551 0 001.392-1.12c.32-.533.48-1.226.48-2.08 0-.725-.107-1.274-.32-1.648-.213-.373-.533-.56-.96-.56-.373-.01-.65.102-.832.336-.192.224-.304.598-.336 1.12l-.176 2.352c-.085.864-.325 1.51-.72 1.936-.395.427-.917.64-1.568.64-.757-.01-1.35-.336-1.776-.976-.416-.64-.63-1.53-.64-2.672.01-1.109.219-2.016.624-2.72.405-.704.965-1.168 1.68-1.392l.448 1.328a2.442 2.442 0 00-1.2.992c-.288.47-.432 1.094-.432 1.872 0 .694.107 1.232.32 1.616.213.374.523.566.928.576.661 0 1.04-.512 1.136-1.536l.176-2.384c.085-.885.32-1.52.704-1.904.384-.394.901-.586 1.552-.576.79 0 1.408.304 1.856.912.448.608.677 1.542.688 2.8zm0-9.689c-.01 1.376-.395 2.464-1.152 3.264-.757.8-1.787 1.211-3.088 1.232-1.323-.01-2.357-.421-3.104-1.232-.747-.8-1.125-1.898-1.136-3.296 0-1.184.25-2.128.752-2.832.501-.704 1.237-1.152 2.208-1.344l.176 1.488c-.63.15-1.11.448-1.44.896-.32.459-.48 1.067-.48 1.824.01.95.272 1.686.784 2.208.523.512 1.264.774 2.224.784.97-.01 1.717-.277 2.24-.8.523-.533.79-1.274.8-2.224 0-1.461-.635-2.384-1.904-2.768l.224-1.392c.917.214 1.627.683 2.128 1.408.501.726.757 1.654.768 2.784zm0-10.142c-.01 1.386-.395 2.49-1.152 3.312-.747.821-1.776 1.242-3.088 1.264-1.312-.022-2.341-.443-3.088-1.264-.757-.822-1.141-1.925-1.152-3.312.01-1.387.395-2.49 1.152-3.312.747-.81 1.776-1.227 3.088-1.248 1.312.021 2.341.437 3.088 1.248.757.821 1.141 1.925 1.152 3.312zm-1.216 0c0-.95-.261-1.696-.784-2.24-.523-.544-1.27-.822-2.24-.832-.97.01-1.717.288-2.24.832-.523.544-.784 1.29-.784 2.24 0 .95.261 1.696.784 2.24.523.544 1.27.821 2.24.832.97-.01 1.717-.288 2.24-.832.523-.544.784-1.29.784-2.24zM31 73.207l-8 3.744v-1.568l5.792-2.656c.32-.128.619-.224.896-.288v-.032a21.773 21.773 0 00-.432-.128 4.823 4.823 0 01-.464-.16L23 69.463v-1.568l8 3.744v1.568zm-4.384-14.914h.8v7.392c.81-.032 1.445-.32 1.904-.864.459-.555.693-1.317.704-2.288 0-.715-.133-1.323-.4-1.824a2.71 2.71 0 00-1.184-1.136l.544-1.184c.747.384 1.307.928 1.68 1.632.384.704.576 1.563.576 2.576-.01 1.419-.373 2.523-1.088 3.312-.715.8-1.733 1.205-3.056 1.216-1.387-.022-2.453-.427-3.2-1.216-.747-.8-1.125-1.883-1.136-3.248.01-1.376.341-2.443.992-3.2.661-.768 1.616-1.157 2.864-1.168zm-.304 1.456H26.2c-.768.021-1.355.298-1.76.832-.405.533-.608 1.232-.608 2.096.01.896.235 1.61.672 2.144.437.523 1.04.81 1.808.864v-5.936zm-1.28-5.097a3.406 3.406 0 01-1.616-1.072c-.416-.502-.63-1.11-.64-1.824 0-.224.016-.427.048-.608H24.2a1.79 1.79 0 00-.016.24c-.01.074-.016.16-.016.256 0 .501.07.917.208 1.248.128.33.315.608.56.832.373.352.805.581 1.296.688.49.106.997.154 1.52.144H31v1.408h-8v-1.312h2.032zm9.216-5.392a6.407 6.407 0 01-.064.832h-1.248a5.6 5.6 0 00.048-.688c0-.63-.139-1.141-.416-1.536-.267-.405-.661-.71-1.184-.912l-.432-.176L23 50.732V49.1l5.872-2.768c.31-.128.56-.213.752-.256v-.016c-.192-.064-.443-.15-.752-.256L23 43.212v-1.568l8.512 3.904c.992.448 1.701.976 2.128 1.584.416.598.619 1.307.608 2.128z" fill="#FFFBF5"/><rect x="50" y="174" width="166" height="50" rx="6" transform="rotate(90 50 174)" fill="#FF415C"/><path d="M31 313.288H19.64v-4.88c.01-1.824.507-3.28 1.488-4.368.97-1.077 2.336-1.632 4.096-1.664 1.76.032 3.157.592 4.192 1.68 1.035 1.088 1.563 2.539 1.584 4.352v4.88zm-1.312-1.568v-3.296c-.021-1.397-.432-2.475-1.232-3.232-.81-.757-1.888-1.141-3.232-1.152-1.344.011-2.39.411-3.136 1.2-.747.789-1.125 1.877-1.136 3.264v3.216h8.736zm-3.072-19.474h.8v7.392c.81-.032 1.445-.32 1.904-.864.459-.555.693-1.317.704-2.288 0-.715-.133-1.323-.4-1.824a2.711 2.711 0 00-1.184-1.136l.544-1.184c.747.384 1.307.928 1.68 1.632.384.704.576 1.563.576 2.576-.01 1.419-.373 2.523-1.088 3.312-.715.8-1.733 1.205-3.056 1.216-1.387-.021-2.453-.427-3.2-1.216-.747-.8-1.125-1.883-1.136-3.248.01-1.376.341-2.443.992-3.2.661-.768 1.616-1.157 2.864-1.168zm-.304 1.456H26.2c-.768.021-1.355.299-1.76.832-.405.533-.608 1.232-.608 2.096.01.896.235 1.611.672 2.144.437.523 1.04.811 1.808.864v-5.936zM31 287.629l-8 3.744v-1.568l5.792-2.656c.32-.128.619-.224.896-.288v-.032a17.04 17.04 0 00-.432-.128 4.907 4.907 0 01-.464-.16L23 283.885v-1.568l8 3.744v1.568zm-4.384-14.914h.8v7.392c.81-.032 1.445-.32 1.904-.864.459-.555.693-1.318.704-2.288 0-.715-.133-1.323-.4-1.824a2.706 2.706 0 00-1.184-1.136l.544-1.184c.747.384 1.307.928 1.68 1.632.384.704.576 1.562.576 2.576-.01 1.418-.373 2.522-1.088 3.312-.715.8-1.733 1.205-3.056 1.216-1.387-.022-2.453-.427-3.2-1.216-.747-.8-1.125-1.883-1.136-3.248.01-1.376.341-2.443.992-3.2.661-.768 1.616-1.158 2.864-1.168zm-.304 1.456H26.2c-.768.021-1.355.298-1.76.832-.405.533-.608 1.232-.608 2.096.01.896.235 1.61.672 2.144.437.522 1.04.81 1.808.864v-5.936zm-6.912-5.274H31v1.408H19.4v-1.408zm11.84-6.879c-.01 1.386-.395 2.49-1.152 3.312-.747.821-1.776 1.242-3.088 1.264-1.312-.022-2.341-.443-3.088-1.264-.757-.822-1.141-1.926-1.152-3.312.01-1.387.395-2.491 1.152-3.312.747-.811 1.776-1.227 3.088-1.248 1.312.021 2.341.437 3.088 1.248.757.821 1.141 1.925 1.152 3.312zm-1.216 0c0-.95-.261-1.696-.784-2.24-.523-.544-1.27-.822-2.24-.832-.97.01-1.717.288-2.24.832-.523.544-.784 1.29-.784 2.24 0 .949.261 1.696.784 2.24.523.544 1.27.821 2.24.832.97-.011 1.717-.288 2.24-.832.523-.544.784-1.291.784-2.24zm4.096-6.804H23v-1.36h1.568a3.535 3.535 0 01-1.344-1.424c-.31-.608-.464-1.302-.464-2.08.021-1.238.41-2.224 1.168-2.96.757-.726 1.787-1.099 3.088-1.12 1.28.021 2.299.41 3.056 1.168.757.757 1.147 1.754 1.168 2.992-.01.778-.165 1.466-.464 2.064-.299.597-.677 1.034-1.136 1.312h4.48v1.408zm-4.112-4.4c-.01-.95-.277-1.696-.8-2.24-.523-.534-1.253-.806-2.192-.816-.95.01-1.69.272-2.224.784-.523.522-.79 1.248-.8 2.176.01.938.267 1.69.768 2.256.512.565 1.2.853 2.064.864h.368c.864-.011 1.547-.288 2.048-.832.501-.534.757-1.264.768-2.192zM23 244.026v-1.36h1.6c-.619-.256-1.083-.629-1.392-1.12-.31-.491-.464-1.088-.464-1.792 0-.725.16-1.333.48-1.824.32-.491.79-.848 1.408-1.072-.619-.309-1.088-.725-1.408-1.248-.32-.523-.48-1.136-.48-1.84 0-1.003.299-1.771.896-2.304.597-.533 1.461-.8 2.592-.8H31v1.408h-4.656c-.779 0-1.365.176-1.76.528-.405.352-.608.875-.608 1.568.01.768.245 1.371.704 1.808.459.427 1.099.645 1.92.656H31v1.424h-4.656c-.768 0-1.355.176-1.76.528-.405.352-.608.869-.608 1.552.01.757.256 1.36.736 1.808.49.437 1.157.661 2 .672H31v1.408h-8zm3.616-24.108h.8v7.392c.81-.032 1.445-.32 1.904-.864.459-.555.693-1.317.704-2.288 0-.715-.133-1.323-.4-1.824a2.711 2.711 0 00-1.184-1.136l.544-1.184c.747.384 1.307.928 1.68 1.632.384.704.576 1.563.576 2.576-.01 1.419-.373 2.523-1.088 3.312-.715.8-1.733 1.205-3.056 1.216-1.387-.021-2.453-.427-3.2-1.216-.747-.8-1.125-1.883-1.136-3.248.01-1.376.341-2.443.992-3.2.661-.768 1.616-1.157 2.864-1.168zm-.304 1.456H26.2c-.768.021-1.355.299-1.76.832-.405.533-.608 1.232-.608 2.096.01.896.235 1.611.672 2.144.437.523 1.04.811 1.808.864v-5.936zM31 217.589h-8v-1.36h1.744c-1.333-.662-2-1.824-2-3.488 0-1.152.315-2.022.944-2.608.63-.598 1.552-.896 2.768-.896H31v1.408h-4.336c-1.792 0-2.688.848-2.688 2.544.01.917.288 1.642.832 2.176.544.533 1.296.805 2.256.816H31v1.408zm-6.848-9.861H23v-1.92h-2.096l-.592-1.424H23v-2.848h1.152v2.848h4.128c.544 0 .944-.128 1.2-.384.245-.266.368-.666.368-1.2 0-.234-.016-.458-.048-.672a4.077 4.077 0 00-.112-.608h1.264c.064.192.112.422.144.688.043.267.064.555.064.864-.021 1.099-.299 1.835-.832 2.208-.533.384-1.19.56-1.968.528h-4.208v1.92z" fill="#FFFBF5"/><path d="M72.586 377.414a2 2 0 002.828 0l12.728-12.728a2 2 0 10-2.828-2.828L74 373.172l-11.314-11.314a2 2 0 00-2.828 2.828l12.728 12.728zM72 25v351h4V25h-4z" fill="#000"/></svg>