<svg width="991" height="325" fill="none" xmlns="http://www.w3.org/2000/svg"><path fill="#FFFBF5" stroke="#005A38" stroke-width="4" d="M187.828 162.5L347.634 2.828l159.672 159.806L347.5 322.306z"/><path fill="#FFFBF5" stroke="#0957E8" stroke-width="4" d="M507.827 162.5L667.633 2.828l159.672 159.806-159.806 159.672z"/><path d="M183.712 58.605v-11.36h4.88c1.824.01 3.28.506 4.368 1.488 1.077.97 1.632 2.336 1.664 4.096-.032 1.76-.592 3.157-1.68 4.191-1.088 1.035-2.539 1.563-4.352 1.584h-4.88zm1.568-1.313h3.296c1.397-.02 2.475-.431 3.232-1.232.757-.81 1.141-1.888 1.152-3.232-.011-1.344-.411-2.389-1.2-3.136-.789-.746-1.877-1.125-3.264-1.136h-3.216v8.736zm11.394-8.16v-1.776h1.648v1.776h-1.648zm.128 9.473v-8h1.408v8h-1.408zm6.804 0l-3.744-8h1.568l2.656 5.792c.128.32.224.618.288.895h.032c.042-.138.085-.282.128-.431.042-.15.096-.304.16-.464l2.656-5.792h1.568l-3.744 8h-1.568zm14.914-4.384v.8h-7.392c.032.81.32 1.445.864 1.904.554.458 1.317.693 2.288.704.714 0 1.322-.134 1.824-.4.49-.267.869-.662 1.136-1.184l1.184.544c-.384.746-.928 1.306-1.632 1.68-.704.384-1.563.575-2.576.575-1.419-.01-2.523-.373-3.312-1.087-.8-.715-1.206-1.734-1.216-3.056.021-1.387.426-2.454 1.216-3.2.8-.747 1.882-1.126 3.248-1.136 1.376.01 2.442.34 3.2.991.768.662 1.157 1.616 1.168 2.864zm-1.456-.304v-.113c-.022-.768-.299-1.354-.832-1.76-.534-.405-1.232-.607-2.096-.607-.896.01-1.611.234-2.144.672-.523.437-.811 1.04-.864 1.807h5.936zm5.097-1.28c.213-.662.571-1.2 1.072-1.617.501-.416 1.109-.629 1.824-.64.224 0 .427.017.608.048v1.377a1.701 1.701 0 00-.24-.017 1.825 1.825 0 00-.256-.015c-.501 0-.917.069-1.248.207a2.164 2.164 0 00-.832.56 2.695 2.695 0 00-.688 1.297 6.47 6.47 0 00-.144 1.52v3.248h-1.408v-8h1.312v2.032zm12.959-2.129c-.33 0-.602.06-.816.176a1.018 1.018 0 00-.48.513c.288.245.512.527.672.847.15.331.224.694.224 1.089-.01.831-.336 1.498-.976 2-.65.511-1.552.773-2.704.783-.778 0-1.45-.127-2.016-.383-.224.074-.4.18-.528.32a.68.68 0 00-.208.495c0 .246.107.438.32.577.214.149.56.224 1.04.224h3.152c.95 0 1.659.191 2.128.575.48.374.72.923.72 1.649.011.82-.362 1.456-1.12 1.904-.757.447-1.941.677-3.552.688-1.578-.011-2.704-.22-3.376-.625-.682-.394-1.013-.922-.992-1.584 0-.383.112-.72.336-1.008.224-.287.56-.5 1.008-.64-.33-.138-.57-.325-.72-.56a1.387 1.387 0 01-.24-.8c0-.405.123-.74.368-1.008.235-.266.56-.469.976-.608a2.527 2.527 0 01-.736-.88 2.478 2.478 0 01-.256-1.12c.011-.831.342-1.498.992-2 .64-.5 1.542-.757 2.704-.767.822 0 1.51.133 2.064.4a1.94 1.94 0 01.688-1.072c.352-.256.816-.39 1.392-.4a3.375 3.375 0 01.576.063v1.216a2.687 2.687 0 00-.64-.064zm-4.08 4.368c.715-.01 1.275-.17 1.68-.48.406-.32.614-.74.624-1.264-.01-.522-.218-.938-.624-1.247-.405-.3-.965-.454-1.68-.465-.714 0-1.274.155-1.68.465-.405.298-.613.714-.624 1.248.011.522.219.938.624 1.247.406.32.966.486 1.68.496zm1.488 3.505H229.6c-.277 0-.528-.017-.752-.048-.298.128-.522.293-.672.495a1.18 1.18 0 00-.224.688c.011.47.283.806.816 1.009.534.202 1.296.303 2.288.303 1.174 0 2.006-.122 2.496-.367.48-.246.715-.576.704-.992 0-.363-.138-.635-.416-.816-.288-.182-.725-.273-1.312-.273zm13.148-4.16v.8h-7.392c.032.81.32 1.445.864 1.904.555.458 1.317.693 2.288.704.715 0 1.323-.134 1.824-.4a2.711 2.711 0 001.136-1.184l1.184.544c-.384.746-.928 1.306-1.632 1.68-.704.384-1.563.575-2.576.575-1.419-.01-2.523-.373-3.312-1.087-.8-.715-1.205-1.734-1.216-3.056.021-1.387.427-2.454 1.216-3.2.8-.747 1.883-1.126 3.248-1.136 1.376.01 2.443.34 3.2.991.768.662 1.157 1.616 1.168 2.864zm-1.456-.304v-.113c-.021-.768-.299-1.354-.832-1.76-.533-.405-1.232-.607-2.096-.607-.896.01-1.611.234-2.144.672-.523.437-.811 1.04-.864 1.807h5.936zm-60.508 225.505v-11.36h4.88c1.824.011 3.28.507 4.368 1.488 1.077.971 1.632 2.336 1.664 4.096-.032 1.76-.592 3.157-1.68 4.192-1.088 1.035-2.539 1.563-4.352 1.584h-4.88zm1.568-1.312h3.296c1.397-.021 2.475-.432 3.232-1.232.757-.811 1.141-1.888 1.152-3.232-.011-1.344-.411-2.389-1.2-3.136-.789-.747-1.877-1.125-3.264-1.136h-3.216v8.736zm11.394-8.16v-1.776h1.648v1.776h-1.648zm.128 9.472v-8h1.408v8h-1.408zm6.804 0l-3.744-8h1.568l2.656 5.792c.128.32.224.619.288.896h.032c.042-.139.085-.283.128-.432.042-.149.096-.304.16-.464l2.656-5.792h1.568l-3.744 8h-1.568zm14.914-4.384v.8h-7.392c.032.811.32 1.445.864 1.904.554.459 1.317.693 2.288.704.714 0 1.322-.133 1.824-.4.49-.267.869-.661 1.136-1.184l1.184.544c-.384.747-.928 1.307-1.632 1.68-.704.384-1.563.576-2.576.576-1.419-.011-2.523-.373-3.312-1.088-.8-.715-1.206-1.733-1.216-3.056.021-1.387.426-2.453 1.216-3.2.8-.747 1.882-1.125 3.248-1.136 1.376.011 2.442.341 3.2.992.768.661 1.157 1.616 1.168 2.864zm-1.456-.304v-.112c-.022-.768-.299-1.355-.832-1.76-.534-.405-1.232-.608-2.096-.608-.896.011-1.611.235-2.144.672-.523.437-.811 1.04-.864 1.808h5.936zm5.097-1.28c.213-.661.571-1.2 1.072-1.616.501-.416 1.109-.629 1.824-.64.224 0 .427.016.608.048v1.376a1.658 1.658 0 00-.24-.016 1.78 1.78 0 00-.256-.016c-.501 0-.917.069-1.248.208a2.167 2.167 0 00-.832.56 2.692 2.692 0 00-.688 1.296 6.47 6.47 0 00-.144 1.52v3.248h-1.408v-8h1.312v2.032zm12.959-2.128c-.33 0-.602.059-.816.176a1.017 1.017 0 00-.48.512c.288.245.512.528.672.848.15.331.224.693.224 1.088-.01.832-.336 1.499-.976 2-.65.512-1.552.773-2.704.784-.778 0-1.45-.128-2.016-.384-.224.075-.4.181-.528.32a.68.68 0 00-.208.496c0 .245.107.437.32.576.214.149.56.224 1.04.224h3.152c.95 0 1.659.192 2.128.576.48.373.72.923.72 1.648.011.821-.362 1.456-1.12 1.904-.757.448-1.941.677-3.552.688-1.578-.011-2.704-.219-3.376-.624-.682-.395-1.013-.923-.992-1.584 0-.384.112-.72.336-1.008.224-.288.56-.501 1.008-.64-.33-.139-.57-.325-.72-.56a1.387 1.387 0 01-.24-.8c0-.405.123-.741.368-1.008.235-.267.56-.469.976-.608a2.527 2.527 0 01-.736-.88 2.478 2.478 0 01-.256-1.12c.011-.832.342-1.499.992-2 .64-.501 1.542-.757 2.704-.768.822 0 1.51.133 2.064.4.118-.448.347-.805.688-1.072.352-.256.816-.389 1.392-.4.096 0 .187.005.272.016.096.011.198.027.304.048v1.216a2.671 2.671 0 00-.64-.064zm-4.08 4.368c.715-.011 1.275-.171 1.68-.48.406-.32.614-.741.624-1.264-.01-.523-.218-.939-.624-1.248-.405-.299-.965-.453-1.68-.464-.714 0-1.274.155-1.68.464-.405.299-.613.715-.624 1.248.011.523.219.939.624 1.248.406.32.966.485 1.68.496zm1.488 3.504H229.6c-.277 0-.528-.016-.752-.048-.298.128-.522.293-.672.496a1.18 1.18 0 00-.224.688c.011.469.283.805.816 1.008.534.203 1.296.304 2.288.304 1.174 0 2.006-.123 2.496-.368.48-.245.715-.576.704-.992 0-.363-.138-.635-.416-.816-.288-.181-.725-.272-1.312-.272zm13.148-4.16v.8h-7.392c.032.811.32 1.445.864 1.904.555.459 1.317.693 2.288.704.715 0 1.323-.133 1.824-.4a2.711 2.711 0 001.136-1.184l1.184.544c-.384.747-.928 1.307-1.632 1.68-.704.384-1.563.576-2.576.576-1.419-.011-2.523-.373-3.312-1.088-.8-.715-1.205-1.733-1.216-3.056.021-1.387.427-2.453 1.216-3.2.8-.747 1.883-1.125 3.248-1.136 1.376.011 2.443.341 3.2.992.768.661 1.157 1.616 1.168 2.864zm-1.456-.304v-.112c-.021-.768-.299-1.355-.832-1.76-.533-.405-1.232-.608-2.096-.608-.896.011-1.611.235-2.144.672-.523.437-.811 1.04-.864 1.808h5.936zM8.46 171.072c-2.52-.027-4.473-.7-5.86-2.02-1.387-1.333-2.087-3.147-2.1-5.44.027-2.293.76-4.113 2.2-5.46 1.427-1.36 3.373-2.053 5.84-2.08 2.04.013 3.7.48 4.98 1.4 1.28.907 2.08 2.18 2.4 3.82l-3.68.64c-.187-.973-.6-1.72-1.24-2.24-.64-.533-1.487-.8-2.54-.8-1.333.013-2.367.433-3.1 1.26-.747.827-1.127 1.967-1.14 3.42.013 1.427.4 2.553 1.16 3.38.76.84 1.813 1.267 3.16 1.28 1.013 0 1.84-.253 2.48-.76.64-.493 1.067-1.213 1.28-2.16l3.66.78c-.453 1.573-1.32 2.793-2.6 3.66s-2.913 1.307-4.9 1.32zm23.705-14.6v14.2h-3.6v-5.86h-6.9v5.86h-3.58v-14.2h3.58v5.66h6.9v-5.66h3.6zm14.484 14.2l-1.18-3.1h-6.5l-1.2 3.1h-3.72l6.04-14.2h4.26l6.02 14.2h-3.72zm-6.74-5.54h4.62l-1.36-3.56c-.214-.493-.4-.94-.56-1.34-.147-.4-.274-.833-.38-1.3h-.04c-.094.467-.214.9-.36 1.3-.16.4-.347.847-.56 1.34l-1.36 3.56zm12.356 5.54v-14.2h3.58v11.32h7.44v2.88h-11.02zm13.086 0v-14.2h3.58v11.32h7.44v2.88H65.35zm16.666-2.62h8.2v2.62h-11.78v-14.2h11.64v2.6h-8.06v3.1h7.72v2.52h-7.72v3.36zm10.932 2.62v-14.2h3.92l5.9 8.14c.186.28.366.573.54.88a6.2 6.2 0 01.42.84h.04v-9.86h3.28v14.2h-3.72l-6.12-8.24c-.174-.28-.347-.567-.52-.86a7.9 7.9 0 01-.42-.8h-.06c.013.293.02.6.02.92v8.98h-3.28zm23.462.4c-2.266-.027-4.033-.707-5.3-2.04-1.266-1.333-1.906-3.127-1.92-5.38.027-2.28.754-4.107 2.18-5.48 1.414-1.36 3.38-2.06 5.9-2.1 2.027.027 3.66.44 4.9 1.24 1.24.813 2.027 1.893 2.36 3.24l-3.7.68a3.23 3.23 0 00-1.18-1.8c-.613-.453-1.426-.687-2.44-.7-1.373.013-2.426.453-3.16 1.32-.746.853-1.126 2.033-1.14 3.54.014 1.493.387 2.667 1.12 3.52.747.853 1.814 1.287 3.2 1.3 1.28-.04 2.26-.36 2.94-.96.68-.587 1.034-1.26 1.06-2.02v-.22h-4.32v-2.46h7.62v7.92h-2.62l-.16-2.22c-.413.787-1.066 1.413-1.96 1.88-.893.48-2.02.727-3.38.74zm14.434-3.02h8.2v2.62h-11.78v-14.2h11.64v2.6h-8.06v3.1h7.72v2.52h-7.72v3.36zm751.735 2.866c-2.48-.027-4.44-.707-5.88-2.04-1.44-1.32-2.173-3.14-2.2-5.46.027-2.32.76-4.14 2.2-5.46 1.44-1.334 3.4-2.014 5.88-2.04 2.48.026 4.44.706 5.88 2.04 1.44 1.32 2.173 3.14 2.2 5.46-.027 2.32-.76 4.14-2.2 5.46-1.44 1.333-3.4 2.013-5.88 2.04zm0-2.76c1.347-.014 2.4-.44 3.16-1.28.773-.827 1.167-1.98 1.18-3.46-.013-1.48-.407-2.634-1.18-3.46-.76-.84-1.813-1.267-3.16-1.28-1.347.013-2.4.44-3.16 1.28-.773.826-1.167 1.98-1.18 3.46.013 1.466.407 2.62 1.18 3.46.76.84 1.813 1.266 3.16 1.28zm9.848-11.84h3.6v8.4c.013 1 .313 1.806.9 2.42.587.6 1.42.906 2.5.92 1.093-.014 1.933-.32 2.52-.92.587-.614.88-1.42.88-2.42v-8.4h3.6v8.64c-.013 1.826-.627 3.266-1.84 4.32-1.2 1.066-2.92 1.613-5.16 1.64-2.24-.027-3.96-.574-5.16-1.64-1.213-1.067-1.827-2.514-1.84-4.34v-8.62zm28.843 0v2.84h-4.92v11.36h-3.58v-11.36h-4.92v-2.84h13.42zm8.611 14.6c-2.52-.027-4.473-.7-5.86-2.02-1.387-1.334-2.087-3.147-2.1-5.44.027-2.294.76-4.114 2.2-5.46 1.427-1.36 3.373-2.054 5.84-2.08 2.04.013 3.7.48 4.98 1.4 1.28.906 2.08 2.18 2.4 3.82l-3.68.64c-.187-.974-.6-1.72-1.24-2.24-.64-.534-1.487-.8-2.54-.8-1.333.013-2.367.433-3.1 1.26-.747.826-1.127 1.966-1.14 3.42.013 1.426.4 2.553 1.16 3.38.76.84 1.813 1.266 3.16 1.28 1.013 0 1.84-.254 2.48-.76.64-.494 1.067-1.214 1.28-2.16l3.66.78c-.453 1.573-1.32 2.793-2.6 3.66-1.28.866-2.913 1.306-4.9 1.32zm16.565 0c-2.48-.027-4.44-.707-5.88-2.04-1.44-1.32-2.173-3.14-2.2-5.46.027-2.32.76-4.14 2.2-5.46 1.44-1.334 3.4-2.014 5.88-2.04 2.48.026 4.44.706 5.88 2.04 1.44 1.32 2.174 3.14 2.2 5.46-.026 2.32-.76 4.14-2.2 5.46-1.44 1.333-3.4 2.013-5.88 2.04zm0-2.76c1.347-.014 2.4-.44 3.16-1.28.774-.827 1.167-1.98 1.18-3.46-.013-1.48-.406-2.634-1.18-3.46-.76-.84-1.813-1.267-3.16-1.28-1.346.013-2.4.44-3.16 1.28-.773.826-1.166 1.98-1.18 3.46.014 1.466.407 2.62 1.18 3.46.76.84 1.814 1.266 3.16 1.28zm10.228 2.36v-14.2h5.12l3.14 8.7c.2.613.333 1.16.4 1.64h.04c.027-.24.08-.5.16-.78.067-.28.153-.574.26-.88l3.08-8.68h5.2v14.2h-3.28v-9.5c0-.307.007-.62.02-.94l.08-.92h-.06c-.04.2-.107.453-.2.76-.093.32-.193.613-.3.88l-3.48 9.72h-3.16l-3.5-9.72a8.978 8.978 0 01-.46-1.62h-.08c.04.266.067.553.08.86.013.32.02.646.02.98v9.5h-3.08zm24.264-2.62h8.2v2.62h-11.78v-14.2h11.64v2.6h-8.06v3.1h7.72v2.52h-7.72v3.36zM453.672 58.925c-1.973-.032-3.472-.603-4.496-1.712-1.024-1.11-1.541-2.544-1.552-4.305.011-1.802.549-3.242 1.616-4.32 1.067-1.077 2.565-1.632 4.496-1.663 1.557.01 2.795.378 3.712 1.104.907.725 1.483 1.727 1.728 3.007l-1.632.16c-.192-.917-.613-1.637-1.264-2.16-.661-.511-1.536-.773-2.624-.784-1.387.022-2.459.443-3.216 1.264-.768.822-1.157 1.947-1.168 3.377.011 1.386.4 2.506 1.168 3.36.779.864 1.867 1.306 3.264 1.328 1.024-.011 1.872-.257 2.544-.737.661-.48 1.12-1.168 1.376-2.063l1.552.272c-.331 1.173-.949 2.106-1.856 2.8-.896.693-2.112 1.05-3.648 1.072zm11.435-.08c-1.386-.011-2.49-.395-3.312-1.152-.821-.747-1.242-1.776-1.264-3.088.022-1.313.443-2.342 1.264-3.088.822-.758 1.926-1.142 3.312-1.153 1.387.011 2.491.395 3.312 1.153.811.746 1.227 1.775 1.248 3.087-.021 1.313-.437 2.342-1.248 3.089-.821.757-1.925 1.14-3.312 1.151zm0-1.216c.95 0 1.696-.262 2.24-.785.544-.522.822-1.269.832-2.24-.01-.97-.288-1.717-.832-2.24-.544-.522-1.29-.783-2.24-.783-.949 0-1.696.26-2.24.783-.544.523-.821 1.27-.832 2.24.011.971.288 1.718.832 2.24.544.523 1.291.785 2.24.785zm6.804.976v-8h1.36v1.744c.662-1.334 1.824-2 3.488-2 1.152 0 2.022.314 2.608.944.598.629.896 1.551.896 2.767v4.544h-1.408V54.27c0-1.792-.848-2.688-2.544-2.688-.917.01-1.642.287-2.176.831-.533.544-.805 1.297-.816 2.257v3.936h-1.408zm13.445 0l-3.744-8h1.568l2.656 5.792c.128.32.224.618.288.895h.032c.042-.138.085-.282.128-.431.042-.15.096-.304.16-.464l2.656-5.792h1.568l-3.744 8h-1.568zm14.914-4.384v.8h-7.392c.032.81.32 1.445.864 1.904.554.458 1.317.693 2.288.704.714 0 1.322-.134 1.824-.4.49-.267.869-.662 1.136-1.184l1.184.544c-.384.746-.928 1.306-1.632 1.68-.704.384-1.563.575-2.576.575-1.419-.01-2.523-.373-3.312-1.087-.8-.715-1.206-1.734-1.216-3.056.021-1.387.426-2.454 1.216-3.2.8-.747 1.882-1.126 3.248-1.136 1.376.01 2.442.34 3.2.991.768.662 1.157 1.616 1.168 2.864zm-1.456-.304v-.113c-.022-.768-.299-1.354-.832-1.76-.534-.405-1.232-.607-2.096-.607-.896.01-1.611.234-2.144.672-.523.437-.811 1.04-.864 1.807h5.936zm5.097-1.28c.213-.662.571-1.2 1.072-1.617.501-.416 1.109-.629 1.824-.64.224 0 .427.017.608.048v1.377a1.701 1.701 0 00-.24-.017 1.825 1.825 0 00-.256-.015c-.501 0-.917.069-1.248.207a2.164 2.164 0 00-.832.56 2.695 2.695 0 00-.688 1.297 6.47 6.47 0 00-.144 1.52v3.248h-1.408v-8h1.312v2.032zm12.959-2.129c-.33 0-.602.06-.816.176a1.018 1.018 0 00-.48.513c.288.245.512.527.672.847.15.331.224.694.224 1.089-.01.831-.336 1.498-.976 2-.65.511-1.552.773-2.704.783-.778 0-1.45-.127-2.016-.383-.224.074-.4.18-.528.32a.68.68 0 00-.208.495c0 .246.107.438.32.577.214.149.56.224 1.04.224h3.152c.95 0 1.659.191 2.128.575.48.374.72.923.72 1.649.011.82-.362 1.456-1.12 1.904-.757.447-1.941.677-3.552.688-1.578-.011-2.704-.22-3.376-.625-.682-.394-1.013-.922-.992-1.584 0-.383.112-.72.336-1.008.224-.287.56-.5 1.008-.64-.33-.138-.57-.325-.72-.56a1.387 1.387 0 01-.24-.8c0-.405.123-.74.368-1.008.235-.266.56-.469.976-.608a2.527 2.527 0 01-.736-.88 2.478 2.478 0 01-.256-1.12c.011-.831.342-1.498.992-2 .64-.5 1.542-.757 2.704-.767.822 0 1.51.133 2.064.4a1.94 1.94 0 01.688-1.072c.352-.256.816-.39 1.392-.4a3.375 3.375 0 01.576.063v1.216a2.687 2.687 0 00-.64-.064zm-4.08 4.368c.715-.01 1.275-.17 1.68-.48.406-.32.614-.74.624-1.264-.01-.522-.218-.938-.624-1.247-.405-.3-.965-.454-1.68-.465-.714 0-1.274.155-1.68.465-.405.298-.613.714-.624 1.248.011.522.219.938.624 1.247.406.32.966.486 1.68.496zm1.488 3.505h-2.928c-.277 0-.528-.017-.752-.048-.298.128-.522.293-.672.495a1.18 1.18 0 00-.224.688c.011.47.283.806.816 1.009.534.202 1.296.303 2.288.303 1.174 0 2.006-.122 2.496-.367.48-.246.715-.576.704-.992 0-.363-.138-.635-.416-.816-.288-.182-.725-.273-1.312-.273zm13.148-4.16v.8h-7.392c.032.81.32 1.445.864 1.904.555.458 1.317.693 2.288.704.715 0 1.323-.134 1.824-.4a2.711 2.711 0 001.136-1.184l1.184.544c-.384.746-.928 1.306-1.632 1.68-.704.384-1.563.575-2.576.575-1.419-.01-2.523-.373-3.312-1.087-.8-.715-1.205-1.734-1.216-3.056.021-1.387.427-2.454 1.216-3.2.8-.747 1.883-1.126 3.248-1.136 1.376.01 2.443.34 3.2.991.768.662 1.157 1.616 1.168 2.864zm-1.456-.304v-.113c-.021-.768-.299-1.354-.832-1.76-.533-.405-1.232-.607-2.096-.607-.896.01-1.611.234-2.144.672-.523.437-.811 1.04-.864 1.807h5.936zm-72.298 225.825c-1.973-.032-3.472-.603-4.496-1.712-1.024-1.109-1.541-2.544-1.552-4.304.011-1.803.549-3.243 1.616-4.32 1.067-1.077 2.565-1.632 4.496-1.664 1.557.011 2.795.379 3.712 1.104.907.725 1.483 1.728 1.728 3.008l-1.632.16c-.192-.917-.613-1.637-1.264-2.16-.661-.512-1.536-.773-2.624-.784-1.387.021-2.459.443-3.216 1.264-.768.821-1.157 1.947-1.168 3.376.011 1.387.4 2.507 1.168 3.36.779.864 1.867 1.307 3.264 1.328 1.024-.011 1.872-.256 2.544-.736.661-.48 1.12-1.168 1.376-2.064l1.552.272c-.331 1.173-.949 2.107-1.856 2.8-.896.693-2.112 1.051-3.648 1.072zm11.435-.08c-1.386-.011-2.49-.395-3.312-1.152-.821-.747-1.242-1.776-1.264-3.088.022-1.312.443-2.341 1.264-3.088.822-.757 1.926-1.141 3.312-1.152 1.387.011 2.491.395 3.312 1.152.811.747 1.227 1.776 1.248 3.088-.021 1.312-.437 2.341-1.248 3.088-.821.757-1.925 1.141-3.312 1.152zm0-1.216c.95 0 1.696-.261 2.24-.784.544-.523.822-1.269.832-2.24-.01-.971-.288-1.717-.832-2.24-.544-.523-1.29-.784-2.24-.784-.949 0-1.696.261-2.24.784-.544.523-.821 1.269-.832 2.24.011.971.288 1.717.832 2.24.544.523 1.291.784 2.24.784zm6.804.976v-8h1.36v1.744c.662-1.333 1.824-2 3.488-2 1.152 0 2.022.315 2.608.944.598.629.896 1.552.896 2.768v4.544h-1.408v-4.336c0-1.792-.848-2.688-2.544-2.688-.917.011-1.642.288-2.176.832-.533.544-.805 1.296-.816 2.256v3.936h-1.408zm13.445 0l-3.744-8h1.568l2.656 5.792c.128.32.224.619.288.896h.032c.042-.139.085-.283.128-.432.042-.149.096-.304.16-.464l2.656-5.792h1.568l-3.744 8h-1.568zm14.914-4.384v.8h-7.392c.032.811.32 1.445.864 1.904.554.459 1.317.693 2.288.704.714 0 1.322-.133 1.824-.4.49-.267.869-.661 1.136-1.184l1.184.544c-.384.747-.928 1.307-1.632 1.68-.704.384-1.563.576-2.576.576-1.419-.011-2.523-.373-3.312-1.088-.8-.715-1.206-1.733-1.216-3.056.021-1.387.426-2.453 1.216-3.2.8-.747 1.882-1.125 3.248-1.136 1.376.011 2.442.341 3.2.992.768.661 1.157 1.616 1.168 2.864zm-1.456-.304v-.112c-.022-.768-.299-1.355-.832-1.76-.534-.405-1.232-.608-2.096-.608-.896.011-1.611.235-2.144.672-.523.437-.811 1.04-.864 1.808h5.936zm5.097-1.28c.213-.661.571-1.2 1.072-1.616.501-.416 1.109-.629 1.824-.64.224 0 .427.016.608.048v1.376a1.658 1.658 0 00-.24-.016 1.78 1.78 0 00-.256-.016c-.501 0-.917.069-1.248.208a2.167 2.167 0 00-.832.56 2.692 2.692 0 00-.688 1.296 6.47 6.47 0 00-.144 1.52v3.248h-1.408v-8h1.312v2.032zm12.959-2.128c-.33 0-.602.059-.816.176a1.017 1.017 0 00-.48.512c.288.245.512.528.672.848.15.331.224.693.224 1.088-.01.832-.336 1.499-.976 2-.65.512-1.552.773-2.704.784-.778 0-1.45-.128-2.016-.384-.224.075-.4.181-.528.32a.68.68 0 00-.208.496c0 .245.107.437.32.576.214.149.56.224 1.04.224h3.152c.95 0 1.659.192 2.128.576.48.373.72.923.72 1.648.011.821-.362 1.456-1.12 1.904-.757.448-1.941.677-3.552.688-1.578-.011-2.704-.219-3.376-.624-.682-.395-1.013-.923-.992-1.584 0-.384.112-.72.336-1.008.224-.288.56-.501 1.008-.64-.33-.139-.57-.325-.72-.56a1.387 1.387 0 01-.24-.8c0-.405.123-.741.368-1.008.235-.267.56-.469.976-.608a2.527 2.527 0 01-.736-.88 2.478 2.478 0 01-.256-1.12c.011-.832.342-1.499.992-2 .64-.501 1.542-.757 2.704-.768.822 0 1.51.133 2.064.4.118-.448.347-.805.688-1.072.352-.256.816-.389 1.392-.4.096 0 .187.005.272.016.096.011.198.027.304.048v1.216a2.671 2.671 0 00-.64-.064zm-4.08 4.368c.715-.011 1.275-.171 1.68-.48.406-.32.614-.741.624-1.264-.01-.523-.218-.939-.624-1.248-.405-.299-.965-.453-1.68-.464-.714 0-1.274.155-1.68.464-.405.299-.613.715-.624 1.248.011.523.219.939.624 1.248.406.32.966.485 1.68.496zm1.488 3.504h-2.928c-.277 0-.528-.016-.752-.048-.298.128-.522.293-.672.496a1.18 1.18 0 00-.224.688c.011.469.283.805.816 1.008.534.203 1.296.304 2.288.304 1.174 0 2.006-.123 2.496-.368.48-.245.715-.576.704-.992 0-.363-.138-.635-.416-.816-.288-.181-.725-.272-1.312-.272zm13.148-4.16v.8h-7.392c.032.811.32 1.445.864 1.904.555.459 1.317.693 2.288.704.715 0 1.323-.133 1.824-.4a2.711 2.711 0 001.136-1.184l1.184.544c-.384.747-.928 1.307-1.632 1.68-.704.384-1.563.576-2.576.576-1.419-.011-2.523-.373-3.312-1.088-.8-.715-1.205-1.733-1.216-3.056.021-1.387.427-2.453 1.216-3.2.8-.747 1.883-1.125 3.248-1.136 1.376.011 2.443.341 3.2.992.768.661 1.157 1.616 1.168 2.864zm-1.456-.304v-.112c-.021-.768-.299-1.355-.832-1.76-.533-.405-1.232-.608-2.096-.608-.896.011-1.611.235-2.144.672-.523.437-.811 1.04-.864 1.808h5.936zM291.5 33.76a.5.5 0 00-.5-.5h-4.502a.5.5 0 100 1h4.002v3.999a.5.5 0 001 0V33.76zm-79.146 79.289l79-78.935-.708-.707-79 78.935.708.707zm267.342 100.213a.5.5 0 00-.5-.5h-4.502a.5.5 0 000 1h4.002v3.998a.5.5 0 001 0v-4.498zm-79.342 79.484l79.196-79.13-.708-.707-79.196 79.13.708.707zM479.5 112.695a.5.5 0 01-.5.5h-4.502a.5.5 0 010-.999h4.002v-3.999a.5.5 0 011 0v4.498zm-79.146-79.288l79 78.935-.708.707-79-78.935.708-.707zM292.696 292.588a.5.5 0 01-.5.5h-4.502a.5.5 0 010-.999h4.002v-3.999a.5.5 0 011 0v4.498zm-79.342-79.483l79.196 79.13-.708.707-79.196-79.131.708-.706z" fill="#16013E"/><path d="M222.312 170.512v-11.36h5.648c1.888.021 3.376.517 4.464 1.488 1.099.97 1.659 2.325 1.68 4.064-.021 1.77-.587 3.173-1.696 4.208-1.12 1.045-2.619 1.578-4.496 1.6h-5.6zm2.864-2.064h2.528c1.099-.022 1.941-.374 2.528-1.056.576-.672.869-1.563.88-2.672-.011-1.078-.309-1.926-.896-2.544-.597-.63-1.435-.95-2.512-.96h-2.528v7.232zm13.5 2.064h-2.864v-11.36h2.864v11.36zm7.212.32c-1.429-.011-2.65-.256-3.664-.736-1.013-.48-1.76-1.158-2.24-2.032l2.112-1.472c.374.65.886 1.157 1.536 1.52.651.362 1.446.549 2.384.56.779 0 1.376-.107 1.792-.32.427-.214.64-.55.64-1.008.011-.384-.122-.672-.4-.864-.288-.203-.746-.347-1.376-.432l-2.352-.352c-1.173-.182-2.053-.55-2.64-1.104-.597-.555-.896-1.323-.896-2.304.011-1.088.464-1.936 1.36-2.544.886-.598 2.134-.902 3.744-.912 1.227 0 2.294.192 3.2.576.918.373 1.648.949 2.192 1.728l-1.872 1.568a3.48 3.48 0 00-1.472-1.328c-.629-.31-1.365-.464-2.208-.464-.704 0-1.248.101-1.632.304-.384.213-.576.512-.576.896-.01.362.123.64.4.832.278.192.752.341 1.424.448l2.288.336c1.248.192 2.171.549 2.768 1.072.587.533.88 1.296.88 2.288-.01 1.173-.48 2.085-1.408 2.736-.928.661-2.256.997-3.984 1.008zm12.63 0c-2.016-.022-3.579-.56-4.688-1.616-1.109-1.067-1.669-2.518-1.68-4.352.021-1.835.608-3.291 1.76-4.368 1.141-1.088 2.699-1.643 4.672-1.664 1.632.01 2.96.384 3.984 1.12 1.024.725 1.664 1.744 1.92 3.056l-2.944.512c-.149-.779-.48-1.376-.992-1.792-.512-.427-1.189-.64-2.032-.64-1.067.01-1.893.346-2.48 1.008-.597.661-.901 1.573-.912 2.736.011 1.141.32 2.042.928 2.704.608.672 1.451 1.013 2.528 1.024.811 0 1.472-.203 1.984-.608.512-.395.853-.971 1.024-1.728l2.928.624c-.363 1.258-1.056 2.234-2.08 2.928-1.024.693-2.331 1.045-3.92 1.056zm13.252 0c-1.984-.022-3.552-.566-4.704-1.632-1.152-1.056-1.738-2.512-1.76-4.368.022-1.856.608-3.312 1.76-4.368 1.152-1.067 2.72-1.611 4.704-1.632 1.984.021 3.552.565 4.704 1.632 1.152 1.056 1.739 2.512 1.76 4.368-.021 1.856-.608 3.312-1.76 4.368-1.152 1.066-2.72 1.61-4.704 1.632zm0-2.208c1.078-.011 1.92-.352 2.528-1.024.619-.662.934-1.584.944-2.768-.01-1.184-.325-2.107-.944-2.768-.608-.672-1.45-1.014-2.528-1.024-1.077.01-1.92.352-2.528 1.024-.618.661-.933 1.584-.944 2.768.011 1.173.326 2.096.944 2.768.608.672 1.451 1.013 2.528 1.024zm11.463 1.888l-4.592-11.36h3.136l2.752 7.488c.096.288.176.538.24.752.053.213.096.421.128.624h.064c.032-.203.074-.411.128-.624.053-.214.128-.464.224-.752l2.768-7.488h3.136l-4.592 11.36h-3.392zm12.162-2.096h6.56v2.096h-9.424v-11.36h9.312v2.08h-6.448v2.48h6.176v2.016h-6.176v2.688zm16.441 2.096l-2.4-4.24h-2.432v4.24h-2.864v-11.36h6.176c1.557.021 2.677.368 3.36 1.04.672.661 1.003 1.488.992 2.48a3.338 3.338 0 01-.56 1.92c-.384.586-.992 1.018-1.824 1.296l2.72 4.624h-3.168zm-4.832-9.376v3.216h2.688c.704-.011 1.211-.166 1.52-.464.309-.31.459-.704.448-1.184.011-.459-.139-.832-.448-1.12-.309-.288-.816-.438-1.52-.448h-2.688zm74.308 9.376v-11.36h5.648c1.888.021 3.376.517 4.464 1.488 1.099.97 1.659 2.325 1.68 4.064-.021 1.77-.587 3.173-1.696 4.208-1.12 1.045-2.619 1.578-4.496 1.6h-5.6zm2.864-2.064h2.528c1.099-.022 1.941-.374 2.528-1.056.576-.672.869-1.563.88-2.672-.011-1.078-.309-1.926-.896-2.544-.597-.63-1.435-.95-2.512-.96h-2.528v7.232zm13.5-.032h6.56v2.096h-9.424v-11.36h9.312v2.08h-6.448v2.48h6.176v2.016h-6.176v2.688zm18.057-7.12h-6.448v2.528h6.16v2.096h-6.16v4.592h-2.864v-11.36h9.312v2.144zm4.693 9.216h-2.864v-11.36h2.864v11.36zm2.62 0v-11.36h3.136l4.72 6.512c.15.224.294.458.432.704.139.234.251.458.336.672h.032v-7.888h2.624v11.36h-2.976l-4.896-6.592a49.892 49.892 0 01-.416-.688 6.662 6.662 0 01-.336-.64h-.048c.011.234.016.48.016.736v7.184h-2.624zm16.771-2.096h6.56v2.096h-9.424v-11.36h9.312v2.08h-6.448v2.48h6.176v2.016h-6.176v2.688z" fill="#005A38"/><path d="M551.312 170.512v-11.36h5.648c1.888.021 3.376.517 4.464 1.488 1.099.97 1.659 2.325 1.68 4.064-.021 1.77-.587 3.173-1.696 4.208-1.12 1.045-2.619 1.578-4.496 1.6h-5.6zm2.864-2.064h2.528c1.099-.022 1.941-.374 2.528-1.056.576-.672.869-1.563.88-2.672-.011-1.078-.309-1.926-.896-2.544-.597-.63-1.435-.95-2.512-.96h-2.528v7.232zm13.5-.032h6.56v2.096h-9.424v-11.36h9.312v2.08h-6.448v2.48h6.176v2.016h-6.176v2.688zm12.025 2.096l-4.592-11.36h3.136l2.752 7.488c.096.288.176.538.24.752.054.213.096.421.128.624h.064c.032-.203.075-.411.128-.624.054-.214.128-.464.224-.752l2.768-7.488h3.136l-4.592 11.36h-3.392zm12.163-2.096h6.56v2.096H589v-11.36h9.312v2.08h-6.448v2.48h6.176v2.016h-6.176v2.688zm8.745 2.096v-11.36h2.864v9.056h5.952v2.304h-8.816zm16.021.32c-1.984-.022-3.552-.566-4.704-1.632-1.152-1.056-1.739-2.512-1.76-4.368.021-1.856.608-3.312 1.76-4.368 1.152-1.067 2.72-1.611 4.704-1.632 1.984.021 3.552.565 4.704 1.632 1.152 1.056 1.738 2.512 1.76 4.368-.022 1.856-.608 3.312-1.76 4.368-1.152 1.066-2.72 1.61-4.704 1.632zm0-2.208c1.077-.011 1.92-.352 2.528-1.024.618-.662.933-1.584.944-2.768-.011-1.184-.326-2.107-.944-2.768-.608-.672-1.451-1.014-2.528-1.024-1.078.01-1.92.352-2.528 1.024-.619.661-.934 1.584-.944 2.768.01 1.173.325 2.096.944 2.768.608.672 1.45 1.013 2.528 1.024zm14.374-9.472c1.344.01 2.4.336 3.168.976.768.65 1.157 1.541 1.168 2.672-.011 1.184-.411 2.106-1.2 2.768-.779.672-1.856 1.013-3.232 1.024h-3.232v3.92h-2.864v-11.36h6.192zm-.704 5.456c.64 0 1.136-.15 1.488-.448.352-.299.528-.726.528-1.28 0-.544-.176-.966-.528-1.264-.341-.299-.837-.448-1.488-.448h-2.624v3.44h2.624zm71.012 5.904v-11.36h5.648c1.888.021 3.376.517 4.464 1.488 1.099.97 1.659 2.325 1.68 4.064-.021 1.77-.587 3.173-1.696 4.208-1.12 1.045-2.619 1.578-4.496 1.6h-5.6zm2.864-2.064h2.528c1.099-.022 1.941-.374 2.528-1.056.576-.672.869-1.563.88-2.672-.011-1.078-.309-1.926-.896-2.544-.597-.63-1.435-.95-2.512-.96h-2.528v7.232zm13.5-.032h6.56v2.096h-9.424v-11.36h9.312v2.08h-6.448v2.48h6.176v2.016h-6.176v2.688zm8.745 2.096v-11.36h2.864v9.056h5.952v2.304h-8.816zm13.333 0h-2.864v-11.36h2.864v11.36zm5.901 0l-4.593-11.36h3.137l2.752 7.488c.096.288.176.538.24.752.053.213.096.421.128.624h.064c.032-.203.074-.411.128-.624.053-.214.128-.464.224-.752l2.768-7.488h3.136l-4.592 11.36h-3.392zm12.162-2.096h6.56v2.096h-9.424v-11.36h9.312v2.08h-6.448v2.48h6.176v2.016h-6.176v2.688zm16.441 2.096l-2.4-4.24h-2.432v4.24h-2.864v-11.36h6.176c1.557.021 2.677.368 3.36 1.04.672.661 1.003 1.488.992 2.48a3.338 3.338 0 01-.56 1.92c-.384.586-.992 1.018-1.824 1.296l2.72 4.624h-3.168zm-4.832-9.376v3.216h2.688c.704-.011 1.211-.166 1.52-.464.309-.31.459-.704.448-1.184.011-.459-.139-.832-.448-1.12-.309-.288-.816-.438-1.52-.448h-2.688z" fill="#0957E8"/><path stroke="#005A38" stroke-width="2" stroke-dasharray="6 6" d="M348 9.627v305.747"/><path stroke="#0957E8" stroke-width="2" stroke-dasharray="6 6" d="M668 9.627v305.747"/></svg>