<svg width="408" height="240" fill="none" xmlns="http://www.w3.org/2000/svg"><script id="__gaOptOutExtension"/><g clip-path="url(#clip0_1328_6590)"><mask id="mask0_1328_6590" style="mask-type:luminance" maskUnits="userSpaceOnUse" x="0" y="31" width="408" height="178"><path d="M407.5 31.418H.5v177.164h407V31.418z" fill="#fff"/></mask><g mask="url(#mask0_1328_6590)"><path d="M139.101 137.836c-2.023 0-3.139-2.752-3.886-5.149-.873-2.791-1.613-6.56-2.331-10.201-.731-3.707-1.487-7.544-2.376-10.357-1.2-3.793-2.166-4.203-2.527-4.203-2.119 0-4.198 4.305-6.033 8.103a47.954 47.954 0 01-3.392 6.257c-1.485 2.128-2.969 3.161-4.549 3.161-3.56 0-5.603-2.442-7.243-4.406-1.153-1.38-2.148-2.571-3.308-2.571-1.123 0-1.776 1.814-2.469 3.734a16.76 16.76 0 01-1.5 3.38 3.552 3.552 0 01-1.26 1.331 3.554 3.554 0 01-1.757.523c-2.497 0-3.491-4.297-4.76-9.737a56.998 56.998 0 00-2.099-7.55c-.814-2.045-1.672-3.084-2.551-3.084-.328 0-1.187.381-2.033 3.902a96.924 96.924 0 00-1.515 9.921 97.544 97.544 0 01-1.613 10.449c-.561 2.299-1.568 5.356-3.82 5.356-2.207 0-3.382-3.304-4.156-6.181-.91-3.38-1.66-7.918-2.383-12.306-.703-4.262-1.429-8.667-2.291-11.883-1.194-4.47-2.166-4.812-2.436-4.812-.707 0-1.31.936-1.776 2.783a56.17 56.17 0 00-1.06 7.522c-.212 3.011-.66 6-1.341 8.94a9.293 9.293 0 01-1.47 3.244 3.415 3.415 0 01-2.766 1.447c-1.89 0-3.592-1.09-5.212-3.321a40.912 40.912 0 01-3.492-6.432 39.318 39.318 0 00-2.523-4.829c-.815-1.211-1.528-1.799-2.183-1.799-1.623 0-2.787 3.816-3.82 7.182-1.38 4.523-2.806 9.201-6.164 9.201a4.494 4.494 0 01-3.74-2.262 24.342 24.342 0 01-2.191-4.407 23.28 23.28 0 00-2.197-4.397 3.478 3.478 0 00-2.852-1.755c-2.542 0-4.136 4.586-5.543 8.634a39.27 39.27 0 01-2.159 5.404c-.368.686-1.49 2.77-3.42 2.77a4.62 4.62 0 01-3.63-1.647 11.021 11.021 0 01-1.659-2.933c-.255-.59-.73-1.687-.982-1.687-1.52 0-2.877 1.905-2.89 1.925l-.464.674-1.348-.928.464-.674c.075-.109 1.843-2.633 4.238-2.633 1.33 0 1.916 1.359 2.487 2.673.91 2.104 1.716 3.597 3.787 3.597 1.572 0 2.879-3.758 4.032-7.076a39.703 39.703 0 012.628-6.396c1.285-2.246 2.744-3.337 4.461-3.337a5.03 5.03 0 014.182 2.435 24.391 24.391 0 012.377 4.719c1.221 2.913 2.374 5.669 4.421 5.669 2.145 0 3.447-4.272 4.6-8.044 1.31-4.289 2.545-8.339 5.38-8.339 2.619 0 4.273 3.507 6.183 7.569 1.942 4.131 4.146 8.813 7.22 8.813.418 0 1.688 0 2.66-3.489a56.393 56.393 0 001.287-8.66c.188-2.61.556-5.204 1.101-7.763.253-.993 1.024-4.014 3.362-4.014 3.197 0 4.492 6.868 6.34 18.066.718 4.348 1.459 8.844 2.346 12.147 1.245 4.614 2.286 4.971 2.576 4.971.458 0 1.358-.533 2.23-4.108a96.605 96.605 0 001.58-10.257c.34-3.394.857-6.769 1.549-10.109a13.222 13.222 0 011.26-3.506 2.783 2.783 0 012.365-1.65 3.253 3.253 0 012.49 1.281 9.975 9.975 0 011.584 2.835 58.04 58.04 0 012.172 7.785c.44 2.1.997 4.174 1.671 6.212.772 2.09 1.341 2.25 1.496 2.25 1.374 0 2.074-1.647 2.977-4.159.345-1.079.799-2.12 1.353-3.108a3.122 3.122 0 012.656-1.707c1.926 0 3.208 1.535 4.564 3.16 1.569 1.879 3.192 3.816 5.986 3.816 2.366 0 4.544-4.513 6.467-8.495 2.242-4.642 4.357-9.027 7.505-9.027 2.129 0 3.304 2.857 4.088 5.342a107.29 107.29 0 012.42 10.537c.71 3.597 1.444 7.326 2.292 10.029 1.157 3.707 2.073 4 2.324 4 .167 0 1.049-.212 2.059-4.405.718-2.995 1.271-6.96 1.855-11.159.615-4.422 1.251-8.994 2.114-12.442a17.824 17.824 0 011.556-4.334 3.204 3.204 0 012.683-1.989c2.509 0 3.6 3.403 4.201 5.963a99.39 99.39 0 011.613 11.275c.315 2.959.613 5.755 1.014 7.886.555 2.938 1.098 3.325 1.17 3.364 1.315-.008 2.898-1.041 4.583-2.991a22.682 22.682 0 002.253-3.148l.405-.71 1.418.809-.404.71a24.018 24.018 0 01-2.435 3.405c-2.035 2.362-3.999 3.56-5.832 3.56-1.598 0-2.254-2.166-2.685-4.285-.456-2.247-.775-5.25-1.115-8.428a98.195 98.195 0 00-1.58-11.074c-.713-3.032-1.637-4.7-2.607-4.7-.414 0-1.502.495-2.652 5.084-.842 3.364-1.471 7.892-2.08 12.271-.59 4.239-1.15 8.244-1.886 11.316a16.76 16.76 0 01-1.31 3.846c-.633 1.206-1.419 1.815-2.329 1.815z" fill="#FE6257"/><path d="M96.868 140.385c-1.463 0-2.893-1.249-4.622-4.031a103.88 103.88 0 01-5.696-11.403c-2.719-6.033-4.906-8.896-6.889-9.008-1.035-.059-2.196.61-3.55 2.044a41.375 41.375 0 00-4.946 7.046c-1.063 1.784-1.868 3.343-2.517 4.594-1.374 2.652-2.203 4.256-3.707 4.513-1.923.335-4.044-1.642-9.713-6.923a2569.14 2569.14 0 00-2.153-2.001c-2.633-2.442-4.64-3.471-6.706-3.435-1.993.035-4.039 1.041-6.868 2.434-.744.365-1.513.744-2.353 1.14-3.986 1.88-6.815 2.969-9.485 2.973h-.011c-2.708 0-5.116-1.155-8.12-3.017-3.69-2.292-5.645-3.364-7.632-3.37-1.952 0-4.07.994-8.379 3.39l-.715.397-.793-1.43.716-.397c4.022-2.236 6.65-3.601 9.157-3.601h.025c2.398.009 4.526 1.165 8.483 3.616 3.304 2.048 5.209 2.777 7.268 2.772 2.362 0 5.016-1.035 8.788-2.815.827-.391 1.59-.766 2.328-1.13 2.908-1.431 5.205-2.561 7.566-2.602 2.492-.045 4.91 1.149 7.85 3.87.77.714 1.488 1.383 2.154 2.004 2.603 2.425 4.483 4.177 5.86 5.253 1.185.927 1.99 1.338 2.46 1.256.708-.123 1.475-1.604 2.537-3.654a82.99 82.99 0 012.565-4.678 42.883 42.883 0 015.162-7.334c1.706-1.806 3.287-2.641 4.832-2.553 1.464.083 2.854.982 4.252 2.756a35.806 35.806 0 014.034 7.214 102.69 102.69 0 005.593 11.211c1.696 2.729 2.713 3.273 3.27 3.256.558-.018 1.181-.599 1.88-1.724a34.077 34.077 0 002.646-5.938c2.151-5.857 4.808-9.384 8.121-10.773a9.802 9.802 0 016.214-.335 31.51 31.51 0 015.664 2.124 20.378 20.378 0 004.655 1.702c2.324.36 3.693-1.73 5.669-5.215a23.326 23.326 0 013.358-4.911 6.446 6.446 0 015.483-2.112c1.149.116 2.28 1.137 3.668 3.314 1.101 1.727 2.264 4.037 3.389 6.261 1.999 3.961 4.262 8.449 6.05 9.305a2.038 2.038 0 001.665.132c2.027-.737 3.787-4.61 5.488-8.355 1.854-4.07 3.598-7.913 6.096-9.094a2.57 2.57 0 012.407.153 7.315 7.315 0 011.986 1.727 41.13 41.13 0 013.496 5.151c.61 1.001 1.187 1.948 1.69 2.664.239.364.515.701.823 1.009 4.309-4.788 8.307-7.033 12.21-6.861 1.972.119 3.871.788 5.483 1.93a22.15 22.15 0 015.19 5.219c4.461 6.011 8.222 8.823 11.494 8.6 3.004-.207 5.938-2.989 8.962-8.506a25.731 25.731 0 015.474-7.202 9.384 9.384 0 016.051-2.537h.04c2.266.08 4.427.97 6.092 2.509a26.125 26.125 0 015.602 7.226c4.374 7.779 8.045 11.475 11.222 11.3 1.477-.082 2.921-.989 4.411-2.777a34.342 34.342 0 004.732-8.443 35.122 35.122 0 015.087-8.947c1.798-2.113 3.696-3.23 5.643-3.322 2.071-.096 4.134.915 6.295 3.092a40.152 40.152 0 016.275 9.112c2.208 4.084 5.036 6.424 8.177 6.765 3.788.414 8.044-1.977 12.314-6.914a26.328 26.328 0 016.225-5.486 11.245 11.245 0 016.292-1.753c1.978.127 3.88.814 5.484 1.979a21.587 21.587 0 015.113 5.322 45.94 45.94 0 007.105 8.327c1.985 1.682 3.691 2.415 5.214 2.24 2.732-.313 5.301-3.617 8.083-10.4 3.064-7.475 6.155-11.123 9.722-11.481 3.872-.388 8.049 3.109 13.544 11.337 4.123 6.177 11.252 4.089 18.804 1.88 3.771-1.101 7.672-2.243 11.151-2.243h.818v1.636h-.818c-3.245 0-7.031 1.108-10.692 2.183-3.799 1.112-7.729 2.261-11.267 2.264h-.016a10.449 10.449 0 01-9.341-4.801c-5.048-7.56-8.868-10.933-12.021-10.618-2.861.287-5.6 3.71-8.372 10.475-3.073 7.494-5.976 11.013-9.41 11.405-1.996.229-4.108-.627-6.457-2.619a47.448 47.448 0 01-7.386-8.619c-3.004-4.234-6.148-6.46-9.341-6.613-3.459-.166-7.23 2.08-11.204 6.676-4.636 5.363-9.385 7.944-13.729 7.469a9.916 9.916 0 01-5.205-2.254 17.559 17.559 0 01-4.234-5.363 39.191 39.191 0 00-5.996-8.737c-1.791-1.806-3.489-2.681-5.057-2.61-1.498.07-2.961.969-4.47 2.748a34.086 34.086 0 00-4.828 8.53c-3.454 8.125-6.809 12.003-10.556 12.213-3.914.218-7.959-3.639-12.737-12.132-3.271-5.825-6.825-8.902-10.268-8.902h-.031a7.81 7.81 0 00-4.996 2.145 24.121 24.121 0 00-5.103 6.751 26.732 26.732 0 01-4.887 6.729 8.842 8.842 0 01-5.398 2.619 9.45 9.45 0 01-6.29-2.203 33.413 33.413 0 01-6.629-7.052c-3.139-4.228-6.225-6.353-9.433-6.492-3.448-.15-7.087 1.991-11.129 6.547a1.229 1.229 0 01-1.047.428c-1.101-.1-2.036-1.554-3.875-4.571a40.248 40.248 0 00-3.338-4.937c-.734-.852-1.755-1.799-2.456-1.469-1.964.926-3.661 4.671-5.305 8.293-1.927 4.239-3.746 8.243-6.417 9.215a3.677 3.677 0 01-2.93-.194c-2.289-1.091-4.482-5.443-6.803-10.039-1.158-2.291-2.251-4.461-3.309-6.119-1.374-2.155-2.127-2.533-2.453-2.566a4.848 4.848 0 00-4.156 1.637 22.226 22.226 0 00-3.108 4.558 22.051 22.051 0 01-2.898 4.322 4.846 4.846 0 01-4.447 1.702 21.362 21.362 0 01-5.075-1.827c-3.347-1.508-7.141-3.217-10.575-1.772-2.873 1.208-5.234 4.423-7.22 9.83-1.957 5.326-3.643 8.645-6.002 8.73l-.087-.004z" fill="#614EFA"/><path d="M316.524 33.812H91.476a2.873 2.873 0 00-2.873 2.873v166.63a2.873 2.873 0 002.874 2.873h225.047a2.872 2.872 0 002.872-2.873V36.685a2.873 2.873 0 00-2.872-2.873z" fill="#fff"/><path d="M91.477 33.333h225.047a3.354 3.354 0 013.351 3.352v166.63a3.352 3.352 0 01-.983 2.369 3.351 3.351 0 01-2.368.983H91.476a3.353 3.353 0 01-3.351-3.352V36.685a3.356 3.356 0 013.352-3.352zm225.047 172.376a2.394 2.394 0 002.394-2.394V36.685a2.398 2.398 0 00-2.394-2.394H91.476a2.397 2.397 0 00-2.394 2.394v166.63a2.395 2.395 0 002.395 2.394h225.047z" fill="#C3C8CD"/><path d="M105.603 47.346a.605.605 0 00-1.213 0v7.276a.597.597 0 00.178.428.599.599 0 00.429.178.61.61 0 00.56-.375.615.615 0 00.046-.232v-7.275zm-2.426 1.214a.607.607 0 01.606.606v3.639a.605.605 0 01-1.213 0v-3.64a.605.605 0 01.607-.605zm-1.821.601a.607.607 0 01.606.606v2.426a.605.605 0 01-1.213 0v-2.426a.609.609 0 01.607-.606zm5.461-.601a.604.604 0 01.607.606v3.639a.605.605 0 01-1.213 0v-3.64a.605.605 0 01.606-.605zm2.428-.486a.605.605 0 00-1.035-.429.605.605 0 00-.178.429v6.063a.605.605 0 001.213 0v-6.063zm1.214.486a.607.607 0 01.606.606v3.639a.609.609 0 01-.606.606.607.607 0 01-.606-.606v-3.64a.609.609 0 01.606-.605zm2.425 1.814a.609.609 0 00-.606-.606.607.607 0 00-.606.606v1.212a.609.609 0 00.606.606.607.607 0 00.606-.606v-1.212z" fill="#614EFA"/><path d="M119.075 53.922V47.89h1.155l3.335 4.508h-.239a19.942 19.942 0 01-.166-2.176 28.84 28.84 0 01-.008-.686V47.89h1.268v6.033h-1.174l-3.404-4.548.328.008.073.763.052.547c.014.155.024.29.03.405.005.115.01.224.013.328.002.103.004.212.004.327v2.17h-1.267zm9.593.087a3.185 3.185 0 01-1.232-.233 2.991 2.991 0 01-.978-.65 2.85 2.85 0 01-.642-.992 3.394 3.394 0 01-.224-1.245 3.378 3.378 0 01.224-1.25 2.86 2.86 0 01.642-.987c.28-.28.612-.5.978-.65a3.164 3.164 0 011.224-.233 3.15 3.15 0 011.228.232c.365.151.696.374.973.654.28.283.498.62.642.991.153.396.229.817.224 1.242.005.424-.071.845-.224 1.24a2.903 2.903 0 01-.642.992 2.973 2.973 0 01-.974.656 3.125 3.125 0 01-1.219.232zm-.009-1.224c.243.002.484-.047.707-.144.209-.092.397-.226.551-.395.159-.175.283-.378.367-.599.091-.242.136-.5.133-.758a2.089 2.089 0 00-.133-.759 1.888 1.888 0 00-.367-.599 1.65 1.65 0 00-.551-.397 1.719 1.719 0 00-.707-.144 1.692 1.692 0 00-1.256.54 1.692 1.692 0 00-.367.6c-.086.243-.129.5-.127.758-.002.259.04.515.125.759a1.738 1.738 0 00.927.996c.22.096.458.144.698.142zm3.956 1.137v-1.111h1.009V49h-1.009v-1.112h3.31V49h-1.009v3.81h1.009v1.111h-3.31zm6.68.087a3.557 3.557 0 01-1.022-.138 2.593 2.593 0 01-.818-.406c-.244-.183-.46-.4-.643-.644l.811-.924c.213.328.501.6.84.797.282.142.594.214.91.211a1.37 1.37 0 00.479-.077.808.808 0 00.331-.211.46.46 0 00.121-.324.548.548 0 00-.06-.254.65.65 0 00-.173-.207 1.32 1.32 0 00-.267-.163 2.381 2.381 0 00-.345-.13 3.152 3.152 0 00-.413-.09 4.785 4.785 0 01-.845-.272 2.001 2.001 0 01-.603-.396 1.51 1.51 0 01-.358-.539 1.882 1.882 0 01-.116-.68c-.002-.25.057-.497.172-.719.117-.224.28-.42.479-.575.211-.165.451-.29.707-.37.274-.088.561-.131.849-.13a3.5 3.5 0 01.965.121c.26.073.503.194.718.358.205.159.378.353.513.574l-.819.792a2.114 2.114 0 00-.391-.405 1.545 1.545 0 00-.961-.328 1.479 1.479 0 00-.492.074.717.717 0 00-.323.215.508.508 0 00-.116.332.498.498 0 00.077.276.698.698 0 00.224.21c.112.067.23.12.354.16.149.05.302.09.457.12.291.057.577.14.853.25.234.093.453.22.651.376.175.14.318.316.418.517.099.208.15.437.146.668a1.81 1.81 0 01-.293 1.043c-.202.292-.483.52-.811.658-.381.16-.792.238-1.206.23zm3.482-.087V47.89h4.076v1.138h-2.809v3.758h2.87v1.137h-4.137zm.604-2.525v-1.101h3.06v1.101h-3.06zm10.161 2.611a3.18 3.18 0 01-1.22-.23 2.849 2.849 0 01-1.599-1.637 3.442 3.442 0 01-.224-1.254 3.18 3.18 0 01.233-1.226 2.956 2.956 0 011.646-1.633c.392-.158.81-.237 1.233-.233.287 0 .572.039.849.116.271.075.529.19.766.34.227.145.429.326.599.535l-.809.896a2.563 2.563 0 00-.422-.358 1.922 1.922 0 00-.47-.232 1.753 1.753 0 00-1.779.44 1.797 1.797 0 00-.383.593 2.017 2.017 0 00-.144.772 2.1 2.1 0 00.138.78c.086.223.218.426.388.594.171.167.375.296.599.38a2.14 2.14 0 001.307.056 2.012 2.012 0 00.871-.534l.638 1.008c-.164.17-.355.313-.564.422a3.579 3.579 0 01-1.653.405zm2.568-.086l2.37-6.033h1.155l2.353 6.033h-1.327l-1.215-3.249a22.233 22.233 0 01-.276-.81c-.052-.16-.101-.313-.147-.461a5.797 5.797 0 01-.103-.367h.232c-.034.128-.073.262-.116.401l-.133.431a8.009 8.009 0 01-.147.427 17.22 17.22 0 00-.147.405l-1.215 3.223h-1.284zm1.101-1.267l.423-1.034h2.766l.431 1.034h-3.62zm5.622 1.267V47.89h1.155l3.334 4.508h-.239a23.154 23.154 0 01-.108-1.039 14.654 14.654 0 01-.035-.543 24.506 24.506 0 01-.021-.594c-.006-.21-.009-.439-.009-.686V47.89h1.267v6.033h-1.172l-3.405-4.548.328.008.073.763.052.547a10.903 10.903 0 01.047 1.06v2.17h-1.267zm9.558.087a3.18 3.18 0 01-1.22-.23 2.858 2.858 0 01-1.598-1.638 3.401 3.401 0 01-.224-1.254 3.17 3.17 0 01.232-1.228 2.956 2.956 0 011.646-1.633 3.228 3.228 0 011.233-.233c.287 0 .573.039.849.116.271.075.529.19.766.34.227.145.43.326.599.535l-.81.896a2.61 2.61 0 00-.422-.357 1.957 1.957 0 00-.47-.233 1.64 1.64 0 00-.522-.082 1.743 1.743 0 00-1.641 1.116 2.018 2.018 0 00-.144.771 2.12 2.12 0 00.138.78c.086.224.218.426.388.595.171.167.375.296.599.38.247.09.508.136.771.133.181 0 .361-.026.535-.078a1.975 1.975 0 00.871-.534l.638 1.008c-.164.17-.355.313-.565.422a3.292 3.292 0 01-.78.298 3.577 3.577 0 01-.869.11zm3.292-.087V47.89h4.077v1.138h-2.81v3.758h2.869v1.137h-4.136zm.604-2.525v-1.101h3.059v1.101h-3.059zm4.869 2.525V47.89h1.293v4.87h2.733v1.163h-4.026zm5.223 0V47.89h1.293v4.87h2.732v1.163h-4.025zm4.501 0l2.37-6.033h1.155l2.351 6.033h-1.327l-1.215-3.249a11.44 11.44 0 01-.125-.353 30.614 30.614 0 01-.297-.918 5.906 5.906 0 01-.104-.367h.233c-.035.128-.073.262-.117.401l-.133.431a8.009 8.009 0 01-.147.427 22.3 22.3 0 00-.146.405l-1.215 3.223h-1.283zm1.102-1.267l.422-1.034h2.767l.43 1.034h-3.619zm6.446 1.267v-4.87h-1.758V47.89h4.861v1.164h-1.81v4.87h-1.293zm4.017 0v-1.111h1.008V49h-1.008v-1.112h3.309V49h-1.008v3.81h1.008v1.111h-3.309zm7.274.087a3.178 3.178 0 01-1.232-.233 2.995 2.995 0 01-.979-.65 2.87 2.87 0 01-.642-.992 3.394 3.394 0 01-.224-1.245 3.378 3.378 0 01.224-1.25c.144-.37.362-.706.642-.987.28-.28.613-.5.979-.65a3.157 3.157 0 011.224-.233 3.15 3.15 0 011.228.233 2.916 2.916 0 011.616 1.645c.152.395.228.816.224 1.24.004.425-.072.846-.224 1.242a2.91 2.91 0 01-.642.99 2.97 2.97 0 01-.974.656 3.13 3.13 0 01-1.22.233zm-.008-1.224c.243.002.483-.047.706-.144.21-.093.397-.227.552-.396.158-.175.283-.379.366-.6.091-.242.137-.499.134-.758a2.09 2.09 0 00-.134-.758 1.886 1.886 0 00-.366-.6 1.652 1.652 0 00-.553-.395 1.71 1.71 0 00-.706-.144 1.698 1.698 0 00-1.259.54 1.704 1.704 0 00-.366.6 2.2 2.2 0 00-.125.758c-.003.258.039.515.125.759.079.223.205.427.368.6a1.698 1.698 0 001.258.538zm4.24 1.137V47.89h1.155l3.335 4.508h-.239a19.942 19.942 0 01-.164-2.176c-.006-.21-.009-.439-.009-.686V47.89h1.267v6.033h-1.172l-3.405-4.548.328.008.073.763.052.547a10.903 10.903 0 01.047 1.06v2.17h-1.268z" fill="#131032"/><path d="M307.426 164.748H100.574a2.873 2.873 0 00-2.873 2.873v24.42a2.873 2.873 0 002.873 2.873h206.852a2.873 2.873 0 002.873-2.873v-24.42a2.873 2.873 0 00-2.873-2.873z" fill="#F2F3F4"/><path d="M100.574 165.706a1.912 1.912 0 00-1.915 1.915v24.42a1.914 1.914 0 001.915 1.915h206.852a1.915 1.915 0 001.915-1.915v-24.42a1.915 1.915 0 00-1.915-1.915H100.574zm0-.958h206.852a2.87 2.87 0 012.031.842 2.87 2.87 0 01.842 2.031v24.42a2.87 2.87 0 01-.842 2.031 2.87 2.87 0 01-2.031.842H100.574a2.873 2.873 0 01-2.873-2.873v-24.42a2.87 2.87 0 012.873-2.873z" fill="#D0D5DA"/><path d="M307.426 100.608H100.574a2.873 2.873 0 00-2.873 2.873v24.42a2.873 2.873 0 002.873 2.873h206.852a2.873 2.873 0 002.873-2.873v-24.42a2.873 2.873 0 00-2.873-2.873z" fill="#F2F3F4"/><path d="M100.574 101.565a1.916 1.916 0 00-1.915 1.916v24.42a1.914 1.914 0 001.915 1.915h206.852a1.915 1.915 0 001.915-1.915v-24.42a1.917 1.917 0 00-1.915-1.916H100.574zm0-.957h206.852a2.869 2.869 0 012.873 2.873v24.42a2.872 2.872 0 01-2.873 2.873H100.574a2.873 2.873 0 01-2.873-2.873v-24.42a2.875 2.875 0 012.873-2.873z" fill="#D0D5DA"/><path d="M98.312 89.674v-8.38h1.64l3.052 4.968-1.077-.012 3.088-4.956h1.568v8.38h-1.759V86.8c0-.718.018-1.365.053-1.94.036-.574.098-1.145.186-1.711l.215.562-2.453 3.807h-.791l-2.406-3.783.204-.586c.088.534.15 1.083.185 1.645.036.563.054 1.231.054 2.006v2.873h-1.76zm10.354 0V83.34h1.7v6.333h-1.7zm.838-7.626c-.277.017-.55-.07-.766-.245a.872.872 0 01-.275-.688.87.87 0 01.281-.664c.211-.18.483-.273.76-.258a1.11 1.11 0 01.766.246.863.863 0 01.276.677.885.885 0 01-.281.67 1.07 1.07 0 01-.761.263zm5.435 7.745a3.101 3.101 0 01-1.628-.43 3.102 3.102 0 01-1.131-1.174 3.405 3.405 0 01-.413-1.688 3.405 3.405 0 01.413-1.687 3.1 3.1 0 011.131-1.173 3.101 3.101 0 011.628-.431c.535-.007 1.065.1 1.556.31.438.183.819.48 1.101.863l-.933 1.125a1.999 1.999 0 00-.419-.413 2.193 2.193 0 00-.545-.293 1.745 1.745 0 00-.605-.108 1.615 1.615 0 00-.868.234 1.643 1.643 0 00-.592.64c-.148.288-.222.61-.215.933-.005.318.071.63.221.91.142.265.35.488.604.647.259.16.558.243.862.24.199 0 .397-.028.587-.085a1.74 1.74 0 00.521-.263c.168-.124.319-.269.449-.431l.922 1.125a2.784 2.784 0 01-1.12.832 3.764 3.764 0 01-1.526.317zm3.735-.12v-6.332h1.64l.059 2.035-.287-.419a2.56 2.56 0 01.467-.892c.207-.26.466-.474.76-.628a1.95 1.95 0 01.916-.227 2.147 2.147 0 01.718.12l-.455 1.867a1.705 1.705 0 00-.766-.18 1.377 1.377 0 00-.533.102c-.16.065-.304.163-.425.287a1.36 1.36 0 00-.281.437 1.46 1.46 0 00-.102.55v3.28h-1.711zm7.924.12a3.485 3.485 0 01-1.729-.425 3.14 3.14 0 01-1.197-1.167 3.289 3.289 0 01-.437-1.7 3.288 3.288 0 01.437-1.7c.286-.49.7-.893 1.197-1.167a3.483 3.483 0 011.729-.424 3.46 3.46 0 011.718.424 3.1 3.1 0 011.191 1.168c.293.517.442 1.105.431 1.7a3.327 3.327 0 01-.431 1.7c-.283.49-.695.893-1.191 1.166a3.46 3.46 0 01-1.718.425zm0-1.484a1.54 1.54 0 00.838-.234 1.6 1.6 0 00.58-.646 1.91 1.91 0 00.198-.928 1.936 1.936 0 00-.198-.94 1.6 1.6 0 00-.58-.645 1.54 1.54 0 00-.838-.234 1.533 1.533 0 00-.85.24c-.248.16-.45.383-.586.646-.148.288-.218.61-.204.933-.013.322.057.642.204.928a1.562 1.562 0 001.436.88zm4.633 3.998v-8.966h1.64l.048 1.425-.312-.108c.065-.271.209-.517.413-.706a2.55 2.55 0 01.82-.527 2.669 2.669 0 011.03-.203 2.619 2.619 0 011.472.424c.437.29.788.69 1.018 1.162.255.527.383 1.107.371 1.693a3.733 3.733 0 01-.371 1.688c-.229.474-.58.877-1.018 1.167-.437.286-.95.434-1.472.425a2.65 2.65 0 01-1.047-.21 2.535 2.535 0 01-.838-.556 1.597 1.597 0 01-.437-.742l.395-.168v4.202h-1.712zm3.256-3.986c.291.006.578-.073.826-.227.244-.157.439-.379.562-.641.141-.297.211-.623.204-.952a2.087 2.087 0 00-.204-.945 1.568 1.568 0 00-.556-.635 1.503 1.503 0 00-.832-.227 1.564 1.564 0 00-.838.222c-.245.153-.44.373-.563.634-.14.297-.21.623-.203.951-.007.329.063.655.203.952.124.262.319.484.563.64.251.156.542.235.838.228zm4.525 1.353v-8.859h1.676v3.82l-.336.143a1.94 1.94 0 01.473-.785c.235-.24.513-.433.821-.568a2.422 2.422 0 011.005-.215c.42-.015.835.084 1.203.287.332.201.589.507.73.868.176.456.259.942.245 1.43v3.879h-1.699v-3.747a1.892 1.892 0 00-.12-.718.808.808 0 00-.365-.42 1.18 1.18 0 00-.605-.119 1.538 1.538 0 00-.532.09 1.168 1.168 0 00-.419.258c-.115.11-.208.24-.276.383a1.09 1.09 0 00-.102.467v3.806h-1.699zm10.39.12c-.604.01-1.2-.136-1.73-.426a3.14 3.14 0 01-1.197-1.167 3.289 3.289 0 01-.437-1.7 3.288 3.288 0 01.437-1.7c.286-.49.7-.893 1.197-1.167a3.483 3.483 0 011.73-.424 3.46 3.46 0 011.718.424 3.1 3.1 0 011.191 1.168c.293.517.442 1.105.431 1.7a3.327 3.327 0 01-.431 1.7 3.1 3.1 0 01-1.191 1.167 3.46 3.46 0 01-1.718.424zm0-1.485a1.54 1.54 0 00.838-.234 1.6 1.6 0 00.58-.646 1.91 1.91 0 00.198-.928 1.936 1.936 0 00-.198-.94 1.602 1.602 0 00-.58-.646 1.541 1.541 0 00-.838-.234 1.533 1.533 0 00-.85.24c-.248.16-.45.383-.586.646a1.87 1.87 0 00-.204.934c-.013.322.057.641.204.928.133.264.336.488.586.646.255.158.55.24.85.234zm4.633 1.365V83.34h1.628l.048 1.293-.336.144c.093-.296.255-.565.474-.785.234-.24.512-.433.82-.568a2.425 2.425 0 011.005-.215c.42-.015.835.084 1.203.287.332.201.589.507.73.868.176.456.259.942.245 1.43v3.879h-1.699v-3.747a1.892 1.892 0 00-.12-.718.808.808 0 00-.365-.42 1.18 1.18 0 00-.605-.119 1.538 1.538 0 00-.532.09 1.177 1.177 0 00-.419.258c-.114.11-.208.24-.275.383a1.062 1.062 0 00-.102.467v3.806h-1.7zm10.45.12a3.717 3.717 0 01-1.801-.42 3.016 3.016 0 01-1.197-1.149 3.268 3.268 0 01-.426-1.676c-.005-.462.076-.92.24-1.352a3.2 3.2 0 01.67-1.06 2.99 2.99 0 011.023-.694c.409-.166.846-.25 1.288-.246a2.97 2.97 0 011.197.24 2.87 2.87 0 011.568 1.67c.145.4.211.825.191 1.25l-.012.527h-5.087l-.276-1.04h3.963l-.192.215v-.264a1.109 1.109 0 00-.209-.58 1.327 1.327 0 00-.473-.407 1.378 1.378 0 00-.647-.15 1.81 1.81 0 00-.892.204 1.331 1.331 0 00-.556.598c-.136.3-.201.628-.192.958-.009.347.076.69.245.993.164.28.405.507.694.653.33.163.693.243 1.06.234.261.003.521-.042.766-.132a2.74 2.74 0 00.743-.455l.814 1.137a3.475 3.475 0 01-.766.52 4.093 4.093 0 01-.862.318 3.69 3.69 0 01-.874.107z" fill="#131032"/><path fill-rule="evenodd" clip-rule="evenodd" d="M278.801 77.703a8.363 8.363 0 00-7.954 11.615 8.366 8.366 0 007.954 5.1h22.954a8.366 8.366 0 006.075-2.357 8.348 8.348 0 002.539-6 8.349 8.349 0 00-5.337-7.795 8.363 8.363 0 00-3.277-.563h-22.954z" fill="#23D6BA"/><path d="M302.008 80.489a5.57 5.57 0 015.464 6.658 5.572 5.572 0 11-5.464-6.659zm-23.114 8.801a3.531 3.531 0 01-1.369-.258 3.32 3.32 0 01-1.087-.723 3.181 3.181 0 01-.714-1.101 3.782 3.782 0 01-.249-1.384 3.764 3.764 0 01.249-1.388c.16-.412.402-.785.714-1.097a3.33 3.33 0 011.087-.723 3.509 3.509 0 011.36-.259 3.5 3.5 0 011.364.259c.406.168.774.416 1.082.728.311.314.554.689.714 1.101.169.44.254.908.249 1.38.005.47-.08.938-.249 1.378a3.272 3.272 0 01-1.796 1.829c-.43.176-.89.264-1.355.259zm-.009-1.36a1.847 1.847 0 001.398-.598c.176-.194.314-.42.407-.665a2.33 2.33 0 00.148-.843 2.33 2.33 0 00-.148-.843 2.102 2.102 0 00-.407-.665 1.844 1.844 0 00-1.398-.599 1.883 1.883 0 00-1.399.599c-.18.19-.319.418-.407.665a2.47 2.47 0 00-.139.843 2.47 2.47 0 00.139.843 1.9 1.9 0 001.806 1.264zm4.711 1.265v-6.703h1.283l3.706 5.008h-.268a23.397 23.397 0 01-.191-3.18v-1.828h1.408v6.703h-1.303l-3.783-5.056.364.01.082.847.057.608a12.044 12.044 0 01.053 1.178v2.413h-1.408z" fill="#fff"/><path d="M101.029 153.855a4.934 4.934 0 01-1.418-.192 3.61 3.61 0 01-1.137-.562 4.437 4.437 0 01-.892-.898l1.125-1.281c.297.455.697.835 1.168 1.107a2.75 2.75 0 001.262.293c.226.004.451-.033.665-.108a1.12 1.12 0 00.46-.293.64.64 0 00.168-.449.759.759 0 00-.084-.353.906.906 0 00-.239-.287 1.809 1.809 0 00-.371-.227 3.179 3.179 0 00-.479-.18 4.21 4.21 0 00-.575-.125 6.778 6.778 0 01-1.173-.377 2.792 2.792 0 01-.838-.551 2.107 2.107 0 01-.497-.748 2.608 2.608 0 01-.161-.946 2.13 2.13 0 01.24-.999c.161-.31.388-.582.664-.797.294-.229.626-.403.981-.514a3.802 3.802 0 011.179-.18c.453-.007.904.049 1.341.168.362.101.701.269 1 .497.283.22.525.489.712.795l-1.137 1.102a2.937 2.937 0 00-.545-.563 2.125 2.125 0 00-.634-.341 2.228 2.228 0 00-.701-.114 2.053 2.053 0 00-.682.102.992.992 0 00-.449.3.703.703 0 00-.162.46.691.691 0 00.108.383.97.97 0 00.311.294c.155.092.32.166.491.221.208.068.42.124.635.168.405.077.802.194 1.185.347.325.128.629.304.903.52.244.194.442.439.581.718.139.29.209.607.204.928a2.521 2.521 0 01-.407 1.449 2.598 2.598 0 01-1.126.916 4.131 4.131 0 01-1.676.317zm4.597 2.514v-8.966h1.64l.048 1.424-.311-.108a1.41 1.41 0 01.413-.706c.236-.227.515-.405.82-.527a2.67 2.67 0 011.029-.203 2.62 2.62 0 011.473.425c.436.289.787.69 1.017 1.161a3.7 3.7 0 01.371 1.693 3.712 3.712 0 01-.371 1.689c-.228.473-.58.876-1.017 1.167a2.628 2.628 0 01-1.473.425 2.671 2.671 0 01-1.047-.21 2.54 2.54 0 01-.838-.557 1.596 1.596 0 01-.437-.742l.395-.168v4.203h-1.712zm3.256-3.987c.292.006.579-.073.826-.227.244-.157.439-.379.563-.641.14-.297.21-.623.203-.952a2.088 2.088 0 00-.203-.945 1.572 1.572 0 00-.557-.634 1.499 1.499 0 00-.832-.228 1.574 1.574 0 00-.838.222c-.244.153-.44.373-.562.634a2.118 2.118 0 00-.204.952c-.007.329.063.654.204.952.123.262.318.483.562.64.252.155.543.234.838.227zm7.53 1.473a3.724 3.724 0 01-1.802-.419 3.02 3.02 0 01-1.197-1.149 3.27 3.27 0 01-.425-1.676 3.677 3.677 0 01.239-1.353 3.22 3.22 0 01.671-1.06c.289-.3.638-.536 1.024-.694.408-.166.846-.25 1.287-.246.411-.003.819.078 1.197.24a2.856 2.856 0 011.568 1.67c.146.4.211.825.191 1.251l-.012.526h-5.088l-.275-1.041h3.962l-.191.216v-.263a1.116 1.116 0 00-.209-.581 1.344 1.344 0 00-1.119-.557 1.819 1.819 0 00-.892.204 1.327 1.327 0 00-.557.598 2.18 2.18 0 00-.192.958 1.93 1.93 0 00.246.994c.164.279.405.506.694.652.329.163.692.243 1.059.234.261.003.521-.042.766-.132.27-.111.521-.265.742-.455l.814 1.137c-.23.207-.488.382-.766.521a4.051 4.051 0 01-.862.317 3.668 3.668 0 01-.873.108zm6.38 0a2.48 2.48 0 01-1.425-.431 3.025 3.025 0 01-1.005-1.173 3.758 3.758 0 01-.371-1.7 3.706 3.706 0 01.377-1.7 2.926 2.926 0 011.023-1.161 2.648 2.648 0 011.473-.419c.291-.003.58.043.855.138.248.085.479.213.683.377.193.157.36.343.496.551.135.205.232.432.288.67l-.359-.06v-1.544h1.688v6.332h-1.712v-1.52l.383-.036a2.025 2.025 0 01-.311.634 2.406 2.406 0 01-.533.533 2.654 2.654 0 01-.712.371c-.27.093-.553.139-.838.138zm.467-1.473a1.53 1.53 0 00.838-.227c.243-.156.436-.378.556-.641.138-.302.205-.631.198-.963a2.144 2.144 0 00-.198-.946 1.552 1.552 0 00-.556-.64 1.505 1.505 0 00-.838-.234 1.45 1.45 0 00-.82.234 1.61 1.61 0 00-.557.64 2.09 2.09 0 00-.203.946 2.15 2.15 0 00.203.963c.123.261.316.483.557.641.245.154.53.233.82.227zm6.572-.55l-.503-1.401 2.993-3.028h2.238l-4.728 4.429zm-1.616 1.903v-8.858h1.699v8.858h-1.699zm4.285 0l-2.274-2.861 1.197-.958 3.124 3.819H132.5zm5.722.12a3.727 3.727 0 01-1.802-.419 3.027 3.027 0 01-1.197-1.149 3.28 3.28 0 01-.425-1.676 3.7 3.7 0 01.24-1.353 3.2 3.2 0 01.67-1.06c.289-.3.638-.536 1.023-.694.409-.166.846-.25 1.288-.246.411-.003.818.078 1.197.24a2.87 2.87 0 011.568 1.67c.146.4.211.825.191 1.251l-.012.526h-5.087l-.276-1.041h3.963l-.192.216v-.263a1.108 1.108 0 00-.209-.581 1.326 1.326 0 00-.473-.407 1.383 1.383 0 00-.647-.15 1.821 1.821 0 00-.892.204 1.33 1.33 0 00-.556.598 2.179 2.179 0 00-.191.958c-.01.347.075.691.245.994.164.279.405.506.694.652a2.25 2.25 0 001.06.233 2.13 2.13 0 00.766-.131c.27-.111.52-.265.742-.455l.814 1.137a3.465 3.465 0 01-.766.521 4.15 4.15 0 01-.862.318c-.286.07-.579.106-.874.107zm4.01-.12v-6.332h1.64l.06 2.035-.287-.419c.094-.326.253-.629.467-.892a2.37 2.37 0 01.76-.629c.282-.149.596-.227.915-.227a2.174 2.174 0 01.719.12l-.455 1.867a1.478 1.478 0 00-.342-.126 1.637 1.637 0 00-.424-.053 1.37 1.37 0 00-.533.101c-.16.065-.305.163-.425.287a1.347 1.347 0 00-.281.437 1.467 1.467 0 00-.102.551v3.28h-1.712z" fill="#131032"/><path fill-rule="evenodd" clip-rule="evenodd" d="M278.801 141.764a8.351 8.351 0 00-7.953 5.1 8.366 8.366 0 001.878 9.259 8.364 8.364 0 006.075 2.356h22.955a8.352 8.352 0 006.075-2.356 8.358 8.358 0 001.878-9.259 8.358 8.358 0 00-7.953-5.1h-22.955z" fill="#23D6BA"/><path d="M302.008 144.55a5.575 5.575 0 015.148 3.44 5.568 5.568 0 01-4.061 7.596 5.57 5.57 0 01-6.658-5.464 5.572 5.572 0 015.571-5.572zm-23.113 8.802a3.531 3.531 0 01-1.37-.259 3.31 3.31 0 01-1.087-.723 3.158 3.158 0 01-.713-1.101 3.763 3.763 0 01-.249-1.384 3.743 3.743 0 01.249-1.388 3.18 3.18 0 01.713-1.097c.311-.31.681-.556 1.087-.723a3.521 3.521 0 011.36-.258c.468-.006.932.082 1.365.258.405.168.773.416 1.082.728.31.314.553.689.713 1.101.17.44.254.908.249 1.379.005.472-.079.939-.249 1.379a3.248 3.248 0 01-1.795 1.829 3.48 3.48 0 01-1.355.259zm-.01-1.36a1.838 1.838 0 001.398-.598c.176-.195.314-.421.407-.666a2.31 2.31 0 00.149-.843 2.308 2.308 0 00-.149-.842 2.092 2.092 0 00-.407-.666 1.826 1.826 0 00-.613-.441 1.923 1.923 0 00-.785-.158 1.9 1.9 0 00-.776.158 1.948 1.948 0 00-.622.441 1.882 1.882 0 00-.407.666 2.46 2.46 0 00-.139.842 2.47 2.47 0 00.139.843c.088.248.226.474.407.666a1.885 1.885 0 001.398.598zm4.712 1.264v-6.703h1.283l3.706 5.008h-.268a19.508 19.508 0 01-.067-.579c-.019-.189-.037-.38-.053-.575a15.718 15.718 0 01-.038-.603 29.712 29.712 0 01-.034-1.422v-1.829h1.408v6.703h-1.302l-3.783-5.056.364.009.081.848.058.608c.016.172.027.322.033.45.007.128.011.249.015.364.003.115.004.236.004.364v2.413h-1.407z" fill="#fff"/><path d="M154.239 147.213a2.909 2.909 0 01.568 5.763 2.904 2.904 0 01-2.987-1.237 2.91 2.91 0 012.419-4.526zm50.958 4.89h-41.171a1.915 1.915 0 010-3.83h41.171c.508 0 .995.201 1.354.561a1.91 1.91 0 010 2.708 1.915 1.915 0 01-1.354.561z" fill="#E4E7EA"/><mask id="mask1_1328_6590" style="mask-type:luminance" maskUnits="userSpaceOnUse" x="98" y="115" width="30" height="16"><path d="M127.388 115.691H98.18v14.843h29.208v-14.843z" fill="#fff"/></mask><g mask="url(#mask1_1328_6590)"><path d="M307.426 100.687H100.574a2.873 2.873 0 00-2.873 2.873v24.42a2.873 2.873 0 002.873 2.873h206.852a2.873 2.873 0 002.873-2.873v-24.42a2.873 2.873 0 00-2.873-2.873z" fill="#97DFC1"/><path d="M100.574 101.644a1.916 1.916 0 00-1.915 1.916v24.42a1.914 1.914 0 001.915 1.915h206.852a1.915 1.915 0 001.915-1.915v-24.42a1.92 1.92 0 00-1.915-1.916H100.574zm0-.957h206.852a2.869 2.869 0 012.873 2.873v24.42a2.872 2.872 0 01-2.873 2.873H100.574a2.873 2.873 0 01-2.873-2.873v-24.42a2.875 2.875 0 012.873-2.873z" fill="#D0D5DA"/></g><mask id="mask2_1328_6590" style="mask-type:luminance" maskUnits="userSpaceOnUse" x="98" y="185" width="30" height="10"><path d="M127.388 185.599H98.18v9.097h29.208v-9.097z" fill="#fff"/></mask><g mask="url(#mask2_1328_6590)"><path d="M307.426 176.359H100.574a2.873 2.873 0 00-2.873 2.873v12.787a2.873 2.873 0 002.873 2.873h206.852a2.873 2.873 0 002.873-2.873v-12.787a2.873 2.873 0 00-2.873-2.873z" fill="#97DFC1"/><path d="M100.574 177.316a1.916 1.916 0 00-1.915 1.916v12.787a1.914 1.914 0 001.915 1.915h206.852a1.915 1.915 0 001.915-1.915v-12.787a1.917 1.917 0 00-1.915-1.916H100.574zm0-.957h206.852a2.869 2.869 0 012.873 2.873v12.787a2.87 2.87 0 01-.842 2.031 2.87 2.87 0 01-2.031.842H100.574a2.873 2.873 0 01-2.873-2.873v-12.787a2.875 2.875 0 012.873-2.873z" fill="#D0D5DA"/></g><path d="M100.574 101.644a1.916 1.916 0 00-1.915 1.916v24.42a1.914 1.914 0 001.915 1.915h206.852a1.915 1.915 0 001.915-1.915v-24.42a1.917 1.917 0 00-1.915-1.916H100.574zm0-.957h206.852a2.869 2.869 0 012.873 2.873v24.42a2.872 2.872 0 01-2.873 2.873H100.574a2.873 2.873 0 01-2.873-2.873v-24.42a2.875 2.875 0 012.873-2.873z" fill="#D0D5DA"/><path d="M139.036 119.121v-6.703h2.797c.37-.011.738.054 1.082.191.277.114.51.314.665.57.158.282.236.601.225.924.01.335-.097.664-.301.929a1.531 1.531 0 01-.838.527v-.192c.283.057.55.173.785.34.22.159.399.367.522.608.128.259.192.545.187.834.005.289-.045.577-.149.847a1.57 1.57 0 01-.44.618 1.994 1.994 0 01-.704.378c-.305.09-.621.134-.939.129h-2.892zm1.034-.996h1.801c.227.007.453-.033.665-.115a.909.909 0 00.422-.34.954.954 0 00.148-.541.817.817 0 00-.158-.507.979.979 0 00-.445-.321 1.898 1.898 0 00-.68-.11h-1.753v1.934zm0-2.93h1.705c.178.003.353-.036.512-.115a.902.902 0 00.355-.316.83.83 0 00.129-.46.796.796 0 00-.287-.66 1.293 1.293 0 00-.824-.23h-1.59v1.781zm7.001 4.022a1.724 1.724 0 01-.934-.249 1.647 1.647 0 01-.613-.699 2.46 2.46 0 01-.215-1.073v-3.102h.986v2.834c-.006.261.041.52.139.762.082.2.222.372.402.493.191.119.412.179.637.172a1.38 1.38 0 00.508-.091 1.157 1.157 0 00.66-.646 1.27 1.27 0 00.096-.498v-3.026h.987v5.027h-.987v-1.053l.173-.115c-.08.24-.212.46-.388.642a2.04 2.04 0 01-.647.455 1.951 1.951 0 01-.804.167zm4.194-.096v-5.027h.987v5.027h-.987zm.479-6.138a.683.683 0 01-.488-.163.605.605 0 01-.173-.46.594.594 0 01.402-.585.67.67 0 01.259-.037.683.683 0 01.489.163.61.61 0 01.172.459.612.612 0 01-.177.45.653.653 0 01-.484.173zm2.04 6.138v-7.086h.986v7.086h-.986zm2.978 0v-6.311h.987v6.311h-.987zm-1.044-4.07v-.957h3.199v.957h-3.199zm3.917 1.82v-.977h2.758v.977h-2.758zm4.118 2.25v-5.027h.986v5.027h-.986zm.479-6.138a.687.687 0 01-.489-.163.61.61 0 01-.172-.46.61.61 0 01.177-.45.67.67 0 01.484-.172.679.679 0 01.488.163.6.6 0 01.173.459.595.595 0 01-.402.585.653.653 0 01-.259.038zm2.021 6.138v-5.027h.986v1.034l-.172.115c.07-.234.198-.447.373-.618.191-.192.414-.348.661-.46.245-.115.513-.176.785-.177.334-.012.664.066.958.225.262.158.464.399.574.685.139.37.204.764.192 1.159v3.064h-.987v-2.997a1.91 1.91 0 00-.114-.714.782.782 0 00-.355-.411 1.107 1.107 0 00-.594-.11 1.452 1.452 0 00-.526.09 1.302 1.302 0 00-.417.254 1.211 1.211 0 00-.278.379 1.092 1.092 0 00-.1.464v3.045h-.986zm8.628 0v-6.703h1.015l2.442 3.974-.488-.01 2.47-3.964h.958v6.703h-1.034v-2.748c0-.575.014-1.092.043-1.552.029-.459.078-.916.148-1.369l.134.354-2.193 3.39h-.632l-2.126-3.351.106-.393c.07.428.119.867.148 1.317.029.45.043.985.043 1.604v2.748h-1.034zm8.188 0v-5.027h.986v5.027h-.986zm.479-6.138a.687.687 0 01-.489-.163.61.61 0 01-.172-.46.61.61 0 01.177-.45.674.674 0 01.224-.135.678.678 0 01.26-.037.68.68 0 01.488.163.596.596 0 01.172.459.583.583 0 01-.401.585.653.653 0 01-.259.038zm4.156 6.234a2.307 2.307 0 01-1.25-.345 2.462 2.462 0 01-.871-.938 2.747 2.747 0 01-.321-1.331 2.741 2.741 0 01.321-1.331c.203-.384.503-.708.871-.939a2.307 2.307 0 011.25-.345c.423-.005.841.088 1.221.273.344.162.635.42.838.742l-.546.671a1.785 1.785 0 00-.393-.402 2.12 2.12 0 00-.507-.288 1.416 1.416 0 00-.517-.105 1.508 1.508 0 00-.819.225 1.613 1.613 0 00-.57.618 1.836 1.836 0 00-.211.881 1.735 1.735 0 00.805 1.494c.24.152.519.232.804.229.171.001.341-.028.503-.086.17-.061.33-.148.474-.258.161-.122.305-.264.431-.422l.546.671c-.228.306-.529.55-.876.708a2.657 2.657 0 01-1.183.278zm2.988-.096v-5.027h.996v1.58l-.096-.383c.071-.244.193-.469.359-.661a1.95 1.95 0 01.584-.469c.211-.113.446-.172.685-.173.104 0 .209.01.311.029.081.014.159.036.235.067l-.259 1.073a1.71 1.71 0 00-.254-.082 1.231 1.231 0 00-.766.067 1.325 1.325 0 00-.694.69 1.236 1.236 0 00-.105.512v2.777h-.996zm5.908.096a2.553 2.553 0 01-1.316-.34 2.473 2.473 0 01-.915-.929 2.668 2.668 0 01-.335-1.345c-.009-.47.107-.935.335-1.346a2.487 2.487 0 012.231-1.269 2.484 2.484 0 012.222 1.269c.228.411.344.876.335 1.346.009.47-.107.934-.335 1.345a2.47 2.47 0 01-.914.929c-.397.23-.849.347-1.308.34zm0-.9c.285.004.564-.074.805-.225.237-.151.428-.363.555-.613.137-.271.203-.573.192-.876a1.813 1.813 0 00-.192-.886 1.484 1.484 0 00-1.36-.828 1.485 1.485 0 00-.809.225 1.543 1.543 0 00-.56.612 1.803 1.803 0 00-.192.877c-.011.303.055.605.192.876.127.251.321.463.56.613.243.151.524.229.809.225zm3.63 2.911v-7.134h.996v1.149l-.153-.086a1.07 1.07 0 01.325-.551 2.14 2.14 0 01.656-.431 2.197 2.197 0 012.006.168c.355.227.642.544.834.919.21.415.315.875.306 1.341a2.88 2.88 0 01-.302 1.336 2.363 2.363 0 01-.828.929 2.152 2.152 0 01-1.187.34c-.294 0-.584-.061-.853-.178a2.29 2.29 0 01-.699-.455 1.165 1.165 0 01-.354-.574l.249-.134v3.361h-.996zm2.49-2.93c.277.004.55-.072.785-.221.232-.149.42-.357.546-.603.137-.269.206-.569.201-.871a1.86 1.86 0 00-.196-.867 1.536 1.536 0 00-.541-.598 1.443 1.443 0 00-.795-.221c-.28-.005-.556.07-.795.216a1.52 1.52 0 00-.546.598c-.137.27-.206.569-.201.872-.005.302.064.602.201.871.125.246.314.454.546.603.238.15.514.226.795.221zm3.553.823v-7.086h.986v3.093l-.172.115c.07-.234.198-.447.373-.618.191-.192.414-.348.661-.46.245-.115.514-.176.785-.177.334-.012.664.066.958.225.262.158.464.399.574.685.139.37.204.764.192 1.159v3.064h-.986v-2.997a1.931 1.931 0 00-.115-.714.782.782 0 00-.355-.411 1.105 1.105 0 00-.593-.11 1.454 1.454 0 00-.527.09 1.313 1.313 0 00-.417.254 1.193 1.193 0 00-.277.379 1.078 1.078 0 00-.101.464v3.045h-.986zm7.958.096a2.554 2.554 0 01-1.317-.34 2.48 2.48 0 01-.915-.929 2.678 2.678 0 01-.335-1.345c-.008-.47.107-.935.335-1.346a2.494 2.494 0 012.232-1.269 2.484 2.484 0 012.221 1.269c.229.411.344.876.336 1.346.008.47-.107.934-.336 1.345a2.47 2.47 0 01-.914.929 2.53 2.53 0 01-1.307.34zm0-.9c.284.004.563-.074.804-.225a1.56 1.56 0 00.555-.613c.137-.271.203-.573.192-.876a1.813 1.813 0 00-.192-.886 1.483 1.483 0 00-1.359-.828 1.486 1.486 0 00-.81.225 1.55 1.55 0 00-.56.612 1.79 1.79 0 00-.191.877c-.012.303.054.605.191.876.128.251.321.463.56.613.243.151.524.229.81.225zm3.629.804v-5.027h.986v1.034l-.172.115c.07-.234.199-.447.374-.618.19-.192.414-.348.66-.46.246-.115.514-.176.786-.177.333-.012.664.066.957.225.263.158.465.399.575.685.139.37.204.764.191 1.159v3.064h-.986v-2.997a1.891 1.891 0 00-.115-.714.78.78 0 00-.354-.411 1.109 1.109 0 00-.594-.11 1.458 1.458 0 00-.527.09 1.308 1.308 0 00-.416.254 1.196 1.196 0 00-.278.379 1.092 1.092 0 00-.101.464v3.045h-.986zm8.044.096a2.8 2.8 0 01-1.374-.33 2.435 2.435 0 01-.938-.905 2.545 2.545 0 01-.34-1.322c-.005-.369.06-.736.191-1.082.121-.314.301-.602.532-.847.228-.241.506-.431.814-.556.326-.133.676-.2 1.029-.196.313-.003.623.061.91.186a2.244 2.244 0 011.211 1.284c.114.311.168.641.158.972l-.009.421h-4.109l-.22-.785h3.476l-.143.163v-.23c-.017-.204-.09-.4-.211-.565a1.302 1.302 0 00-1.063-.536 1.77 1.77 0 00-.871.196c-.235.13-.423.331-.537.574a2.158 2.158 0 00-.182.934c-.008.319.068.634.221.915a1.5 1.5 0 00.622.598c.288.145.607.218.929.211.237.002.473-.04.694-.125.256-.109.491-.261.695-.45l.498.699a2.26 2.26 0 01-.561.403 3.533 3.533 0 01-.699.273 2.754 2.754 0 01-.723.1z" fill="#131032"/><path d="M105.638 126.064v-4.357h.853l1.587 2.583-.561-.006 1.607-2.577h.814v4.357h-.914v-1.494c0-.373.01-.709.028-1.008.019-.299.051-.596.096-.89l.112.292-1.275 1.98h-.411l-1.251-1.967.106-.305c.045.278.077.563.096.855.018.293.027.64.028 1.043v1.494h-.915zm6.443.063a1.165 1.165 0 01-.62-.159 1.032 1.032 0 01-.398-.454 1.649 1.649 0 01-.14-.713v-2.03h.883v1.886a.948.948 0 00.075.39.566.566 0 00.212.252.607.607 0 00.335.087c.09.001.18-.015.264-.048a.62.62 0 00.4-.594v-1.973h.889v3.293h-.842l-.031-.678.162-.075a1.106 1.106 0 01-.249.418 1.267 1.267 0 01-.94.398zm3.106-.063v-4.127h.884v4.127h-.884zm-.616-2.502v-.791h2.178v.791h-2.178zm4.282 2.565a1.945 1.945 0 01-.937-.218 1.576 1.576 0 01-.622-.598 1.692 1.692 0 01-.221-.871 1.902 1.902 0 01.125-.704c.078-.205.197-.392.348-.551a1.55 1.55 0 01.532-.361c.213-.086.441-.13.67-.127.214-.002.426.04.623.124a1.498 1.498 0 01.815.868c.076.209.109.43.099.651l-.006.274h-2.646l-.143-.541h2.059l-.1.112v-.137a.577.577 0 00-.109-.302.69.69 0 00-.246-.212.723.723 0 00-.335-.078.936.936 0 00-.464.106.691.691 0 00-.287.311 1.125 1.125 0 00-.1.498c-.005.181.039.359.127.517a.886.886 0 00.361.339c.172.084.36.124.551.119.136.002.271-.022.398-.068.14-.058.271-.138.386-.237l.423.592c-.12.108-.254.199-.398.271a2.117 2.117 0 01-.448.166 1.942 1.942 0 01-.455.057z" fill="#614EFA"/><path d="M112.647 104.105a3.342 3.342 0 012.344 1.005c.617.633.959 1.484.95 2.368v4.267a3.34 3.34 0 01-3.294 3.373 3.342 3.342 0 01-2.345-1.005 3.344 3.344 0 01-.95-2.368v-4.267a3.338 3.338 0 013.295-3.373zm0 9.816a2.139 2.139 0 002.096-2.176v-4.267a2.139 2.139 0 00-2.096-2.176 2.144 2.144 0 00-1.499.654 2.144 2.144 0 00-.599 1.522v4.267a2.142 2.142 0 002.098 2.176z" fill="#131032"/><path d="M112.647 117.465a5.472 5.472 0 01-3.949-1.682 5.763 5.763 0 01-1.628-4.038.598.598 0 111.197 0 4.46 4.46 0 004.38 4.523 4.458 4.458 0 004.376-4.523.598.598 0 111.197 0 5.758 5.758 0 01-1.628 4.038 5.461 5.461 0 01-3.945 1.682z" fill="#131032"/><path d="M112.646 119.598a.598.598 0 01-.598-.598v-2.134a.598.598 0 111.197 0V119a.604.604 0 01-.37.553.595.595 0 01-.229.045z" fill="#131032"/><path d="M114.266 119.598h-3.24a.6.6 0 010-1.197h3.24a.604.604 0 01.553.37.595.595 0 01-.13.652.602.602 0 01-.423.175z" fill="#131032"/><path d="M294.812 118.851l-3.431-3.43a.725.725 0 01-.166-.789.733.733 0 01.393-.393.716.716 0 01.789.166l2.415 2.415 2.415-2.415a.721.721 0 01.789-.166.718.718 0 01.227 1.182l-3.431 3.43z" fill="#A8AFB7"/><path d="M128.106 129.996h-.957v-29.07h.957v29.07zm-27.532 35.71a1.912 1.912 0 00-1.915 1.915v24.42a1.914 1.914 0 001.915 1.915h206.852a1.915 1.915 0 001.915-1.915v-24.42a1.915 1.915 0 00-1.915-1.915H100.574zm0-.958h206.852a2.87 2.87 0 012.031.842 2.87 2.87 0 01.842 2.031v24.42a2.87 2.87 0 01-.842 2.031 2.87 2.87 0 01-2.031.842H100.574a2.873 2.873 0 01-2.873-2.873v-24.42a2.87 2.87 0 012.873-2.873z" fill="#D0D5DA"/><path d="M139.036 183.183v-6.704h2.797c.37-.011.738.055 1.082.192.277.113.51.313.665.569.158.282.236.602.225.925.01.335-.097.663-.301.929a1.535 1.535 0 01-.838.526v-.191c.283.056.55.172.785.34a1.7 1.7 0 01.709 1.441c.005.289-.045.577-.149.847a1.57 1.57 0 01-.44.618 1.978 1.978 0 01-.704.378 3.142 3.142 0 01-.939.13h-2.892zm1.034-.996h1.801c.227.006.453-.033.665-.115a.915.915 0 00.422-.34.959.959 0 00.148-.541.82.82 0 00-.158-.508.986.986 0 00-.445-.321 1.92 1.92 0 00-.68-.11h-1.753v1.935zm0-2.931h1.705c.178.003.353-.036.512-.115a.887.887 0 00.355-.316.829.829 0 00.129-.459.803.803 0 00-.287-.661 1.293 1.293 0 00-.824-.23h-1.59v1.781zm7.001 4.022a1.715 1.715 0 01-.934-.249 1.636 1.636 0 01-.613-.699 2.458 2.458 0 01-.215-1.072v-3.103h.986v2.835c-.006.26.041.519.139.761.082.201.222.373.402.493.191.119.412.179.637.173a1.38 1.38 0 00.508-.091 1.16 1.16 0 00.66-.647 1.27 1.27 0 00.096-.498v-3.026h.987v5.028h-.987v-1.054l.173-.115c-.08.241-.212.46-.388.642a2.024 2.024 0 01-.647.455c-.253.112-.527.17-.804.167zm4.194-.095v-5.028h.987v5.028h-.987zm.479-6.139a.679.679 0 01-.488-.163.6.6 0 01-.173-.459.595.595 0 01.402-.585.653.653 0 01.259-.038.687.687 0 01.489.163.61.61 0 01.172.46.61.61 0 01-.177.45.67.67 0 01-.484.172zm2.04 6.139v-7.087h.986v7.087h-.986zm2.978 0v-6.311h.987v6.311h-.987zm-1.044-4.07v-.958h3.199v.958h-3.199zm3.917 1.819v-.977h2.758v.977h-2.758zm4.118 2.251v-5.028h.986v5.028h-.986zm.479-6.139a.683.683 0 01-.489-.163.61.61 0 01-.172-.459.612.612 0 01.177-.45.653.653 0 01.484-.173.683.683 0 01.488.163.605.605 0 01.173.46.594.594 0 01-.402.585.67.67 0 01-.259.037zm2.021 6.139v-5.028h.986v1.034l-.172.115c.07-.234.198-.447.373-.617.191-.193.414-.348.661-.46.245-.116.513-.177.785-.177.334-.012.664.065.958.225.262.158.464.399.574.684.139.371.204.764.192 1.159v3.065h-.987v-2.998a1.902 1.902 0 00-.114-.713.788.788 0 00-.355-.412 1.107 1.107 0 00-.594-.11 1.475 1.475 0 00-.526.091 1.268 1.268 0 00-.417.254 1.207 1.207 0 00-.278.378 1.092 1.092 0 00-.1.464v3.046h-.986zm11.434.095a3.257 3.257 0 01-1.307-.258 3.173 3.173 0 01-1.044-.723 3.281 3.281 0 01-.69-1.092 3.772 3.772 0 01-.244-1.374 3.768 3.768 0 01.244-1.374c.155-.406.39-.777.69-1.092a3.173 3.173 0 011.044-.723 3.275 3.275 0 011.307-.259c.449-.004.894.084 1.307.259.394.169.749.416 1.044.728.299.317.534.689.689 1.096.166.436.249.899.245 1.365.004.466-.079.929-.245 1.365-.155.407-.39.779-.689 1.096-.295.311-.65.559-1.044.728a3.257 3.257 0 01-1.307.258zm0-1.005a2.086 2.086 0 001.599-.694c.202-.228.36-.491.465-.776.114-.311.171-.641.167-.972a2.728 2.728 0 00-.167-.972 2.424 2.424 0 00-.465-.776 2.086 2.086 0 00-1.599-.694 2.161 2.161 0 00-.896.182 2.16 2.16 0 00-.708.507 2.28 2.28 0 00-.465.771 2.855 2.855 0 00-.162.982 2.83 2.83 0 00.162.977c.101.287.259.551.465.775.199.216.44.389.708.508.283.123.588.186.896.182zm6.196 1.005a1.715 1.715 0 01-.934-.249 1.636 1.636 0 01-.613-.699 2.458 2.458 0 01-.215-1.072v-3.103h.986v2.835c-.006.26.041.519.139.761.082.201.222.373.402.493.191.119.412.179.637.173a1.38 1.38 0 00.508-.091 1.16 1.16 0 00.66-.647 1.27 1.27 0 00.096-.498v-3.026h.986v5.028h-.986v-1.054l.172-.115c-.079.241-.211.46-.387.642a2.035 2.035 0 01-.647.455c-.253.112-.527.17-.804.167zm4.654-.095v-6.311h.986v6.311h-.986zm-1.044-4.07v-.958h3.199v.958h-3.199zm4.099 6.176v-7.134h.996v1.149l-.153-.086c.05-.212.163-.404.325-.551a2.14 2.14 0 01.656-.431c.252-.11.525-.167.8-.167.426-.008.845.109 1.206.335.355.227.642.544.834.919.21.415.315.876.306 1.341a2.88 2.88 0 01-.302 1.336 2.363 2.363 0 01-.828.929 2.144 2.144 0 01-1.187.34c-.294 0-.584-.06-.853-.177a2.31 2.31 0 01-.699-.455 1.173 1.173 0 01-.354-.575l.249-.134v3.361h-.996zm2.49-2.93c.277.005.55-.072.785-.22a1.57 1.57 0 00.546-.603c.137-.27.206-.569.201-.872.006-.3-.062-.598-.196-.867a1.536 1.536 0 00-.541-.598 1.442 1.442 0 00-.795-.22 1.466 1.466 0 00-.795.215 1.529 1.529 0 00-.546.599 1.852 1.852 0 00-.201.871c-.005.303.064.602.201.872.125.245.314.454.546.603.238.149.514.225.795.22zm5.315.919a1.715 1.715 0 01-.934-.249 1.63 1.63 0 01-.613-.699 2.458 2.458 0 01-.215-1.072v-3.103h.986v2.835c-.006.26.041.519.139.761.082.201.222.373.402.493.191.119.412.179.637.173a1.37 1.37 0 00.507-.091 1.16 1.16 0 00.661-.647 1.27 1.27 0 00.096-.498v-3.026h.986v5.028h-.986v-1.054l.172-.115c-.079.241-.211.46-.387.642a2.035 2.035 0 01-.647.455c-.253.112-.527.17-.804.167zm4.654-.095v-6.311h.986v6.311h-.986zm-1.044-4.07v-.958h3.199v.958h-3.199z" fill="#131032"/><path d="M294.812 182.913l-3.431-3.431a.71.71 0 01-.219-.51.716.716 0 011.001-.666.71.71 0 01.234.161l2.415 2.415 2.415-2.415a.717.717 0 111.016 1.015l-3.431 3.431z" fill="#A8AFB7"/><path d="M128.106 194.057h-.957v-29.07h.957v29.07z" fill="#D0D5DA"/><path d="M109.192 184.984h-2.716a1.758 1.758 0 01-1.676-1.833v-5.049a1.766 1.766 0 01.46-1.263 1.766 1.766 0 011.216-.571h2.715a.599.599 0 01.599.599v7.517a.605.605 0 01-.369.554.604.604 0 01-.229.046zm-2.716-7.519c-.258 0-.479.292-.479.637v5.048c0 .345.219.636.479.636h2.116v-6.321h-2.116z" fill="#131032"/><path d="M112.911 173.825a.808.808 0 01.792.821v11.961a.807.807 0 01-.792.821.771.771 0 01-.444-.144l-3.607-2.401a.587.587 0 01-.267-.498v-7.518a.594.594 0 01.267-.498l3.608-2.403a.763.763 0 01.443-.141zm-.405 12.049v-10.495l-2.716 1.808v6.878l2.716 1.809zm2.597-1.237a.6.6 0 01-.511-.911.599.599 0 01.326-.257 2.913 2.913 0 002.065-2.843 2.913 2.913 0 00-2.065-2.844.59.59 0 01-.348-.297.592.592 0 01-.036-.457.595.595 0 01.754-.384c.882.276 1.646.84 2.169 1.6a4.282 4.282 0 010 4.763 4.133 4.133 0 01-2.169 1.601.611.611 0 01-.185.029z" fill="#131032"/><path d="M116.343 186.508a.596.596 0 01-.591-.499.598.598 0 01.394-.665 4.862 4.862 0 003.193-4.718 4.853 4.853 0 00-3.193-4.72.594.594 0 01-.404-.53.588.588 0 01.15-.434.592.592 0 01.415-.2.605.605 0 01.231.033 5.776 5.776 0 013.005 2.364 6.468 6.468 0 01.993 3.487 6.462 6.462 0 01-.993 3.486 5.772 5.772 0 01-3.005 2.362.62.62 0 01-.195.034z" fill="#131032"/><path d="M310.059 66.045H97.941v-.48h212.118v.48z" fill="#707070"/><mask id="mask3_1328_6590" style="mask-type:luminance" maskUnits="userSpaceOnUse" x="271" y="44" width="40" height="13"><path d="M310.299 44.825h-39.264v11.97h39.264v-11.97z" fill="#fff"/></mask><g mask="url(#mask3_1328_6590)"><path d="M293.55 44.788h15.009a1.5 1.5 0 011.501 1.501v9.005a1.51 1.51 0 01-.44 1.062 1.5 1.5 0 01-1.061.44H293.55a1.499 1.499 0 01-1.502-1.502V46.29a1.492 1.492 0 01.44-1.062 1.498 1.498 0 011.062-.44z" fill="#E4E7EA"/><path d="M298.662 51.537v2.228h1.873V47.79h-1.873v2.27h-1.748v-2.27h-1.864v5.975h1.864v-2.228h1.748zm5.421-3.747h-2.563v5.975h2.563c2.097 0 3.28-1.437 3.28-2.987 0-1.551-1.201-2.988-3.28-2.988zm-.699 1.502h.565a1.453 1.453 0 011.505 1.484 1.465 1.465 0 01-.433 1.067 1.458 1.458 0 01-1.072.418h-.565v-2.969z" fill="#131032"/><path d="M272.536 44.788h15.01a1.5 1.5 0 011.501 1.501v9.005a1.51 1.51 0 01-.44 1.062 1.5 1.5 0 01-1.061.44h-15.01a1.498 1.498 0 01-1.387-.927 1.51 1.51 0 01-.114-.575V46.29a1.51 1.51 0 01.44-1.062 1.498 1.498 0 011.061-.44z" fill="#E4E7EA"/><path d="M279.973 46.195a3.735 3.735 0 00-3.709 3.756v1.084a1.592 1.592 0 00-.548 1.653l.403 1.532a1.562 1.562 0 00.719.955 1.548 1.548 0 001.185.158l.766-.209a.455.455 0 00.315-.552l-.976-3.71a.456.456 0 00-.206-.272.447.447 0 00-.338-.045l-.171.116v-.71a2.373 2.373 0 012.559-2.538c1.551 0 2.694.965 2.694 2.538v.673l-.17-.078a.447.447 0 00-.468.16.44.44 0 00-.076.158l-.976 3.709a.451.451 0 00.315.552l.766.209a1.55 1.55 0 001.906-1.113l.403-1.532a1.589 1.589 0 00-.685-1.75v-.988a3.734 3.734 0 00-3.708-3.756" fill="#131032"/></g><path d="M288.189 57.753h-162.15a4.394 4.394 0 00-4.394 4.394V77.76a4.394 4.394 0 004.394 4.394h162.15a4.393 4.393 0 004.393-4.394V62.147a4.393 4.393 0 00-4.393-4.394z" fill="#131032"/><path d="M128.992 73.075v-6.033h2.569c.343-.01.685.049 1.005.172.257.1.475.28.623.513.146.25.219.535.211.823.009.304-.085.602-.267.845a1.36 1.36 0 01-.75.474l-.009-.172c.255.05.496.155.707.306.197.141.358.327.47.543.115.228.172.48.168.736a1.98 1.98 0 01-.144.776 1.425 1.425 0 01-.418.56 1.92 1.92 0 01-.655.34 2.88 2.88 0 01-.855.117h-2.655zm1.095-1.008h1.508c.184.005.368-.028.539-.096a.72.72 0 00.335-.28.815.815 0 00.116-.444.68.68 0 00-.125-.414.773.773 0 00-.357-.263 1.523 1.523 0 00-.552-.09h-1.465l.001 1.587zm0-2.551h1.37a.94.94 0 00.435-.096.694.694 0 00.391-.638.67.67 0 00-.233-.539 1.037 1.037 0 00-.68-.191h-1.285l.002 1.464zm6.354 3.645a1.77 1.77 0 01-1.017-.31 2.239 2.239 0 01-.733-.844 2.625 2.625 0 01-.276-1.216 2.626 2.626 0 01.276-1.215c.17-.341.429-.63.75-.836a1.949 1.949 0 011.069-.302c.214-.002.426.031.629.1.182.061.352.156.5.28.141.117.262.257.358.413.093.154.158.323.191.5l-.233-.06v-1.138h1.069v4.542h-1.077V71.99l.25-.043a1.344 1.344 0 01-.22.453 1.69 1.69 0 01-.397.388 2.158 2.158 0 01-.526.271c-.197.07-.404.104-.613.103zm.293-.939c.231.004.459-.058.655-.181.192-.123.346-.298.444-.504a1.67 1.67 0 00.159-.746 1.616 1.616 0 00-.163-.732 1.23 1.23 0 00-.443-.5 1.196 1.196 0 00-.655-.181 1.172 1.172 0 00-.651.18 1.21 1.21 0 00-.434.5c-.107.23-.16.48-.155.733a1.71 1.71 0 00.155.746c.095.205.246.38.435.504.195.123.421.186.651.181h.002zm5.471.94a2.152 2.152 0 01-1.146-.31 2.217 2.217 0 01-.802-.846 2.46 2.46 0 01-.293-1.206c-.007-.42.094-.836.293-1.207.187-.348.464-.64.802-.844a2.151 2.151 0 011.146-.31 2.6 2.6 0 011.112.232c.314.139.582.363.775.646l-.586.707a1.46 1.46 0 00-.327-.327 1.804 1.804 0 00-.422-.233 1.242 1.242 0 00-.449-.086 1.25 1.25 0 00-.676.185c-.199.125-.362.3-.47.509a1.524 1.524 0 00-.172.728c-.005.252.056.502.176.724.114.208.279.383.479.508.201.127.433.194.671.192.148 0 .295-.025.435-.073.143-.05.278-.122.401-.212.132-.098.251-.214.353-.344l.587.714a2.11 2.11 0 01-.804.615 2.545 2.545 0 01-1.083.237zm3.687-1.474l-.207-.992 2.155-2.163h1.413l-3.361 3.155zm-.991 1.388v-6.379h1.06v6.378l-1.06.001zm3.068 0l-1.672-2.025.75-.638 2.234 2.662-1.312.001zm3.878 1.983a3.41 3.41 0 01-1.012-.156 2.415 2.415 0 01-.814-.405l.379-.784c.126.09.262.165.405.224a2.528 2.528 0 00.983.198 1.8 1.8 0 00.763-.143.977.977 0 00.461-.431c.11-.223.163-.47.155-.718v-.837l.155.06c-.043.194-.142.37-.284.508a1.761 1.761 0 01-.586.392c-.229.1-.475.15-.724.151a2.152 2.152 0 01-1.142-.301c-.33-.2-.6-.485-.785-.823a2.444 2.444 0 01-.287-1.203 2.527 2.527 0 01.286-1.211c.18-.344.45-.632.78-.836a2.084 2.084 0 011.116-.306c.169 0 .337.02.5.06.155.038.304.096.444.173.13.07.253.154.366.25.103.084.193.183.267.292a.804.804 0 01.13.302l-.224.07.017-1.054h1.043v4.234c.006.332-.05.662-.164.974a1.966 1.966 0 01-.474.718c-.214.203-.47.356-.75.448a3.073 3.073 0 01-1.002.153h-.002zm.044-2.845c.24.005.478-.058.685-.18a1.24 1.24 0 00.461-.5c.112-.228.169-.48.164-.733a1.605 1.605 0 00-.168-.746 1.263 1.263 0 00-.462-.504 1.267 1.267 0 00-.68-.18 1.243 1.243 0 00-1.142.693 1.584 1.584 0 00-.169.737c-.004.253.054.503.169.728.104.207.264.382.461.504.206.124.442.186.682.18l-.001.001zm3.568.862v-4.543h1.043l.017 1.448-.147-.327a1.61 1.61 0 01.328-.623c.149-.179.332-.327.539-.435.197-.105.418-.16.642-.16a1.474 1.474 0 01.5.087l-.285 1.163a1.123 1.123 0 00-.508-.12 1.044 1.044 0 00-.75.31 1.066 1.066 0 00-.311.775v2.424l-1.068.001zm5.516.086a2.4 2.4 0 01-1.215-.306c-.352-.2-.644-.49-.845-.84a2.362 2.362 0 01-.31-1.216 2.363 2.363 0 01.31-1.215c.201-.351.493-.641.845-.84a2.4 2.4 0 011.215-.307 2.4 2.4 0 011.206.306c.352.199.643.49.843.84.207.371.313.79.306 1.216.007.425-.099.844-.306 1.215a2.23 2.23 0 01-.841.84 2.382 2.382 0 01-1.206.306l-.002.001zm0-.94c.234.004.463-.063.659-.19.194-.128.351-.303.457-.51a1.46 1.46 0 00.159-.723 1.477 1.477 0 00-.159-.733 1.312 1.312 0 00-.457-.504 1.194 1.194 0 00-.659-.185 1.24 1.24 0 00-1.132.694 1.597 1.597 0 00-.163.728c-.005.25.051.5.163.724.105.208.265.384.461.508.201.128.435.195.673.191h-.002zm4.88.94a1.611 1.611 0 01-.853-.22 1.404 1.404 0 01-.55-.63 2.316 2.316 0 01-.192-.978v-2.8h1.061v2.578c-.006.211.032.42.112.616.067.16.181.296.327.39a.937.937 0 00.517.138c.14.001.279-.024.41-.074a.942.942 0 00.538-.526 1.02 1.02 0 00.078-.4v-2.723h1.06v4.542h-1.034l-.017-.948.191-.103a1.464 1.464 0 01-.349.582 1.857 1.857 0 01-.582.405c-.225.1-.47.152-.717.15zm3.749-.087v-4.542h1.034l.018.931-.199.103c.062-.213.177-.408.336-.564.17-.173.372-.311.594-.41.222-.101.463-.154.707-.155.302-.01.601.061.866.207.239.145.424.363.527.623.127.33.187.68.177 1.034v2.773h-1.061v-2.697a1.5 1.5 0 00-.095-.575.655.655 0 00-.293-.335.938.938 0 00-.483-.1 1.204 1.204 0 00-.427.074 1.004 1.004 0 00-.559.513.886.886 0 00-.082.379v2.741h-1.06zm7.076.086a1.96 1.96 0 01-1.081-.305 2.182 2.182 0 01-.757-.834 2.58 2.58 0 01-.28-1.22 2.614 2.614 0 01.276-1.215c.172-.343.432-.633.754-.84a1.963 1.963 0 011.082-.306 2.009 2.009 0 011.181.384c.15.106.28.239.383.391a.927.927 0 01.159.449l-.284.034v-3.002h1.06v6.378h-1.027l-.026-1.069.207.018a.756.756 0 01-.15.413c-.103.14-.226.262-.367.362a1.889 1.889 0 01-.521.263 1.91 1.91 0 01-.609.1zm.207-.896c.233.004.461-.063.655-.191.192-.13.345-.308.444-.518.11-.236.165-.495.16-.756a1.72 1.72 0 00-.159-.754 1.173 1.173 0 00-1.099-.702 1.173 1.173 0 00-1.101.702 1.721 1.721 0 00-.159.754 1.71 1.71 0 00.159.758c.099.21.252.388.444.517.195.128.423.194.656.19zm7.963.81l-2.413-6.033h1.223l1.345 3.456a31.272 31.272 0 01.319.862c.04.115.076.227.108.335.031.109.067.224.107.345h-.239a11.7 11.7 0 01.289-.948c.06-.172.133-.37.219-.595l1.259-3.456h1.23l-2.429 6.034h-1.018zm5.774.086a2.401 2.401 0 01-1.215-.305c-.351-.2-.642-.49-.843-.84a2.373 2.373 0 01-.311-1.216c-.007-.426.1-.845.311-1.215.201-.351.492-.641.844-.84.371-.208.79-.314 1.215-.307a2.4 2.4 0 011.207.306c.351.2.642.49.84.84.208.371.314.79.306 1.216.008.425-.098.844-.306 1.215a2.22 2.22 0 01-.84.84 2.383 2.383 0 01-1.207.306h-.001zm0-.939a1.18 1.18 0 00.66-.191c.193-.128.351-.303.457-.51a1.46 1.46 0 00.159-.723 1.477 1.477 0 00-.159-.733 1.318 1.318 0 00-.457-.504 1.193 1.193 0 00-.66-.185 1.236 1.236 0 00-1.13.696 1.597 1.597 0 00-.163.728c-.005.25.051.5.163.724a1.3 1.3 0 00.462.508c.2.127.432.193.669.19h-.001zm3.423.853v-4.542h1.06v4.542h-1.06zm.517-5.506a.712.712 0 01-.495-.16.58.58 0 01-.177-.452.588.588 0 01.181-.448.683.683 0 01.491-.173.727.727 0 01.504.16.584.584 0 01.177.46.576.576 0 01-.181.44.695.695 0 01-.5.173zm3.837 5.592a2.158 2.158 0 01-1.15-.31 2.228 2.228 0 01-.799-.844 2.468 2.468 0 01-.293-1.207c-.007-.42.094-.836.293-1.207.187-.347.463-.639.799-.844.347-.21.745-.317 1.15-.31a2.6 2.6 0 011.11.231c.314.139.583.363.776.647l-.586.706a1.485 1.485 0 00-.327-.327 1.794 1.794 0 00-.423-.233 1.243 1.243 0 00-.448-.086 1.255 1.255 0 00-.677.185c-.199.125-.361.3-.469.509a1.526 1.526 0 00-.173.728c-.004.252.057.502.177.724.113.208.278.383.479.508.2.127.433.194.67.192.148 0 .296-.025.435-.073.144-.05.279-.122.401-.212a1.83 1.83 0 00.354-.344l.587.715a2.114 2.114 0 01-.806.615 2.544 2.544 0 01-1.08.237zm4.826 0c-.44.01-.874-.094-1.263-.301a2.203 2.203 0 01-.853-.823 2.312 2.312 0 01-.306-1.194 2.644 2.644 0 01.172-.976c.108-.283.271-.542.478-.763.206-.216.456-.387.733-.5a2.42 2.42 0 01.935-.173 2.04 2.04 0 01.836.172c.252.111.48.27.67.47.193.203.341.443.435.707.104.285.152.588.144.892l-.009.37h-3.68l-.198-.725h2.991l-.138.147v-.192a.941.941 0 00-.171-.468 1.042 1.042 0 00-.376-.32 1.093 1.093 0 00-.504-.115 1.42 1.42 0 00-.711.164 1.049 1.049 0 00-.436.47c-.105.24-.155.5-.146.762-.006.268.058.532.185.766.122.217.305.392.527.505.247.122.52.183.796.177.2.003.399-.032.586-.103a2.08 2.08 0 00.578-.37l.526.732a2.293 2.293 0 01-.531.364 3.142 3.142 0 01-.622.24c-.212.056-.43.085-.649.085h.001zm8.204 0a3.115 3.115 0 01-1.197-.224 2.699 2.699 0 01-.94-.642 2.955 2.955 0 01-.616-.991 3.462 3.462 0 01-.222-1.254 3.084 3.084 0 01.881-2.198 2.94 2.94 0 01.965-.655 3.055 3.055 0 012.051-.103c.268.083.523.203.758.358.22.143.416.322.577.53l-.714.784a2.85 2.85 0 00-.461-.392 1.953 1.953 0 00-.491-.24 1.694 1.694 0 00-.522-.082 1.903 1.903 0 00-.745.147 1.767 1.767 0 00-.604.414 1.96 1.96 0 00-.402.632c-.1.26-.149.536-.144.814a2.29 2.29 0 00.144.827c.088.238.225.456.402.638.178.18.393.32.63.41.257.097.53.146.805.143.187 0 .373-.027.552-.08a1.98 1.98 0 00.496-.219c.151-.094.292-.205.419-.33l.55.886a2.047 2.047 0 01-.55.422 3.254 3.254 0 01-.772.298 3.456 3.456 0 01-.85.107zm4.861 0a1.775 1.775 0 01-1.017-.31 2.245 2.245 0 01-.732-.844 2.6 2.6 0 01-.276-1.216 2.601 2.601 0 01.276-1.215c.17-.341.429-.63.75-.836.319-.202.69-.307 1.068-.302a1.9 1.9 0 01.629.1c.183.061.352.156.5.28.141.117.262.257.358.413a1.5 1.5 0 01.194.5l-.233-.06v-1.138h1.069v4.542h-1.077V71.99l.25-.043a1.363 1.363 0 01-.22.453 1.69 1.69 0 01-.397.388 2.158 2.158 0 01-.526.271c-.198.07-.406.105-.616.103zm.293-.939a1.19 1.19 0 00.655-.181c.192-.123.346-.298.444-.504a1.67 1.67 0 00.16-.746 1.614 1.614 0 00-.16-.732 1.192 1.192 0 00-1.099-.68 1.169 1.169 0 00-1.086.68c-.107.229-.16.48-.155.732a1.71 1.71 0 00.155.746c.095.205.246.38.436.504.194.123.42.186.65.181zm3.525.853v-4.542h1.035l.017.931-.198.103c.061-.213.176-.408.335-.564a1.93 1.93 0 01.595-.41 1.7 1.7 0 01.706-.155c.302-.01.602.061.867.207.238.145.423.363.526.623.128.33.188.68.177 1.034v2.773h-1.062v-2.697a1.502 1.502 0 00-.096-.575.65.65 0 00-.293-.335.938.938 0 00-.483-.1 1.194 1.194 0 00-.426.074.994.994 0 00-.559.513.857.857 0 00-.082.379v2.741h-1.059zm7.197.086a2.154 2.154 0 01-1.146-.31 2.226 2.226 0 01-.803-.844 2.475 2.475 0 01-.293-1.207 2.48 2.48 0 01.293-1.207c.188-.348.464-.64.802-.844a2.154 2.154 0 011.146-.31 2.6 2.6 0 011.112.232c.314.139.583.363.776.646l-.585.707a1.485 1.485 0 00-.328-.327 1.804 1.804 0 00-.422-.233 1.24 1.24 0 00-.448-.086 1.251 1.251 0 00-.677.185c-.199.125-.361.3-.47.509a1.524 1.524 0 00-.172.728c-.005.252.056.502.176.724.113.208.278.383.479.508.2.127.433.194.67.192.148 0 .296-.025.436-.073a1.52 1.52 0 00.4-.212 1.83 1.83 0 00.354-.344l.588.714a2.121 2.121 0 01-.806.615 2.547 2.547 0 01-1.082.237zm4.827 0a2.56 2.56 0 01-1.263-.301 2.197 2.197 0 01-.853-.823 2.312 2.312 0 01-.306-1.194 2.654 2.654 0 01.172-.974c.109-.283.271-.542.479-.763.206-.216.456-.387.733-.5.296-.12.614-.18.934-.175a2.02 2.02 0 01.836.172 2.03 2.03 0 011.106 1.177c.103.285.152.588.144.892l-.009.37h-3.68l-.198-.725h2.991l-.138.147v-.192a.94.94 0 00-.173-.47 1.03 1.03 0 00-.375-.318 1.094 1.094 0 00-.504-.117 1.424 1.424 0 00-.711.164c-.19.107-.343.271-.435.47-.105.24-.155.5-.147.762a1.53 1.53 0 00.186.767c.122.216.305.392.526.504.248.122.522.183.798.176.2.003.399-.032.586-.103a2.06 2.06 0 00.577-.37l.527.732c-.159.147-.338.27-.532.367a3.15 3.15 0 01-.625.24 2.533 2.533 0 01-.646.085zm2.93-.086v-6.378h1.068v6.378h-1.068zm2.327 0v-6.378h1.069v6.378h-1.069zm3.948.086a1.77 1.77 0 01-1.017-.31 2.239 2.239 0 01-.733-.844 2.613 2.613 0 01-.276-1.216 2.614 2.614 0 01.276-1.215c.17-.341.429-.63.75-.836a1.949 1.949 0 011.069-.302 1.9 1.9 0 01.629.1c.182.061.352.156.5.28.141.117.261.257.357.413.094.154.159.323.192.5l-.233-.06v-1.138h1.069v4.542h-1.078V71.99l.25-.043a1.342 1.342 0 01-.219.453 1.69 1.69 0 01-.397.388 2.146 2.146 0 01-.527.271c-.196.07-.404.104-.612.103zm.293-.939c.231.004.458-.058.655-.181a1.23 1.23 0 00.444-.504 1.67 1.67 0 00.159-.746 1.627 1.627 0 00-.159-.732 1.233 1.233 0 00-.444-.5 1.196 1.196 0 00-.655-.181 1.172 1.172 0 00-.651.18c-.189.124-.34.297-.435.5-.107.23-.16.48-.155.733-.006.257.047.512.155.746.095.205.245.38.435.504.194.123.421.186.651.181zm4.016.853v-5.698h1.06v5.698h-1.06zm-.897-3.56v-.982h2.947v.983h-2.947zm3.878 3.56v-4.542h1.06v4.542h-1.06zm.517-5.506a.712.712 0 01-.495-.16.574.574 0 01-.177-.453.588.588 0 01.181-.448.683.683 0 01.491-.172.727.727 0 01.504.16.577.577 0 01.177.461.576.576 0 01-.181.44.695.695 0 01-.499.172h-.001zm3.966 5.592a2.401 2.401 0 01-1.215-.305c-.352-.2-.644-.49-.845-.84-.21-.37-.318-.79-.31-1.216a2.37 2.37 0 01.31-1.215c.201-.351.493-.641.845-.84.371-.208.79-.314 1.215-.307.422-.006.839.1 1.207.306.351.2.641.49.84.84.208.371.313.79.306 1.216.007.425-.098.844-.306 1.215a2.228 2.228 0 01-.84.84 2.386 2.386 0 01-1.207.306zm0-.939c.234.003.463-.063.659-.191.194-.128.351-.303.457-.51a1.45 1.45 0 00.16-.723 1.488 1.488 0 00-.16-.733 1.31 1.31 0 00-.457-.504 1.192 1.192 0 00-.659-.185 1.234 1.234 0 00-1.131.696 1.585 1.585 0 00-.164.728c-.004.25.052.5.164.724.105.208.264.383.461.508.2.127.433.193.67.19zm3.301.853v-4.542h1.034l.017.931-.198.103c.061-.213.177-.408.335-.564.171-.173.373-.311.595-.41.222-.101.463-.154.707-.155.302-.01.601.061.866.207.239.145.424.363.527.623.127.33.187.68.176 1.034v2.773h-1.06v-2.697a1.483 1.483 0 00-.096-.575.65.65 0 00-.293-.335.934.934 0 00-.482-.099 1.198 1.198 0 00-.427.073 1.004 1.004 0 00-.559.513.872.872 0 00-.082.38v2.74h-1.06zm7.903 0v-4.542h1.06v4.542h-1.06zm.517-5.506a.712.712 0 01-.495-.16.574.574 0 01-.177-.453.596.596 0 01.181-.447.683.683 0 01.491-.173.728.728 0 01.505.16.597.597 0 01.176.46.576.576 0 01-.181.44.695.695 0 01-.5.173zm3.405 5.592a2.752 2.752 0 01-1.082-.202 1.949 1.949 0 01-.78-.582l.688-.595c.157.184.354.33.577.423.213.086.441.13.671.129a.929.929 0 00.263-.034.59.59 0 00.202-.104.445.445 0 00.182-.362.398.398 0 00-.156-.327 1.277 1.277 0 00-.271-.13 4.16 4.16 0 00-.479-.138 3.803 3.803 0 01-.776-.28 1.598 1.598 0 01-.482-.357 1.1 1.1 0 01-.22-.371 1.315 1.315 0 01-.073-.448 1.12 1.12 0 01.133-.547c.091-.167.216-.312.367-.427a1.66 1.66 0 01.543-.276c.209-.064.427-.096.646-.096a2.582 2.582 0 011.271.332c.18.1.342.23.479.383l-.586.647a2.218 2.218 0 00-.75-.468 1.073 1.073 0 00-.37-.073 1.29 1.29 0 00-.293.03.617.617 0 00-.216.09.426.426 0 00-.134.152.453.453 0 00-.047.21.489.489 0 00.056.195c.031.06.077.112.133.15.091.054.186.1.285.138.159.062.324.111.491.147.243.06.479.144.707.25.168.076.32.185.448.319.106.1.186.224.233.362.047.147.07.302.068.456.004.26-.076.514-.228.724-.158.217-.37.39-.615.499-.278.124-.58.186-.885.181zm7.99 0a3.047 3.047 0 01-1.197-.232 2.907 2.907 0 01-1.595-1.638 3.374 3.374 0 01-.224-1.241 3.374 3.374 0 01.224-1.241 2.915 2.915 0 011.595-1.638 3.047 3.047 0 011.197-.232c.413-.005.824.074 1.206.232.361.15.687.373.958.655.272.285.485.62.628.988.153.394.229.814.224 1.237.004.42-.072.839-.224 1.232a2.995 2.995 0 01-.629.991 2.843 2.843 0 01-.958.655 3.07 3.07 0 01-1.205.232zm0-1.068a1.84 1.84 0 00.754-.151c.225-.1.427-.247.59-.431a2.1 2.1 0 00.392-.65c.098-.26.146-.534.144-.811a2.241 2.241 0 00-.144-.81 2.1 2.1 0 00-.392-.65 1.711 1.711 0 00-.59-.432 1.84 1.84 0 00-.754-.15 1.849 1.849 0 00-.75.15 1.729 1.729 0 00-.595.427 1.994 1.994 0 00-.388.646c-.094.263-.141.54-.138.819-.002.277.044.553.138.814.086.24.218.461.388.65.166.184.368.33.595.427.236.102.492.154.75.152zm4.231.982v-6.033h1.009l3.499 4.715-.191.034a11.55 11.55 0 01-.061-.495 15.915 15.915 0 01-.082-1.108 31.058 31.058 0 01-.03-1.336v-1.81h1.112v6.033h-1.026l-3.514-4.644.224-.06.073.822c.02.227.036.423.048.587l.03.409a7.609 7.609 0 01.022.552v2.334h-1.113z" fill="#fff"/><path fill-rule="evenodd" clip-rule="evenodd" d="M295.403 70.061a1.641 1.641 0 01-1.212-.474 1.458 1.458 0 01-.161-.191l-1.768-2.514-.689.802a1.472 1.472 0 01-.454.354c-.236.12-.497.182-.761.183a1.58 1.58 0 01-1.537-1.19l-2.447-10.143a1.467 1.467 0 01-.041-.343 1.603 1.603 0 011.591-1.607 1.576 1.576 0 01.859.258l8.642 5.76a1.545 1.545 0 01.732 1.32 1.635 1.635 0 01-1.039 1.508l-.971.367 1.713 2.5a1.542 1.542 0 01-.311 2.199l-1.288.934c-.25.18-.55.278-.858.277z" fill="#fff"/><path d="M287.926 56.399c.016 0 .033.004.048.012l8.677 5.783c.089.045.044.178-.045.222l-2.713 1.024 2.802 4.093a.08.08 0 01.025.029.08.08 0 010 .075.08.08 0 01-.025.03l-1.29.933c-.089 0-.133 0-.177-.044l-2.847-4.048-1.916 2.224a.245.245 0 01-.107.03.125.125 0 01-.069-.02.127.127 0 01-.046-.055l-2.447-10.143a.145.145 0 01.13-.143m0-2.921a3.064 3.064 0 00-3.052 3.068c0 .231.027.461.082.685l2.446 10.143a3.041 3.041 0 002.957 2.312 3.176 3.176 0 001.723-.517l.753 1.07a3.095 3.095 0 002.569 1.284 2.92 2.92 0 001.714-.555l1.29-.935a3.003 3.003 0 00.636-4.243l-.701-1.022a3.107 3.107 0 001.277-2.496 2.992 2.992 0 00-1.406-2.55l-8.619-5.745a3.045 3.045 0 00-1.669-.503v.004z" fill="#fff"/><path fill-rule="evenodd" clip-rule="evenodd" d="M295.403 69.477a1.058 1.058 0 01-.798-.303.92.92 0 01-.096-.115l-2.199-3.127-1.18 1.37a.88.88 0 01-.273.212 1.11 1.11 0 01-.499.121 1.005 1.005 0 01-.9-.557.947.947 0 01-.068-.188l-2.446-10.142a1.013 1.013 0 01.981-1.227.994.994 0 01.536.158l8.651 5.768a.959.959 0 01.462.825 1.05 1.05 0 01-.66.962l-1.668.629 2.146 3.134a.963.963 0 01-.184 1.376l-1.29.934a.88.88 0 01-.515.17z" fill="#fff"/><path d="M287.926 56.398c.016 0 .033.004.048.012l8.675 5.782c.089.044.044.178-.045.222l-2.713 1.023 2.802 4.093a.08.08 0 01.025.03.081.081 0 010 .074.08.08 0 01-.025.03l-1.289.934c-.09 0-.134 0-.179-.045l-2.847-4.048-1.915 2.225a.249.249 0 01-.107.029.123.123 0 01-.115-.074l-2.447-10.143a.144.144 0 01.13-.144m0-1.753a1.891 1.891 0 00-1.836 2.31l2.447 10.143a1.87 1.87 0 001.82 1.416c.31 0 .615-.074.891-.214.209-.104.394-.249.546-.425l.444-.517 1.551 2.206a1.857 1.857 0 00.846.657c.244.096.505.141.767.133.37 0 .73-.118 1.029-.335l1.29-.935a1.822 1.822 0 00.373-2.61l-1.495-2.184.622-.234a1.937 1.937 0 001.228-1.783 1.83 1.83 0 00-.867-1.564l-8.633-5.757a1.87 1.87 0 00-1.021-.306l-.002-.001z" fill="#131032"/><path d="M175.307 82.97a2.909 2.909 0 11.001 5.818 2.909 2.909 0 01-.001-5.818zm50.958 4.89h-41.171a1.914 1.914 0 110-3.83h41.171a1.918 1.918 0 011.916 1.916 1.916 1.916 0 01-1.916 1.915z" fill="#E4E7EA"/></g></g><defs><clipPath id="clip0_1328_6590"><path fill="#fff" transform="translate(.5)" d="M0 0h407v240H0z"/></clipPath></defs></svg>