<svg width="299" height="223" fill="none" xmlns="http://www.w3.org/2000/svg"><path d="M296.982 9.317a8 8 0 00-8-8H9.17a8 8 0 00-8 8v204.24a8 8 0 008 8h279.812a8 8 0 008-8V9.317z" fill="#fff"/><path d="M293.842.616H4.312A3.696 3.696 0 00.614 4.312v214.376a3.696 3.696 0 003.696 3.696h289.531a3.695 3.695 0 003.695-3.696V4.312a3.695 3.695 0 00-3.695-3.696z" fill="#fff"/><path d="M4.312 0h289.531a4.315 4.315 0 014.311 4.312v214.376a4.31 4.31 0 01-1.264 3.047 4.308 4.308 0 01-3.047 1.265H4.313A4.315 4.315 0 010 218.688V4.312A4.317 4.317 0 014.311 0zm289.531 221.767a3.08 3.08 0 003.08-3.079V4.312a3.086 3.086 0 00-3.08-3.08H4.313a3.084 3.084 0 00-3.081 3.08v214.376a3.08 3.08 0 003.08 3.079h289.531z" fill="#C3C8CD"/><path d="M22.485 18.028a.78.78 0 00-1.56 0v9.36a.776.776 0 001.08.72.78.78 0 00.48-.72v-9.36zm-3.12 1.562a.78.78 0 01.78.78v4.681a.779.779 0 01-1.332.552.779.779 0 01-.229-.552V20.37a.778.778 0 01.78-.78zm-2.343.774a.78.78 0 01.78.78v3.12a.78.78 0 01-1.56 0v-3.12a.783.783 0 01.78-.78zm7.026-.774a.777.777 0 01.72.481.77.77 0 01.061.298v4.682a.779.779 0 01-1.331.552.779.779 0 01-.23-.552V20.37a.778.778 0 01.78-.78zm3.125-.625a.78.78 0 00-1.56 0v7.8a.779.779 0 001.33.552.78.78 0 00.23-.552v-7.8zm1.56.625a.781.781 0 01.78.78v4.681a.783.783 0 01-.78.78.781.781 0 01-.78-.78V20.37a.781.781 0 01.78-.78zm3.12 2.333a.781.781 0 00-1.56 0v1.56a.78.78 0 001.56 0v-1.56z" fill="#614EFA"/><path d="M39.818 26.489v-7.762h1.486l4.29 5.8h-.307c-.03-.23-.055-.454-.077-.672a25.836 25.836 0 01-.107-1.364l-.03-.765c-.006-.27-.01-.563-.01-.881v-2.118h1.632v7.762h-1.51l-4.38-5.852.422.01.094.982.067.704a14.61 14.61 0 01.06 1.363v2.793h-1.63zm12.342.11a4.097 4.097 0 01-1.585-.299 3.848 3.848 0 01-1.258-.837 3.656 3.656 0 01-.826-1.275 4.367 4.367 0 01-.288-1.602 4.345 4.345 0 01.288-1.608c.184-.476.466-.908.826-1.27a3.85 3.85 0 011.258-.837 4.071 4.071 0 011.575-.3 4.05 4.05 0 011.58.3 3.787 3.787 0 012.077 2.117 4.29 4.29 0 01.289 1.596 4.29 4.29 0 01-.289 1.597 3.733 3.733 0 01-.826 1.275 3.823 3.823 0 01-1.253.844 4.018 4.018 0 01-1.568.3zm-.011-1.574c.312.004.622-.06.91-.185.268-.118.51-.29.708-.507.204-.225.364-.487.472-.771.117-.312.175-.643.171-.976a2.686 2.686 0 00-.17-.976 2.432 2.432 0 00-.473-.77 2.123 2.123 0 00-.709-.512 2.211 2.211 0 00-.91-.184 2.178 2.178 0 00-.895.184 2.236 2.236 0 00-1.193 1.281c-.11.314-.166.644-.163.977-.002.332.052.662.16.976a2.234 2.234 0 001.193 1.281c.283.123.59.186.898.182zm5.089 1.464v-1.43h1.298v-4.902h-1.298v-1.43h4.258v1.43h-1.298v4.901h1.298v1.43h-4.258zm8.594.11a4.578 4.578 0 01-1.315-.177 3.335 3.335 0 01-1.052-.521 4.124 4.124 0 01-.827-.83l1.043-1.188c.274.422.645.773 1.08 1.026.364.182.765.275 1.171.271.21.004.418-.03.617-.1a1.04 1.04 0 00.425-.271.593.593 0 00.156-.416.705.705 0 00-.077-.327.835.835 0 00-.223-.266 1.698 1.698 0 00-.343-.21 3.068 3.068 0 00-.444-.167 4.036 4.036 0 00-.531-.117 6.162 6.162 0 01-1.087-.349 2.576 2.576 0 01-.776-.51 1.943 1.943 0 01-.46-.693 2.42 2.42 0 01-.15-.876 1.972 1.972 0 01.221-.924c.15-.288.36-.54.617-.74a2.88 2.88 0 01.91-.476 3.532 3.532 0 011.091-.166 4.46 4.46 0 011.242.155c.334.094.647.25.924.46.263.204.486.455.66.74l-1.054 1.018a2.72 2.72 0 00-.503-.522 1.984 1.984 0 00-1.237-.421 1.903 1.903 0 00-.632.094.923.923 0 00-.416.277.653.653 0 00-.15.427.64.64 0 00.1.355.9.9 0 00.288.272c.144.085.296.154.456.205.191.063.388.115.587.155.375.072.743.18 1.098.322.3.119.583.281.837.482.225.18.41.407.538.665.127.268.193.563.188.86.014.475-.117.943-.377 1.342-.26.375-.621.669-1.043.846a3.805 3.805 0 01-1.552.296zm4.48-.11v-7.762h5.244v1.463h-3.614v4.835h3.692v1.464h-5.322zm.777-3.25v-1.416h3.937v1.417h-3.937zM84.16 26.6a4.09 4.09 0 01-1.57-.295 3.665 3.665 0 01-2.056-2.107 4.427 4.427 0 01-.289-1.613 4.092 4.092 0 01.3-1.578 3.803 3.803 0 012.118-2.101 4.148 4.148 0 011.586-.3c.37 0 .736.05 1.092.15.349.096.68.244.986.438.292.186.552.418.77.688l-1.04 1.152a3.29 3.29 0 00-.543-.46 2.474 2.474 0 00-.605-.3 2.103 2.103 0 00-.67-.105 2.255 2.255 0 00-1.619.67c-.213.22-.38.48-.492.766-.127.315-.19.652-.186.992-.005.343.056.683.178 1.004.11.287.28.548.499.765.22.214.483.38.77.488a2.75 2.75 0 001.682.072c.218-.064.425-.157.616-.277a2.59 2.59 0 00.505-.41l.82 1.297a2.77 2.77 0 01-.725.543 4.604 4.604 0 01-2.127.521zm3.304-.11l3.05-7.762H92l3.027 7.762H93.32l-1.563-4.18a28.358 28.358 0 01-.355-1.042c-.067-.206-.13-.404-.19-.594a7.444 7.444 0 01-.132-.471h.299c-.044.164-.094.336-.15.515l-.17.555c-.06.188-.123.371-.19.549-.067.177-.13.35-.189.52l-1.563 4.148h-1.652zm1.417-1.63l.544-1.33h3.558l.555 1.33h-4.657zm7.233 1.63v-7.762H97.6l4.29 5.8h-.308a32.413 32.413 0 01-.139-1.337 20.545 20.545 0 01-.045-.699 38.694 38.694 0 01-.038-1.646v-2.118h1.63v7.762h-1.508l-4.38-5.852.421.01.094.982.067.704a13.998 13.998 0 01.06 1.364v2.792h-1.63zm12.296.11a4.087 4.087 0 01-1.569-.295 3.682 3.682 0 01-2.056-2.107 4.36 4.36 0 01-.288-1.613 4.073 4.073 0 01.298-1.58 3.801 3.801 0 012.118-2.102 4.15 4.15 0 011.586-.299c.369 0 .737.05 1.092.15.349.096.681.243.986.438.292.186.553.418.77.687l-1.042 1.153a3.32 3.32 0 00-.543-.46 2.528 2.528 0 00-.604-.3 2.117 2.117 0 00-.672-.104 2.246 2.246 0 00-2.111 1.435 2.595 2.595 0 00-.185.992c-.004.343.055.683.177 1.004.111.287.281.548.499.765.22.214.483.38.771.488.318.118.654.176.992.172.233 0 .464-.034.688-.1a2.54 2.54 0 001.121-.688l.821 1.298c-.211.22-.457.402-.727.543-.317.17-.654.298-1.004.383a4.6 4.6 0 01-1.118.14zm4.235-.11v-7.762h5.246v1.463h-3.616v4.835h3.692v1.464h-5.322zm.777-3.25v-1.416h3.936v1.417h-3.936zm6.265 3.25v-7.762h1.663v6.265h3.516v1.497h-5.179zm6.719 0v-7.762h1.664v6.265h3.514v1.497h-5.178zm5.791 0l3.049-7.762h1.486l3.025 7.762h-1.708l-1.563-4.18c-.045-.119-.098-.27-.161-.455a41.607 41.607 0 01-.382-1.181 8.056 8.056 0 01-.134-.471h.3c-.045.164-.094.336-.15.515l-.171.555c-.06.188-.123.371-.19.549-.065.177-.128.35-.187.52l-1.564 4.148h-1.65zm1.418-1.63l.543-1.33h3.559l.554 1.33h-4.656zm8.293 1.63v-6.265h-2.262v-1.497h6.254v1.497h-2.329v6.265h-1.663zm5.168 0v-1.43h1.296v-4.902h-1.296v-1.43h4.257v1.43h-1.297v4.901h1.297v1.43h-4.257zm9.358.11a4.086 4.086 0 01-1.585-.299 3.861 3.861 0 01-1.26-.837 3.697 3.697 0 01-.826-1.275 4.381 4.381 0 01-.288-1.602 4.371 4.371 0 01.288-1.608 3.71 3.71 0 01.826-1.27 3.86 3.86 0 011.26-.836 4.06 4.06 0 011.575-.3 4.047 4.047 0 011.579.3 3.746 3.746 0 012.079 2.116c.196.509.294 1.05.289 1.596a4.335 4.335 0 01-.289 1.597 3.748 3.748 0 01-.826 1.275 3.81 3.81 0 01-1.253.843 4.02 4.02 0 01-1.569.3zm-.01-1.574c.312.004.621-.06.908-.185.27-.119.511-.292.71-.51.203-.225.364-.486.471-.77.117-.312.176-.643.172-.976a2.686 2.686 0 00-.172-.976 2.434 2.434 0 00-.471-.77 2.12 2.12 0 00-.711-.51 2.204 2.204 0 00-.909-.184 2.184 2.184 0 00-1.619.695 2.16 2.16 0 00-.471.77 2.819 2.819 0 00-.161.976c-.004.332.05.662.161.976.101.287.263.55.473.772a2.183 2.183 0 001.619.692zm5.454 1.464v-7.762h1.486l4.291 5.8h-.307a26.319 26.319 0 01-.184-2.035c-.011-.24-.021-.496-.027-.766-.008-.27-.012-.563-.012-.881v-2.118h1.63v7.762h-1.508l-4.38-5.852.421.01.094.982c.026.27.049.504.067.704a14.774 14.774 0 01.061 1.364v2.792h-1.632z" fill="#131032"/><path d="M282.138 169.07H16.016a3.696 3.696 0 00-3.696 3.696v31.417a3.696 3.696 0 003.696 3.697h266.122a3.696 3.696 0 003.696-3.697v-31.417a3.696 3.696 0 00-3.696-3.696z" fill="#F2F3F4"/><path d="M16.016 170.303a2.46 2.46 0 00-2.464 2.463v31.417a2.46 2.46 0 002.464 2.464h266.122a2.463 2.463 0 002.464-2.464v-31.417a2.465 2.465 0 00-2.464-2.463H16.016zm0-1.233h266.122a3.694 3.694 0 013.696 3.696v31.417c0 .981-.389 1.921-1.083 2.613a3.691 3.691 0 01-2.613 1.084H16.016a3.694 3.694 0 01-3.696-3.697v-31.417a3.693 3.693 0 013.696-3.696z" fill="#D0D5DA"/><path d="M282.138 86.551H16.016a3.696 3.696 0 00-3.696 3.697v31.417a3.697 3.697 0 003.696 3.696h266.122a3.696 3.696 0 003.696-3.696V90.247a3.695 3.695 0 00-3.696-3.696z" fill="#F2F3F4"/><path d="M16.016 87.782a2.465 2.465 0 00-2.464 2.466v31.417a2.464 2.464 0 002.464 2.463h266.122a2.466 2.466 0 002.464-2.463V90.247a2.466 2.466 0 00-2.464-2.465H16.016zm0-1.23h266.122a3.692 3.692 0 013.696 3.695v31.418a3.694 3.694 0 01-3.696 3.696H16.016a3.697 3.697 0 01-3.696-3.696V90.247a3.698 3.698 0 013.696-3.696z" fill="#D0D5DA"/><path d="M13.104 72.484v-10.78h2.11l3.927 6.391-1.385-.015 3.973-6.376h2.017v10.78h-2.263v-3.696c0-.924.023-1.755.068-2.495.046-.739.126-1.473.24-2.202l.276.724-3.156 4.897h-1.018L14.8 64.846l.261-.755c.113.688.193 1.394.239 2.117.046.724.069 1.584.069 2.58v3.696h-2.264zm13.322 0v-8.147h2.187v8.147h-2.187zm1.078-9.81a1.43 1.43 0 01-.986-.315 1.12 1.12 0 01-.353-.885c-.005-.16.024-.32.086-.468a1.12 1.12 0 01.275-.388c.272-.231.622-.35.978-.331.356-.021.709.091.985.316a1.107 1.107 0 01.355.87 1.139 1.139 0 01-.361.862 1.38 1.38 0 01-.98.34zm6.992 9.964a3.99 3.99 0 01-2.094-.554 3.993 3.993 0 01-1.455-1.51 4.381 4.381 0 01-.532-2.17 4.38 4.38 0 01.532-2.172 3.991 3.991 0 011.455-1.51 3.991 3.991 0 012.094-.554 4.908 4.908 0 012.002.4 3.367 3.367 0 011.416 1.11l-1.2 1.447a2.57 2.57 0 00-.539-.532 2.823 2.823 0 00-.701-.377 2.243 2.243 0 00-.778-.138 2.078 2.078 0 00-1.117.3c-.323.2-.587.486-.762.824-.19.371-.285.784-.276 1.201-.007.408.091.81.284 1.17.183.341.45.628.777.832.333.207.718.314 1.109.308.256.002.51-.034.755-.108a2.24 2.24 0 00.67-.338c.217-.16.41-.346.578-.555L37.9 71.16a3.582 3.582 0 01-1.44 1.07 4.84 4.84 0 01-1.964.408zm4.805-.154v-8.147h2.11l.076 2.618-.369-.539a3.31 3.31 0 01.6-1.147c.267-.335.6-.61.979-.808a2.519 2.519 0 011.178-.293 2.799 2.799 0 01.924.154l-.586 2.403a1.94 1.94 0 00-.438-.163 2.192 2.192 0 00-.547-.069 1.77 1.77 0 00-.686.131c-.206.084-.39.21-.547.37a1.748 1.748 0 00-.361.562 1.88 1.88 0 00-.131.709v4.22H39.3zm10.195.154a4.482 4.482 0 01-2.224-.547 4.04 4.04 0 01-1.54-1.5 4.23 4.23 0 01-.563-2.188 4.23 4.23 0 01.563-2.187c.367-.63.9-1.15 1.54-1.501a4.48 4.48 0 012.224-.547 4.451 4.451 0 012.21.546 3.99 3.99 0 011.532 1.502 4.28 4.28 0 01.555 2.187 4.28 4.28 0 01-.555 2.187 3.99 3.99 0 01-1.532 1.501 4.45 4.45 0 01-2.21.547zm0-1.91c.38.006.755-.098 1.078-.3.32-.203.579-.49.746-.832.184-.37.272-.78.255-1.193a2.49 2.49 0 00-.255-1.21 2.06 2.06 0 00-.746-.83 1.982 1.982 0 00-1.078-.3 1.97 1.97 0 00-1.094.307 2.192 2.192 0 00-.754.832c-.19.37-.28.785-.262 1.201-.017.414.073.825.262 1.194.171.34.433.627.754.832a2.01 2.01 0 001.094.3zm5.96 5.144V64.337h2.11l.062 1.833-.401-.139a1.82 1.82 0 01.531-.908 3.284 3.284 0 011.055-.678 3.44 3.44 0 011.325-.262c.672-.01 1.332.18 1.894.547a3.783 3.783 0 011.31 1.494c.328.678.492 1.425.477 2.18a4.802 4.802 0 01-.477 2.17 3.775 3.775 0 01-1.31 1.502 3.368 3.368 0 01-1.894.547 3.43 3.43 0 01-1.347-.27 3.261 3.261 0 01-1.078-.716 2.055 2.055 0 01-.562-.955l.508-.216v5.406h-2.203zm4.19-5.128c.374.007.743-.094 1.062-.293a1.98 1.98 0 00.723-.824c.181-.382.272-.802.263-1.224a2.686 2.686 0 00-.263-1.217 2.017 2.017 0 00-.715-.816c-.32-.2-.694-.302-1.07-.292-.38-.009-.753.09-1.079.285-.315.197-.566.48-.724.815-.18.383-.27.802-.261 1.225a2.74 2.74 0 00.26 1.224c.16.337.411.623.725.824.323.2.697.301 1.078.293zm5.82 1.74V61.088h2.157V66l-.432.184c.12-.38.328-.726.608-1.008.303-.31.66-.558 1.057-.732a3.116 3.116 0 011.293-.277 2.993 2.993 0 011.547.37c.427.259.758.651.94 1.116a4.73 4.73 0 01.315 1.84v4.99h-2.186v-4.82a2.433 2.433 0 00-.155-.924 1.04 1.04 0 00-.47-.54 1.523 1.523 0 00-.778-.153 1.978 1.978 0 00-.684.116 1.504 1.504 0 00-.539.331 1.67 1.67 0 00-.355.493 1.404 1.404 0 00-.131.6v4.897h-2.186zm13.368.154a4.48 4.48 0 01-2.226-.547 4.04 4.04 0 01-1.54-1.5 4.23 4.23 0 01-.562-2.188 4.23 4.23 0 01.562-2.187c.368-.63.9-1.15 1.54-1.501a4.481 4.481 0 012.226-.547 4.451 4.451 0 012.21.546 3.99 3.99 0 011.532 1.502c.377.666.57 1.422.555 2.187a4.282 4.282 0 01-.555 2.187 3.99 3.99 0 01-1.532 1.502 4.45 4.45 0 01-2.21.546zm0-1.91c.38.006.755-.098 1.078-.3.32-.203.579-.49.746-.832.184-.37.272-.78.255-1.193a2.49 2.49 0 00-.255-1.21 2.06 2.06 0 00-.746-.83 1.983 1.983 0 00-1.078-.301 1.97 1.97 0 00-1.094.308 2.19 2.19 0 00-.753.831c-.19.371-.281.785-.263 1.202-.017.413.073.825.263 1.193.17.34.432.628.753.832a2.01 2.01 0 001.094.3zm5.96 1.756v-8.147h2.095l.062 1.664-.433.184c.12-.38.329-.726.61-1.008.301-.31.659-.558 1.055-.732a3.12 3.12 0 011.293-.277 2.993 2.993 0 011.548.37c.427.259.758.651.939 1.116.227.587.333 1.212.315 1.84v4.99h-2.186v-4.82a2.433 2.433 0 00-.154-.924 1.039 1.039 0 00-.47-.54 1.523 1.523 0 00-.778-.153 1.978 1.978 0 00-.684.116c-.201.07-.385.184-.54.331a1.664 1.664 0 00-.353.493 1.365 1.365 0 00-.131.6v4.897h-2.188zm13.445.154a4.782 4.782 0 01-2.317-.539 3.88 3.88 0 01-1.54-1.478 4.204 4.204 0 01-.548-2.156 4.755 4.755 0 01.308-1.74 4.14 4.14 0 01.862-1.364c.372-.386.821-.69 1.316-.893a4.287 4.287 0 011.658-.316c.528-.005 1.052.1 1.54.308a3.69 3.69 0 012.017 2.148 4.18 4.18 0 01.246 1.61l-.016.677h-6.544l-.356-1.339h5.099l-.247.277v-.338a1.427 1.427 0 00-.269-.748c-.158-.22-.367-.4-.608-.523a1.773 1.773 0 00-.833-.193 2.329 2.329 0 00-1.147.262 1.712 1.712 0 00-.716.77 2.803 2.803 0 00-.247 1.232c-.011.447.098.889.316 1.279.21.36.52.65.892.84.425.208.892.311 1.364.3.336.004.67-.054.986-.17.348-.143.67-.34.955-.585l1.048 1.463a4.481 4.481 0 01-.986.67 5.266 5.266 0 01-1.109.408 4.732 4.732 0 01-1.124.138z" fill="#131032"/><path fill-rule="evenodd" clip-rule="evenodd" d="M245.31 57.083a10.758 10.758 0 100 21.504h29.531a10.763 10.763 0 007.816-3.032 10.746 10.746 0 003.266-7.72 10.742 10.742 0 00-3.266-7.72 10.752 10.752 0 00-7.816-3.032H245.31z" fill="#23D6BA"/><path d="M275.168 60.667a7.164 7.164 0 016.621 4.425 7.164 7.164 0 01-9.364 9.365 7.173 7.173 0 01-4.426-6.622 7.165 7.165 0 017.169-7.168zm-29.739 11.325a4.541 4.541 0 01-1.761-.333 4.278 4.278 0 01-1.399-.93 4.09 4.09 0 01-.918-1.417 4.836 4.836 0 01-.32-1.78 4.825 4.825 0 01.32-1.787 4.09 4.09 0 01.918-1.41 4.26 4.26 0 011.399-.93 4.513 4.513 0 011.75-.333c.6-.008 1.197.105 1.754.332a4.217 4.217 0 012.311 2.353c.217.566.327 1.168.32 1.775a4.802 4.802 0 01-.32 1.774 4.219 4.219 0 01-2.311 2.353 4.467 4.467 0 01-1.743.333zm-.011-1.75a2.376 2.376 0 001.798-.77c.227-.25.404-.54.524-.856.13-.347.194-.714.19-1.084a3 3 0 00-.19-1.085 2.7 2.7 0 00-.524-.856 2.371 2.371 0 00-1.798-.77 2.424 2.424 0 00-1.8.77 2.433 2.433 0 00-.524.856 3.176 3.176 0 00-.179 1.085c-.004.369.057.736.179 1.084.113.319.292.61.524.856a2.424 2.424 0 001.8.77zm6.06 1.626v-8.624h1.651l4.768 6.444h-.345a28.81 28.81 0 01-.203-2.261 36.9 36.9 0 01-.043-1.83v-2.353h1.812v8.624h-1.676l-4.867-6.505.468.013.105 1.09.074.782a16.653 16.653 0 01.068 1.516v3.104h-1.812z" fill="#fff"/><path d="M16.602 155.055a6.332 6.332 0 01-1.825-.247 4.633 4.633 0 01-1.462-.723 5.715 5.715 0 01-1.148-1.155l1.448-1.648a4.466 4.466 0 001.502 1.424c.503.253 1.06.382 1.624.377.29.005.58-.043.855-.139a1.45 1.45 0 00.592-.377.824.824 0 00.216-.578.976.976 0 00-.108-.454 1.16 1.16 0 00-.307-.369 2.311 2.311 0 00-.478-.292 4.14 4.14 0 00-.616-.232 5.523 5.523 0 00-.74-.16 8.67 8.67 0 01-1.509-.486 3.588 3.588 0 01-1.078-.708c-.28-.272-.498-.6-.639-.963a3.355 3.355 0 01-.207-1.217 2.737 2.737 0 01.308-1.285c.208-.399.5-.749.854-1.025a3.984 3.984 0 011.263-.662 4.877 4.877 0 011.517-.231 6.201 6.201 0 011.725.216c.466.13.902.346 1.286.639.364.283.676.629.916 1.023l-1.463 1.418a3.75 3.75 0 00-.7-.724 2.727 2.727 0 00-.816-.439 2.851 2.851 0 00-.902-.147 2.668 2.668 0 00-.878.131 1.283 1.283 0 00-.577.386.905.905 0 00-.208.592.89.89 0 00.138.493c.104.154.24.284.4.378.2.118.412.214.632.284.268.088.54.16.817.217a8.264 8.264 0 011.525.446c.418.165.809.391 1.161.669.314.25.569.565.748.924.179.373.269.781.262 1.194.02.66-.163 1.311-.523 1.864a3.344 3.344 0 01-1.449 1.178 5.294 5.294 0 01-2.156.408zm5.914 3.234v-11.535h2.11l.062 1.832-.4-.139c.083-.348.267-.663.53-.908a3.274 3.274 0 011.056-.678c.42-.173.87-.262 1.324-.261a3.372 3.372 0 011.895.547 3.788 3.788 0 011.308 1.493c.33.678.493 1.425.477 2.179a4.778 4.778 0 01-.477 2.173 3.774 3.774 0 01-1.308 1.501 3.38 3.38 0 01-1.895.547 3.443 3.443 0 01-1.347-.27 3.268 3.268 0 01-1.078-.717 2.053 2.053 0 01-.563-.955l.508-.216v5.407h-2.202zm4.189-5.129c.376.008.745-.094 1.063-.292.313-.202.564-.488.724-.825.18-.382.27-.801.261-1.224.01-.42-.08-.837-.261-1.216a2.023 2.023 0 00-.717-.816 1.925 1.925 0 00-1.07-.293 2.025 2.025 0 00-1.078.285 1.93 1.93 0 00-.723.816 2.726 2.726 0 00-.263 1.225 2.72 2.72 0 00.263 1.225c.158.337.409.621.723.823a1.97 1.97 0 001.078.292zm9.688 1.895a4.79 4.79 0 01-2.319-.539 3.892 3.892 0 01-1.54-1.478 4.209 4.209 0 01-.547-2.156 4.732 4.732 0 01.308-1.741c.195-.507.489-.97.863-1.364a3.868 3.868 0 011.318-.893 4.306 4.306 0 011.655-.316c.53-.004 1.054.1 1.54.309a3.676 3.676 0 012.018 2.148c.188.515.271 1.062.245 1.61l-.015.676h-6.546l-.354-1.339h5.098l-.246.278v-.338a1.437 1.437 0 00-.27-.748 1.735 1.735 0 00-1.439-.717 2.346 2.346 0 00-1.147.263 1.708 1.708 0 00-.717.769 2.808 2.808 0 00-.247 1.233c-.012.446.098.889.316 1.279.212.359.522.651.893.838a2.9 2.9 0 001.363.301c.336.004.67-.054.985-.169a3.51 3.51 0 00.955-.586l1.047 1.463a4.425 4.425 0 01-.985.67 5.191 5.191 0 01-1.11.408 4.672 4.672 0 01-1.123.139zm8.208 0a3.187 3.187 0 01-1.834-.554c-.554-.382-1-.904-1.293-1.509a4.839 4.839 0 01-.477-2.188 4.77 4.77 0 01.485-2.187 3.76 3.76 0 011.316-1.493 3.4 3.4 0 011.895-.539c.375-.004.746.055 1.1.177a2.9 2.9 0 01.879.485 3.1 3.1 0 01.638.709c.174.264.298.556.37.862l-.461-.077v-1.987h2.171v8.147h-2.202v-1.956l.493-.046c-.085.293-.22.57-.4.816a3.093 3.093 0 01-.686.685 3.42 3.42 0 01-.916.478 3.296 3.296 0 01-1.078.177zm.6-1.895a1.97 1.97 0 001.078-.292c.313-.201.561-.486.716-.825a2.84 2.84 0 00.255-1.239 2.761 2.761 0 00-.255-1.217 1.999 1.999 0 00-.715-.823 1.93 1.93 0 00-1.079-.301 1.866 1.866 0 00-1.054.301c-.31.206-.556.49-.717.823a2.69 2.69 0 00-.261 1.217c-.01.428.08.852.26 1.239.16.336.407.622.718.825.315.198.681.3 1.054.292zm8.456-.708l-.648-1.802 3.851-3.896h2.88l-6.084 5.698zm-2.08 2.449v-11.396h2.186v11.396h-2.185zm5.513 0l-2.925-3.681 1.54-1.233 4.019 4.914H57.09zm7.362.154a4.793 4.793 0 01-2.319-.539 3.9 3.9 0 01-1.54-1.478 4.222 4.222 0 01-.546-2.156 4.76 4.76 0 01.309-1.741 4.12 4.12 0 01.861-1.364 3.874 3.874 0 011.317-.893 4.313 4.313 0 011.657-.316c.528-.004 1.052.1 1.54.309a3.69 3.69 0 012.017 2.148c.188.515.271 1.062.246 1.61l-.016.676h-6.544l-.355-1.339h5.098l-.247.278v-.338a1.425 1.425 0 00-.269-.748c-.158-.22-.367-.4-.608-.524a1.792 1.792 0 00-.833-.193 2.35 2.35 0 00-1.147.263 1.713 1.713 0 00-.716.769 2.807 2.807 0 00-.245 1.233c-.013.446.096.889.315 1.279.21.359.52.651.893.838.423.21.891.313 1.363.3.336.005.67-.053.986-.168a3.53 3.53 0 00.955-.586l1.047 1.463c-.297.266-.63.493-.986.67a5.302 5.302 0 01-1.109.409 4.731 4.731 0 01-1.124.138zm5.159-.154v-8.147h2.11l.077 2.619-.37-.54c.122-.419.326-.809.602-1.147a3.04 3.04 0 01.977-.809 2.516 2.516 0 011.177-.292 2.793 2.793 0 01.925.154l-.585 2.402a1.903 1.903 0 00-.44-.162 2.09 2.09 0 00-.545-.068 1.75 1.75 0 00-.686.13 1.583 1.583 0 00-.547.369c-.156.162-.28.354-.361.562a1.885 1.885 0 00-.132.709v4.22h-2.202z" fill="#131032"/><path fill-rule="evenodd" clip-rule="evenodd" d="M245.312 139.5a10.75 10.75 0 00-10.232 6.561 10.76 10.76 0 0010.232 14.943h29.532a10.745 10.745 0 004.215-.723 10.747 10.747 0 006.867-10.028 10.764 10.764 0 00-3.266-7.721 10.77 10.77 0 00-7.816-3.032h-29.532z" fill="#23D6BA"/><path d="M275.169 143.085a7.165 7.165 0 016.623 4.425 7.162 7.162 0 01-1.554 7.812 7.173 7.173 0 01-7.812 1.553 7.161 7.161 0 01-4.424-6.622 7.168 7.168 0 017.167-7.168zm-29.738 11.324a4.544 4.544 0 01-1.762-.334 4.245 4.245 0 01-1.399-.93 4.059 4.059 0 01-.917-1.416 4.84 4.84 0 01-.32-1.781 4.795 4.795 0 01.32-1.785c.205-.529.517-1.01.917-1.412.4-.399.876-.715 1.399-.93a4.537 4.537 0 011.749-.332 4.512 4.512 0 011.756.332c.522.216.995.535 1.393.937.398.404.711.886.917 1.416.219.566.327 1.168.32 1.774a4.759 4.759 0 01-.32 1.774 4.192 4.192 0 01-2.31 2.353 4.472 4.472 0 01-1.743.334zm-.013-1.75a2.378 2.378 0 001.799-.769 2.74 2.74 0 00.524-.857c.131-.346.195-.714.191-1.085a2.97 2.97 0 00-.191-1.083 2.717 2.717 0 00-.524-.857 2.339 2.339 0 00-.789-.567 2.462 2.462 0 00-1.01-.203 2.432 2.432 0 00-.998.203 2.508 2.508 0 00-.8.567 2.42 2.42 0 00-.524.857 3.188 3.188 0 00-.179 1.083c-.003.369.057.736.179 1.085.113.319.291.61.524.857a2.432 2.432 0 001.798.769zm6.063 1.626v-8.623h1.65l4.768 6.442h-.345a28.965 28.965 0 01-.154-1.484c-.021-.251-.037-.51-.049-.776a39.334 39.334 0 01-.044-1.829v-2.353h1.812v8.623h-1.675l-4.867-6.505.468.012.104 1.091c.03.3.054.561.075.782.02.221.034.414.042.579.009.165.014.321.02.468.003.148.005.304.005.469v3.104h-1.81z" fill="#fff"/><path d="M85.057 146.51a3.747 3.747 0 013.46 2.311 3.747 3.747 0 01-.812 4.079 3.739 3.739 0 01-1.917 1.024 3.731 3.731 0 01-2.163-.212 3.753 3.753 0 01-2.311-3.459 3.742 3.742 0 013.743-3.743zm65.56 6.291H97.649a2.462 2.462 0 110-4.927h52.968c.654 0 1.28.259 1.742.722a2.459 2.459 0 010 3.484 2.462 2.462 0 01-1.742.721z" fill="#E4E7EA"/><mask id="a" style="mask-type:luminance" maskUnits="userSpaceOnUse" x="12" y="105" width="39" height="21"><path d="M50.513 105.956H12.935v19.096h37.578v-19.096z" fill="#fff"/></mask><g mask="url(#a)"><path d="M282.137 86.653H16.015a3.696 3.696 0 00-3.696 3.696v31.417a3.696 3.696 0 003.696 3.696h266.122a3.696 3.696 0 003.696-3.696V90.349a3.695 3.695 0 00-3.696-3.696z" fill="#97DFC1"/><path d="M16.015 87.884a2.464 2.464 0 00-2.464 2.465v31.417a2.462 2.462 0 002.464 2.464h266.122a2.463 2.463 0 002.464-2.464V90.349a2.468 2.468 0 00-2.464-2.465H16.015zm0-1.231h266.122a3.692 3.692 0 013.696 3.696v31.417a3.69 3.69 0 01-1.083 2.613 3.69 3.69 0 01-2.613 1.083H16.015a3.693 3.693 0 01-3.696-3.696V90.349a3.699 3.699 0 013.696-3.696z" fill="#D0D5DA"/></g><mask id="b" style="mask-type:luminance" maskUnits="userSpaceOnUse" x="12" y="195" width="39" height="13"><path d="M50.513 195.895H12.935v11.704h37.578v-11.704z" fill="#fff"/></mask><g mask="url(#b)"><path d="M282.137 184.007H16.015a3.696 3.696 0 00-3.696 3.697v16.45a3.696 3.696 0 003.696 3.697h266.122a3.696 3.696 0 003.696-3.697v-16.45a3.696 3.696 0 00-3.696-3.697z" fill="#97DFC1"/><path d="M16.015 185.239a2.463 2.463 0 00-2.464 2.465v16.45a2.464 2.464 0 002.464 2.464h266.122a2.463 2.463 0 002.464-2.464v-16.45a2.468 2.468 0 00-2.464-2.465H16.015zm0-1.232h266.122a3.693 3.693 0 013.696 3.697v16.45c0 .981-.389 1.921-1.083 2.613a3.691 3.691 0 01-2.613 1.084H16.015a3.694 3.694 0 01-3.696-3.697v-16.45a3.696 3.696 0 013.696-3.697z" fill="#D0D5DA"/></g><path d="M16.016 87.885a2.465 2.465 0 00-2.464 2.465v31.417a2.464 2.464 0 002.464 2.463h266.122a2.466 2.466 0 002.464-2.463V90.35a2.466 2.466 0 00-2.464-2.465H16.016zm0-1.232h266.122a3.692 3.692 0 013.696 3.697v31.417a3.694 3.694 0 01-3.696 3.696H16.016a3.697 3.697 0 01-3.696-3.696V90.35a3.698 3.698 0 013.696-3.697z" fill="#D0D5DA"/><path d="M65.499 110.37v-8.624h3.599c.475-.014.949.069 1.392.246a1.8 1.8 0 01.855.733c.203.363.304.773.29 1.189a1.87 1.87 0 01-.388 1.195c-.275.34-.653.578-1.078.678v-.247a2.65 2.65 0 011.01.437c.283.205.513.473.672.783.164.333.247.701.24 1.073a2.89 2.89 0 01-.191 1.089c-.121.308-.316.58-.567.795a2.555 2.555 0 01-.905.487 4.08 4.08 0 01-1.208.166h-3.721zm1.33-1.282h2.317a2.18 2.18 0 00.856-.148 1.17 1.17 0 00.543-.437c.131-.207.198-.449.19-.696a1.05 1.05 0 00-.203-.652 1.247 1.247 0 00-.573-.413 2.438 2.438 0 00-.874-.142h-2.256v2.488zm0-3.769h2.194a1.43 1.43 0 00.659-.148c.186-.093.343-.233.456-.407.112-.176.17-.382.166-.592a1.026 1.026 0 00-.369-.849 1.667 1.667 0 00-1.06-.296h-2.046v2.292zm9.007 5.174c-.423.01-.84-.102-1.201-.32a2.12 2.12 0 01-.789-.9 3.16 3.16 0 01-.276-1.38v-3.991h1.268v3.646a2.46 2.46 0 00.179.981c.105.257.285.478.517.634.246.153.53.23.82.221.222.003.445-.037.653-.117a1.5 1.5 0 00.85-.831c.083-.203.125-.421.123-.641v-3.893h1.27v6.468h-1.27v-1.355l.222-.148a2.177 2.177 0 01-.499.826 2.624 2.624 0 01-.832.585 2.505 2.505 0 01-1.035.215zm5.396-.123v-6.468h1.27v6.468h-1.27zm.616-7.897a.88.88 0 01-.627-.21.779.779 0 01-.223-.592.762.762 0 01.054-.312.747.747 0 01.175-.267.854.854 0 01.621-.221.882.882 0 01.63.21.79.79 0 01.173.271.794.794 0 01.048.319.755.755 0 01-.228.579.832.832 0 01-.29.174.84.84 0 01-.333.049zm2.625 7.897v-9.117h1.268v9.117h-1.268zm3.831 0v-8.12h1.27v8.12h-1.27zm-1.343-5.237v-1.231h4.116v1.231H86.96zm5.04 2.342v-1.257h3.548v1.257H92zm5.297 2.895v-6.468h1.269v6.468h-1.269zm.617-7.897a.886.886 0 01-.63-.21.787.787 0 01-.173-.271.801.801 0 01-.048-.321.785.785 0 01.228-.579.86.86 0 01.623-.221.876.876 0 01.627.21.773.773 0 01.223.59.765.765 0 01-.517.753.84.84 0 01-.334.049zm2.6 7.897v-6.468h1.268v1.33l-.221.148c.09-.301.255-.575.48-.795.245-.247.532-.447.85-.591.315-.148.66-.227 1.01-.228a2.41 2.41 0 011.233.289c.337.204.596.514.738.882.179.476.262.982.247 1.491v3.942h-1.27v-3.856a2.46 2.46 0 00-.146-.919 1.009 1.009 0 00-.457-.529 1.43 1.43 0 00-.764-.141 1.86 1.86 0 00-.677.116 1.664 1.664 0 00-.537.327 1.55 1.55 0 00-.357.487c-.086.187-.13.391-.129.597v3.918h-1.268zm11.1 0v-8.624h1.306l3.141 5.113-.627-.013 3.177-5.1h1.233v8.624h-1.331v-3.536c0-.74.018-1.405.056-1.997.037-.59.1-1.178.19-1.761l.173.456-2.822 4.361h-.813l-2.735-4.311.136-.506c.09.551.153 1.116.191 1.695.037.579.055 1.267.055 2.063v3.536h-1.33zm10.534 0v-6.468h1.268v6.468h-1.268zm.616-7.897a.886.886 0 01-.629-.21.779.779 0 01-.221-.592.774.774 0 01.227-.579.86.86 0 01.623-.221.879.879 0 01.628.21.778.778 0 01.221.59.76.76 0 01-.227.579.83.83 0 01-.289.174.838.838 0 01-.333.049zm5.347 8.02a2.963 2.963 0 01-1.608-.444 3.165 3.165 0 01-1.121-1.207 3.535 3.535 0 01-.413-1.712 3.53 3.53 0 01.413-1.712 3.175 3.175 0 011.121-1.208 2.963 2.963 0 011.608-.444 3.487 3.487 0 011.571.351c.442.208.817.54 1.078.955l-.702.863a2.32 2.32 0 00-.506-.517 2.733 2.733 0 00-.652-.371 1.84 1.84 0 00-.665-.135 1.94 1.94 0 00-1.054.29c-.31.195-.564.469-.733.795a2.36 2.36 0 00-.272 1.133 2.235 2.235 0 001.036 1.922c.308.196.667.299 1.034.295.22.001.439-.036.647-.111.219-.078.425-.19.61-.332.207-.157.392-.339.555-.543l.702.864a2.913 2.913 0 01-1.127.91 3.411 3.411 0 01-1.522.358zm3.844-.123v-6.468h1.282v2.033l-.124-.493c.091-.314.248-.603.462-.85.21-.249.464-.453.751-.604.272-.145.574-.221.882-.222.133 0 .268.013.4.037.104.018.204.046.302.086l-.333 1.381a2.189 2.189 0 00-.327-.106 1.595 1.595 0 00-.986.086 1.716 1.716 0 00-.892.888 1.572 1.572 0 00-.135.659v3.573h-1.282zm7.601.123a3.286 3.286 0 01-1.693-.437 3.18 3.18 0 01-1.177-1.196 3.417 3.417 0 01-.431-1.73 3.427 3.427 0 01.431-1.732 3.198 3.198 0 011.177-1.195 3.286 3.286 0 011.693-.437 3.203 3.203 0 012.859 1.632c.293.529.442 1.127.431 1.732a3.438 3.438 0 01-.431 1.73c-.278.497-.685.91-1.176 1.196a3.255 3.255 0 01-1.683.437zm0-1.158c.367.005.726-.095 1.036-.289.305-.195.55-.467.714-.789a2.32 2.32 0 00.247-1.127 2.344 2.344 0 00-.247-1.14 1.914 1.914 0 00-1.75-1.065 1.917 1.917 0 00-1.041.289 1.987 1.987 0 00-.72.788c-.177.35-.261.737-.247 1.128-.014.39.07.778.247 1.127.163.323.413.596.72.789.313.194.674.294 1.041.289zm4.67 3.745v-9.178h1.282v1.478l-.197-.11c.064-.274.209-.521.418-.709.244-.236.531-.423.844-.555a2.618 2.618 0 011.029-.216 2.822 2.822 0 011.552.433c.456.292.825.699 1.073 1.182a3.66 3.66 0 01.393 1.725 3.712 3.712 0 01-.388 1.719 3.04 3.04 0 01-1.066 1.195 2.77 2.77 0 01-1.527.438c-.378 0-.751-.079-1.097-.229a2.957 2.957 0 01-.899-.586 1.495 1.495 0 01-.456-.738l.321-.173v4.324h-1.282zm3.204-3.769c.356.005.707-.093 1.01-.285.298-.191.54-.459.702-.775.176-.346.265-.732.259-1.121a2.395 2.395 0 00-.253-1.115 1.971 1.971 0 00-.696-.77 1.858 1.858 0 00-1.022-.284 1.898 1.898 0 00-1.023.278c-.3.188-.542.454-.703.769a2.388 2.388 0 00-.258 1.122c-.007.389.082.775.258 1.121.161.316.404.584.703.775.306.193.661.291 1.023.285zm4.571 1.059v-9.117h1.268v3.979l-.221.148c.09-.301.255-.575.48-.795.245-.247.532-.447.85-.591a2.397 2.397 0 011.01-.228 2.41 2.41 0 011.233.289c.337.204.597.514.738.882.179.476.263.982.247 1.491v3.942h-1.268v-3.856a2.503 2.503 0 00-.148-.919 1.009 1.009 0 00-.457-.529 1.428 1.428 0 00-.763-.141 1.86 1.86 0 00-.678.116c-.198.074-.38.185-.537.327a1.531 1.531 0 00-.356.487 1.4 1.4 0 00-.13.597v3.918h-1.268zm10.238.123a3.282 3.282 0 01-1.694-.437 3.19 3.19 0 01-1.178-1.196 3.448 3.448 0 01-.431-1.73 3.458 3.458 0 01.431-1.732 3.208 3.208 0 012.872-1.632 3.27 3.27 0 011.681.437c.492.287.898.7 1.176 1.195.295.529.443 1.127.433 1.732a3.43 3.43 0 01-.433 1.73c-.278.497-.684.91-1.176 1.196a3.25 3.25 0 01-1.681.437zm0-1.158a1.9 1.9 0 001.034-.289 2.01 2.01 0 00.714-.789c.177-.349.261-.737.247-1.127a2.322 2.322 0 00-.247-1.14 1.907 1.907 0 00-1.748-1.065 1.916 1.916 0 00-1.042.289 1.997 1.997 0 00-.721.788c-.176.35-.261.737-.245 1.128-.016.39.069.778.245 1.127.165.323.413.596.721.789.312.194.674.294 1.042.289zm4.669 1.035v-6.468h1.268v1.33l-.221.148c.09-.301.256-.575.481-.795.245-.247.533-.447.849-.591a2.405 2.405 0 011.011-.228c.429-.016.855.085 1.232.289.338.204.598.514.739.882.179.476.263.982.246 1.491v3.942h-1.268v-3.856c.01-.313-.04-.624-.148-.919a1.007 1.007 0 00-.456-.529 1.432 1.432 0 00-.764-.141 1.864 1.864 0 00-.678.116c-.197.074-.38.185-.535.327a1.522 1.522 0 00-.358.487 1.414 1.414 0 00-.13.597v3.918h-1.268zm10.349.123a3.607 3.607 0 01-1.768-.424 3.135 3.135 0 01-1.207-1.165 3.274 3.274 0 01-.437-1.701 3.791 3.791 0 01.245-1.392 3.34 3.34 0 01.685-1.089c.293-.31.651-.555 1.047-.716.419-.171.87-.257 1.324-.252.403-.004.801.079 1.171.24a2.882 2.882 0 011.558 1.651c.146.401.216.825.203 1.251l-.012.542h-5.286l-.283-1.01h4.472l-.184.209v-.296a1.435 1.435 0 00-.271-.726 1.68 1.68 0 00-1.368-.69 2.273 2.273 0 00-1.121.252 1.642 1.642 0 00-.691.739 2.785 2.785 0 00-.234 1.201c-.01.411.088.816.285 1.177.185.33.464.597.8.77.37.186.781.28 1.195.271a2.41 2.41 0 00.893-.161 3.08 3.08 0 00.894-.579l.641.9a2.935 2.935 0 01-.722.518 4.508 4.508 0 01-.899.351 3.52 3.52 0 01-.93.129z" fill="#131032"/><path d="M22.53 119.302v-5.606h1.098l2.041 3.323-.721-.007 2.067-3.316h1.047v5.606h-1.175v-1.922c0-.48.012-.913.035-1.297.025-.385.066-.767.124-1.145l.144.375-1.64 2.548h-.529l-1.61-2.531.137-.392c.058.357.099.724.123 1.1.024.377.035.823.037 1.342v1.922H22.53zm8.29.081a1.5 1.5 0 01-.798-.205 1.327 1.327 0 01-.512-.584 2.121 2.121 0 01-.18-.917v-2.612h1.136v2.427c-.004.172.03.343.096.501a.73.73 0 00.273.325c.13.078.279.117.43.111a.897.897 0 00.34-.061.805.805 0 00.453-.436.85.85 0 00.062-.329v-2.538h1.144v4.237H32.18l-.04-.873.208-.096a1.421 1.421 0 01-.32.538 1.635 1.635 0 01-1.21.512zm3.995-.081v-5.31h1.138v5.31h-1.138zm-.792-3.219v-1.018h2.802v1.018h-2.802zm5.509 3.3a2.503 2.503 0 01-1.206-.281 2.026 2.026 0 01-.8-.769 2.176 2.176 0 01-.284-1.121 2.44 2.44 0 01.16-.905c.1-.264.254-.505.448-.709a2 2 0 01.685-.465c.274-.11.567-.167.862-.163a1.932 1.932 0 011.438.603c.181.195.322.424.412.673.097.269.14.553.127.838l-.008.352h-3.404l-.184-.696h2.65l-.13.144v-.176a.74.74 0 00-.14-.388.88.88 0 00-.316-.273.937.937 0 00-.431-.101 1.204 1.204 0 00-.597.137.885.885 0 00-.37.4 1.449 1.449 0 00-.128.641c-.006.232.05.461.163.665.111.186.272.338.465.436.221.108.463.159.709.153.175.003.348-.028.512-.088.18-.074.348-.177.496-.304l.545.761a2.32 2.32 0 01-.513.349 2.706 2.706 0 01-.576.213 2.517 2.517 0 01-.585.074z" fill="#614EFA"/><path d="M31.548 91.05a4.3 4.3 0 013.016 1.294 4.302 4.302 0 011.222 3.046v5.49a4.296 4.296 0 01-4.238 4.339 4.299 4.299 0 01-3.017-1.293 4.3 4.3 0 01-1.222-3.046v-5.49a4.295 4.295 0 014.24-4.34zm0 12.629a2.75 2.75 0 002.697-2.799v-5.49a2.752 2.752 0 00-2.697-2.8 2.759 2.759 0 00-1.929.842 2.758 2.758 0 00-.77 1.958v5.49a2.752 2.752 0 002.699 2.799z" fill="#131032"/><path d="M31.548 108.239a7.037 7.037 0 01-5.08-2.164 7.414 7.414 0 01-2.095-5.195.768.768 0 01.77-.77.77.77 0 01.77.77 5.737 5.737 0 005.635 5.819 5.735 5.735 0 005.63-5.819.772.772 0 01.77-.77.772.772 0 01.77.77 7.408 7.408 0 01-2.095 5.195 7.035 7.035 0 01-5.075 2.164z" fill="#131032"/><path d="M31.547 110.983a.766.766 0 01-.77-.77v-2.745a.768.768 0 011.314-.544.764.764 0 01.226.544v2.745a.777.777 0 01-.476.712.777.777 0 01-.294.058z" fill="#131032"/><path d="M33.63 110.983h-4.168a.769.769 0 01-.544-1.314.769.769 0 01.544-.226h4.168a.77.77 0 010 1.54z" fill="#131032"/><path d="M265.91 110.022l-4.414-4.413a.916.916 0 01-.282-.657.93.93 0 01.27-.662.929.929 0 011.319.012l3.107 3.107 3.107-3.107a.927.927 0 011.317-.012.919.919 0 01.272.662.942.942 0 01-.282.657l-4.414 4.413z" fill="#A8AFB7"/><path d="M51.437 124.36h-1.23v-37.4h1.23v37.4zm-35.421 45.943a2.46 2.46 0 00-2.464 2.463v31.417a2.46 2.46 0 002.464 2.464h266.122a2.463 2.463 0 002.464-2.464v-31.417a2.465 2.465 0 00-2.464-2.463H16.016zm0-1.233h266.122a3.694 3.694 0 013.696 3.696v31.417c0 .981-.389 1.921-1.083 2.613a3.691 3.691 0 01-2.613 1.084H16.016a3.694 3.694 0 01-3.696-3.697v-31.417a3.693 3.693 0 013.696-3.696z" fill="#D0D5DA"/><path d="M65.499 192.787v-8.625h3.599a3.49 3.49 0 011.392.247c.356.145.656.403.855.732.203.363.304.774.29 1.19.012.431-.125.853-.388 1.195a1.97 1.97 0 01-1.078.677v-.246c.364.072.708.221 1.01.438.283.203.513.472.672.782.164.332.247.7.24 1.072a2.89 2.89 0 01-.191 1.089c-.121.308-.316.58-.567.795a2.54 2.54 0 01-.905.487 4.049 4.049 0 01-1.208.167h-3.721zm1.33-1.282h2.317c.292.008.583-.042.856-.147a1.18 1.18 0 00.543-.438c.131-.208.198-.45.19-.696a1.052 1.052 0 00-.203-.653 1.261 1.261 0 00-.573-.413 2.46 2.46 0 00-.874-.142h-2.256v2.489zm0-3.77h2.194a1.43 1.43 0 00.659-.148c.186-.092.343-.232.456-.407.112-.176.17-.382.166-.59a1.034 1.034 0 00-.369-.851 1.667 1.667 0 00-1.06-.296h-2.046v2.292zm9.007 5.174c-.423.01-.84-.1-1.201-.32a2.102 2.102 0 01-.789-.9 3.159 3.159 0 01-.276-1.379v-3.992h1.268v3.648c-.008.334.053.667.179.979.105.258.285.479.517.634.246.153.53.23.82.222.222.003.445-.037.653-.117a1.505 1.505 0 00.85-.832c.083-.203.125-.421.123-.641v-3.893h1.27v6.469h-1.27v-1.356l.222-.148a2.17 2.17 0 01-.499.826 2.608 2.608 0 01-.832.585 2.49 2.49 0 01-1.035.215zm5.396-.122v-6.469h1.27v6.469h-1.27zm.616-7.898a.876.876 0 01-.627-.21.772.772 0 01-.223-.59.765.765 0 01.517-.753.84.84 0 01.333-.049.886.886 0 01.63.21.79.79 0 01.173.271.801.801 0 01.048.321.785.785 0 01-.228.579.858.858 0 01-.623.221zm2.625 7.898v-9.118h1.268v9.118h-1.268zm3.831 0v-8.119h1.27v8.119h-1.27zm-1.343-5.236v-1.233h4.116v1.233H86.96zm5.04 2.34v-1.257h3.548v1.257H92zm5.297 2.896v-6.469h1.269v6.469h-1.269zm.617-7.898a.882.882 0 01-.63-.21.787.787 0 01-.173-.271.794.794 0 01-.048-.319.755.755 0 01.228-.579.817.817 0 01.29-.174.84.84 0 01.333-.049.88.88 0 01.627.21.78.78 0 01.223.592.762.762 0 01-.054.312.747.747 0 01-.175.267.858.858 0 01-.621.221zm2.6 7.898v-6.469h1.268v1.33l-.221.148c.09-.301.255-.575.48-.793a2.82 2.82 0 01.85-.592c.315-.149.66-.228 1.01-.228a2.4 2.4 0 011.233.29c.337.203.596.513.738.88.179.477.262.982.247 1.491v3.943h-1.27v-3.857a2.444 2.444 0 00-.146-.917 1.017 1.017 0 00-.457-.531 1.43 1.43 0 00-.764-.141 1.881 1.881 0 00-.677.117 1.63 1.63 0 00-.537.327 1.546 1.546 0 00-.357.486c-.086.187-.13.391-.129.597v3.919h-1.268zm14.71.122a4.187 4.187 0 01-1.682-.332 4.08 4.08 0 01-1.343-.93 4.232 4.232 0 01-.888-1.405 4.851 4.851 0 01-.313-1.768c-.007-.603.1-1.204.313-1.767.2-.523.502-1 .888-1.405a4.08 4.08 0 011.343-.93 4.223 4.223 0 011.682-.334 4.218 4.218 0 011.681.334c.507.217.964.535 1.343.936.385.408.687.887.887 1.41.213.561.32 1.157.315 1.756.005.6-.102 1.196-.315 1.757a4.287 4.287 0 01-.887 1.41c-.379.4-.836.719-1.343.936a4.182 4.182 0 01-1.681.332zm0-1.293c.396.005.788-.076 1.151-.234.345-.153.654-.378.906-.659.26-.293.463-.631.598-.998.147-.4.22-.825.215-1.251a3.503 3.503 0 00-.215-1.25 3.112 3.112 0 00-.598-.998 2.674 2.674 0 00-.906-.659 2.764 2.764 0 00-1.151-.234 2.777 2.777 0 00-1.153.234 2.784 2.784 0 00-.911.652 2.92 2.92 0 00-.598.992 3.647 3.647 0 00-.208 1.263c-.006.428.065.853.208 1.257.13.37.333.709.598.997.256.278.566.501.911.654.364.158.757.239 1.153.234zm7.971 1.293c-.423.01-.84-.1-1.201-.32a2.1 2.1 0 01-.789-.9 3.162 3.162 0 01-.277-1.379v-3.992h1.269v3.648c-.008.334.053.667.179.979.105.258.285.479.517.634.246.153.53.23.819.222.223.003.445-.037.654-.117.19-.074.364-.185.511-.326.146-.145.261-.316.338-.506.084-.203.126-.421.124-.641v-3.893h1.268v6.469h-1.268v-1.356l.221-.148a2.16 2.16 0 01-.498.826c-.237.248-.52.446-.832.585a2.492 2.492 0 01-1.035.215zm5.988-.122v-8.119h1.268v8.119h-1.268zm-1.343-5.236v-1.233h4.115v1.233h-4.115zm5.273 7.945v-9.178h1.281v1.478l-.196-.11c.064-.273.209-.52.418-.709.244-.236.531-.423.844-.555a2.581 2.581 0 011.029-.214 2.814 2.814 0 011.551.431c.457.292.826.699 1.073 1.182.271.534.406 1.127.394 1.725a3.712 3.712 0 01-.388 1.719 3.04 3.04 0 01-1.066 1.195 2.762 2.762 0 01-1.527.438c-.378 0-.751-.078-1.097-.228a2.957 2.957 0 01-.899-.586 1.502 1.502 0 01-.456-.739l.32-.173v4.324h-1.281zm3.204-3.769c.356.006.707-.093 1.009-.283a2.02 2.02 0 00.703-.776c.176-.347.265-.732.258-1.122a2.385 2.385 0 00-.252-1.115 1.971 1.971 0 00-.696-.77 1.865 1.865 0 00-1.022-.283 1.888 1.888 0 00-1.023.277c-.3.189-.542.455-.703.771-.176.346-.265.73-.258 1.12-.007.39.082.775.258 1.122.161.315.404.584.703.776.306.191.661.289 1.023.283zm6.837 1.182c-.423.01-.84-.1-1.201-.32a2.093 2.093 0 01-.789-.9 3.16 3.16 0 01-.276-1.379v-3.992h1.268v3.648c-.008.334.053.667.179.979.105.258.286.479.517.634.246.153.53.23.82.222a1.75 1.75 0 00.652-.117c.19-.074.365-.185.512-.326.147-.145.261-.316.338-.506.084-.203.126-.421.124-.641v-3.893h1.268v6.469h-1.268v-1.356l.221-.148c-.102.31-.271.592-.498.826-.237.248-.52.446-.832.585a2.492 2.492 0 01-1.035.215zm5.988-.122v-8.119h1.268v8.119h-1.268zm-1.343-5.236v-1.233h4.115v1.233H147.8z" fill="#131032"/><path d="M265.91 192.44l-4.414-4.414a.909.909 0 01-.282-.656.93.93 0 01.27-.662.95.95 0 01.304-.202.907.907 0 01.714.007.9.9 0 01.301.207l3.107 3.107 3.107-3.107a.897.897 0 01.3-.207.914.914 0 011.017.195.932.932 0 01.272.662.946.946 0 01-.075.356.947.947 0 01-.207.3l-4.414 4.414z" fill="#A8AFB7"/><path d="M51.437 206.777h-1.23v-37.399h1.23v37.399z" fill="#D0D5DA"/><path d="M27.104 195.104h-3.495a2.267 2.267 0 01-2.156-2.358v-6.496a2.273 2.273 0 01.592-1.625 2.27 2.27 0 011.564-.734h3.493a.77.77 0 01.77.77v9.671a.778.778 0 01-.474.713.788.788 0 01-.294.059zm-3.495-9.673c-.332 0-.616.375-.616.819v6.495c0 .443.282.818.616.818h2.723v-8.132h-2.723z" fill="#131032"/><path d="M31.887 180.748a1.04 1.04 0 011.02 1.056v15.389a1.037 1.037 0 01-1.02 1.056.995.995 0 01-.57-.186l-4.642-3.088a.76.76 0 01-.343-.641v-9.672a.762.762 0 01.343-.641l4.642-3.092a.984.984 0 01.57-.181zm-.52 15.501v-13.502l-3.495 2.326v8.849l3.494 2.327zm3.341-1.591a.774.774 0 01-.761-.65.775.775 0 01.523-.853 3.747 3.747 0 002.657-3.658 3.75 3.75 0 00-2.657-3.659.77.77 0 11.476-1.464 5.315 5.315 0 012.79 2.059 5.507 5.507 0 010 6.127 5.311 5.311 0 01-2.79 2.06.77.77 0 01-.238.038z" fill="#131032"/><path d="M36.303 197.065a.771.771 0 01-.662-1.163.77.77 0 01.409-.335 6.254 6.254 0 004.108-6.069 6.246 6.246 0 00-4.108-6.073.775.775 0 01-.444-.39.79.79 0 01-.035-.59.774.774 0 01.394-.442.759.759 0 01.589-.033 7.428 7.428 0 013.866 3.041 8.324 8.324 0 011.277 4.487 8.311 8.311 0 01-1.277 4.484 7.424 7.424 0 01-3.866 3.039.798.798 0 01-.251.044z" fill="#131032"/><path d="M285.525 42.084H12.628v-.616h272.897v.616z" fill="#707070"/><mask id="c" style="mask-type:luminance" maskUnits="userSpaceOnUse" x="235" y="14" width="51" height="17"><path d="M285.834 14.785h-50.515v15.4h50.515v-15.4z" fill="#fff"/></mask><g mask="url(#c)"><path d="M264.286 14.737h19.309a1.93 1.93 0 011.932 1.932v11.585a1.923 1.923 0 01-.567 1.366 1.92 1.92 0 01-1.365.565h-19.309a1.927 1.927 0 01-1.785-1.192 1.932 1.932 0 01-.147-.739V16.67a1.933 1.933 0 011.932-1.932z" fill="#E4E7EA"/><path d="M270.861 23.42v2.867h2.41v-7.688h-2.41v2.92h-2.249V18.6h-2.398v7.688h2.398V23.42h2.249zm6.976-4.82h-3.297v7.687h3.297c2.698 0 4.22-1.848 4.22-3.844 0-1.995-1.545-3.844-4.22-3.844zm-.899 1.932h.727a1.873 1.873 0 011.8 1.167c.095.236.141.488.136.743a1.89 1.89 0 01-.136.744 1.883 1.883 0 01-1.055 1.04 1.872 1.872 0 01-.745.126h-.727v-3.82z" fill="#131032"/><path d="M237.25 14.738h19.311a1.93 1.93 0 011.931 1.93v11.586c0 .254-.05.505-.146.74a1.94 1.94 0 01-1.785 1.192H237.25a1.926 1.926 0 01-1.365-.566 1.937 1.937 0 01-.566-1.366V16.67a1.933 1.933 0 011.931-1.931z" fill="#E4E7EA"/><path d="M246.818 16.548a4.804 4.804 0 00-4.772 4.832v1.394a2.052 2.052 0 00-.705 2.127l.519 1.971a2 2 0 00.925 1.228 1.995 1.995 0 001.524.204l.986-.269a.58.58 0 00.405-.71l-1.256-4.772a.58.58 0 00-.265-.35.567.567 0 00-.434-.059l-.22.149v-.913a3.043 3.043 0 011.996-3.09c.415-.151.856-.21 1.296-.175 1.995 0 3.466 1.24 3.466 3.265v.866l-.219-.1a.574.574 0 00-.602.206.566.566 0 00-.098.202l-1.255 4.772a.58.58 0 00.405.71l.985.27a1.996 1.996 0 002.113-.725c.158-.211.274-.452.339-.708l.519-1.971a2.045 2.045 0 00-.881-2.252v-1.27a4.808 4.808 0 00-4.771-4.832z" fill="#131032"/></g><path d="M257.388 31.417H48.778a5.653 5.653 0 00-5.654 5.653v20.087a5.653 5.653 0 005.653 5.653h208.611a5.653 5.653 0 005.652-5.653V37.07a5.653 5.653 0 00-5.652-5.653z" fill="#131032"/><path d="M52.577 51.13v-7.762h3.305c.442-.013.882.063 1.293.222.33.129.611.36.802.66.188.32.282.687.271 1.059.012.39-.11.774-.343 1.086a1.75 1.75 0 01-.965.61l-.012-.222c.328.066.638.2.91.394.253.182.46.421.604.698.148.294.222.62.217.949.005.341-.057.68-.186.997a1.834 1.834 0 01-.538.721c-.249.2-.536.348-.842.438a3.742 3.742 0 01-1.1.15h-3.416zm1.409-1.297h1.94c.237.006.473-.036.693-.124a.927.927 0 00.431-.36 1.05 1.05 0 00.15-.571.875.875 0 00-.161-.532.994.994 0 00-.46-.339 1.958 1.958 0 00-.71-.116h-1.884v2.042zm0-3.283h1.762a1.21 1.21 0 00.56-.123.93.93 0 00.37-.333.892.892 0 00.133-.487.859.859 0 00-.3-.693 1.334 1.334 0 00-.875-.247h-1.653l.003 1.883zm8.175 4.69a2.277 2.277 0 01-1.309-.398 2.88 2.88 0 01-.943-1.087 3.377 3.377 0 01-.355-1.564 3.378 3.378 0 01.355-1.563 2.72 2.72 0 01.965-1.075c.41-.26.889-.395 1.375-.389.276-.003.548.04.81.128.234.08.452.202.643.36.181.151.337.331.46.532.12.198.204.416.246.644l-.3-.078v-1.464h1.376v5.844h-1.386v-1.397l.322-.056c-.057.21-.153.408-.283.583a2.174 2.174 0 01-.511.498 2.777 2.777 0 01-.677.35 2.33 2.33 0 01-.788.133zm.377-1.208c.297.006.59-.075.842-.233a1.57 1.57 0 00.571-.648c.142-.3.211-.628.205-.96a2.078 2.078 0 00-.21-.942 1.583 1.583 0 00-.57-.643 1.54 1.54 0 00-.842-.233 1.508 1.508 0 00-.838.233 1.557 1.557 0 00-.558.643 2.13 2.13 0 00-.2.942c-.006.331.062.66.2.96.122.264.316.489.56.648.25.158.541.24.837.233h.003zm7.038 1.209c-.52.008-1.03-.13-1.474-.4a2.853 2.853 0 01-1.032-1.086 3.17 3.17 0 01-.377-1.552 3.172 3.172 0 01.377-1.553c.24-.447.597-.822 1.032-1.087a2.768 2.768 0 011.474-.399c.493-.006.982.096 1.43.3.405.178.75.466.998.831l-.754.91a1.879 1.879 0 00-.42-.422 2.323 2.323 0 00-.544-.3 1.599 1.599 0 00-.577-.11 1.61 1.61 0 00-.87.238c-.256.16-.466.387-.605.655a1.96 1.96 0 00-.221.937 1.88 1.88 0 00.226.931c.147.267.36.493.617.654.258.163.557.249.863.247.19 0 .38-.032.56-.095.184-.064.357-.156.515-.271a2.38 2.38 0 00.455-.444l.755.92c-.276.343-.63.615-1.035.79a3.273 3.273 0 01-1.393.306zm4.744-1.896l-.267-1.275 2.773-2.784h1.818l-4.325 4.059zm-1.275 1.786v-8.206h1.363v8.205l-1.363.001zm3.947 0l-2.151-2.606.965-.82 2.874 3.425-1.688.001zm4.989 2.55c-.441 0-.88-.068-1.302-.2a3.11 3.11 0 01-1.047-.52l.487-1.01c.162.116.337.212.521.289.198.083.406.146.617.188.213.044.43.067.648.067.337.01.671-.053.982-.185.253-.114.461-.309.593-.554a1.96 1.96 0 00.2-.924v-1.077l.198.078a1.305 1.305 0 01-.365.654 2.25 2.25 0 01-.754.504 2.353 2.353 0 01-.931.194 2.77 2.77 0 01-1.47-.388 2.815 2.815 0 01-1.01-1.059 3.144 3.144 0 01-.369-1.547 3.251 3.251 0 01.368-1.558 2.784 2.784 0 011.004-1.076c.432-.264.93-.4 1.436-.393.217 0 .433.025.643.077.2.049.391.124.571.222.167.092.326.2.47.322.133.109.25.235.344.377.083.116.14.248.168.388l-.288.089.021-1.356h1.342v5.448c.008.427-.064.852-.21 1.253a2.549 2.549 0 01-.61.924c-.276.26-.605.457-.966.576a3.953 3.953 0 01-1.289.196l-.002.001zm.056-3.659a1.59 1.59 0 001.474-.876c.145-.292.218-.616.212-.942a2.065 2.065 0 00-.216-.96 1.625 1.625 0 00-.595-.648 1.63 1.63 0 00-.875-.233 1.6 1.6 0 00-.876.239 1.66 1.66 0 00-.593.654 2.038 2.038 0 00-.217.948c-.005.325.07.647.217.937.134.266.34.49.593.648.265.16.569.24.878.232l-.002.001zm4.59 1.11v-5.846h1.343l.022 1.863-.19-.421a2.07 2.07 0 01.422-.801c.192-.23.427-.42.694-.56a1.76 1.76 0 01.826-.205 1.899 1.899 0 01.643.11l-.367 1.498a1.444 1.444 0 00-.654-.155 1.355 1.355 0 00-1.26.837 1.439 1.439 0 00-.104.56v3.118l-1.374.001zm7.097.11a3.086 3.086 0 01-1.563-.395 2.901 2.901 0 01-1.087-1.081 3.04 3.04 0 01-.399-1.563 3.04 3.04 0 01.4-1.564 2.9 2.9 0 011.086-1.081 3.087 3.087 0 011.563-.394 3.067 3.067 0 011.552.394c.453.255.827.63 1.084 1.081.267.477.403 1.017.394 1.564a3.104 3.104 0 01-.394 1.563 2.87 2.87 0 01-1.082 1.081 3.064 3.064 0 01-1.551.394l-.003.001zm0-1.209c.301.005.596-.081.848-.246.25-.164.452-.39.588-.654.147-.288.218-.609.205-.932a1.9 1.9 0 00-.205-.942 1.688 1.688 0 00-.588-.649 1.536 1.536 0 00-.848-.238 1.596 1.596 0 00-1.456.892 2.054 2.054 0 00-.21.937c-.006.323.066.643.21.932.135.267.34.493.593.654.259.165.56.25.866.245l-.003.001zm6.279 1.208a2.072 2.072 0 01-1.098-.283 1.806 1.806 0 01-.707-.81 2.98 2.98 0 01-.247-1.258v-3.604h1.365v3.318c-.008.272.04.542.144.793.086.205.233.38.42.5.2.123.431.185.666.178.18.002.358-.03.527-.094a1.218 1.218 0 00.692-.676 1.31 1.31 0 00.1-.516v-3.503h1.364v5.844h-1.33l-.022-1.22.246-.133a1.885 1.885 0 01-.449.749 2.39 2.39 0 01-.749.52 2.22 2.22 0 01-.922.195zm4.823-.111v-5.844h1.33l.023 1.198-.256.133c.08-.275.228-.525.432-.726.219-.222.479-.4.765-.527.285-.13.595-.199.909-.2.389-.013.773.079 1.114.267.308.185.546.467.678.8.164.424.241.877.228 1.33v3.569h-1.365v-3.47a1.92 1.92 0 00-.122-.74.844.844 0 00-.377-.431 1.208 1.208 0 00-.621-.128 1.548 1.548 0 00-.55.095 1.298 1.298 0 00-.719.66 1.121 1.121 0 00-.105.487v3.527h-1.364zm9.103.11a2.521 2.521 0 01-1.39-.393 2.806 2.806 0 01-.974-1.072 3.325 3.325 0 01-.361-1.57 3.353 3.353 0 01.356-1.563c.221-.44.555-.814.97-1.08a2.52 2.52 0 011.392-.395 2.591 2.591 0 011.519.493c.193.138.36.31.493.505.117.172.188.37.204.577l-.365.044v-3.861h1.364v8.205h-1.322l-.033-1.375.266.022a.968.968 0 01-.193.532c-.132.18-.291.337-.472.466a2.425 2.425 0 01-.67.338 2.456 2.456 0 01-.784.128zm.267-1.152a1.49 1.49 0 00.842-.247 1.66 1.66 0 00.572-.665 2.21 2.21 0 00.205-.973 2.21 2.21 0 00-.204-.97 1.607 1.607 0 00-.571-.666 1.512 1.512 0 00-.843-.238c-.3-.006-.593.077-.845.238a1.602 1.602 0 00-.572.665 2.21 2.21 0 00-.204.97c-.008.337.063.671.204.976.128.27.325.5.572.666.251.164.544.25.844.244zm10.244 1.042l-3.104-7.762h1.573l1.731 4.446c.088.23.166.435.233.616.066.182.126.346.177.493.052.148.098.292.139.432.04.14.086.287.138.443h-.308a14.54 14.54 0 01.372-1.22c.077-.221.171-.476.282-.765l1.62-4.446h1.582l-3.125 7.763h-1.31zm7.429.11a3.086 3.086 0 01-1.563-.393 2.908 2.908 0 01-1.085-1.081 3.058 3.058 0 01-.4-1.563 3.058 3.058 0 01.4-1.564 2.9 2.9 0 011.086-1.081 3.089 3.089 0 011.563-.394 3.07 3.07 0 011.553.394c.451.256.826.63 1.081 1.081.267.477.404 1.017.393 1.564a3.076 3.076 0 01-.393 1.563c-.255.452-.63.825-1.081 1.081a3.068 3.068 0 01-1.553.394h-.001zm0-1.208c.301.004.597-.081.849-.246.248-.164.451-.39.588-.654a1.89 1.89 0 00.204-.932 1.9 1.9 0 00-.204-.942 1.705 1.705 0 00-.588-.649 1.536 1.536 0 00-.849-.238 1.588 1.588 0 00-1.454.895 2.054 2.054 0 00-.21.937c-.006.322.066.642.21.931.136.267.341.494.594.654.258.164.556.248.861.244h-.001zm4.404 1.098v-5.844h1.363v5.844h-1.363zm.665-7.084a.916.916 0 01-.637-.206.741.741 0 01-.228-.582.763.763 0 01.233-.576.88.88 0 01.632-.222.935.935 0 01.648.205.75.75 0 01.228.593.738.738 0 01-.233.566.893.893 0 01-.643.222zm4.936 7.195a2.774 2.774 0 01-1.479-.4 2.857 2.857 0 01-1.028-1.086 3.17 3.17 0 01-.377-1.552 3.172 3.172 0 01.377-1.553c.24-.447.595-.822 1.028-1.087a2.78 2.78 0 011.479-.399c.492-.007.98.095 1.428.298.404.18.75.467.998.832l-.753.91a1.908 1.908 0 00-.421-.422 2.308 2.308 0 00-.544-.3 1.604 1.604 0 00-.577-.11 1.618 1.618 0 00-1.474.892 1.96 1.96 0 00-.223.937c-.005.325.074.646.228.932.145.267.358.492.616.654.258.163.557.249.862.246.191 0 .381-.031.56-.094.185-.064.359-.156.516-.272.171-.126.324-.275.455-.443l.755.92a2.713 2.713 0 01-1.036.792c-.435.202-.91.306-1.39.305zm6.209 0a3.31 3.31 0 01-1.625-.388 2.833 2.833 0 01-1.097-1.06 2.974 2.974 0 01-.394-1.535 3.387 3.387 0 01.221-1.256c.139-.363.349-.697.615-.98a2.7 2.7 0 01.943-.644c.382-.153.791-.23 1.203-.224a2.63 2.63 0 011.076.222c.324.143.617.349.862.605.248.26.438.57.559.909.134.367.196.757.186 1.148l-.012.476h-4.734l-.255-.932h3.848l-.178.188v-.246a1.21 1.21 0 00-.22-.602 1.342 1.342 0 00-.483-.412 1.408 1.408 0 00-.649-.148 1.829 1.829 0 00-.915.21c-.245.139-.441.35-.561.605a2.25 2.25 0 00-.187.981 1.97 1.97 0 00.238.986c.157.279.392.504.678.648a2.2 2.2 0 001.024.23 2.09 2.09 0 00.754-.134 2.65 2.65 0 00.743-.477l.677.943a2.973 2.973 0 01-.683.468c-.255.13-.524.234-.8.308a3.27 3.27 0 01-.835.11h.001zm10.555 0a4.006 4.006 0 01-1.54-.288 3.475 3.475 0 01-1.21-.827 3.797 3.797 0 01-.792-1.275 4.463 4.463 0 01-.286-1.613 3.97 3.97 0 011.134-2.828 3.77 3.77 0 011.241-.842 3.932 3.932 0 011.54-.3 3.8 3.8 0 012.074.627c.283.184.535.415.742.682l-.918 1.009a3.711 3.711 0 00-.593-.505 2.518 2.518 0 00-.632-.308 2.18 2.18 0 00-.672-.105 2.452 2.452 0 00-.958.188 2.277 2.277 0 00-.777.533 2.515 2.515 0 00-.517.813c-.129.334-.192.69-.186 1.047-.003.363.058.724.186 1.064.113.307.289.586.517.821.229.231.505.411.81.527.331.125.682.188 1.036.184a2.544 2.544 0 001.348-.384 3.03 3.03 0 00.539-.425l.708 1.14c-.203.22-.443.404-.708.544a4.19 4.19 0 01-.993.382 4.44 4.44 0 01-1.093.139zm6.253 0a2.284 2.284 0 01-1.308-.4c-.4-.276-.724-.65-.942-1.086a3.351 3.351 0 01-.355-1.564 3.352 3.352 0 01.355-1.563c.219-.439.552-.81.965-1.075.411-.26.888-.395 1.374-.389.276-.003.55.04.809.128.236.08.453.202.644.36.181.151.337.331.46.532.121.198.206.416.25.644l-.3-.078v-1.464h1.375v5.844h-1.385v-1.397l.321-.056c-.057.21-.153.408-.283.583a2.157 2.157 0 01-.51.498 2.782 2.782 0 01-.677.35c-.255.09-.522.135-.793.133zm.377-1.209a1.527 1.527 0 001.414-.881c.142-.3.213-.628.206-.96a2.064 2.064 0 00-.206-.942 1.533 1.533 0 00-1.414-.876 1.506 1.506 0 00-.836.233 1.56 1.56 0 00-.561.643 2.129 2.129 0 00-.199.942c-.007.331.062.66.199.96.122.264.317.489.561.648.25.158.541.24.836.233zm4.535 1.098v-5.844h1.332l.022 1.198-.255.133c.079-.275.227-.525.431-.726a2.5 2.5 0 01.766-.527 2.2 2.2 0 01.908-.2 2.16 2.16 0 011.115.267c.307.185.545.467.677.8.165.424.242.877.228 1.33v3.569h-1.367v-3.47a1.921 1.921 0 00-.123-.74.84.84 0 00-.377-.431 1.208 1.208 0 00-.621-.128 1.533 1.533 0 00-.548.095c-.161.059-.307.15-.431.266a1.28 1.28 0 00-.289.393 1.1 1.1 0 00-.105.488v3.527h-1.363zm9.26.11a2.772 2.772 0 01-1.475-.398 2.863 2.863 0 01-1.033-1.087 3.181 3.181 0 01-.377-1.552 3.183 3.183 0 01.377-1.553 2.863 2.863 0 011.032-1.087 2.771 2.771 0 011.474-.399c.493-.006.982.096 1.431.3.404.178.75.466.998.831l-.752.91a1.927 1.927 0 00-.422-.422 2.338 2.338 0 00-.543-.3 1.6 1.6 0 00-.577-.11 1.614 1.614 0 00-.871.238 1.7 1.7 0 00-.604.655 1.958 1.958 0 00-.222.937c-.006.324.073.645.227.931.145.267.358.493.616.654.257.163.557.249.862.247a1.7 1.7 0 00.561-.095c.184-.064.358-.156.515-.271.171-.127.324-.276.455-.444l.757.92a2.731 2.731 0 01-1.037.79 3.276 3.276 0 01-1.392.306zm6.21 0a3.308 3.308 0 01-1.625-.387 2.829 2.829 0 01-1.098-1.06 2.973 2.973 0 01-.393-1.535 3.413 3.413 0 01.221-1.253 3.01 3.01 0 01.616-.981c.265-.28.587-.498.943-.643a3.11 3.11 0 011.202-.227c.37-.002.737.073 1.075.222a2.607 2.607 0 011.423 1.514c.133.367.196.757.186 1.148l-.012.476h-4.734l-.255-.932h3.848l-.178.188v-.246a1.211 1.211 0 00-.222-.605 1.326 1.326 0 00-.483-.41 1.403 1.403 0 00-.648-.15 1.833 1.833 0 00-.915.211 1.35 1.35 0 00-.559.604c-.136.31-.2.645-.19.982a1.97 1.97 0 00.24.985c.157.279.392.505.676.649a2.19 2.19 0 001.027.227c.257.003.513-.042.754-.133a2.62 2.62 0 00.742-.476l.678.942a2.962 2.962 0 01-.684.472 4.05 4.05 0 01-.804.308c-.272.072-.551.11-.831.11zm3.769-.11v-8.206h1.374v8.206h-1.374zm2.994 0v-8.206h1.375v8.206h-1.375zm5.079.11a2.277 2.277 0 01-1.308-.398 2.872 2.872 0 01-.943-1.087 3.364 3.364 0 01-.355-1.564 3.364 3.364 0 01.355-1.563c.219-.439.552-.81.965-1.075.41-.26.889-.395 1.375-.389.274-.003.548.04.809.128a2.054 2.054 0 011.103.892c.121.198.204.416.247.644l-.3-.078v-1.464h1.375v5.844h-1.387v-1.397l.322-.056c-.057.21-.152.408-.282.583a2.176 2.176 0 01-.51.498 2.789 2.789 0 01-.678.35c-.253.09-.52.134-.788.133zm.377-1.208c.297.006.589-.075.843-.233.247-.158.444-.383.571-.648.142-.3.211-.628.205-.96a2.102 2.102 0 00-.205-.942 1.581 1.581 0 00-.571-.643 1.542 1.542 0 00-.843-.233 1.504 1.504 0 00-.837.233c-.243.158-.438.38-.56.643a2.115 2.115 0 00-.199.942c-.008.331.06.66.199.96.122.264.315.489.56.648.249.158.541.24.837.233zm5.167 1.098V43.8h1.364v7.33h-1.364zm-1.154-4.58v-1.264h3.791v1.264h-3.791zm4.989 4.58v-5.844h1.364v5.844h-1.364zm.665-7.084a.917.917 0 01-.637-.206.724.724 0 01-.177-.265.728.728 0 01-.05-.317.75.75 0 01.233-.576.877.877 0 01.631-.222.938.938 0 01.649.205c.079.077.14.17.178.272.04.102.057.212.049.321a.738.738 0 01-.233.566.893.893 0 01-.642.222h-.001zm5.103 7.195a3.093 3.093 0 01-1.564-.394 2.91 2.91 0 01-1.087-1.081 3.046 3.046 0 01-.398-1.563 3.046 3.046 0 01.398-1.564 2.91 2.91 0 011.087-1.081 3.095 3.095 0 011.564-.394 3.067 3.067 0 011.552.394c.452.256.825.63 1.081 1.081.268.477.403 1.017.394 1.564a3.087 3.087 0 01-.394 1.563 2.864 2.864 0 01-1.081 1.081 3.065 3.065 0 01-1.552.394zm0-1.209c.301.004.595-.081.847-.246.25-.164.452-.39.588-.654a1.87 1.87 0 00.206-.932 1.913 1.913 0 00-.206-.942 1.682 1.682 0 00-.588-.649 1.531 1.531 0 00-.847-.238 1.585 1.585 0 00-1.455.895 2.017 2.017 0 00-.211.937c-.006.322.066.642.211.931.135.267.339.494.593.654.257.164.557.248.862.244zm4.246 1.098v-5.844h1.331l.022 1.198-.255.133c.078-.275.228-.525.431-.726.22-.222.48-.4.765-.527a2.2 2.2 0 01.91-.2c.388-.013.773.079 1.114.267.308.185.546.467.678.8.163.424.241.877.226 1.33v3.569h-1.363v-3.47a1.922 1.922 0 00-.124-.74.835.835 0 00-.377-.431 1.199 1.199 0 00-.62-.127 1.537 1.537 0 00-.549.094 1.29 1.29 0 00-.719.66 1.13 1.13 0 00-.106.488v3.526h-1.364zm10.168 0v-5.844h1.364v5.844h-1.364zm.665-7.084a.917.917 0 01-.637-.206.724.724 0 01-.177-.265.728.728 0 01-.05-.317.762.762 0 01.232-.576.88.88 0 01.632-.222.939.939 0 01.65.205c.078.077.139.17.179.272a.765.765 0 01.047.321.738.738 0 01-.233.566.893.893 0 01-.643.222zm4.381 7.195a3.546 3.546 0 01-1.392-.26 2.502 2.502 0 01-1.004-.75l.885-.764a2 2 0 00.743.543c.274.11.567.167.863.166.114.002.228-.013.338-.044a.757.757 0 00.26-.133.574.574 0 00.234-.466.503.503 0 00-.2-.421 1.667 1.667 0 00-.349-.167 5.378 5.378 0 00-.616-.177 4.895 4.895 0 01-.999-.36 2.054 2.054 0 01-.62-.46 1.415 1.415 0 01-.283-.477 1.714 1.714 0 01-.094-.577 1.45 1.45 0 01.171-.704c.117-.214.278-.4.473-.549.208-.16.445-.28.698-.355a2.82 2.82 0 01.831-.123 3.324 3.324 0 011.635.427c.232.13.44.296.617.493l-.754.831a2.879 2.879 0 00-.965-.6 1.384 1.384 0 00-.476-.095 1.659 1.659 0 00-.377.039.799.799 0 00-.278.116.545.545 0 00-.233.466.642.642 0 00.072.25.53.53 0 00.171.193c.117.07.24.129.367.178.205.08.417.142.632.188.312.079.616.186.909.322.216.099.412.238.577.41.136.128.239.288.299.466.061.19.09.388.088.588.005.334-.098.66-.294.931-.203.28-.476.5-.791.64-.357.161-.746.24-1.138.235zm10.279 0a3.92 3.92 0 01-1.54-.3 3.742 3.742 0 01-2.052-2.106 4.356 4.356 0 01-.288-1.597 4.355 4.355 0 01.288-1.597 3.742 3.742 0 012.052-2.107 3.92 3.92 0 011.54-.299 3.953 3.953 0 011.552.3c.464.193.883.48 1.232.842.35.367.624.798.808 1.27a4.25 4.25 0 01.288 1.592 4.276 4.276 0 01-.288 1.585 3.861 3.861 0 01-.809 1.275c-.349.363-.768.65-1.233.843a3.948 3.948 0 01-1.55.299zm0-1.375c.333.004.664-.062.97-.194.29-.128.549-.317.759-.555a2.67 2.67 0 00.504-.837c.127-.333.188-.686.186-1.042a2.877 2.877 0 00-.186-1.042 2.673 2.673 0 00-.504-.837 2.198 2.198 0 00-.759-.555 2.367 2.367 0 00-.97-.194 2.378 2.378 0 00-.965.194 2.218 2.218 0 00-.765.549 2.54 2.54 0 00-.499.831 3.024 3.024 0 00-.178 1.054c-.003.357.057.711.178 1.047.11.309.28.593.499.837.213.236.473.423.765.55.304.13.633.197.965.194zm5.443 1.264v-7.762h1.298l4.502 6.065-.246.045a15.852 15.852 0 01-.078-.638 22.223 22.223 0 01-.106-1.425c-.011-.258-.02-.53-.028-.815a42.73 42.73 0 01-.01-.903v-2.329h1.43v7.762h-1.32l-4.52-5.976.288-.077.094 1.059a55.675 55.675 0 01.1 1.28 9.39 9.39 0 01.028.71v3.004h-1.432z" fill="#fff"/><path fill-rule="evenodd" clip-rule="evenodd" d="M266.671 47.252a2.114 2.114 0 01-1.559-.61 1.895 1.895 0 01-.208-.246l-2.274-3.234-.887 1.031a1.885 1.885 0 01-.584.456 2.176 2.176 0 01-.979.236 2.034 2.034 0 01-1.977-1.532l-3.148-13.049a1.874 1.874 0 01-.053-.441 2.061 2.061 0 012.047-2.067 2.028 2.028 0 011.105.33l11.118 7.413a1.982 1.982 0 01.942 1.696 2.104 2.104 0 01-1.337 1.942l-1.249.47 2.204 3.219a1.983 1.983 0 01-.4 2.827l-1.657 1.203a1.885 1.885 0 01-1.104.356z" fill="#fff"/><path d="M257.051 29.675c.02 0 .042.005.061.015l11.164 7.44c.114.058.056.23-.058.286l-3.491 1.317 3.605 5.266c.014.01.025.023.032.038a.1.1 0 010 .096.098.098 0 01-.032.038l-1.659 1.202c-.115 0-.172 0-.228-.058l-3.663-5.208-2.465 2.862a.314.314 0 01-.138.037.16.16 0 01-.148-.094l-3.148-13.05a.186.186 0 01.168-.184m0-3.758a3.942 3.942 0 00-3.927 3.947c0 .297.035.593.106.882l3.146 13.049a3.92 3.92 0 001.737 2.39 3.912 3.912 0 002.068.584 4.088 4.088 0 002.216-.665l.969 1.377a3.981 3.981 0 003.305 1.651 3.75 3.75 0 002.205-.714l1.66-1.202a3.864 3.864 0 00.818-5.459l-.902-1.315a4.004 4.004 0 001.643-3.212 3.85 3.85 0 00-1.809-3.279l-11.088-7.392a3.92 3.92 0 00-2.147-.647v.005z" fill="#fff"/><path fill-rule="evenodd" clip-rule="evenodd" d="M266.67 46.5a1.367 1.367 0 01-1.027-.388 1.162 1.162 0 01-.123-.148l-2.829-4.023-1.518 1.76a1.136 1.136 0 01-.352.274 1.426 1.426 0 01-.642.157 1.296 1.296 0 01-1.158-.718 1.267 1.267 0 01-.087-.24l-3.147-13.05a1.298 1.298 0 01.344-1.189c.241-.246.572-.387.918-.39a1.275 1.275 0 01.69.204l11.13 7.42a1.236 1.236 0 01.594 1.062 1.347 1.347 0 01-.849 1.238l-2.146.81 2.761 4.032c.19.239.285.54.267.845a1.23 1.23 0 01-.504.924l-1.66 1.202a1.13 1.13 0 01-.662.218z" fill="#fff"/><path d="M257.05 29.674c.021 0 .043.005.062.015l11.161 7.438c.114.058.056.23-.058.286l-3.491 1.317 3.605 5.266c.014.01.025.023.032.037a.101.101 0 010 .096.098.098 0 01-.032.038l-1.658 1.202c-.116 0-.173 0-.23-.057l-3.663-5.208-2.464 2.862a.319.319 0 01-.138.037.155.155 0 01-.147-.095L256.88 29.86a.186.186 0 01.168-.185m0-2.255a2.436 2.436 0 00-2.362 2.972l3.148 13.049a2.404 2.404 0 002.341 1.822 2.542 2.542 0 001.146-.276 2.26 2.26 0 00.703-.547l.571-.665 1.996 2.838c.075.107.159.206.25.298a2.479 2.479 0 001.825.718 2.25 2.25 0 001.324-.431l1.659-1.202c.097-.07.188-.148.272-.232a2.35 2.35 0 00.208-3.126l-1.923-2.81.8-.301a2.71 2.71 0 00.214-.093c.407-.206.751-.52.993-.908.24-.389.37-.836.373-1.293a2.351 2.351 0 00-1.116-2.012l-11.106-7.407a2.406 2.406 0 00-1.314-.394h-.002z" fill="#131032"/><path d="M112.163 63.86a3.745 3.745 0 012.648 6.39 3.74 3.74 0 01-4.079.812 3.744 3.744 0 011.431-7.202zm65.559 6.292h-52.968a2.462 2.462 0 01-2.464-2.464 2.465 2.465 0 012.464-2.464h52.968a2.468 2.468 0 012.465 2.464 2.465 2.465 0 01-2.465 2.464z" fill="#E4E7EA"/></svg>