<svg width="673" height="439" fill="none" xmlns="http://www.w3.org/2000/svg"><g filter="url(#filter0_d_2134_1019)"><rect x="9" y="9" width="651" height="417" rx="16" fill="#F2EDEA"/><rect x="8.5" y="8.5" width="652" height="418" rx="16.5" stroke="#D3CBD3"/></g><rect x="25" y="25" width="619" height="385" rx="8" fill="#fff"/><path d="M25 33a8 8 0 018-8h603a8 8 0 018 8v26H25V33z" fill="#DDD"/><path d="M33 69a2 2 0 012-2h102a2 2 0 012 2v307a2 2 0 01-2 2H35a2 2 0 01-2-2V69z" fill="#E8E8E8"/><rect x="147" y="91" width="360" height="287" rx="2" fill="#E8E8E8"/><rect x="147" y="67" width="360" height="16" rx="2" fill="#E8E8E8"/><path d="M33 388a2 2 0 012-2h599a2 2 0 012 2v12a2 2 0 01-2 2H35a2 2 0 01-2-2v-12zM620 69a2 2 0 012-2h12a2 2 0 012 2v307a2 2 0 01-2 2h-12a2 2 0 01-2-2V69z" fill="#E8E8E8"/><rect x="515" y="67" width="97" height="311" rx="2" fill="#E8E8E8"/><defs><filter id="filter0_d_2134_1019" x="0" y="0" width="673" height="439" filterUnits="userSpaceOnUse" color-interpolation-filters="sRGB"><feFlood flood-opacity="0" result="BackgroundImageFix"/><feColorMatrix in="SourceAlpha" values="0 0 0 0 0 0 0 0 0 0 0 0 0 0 0 0 0 0 127 0" result="hardAlpha"/><feOffset dx="2" dy="2"/><feGaussianBlur stdDeviation="5"/><feComposite in2="hardAlpha" operator="out"/><feColorMatrix values="0 0 0 0 0 0 0 0 0 0 0 0 0 0 0 0 0 0 0.1 0"/><feBlend in2="BackgroundImageFix" result="effect1_dropShadow_2134_1019"/><feBlend in="SourceGraphic" in2="effect1_dropShadow_2134_1019" result="shape"/></filter></defs></svg>