<svg width="336" height="470" fill="none" xmlns="http://www.w3.org/2000/svg"><g clip-path="url(#clip0_2957_46868)"><path d="M0 0h336v470H0V0z" fill="#fff"/><g filter="url(#filter0_d_2957_46868)"><path d="M0 0h336v470H0V0z" fill="#F0F0F0"/></g><path d="M16 0C7.163 0 0 7.163 0 16v288.381h70.112c21.056 0 42 3.133 61.936 9.96 11.2 3.804 23.184 5.931 35.616 5.931 12.432 0 24.416-2.127 35.616-5.931 19.936-6.827 40.88-9.96 61.936-9.96H336V16c0-8.837-7.163-16-16-16H16z" fill="#212121"/><path d="M0 440.905h336V470H0v-29.095z" fill="#000"/><path d="M321.44 454.557l-1.344-1.231c-.112-.112-.224-.112-.336 0l-1.232 1.231v-5.147h-7.168v-.896c0-.447.448-.895.896-.895h11.536c.336 0 .56-.224.56-.559 0-.336-.224-.56-.448-.56h-11.648c-1.12 0-2.016.895-2.016 2.014v14.436c0 .224.112.336.224.336h11.872c1.12 0 2.016-.896 2.016-2.015V449.41h-2.912v5.147zm-8.176 6.938c0 .336-.224.56-.56.56-.336 0-.56-.224-.56-.56v-10.519c0-.336.224-.559.56-.559.336 0 .56.223.56.559v10.519z" fill="#F0F0F0"/><path d="M144.48 372.519v-9.823h6.318v1.421h-4.578v2.69h4.306v1.435h-4.306v4.277h-1.74zm11.937.124c-.933 0-1.748-.202-2.445-.607a4.206 4.206 0 01-1.604-1.752c-.371-.763-.557-1.66-.557-2.69 0-1.021.186-1.909.557-2.663.372-.763.902-1.347 1.59-1.752.697-.405 1.517-.607 2.459-.607.942 0 1.757.202 2.446.607a3.903 3.903 0 011.589 1.752c.372.754.557 1.642.557 2.663 0 1.03-.185 1.927-.557 2.69a4.102 4.102 0 01-1.589 1.752c-.689.405-1.504.607-2.446.607zm0-1.421c.897 0 1.594-.313 2.092-.938s.748-1.522.748-2.69c0-1.159-.25-2.047-.748-2.663-.498-.625-1.195-.938-2.092-.938s-1.594.308-2.092.924c-.498.616-.747 1.509-.747 2.677 0 1.168.249 2.065.747 2.69s1.195.938 2.092.938zm10.774 1.421c-.951 0-1.785-.207-2.5-.621a4.151 4.151 0 01-1.63-1.752c-.381-.763-.571-1.655-.571-2.676 0-1.012.19-1.895.571-2.649.38-.764.923-1.348 1.63-1.752.715-.414 1.549-.621 2.5-.621.652 0 1.263.106 1.834.317.58.202 1.06.488 1.44.855l-.571 1.297c-.434-.358-.869-.616-1.304-.772a3.758 3.758 0 00-1.372-.249c-.933 0-1.658.309-2.174.925-.507.616-.761 1.499-.761 2.649 0 1.159.254 2.051.761 2.676.507.616 1.232.925 2.174.925.489 0 .946-.079 1.372-.235.435-.166.87-.428 1.304-.786l.571 1.297c-.38.367-.86.657-1.44.869a5.446 5.446 0 01-1.834.303zm8.909 0c-1.332 0-2.342-.345-3.03-1.035-.679-.699-1.019-1.719-1.019-3.062v-5.85h1.725v5.946c0 .846.195 1.49.585 1.932.389.432.969.648 1.739.648.751 0 1.322-.221 1.711-.662.399-.442.598-1.081.598-1.918v-5.946h1.726v5.85c0 1.333-.344 2.35-1.033 3.049-.688.699-1.689 1.048-3.002 1.048zm9.336 0a7.04 7.04 0 01-2.093-.303c-.643-.203-1.191-.492-1.644-.869l.598-1.297c.471.358.96.625 1.467.8.546.17 1.114.253 1.685.248.67 0 1.187-.119 1.549-.359.371-.239.557-.574.557-1.007 0-.368-.172-.648-.516-.841-.335-.203-.892-.391-1.671-.566-1.214-.267-2.097-.612-2.65-1.035-.552-.423-.828-1.039-.828-1.848 0-.58.153-1.095.461-1.546.308-.45.743-.804 1.305-1.062.57-.257 1.227-.386 1.97-.386.679 0 1.322.106 1.929.317.616.202 1.119.488 1.508.855l-.584 1.297c-.861-.699-1.812-1.048-2.853-1.048-.625 0-1.119.133-1.481.4a1.233 1.233 0 00-.544 1.062c0 .387.159.681.476.883.326.203.878.391 1.657.566.807.193 1.463.405 1.97.635.508.22.897.51 1.169.869.272.349.407.791.407 1.324 0 .589-.154 1.104-.461 1.545-.308.433-.752.768-1.332 1.007-.58.24-1.263.359-2.051.359z" fill="#212121"/><path d="M125.467 270.201h4.153c1.03 0 1.832.251 2.406.752.573.492.86 1.168.86 2.028 0 .859-.292 1.539-.874 2.041-.573.501-1.371.752-2.392.752h-2.419v3.988h-1.734v-9.561zm3.951 4.23c.6 0 1.053-.121 1.358-.363.313-.25.47-.608.47-1.074 0-.474-.152-.832-.457-1.074-.305-.251-.762-.376-1.371-.376h-2.217v2.887h2.217zm12.876 5.331h-1.828l-1.223-3.182c-.108-.296-.273-.502-.497-.618-.224-.117-.515-.175-.874-.175h-1.734v3.975h-1.72v-9.561h4.099c1.084 0 1.909.237 2.473.712.565.474.847 1.155.847 2.041 0 .635-.17 1.177-.511 1.625-.331.438-.806.752-1.424.94.564.116.972.51 1.223 1.181l1.169 3.062zm-4.019-5.318c.654 0 1.138-.12 1.452-.362.313-.242.47-.609.47-1.101 0-.484-.157-.842-.47-1.075-.305-.241-.789-.362-1.452-.362h-2.164v2.9h2.164zm9.761 5.439c-.923 0-1.729-.197-2.419-.591a4.113 4.113 0 01-1.586-1.705c-.367-.743-.551-1.616-.551-2.619 0-.994.184-1.858.551-2.592.368-.743.892-1.311 1.573-1.705.69-.394 1.5-.591 2.432-.591.932 0 1.739.197 2.42.591a3.826 3.826 0 011.572 1.705c.367.734.551 1.598.551 2.592 0 1.003-.184 1.876-.551 2.619a4.031 4.031 0 01-1.572 1.705c-.681.394-1.488.591-2.42.591zm0-1.383c.887 0 1.577-.305 2.07-.913.493-.609.739-1.482.739-2.619 0-1.128-.246-1.992-.739-2.592-.493-.608-1.183-.913-2.07-.913-.887 0-1.577.3-2.069.9-.493.6-.74 1.468-.74 2.605s.247 2.01.74 2.619c.492.608 1.182.913 2.069.913zm10.661 1.383c-.941 0-1.765-.201-2.473-.604a4.064 4.064 0 01-1.613-1.706c-.376-.743-.564-1.611-.564-2.605 0-.985.188-1.844.564-2.578a3.965 3.965 0 011.613-1.706c.708-.402 1.532-.604 2.473-.604.645 0 1.25.103 1.814.309.574.197 1.049.474 1.425.833l-.564 1.262c-.43-.349-.861-.6-1.291-.752a3.79 3.79 0 00-1.357-.242c-.923 0-1.64.3-2.15.9-.502.6-.753 1.459-.753 2.578 0 1.128.251 1.996.753 2.605.501.6 1.218.9 2.15.9.484 0 .936-.076 1.357-.228.43-.161.861-.417 1.291-.766l.564 1.263c-.376.358-.851.64-1.425.846-.584.2-1.197.3-1.814.295zm4.86-.121v-9.561h6.397v1.37h-4.704v2.645h4.422v1.37h-4.422v2.806h4.704v1.37h-6.397zm11.1.121a7.066 7.066 0 01-2.069-.295c-.636-.197-1.179-.479-1.627-.846l.592-1.263c.466.349.95.609 1.451.779.54.166 1.102.247 1.667.242.663 0 1.174-.117 1.532-.349.367-.233.551-.56.551-.981 0-.358-.17-.631-.511-.819-.331-.197-.882-.38-1.653-.55-1.2-.26-2.074-.596-2.621-1.007-.546-.412-.819-1.012-.819-1.8 0-.564.152-1.065.457-1.504.304-.439.734-.783 1.29-1.034.564-.251 1.214-.376 1.949-.376.672 0 1.308.103 1.908.309.609.197 1.107.474 1.492.833l-.578 1.262c-.851-.681-1.792-1.021-2.822-1.021-.619 0-1.107.13-1.465.39-.359.25-.538.595-.538 1.034 0 .376.157.662.47.859.323.197.87.381 1.64.551.798.188 1.447.394 1.949.617.502.215.887.497 1.156.846.269.341.403.77.403 1.29 0 .572-.152 1.074-.457 1.504-.305.42-.744.747-1.317.98-.574.233-1.25.349-2.03.349zm8.648 0a7.073 7.073 0 01-2.07-.295c-.636-.197-1.178-.479-1.626-.846l.591-1.263c.466.349.95.609 1.452.779.51.161 1.066.242 1.666.242.663 0 1.174-.117 1.532-.349.368-.233.551-.56.551-.981 0-.358-.17-.631-.51-.819-.332-.197-.883-.38-1.653-.55-1.201-.26-2.075-.596-2.621-1.007-.547-.412-.82-1.012-.82-1.8 0-.564.152-1.065.457-1.504.305-.439.735-.783 1.29-1.034.565-.251 1.214-.376 1.949-.376.672 0 1.308.103 1.908.309.61.197 1.107.474 1.492.833l-.578 1.262c-.851-.681-1.792-1.021-2.822-1.021-.618 0-1.107.13-1.465.39-.358.25-.538.595-.538 1.034 0 .376.157.662.471.859.322.197.869.381 1.64.551.797.188 1.447.394 1.948.617.502.215.887.497 1.156.846.269.341.403.77.403 1.29 0 .572-.152 1.074-.457 1.504-.304.42-.743.747-1.317.98-.573.233-1.25.349-2.029.349zm5.412-.121v-9.561h1.734v9.561h-1.734zm10.242-9.561h1.626v9.561h-1.29l-5.161-6.701v6.701h-1.613v-9.561h1.291l5.147 6.687v-6.687zm11.692 4.391v4.593c-.439.215-.967.385-1.586.51a9.5 9.5 0 01-1.895.188c-.985 0-1.841-.197-2.567-.591a3.993 3.993 0 01-1.666-1.692c-.385-.734-.578-1.611-.578-2.632 0-1.003.193-1.871.578-2.605a4.041 4.041 0 011.64-1.692c.716-.394 1.554-.591 2.513-.591a5.837 5.837 0 011.881.296c.592.196 1.085.474 1.479.832l-.592 1.262c-.448-.349-.887-.599-1.317-.752-.43-.152-.9-.228-1.411-.228-.985 0-1.734.296-2.244.886-.502.591-.753 1.455-.753 2.592 0 1.173.26 2.059.78 2.659.519.591 1.294.886 2.325.886.627 0 1.245-.085 1.854-.255v-2.417h-2.069v-1.249h3.628z" fill="#949494"/><path d="M148.836 299.796h3.338v-5.449c-.145.23-1.257 2.046-3.338 5.449zm3.298 5.704v-3.747h-6.073v-1.859l5.748-8.714h2.816v8.616h2.254v1.957h-2.205v3.747h-2.54zm11.654.227c-1.595 0-2.835-.679-3.721-2.036-.879-1.364-1.319-3.19-1.319-5.479 0-2.314.433-4.108 1.3-5.38.872-1.278 2.126-1.917 3.76-1.917 1.608 0 2.845.652 3.711 1.957.873 1.305 1.309 3.085 1.309 5.34 0 1.502-.187 2.813-.561 3.935-.374 1.114-.945 1.99-1.713 2.626-.761.636-1.683.954-2.766.954zm.04-2.135c1.634 0 2.451-1.79 2.451-5.37 0-.695-.043-1.337-.128-1.927a8.125 8.125 0 00-.404-1.633c-.177-.505-.43-.898-.758-1.18a1.667 1.667 0 00-1.152-.433 1.813 1.813 0 00-1.21.433c-.342.282-.604.675-.788 1.18a7.992 7.992 0 00-.404 1.633c-.085.59-.127 1.235-.127 1.937 0 .813.042 1.531.127 2.154.086.623.22 1.184.404 1.682.19.492.453.869.788 1.131.334.262.735.393 1.201.393zm20.339 2.105c-1.09 0-1.966-.351-2.629-1.052-.662-.702-.994-1.594-.994-2.675 0-1.063.332-1.951.994-2.666.663-.721 1.536-1.082 2.619-1.082 1.083 0 1.959.361 2.628 1.082.67.721 1.004 1.61 1.004 2.666 0 1.088-.331 1.983-.994 2.685-.663.695-1.539 1.042-2.628 1.042zm-.01-1.534c.518 0 .905-.174 1.161-.521.263-.348.394-.905.394-1.672 0-.735-.125-1.286-.374-1.653s-.643-.551-1.181-.551c-.532 0-.922.181-1.172.541-.249.361-.374.912-.374 1.653 0 .767.128 1.327.384 1.682.256.347.643.521 1.162.521zM173.85 305.5l9.165-14.32h1.998l-9.164 14.32h-1.999zm.778-7.032c-1.116 0-1.998-.328-2.648-.983-.65-.663-.974-1.577-.974-2.744 0-1.148.324-2.056.974-2.725.65-.675 1.532-1.013 2.648-1.013 1.109 0 1.989.338 2.638 1.013.656.675.985 1.584.985 2.725 0 1.173-.325 2.088-.975 2.744-.65.655-1.532.983-2.648.983zm0-1.534c.519 0 .906-.171 1.162-.512.256-.347.384-.904.384-1.672 0-.741-.125-1.295-.374-1.662-.243-.367-.634-.551-1.172-.551-.538 0-.932.184-1.181.551-.243.361-.364.912-.364 1.653 0 .767.128 1.324.384 1.672.255.347.643.521 1.161.521z" fill="#F0F0F0"/><path d="M59.36 50.358H43.68c-3.136 0-5.6-2.462-5.6-5.596 0-3.133 2.464-5.595 5.6-5.595h15.68c3.136 0 5.6 2.462 5.6 5.595 0 3.134-2.576 5.596-5.6 5.596z" fill="#373737"/><path d="M59.36 49.238a4.49 4.49 0 004.48-4.476 4.49 4.49 0 00-4.48-4.476c-2.463 0-4.48 2.014-4.48 4.476s2.017 4.476 4.48 4.476z" fill="#724DFF"/><path d="M17.842 49.34c-.77 0-1.441-.165-2.016-.493a3.428 3.428 0 01-1.322-1.421c-.306-.62-.46-1.347-.46-2.182 0-.828.154-1.548.46-2.16.284-.595.74-1.09 1.31-1.421.576-.328 1.25-.493 2.028-.493.776 0 1.448.164 2.016.493a3.185 3.185 0 011.31 1.42c.306.613.46 1.333.46 2.16 0 .836-.154 1.564-.46 2.183a3.355 3.355 0 01-1.31 1.42c-.568.329-1.24.494-2.016.494zm0-1.153c.739 0 1.314-.254 1.725-.761.41-.507.616-1.235.616-2.182 0-.94-.206-1.66-.616-2.16-.411-.507-.986-.761-1.725-.761-.74 0-1.314.25-1.725.75-.41.5-.616 1.223-.616 2.17 0 .948.205 1.676.616 2.183.41.507.985.76 1.725.76zm5.265 1.052v-7.97h5.208v1.154H24.54v2.182h3.55v1.164h-3.55v3.469h-1.434zm6.409 0v-7.97h5.208v1.154h-3.775v2.182h3.55v1.164h-3.55v3.469h-1.433z" fill="#424242"/><path d="M72.723 49.34c-.77 0-1.442-.165-2.016-.493a3.427 3.427 0 01-1.322-1.421c-.306-.62-.46-1.347-.46-2.182 0-.828.154-1.548.46-2.16.283-.595.74-1.09 1.31-1.421.575-.328 1.25-.493 2.028-.493.776 0 1.448.164 2.016.493a3.186 3.186 0 011.31 1.42c.306.613.46 1.333.46 2.16 0 .836-.154 1.564-.46 2.183a3.355 3.355 0 01-1.31 1.42c-.568.329-1.24.494-2.016.494zm0-1.153c.739 0 1.314-.254 1.724-.761.41-.507.616-1.235.616-2.182 0-.94-.205-1.66-.616-2.16-.41-.507-.985-.761-1.724-.761-.74 0-1.315.25-1.725.75-.41.5-.616 1.223-.616 2.17 0 .948.205 1.676.616 2.183.41.507.985.76 1.725.76zm10.63-6.916h1.355v7.968h-1.075l-4.3-5.584v5.584h-1.345v-7.97h1.075l4.29 5.574V41.27zm176.723 7.967l-.795-1.87h-3.898l-.806 1.87h-1.456l3.606-7.967h1.176l3.618 7.967h-1.445zm-4.211-2.988h2.934l-1.467-3.413-1.467 3.413z" fill="#724DFF"/><path d="M268.576 49.898H267.4l2.901-9.087h1.199l-2.924 9.087zm13.834-4.778c.462.135.817.37 1.064.706.253.335.38.75.38 1.242 0 .678-.242 1.213-.728 1.6-.478.38-1.146.57-2.004.57h-3.618v-7.966h3.506c.821 0 1.467.186 1.937.559.471.365.706.872.706 1.521 0 .419-.112.784-.336 1.098a1.855 1.855 0 01-.907.67zm-3.495-.491h1.859c1.001 0 1.501-.373 1.501-1.12 0-.373-.123-.653-.369-.84-.247-.185-.624-.28-1.132-.28h-1.859v2.24zm2.05 3.49c.522 0 .903-.093 1.142-.28.247-.185.37-.48.37-.883 0-.41-.123-.713-.37-.907-.239-.194-.62-.29-1.142-.29h-2.05v2.36h2.05z" fill="#949494"/><path d="M14.56 289.833c0-3.708 2.508-6.714 5.6-6.714h38.08c3.093 0 5.6 3.006 5.6 6.714 0 3.709-2.507 6.715-5.6 6.715H20.16c-3.092 0-5.6-3.006-5.6-6.715z" fill="#724DFF"/><path d="M32.377 292.931l-.637-1.495h-3.118l-.645 1.495h-1.165l2.886-6.374h.94l2.894 6.374h-1.155zm-3.37-2.391h2.348l-1.174-2.73-1.174 2.73zm7.806 2.471c-.878 0-1.544-.223-1.998-.671-.448-.454-.672-1.116-.672-1.988v-3.795h1.138v3.858c0 .549.128.967.385 1.253.257.281.639.421 1.147.421.495 0 .872-.143 1.129-.429.263-.287.394-.702.394-1.245v-3.858h1.138v3.795c0 .866-.227 1.525-.681 1.979-.454.454-1.114.68-1.98.68zm5.494-.08v-5.425h-2.08v-.949h5.333v.949h-2.088v5.425h-1.165zm6.506.08c-.615 0-1.153-.131-1.613-.394a2.736 2.736 0 01-1.057-1.137c-.245-.495-.368-1.077-.368-1.745 0-.663.123-1.239.368-1.728a2.62 2.62 0 011.048-1.137c.46-.263 1-.394 1.622-.394.62 0 1.159.131 1.613.394.46.263.81.642 1.048 1.137.245.489.367 1.065.367 1.728 0 .668-.122 1.25-.367 1.745-.245.49-.594.869-1.048 1.137-.454.263-.992.394-1.613.394zm0-.922c.59 0 1.05-.203 1.38-.609.328-.405.492-.987.492-1.745 0-.752-.164-1.328-.492-1.728-.33-.406-.79-.609-1.38-.609-.592 0-1.051.2-1.38.6-.328.4-.493.979-.493 1.737 0 .758.165 1.34.493 1.745.329.406.788.609 1.38.609zM16.507 22.121v-3.478h4.626V17.28h-4.626v-3.368h5.018v-1.38h-6.476V23.5h6.554v-1.38h-5.096zM35.515 23.5h1.615l-2.587-4.387c1.317-.47 2.273-1.74 2.273-3.18 0-1.88-1.536-3.4-3.418-3.4h-4.39V23.5h1.458v-4.2h2.587l2.462 4.2zm-5.05-9.604h2.933c1.082 0 1.96.909 1.96 2.037s-.878 2.052-1.96 2.052h-2.932v-4.09zM51.468 23.5h1.552l-4.093-10.967H47.28L43.187 23.5h1.553l.894-2.46h4.939l.894 2.46zm-5.332-3.823l1.96-5.405 1.976 5.405h-3.936zm83.988-.917h-1.455v3.395h-1.902V12.31h3.916c1.79 0 3.245 1.47 3.245 3.282a3.08 3.08 0 01-1.902 2.829l2.126 3.734h-2.014l-2.014-3.395zm-1.455-1.697h2.014c.671 0 1.343-.68 1.343-1.471 0-.792-.56-1.471-1.343-1.471h-2.014v2.942zm9.959 3.62c.671 0 1.231-.34 1.566-.68l1.455.793c-.671.906-1.678 1.47-3.021 1.47-2.35 0-3.805-1.583-3.805-3.733 0-2.037 1.455-3.734 3.693-3.734 2.014 0 3.469 1.584 3.469 3.734 0 .226 0 .453-.112.792h-5.259c.223.906 1.007 1.358 2.014 1.358zm1.455-2.716c-.224-1.018-1.008-1.47-1.679-1.47-1.007 0-1.567.565-1.79 1.47h3.469zm9.398-2.828l-2.685 7.016h-2.014l-2.574-7.016h2.014l1.679 4.866 1.678-4.866h1.902zm4.03 5.544c.671 0 1.231-.34 1.566-.68l1.455.793c-.671.906-1.679 1.47-3.021 1.47-2.35 0-3.805-1.583-3.805-3.733 0-2.037 1.455-3.734 3.693-3.734 2.014 0 3.469 1.584 3.469 3.734 0 .226 0 .453-.112.792h-5.26c.336.906 1.119 1.358 2.015 1.358zm1.566-2.716c-.224-1.018-1.007-1.47-1.678-1.47-1.007 0-1.567.565-1.791 1.47h3.469zm7.049-2.942v2.037c-.895-.113-2.126.34-2.126 1.81v3.396h-1.79v-7.13H160v1.245c.336-1.018 1.231-1.358 2.126-1.358zm8.282 3.622c0 2.037-1.567 3.734-3.357 3.734-1.007 0-1.791-.34-2.238-1.018v.792h-1.791V12.31h1.791v3.62c.447-.678 1.231-1.018 2.238-1.018 1.902 0 3.357 1.585 3.357 3.735zm-1.791 0c0-1.132-.783-1.924-1.902-1.924-1.119 0-1.902.792-1.902 1.924 0 1.13.783 1.923 1.902 1.923 1.119 0 1.902-.792 1.902-1.923zm10.071.113h-1.455v3.395h-1.902V12.31h3.805c1.79 0 3.245 1.47 3.245 3.28a3.082 3.082 0 01-1.903 2.83l2.127 3.735h-2.015l-1.902-3.395zm-1.455-1.698h1.903c.671 0 1.342-.68 1.342-1.47 0-.793-.559-1.472-1.342-1.472h-2.015v2.942h.112zm9.848 3.62c.671 0 1.231-.34 1.567-.678l1.454.792c-.671.906-1.678 1.47-3.021 1.47-2.35 0-3.805-1.583-3.805-3.733 0-2.037 1.455-3.734 3.693-3.734 2.014 0 3.469 1.584 3.469 3.734 0 .226 0 .453-.112.792h-5.259c.335.906 1.119 1.358 2.014 1.358zm1.567-2.715c-.224-1.018-1.008-1.47-1.679-1.47-1.007 0-1.567.565-1.79 1.47h3.469zm13.316-.113v4.3h-1.791v-4.186c0-.793-.447-1.358-1.119-1.358-.783 0-1.342.565-1.342 1.584v3.96h-1.791v-4.186c0-.793-.447-1.358-1.119-1.358-.783 0-1.343.565-1.343 1.584v3.96h-1.79V15.14h1.79v.792c.336-.566 1.007-.906 1.903-.906.895 0 1.454.34 1.902 1.019.448-.68 1.119-1.02 2.014-1.02 1.679-.112 2.686 1.02 2.686 2.83v-.001zm1.23.792c0-2.037 1.567-3.734 3.693-3.734 2.014 0 3.693 1.584 3.693 3.734 0 2.037-1.679 3.734-3.693 3.734-2.014-.113-3.693-1.697-3.693-3.734zm5.595 0c0-1.132-.783-1.924-1.902-1.924a1.892 1.892 0 00-1.765 1.188 1.891 1.891 0 00-.137.736c0 1.132.783 1.924 1.902 1.924 1.119 0 1.902-.792 1.902-1.924zm9.287-3.507l-2.686 7.016h-2.014l-2.686-7.016h2.015l1.678 4.866 1.679-4.866h2.014zm4.14 5.544c.671 0 1.231-.34 1.566-.68l1.455.793c-.671.906-1.678 1.47-3.021 1.47-2.35 0-3.805-1.583-3.805-3.733 0-2.037 1.455-3.734 3.693-3.734 2.014 0 3.469 1.584 3.469 3.734 0 .226 0 .453-.112.792h-5.259c.223.906 1.007 1.358 2.014 1.358zm1.454-2.716c-.223-1.018-1.007-1.47-1.678-1.47-1.007 0-1.567.565-1.79 1.47h3.468zm7.05-2.942v2.037c-.895-.113-2.126.34-2.126 1.81v3.396h-1.79v-7.13h1.79v1.245c.336-1.018 1.231-1.358 2.126-1.358z" fill="#F0F0F0"/><path d="M114.345 22.267h-1.007L106.4 18.76v-2.037l6.938-3.62h1.007l6.938 3.62v2.037l-6.938 3.508zm-5.035-4.526l4.476 2.377 4.476-2.377-4.476-2.377-4.476 2.377z" fill="#724DFF"/><path d="M278.096 22.158s-.112-.448-.112-.896c-.336.672-.784 1.12-1.68 1.12-1.232 0-1.904-.896-1.904-2.462 0-1.455.784-2.35 1.792-2.91 1.12-.56 1.792-1.12 1.792-2.238 0-1.12-.336-1.79-1.232-1.79-.896 0-1.344.67-1.344 1.79v.336h-.672v-.336c0-1.455.56-2.462 2.016-2.462s2.016 1.007 2.016 2.686v5.595c0 .783.112 1.679.112 1.679h-.784v-.112zm-.112-5.82c-.224.448-.56.784-1.344 1.232-1.12.56-1.456 1.23-1.456 2.35 0 1.23.448 1.79 1.232 1.79s1.568-.783 1.568-1.902v-3.47zm4.144 6.043c-1.344 0-2.128-.895-2.128-2.574v-4.924c0-1.678.784-2.573 2.128-2.573 1.232 0 2.016.895 2.016 2.573v.224h-.672v-.224c0-1.23-.448-1.902-1.344-1.902-.896 0-1.344.67-1.344 1.902v4.812c0 1.23.448 1.903 1.344 1.903.896 0 1.344-.672 1.344-1.903v-.112h.672v.224c0 1.679-.784 2.574-2.016 2.574zm5.265 0c-1.232 0-2.016-.895-2.016-2.574v-4.924c0-1.678.784-2.573 2.016-2.573s2.016.895 2.016 2.573v.224h-.672v-.224c0-1.23-.448-1.902-1.344-1.902-.896 0-1.344.67-1.344 1.902v4.812c0 1.23.448 1.903 1.344 1.903.896 0 1.344-.672 1.344-1.903v-.112h.672v.224c0 1.679-.784 2.574-2.016 2.574zm12.096-7.274v-.56c0-.895-.448-1.566-1.232-1.566s-1.344.56-1.344 1.567c0 .67.336 1.23.784 1.678l1.568 1.455c.672.56 1.12 1.23 1.12 2.35 0 1.455-.784 2.35-2.128 2.35-1.568 0-2.128-1.12-2.128-2.462v-.448h.672v.448c0 1.12.448 1.79 1.456 1.79.896 0 1.456-.67 1.456-1.678 0-.671-.336-1.231-.784-1.79l-1.68-1.455c-.672-.56-1.12-1.231-1.12-2.238 0-1.343.784-2.238 2.016-2.238 1.344 0 2.016.895 2.016 2.238v.447h-.672v.112zm4.032 7.274c-1.232 0-2.128-.895-2.128-2.574v-4.924c0-1.678.896-2.573 2.128-2.573 1.344 0 2.24.895 2.24 2.573v4.812c0 1.79-.896 2.686-2.24 2.686zm1.456-7.498c0-1.23-.56-1.902-1.456-1.902-.896 0-1.456.67-1.456 1.902v4.812c0 1.23.56 1.903 1.456 1.903.896 0 1.456-.672 1.456-1.903v-4.812zm5.711 7.274v-7.274c0-1.23-.336-1.902-1.232-1.902-1.008 0-1.456.783-1.456 2.126v7.05h-.672V12.42H308v.784c.112-.56.784-.895 1.456-.895 1.344 0 1.904.783 1.904 2.573v7.274h-.672zm10.977-7.05v-.56c0-.895-.448-1.566-1.232-1.566s-1.344.56-1.344 1.567c0 .67.336 1.23.784 1.678l1.568 1.455c.672.56 1.12 1.23 1.12 2.35 0 1.343-.784 2.35-2.128 2.35-1.568 0-2.128-1.12-2.128-2.462v-.448h.672v.448c0 1.12.448 1.79 1.456 1.79.896 0 1.456-.67 1.456-1.678 0-.671-.336-1.231-.784-1.79l-1.568-1.455c-.672-.56-1.12-1.231-1.12-2.238 0-1.343.784-2.238 2.016-2.238s1.904.895 1.904 2.238v.447h-.672v.112zm-5.153-2.686v7.274c0 1.23-.56 1.903-1.456 1.903-.896 0-1.456-.672-1.456-1.903V12.42h-.672v7.274c0 1.79.896 2.574 2.128 2.574 1.232 0 2.128-.895 2.128-2.574V12.42h-.672zm-22.287 6.155v1.12c0 1.23-.56 1.902-1.456 1.902-.896 0-1.456-.672-1.456-1.903V12.42h-.672v7.274c0 1.567.784 2.462 1.904 2.574v4.7c-.224.112-.448.336-.448.67 0 .449.336.673.672.673.448 0 .672-.336.672-.672 0-.335-.224-.56-.448-.671V22.38c1.12-.112 1.904-1.007 1.904-2.574V12.42h-.672v6.155z" fill="#F0F0F0"/><path fill-rule="evenodd" clip-rule="evenodd" d="M90.057 391.666h-7.178v-2.238h8.502l12.32 22.381h7.178v2.238h-8.502l-12.32-22.381zm76.365 0h7.178v-2.238h-8.503l-12.32 22.381H145.6v2.238h8.502l12.32-22.381zm134.613 22.381h-9.589l-5.6-22.381h-6.965v-2.238h8.714l5.6 22.381h6.091l5.6-22.381h8.715v2.238h-6.966l-5.6 22.381zm-80.151-24.619h9.589l5.6 22.381h6.965v2.238h-8.714l-5.6-22.381h-6.091l-5.6 22.381h-8.715v-2.238h6.966l5.6-22.381z" fill="#212121"/><path fill-rule="evenodd" clip-rule="evenodd" d="M48.16 402.857H21.28v-2.238h26.88v2.238z" fill="#724DFF"/><path d="M260.959 160.024c0 51.297-41.62 92.881-92.96 92.881-51.34 0-92.96-41.584-92.96-92.881s41.62-92.88 92.96-92.88c51.34 0 92.96 41.583 92.96 92.88z" fill="#000"/><path d="M123.76 236.585a88.441 88.441 0 01-32.418-32.415 88.342 88.342 0 01.13-88.517 88.443 88.443 0 0132.513-32.319L168 160.024l-44.24 76.561z" fill="#724DFF"/><path fill-rule="evenodd" clip-rule="evenodd" d="M123.266 236.416l4.48-8.393.988.527-4.48 8.392-.988-.526zm88.48.526l-4.48-8.392.988-.527 4.48 8.393-.988.526z" fill="#949494"/><path d="M247.519 160.024c0 43.881-35.603 79.453-79.52 79.453-43.918 0-79.52-35.572-79.52-79.453 0-43.88 35.602-79.452 79.52-79.452 43.917 0 79.52 35.572 79.52 79.452z" fill="#212121"/><path d="M131.038 100.416a2.236 2.236 0 01.823-3.057 2.242 2.242 0 013.059.823l8.385 14.545a2.223 2.223 0 01.222 1.699 2.234 2.234 0 01-1.045 1.358 2.239 2.239 0 01-3.059-.823l-8.385-14.545zM22.4 263.067c-.693 0-1.297-.148-1.815-.443a3.088 3.088 0 01-1.19-1.279c-.275-.558-.413-1.212-.413-1.964 0-.745.138-1.393.414-1.944a2.937 2.937 0 011.18-1.279c.517-.295 1.125-.443 1.823-.443.7 0 1.304.148 1.815.443.517.295.91.722 1.18 1.279.275.551.413 1.199.413 1.944 0 .752-.138 1.406-.414 1.964-.275.55-.668.977-1.18 1.279-.51.295-1.114.443-1.813.443zm0-1.037c.665 0 1.182-.229 1.552-.685.37-.457.554-1.111.554-1.964 0-.846-.184-1.494-.554-1.944-.37-.457-.887-.685-1.553-.685-.665 0-1.182.225-1.552.675-.37.45-.554 1.101-.554 1.954s.185 1.507.554 1.964c.37.456.888.685 1.553.685zm7.702 1.037c-.988 0-1.738-.252-2.248-.755-.504-.511-.756-1.256-.756-2.236v-4.271h1.28v4.341c0 .618.144 1.088.433 1.41.29.316.72.474 1.29.474.558 0 .982-.162 1.27-.484.296-.322.444-.789.444-1.4v-4.341h1.28v4.271c0 .973-.255 1.715-.766 2.226-.51.51-1.253.765-2.227.765zm6.182-.091v-6.103h-2.339v-1.068h5.998v1.068h-2.349v6.103h-1.31zm4.558-7.171h3.114c.773 0 1.375.188 1.805.564.43.37.645.877.645 1.521 0 .645-.218 1.155-.655 1.531-.43.376-1.028.564-1.794.564h-1.815v2.991h-1.3v-7.171zm2.963 3.173c.45 0 .79-.091 1.018-.272.236-.188.353-.457.353-.806 0-.356-.114-.624-.343-.805-.228-.188-.57-.282-1.028-.282h-1.663v2.165h1.663zm6.712 4.089c-.987 0-1.737-.252-2.247-.755-.504-.511-.756-1.256-.756-2.236v-4.271h1.28v4.341c0 .618.144 1.088.433 1.41.29.316.72.474 1.29.474.558 0 .982-.162 1.27-.484.296-.322.444-.789.444-1.4v-4.341h1.28v4.271c0 .973-.255 1.715-.766 2.226-.51.51-1.253.765-2.227.765zm6.183-.091v-6.103h-2.34v-1.068h5.998v1.068H58.01v6.103H56.7zM28.157 79.514v1.058H23.34v-.957l2.44-2.63c.288-.314.5-.603.634-.865s.202-.52.202-.776c0-.328-.098-.577-.293-.745-.188-.168-.46-.252-.816-.252-.632 0-1.28.249-1.946.746l-.433-.947c.282-.255.645-.457 1.09-.604a4.03 4.03 0 011.34-.232c.72 0 1.286.178 1.703.534.423.349.635.822.635 1.42 0 .41-.09.796-.272 1.158-.175.363-.47.769-.887 1.219l-1.764 1.873h3.185zm3.926-3.524c.45 0 .847.097 1.19.29.342.189.608.458.796.807.188.343.282.739.282 1.188 0 .47-.107.887-.322 1.25a2.2 2.2 0 01-.928.835c-.403.195-.87.292-1.4.292-.45 0-.895-.074-1.33-.22a3.169 3.169 0 01-1.08-.616l.433-.946c.652.496 1.318.745 1.996.745.45 0 .793-.11 1.03-.333.24-.228.361-.55.361-.966 0-.396-.124-.712-.373-.947-.242-.242-.567-.362-.977-.362-.283 0-.548.053-.797.16-.249.1-.473.256-.655.454h-.786V73.4h4.496v1.007h-3.226v1.954c.363-.248.793-.373 1.29-.373v.002zm-3.926 24.786v1.058H23.34v-.957l2.44-2.63c.288-.314.5-.603.634-.865s.202-.52.202-.775c0-.33-.098-.578-.293-.746-.188-.167-.46-.251-.816-.251-.632 0-1.28.248-1.946.745l-.433-.947c.282-.255.645-.456 1.09-.604a4.03 4.03 0 011.34-.232c.72 0 1.286.178 1.703.534.423.349.635.823.635 1.42 0 .41-.09.796-.272 1.158-.175.363-.47.769-.887 1.219l-1.764 1.873h3.185zm3.543 1.148c-.853 0-1.504-.312-1.955-.936-.443-.631-.665-1.548-.665-2.75 0-1.181.222-2.085.665-2.71.45-.623 1.102-.936 1.956-.936.853 0 1.502.313 1.945.937.45.618.676 1.52.676 2.709 0 1.195-.226 2.109-.676 2.74-.443.631-1.093.946-1.946.946zm0-1.017c.464 0 .8-.211 1.01-.634.214-.43.321-1.108.321-2.035 0-.913-.107-1.578-.322-1.994-.209-.423-.545-.634-1.008-.634-.464 0-.803.21-1.018.634-.209.416-.313 1.08-.313 1.994 0 .927.104 1.605.313 2.035.215.423.553.634 1.017.634zm-5.076 21.131h1.563v1.057h-4.425v-1.057h1.572v-4.623l-1.46.876v-1.158l1.994-1.209h.756v6.114zm5.46-3.525c.45 0 .846.097 1.19.292.341.188.607.456.795.805.188.343.282.739.282 1.189 0 .47-.107.886-.322 1.249a2.211 2.211 0 01-.928.836c-.403.194-.87.292-1.4.292a4.156 4.156 0 01-1.33-.222 3.153 3.153 0 01-1.08-.614l.433-.947c.652.497 1.318.745 1.996.745.45 0 .793-.11 1.028-.332.242-.228.363-.551.363-.967 0-.396-.124-.712-.373-.947-.242-.241-.568-.362-.977-.362-.283 0-.548.054-.797.161a1.82 1.82 0 00-.655.453h-.786v-4.22h4.496v1.007h-3.226v1.954c.363-.248.793-.372 1.29-.372zm-5.46 24.787h1.563v1.057h-4.425V143.3h1.572v-4.623l-1.46.876v-1.158l1.994-1.209h.756v6.114zm5.076 1.148c-.852 0-1.504-.312-1.955-.937-.443-.631-.665-1.548-.665-2.749 0-1.182.222-2.085.665-2.71.45-.624 1.102-.936 1.956-.936.853 0 1.502.312 1.945.936.45.618.676 1.521.676 2.71 0 1.195-.225 2.108-.676 2.739-.443.631-1.093.947-1.946.947zm0-1.017c.465 0 .8-.212 1.01-.635.214-.43.321-1.108.321-2.034 0-.914-.107-1.578-.322-1.995-.208-.423-.544-.634-1.008-.634-.464 0-.803.211-1.018.634-.209.417-.313 1.081-.313 1.995 0 .926.104 1.604.313 2.034.215.423.553.635 1.017.635zm.383 17.606c.45 0 .847.097 1.19.292.342.188.608.456.796.805.188.343.282.739.282 1.189 0 .47-.107.886-.322 1.249a2.211 2.211 0 01-.928.836c-.403.194-.87.292-1.4.292a4.156 4.156 0 01-1.33-.222 3.153 3.153 0 01-1.08-.614l.433-.947c.652.497 1.318.745 1.996.745.45 0 .793-.11 1.03-.332.24-.228.361-.551.361-.967 0-.396-.124-.712-.373-.947-.242-.241-.568-.362-.977-.362-.283 0-.548.054-.797.161a1.822 1.822 0 00-.655.453h-.786v-4.22h4.496v1.007h-3.226v1.954c.363-.248.793-.372 1.29-.372zm-.383 25.935c-.853 0-1.504-.312-1.955-.937-.443-.631-.665-1.547-.665-2.749 0-1.182.222-2.085.665-2.709.45-.625 1.102-.937 1.956-.937.853 0 1.502.312 1.945.937.45.617.676 1.521.676 2.709 0 1.195-.225 2.108-.676 2.739-.443.632-1.093.947-1.946.947zm0-1.017c.465 0 .8-.212 1.01-.635.214-.429.321-1.107.321-2.034 0-.913-.107-1.578-.322-1.994-.208-.423-.544-.635-1.008-.635-.464 0-.803.212-1.018.635-.209.416-.313 1.081-.313 1.994 0 .927.104 1.605.313 2.034.215.423.553.635 1.017.635zm-6.747 19.972v-1.007h3.034v1.007h-3.034zm7.132-2.366c.45 0 .847.097 1.19.292.342.188.608.456.796.805.188.343.282.739.282 1.189 0 .47-.107.886-.322 1.249a2.214 2.214 0 01-.928.836c-.403.194-.87.292-1.4.292a4.155 4.155 0 01-1.33-.222 3.153 3.153 0 01-1.08-.614l.434-.947c.651.497 1.317.745 1.995.745.45 0 .793-.111 1.03-.332.24-.228.361-.551.361-.967 0-.396-.124-.712-.373-.947-.242-.241-.568-.362-.977-.362-.283 0-.548.053-.797.161a1.822 1.822 0 00-.655.453h-.786v-4.22h4.495v1.007h-3.225v1.954c.363-.248.793-.372 1.29-.372zm-13.177 23.628v-1.007h3.034v1.007h-3.034zm7.716 1.158h1.563v1.058h-4.425v-1.058h1.572v-4.622l-1.46.876v-1.158l1.994-1.209h.756v6.113zm5.076 1.149c-.853 0-1.504-.313-1.955-.937-.443-.631-.665-1.548-.665-2.75 0-1.181.222-2.084.665-2.709.45-.624 1.102-.936 1.956-.936.853 0 1.502.312 1.945.936.45.618.676 1.521.676 2.709 0 1.196-.225 2.109-.676 2.74-.443.631-1.093.947-1.946.947zm0-1.018c.465 0 .8-.211 1.01-.634.214-.43.321-1.108.321-2.035 0-.913-.107-1.577-.322-1.994-.208-.423-.544-.634-1.008-.634-.464 0-.803.211-1.018.634-.209.417-.313 1.081-.313 1.994 0 .927.104 1.605.313 2.035.215.423.553.634 1.017.634zm1.764 46.808v-.994h1.265v-4.898c-.47.22-.947.407-1.432.561v-1.131a9.132 9.132 0 001.575-.699h1.107v6.187h1.29v.974h-3.805zm7.95.113c-.799 0-1.419-.34-1.86-1.018-.44-.682-.66-1.595-.66-2.739 0-1.158.215-2.054.65-2.69.435-.64 1.062-.959 1.88-.959.802 0 1.421.326 1.854.978.436.653.655 1.543.655 2.671 0 .75-.094 1.406-.28 1.967-.188.557-.473.995-.857 1.313-.38.318-.842.477-1.383.477zm.02-1.067c.815 0 1.224-.895 1.224-2.685 0-.348-.02-.669-.064-.964a4.01 4.01 0 00-.202-.817 1.34 1.34 0 00-.379-.59.833.833 0 00-.576-.216.905.905 0 00-.605.216 1.333 1.333 0 00-.394.59 4.024 4.024 0 00-.202.817 6.79 6.79 0 00-.064.968c0 .407.022.766.064 1.077.043.312.11.592.202.841.095.246.226.435.394.566a.951.951 0 00.601.197zm9.158.083c.223 0 .418-.044.585-.133.168-.091.3-.216.394-.373.098-.161.17-.336.217-.527.05-.19.073-.395.073-.614 0-.492-.106-.892-.32-1.2-.213-.312-.533-.467-.96-.467-.285 0-.526.077-.723.231a1.29 1.29 0 00-.418.59 2.538 2.538 0 00-.123.826c0 .226.023.436.07.63.048.193.12.37.215.531.1.157.232.282.4.373.17.089.367.133.59.133zm-.252.984c-.652 0-1.2-.24-1.643-.718-.44-.479-.66-1.11-.66-1.894 0-.357.05-.695.153-1.013.101-.318.247-.601.438-.85a2 2 0 01.758-.591 2.414 2.414 0 011.048-.221c.348 0 .642.072.881.217.243.141.412.288.507.442v-2.65h1.21v5.817l.045 1.348h-1.25l-.01-.645a.815.815 0 01-.148.232c-.069.078-.16.16-.275.245-.115.082-.264.15-.448.202a2.25 2.25 0 01-.606.079zm5.592-4.303H57c.167 0 .321-.015.462-.045.142-.032.274-.085.4-.157a.773.773 0 00.3-.305.964.964 0 00.108-.472c0-.354-.123-.595-.37-.723-.246-.131-.633-.196-1.16-.196h-.808v1.898zm.014 3.122h1.128c1.007 0 1.51-.336 1.51-1.008 0-.419-.113-.708-.339-.865-.223-.158-.623-.236-1.2-.236h-1.099v2.109zm-1.264 1.068v-7.161h1.983c.207 0 .392.005.556.015.164.007.351.025.561.054.214.027.4.066.562.118.16.05.323.12.487.212.316.171.554.458.664.801.07.187.104.399.104.635 0 .708-.317 1.218-.95 1.529.426.115.746.331.96.649.213.315.32.69.32 1.126 0 .273-.055.528-.163.768-.113.243-.276.46-.477.639-.21.19-.488.341-.832.452a3.81 3.81 0 01-1.162.163h-2.613z" fill="#949494"/><path fill-rule="evenodd" clip-rule="evenodd" d="M59.36 76.095v151.072H56V76.095h3.36z" fill="#424242"/><path fill-rule="evenodd" clip-rule="evenodd" d="M59.36 137.643v89.524H56v-89.524h3.36z" fill="#724DFF"/><path d="M57.681 129.809c5.876 0 10.64 4.76 10.64 10.631s-4.764 10.631-10.64 10.631-10.64-4.76-10.64-10.631 4.764-10.631 10.64-10.631z" fill="#724DFF"/><path d="M57.681 134.285a6.162 6.162 0 016.16 6.155 6.157 6.157 0 01-6.16 6.155 6.157 6.157 0 01-6.16-6.155 6.157 6.157 0 016.16-6.155z" fill="#212121"/><path d="M315.06 80.662c-.853 0-1.505-.312-1.955-.937-.444-.63-.666-1.547-.666-2.75 0-1.18.222-2.084.666-2.708.45-.625 1.102-.937 1.955-.937.854 0 1.502.312 1.946.937.45.617.675 1.52.675 2.71 0 1.194-.225 2.107-.675 2.738-.444.632-1.092.947-1.946.947zm0-1.017c.464 0 .8-.212 1.008-.635.215-.43.323-1.108.323-2.034 0-.913-.108-1.578-.323-1.994-.208-.423-.544-.635-1.008-.635-.463 0-.803.212-1.018.635-.208.416-.312 1.08-.312 1.994 0 .927.104 1.605.312 2.034.215.423.555.635 1.018.635zm-12.792 23.33v-1.007h3.034v1.007h-3.034zm7.716 1.158h1.562v1.058h-4.425v-1.058h1.572V99.51l-1.461.877v-1.159l1.996-1.208h.756v6.113zm5.076 1.148c-.853 0-1.505-.312-1.956-.936-.443-.632-.665-1.548-.665-2.75 0-1.182.222-2.085.665-2.709.451-.625 1.103-.937 1.956-.937s1.502.312 1.945.937c.451.618.676 1.521.676 2.709 0 1.195-.225 2.108-.676 2.74-.443.631-1.092.946-1.945.946zm0-1.017c.464 0 .8-.211 1.008-.634.215-.43.323-1.108.323-2.035 0-.913-.108-1.578-.323-1.994-.208-.423-.544-.635-1.008-.635-.464 0-.803.212-1.018.635-.208.416-.313 1.081-.313 1.994 0 .927.105 1.605.313 2.035.215.423.554.634 1.018.634zm-12.802 23.33v-1.008h3.034v1.008h-3.034zm9.258 1.158v1.057h-4.818v-.956l2.439-2.629c.289-.316.501-.604.635-.866.135-.262.202-.521.202-.776 0-.329-.098-.577-.293-.745-.188-.168-.46-.252-.816-.252-.632 0-1.28.249-1.945.745l-.434-.946c.282-.255.645-.457 1.089-.605.443-.154.89-.231 1.34-.231.719 0 1.287.178 1.704.534.423.349.635.822.635 1.42 0 .409-.091.795-.272 1.158-.175.362-.471.769-.887 1.219l-1.764 1.873h3.185zm3.544 1.148c-.853 0-1.505-.312-1.955-.937-.444-.631-.666-1.547-.666-2.749 0-1.182.222-2.085.666-2.709.45-.625 1.102-.937 1.955-.937s1.502.312 1.945.937c.451.617.676 1.52.676 2.709 0 1.195-.225 2.108-.676 2.739-.443.631-1.092.947-1.945.947zm0-1.017c.464 0 .8-.212 1.008-.635.215-.429.323-1.108.323-2.034 0-.913-.108-1.578-.323-1.994-.208-.423-.544-.635-1.008-.635-.464 0-.803.212-1.018.635-.208.416-.313 1.081-.313 1.994 0 .926.105 1.605.313 2.034.215.423.554.635 1.018.635zm-12.792 23.33v-1.007h3.034v1.007h-3.034zm7.857-1.471c.423.114.746.323.967.625.229.302.343.675.343 1.118 0 .624-.232 1.118-.695 1.48-.457.363-1.076.544-1.855.544-.484 0-.951-.074-1.401-.222a3.036 3.036 0 01-1.099-.614l.444-.947c.638.497 1.307.746 2.005.746.457 0 .797-.091 1.019-.272.228-.182.342-.457.342-.826 0-.363-.114-.628-.342-.796-.229-.174-.582-.262-1.059-.262h-.947v-1.037h.776c.927 0 1.391-.352 1.391-1.057 0-.329-.101-.581-.303-.756-.201-.174-.483-.262-.846-.262-.645 0-1.291.249-1.936.746l-.433-.947c.319-.272.69-.477 1.089-.604a4.092 4.092 0 011.36-.232c.706 0 1.267.175 1.684.524.423.342.635.802.635 1.379.002.37-.107.731-.313 1.038-.195.289-.47.5-.826.634zm4.935 3.777c-.853 0-1.505-.312-1.956-.937-.443-.631-.665-1.547-.665-2.749 0-1.182.222-2.085.665-2.709.451-.625 1.103-.937 1.956-.937s1.502.312 1.945.937c.451.617.676 1.521.676 2.709 0 1.195-.225 2.108-.676 2.739-.443.632-1.092.947-1.945.947zm0-1.017c.464 0 .8-.212 1.008-.635.215-.429.323-1.107.323-2.034 0-.913-.108-1.578-.323-1.994-.208-.423-.544-.635-1.008-.635-.464 0-.803.212-1.018.635-.208.416-.313 1.081-.313 1.994 0 .927.105 1.605.313 2.034.215.423.554.635 1.018.635zm-12.792 23.33v-1.007h3.034v1.007h-3.034zm9.53-.201v1.017h-1.018v1.4h-1.27v-1.4h-3.125v-.967l3.357-4.804h1.038v4.754h1.018zm-4.183 0h1.895v-2.73l-1.895 2.73zm7.445 2.508c-.853 0-1.505-.313-1.956-.937-.443-.631-.665-1.548-.665-2.75 0-1.181.222-2.084.665-2.709.451-.624 1.103-.936 1.956-.936s1.502.312 1.945.936c.451.618.676 1.521.676 2.709 0 1.196-.225 2.109-.676 2.74-.443.631-1.092.947-1.945.947zm0-1.018c.464 0 .8-.211 1.008-.634.215-.43.323-1.108.323-2.035 0-.913-.108-1.577-.323-1.994-.208-.423-.544-.634-1.008-.634-.464 0-.803.211-1.018.634-.208.417-.313 1.081-.313 1.994 0 .927.105 1.605.313 2.035.215.423.554.634 1.018.634zm-12.792 23.33v-1.007h3.034v1.007h-3.034zm7.131-2.366c.45 0 .847.097 1.189.292.343.188.609.456.797.805.188.343.282.739.282 1.189 0 .47-.108.886-.323 1.249a2.21 2.21 0 01-.927.836c-.403.194-.87.292-1.401.292-.45 0-.894-.074-1.331-.222a3.152 3.152 0 01-1.078-.614l.433-.947c.652.497 1.317.745 1.996.745.45 0 .793-.11 1.028-.332.242-.228.363-.551.363-.967 0-.396-.124-.712-.373-.947-.242-.241-.568-.362-.978-.362-.282 0-.547.054-.796.161a1.837 1.837 0 00-.655.453h-.786v-4.22h4.495v1.007h-3.225v1.954c.363-.248.793-.372 1.29-.372zm5.661 4.673c-.853 0-1.505-.312-1.956-.937-.443-.631-.665-1.548-.665-2.749 0-1.182.222-2.085.665-2.71.451-.624 1.103-.936 1.956-.936s1.502.312 1.945.936c.451.618.676 1.521.676 2.71 0 1.195-.225 2.108-.676 2.739-.443.631-1.092.947-1.945.947zm0-1.017c.464 0 .8-.212 1.008-.635.215-.43.323-1.108.323-2.034 0-.914-.108-1.578-.323-1.995-.208-.423-.544-.634-1.008-.634-.464 0-.803.211-1.018.634-.208.417-.313 1.081-.313 1.995 0 .926.105 1.604.313 2.034.215.423.554.635 1.018.635zm-12.792 23.329v-1.007h3.034v1.007h-3.034zm7.19-2.387c.424 0 .8.098 1.129.292.336.195.598.467.787.816.188.349.282.749.282 1.199 0 .456-.104.866-.313 1.228-.199.36-.495.657-.856.856-.38.206-.807.311-1.24.303-.907 0-1.606-.306-2.097-.917-.49-.618-.736-1.494-.736-2.629 0-.792.115-1.473.343-2.044.235-.571.571-1.007 1.008-1.309.444-.303.968-.454 1.572-.454.431 0 .847.074 1.25.222.41.141.766.346 1.069.614l-.444.947c-.631-.497-1.239-.745-1.824-.745-.531 0-.941.225-1.23.675-.289.449-.44 1.094-.453 1.933.154-.302.389-.54.705-.715a2.07 2.07 0 011.048-.272zm-.272 3.666c.37 0 .666-.121.887-.362.229-.242.343-.561.343-.957 0-.396-.114-.712-.343-.947-.221-.242-.52-.362-.897-.362-.376 0-.682.12-.917.362s-.353.557-.353.947c0 .389.118.708.353.957.242.241.551.362.927.362zm5.874 1.028c-.853 0-1.505-.313-1.956-.937-.443-.631-.665-1.548-.665-2.75 0-1.181.222-2.084.665-2.709.451-.624 1.103-.936 1.956-.936s1.502.312 1.945.936c.451.618.676 1.521.676 2.709 0 1.196-.225 2.109-.676 2.74-.443.631-1.092.947-1.945.947zm0-1.018c.464 0 .8-.211 1.008-.634.215-.43.323-1.108.323-2.035 0-.913-.108-1.577-.323-1.994-.208-.423-.544-.634-1.008-.634-.464 0-.803.211-1.018.634-.208.417-.313 1.081-.313 1.994 0 .927.105 1.605.313 2.035.215.423.554.634 1.018.634zm-34.283 35.617v-7.171h1.301v6.103h3.356v1.068h-4.657zm5.641 0v-7.171h4.798v1.027h-3.528v1.985h3.316v1.027h-3.316v2.105h3.528v1.027h-4.798zm11.257-7.171h1.321l-3.195 7.171h-1.059l-3.195-7.171h1.35l2.389 5.539 2.389-5.539zm2.003 7.171v-7.171h4.798v1.027h-3.528v1.985h3.317v1.027h-3.317v2.105h3.528v1.027h-4.798zm5.994 0v-7.171h1.301v6.103h3.356v1.068h-4.657z" fill="#949494"/><path fill-rule="evenodd" clip-rule="evenodd" d="M284.481 76.096v151.071h-3.36V76.096h3.36z" fill="#424242"/><path fill-rule="evenodd" clip-rule="evenodd" d="M284.481 115.262v111.905h-3.36V115.262h3.36z" fill="#724DFF"/><path d="M305.76 48.12h1.12v1.119h-1.12v1.119h-1.12v-1.12h-1.12V48.12h1.12V47h1.12v1.12z" fill="#939393"/><path fill-rule="evenodd" clip-rule="evenodd" d="M309.679 40.286c-1.819 0-3.36 1.54-3.36 3.357 0 1.817 1.541 3.357 3.36 3.357.965 0 1.823-.383 2.389-.94.603-.707.971-1.474.971-2.417 0-1.817-1.541-3.357-3.36-3.357zm-4.48 3.357c0-2.435 2.043-4.476 4.48-4.476 2.437 0 4.48 2.041 4.48 4.476 0 1.288-.521 2.307-1.255 3.162l-.014.016-.015.015c-.778.778-1.929 1.283-3.196 1.283-2.437 0-4.48-2.04-4.48-4.476z" fill="#939393"/><path fill-rule="evenodd" clip-rule="evenodd" d="M312.876 46.045l3.36 3.358-.792.79-3.36-3.356.792-.792z" fill="#939393"/><path d="M322.559 50.358h-3.36l3.36-3.357v3.357z" fill="#939393"/><path fill-rule="evenodd" clip-rule="evenodd" d="M166.88 39.167a5.594 5.594 0 00-5.173 3.453 5.584 5.584 0 000 4.284 5.602 5.602 0 003.031 3.028 5.598 5.598 0 007.742-5.17 5.6 5.6 0 00-5.6-5.595zm0-1.12a6.718 6.718 0 00-6.72 6.715 6.71 6.71 0 001.969 4.75 6.719 6.719 0 007.322 1.455 6.719 6.719 0 004.149-6.205 6.708 6.708 0 00-1.969-4.749 6.72 6.72 0 00-4.751-1.966z" fill="#949494"/><path d="M166.131 48.493h1.493v-4.476h-1.493v4.476zm1.493-6.715a.746.746 0 10-1.492.001.746.746 0 001.492 0z" fill="#949494"/></g><defs><clipPath id="clip0_2957_46868"><path fill="#fff" d="M0 0h336v470H0z"/></clipPath><filter id="filter0_d_2957_46868" x="-8" y="-8" width="356" height="490" filterUnits="userSpaceOnUse" color-interpolation-filters="sRGB"><feFlood flood-opacity="0" result="BackgroundImageFix"/><feColorMatrix in="SourceAlpha" values="0 0 0 0 0 0 0 0 0 0 0 0 0 0 0 0 0 0 127 0" result="hardAlpha"/><feOffset dx="2" dy="2"/><feGaussianBlur stdDeviation="5"/><feComposite in2="hardAlpha" operator="out"/><feColorMatrix values="0 0 0 0 0 0 0 0 0 0 0 0 0 0 0 0 0 0 0.1 0"/><feBlend in2="BackgroundImageFix" result="effect1_dropShadow_2957_46868"/><feBlend in="SourceGraphic" in2="effect1_dropShadow_2957_46868" result="shape"/></filter></defs></svg>