<svg width="679" height="526" fill="none" xmlns="http://www.w3.org/2000/svg"><circle cx="447" cy="163.5" r="163" fill="#FCDE70"/><circle cx="233" cy="163.5" r="163" fill="#F7917D" fill-opacity=".8"/><circle cx="340" cy="362.5" r="163" fill="#72E1E5" fill-opacity=".8"/><rect x="219" y="351.5" width="241" height="55" rx="4" fill="#FFFBF5"/><path d="M241.624 391.5v-22.72h11.296c3.776.043 6.752 1.035 8.928 2.976 2.197 1.941 3.317 4.651 3.36 8.128-.043 3.541-1.173 6.347-3.392 8.416-2.24 2.091-5.237 3.157-8.992 3.2h-11.2zm5.728-4.128h5.056c2.197-.043 3.883-.747 5.056-2.112 1.152-1.344 1.739-3.125 1.76-5.344-.021-2.155-.619-3.851-1.792-5.088-1.195-1.259-2.869-1.899-5.024-1.92h-5.056v14.464zm38.776-3.936v1.28h-14.016c.085 1.109.555 1.973 1.408 2.592.853.619 2.016.928 3.488.928 1.045 0 1.973-.203 2.784-.608a4.678 4.678 0 001.92-1.728l4.096 1.856c-.853 1.344-2.037 2.379-3.552 3.104-1.515.747-3.307 1.12-5.376 1.12-3.157-.021-5.611-.757-7.36-2.208-1.749-1.451-2.635-3.499-2.656-6.144.043-2.709.928-4.821 2.656-6.336 1.707-1.493 4.053-2.251 7.04-2.272 3.051.021 5.408.768 7.072 2.24 1.643 1.451 2.475 3.509 2.496 6.176zm-5.376-1.696v-.064c-.021-1.109-.405-1.973-1.152-2.592-.768-.619-1.803-.928-3.104-.928-1.323 0-2.368.32-3.136.96-.768.619-1.195 1.493-1.28 2.624h8.672zm13.572 9.76l-7.168-16h5.792l3.808 9.632c.128.384.235.725.32 1.024l.256.96h.096l.256-.96a6.85 6.85 0 01.32-1.024l3.776-9.632h5.824l-7.2 16h-6.08zm33.367-8.064v1.28h-14.016c.085 1.109.554 1.973 1.408 2.592.853.619 2.016.928 3.488.928 1.045 0 1.973-.203 2.784-.608a4.678 4.678 0 001.92-1.728l4.096 1.856c-.854 1.344-2.038 2.379-3.552 3.104-1.515.747-3.307 1.12-5.376 1.12-3.158-.021-5.611-.757-7.36-2.208-1.75-1.451-2.635-3.499-2.656-6.144.042-2.709.928-4.821 2.656-6.336 1.706-1.493 4.053-2.251 7.04-2.272 3.05.021 5.408.768 7.071 2.24 1.643 1.451 2.475 3.509 2.497 6.176zm-5.376-1.696v-.064c-.022-1.109-.406-1.973-1.152-2.592-.768-.619-1.803-.928-3.104-.928-1.323 0-2.368.32-3.136.96-.768.619-1.195 1.493-1.28 2.624h8.672zm14.404-13.44v23.2h-5.472v-23.2h5.472zm13.379 23.68c-2.965-.021-5.355-.768-7.168-2.24-1.835-1.451-2.773-3.541-2.816-6.272.043-2.709.981-4.789 2.816-6.24 1.813-1.451 4.203-2.187 7.168-2.208 2.965.021 5.365.757 7.2 2.208s2.773 3.531 2.816 6.24c-.043 2.731-.981 4.821-2.816 6.272-1.835 1.472-4.235 2.219-7.2 2.24zm0-3.68c1.365 0 2.443-.416 3.232-1.248.789-.811 1.195-2.005 1.216-3.584-.021-1.579-.427-2.763-1.216-3.552-.789-.811-1.867-1.216-3.232-1.216-1.365 0-2.443.405-3.232 1.216-.789.789-1.195 1.973-1.216 3.552.021 1.579.427 2.773 1.216 3.584.789.832 1.867 1.248 3.232 1.248zm13.239 9.44V375.5h5.312v2.688a6.286 6.286 0 012.688-2.368c1.13-.533 2.41-.8 3.84-.8 2.432.043 4.362.811 5.792 2.304 1.429 1.493 2.154 3.531 2.176 6.112-.043 2.603-.8 4.672-2.272 6.208-1.472 1.515-3.446 2.293-5.92 2.336-1.344 0-2.539-.245-3.584-.736a6.912 6.912 0 01-2.56-1.984v8.48h-5.472zm9.76-9.44c1.365-.021 2.432-.459 3.2-1.312.768-.853 1.162-2.037 1.184-3.552 0-1.515-.384-2.677-1.152-3.488-.747-.832-1.814-1.248-3.2-1.248-1.366 0-2.443.395-3.232 1.184-.79.768-1.195 1.867-1.216 3.296v.672c.021 1.365.426 2.443 1.216 3.232.789.789 1.856 1.195 3.2 1.216zm31.094-4.864v1.28h-14.016c.085 1.109.554 1.973 1.408 2.592.853.619 2.016.928 3.488.928 1.045 0 1.973-.203 2.784-.608a4.678 4.678 0 001.92-1.728l4.096 1.856c-.854 1.344-2.038 2.379-3.552 3.104-1.515.747-3.307 1.12-5.376 1.12-3.158-.021-5.611-.757-7.36-2.208-1.75-1.451-2.635-3.499-2.656-6.144.042-2.709.928-4.821 2.656-6.336 1.706-1.493 4.053-2.251 7.04-2.272 3.05.021 5.408.768 7.071 2.24 1.643 1.451 2.475 3.509 2.497 6.176zm-5.376-1.696v-.064c-.022-1.109-.406-1.973-1.152-2.592-.768-.619-1.803-.928-3.104-.928-1.323 0-2.368.32-3.136.96-.768.619-1.195 1.493-1.28 2.624h8.672zm13.764-1.824c.448-1.536 1.194-2.72 2.24-3.552 1.045-.832 2.357-1.259 3.936-1.28.234 0 .426.011.576.032.17 0 .33.021.48.064v4.992a10.216 10.216 0 00-1.632-.128c-.854 0-1.579.107-2.176.32a4.2 4.2 0 00-1.504.896 4.316 4.316 0 00-1.12 1.824c-.214.725-.32 1.525-.32 2.4v6.016h-5.472v-16h4.992v4.416zm18.069 12.064c-2.24 0-4.182-.32-5.824-.96-1.643-.64-2.966-1.589-3.968-2.848l2.944-2.496c.746.896 1.706 1.579 2.88 2.048 1.152.469 2.56.704 4.224.704 1.109 0 1.93-.117 2.464-.352.512-.256.768-.629.768-1.12.021-.448-.139-.779-.48-.992-.32-.213-.928-.363-1.824-.448l-4.256-.416c-1.942-.235-3.392-.768-4.352-1.6-.939-.811-1.408-1.92-1.408-3.328.021-1.643.746-2.912 2.176-3.808 1.429-.896 3.498-1.344 6.208-1.344 1.941 0 3.669.267 5.184.8 1.493.512 2.698 1.259 3.616 2.24l-2.56 2.624a8.142 8.142 0 00-2.784-1.632c-1.067-.363-2.315-.544-3.744-.544-1.046 0-1.824.107-2.336.32-.512.213-.768.555-.768 1.024 0 .384.16.683.48.896.32.192.842.331 1.568.416l4.704.48c1.941.213 3.349.736 4.224 1.568.874.811 1.301 1.92 1.28 3.328 0 1.707-.704 3.04-2.112 4-1.408.939-3.51 1.419-6.304 1.44zm-127.88 38.84c-1.867-.021-3.349-.565-4.448-1.632-1.109-1.077-1.675-2.533-1.696-4.368.021-1.856.587-3.317 1.696-4.384 1.099-1.056 2.581-1.595 4.448-1.616 1.877.021 3.365.56 4.464 1.616 1.109 1.067 1.675 2.528 1.696 4.384-.021 1.856-.587 3.312-1.696 4.368-1.099 1.067-2.587 1.611-4.464 1.632zm0-1.312c1.387-.021 2.48-.448 3.28-1.28.8-.832 1.205-1.968 1.216-3.408-.011-1.451-.416-2.592-1.216-3.424-.8-.821-1.893-1.243-3.28-1.264-1.387.021-2.48.443-3.28 1.264-.8.832-1.205 1.973-1.216 3.424.011 1.429.416 2.565 1.216 3.408.8.832 1.893 1.259 3.28 1.28zm13.179 1.232c-.853-.011-1.562-.171-2.128-.48-.576-.309-1.008-.715-1.296-1.216l-.208 1.456h-1.152v-11.6h1.408v5.104c.31-.523.763-.944 1.36-1.264.598-.309 1.296-.469 2.096-.48 1.259.021 2.251.416 2.976 1.184.726.757 1.094 1.776 1.104 3.056-.021 1.269-.405 2.288-1.152 3.056-.757.768-1.76 1.163-3.008 1.184zm-.4-1.232c.95-.011 1.696-.283 2.24-.816.544-.533.822-1.264.832-2.192-.01-.928-.272-1.659-.784-2.192-.522-.533-1.264-.805-2.224-.816-.928.011-1.669.267-2.224.768-.554.501-.837 1.184-.848 2.048v.4c.011.853.283 1.531.816 2.032.534.501 1.264.757 2.192.768zm10.354 1.232c-1.184 0-2.144-.224-2.88-.672-.725-.448-1.237-1.088-1.536-1.92l1.328-.432a2.556 2.556 0 001.12 1.392c.533.32 1.227.48 2.08.48.725 0 1.275-.107 1.648-.32.373-.213.56-.533.56-.96.011-.373-.101-.651-.336-.832-.224-.192-.597-.304-1.12-.336l-2.352-.176c-.864-.085-1.509-.325-1.936-.72-.427-.395-.64-.917-.64-1.568.011-.757.336-1.349.976-1.776.64-.416 1.531-.629 2.672-.64 1.109.011 2.016.219 2.72.624.704.405 1.168.965 1.392 1.68l-1.328.448a2.44 2.44 0 00-.992-1.2c-.469-.288-1.093-.432-1.872-.432-.693 0-1.232.107-1.616.32-.373.213-.565.523-.576.928 0 .661.512 1.04 1.536 1.136l2.384.176c.885.085 1.52.32 1.904.704.395.384.587.901.576 1.552 0 .789-.304 1.408-.912 1.856-.608.448-1.541.677-2.8.688zm14.025-4.624v.8h-7.392c.032.811.32 1.445.864 1.904.555.459 1.317.693 2.288.704.715 0 1.323-.133 1.824-.4a2.711 2.711 0 001.136-1.184l1.184.544c-.384.747-.928 1.307-1.632 1.68-.704.384-1.563.576-2.576.576-1.419-.011-2.523-.373-3.312-1.088-.8-.715-1.205-1.733-1.216-3.056.021-1.387.427-2.453 1.216-3.2.8-.747 1.883-1.125 3.248-1.136 1.376.011 2.443.341 3.2.992.768.661 1.157 1.616 1.168 2.864zm-1.456-.304v-.112c-.021-.768-.299-1.355-.832-1.76-.533-.405-1.232-.608-2.096-.608-.896.011-1.611.235-2.144.672-.523.437-.811 1.04-.864 1.808h5.936zm5.097-1.28c.213-.661.571-1.2 1.072-1.616.501-.416 1.109-.629 1.824-.64.224 0 .427.016.608.048v1.376a1.658 1.658 0 00-.24-.016 1.78 1.78 0 00-.256-.016c-.501 0-.917.069-1.248.208a2.167 2.167 0 00-.832.56 2.692 2.692 0 00-.688 1.296 6.47 6.47 0 00-.144 1.52v3.248h-1.408v-8h1.312v2.032zm7.664 5.968l-3.744-8h1.568l2.656 5.792c.128.32.224.619.288.896h.032c.042-.139.085-.283.128-.432.042-.149.096-.304.16-.464l2.656-5.792h1.568l-3.744 8h-1.568zm6.834-9.472v-1.776h1.648v1.776h-1.648zm.128 9.472v-8h1.408v8h-1.408zm4.515 0v-8h1.36v1.744c.662-1.333 1.824-2 3.488-2 1.152 0 2.022.315 2.608.944.598.629.896 1.552.896 2.768v4.544h-1.408v-4.336c0-1.792-.848-2.688-2.544-2.688-.917.011-1.642.288-2.176.832-.533.544-.805 1.296-.816 2.256v3.936h-1.408zm18.741-8.096c-.331 0-.603.059-.816.176a1.017 1.017 0 00-.48.512c.288.245.512.528.672.848.149.331.224.693.224 1.088-.011.832-.336 1.499-.976 2-.651.512-1.552.773-2.704.784-.779 0-1.451-.128-2.016-.384-.224.075-.4.181-.528.32a.676.676 0 00-.208.496c0 .245.106.437.32.576.213.149.56.224 1.04.224h3.152c.949 0 1.658.192 2.128.576.48.373.72.923.72 1.648.01.821-.363 1.456-1.12 1.904-.758.448-1.942.677-3.552.688-1.579-.011-2.704-.219-3.376-.624-.683-.395-1.014-.923-.992-1.584 0-.384.112-.72.336-1.008.224-.288.56-.501 1.008-.64-.331-.139-.571-.325-.72-.56a1.387 1.387 0 01-.24-.8c0-.405.122-.741.368-1.008.234-.267.56-.469.975-.608a2.524 2.524 0 01-.735-.88 2.465 2.465 0 01-.256-1.12c.01-.832.341-1.499.991-2 .641-.501 1.542-.757 2.705-.768.821 0 1.509.133 2.064.4.117-.448.346-.805.688-1.072.352-.256.816-.389 1.392-.4.096 0 .186.005.272.016.096.011.197.027.304.048v1.216a2.677 2.677 0 00-.64-.064zm-4.08 4.368c.714-.011 1.274-.171 1.68-.48.405-.32.613-.741.624-1.264-.011-.523-.219-.939-.624-1.248-.406-.299-.966-.453-1.68-.464-.715 0-1.275.155-1.68.464-.406.299-.614.715-.624 1.248.01.523.218.939.624 1.248.405.32.965.485 1.68.496zm1.488 3.504h-2.928c-.278 0-.528-.016-.752-.048-.299.128-.523.293-.672.496-.15.213-.224.443-.224.688.01.469.282.805.816 1.008.533.203 1.296.304 2.288.304 1.173 0 2.005-.123 2.496-.368.48-.245.714-.576.704-.992 0-.363-.139-.635-.416-.816-.288-.181-.726-.272-1.312-.272zM300.36 221.78h5.76v13.44c.021 1.6.501 2.891 1.44 3.872.938.96 2.272 1.451 4 1.472 1.749-.021 3.093-.512 4.032-1.472.938-.981 1.408-2.272 1.408-3.872v-13.44h5.76v13.824c-.022 2.923-1.003 5.227-2.944 6.912-1.92 1.707-4.672 2.581-8.256 2.624-3.584-.043-6.336-.917-8.256-2.624-1.942-1.707-2.923-4.021-2.944-6.944V221.78zm34.725 23.2c-2.24 0-4.181-.32-5.824-.96-1.642-.64-2.965-1.589-3.968-2.848l2.944-2.496c.747.896 1.707 1.579 2.88 2.048 1.152.469 2.56.704 4.224.704 1.11 0 1.931-.117 2.464-.352.512-.256.768-.629.768-1.12.022-.448-.138-.779-.48-.992-.32-.213-.928-.363-1.824-.448l-4.256-.416c-1.941-.235-3.392-.768-4.352-1.6-.938-.811-1.408-1.92-1.408-3.328.022-1.643.747-2.912 2.176-3.808 1.43-.896 3.499-1.344 6.208-1.344 1.942 0 3.67.267 5.184.8 1.494.512 2.699 1.259 3.616 2.24l-2.56 2.624a8.123 8.123 0 00-2.784-1.632c-1.066-.363-2.314-.544-3.744-.544-1.045 0-1.824.107-2.336.32-.512.213-.768.555-.768 1.024 0 .384.16.683.48.896.32.192.843.331 1.568.416l4.704.48c1.942.213 3.35.736 4.224 1.568.875.811 1.302 1.92 1.28 3.328 0 1.707-.704 3.04-2.112 4-1.408.939-3.509 1.419-6.304 1.44zm29.418-8.544v1.28h-14.016c.085 1.109.555 1.973 1.408 2.592.853.619 2.016.928 3.488.928 1.045 0 1.973-.203 2.784-.608a4.678 4.678 0 001.92-1.728l4.096 1.856c-.853 1.344-2.037 2.379-3.552 3.104-1.515.747-3.307 1.12-5.376 1.12-3.157-.021-5.611-.757-7.36-2.208-1.749-1.451-2.635-3.499-2.656-6.144.043-2.709.928-4.821 2.656-6.336 1.707-1.493 4.053-2.251 7.04-2.272 3.051.021 5.408.768 7.072 2.24 1.643 1.451 2.475 3.509 2.496 6.176zm-5.376-1.696v-.064c-.021-1.109-.405-1.973-1.152-2.592-.768-.619-1.803-.928-3.104-.928-1.323 0-2.368.32-3.136.96-.768.619-1.195 1.493-1.28 2.624h8.672zm13.764-1.824c.448-1.536 1.195-2.72 2.24-3.552 1.046-.832 2.358-1.259 3.936-1.28.235 0 .427.011.576.032.171 0 .331.021.48.064v4.992a10.198 10.198 0 00-1.632-.128c-.853 0-1.578.107-2.176.32a4.217 4.217 0 00-1.504.896 4.326 4.326 0 00-1.12 1.824 8.493 8.493 0 00-.32 2.4v6.016h-5.472v-16h4.992v4.416zm-105.25 39c.448-1.536 1.195-2.72 2.24-3.552 1.046-.832 2.358-1.259 3.936-1.28.235 0 .427.011.576.032.171 0 .331.021.48.064v4.992a10.198 10.198 0 00-1.632-.128c-.853 0-1.578.107-2.176.32a4.217 4.217 0 00-1.504.896 4.326 4.326 0 00-1.12 1.824 8.493 8.493 0 00-.32 2.4v6.016h-5.472v-16h4.992v4.416zm27.893 3.52v1.28h-14.016c.086 1.109.555 1.973 1.408 2.592.854.619 2.016.928 3.488.928 1.046 0 1.974-.203 2.784-.608.79-.384 1.43-.96 1.92-1.728l4.096 1.856c-.853 1.344-2.037 2.379-3.552 3.104-1.514.747-3.306 1.12-5.376 1.12-3.157-.021-5.61-.757-7.36-2.208-1.749-1.451-2.634-3.499-2.656-6.144.043-2.709.928-4.821 2.656-6.336 1.707-1.493 4.054-2.251 7.04-2.272 3.051.021 5.408.768 7.072 2.24 1.643 1.451 2.475 3.509 2.496 6.176zm-5.376-1.696v-.064c-.021-1.109-.405-1.973-1.152-2.592-.768-.619-1.802-.928-3.104-.928-1.322 0-2.368.32-3.136.96-.768.619-1.194 1.493-1.28 2.624h8.672zm16.709 10.24c-2.24 0-4.182-.32-5.824-.96-1.643-.64-2.966-1.589-3.968-2.848l2.944-2.496c.746.896 1.706 1.579 2.88 2.048 1.152.469 2.56.704 4.224.704 1.109 0 1.93-.117 2.464-.352.512-.256.768-.629.768-1.12.021-.448-.139-.779-.48-.992-.32-.213-.928-.363-1.824-.448l-4.256-.416c-1.942-.235-3.392-.768-4.352-1.6-.939-.811-1.408-1.92-1.408-3.328.021-1.643.746-2.912 2.176-3.808 1.429-.896 3.498-1.344 6.208-1.344 1.941 0 3.669.267 5.184.8 1.493.512 2.698 1.259 3.616 2.24l-2.56 2.624a8.142 8.142 0 00-2.784-1.632c-1.067-.363-2.315-.544-3.744-.544-1.046 0-1.824.107-2.336.32-.512.213-.768.555-.768 1.024 0 .384.16.683.48.896.32.192.842.331 1.568.416l4.704.48c1.941.213 3.349.736 4.224 1.568.874.811 1.301 1.92 1.28 3.328 0 1.707-.704 3.04-2.112 4-1.408.939-3.51 1.419-6.304 1.44zm29.417-8.544v1.28h-14.016c.086 1.109.555 1.973 1.408 2.592.854.619 2.016.928 3.488.928 1.046 0 1.974-.203 2.784-.608.79-.384 1.43-.96 1.92-1.728l4.096 1.856c-.853 1.344-2.037 2.379-3.552 3.104-1.514.747-3.306 1.12-5.376 1.12-3.157-.021-5.61-.757-7.36-2.208-1.749-1.451-2.634-3.499-2.656-6.144.043-2.709.928-4.821 2.656-6.336 1.707-1.493 4.054-2.251 7.04-2.272 3.051.021 5.408.768 7.072 2.24 1.643 1.451 2.475 3.509 2.496 6.176zm-5.376-1.696v-.064c-.021-1.109-.405-1.973-1.152-2.592-.768-.619-1.802-.928-3.104-.928-1.322 0-2.368.32-3.136.96-.768.619-1.194 1.493-1.28 2.624h8.672zm14.021 10.24c-2.027-.021-3.627-.459-4.8-1.312-1.152-.853-1.739-2.037-1.761-3.552 0-.747.15-1.408.449-1.984a4.12 4.12 0 011.28-1.504c.554-.384 1.269-.704 2.144-.96.874-.235 2.016-.427 3.424-.576l5.952-.544v-.48c0-.896-.288-1.568-.864-2.016-.598-.427-1.44-.64-2.528-.64-1.11 0-1.984.213-2.624.64-.64.405-1.014 1.013-1.12 1.824h-5.6c.234-1.835 1.173-3.264 2.816-4.288 1.642-1.024 3.829-1.547 6.56-1.568 3.029 0 5.269.565 6.72 1.696 1.45 1.109 2.165 2.827 2.144 5.152v4.96c0 1.024.032 1.92.096 2.688a14.2 14.2 0 00.288 1.984h-5.408a17.101 17.101 0 01-.224-2.72c-.534 1.024-1.398 1.813-2.592 2.368-1.195.555-2.646.832-4.352.832zm2.08-3.328c1.429-.021 2.57-.341 3.424-.96.853-.619 1.29-1.461 1.312-2.528v-1.024l-4.416.448c-1.195.128-2.059.373-2.592.736-.534.341-.79.821-.768 1.44 0 .597.266 1.056.8 1.376.533.341 1.28.512 2.24.512zm19.507-8.736c.448-1.536 1.195-2.72 2.24-3.552 1.046-.832 2.358-1.259 3.936-1.28.235 0 .427.011.576.032.171 0 .331.021.48.064v4.992a10.198 10.198 0 00-1.632-.128c-.853 0-1.578.107-2.176.32a4.217 4.217 0 00-1.504.896 4.326 4.326 0 00-1.12 1.824 8.493 8.493 0 00-.32 2.4v6.016h-5.472v-16h4.992v4.416zm18.645 12.064c-3.072-.021-5.504-.789-7.296-2.304-1.77-1.515-2.677-3.584-2.72-6.208.022-2.645.928-4.715 2.72-6.208 1.771-1.472 4.235-2.219 7.392-2.24 2.582 0 4.683.512 6.304 1.536 1.6 1.003 2.614 2.453 3.04 4.352l-5.408.928c-.234-.96-.693-1.696-1.376-2.208-.704-.491-1.61-.736-2.72-.736-1.365 0-2.432.395-3.2 1.184-.746.768-1.13 1.867-1.152 3.296.022 1.472.416 2.613 1.184 3.424.768.811 1.835 1.227 3.2 1.248 1.11 0 2.006-.256 2.688-.768.704-.491 1.174-1.227 1.408-2.208l5.376 1.024c-.426 1.835-1.472 3.264-3.136 4.288-1.664 1.045-3.765 1.579-6.304 1.6zm12.773-.48v-23.2h5.472v10.304c.619-1.195 1.472-2.091 2.56-2.688 1.11-.619 2.411-.928 3.904-.928 2.24 0 3.947.661 5.12 1.984 1.174 1.301 1.76 3.221 1.76 5.76v8.768h-5.472v-8.192c0-1.408-.32-2.475-.96-3.2-.618-.704-1.546-1.056-2.784-1.056-1.301 0-2.314.395-3.04 1.184-.725.789-1.088 1.92-1.088 3.392v7.872h-5.472z" fill="#3A2D52"/><rect y="42.5" width="199" height="94" rx="4" fill="#FFFBF5"/><path d="M35.008 59.78c2.688.021 4.8.672 6.336 1.952 1.536 1.301 2.315 3.083 2.336 5.344-.021 2.368-.821 4.213-2.4 5.536-1.557 1.344-3.712 2.027-6.464 2.048h-6.464v7.84h-5.728V59.78h12.384zM33.6 70.692c1.28 0 2.272-.299 2.976-.896.704-.597 1.056-1.45 1.056-2.56 0-1.088-.352-1.93-1.056-2.528-.683-.597-1.675-.896-2.976-.896h-5.248v6.88H33.6zm17.916.224c.448-1.536 1.195-2.72 2.24-3.552 1.046-.832 2.358-1.259 3.936-1.28.235 0 .427.01.576.032.17 0 .33.021.48.064v4.992a10.072 10.072 0 00-1.632-.128c-.853 0-1.578.107-2.176.32a4.212 4.212 0 00-1.504.896 4.318 4.318 0 00-1.12 1.824 8.493 8.493 0 00-.32 2.4V82.5h-5.472v-16h4.992v4.416zM70.13 82.98c-2.965-.021-5.354-.768-7.168-2.24-1.834-1.45-2.773-3.541-2.816-6.272.043-2.71.982-4.79 2.816-6.24 1.814-1.45 4.203-2.187 7.168-2.208 2.966.021 5.366.757 7.2 2.208 1.835 1.45 2.774 3.53 2.816 6.24-.042 2.73-.981 4.821-2.816 6.272-1.834 1.472-4.234 2.219-7.2 2.24zm0-3.68c1.366 0 2.443-.416 3.232-1.248.79-.81 1.195-2.005 1.216-3.584-.021-1.579-.426-2.763-1.216-3.552-.79-.81-1.866-1.216-3.232-1.216-1.365 0-2.442.405-3.232 1.216-.79.79-1.194 1.973-1.216 3.552.022 1.579.427 2.773 1.216 3.584.79.832 1.867 1.248 3.232 1.248zm19.767 3.68c-2.39-.043-4.31-.821-5.76-2.336-1.43-1.536-2.165-3.584-2.208-6.144.043-2.581.8-4.63 2.272-6.144 1.493-1.515 3.477-2.293 5.952-2.336 1.387 0 2.603.235 3.648.704a5.636 5.636 0 012.464 2.048V59.3h5.472v23.2h-5.248v-2.912c-.597 1.067-1.472 1.899-2.624 2.496-1.13.597-2.453.896-3.968.896zm2.112-3.68c1.323-.021 2.368-.405 3.136-1.152.79-.768 1.195-1.792 1.216-3.072V74.02c-.021-1.365-.427-2.421-1.216-3.168-.79-.747-1.867-1.13-3.232-1.152-1.365 0-2.421.416-3.168 1.248-.768.81-1.152 1.973-1.152 3.488.021 1.515.416 2.699 1.184 3.552.79.853 1.867 1.29 3.232 1.312zm21.01 3.68c-2.261-.021-3.957-.619-5.088-1.792-1.131-1.173-1.696-2.859-1.696-5.056V66.5h5.472v8.544c.021 1.387.341 2.39.96 3.008.64.619 1.472.917 2.496.896 1.387-.043 2.432-.459 3.136-1.248.683-.81 1.024-1.803 1.024-2.976V66.5h5.472v16h-5.28v-3.296c-.555 1.216-1.397 2.144-2.528 2.784-1.131.661-2.453.992-3.968.992zm25.018 0c-3.072-.021-5.504-.79-7.296-2.304-1.77-1.515-2.677-3.584-2.72-6.208.022-2.645.928-4.715 2.72-6.208 1.771-1.472 4.235-2.219 7.392-2.24 2.582 0 4.683.512 6.304 1.536 1.6 1.003 2.614 2.453 3.04 4.352l-5.408.928c-.234-.96-.693-1.696-1.376-2.208-.704-.49-1.61-.736-2.72-.736-1.365 0-2.432.395-3.2 1.184-.746.768-1.13 1.867-1.152 3.296.022 1.472.416 2.613 1.184 3.424.768.81 1.835 1.227 3.2 1.248 1.11 0 2.006-.256 2.688-.768.704-.49 1.174-1.227 1.408-2.208l5.376 1.024c-.426 1.835-1.472 3.264-3.136 4.288-1.664 1.045-3.765 1.579-6.304 1.6zm10.405-12.896V66.5h3.616v-3.808l5.472-2.048V66.5h5.28v3.584h-5.28v5.6c0 1.877 1.003 2.816 3.008 2.816.47 0 .886-.032 1.248-.096.384-.043.726-.096 1.024-.16v4.16c-.554.15-1.141.256-1.76.32-.597.085-1.248.128-1.952.128-2.432 0-4.213-.512-5.344-1.536-1.152-1.003-1.717-2.475-1.696-4.416v-6.816h-3.616zM22.368 105.5h5.312v3.2c1.088-2.453 3.061-3.68 5.92-3.68 2.816-.021 4.704 1.216 5.664 3.712.661-1.237 1.515-2.165 2.56-2.784 1.067-.619 2.304-.928 3.712-.928 2.005 0 3.541.608 4.608 1.824 1.088 1.195 1.632 2.923 1.632 5.184v9.472h-5.472v-8.48c0-2.624-1.024-3.925-3.072-3.904-1.088 0-1.93.352-2.528 1.056-.597.683-.896 1.664-.896 2.944v8.384h-5.472v-8.48c0-2.624-1.024-3.925-3.072-3.904-1.088 0-1.93.363-2.528 1.088-.597.704-.896 1.707-.896 3.008v8.288h-5.472v-16zm38.998 16.48c-2.027-.021-3.627-.459-4.8-1.312-1.152-.853-1.739-2.037-1.76-3.552 0-.747.15-1.408.448-1.984a4.13 4.13 0 011.28-1.504c.555-.384 1.27-.704 2.144-.96.875-.235 2.016-.427 3.424-.576l5.952-.544v-.48c0-.896-.288-1.568-.864-2.016-.597-.427-1.44-.64-2.528-.64-1.11 0-1.984.213-2.624.64-.64.405-1.013 1.013-1.12 1.824h-5.6c.235-1.835 1.173-3.264 2.816-4.288 1.643-1.024 3.83-1.547 6.56-1.568 3.03 0 5.27.565 6.72 1.696 1.45 1.109 2.165 2.827 2.144 5.152v4.96c0 1.024.032 1.92.096 2.688a14.2 14.2 0 00.288 1.984h-5.408a17.476 17.476 0 01-.16-1.28 15.878 15.878 0 01-.064-1.44c-.533 1.024-1.397 1.813-2.592 2.368-1.195.555-2.645.832-4.352.832zm2.08-3.328c1.43-.021 2.57-.341 3.424-.96.853-.619 1.29-1.461 1.312-2.528v-1.024l-4.416.448c-1.195.128-2.059.373-2.592.736-.533.341-.79.821-.768 1.44 0 .597.267 1.056.8 1.376.533.341 1.28.512 2.24.512zm14.516 2.848v-16h5.312v3.36c.64-1.28 1.525-2.24 2.656-2.88 1.11-.64 2.453-.96 4.032-.96 2.24 0 3.936.629 5.088 1.888 1.152 1.28 1.728 3.157 1.728 5.632v8.96h-5.472v-8.128c0-1.429-.299-2.507-.896-3.232-.619-.704-1.547-1.056-2.784-1.056-1.344 0-2.379.395-3.104 1.184-.726.789-1.088 1.909-1.088 3.36v7.872h-5.472zm28.404.48c-2.027-.021-3.627-.459-4.8-1.312-1.152-.853-1.739-2.037-1.76-3.552 0-.747.15-1.408.448-1.984a4.13 4.13 0 011.28-1.504c.555-.384 1.269-.704 2.144-.96.875-.235 2.016-.427 3.424-.576l5.952-.544v-.48c0-.896-.288-1.568-.864-2.016-.597-.427-1.44-.64-2.528-.64-1.109 0-1.984.213-2.624.64-.64.405-1.013 1.013-1.12 1.824h-5.6c.235-1.835 1.173-3.264 2.816-4.288 1.643-1.024 3.829-1.547 6.56-1.568 3.029 0 5.269.565 6.72 1.696 1.451 1.109 2.165 2.827 2.144 5.152v4.96c0 1.024.032 1.92.096 2.688a14.2 14.2 0 00.288 1.984h-5.408a17.641 17.641 0 01-.16-1.28 15.77 15.77 0 01-.064-1.44c-.533 1.024-1.397 1.813-2.592 2.368-1.195.555-2.645.832-4.352.832zm2.08-3.328c1.429-.021 2.571-.341 3.424-.96.853-.619 1.291-1.461 1.312-2.528v-1.024l-4.416.448c-1.195.128-2.059.373-2.592.736-.533.341-.789.821-.768 1.44 0 .597.267 1.056.8 1.376.533.341 1.28.512 2.24.512zm33.3-12.32a13.626 13.626 0 00-.8-.16 11.036 11.036 0 00-.832-.032c-.918 0-1.654.181-2.208.544.661.469 1.162 1.013 1.504 1.632.341.64.512 1.355.512 2.144-.022 1.707-.8 3.051-2.336 4.032-1.536.981-3.67 1.483-6.4 1.504-.811 0-1.568-.043-2.272-.128a17.064 17.064 0 01-1.984-.416c-.427.213-.64.512-.64.896 0 .405.17.715.512.928.362.213.906.32 1.632.32h6.88c4.224.021 6.325 1.589 6.304 4.704 0 1.941-.907 3.413-2.72 4.416-1.814 1.003-4.555 1.504-8.224 1.504-3.115 0-5.43-.341-6.944-1.024-1.515-.661-2.272-1.6-2.272-2.816 0-.683.234-1.259.704-1.728.469-.491 1.173-.875 2.112-1.152-.747-.299-1.323-.704-1.728-1.216a2.798 2.798 0 01-.608-1.792c0-.896.288-1.653.864-2.272.576-.64 1.408-1.109 2.496-1.408-.939-.491-1.654-1.109-2.144-1.856-.491-.725-.736-1.557-.736-2.496.021-1.707.8-3.04 2.336-4 1.536-.939 3.68-1.419 6.432-1.44 1.792 0 3.349.213 4.672.64.277-.96.832-1.696 1.664-2.208.832-.512 1.909-.768 3.232-.768.17 0 .341.011.512.032.149 0 .309.021.48.064v3.552zm-10.56 6.912c1.045 0 1.866-.256 2.464-.768.597-.491.906-1.163.928-2.016 0-.853-.299-1.515-.896-1.984-.598-.491-1.43-.736-2.496-.736-1.088 0-1.931.245-2.528.736-.598.469-.896 1.131-.896 1.984.021.853.33 1.525.928 2.016.597.512 1.429.768 2.496.768zm3.552 8.768l-7.456-.032c-.384 0-.747-.021-1.088-.064a2.068 2.068 0 00-.512.672c-.107.235-.16.491-.16.768 0 .725.469 1.259 1.408 1.6.917.32 2.272.48 4.064.48 2.176 0 3.733-.16 4.672-.48.917-.32 1.365-.811 1.344-1.472 0-.491-.182-.864-.544-1.12-.363-.235-.939-.352-1.728-.352zm27.734-8.576v1.28h-14.016c.085 1.109.554 1.973 1.408 2.592.853.619 2.016.928 3.488.928 1.045 0 1.973-.203 2.784-.608a4.678 4.678 0 001.92-1.728l4.096 1.856c-.854 1.344-2.038 2.379-3.552 3.104-1.515.747-3.307 1.12-5.376 1.12-3.158-.021-5.611-.757-7.36-2.208-1.75-1.451-2.635-3.499-2.656-6.144.042-2.709.928-4.821 2.656-6.336 1.706-1.493 4.053-2.251 7.04-2.272 3.05.021 5.408.768 7.072 2.24 1.642 1.451 2.474 3.509 2.496 6.176zm-5.376-1.696v-.064c-.022-1.109-.406-1.973-1.152-2.592-.768-.619-1.803-.928-3.104-.928-1.323 0-2.368.32-3.136.96-.768.619-1.195 1.493-1.28 2.624h8.672zm13.764-1.824c.448-1.536 1.195-2.72 2.24-3.552 1.045-.832 2.357-1.259 3.936-1.28.235 0 .427.011.576.032.171 0 .331.021.48.064v4.992a10.198 10.198 0 00-1.632-.128c-.853 0-1.579.107-2.176.32a4.208 4.208 0 00-1.504.896 4.326 4.326 0 00-1.12 1.824 8.493 8.493 0 00-.32 2.4v6.016h-5.472v-16h4.992v4.416zM98.4 149.14v1.328h-4.336V160.5h-1.568v-10.032H88.16v-1.328H98.4zm4.211 11.6c-.992-.011-1.782-.224-2.368-.64-.576-.416-.87-.992-.88-1.728 0-.384.085-.736.255-1.056a2.12 2.12 0 01.737-.768c.277-.171.645-.32 1.104-.448.458-.117 1.082-.213 1.872-.288l2.976-.224v-.144c0-.693-.208-1.211-.624-1.552-.416-.331-1.035-.496-1.856-.496-.779 0-1.398.144-1.856.432a1.671 1.671 0 00-.8 1.248h-1.537c.097-.853.518-1.531 1.265-2.032.736-.512 1.712-.773 2.928-.784 1.312 0 2.293.272 2.944.816.64.555.96 1.397.96 2.528v2.112c0 .661.016 1.205.048 1.632.042.427.106.811.191 1.152h-1.471a4.877 4.877 0 01-.08-.736 17.724 17.724 0 01-.048-.816 3.116 3.116 0 01-1.392 1.328c-.63.309-1.419.464-2.368.464zm.384-1.12c1.002-.011 1.802-.251 2.4-.72.608-.459.917-1.093.928-1.904v-.4l-3.248.304c-.811.085-1.387.24-1.728.464-.331.235-.491.56-.48.976 0 .405.186.72.56.944.362.224.885.336 1.568.336zm14.18.88l-2.912-4.144-2.176 1.712v2.432h-1.408v-11.6h1.408v7.616l4.672-4.016h1.952l-3.36 2.96 3.584 5.04h-1.76zm3.546-9.472v-1.776h1.648v1.776h-1.648zm.128 9.472v-8h1.408v8h-1.408zm4.516 0v-8h1.36v1.744c.661-1.333 1.824-2 3.488-2 1.152 0 2.021.315 2.608.944.597.629.896 1.552.896 2.768v4.544h-1.408v-4.336c0-1.792-.848-2.688-2.544-2.688-.918.011-1.643.288-2.176.832-.534.544-.806 1.296-.816 2.256v3.936h-1.408zm18.74-8.096c-.331 0-.603.059-.816.176a1.017 1.017 0 00-.48.512c.288.245.512.528.672.848.149.331.224.693.224 1.088-.011.832-.336 1.499-.976 2-.651.512-1.552.773-2.704.784-.779 0-1.451-.128-2.016-.384-.224.075-.4.181-.528.32a.676.676 0 00-.208.496c0 .245.106.437.32.576.213.149.56.224 1.04.224h3.152c.949 0 1.658.192 2.128.576.48.373.72.923.72 1.648.01.821-.363 1.456-1.12 1.904-.758.448-1.942.677-3.552.688-1.579-.011-2.704-.219-3.376-.624-.683-.395-1.014-.923-.992-1.584 0-.384.112-.72.336-1.008.224-.288.56-.501 1.008-.64-.331-.139-.571-.325-.72-.56a1.387 1.387 0 01-.24-.8c0-.405.122-.741.368-1.008.234-.267.56-.469.976-.608a2.516 2.516 0 01-.736-.88 2.465 2.465 0 01-.256-1.12c.01-.832.341-1.499.992-2 .64-.501 1.541-.757 2.704-.768.821 0 1.509.133 2.064.4.117-.448.346-.805.688-1.072.352-.256.816-.389 1.392-.4.096 0 .186.005.272.016.096.011.197.027.304.048v1.216a2.677 2.677 0 00-.64-.064zm-4.08 4.368c.714-.011 1.274-.171 1.68-.48.405-.32.613-.741.624-1.264-.011-.523-.219-.939-.624-1.248-.406-.299-.966-.453-1.68-.464-.715 0-1.275.155-1.68.464-.406.299-.614.715-.624 1.248.01.523.218.939.624 1.248.405.32.965.485 1.68.496zm1.488 3.504h-2.928c-.278 0-.528-.016-.752-.048-.299.128-.523.293-.672.496-.15.213-.224.443-.224.688.01.469.282.805.816 1.008.533.203 1.296.304 2.288.304 1.173 0 2.005-.123 2.496-.368.48-.245.714-.576.704-.992 0-.363-.139-.635-.416-.816-.288-.181-.726-.272-1.312-.272zm10.445.224v-8h1.36v1.744c.662-1.333 1.824-2 3.488-2 1.152 0 2.022.315 2.608.944.598.629.896 1.552.896 2.768v4.544h-1.408v-4.336c0-1.792-.848-2.688-2.544-2.688-.917.011-1.642.288-2.176.832-.533.544-.805 1.296-.816 2.256v3.936h-1.408zm14.853.24c-1.387-.011-2.491-.395-3.312-1.152-.822-.747-1.243-1.776-1.264-3.088.021-1.312.442-2.341 1.264-3.088.821-.757 1.925-1.141 3.312-1.152 1.386.011 2.49.395 3.312 1.152.81.747 1.226 1.776 1.248 3.088-.022 1.312-.438 2.341-1.248 3.088-.822.757-1.926 1.141-3.312 1.152zm0-1.216c.949 0 1.696-.261 2.24-.784.544-.523.821-1.269.832-2.24-.011-.971-.288-1.717-.832-2.24-.544-.523-1.291-.784-2.24-.784-.95 0-1.696.261-2.24.784-.544.523-.822 1.269-.832 2.24.01.971.288 1.717.832 2.24.544.523 1.29.784 2.24.784zm5.508-5.872V152.5h1.92v-2.096l1.424-.592v2.688h2.848v1.152h-2.848v4.128c0 .544.128.944.384 1.2.266.245.666.368 1.2.368.234 0 .458-.016.672-.048.202-.021.405-.059.608-.112v1.264a3.535 3.535 0 01-.688.144 5.443 5.443 0 01-.864.064c-1.099-.021-1.835-.299-2.208-.832-.384-.533-.56-1.189-.528-1.968v-4.208h-1.92zm16.326 2.464v.8h-7.392c.032.811.32 1.445.864 1.904.554.459 1.317.693 2.288.704.714 0 1.322-.133 1.824-.4.49-.267.869-.661 1.136-1.184l1.184.544c-.384.747-.928 1.307-1.632 1.68-.704.384-1.563.576-2.576.576-1.419-.011-2.523-.373-3.312-1.088-.8-.715-1.206-1.733-1.216-3.056.021-1.387.426-2.453 1.216-3.2.8-.747 1.882-1.125 3.248-1.136 1.376.011 2.442.341 3.2.992.768.661 1.157 1.616 1.168 2.864zm-1.456-.304v-.112c-.022-.768-.299-1.355-.832-1.76-.534-.405-1.232-.608-2.096-.608-.896.011-1.611.235-2.144.672-.523.437-.811 1.04-.864 1.808h5.936zm7.337 4.928c-1.184 0-2.144-.224-2.88-.672-.725-.448-1.237-1.088-1.536-1.92l1.328-.432a2.556 2.556 0 001.12 1.392c.533.32 1.227.48 2.08.48.725 0 1.275-.107 1.648-.32.373-.213.56-.533.56-.96.011-.373-.101-.651-.336-.832-.224-.192-.597-.304-1.12-.336l-2.352-.176c-.864-.085-1.509-.325-1.936-.72-.427-.395-.64-.917-.64-1.568.011-.757.336-1.349.976-1.776.64-.416 1.531-.629 2.672-.64 1.109.011 2.016.219 2.72.624.704.405 1.168.965 1.392 1.68l-1.328.448a2.44 2.44 0 00-.992-1.2c-.469-.288-1.093-.432-1.872-.432-.693 0-1.232.107-1.616.32-.373.213-.565.523-.576.928 0 .661.512 1.04 1.536 1.136l2.384.176c.885.085 1.52.32 1.904.704.395.384.587.901.576 1.552 0 .789-.304 1.408-.912 1.856-.608.448-1.541.677-2.8.688z" fill="#3A2D52"/><rect x="483" y="42.5" width="196" height="94" rx="4" fill="#FFFBF5"/><path d="M518.008 59.78c2.688.021 4.8.672 6.336 1.952 1.536 1.301 2.315 3.083 2.336 5.344-.021 2.368-.821 4.213-2.4 5.536-1.557 1.344-3.712 2.027-6.464 2.048h-6.464v7.84h-5.728V59.78h12.384zM516.6 70.692c1.28 0 2.272-.299 2.976-.896.704-.597 1.056-1.45 1.056-2.56 0-1.088-.352-1.93-1.056-2.528-.683-.597-1.675-.896-2.976-.896h-5.248v6.88h5.248zm17.916.224c.448-1.536 1.195-2.72 2.24-3.552 1.046-.832 2.358-1.259 3.936-1.28.235 0 .427.01.576.032.171 0 .331.021.48.064v4.992a10.065 10.065 0 00-1.632-.128c-.853 0-1.578.107-2.176.32a4.221 4.221 0 00-1.504.896 4.322 4.322 0 00-1.12 1.824 8.496 8.496 0 00-.32 2.4V82.5h-5.472v-16h4.992v4.416zm18.613 12.064c-2.965-.021-5.354-.768-7.168-2.24-1.834-1.45-2.773-3.541-2.816-6.272.043-2.71.982-4.79 2.816-6.24 1.814-1.45 4.203-2.187 7.168-2.208 2.966.021 5.366.757 7.2 2.208 1.835 1.45 2.774 3.53 2.816 6.24-.042 2.73-.981 4.821-2.816 6.272-1.834 1.472-4.234 2.219-7.2 2.24zm0-3.68c1.366 0 2.443-.416 3.232-1.248.79-.81 1.195-2.005 1.216-3.584-.021-1.579-.426-2.763-1.216-3.552-.789-.81-1.866-1.216-3.232-1.216-1.365 0-2.442.405-3.232 1.216-.789.79-1.194 1.973-1.216 3.552.022 1.579.427 2.773 1.216 3.584.79.832 1.867 1.248 3.232 1.248zm19.767 3.68c-2.389-.043-4.309-.821-5.76-2.336-1.429-1.536-2.165-3.584-2.208-6.144.043-2.581.8-4.63 2.272-6.144 1.493-1.515 3.477-2.293 5.952-2.336 1.387 0 2.603.235 3.648.704a5.637 5.637 0 012.464 2.048V59.3h5.472v23.2h-5.248v-2.912c-.597 1.067-1.472 1.899-2.624 2.496-1.131.597-2.453.896-3.968.896zm2.112-3.68c1.323-.021 2.368-.405 3.136-1.152.789-.768 1.195-1.792 1.216-3.072V74.02c-.021-1.365-.427-2.421-1.216-3.168-.789-.747-1.867-1.13-3.232-1.152-1.365 0-2.421.416-3.168 1.248-.768.81-1.152 1.973-1.152 3.488.021 1.515.416 2.699 1.184 3.552.789.853 1.867 1.29 3.232 1.312zm21.01 3.68c-2.261-.021-3.957-.619-5.088-1.792-1.131-1.173-1.696-2.859-1.696-5.056V66.5h5.472v8.544c.021 1.387.341 2.39.96 3.008.64.619 1.472.917 2.496.896 1.387-.043 2.432-.459 3.136-1.248.683-.81 1.024-1.803 1.024-2.976V66.5h5.472v16h-5.28v-3.296c-.555 1.216-1.397 2.144-2.528 2.784-1.131.661-2.453.992-3.968.992zm25.018 0c-3.072-.021-5.504-.79-7.296-2.304-1.77-1.515-2.677-3.584-2.72-6.208.022-2.645.928-4.715 2.72-6.208 1.771-1.472 4.235-2.219 7.392-2.24 2.582 0 4.683.512 6.304 1.536 1.6 1.003 2.614 2.453 3.04 4.352l-5.408.928c-.234-.96-.693-1.696-1.376-2.208-.704-.49-1.61-.736-2.72-.736-1.365 0-2.432.395-3.2 1.184-.746.768-1.13 1.867-1.152 3.296.022 1.472.416 2.613 1.184 3.424.768.81 1.835 1.227 3.2 1.248 1.11 0 2.006-.256 2.688-.768.704-.49 1.174-1.227 1.408-2.208l5.376 1.024c-.426 1.835-1.472 3.264-3.136 4.288-1.664 1.045-3.765 1.579-6.304 1.6zm10.405-12.896V66.5h3.616v-3.808l5.472-2.048V66.5h5.28v3.584h-5.28v5.6c0 1.877 1.003 2.816 3.008 2.816.47 0 .886-.032 1.248-.096.384-.043.726-.096 1.024-.16v4.16c-.554.15-1.141.256-1.76.32-.597.085-1.248.128-1.952.128-2.432 0-4.213-.512-5.344-1.536-1.152-1.003-1.717-2.475-1.696-4.416v-6.816h-3.616zM511.896 121.98c-2.389-.043-4.309-.821-5.76-2.336-1.429-1.536-2.165-3.584-2.208-6.144.043-2.581.8-4.629 2.272-6.144 1.493-1.515 3.477-2.293 5.952-2.336 1.387 0 2.603.235 3.648.704a5.64 5.64 0 012.464 2.048V98.3h5.472v23.2h-5.248v-2.912c-.597 1.067-1.472 1.899-2.624 2.496-1.131.597-2.453.896-3.968.896zm2.112-3.68c1.323-.021 2.368-.405 3.136-1.152.789-.768 1.195-1.792 1.216-3.072v-1.056c-.021-1.365-.427-2.421-1.216-3.168-.789-.747-1.867-1.131-3.232-1.152-1.365 0-2.421.416-3.168 1.248-.768.811-1.152 1.973-1.152 3.488.021 1.515.416 2.699 1.184 3.552.789.853 1.867 1.291 3.232 1.312zm32.37-4.864v1.28h-14.016c.085 1.109.555 1.973 1.408 2.592.853.619 2.016.928 3.488.928 1.045 0 1.973-.203 2.784-.608a4.678 4.678 0 001.92-1.728l4.096 1.856c-.853 1.344-2.037 2.379-3.552 3.104-1.515.747-3.307 1.12-5.376 1.12-3.157-.021-5.611-.757-7.36-2.208-1.749-1.451-2.635-3.499-2.656-6.144.043-2.709.928-4.821 2.656-6.336 1.707-1.493 4.053-2.251 7.04-2.272 3.051.021 5.408.768 7.072 2.24 1.643 1.451 2.475 3.509 2.496 6.176zm-5.376-1.696v-.064c-.021-1.109-.405-1.973-1.152-2.592-.768-.619-1.803-.928-3.104-.928-1.323 0-2.368.32-3.136.96-.768.619-1.195 1.493-1.28 2.624h8.672zm16.708 10.24c-2.24 0-4.181-.32-5.824-.96-1.642-.64-2.965-1.589-3.968-2.848l2.944-2.496c.747.896 1.707 1.579 2.88 2.048 1.152.469 2.56.704 4.224.704 1.11 0 1.931-.117 2.464-.352.512-.256.768-.629.768-1.12.022-.448-.138-.779-.48-.992-.32-.213-.928-.363-1.824-.448l-4.256-.416c-1.941-.235-3.392-.768-4.352-1.6-.938-.811-1.408-1.92-1.408-3.328.022-1.643.747-2.912 2.176-3.808 1.43-.896 3.499-1.344 6.208-1.344 1.942 0 3.67.267 5.184.8 1.494.512 2.699 1.259 3.616 2.24l-2.56 2.624a8.123 8.123 0 00-2.784-1.632c-1.066-.363-2.314-.544-3.744-.544-1.045 0-1.824.107-2.336.32-.512.213-.768.555-.768 1.024 0 .384.16.683.48.896.32.192.843.331 1.568.416l4.704.48c1.942.213 3.35.736 4.224 1.568.875.811 1.302 1.92 1.28 3.328 0 1.707-.704 3.04-2.112 4-1.408.939-3.509 1.419-6.304 1.44zm11.53-18.784v-4.768H575v4.768h-5.76zm.128 18.304v-16h5.472v16h-5.472zm29.003-15.168a13.626 13.626 0 00-.8-.16 11.036 11.036 0 00-.832-.032c-.918 0-1.654.181-2.208.544.661.469 1.162 1.013 1.504 1.632.341.64.512 1.355.512 2.144-.022 1.707-.8 3.051-2.336 4.032-1.536.981-3.67 1.483-6.4 1.504-.811 0-1.568-.043-2.272-.128a17.064 17.064 0 01-1.984-.416c-.427.213-.64.512-.64.896 0 .405.17.715.512.928.362.213.906.32 1.632.32h6.88c4.224.021 6.325 1.589 6.304 4.704 0 1.941-.907 3.413-2.72 4.416-1.814 1.003-4.555 1.504-8.224 1.504-3.115 0-5.43-.341-6.944-1.024-1.515-.661-2.272-1.6-2.272-2.816 0-.683.234-1.259.704-1.728.469-.491 1.173-.875 2.112-1.152-.747-.299-1.323-.704-1.728-1.216a2.798 2.798 0 01-.608-1.792c0-.896.288-1.653.864-2.272.576-.64 1.408-1.109 2.496-1.408-.939-.491-1.654-1.109-2.144-1.856-.491-.725-.736-1.557-.736-2.496.021-1.707.8-3.04 2.336-4 1.536-.939 3.68-1.419 6.432-1.44 1.792 0 3.349.213 4.672.64.277-.96.832-1.696 1.664-2.208.832-.512 1.909-.768 3.232-.768.17 0 .341.011.512.032.149 0 .309.021.48.064v3.552zm-10.56 6.912c1.045 0 1.866-.256 2.464-.768.597-.491.906-1.163.928-2.016 0-.853-.299-1.515-.896-1.984-.598-.491-1.43-.736-2.496-.736-1.088 0-1.931.245-2.528.736-.598.469-.896 1.131-.896 1.984.021.853.33 1.525.928 2.016.597.512 1.429.768 2.496.768zm3.552 8.768l-7.456-.032c-.384 0-.747-.021-1.088-.064a2.068 2.068 0 00-.512.672c-.107.235-.16.491-.16.768 0 .725.469 1.259 1.408 1.6.917.32 2.272.48 4.064.48 2.176 0 3.733-.16 4.672-.48.917-.32 1.365-.811 1.344-1.472 0-.491-.182-.864-.544-1.12-.363-.235-.939-.352-1.728-.352zm9.974-.512v-16h5.312v3.36c.64-1.28 1.525-2.24 2.656-2.88 1.109-.64 2.453-.96 4.032-.96 2.24 0 3.936.629 5.088 1.888 1.152 1.28 1.728 3.157 1.728 5.632v8.96h-5.472v-8.128c0-1.429-.299-2.507-.896-3.232-.619-.704-1.547-1.056-2.784-1.056-1.344 0-2.379.395-3.104 1.184-.726.789-1.088 1.909-1.088 3.36v7.872h-5.472zm40.916-8.064v1.28h-14.016c.085 1.109.555 1.973 1.408 2.592.853.619 2.016.928 3.488.928 1.045 0 1.973-.203 2.784-.608a4.678 4.678 0 001.92-1.728l4.096 1.856c-.853 1.344-2.037 2.379-3.552 3.104-1.515.747-3.307 1.12-5.376 1.12-3.157-.021-5.611-.757-7.36-2.208-1.749-1.451-2.635-3.499-2.656-6.144.043-2.709.928-4.821 2.656-6.336 1.707-1.493 4.053-2.251 7.04-2.272 3.051.021 5.408.768 7.072 2.24 1.643 1.451 2.475 3.509 2.496 6.176zm-5.376-1.696v-.064c-.021-1.109-.405-1.973-1.152-2.592-.768-.619-1.803-.928-3.104-.928-1.323 0-2.368.32-3.136.96-.768.619-1.195 1.493-1.28 2.624h8.672zm13.764-1.824c.448-1.536 1.195-2.72 2.24-3.552 1.046-.832 2.358-1.259 3.936-1.28.235 0 .427.011.576.032.171 0 .331.021.48.064v4.992a10.198 10.198 0 00-1.632-.128c-.853 0-1.578.107-2.176.32a4.217 4.217 0 00-1.504.896 4.326 4.326 0 00-1.12 1.824 8.493 8.493 0 00-.32 2.4v6.016h-5.472v-16h4.992v4.416zm-157.337 40.536h-7.024v3.584h6.752v1.312h-6.752v5.152h-1.568v-11.36h8.592v1.312zm4.775 10.288c-.992-.011-1.781-.224-2.368-.64-.576-.416-.869-.992-.88-1.728 0-.384.086-.736.256-1.056.171-.309.416-.565.736-.768.278-.171.646-.32 1.104-.448.459-.117 1.083-.213 1.872-.288l2.976-.224v-.144c0-.693-.208-1.211-.624-1.552-.416-.331-1.034-.496-1.856-.496-.778 0-1.397.144-1.856.432a1.677 1.677 0 00-.8 1.248h-1.536c.096-.853.518-1.531 1.264-2.032.736-.512 1.712-.773 2.928-.784 1.312 0 2.294.272 2.944.816.64.555.96 1.397.96 2.528v2.112c0 .661.016 1.205.048 1.632.043.427.107.811.192 1.152h-1.472a5.15 5.15 0 01-.08-.736 21.071 21.071 0 01-.048-.816 3.106 3.106 0 01-1.392 1.328c-.629.309-1.418.464-2.368.464zm.384-1.12c1.003-.011 1.803-.251 2.4-.72.608-.459.918-1.093.928-1.904v-.4l-3.248.304c-.81.085-1.386.24-1.728.464-.33.235-.49.56-.48.976 0 .405.187.72.56.944.363.224.886.336 1.568.336zm11.221 1.12c-1.376-.011-2.464-.395-3.264-1.152-.8-.757-1.211-1.787-1.232-3.088.01-1.323.421-2.357 1.232-3.104.8-.747 1.898-1.125 3.296-1.136 1.184 0 2.128.251 2.832.752.704.501 1.152 1.237 1.344 2.208l-1.488.176c-.15-.629-.448-1.109-.896-1.44-.459-.32-1.067-.48-1.824-.48-.95.011-1.686.272-2.208.784-.512.523-.774 1.264-.784 2.224.01.971.277 1.717.8 2.24.533.523 1.274.789 2.224.8 1.461 0 2.384-.635 2.768-1.904l1.392.224c-.214.917-.683 1.627-1.408 2.128-.726.501-1.654.757-2.784.768zm6.318-9.712v-1.776h1.648v1.776h-1.648zm.128 9.472v-8h1.408v8h-1.408zm6.004-11.6v11.6h-1.408v-11.6h1.408zm3.056 2.128v-1.776h1.648v1.776h-1.648zm.128 9.472v-8h1.408v8h-1.408zm3.219-6.848V152.5h1.92v-2.096l1.424-.592v2.688h2.848v1.152h-2.848v4.128c0 .544.128.944.384 1.2.267.245.667.368 1.2.368.235 0 .459-.016.672-.048a4.03 4.03 0 00.608-.112v1.264a3.519 3.519 0 01-.688.144 5.425 5.425 0 01-.864.064c-1.098-.021-1.834-.299-2.208-.832-.384-.533-.56-1.189-.528-1.968v-4.208h-1.92zm10.87 7.088c-.992-.011-1.781-.224-2.368-.64-.576-.416-.869-.992-.88-1.728 0-.384.086-.736.256-1.056.171-.309.416-.565.736-.768.278-.171.646-.32 1.104-.448.459-.117 1.083-.213 1.872-.288l2.976-.224v-.144c0-.693-.208-1.211-.624-1.552-.416-.331-1.034-.496-1.856-.496-.778 0-1.397.144-1.856.432a1.677 1.677 0 00-.8 1.248h-1.536c.096-.853.518-1.531 1.264-2.032.736-.512 1.712-.773 2.928-.784 1.312 0 2.294.272 2.944.816.64.555.96 1.397.96 2.528v2.112c0 .661.016 1.205.048 1.632.043.427.107.811.192 1.152h-1.472a5.15 5.15 0 01-.08-.736 21.071 21.071 0 01-.048-.816 3.106 3.106 0 01-1.392 1.328c-.629.309-1.418.464-2.368.464zm.384-1.12c1.003-.011 1.803-.251 2.4-.72.608-.459.918-1.093.928-1.904v-.4l-3.248.304c-.81.085-1.386.24-1.728.464-.33.235-.49.56-.48.976 0 .405.187.72.56.944.363.224.886.336 1.568.336zm6.309-5.968V152.5h1.92v-2.096l1.424-.592v2.688h2.848v1.152h-2.848v4.128c0 .544.128.944.384 1.2.266.245.666.368 1.2.368.234 0 .458-.016.672-.048.202-.021.405-.059.608-.112v1.264a3.535 3.535 0 01-.688.144 5.443 5.443 0 01-.864.064c-1.099-.021-1.835-.299-2.208-.832-.384-.533-.56-1.189-.528-1.968v-4.208h-1.92zm8.246-2.624v-1.776h1.648v1.776h-1.648zm.128 9.472v-8h1.408v8h-1.408zm4.516 0v-8h1.36v1.744c.661-1.333 1.824-2 3.488-2 1.152 0 2.021.315 2.608.944.597.629.896 1.552.896 2.768v4.544h-1.408v-4.336c0-1.792-.848-2.688-2.544-2.688-.918.011-1.643.288-2.176.832-.534.544-.806 1.296-.816 2.256v3.936h-1.408zm18.74-8.096c-.331 0-.603.059-.816.176a1.017 1.017 0 00-.48.512c.288.245.512.528.672.848.149.331.224.693.224 1.088-.011.832-.336 1.499-.976 2-.651.512-1.552.773-2.704.784-.779 0-1.451-.128-2.016-.384-.224.075-.4.181-.528.32a.676.676 0 00-.208.496c0 .245.106.437.32.576.213.149.56.224 1.04.224h3.152c.949 0 1.658.192 2.128.576.48.373.72.923.72 1.648.01.821-.363 1.456-1.12 1.904-.758.448-1.942.677-3.552.688-1.579-.011-2.704-.219-3.376-.624-.683-.395-1.014-.923-.992-1.584 0-.384.112-.72.336-1.008.224-.288.56-.501 1.008-.64-.331-.139-.571-.325-.72-.56a1.387 1.387 0 01-.24-.8c0-.405.122-.741.368-1.008.234-.267.56-.469.976-.608a2.516 2.516 0 01-.736-.88 2.465 2.465 0 01-.256-1.12c.01-.832.341-1.499.992-2 .64-.501 1.541-.757 2.704-.768.821 0 1.509.133 2.064.4.117-.448.346-.805.688-1.072.352-.256.816-.389 1.392-.4.096 0 .186.005.272.016.096.011.197.027.304.048v1.216a2.677 2.677 0 00-.64-.064zm-4.08 4.368c.714-.011 1.274-.171 1.68-.48.405-.32.613-.741.624-1.264-.011-.523-.219-.939-.624-1.248-.406-.299-.966-.453-1.68-.464-.715 0-1.275.155-1.68.464-.406.299-.614.715-.624 1.248.01.523.218.939.624 1.248.405.32.965.485 1.68.496zm1.488 3.504h-2.928c-.278 0-.528-.016-.752-.048-.299.128-.523.293-.672.496-.15.213-.224.443-.224.688.01.469.282.805.816 1.008.533.203 1.296.304 2.288.304 1.173 0 2.005-.123 2.496-.368.48-.245.714-.576.704-.992 0-.363-.139-.635-.416-.816-.288-.181-.726-.272-1.312-.272z" fill="#3A2D52"/></svg>