<svg width="336" height="470" fill="none" xmlns="http://www.w3.org/2000/svg"><g clip-path="url(#clip0_2967_48729)"><path d="M0 0h336v470H0V0z" fill="#fff"/><path d="M0 0h336v470H0V0z" fill="#F0F0F0"/><path d="M16 0C7.163 0 0 7.163 0 16v288.381h70.112c21.056 0 42 3.133 61.936 9.96 11.2 3.804 23.184 5.931 35.616 5.931 12.432 0 24.416-2.127 35.616-5.931 19.936-6.827 40.88-9.96 61.936-9.96H336V16c0-8.837-7.163-16-16-16H16z" fill="#212121"/><path d="M0 440.905h336V470H0v-29.095z" fill="#000"/><path d="M321.44 454.557l-1.344-1.231c-.112-.112-.224-.112-.336 0l-1.232 1.231v-5.147h-7.168v-.896c0-.447.448-.895.896-.895h11.536c.336 0 .56-.224.56-.559 0-.336-.224-.56-.448-.56h-11.648c-1.12 0-2.016.895-2.016 2.014v14.436c0 .224.112.336.224.336h11.872c1.12 0 2.016-.896 2.016-2.015V449.41h-2.912v5.147zm-8.176 6.938c0 .336-.224.56-.56.56-.336 0-.56-.224-.56-.56v-10.519c0-.336.224-.559.56-.559.336 0 .56.223.56.559v10.519z" fill="#F0F0F0"/><path d="M133.557 363.082h1.733v9.561h-1.733v-9.561zm11.87 0v9.561h-1.29l-5.161-6.701v6.701h-1.613v-9.561h1.29l5.148 6.687v-6.687h1.626zm4.326 1.423h-3.118v-1.423h7.997v1.423H151.5v8.138h-1.747v-8.138zm6.077-1.423h6.397v1.37h-4.704v2.645h4.422v1.37h-4.422v2.806h4.704v1.37h-6.397v-9.561zm16.056 0v9.561h-1.29l-5.161-6.701v6.701h-1.613v-9.561h1.29l5.148 6.687v-6.687h1.626zm5.322 9.682a7.04 7.04 0 01-2.07-.296c-.636-.197-1.178-.479-1.626-.846l.591-1.262c.466.349.95.609 1.451.779.54.165 1.102.247 1.667.242.663 0 1.174-.117 1.532-.349.368-.233.551-.56.551-.981 0-.358-.17-.631-.511-.819-.331-.197-.882-.38-1.653-.55-1.2-.26-2.074-.596-2.62-1.008-.547-.411-.82-1.011-.82-1.799 0-.564.152-1.065.457-1.504.304-.439.734-.783 1.29-1.034.564-.251 1.214-.376 1.949-.376.672 0 1.308.103 1.908.309.609.197 1.107.474 1.492.832l-.578 1.263c-.851-.681-1.792-1.021-2.822-1.021-.619 0-1.107.13-1.465.39-.359.25-.538.595-.538 1.034 0 .376.157.662.471.859.322.197.869.38 1.639.551.798.188 1.447.393 1.949.617.502.215.887.497 1.156.846.269.34.403.77.403 1.289 0 .573-.152 1.075-.457 1.504-.305.421-.744.748-1.317.981-.573.232-1.25.349-2.029.349zm5.409-9.682h1.734v9.561h-1.734v-9.561zm6.052 1.423h-3.118v-1.423h7.996v1.423h-3.131v8.138h-1.747v-8.138z" fill="#212121"/><path d="M199.001 368.856v3.787h-1.734v-3.787l-3.884-5.774h1.976l2.769 4.324 2.782-4.324h1.975l-3.884 5.774z" fill="#212121"/><path d="M280.4 423.081h-2.715v2.712h-1.183v-2.712h-2.715v-1.196h2.715v-2.712h1.183v2.712h2.715v1.196zm-225.711.322v-1.343h4.044v1.343H54.69zm111.566-3.279c.471 0 .889.108 1.255.325.373.216.664.518.873.906.21.388.314.832.314 1.332 0 .507-.116.962-.347 1.365-.224.403-.541.72-.952.951a2.792 2.792 0 01-1.378.336c-1.008 0-1.784-.339-2.329-1.018-.545-.687-.818-1.66-.818-2.921 0-.88.127-1.638.381-2.272.261-.634.635-1.119 1.12-1.455.493-.335 1.075-.503 1.747-.503.478 0 .941.082 1.389.246.438.146.841.378 1.187.683l-.493 1.052c-.702-.552-1.377-.828-2.027-.828-.59 0-1.045.249-1.366.749-.321.5-.489 1.216-.504 2.149.171-.336.433-.601.784-.795a2.309 2.309 0 011.164-.302zm-.302 4.074c.411 0 .739-.135.986-.403.254-.269.38-.623.38-1.063 0-.441-.126-.791-.38-1.052-.247-.269-.579-.403-.997-.403-.418 0-.758.134-1.019.403-.262.268-.392.619-.392 1.052 0 .432.13.787.392 1.063.268.268.612.403 1.03.403z" fill="#949494"/><path fill-rule="evenodd" clip-rule="evenodd" d="M281.121 403.417H54.881v-3.357h226.24v3.357z" fill="#D8D8D8"/><path fill-rule="evenodd" clip-rule="evenodd" d="M178.081 403.417h-123.2v-3.357h123.2v3.357z" fill="#FF878B"/><path d="M194.88 401.179c0 5.871-4.764 10.631-10.64 10.631-5.877 0-10.64-4.76-10.64-10.631 0-5.872 4.763-10.631 10.64-10.631 5.876 0 10.64 4.759 10.64 10.631z" fill="#FF878B"/><path d="M190.4 401.179a6.153 6.153 0 01-6.16 6.154 6.146 6.146 0 01-4.354-1.801 6.156 6.156 0 01-1.806-4.353 6.16 6.16 0 0112.32 0z" fill="#F0F0F0"/><path d="M59.36 50.357H43.68c-3.136 0-5.6-2.462-5.6-5.595 0-3.133 2.464-5.596 5.6-5.596h15.68c3.136 0 5.6 2.463 5.6 5.596s-2.576 5.595-5.6 5.595z" fill="#373737"/><path d="M59.36 49.24a4.491 4.491 0 004.48-4.478 4.49 4.49 0 00-4.48-4.476c-2.463 0-4.48 2.014-4.48 4.476s2.017 4.477 4.48 4.477z" fill="#FF878B"/><path d="M17.842 49.339c-.77 0-1.441-.164-2.016-.492a3.429 3.429 0 01-1.322-1.422c-.306-.62-.46-1.346-.46-2.182 0-.828.154-1.548.46-2.16a3.27 3.27 0 011.31-1.42c.576-.33 1.25-.493 2.028-.493.776 0 1.448.164 2.016.492a3.186 3.186 0 011.31 1.422c.306.61.46 1.33.46 2.16 0 .835-.154 1.562-.46 2.18a3.354 3.354 0 01-1.31 1.423c-.568.328-1.24.492-2.016.492zm0-1.153c.739 0 1.314-.253 1.725-.76.41-.508.616-1.235.616-2.183 0-.94-.206-1.66-.616-2.16-.411-.507-.986-.76-1.725-.76-.74 0-1.314.25-1.725.75-.41.5-.616 1.223-.616 2.17 0 .948.205 1.675.616 2.182.41.508.985.76 1.725.76zm5.265 1.052V41.27h5.208v1.153H24.54v2.182h3.55v1.164h-3.55v3.47l-1.434-.001zm6.409 0V41.27h5.208v1.153h-3.775v2.182h3.55v1.164h-3.55v3.47l-1.433-.001z" fill="#424242"/><path d="M72.723 49.339c-.77 0-1.442-.164-2.016-.492a3.428 3.428 0 01-1.322-1.422c-.306-.62-.46-1.346-.46-2.182 0-.828.154-1.548.46-2.16a3.27 3.27 0 011.31-1.42c.575-.33 1.25-.493 2.028-.493.776 0 1.448.164 2.016.492a3.187 3.187 0 011.31 1.422c.306.61.46 1.33.46 2.16 0 .835-.154 1.562-.46 2.18a3.355 3.355 0 01-1.31 1.423c-.568.328-1.24.492-2.016.492zm0-1.153c.739 0 1.314-.253 1.724-.76.41-.508.616-1.235.616-2.183 0-.94-.205-1.66-.616-2.16-.41-.507-.985-.76-1.724-.76-.74 0-1.315.25-1.725.75-.41.5-.616 1.223-.616 2.17 0 .948.205 1.675.616 2.182.41.508.985.76 1.725.76zm10.63-6.916h1.355v7.968h-1.075l-4.3-5.584v5.584h-1.345V41.27h1.075l4.29 5.573V41.27zm176.723 7.968l-.795-1.87h-3.898l-.806 1.87h-1.456l3.606-7.967h1.176l3.618 7.967h-1.445zm-4.211-2.988h2.934l-1.467-3.413-1.467 3.413z" fill="#FF878B"/><path d="M268.576 49.898H267.4l2.901-9.088h1.199l-2.924 9.087zm13.834-4.779c.462.135.817.37 1.064.706.253.335.38.75.38 1.241 0 .68-.242 1.212-.728 1.6-.478.38-1.146.572-2.004.572h-3.618V41.27h3.506c.821 0 1.467.186 1.937.56.471.366.706.873.706 1.522 0 .418-.112.783-.336 1.097a1.855 1.855 0 01-.907.67zm-3.495-.492h1.859c1.001 0 1.501-.373 1.501-1.12 0-.372-.123-.651-.369-.838-.247-.186-.624-.28-1.132-.28h-1.859v2.238zm2.05 3.491c.522 0 .903-.093 1.142-.28.247-.185.37-.48.37-.883 0-.41-.123-.712-.37-.907-.239-.194-.62-.29-1.142-.29h-2.05v2.36h2.05zM22.4 264.187c-.693 0-1.297-.148-1.815-.443a3.089 3.089 0 01-1.19-1.279c-.275-.557-.413-1.212-.413-1.964 0-.745.138-1.393.414-1.944a2.94 2.94 0 011.18-1.279c.517-.295 1.125-.443 1.823-.443.7 0 1.304.148 1.815.443.517.296.91.722 1.18 1.279.275.551.413 1.199.413 1.944 0 .752-.138 1.407-.414 1.964-.275.55-.668.977-1.18 1.279-.51.295-1.114.443-1.813.443zm0-1.037c.665 0 1.182-.229 1.552-.685.37-.457.554-1.111.554-1.964 0-.846-.184-1.494-.554-1.944-.37-.456-.887-.685-1.553-.685-.665 0-1.182.225-1.552.675-.37.45-.554 1.101-.554 1.954s.185 1.507.554 1.964c.37.456.888.685 1.553.685zm7.702 1.037c-.988 0-1.738-.252-2.248-.755-.504-.511-.756-1.256-.756-2.236v-4.27h1.28v4.34c0 .618.144 1.088.433 1.41.29.316.72.474 1.29.474.558 0 .982-.161 1.27-.484.296-.322.444-.789.444-1.4v-4.34h1.28v4.27c0 .973-.255 1.715-.766 2.226-.51.51-1.253.765-2.227.765zm6.182-6.194h-2.339v-1.067h5.998v1.067h-2.349v6.103h-1.31v-6.103zm4.558-1.067h3.114c.773 0 1.375.188 1.805.564.43.369.645.876.645 1.52 0 .645-.218 1.155-.655 1.531-.43.376-1.028.564-1.794.564h-1.815v2.991h-1.3v-7.17zm2.963 3.172c.45 0 .79-.091 1.018-.272.236-.188.353-.456.353-.806 0-.355-.114-.624-.343-.805-.228-.188-.57-.282-1.028-.282h-1.663v2.165h1.663zm6.712 4.089c-.987 0-1.737-.252-2.247-.755-.504-.511-.756-1.256-.756-2.236v-4.27h1.28v4.34c0 .618.144 1.088.433 1.41.29.316.72.474 1.29.474.558 0 .982-.161 1.27-.484.296-.322.444-.789.444-1.4v-4.34h1.28v4.27c0 .973-.255 1.715-.766 2.226-.51.51-1.253.765-2.227.765zm6.183-6.194h-2.34v-1.067h5.998v1.067H58.01v6.103H56.7v-6.103zM28.187 79.513v1.058h-4.425v-1.058h1.572V74.89l-1.46.877V74.61l1.994-1.209h.756v6.113h1.563zm3.513 1.148c-.852 0-1.504-.311-1.955-.936-.443-.63-.665-1.547-.665-2.75 0-1.181.222-2.084.665-2.71.45-.624 1.102-.936 1.956-.936.853 0 1.502.313 1.945.938.45.618.676 1.52.676 2.709 0 1.195-.225 2.108-.676 2.74-.443.63-1.093.946-1.946.946zm0-1.017c.465 0 .8-.21 1.01-.634.214-.43.321-1.108.321-2.035 0-.912-.107-1.578-.322-1.993-.208-.424-.544-.635-1.008-.635-.464 0-.803.212-1.018.635-.209.415-.313 1.08-.313 1.993 0 .928.104 1.606.313 2.035.215.423.553.634 1.017.634zm.383 17.606c.45 0 .847.099 1.19.293.342.188.608.456.796.805.188.343.282.74.282 1.189.01.438-.102.869-.322 1.249a2.208 2.208 0 01-.928.836c-.403.195-.87.292-1.4.292-.45 0-.895-.074-1.33-.221a3.175 3.175 0 01-1.08-.615l.433-.946c.652.496 1.318.745 1.996.745.45 0 .793-.111 1.03-.332.24-.229.361-.55.361-.968 0-.395-.124-.712-.373-.947-.242-.242-.568-.362-.977-.362-.283 0-.548.053-.797.162-.249.1-.473.255-.655.452h-.786v-4.22h4.496v1.007h-3.226v1.955c.363-.25.793-.373 1.29-.373zm-.383 25.936c-.853 0-1.504-.312-1.955-.937-.443-.631-.665-1.547-.665-2.749 0-1.182.222-2.085.665-2.709.45-.625 1.102-.937 1.956-.937.853 0 1.502.312 1.945.937.45.617.676 1.52.676 2.709 0 1.195-.225 2.108-.676 2.739-.443.631-1.093.947-1.946.947zm0-1.017c.465 0 .8-.212 1.01-.635.214-.429.321-1.108.321-2.034 0-.913-.107-1.578-.322-1.994-.208-.423-.544-.635-1.008-.635-.464 0-.803.212-1.018.635-.209.416-.313 1.081-.313 1.994 0 .926.104 1.605.313 2.034.215.423.553.635 1.017.635zm-6.749 18.966h3.034v1.007h-3.034v-1.007zm7.132-1.36c.45 0 .847.097 1.19.292.342.188.608.457.796.806.188.342.282.738.282 1.188 0 .47-.107.886-.322 1.249a2.211 2.211 0 01-.928.836c-.403.195-.87.292-1.4.292-.45 0-.895-.074-1.332-.222a3.165 3.165 0 01-1.078-.614l.433-.947c.652.497 1.317.746 1.996.746.45 0 .793-.111 1.028-.333.242-.228.363-.55.363-.967 0-.396-.124-.711-.373-.946-.242-.242-.568-.363-.977-.363-.283 0-.548.054-.797.161a1.822 1.822 0 00-.655.453h-.786v-4.219h4.496v1.007h-3.226v1.954c.363-.249.793-.373 1.29-.373zm-13.175 22.621h3.034v1.008h-3.034v-1.008zm9.28 2.166v1.057h-4.426v-1.057h1.572v-4.623l-1.46.876v-1.158l1.994-1.209h.756v6.114h1.563zm3.512 1.148c-.853 0-1.504-.312-1.955-.937-.443-.631-.665-1.547-.665-2.749 0-1.182.222-2.085.665-2.709.45-.625 1.102-.937 1.956-.937.853 0 1.502.312 1.945.937.45.617.676 1.52.676 2.709 0 1.195-.225 2.108-.676 2.739-.443.631-1.093.947-1.946.947zm0-1.017c.465 0 .8-.212 1.01-.635.214-.429.321-1.108.321-2.034 0-.913-.107-1.578-.322-1.994-.208-.423-.544-.635-1.008-.635-.464 0-.803.212-1.018.635-.209.416-.313 1.081-.313 1.994 0 .926.104 1.605.313 2.034.215.423.553.635 1.017.635zm-12.792 18.965h3.034v1.008h-3.034v-1.008zm9.28 2.166v1.057h-4.426v-1.057h1.572v-4.623l-1.46.876v-1.158l1.994-1.209h.756v6.114h1.563zm3.895-3.525c.45 0 .847.097 1.19.292.342.188.608.456.796.806.188.342.282.738.282 1.188 0 .47-.107.886-.322 1.249a2.211 2.211 0 01-.928.836c-.403.195-.87.292-1.4.292a4.161 4.161 0 01-1.332-.222 3.165 3.165 0 01-1.078-.614l.433-.947c.652.497 1.317.746 1.996.746.45 0 .793-.111 1.028-.333.242-.228.363-.55.363-.967 0-.396-.124-.711-.373-.946-.242-.242-.568-.363-.977-.363-.283 0-.548.054-.797.161a1.822 1.822 0 00-.655.453h-.786v-4.22h4.496v1.008h-3.226v1.953c.363-.248.793-.372 1.29-.372zM18.898 204.92h3.035v1.007h-3.035v-1.007zm9.26 2.166v1.057h-4.819v-.957l2.44-2.628c.288-.316.5-.605.634-.866.134-.262.202-.521.202-.776 0-.329-.098-.577-.293-.745-.188-.168-.46-.252-.816-.252-.632 0-1.28.248-1.946.745l-.433-.946c.282-.256.645-.457 1.09-.605.442-.154.89-.231 1.34-.231.72 0 1.286.178 1.703.533.423.35.635.823.635 1.42 0 .41-.09.796-.272 1.159-.175.362-.47.768-.887 1.218l-1.764 1.874h3.185zm3.542 1.148c-.853 0-1.504-.312-1.955-.937-.443-.631-.665-1.548-.665-2.749 0-1.182.222-2.085.665-2.71.45-.624 1.102-.936 1.956-.936.853 0 1.502.312 1.945.936.45.618.676 1.521.676 2.71 0 1.195-.226 2.108-.676 2.739-.443.631-1.093.947-1.946.947zm0-1.017c.464 0 .8-.212 1.01-.635.214-.43.321-1.108.321-2.034 0-.914-.107-1.578-.322-1.995-.209-.423-.545-.634-1.008-.634-.464 0-.803.211-1.018.634-.209.417-.313 1.081-.313 1.995 0 .926.104 1.604.313 2.034.215.423.553.635 1.017.635zm-12.802 18.965h3.035v1.007h-3.035v-1.007zm9.26 2.166v1.057h-4.819v-.957l2.44-2.628c.288-.316.5-.605.634-.867.129-.239.198-.505.202-.775 0-.329-.098-.577-.293-.745-.188-.168-.46-.252-.816-.252-.632 0-1.28.248-1.946.745l-.433-.947c.282-.255.645-.456 1.09-.604.442-.154.89-.231 1.34-.231.72 0 1.286.177 1.703.533.423.349.635.823.635 1.42 0 .41-.09.796-.272 1.159-.175.362-.47.768-.887 1.218l-1.764 1.874h3.185zm3.925-3.525c.45 0 .847.097 1.19.292.342.188.608.456.796.805.188.343.282.739.282 1.189 0 .47-.107.886-.322 1.249a2.213 2.213 0 01-.928.836c-.403.194-.87.292-1.4.292a4.156 4.156 0 01-1.33-.222 3.17 3.17 0 01-1.08-.614l.433-.947c.652.497 1.318.745 1.996.745.45 0 .793-.111 1.03-.332.24-.228.361-.551.361-.967 0-.396-.124-.712-.373-.947-.242-.241-.567-.362-.977-.362-.283 0-.548.053-.797.161a1.822 1.822 0 00-.655.453h-.786v-4.22h4.496v1.007h-3.226v1.954c.363-.248.793-.372 1.29-.372zm9.411 51.673c-.854 0-1.505-.313-1.956-.937-.443-.631-.665-1.548-.665-2.749 0-1.182.222-2.085.665-2.71.45-.624 1.102-.936 1.956-.936.853 0 1.502.312 1.945.936.45.618.676 1.521.676 2.71 0 1.195-.226 2.108-.676 2.739-.443.631-1.092.947-1.945.947zm0-1.018c.464 0 .8-.211 1.008-.634.215-.43.322-1.108.322-2.034 0-.914-.107-1.578-.322-1.995-.209-.423-.544-.634-1.008-.634-.464 0-.803.211-1.018.634-.209.417-.313 1.081-.313 1.995 0 .926.104 1.604.313 2.034.215.423.554.634 1.018.634zm11.34-6.486v7.413h-1.24v-.816c-.153.28-.384.511-.665.665a2.081 2.081 0 01-.988.232c-.436 0-.826-.111-1.169-.333a2.255 2.255 0 01-.806-.936 3.328 3.328 0 01-.282-1.4c0-.524.094-.984.282-1.38a2.127 2.127 0 011.976-1.249c.362 0 .685.077.967.232.29.147.51.359.666.634v-3.062h1.26zm-2.56 6.507c.417 0 .74-.145.968-.433.235-.289.353-.699.353-1.229 0-.531-.115-.94-.343-1.229-.229-.289-.55-.433-.968-.433-.423 0-.752.144-.988.433-.228.282-.342.685-.342 1.209 0 .53.114.943.342 1.238.236.296.562.444.978.444zm8.438-2.8c.417.121.736.332.957.634.23.302.343.675.343 1.118 0 .611-.218 1.091-.655 1.44-.43.343-1.032.514-1.804.514h-3.256v-7.171h3.155c.74 0 1.32.168 1.744.504.423.329.635.785.635 1.369 0 .376-.1.705-.303.987a1.672 1.672 0 01-.816.605zm-3.145-.443h1.673c.9 0 1.351-.336 1.351-1.008 0-.335-.11-.587-.333-.755-.22-.168-.56-.252-1.018-.252h-1.673v2.015zm1.845 3.142c.47 0 .813-.084 1.028-.252.221-.168.332-.433.332-.796 0-.369-.11-.641-.332-.815-.215-.175-.558-.262-1.028-.262h-1.845v2.125h1.845z" fill="#949494"/><path fill-rule="evenodd" clip-rule="evenodd" d="M59.36 76.096v151.071H56V76.096h3.36z" fill="#424242"/><path fill-rule="evenodd" clip-rule="evenodd" d="M59.36 117.695v109.472H56V117.695h3.36z" fill="#FF878B"/><path d="M57.681 108.548c5.876 0 10.64 4.759 10.64 10.631 0 5.871-4.764 10.631-10.64 10.631s-10.64-4.76-10.64-10.631c0-5.872 4.764-10.631 10.64-10.631z" fill="#FF878B"/><path d="M57.681 113.024a6.162 6.162 0 016.16 6.155 6.154 6.154 0 01-6.16 6.154 6.146 6.146 0 01-4.354-1.801 6.15 6.15 0 010-8.706 6.162 6.162 0 014.355-1.802z" fill="#212121"/><path d="M260.959 160.024c0 51.297-41.62 92.881-92.96 92.881-51.34 0-92.96-41.584-92.96-92.881S116.66 67.143 168 67.143c51.34 0 92.959 41.584 92.959 92.881z" fill="#000"/><path d="M112.216 228.646a88.389 88.389 0 01-32.226-59.509l4.4-.456a83.964 83.964 0 0030.615 56.534l-2.789 3.431zm21.755-150.227a88.545 88.545 0 0167.719-.14l-1.684 4.087a84.123 84.123 0 00-64.334.133l-1.701-4.08zm122.021 90.865a88.376 88.376 0 01-32.326 59.456l-2.783-3.436a83.962 83.962 0 0030.71-56.483l4.399.463z" fill="#FF878B"/><path fill-rule="evenodd" clip-rule="evenodd" d="M163.551 100.525c1.534-2.464 5.123-2.464 6.657 0l53.313 85.626c1.624 2.609-.254 5.985-3.329 5.985H113.567c-3.075 0-4.953-3.376-3.329-5.985l53.313-85.626zm5.706.591c-1.096-1.76-3.659-1.76-4.755 0l-53.313 85.626c-1.16 1.863.181 4.275 2.378 4.275h106.625c2.197 0 3.538-2.412 2.378-4.275l-53.313-85.626z" fill="#949494"/><path d="M190.745 202.628c-.628 0-1.177-.134-1.649-.403a2.698 2.698 0 01-1.075-1.137c-.251-.495-.376-1.074-.376-1.737 0-.656.125-1.229.376-1.718a2.623 2.623 0 011.075-1.137c.472-.269 1.021-.403 1.649-.403.43 0 .833.068 1.209.206.383.131.699.316.95.555l-.376.841a2.912 2.912 0 00-.86-.501 2.5 2.5 0 00-.905-.161c-.616 0-1.094.2-1.434.6-.334.399-.502.972-.502 1.718 0 .752.168 1.331.502 1.737.335.4.812.6 1.434.6.322 0 .624-.051.905-.152.286-.108.573-.278.86-.51l.376.841a2.668 2.668 0 01-.95.564c-.39.133-.798.2-1.209.197zm3.239-.081v-6.374h1.156v5.425h2.984v.949h-4.14zm9.836 0l-.636-1.495h-3.118l-.646 1.495h-1.164l2.885-6.374h.941l2.894 6.374h-1.156zm-3.369-2.39h2.347l-1.173-2.73-1.174 2.73zm10.465 2.39h-1.218l-.816-2.121c-.071-.197-.182-.334-.331-.412-.15-.078-.344-.116-.583-.116h-1.156v2.649h-1.146v-6.374h2.732c.723 0 1.273.159 1.649.475.376.316.565.77.565 1.361 0 .423-.114.784-.341 1.083-.221.292-.538.501-.95.626.377.078.648.341.816.788l.779 2.041zm-2.679-3.545c.436 0 .759-.08.968-.241.209-.162.313-.406.313-.735 0-.322-.104-.561-.313-.716-.203-.161-.526-.241-.968-.241h-1.442v1.933h1.442zm3.72 3.545v-6.374h1.156v6.374h-1.156zm4.034 0v-5.425h-2.079v-.949h5.331v.949h-2.088v5.425h-1.164z" fill="#949494"/><path d="M225.469 196.173l-2.589 3.85v2.524h-1.156v-2.524l-2.589-3.85h1.317l1.846 2.883 1.854-2.883h1.317zm-111.095 3.08c.37.107.654.295.851.564.203.269.305.6.305.994 0 .543-.195.97-.583 1.28-.382.304-.917.456-1.604.456h-2.894v-6.374h2.805c.657 0 1.173.15 1.55.448.376.292.564.698.564 1.217 0 .335-.089.627-.269.878-.18.25-.433.438-.725.537zm-2.796-.394h1.488c.8 0 1.2-.298 1.2-.895 0-.299-.098-.522-.296-.672-.197-.149-.498-.223-.904-.223h-1.488v1.79zm1.64 2.793c.418 0 .723-.074.914-.224.197-.149.295-.385.295-.707 0-.328-.098-.57-.295-.725-.191-.155-.496-.233-.914-.233h-1.64v1.889h1.64zm6.25.976c-.615 0-1.153-.131-1.613-.394a2.734 2.734 0 01-1.057-1.137c-.245-.495-.368-1.077-.368-1.746 0-.662.123-1.238.368-1.727a2.613 2.613 0 011.048-1.137c.46-.263 1.001-.394 1.622-.394.621 0 1.159.131 1.613.394.46.262.809.641 1.048 1.137.245.489.367 1.065.367 1.727 0 .669-.122 1.251-.367 1.746-.245.49-.594.869-1.048 1.137-.454.263-.992.394-1.613.394zm0-.922c.591 0 1.051-.203 1.38-.609.328-.406.492-.988.492-1.746 0-.752-.164-1.327-.492-1.727-.329-.406-.789-.609-1.38-.609-.592 0-1.051.2-1.38.6-.329.4-.493.978-.493 1.736s.164 1.34.493 1.746c.329.406.788.609 1.38.609zm4.212-5.533h2.348c1.045 0 1.854.278 2.428.833.579.555.869 1.337.869 2.345 0 1.015-.29 1.803-.869 2.364-.574.555-1.383.832-2.428.832h-2.348v-6.374zm2.276 5.434c1.469 0 2.204-.752 2.204-2.256 0-1.492-.735-2.238-2.204-2.238h-1.12v4.494h1.12zm9.468-5.434l-2.589 3.85v2.524h-1.156v-2.524l-2.589-3.85h1.317l1.845 2.883 1.855-2.883h1.317zm28.609-103.668h-3.118L160.27 94h-1.165l2.886-6.374h.94L165.825 94h-1.155l-.637-1.495zm-.385-.895l-1.174-2.731-1.173 2.731h2.347zm2.868-3.984h1.156V94h-1.156v-6.374zM174.303 94h-1.218l-.815-2.122c-.072-.197-.183-.334-.332-.412-.149-.077-.343-.116-.582-.116H170.2V94h-1.147v-6.374h2.733c.722 0 1.272.158 1.648.474.377.317.565.77.565 1.361 0 .424-.114.785-.341 1.083-.221.293-.537.502-.949.627.376.077.648.34.815.788l.779 2.041zm-2.679-3.545c.436 0 .759-.081.968-.242.209-.161.314-.406.314-.734 0-.322-.105-.561-.314-.716-.203-.161-.526-.242-.968-.242h-1.442v1.934h1.442z" fill="#949494"/><path d="M173.598 151.071a6.709 6.709 0 01-1.969 4.75 6.723 6.723 0 01-11.471-4.75 6.727 6.727 0 011.97-4.748 6.715 6.715 0 017.321-1.455 6.707 6.707 0 013.637 3.633c.338.815.512 1.688.512 2.57z" fill="#F0F0F0"/><path d="M315.06 80.662c-.853 0-1.505-.312-1.955-.936-.444-.63-.666-1.548-.666-2.75 0-1.182.222-2.085.666-2.71.45-.624 1.102-.936 1.955-.936.854 0 1.502.312 1.946.937.45.618.675 1.52.675 2.71 0 1.194-.225 2.107-.675 2.74-.444.63-1.092.945-1.946.945zm0-1.017c.464 0 .8-.21 1.008-.634.215-.43.323-1.108.323-2.035 0-.913-.108-1.578-.323-1.994-.208-.423-.544-.635-1.008-.635-.463 0-.803.212-1.018.635-.208.416-.312 1.08-.312 1.994 0 .927.104 1.605.312 2.035.215.423.555.634 1.018.634zm-12.792 22.323h3.034v1.007h-3.034v-1.007zm9.278 2.165v1.058h-4.425v-1.058h1.572v-4.622l-1.461.876v-1.158l1.996-1.209h.756v6.113h1.562zm3.514 1.148c-.853 0-1.505-.312-1.956-.936-.443-.631-.665-1.548-.665-2.75 0-1.181.222-2.084.665-2.709.451-.624 1.103-.937 1.956-.937s1.502.313 1.945.937c.451.618.676 1.521.676 2.709 0 1.195-.225 2.109-.676 2.74-.443.631-1.092.946-1.945.946zm0-1.017c.464 0 .8-.211 1.008-.634.215-.43.323-1.108.323-2.035 0-.913-.108-1.578-.323-1.994-.208-.423-.544-.634-1.008-.634-.464 0-.803.211-1.018.634-.208.416-.313 1.081-.313 1.994 0 .927.105 1.605.313 2.035.215.423.554.634 1.018.634zm-12.802 23.33v-1.007h3.034v1.007h-3.034zm9.258 1.158v1.058h-4.818v-.957l2.439-2.629c.289-.315.501-.604.635-.866.129-.238.198-.504.202-.775 0-.329-.098-.578-.293-.746-.188-.167-.46-.251-.816-.251-.632 0-1.28.248-1.945.745l-.434-.947c.282-.255.645-.456 1.089-.604.431-.152.884-.23 1.34-.232.719 0 1.287.178 1.704.534.423.349.635.823.635 1.42 0 .41-.091.796-.272 1.158-.175.363-.471.769-.887 1.219l-1.764 1.873h3.185zm3.544 1.148c-.853 0-1.505-.312-1.955-.936-.444-.631-.666-1.548-.666-2.75 0-1.181.222-2.084.666-2.709.45-.624 1.102-.937 1.955-.937s1.502.313 1.945.937c.451.618.676 1.521.676 2.709 0 1.195-.225 2.109-.676 2.74-.443.631-1.092.946-1.945.946zm0-1.017c.464 0 .8-.211 1.008-.634.215-.43.323-1.108.323-2.035 0-.913-.108-1.578-.323-1.994-.208-.423-.544-.634-1.008-.634-.464 0-.803.211-1.018.634-.208.416-.313 1.081-.313 1.994 0 .927.105 1.605.313 2.035.215.423.554.634 1.018.634zm-12.792 23.33v-1.007h3.034v1.007h-3.034zm7.857-1.47c.423.114.746.322.967.624.229.302.343.675.343 1.118 0 .624-.232 1.118-.695 1.48-.457.363-1.076.544-1.855.544-.484 0-.951-.074-1.401-.221a3.053 3.053 0 01-1.099-.615l.444-.946c.638.497 1.307.745 2.005.745.457 0 .797-.091 1.019-.272.228-.181.342-.457.342-.826 0-.362-.114-.628-.342-.795-.229-.175-.582-.262-1.059-.262h-.947v-1.038h.776c.927 0 1.391-.352 1.391-1.057 0-.329-.101-.581-.303-.756-.201-.174-.483-.261-.846-.261-.645 0-1.291.248-1.936.745l-.433-.947c.32-.272.69-.477 1.089-.604a4.092 4.092 0 011.36-.232c.706 0 1.267.175 1.684.524.423.342.635.802.635 1.38.002.369-.107.73-.313 1.037-.195.289-.47.5-.826.635zm4.935 3.776c-.853 0-1.505-.312-1.956-.936-.443-.631-.665-1.548-.665-2.75 0-1.181.222-2.085.665-2.709.451-.624 1.103-.937 1.956-.937s1.502.313 1.945.937c.451.618.676 1.521.676 2.709 0 1.195-.225 2.109-.676 2.74-.443.631-1.092.946-1.945.946zm0-1.017c.464 0 .8-.211 1.008-.634.215-.43.323-1.108.323-2.035 0-.913-.108-1.578-.323-1.994-.208-.423-.544-.634-1.008-.634-.464 0-.803.211-1.018.634-.208.416-.313 1.081-.313 1.994 0 .927.105 1.605.313 2.035.215.423.554.634 1.018.634zm-12.792 23.33v-1.007h3.034v1.007h-3.034zm9.53-.201v1.017h-1.018v1.4h-1.27v-1.4h-3.125v-.967l3.357-4.804h1.038v4.754h1.018zm-4.183 0h1.895v-2.73l-1.895 2.73zm7.445 2.507c-.853 0-1.505-.312-1.956-.936-.443-.631-.665-1.548-.665-2.75 0-1.181.222-2.085.665-2.709.451-.624 1.103-.937 1.956-.937s1.502.313 1.945.937c.451.618.676 1.521.676 2.709 0 1.195-.225 2.109-.676 2.74-.443.631-1.092.946-1.945.946zm0-1.017c.464 0 .8-.211 1.008-.634.215-.43.323-1.108.323-2.035 0-.913-.108-1.578-.323-1.994-.208-.423-.544-.634-1.008-.634-.464 0-.803.211-1.018.634-.208.416-.313 1.081-.313 1.994 0 .927.105 1.605.313 2.035.215.423.554.634 1.018.634zm-12.792 22.323h3.034v1.007h-3.034v-1.007zm7.131-1.36c.45 0 .847.098 1.189.292.343.188.609.457.797.806.188.343.282.739.282 1.189 0 .47-.108.886-.323 1.248a2.19 2.19 0 01-.927.836c-.403.195-.87.292-1.401.292-.45 0-.894-.073-1.331-.221-.436-.155-.796-.359-1.078-.614l.433-.947c.652.497 1.317.745 1.996.745.45 0 .793-.111 1.028-.332.242-.229.363-.551.363-.967 0-.396-.124-.712-.373-.947-.242-.242-.568-.362-.978-.362-.282 0-.547.053-.796.161-.249.1-.467.252-.655.453h-.786v-4.22h4.495v1.007h-3.225v1.954c.363-.248.793-.373 1.29-.373zm5.661 4.674c-.853 0-1.505-.313-1.956-.937-.443-.631-.665-1.548-.665-2.75 0-1.181.222-2.084.665-2.709.451-.624 1.103-.936 1.956-.936s1.502.312 1.945.936c.451.618.676 1.521.676 2.709 0 1.196-.225 2.109-.676 2.74-.443.631-1.092.947-1.945.947zm0-1.018c.464 0 .8-.211 1.008-.634.215-.43.323-1.108.323-2.035 0-.913-.108-1.577-.323-1.994-.208-.423-.544-.634-1.008-.634-.464 0-.803.211-1.018.634-.208.417-.313 1.081-.313 1.994 0 .927.105 1.605.313 2.035.215.423.554.634 1.018.634zm-12.792 23.33v-1.007h3.034v1.007h-3.034zm7.191-2.387c.424 0 .8.098 1.129.292.336.195.598.467.787.816.188.349.282.749.282 1.199 0 .456-.104.866-.313 1.228-.199.36-.495.657-.856.856-.38.206-.807.311-1.24.303-.907 0-1.606-.306-2.097-.917-.49-.618-.736-1.494-.736-2.629 0-.792.115-1.473.343-2.044.235-.571.571-1.007 1.008-1.309.444-.303.968-.454 1.572-.454.431 0 .847.074 1.25.222.41.141.766.346 1.069.614l-.444.947c-.631-.497-1.239-.745-1.824-.745-.531 0-.941.225-1.23.675-.289.449-.44 1.094-.453 1.933.154-.302.389-.54.705-.715a2.07 2.07 0 011.048-.272zm-.272 3.666c.37 0 .666-.121.887-.362.229-.242.343-.561.343-.957 0-.396-.114-.712-.343-.947-.221-.242-.52-.362-.897-.362-.376 0-.682.12-.917.362s-.353.557-.353.947c0 .389.118.708.353.957.242.241.551.362.927.362zm5.873 1.028c-.853 0-1.505-.313-1.956-.937-.443-.631-.665-1.548-.665-2.75 0-1.181.222-2.084.665-2.709.451-.624 1.103-.936 1.956-.936s1.502.312 1.945.936c.451.618.676 1.521.676 2.709 0 1.196-.225 2.109-.676 2.74-.443.631-1.092.947-1.945.947zm0-1.018c.464 0 .8-.211 1.008-.634.215-.43.323-1.108.323-2.035 0-.913-.108-1.577-.323-1.994-.208-.423-.544-.634-1.008-.634-.464 0-.803.211-1.018.634-.208.417-.313 1.081-.313 1.994 0 .927.105 1.605.313 2.035.215.423.554.634 1.018.634zm-34.283 28.447h1.301v6.103h3.356v1.068h-4.657v-7.171zm5.641 0h4.798v1.027h-3.528v1.984h3.316v1.027h-3.316v2.105h3.528v1.028h-4.798v-7.171zm12.577 0l-3.195 7.171h-1.059l-3.195-7.171h1.35l2.389 5.539 2.389-5.539h1.321zm.682 0h4.798v1.027h-3.528v1.984h3.317v1.027h-3.317v2.105h3.528v1.028h-4.798v-7.171zm5.995 0h1.301v6.103h3.356v1.068h-4.657v-7.171z" fill="#949494"/><path fill-rule="evenodd" clip-rule="evenodd" d="M284.481 76.096v151.071h-3.36V76.096h3.36z" fill="#424242"/><path fill-rule="evenodd" clip-rule="evenodd" d="M284.481 117.695v109.472h-3.36V117.695h3.36z" fill="#FF878B"/><path d="M305.76 48.119h1.12v1.12h-1.12v1.118h-1.12v-1.119h-1.12V48.12h1.12V47h1.12v1.119z" fill="#939393"/><path fill-rule="evenodd" clip-rule="evenodd" d="M309.679 40.286c-1.819 0-3.36 1.54-3.36 3.357 0 1.817 1.541 3.357 3.36 3.357.965 0 1.823-.383 2.389-.94.603-.708.971-1.474.971-2.417 0-1.817-1.541-3.357-3.36-3.357zm-4.48 3.357c0-2.435 2.043-4.477 4.48-4.477 2.437 0 4.48 2.042 4.48 4.477 0 1.287-.521 2.307-1.255 3.161l-.014.017-.015.015c-.778.778-1.929 1.283-3.196 1.283-2.437 0-4.48-2.041-4.48-4.476z" fill="#939393"/><path fill-rule="evenodd" clip-rule="evenodd" d="M312.876 46.045l3.36 3.357-.792.79-3.36-3.356.792-.791z" fill="#939393"/><path d="M322.559 50.357h-3.36l3.36-3.357v3.357z" fill="#939393"/><path d="M21.28 331.238c0-5.562 4.512-10.071 10.08-10.071H78.4c5.566 0 10.08 4.509 10.08 10.071 0 5.562-4.514 10.072-10.08 10.072H31.36c-5.568 0-10.08-4.51-10.08-10.072z" fill="#FF878B"/><path d="M38.967 334.697v-7.171h1.3v6.104h3.357v1.067h-4.657zm5.64 0v-7.171h4.798v1.028h-3.528v1.984h3.317v1.027h-3.317v2.105h3.528v1.027h-4.798zm11.36 0l-.716-1.682h-3.508l-.726 1.682h-1.31l3.246-7.171h1.058l3.256 7.171h-1.3zm-3.79-2.689h2.64l-1.32-3.072-1.32 3.072zm11.775 2.689H62.58l-.917-2.387c-.081-.221-.205-.376-.373-.463-.168-.087-.387-.131-.656-.131h-1.3v2.981h-1.29v-7.171h3.074c.813 0 1.432.178 1.855.534.423.356.635.866.635 1.531 0 .477-.128.883-.383 1.219-.25.329-.605.564-1.07.705.425.087.73.382.919.886l.878 2.296zm-3.014-3.988c.49 0 .853-.091 1.088-.272.236-.181.353-.457.353-.826 0-.362-.117-.631-.352-.806-.23-.181-.592-.271-1.09-.271h-1.622v2.175h1.623zm9.012-3.183h1.22v7.171h-.97l-3.87-5.025v5.025h-1.21v-7.171h.968l3.86 5.016v-5.016h.002zm65.57-314.995h2.016l2.352 7.274 2.24-7.274h2.016l-3.136 9.4h-2.352l-3.136-9.4zm8.511 6.045c0-2.015 1.568-3.581 3.584-3.581s3.584 1.566 3.584 3.58c0 2.015-1.568 3.582-3.584 3.582s-3.584-1.567-3.584-3.581zm5.376 0c0-1.12-.784-1.903-1.792-1.903-1.008.112-1.792.895-1.792 1.903 0 1.119.784 1.902 1.792 1.902s1.792-.783 1.792-1.902zm2.8-5.148c0-.56.448-1.12 1.008-1.12s1.12.448 1.12 1.12c0 .56-.448 1.007-1.12 1.007-.56 0-1.008-.448-1.008-1.007zm.112 1.79h1.68v6.714h-1.68v-6.714zm3.025 3.358c0-2.015 1.456-3.581 3.584-3.581 1.232.112 2.352.783 2.912 1.79l-1.456.895c-.224-.56-.896-.895-1.568-.895a1.765 1.765 0 00-1.792 1.79c0 1.008.784 1.79 1.792 1.79.672 0 1.232-.335 1.568-.894l1.456.895c-.56 1.12-1.68 1.79-3.024 1.79-2.016 0-3.472-1.566-3.472-3.58zm10.864 2.014c.672 0 1.232-.336 1.456-.672l1.456.784a3.563 3.563 0 01-2.912 1.454c-2.24 0-3.696-1.566-3.696-3.58 0-2.015 1.456-3.581 3.584-3.581 2.016 0 3.36 1.566 3.36 3.58 0 .224 0 .448-.112.672h-5.04c.224 1.007 1.008 1.343 1.904 1.343zm1.456-2.574c-.224-1.007-.896-1.343-1.68-1.343-.896 0-1.568.448-1.792 1.343h3.472zm13.215-2.798v6.715h-1.68v-.784c-.448.56-1.232 1.008-2.24 1.008-1.792 0-3.248-1.567-3.248-3.581 0-2.015 1.456-3.581 3.248-3.581 1.008 0 1.68.335 2.24 1.007v-.784h1.68zm-1.792 3.358c0-1.12-.784-1.903-1.904-1.903-1.008 0-1.904.784-1.904 1.903s.784 1.902 1.904 1.902c1.12 0 1.904-.783 1.904-1.902zm9.521-3.357v6.714h-1.68v-.671c-.448.56-1.12.895-2.016.895-1.456 0-2.576-1.007-2.576-2.798v-4.14h1.68v3.916c0 .896.56 1.343 1.344 1.343.896 0 1.456-.447 1.456-1.678v-3.581h1.792zm4.032 1.678v2.798c0 .67.56.783 1.568.67v1.568c-2.464.223-3.248-.448-3.248-2.238v-2.798h-1.12v-1.68h1.12v-1.342l1.68-.56v1.903h1.568v1.679h-1.568zm2.352 1.679c0-2.015 1.568-3.581 3.584-3.581s3.584 1.566 3.584 3.58c0 2.015-1.568 3.582-3.584 3.582s-3.584-1.567-3.584-3.581zm5.376 0c0-1.12-.784-1.903-1.792-1.903s-1.792.784-1.792 1.903.784 1.902 1.792 1.902 1.792-.783 1.792-1.902zm8.849 1.566v1.79h-5.824v-9.4h5.712v1.79h-3.92v2.015h3.584v1.79h-3.584v2.015h4.032zm9.518.336l1.008 1.007-1.344 1.119-1.008-1.007a5.209 5.209 0 01-2.352.56c-2.688 0-4.928-2.127-4.928-4.925 0-2.797 2.128-4.923 4.928-4.923s4.928 2.126 4.928 4.923c0 1.23-.448 2.35-1.232 3.246zm-2.688-.336l-1.568-1.567 1.344-1.12 1.68 1.68c.336-.448.56-1.12.56-1.79 0-1.791-1.344-3.134-3.024-3.134s-3.024 1.23-3.024 3.133c0 1.79 1.344 3.022 3.024 3.022.336 0 .672-.112 1.008-.224z" fill="#F0F0F0"/><path d="M126 22.045h-11.76c-.448 0-.896-.224-1.008-.672-.224-.335-.112-.783.224-1.12l5.936-6.377c.112-.336.448-.448.784-.448s.56.112.784.336l5.936 6.378c.336.336.336.784.224 1.23-.224.449-.672.673-1.12.673zm-9.184-2.238h6.72l-3.36-3.693-3.36 3.693z" fill="#FF878B"/><path d="M278.096 22.157s-.112-.448-.112-.895c-.336.67-.784 1.119-1.68 1.119-1.232 0-1.904-.896-1.904-2.462 0-1.455.784-2.35 1.792-2.91 1.12-.56 1.792-1.12 1.792-2.238 0-1.12-.336-1.79-1.232-1.79-.896 0-1.344.67-1.344 1.79v.336h-.672v-.336c0-1.455.56-2.462 2.016-2.462s2.016 1.007 2.016 2.686v5.595c0 .783.112 1.679.112 1.679h-.784v-.112zm-.112-5.82c-.224.448-.56.784-1.344 1.232-1.12.56-1.456 1.23-1.456 2.35 0 1.23.448 1.79 1.232 1.79s1.568-.783 1.568-1.902v-3.47zm4.144 6.043c-1.344 0-2.128-.895-2.128-2.574v-4.924c0-1.678.784-2.573 2.128-2.573 1.232 0 2.016.895 2.016 2.573v.224h-.672v-.224c0-1.23-.448-1.902-1.344-1.902-.896 0-1.344.67-1.344 1.902v4.812c0 1.23.448 1.903 1.344 1.903.896 0 1.344-.672 1.344-1.903v-.112h.672v.224c0 1.679-.784 2.574-2.016 2.574zm5.265 0c-1.232 0-2.016-.895-2.016-2.574v-4.924c0-1.678.784-2.573 2.016-2.573s2.016.895 2.016 2.573v.224h-.672v-.224c0-1.23-.448-1.902-1.344-1.902-.896 0-1.344.67-1.344 1.902v4.812c0 1.23.448 1.903 1.344 1.903.896 0 1.344-.672 1.344-1.903v-.112h.672v.224c0 1.679-.784 2.574-2.016 2.574zm12.096-7.274v-.56c0-.894-.448-1.566-1.232-1.566s-1.344.56-1.344 1.567c0 .67.336 1.23.784 1.678l1.568 1.455c.672.56 1.12 1.23 1.12 2.35 0 1.455-.784 2.35-2.128 2.35-1.568 0-2.128-1.12-2.128-2.462v-.447h.672v.447c0 1.12.448 1.79 1.456 1.79.896 0 1.456-.67 1.456-1.678 0-.671-.336-1.23-.784-1.79l-1.68-1.455c-.672-.56-1.12-1.231-1.12-2.238 0-1.343.784-2.238 2.016-2.238 1.344 0 2.016.895 2.016 2.238v.447h-.672v.112zm4.032 7.274c-1.232 0-2.128-.895-2.128-2.574v-4.924c0-1.678.896-2.573 2.128-2.573 1.344 0 2.24.895 2.24 2.573v4.812c0 1.79-.896 2.686-2.24 2.686zm1.456-7.498c0-1.23-.56-1.902-1.456-1.902-.896 0-1.456.67-1.456 1.902v4.812c0 1.23.56 1.903 1.456 1.903.896 0 1.456-.672 1.456-1.903v-4.812zm5.711 7.274v-7.274c0-1.23-.336-1.902-1.232-1.902-1.008 0-1.456.783-1.456 2.126v7.05h-.672V12.42H308v.783c.112-.56.784-.895 1.456-.895 1.344 0 1.904.783 1.904 2.573v7.274h-.672zm10.977-7.05v-.56c0-.894-.448-1.566-1.232-1.566s-1.344.56-1.344 1.567c0 .67.336 1.23.784 1.678l1.568 1.455c.672.56 1.12 1.23 1.12 2.35 0 1.343-.784 2.35-2.128 2.35-1.568 0-2.128-1.12-2.128-2.462v-.447h.672v.447c0 1.12.448 1.79 1.456 1.79.896 0 1.456-.67 1.456-1.678 0-.671-.336-1.23-.784-1.79l-1.568-1.455c-.672-.56-1.12-1.231-1.12-2.238 0-1.343.784-2.238 2.016-2.238s1.904.895 1.904 2.238v.447h-.672v.112zm-5.153-2.686v7.275c0 1.23-.56 1.902-1.456 1.902-.896 0-1.456-.671-1.456-1.902V12.42h-.672v7.274c0 1.79.896 2.574 2.128 2.574 1.232 0 2.128-.896 2.128-2.574V12.42h-.672zm-22.287 6.156v1.119c0 1.23-.56 1.902-1.456 1.902-.896 0-1.456-.671-1.456-1.902V12.42h-.672v7.274c0 1.566.784 2.462 1.904 2.574v4.7c-.224.11-.448.335-.448.67 0 .449.336.672.672.672.448 0 .672-.335.672-.671s-.224-.56-.448-.671V22.38c1.12-.112 1.904-1.008 1.904-2.574V12.42h-.672v6.156zM18.839 21.808v1.432H12.32V12.31h6.52v1.43h-5.086v3.384h4.563v1.3h-4.563v3.515h5.085v-.131zm10.43-2.733H26.66v4.164h-1.434v-10.93h4.432c1.825 0 3.39 1.563 3.39 3.384 0 1.432-.913 2.733-2.216 3.123l2.607 4.424h-1.564l-2.608-4.165zm-2.608-1.3h2.868c1.043 0 1.955-.912 1.955-2.083 0-1.17-.912-2.082-1.955-2.082H26.66v4.164h.001zm19.555 2.992h-4.954l-.912 2.472h-1.565l4.172-10.93h1.695l4.041 10.93H47.13l-.914-2.472zm-.52-1.301l-1.957-5.335-1.955 5.335h3.911z" fill="#F0F0F0"/><path fill-rule="evenodd" clip-rule="evenodd" d="M166.88 39.167a5.594 5.594 0 00-5.173 3.453 5.584 5.584 0 000 4.284 5.602 5.602 0 003.031 3.028 5.598 5.598 0 007.742-5.17 5.6 5.6 0 00-5.6-5.595zm0-1.12a6.718 6.718 0 00-6.72 6.715 6.71 6.71 0 001.969 4.75 6.719 6.719 0 007.322 1.455 6.719 6.719 0 004.149-6.205 6.708 6.708 0 00-1.969-4.749 6.72 6.72 0 00-4.751-1.966z" fill="#949494"/><path d="M166.133 48.492h1.493v-4.476h-1.493v4.476zm1.493-6.714a.737.737 0 00-.219-.527.74.74 0 00-.527-.219.75.75 0 00-.689.46.745.745 0 101.435.285z" fill="#949494"/></g><defs><clipPath id="clip0_2967_48729"><path fill="#fff" d="M0 0h336v470H0z"/></clipPath></defs></svg>