<svg width="336" height="470" fill="none" xmlns="http://www.w3.org/2000/svg"><g clip-path="url(#clip0_2957_46814)"><path d="M0 0h336v470H0V0z" fill="#fff"/><g filter="url(#filter0_d_2957_46814)"><path d="M0 8a8 8 0 018-8h320a8 8 0 018 8v454a8 8 0 01-8 8H8a8 8 0 01-8-8V8z" fill="#F0F0F0"/></g><path d="M16 0C7.163 0 0 7.163 0 16v288.381h70.112c21.056 0 42 3.133 61.936 9.96 11.2 3.804 23.184 5.931 35.616 5.931 12.432 0 24.416-2.127 35.616-5.931 19.936-6.827 40.88-9.96 61.936-9.96H336V16c0-8.837-7.163-16-16-16H16z" fill="#212121"/><path d="M0 440.905h336V470H0v-29.095z" fill="#000"/><path d="M321.44 454.557l-1.344-1.231c-.112-.112-.224-.112-.336 0l-1.232 1.231v-5.147h-7.168v-.896c0-.447.448-.895.896-.895h11.536c.336 0 .56-.224.56-.559 0-.336-.224-.56-.448-.56h-11.648c-1.12 0-2.016.895-2.016 2.014v14.436c0 .224.112.336.224.336h11.872c1.12 0 2.016-.896 2.016-2.015V449.41h-2.912v5.147zm-8.176 6.938c0 .336-.224.56-.56.56-.336 0-.56-.224-.56-.56v-10.519c0-.336.224-.559.56-.559.336 0 .56.223.56.559v10.519z" fill="#F0F0F0"/><path d="M125.467 270.201h4.153c1.03 0 1.832.251 2.406.752.573.492.86 1.168.86 2.028 0 .859-.292 1.539-.874 2.041-.573.501-1.371.752-2.392.752h-2.419v3.988h-1.734v-9.561zm3.951 4.23c.6 0 1.053-.121 1.358-.363.313-.25.47-.608.47-1.074 0-.474-.152-.832-.457-1.074-.305-.251-.762-.376-1.371-.376h-2.217v2.887h2.217zm12.876 5.331h-1.828l-1.223-3.182c-.108-.296-.273-.502-.497-.618-.224-.117-.515-.175-.874-.175h-1.734v3.975h-1.72v-9.561h4.099c1.084 0 1.909.237 2.473.712.565.474.847 1.155.847 2.041 0 .635-.17 1.177-.511 1.625-.331.438-.806.752-1.424.94.564.116.972.51 1.223 1.181l1.169 3.062zm-4.019-5.318c.654 0 1.138-.12 1.452-.362.313-.242.47-.609.47-1.101 0-.484-.157-.842-.47-1.075-.305-.241-.789-.362-1.452-.362h-2.164v2.9h2.164zm9.761 5.439c-.923 0-1.729-.197-2.419-.591a4.113 4.113 0 01-1.586-1.705c-.367-.743-.551-1.616-.551-2.619 0-.994.184-1.858.551-2.592.368-.743.892-1.311 1.573-1.705.69-.394 1.5-.591 2.432-.591.932 0 1.739.197 2.42.591a3.826 3.826 0 011.572 1.705c.367.734.551 1.598.551 2.592 0 1.003-.184 1.876-.551 2.619a4.031 4.031 0 01-1.572 1.705c-.681.394-1.488.591-2.42.591zm0-1.383c.887 0 1.577-.305 2.07-.913.493-.609.739-1.482.739-2.619 0-1.128-.246-1.992-.739-2.592-.493-.608-1.183-.913-2.07-.913-.887 0-1.577.3-2.069.9-.493.6-.74 1.468-.74 2.605s.247 2.01.74 2.619c.492.608 1.182.913 2.069.913zm10.66 1.383c-.941 0-1.765-.201-2.473-.604a4.064 4.064 0 01-1.613-1.706c-.376-.743-.564-1.611-.564-2.605 0-.985.188-1.844.564-2.578a3.965 3.965 0 011.613-1.706c.708-.402 1.532-.604 2.473-.604.645 0 1.25.103 1.814.309.574.197 1.049.474 1.425.833l-.564 1.262c-.43-.349-.861-.6-1.291-.752a3.79 3.79 0 00-1.357-.242c-.923 0-1.64.3-2.15.9-.502.6-.753 1.459-.753 2.578 0 1.128.251 1.996.753 2.605.501.6 1.218.9 2.15.9.484 0 .936-.076 1.357-.228.43-.161.861-.417 1.291-.766l.564 1.263c-.376.358-.851.64-1.425.846-.584.2-1.197.3-1.814.295zm4.86-9.682h6.397v1.37h-4.704v2.645h4.422v1.37h-4.422v2.806h4.704v1.37h-6.397v-9.561zm11.1 9.682a7.066 7.066 0 01-2.069-.295c-.636-.197-1.179-.479-1.627-.846l.592-1.263c.466.349.95.609 1.451.779.54.166 1.102.247 1.667.242.663 0 1.174-.117 1.532-.349.367-.233.551-.56.551-.981 0-.358-.17-.631-.511-.819-.331-.197-.882-.38-1.653-.55-1.2-.26-2.074-.596-2.621-1.007-.546-.412-.819-1.012-.819-1.8 0-.564.152-1.065.457-1.504.304-.439.734-.783 1.29-1.034.564-.251 1.214-.376 1.949-.376.672 0 1.308.103 1.908.309.609.197 1.107.474 1.492.833l-.578 1.262c-.851-.681-1.792-1.021-2.822-1.021-.619 0-1.107.13-1.465.39-.359.25-.538.595-.538 1.034 0 .376.157.662.47.859.323.197.87.381 1.64.551.798.188 1.447.394 1.949.617.502.215.887.497 1.156.846.269.341.403.77.403 1.29 0 .572-.152 1.074-.457 1.504-.305.42-.744.747-1.317.98-.574.233-1.25.349-2.03.349zm8.65 0a7.073 7.073 0 01-2.07-.295c-.636-.197-1.178-.479-1.626-.846l.591-1.263c.466.349.95.609 1.452.779.51.161 1.066.242 1.666.242.663 0 1.174-.117 1.532-.349.368-.233.551-.56.551-.981 0-.358-.17-.631-.51-.819-.332-.197-.883-.38-1.653-.55-1.201-.26-2.075-.596-2.621-1.007-.547-.412-.82-1.012-.82-1.8 0-.564.152-1.065.457-1.504.305-.439.735-.783 1.29-1.034.565-.251 1.214-.376 1.949-.376.672 0 1.308.103 1.908.309.61.197 1.107.474 1.492.833l-.578 1.262c-.851-.681-1.792-1.021-2.822-1.021-.618 0-1.107.13-1.465.39-.358.25-.538.595-.538 1.034 0 .376.157.662.471.859.322.197.869.381 1.64.551.797.188 1.447.394 1.948.617.502.215.887.497 1.156.846.269.341.403.77.403 1.29 0 .572-.152 1.074-.457 1.504-.304.42-.743.747-1.317.98-.573.233-1.25.349-2.029.349zm5.41-9.682h1.734v9.561h-1.734v-9.561zm11.87 0v9.561h-1.29l-5.161-6.701v6.701h-1.613v-9.561h1.291l5.147 6.687v-6.687h1.626zm10.065 4.391v4.593c-.439.215-.967.385-1.586.51a9.5 9.5 0 01-1.895.188c-.985 0-1.841-.197-2.567-.591a3.993 3.993 0 01-1.666-1.692c-.385-.734-.578-1.611-.578-2.632 0-1.003.193-1.871.578-2.605a4.041 4.041 0 011.64-1.692c.716-.394 1.554-.591 2.513-.591a5.837 5.837 0 011.881.296c.592.196 1.085.474 1.479.832l-.592 1.262c-.448-.349-.887-.599-1.317-.752-.43-.152-.9-.228-1.411-.228-.985 0-1.734.296-2.244.886-.502.591-.753 1.455-.753 2.592 0 1.173.26 2.059.78 2.659.519.591 1.294.886 2.325.886.627 0 1.245-.085 1.854-.255v-2.417h-2.069v-1.249h3.628z" fill="#949494"/><path d="M148.836 299.795h3.338v-5.448c-.145.229-1.257 2.045-3.338 5.448zm3.298 5.705v-3.747h-6.073v-1.859l5.748-8.714h2.816v8.615h2.254v1.958h-2.205v3.747h-2.54zm11.655.226c-1.595 0-2.835-.678-3.721-2.036-.879-1.364-1.319-3.19-1.319-5.478 0-2.315.433-4.108 1.3-5.38.872-1.279 2.126-1.918 3.76-1.918 1.608 0 2.845.652 3.711 1.957.873 1.305 1.309 3.085 1.309 5.341 0 1.501-.187 2.813-.561 3.934-.374 1.115-.945 1.99-1.713 2.626-.761.636-1.683.954-2.766.954zm.04-2.134c1.634 0 2.451-1.79 2.451-5.37 0-.695-.043-1.338-.128-1.928a8.125 8.125 0 00-.404-1.633c-.177-.505-.43-.898-.758-1.18a1.667 1.667 0 00-1.152-.433c-.466 0-.869.145-1.21.433-.342.282-.604.675-.788 1.18a7.992 7.992 0 00-.404 1.633c-.089.642-.131 1.29-.127 1.938 0 .813.042 1.531.127 2.154.086.622.22 1.183.404 1.681.19.492.453.869.788 1.131.334.263.735.394 1.201.394zm20.337 2.105c-1.09 0-1.966-.351-2.629-1.053-.662-.701-.994-1.593-.994-2.675 0-1.062.332-1.951.994-2.665.663-.722 1.536-1.082 2.619-1.082 1.083 0 1.959.36 2.628 1.082.67.721 1.004 1.609 1.004 2.665 0 1.088-.331 1.984-.994 2.685-.663.695-1.539 1.043-2.628 1.043zm-.01-1.535c.518 0 .905-.173 1.161-.521.263-.347.394-.905.394-1.672 0-.734-.125-1.285-.374-1.652s-.643-.551-1.181-.551c-.532 0-.922.18-1.172.541-.249.36-.374.911-.374 1.652 0 .767.128 1.328.384 1.682.256.348.643.521 1.162.521zm-10.307 1.338l9.165-14.32h1.998l-9.164 14.32h-1.999zm.778-7.032c-1.116 0-1.998-.328-2.648-.984-.65-.662-.974-1.577-.974-2.744 0-1.147.324-2.056.974-2.724.65-.676 1.532-1.013 2.648-1.013 1.109 0 1.989.337 2.638 1.013.656.675.985 1.583.985 2.724 0 1.174-.325 2.088-.975 2.744-.65.656-1.532.984-2.648.984zm0-1.535c.519 0 .906-.17 1.162-.511.256-.348.384-.905.384-1.672 0-.741-.125-1.295-.374-1.662-.243-.368-.634-.551-1.172-.551-.538 0-.932.183-1.181.551-.243.36-.364.911-.364 1.652 0 .767.128 1.325.384 1.672.255.348.643.521 1.161.521z" fill="#F0F0F0"/><path d="M59.36 50.358H43.68c-3.136 0-5.6-2.462-5.6-5.596 0-3.133 2.464-5.595 5.6-5.595h15.68c3.136 0 5.6 2.462 5.6 5.595 0 3.134-2.576 5.596-5.6 5.596z" fill="#373737"/><path d="M59.36 49.24a4.491 4.491 0 004.48-4.478 4.49 4.49 0 00-4.48-4.476c-2.463 0-4.48 2.014-4.48 4.476s2.017 4.477 4.48 4.477z" fill="#F4B70B"/><path d="M17.842 49.339c-.77 0-1.441-.164-2.016-.492a3.429 3.429 0 01-1.322-1.422c-.306-.62-.46-1.346-.46-2.182 0-.828.154-1.548.46-2.16a3.27 3.27 0 011.31-1.42c.576-.33 1.25-.493 2.028-.493.776 0 1.448.164 2.016.492a3.186 3.186 0 011.31 1.422c.306.61.46 1.33.46 2.16 0 .835-.154 1.562-.46 2.18a3.354 3.354 0 01-1.31 1.423c-.568.328-1.24.492-2.016.492zm0-1.153c.739 0 1.314-.253 1.725-.76.41-.508.616-1.235.616-2.183 0-.94-.206-1.66-.616-2.16-.411-.507-.986-.76-1.725-.76-.74 0-1.314.25-1.725.75-.41.5-.616 1.223-.616 2.17 0 .948.205 1.675.616 2.182.41.508.985.76 1.725.76zm5.265 1.052V41.27h5.208v1.153H24.54v2.182h3.55v1.164h-3.55v3.47l-1.434-.001zm6.41 0V41.27h5.208v1.153H30.95v2.182h3.55v1.164h-3.55v3.47l-1.433-.001z" fill="#424242"/><path d="M72.723 49.339c-.77 0-1.442-.164-2.016-.492a3.428 3.428 0 01-1.322-1.422c-.306-.62-.46-1.346-.46-2.182 0-.828.154-1.548.46-2.16a3.27 3.27 0 011.31-1.42c.575-.33 1.25-.493 2.028-.493.776 0 1.448.164 2.016.492a3.187 3.187 0 011.31 1.422c.306.61.46 1.33.46 2.16 0 .835-.154 1.562-.46 2.18a3.355 3.355 0 01-1.31 1.423c-.568.328-1.24.492-2.016.492zm0-1.153c.739 0 1.314-.253 1.724-.76.41-.508.616-1.235.616-2.183 0-.94-.205-1.66-.616-2.16-.41-.507-.985-.76-1.724-.76-.74 0-1.315.25-1.725.75-.41.5-.616 1.223-.616 2.17 0 .948.205 1.675.616 2.182.41.508.985.76 1.725.76zm10.63-6.916h1.355v7.968h-1.075l-4.3-5.584v5.584h-1.345V41.27h1.075l4.29 5.573V41.27zm176.723 7.968l-.795-1.87h-3.898l-.806 1.87h-1.456l3.606-7.967h1.176l3.618 7.967h-1.445zm-4.211-2.988h2.934l-1.467-3.413-1.467 3.413z" fill="#F4B70B"/><path d="M268.576 49.898H267.4l2.901-9.088h1.199l-2.924 9.087zm13.834-4.779c.462.135.817.37 1.064.706.253.335.38.75.38 1.241 0 .68-.242 1.212-.728 1.6-.478.38-1.146.572-2.004.572h-3.618V41.27h3.506c.821 0 1.467.186 1.937.56.471.366.706.873.706 1.522 0 .418-.112.783-.336 1.097-.217.306-.519.53-.907.67zm-3.495-.492h1.859c1.001 0 1.501-.373 1.501-1.12 0-.371-.123-.651-.369-.838-.247-.186-.624-.28-1.132-.28h-1.859v2.238zm2.05 3.491c.522 0 .903-.093 1.142-.28.247-.185.37-.48.37-.883 0-.41-.123-.712-.37-.907-.239-.194-.62-.29-1.142-.29h-2.05v2.36h2.05z" fill="#949494"/><path d="M16.507 22.12v-3.478h4.626V17.28h-4.626v-3.368h5.018v-1.38h-6.476V23.5h6.554v-1.38h-5.096zm19.008 1.379h1.615l-2.587-4.387c1.317-.47 2.273-1.74 2.273-3.18 0-1.88-1.536-3.4-3.418-3.4h-4.39V23.5h1.458v-4.2h2.587l2.462 4.199zm-5.05-9.604h2.933c1.082 0 1.96.909 1.96 2.037s-.878 2.052-1.96 2.052h-2.932v-4.09zm21.003 9.604h1.552l-4.093-10.967H47.28L43.188 23.5h1.553l.894-2.46h4.939l.894 2.459zm-5.332-3.823l1.96-5.405 1.976 5.405h-3.936zm89.505-6.92h2.026l2.365 7.275 2.252-7.274h2.027l-3.153 9.4h-2.365l-3.152-9.4zm8.556 6.044c0-2.014 1.577-3.58 3.603-3.58 1.915 0 3.604 1.566 3.604 3.58 0 2.014-1.577 3.58-3.604 3.58-2.026-.111-3.603-1.677-3.603-3.58zm5.405 0c0-1.12-.788-1.902-1.802-1.902-1.013 0-1.801.783-1.801 1.902 0 1.12.788 1.903 1.801 1.903 1.014-.112 1.802-.896 1.802-1.903zm2.816-5.26c0-.56.45-1.12 1.013-1.12s1.126.449 1.126 1.12c0 .56-.45 1.008-1.126 1.008a1.007 1.007 0 01-1.013-1.008zm.113 1.903h1.689v6.714h-1.689v-6.714zm3.039 3.357c0-2.014 1.464-3.58 3.603-3.58 1.352 0 2.478.67 3.041 1.678l-1.464.895c-.225-.56-.901-.895-1.577-.895a1.769 1.769 0 00-1.278.515 1.775 1.775 0 00-.523 1.275c0 1.007.788 1.79 1.801 1.79a1.8 1.8 0 001.577-.895l1.464.896c-.676 1.119-1.802 1.79-3.153 1.79-2.027 0-3.491-1.566-3.491-3.47zm10.923 1.902c.676 0 1.239-.336 1.464-.671l1.464.783a3.586 3.586 0 01-2.928 1.455c-2.252 0-3.716-1.567-3.716-3.581 0-2.014 1.464-3.581 3.604-3.581 2.026 0 3.377 1.567 3.377 3.58 0 .225 0 .448-.112.672h-5.067c.225 1.007 1.013 1.343 1.914 1.343zm1.464-2.574c-.225-1.007-.901-1.343-1.689-1.343-.901 0-1.576.448-1.802 1.343h3.491zm11.935 2.238v1.79h-5.517v-9.4h1.914v7.61h3.603zm4.278.336c.676 0 1.239-.336 1.464-.671l1.351.783a3.587 3.587 0 01-2.927 1.455c-2.252 0-3.716-1.567-3.716-3.581 0-2.014 1.464-3.581 3.603-3.581 2.027 0 3.378 1.567 3.378 3.58.113.337.113.56.113.784h-5.067c.225.895.9 1.23 1.801 1.23zm1.577-2.574c-.226-1.007-1.014-1.343-1.689-1.343-.901 0-1.577.448-1.802 1.343h3.491zm9.121-2.685l-2.589 6.714h-2.027l-2.59-6.714h1.914l1.689 4.7 1.689-4.7h1.914zm3.941 5.259c.675 0 1.238-.336 1.464-.671l1.351.783a3.586 3.586 0 01-2.928 1.455c-2.252 0-3.716-1.567-3.716-3.581 0-2.014 1.464-3.581 3.604-3.581 2.026 0 3.378 1.567 3.378 3.58 0 .225 0 .448-.113.672h-5.067c.338 1.007 1.126 1.343 2.027 1.343zm1.464-2.574c-.226-1.007-.901-1.343-1.577-1.343-.901 0-1.576.448-1.801 1.343h3.378zm3.039-5.818h1.689v9.847h-1.689V12.31zm6.757 8.392c.675 0 1.238-.336 1.463-.671l1.352.783a3.586 3.586 0 01-2.928 1.455c-2.252 0-3.716-1.567-3.716-3.581 0-2.014 1.464-3.581 3.603-3.581 2.027 0 3.378 1.567 3.378 3.58 0 .225 0 .448-.112.672h-5.067c.338 1.007 1.126 1.343 2.027 1.343zm1.463-2.574c-.225-1.007-.9-1.343-1.689-1.343-.9 0-1.576.448-1.801 1.343h3.49zm6.869-2.908v1.902c-.9-.112-2.026.335-2.026 1.678v3.245h-1.689V15.33h1.689v1.12c.337-.784 1.126-1.232 2.026-1.232z" fill="#F0F0F0"/><path d="M115.26 18.576h-2.139v-2.238h2.139c1.014 0 2.14-.448 2.815-1.12l2.928-2.797 1.576 1.567-2.815 2.797c-1.238 1.12-2.815 1.79-4.504 1.79zm5.068 3.805l-1.576-1.566 2.815-2.798c1.126-1.23 2.702-1.79 4.391-1.79h2.14v2.238h-2.14c-1.126 0-2.139.447-2.815 1.119l-2.815 2.797z" fill="#F4B70B"/><path d="M278.096 22.157s-.112-.447-.112-.895c-.336.67-.784 1.119-1.68 1.119-1.232 0-1.904-.895-1.904-2.462 0-1.455.784-2.35 1.792-2.91 1.12-.56 1.792-1.12 1.792-2.238 0-1.12-.336-1.79-1.232-1.79-.896 0-1.344.67-1.344 1.79v.336h-.672v-.335c0-1.455.56-2.462 2.016-2.462s2.016 1.007 2.016 2.685v5.595c0 .784.112 1.68.112 1.68h-.784v-.113zm-.112-5.82c-.224.449-.56.785-1.344 1.232-1.12.56-1.456 1.23-1.456 2.35 0 1.23.448 1.79 1.232 1.79s1.568-.783 1.568-1.902v-3.47zm4.144 6.044c-1.344 0-2.128-.895-2.128-2.574v-4.924c0-1.678.784-2.573 2.128-2.573 1.232 0 2.016.895 2.016 2.573v.224h-.672v-.224c0-1.23-.448-1.902-1.344-1.902-.896 0-1.344.67-1.344 1.902v4.812c0 1.23.448 1.903 1.344 1.903.896 0 1.344-.672 1.344-1.903v-.112h.672v.224c0 1.679-.784 2.574-2.016 2.574zm5.265 0c-1.232 0-2.016-.895-2.016-2.574v-4.924c0-1.678.784-2.573 2.016-2.573s2.016.895 2.016 2.573v.224h-.672v-.224c0-1.23-.448-1.902-1.344-1.902-.896 0-1.344.67-1.344 1.902v4.812c0 1.23.448 1.903 1.344 1.903.896 0 1.344-.672 1.344-1.903v-.112h.672v.224c0 1.679-.784 2.574-2.016 2.574zm12.096-7.274v-.56c0-.895-.448-1.566-1.232-1.566s-1.344.56-1.344 1.567c0 .67.336 1.23.784 1.678l1.568 1.455c.672.56 1.12 1.23 1.12 2.35 0 1.455-.784 2.35-2.128 2.35-1.568 0-2.128-1.12-2.128-2.462v-.448h.672v.448c0 1.12.448 1.79 1.456 1.79.896 0 1.456-.67 1.456-1.678 0-.671-.336-1.231-.784-1.79l-1.68-1.455c-.672-.56-1.12-1.231-1.12-2.238 0-1.343.784-2.238 2.016-2.238 1.344 0 2.016.895 2.016 2.238v.447h-.672v.112zm4.032 7.274c-1.232 0-2.128-.895-2.128-2.574v-4.924c0-1.678.896-2.573 2.128-2.573 1.344 0 2.24.895 2.24 2.573v4.812c0 1.79-.896 2.686-2.24 2.686zm1.456-7.498c0-1.23-.56-1.902-1.456-1.902-.896 0-1.456.67-1.456 1.902v4.812c0 1.23.56 1.903 1.456 1.903.896 0 1.456-.672 1.456-1.903v-4.812zm5.711 7.274v-7.274c0-1.23-.336-1.902-1.232-1.902-1.008 0-1.456.783-1.456 2.126v7.05h-.672V12.42H308v.784c.112-.56.784-.895 1.456-.895 1.344 0 1.904.783 1.904 2.573v7.274h-.672zm10.977-7.05v-.56c0-.895-.448-1.566-1.232-1.566s-1.344.56-1.344 1.567c0 .67.336 1.23.784 1.678l1.568 1.455c.672.56 1.12 1.23 1.12 2.35 0 1.343-.784 2.35-2.128 2.35-1.568 0-2.128-1.12-2.128-2.462v-.448h.672v.448c0 1.12.448 1.79 1.456 1.79.896 0 1.456-.67 1.456-1.678 0-.671-.336-1.231-.784-1.79l-1.568-1.455c-.672-.56-1.12-1.231-1.12-2.238 0-1.343.784-2.238 2.016-2.238s1.904.895 1.904 2.238v.447h-.672v.112zm-5.153-2.686v7.274c0 1.23-.56 1.903-1.456 1.903-.896 0-1.456-.672-1.456-1.903V12.42h-.672v7.274c0 1.79.896 2.574 2.128 2.574 1.232 0 2.128-.895 2.128-2.574V12.42h-.672zm-22.287 6.155v1.12c0 1.23-.56 1.902-1.456 1.902-.896 0-1.456-.672-1.456-1.903V12.42h-.672v7.274c0 1.567.784 2.462 1.904 2.574v4.7c-.224.112-.448.336-.448.67 0 .449.336.673.672.673.448 0 .672-.336.672-.672 0-.335-.224-.56-.448-.671V22.38c1.12-.112 1.904-1.007 1.904-2.574V12.42h-.672v6.155z" fill="#F0F0F0"/><path d="M260.959 160.024c0 51.296-41.62 92.881-92.96 92.881-51.34 0-92.96-41.585-92.96-92.881 0-51.297 41.62-92.881 92.96-92.881 51.34 0 92.96 41.584 92.96 92.881z" fill="#000"/><path d="M123.76 236.584a88.437 88.437 0 01-32.418-32.414 88.344 88.344 0 01.13-88.517 88.44 88.44 0 0132.513-32.32L168 160.024l-44.24 76.56z" fill="#F4B70B"/><path fill-rule="evenodd" clip-rule="evenodd" d="M123.266 236.415l4.48-8.393.988.527-4.48 8.392-.988-.526zm88.48.526l-4.48-8.392.988-.527 4.48 8.393-.988.526z" fill="#949494"/><path d="M247.519 160.024c0 43.88-35.603 79.452-79.52 79.452-43.918 0-79.52-35.572-79.52-79.452 0-43.881 35.602-79.453 79.52-79.453 43.917 0 79.52 35.572 79.52 79.453z" fill="#212121"/><path d="M131.038 100.415a2.235 2.235 0 01.823-3.056 2.24 2.24 0 013.059.822l8.385 14.546a2.23 2.23 0 01.222 1.698 2.234 2.234 0 01-1.045 1.358 2.241 2.241 0 01-3.059-.822l-8.385-14.546z" fill="#949494"/><path d="M157.673 402.403l-2.754-6.652-1.95-3.521c-.115-.098-.459-.196-.803-.196l-1.951.391c-.115 0-.229.098-.344.196-.344.783-2.409 4.989-2.639 5.38-.344.391-1.377-3.521-1.606-4.5 0-.097-.23-.195-.574-.195h-.459c-.229 0-.574.098-.574.195l-1.95 5.87c0 .097-.115.097-.23.195l-2.294.587h-.574l-2.754-.88c-.229-.098-.459-.098-.573 0l-2.066.391c-.344.098-.688 0-.803-.098l-2.753-3.717c-.23-.293-1.033-.196-1.148.098-.344 2.445-1.147 7.63-1.377 8.021-.229.391-1.491 2.348-1.95 3.13-.115.098-.459.196-.689.196l-.688-.098v2.837l.688-.098c.345 0 .689 0 .689.196.459.684 1.606 2.738 1.95 3.13.23.293 1.033 5.478 1.377 8.021 0 .293.918.293 1.148.098l2.753-3.717c.115-.098.459-.196.803-.098l1.836.391h.574l2.754-.88c.229-.098.458-.098.573 0l2.295.587c.115 0 .229.097.229.195l1.951 5.869c0 .098.229.196.574.196h.459c.344 0 .573-.098.573-.196.23-.978 1.377-4.793 1.607-4.499.344.391 2.294 4.597 2.639 5.38 0 .097.114.097.344.195l1.95.391c.344.098.689 0 .803-.195l2.18-3.815 2.754-6.652v-12.129c.115 0 .115 0 0 0zm79.767 4.993c-.27 0-.541.07-.812.07-3.248.14-4.06-.489-5.142-.489-.812 0-1.624-2.096-2.166-3.633 0-.21-2.436-.21-2.706 0-.812.629-1.895 1.118-2.707 1.188-1.353.07-15.027-1.986-20.627-7.021-.27-.14-1.969 9.293-2.24 9.432-3.518 2.236-9.23-5.653-8.96-5.514.271.07-6.505-9.023-8.4-9.512-.541-.139-4.48 7.834-4.48 7.834l-5.161 7.192c-2.557-.978 1.801-2.157 4.125.313h-2.436c-.541 0-1.082-.069-1.353-.139l-1.895-.978v3.982l1.895-.978c.271-.07.812-.14 1.353-.14h2.436c.812 0-5.684.07-5.684.14l14 15.535c0 .21 2.259-3.777 2.8-3.916l2.24-4.226s6.002-8.651 9.52-6.415c.271.14 2.259 9.421 2.8 9.211 5.04-5.036 18.714-7.674 20.067-7.604.812 0 1.895.559 2.707 1.188.27.209 2.436.139 2.706 0 .542-1.537 1.624-3.633 2.166-3.633 1.082 0 1.894-.629 5.142-.489.271 0 .542.069.812.069v-1.467zm60.558-.494c-.689-.293-1.377-.587-1.721-.782-.115 0-.115-.098-.115-.098l-.803-6.554c0-.293-1.148-.293-1.148 0v.293c.115.49-3.556-3.814-4.589-5.184-.115-.196-.688-.196-.918-.098l-2.639 1.272c-.115 0-.115.098-.115.098l-4.13 11.249-.115.098v2.543c.115 0 .115.098.115.098l4.13 11.249.115.098 2.639 1.271c.23.098.803.098.918-.098 1.147-1.369 4.819-5.673 4.589-5.184v.294c0 .293 1.148.293 1.148 0l.803-6.554c0-.098 0-.098.115-.098.344-.098 1.032-.489 1.721-.783v-3.13z" fill="#F4B70B"/><path d="M312.911 408.37v-.489c0-.098-.229-.196-.459-.196h-5.851c-.23 0-.345 0-.459-.098l-.459-.489c-.115-.098-.574-.196-.803 0l-1.033.587c-.115 0-.23.098-.344.098l-4.705.293h-.344L295.127 407c-.115 0-.115-.098-.115-.098v-4.988l-.115-.098c-.229-.196-.803-.098-.917 0-.345.587-1.033 1.663-1.148 1.858-.229.294-2.868-1.956-3.671-2.543-.115-.098-.345-.098-.574-.098l-1.951.392c-.114 0-.229.097-.229.097l-4.131 6.261c0 .098-.114.098-.344.098l-1.836.293h-.229c-.689 0-3.786-.293-4.131-.293-.344 0-4.589.195-5.277.293-.574.098-5.164 0-5.852 0h-.115l-2.868-.489h-.459l-2.065.489h-.345c-.688-.098-2.868-.489-3.442-.587-.688-.196-3.786.391-4.589.587-.689.196-2.41-.098-2.869-.196h-.344c-.459.098-1.606.196-1.95.196-.459 0-3.213-.391-3.901-.391-.574 0-1.721.098-2.066.195h-8.375l-4.934-1.663c-.23-.097-.459-.097-.574 0-.574.196-1.836.783-2.295.881-.573.098-14.686-3.13-16.866-3.619h-.574l-2.983 1.076c-.114 0-.114.097-.114.097-.115.392-.918 2.641-.804 3.033.115.293-2.294.293-2.983.293h-.229l-2.066-.587c-.114 0-.114 0-.114-.098-.23-.293-1.607-1.565-1.607-1.662 0-.098-.803.195-1.376.489-.23.097-.689.097-.804-.098l-7.802-8.021c-.114-.196-.688-.196-.918 0-1.491 1.761-6.654 7.825-6.999 8.021-.229.098-1.032-.391-1.606-.881-.229-.195-.918-.097-.918.098v2.544c0 .097-.229.195-.459.195h-1.835c-.23 0-.459-.098-.459-.195l-2.869-6.163c-.115-.196-.688-.196-.918 0-.229.196-.803.098-.918-.098l-3.786-13.988c-.115-.195-.803-.195-.918 0l-.115.196c-.114.196-.917.196-.917 0v-.489s0-.098-.115-.098l-.115-.098c-.229-.195-.803-.098-.803.098l-2.18 16.727c0 .098-.23.195-.459.195h-.688c-.23 0-.345 0-.459-.097l-4.131-3.815c-.115-.098-.574-.196-.803-.098-.574.293-1.492.685-1.606.783-.115.097-.459 0-.804-.098-.229-.098-.688 0-.688.098-.344.684-1.033 2.249-1.377 2.445-.229.196-1.721-1.565-2.524-2.445-.115-.196-.803-.196-.918 0-.574.88-1.606 2.249-1.836 2.445-.344.293-2.868 1.174-3.442 1.272-.459.097-2.639-.294-3.327-.392h-.459l-.574.294c-.229.098-.459 0-.688-.098l-2.869-1.956c-.229-.098-.688-.098-.803 0l-3.327 4.89c0 .098-.23.098-.459.098h-3.786c-.115 0-.23 0-.345-.098l-4.13-1.76c-.23-.098-.574-.098-.689 0-.803.489-2.983 1.663-3.327 1.76-.344.098-2.18-.391-2.639-.586h-.344l-8.146.586h-.115l-8.95-.195c-.114 0-.23 0-.344-.098-.23-.098-.803-.293-.918-.489-.115-.196-4.475-3.228-5.851-4.108a1.136 1.136 0 00-.804 0c-1.147.684-4.13 2.543-4.36 2.641-.23.097-.573-.979-.688-1.37 0-.098-.23-.195-.46-.195h-.343c-.23 0-.344.097-.46.097l-1.491 2.446c0 .098-.23.098-.46.098H74.26c-.23 0-.46-.098-.46-.196l-5.163-12.521c-.114-.195-.803-.195-.917 0l-.918 2.837c-.115.196-.803.196-.918 0l-3.442-5.869c0-.098-.23-.098-.46-.098h-4.015c-.23 0-.344.098-.46.098l-3.097 4.304c-.115.196-.918.196-.918 0l-1.147-7.532v-.098l-1.721-2.054c-.115-.196-.918-.196-.918.098-.23 3.228-.918 13.205-1.033 13.499-.23.293-1.72 4.793-2.18 6.162 0 .196-.573.196-.803.098l-3.786-1.761s-.115 0-.115-.097l-1.377-1.859c-.115-.196-.688-.196-.918 0-.688.685-1.836 1.859-2.294 2.054-.46.196-1.148.098-1.492 0-.115 0-.23-.098-.23-.098l-1.95-2.641c-.115-.098-.46-.195-.803-.098l-3.672 1.37c-.114 0-.114.098-.114.098v5.771c0 .098-.23.196-.46.196h-5.392c-.23 0-.46.097-.46.195v.294c0 .097.116.097.116.097-.115 0-.115.098-.115.098v.294c0 .098.23.195.459.195h5.278c.23 0 .459.098.459.196v5.771c0 .098.114.098.114.098l3.672 1.37c.23.097.688 0 .803-.098l1.95-2.641c0-.098.115-.098.23-.098.344-.098 1.033-.098 1.492 0 .459.195 1.72 1.369 2.294 2.054.115.196.689.196.918 0l1.377-1.859s0-.097.115-.097l3.786-1.761c.23-.098.803-.098.803.098.46 1.369 1.95 5.869 2.18 6.162.23.294.804 10.271 1.033 13.499 0 .196.688.294.918.098l1.72-2.054v-.098l1.148-7.532c0-.196.804-.293.918 0l3.098 4.206c.115.098.23.098.46.098h4.015c.23 0 .344-.098.459-.098l3.442-5.869c.115-.196.803-.196.918 0l.918 2.837c.115.195.803.195.918 0l5.278-12.912c0-.098.23-.196.459-.196h3.097c.23 0 .345.098.46.098l1.49 2.445c0 .098.23.098.46.098h.344c.23 0 .459-.098.459-.195.115-.392.344-1.468.688-1.37.23.098 3.213 1.957 4.36 2.641.23.098.574.098.804 0 1.376-.88 5.736-4.01 5.85-4.108.116-.098.69-.391.919-.489.115 0 .23 0 .344-.098l8.95-.196h.115l8.146.587h.344c.574-.195 2.41-.684 2.639-.587.229.098 2.524 1.272 3.327 1.761.115.098.459.098.689 0l4.13-1.761c.115 0 .23-.097.345-.097h3.786c.229 0 .344.097.459.097l3.327 4.891c.115.196.689.196.803 0l2.869-1.956c.114-.098.459-.098.688-.098l1.262.391h.459c.689-.097 2.869-.489 3.328-.391.573.098 3.097 1.076 3.442 1.272.229.195 1.262 1.663 1.835 2.445.115.196.689.196.918 0 .804-.88 2.18-2.641 2.525-2.445.229.195 1.032 1.76 1.376 2.445.115.098.459.196.689.098.344-.098.688-.196.803-.098.115.098 1.033.489 1.606.783.23.098.574.098.803-.098l4.131-3.815c.115-.098.229-.098.459-.098h.688c.23 0 .459.098.459.196l2.18 16.727c0 .195.574.195.803.098l.115-.098.115-.098v-.098c0-.196.803-.293.918 0l.115.196c.114.195.803.195.917 0l3.787-13.988c.115-.196.688-.196.918-.098.229.196.803.098.918 0l2.868-6.163c0-.097.229-.195.459-.195h1.836c.229 0 .459.098.459.195v2.544c0 .195.688.293.918.097.573-.489 1.262-.978 1.606-.88.459.196 5.507 6.26 6.999 8.021.115.196.688.196.918 0l7.802-8.021c.115-.098.574-.196.803-.098.574.196 1.377.587 1.377.489 0-.097 1.377-1.369 1.606-1.663l.115-.097 2.065-.587h.23c.573 0 2.983-.098 2.983.293-.115.294.573 2.543.803 3.033l.115.097 2.983 1.076c.115.098.344.098.574 0 2.18-.489 16.292-3.815 16.866-3.619.459.098 1.721.587 2.295.88.114.098.459.098.573 0l4.934-1.662h8.375c.344.097 1.491.195 2.065.195.688 0 3.442-.391 3.901-.391.344 0 1.606.098 1.951.196h.344c.573-.098 2.295-.392 2.868-.196.803.196 3.901.782 4.59.587.573-.196 2.753-.489 3.442-.587h.344l2.065.489h.459l2.869-.489h.114c.689 0 5.164-.098 5.852 0 .688.098 4.934.293 5.278.293.344 0 3.442-.293 4.13-.293h.23l1.836.293c.114 0 .229.098.344.098l4.13 6.261c0 .097.115.097.23.097l1.95.392c.23 0 .459 0 .574-.098.803-.587 3.442-2.837 3.672-2.543.114.195.803 1.173 1.147 1.858.115.196.688.196.918 0l.115-.098v-4.988c0-.098.114-.098.114-.098l3.328-1.076h.344l4.704.293c.115 0 .23 0 .344.098l1.033.587c.229.098.688.098.803 0l.459-.489c.115-.098.23-.098.459-.098h5.852c.229 0 .459-.098.459-.196v-.489c0-.098-.115-.098-.115-.098-.574 0-.574-.097-.574-.097z" fill="#262626"/><path fill-rule="evenodd" clip-rule="evenodd" d="M21.84 416.293v-15.651h1.119v15.651h-1.12z" fill="url(#paint0_linear_2957_46814)"/><path fill-rule="evenodd" clip-rule="evenodd" d="M312.123 416.293v-15.651h1.119v15.651h-1.119z" fill="url(#paint1_linear_2957_46814)"/><path d="M288.212 437.608c-.462 0-.865-.098-1.21-.295a2.052 2.052 0 01-.793-.853c-.184-.371-.275-.808-.275-1.309 0-.497.091-.929.275-1.296.184-.371.446-.656.786-.853.345-.196.751-.295 1.217-.295.466 0 .869.099 1.209.295.345.197.607.482.787.853.183.367.275.799.275 1.296 0 .501-.092.938-.275 1.309a2.02 2.02 0 01-.787.853c-.34.197-.743.295-1.209.295zm0-.691c.443 0 .788-.152 1.035-.457.246-.304.369-.74.369-1.309 0-.564-.123-.996-.369-1.296-.247-.304-.592-.456-1.035-.456-.444 0-.789.15-1.035.449-.247.3-.37.735-.37 1.303 0 .569.123 1.005.37 1.309.246.305.591.457 1.035.457zm5.135.691c-.659 0-1.158-.167-1.499-.503-.336-.34-.504-.837-.504-1.491v-2.847h.854v2.894c0 .412.096.725.288.94.193.211.48.316.861.316.371 0 .654-.108.846-.322.197-.215.296-.526.296-.934v-2.894h.853v2.847c0 .649-.17 1.144-.51 1.484-.341.34-.836.51-1.485.51zm4.121-.06v-4.069h-1.559v-.712h3.998v.712h-1.566v4.069h-.873zm3.038-4.781h2.076c.516 0 .917.126 1.203.376.287.247.43.585.43 1.014 0 .43-.145.77-.436 1.021-.287.251-.686.376-1.197.376h-1.209v1.994h-.867v-4.781zm1.976 2.115c.3 0 .526-.06.678-.181.157-.125.236-.304.236-.537 0-.237-.077-.416-.229-.537-.152-.125-.381-.188-.685-.188h-1.109v1.443h1.109zm4.475 2.726c-.658 0-1.158-.167-1.498-.503-.336-.34-.504-.837-.504-1.491v-2.847h.853v2.894c0 .412.096.725.289.94.193.211.479.316.86.316.372 0 .654-.108.847-.322.197-.215.296-.526.296-.934v-2.894h.853v2.847c0 .649-.17 1.144-.511 1.484-.34.34-.835.51-1.485.51zm4.121-.06v-4.069h-1.559v-.712h3.999v.712h-1.566v4.069h-.874z" fill="#949494"/><path d="M280 437.548a2.243 2.243 0 002.24-2.238 2.247 2.247 0 00-2.24-2.238 2.251 2.251 0 00-1.582.657 2.25 2.25 0 00-.658 1.581 2.246 2.246 0 002.24 2.238z" fill="#F4B70B"/><path d="M252.092 437.548v-4.781h.867v4.781h-.867zm5.122-4.781h.813v4.781h-.645l-2.581-3.351v3.351h-.806v-4.781h.645l2.574 3.344v-3.344zm1.854 0h2.076c.515 0 .916.125 1.203.376.287.246.43.584.43 1.014 0 .43-.145.77-.437 1.021-.286.25-.685.376-1.196.376h-1.209v1.994h-.867v-4.781zm1.975 2.115c.301 0 .527-.06.679-.181.157-.126.235-.305.235-.537 0-.238-.076-.417-.228-.537-.152-.126-.381-.188-.686-.188h-1.108v1.443h1.108zm4.476 2.726c-.659 0-1.158-.168-1.499-.503-.336-.341-.504-.838-.504-1.491v-2.847h.854v2.894c0 .412.096.725.289.94.193.21.479.316.86.316.372 0 .654-.108.847-.323.197-.215.295-.526.295-.933v-2.894h.854v2.847c0 .649-.17 1.144-.511 1.484-.34.34-.835.51-1.485.51zm4.121-.06v-4.069h-1.559v-.712h3.998v.712h-1.565v4.069h-.874z" fill="#949494"/><path d="M246.4 437.546a2.247 2.247 0 002.24-2.238 2.25 2.25 0 00-.658-1.581 2.251 2.251 0 00-1.582-.657 2.247 2.247 0 00-2.24 2.238 2.243 2.243 0 002.24 2.238z" fill="#262626"/><path d="M305.76 48.119h1.12v1.12h-1.12v1.118h-1.12v-1.119h-1.12V48.12h1.12V47h1.12v1.119z" fill="#939393"/><path fill-rule="evenodd" clip-rule="evenodd" d="M309.679 40.286c-1.819 0-3.36 1.54-3.36 3.357 0 1.817 1.541 3.357 3.36 3.357.965 0 1.823-.383 2.389-.94.603-.708.971-1.474.971-2.417 0-1.818-1.541-3.357-3.36-3.357zm-4.48 3.357c0-2.435 2.043-4.477 4.48-4.477 2.437 0 4.48 2.042 4.48 4.477 0 1.287-.521 2.307-1.255 3.161l-.014.017-.015.015c-.778.778-1.929 1.283-3.196 1.283-2.437 0-4.48-2.041-4.48-4.476z" fill="#939393"/><path fill-rule="evenodd" clip-rule="evenodd" d="M312.876 46.045l3.36 3.357-.792.79-3.36-3.356.792-.791z" fill="#939393"/><path d="M322.559 50.357h-3.36l3.36-3.357v3.357z" fill="#939393"/><path d="M22.4 263.067c-.693 0-1.297-.148-1.815-.443a3.089 3.089 0 01-1.19-1.279c-.275-.558-.413-1.212-.413-1.964 0-.745.138-1.393.414-1.944a2.949 2.949 0 011.18-1.279c.517-.295 1.125-.443 1.823-.443.7 0 1.304.148 1.815.443.517.295.91.722 1.18 1.279.275.551.413 1.199.413 1.944 0 .752-.138 1.406-.414 1.964-.275.55-.668.977-1.18 1.279-.51.295-1.114.443-1.813.443zm0-1.037c.665 0 1.182-.229 1.552-.685.37-.457.554-1.111.554-1.964 0-.846-.184-1.494-.554-1.944-.37-.457-.887-.685-1.553-.685-.665 0-1.182.225-1.552.675-.37.45-.554 1.101-.554 1.954s.185 1.507.554 1.964c.37.456.888.685 1.553.685zm7.702 1.037c-.987 0-1.737-.252-2.247-.755-.504-.511-.756-1.256-.756-2.236v-4.271h1.28v4.341c0 .618.144 1.088.433 1.41.29.316.72.474 1.29.474.558 0 .982-.162 1.27-.484.296-.322.444-.789.444-1.4v-4.341h1.28v4.271c0 .973-.255 1.715-.766 2.226-.51.51-1.253.765-2.228.765zm6.181-.091v-6.103h-2.339v-1.068h5.998v1.068h-2.349v6.103h-1.31zm4.557-7.171h3.115c.773 0 1.375.188 1.805.564.43.37.645.877.645 1.521 0 .645-.218 1.155-.655 1.531-.43.376-1.028.564-1.794.564H42.14v2.991h-1.3v-7.171zm2.964 3.173c.45 0 .79-.091 1.018-.272.236-.188.353-.457.353-.806 0-.356-.114-.624-.342-.805-.229-.188-.572-.282-1.029-.282h-1.663v2.165h1.663zm6.713 4.089c-.987 0-1.737-.252-2.247-.755-.504-.511-.756-1.256-.756-2.236v-4.271h1.28v4.341c0 .618.144 1.088.433 1.41.29.316.72.474 1.29.474.558 0 .982-.162 1.27-.484.296-.322.444-.789.444-1.4v-4.341h1.28v4.271c0 .973-.255 1.715-.766 2.226-.51.51-1.253.765-2.227.765zm6.182-.091v-6.103H54.36v-1.068h5.998v1.068H58.01v6.103H56.7zM31.7 80.662c-.853 0-1.504-.312-1.955-.937-.443-.63-.665-1.547-.665-2.75 0-1.18.222-2.084.665-2.708.45-.625 1.102-.937 1.956-.937.853 0 1.502.312 1.945.937.45.617.676 1.52.676 2.71 0 1.194-.225 2.107-.676 2.738-.443.632-1.093.947-1.946.947zm0-1.017c.465 0 .8-.212 1.01-.635.214-.43.321-1.108.321-2.034 0-.913-.107-1.578-.322-1.994-.208-.423-.544-.635-1.008-.635-.464 0-.803.212-1.018.635-.209.416-.313 1.08-.313 1.994 0 .927.104 1.605.313 2.034.215.423.553.635 1.017.635zm-6.749 19.973V98.61h3.034v1.007l-3.034.001zm7.131-2.367c.45 0 .847.097 1.19.292.342.188.608.457.796.806.188.342.282.738.282 1.188 0 .47-.107.886-.322 1.249a2.195 2.195 0 01-.928.836c-.403.195-.87.292-1.4.292a4.11 4.11 0 01-1.33-.222 3.153 3.153 0 01-1.08-.614l.433-.947c.652.497 1.318.746 1.996.746.45 0 .793-.111 1.028-.333.242-.228.363-.55.363-.967 0-.396-.124-.71-.373-.946-.242-.242-.568-.363-.977-.363-.283 0-.548.054-.797.161a1.827 1.827 0 00-.655.454h-.786v-4.22h4.495v1.007h-3.225v1.954c.363-.249.793-.373 1.29-.373zM18.908 120.88v-1.007h3.034v1.007h-3.034zm7.716 1.158h1.563v1.058h-4.425v-1.058h1.572v-4.622l-1.46.876v-1.158l1.994-1.209h.756v6.113zm5.076 1.149c-.853 0-1.504-.313-1.955-.937-.443-.631-.665-1.548-.665-2.75 0-1.181.222-2.084.665-2.709.45-.624 1.102-.936 1.956-.936.853 0 1.502.312 1.945.936.45.618.676 1.521.676 2.709 0 1.196-.225 2.109-.676 2.74-.443.631-1.093.947-1.946.947zm0-1.018c.465 0 .8-.211 1.01-.634.214-.43.321-1.108.321-2.035 0-.913-.107-1.577-.322-1.994-.208-.423-.544-.634-1.008-.634-.464 0-.803.211-1.018.634-.209.417-.313 1.081-.313 1.994 0 .927.104 1.605.313 2.035.215.423.553.634 1.017.634zm-12.792 19.973v-1.007h3.034v1.007h-3.034zm7.716 1.158h1.563v1.058h-4.425V143.3h1.572v-4.622l-1.46.876v-1.158l1.994-1.209h.756v6.113zm5.46-3.525c.45 0 .846.098 1.19.292.341.188.607.457.795.806.188.343.282.739.282 1.189 0 .47-.107.886-.322 1.248a2.195 2.195 0 01-.928.836c-.403.195-.87.292-1.4.292-.453 0-.903-.075-1.332-.221-.436-.155-.796-.359-1.078-.614l.433-.947c.652.497 1.317.745 1.996.745.45 0 .793-.111 1.028-.332.242-.229.363-.551.363-.967 0-.396-.124-.712-.373-.947-.242-.242-.568-.362-.977-.362-.283 0-.548.053-.797.161-.248.1-.467.252-.655.453h-.786v-4.22h4.496v1.007h-3.226v1.954c.363-.248.793-.373 1.29-.373zm-13.186 23.629v-1.007h3.035v1.007h-3.035zm9.26 1.158v1.058h-4.819v-.957l2.44-2.629c.288-.315.5-.604.634-.866s.202-.52.202-.775c0-.329-.098-.578-.293-.745-.188-.168-.46-.252-.816-.252-.632 0-1.28.248-1.946.745l-.433-.947c.282-.255.645-.456 1.09-.604.43-.152.883-.23 1.34-.232.72 0 1.286.178 1.703.534.423.349.635.823.635 1.42 0 .41-.09.796-.272 1.158-.175.363-.47.769-.887 1.219l-1.764 1.873h3.185zm3.542 1.149c-.853 0-1.504-.313-1.955-.937-.443-.631-.665-1.548-.665-2.75 0-1.181.222-2.084.665-2.709.45-.624 1.102-.936 1.956-.936.853 0 1.502.312 1.945.936.45.618.676 1.521.676 2.709 0 1.196-.226 2.109-.676 2.74-.443.631-1.093.947-1.946.947zm0-1.018c.464 0 .8-.211 1.01-.634.214-.43.321-1.108.321-2.035 0-.913-.107-1.577-.322-1.994-.209-.423-.545-.634-1.008-.634-.464 0-.803.211-1.018.634-.209.417-.313 1.081-.313 1.994 0 .927.104 1.605.313 2.035.215.423.553.634 1.017.634zm-12.802 19.973v-1.007h3.035v1.007h-3.035zm9.26 1.158v1.058h-4.819v-.957l2.44-2.629c.288-.315.5-.604.634-.866s.202-.52.202-.775c0-.329-.098-.578-.293-.746-.188-.168-.46-.252-.816-.252-.632 0-1.28.249-1.946.746l-.433-.947c.282-.255.645-.457 1.09-.604a4.03 4.03 0 011.34-.232c.72 0 1.286.178 1.703.534.423.349.635.822.635 1.42 0 .41-.09.796-.272 1.158-.175.363-.47.769-.887 1.219l-1.764 1.873h3.185zm3.925-3.525c.45 0 .847.097 1.19.292.342.188.608.457.796.806.188.342.282.738.282 1.188.01.438-.102.87-.322 1.249a2.195 2.195 0 01-.928.836c-.403.195-.87.292-1.4.292-.45 0-.895-.074-1.33-.221a3.175 3.175 0 01-1.08-.615l.433-.946c.652.496 1.318.745 1.996.745.45 0 .793-.111 1.03-.333.24-.228.361-.55.361-.966 0-.397-.124-.712-.373-.947-.242-.242-.567-.363-.977-.363-.283 0-.548.054-.797.161a1.82 1.82 0 00-.655.454h-.786v-4.22h4.496v1.007h-3.226v1.954c.363-.249.793-.373 1.29-.373zm-13.175 23.629v-1.007h3.034v1.007h-3.034zm7.857-1.47c.424.114.746.322.968.624.228.302.343.675.343 1.118 0 .624-.232 1.118-.696 1.481-.457.362-1.075.543-1.855.543-.484 0-.95-.073-1.4-.221a3.052 3.052 0 01-1.1-.615l.444-.946c.638.497 1.307.745 2.006.745.457 0 .796-.091 1.018-.272.228-.181.343-.456.343-.826 0-.362-.115-.628-.343-.795-.228-.175-.58-.262-1.058-.262h-.948v-1.038h.776c.928 0 1.391-.352 1.391-1.057 0-.329-.1-.581-.302-.755-.202-.175-.484-.262-.847-.262-.645 0-1.29.248-1.935.745l-.434-.947a3.15 3.15 0 011.09-.604 4.117 4.117 0 011.36-.232c.705 0 1.266.175 1.683.524.424.342.635.802.635 1.38a1.85 1.85 0 01-.312 1.037c-.195.289-.47.5-.827.635zm4.935 3.776c-.853 0-1.504-.312-1.955-.936-.443-.631-.665-1.548-.665-2.75 0-1.181.222-2.084.665-2.709.45-.624 1.102-.937 1.956-.937.853 0 1.502.313 1.945.937.45.618.676 1.521.676 2.709 0 1.195-.225 2.109-.676 2.74-.443.631-1.093.946-1.946.946zm0-1.017c.465 0 .8-.211 1.01-.634.214-.43.321-1.108.321-2.035 0-.913-.107-1.578-.322-1.994-.208-.423-.544-.634-1.008-.634-.464 0-.803.211-1.018.634-.209.416-.313 1.081-.313 1.994 0 .927.104 1.605.313 2.035.215.423.553.634 1.017.634zM18.908 227.19v-1.007h3.034v1.007h-3.034zm7.857-1.471c.424.115.746.323.968.625.228.302.343.675.343 1.118 0 .624-.232 1.118-.696 1.48-.457.363-1.075.544-1.855.544-.484 0-.95-.074-1.4-.221a3.052 3.052 0 01-1.1-.615l.444-.947c.638.497 1.307.746 2.006.746.457 0 .796-.091 1.018-.272.228-.181.343-.457.343-.826 0-.363-.115-.628-.343-.796-.228-.174-.58-.262-1.058-.262h-.948v-1.037h.776c.928 0 1.391-.352 1.391-1.057 0-.329-.1-.581-.302-.756-.202-.174-.484-.262-.847-.262-.645 0-1.29.249-1.935.746l-.434-.947c.32-.272.69-.477 1.09-.604a4.09 4.09 0 011.36-.232c.705 0 1.266.175 1.683.524.424.342.635.802.635 1.38-.007.396-.11.741-.312 1.037-.195.289-.47.5-.827.634zm5.318-.896c.45 0 .847.097 1.19.292.342.188.608.457.796.806.188.342.282.738.282 1.188.01.438-.102.87-.322 1.249a2.195 2.195 0 01-.928.836c-.403.195-.87.292-1.4.292-.45 0-.895-.074-1.332-.221a3.17 3.17 0 01-1.078-.615l.433-.947c.652.497 1.317.746 1.996.746.45 0 .793-.111 1.028-.333.242-.228.363-.55.363-.966 0-.397-.124-.712-.373-.947-.242-.242-.568-.363-.977-.363-.283 0-.548.054-.797.161a1.82 1.82 0 00-.655.454h-.786v-4.22h4.496v1.007h-3.226v1.954c.363-.249.793-.373 1.29-.373zm9.33 50.577c-.798 0-1.418-.34-1.86-1.018-.44-.682-.66-1.595-.66-2.739 0-1.158.216-2.054.65-2.69.436-.64 1.062-.959 1.88-.959.803 0 1.422.326 1.855.978.436.653.655 1.543.655 2.671 0 .75-.094 1.406-.28 1.967-.188.557-.474.995-.857 1.313-.38.318-.842.477-1.383.477zm.02-1.067c.816 0 1.225-.895 1.225-2.685 0-.348-.022-.669-.064-.964a4.014 4.014 0 00-.202-.817 1.345 1.345 0 00-.379-.59.833.833 0 00-.576-.216.91.91 0 00-.605.216 1.345 1.345 0 00-.394.59 3.959 3.959 0 00-.202.817 6.785 6.785 0 00-.064.968c0 .407.022.766.064 1.077.043.312.11.592.202.841.095.246.226.435.394.566a.946.946 0 00.601.197zm9.16.083c.222 0 .417-.044.584-.133.168-.091.3-.216.394-.373a1.8 1.8 0 00.217-.527c.05-.19.073-.395.073-.614 0-.492-.106-.892-.32-1.2-.213-.312-.533-.467-.96-.467-.285 0-.526.077-.723.231a1.297 1.297 0 00-.418.59 2.546 2.546 0 00-.123.826c0 .226.023.436.07.63.048.193.12.37.215.531.1.157.232.282.4.373.17.089.367.133.59.133zm-.252.984c-.653 0-1.2-.24-1.644-.718-.44-.479-.66-1.11-.66-1.894 0-.357.051-.695.153-1.013.101-.318.247-.601.438-.85.202-.255.462-.458.758-.591a2.429 2.429 0 011.048-.221c.348 0 .642.072.881.217.243.141.412.288.507.442v-2.65h1.21v5.817l.045 1.348h-1.25l-.01-.645a.8.8 0 01-.148.232 1.756 1.756 0 01-.275.245c-.115.082-.264.15-.448.202-.197.054-.4.081-.605.079zm5.591-4.303H57c.167 0 .321-.015.462-.045.141-.032.274-.085.4-.157a.766.766 0 00.3-.305.964.964 0 00.108-.472c0-.354-.123-.595-.37-.723-.246-.131-.633-.196-1.16-.196h-.808v1.898zm.014 3.122h1.128c1.007 0 1.51-.336 1.51-1.008 0-.419-.113-.708-.339-.865-.223-.158-.623-.236-1.2-.236h-1.099v2.109zm-1.264 1.068v-7.161h1.983c.207 0 .392.005.556.015.164.007.351.025.561.054.214.027.4.066.561.118.161.05.324.12.488.212a1.4 1.4 0 01.664.801c.07.187.104.399.104.635 0 .708-.317 1.218-.95 1.529.426.115.746.331.96.649.213.315.32.69.32 1.126 0 .273-.055.528-.163.768a1.957 1.957 0 01-.478.639 2.246 2.246 0 01-.83.452 3.81 3.81 0 01-1.163.163h-2.613z" fill="#949494"/><path fill-rule="evenodd" clip-rule="evenodd" d="M59.362 76.096v151.071h-3.36V76.096h3.36z" fill="#424242"/><path fill-rule="evenodd" clip-rule="evenodd" d="M59.36 87.285v139.882H56V87.285h3.36z" fill="#F4B70B"/><path d="M57.681 66.024c5.876 0 10.64 4.76 10.64 10.631s-4.764 10.631-10.64 10.631-10.64-4.76-10.64-10.63c0-5.872 4.764-10.632 10.64-10.632z" fill="#F4B70B"/><path d="M57.681 70.5a6.157 6.157 0 016.16 6.155 6.158 6.158 0 01-6.16 6.155 6.158 6.158 0 01-5.69-8.51 6.156 6.156 0 015.69-3.8z" fill="#212121"/><path d="M315.06 80.662c-.853 0-1.505-.312-1.955-.937-.444-.63-.666-1.547-.666-2.75 0-1.18.222-2.084.666-2.708.45-.625 1.102-.937 1.955-.937.854 0 1.502.312 1.946.937.45.617.675 1.52.675 2.71 0 1.194-.225 2.107-.675 2.738-.444.632-1.092.947-1.946.947zm0-1.017c.464 0 .8-.212 1.008-.635.215-.43.323-1.108.323-2.034 0-.913-.108-1.578-.323-1.994-.208-.423-.544-.635-1.008-.635-.463 0-.803.212-1.018.635-.208.416-.312 1.08-.312 1.994 0 .927.104 1.605.312 2.034.215.423.555.635 1.018.635zm-12.792 23.33v-1.007h3.034v1.007h-3.034zm7.716 1.158h1.562v1.058h-4.425v-1.058h1.572V99.51l-1.461.877v-1.159l1.996-1.208h.756v6.113zm5.076 1.148c-.853 0-1.505-.312-1.956-.936-.443-.632-.665-1.548-.665-2.75 0-1.182.222-2.085.665-2.709.451-.625 1.103-.937 1.956-.937s1.502.312 1.945.937c.451.618.676 1.521.676 2.709 0 1.195-.225 2.108-.676 2.74-.443.631-1.092.946-1.945.946zm0-1.017c.464 0 .8-.211 1.008-.634.215-.43.323-1.108.323-2.035 0-.913-.108-1.578-.323-1.994-.208-.423-.544-.635-1.008-.635-.464 0-.803.212-1.018.635-.208.416-.313 1.081-.313 1.994 0 .927.105 1.605.313 2.035.215.423.554.634 1.018.634zm-12.802 23.33v-1.008h3.034v1.008h-3.034zm9.258 1.158v1.057h-4.818v-.956l2.439-2.629c.289-.316.501-.604.635-.866.135-.262.202-.521.202-.776 0-.329-.098-.577-.293-.745-.188-.168-.46-.252-.816-.252-.632 0-1.28.249-1.945.745l-.434-.946c.282-.255.645-.457 1.089-.605.443-.154.89-.231 1.34-.231.719 0 1.287.178 1.704.534.423.349.635.822.635 1.42 0 .409-.091.795-.272 1.158-.175.362-.471.769-.887 1.219l-1.764 1.873h3.185zm3.544 1.148c-.853 0-1.505-.312-1.955-.937-.444-.631-.666-1.547-.666-2.749 0-1.182.222-2.085.666-2.709.45-.625 1.102-.937 1.955-.937s1.502.312 1.945.937c.451.617.676 1.52.676 2.709 0 1.195-.225 2.108-.676 2.739-.443.631-1.092.947-1.945.947zm0-1.017c.464 0 .8-.212 1.008-.635.215-.429.323-1.108.323-2.034 0-.913-.108-1.578-.323-1.994-.208-.423-.544-.635-1.008-.635-.464 0-.803.212-1.018.635-.208.416-.313 1.081-.313 1.994 0 .926.105 1.605.313 2.034.215.423.554.635 1.018.635zm-12.792 23.33v-1.007h3.034v1.007h-3.034zm7.857-1.471c.423.114.746.323.967.625.229.302.343.675.343 1.118 0 .624-.232 1.118-.695 1.48-.457.363-1.076.544-1.855.544-.484 0-.951-.074-1.401-.222a3.036 3.036 0 01-1.099-.614l.444-.947c.638.497 1.307.746 2.005.746.457 0 .797-.091 1.019-.272.228-.182.342-.457.342-.826 0-.363-.114-.628-.342-.796-.229-.174-.582-.262-1.059-.262h-.947v-1.037h.776c.927 0 1.391-.352 1.391-1.057 0-.329-.101-.581-.303-.756-.201-.174-.483-.262-.846-.262-.645 0-1.291.249-1.936.746l-.433-.947c.319-.272.69-.477 1.089-.604a4.092 4.092 0 011.36-.232c.706 0 1.267.175 1.684.524.423.342.635.802.635 1.379.002.37-.107.731-.313 1.038-.195.289-.47.5-.826.634zm4.935 3.777c-.853 0-1.505-.312-1.956-.937-.443-.631-.665-1.547-.665-2.749 0-1.182.222-2.085.665-2.709.451-.625 1.103-.937 1.956-.937s1.502.312 1.945.937c.451.617.676 1.521.676 2.709 0 1.195-.225 2.108-.676 2.739-.443.632-1.092.947-1.945.947zm0-1.017c.464 0 .8-.212 1.008-.635.215-.429.323-1.107.323-2.034 0-.913-.108-1.578-.323-1.994-.208-.423-.544-.635-1.008-.635-.464 0-.803.212-1.018.635-.208.416-.313 1.081-.313 1.994 0 .927.105 1.605.313 2.034.215.423.554.635 1.018.635zm-12.792 23.33v-1.007h3.034v1.007h-3.034zm9.53-.202v1.018h-1.018v1.4h-1.27v-1.4h-3.125v-.967l3.357-4.804h1.038v4.753h1.018zm-4.183 0h1.895v-2.729l-1.895 2.729zm7.445 2.508c-.853 0-1.505-.312-1.956-.936-.443-.632-.665-1.548-.665-2.75 0-1.182.222-2.085.665-2.709.451-.625 1.103-.937 1.956-.937s1.502.312 1.945.937c.451.618.676 1.521.676 2.709 0 1.195-.225 2.108-.676 2.739-.443.632-1.092.947-1.945.947zm0-1.017c.464 0 .8-.212 1.008-.635.215-.429.323-1.107.323-2.034 0-.913-.108-1.578-.323-1.994-.208-.423-.544-.635-1.008-.635-.464 0-.803.212-1.018.635-.208.416-.313 1.081-.313 1.994 0 .927.105 1.605.313 2.034.215.423.554.635 1.018.635zm-12.792 23.33v-1.007h3.034v1.007h-3.034zm7.131-2.367c.45 0 .847.098 1.189.292.343.188.609.457.797.806.188.342.282.739.282 1.188a2.39 2.39 0 01-.323 1.249 2.19 2.19 0 01-.927.836c-.403.195-.87.292-1.401.292-.45 0-.894-.074-1.331-.221a3.18 3.18 0 01-1.078-.615l.433-.946c.652.496 1.317.745 1.996.745.45 0 .793-.111 1.028-.332.242-.229.363-.551.363-.967 0-.396-.124-.712-.373-.947-.242-.242-.568-.363-.978-.363-.282 0-.547.054-.796.162-.249.1-.467.251-.655.453h-.786v-4.22h4.495v1.007h-3.225v1.954c.363-.249.793-.373 1.29-.373zm5.661 4.673c-.853 0-1.505-.312-1.956-.936-.443-.631-.665-1.548-.665-2.75 0-1.182.222-2.085.665-2.709.451-.624 1.103-.937 1.956-.937s1.502.313 1.945.937c.451.618.676 1.521.676 2.709 0 1.195-.225 2.108-.676 2.74-.443.631-1.092.946-1.945.946zm0-1.017c.464 0 .8-.211 1.008-.634.215-.43.323-1.108.323-2.035 0-.913-.108-1.578-.323-1.994-.208-.423-.544-.634-1.008-.634-.464 0-.803.211-1.018.634-.208.416-.313 1.081-.313 1.994 0 .927.105 1.605.313 2.035.215.423.554.634 1.018.634zm-12.792 23.33v-1.007h3.034v1.007h-3.034zm7.191-2.387c.424 0 .8.098 1.129.292.336.195.598.467.787.816.188.349.282.749.282 1.199 0 .456-.104.866-.313 1.228-.199.36-.495.657-.856.856-.38.206-.807.311-1.24.303-.907 0-1.606-.306-2.097-.917-.49-.618-.736-1.494-.736-2.629 0-.792.115-1.473.343-2.044.235-.571.571-1.007 1.008-1.309.444-.303.968-.454 1.572-.454.431 0 .847.074 1.25.222.41.141.766.346 1.069.614l-.444.947c-.631-.497-1.239-.745-1.824-.745-.531 0-.941.225-1.23.675-.289.449-.44 1.094-.453 1.933.154-.302.389-.54.705-.715a2.07 2.07 0 011.048-.272zm-.272 3.666c.37 0 .666-.121.887-.362.229-.242.343-.561.343-.957 0-.396-.114-.712-.343-.947-.221-.242-.52-.362-.897-.362-.376 0-.682.12-.917.362s-.353.557-.353.947c0 .389.118.708.353.957.242.241.551.362.927.362zm5.873 1.028c-.853 0-1.505-.313-1.956-.937-.443-.631-.665-1.548-.665-2.75 0-1.181.222-2.084.665-2.709.451-.624 1.103-.936 1.956-.936s1.502.312 1.945.936c.451.618.676 1.521.676 2.709 0 1.196-.225 2.109-.676 2.74-.443.631-1.092.947-1.945.947zm0-1.018c.464 0 .8-.211 1.008-.634.215-.43.323-1.108.323-2.035 0-.913-.108-1.577-.323-1.994-.208-.423-.544-.634-1.008-.634-.464 0-.803.211-1.018.634-.208.417-.313 1.081-.313 1.994 0 .927.105 1.605.313 2.035.215.423.554.634 1.018.634zm-34.283 35.618v-7.171h1.301v6.103h3.356v1.068h-4.657zm5.641 0v-7.171h4.798v1.027h-3.528v1.984h3.316v1.027h-3.316v2.105h3.528v1.028h-4.798zm11.256-7.171h1.321l-3.195 7.171h-1.059l-3.195-7.171h1.35l2.389 5.539 2.389-5.539zm2.003 7.171v-7.171h4.798v1.027h-3.528v1.984h3.317v1.027h-3.317v2.105h3.528v1.028h-4.798zm5.995 0v-7.171h1.301v6.103h3.356v1.068h-4.657z" fill="#949494"/><path fill-rule="evenodd" clip-rule="evenodd" d="M284.481 76.095v151.072h-3.36V76.095h3.36z" fill="#424242"/><path fill-rule="evenodd" clip-rule="evenodd" d="M284.481 115.262v111.905h-3.36V115.262h3.36z" fill="#F4B70B"/><path fill-rule="evenodd" clip-rule="evenodd" d="M166.88 39.167a5.594 5.594 0 00-5.173 3.454 5.585 5.585 0 001.214 6.1 5.601 5.601 0 009.559-3.958 5.585 5.585 0 00-1.641-3.958 5.598 5.598 0 00-3.959-1.638zm0-1.12a6.716 6.716 0 00-6.207 9.286 6.718 6.718 0 008.778 3.634 6.718 6.718 0 004.149-6.204 6.71 6.71 0 00-1.969-4.75 6.72 6.72 0 00-4.751-1.965z" fill="#949494"/><path d="M166.133 48.492h1.493v-4.476h-1.493v4.476zm1.493-6.714a.737.737 0 00-.219-.527.74.74 0 00-.527-.219.75.75 0 00-.689.46.745.745 0 101.435.285z" fill="#949494"/><path d="M174.721 361.452c0-5.562 4.513-10.071 10.08-10.071h118.72c5.567 0 10.08 4.509 10.08 10.071 0 5.563-4.513 10.072-10.08 10.072h-118.72c-5.567 0-10.08-4.509-10.08-10.072z" fill="#F4B70B"/><path d="M218.748 364.809v-7.171h4.798v1.028h-3.528v1.984h3.316v1.027h-3.316v2.105h3.528v1.027h-4.798zm11.962-7.171h1.028v7.171h-1.149v-4.451l-1.905 4.451h-.857l-1.915-4.401v4.401h-1.149v-7.171h1.028l2.47 5.61 2.449-5.61zm2.597 0h3.115c.772 0 1.374.188 1.804.564.43.37.645.877.645 1.521 0 .645-.218 1.155-.655 1.531-.43.376-1.028.564-1.794.564h-1.815v2.991h-1.3v-7.171zm2.963 3.173c.451 0 .79-.091 1.019-.272.235-.188.352-.457.352-.806 0-.356-.114-.624-.342-.805-.229-.188-.572-.282-1.029-.282h-1.663v2.165h1.663zm8.71-3.173h1.29v7.171h-1.29v-3.112h-3.679v3.112h-1.281v-7.171h1.281v3.002h3.679v-3.002zm8.33 7.171l-.716-1.682h-3.508l-.725 1.682h-1.311l3.246-7.171h1.058l3.256 7.171h-1.3zm-3.79-2.689h2.641l-1.321-3.072-1.32 3.072zm8.207 2.78a5.263 5.263 0 01-1.552-.222 3.556 3.556 0 01-1.22-.634l.444-.947c.349.262.712.457 1.088.584.383.121.8.182 1.25.182.498 0 .881-.088 1.149-.262.276-.175.414-.42.414-.735 0-.269-.128-.474-.383-.615-.249-.148-.662-.285-1.24-.413-.901-.194-1.556-.446-1.966-.755-.41-.309-.615-.759-.615-1.35 0-.423.115-.799.343-1.128.228-.329.551-.587.968-.775.423-.188.91-.282 1.461-.282.487-.002.971.076 1.432.231.457.148.83.356 1.119.625l-.434.947c-.638-.511-1.344-.766-2.117-.766-.463 0-.83.098-1.098.292a.899.899 0 00-.404.776c0 .282.118.497.353.644.242.148.652.286 1.23.413.598.141 1.085.296 1.462.464.376.161.665.372.866.634.202.255.303.577.303.967 0 .43-.114.806-.343 1.128-.228.315-.558.561-.988.735-.43.175-.937.262-1.522.262zm4.058-.091v-7.171h1.3v7.171h-1.3zm5.284.091a5.263 5.263 0 01-1.552-.222 3.53 3.53 0 01-1.22-.634l.443-.947c.33.252.697.449 1.089.584.383.121.8.182 1.25.182.497 0 .88-.088 1.149-.262a.826.826 0 00.413-.735c0-.269-.127-.474-.383-.615-.248-.148-.662-.285-1.24-.413-.9-.194-1.555-.446-1.965-.755-.41-.309-.615-.759-.615-1.35 0-.423.114-.799.343-1.128.228-.329.551-.587.967-.775.424-.188.911-.282 1.462-.282.504 0 .981.077 1.431.231.457.148.83.356 1.119.625l-.433.947c-.639-.511-1.344-.766-2.117-.766-.464 0-.83.098-1.099.292a.899.899 0 00-.403.776c0 .282.118.497.353.644.242.148.652.286 1.23.413.598.141 1.085.296 1.461.464.377.161.666.372.867.634.202.255.303.577.303.967 0 .43-.115.806-.343 1.128-.229.315-.558.561-.988.735-.43.175-.937.262-1.522.262zm42.053-3.448a6.713 6.713 0 01-6.72 6.714 6.71 6.71 0 01-6.207-4.143 6.709 6.709 0 011.457-7.319 6.721 6.721 0 0110.958 2.178c.338.815.512 1.688.512 2.57z" fill="#F0F0F0"/><path d="M306.882 361.452a4.467 4.467 0 01-2.766 4.135 4.483 4.483 0 01-4.881-.97 4.467 4.467 0 01-1.313-3.165 4.467 4.467 0 012.766-4.136 4.46 4.46 0 011.714-.34 4.464 4.464 0 013.167 1.31 4.467 4.467 0 011.313 3.166z" fill="#D8D8D8"/><path d="M309.122 361.452a6.732 6.732 0 01-1.97 4.749 6.723 6.723 0 01-10.958-2.178 6.713 6.713 0 016.208-9.285 6.724 6.724 0 014.75 1.966 6.71 6.71 0 011.97 4.748z" fill="#F0F0F0"/><path d="M306.882 361.452a4.467 4.467 0 01-2.766 4.135 4.483 4.483 0 01-4.881-.97 4.467 4.467 0 01-1.313-3.165 4.467 4.467 0 012.766-4.136 4.46 4.46 0 011.714-.34 4.464 4.464 0 013.167 1.31 4.467 4.467 0 011.313 3.166z" fill="#1CCCD1"/><path fill-rule="evenodd" clip-rule="evenodd" d="M151.2 352.5H32.48c-4.948 0-8.96 4.008-8.96 8.952 0 4.945 4.012 8.953 8.96 8.953H151.2c4.949 0 8.96-4.008 8.96-8.953 0-4.944-4.011-8.952-8.96-8.952zm-118.72-1.119c-5.567 0-10.08 4.509-10.08 10.071 0 5.563 4.513 10.072 10.08 10.072H151.2c5.567 0 10.08-4.509 10.08-10.072 0-5.562-4.513-10.071-10.08-10.071H32.48z" fill="#212121"/><path d="M50.767 361.103c.416.121.735.332.957.635.229.302.343.674.343 1.117 0 .611-.218 1.092-.655 1.441-.43.342-1.032.513-1.805.513h-3.255v-7.171h3.155c.739 0 1.32.168 1.743.504.424.329.636.786.636 1.37 0 .376-.101.705-.303.987a1.674 1.674 0 01-.816.604zm-3.145-.443h1.673c.9 0 1.35-.336 1.35-1.007 0-.336-.11-.588-.332-.756-.222-.167-.561-.251-1.018-.251h-1.673v2.014zm1.844 3.142c.47 0 .813-.084 1.028-.252.222-.167.333-.433.333-.795 0-.37-.11-.641-.333-.816-.215-.175-.557-.262-1.028-.262h-1.844v2.125h1.844zm9.752 1.007h-1.37l-.918-2.387c-.08-.221-.205-.376-.373-.463-.168-.087-.386-.131-.655-.131h-1.3v2.981h-1.29v-7.171h3.074c.813 0 1.43.178 1.855.534.423.356.635.866.635 1.531 0 .477-.128.883-.383 1.219-.25.329-.605.564-1.07.705.424.087.73.382.918.886l.877 2.296zm-3.014-3.988c.49 0 .854-.091 1.09-.272.234-.181.352-.456.352-.826 0-.362-.118-.631-.353-.805-.228-.182-.591-.272-1.088-.272h-1.623v2.175h1.623-.001zm4.185 3.988v-7.171h4.798v1.028h-3.528v1.984h3.316v1.027h-3.316v2.105h3.528v1.027h-4.798zm11.36 0l-.716-1.682h-3.508l-.725 1.682h-1.31l3.245-7.171h1.058l3.256 7.171h-1.3zm-3.79-2.689h2.64l-1.32-3.072-1.32 3.072zm6.664 2.689v-6.103h-2.34v-1.068h5.999v1.068h-2.35v6.103h-1.31zm9.517-7.171h1.29v7.171h-1.29v-3.112h-3.68v3.112h-1.28v-7.171h1.28v3.002h3.68v-3.002zm8.868 7.262c-.704 0-1.322-.151-1.853-.453a3.05 3.05 0 01-1.21-1.279c-.282-.558-.423-1.209-.423-1.954 0-.739.14-1.383.422-1.934a2.967 2.967 0 011.21-1.279c.532-.302 1.15-.453 1.855-.453.484 0 .938.077 1.36.231.43.148.787.356 1.07.625l-.424.947a3.282 3.282 0 00-.968-.564 2.804 2.804 0 00-1.017-.182c-.694 0-1.23.225-1.614.675-.376.45-.564 1.095-.564 1.934 0 .846.188 1.497.564 1.954.377.45.915.674 1.614.674.362 0 .7-.057 1.017-.171.323-.121.645-.312.968-.574l.424.947c-.282.268-.64.48-1.07.634-.438.15-.899.225-1.361.222zm6.693 0c-.693 0-1.297-.148-1.815-.443a3.083 3.083 0 01-1.19-1.279c-.275-.558-.413-1.212-.413-1.964 0-.745.138-1.393.414-1.944a2.934 2.934 0 011.18-1.279c.517-.295 1.125-.443 1.824-.443.698 0 1.303.148 1.814.443.517.295.911.722 1.179 1.279.276.551.414 1.199.414 1.944 0 .752-.138 1.406-.414 1.964-.275.55-.668.977-1.179 1.279-.511.295-1.116.443-1.814.443zm0-1.037c.665 0 1.182-.229 1.552-.685.37-.457.554-1.111.554-1.964 0-.846-.184-1.494-.554-1.944-.37-.457-.887-.685-1.552-.685-.666 0-1.183.225-1.553.675-.37.45-.554 1.101-.554 1.954s.185 1.507.554 1.964c.37.456.887.685 1.553.685zm9.567-6.225h1.22v7.171h-.968l-3.871-5.025v5.025h-1.209v-7.171h.967l3.861 5.016v-5.016zm4.464 7.171v-6.103h-2.338v-1.068h5.997v1.068h-2.348v6.103h-1.311zm10.465 0h-1.371l-.918-2.387c-.08-.221-.205-.376-.373-.463-.168-.087-.386-.131-.655-.131h-1.3v2.981h-1.29v-7.171h3.074c.813 0 1.431.178 1.855.534.423.356.635.866.635 1.531 0 .477-.128.883-.383 1.219-.249.329-.605.564-1.069.705.424.087.729.382.918.886l.877 2.296zm-3.014-3.988c.49 0 .853-.091 1.088-.272.235-.181.353-.456.353-.826 0-.362-.118-.631-.353-.805-.228-.182-.591-.272-1.088-.272h-1.623v2.175h1.623zm7.32 4.079c-.692 0-1.297-.148-1.814-.443a3.075 3.075 0 01-1.189-1.279c-.276-.558-.414-1.212-.414-1.964 0-.745.138-1.393.414-1.944a2.922 2.922 0 011.179-1.279c.517-.295 1.126-.443 1.824-.443.699 0 1.304.148 1.815.443.517.295.91.722 1.179 1.279.276.551.413 1.199.413 1.944 0 .752-.137 1.406-.413 1.964-.275.55-.668.977-1.179 1.279-.511.295-1.116.443-1.815.443zm0-1.037c.666 0 1.183-.229 1.553-.685.369-.457.554-1.111.554-1.964 0-.846-.185-1.494-.554-1.944-.37-.457-.887-.685-1.553-.685-.665 0-1.182.225-1.552.675-.37.45-.554 1.101-.554 1.954s.184 1.507.554 1.964c.37.456.887.685 1.552.685zm4.739.946v-7.171h1.301v6.104h3.356v1.067h-4.657z" fill="#212121"/></g><defs><linearGradient id="paint0_linear_2957_46814" x1="22.399" y1="408.468" x2="23.518" y2="408.468" gradientUnits="userSpaceOnUse"><stop stop-color="#1E1E1E"/><stop offset=".998" stop-color="#262626"/></linearGradient><linearGradient id="paint1_linear_2957_46814" x1="312.683" y1="408.468" x2="313.802" y2="408.468" gradientUnits="userSpaceOnUse"><stop stop-color="#1E1E1E"/><stop offset=".998" stop-color="#262626"/></linearGradient><clipPath id="clip0_2957_46814"><path fill="#fff" d="M0 0h336v470H0z"/></clipPath><filter id="filter0_d_2957_46814" x="-8" y="-8" width="356" height="490" filterUnits="userSpaceOnUse" color-interpolation-filters="sRGB"><feFlood flood-opacity="0" result="BackgroundImageFix"/><feColorMatrix in="SourceAlpha" values="0 0 0 0 0 0 0 0 0 0 0 0 0 0 0 0 0 0 127 0" result="hardAlpha"/><feOffset dx="2" dy="2"/><feGaussianBlur stdDeviation="5"/><feComposite in2="hardAlpha" operator="out"/><feColorMatrix values="0 0 0 0 0 0 0 0 0 0 0 0 0 0 0 0 0 0 0.1 0"/><feBlend in2="BackgroundImageFix" result="effect1_dropShadow_2957_46814"/><feBlend in="SourceGraphic" in2="effect1_dropShadow_2957_46814" result="shape"/></filter></defs></svg>