<svg width="673" height="439" fill="none" xmlns="http://www.w3.org/2000/svg"><g filter="url(#filter0_d_2134_1033)"><rect x="9" y="9" width="651" height="417" rx="16" fill="#F2EDEA"/><rect x="8.5" y="8.5" width="652" height="418" rx="16.5" stroke="#D3CBD3"/></g><rect x="25" y="25" width="615" height="385" rx="8" fill="#fff"/><path d="M25 33a8 8 0 018-8h599a8 8 0 018 8v26H25V33z" fill="#DDD"/><rect x="33" y="91" width="106" height="287" rx="2" fill="#E8E8E8"/><rect x="147" y="91" width="360" height="221" rx="2" fill="#E8E8E8"/><path d="M33 69a2 2 0 012-2h595a2 2 0 012 2v12a2 2 0 01-2 2H35a2 2 0 01-2-2V69zm0 319a2 2 0 012-2h595a2 2 0 012 2v12a2 2 0 01-2 2H35a2 2 0 01-2-2v-12z" fill="#E8E8E8"/><rect x="515" y="91" width="117" height="95" rx="2" fill="#E8E8E8"/><rect x="515" y="284" width="117" height="94" rx="2" fill="#E8E8E8"/><rect x="515" y="194" width="117" height="82" rx="2" fill="#E8E8E8"/><rect x="147" y="320" width="360" height="58" rx="2" fill="#E8E8E8"/><defs><filter id="filter0_d_2134_1033" x="0" y="0" width="673" height="439" filterUnits="userSpaceOnUse" color-interpolation-filters="sRGB"><feFlood flood-opacity="0" result="BackgroundImageFix"/><feColorMatrix in="SourceAlpha" values="0 0 0 0 0 0 0 0 0 0 0 0 0 0 0 0 0 0 127 0" result="hardAlpha"/><feOffset dx="2" dy="2"/><feGaussianBlur stdDeviation="5"/><feComposite in2="hardAlpha" operator="out"/><feColorMatrix values="0 0 0 0 0 0 0 0 0 0 0 0 0 0 0 0 0 0 0.1 0"/><feBlend in2="BackgroundImageFix" result="effect1_dropShadow_2134_1033"/><feBlend in="SourceGraphic" in2="effect1_dropShadow_2134_1033" result="shape"/></filter></defs></svg>