<svg width="807" height="590" fill="none" xmlns="http://www.w3.org/2000/svg"><path d="M803.674 48H3.326C1.489 48 0 49.673 0 51.738v534.524C0 588.326 1.489 590 3.326 590h800.348c1.837 0 3.326-1.674 3.326-3.738V51.738c0-2.065-1.489-3.738-3.326-3.738z" fill="#FFD233"/><path d="M803.674 0H3.326A3.327 3.327 0 000 3.328v41.445A3.327 3.327 0 003.326 48.1h800.348A3.327 3.327 0 00807 44.773V3.328A3.327 3.327 0 00803.674 0z" fill="#F8F8F8"/><path d="M5.497 28.846v-9.683h3.448c.753 0 1.377.138 1.871.412.494.274.864.65 1.11 1.125.246.473.369 1.006.369 1.598 0 .596-.125 1.132-.374 1.608a2.7 2.7 0 01-1.114 1.125c-.495.274-1.117.411-1.866.411H6.569v-1.239h2.24c.475 0 .86-.081 1.157-.245.296-.167.513-.394.652-.681.138-.287.207-.613.207-.979s-.069-.69-.207-.974a1.492 1.492 0 00-.657-.667c-.296-.16-.686-.24-1.171-.24H6.957v8.43h-1.46zm8.143 0v-7.262h1.365v1.154h.075a1.76 1.76 0 01.7-.922 2 2 0 011.143-.34 6.031 6.031 0 01.6.033v1.352a2.518 2.518 0 00-.303-.052 2.876 2.876 0 00-.434-.033c-.334 0-.632.07-.893.212a1.58 1.58 0 00-.84 1.424v4.434H13.64zm7.649.147c-.68 0-1.274-.156-1.781-.468a3.155 3.155 0 01-1.181-1.31c-.28-.561-.42-1.217-.42-1.967 0-.753.14-1.412.42-1.976a3.15 3.15 0 011.18-1.314c.508-.312 1.101-.468 1.782-.468.68 0 1.273.156 1.78.468.508.312.901.75 1.181 1.314.28.564.42 1.223.42 1.976 0 .75-.14 1.406-.42 1.967-.28.561-.673.998-1.18 1.31-.508.312-1.101.468-1.781.468zm.004-1.187c.441 0 .807-.117 1.096-.35a2.05 2.05 0 00.643-.931c.142-.388.212-.815.212-1.281 0-.464-.07-.89-.212-1.277a2.08 2.08 0 00-.643-.94c-.29-.237-.655-.355-1.096-.355-.444 0-.812.118-1.105.354-.29.237-.505.55-.647.941a3.768 3.768 0 00-.208 1.277c0 .466.07.893.208 1.28.142.389.357.699.647.932.293.233.661.35 1.105.35zm4.702-6.222h1.412v7.735c0 .485-.088.895-.264 1.23a1.725 1.725 0 01-.775.76c-.34.174-.76.26-1.261.26h-.142a2.31 2.31 0 01-.146-.004V30.35h.225c.334 0 .575-.09.723-.27.151-.176.227-.433.227-.77v-7.726zm.699-1.12a.897.897 0 01-.633-.246.8.8 0 01-.26-.596.79.79 0 01.26-.596.888.888 0 01.633-.25c.245 0 .455.083.628.25a.783.783 0 01.265.596c0 .23-.088.429-.265.596a.881.881 0 01-.628.246zm5.488 8.529c-.715 0-1.33-.153-1.847-.459a3.11 3.11 0 01-1.19-1.3c-.278-.561-.416-1.218-.416-1.972 0-.743.138-1.399.415-1.966a3.23 3.23 0 011.172-1.329c.504-.318 1.093-.477 1.767-.477.409 0 .806.067 1.19.203a2.87 2.87 0 011.034.638c.306.29.547.667.723 1.13.176.46.265 1.02.265 1.679v.5h-5.768v-1.058h4.384c0-.372-.076-.702-.227-.989a1.715 1.715 0 00-.638-.685 1.78 1.78 0 00-.954-.25c-.397 0-.743.097-1.04.293a1.973 1.973 0 00-.68.756 2.184 2.184 0 00-.236 1.007v.827c0 .486.085.899.255 1.24.174.34.415.6.723.78.309.176.67.264 1.082.264.268 0 .512-.038.732-.113.22-.08.411-.196.572-.35a1.52 1.52 0 00.368-.572l1.337.24c-.107.395-.3.74-.576 1.036a2.793 2.793 0 01-1.035.686c-.413.16-.883.24-1.412.24zm7.483 0c-.702 0-1.307-.16-1.814-.478a3.16 3.16 0 01-1.162-1.328c-.27-.565-.406-1.21-.406-1.939 0-.737.139-1.388.416-1.952a3.186 3.186 0 011.171-1.329c.504-.318 1.098-.477 1.781-.477.551 0 1.043.102 1.474.307.431.202.78.485 1.044.85.268.367.427.794.477 1.282h-1.375a1.65 1.65 0 00-.52-.88c-.267-.245-.626-.368-1.076-.368-.394 0-.739.104-1.035.312-.293.205-.52.498-.685.88-.163.378-.245.825-.245 1.342 0 .53.08.987.24 1.371.161.385.388.683.68.894a1.75 1.75 0 001.045.317c.268 0 .51-.05.727-.147.22-.1.405-.244.553-.43a1.62 1.62 0 00.316-.671h1.375c-.05.47-.203.888-.458 1.257a2.638 2.638 0 01-1.025.87c-.425.211-.924.317-1.498.317zm7.626-7.409v1.135h-3.963v-1.135h3.963zm-2.9-1.74h1.412v6.87c0 .274.04.48.123.62a.641.641 0 00.316.278c.132.048.276.071.43.071.113 0 .213-.008.297-.023l.199-.038.255 1.167a2.373 2.373 0 01-.35.095c-.15.035-.34.054-.566.057a2.486 2.486 0 01-1.04-.199 1.784 1.784 0 01-.78-.643c-.197-.29-.297-.654-.297-1.092v-7.163zm6.278 9.002l-2.768-9.683h2.235l1.6 6.728h.081l1.767-6.727h1.913l1.762 6.741h.085l1.602-6.742h2.234l-2.768 9.683h-1.994l-1.842-6.33H54.5l-1.837 6.33h-1.994zm11.315 0v-7.262h2.012v7.262h-2.012zm1.01-8.198c-.298 0-.555-.1-.769-.298a.965.965 0 01-.316-.723c0-.277.105-.515.316-.714.214-.202.47-.303.77-.303.3 0 .554.101.765.303a.94.94 0 01.321.714.96.96 0 01-.32.723 1.077 1.077 0 01-.766.298zm2.362 8.198v-7.262h1.95v1.267h.076c.132-.45.355-.79.666-1.021a1.75 1.75 0 011.077-.35 3.039 3.039 0 01.633.071v1.787a2.618 2.618 0 00-.392-.075 3.514 3.514 0 00-.458-.034c-.296 0-.56.065-.794.194a1.43 1.43 0 00-.548.53 1.528 1.528 0 00-.198.785v4.108h-2.012zm8.159.142c-.747 0-1.39-.151-1.927-.454a3.108 3.108 0 01-1.238-1.295c-.29-.561-.435-1.225-.435-1.99 0-.748.145-1.403.435-1.967a3.214 3.214 0 011.223-1.32c.53-.315 1.15-.472 1.861-.472.48 0 .925.077 1.337.231.416.152.778.38 1.087.686.312.306.554.69.727 1.153.173.46.26 1 .26 1.617v.553H70.72v-1.248h4.232c0-.29-.063-.546-.19-.77a1.354 1.354 0 00-.523-.525 1.495 1.495 0 00-.77-.194c-.306 0-.577.071-.813.213a1.492 1.492 0 00-.548.563 1.59 1.59 0 00-.203.78v1.186c0 .36.066.67.199.932.135.261.325.463.57.605.246.142.538.213.875.213.223 0 .428-.032.614-.095a1.23 1.23 0 00.78-.747l1.86.123a2.548 2.548 0 01-.58 1.172c-.29.331-.665.59-1.125.776-.457.183-.984.274-1.582.274z" fill="#333"/><path d="M727.187 130.363H79.259a3.327 3.327 0 00-3.325 3.329v315.09a3.328 3.328 0 003.325 3.329h647.928a3.328 3.328 0 003.326-3.329v-315.09a3.327 3.327 0 00-3.326-3.329z" fill="#4ECB71"/><path d="M481.65 322.302H325.904a3.327 3.327 0 00-3.326 3.328v29.401a3.328 3.328 0 003.326 3.329H481.65a3.328 3.328 0 003.326-3.329V325.63a3.327 3.327 0 00-3.326-3.328z" fill="#FF9A62"/><path d="M352.177 338.703c-.038-.381-.2-.677-.487-.889-.286-.211-.675-.316-1.166-.316-.334 0-.616.047-.846.142-.23.091-.406.219-.529.382a.924.924 0 00-.18.559.795.795 0 00.109.453c.082.13.194.242.336.336.141.091.305.172.491.241.186.066.384.123.595.17l.869.209c.422.094.81.22 1.163.377.352.158.658.352.916.582.258.23.458.501.6.813.145.312.219.67.222 1.073-.003.593-.155 1.107-.454 1.542-.296.432-.724.767-1.284 1.007-.558.236-1.23.354-2.018.354-.781 0-1.461-.12-2.04-.359-.576-.239-1.027-.594-1.351-1.064-.322-.472-.49-1.057-.506-1.754h1.979c.023.325.115.596.279.814.167.214.389.376.666.487.28.107.597.16.95.16.346 0 .647-.051.902-.151.258-.101.458-.241.6-.421a.97.97 0 00.212-.619.805.805 0 00-.193-.549c-.126-.148-.312-.274-.558-.378a5.649 5.649 0 00-.892-.284l-1.054-.264c-.816-.199-1.46-.509-1.932-.932-.472-.422-.707-.991-.704-1.706-.003-.587.153-1.099.468-1.537.318-.438.754-.78 1.309-1.026.554-.246 1.183-.369 1.889-.369.718 0 1.345.123 1.88.369.539.246.957.588 1.257 1.026.299.438.453.946.462 1.522h-1.96zm6.485 7.04c-.747 0-1.389-.151-1.927-.454a3.1 3.1 0 01-1.238-1.295c-.29-.561-.435-1.225-.435-1.991 0-.746.145-1.402.435-1.966a3.208 3.208 0 011.223-1.319c.53-.316 1.15-.473 1.861-.473.479 0 .925.077 1.337.231.416.152.778.38 1.087.686.312.306.554.69.727 1.154.173.46.26.999.26 1.616v.554h-6.127v-1.248h4.233c0-.29-.063-.547-.189-.771a1.356 1.356 0 00-.524-.525 1.5 1.5 0 00-.77-.194c-.306 0-.577.071-.813.213a1.481 1.481 0 00-.548.563c-.133.233-.2.493-.203.78v1.186c0 .36.066.67.199.932.135.262.325.463.571.605.245.142.537.212.874.212.223 0 .428-.031.614-.094a1.27 1.27 0 00.477-.283c.132-.127.233-.281.302-.464l1.862.123a2.554 2.554 0 01-.582 1.173 2.92 2.92 0 01-1.124.775c-.457.183-.984.274-1.582.274zm8.25-7.404v1.513h-4.37v-1.513h4.37zm-3.378-1.739h2.013v6.77c0 .185.028.331.085.434a.465.465 0 00.236.213.955.955 0 00.359.062c.094 0 .189-.008.283-.024l.217-.043.317 1.499c-.1.032-.242.068-.425.109a3.46 3.46 0 01-.666.081c-.485.018-.91-.046-1.275-.194a1.78 1.78 0 01-.846-.691c-.202-.311-.301-.706-.298-1.181V336.6zm9.089 5.909v-4.17h2.012v7.262h-1.932v-1.319h-.076a2.135 2.135 0 01-.817 1.026c-.378.258-.839.388-1.384.388-.485 0-.911-.11-1.28-.331a2.28 2.28 0 01-.865-.941c-.204-.407-.308-.894-.311-1.461v-4.624h2.013v4.265c.002.428.118.767.344 1.016.227.249.531.374.912.374.242 0 .469-.055.68-.166.211-.113.381-.28.51-.501.132-.22.197-.493.194-.818zm3.369 5.815v-9.985h1.984v1.22h.09c.088-.195.215-.394.382-.596.17-.204.391-.375.662-.51.274-.139.614-.208 1.02-.208.529 0 1.017.139 1.464.416.448.274.805.688 1.073 1.243.267.552.402 1.244.402 2.076 0 .81-.131 1.494-.393 2.051-.258.555-.611.976-1.058 1.263a2.72 2.72 0 01-1.493.425c-.39 0-.722-.064-.996-.193a2.06 2.06 0 01-.666-.487 2.447 2.447 0 01-.397-.601h-.062v3.886h-2.012zm1.97-6.353c0 .431.059.808.179 1.129.12.322.293.572.52.752.227.177.502.265.826.265.328 0 .605-.09.832-.27.227-.182.398-.435.515-.756.119-.325.179-.698.179-1.12 0-.42-.058-.789-.174-1.107a1.643 1.643 0 00-.515-.747c-.227-.18-.506-.269-.837-.269-.327 0-.604.086-.831.26-.223.173-.395.419-.515.737s-.179.693-.179 1.126zm11.09 3.767c-.463 0-.875-.08-1.237-.241a1.991 1.991 0 01-.86-.723c-.208-.322-.312-.722-.312-1.201 0-.404.074-.742.222-1.017.148-.274.349-.495.605-.662.255-.166.545-.292.869-.378a6.684 6.684 0 011.03-.18c.422-.043.762-.084 1.02-.122.258-.041.446-.101.562-.18a.394.394 0 00.175-.35v-.028c0-.3-.094-.531-.283-.695-.186-.164-.451-.246-.794-.246-.362 0-.65.08-.865.241a1.109 1.109 0 00-.425.596l-1.861-.151c.095-.441.28-.823.557-1.145a2.694 2.694 0 011.073-.747c.441-.176.951-.264 1.53-.264.403 0 .789.047 1.158.141.371.095.7.242.987.44.29.199.518.454.685.766.167.309.25.679.25 1.111v4.898h-1.908v-1.007h-.057a2.04 2.04 0 01-.467.601c-.196.17-.43.304-.704.401a2.903 2.903 0 01-.95.142zm.576-1.39c.297 0 .558-.058.784-.175.227-.119.405-.28.534-.482.129-.202.194-.43.194-.685v-.771a1.04 1.04 0 01-.26.113 4.38 4.38 0 01-.363.09 14.44 14.44 0 01-.407.071l-.368.052c-.236.035-.442.09-.619.166a.992.992 0 00-.411.307.747.747 0 00-.146.473c0 .274.099.484.297.629.202.142.457.212.765.212zm6.831-2.945v4.198h-2.012v-7.262h1.918v1.282h.084a2.03 2.03 0 01.809-1.003c.377-.249.835-.373 1.374-.373.504 0 .943.11 1.318.331.375.22.666.535.874.945.207.407.312.892.312 1.457v4.623h-2.013v-4.265c.004-.444-.11-.791-.34-1.039-.23-.253-.546-.378-.95-.378-.27 0-.51.058-.717.174a1.216 1.216 0 00-.482.511c-.114.22-.172.487-.175.799zm9.288 4.34c-.734 0-1.368-.156-1.904-.468a3.195 3.195 0 01-1.232-1.314c-.29-.564-.435-1.218-.435-1.962 0-.751.145-1.406.435-1.967.289-.564.7-1.003 1.232-1.314.536-.316 1.17-.473 1.904-.473s1.367.157 1.899.473c.535.311.948.75 1.238 1.314.29.561.434 1.216.434 1.967 0 .744-.144 1.398-.434 1.962-.29.561-.703.999-1.238 1.314-.532.312-1.165.468-1.899.468zm.01-1.56c.333 0 .612-.095.836-.284.223-.192.392-.453.505-.785.117-.331.175-.707.175-1.13 0-.422-.058-.798-.175-1.13a1.77 1.77 0 00-.505-.785c-.224-.192-.503-.288-.836-.288-.337 0-.621.096-.851.288a1.795 1.795 0 00-.515.785c-.113.332-.17.708-.17 1.13 0 .423.057.799.17 1.13.117.332.289.593.515.785.23.189.514.284.851.284zm8.476-5.844v1.513h-4.369v-1.513h4.369zm-3.377-1.739h2.012v6.77c0 .185.029.331.085.434a.47.47 0 00.237.213.946.946 0 00.358.062c.095 0 .189-.008.284-.024l.217-.043.317 1.499a5.522 5.522 0 01-.425.109 3.462 3.462 0 01-.667.081c-.484.018-.91-.046-1.275-.194a1.785 1.785 0 01-.846-.691c-.201-.311-.3-.706-.297-1.181V336.6zm6.604 4.803v4.198h-2.013v-9.683h1.956v3.703h.085c.164-.429.428-.765.794-1.008.365-.246.823-.368 1.374-.368.504 0 .944.11 1.318.331.378.217.671.531.879.94.211.407.315.894.312 1.462v4.623h-2.013v-4.265c.004-.447-.11-.795-.34-1.044-.227-.249-.545-.373-.954-.373a1.49 1.49 0 00-.728.174 1.242 1.242 0 00-.491.511c-.116.22-.176.487-.179.799zm9.342 4.34c-.746 0-1.389-.151-1.927-.454a3.112 3.112 0 01-1.238-1.295c-.289-.561-.434-1.225-.434-1.991 0-.746.145-1.402.434-1.966a3.216 3.216 0 011.224-1.319c.529-.316 1.149-.473 1.861-.473.479 0 .924.077 1.337.231.415.152.777.38 1.086.686.312.306.554.69.728 1.154.173.46.259.999.259 1.616v.554h-6.127v-1.248h4.233c0-.29-.063-.547-.189-.771a1.35 1.35 0 00-.524-.525 1.498 1.498 0 00-.77-.194c-.306 0-.576.071-.812.213a1.484 1.484 0 00-.549.563c-.132.233-.2.493-.202.78v1.186c0 .36.066.67.198.932.135.262.326.463.571.605.246.142.538.212.875.212a1.9 1.9 0 00.613-.094 1.231 1.231 0 00.78-.747l1.861.123a2.552 2.552 0 01-.581 1.173c-.29.33-.664.589-1.124.775-.457.183-.985.274-1.583.274zm4.391-.142v-7.262h1.951v1.267h.075c.133-.45.355-.791.667-1.021.311-.233.67-.35 1.077-.35.1 0 .209.007.326.019.116.013.218.03.307.052v1.787a2.554 2.554 0 00-.393-.075 3.522 3.522 0 00-.458-.033c-.296 0-.561.064-.793.193a1.44 1.44 0 00-.549.53 1.544 1.544 0 00-.198.785v4.108h-2.012zm8.016 0v-7.262h1.918v1.282h.085c.151-.426.403-.761.756-1.008.352-.246.775-.368 1.266-.368.498 0 .921.124 1.271.373.349.246.582.58.699 1.003h.075c.148-.416.416-.749.803-.998.391-.252.852-.378 1.384-.378.677 0 1.227.216 1.649.647.425.429.637 1.038.637 1.825v4.884h-2.007v-4.486c0-.404-.107-.707-.321-.908a1.125 1.125 0 00-.803-.303c-.365 0-.65.117-.855.35-.205.23-.307.534-.307.913v4.434h-1.951v-4.529c0-.356-.102-.64-.307-.851-.202-.211-.468-.317-.799-.317a1.11 1.11 0 00-.604.17 1.162 1.162 0 00-.42.469 1.471 1.471 0 00-.157.699v4.359h-2.012zm11.88 0v-7.262h2.013v7.262h-2.013zm1.011-8.198c-.299 0-.556-.099-.77-.298a.965.965 0 01-.316-.723c0-.277.105-.515.316-.714.214-.202.471-.303.77-.303.3 0 .555.101.766.303a.942.942 0 01.321.714c0 .28-.107.522-.321.723a1.075 1.075 0 01-.766.298zm5.639 8.34c-.743 0-1.382-.157-1.917-.473a3.188 3.188 0 01-1.229-1.324c-.283-.564-.425-1.213-.425-1.947 0-.744.143-1.396.43-1.958a3.204 3.204 0 011.233-1.319c.532-.318 1.165-.477 1.899-.477.633 0 1.187.115 1.663.345.475.23.852.553 1.129.969.277.416.43.905.458 1.466h-1.899c-.054-.363-.196-.654-.425-.875-.227-.224-.524-.336-.893-.336-.312 0-.584.086-.817.255-.23.168-.409.412-.539.733-.129.322-.194.711-.194 1.169 0 .463.064.857.189 1.181.13.325.311.572.544.742.233.171.505.256.817.256.23 0 .436-.048.619-.142.185-.095.338-.232.458-.412.123-.182.203-.401.241-.656h1.899a2.99 2.99 0 01-.453 1.465 2.738 2.738 0 01-1.111.983c-.472.237-1.031.355-1.677.355z" fill="#333"/><path d="M481.65 275.149H325.904a3.328 3.328 0 00-3.326 3.329v29.401a3.327 3.327 0 003.326 3.328H481.65a3.327 3.327 0 003.326-3.328v-29.401a3.328 3.328 0 00-3.326-3.329z" fill="#4ECB71" stroke="#000" stroke-opacity=".2" stroke-width="4" stroke-miterlimit="0"/><path d="M385.712 298.449v-9.683h6.405v1.688h-4.36v2.307h3.935v1.688h-3.935v4h-2.045zm7.491 0v-7.262h2.012v7.262h-2.012zm1.011-8.198c-.3 0-.556-.099-.77-.298a.967.967 0 01-.317-.723c0-.278.106-.516.317-.714.214-.202.47-.303.77-.303.299 0 .554.101.765.303a.939.939 0 01.321.714.96.96 0 01-.321.723 1.074 1.074 0 01-.765.298zm4.373 4v4.198h-2.013v-7.262h1.918v1.281h.085a2.03 2.03 0 01.808-1.002c.378-.249.836-.373 1.374-.373.504 0 .944.11 1.319.33.374.221.666.536.874.946.207.407.311.892.311 1.456v4.624h-2.012v-4.265c.003-.444-.11-.791-.34-1.039-.23-.253-.547-.379-.95-.379-.271 0-.51.058-.718.175a1.226 1.226 0 00-.482.51 1.776 1.776 0 00-.174.8zm6.01 4.198v-7.262h2.012v7.262h-2.012zm1.011-8.198c-.3 0-.556-.099-.771-.298a.97.97 0 01-.316-.723c0-.278.106-.516.316-.714.215-.202.471-.303.771-.303.298 0 .554.101.764.303a.936.936 0 01.322.714c0 .28-.107.521-.322.723-.21.199-.466.298-.764.298zm8.397 3.007l-1.842.113a.945.945 0 00-.204-.425 1.063 1.063 0 00-.41-.307 1.393 1.393 0 00-.6-.119c-.312 0-.575.066-.789.198-.214.13-.321.303-.321.521 0 .173.069.32.208.44.138.119.376.216.713.288l1.313.265c.706.145 1.232.378 1.578.699.346.322.519.744.519 1.267 0 .476-.14.894-.42 1.254-.277.358-.658.639-1.143.841-.482.199-1.038.298-1.667.298-.961 0-1.726-.2-2.297-.601a2.339 2.339 0 01-.996-1.645l1.979-.104c.06.293.205.517.434.671.23.152.525.227.884.227.353 0 .636-.067.85-.203.217-.139.328-.317.331-.534a.552.552 0 00-.232-.449c-.151-.12-.384-.212-.698-.274l-1.257-.251c-.709-.142-1.236-.388-1.582-.738-.344-.349-.515-.795-.515-1.338 0-.466.126-.868.377-1.205.256-.338.613-.598 1.073-.78.462-.183 1.004-.274 1.625-.274.916 0 1.637.193 2.163.581.529.388.838.915.926 1.584zm3.192.993v4.198h-2.012v-9.683h1.956v3.702h.084c.164-.429.429-.764.794-1.007.365-.246.824-.368 1.375-.368.503 0 .943.11 1.318.33.378.218.67.532.878.941.211.407.315.894.312 1.461v4.624h-2.012v-4.265c.003-.447-.111-.795-.341-1.044-.226-.25-.544-.374-.953-.374-.275 0-.517.058-.728.175a1.233 1.233 0 00-.491.51 1.724 1.724 0 00-.18.8zm-83.411-63.228v-16.138h6.361c1.224 0 2.266.234 3.126.701a4.755 4.755 0 011.969 1.931c.456.819.684 1.765.684 2.836 0 1.072-.231 2.017-.693 2.837-.461.82-1.13 1.458-2.007 1.915-.872.457-1.926.685-3.165.685h-4.055v-2.734h3.504c.656 0 1.197-.112 1.622-.339.43-.231.75-.548.96-.953.215-.41.323-.88.323-1.411 0-.535-.108-1.003-.323-1.402a2.162 2.162 0 00-.96-.938c-.431-.226-.976-.338-1.638-.338h-2.299v13.348h-3.409zm17.158-16.138v16.138h-3.354v-16.138h3.354zm5.647 16.366c-.771 0-1.459-.133-2.063-.401a3.33 3.33 0 01-1.433-1.206c-.346-.536-.519-1.203-.519-2.002 0-.672.123-1.237.37-1.694a2.995 2.995 0 011.007-1.103 4.91 4.91 0 011.449-.631 11.157 11.157 0 011.717-.299c.703-.073 1.27-.142 1.7-.205.43-.068.743-.168.937-.299.194-.131.291-.326.291-.583v-.048c0-.498-.157-.885-.472-1.158-.31-.273-.751-.41-1.323-.41-.603 0-1.083.134-1.44.402a1.854 1.854 0 00-.709.993l-3.102-.252a4.223 4.223 0 01.929-1.907c.462-.541 1.058-.956 1.787-1.245.735-.294 1.585-.441 2.551-.441.672 0 1.315.079 1.929.236a5.047 5.047 0 011.645.733c.483.331.864.757 1.142 1.276.278.515.417 1.133.417 1.852v8.164h-3.181v-1.678h-.094a3.418 3.418 0 01-.78 1 3.596 3.596 0 01-1.173.67c-.456.157-.984.236-1.582.236zm.961-2.316c.493 0 .929-.097 1.307-.292.378-.2.674-.467.889-.804.215-.336.323-.717.323-1.142v-1.285a1.735 1.735 0 01-.433.189c-.179.053-.38.103-.607.15-.225.042-.451.082-.676.118l-.614.087a4.16 4.16 0 00-1.032.276 1.653 1.653 0 00-.685.512c-.162.21-.244.473-.244.788 0 .457.165.806.496 1.048.336.237.761.355 1.276.355zm9.601 6.627c-.425 0-.824-.035-1.197-.103a4.356 4.356 0 01-.913-.244l.756-2.506c.394.121.748.187 1.062.197.321.011.596-.063.827-.221.237-.157.428-.425.575-.804l.197-.512-4.338-12.45h3.527l2.504 8.889h.125l2.528-8.889h3.55l-4.7 13.412a5.606 5.606 0 01-.921 1.702 3.77 3.77 0 01-1.456 1.126c-.588.268-1.297.403-2.126.403zm10.432-4.539v-12.104h3.354v12.104h-3.354zm1.685-13.664a1.82 1.82 0 01-1.283-.496 1.61 1.61 0 01-.528-1.206c0-.462.176-.859.528-1.19a1.805 1.805 0 011.283-.504c.499 0 .924.168 1.276.504.357.331.535.728.535 1.19 0 .468-.178.869-.535 1.206a1.795 1.795 0 01-1.276.496zm7.222 6.666v6.998h-3.354v-12.104h3.196v2.136h.142a3.378 3.378 0 011.346-1.671c.63-.415 1.394-.622 2.291-.622.84 0 1.573.184 2.197.551a3.75 3.75 0 011.456 1.576c.347.678.52 1.487.52 2.427v7.707h-3.354v-7.108c.005-.741-.184-1.318-.567-1.733-.383-.421-.91-.631-1.582-.631-.452 0-.85.097-1.197.292a2.029 2.029 0 00-.803.851c-.189.368-.286.811-.291 1.331zm15.397 11.788c-1.086 0-2.018-.149-2.794-.448-.772-.295-1.386-.697-1.842-1.206a3.702 3.702 0 01-.89-1.718l3.102-.418c.094.242.244.468.449.678.204.21.475.378.81.505.342.131.756.197 1.245.197.729 0 1.33-.179 1.802-.536.478-.353.717-.943.717-1.773v-2.215h-.142a3.187 3.187 0 01-.661.954c-.294.299-.672.543-1.134.733-.462.189-1.013.284-1.653.284a4.96 4.96 0 01-2.48-.631c-.74-.426-1.331-1.074-1.772-1.946-.435-.878-.653-1.986-.653-3.326 0-1.371.223-2.516.669-3.435.446-.919 1.04-1.608 1.779-2.064a4.59 4.59 0 012.449-.686c.677 0 1.244.115 1.701.347.456.225.823.509 1.101.851.284.336.502.667.654.993h.126v-2.034h3.33v12.222c0 1.029-.251 1.891-.756 2.584-.503.694-1.201 1.214-2.094 1.561-.886.352-1.907.527-3.063.527zm.071-7.485c.541 0 .998-.134 1.371-.402.378-.273.666-.662.865-1.166.205-.51.307-1.119.307-1.828 0-.709-.099-1.324-.298-1.844-.2-.526-.489-.933-.867-1.222-.378-.288-.837-.433-1.378-.433-.55 0-1.015.15-1.393.449-.378.294-.664.704-.858 1.23-.195.525-.292 1.131-.292 1.82 0 .698.097 1.302.292 1.812.2.504.486.896.858 1.174.378.273.843.41 1.393.41zm12.667 2.695v-12.104h3.252v2.112h.126c.22-.751.59-1.318 1.11-1.702a2.919 2.919 0 011.794-.583c.169 0 .35.01.544.031.194.022.365.05.512.087v2.979a4.448 4.448 0 00-.654-.126 5.811 5.811 0 00-.763-.055c-.494 0-.935.107-1.323.322a2.375 2.375 0 00-.913.883c-.221.378-.331.814-.331 1.308v6.848h-3.354zm13.532.236c-1.244 0-2.314-.252-3.212-.756a5.183 5.183 0 01-2.063-2.159c-.482-.935-.724-2.041-.724-3.318 0-1.245.242-2.338.724-3.278a5.36 5.36 0 012.039-2.198c.882-.526 1.916-.788 3.103-.788.797 0 1.54.129 2.227.386a4.942 4.942 0 011.811 1.142c.52.51.924 1.151 1.213 1.923.288.767.432 1.665.432 2.695v.922h-10.211v-2.08h7.054c0-.484-.104-.912-.314-1.285a2.26 2.26 0 00-.874-.874c-.368-.216-.795-.323-1.284-.323-.509 0-.96.118-1.354.354a2.491 2.491 0 00-.913.938 2.653 2.653 0 00-.339 1.3v1.978c0 .599.111 1.116.331 1.552.226.436.543.772.953 1.009.409.236.895.354 1.456.354.373 0 .714-.052 1.024-.157.31-.105.574-.263.795-.473.22-.21.388-.468.504-.772l3.102.205a4.238 4.238 0 01-.969 1.954c-.483.551-1.107.982-1.873 1.292-.762.305-1.641.457-2.638.457zm17.313-8.889l-3.07.19a1.595 1.595 0 00-.339-.709 1.792 1.792 0 00-.685-.512c-.278-.132-.611-.197-1-.197-.519 0-.957.11-1.314.33-.357.216-.536.505-.536.867a.93.93 0 00.347.733c.231.2.627.36 1.188.481l2.189.441c1.176.242 2.052.63 2.63 1.166.577.536.866 1.24.866 2.112 0 .793-.234 1.489-.701 2.088-.462.599-1.097 1.066-1.905 1.403-.803.331-1.729.496-2.779.496-1.601 0-2.877-.333-3.827-1.001-.944-.672-1.498-1.586-1.661-2.742l3.299-.173c.1.488.341.862.724 1.119.383.252.874.378 1.473.378.588 0 1.06-.113 1.417-.339.362-.231.546-.528.551-.89a.926.926 0 00-.386-.749c-.252-.2-.64-.352-1.165-.457l-2.095-.418c-1.18-.236-2.06-.645-2.637-1.229-.572-.583-.858-1.326-.858-2.229 0-.778.21-1.448.63-2.01.425-.562 1.021-.995 1.787-1.3.771-.305 1.674-.457 2.708-.457 1.527 0 2.73.323 3.606.969.882.646 1.396 1.526 1.543 2.639zm9.655 3.499v-6.95h3.354v12.104h-3.22v-2.199h-.126a3.572 3.572 0 01-1.362 1.71c-.63.431-1.399.646-2.307.646-.808 0-1.52-.183-2.134-.551a3.793 3.793 0 01-1.44-1.568c-.342-.678-.515-1.49-.52-2.435v-7.707h3.354v7.108c.005.714.197 1.279.575 1.694.378.415.884.623 1.519.623.404 0 .782-.092 1.134-.276a2.17 2.17 0 00.85-.835c.221-.368.328-.822.323-1.364zm8.903-10.984v16.138h-3.354v-16.138h3.354zm8.631 4.034v2.522h-7.283v-2.522h7.283zm-5.63-2.899h3.354v11.284c0 .309.047.551.142.724a.785.785 0 00.394.355c.173.069.372.102.598.102.158 0 .315-.012.473-.039.157-.032.278-.055.361-.071l.528 2.498a9.118 9.118 0 01-.708.181 5.671 5.671 0 01-1.11.134c-.809.032-1.517-.076-2.126-.323a2.96 2.96 0 01-1.409-1.15c-.336-.52-.502-1.177-.497-1.97V216.02zm-176.575 41.479h-2.088v-6.455h2.155c.631 0 1.174.129 1.627.387.454.257.801.626 1.043 1.107.243.479.365 1.054.365 1.724 0 .673-.123 1.25-.368 1.733a2.582 2.582 0 01-1.058 1.116c-.462.259-1.021.388-1.676.388zm-1.115-.851h1.062c.491 0 .899-.092 1.225-.277.325-.188.569-.457.73-.811.162-.355.243-.787.243-1.298 0-.506-.081-.936-.243-1.289a1.716 1.716 0 00-.714-.804c-.317-.183-.711-.274-1.181-.274h-1.122v4.753zm7.292.949c-.454 0-.849-.105-1.188-.313a2.098 2.098 0 01-.787-.873c-.187-.374-.28-.811-.28-1.311 0-.502.093-.941.28-1.317.187-.376.449-.669.787-.877.339-.208.734-.311 1.188-.311.453 0 .849.103 1.187.311.338.208.6.501.788.877.186.376.279.815.279 1.317 0 .5-.093.937-.279 1.311-.188.375-.45.665-.788.873-.338.208-.734.313-1.187.313zm.003-.791c.294 0 .537-.079.731-.234.192-.155.335-.362.428-.621a2.48 2.48 0 00.141-.854c0-.309-.047-.592-.141-.851a1.393 1.393 0 00-.428-.627c-.194-.158-.437-.237-.731-.237-.296 0-.542.079-.737.237a1.399 1.399 0 00-.431.627 2.499 2.499 0 00-.139.851c0 .311.046.596.139.854.094.259.238.466.431.621.195.155.441.234.737.234zm4.146-2.182v2.875h-.941v-4.842h.904v.789h.06c.111-.257.285-.463.522-.618.24-.156.541-.233.904-.233.33 0 .619.069.867.208.247.136.439.34.575.611.137.271.206.606.206 1.006v3.079h-.942v-2.966c0-.351-.092-.625-.275-.823-.182-.199-.433-.299-.752-.299-.218 0-.413.047-.583.142a1.008 1.008 0 00-.399.416 1.369 1.369 0 00-.146.655zm5.071-3.58v.605c0 .178-.033.367-.101.564a2.343 2.343 0 01-.277.564 2.03 2.03 0 01-.422.467l-.466-.334c.124-.181.231-.373.321-.577.092-.204.139-.429.139-.675v-.614h.806zm3.256 1.613v.757h-2.642v-.757h2.642zm-1.933-1.16h.941v4.58c0 .183.028.321.082.413.055.09.125.153.211.186a.835.835 0 00.287.048c.075 0 .142-.006.198-.016l.133-.025.17.778a1.83 1.83 0 01-.612.101 1.665 1.665 0 01-.692-.132 1.196 1.196 0 01-.52-.429c-.132-.194-.198-.436-.198-.728v-4.776zm6.068-.453v6.455h-.941v-6.455h.941zm1.169 6.455v-4.842h.942v4.842h-.942zm.476-5.588a.6.6 0 01-.422-.164.535.535 0 01-.173-.398c0-.155.058-.288.173-.396a.59.59 0 01.422-.168c.164 0 .304.056.419.168a.52.52 0 01.176.396.53.53 0 01-.176.398.588.588 0 01-.419.164zm2.501 3.946l-.006-1.15h.164l1.927-2.05h1.128l-2.198 2.333h-.148l-.867.867zm-.866 1.642v-6.455h.942v6.455h-.942zm3.055 0l-1.732-2.301.649-.659 2.239 2.96h-1.156zm3.67.098c-.477 0-.887-.102-1.232-.306a2.075 2.075 0 01-.793-.867c-.185-.374-.277-.812-.277-1.314 0-.496.092-.933.277-1.312.187-.378.447-.673.781-.885.336-.212.728-.318 1.178-.318.272 0 .537.045.793.135a1.906 1.906 0 011.172 1.179c.117.307.176.679.176 1.119v.334h-3.845v-.706h2.923a1.39 1.39 0 00-.152-.659 1.142 1.142 0 00-1.061-.624 1.23 1.23 0 00-.693.195 1.312 1.312 0 00-.453.505 1.455 1.455 0 00-.158.671v.552c0 .323.057.599.17.826.116.227.276.4.482.52.206.117.446.176.721.176.179 0 .342-.025.488-.076a1.02 1.02 0 00.627-.614l.891.161a1.614 1.614 0 01-.384.69 1.853 1.853 0 01-.69.457 2.578 2.578 0 01-.941.161zm6.321-.098l-1.424-4.842h.973l.948 3.556h.047l.951-3.556h.973l.945 3.54h.047l.942-3.54h.973l-1.42 4.842h-.961l-.983-3.495h-.072l-.982 3.495h-.957zm7.113-2.875v2.875h-.942v-6.455h.929v2.402h.06c.113-.261.286-.468.519-.621.234-.154.538-.23.914-.23.332 0 .621.068.869.204.25.137.443.341.58.612.138.269.207.605.207 1.009v3.079h-.941v-2.966c0-.355-.092-.63-.274-.826-.183-.198-.437-.296-.762-.296-.223 0-.423.047-.599.142a1.02 1.02 0 00-.412.416 1.346 1.346 0 00-.148.655zm5.703 2.982c-.306 0-.583-.056-.831-.17a1.387 1.387 0 01-.589-.501c-.143-.219-.214-.487-.214-.804 0-.273.052-.498.157-.674.105-.177.247-.317.425-.42.179-.102.378-.181.598-.233.221-.052.445-.092.674-.12l.706-.082c.18-.023.312-.06.393-.11.082-.051.123-.132.123-.246v-.022c0-.275-.077-.488-.233-.64-.153-.151-.382-.227-.686-.227-.317 0-.567.071-.75.211-.18.139-.305.294-.375.464l-.884-.202a1.7 1.7 0 01.459-.712c.204-.183.438-.315.702-.397a2.72 2.72 0 01.835-.126c.194 0 .398.022.614.069.219.044.422.126.611.246.191.12.348.291.469.513.122.221.183.508.183.861v3.215h-.92v-.662h-.037a1.346 1.346 0 01-.274.359 1.469 1.469 0 01-.47.294c-.19.077-.419.116-.686.116zm.205-.756c.26 0 .482-.052.667-.155a1.075 1.075 0 00.574-.942v-.624a.492.492 0 01-.196.094 2.825 2.825 0 01-.324.073l-.356.054-.29.037a2.304 2.304 0 00-.5.117.864.864 0 00-.36.236.591.591 0 00-.132.403c0 .234.086.41.258.53.173.118.392.177.659.177zm5.597-4.193v.757h-2.643v-.757h2.643zm-1.934-1.16h.941v4.58c0 .183.028.321.082.413.055.09.125.153.212.186a.83.83 0 00.286.048c.076 0 .142-.006.199-.016l.132-.025.17.778a1.846 1.846 0 01-.611.101 1.666 1.666 0 01-.693-.132 1.201 1.201 0 01-.52-.429c-.132-.194-.198-.436-.198-.728v-4.776zm5.723 7.817c-.141 0-.269-.011-.385-.034a1.225 1.225 0 01-.258-.07l.227-.772c.172.046.325.066.459.06a.543.543 0 00.356-.151c.105-.095.197-.249.277-.463l.117-.322-1.77-4.905h1.008l1.225 3.758h.05l1.225-3.758h1.011l-1.993 5.488a2.21 2.21 0 01-.353.64 1.376 1.376 0 01-.51.397 1.676 1.676 0 01-.686.132zm6.202-1.717c-.453 0-.849-.105-1.187-.313a2.098 2.098 0 01-.787-.873c-.187-.374-.281-.811-.281-1.311 0-.502.094-.941.281-1.317.187-.376.449-.669.787-.877.338-.208.734-.311 1.187-.311.454 0 .85.103 1.187.311.339.208.601.501.788.877.187.376.28.815.28 1.317 0 .5-.093.937-.28 1.311a2.093 2.093 0 01-.788.873c-.337.208-.733.313-1.187.313zm.004-.791c.293 0 .537-.079.73-.234a1.36 1.36 0 00.428-.621c.095-.258.142-.543.142-.854 0-.309-.047-.592-.142-.851a1.378 1.378 0 00-.428-.627c-.193-.158-.437-.237-.73-.237-.296 0-.542.079-.737.237a1.4 1.4 0 00-.432.627 2.523 2.523 0 00-.138.851c0 .311.046.596.138.854.095.259.238.466.432.621.195.155.441.234.737.234zm6.269-1.315v-2.834h.945v4.842h-.926v-.839h-.05c-.112.259-.29.474-.536.647-.244.17-.547.255-.91.255-.311 0-.586-.068-.825-.205a1.434 1.434 0 01-.56-.615c-.135-.271-.202-.606-.202-1.005v-3.08h.941v2.967c0 .33.092.592.274.787a.93.93 0 00.712.294c.176 0 .352-.045.526-.133a1.11 1.11 0 00.438-.4c.117-.178.175-.405.173-.681zm3.051-4.447v.605c0 .178-.033.367-.1.564a2.347 2.347 0 01-.278.564 2.026 2.026 0 01-.421.467l-.466-.334c.124-.181.231-.373.321-.577.092-.204.139-.429.139-.675v-.614h.805zm.67 6.455v-4.842h.91v.77h.051c.088-.261.243-.466.466-.615.224-.151.478-.227.762-.227a4.23 4.23 0 01.399.022v.901a1.872 1.872 0 00-.201-.034 1.888 1.888 0 00-.29-.022c-.222 0-.421.047-.595.142a1.048 1.048 0 00-.56.948v2.957h-.942zm5.217.098c-.476 0-.887-.102-1.231-.306a2.068 2.068 0 01-.793-.867c-.186-.374-.278-.812-.278-1.314 0-.496.092-.933.278-1.312.186-.378.447-.673.781-.885.335-.212.728-.318 1.177-.318.273 0 .538.045.794.135.256.09.486.232.689.426.204.193.365.444.482.753.118.307.176.679.176 1.119v.334h-3.844v-.706h2.922c0-.248-.05-.468-.151-.659a1.149 1.149 0 00-.425-.457 1.193 1.193 0 00-.637-.167c-.264 0-.495.065-.692.195a1.307 1.307 0 00-.454.505 1.454 1.454 0 00-.157.671v.552c0 .323.056.599.17.826.115.227.276.4.482.52.205.117.446.176.721.176.178 0 .341-.025.488-.076a1.02 1.02 0 00.627-.614l.891.161a1.606 1.606 0 01-.385.69 1.857 1.857 0 01-.689.457 2.583 2.583 0 01-.942.161zm6.214-2.973v2.875h-.942v-6.455h.929v2.402h.06c.113-.261.287-.468.52-.621.233-.154.537-.23.913-.23.332 0 .621.068.869.204.25.137.443.341.58.612.138.269.208.605.208 1.009v3.079h-.942v-2.966c0-.355-.092-.63-.274-.826-.183-.198-.437-.296-.762-.296-.223 0-.422.047-.599.142a1.02 1.02 0 00-.412.416 1.346 1.346 0 00-.148.655zm6.38 2.973c-.477 0-.887-.102-1.231-.306a2.077 2.077 0 01-.794-.867c-.185-.374-.277-.812-.277-1.314 0-.496.092-.933.277-1.312.187-.378.448-.673.781-.885a2.161 2.161 0 011.178-.318c.273 0 .538.045.794.135.256.09.486.232.689.426.204.193.364.444.482.753.118.307.176.679.176 1.119v.334h-3.845v-.706h2.923c0-.248-.05-.468-.151-.659a1.149 1.149 0 00-.425-.457 1.193 1.193 0 00-.637-.167c-.264 0-.495.065-.693.195a1.312 1.312 0 00-.453.505 1.454 1.454 0 00-.157.671v.552c0 .323.056.599.17.826.115.227.276.4.481.52.206.117.447.176.722.176.178 0 .341-.025.488-.076a1.02 1.02 0 00.627-.614l.891.161c-.072.262-.2.492-.385.69a1.857 1.857 0 01-.689.457 2.583 2.583 0 01-.942.161zm4.43.009c-.306 0-.583-.056-.831-.17a1.393 1.393 0 01-.589-.501c-.143-.219-.214-.487-.214-.804 0-.273.052-.498.157-.674.106-.177.247-.317.425-.42.179-.102.378-.181.599-.233.221-.052.445-.092.674-.12l.705-.082c.181-.023.312-.06.394-.11.082-.051.122-.132.122-.246v-.022c0-.275-.077-.488-.232-.64-.153-.151-.382-.227-.687-.227-.317 0-.566.071-.749.211a1.13 1.13 0 00-.375.464l-.885-.202c.105-.294.258-.531.46-.712a1.86 1.86 0 01.702-.397 2.71 2.71 0 01.835-.126c.193 0 .397.022.614.069.218.044.422.126.611.246.191.12.347.291.469.513.122.221.183.508.183.861v3.215h-.92v-.662h-.038a1.325 1.325 0 01-.274.359 1.464 1.464 0 01-.469.294c-.191.077-.42.116-.687.116zm.205-.756c.26 0 .483-.052.668-.155a1.057 1.057 0 00.573-.942v-.624a.48.48 0 01-.195.094 2.895 2.895 0 01-.325.073l-.355.054-.29.037a2.3 2.3 0 00-.501.117.86.86 0 00-.359.236.591.591 0 00-.132.403c0 .234.086.41.258.53.172.118.391.177.658.177zm3.339.649v-4.842h.91v.77h.051c.088-.261.243-.466.466-.615.224-.151.478-.227.762-.227a4.23 4.23 0 01.4.022v.901a1.953 1.953 0 00-.202-.034 1.884 1.884 0 00-.289-.022c-.223 0-.422.047-.596.142a1.045 1.045 0 00-.409.388c-.101.163-.151.35-.151.56v2.957h-.942zm3.306 0v-4.842h.942v4.842h-.942zm.475-5.588a.598.598 0 01-.421-.164.531.531 0 01-.173-.398c0-.155.057-.288.173-.396a.588.588 0 01.421-.168c.164 0 .304.056.419.168a.518.518 0 01.177.396.528.528 0 01-.177.398.588.588 0 01-.419.164zm2.578 2.713v2.875h-.942v-4.842h.903v.789h.06a1.38 1.38 0 01.524-.618c.238-.156.54-.233.903-.233.33 0 .619.069.866.208.248.136.44.34.577.611.136.271.204.606.204 1.006v3.079h-.941v-2.966c0-.351-.092-.625-.274-.823-.183-.199-.434-.299-.753-.299a1.17 1.17 0 00-.582.142 1.019 1.019 0 00-.401.416 1.38 1.38 0 00-.144.655zm6.288 4.791c-.384 0-.714-.05-.991-.151a1.912 1.912 0 01-.674-.4 1.668 1.668 0 01-.391-.546l.809-.333c.057.092.133.189.227.292.097.105.227.195.391.268.165.074.379.111.639.111.357 0 .652-.087.885-.262.233-.172.35-.448.35-.826v-.951h-.06a2.217 2.217 0 01-.246.343c-.105.126-.25.235-.435.328-.184.092-.425.138-.721.138a2.02 2.02 0 01-1.033-.267 1.909 1.909 0 01-.724-.798c-.176-.353-.264-.787-.264-1.302 0-.514.087-.956.261-1.323.176-.368.418-.65.724-.845a1.88 1.88 0 011.043-.296c.3 0 .542.05.727.151.185.098.329.214.432.346.104.133.185.249.242.35h.069v-.785h.923v4.949c0 .416-.096.757-.29 1.024a1.7 1.7 0 01-.784.593 3.028 3.028 0 01-1.109.192zm-.009-2.77c.271 0 .5-.063.687-.189.189-.128.331-.312.428-.549.099-.239.148-.526.148-.86 0-.326-.048-.613-.145-.861a1.28 1.28 0 00-.425-.579 1.118 1.118 0 00-.693-.212c-.283 0-.519.073-.708.221a1.333 1.333 0 00-.429.592c-.094.251-.141.53-.141.839 0 .317.048.595.144.835.097.24.24.427.429.561.191.135.426.202.705.202zm4.387-1.003v-.059c.004-.391.043-.702.116-.934.076-.23.183-.418.322-.56a2.39 2.39 0 01.5-.391c.127-.08.24-.17.341-.268.1-.099.18-.212.239-.34.059-.129.088-.271.088-.426a.874.874 0 00-.132-.485.88.88 0 00-.353-.315 1.103 1.103 0 00-.948-.013.876.876 0 00-.365.315 1.071 1.071 0 00-.167.545h-.958c.015-.378.111-.698.287-.958.176-.263.41-.461.7-.596.291-.134.614-.202.966-.202.386 0 .725.073 1.014.218a1.605 1.605 0 01.917 1.5c0 .236-.037.448-.111.637a1.561 1.561 0 01-.315.501 2.125 2.125 0 01-.484.391 2.12 2.12 0 00-.435.346 1.1 1.1 0 00-.239.427 2.224 2.224 0 00-.083.608v.059h-.9zm.475 1.917a.614.614 0 01-.444-.183.613.613 0 01-.185-.448.6.6 0 01.185-.441.61.61 0 01.444-.186c.171 0 .317.062.442.186a.595.595 0 01.189.441.65.65 0 01-.316.546.604.604 0 01-.315.085zm5.382-.06v-6.455h3.999v.838h-3.026v1.967h2.74v.835h-2.74v2.815h-.973zm5.023 0v-4.842h.942v4.842h-.942zm.475-5.588a.596.596 0 01-.421-.164.532.532 0 01-.174-.398c0-.155.058-.288.174-.396a.587.587 0 01.421-.168c.164 0 .304.056.419.168a.518.518 0 01.177.396.528.528 0 01-.177.398.588.588 0 01-.419.164zm2.577 2.713v2.875h-.941v-4.842h.904v.789h.059c.112-.257.286-.463.523-.618.239-.156.54-.233.904-.233.329 0 .618.069.866.208.248.136.44.34.576.611.137.271.205.606.205 1.006v3.079h-.941v-2.966c0-.351-.092-.625-.275-.823-.182-.199-.433-.299-.752-.299-.219 0-.413.047-.583.142a1.017 1.017 0 00-.4.416 1.369 1.369 0 00-.145.655zm6.346 2.973c-.477 0-.887-.102-1.231-.306a2.07 2.07 0 01-.794-.867c-.185-.374-.277-.812-.277-1.314 0-.496.092-.933.277-1.312.187-.378.448-.673.781-.885.336-.212.728-.318 1.178-.318.273 0 .538.045.794.135.256.09.486.232.689.426.204.193.364.444.482.753.117.307.176.679.176 1.119v.334h-3.845v-.706h2.923a1.39 1.39 0 00-.152-.659 1.135 1.135 0 00-.425-.457 1.187 1.187 0 00-.636-.167c-.264 0-.495.065-.693.195a1.312 1.312 0 00-.453.505 1.455 1.455 0 00-.158.671v.552c0 .323.057.599.171.826.115.227.276.4.481.52.206.117.446.176.721.176.179 0 .342-.025.489-.076a1.022 1.022 0 00.627-.614l.891.161c-.072.262-.2.492-.385.69a1.857 1.857 0 01-.689.457 2.583 2.583 0 01-.942.161zm7.53-4.94v.757h-2.642v-.757h2.642zm-1.934-1.16h.942v4.58c0 .183.027.321.082.413.054.09.125.153.211.186a.833.833 0 00.286.048c.076 0 .142-.006.199-.016l.132-.025.17.778a1.846 1.846 0 01-.611.101 1.673 1.673 0 01-.693-.132 1.193 1.193 0 01-.519-.429c-.133-.194-.199-.436-.199-.728v-4.776zm5.942 3.994v-2.834h.945v4.842h-.926v-.839h-.05c-.112.259-.29.474-.536.647-.243.17-.547.255-.91.255-.311 0-.585-.068-.825-.205a1.434 1.434 0 01-.56-.615c-.135-.271-.202-.606-.202-1.005v-3.08h.942v2.967c0 .33.091.592.273.787a.93.93 0 00.712.294c.176 0 .352-.045.526-.133.176-.088.323-.221.438-.4.117-.178.175-.405.173-.681zm3.054-.867v2.875h-.941v-4.842h.903v.789h.06c.111-.257.285-.463.523-.618.239-.156.541-.233.904-.233.33 0 .618.069.866.208.248.136.44.34.576.611.137.271.205.606.205 1.006v3.079h-.942v-2.966c0-.351-.091-.625-.274-.823-.182-.199-.433-.299-.753-.299-.218 0-.412.047-.582.142a1.017 1.017 0 00-.4.416 1.38 1.38 0 00-.145.655zm6.346 2.973c-.477 0-.887-.102-1.231-.306a2.07 2.07 0 01-.794-.867c-.185-.374-.277-.812-.277-1.314 0-.496.092-.933.277-1.312.187-.378.447-.673.781-.885.336-.212.728-.318 1.178-.318.273 0 .537.045.793.135.256.09.486.232.69.426.204.193.364.444.482.753.118.307.176.679.176 1.119v.334h-3.845v-.706h2.922c0-.248-.05-.468-.151-.659a1.142 1.142 0 00-1.061-.624c-.265 0-.495.065-.693.195a1.312 1.312 0 00-.453.505 1.455 1.455 0 00-.158.671v.552c0 .323.057.599.17.826.116.227.276.4.482.52.206.117.446.176.721.176.178 0 .341-.025.488-.076a1.006 1.006 0 00.627-.614l.891.161a1.614 1.614 0 01-.384.69 1.869 1.869 0 01-.69.457 2.578 2.578 0 01-.941.161zm5.867 1.717c-.141 0-.269-.011-.384-.034a1.19 1.19 0 01-.258-.07l.226-.772c.173.046.326.066.46.06a.548.548 0 00.356-.151c.105-.095.197-.249.277-.463l.117-.322-1.77-4.905h1.008l1.224 3.758h.051l1.225-3.758h1.011l-1.994 5.488a2.185 2.185 0 01-.352.64 1.376 1.376 0 01-.51.397 1.677 1.677 0 01-.687.132zm6.203-1.717c-.453 0-.849-.105-1.187-.313a2.1 2.1 0 01-.788-.873c-.186-.374-.279-.811-.279-1.311 0-.502.093-.941.279-1.317.187-.376.45-.669.788-.877.338-.208.734-.311 1.187-.311.454 0 .849.103 1.187.311.339.208.601.501.787.877.187.376.281.815.281 1.317 0 .5-.094.937-.281 1.311a2.084 2.084 0 01-.787.873c-.338.208-.733.313-1.187.313zm.003-.791c.294 0 .538-.079.731-.234a1.36 1.36 0 00.428-.621c.095-.258.142-.543.142-.854 0-.309-.047-.592-.142-.851a1.378 1.378 0 00-.428-.627c-.193-.158-.437-.237-.731-.237-.296 0-.542.079-.737.237a1.399 1.399 0 00-.431.627 2.523 2.523 0 00-.138.851c0 .311.046.596.138.854.094.259.238.466.431.621.195.155.441.234.737.234zm6.27-1.315v-2.834h.944v4.842h-.925v-.839h-.051c-.111.259-.29.474-.535.647-.244.17-.547.255-.91.255-.311 0-.586-.068-.826-.205a1.434 1.434 0 01-.56-.615c-.134-.271-.202-.606-.202-1.005v-3.08h.942v2.967c0 .33.091.592.274.787a.93.93 0 00.712.294c.176 0 .351-.045.525-.133.177-.088.323-.221.438-.4.118-.178.176-.405.174-.681zm2.112 2.008v-4.842h.91v.77h.051c.088-.261.243-.466.466-.615.224-.151.478-.227.762-.227a4.23 4.23 0 01.399.022v.901a1.872 1.872 0 00-.201-.034 1.888 1.888 0 00-.29-.022c-.222 0-.42.047-.595.142a1.048 1.048 0 00-.56.948v2.957h-.942zm7.593.098c-.469 0-.871-.107-1.21-.319a2.102 2.102 0 01-.774-.886 2.941 2.941 0 01-.271-1.292c0-.492.093-.925.277-1.302.185-.378.445-.673.781-.885.336-.212.732-.318 1.187-.318.368 0 .695.068.983.204.288.135.519.324.696.568.178.243.285.528.318.854h-.916a1.097 1.097 0 00-.347-.586c-.178-.164-.418-.246-.718-.246a1.17 1.17 0 00-.69.208 1.34 1.34 0 00-.456.586 2.245 2.245 0 00-.164.895c0 .353.053.658.161.914.107.257.258.455.453.596.198.141.429.211.696.211.178 0 .34-.032.485-.098a.979.979 0 00.368-.286c.101-.124.172-.273.212-.448h.916a1.774 1.774 0 01-.306.839c-.17.245-.398.439-.683.579a2.214 2.214 0 01-.998.212zm4.304.009c-.306 0-.583-.056-.831-.17a1.393 1.393 0 01-.589-.501c-.143-.219-.214-.487-.214-.804 0-.273.052-.498.157-.674.105-.177.247-.317.425-.42.179-.102.378-.181.599-.233.22-.052.445-.092.674-.12l.705-.082c.18-.023.312-.06.394-.11.081-.051.122-.132.122-.246v-.022c0-.275-.077-.488-.232-.64-.154-.151-.383-.227-.687-.227-.317 0-.567.071-.749.211a1.13 1.13 0 00-.375.464l-.885-.202c.104-.294.258-.531.46-.712.203-.183.437-.315.702-.397.264-.085.543-.126.834-.126.194 0 .398.022.614.069.219.044.423.126.612.246.19.12.347.291.468.513.122.221.183.508.183.861v3.215h-.919v-.662h-.038a1.325 1.325 0 01-.274.359 1.469 1.469 0 01-.47.294c-.19.077-.419.116-.686.116zm.205-.756c.26 0 .482-.052.668-.155a1.057 1.057 0 00.573-.942v-.624a.486.486 0 01-.195.094 2.895 2.895 0 01-.325.073l-.356.054-.289.037a2.3 2.3 0 00-.501.117.87.87 0 00-.36.236.59.59 0 00-.131.403c0 .234.085.41.258.53.172.118.391.177.658.177zm4.28-5.806v6.455h-.941v-6.455h.941zm1.17 6.455v-4.842h.941v4.842h-.941zm.475-5.588a.6.6 0 01-.422-.164.535.535 0 01-.173-.398c0-.155.058-.288.173-.396a.59.59 0 01.422-.168.58.58 0 01.419.168.518.518 0 01.177.396.528.528 0 01-.177.398.59.59 0 01-.419.164zm1.711 5.588v-6.455h.941v2.398h.058c.054-.101.133-.217.236-.35.102-.132.245-.248.428-.346.182-.101.424-.151.724-.151.391 0 .739.098 1.046.296.306.197.546.482.721.854.176.372.264.82.264 1.343s-.087.972-.261 1.345c-.174.373-.414.66-.718.861-.304.2-.652.299-1.043.299-.293 0-.534-.049-.721-.148a1.364 1.364 0 01-.434-.346 2.649 2.649 0 01-.242-.353h-.079v.753h-.92zm.923-2.421c0 .341.049.639.148.896.098.256.241.457.428.601.187.143.416.215.687.215.281 0 .516-.075.705-.224a1.38 1.38 0 00.428-.615c.099-.258.148-.549.148-.873a2.42 2.42 0 00-.144-.86 1.324 1.324 0 00-.429-.602c-.189-.148-.425-.221-.708-.221-.274 0-.504.071-.693.212-.187.14-.329.337-.425.589a2.449 2.449 0 00-.145.882zm4.455 2.421v-4.842h.91v.77h.051c.088-.261.243-.466.466-.615.224-.151.478-.227.762-.227a4.23 4.23 0 01.4.022v.901a1.953 1.953 0 00-.202-.034 1.884 1.884 0 00-.289-.022c-.223 0-.422.047-.596.142a1.045 1.045 0 00-.409.388c-.101.163-.151.35-.151.56v2.957h-.942zm4.67.107c-.306 0-.583-.056-.831-.17a1.393 1.393 0 01-.589-.501c-.143-.219-.214-.487-.214-.804 0-.273.053-.498.157-.674.106-.177.247-.317.425-.42.179-.102.378-.181.599-.233.221-.052.445-.092.674-.12l.706-.082c.18-.023.311-.06.393-.11.082-.051.123-.132.123-.246v-.022c0-.275-.078-.488-.233-.64-.154-.151-.383-.227-.687-.227-.317 0-.566.071-.749.211a1.13 1.13 0 00-.375.464l-.885-.202c.105-.294.258-.531.46-.712a1.86 1.86 0 01.702-.397c.265-.085.543-.126.835-.126.193 0 .397.022.613.069.219.044.423.126.612.246.19.12.347.291.469.513.122.221.183.508.183.861v3.215h-.92v-.662h-.038a1.325 1.325 0 01-.274.359 1.464 1.464 0 01-.469.294c-.191.077-.42.116-.687.116zm.205-.756c.26 0 .483-.052.668-.155.187-.103.329-.237.425-.403.099-.169.148-.348.148-.539v-.624a.486.486 0 01-.195.094 2.925 2.925 0 01-.324.073l-.357.054-.289.037a2.3 2.3 0 00-.501.117.86.86 0 00-.359.236.591.591 0 00-.132.403c0 .234.086.41.258.53.172.118.391.177.658.177zm5.597-4.193v.757H505.6v-.757h2.642zm-1.933-1.16h.941v4.58c0 .183.027.321.082.413.055.09.125.153.211.186a.833.833 0 00.286.048c.076 0 .142-.006.199-.016l.132-.025.171.778a1.839 1.839 0 01-.612.101 1.67 1.67 0 01-.693-.132 1.193 1.193 0 01-.519-.429c-.132-.194-.198-.436-.198-.728v-4.776zm2.877 6.002v-4.842h.942v4.842h-.942zm.476-5.588a.6.6 0 01-.422-.164.531.531 0 01-.173-.398c0-.155.057-.288.173-.396a.59.59 0 01.422-.168c.163 0 .303.056.418.168a.518.518 0 01.177.396.528.528 0 01-.177.398.587.587 0 01-.418.164zm3.672 5.686c-.453 0-.849-.105-1.187-.313a2.098 2.098 0 01-.787-.873c-.187-.374-.28-.811-.28-1.311 0-.502.093-.941.28-1.317.187-.376.449-.669.787-.877.338-.208.734-.311 1.187-.311.454 0 .85.103 1.188.311.338.208.6.501.787.877.187.376.281.815.281 1.317 0 .5-.094.937-.281 1.311a2.098 2.098 0 01-.787.873c-.338.208-.734.313-1.188.313zm.004-.791c.293 0 .537-.079.73-.234.194-.155.336-.362.429-.621a2.48 2.48 0 00.142-.854c0-.309-.048-.592-.142-.851a1.38 1.38 0 00-.429-.627c-.193-.158-.437-.237-.73-.237-.296 0-.542.079-.737.237a1.408 1.408 0 00-.432.627 2.523 2.523 0 00-.138.851c0 .311.046.596.138.854.095.259.239.466.432.621.195.155.441.234.737.234zm4.147-2.182v2.875h-.942v-4.842h.903v.789h.06a1.38 1.38 0 01.524-.618c.238-.156.54-.233.903-.233.33 0 .618.069.866.208.248.136.44.34.577.611.136.271.204.606.204 1.006v3.079h-.941v-2.966c0-.351-.092-.625-.274-.823-.183-.199-.434-.299-.753-.299a1.17 1.17 0 00-.582.142 1.019 1.019 0 00-.401.416 1.38 1.38 0 00-.144.655zm4.881 2.935a.611.611 0 01-.444-.183.61.61 0 01-.186-.448c0-.172.062-.319.186-.441a.606.606 0 01.444-.186c.172 0 .32.062.444.186a.596.596 0 01.186.441.61.61 0 01-.088.319.658.658 0 01-.227.227.61.61 0 01-.315.085z" fill="#333"/><path d="M416.132 259.264H521.11v.605H416.132v-.605zm-28.914 115.517a.921.921 0 00-.416-.693c-.243-.166-.549-.249-.919-.249a1.72 1.72 0 00-.687.126 1.056 1.056 0 00-.45.34.805.805 0 00-.157.489c0 .153.035.286.107.397a.955.955 0 00.286.28c.12.074.248.136.384.187.137.048.268.088.394.119l.63.164c.206.051.417.119.633.205.216.086.417.199.601.34.185.141.334.315.448.523.115.209.173.458.173.748 0 .365-.095.69-.284.973-.186.284-.459.508-.815.672-.355.164-.784.246-1.289.246-.482 0-.9-.077-1.253-.23a1.94 1.94 0 01-.828-.653 1.895 1.895 0 01-.331-1.008h.977a.996.996 0 00.227.583c.134.153.305.268.513.343.21.074.439.111.689.111.275 0 .52-.044.734-.13.216-.088.387-.21.51-.365a.868.868 0 00.186-.552.68.68 0 00-.164-.47 1.199 1.199 0 00-.438-.302 4.23 4.23 0 00-.62-.211l-.762-.208c-.516-.141-.926-.348-1.228-.621-.3-.274-.45-.635-.45-1.085 0-.371.101-.696.302-.974.202-.277.474-.492.819-.645a2.79 2.79 0 011.165-.234c.437 0 .822.077 1.156.23.336.153.6.365.793.634.193.267.294.573.303.92h-.939zm4.275-.082v.757h-2.643v-.757h2.643zm-1.934-1.16h.941v4.58c0 .183.028.321.083.413.054.09.124.152.21.186a.839.839 0 00.287.047c.076 0 .142-.005.198-.015l.133-.026.17.778a1.836 1.836 0 01-.611.101 1.635 1.635 0 01-.693-.132 1.192 1.192 0 01-.52-.428c-.132-.194-.198-.436-.198-.729v-4.775zm4.285 6.109c-.306 0-.583-.057-.831-.17a1.407 1.407 0 01-.589-.501c-.143-.219-.214-.487-.214-.804 0-.274.052-.498.157-.675a1.17 1.17 0 01.425-.419c.179-.103.378-.181.599-.233.22-.053.445-.093.674-.12l.705-.082c.181-.023.312-.06.393-.11.082-.051.123-.133.123-.246v-.022c0-.276-.077-.489-.232-.64-.154-.151-.383-.227-.687-.227-.317 0-.567.071-.749.211a1.123 1.123 0 00-.375.464l-.885-.202c.105-.294.258-.532.46-.713.203-.183.437-.315.702-.397.264-.084.543-.126.834-.126.194 0 .398.023.614.07.219.043.423.126.611.245.191.12.348.292.47.514.122.221.183.508.183.86v3.216h-.92v-.663h-.038a1.344 1.344 0 01-.274.36 1.467 1.467 0 01-.47.293c-.19.078-.419.117-.686.117zm.205-.757c.26 0 .483-.051.668-.154a1.058 1.058 0 00.573-.943v-.624a.497.497 0 01-.196.095 3.07 3.07 0 01-.324.072l-.356.054-.29.038a2.365 2.365 0 00-.5.116.862.862 0 00-.359.237.586.586 0 00-.132.403c0 .234.086.41.258.53.172.117.391.176.658.176zm3.339.65v-4.842h.91v.769h.05c.088-.26.244-.465.466-.614a1.33 1.33 0 01.762-.227 4.23 4.23 0 01.401.022v.901a1.748 1.748 0 00-.202-.034 1.886 1.886 0 00-.289-.023c-.223 0-.422.048-.596.142a1.06 1.06 0 00-.561.949v2.957h-.941zm5.85-4.842v.757h-2.643v-.757h2.643zm-1.934-1.16h.942v4.58c0 .183.027.321.081.413.055.09.125.152.211.186a.839.839 0 00.287.047c.076 0 .142-.005.198-.015l.133-.026.17.778a1.854 1.854 0 01-.611.101 1.635 1.635 0 01-.693-.132 1.187 1.187 0 01-.52-.428c-.132-.194-.198-.436-.198-.729v-4.775zm7.164 6.099c-.453 0-.849-.104-1.187-.312a2.104 2.104 0 01-.787-.873c-.187-.374-.28-.811-.28-1.311 0-.503.093-.941.28-1.317.187-.377.449-.669.787-.877.338-.208.734-.312 1.187-.312.454 0 .85.104 1.188.312.338.208.6.5.787.877.187.376.28.814.28 1.317 0 .5-.093.937-.28 1.311a2.104 2.104 0 01-.787.873c-.338.208-.734.312-1.188.312zm.004-.791c.293 0 .537-.078.73-.233.194-.156.336-.362.429-.621a2.48 2.48 0 00.142-.854 2.47 2.47 0 00-.142-.851 1.388 1.388 0 00-.429-.628c-.193-.157-.437-.236-.73-.236-.296 0-.542.079-.737.236a1.417 1.417 0 00-.432.628 2.52 2.52 0 00-.138.851c0 .311.046.596.138.854.095.259.239.465.432.621.195.155.441.233.737.233zm7.178-4.148l-1.754 4.842h-1.007l-1.758-4.842h1.011l1.226 3.726h.049l1.223-3.726h1.01zm2.708 4.939c-.477 0-.887-.102-1.232-.305a2.087 2.087 0 01-.793-.867c-.185-.374-.277-.812-.277-1.314 0-.496.092-.934.277-1.312.187-.378.447-.673.781-.885.336-.213.729-.319 1.178-.319.273 0 .537.045.793.136.257.09.486.232.69.425.204.194.364.445.482.754.117.306.176.679.176 1.118v.334h-3.845v-.705h2.922c0-.248-.05-.468-.15-.659a1.144 1.144 0 00-.426-.457 1.187 1.187 0 00-.636-.167c-.264 0-.495.065-.693.195a1.312 1.312 0 00-.453.505 1.45 1.45 0 00-.157.671v.551c0 .324.056.599.169.826.116.227.277.4.482.52.206.118.447.177.721.177.179 0 .341-.025.489-.076a1.002 1.002 0 00.626-.615l.891.161a1.603 1.603 0 01-.384.69 1.859 1.859 0 01-.689.458c-.275.107-.589.16-.942.16zm3.022-.097v-4.842h.911v.769h.05c.088-.26.244-.465.466-.614a1.33 1.33 0 01.762-.227 4.23 4.23 0 01.4.022v.901a1.72 1.72 0 00-.201-.034 1.89 1.89 0 00-.29-.023c-.223 0-.421.048-.596.142a1.057 1.057 0 00-.56.949v2.957h-.942zm-38.388 1.765h41.163v.605h-41.163v-.605z" fill="#333"/><path d="M402.938 168.64c-9.565 0-17.328 7.77-17.328 17.343 0 9.574 7.763 17.343 17.328 17.343 9.566 0 17.328-7.769 17.328-17.343 0-9.573-7.762-17.343-17.328-17.343zm-1.733 24.28h-3.465v-13.874h3.465v13.874zm6.931 0h-3.465v-13.874h3.465v13.874z" fill="#000"/><path d="M755.631 35.503c4.079 0 7.385-2.856 7.385-6.38 0-3.523-3.306-6.379-7.385-6.379-4.078 0-7.384 2.856-7.384 6.38 0 3.523 3.306 6.38 7.384 6.38z" fill="#4ECB71"/><path d="M773.368 35.503c4.078 0 7.384-2.856 7.384-6.38 0-3.523-3.306-6.379-7.384-6.379-4.079 0-7.385 2.856-7.385 6.38 0 3.523 3.306 6.38 7.385 6.38z" fill="#FF9A62"/><path d="M737.895 35.503c4.078 0 7.385-2.856 7.385-6.38 0-3.523-3.307-6.379-7.385-6.379-4.078 0-7.384 2.856-7.384 6.38 0 3.523 3.306 6.38 7.384 6.38z" fill="#FFD233"/></svg>