<svg width="807" height="590" fill="none" xmlns="http://www.w3.org/2000/svg"><path d="M803.674 48H3.326C1.489 48 0 49.673 0 51.738v534.524C0 588.326 1.489 590 3.326 590h800.348c1.837 0 3.326-1.674 3.326-3.738V51.738c0-2.065-1.489-3.738-3.326-3.738z" fill="#FFD233"/><path d="M803.674 0H3.326A3.327 3.327 0 000 3.328v41.445A3.327 3.327 0 003.326 48.1h800.348A3.327 3.327 0 00807 44.773V3.328A3.327 3.327 0 00803.674 0z" fill="#F8F8F8"/><path d="M5.497 28.846v-9.683h3.448c.753 0 1.377.138 1.871.412.494.274.864.65 1.11 1.125.246.473.369 1.006.369 1.598 0 .596-.125 1.132-.374 1.608a2.7 2.7 0 01-1.114 1.125c-.495.274-1.117.411-1.866.411H6.569v-1.239h2.24c.475 0 .86-.081 1.157-.245.296-.167.513-.394.652-.681.138-.287.207-.613.207-.979s-.069-.69-.207-.974a1.492 1.492 0 00-.657-.667c-.296-.16-.686-.24-1.171-.24H6.957v8.43h-1.46zm8.143 0v-7.262h1.365v1.154h.075a1.76 1.76 0 01.7-.922 2 2 0 011.143-.34 6.031 6.031 0 01.6.033v1.352a2.518 2.518 0 00-.303-.052 2.876 2.876 0 00-.434-.033c-.334 0-.632.07-.893.212a1.58 1.58 0 00-.84 1.424v4.434H13.64zm7.649.147c-.68 0-1.274-.156-1.781-.468a3.155 3.155 0 01-1.181-1.31c-.28-.561-.42-1.217-.42-1.967 0-.753.14-1.412.42-1.976a3.15 3.15 0 011.18-1.314c.508-.312 1.101-.468 1.782-.468.68 0 1.273.156 1.78.468.508.312.901.75 1.181 1.314.28.564.42 1.223.42 1.976 0 .75-.14 1.406-.42 1.967-.28.561-.673.998-1.18 1.31-.508.312-1.101.468-1.781.468zm.004-1.187c.441 0 .807-.117 1.096-.35a2.05 2.05 0 00.643-.931c.142-.388.212-.815.212-1.281 0-.464-.07-.89-.212-1.277a2.08 2.08 0 00-.643-.94c-.29-.237-.655-.355-1.096-.355-.444 0-.812.118-1.105.354-.29.237-.505.55-.647.941a3.768 3.768 0 00-.208 1.277c0 .466.07.893.208 1.28.142.389.357.699.647.932.293.233.661.35 1.105.35zm4.702-6.222h1.412v7.735c0 .485-.088.895-.264 1.23a1.725 1.725 0 01-.775.76c-.34.174-.76.26-1.261.26h-.142a2.31 2.31 0 01-.146-.004V30.35h.225c.334 0 .575-.09.723-.27.151-.176.227-.433.227-.77v-7.726zm.699-1.12a.897.897 0 01-.633-.246.8.8 0 01-.26-.596.79.79 0 01.26-.596.888.888 0 01.633-.25c.245 0 .455.083.628.25a.783.783 0 01.265.596c0 .23-.088.429-.265.596a.881.881 0 01-.628.246zm5.488 8.529c-.715 0-1.33-.153-1.847-.459a3.11 3.11 0 01-1.19-1.3c-.278-.561-.416-1.218-.416-1.972 0-.743.138-1.399.415-1.966a3.23 3.23 0 011.172-1.329c.504-.318 1.093-.477 1.767-.477.409 0 .806.067 1.19.203a2.87 2.87 0 011.034.638c.306.29.547.667.723 1.13.176.46.265 1.02.265 1.679v.5h-5.768v-1.058h4.384c0-.372-.076-.702-.227-.989a1.715 1.715 0 00-.638-.685 1.78 1.78 0 00-.954-.25c-.397 0-.743.097-1.04.293a1.973 1.973 0 00-.68.756 2.184 2.184 0 00-.236 1.007v.827c0 .486.085.899.255 1.24.174.34.415.6.723.78.309.176.67.264 1.082.264.268 0 .512-.038.732-.113.22-.08.411-.196.572-.35a1.52 1.52 0 00.368-.572l1.337.24c-.107.395-.3.74-.576 1.036a2.793 2.793 0 01-1.035.686c-.413.16-.883.24-1.412.24zm7.483 0c-.702 0-1.307-.16-1.814-.478a3.16 3.16 0 01-1.162-1.328c-.27-.565-.406-1.21-.406-1.939 0-.737.139-1.388.416-1.952a3.186 3.186 0 011.171-1.329c.504-.318 1.098-.477 1.781-.477.551 0 1.043.102 1.474.307.431.202.78.485 1.044.85.268.367.427.794.477 1.282h-1.375a1.65 1.65 0 00-.52-.88c-.267-.245-.626-.368-1.076-.368-.394 0-.739.104-1.035.312-.293.205-.52.498-.685.88-.163.378-.245.825-.245 1.342 0 .53.08.987.24 1.371.161.385.388.683.68.894a1.75 1.75 0 001.045.317c.268 0 .51-.05.727-.147.22-.1.405-.244.553-.43a1.62 1.62 0 00.316-.671h1.375c-.05.47-.203.888-.458 1.257a2.638 2.638 0 01-1.025.87c-.425.211-.924.317-1.498.317zm7.626-7.409v1.135h-3.963v-1.135h3.963zm-2.9-1.74h1.412v6.87c0 .274.04.48.123.62a.641.641 0 00.316.278c.132.048.276.071.43.071.113 0 .213-.008.297-.023l.199-.038.255 1.167a2.373 2.373 0 01-.35.095c-.15.035-.34.054-.566.057a2.486 2.486 0 01-1.04-.199 1.784 1.784 0 01-.78-.643c-.197-.29-.297-.654-.297-1.092v-7.163zm6.278 9.002l-2.768-9.683h2.235l1.6 6.728h.081l1.767-6.727h1.913l1.762 6.741h.085l1.602-6.742h2.234l-2.768 9.683h-1.994l-1.842-6.33H54.5l-1.837 6.33h-1.994zm11.315 0v-7.262h2.012v7.262h-2.012zm1.01-8.198c-.298 0-.555-.1-.769-.298a.965.965 0 01-.316-.723c0-.277.105-.515.316-.714.214-.202.47-.303.77-.303.3 0 .554.101.765.303a.94.94 0 01.321.714.96.96 0 01-.32.723 1.077 1.077 0 01-.766.298zm2.362 8.198v-7.262h1.95v1.267h.076c.132-.45.355-.79.666-1.021a1.75 1.75 0 011.077-.35 3.039 3.039 0 01.633.071v1.787a2.618 2.618 0 00-.392-.075 3.514 3.514 0 00-.458-.034c-.296 0-.56.065-.794.194a1.43 1.43 0 00-.548.53 1.528 1.528 0 00-.198.785v4.108h-2.012zm8.159.142c-.747 0-1.39-.151-1.927-.454a3.108 3.108 0 01-1.238-1.295c-.29-.561-.435-1.225-.435-1.99 0-.748.145-1.403.435-1.967a3.214 3.214 0 011.223-1.32c.53-.315 1.15-.472 1.861-.472.48 0 .925.077 1.337.231.416.152.778.38 1.087.686.312.306.554.69.727 1.153.173.46.26 1 .26 1.617v.553H70.72v-1.248h4.232c0-.29-.063-.546-.19-.77a1.354 1.354 0 00-.523-.525 1.495 1.495 0 00-.77-.194c-.306 0-.577.071-.813.213a1.492 1.492 0 00-.548.563 1.59 1.59 0 00-.203.78v1.186c0 .36.066.67.199.932.135.261.325.463.57.605.246.142.538.213.875.213.223 0 .428-.032.614-.095a1.23 1.23 0 00.78-.747l1.86.123a2.548 2.548 0 01-.58 1.172c-.29.331-.665.59-1.125.776-.457.183-.984.274-1.582.274z" fill="#333"/><path d="M761.9 30.51c4.078 0 7.384-2.856 7.384-6.38 0-3.522-3.306-6.378-7.384-6.378s-7.384 2.856-7.384 6.379c0 3.523 3.306 6.38 7.384 6.38z" fill="#4ECB71"/><path d="M780.363 30.51c4.078 0 7.384-2.856 7.384-6.38 0-3.522-3.306-6.378-7.384-6.378s-7.384 2.856-7.384 6.379c0 3.523 3.306 6.38 7.384 6.38z" fill="#FF9A62"/><path d="M743.437 30.51c4.078 0 7.384-2.856 7.384-6.38 0-3.522-3.306-6.378-7.384-6.378s-7.384 2.856-7.384 6.379c0 3.523 3.306 6.38 7.384 6.38z" fill="#FFD233"/><path d="M727.187 130.363H79.259a3.327 3.327 0 00-3.325 3.329v315.09a3.328 3.328 0 003.325 3.329h647.928a3.328 3.328 0 003.326-3.329v-315.09a3.327 3.327 0 00-3.326-3.329z" fill="#4ECB71"/><path d="M481.65 343.382H325.904a3.327 3.327 0 00-3.326 3.328v29.401a3.327 3.327 0 003.326 3.329H481.65a3.327 3.327 0 003.326-3.329V346.71a3.327 3.327 0 00-3.326-3.328z" fill="#FF9A62"/><path d="M352.177 359.783c-.038-.381-.2-.677-.487-.889-.286-.211-.675-.316-1.166-.316-.334 0-.616.047-.846.142-.23.091-.406.219-.529.383a.921.921 0 00-.18.558.795.795 0 00.109.453c.082.13.194.242.336.336.141.092.305.172.491.241.186.066.384.123.595.171l.869.208c.422.094.81.22 1.163.377.352.158.658.352.916.582.258.23.458.501.6.814.145.311.219.669.222 1.072-.003.593-.155 1.107-.454 1.542-.296.432-.724.767-1.284 1.007-.558.236-1.23.354-2.018.354-.781 0-1.461-.119-2.04-.359-.576-.239-1.027-.594-1.351-1.064-.322-.472-.49-1.057-.506-1.754h1.979c.023.325.115.596.279.814.167.214.389.376.666.487.28.107.597.16.95.16.346 0 .647-.05.902-.151.258-.101.458-.241.6-.421a.97.97 0 00.212-.619.807.807 0 00-.193-.549c-.126-.148-.312-.274-.558-.378a5.554 5.554 0 00-.892-.283l-1.054-.265c-.816-.199-1.46-.509-1.932-.931-.472-.423-.707-.992-.704-1.707-.003-.587.153-1.099.468-1.537.318-.438.754-.78 1.309-1.026.554-.246 1.183-.369 1.889-.369.718 0 1.345.123 1.88.369.539.246.957.588 1.257 1.026.299.438.453.946.462 1.522h-1.96zm6.485 7.04c-.747 0-1.389-.151-1.927-.453a3.108 3.108 0 01-1.238-1.296c-.29-.561-.435-1.225-.435-1.991 0-.746.145-1.402.435-1.966a3.208 3.208 0 011.223-1.319c.53-.315 1.15-.473 1.861-.473.479 0 .925.077 1.337.231.416.152.778.38 1.087.686.312.306.554.69.727 1.154.173.46.26.999.26 1.616v.554h-6.127v-1.248h4.233c0-.29-.063-.547-.189-.771a1.356 1.356 0 00-.524-.525 1.5 1.5 0 00-.77-.194c-.306 0-.577.071-.813.213a1.481 1.481 0 00-.548.563c-.133.233-.2.493-.203.78v1.186c0 .36.066.67.199.932.135.262.325.463.571.605.245.142.537.212.874.212.223 0 .428-.031.614-.094a1.27 1.27 0 00.477-.283c.132-.127.233-.281.302-.464l1.862.123a2.554 2.554 0 01-.582 1.173 2.92 2.92 0 01-1.124.775c-.457.183-.984.274-1.582.274zm8.25-7.404v1.513h-4.37v-1.513h4.37zm-3.378-1.739h2.013v6.77c0 .185.028.331.085.435a.47.47 0 00.236.213.975.975 0 00.359.061c.094 0 .189-.008.283-.024l.217-.042.317 1.498c-.1.032-.242.068-.425.109a3.383 3.383 0 01-.666.081c-.485.018-.91-.046-1.275-.194a1.78 1.78 0 01-.846-.691c-.202-.311-.301-.706-.298-1.181v-7.035zm9.089 5.909v-4.17h2.012v7.262h-1.932v-1.319h-.076a2.135 2.135 0 01-.817 1.026c-.378.258-.839.388-1.384.388-.485 0-.911-.11-1.28-.331a2.28 2.28 0 01-.865-.941c-.204-.406-.308-.893-.311-1.461v-4.624h2.013v4.265c.002.428.118.767.344 1.016.227.249.531.374.912.374.242 0 .469-.055.68-.166.211-.113.381-.28.51-.501.132-.22.197-.493.194-.818zm3.369 5.816v-9.986h1.984v1.22h.09c.088-.195.215-.394.382-.596.17-.204.391-.375.662-.51.274-.139.614-.208 1.02-.208.529 0 1.017.139 1.464.416.448.274.805.688 1.073 1.243.267.552.402 1.244.402 2.076 0 .81-.131 1.494-.393 2.051-.258.555-.611.976-1.058 1.263a2.72 2.72 0 01-1.493.425c-.39 0-.722-.064-.996-.193a2.06 2.06 0 01-.666-.487 2.447 2.447 0 01-.397-.601h-.062v3.887h-2.012zm1.97-6.354c0 .431.059.808.179 1.129.12.322.293.573.52.752.227.177.502.265.826.265.328 0 .605-.09.832-.27.227-.182.398-.435.515-.756.119-.325.179-.698.179-1.12 0-.42-.058-.789-.174-1.107a1.643 1.643 0 00-.515-.747c-.227-.18-.506-.269-.837-.269-.327 0-.604.086-.831.26-.223.173-.395.419-.515.737s-.179.693-.179 1.126zm11.09 3.767c-.463 0-.875-.08-1.237-.241a1.991 1.991 0 01-.86-.723c-.208-.322-.312-.722-.312-1.201 0-.404.074-.742.222-1.017a1.79 1.79 0 01.605-.661 2.96 2.96 0 01.869-.379 6.567 6.567 0 011.03-.179 25.36 25.36 0 001.02-.123c.258-.041.446-.101.562-.18a.394.394 0 00.175-.35v-.028c0-.3-.094-.531-.283-.695-.186-.164-.451-.246-.794-.246-.362 0-.65.08-.865.241a1.109 1.109 0 00-.425.596l-1.861-.151c.095-.441.28-.823.557-1.145a2.683 2.683 0 011.073-.746c.441-.177.951-.265 1.53-.265.403 0 .789.047 1.158.141.371.095.7.242.987.44.29.199.518.454.685.766.167.309.25.679.25 1.111v4.898h-1.908v-1.007h-.057a2.04 2.04 0 01-.467.601c-.196.17-.43.304-.704.401a2.903 2.903 0 01-.95.142zm.576-1.39c.297 0 .558-.058.784-.175.227-.119.405-.28.534-.482.129-.202.194-.43.194-.685v-.771a1.04 1.04 0 01-.26.113 4.38 4.38 0 01-.363.09 14.44 14.44 0 01-.407.071l-.368.052c-.236.035-.442.09-.619.166a.992.992 0 00-.411.307.747.747 0 00-.146.473c0 .274.099.484.297.629.202.142.457.212.765.212zm6.831-2.945v4.198h-2.012v-7.262h1.918v1.282h.084a2.03 2.03 0 01.809-1.003c.377-.249.835-.373 1.374-.373.504 0 .943.11 1.318.331.375.22.666.535.874.945.207.407.312.892.312 1.457v4.623h-2.013v-4.264c.004-.445-.11-.792-.34-1.04-.23-.252-.546-.378-.95-.378-.27 0-.51.058-.717.174a1.216 1.216 0 00-.482.511 1.762 1.762 0 00-.175.799zm9.288 4.34c-.734 0-1.368-.156-1.904-.468a3.195 3.195 0 01-1.232-1.314c-.29-.564-.435-1.218-.435-1.962 0-.751.145-1.406.435-1.967.289-.564.7-1.003 1.232-1.314.536-.315 1.17-.473 1.904-.473s1.367.158 1.899.473c.535.311.948.75 1.238 1.314.29.561.434 1.216.434 1.967 0 .744-.144 1.398-.434 1.962-.29.561-.703.999-1.238 1.314-.532.312-1.165.468-1.899.468zm.01-1.56c.333 0 .612-.094.836-.284.223-.192.392-.453.505-.785.117-.331.175-.707.175-1.13 0-.422-.058-.798-.175-1.13a1.762 1.762 0 00-.505-.784c-.224-.192-.503-.288-.836-.288-.337 0-.621.096-.851.288a1.786 1.786 0 00-.515.784c-.113.332-.17.708-.17 1.13 0 .423.057.799.17 1.13.117.332.289.593.515.785.23.19.514.284.851.284zm8.476-5.844v1.513h-4.369v-1.513h4.369zm-3.377-1.739h2.012v6.77a.93.93 0 00.085.435c.057.1.136.172.237.213a.966.966 0 00.358.061c.095 0 .189-.008.284-.024l.217-.042.317 1.498a5.522 5.522 0 01-.425.109 3.384 3.384 0 01-.667.081c-.484.018-.91-.046-1.275-.194a1.785 1.785 0 01-.846-.691c-.201-.311-.3-.706-.297-1.181v-7.035zm6.604 4.803v4.198h-2.013v-9.683h1.956v3.703h.085c.164-.429.428-.765.794-1.008.365-.245.823-.368 1.374-.368.504 0 .944.11 1.318.331.378.217.671.531.879.94.211.407.315.894.312 1.462v4.623h-2.013v-4.264c.004-.448-.11-.796-.34-1.045-.227-.249-.545-.373-.954-.373a1.49 1.49 0 00-.728.174 1.242 1.242 0 00-.491.511 1.736 1.736 0 00-.179.799zm9.342 4.34c-.746 0-1.389-.151-1.927-.453a3.12 3.12 0 01-1.238-1.296c-.289-.561-.434-1.225-.434-1.991 0-.746.145-1.402.434-1.966a3.216 3.216 0 011.224-1.319c.529-.315 1.149-.473 1.861-.473.479 0 .924.077 1.337.231.415.152.777.38 1.086.686.312.306.554.69.728 1.154.173.46.259.999.259 1.616v.554h-6.127v-1.248h4.233c0-.29-.063-.547-.189-.771a1.35 1.35 0 00-.524-.525 1.498 1.498 0 00-.77-.194c-.306 0-.576.071-.812.213a1.484 1.484 0 00-.549.563c-.132.233-.2.493-.202.78v1.186c0 .36.066.67.198.932.135.262.326.463.571.605.246.142.538.212.875.212a1.9 1.9 0 00.613-.094 1.231 1.231 0 00.78-.747l1.861.123a2.552 2.552 0 01-.581 1.173c-.29.33-.664.589-1.124.775-.457.183-.985.274-1.583.274zm4.391-.142v-7.262h1.951v1.267h.075c.133-.45.355-.791.667-1.021.311-.233.67-.349 1.077-.349.1 0 .209.006.326.018.116.013.218.03.307.052v1.787a2.682 2.682 0 00-.393-.075 3.522 3.522 0 00-.458-.033c-.296 0-.561.064-.793.193a1.44 1.44 0 00-.549.53 1.544 1.544 0 00-.198.785v4.108h-2.012zm8.016 0v-7.262h1.918v1.282h.085c.151-.426.403-.761.756-1.008.352-.245.775-.368 1.266-.368.498 0 .921.124 1.271.373.349.246.582.58.699 1.003h.075c.148-.416.416-.749.803-.998.391-.252.852-.378 1.384-.378.677 0 1.227.216 1.649.647.425.429.637 1.038.637 1.825v4.884h-2.007v-4.486c0-.404-.107-.707-.321-.908a1.125 1.125 0 00-.803-.303c-.365 0-.65.117-.855.35-.205.23-.307.534-.307.913v4.434h-1.951v-4.529c0-.356-.102-.64-.307-.851-.202-.211-.468-.317-.799-.317a1.11 1.11 0 00-.604.17 1.162 1.162 0 00-.42.469 1.471 1.471 0 00-.157.699v4.359h-2.012zm11.88 0v-7.262h2.013v7.262h-2.013zm1.011-8.198c-.299 0-.556-.099-.77-.297a.968.968 0 01-.316-.724c0-.277.105-.515.316-.714.214-.202.471-.303.77-.303.3 0 .555.101.766.303a.942.942 0 01.321.714c0 .28-.107.522-.321.724a1.078 1.078 0 01-.766.297zm5.639 8.34c-.743 0-1.382-.157-1.917-.473a3.191 3.191 0 01-1.229-1.323c-.283-.565-.425-1.214-.425-1.948 0-.744.143-1.396.43-1.958a3.204 3.204 0 011.233-1.319c.532-.318 1.165-.477 1.899-.477.633 0 1.187.115 1.663.345.475.23.852.553 1.129.969.277.416.43.905.458 1.466h-1.899c-.054-.362-.196-.654-.425-.875-.227-.224-.524-.336-.893-.336-.312 0-.584.086-.817.256-.23.167-.409.411-.539.732-.129.322-.194.711-.194 1.169 0 .463.064.857.189 1.181.13.325.311.572.544.742.233.171.505.256.817.256.23 0 .436-.048.619-.142.185-.095.338-.232.458-.411.123-.183.203-.402.241-.657h1.899a2.99 2.99 0 01-.453 1.465 2.738 2.738 0 01-1.111.983c-.472.237-1.031.355-1.677.355z" fill="#333"/><path d="M481.65 296.229H325.904a3.328 3.328 0 00-3.326 3.329v29.401a3.327 3.327 0 003.326 3.328H481.65a3.327 3.327 0 003.326-3.328v-29.401a3.328 3.328 0 00-3.326-3.329z" fill="#4ECB71" stroke="#000" stroke-opacity=".2" stroke-width="4" stroke-miterlimit="0"/><path d="M385.713 319.528v-9.683h6.405v1.688h-4.36v2.307h3.935v1.688h-3.935v4h-2.045zm7.491 0v-7.262h2.012v7.262h-2.012zm1.011-8.198c-.3 0-.556-.099-.77-.298a.967.967 0 01-.317-.723c0-.278.106-.516.317-.714.214-.202.47-.303.77-.303.299 0 .554.101.765.303a.939.939 0 01.321.714.96.96 0 01-.321.723 1.074 1.074 0 01-.765.298zm4.373 4v4.198h-2.013v-7.262h1.918v1.281h.085a2.03 2.03 0 01.808-1.002c.378-.249.836-.373 1.374-.373.504 0 .944.11 1.318.33.375.221.667.536.875.946.207.407.311.892.311 1.456v4.624h-2.012v-4.265c.003-.444-.11-.791-.34-1.039-.23-.253-.547-.379-.95-.379-.271 0-.51.059-.718.175a1.225 1.225 0 00-.482.51 1.776 1.776 0 00-.174.8zm6.01 4.198v-7.262h2.012v7.262h-2.012zm1.011-8.198c-.3 0-.556-.099-.771-.298a.97.97 0 01-.316-.723c0-.278.106-.516.316-.714.215-.202.471-.303.771-.303.298 0 .554.101.764.303a.936.936 0 01.322.714c0 .28-.107.521-.322.723-.21.199-.466.298-.764.298zm8.397 3.007l-1.842.113a.945.945 0 00-.204-.425 1.063 1.063 0 00-.41-.307 1.393 1.393 0 00-.6-.119c-.312 0-.575.067-.789.199-.214.129-.321.302-.321.52 0 .173.069.32.208.44.138.119.376.216.713.288l1.313.265c.706.145 1.232.378 1.578.699.346.322.519.744.519 1.267 0 .476-.14.894-.42 1.254-.277.359-.658.639-1.143.841-.482.199-1.038.298-1.667.298-.961 0-1.726-.2-2.297-.601a2.339 2.339 0 01-.996-1.645l1.979-.104c.06.293.205.517.434.671.23.152.525.227.884.227.352 0 .636-.067.85-.203.217-.138.328-.317.331-.534a.552.552 0 00-.232-.449c-.151-.12-.384-.212-.699-.274l-1.256-.251c-.709-.142-1.236-.388-1.582-.738-.344-.349-.515-.795-.515-1.338 0-.466.125-.868.377-1.205.256-.338.613-.598 1.073-.78.462-.183 1.004-.274 1.625-.274.916 0 1.637.193 2.163.581.529.388.838.915.926 1.584zm3.192.993v4.198h-2.012v-9.683h1.956v3.702h.084c.164-.428.429-.764.794-1.007.365-.246.824-.368 1.375-.368.503 0 .943.11 1.318.33.378.218.67.532.878.941.211.407.315.894.312 1.461v4.624h-2.012v-4.265c.003-.447-.111-.795-.341-1.044-.226-.249-.544-.374-.953-.374-.275 0-.517.059-.728.175a1.24 1.24 0 00-.491.51 1.724 1.724 0 00-.18.8zm-82.521-87.256h3.818l3.676 6.95h.158l3.677-6.95h3.818l-5.881 10.433v5.705h-3.386v-5.705l-5.88-10.433zm19.389 16.374c-1.223 0-2.28-.26-3.173-.78a5.328 5.328 0 01-2.054-2.191c-.483-.94-.725-2.03-.725-3.269 0-1.251.242-2.344.725-3.278a5.262 5.262 0 012.054-2.191c.893-.525 1.95-.788 3.173-.788s2.278.263 3.165.788c.893.52 1.58 1.25 2.063 2.191.483.934.724 2.027.724 3.278 0 1.239-.241 2.329-.724 3.269a5.317 5.317 0 01-2.063 2.191c-.887.52-1.942.78-3.165.78zm.016-2.6c.556 0 1.021-.158 1.393-.473.373-.32.654-.757.843-1.308.194-.551.291-1.179.291-1.883s-.097-1.332-.291-1.884c-.189-.551-.47-.987-.843-1.308-.372-.32-.837-.48-1.393-.48-.562 0-1.034.16-1.417.48-.378.321-.664.757-.858 1.308-.189.552-.284 1.18-.284 1.884s.095 1.332.284 1.883c.194.551.48.988.858 1.308.383.315.855.473 1.417.473zm15.384-2.789v-6.951h3.354v12.104h-3.22v-2.199h-.126a3.572 3.572 0 01-1.362 1.71c-.63.431-1.399.647-2.307.647-.808 0-1.519-.185-2.133-.552a3.795 3.795 0 01-1.441-1.568c-.341-.678-.515-1.49-.52-2.435v-7.707h3.354v7.108c.005.715.197 1.279.575 1.694.378.415.884.623 1.519.623a2.41 2.41 0 001.134-.276 2.17 2.17 0 00.85-.835c.221-.368.328-.823.323-1.363zm8.685-10.985v1.702c0 .483-.095.977-.284 1.481-.184.5-.43.972-.74 1.419a5.85 5.85 0 01-1.016 1.126l-1.48-.874c.263-.415.493-.875.693-1.379.204-.504.307-1.09.307-1.757v-1.718h2.52zm1.269 16.138v-12.104h3.252v2.112h.126c.22-.751.59-1.318 1.11-1.702a2.915 2.915 0 011.795-.583 5.071 5.071 0 011.055.118v2.979a4.345 4.345 0 00-.654-.126 5.823 5.823 0 00-.763-.056c-.494 0-.935.108-1.323.324a2.38 2.38 0 00-.913.882 2.548 2.548 0 00-.331 1.308v6.848h-3.354zm13.533.236c-1.245 0-2.316-.252-3.213-.756a5.19 5.19 0 01-2.063-2.159c-.483-.936-.724-2.041-.724-3.318 0-1.245.241-2.337.724-3.278a5.36 5.36 0 012.039-2.198c.882-.525 1.916-.788 3.102-.788.798 0 1.541.128 2.229.386a4.936 4.936 0 011.81 1.143c.52.509.924 1.15 1.213 1.922.288.767.433 1.666.433 2.695v.922h-10.212v-2.08h7.055c0-.484-.105-.912-.315-1.285a2.26 2.26 0 00-.874-.874c-.367-.216-.795-.324-1.284-.324-.508 0-.96.119-1.354.355a2.484 2.484 0 00-.913.938c-.22.389-.333.822-.338 1.3v1.978c0 .598.11 1.116.33 1.552.226.436.543.772.953 1.009.409.236.895.355 1.456.355.373 0 .714-.053 1.024-.158.309-.105.574-.263.795-.473a2.06 2.06 0 00.504-.772l3.102.204a4.245 4.245 0 01-.968 1.955c-.483.552-1.108.982-1.874 1.292-.761.305-1.64.457-2.637.457zm15.343-.008c-.772 0-1.46-.134-2.063-.402a3.323 3.323 0 01-1.433-1.205c-.347-.536-.519-1.203-.519-2.002 0-.672.123-1.237.369-1.694a2.999 2.999 0 011.008-1.103 4.856 4.856 0 011.449-.63 11.046 11.046 0 011.716-.3c.704-.074 1.27-.142 1.701-.204.43-.069.742-.169.936-.3.195-.132.292-.326.292-.583v-.047c0-.499-.157-.886-.472-1.159-.31-.273-.751-.409-1.323-.409-.604 0-1.084.133-1.441.401a1.854 1.854 0 00-.709.993l-3.101-.252a4.218 4.218 0 01.929-1.907c.461-.541 1.057-.956 1.786-1.245.735-.294 1.586-.441 2.552-.441.671 0 1.314.078 1.929.236a5.056 5.056 0 011.645.733c.483.331.863.756 1.141 1.276.279.516.418 1.133.418 1.853v8.163h-3.181v-1.679h-.094a3.413 3.413 0 01-.78 1.001 3.606 3.606 0 01-1.173.67c-.457.157-.984.236-1.582.236zm.96-2.317c.493 0 .929-.097 1.307-.291.378-.199.675-.467.89-.804.215-.336.322-.717.322-1.142v-1.285a1.77 1.77 0 01-.433.19c-.178.052-.38.102-.606.149-.226.042-.451.081-.677.119l-.614.086c-.393.058-.738.15-1.031.276a1.653 1.653 0 00-.685.512c-.163.21-.244.473-.244.788 0 .457.165.806.496 1.048.336.236.761.354 1.275.354zm11.318-14.049v16.138h-3.354v-16.138h3.354zm5.553 0v16.138h-3.354v-16.138h3.354zm16.904 7.486l-3.071.189a1.59 1.59 0 00-.338-.71 1.802 1.802 0 00-.685-.512c-.279-.131-.612-.196-1-.196-.52 0-.958.11-1.315.331-.357.215-.535.504-.535.866 0 .289.115.533.346.733.231.2.627.36 1.189.481l2.189.441c1.175.242 2.052.63 2.629 1.166.578.536.866 1.24.866 2.112 0 .793-.234 1.489-.7 2.088-.462.599-1.098 1.067-1.906 1.403-.803.331-1.729.496-2.779.496-1.6 0-2.876-.334-3.826-1-.945-.673-1.499-1.587-1.661-2.743l3.298-.173c.1.489.342.861.725 1.119.383.252.874.378 1.472.378.588 0 1.06-.113 1.417-.339.362-.231.546-.528.551-.89a.924.924 0 00-.386-.749c-.251-.199-.64-.352-1.165-.457l-2.094-.417c-1.181-.237-2.06-.647-2.637-1.23-.572-.583-.858-1.326-.858-2.23 0-.777.209-1.447.629-2.009.425-.562 1.021-.996 1.787-1.3.772-.305 1.675-.457 2.709-.457 1.527 0 2.729.323 3.606.969.881.646 1.395 1.526 1.543 2.64zm7.41 8.888c-1.243 0-2.314-.252-3.212-.756a5.195 5.195 0 01-2.063-2.159c-.482-.936-.724-2.041-.724-3.318 0-1.245.242-2.337.724-3.278a5.362 5.362 0 012.04-2.198c.881-.525 1.916-.788 3.102-.788.797 0 1.54.128 2.228.386a4.94 4.94 0 011.811 1.143c.519.509.923 1.15 1.212 1.922.289.767.433 1.666.433 2.695v.922h-10.211v-2.08h7.054c0-.484-.105-.912-.315-1.285a2.252 2.252 0 00-.874-.874c-.367-.216-.795-.324-1.283-.324a2.58 2.58 0 00-1.354.355 2.486 2.486 0 00-.914.938c-.22.389-.333.822-.338 1.3v1.978c0 .598.11 1.116.33 1.552.226.436.544.772.953 1.009.41.236.895.355 1.457.355.372 0 .714-.053 1.023-.158.31-.105.575-.263.795-.473.221-.21.389-.468.504-.772l3.102.204a4.235 4.235 0 01-.968 1.955c-.483.552-1.108.982-1.874 1.292-.761.305-1.64.457-2.638.457zm13.684-12.34v2.522h-7.283v-2.522h7.283zm-5.629-2.899h3.354v11.284c0 .31.047.551.142.725a.776.776 0 00.393.354c.174.068.373.103.599.103.157 0 .314-.014.472-.04l.362-.071.527 2.498a9.471 9.471 0 01-.708.181 5.651 5.651 0 01-1.11.134c-.808.032-1.517-.076-2.126-.323a2.97 2.97 0 01-1.409-1.15c-.336-.52-.501-1.177-.496-1.97v-11.725zm11.333-1.135l-.307 11.3h-2.881l-.315-11.3h3.503zm-1.747 16.343c-.52 0-.966-.184-1.339-.552a1.805 1.805 0 01-.551-1.339 1.773 1.773 0 01.551-1.325 1.842 1.842 0 011.339-.551c.499 0 .936.184 1.314.551.378.368.57.81.575 1.325a1.836 1.836 0 01-.275.953 2.04 2.04 0 01-.685.685 1.791 1.791 0 01-.929.253z" fill="#333"/><path d="M420.496 184.912c0 4.61-1.83 9.03-5.087 12.29a17.355 17.355 0 01-24.559 0 17.387 17.387 0 01-5.086-12.29c0-4.61 1.829-9.031 5.086-12.29a17.358 17.358 0 0124.559 0 17.386 17.386 0 015.087 12.29zm-8.618-6.583a1.615 1.615 0 00-1.183-.475 1.62 1.62 0 00-1.161.522l-7.539 9.615-4.544-4.55a1.623 1.623 0 00-2.261.04 1.63 1.63 0 00-.04 2.263l5.744 5.751a1.616 1.616 0 001.18.476 1.632 1.632 0 001.162-.519l8.666-10.842a1.634 1.634 0 00-.022-2.281h-.002z" fill="#000"/><path d="M372.297 272.376v-6.455h.973v5.616h2.923v.839h-3.896zm4.832 0v-4.842h.942v4.842h-.942zm.476-5.589a.597.597 0 01-.422-.164.53.53 0 01-.173-.397c0-.156.057-.288.173-.397a.596.596 0 01.422-.167c.164 0 .303.056.419.167a.519.519 0 01.176.397.527.527 0 01-.176.397.585.585 0 01-.419.164zm5.26 1.929l-.854.151a.998.998 0 00-.169-.311.845.845 0 00-.309-.243 1.103 1.103 0 00-.488-.095c-.267 0-.489.06-.668.18-.178.118-.267.27-.267.457 0 .162.06.292.179.391.119.098.313.179.579.242l.769.177c.445.103.777.261.995.476.219.214.328.493.328.835 0 .29-.085.549-.252.775a1.647 1.647 0 01-.697.53 2.574 2.574 0 01-1.029.192c-.542 0-.984-.115-1.326-.347a1.467 1.467 0 01-.63-.993l.91-.138a.877.877 0 00.35.539c.176.12.406.18.689.18.309 0 .556-.065.74-.193.186-.13.278-.289.278-.476a.496.496 0 00-.17-.381c-.111-.103-.283-.181-.514-.233l-.819-.18c-.451-.103-.785-.267-1.001-.492-.214-.224-.321-.509-.321-.854 0-.286.08-.536.239-.75.16-.214.38-.381.662-.501.281-.122.603-.183.966-.183.523 0 .935.114 1.235.341.3.224.498.526.595.904zm3.29-1.182v.756h-2.642v-.756h2.642zm-1.933-1.16h.941v4.58c0 .183.028.32.082.413.055.09.125.152.211.186a.86.86 0 00.287.047c.075 0 .142-.005.198-.016l.133-.025.17.779a1.506 1.506 0 01-.234.062 1.764 1.764 0 01-.378.039 1.65 1.65 0 01-.692-.133 1.182 1.182 0 01-.52-.429c-.132-.193-.198-.436-.198-.727v-4.776zm4.91 6.099c-.477 0-.887-.102-1.231-.305a2.067 2.067 0 01-.794-.868c-.184-.373-.277-.812-.277-1.314 0-.496.093-.933.277-1.311.187-.378.447-.673.781-.885.336-.213.728-.319 1.178-.319.273 0 .538.046.794.135.256.091.486.233.689.426.204.194.364.445.482.753.118.307.177.68.177 1.119v.335h-3.846v-.706h2.923a1.39 1.39 0 00-.152-.659 1.129 1.129 0 00-.425-.457 1.18 1.18 0 00-.636-.168c-.264 0-.495.066-.693.196a1.31 1.31 0 00-.453.504c-.105.206-.158.43-.158.672v.551c0 .324.057.599.171.826.115.227.276.401.481.52.206.118.446.177.721.177.179 0 .342-.026.489-.076.147-.052.273-.13.381-.233.107-.103.188-.23.246-.382l.891.161c-.072.263-.2.493-.385.69a1.845 1.845 0 01-.689.457 2.563 2.563 0 01-.942.161zm3.964-2.972v2.875h-.941v-4.842h.903v.788h.06c.112-.256.286-.462.523-.617.239-.156.541-.234.904-.234.33 0 .618.069.866.208.248.137.44.341.576.611.137.272.205.607.205 1.006v3.08h-.942v-2.967c0-.35-.091-.624-.274-.822-.182-.199-.433-.299-.752-.299-.218 0-.413.047-.583.141a1.03 1.03 0 00-.4.416c-.096.181-.145.4-.145.656zm8.768-1.967v.756h-2.642v-.756h2.642zm-1.933-1.16h.942v4.58c0 .183.027.32.081.413.055.09.126.152.211.186a.864.864 0 00.287.047c.075 0 .142-.005.198-.016l.133-.025.169.779a1.44 1.44 0 01-.232.062 1.771 1.771 0 01-.378.039 1.651 1.651 0 01-.693-.133 1.174 1.174 0 01-.519-.429c-.133-.193-.199-.436-.199-.727v-4.776zm4.863 6.099c-.453 0-.849-.104-1.187-.312a2.113 2.113 0 01-.788-.873c-.186-.374-.28-.811-.28-1.311 0-.502.094-.942.28-1.318.188-.376.45-.668.788-.876.338-.208.734-.312 1.187-.312.454 0 .849.104 1.187.312.338.208.601.5.787.876.188.376.281.816.281 1.318 0 .5-.093.937-.281 1.311a2.097 2.097 0 01-.787.873c-.338.208-.733.312-1.187.312zm.003-.791c.294 0 .538-.078.731-.233a1.37 1.37 0 00.428-.621 2.46 2.46 0 00.142-.854c0-.309-.047-.593-.142-.851a1.378 1.378 0 00-.428-.627c-.193-.158-.437-.237-.731-.237-.296 0-.542.079-.737.237a1.399 1.399 0 00-.431.627 2.52 2.52 0 00-.138.851c0 .311.046.595.138.854.094.258.238.465.431.621.195.155.441.233.737.233zm7.713-4.148v.756h-2.642v-.756h2.642zm-1.934-1.16h.942v4.58c0 .183.027.32.082.413.054.09.125.152.211.186a.858.858 0 00.286.047c.076 0 .142-.005.198-.016l.133-.025.17.779a1.488 1.488 0 01-.233.062 1.771 1.771 0 01-.378.039 1.647 1.647 0 01-.692-.133 1.177 1.177 0 01-.52-.429c-.133-.193-.199-.436-.199-.727v-4.776zm3.923 3.127v2.875h-.941v-6.455h.929v2.401h.06c.113-.261.286-.468.519-.621.234-.153.538-.23.914-.23.331 0 .621.068.869.205.25.137.443.34.579.612.138.269.208.605.208 1.008v3.08h-.941v-2.967c0-.355-.092-.63-.275-.825-.182-.198-.436-.296-.762-.296-.222 0-.422.047-.598.141a1.034 1.034 0 00-.413.416c-.098.181-.148.4-.148.656zm6.381 2.972c-.477 0-.888-.102-1.232-.305a2.071 2.071 0 01-.793-.868c-.185-.373-.278-.812-.278-1.314 0-.496.093-.933.278-1.311.187-.378.447-.673.781-.885.336-.213.728-.319 1.177-.319a2.4 2.4 0 01.794.135c.256.091.486.233.69.426.203.194.364.445.482.753.117.307.176.68.176 1.119v.335h-3.845v-.706h2.922c0-.248-.05-.468-.151-.659a1.136 1.136 0 00-.425-.457 1.182 1.182 0 00-.636-.168c-.264 0-.496.066-.693.196a1.31 1.31 0 00-.453.504c-.106.206-.158.43-.158.672v.551c0 .324.057.599.17.826.116.227.277.401.482.52.206.118.446.177.721.177.179 0 .341-.026.489-.076a1.016 1.016 0 00.626-.615l.891.161a1.603 1.603 0 01-.384.69 1.853 1.853 0 01-.689.457 2.57 2.57 0 01-.942.161zm5.271-.097v-4.842h.911v.769h.05c.089-.261.244-.465.466-.614a1.33 1.33 0 01.762-.227 4.23 4.23 0 01.4.022v.901a1.802 1.802 0 00-.201-.035 2.02 2.02 0 00-.29-.021 1.23 1.23 0 00-.595.141 1.062 1.062 0 00-.561.949v2.957h-.942zm5.218.097c-.476 0-.887-.102-1.231-.305a2.074 2.074 0 01-.794-.868c-.185-.373-.277-.812-.277-1.314 0-.496.092-.933.277-1.311.187-.378.447-.673.781-.885.336-.213.729-.319 1.178-.319.273 0 .537.046.793.135.257.091.486.233.69.426a2 2 0 01.482.753c.118.307.176.68.176 1.119v.335h-3.845v-.706h2.922a1.39 1.39 0 00-.15-.659 1.142 1.142 0 00-.425-.457 1.185 1.185 0 00-.637-.168c-.264 0-.495.066-.693.196a1.31 1.31 0 00-.453.504c-.105.206-.157.43-.157.672v.551c0 .324.056.599.17.826.115.227.276.401.482.52.205.118.446.177.721.177.178 0 .341-.026.488-.076a1.002 1.002 0 00.626-.615l.891.161c-.07.263-.199.493-.384.69a1.845 1.845 0 01-.689.457 2.563 2.563 0 01-.942.161zm6.647-3.757l-.853.151a1.001 1.001 0 00-.17-.311.85.85 0 00-.308-.243 1.11 1.11 0 00-.489-.095c-.266 0-.489.06-.668.18-.178.118-.267.27-.267.457a.48.48 0 00.179.391c.12.098.313.179.58.242l.768.177c.445.103.777.261.996.476.217.214.327.493.327.835 0 .29-.084.549-.252.775a1.65 1.65 0 01-.696.53 2.575 2.575 0 01-1.03.192c-.541 0-.983-.115-1.326-.347a1.462 1.462 0 01-.629-.993l.91-.138a.872.872 0 00.349.539c.177.12.407.18.69.18.309 0 .555-.065.74-.193.184-.13.277-.289.277-.476a.496.496 0 00-.17-.381c-.111-.103-.282-.181-.513-.233l-.819-.18c-.452-.103-.785-.267-1.002-.492-.214-.224-.32-.509-.32-.854 0-.286.079-.536.238-.75.16-.214.381-.381.662-.501a2.41 2.41 0 01.967-.183c.522 0 .934.114 1.234.341.301.224.499.526.595.904zm4.097 1.652v-2.834h.944v4.842h-.925v-.839h-.051c-.111.259-.29.474-.535.646-.243.17-.547.256-.91.256-.311 0-.586-.068-.825-.205a1.442 1.442 0 01-.561-.615c-.134-.271-.202-.606-.202-1.005v-3.08h.942v2.966c0 .33.092.592.274.788.183.196.42.293.712.293a1.157 1.157 0 00.963-.532c.118-.179.176-.406.174-.681zm3.054-4.447v6.455h-.942v-6.455h.942zm3.427 1.613v.756h-2.642v-.756h2.642zm-1.933-1.16h.941v4.58c0 .183.027.32.082.413.055.09.125.152.211.186a.855.855 0 00.287.047c.075 0 .141-.005.198-.016.056-.01.101-.018.132-.025l.17.779a1.458 1.458 0 01-.233.062 1.771 1.771 0 01-.378.039 1.651 1.651 0 01-.693-.133 1.18 1.18 0 01-.519-.429c-.132-.193-.198-.436-.198-.727v-4.776zm-75.071 7.767h77.411v.605H371.59v-.605z" fill="#333"/><path d="M360.822 263.5a5.547 5.547 0 00-5.543 5.547 5.547 5.547 0 005.543 5.548 5.547 5.547 0 005.542-5.548 5.547 5.547 0 00-5.542-5.547zm-1.109 8.044v-4.993l3.326 2.496-3.326 2.497z" fill="#000"/><path d="M255.822 431.636l.06-1.33-1.121.721-.343-.598 1.19-.609-1.19-.608.343-.599 1.121.722-.06-1.331h.684l-.06 1.331 1.121-.722.343.599-1.19.608 1.19.609-.343.598-1.121-.721.06 1.33h-.684zm4.238-3.632v6.456h-.974v-6.456h.974zm3.546 1.614v.757h-2.734v-.757h2.734zm-1.984 4.842v-5.403c0-.302.066-.553.198-.753.133-.202.308-.352.526-.45.218-.101.456-.152.712-.152a2.325 2.325 0 01.784.129l-.221.763a3.506 3.506 0 00-.17-.044.957.957 0 00-.251-.029c-.229 0-.393.057-.492.171-.096.113-.145.277-.145.491v5.277h-.941zm5.702 1.815a1.98 1.98 0 01-.384-.034 1.207 1.207 0 01-.258-.07l.227-.772c.172.046.325.066.459.06a.554.554 0 00.356-.151c.105-.095.197-.249.277-.464l.117-.321-1.77-4.905h1.008l1.225 3.757h.05l1.225-3.757h1.011l-1.993 5.488c-.092.252-.21.465-.353.64a1.376 1.376 0 01-.51.397 1.677 1.677 0 01-.687.132zm6.204-1.717c-.454 0-.85-.105-1.188-.313a2.098 2.098 0 01-.787-.873c-.187-.374-.28-.811-.28-1.311 0-.502.093-.941.28-1.317.187-.376.449-.669.787-.877.338-.208.734-.311 1.188-.311.453 0 .849.103 1.187.311.338.208.6.501.787.877.187.376.28.815.28 1.317 0 .5-.093.937-.28 1.311a2.098 2.098 0 01-.787.873c-.338.208-.734.313-1.187.313zm.002-.791c.295 0 .538-.079.732-.234.192-.155.335-.362.427-.621.095-.258.142-.543.142-.854 0-.309-.047-.593-.142-.851a1.384 1.384 0 00-.427-.627c-.194-.158-.437-.237-.732-.237-.296 0-.541.079-.736.237a1.4 1.4 0 00-.432.627 2.52 2.52 0 00-.138.851c0 .311.046.596.138.854.095.259.238.466.432.621.195.155.44.234.736.234zm6.27-1.315v-2.834h.945v4.842h-.926v-.839h-.05a1.51 1.51 0 01-.536.646c-.244.171-.547.256-.91.256a1.64 1.64 0 01-.825-.205 1.442 1.442 0 01-.561-.615c-.134-.271-.201-.606-.201-1.005v-3.08h.941v2.966c0 .33.092.593.274.788a.93.93 0 00.712.294c.177 0 .352-.045.526-.133a1.11 1.11 0 00.438-.4c.117-.179.175-.405.173-.681zm2.112 2.008v-4.842h.911v.77h.05c.088-.261.243-.466.466-.615.225-.151.478-.227.762-.227a4.23 4.23 0 01.4.022v.901a1.971 1.971 0 00-.201-.034 1.897 1.897 0 00-.29-.022 1.22 1.22 0 00-.595.142 1.046 1.046 0 00-.561.948v2.957h-.942zm9.181-3.66l-.854.152a1.01 1.01 0 00-.17-.313.837.837 0 00-.309-.242 1.114 1.114 0 00-.488-.095c-.267 0-.489.06-.667.18-.179.118-.268.27-.268.457 0 .162.06.292.179.391.12.099.313.179.58.243l.768.176c.446.103.777.262.995.476.219.215.328.493.328.835 0 .29-.084.549-.252.776a1.649 1.649 0 01-.696.529 2.575 2.575 0 01-1.03.193c-.541 0-.984-.116-1.325-.347a1.467 1.467 0 01-.631-.993l.91-.139a.874.874 0 00.35.539c.176.12.406.18.69.18.308 0 .555-.064.74-.192.185-.131.277-.289.277-.476a.496.496 0 00-.17-.382c-.111-.103-.283-.18-.513-.233l-.819-.18c-.451-.103-.785-.267-1.001-.491-.215-.225-.322-.51-.322-.854 0-.286.08-.536.24-.75.159-.215.38-.382.661-.502.281-.121.603-.182.967-.182.523 0 .934.113 1.234.34.3.225.499.526.596.904zm4.096 1.652v-2.834h.945v4.842h-.926v-.839h-.05a1.51 1.51 0 01-.536.646c-.244.171-.547.256-.91.256a1.64 1.64 0 01-.825-.205 1.442 1.442 0 01-.561-.615c-.134-.271-.201-.606-.201-1.005v-3.08h.941v2.966c0 .33.092.593.274.788a.93.93 0 00.712.294c.176 0 .352-.045.526-.133a1.11 1.11 0 00.438-.4c.117-.179.175-.405.173-.681zm2.112 2.008v-4.842h.911v.77h.05c.088-.261.243-.466.466-.615.225-.151.478-.227.762-.227a4.264 4.264 0 01.4.022v.901a1.953 1.953 0 00-.202-.034 1.875 1.875 0 00-.289-.022 1.22 1.22 0 00-.595.142 1.046 1.046 0 00-.561.948v2.957h-.942zm3.306 0v-4.842h.91v.77h.051c.088-.261.243-.466.466-.615.224-.151.479-.227.762-.227a4.23 4.23 0 01.4.022v.901a1.953 1.953 0 00-.202-.034 1.878 1.878 0 00-.29-.022c-.222 0-.42.047-.595.142a1.05 1.05 0 00-.56.948v2.957h-.942zm5.17.098c-.453 0-.849-.105-1.187-.313a2.098 2.098 0 01-.787-.873c-.187-.374-.281-.811-.281-1.311 0-.502.094-.941.281-1.317.187-.376.449-.669.787-.877.338-.208.734-.311 1.187-.311.454 0 .85.103 1.187.311.339.208.601.501.788.877.187.376.28.815.28 1.317 0 .5-.093.937-.28 1.311a2.093 2.093 0 01-.788.873c-.337.208-.733.313-1.187.313zm.004-.791c.293 0 .537-.079.73-.234a1.36 1.36 0 00.428-.621c.095-.258.142-.543.142-.854 0-.309-.047-.593-.142-.851a1.378 1.378 0 00-.428-.627c-.193-.158-.437-.237-.73-.237-.296 0-.542.079-.737.237a1.4 1.4 0 00-.432.627 2.52 2.52 0 00-.138.851c0 .311.046.596.138.854.095.259.238.466.432.621.195.155.441.234.737.234zm6.269-1.315v-2.834h.945v4.842h-.926v-.839h-.05a1.51 1.51 0 01-.536.646c-.244.171-.547.256-.91.256a1.64 1.64 0 01-.825-.205 1.434 1.434 0 01-.56-.615c-.135-.271-.202-.606-.202-1.005v-3.08h.941v2.966c0 .33.092.593.274.788a.93.93 0 00.712.294c.176 0 .352-.045.526-.133a1.11 1.11 0 00.438-.4c.117-.179.175-.405.173-.681zm3.054-.867v2.875h-.941v-4.842h.903v.788h.06c.111-.256.285-.462.523-.617.239-.156.54-.233.904-.233.329 0 .618.069.866.208.248.136.439.34.576.611.137.271.205.606.205 1.006v3.079h-.942v-2.966c0-.351-.091-.625-.274-.823-.183-.2-.434-.299-.752-.299-.219 0-.413.047-.583.142a1.017 1.017 0 00-.4.416c-.097.18-.145.399-.145.655zm6.072 2.969c-.391 0-.739-.1-1.046-.299a2.038 2.038 0 01-.718-.861c-.172-.374-.258-.822-.258-1.345 0-.524.087-.971.261-1.343.177-.372.418-.657.725-.854a1.877 1.877 0 011.042-.296c.3 0 .542.05.724.15.185.099.328.215.429.347.103.133.182.249.239.35h.057v-2.399h.941v6.456h-.919v-.753h-.079c-.057.102-.139.22-.246.352-.105.133-.25.248-.434.347-.185.099-.425.148-.718.148zm.207-.804c.271 0 .5-.071.687-.214.189-.144.332-.345.428-.602.099-.256.148-.554.148-.895 0-.336-.048-.63-.145-.883a1.297 1.297 0 00-.425-.589 1.118 1.118 0 00-.693-.211c-.283 0-.519.073-.708.221a1.344 1.344 0 00-.428.602 2.443 2.443 0 00-.142.86c0 .323.048.615.145.873.096.259.239.463.428.615.191.149.426.223.705.223zm3.436.71v-4.842h.941v4.842h-.941zm.475-5.588a.595.595 0 01-.422-.165.533.533 0 01-.173-.397c0-.155.058-.288.173-.397a.592.592 0 01.422-.167c.164 0 .303.056.419.167a.524.524 0 01.176.397.529.529 0 01-.176.397.586.586 0 01-.419.165zm2.577 2.713v2.875h-.942v-4.842h.904v.788h.06c.111-.256.286-.462.523-.617.239-.156.54-.233.904-.233.329 0 .618.069.866.208.247.136.44.34.576.611.136.271.205.606.205 1.006v3.079h-.942v-2.966c0-.351-.091-.625-.274-.823-.183-.2-.433-.299-.753-.299-.218 0-.412.047-.582.142a1.01 1.01 0 00-.4.416c-.097.18-.145.399-.145.655zm6.289 4.791c-.384 0-.715-.05-.992-.151a1.936 1.936 0 01-.674-.4 1.698 1.698 0 01-.391-.546l.81-.334c.057.092.132.19.227.293.096.105.227.194.39.268.166.074.379.111.64.111.357 0 .651-.088.884-.262.234-.172.35-.448.35-.826v-.952h-.06a2.098 2.098 0 01-.245.344c-.106.126-.25.235-.435.328-.185.092-.425.138-.721.138-.383 0-.727-.089-1.033-.268a1.901 1.901 0 01-.725-.797c-.176-.353-.264-.787-.264-1.302s.087-.956.261-1.323c.177-.368.418-.65.724-.845a1.88 1.88 0 011.043-.296c.3 0 .543.05.727.15.185.099.329.215.432.347.105.133.186.249.242.35h.069v-.785h.923v4.949c0 .416-.096.757-.29 1.024a1.697 1.697 0 01-.783.593 3.032 3.032 0 01-1.109.192zm-.009-2.77c.27 0 .499-.064.686-.189.189-.129.332-.312.428-.549a2.25 2.25 0 00.148-.861c0-.325-.048-.612-.144-.86a1.29 1.29 0 00-.425-.58 1.12 1.12 0 00-.693-.211c-.284 0-.52.073-.709.221a1.333 1.333 0 00-.429.592c-.094.25-.141.529-.141.838 0 .318.048.596.145.836.096.24.239.426.428.561.191.135.426.202.706.202zm9.231-2.806l-.854.152a.99.99 0 00-.17-.313.842.842 0 00-.308-.242 1.12 1.12 0 00-.488-.095c-.267 0-.49.06-.668.18-.179.118-.268.27-.268.457 0 .162.06.292.18.391.119.099.312.179.579.243l.769.176c.445.103.776.262.995.476.218.215.327.493.327.835 0 .29-.084.549-.251.776a1.652 1.652 0 01-.697.529 2.573 2.573 0 01-1.029.193c-.542 0-.984-.116-1.326-.347a1.466 1.466 0 01-.63-.993l.91-.139a.873.873 0 00.349.539c.177.12.407.18.69.18.309 0 .555-.064.74-.192.185-.131.278-.289.278-.476a.494.494 0 00-.171-.382c-.111-.103-.282-.18-.513-.233l-.818-.18c-.452-.103-.786-.267-1.002-.491-.215-.225-.322-.51-.322-.854 0-.286.08-.536.24-.75.16-.215.38-.382.661-.502.282-.121.604-.182.967-.182.523 0 .934.113 1.235.34.3.225.498.526.595.904zm3.069 3.758c-.453 0-.849-.105-1.187-.313a2.098 2.098 0 01-.787-.873c-.187-.374-.28-.811-.28-1.311 0-.502.093-.941.28-1.317.187-.376.449-.669.787-.877.338-.208.734-.311 1.187-.311.454 0 .85.103 1.188.311.338.208.6.501.787.877.187.376.28.815.28 1.317 0 .5-.093.937-.28 1.311a2.098 2.098 0 01-.787.873c-.338.208-.734.313-1.188.313zm.004-.791c.294 0 .537-.079.73-.234.194-.155.336-.362.429-.621a2.48 2.48 0 00.141-.854 2.47 2.47 0 00-.141-.851 1.38 1.38 0 00-.429-.627c-.193-.158-.436-.237-.73-.237-.296 0-.542.079-.737.237a1.408 1.408 0 00-.432.627 2.52 2.52 0 00-.138.851c0 .311.046.596.138.854.095.259.239.466.432.621.195.155.441.234.737.234zm6.269-1.315v-2.834h.945v4.842h-.926v-.839h-.051a1.5 1.5 0 01-.535.646c-.243.171-.547.256-.91.256-.31 0-.586-.069-.825-.205a1.442 1.442 0 01-.561-.615c-.134-.271-.201-.606-.201-1.005v-3.08h.942v2.966c0 .33.091.593.274.788a.926.926 0 00.711.294c.176 0 .352-.045.526-.133a1.11 1.11 0 00.438-.4c.118-.179.175-.405.173-.681zm3.054-.867v2.875h-.942v-4.842h.904v.788h.06c.112-.256.286-.462.523-.617.239-.156.54-.233.904-.233.329 0 .618.069.866.208.247.136.44.34.576.611.136.271.204.606.204 1.006v3.079h-.941v-2.966c0-.351-.091-.625-.274-.823-.182-.2-.433-.299-.753-.299-.218 0-.412.047-.582.142a1.017 1.017 0 00-.4.416c-.097.18-.145.399-.145.655zm6.072 2.969c-.391 0-.739-.1-1.046-.299a2.038 2.038 0 01-.718-.861c-.172-.374-.258-.822-.258-1.345 0-.524.087-.971.262-1.343.176-.372.417-.657.724-.854a1.874 1.874 0 011.042-.296c.3 0 .541.05.724.15.185.099.328.215.429.347.102.133.182.249.239.35h.057v-2.399h.941v6.456h-.919v-.753h-.079a2.48 2.48 0 01-.246.352 1.355 1.355 0 01-.434.347c-.185.099-.424.148-.718.148zm.208-.804c.27 0 .499-.071.686-.214.189-.144.332-.345.428-.602.099-.256.148-.554.148-.895 0-.336-.048-.63-.144-.883a1.312 1.312 0 00-.425-.589 1.118 1.118 0 00-.693-.211c-.284 0-.52.073-.709.221a1.344 1.344 0 00-.428.602 2.443 2.443 0 00-.142.86c0 .323.048.615.145.873.097.259.239.463.428.615.191.149.426.223.706.223zm7.059-2.95l-.853.152a1.01 1.01 0 00-.17-.313.846.846 0 00-.309-.242 1.117 1.117 0 00-.488-.095c-.266 0-.489.06-.667.18-.179.118-.268.27-.268.457 0 .162.06.292.179.391.12.099.313.179.58.243l.768.176c.445.103.777.262.995.476.219.215.328.493.328.835 0 .29-.084.549-.252.776a1.649 1.649 0 01-.696.529 2.575 2.575 0 01-1.03.193c-.542 0-.983-.116-1.326-.347a1.47 1.47 0 01-.63-.993l.911-.139a.869.869 0 00.349.539c.177.12.407.18.69.18.309 0 .555-.064.74-.192.185-.131.277-.289.277-.476a.496.496 0 00-.17-.382c-.111-.103-.282-.18-.514-.233l-.818-.18c-.451-.103-.786-.267-1.002-.491-.214-.225-.321-.51-.321-.854 0-.286.08-.536.24-.75.159-.215.379-.382.661-.502.281-.121.604-.182.967-.182.522 0 .934.113 1.234.34.3.225.499.526.595.904zm5.319 3.758c-.468 0-.871-.107-1.209-.319a2.1 2.1 0 01-.774-.886 2.941 2.941 0 01-.271-1.292c0-.492.092-.926.277-1.302.184-.378.445-.673.781-.885.336-.213.731-.318 1.187-.318.368 0 .695.068.983.204.287.134.519.324.695.568a1.7 1.7 0 01.318.854h-.916a1.09 1.09 0 00-.346-.586c-.179-.165-.418-.246-.718-.246-.263 0-.493.069-.69.208a1.343 1.343 0 00-.457.586 2.245 2.245 0 00-.163.895c0 .353.053.658.161.914.107.257.257.455.453.596.197.14.429.211.696.211.178 0 .34-.032.485-.098a.979.979 0 00.368-.287c.101-.123.171-.272.211-.447h.916a1.784 1.784 0 01-.305.839c-.17.245-.398.438-.683.579a2.221 2.221 0 01-.999.212zm3.839-2.973v2.875h-.942v-6.456h.929v2.402h.06c.113-.26.286-.467.52-.62.233-.154.537-.23.913-.23.332 0 .621.068.869.204.25.137.443.341.579.612.139.269.208.605.208 1.009v3.079h-.941v-2.966c0-.355-.092-.63-.274-.826-.183-.198-.437-.296-.762-.296-.223 0-.423.047-.599.142a1.02 1.02 0 00-.412.416c-.099.18-.148.399-.148.655zm5.703 2.982c-.306 0-.584-.057-.831-.17a1.416 1.416 0 01-.59-.501c-.142-.219-.213-.487-.213-.804 0-.274.052-.498.157-.675a1.17 1.17 0 01.425-.419c.179-.103.378-.181.599-.233.22-.053.445-.093.674-.12l.705-.082c.18-.023.312-.06.394-.11.081-.051.122-.132.122-.246v-.022c0-.275-.077-.488-.233-.64-.153-.151-.382-.227-.686-.227-.317 0-.567.071-.75.211-.18.139-.305.294-.374.464l-.885-.202c.104-.294.258-.532.46-.712.203-.183.437-.315.702-.398.264-.084.542-.125.834-.125.193 0 .398.022.614.069.218.044.422.126.611.246.191.119.347.291.469.513.122.221.183.508.183.861v3.215h-.919v-.662h-.039c-.06.122-.151.241-.273.359a1.48 1.48 0 01-.47.294c-.19.077-.419.116-.686.116zm.205-.757c.26 0 .482-.051.667-.154a1.057 1.057 0 00.574-.942v-.624a.513.513 0 01-.196.094 3.054 3.054 0 01-.324.073l-.356.053-.289.038c-.183.023-.35.062-.502.117a.858.858 0 00-.359.236.591.591 0 00-.132.403c0 .234.086.41.259.53.171.118.391.176.658.176zm4.28-2.225v2.875h-.942v-4.842h.904v.788h.06c.112-.256.286-.462.523-.617.239-.156.541-.233.904-.233.33 0 .618.069.866.208.247.136.44.34.576.611.136.271.205.606.205 1.006v3.079h-.942v-2.966c0-.351-.091-.625-.274-.823-.182-.2-.433-.299-.753-.299-.218 0-.412.047-.582.142a1.017 1.017 0 00-.4.416c-.097.18-.145.399-.145.655zm6.289 4.791c-.384 0-.715-.05-.992-.151a1.945 1.945 0 01-.674-.4 1.68 1.68 0 01-.39-.546l.809-.334c.057.092.133.19.227.293.096.105.227.194.391.268.165.074.378.111.639.111.357 0 .652-.088.885-.262.233-.172.349-.448.349-.826v-.952h-.06a2.098 2.098 0 01-.245.344c-.105.126-.25.235-.435.328-.184.092-.425.138-.721.138-.382 0-.727-.089-1.033-.268a1.9 1.9 0 01-.724-.797c-.177-.353-.265-.787-.265-1.302s.087-.956.262-1.323c.176-.368.418-.65.724-.845a1.88 1.88 0 011.042-.296c.301 0 .543.05.728.15.184.099.329.215.431.347.105.133.186.249.243.35h.069v-.785h.923v4.949c0 .416-.097.757-.29 1.024a1.7 1.7 0 01-.784.593 3.028 3.028 0 01-1.109.192zm-.009-2.77c.271 0 .499-.064.687-.189a1.18 1.18 0 00.427-.549 2.25 2.25 0 00.148-.861c0-.325-.048-.612-.144-.86a1.29 1.29 0 00-.425-.58 1.118 1.118 0 00-.693-.211c-.283 0-.52.073-.708.221a1.333 1.333 0 00-.429.592c-.095.25-.142.529-.142.838 0 .318.048.596.145.836.097.24.239.426.428.561.192.135.426.202.706.202zm5.442.952c-.477 0-.887-.102-1.231-.306a2.07 2.07 0 01-.794-.867c-.185-.374-.277-.812-.277-1.314 0-.496.092-.933.277-1.312.187-.378.447-.673.781-.885.336-.213.728-.318 1.178-.318.272 0 .537.044.793.135.256.09.486.232.69.425.204.194.364.445.481.754.118.306.177.679.177 1.119v.334h-3.845v-.706h2.922c0-.248-.05-.468-.151-.659a1.142 1.142 0 00-1.061-.624 1.23 1.23 0 00-.693.195 1.315 1.315 0 00-.454.505 1.466 1.466 0 00-.157.671v.552c0 .323.057.599.17.826.116.226.276.399.482.519.205.118.446.177.721.177.178 0 .341-.025.488-.076a1.008 1.008 0 00.627-.614l.891.161a1.614 1.614 0 01-.384.69 1.881 1.881 0 01-.69.457 2.578 2.578 0 01-.941.161zm4.247-.981l-.047.344a5.537 5.537 0 01-.16.788c-.074.275-.151.53-.23.766-.078.235-.142.422-.193.561h-.667l.113-.53c.049-.221.096-.467.142-.74.046-.274.081-.552.104-.836l.031-.353h.907zm3.973 2.698a1.98 1.98 0 01-.384-.034 1.19 1.19 0 01-.258-.07l.227-.772c.171.046.325.066.459.06a.556.556 0 00.356-.151c.105-.095.197-.249.277-.464l.116-.321-1.769-4.905h1.007l1.226 3.757h.05l1.225-3.757h1.011l-1.994 5.488c-.092.252-.21.465-.352.64a1.371 1.371 0 01-.511.397 1.67 1.67 0 01-.686.132zm6.204-1.717c-.454 0-.85-.105-1.188-.313a2.098 2.098 0 01-.787-.873c-.187-.374-.281-.811-.281-1.311 0-.502.094-.941.281-1.317.187-.376.449-.669.787-.877.338-.208.734-.311 1.188-.311.453 0 .849.103 1.187.311.337.208.6.501.787.877.187.376.28.815.28 1.317 0 .5-.093.937-.28 1.311-.187.375-.45.665-.787.873-.338.208-.734.313-1.187.313zm.002-.791c.295 0 .538-.079.731-.234a1.36 1.36 0 00.428-.621c.095-.258.142-.543.142-.854 0-.309-.047-.593-.142-.851a1.378 1.378 0 00-.428-.627c-.193-.158-.436-.237-.731-.237-.296 0-.541.079-.736.237a1.4 1.4 0 00-.432.627 2.52 2.52 0 00-.139.851c0 .311.047.596.139.854.095.259.238.466.432.621.195.155.44.234.736.234zm6.27-1.315v-2.834h.945v4.842h-.926v-.839h-.05a1.51 1.51 0 01-.536.646c-.244.171-.547.256-.91.256a1.64 1.64 0 01-.825-.205 1.436 1.436 0 01-.561-.615c-.134-.271-.201-.606-.201-1.005v-3.08h.941v2.966c0 .33.092.593.274.788a.93.93 0 00.712.294c.177 0 .352-.045.526-.133a1.11 1.11 0 00.438-.4c.117-.179.175-.405.173-.681zm4.362 2.008v-4.842h.904v.788h.059c.101-.266.266-.474.495-.624a1.46 1.46 0 01.822-.226c.323 0 .594.075.812.226.22.152.383.36.488.624h.051a1.36 1.36 0 01.55-.617c.253-.156.553-.233.901-.233.439 0 .797.137 1.074.412.28.275.419.69.419 1.245v3.247h-.941v-3.159c0-.327-.09-.564-.268-.712a.976.976 0 00-.64-.22c-.306 0-.545.094-.714.283-.17.187-.256.428-.256.722v3.086h-.938v-3.218c0-.263-.081-.474-.246-.634-.163-.159-.376-.239-.639-.239a.918.918 0 00-.494.141c-.149.093-.27.222-.363.388a1.19 1.19 0 00-.135.577v2.985h-.941zm7.74 0v-4.842h.941v4.842h-.941zm.475-5.588a.596.596 0 01-.422-.165.533.533 0 01-.173-.397c0-.155.058-.288.173-.397a.594.594 0 01.422-.167c.164 0 .304.056.419.167a.524.524 0 01.176.397.529.529 0 01-.176.397.584.584 0 01-.419.165zm3.663 7.504c-.384 0-.715-.05-.992-.151a1.945 1.945 0 01-.674-.4 1.68 1.68 0 01-.39-.546l.809-.334c.057.092.133.19.227.293.096.105.227.194.391.268.166.074.378.111.639.111.357 0 .652-.088.885-.262.233-.172.349-.448.349-.826v-.952h-.059a2.174 2.174 0 01-.246.344c-.105.126-.25.235-.435.328-.184.092-.425.138-.721.138-.382 0-.726-.089-1.033-.268a1.906 1.906 0 01-.724-.797c-.177-.353-.265-.787-.265-1.302s.088-.956.262-1.323c.176-.368.418-.65.724-.845a1.88 1.88 0 011.042-.296c.301 0 .543.05.728.15.185.099.329.215.431.347.106.133.186.249.243.35h.069v-.785h.923v4.949c0 .416-.097.757-.29 1.024a1.7 1.7 0 01-.784.593 3.028 3.028 0 01-1.109.192zm-.009-2.77c.271 0 .5-.064.687-.189.189-.129.331-.312.428-.549a2.27 2.27 0 00.148-.861c0-.325-.049-.612-.145-.86a1.275 1.275 0 00-.425-.58 1.118 1.118 0 00-.693-.211c-.283 0-.519.073-.708.221a1.333 1.333 0 00-.429.592c-.094.25-.142.529-.142.838 0 .318.049.596.146.836.096.24.238.426.427.561.192.135.427.202.706.202zm4.299-2.021v2.875h-.942v-6.456h.929v2.402h.06c.114-.26.287-.467.52-.62.233-.154.537-.23.913-.23.332 0 .622.068.869.204.25.137.443.341.58.612.138.269.207.605.207 1.009v3.079h-.941v-2.966c0-.355-.092-.63-.274-.826-.183-.198-.437-.296-.762-.296-.223 0-.423.047-.599.142a1.02 1.02 0 00-.412.416c-.099.18-.148.399-.148.655zm6.553-1.967v.757h-2.642v-.757h2.642zm-1.933-1.16h.941v4.58c0 .183.027.321.082.413.055.09.125.152.211.186a.839.839 0 00.287.047c.075 0 .141-.005.198-.015l.132-.026.17.779a1.928 1.928 0 01-.61.101 1.666 1.666 0 01-.693-.132 1.19 1.19 0 01-.52-.429c-.132-.194-.198-.436-.198-.729v-4.775zm6.068 3.127v2.875h-.941v-4.842h.903v.788h.06c.112-.256.286-.462.523-.617.239-.156.541-.233.904-.233.33 0 .619.069.866.208.248.136.44.34.576.611.137.271.205.606.205 1.006v3.079h-.941v-2.966c0-.351-.092-.625-.275-.823-.182-.2-.433-.299-.752-.299-.218 0-.413.047-.583.142a1.017 1.017 0 00-.4.416c-.096.18-.145.399-.145.655zm6.346 2.973c-.476 0-.887-.102-1.231-.306a2.07 2.07 0 01-.794-.867c-.184-.374-.277-.812-.277-1.314 0-.496.093-.933.277-1.312.187-.378.447-.673.781-.885.336-.213.728-.318 1.178-.318.273 0 .538.044.794.135.256.09.486.232.689.425.204.194.364.445.482.754.118.306.177.679.177 1.119v.334h-3.846v-.706h2.923a1.39 1.39 0 00-.152-.659 1.135 1.135 0 00-.425-.457 1.187 1.187 0 00-.636-.167c-.264 0-.495.065-.693.195a1.312 1.312 0 00-.453.505 1.455 1.455 0 00-.158.671v.552c0 .323.057.599.171.826.115.226.276.399.481.519.206.118.446.177.721.177.179 0 .342-.025.489-.076a1.006 1.006 0 00.626-.614l.892.161c-.072.262-.2.492-.384.69a1.881 1.881 0 01-.69.457 2.583 2.583 0 01-.942.161zm5.107 0c-.476 0-.886-.102-1.231-.306a2.068 2.068 0 01-.793-.867c-.185-.374-.277-.812-.277-1.314 0-.496.092-.933.277-1.312.186-.378.446-.673.781-.885.335-.213.728-.318 1.177-.318.273 0 .537.044.794.135.256.09.486.232.69.425.203.194.364.445.481.754.118.306.176.679.176 1.119v.334h-3.844v-.706h2.922c0-.248-.05-.468-.151-.659a1.149 1.149 0 00-.425-.457 1.193 1.193 0 00-.637-.167c-.264 0-.495.065-.692.195a1.315 1.315 0 00-.454.505 1.466 1.466 0 00-.157.671v.552c0 .323.056.599.17.826.115.226.276.399.482.519.205.118.446.177.721.177.178 0 .341-.025.488-.076a1.006 1.006 0 00.626-.614l.892.161a1.614 1.614 0 01-.384.69 1.881 1.881 0 01-.69.457 2.583 2.583 0 01-.942.161zm4.833-.004c-.39 0-.738-.1-1.045-.299a2.038 2.038 0 01-.718-.861c-.172-.374-.258-.822-.258-1.345 0-.524.087-.971.261-1.343a2 2 0 01.725-.854 1.877 1.877 0 011.042-.296c.3 0 .542.05.725.15.184.099.327.215.427.347.104.133.183.249.24.35h.056v-2.399h.942v6.456h-.919v-.753h-.079c-.057.102-.139.22-.246.352-.105.133-.25.248-.434.347-.185.099-.424.148-.719.148zm.208-.804c.271 0 .5-.071.687-.214a1.32 1.32 0 00.428-.602c.099-.256.148-.554.148-.895 0-.336-.048-.63-.145-.883a1.297 1.297 0 00-.425-.589 1.116 1.116 0 00-.693-.211c-.283 0-.519.073-.708.221a1.344 1.344 0 00-.428.602 2.443 2.443 0 00-.142.86c0 .323.048.615.145.873.096.259.239.463.428.615.191.149.427.223.705.223zm7.943-4.132v.757h-2.642v-.757h2.642zm-1.933-1.16h.941v4.58c0 .183.027.321.082.413.055.09.124.152.211.186a.83.83 0 00.286.047c.076 0 .142-.005.199-.015l.132-.026.17.779a1.92 1.92 0 01-.611.101 1.666 1.666 0 01-.693-.132 1.201 1.201 0 01-.52-.429c-.131-.194-.197-.436-.197-.729v-4.775zm4.863 6.1c-.454 0-.849-.105-1.188-.313a2.098 2.098 0 01-.787-.873c-.187-.374-.28-.811-.28-1.311 0-.502.093-.941.28-1.317.187-.376.449-.669.787-.877.339-.208.734-.311 1.188-.311.453 0 .849.103 1.187.311.338.208.6.501.787.877.187.376.28.815.28 1.317 0 .5-.093.937-.28 1.311a2.098 2.098 0 01-.787.873c-.338.208-.734.313-1.187.313zm.002-.791c.295 0 .538-.079.731-.234a1.36 1.36 0 00.428-.621c.095-.258.142-.543.142-.854 0-.309-.047-.593-.142-.851a1.378 1.378 0 00-.428-.627c-.193-.158-.436-.237-.731-.237-.296 0-.541.079-.736.237a1.39 1.39 0 00-.431.627 2.495 2.495 0 00-.139.851c0 .311.046.596.139.854.094.259.237.466.431.621.195.155.44.234.736.234zm5.455.693v-4.842h.911v.77h.05c.088-.261.243-.466.466-.615.225-.151.478-.227.762-.227a4.23 4.23 0 01.4.022v.901a1.953 1.953 0 00-.202-.034 1.875 1.875 0 00-.289-.022c-.223 0-.421.047-.596.142a1.05 1.05 0 00-.56.948v2.957h-.942zm5.218.098c-.477 0-.887-.102-1.231-.306a2.07 2.07 0 01-.794-.867c-.185-.374-.277-.812-.277-1.314 0-.496.092-.933.277-1.312.187-.378.447-.673.781-.885.336-.213.728-.318 1.178-.318.272 0 .537.044.793.135.256.09.487.232.69.425.203.194.364.445.482.754.117.306.176.679.176 1.119v.334h-3.845v-.706h2.923a1.39 1.39 0 00-.152-.659 1.149 1.149 0 00-.425-.457 1.19 1.19 0 00-.636-.167 1.23 1.23 0 00-.693.195 1.312 1.312 0 00-.453.505 1.455 1.455 0 00-.158.671v.552c0 .323.057.599.17.826.116.226.276.399.482.519.206.118.446.177.721.177.179 0 .342-.025.488-.076a1.008 1.008 0 00.627-.614l.891.161a1.614 1.614 0 01-.384.69 1.881 1.881 0 01-.69.457 2.578 2.578 0 01-.941.161zm5.872-3.235v.817h-2.859v-.817h2.859zm3.195 3.235c-.468 0-.871-.107-1.209-.319a2.11 2.11 0 01-.775-.886c-.181-.376-.27-.806-.27-1.292 0-.492.092-.926.277-1.302.184-.378.445-.673.781-.885.336-.213.731-.318 1.187-.318.367 0 .695.068.982.204.288.134.52.324.696.568a1.7 1.7 0 01.318.854h-.916a1.095 1.095 0 00-.346-.586c-.179-.165-.418-.246-.719-.246-.262 0-.492.069-.689.208a1.336 1.336 0 00-.457.586 2.245 2.245 0 00-.163.895c0 .353.053.658.16.914.107.257.258.455.453.596.198.14.43.211.696.211.179 0 .341-.032.485-.098a.982.982 0 00.369-.287c.101-.123.171-.272.211-.447h.916a1.784 1.784 0 01-.305.839c-.17.245-.398.438-.683.579a2.221 2.221 0 01-.999.212zm4.305.009c-.307 0-.584-.057-.832-.17a1.413 1.413 0 01-.589-.501c-.143-.219-.214-.487-.214-.804 0-.274.052-.498.158-.675.104-.176.246-.316.425-.419.178-.103.378-.181.598-.233.22-.053.445-.093.674-.12l.705-.082c.181-.023.312-.06.394-.11.082-.051.123-.132.123-.246v-.022c0-.275-.078-.488-.233-.64-.153-.151-.382-.227-.687-.227-.317 0-.567.071-.75.211-.18.139-.305.294-.374.464l-.885-.202c.105-.294.258-.532.46-.712.204-.183.438-.315.702-.398.265-.084.543-.125.835-.125.192 0 .398.022.614.069.218.044.422.126.611.246.191.119.347.291.469.513.122.221.182.508.182.861v3.215h-.919v-.662h-.038a1.34 1.34 0 01-.274.359 1.475 1.475 0 01-.469.294c-.191.077-.42.116-.686.116zm.204-.757c.261 0 .483-.051.668-.154.187-.103.328-.237.425-.403.099-.169.148-.348.148-.539v-.624a.514.514 0 01-.195.094 3.134 3.134 0 01-.325.073l-.356.053-.289.038a2.3 2.3 0 00-.501.117.851.851 0 00-.359.236.592.592 0 00-.133.403c0 .234.087.41.259.53.172.118.392.176.658.176zm4.281-5.806v6.456h-.942v-6.456h.942zm1.169 6.456v-4.842h.941v4.842h-.941zm.476-5.588a.599.599 0 01-.423-.165.532.532 0 01-.172-.397c0-.155.057-.288.172-.397a.596.596 0 01.423-.167c.163 0 .303.056.418.167a.522.522 0 01.177.397.526.526 0 01-.177.397.584.584 0 01-.418.165zm1.71 5.588v-6.456h.942v2.399h.056c.055-.101.134-.217.237-.35.103-.132.246-.248.428-.347.183-.1.424-.15.724-.15.391 0 .739.098 1.046.296.307.197.547.482.721.854.177.372.265.819.265 1.343 0 .523-.087.971-.262 1.345a2.031 2.031 0 01-.718.861 1.86 1.86 0 01-1.042.299c-.294 0-.534-.049-.721-.148a1.36 1.36 0 01-.435-.347 2.8 2.8 0 01-.243-.352h-.078v.753h-.92zm.923-2.421c0 .341.049.639.148.895.099.257.242.458.429.602.186.143.415.214.686.214.281 0 .516-.074.705-.223.189-.152.332-.356.429-.615.098-.258.148-.55.148-.873a2.42 2.42 0 00-.145-.86 1.322 1.322 0 00-.428-.602c-.189-.148-.426-.221-.709-.221-.273 0-.504.07-.693.211a1.304 1.304 0 00-.425.589 2.458 2.458 0 00-.145.883zm4.456 2.421v-4.842h.91v.77h.05a1.17 1.17 0 01.466-.615c.225-.151.479-.227.762-.227a4.23 4.23 0 01.4.022v.901a1.953 1.953 0 00-.202-.034 1.866 1.866 0 00-.289-.022 1.22 1.22 0 00-.595.142 1.046 1.046 0 00-.561.948v2.957h-.941zm4.67.107c-.307 0-.584-.057-.831-.17a1.416 1.416 0 01-.59-.501c-.142-.219-.214-.487-.214-.804 0-.274.053-.498.158-.675.105-.176.246-.316.425-.419.178-.103.378-.181.599-.233.22-.053.445-.093.674-.12l.705-.082c.18-.023.312-.06.393-.11.082-.051.123-.132.123-.246v-.022c0-.275-.077-.488-.233-.64-.153-.151-.382-.227-.686-.227-.317 0-.567.071-.75.211-.18.139-.305.294-.374.464l-.886-.202c.105-.294.259-.532.46-.712a1.88 1.88 0 01.703-.398c.264-.084.542-.125.834-.125.193 0 .398.022.614.069.218.044.422.126.611.246.191.119.347.291.469.513.122.221.183.508.183.861v3.215h-.919v-.662h-.039c-.06.122-.151.241-.273.359a1.48 1.48 0 01-.47.294 1.83 1.83 0 01-.686.116zm.204-.757c.261 0 .483-.051.668-.154.187-.103.328-.237.425-.403.099-.169.148-.348.148-.539v-.624a.499.499 0 01-.195.094 3.111 3.111 0 01-.324.073l-.356.053-.29.038a2.314 2.314 0 00-.501.117.858.858 0 00-.359.236.591.591 0 00-.132.403c0 .234.086.41.259.53.171.118.391.176.657.176zm5.597-4.192v.757h-2.642v-.757h2.642zm-1.933-1.16h.942v4.58c0 .183.027.321.081.413.055.09.126.152.211.186a.839.839 0 00.287.047c.075 0 .142-.005.198-.015l.133-.026.169.779a1.92 1.92 0 01-.61.101 1.666 1.666 0 01-.693-.132 1.187 1.187 0 01-.519-.429c-.133-.194-.199-.436-.199-.729v-4.775zm4.91 6.1c-.476 0-.887-.102-1.231-.306a2.068 2.068 0 01-.793-.867c-.186-.374-.278-.812-.278-1.314 0-.496.092-.933.278-1.312.186-.378.447-.673.781-.885.335-.213.728-.318 1.177-.318.273 0 .538.044.794.135.256.09.486.232.69.425.203.194.364.445.481.754.118.306.176.679.176 1.119v.334h-3.844v-.706h2.922c0-.248-.05-.468-.151-.659a1.149 1.149 0 00-.425-.457 1.193 1.193 0 00-.637-.167c-.264 0-.495.065-.692.195a1.307 1.307 0 00-.454.505 1.454 1.454 0 00-.157.671v.552c0 .323.056.599.17.826.115.226.276.399.482.519.205.118.446.177.721.177.178 0 .341-.025.488-.076a1.02 1.02 0 00.627-.614l.891.161a1.606 1.606 0 01-.385.69 1.869 1.869 0 01-.689.457 2.583 2.583 0 01-.942.161zm7.53-4.94v.757h-2.642v-.757h2.642zm-1.933-1.16h.941v4.58c0 .183.027.321.082.413.055.09.125.152.211.186a.835.835 0 00.287.047c.075 0 .141-.005.198-.015l.132-.026.171.779a1.911 1.911 0 01-.612.101 1.673 1.673 0 01-.693-.132 1.199 1.199 0 01-.519-.429c-.132-.194-.198-.436-.198-.729v-4.775zm3.923 3.127v2.875h-.942v-6.456h.929v2.402h.06c.113-.26.287-.467.52-.62.232-.154.537-.23.913-.23.332 0 .621.068.869.204.25.137.443.341.579.612.139.269.208.605.208 1.009v3.079h-.941v-2.966c0-.355-.091-.63-.274-.826-.183-.198-.437-.296-.762-.296-.223 0-.422.047-.598.142a1.016 1.016 0 00-.413.416c-.099.18-.148.399-.148.655zm4.295 2.875v-4.842h.942v4.842h-.942zm.476-5.588a.595.595 0 01-.422-.165.533.533 0 01-.173-.397c0-.155.058-.288.173-.397a.592.592 0 01.422-.167c.164 0 .303.056.419.167a.524.524 0 01.176.397.529.529 0 01-.176.397.586.586 0 01-.419.165zm5.26 1.928l-.853.152a1.014 1.014 0 00-.171-.313.842.842 0 00-.308-.242 1.121 1.121 0 00-.489-.095c-.266 0-.488.06-.667.18-.178.118-.268.27-.268.457 0 .162.06.292.18.391.12.099.313.179.579.243l.769.176c.445.103.776.262.995.476.218.215.327.493.327.835 0 .29-.083.549-.252.776a1.64 1.64 0 01-.695.529c-.296.128-.64.193-1.03.193-.542 0-.984-.116-1.326-.347a1.47 1.47 0 01-.63-.993l.91-.139a.87.87 0 00.35.539c.176.12.406.18.689.18.309 0 .556-.064.741-.192.184-.131.277-.289.277-.476a.496.496 0 00-.17-.382c-.112-.103-.283-.18-.514-.233l-.819-.18c-.451-.103-.785-.267-1.001-.491-.214-.225-.321-.51-.321-.854 0-.286.08-.536.239-.75.16-.215.38-.382.661-.502.282-.121.604-.182.967-.182.523 0 .935.113 1.235.34.3.225.498.526.595.904zm3.281 3.66v-4.842h.904v.788h.06c.101-.266.266-.474.494-.624.227-.151.504-.226.82-.226.327 0 .598.075.815.226.221.152.382.36.487.624h.05c.117-.258.3-.464.554-.617.25-.156.549-.233.898-.233.438 0 .799.137 1.076.412.277.275.415.69.415 1.245v3.247h-.936v-3.159c0-.327-.089-.564-.272-.712a.962.962 0 00-.637-.22c-.305 0-.544.094-.715.283-.172.187-.255.428-.255.722v3.086h-.937v-3.218c0-.263-.083-.474-.249-.634-.161-.159-.377-.239-.638-.239a.914.914 0 00-.493.141c-.15.093-.271.222-.364.388a1.202 1.202 0 00-.135.577v2.985h-.942zm7.743 0v-4.842h.937v4.842h-.937zm.471-5.588a.596.596 0 01-.421-.165.525.525 0 01-.172-.397.52.52 0 01.172-.397.593.593 0 01.421-.167c.166 0 .305.056.421.167a.53.53 0 010 .794.587.587 0 01-.421.165zm3.675 5.686c-.466 0-.871-.107-1.209-.319a2.112 2.112 0 01-.776-.886 2.999 2.999 0 01-.271-1.292c0-.492.094-.926.277-1.302.188-.378.449-.673.781-.885.339-.213.732-.318 1.187-.318.371 0 .698.068.986.204a1.75 1.75 0 011.014 1.422h-.92a1.103 1.103 0 00-.343-.586c-.178-.165-.421-.246-.721-.246-.26 0-.493.069-.687.208a1.363 1.363 0 00-.46.586 2.319 2.319 0 00-.161.895c0 .353.05.658.161.914.105.257.255.455.454.596.194.14.427.211.693.211.178 0 .344-.032.488-.098.144-.067.266-.162.366-.287.1-.123.172-.272.21-.447h.92a1.769 1.769 0 01-.992 1.418 2.206 2.206 0 01-.997.212zm3.519-.038a.629.629 0 110-1.258c.172 0 .316.062.444.186a.601.601 0 01.183.441.647.647 0 01-.316.545.597.597 0 01-.311.086z" fill="#333"/></svg>