<svg width="808" height="590" fill="none" xmlns="http://www.w3.org/2000/svg"><path d="M804.67 48H3.33C1.49 48 0 49.673 0 51.738v534.524C0 588.326 1.49 590 3.33 590h801.34c1.839 0 3.33-1.674 3.33-3.738V51.738c0-2.065-1.491-3.738-3.33-3.738z" fill="#FFD233"/><path d="M804.67 0H3.33A3.329 3.329 0 000 3.328v41.436a3.329 3.329 0 003.33 3.328h801.34a3.33 3.33 0 003.33-3.328V3.328A3.329 3.329 0 00804.67 0z" fill="#F8F8F8"/><path d="M5.504 28.84v-9.68h3.453c.753 0 1.377.137 1.872.411.496.274.866.65 1.112 1.125a3.41 3.41 0 01.369 1.598c0 .596-.125 1.131-.374 1.607a2.703 2.703 0 01-1.116 1.125c-.495.274-1.118.411-1.868.411H6.578V24.2h2.241c.477 0 .863-.082 1.16-.246.296-.167.513-.394.652-.68.139-.287.208-.613.208-.979s-.07-.69-.208-.974a1.492 1.492 0 00-.658-.666c-.296-.161-.687-.241-1.173-.241H6.965v8.428H5.504zm8.153 0v-7.26h1.367v1.154h.075c.133-.391.366-.699.7-.922.338-.227.72-.34 1.145-.34a6.048 6.048 0 01.6.032v1.352a2.529 2.529 0 00-.302-.052 2.885 2.885 0 00-.435-.033 1.84 1.84 0 00-.894.213 1.58 1.58 0 00-.842 1.423v4.434h-1.414zm7.658.147c-.681 0-1.275-.156-1.783-.468a3.157 3.157 0 01-1.182-1.309c-.281-.56-.421-1.216-.421-1.966 0-.754.14-1.412.42-1.976a3.15 3.15 0 011.183-1.314c.508-.312 1.102-.468 1.783-.468.681 0 1.275.156 1.783.468.508.312.902.75 1.183 1.314.28.564.42 1.222.42 1.976 0 .75-.14 1.405-.42 1.966-.281.56-.675.997-1.183 1.31-.508.311-1.102.467-1.783.467zm.005-1.186c.441 0 .807-.117 1.097-.35a2.05 2.05 0 00.643-.931 3.7 3.7 0 00.213-1.281c0-.463-.07-.889-.213-1.276a2.08 2.08 0 00-.643-.941c-.29-.236-.656-.355-1.097-.355-.445 0-.814.119-1.107.355-.29.236-.506.55-.648.94a3.764 3.764 0 00-.208 1.277c0 .466.07.893.208 1.28.142.389.358.699.648.932.293.233.662.35 1.107.35zm4.707-6.22h1.414v7.733c0 .485-.088.895-.265 1.229a1.726 1.726 0 01-.775.76c-.34.174-.762.26-1.263.26h-.142c-.047 0-.096-.001-.147-.004v-1.215h.227c.335 0 .576-.09.724-.27.151-.176.227-.433.227-.77V21.58zm.7-1.121a.9.9 0 01-.634-.246.8.8 0 01-.26-.595.79.79 0 01.26-.596.89.89 0 01.634-.25c.246 0 .456.083.629.25a.783.783 0 01.265.596.79.79 0 01-.265.595.883.883 0 01-.63.246zm5.495 8.527c-.716 0-1.333-.152-1.85-.458a3.11 3.11 0 01-1.192-1.3c-.277-.561-.416-1.218-.416-1.971 0-.744.139-1.4.416-1.967a3.235 3.235 0 011.173-1.328c.505-.318 1.095-.477 1.77-.477.41 0 .806.067 1.191.203.385.135.73.348 1.036.638.306.29.547.667.724 1.13.176.46.264 1.02.264 1.678v.5h-5.774v-1.058h4.389a2.09 2.09 0 00-.227-.988 1.715 1.715 0 00-.639-.685 1.784 1.784 0 00-.955-.25c-.398 0-.744.097-1.04.292a1.965 1.965 0 00-.682.757 2.181 2.181 0 00-.236 1.006v.828c0 .485.085.898.255 1.238.174.34.415.6.724.78.309.177.67.265 1.083.265.268 0 .512-.038.733-.114a1.52 1.52 0 00.941-.922l1.339.242c-.108.394-.3.739-.578 1.035a2.794 2.794 0 01-1.035.685 3.874 3.874 0 01-1.414.241zm7.492 0c-.703 0-1.308-.159-1.816-.477a3.161 3.161 0 01-1.163-1.328c-.271-.564-.407-1.21-.407-1.938 0-.738.139-1.389.416-1.953a3.187 3.187 0 011.173-1.328c.505-.318 1.1-.477 1.783-.477.552 0 1.044.102 1.476.307.432.202.78.485 1.045.85.268.366.428.793.478 1.282h-1.376a1.648 1.648 0 00-.52-.88c-.269-.245-.628-.368-1.079-.368-.394 0-.74.104-1.036.312-.293.205-.522.498-.686.879-.164.378-.245.826-.245 1.343 0 .529.08.986.24 1.37.161.385.389.683.682.894.296.21.645.316 1.045.316.268 0 .51-.048.728-.146.221-.101.406-.244.554-.43.151-.186.257-.41.317-.671h1.376c-.05.469-.203.888-.459 1.257a2.64 2.64 0 01-1.026.87c-.426.21-.926.316-1.5.316zm7.635-7.407v1.135h-3.968V21.58h3.968zm-2.904-1.74h1.414v6.869c0 .274.041.48.123.62a.641.641 0 00.317.278c.133.047.276.071.43.071.114 0 .214-.008.299-.024.085-.015.151-.028.198-.038l.256 1.168a2.382 2.382 0 01-.35.095c-.152.034-.34.053-.568.056a2.492 2.492 0 01-1.04-.198 1.784 1.784 0 01-.78-.643c-.2-.29-.299-.654-.299-1.092v-7.161zm6.287 9l-2.771-9.68h2.237l1.603 6.727h.08l1.77-6.727h1.915l1.764 6.74h.085l1.604-6.74h2.237l-2.772 9.68h-1.996l-1.844-6.329h-.076l-1.84 6.33h-1.996zm11.329 0v-7.26h2.015v7.26H62.06zm1.012-8.196c-.3 0-.557-.099-.77-.297a.965.965 0 01-.318-.724c0-.277.106-.515.317-.713.214-.202.471-.303.771-.303.3 0 .555.1.766.303a.94.94 0 01.322.713.96.96 0 01-.322.723 1.08 1.08 0 01-.766.298zm2.363 8.197v-7.26h1.954v1.266h.075c.133-.45.356-.791.667-1.021.313-.233.672-.35 1.079-.35a3.046 3.046 0 01.633.071v1.787a2.614 2.614 0 00-.392-.076 3.522 3.522 0 00-.459-.033c-.296 0-.56.065-.794.194-.23.126-.413.302-.549.53a1.526 1.526 0 00-.199.784v4.108h-2.014zm8.17.142c-.748 0-1.39-.152-1.93-.454a3.11 3.11 0 01-1.239-1.295c-.29-.561-.435-1.225-.435-1.99 0-.747.145-1.403.435-1.967a3.217 3.217 0 011.225-1.319c.53-.315 1.15-.472 1.863-.472.48 0 .926.077 1.339.231.416.152.778.38 1.088.686.312.305.555.69.728 1.153.173.46.26.999.26 1.617v.553h-6.134v-1.248h4.238c0-.29-.063-.547-.19-.77a1.356 1.356 0 00-.525-.525 1.498 1.498 0 00-.77-.194c-.306 0-.577.07-.814.212a1.491 1.491 0 00-.549.563 1.59 1.59 0 00-.203.78v1.186c0 .36.066.67.199.932.135.261.326.463.572.605.246.142.538.213.875.213.224 0 .429-.032.615-.095s.345-.158.477-.284a1.22 1.22 0 00.303-.463l1.864.123a2.547 2.547 0 01-.582 1.172c-.29.331-.665.59-1.126.776-.457.182-.985.274-1.584.274z" fill="#333"/><path d="M762.845 30.505c4.083 0 7.393-2.856 7.393-6.379 0-3.522-3.31-6.378-7.393-6.378-4.084 0-7.394 2.856-7.394 6.378 0 3.523 3.31 6.379 7.394 6.379z" fill="#4ECB71"/><path d="M781.329 30.505c4.083 0 7.394-2.856 7.394-6.379 0-3.522-3.311-6.378-7.394-6.378s-7.393 2.856-7.393 6.378c0 3.523 3.31 6.379 7.393 6.379z" fill="#FF9A62"/><path d="M744.358 30.505c4.084 0 7.394-2.856 7.394-6.379 0-3.522-3.31-6.378-7.394-6.378-4.083 0-7.393 2.856-7.393 6.378 0 3.523 3.31 6.379 7.393 6.379z" fill="#FFD233"/><path d="M728.642 141.834H79.912a3.329 3.329 0 00-3.33 3.328v260.677a3.328 3.328 0 003.33 3.327h648.73a3.328 3.328 0 003.33-3.327V145.162a3.33 3.33 0 00-3.33-3.328z" fill="#4ECB71"/><path d="M728.643 141.834h-254.72a3.328 3.328 0 00-3.329 3.328v260.677a3.327 3.327 0 003.329 3.327h254.72a3.328 3.328 0 003.33-3.327V145.162a3.33 3.33 0 00-3.33-3.328z" fill="#85B6FF"/><path d="M668.709 313.771H533.302a3.327 3.327 0 00-3.329 3.327v29.396a3.327 3.327 0 003.329 3.327h135.407a3.328 3.328 0 003.33-3.327v-29.396a3.328 3.328 0 00-3.33-3.327z" fill="#FF9A62"/><path d="M566.449 330.772h-2.076a1.935 1.935 0 00-.227-.713 1.826 1.826 0 00-.45-.54 1.966 1.966 0 00-.633-.339 2.424 2.424 0 00-.771-.119c-.505 0-.938.125-1.31.374-.371.245-.66.605-.865 1.077-.206.47-.311 1.04-.311 1.711 0 .691.105 1.27.311 1.74.205.469.494.824.865 1.063.372.24.805.36 1.293.36.278 0 .528-.036.761-.109.238-.073.449-.178.632-.317.183-.142.333-.313.45-.515.128-.202.211-.431.255-.69l2.076.01a3.76 3.76 0 01-.405 1.285c-.211.41-.494.777-.855 1.102a4.038 4.038 0 01-1.276.765c-.494.187-1.049.279-1.671.279-.866 0-1.637-.195-2.32-.586-.677-.391-1.209-.956-1.603-1.697-.394-.741-.589-1.637-.589-2.69 0-1.055.2-1.953.594-2.694.4-.741.938-1.305 1.621-1.692.682-.391 1.448-.587 2.297-.587.561 0 1.082.079 1.56.237.482.158.91.387 1.281.69.372.3.677.667.911 1.102.238.435.388.932.455 1.493zm3.246 6.429c-.461 0-.877-.08-1.237-.241a2.005 2.005 0 01-.861-.723c-.211-.322-.31-.722-.31-1.201 0-.403.072-.742.222-1.016.144-.274.349-.495.604-.662.256-.167.544-.293.872-.378a6.577 6.577 0 011.026-.18c.428-.044.766-.085 1.021-.123.261-.04.45-.1.567-.179a.395.395 0 00.172-.35v-.028c0-.3-.095-.532-.283-.695-.184-.165-.45-.246-.794-.246-.361 0-.649.08-.866.241a1.142 1.142 0 00-.427.595l-1.859-.151c.094-.441.277-.822.555-1.144a2.698 2.698 0 011.076-.747c.439-.176.949-.264 1.532-.264.405 0 .788.047 1.16.142.372.094.699.241.988.439.288.198.516.454.682.766.167.309.256.679.256 1.111v4.897h-1.915v-1.007h-.055a2.07 2.07 0 01-.467.601 2.234 2.234 0 01-.704.401 2.966 2.966 0 01-.955.142zm.577-1.39c.3 0 .561-.058.788-.175.228-.119.405-.28.533-.482a1.25 1.25 0 00.194-.685v-.771a1.05 1.05 0 01-.261.114 4.689 4.689 0 01-.366.09c-.133.025-.266.048-.405.071l-.366.051c-.239.035-.444.09-.622.166a.987.987 0 00-.41.307.735.735 0 00-.145.473c0 .274.095.483.294.628.206.142.461.213.766.213zm4.828 3.976v-9.984h1.987v1.22h.089c.089-.196.216-.394.383-.596a1.95 1.95 0 01.66-.51c.277-.139.616-.208 1.021-.208.533 0 1.021.138 1.465.416.45.274.81.688 1.077 1.243.266.551.399 1.243.399 2.075 0 .81-.127 1.494-.388 2.052-.261.554-.616.975-1.06 1.262a2.728 2.728 0 01-1.498.425c-.389 0-.722-.065-.999-.194a2.135 2.135 0 01-.666-.487 2.408 2.408 0 01-.394-.6h-.061v3.886H575.1zm1.97-6.353c0 .431.061.808.178 1.129.122.322.294.572.522.752.227.176.505.264.826.264a1.3 1.3 0 00.833-.269 1.68 1.68 0 00.516-.756c.122-.325.183-.698.183-1.12 0-.42-.061-.788-.178-1.106a1.638 1.638 0 00-.516-.748c-.227-.179-.505-.269-.838-.269-.327 0-.605.087-.832.26-.222.174-.394.419-.516.738a3.255 3.255 0 00-.178 1.125zm10.067-3.631v1.513h-4.373v-1.513h4.373zm-3.38-1.739h2.015v6.769c0 .186.028.33.083.435a.469.469 0 00.239.212c.1.041.222.062.355.062.1 0 .194-.008.288-.024l.217-.042.316 1.498c-.1.031-.244.068-.427.109-.183.044-.405.07-.666.08-.483.019-.91-.046-1.276-.194a1.818 1.818 0 01-.85-.69c-.199-.312-.299-.706-.294-1.182v-7.033zm9.096 5.909v-4.17h2.02v7.261h-1.937v-1.319h-.078c-.16.426-.432.767-.815 1.026-.378.258-.844.387-1.388.387-.482 0-.91-.11-1.282-.331a2.31 2.31 0 01-.865-.94c-.206-.407-.305-.893-.311-1.461v-4.623h2.014v4.264c.006.429.117.767.344 1.017.228.248.533.373.916.373.239 0 .466-.056.677-.165.217-.114.383-.281.511-.502.133-.221.2-.493.194-.817zm3.374 3.091v-7.261h1.953v1.267h.078c.133-.451.355-.791.666-1.021a1.75 1.75 0 011.077-.35 2.898 2.898 0 01.638.071v1.787a3.553 3.553 0 00-.855-.108c-.294 0-.56.064-.793.193a1.464 1.464 0 00-.55.53c-.133.227-.2.488-.2.784v4.108h-2.014zm8.169.142c-.744 0-1.388-.152-1.926-.454a3.136 3.136 0 01-1.243-1.295c-.289-.561-.433-1.225-.433-1.99 0-.747.144-1.403.433-1.967a3.247 3.247 0 011.226-1.319c.533-.315 1.155-.472 1.865-.472a3.8 3.8 0 011.338.231c.416.152.776.38 1.087.686.311.306.555.69.727 1.153.178.46.261.999.261 1.617v.553h-6.132v-1.248h4.234c0-.29-.061-.547-.189-.771a1.326 1.326 0 00-.521-.524 1.503 1.503 0 00-.772-.194 1.56 1.56 0 00-.815.213 1.498 1.498 0 00-.55.562c-.127.234-.2.493-.2.78v1.187c0 .359.067.669.2.931.133.261.322.463.572.605.244.141.538.213.871.213.228 0 .433-.032.616-.095.189-.063.344-.158.477-.284.134-.126.233-.28.306-.463l1.864.123a2.523 2.523 0 01-.583 1.172c-.294.331-.665.59-1.126.776-.455.182-.988.274-1.587.274zm14.001-7.403l-2.542 7.261h-2.269l-2.542-7.261h2.131l1.509 5.195h.078l1.504-5.195h2.131zm3.824 7.403c-.733 0-1.366-.156-1.904-.469a3.23 3.23 0 01-1.237-1.313c-.289-.565-.433-1.218-.433-1.962 0-.75.144-1.406.433-1.966a3.198 3.198 0 011.237-1.315c.538-.315 1.171-.472 1.904-.472.738 0 1.37.157 1.903.472.538.312.949.751 1.238 1.315.294.56.438 1.216.438 1.966 0 .744-.144 1.397-.438 1.962-.289.561-.7.998-1.238 1.313-.533.313-1.165.469-1.903.469zm.011-1.56c.333 0 .616-.095.838-.284.222-.192.394-.454.505-.784.116-.331.177-.708.177-1.13 0-.423-.061-.799-.177-1.13a1.757 1.757 0 00-.505-.785c-.222-.192-.505-.288-.838-.288-.339 0-.622.096-.849.288-.228.193-.4.454-.516.785a3.38 3.38 0 00-.172 1.13c0 .422.055.799.172 1.13.116.33.288.592.516.784.227.189.51.284.849.284zm4.622 1.418v-7.261h2.015v7.261h-2.015zm1.016-8.197c-.3 0-.561-.099-.771-.298a.964.964 0 01-.317-.723c0-.277.106-.515.317-.714a1.08 1.08 0 01.771-.302c.3 0 .555.101.766.302a.953.953 0 01.322.714.969.969 0 01-.322.723 1.075 1.075 0 01-.766.298zm5.644 8.339c-.744 0-1.382-.158-1.92-.473a3.205 3.205 0 01-1.232-1.323c-.283-.564-.422-1.214-.422-1.948 0-.744.144-1.396.427-1.957a3.197 3.197 0 011.238-1.319c.532-.318 1.165-.477 1.898-.477.632 0 1.187.115 1.665.345.477.23.854.553 1.132.969.277.416.432.904.46 1.465h-1.903c-.056-.362-.195-.653-.428-.874-.227-.224-.521-.336-.893-.336-.311 0-.583.085-.816.255-.233.167-.41.411-.538.733-.133.322-.194.71-.194 1.168 0 .463.061.857.188 1.181.128.325.311.572.544.743.233.17.505.255.816.255.233 0 .438-.048.621-.142.184-.095.339-.232.461-.411.122-.183.2-.402.239-.658h1.903c-.033.555-.183 1.044-.455 1.466a2.73 2.73 0 01-1.11.983c-.477.236-1.038.355-1.681.355zm7.591 0c-.749 0-1.387-.152-1.931-.454a3.115 3.115 0 01-1.237-1.295c-.289-.561-.433-1.225-.433-1.99 0-.747.144-1.403.433-1.967a3.208 3.208 0 011.226-1.319c.527-.315 1.149-.472 1.865-.472.477 0 .921.077 1.337.231.416.152.777.38 1.088.686.311.306.555.69.727 1.153.172.46.261.999.261 1.617v.553h-6.133v-1.248h4.235c0-.29-.061-.547-.189-.771a1.348 1.348 0 00-.527-.524 1.483 1.483 0 00-.766-.194c-.311 0-.577.071-.816.213a1.496 1.496 0 00-.549.562c-.133.234-.2.493-.206.78v1.187c0 .359.067.669.2.931.139.261.328.463.572.605.25.141.538.213.877.213.222 0 .427-.032.616-.095.183-.063.344-.158.477-.284a1.19 1.19 0 00.3-.463l1.864.123a2.531 2.531 0 01-.582 1.172c-.289.331-.661.59-1.121.776-.461.182-.988.274-1.588.274zM509.31 273.365a.921.921 0 00-.416-.694c-.244-.166-.551-.249-.921-.249-.265 0-.494.042-.687.126a1.047 1.047 0 00-.451.341.8.8 0 00-.158.488c0 .153.036.285.107.397a.959.959 0 00.287.28c.12.074.248.136.385.186.137.049.268.088.394.12l.631.164c.206.05.417.118.633.205.217.086.418.2.603.34.185.141.334.316.447.523.116.208.174.457.174.747 0 .366-.095.69-.284.974a1.896 1.896 0 01-.816.671c-.356.164-.786.246-1.29.246-.483 0-.902-.077-1.255-.23a1.923 1.923 0 01-.829-.653 1.884 1.884 0 01-.332-1.008h.978a.991.991 0 00.227.583c.134.154.306.268.514.344.21.073.441.11.69.11.276 0 .521-.043.735-.129.216-.089.387-.21.511-.366a.866.866 0 00.186-.551.678.678 0 00-.164-.47 1.195 1.195 0 00-.438-.302 4.257 4.257 0 00-.622-.212l-.763-.208c-.516-.14-.926-.347-1.229-.62-.301-.273-.451-.635-.451-1.084 0-.372.101-.697.302-.974a1.99 1.99 0 01.821-.646 2.794 2.794 0 011.166-.233c.437 0 .823.076 1.157.229.336.154.602.365.795.634.193.267.294.574.302.921h-.939zm4.106 4.855c-.477 0-.888-.101-1.233-.305a2.077 2.077 0 01-.794-.867c-.185-.374-.278-.812-.278-1.314 0-.496.093-.933.278-1.311.187-.378.447-.673.781-.885.337-.213.73-.319 1.18-.319.273 0 .538.046.794.136.257.09.487.232.691.426.204.193.365.444.483.752.117.307.176.68.176 1.119v.334h-3.85v-.706h2.926c0-.248-.05-.467-.151-.658a1.138 1.138 0 00-.426-.457 1.182 1.182 0 00-.637-.167 1.23 1.23 0 00-.693.195 1.315 1.315 0 00-.455.504c-.105.206-.157.43-.157.671v.552c0 .324.057.599.17.826.116.226.276.4.483.52.206.117.446.176.722.176.178 0 .341-.025.488-.076a1.02 1.02 0 00.628-.614l.892.161c-.071.262-.2.493-.384.69a1.88 1.88 0 01-.691.456c-.276.108-.59.161-.943.161zm3.969-6.551v6.454h-.943v-6.454h.943zm3.258 6.551c-.477 0-.888-.101-1.233-.305a2.077 2.077 0 01-.794-.867c-.185-.374-.278-.812-.278-1.314 0-.496.093-.933.278-1.311.187-.378.447-.673.782-.885.336-.213.729-.319 1.179-.319.273 0 .538.046.794.136.257.09.487.232.691.426.204.193.365.444.483.752.117.307.176.68.176 1.119v.334h-3.85v-.706h2.926c0-.248-.05-.467-.151-.658a1.138 1.138 0 00-.426-.457 1.182 1.182 0 00-.637-.167 1.23 1.23 0 00-.693.195 1.315 1.315 0 00-.455.504c-.105.206-.157.43-.157.671v.552c0 .324.057.599.17.826.116.226.276.4.483.52.206.117.446.176.722.176.179 0 .341-.025.488-.076a1.02 1.02 0 00.628-.614l.892.161c-.071.262-.2.493-.384.69a1.88 1.88 0 01-.691.456c-.276.108-.59.161-.943.161zm5.066 0c-.468 0-.872-.106-1.21-.318a2.102 2.102 0 01-.776-.885 2.946 2.946 0 01-.271-1.293c0-.491.092-.925.277-1.301.185-.378.446-.673.782-.885.337-.213.733-.319 1.189-.319.368 0 .696.068.984.205.288.135.52.324.696.567.179.244.286.529.319.854h-.917a1.104 1.104 0 00-.347-.586c-.179-.163-.419-.246-.719-.246-.263 0-.493.07-.691.208a1.339 1.339 0 00-.457.587c-.109.251-.164.55-.164.894 0 .354.054.658.161.914.107.257.258.455.454.596.198.141.43.211.697.211.178 0 .34-.032.485-.097a.994.994 0 00.369-.287c.101-.124.172-.273.212-.448h.917a1.76 1.76 0 01-.99 1.419c-.284.14-.617.21-1 .21zm5.161-4.938v.756h-2.645v-.756h2.645zm-1.936-1.159h.943v4.579c0 .182.027.32.082.412a.423.423 0 00.211.186.84.84 0 00.288.047c.075 0 .141-.005.198-.015l.132-.026.171.779a1.839 1.839 0 01-.612.101 1.659 1.659 0 01-.694-.133 1.192 1.192 0 01-.52-.428c-.132-.193-.199-.436-.199-.728v-4.774zm5.73 7.815a1.973 1.973 0 01-.644-.104l.227-.772c.173.046.326.066.461.06a.549.549 0 00.356-.152c.105-.094.198-.248.278-.463l.116-.321-1.772-4.904h1.009l1.227 3.757h.05l1.227-3.757h1.012l-1.996 5.487c-.093.252-.21.465-.353.639a1.361 1.361 0 01-.511.397 1.658 1.658 0 01-.687.133zm6.21-1.718c-.453 0-.85-.103-1.188-.311a2.105 2.105 0 01-.788-.873c-.187-.374-.281-.811-.281-1.312s.094-.941.281-1.317c.187-.376.449-.668.788-.876.338-.208.735-.312 1.188-.312.454 0 .851.104 1.189.312.339.208.602.5.789.876.187.376.28.816.28 1.317s-.093.938-.28 1.312c-.187.373-.45.665-.789.873-.338.208-.735.311-1.189.311zm.004-.791c.294 0 .538-.077.731-.233.194-.155.337-.362.429-.621.095-.258.142-.543.142-.853 0-.309-.047-.593-.142-.852a1.374 1.374 0 00-.429-.626c-.193-.158-.437-.237-.731-.237-.297 0-.542.079-.738.237a1.403 1.403 0 00-.432.626 2.505 2.505 0 00-.139.852c0 .31.046.595.139.853.094.259.239.466.432.621.196.156.441.233.738.233zm6.277-1.313v-2.834h.946v4.841h-.927v-.838h-.051c-.111.258-.29.473-.536.645-.244.171-.547.256-.911.256-.311 0-.586-.068-.826-.205a1.456 1.456 0 01-.562-.615c-.134-.27-.201-.605-.201-1.005v-3.079h.943v2.966c0 .33.091.592.274.788.183.195.42.292.713.292.176 0 .351-.043.526-.132.177-.088.323-.221.439-.4.117-.179.175-.405.173-.68zm2.115 2.007v-4.841h.911v.769h.05c.089-.26.245-.465.467-.614.225-.152.48-.227.763-.227a4.23 4.23 0 01.401.022v.901a1.929 1.929 0 00-.202-.035 2.02 2.02 0 00-.29-.021c-.223 0-.422.047-.596.141a1.062 1.062 0 00-.561.949v2.956h-.943zm5.562 0v-4.841h.907v.788h.055c.106-.267.267-.475.5-.624.227-.151.499-.227.821-.227.322 0 .594.076.816.227.216.151.383.359.488.624h.05c.117-.258.3-.464.549-.617.256-.156.555-.234.905-.234.438 0 .794.138 1.071.413.283.276.422.69.422 1.245v3.246h-.944v-3.158c0-.328-.088-.565-.266-.712a.981.981 0 00-.644-.221c-.305 0-.544.095-.716.284a1.05 1.05 0 00-.255.722v3.085h-.938v-3.218a.853.853 0 00-.244-.633c-.166-.16-.377-.24-.644-.24a.925.925 0 00-.494.142 1.047 1.047 0 00-.36.388 1.2 1.2 0 00-.133.576v2.985h-.946zm7.749 0v-4.841h.944v4.841h-.944zm.477-5.588a.59.59 0 01-.421-.163.528.528 0 01-.172-.397c0-.156.055-.288.172-.397a.58.58 0 01.421-.167c.161 0 .306.055.417.167a.507.507 0 01.177.397.515.515 0 01-.177.397.58.58 0 01-.417.163zm3.68 5.685c-.472 0-.877-.106-1.216-.318a2.098 2.098 0 01-.771-.885c-.183-.376-.272-.807-.272-1.293 0-.491.089-.925.278-1.301.183-.378.443-.673.782-.885.333-.213.733-.319 1.188-.319.366 0 .693.068.982.205.288.135.521.324.699.567.178.244.283.529.316.854h-.915a1.091 1.091 0 00-.35-.586c-.177-.163-.416-.246-.716-.246-.266 0-.494.07-.693.208a1.351 1.351 0 00-.456.587c-.11.251-.166.55-.166.894 0 .354.056.658.161.914.111.257.261.455.455.596.2.141.433.211.699.211.178 0 .339-.032.483-.097a.997.997 0 00.372-.287c.1-.124.172-.273.211-.448h.915a1.751 1.751 0 01-.987 1.419c-.283.14-.622.21-.999.21zm2.896-.097v-4.841h.911v.769h.05c.088-.26.244-.465.471-.614a1.32 1.32 0 01.761-.227 4.339 4.339 0 01.399.022v.901a1.966 1.966 0 00-.2-.035 2.057 2.057 0 00-.288-.021c-.228 0-.422.047-.6.141a1.055 1.055 0 00-.56.949v2.956h-.944zm5.178.097c-.455 0-.849-.103-1.187-.311a2.079 2.079 0 01-.788-.873c-.189-.374-.284-.811-.284-1.312s.095-.941.284-1.317a2.07 2.07 0 01.788-.876c.338-.208.732-.312 1.187-.312.455 0 .849.104 1.188.312.338.208.605.5.788.876.188.376.283.816.283 1.317s-.095.938-.283 1.312c-.183.373-.45.665-.788.873-.339.208-.733.311-1.188.311zm.006-.791c.294 0 .538-.077.727-.233.194-.155.338-.362.433-.621.094-.258.138-.543.138-.853a2.48 2.48 0 00-.138-.852 1.405 1.405 0 00-.433-.626c-.189-.158-.433-.237-.727-.237-.3 0-.544.079-.738.237a1.389 1.389 0 00-.433.626 2.457 2.457 0 00-.139.852c0 .31.044.595.139.853.094.259.238.466.433.621.194.156.438.233.738.233zm3.207 2.509v-6.656h.921v.785h.078c.056-.101.133-.217.239-.35.1-.132.244-.248.427-.346.183-.101.422-.152.727-.152.389 0 .738.099 1.043.296.306.198.55.483.722.855.177.371.266.819.266 1.342 0 .523-.089.971-.261 1.346a2.068 2.068 0 01-.721.86c-.305.2-.649.3-1.043.3-.294 0-.533-.05-.722-.149a1.385 1.385 0 01-.433-.347 2.558 2.558 0 01-.244-.352h-.055v2.568h-.944zm.921-4.236c0 .341.05.639.15.895.1.257.245.458.428.602a1.1 1.1 0 00.688.215 1.1 1.1 0 00.705-.224 1.38 1.38 0 00.432-.615c.095-.258.145-.549.145-.873 0-.319-.045-.605-.145-.86a1.327 1.327 0 00-.427-.602c-.189-.147-.427-.22-.71-.22-.272 0-.505.07-.694.211a1.31 1.31 0 00-.427.589 2.493 2.493 0 00-.145.882zm5.406-.453v2.874h-.944v-6.454h.927v2.401h.061c.117-.26.289-.468.522-.621.233-.153.538-.23.915-.23.333 0 .622.068.866.205.255.137.444.34.583.612.138.269.211.605.211 1.008v3.079h-.944v-2.966c0-.355-.094-.63-.277-.825-.183-.198-.439-.296-.761-.296a1.26 1.26 0 00-.599.141 1.017 1.017 0 00-.416.416 1.406 1.406 0 00-.144.656zm6.337 2.971c-.455 0-.849-.103-1.187-.311-.339-.208-.6-.5-.789-.873-.188-.374-.283-.811-.283-1.312s.095-.941.283-1.317a2.11 2.11 0 01.789-.876c.338-.208.732-.312 1.187-.312.455 0 .849.104 1.188.312.338.208.605.5.788.876.188.376.283.816.283 1.317s-.095.938-.283 1.312c-.183.373-.45.665-.788.873-.339.208-.733.311-1.188.311zm.006-.791c.294 0 .538-.077.732-.233.189-.155.333-.362.427-.621.095-.258.139-.543.139-.853 0-.309-.044-.593-.139-.852a1.426 1.426 0 00-.427-.626c-.194-.158-.438-.237-.732-.237-.3 0-.544.079-.738.237a1.389 1.389 0 00-.433.626 2.457 2.457 0 00-.139.852c0 .31.044.595.139.853.094.259.238.466.433.621.194.156.438.233.738.233zm4.151-2.18v2.874h-.944v-4.841h.905v.788h.061a1.37 1.37 0 01.521-.617c.239-.156.544-.234.905-.234.333 0 .622.07.871.208.244.137.439.341.577.611.134.272.2.607.2 1.006v3.079h-.938v-2.966c0-.35-.094-.624-.277-.822-.183-.2-.433-.299-.755-.299a1.2 1.2 0 00-.583.141 1.047 1.047 0 00-.399.416 1.406 1.406 0 00-.144.656zm6.354 2.971c-.477 0-.888-.101-1.232-.305a2.039 2.039 0 01-.794-.867c-.188-.374-.277-.812-.277-1.314 0-.496.089-.933.277-1.311.183-.378.444-.673.777-.885a2.174 2.174 0 011.182-.319c.272 0 .538.046.794.136.255.09.488.232.693.426.2.193.361.444.478.752.122.307.177.68.177 1.119v.334h-3.845v-.706h2.924c0-.248-.05-.467-.15-.658a1.168 1.168 0 00-.427-.457 1.193 1.193 0 00-.638-.167c-.267 0-.494.065-.694.195a1.355 1.355 0 00-.61 1.175v.552c0 .324.055.599.172.826.111.226.272.4.477.52.211.117.449.176.727.176a1.5 1.5 0 00.488-.076 1.04 1.04 0 00.627-.614l.894.161c-.072.262-.2.493-.389.69a1.85 1.85 0 01-.688.456 2.568 2.568 0 01-.943.161zm6.687.01c-.305 0-.583-.057-.833-.171a1.383 1.383 0 01-.588-.5c-.144-.219-.216-.487-.216-.804 0-.273.055-.498.161-.674.1-.177.244-.317.421-.419a2.22 2.22 0 01.6-.234c.222-.052.444-.092.677-.119l.705-.083c.183-.022.31-.059.394-.109.083-.051.122-.133.122-.247v-.021c0-.276-.078-.489-.233-.64-.15-.151-.383-.227-.689-.227-.316 0-.566.07-.749.211a1.192 1.192 0 00-.377.463l-.882-.202c.105-.294.255-.531.46-.712.206-.182.439-.315.699-.397a2.765 2.765 0 011.454-.056 1.8 1.8 0 01.611.245c.194.12.349.291.472.514.122.221.183.507.183.861v3.214h-.922v-.662h-.038c-.061.122-.15.242-.272.359a1.476 1.476 0 01-.472.293 1.835 1.835 0 01-.688.117zm.205-.756c.261 0 .483-.052.666-.155.189-.103.333-.237.427-.403.1-.168.15-.348.15-.539v-.624a.5.5 0 01-.194.095 3.137 3.137 0 01-.327.072l-.356.054-.288.037c-.183.024-.35.062-.505.117a.88.88 0 00-.361.237.613.613 0 00-.127.403c0 .233.083.41.255.529.172.118.394.177.66.177zm4.284-2.225v2.874h-.943v-4.841h.905v.788h.061c.111-.256.288-.462.527-.617.238-.156.538-.234.904-.234.328 0 .616.07.866.208a1.4 1.4 0 01.577.611c.133.272.205.607.205 1.006v3.079h-.943v-2.966c0-.35-.094-.624-.277-.822-.178-.2-.433-.299-.75-.299-.222 0-.416.047-.582.141a1.022 1.022 0 00-.405.416 1.394 1.394 0 00-.145.656zm6.083 2.969c-.394 0-.744-.1-1.049-.3a2.022 2.022 0 01-.716-.86c-.178-.375-.261-.823-.261-1.346 0-.523.089-.971.261-1.342.177-.372.416-.657.727-.855a1.886 1.886 0 011.043-.296c.3 0 .544.051.727.152.183.098.328.214.427.346.1.133.184.249.239.35h.055v-2.398h.944v6.454h-.921v-.753h-.078c-.055.103-.139.22-.244.352-.106.133-.25.248-.439.347-.183.099-.421.149-.715.149zm.205-.804c.272 0 .499-.072.688-.215.189-.144.333-.345.427-.602.1-.256.15-.554.15-.895 0-.336-.05-.63-.144-.882a1.274 1.274 0 00-.427-.589c-.184-.141-.417-.211-.694-.211-.283 0-.522.073-.71.22a1.375 1.375 0 00-.428.602 2.471 2.471 0 00-.138.86c0 .324.044.615.144.873.094.259.238.464.427.615.189.149.427.224.705.224zm6.637-2.165v2.874h-.943v-6.454h.926v2.401h.061c.117-.26.289-.468.522-.621.233-.153.538-.23.916-.23.333 0 .621.068.871.205.25.137.438.34.577.612.139.269.211.605.211 1.008v3.079h-.943v-2.966c0-.355-.095-.63-.278-.825-.183-.198-.433-.296-.76-.296-.222 0-.422.047-.599.141a1.05 1.05 0 00-.417.416 1.406 1.406 0 00-.144.656zm6.387 2.971c-.477 0-.887-.101-1.232-.305a2.037 2.037 0 01-.793-.867c-.189-.374-.278-.812-.278-1.314 0-.496.089-.933.278-1.311.183-.378.444-.673.777-.885a2.17 2.17 0 011.182-.319c.272 0 .538.046.793.136.256.09.489.232.694.426.2.193.361.444.477.752.122.307.178.68.178 1.119v.334h-3.846v-.706h2.925c0-.248-.05-.467-.15-.658a1.176 1.176 0 00-.427-.457 1.196 1.196 0 00-.639-.167c-.266 0-.493.065-.693.195a1.355 1.355 0 00-.455.504c-.106.206-.156.43-.156.671v.552c0 .324.056.599.172.826.111.226.272.4.478.52.21.117.449.176.727.176a1.5 1.5 0 00.488-.076 1.037 1.037 0 00.627-.614l.888.161a1.528 1.528 0 01-.383.69 1.859 1.859 0 01-.688.456 2.596 2.596 0 01-.944.161zm4.434.01a1.98 1.98 0 01-.832-.171 1.377 1.377 0 01-.588-.5c-.145-.219-.217-.487-.217-.804 0-.273.056-.498.161-.674.106-.177.244-.317.422-.419.183-.103.383-.181.599-.234.222-.052.45-.092.677-.119.289-.034.528-.061.705-.083.183-.022.311-.059.394-.109.083-.051.122-.133.122-.247v-.021c0-.276-.077-.489-.233-.64-.15-.151-.383-.227-.688-.227-.316 0-.566.07-.749.211a1.126 1.126 0 00-.372.463l-.888-.202c.106-.294.261-.531.461-.712.205-.182.438-.315.705-.397.26-.084.543-.126.832-.126.194 0 .4.024.616.07.216.044.422.125.61.245.195.12.35.291.472.514.122.221.183.507.183.861v3.214h-.921v-.662h-.039c-.061.122-.15.242-.272.359a1.482 1.482 0 01-.471.293 1.818 1.818 0 01-.689.117zm.206-.756c.261 0 .483-.052.671-.155a1.08 1.08 0 00.572-.942v-.624a.5.5 0 01-.194.095 3.219 3.219 0 01-.328.072l-.355.054-.288.037c-.184.024-.35.062-.506.117a.833.833 0 00-.355.237.59.59 0 00-.133.403c0 .233.083.41.255.529.172.118.394.177.661.177zm5.155.744c-.388 0-.738-.1-1.043-.3a2.032 2.032 0 01-.721-.86c-.173-.375-.261-.823-.261-1.346 0-.523.088-.971.266-1.342.172-.372.416-.657.721-.855a1.901 1.901 0 011.044-.296c.305 0 .544.051.727.152.183.098.327.214.427.346.106.133.183.249.244.35h.056v-2.398h.943v6.454h-.921v-.753h-.078c-.061.103-.138.22-.249.352-.106.133-.25.248-.433.347-.189.099-.428.149-.722.149zm.211-.804c.272 0 .5-.072.688-.215.189-.144.328-.345.428-.602.099-.256.149-.554.149-.895 0-.336-.05-.63-.149-.882a1.309 1.309 0 00-.422-.589 1.13 1.13 0 00-.694-.211c-.283 0-.522.073-.71.22a1.337 1.337 0 00-.428.602 2.47 2.47 0 00-.144.86c0 .324.05.615.144.873.1.259.239.464.428.615.194.149.427.224.71.224zm3.435 2.524v-6.656h.921v.785h.084c.05-.101.133-.217.233-.35.105-.132.249-.248.427-.346.183-.101.427-.152.727-.152.394 0 .738.099 1.049.296.305.198.544.483.721.855.178.371.267.819.267 1.342 0 .523-.089.971-.267 1.346-.172.371-.41.658-.716.86-.305.2-.654.3-1.043.3-.294 0-.538-.05-.721-.149a1.346 1.346 0 01-.439-.347 2.375 2.375 0 01-.238-.352h-.061v2.568h-.944zm.927-4.236c0 .341.05.639.15.895.094.257.238.458.427.602.189.143.416.215.688.215a1.1 1.1 0 00.705-.224c.189-.151.333-.356.427-.615a2.4 2.4 0 00.15-.873c0-.319-.05-.605-.144-.86a1.335 1.335 0 00-.427-.602c-.189-.147-.428-.22-.711-.22-.272 0-.505.07-.693.211a1.311 1.311 0 00-.428.589 2.516 2.516 0 00-.144.882zm5.4-.453v2.874h-.944v-6.454h.933v2.401h.061a1.38 1.38 0 01.521-.621c.233-.153.538-.23.91-.23.333 0 .622.068.872.205.249.137.443.34.582.612.139.269.206.605.206 1.008v3.079h-.944v-2.966c0-.355-.089-.63-.272-.825-.183-.198-.438-.296-.766-.296a1.26 1.26 0 00-.599.141 1.035 1.035 0 00-.411.416 1.347 1.347 0 00-.149.656zm6.343 2.971c-.455 0-.849-.103-1.188-.311a2.079 2.079 0 01-.788-.873c-.189-.374-.283-.811-.283-1.312s.094-.941.283-1.317a2.07 2.07 0 01.788-.876c.339-.208.733-.312 1.188-.312.455 0 .849.104 1.187.312.339.208.6.5.788.876.189.376.283.816.283 1.317s-.094.938-.283 1.312a2.112 2.112 0 01-.788.873c-.338.208-.732.311-1.187.311zm0-.791c.294 0 .538-.077.732-.233.194-.155.339-.362.433-.621.094-.258.139-.543.139-.853a2.48 2.48 0 00-.139-.852 1.397 1.397 0 00-.433-.626c-.194-.158-.438-.237-.732-.237-.295 0-.539.079-.733.237a1.405 1.405 0 00-.433.626 2.48 2.48 0 00-.139.852c0 .31.045.595.139.853.095.259.239.466.433.621.194.156.438.233.733.233zm4.156-2.18v2.874h-.943v-4.841h.904v.788h.061c.111-.256.283-.462.522-.617.239-.156.538-.234.905-.234.327 0 .621.07.865.208.25.137.444.341.577.611.139.272.206.607.206 1.006v3.079h-.944v-2.966c0-.35-.088-.624-.272-.822-.183-.2-.432-.299-.754-.299-.217 0-.411.047-.583.141-.166.095-.3.234-.4.416a1.347 1.347 0 00-.144.656zm6.354 2.971c-.477 0-.893-.101-1.237-.305a2.11 2.11 0 01-.794-.867c-.183-.374-.277-.812-.277-1.314 0-.496.094-.933.277-1.311.189-.378.45-.673.783-.885a2.17 2.17 0 011.182-.319c.272 0 .538.046.793.136.256.09.483.232.688.426.206.193.367.444.483.752.117.307.178.68.178 1.119v.334h-3.852v-.706h2.925c0-.248-.05-.467-.15-.658a1.156 1.156 0 00-.422-.457 1.193 1.193 0 00-.638-.167 1.22 1.22 0 00-.693.195 1.31 1.31 0 00-.456.504c-.105.206-.155.43-.155.671v.552c0 .324.056.599.167.826.116.226.277.4.482.52.206.117.45.176.722.176.177 0 .344-.025.488-.076a1.004 1.004 0 00.627-.614l.894.161c-.072.262-.2.493-.383.69a1.875 1.875 0 01-.694.456 2.54 2.54 0 01-.938.161zm6.654-3.756l-.855.151a1.051 1.051 0 00-.172-.311.795.795 0 00-.31-.243 1.1 1.1 0 00-.489-.095c-.266 0-.488.06-.666.18-.177.118-.266.27-.266.456a.47.47 0 00.178.391c.122.099.316.18.582.243l.766.177c.45.102.777.261.999.476.216.214.327.492.327.834 0 .29-.083.549-.255.776a1.607 1.607 0 01-.694.529 2.568 2.568 0 01-1.032.192c-.544 0-.982-.115-1.326-.346a1.464 1.464 0 01-.633-.993l.91-.139a.909.909 0 00.35.539c.178.12.411.18.694.18.31 0 .555-.064.738-.192.188-.131.277-.289.277-.476a.497.497 0 00-.166-.381c-.111-.103-.283-.181-.516-.234l-.822-.179c-.449-.103-.782-.267-.999-.492-.216-.225-.321-.509-.321-.854 0-.286.077-.536.238-.75a1.6 1.6 0 01.661-.501c.283-.122.604-.183.971-.183.521 0 .932.114 1.232.341.305.224.499.526.599.904zm5.588-1.182v.756h-2.735v-.756h2.735zm-1.986 4.841v-5.402c0-.302.066-.553.199-.753.134-.201.311-.352.528-.45.216-.101.455-.152.71-.152.189 0 .355.016.488.047.133.03.233.057.3.082l-.222.763a3.381 3.381 0 00-.172-.044.932.932 0 00-.25-.028c-.227 0-.394.057-.494.17-.094.113-.144.277-.144.492v5.275h-.943zm2.863 0v-4.841h.91v.769h.05c.089-.26.244-.465.466-.614.228-.152.483-.227.766-.227a4.19 4.19 0 01.4.022v.901a2.021 2.021 0 00-.2-.035 2.076 2.076 0 00-.294-.021c-.222 0-.422.047-.594.141a1.058 1.058 0 00-.411.388 1.064 1.064 0 00-.149.561v2.956h-.944zm5.178.097c-.455 0-.849-.103-1.188-.311a2.085 2.085 0 01-.788-.873c-.189-.374-.283-.811-.283-1.312s.094-.941.283-1.317c.183-.376.45-.668.788-.876.339-.208.733-.312 1.188-.312.455 0 .849.104 1.187.312.339.208.6.5.788.876.189.376.283.816.283 1.317s-.094.938-.283 1.312a2.112 2.112 0 01-.788.873c-.338.208-.732.311-1.187.311zm0-.791c.294 0 .538-.077.732-.233.195-.155.339-.362.428-.621.094-.258.144-.543.144-.853 0-.309-.05-.593-.144-.852a1.343 1.343 0 00-.428-.626c-.194-.158-.438-.237-.732-.237a1.15 1.15 0 00-.738.237 1.436 1.436 0 00-.428.626 2.48 2.48 0 00-.138.852c0 .31.044.595.138.853.095.259.239.466.428.621.2.156.444.233.738.233zm3.213.694v-4.841h.905v.788h.055c.105-.267.266-.475.499-.624.228-.151.5-.227.822-.227.322 0 .594.076.816.227.216.151.382.359.488.624h.05a1.37 1.37 0 01.549-.617c.255-.156.555-.234.905-.234.438 0 .793.138 1.071.413.283.276.422.69.422 1.245v3.246h-.944v-3.158c0-.328-.089-.565-.266-.712a.981.981 0 00-.644-.221c-.305 0-.544.095-.716.284a1.05 1.05 0 00-.255.722v3.085h-.938v-3.218a.853.853 0 00-.244-.633.885.885 0 00-.644-.24.925.925 0 00-.494.142c-.15.092-.266.222-.36.388a1.202 1.202 0 00-.139.576v2.985h-.938zm-165.932 8.471v.756h-2.645v-.756h2.645zm-1.936-1.16h.943v4.579c0 .182.027.32.082.413.055.09.125.152.211.185a.835.835 0 00.287.047c.076 0 .142-.005.199-.015l.132-.026.17.779a1.846 1.846 0 01-.611.101 1.674 1.674 0 01-.694-.132 1.196 1.196 0 01-.52-.429c-.133-.193-.199-.436-.199-.728v-4.774zm3.928 3.126v2.874h-.943v-6.454h.931v2.401h.059a1.39 1.39 0 01.521-.62c.233-.154.538-.231.914-.231.332 0 .623.069.871.205.249.137.443.341.58.612.138.269.208.605.208 1.008v3.079h-.943v-2.966c0-.355-.092-.63-.274-.825-.183-.198-.438-.296-.763-.296a1.26 1.26 0 00-.6.141 1.034 1.034 0 00-.413.416c-.098.181-.148.4-.148.656zm6.389 2.971c-.477 0-.889-.101-1.233-.305a2.076 2.076 0 01-.795-.866c-.185-.375-.277-.812-.277-1.315 0-.496.092-.933.277-1.311.187-.378.448-.673.782-.885.336-.213.73-.319 1.179-.319.274 0 .539.046.795.136.256.09.487.232.69.426.204.193.365.444.483.752s.177.68.177 1.12v.333h-3.851v-.706h2.927c0-.248-.051-.467-.152-.658a1.124 1.124 0 00-.426-.457 1.187 1.187 0 00-.636-.167c-.265 0-.496.065-.694.195a1.304 1.304 0 00-.454.504c-.105.206-.158.43-.158.672v.551c0 .324.057.599.17.826.116.227.277.4.483.52.206.118.446.176.722.176.179 0 .342-.025.489-.076.147-.052.274-.129.381-.233a.996.996 0 00.246-.381l.893.161c-.072.263-.2.493-.385.69a1.877 1.877 0 01-.691.457c-.275.107-.589.16-.942.16zm7.091-.002c-.391 0-.74-.1-1.047-.3a2.05 2.05 0 01-.719-.86c-.172-.374-.259-.823-.259-1.346 0-.523.088-.971.262-1.342a2.01 2.01 0 01.726-.854 1.884 1.884 0 011.044-.297c.3 0 .542.051.724.152.186.099.328.214.429.346.104.133.183.249.24.35h.057v-2.398h.942v6.454h-.92v-.753h-.079c-.057.103-.139.22-.246.352a1.36 1.36 0 01-.435.347c-.185.099-.424.149-.719.149zm.208-.804a1.1 1.1 0 00.688-.215 1.33 1.33 0 00.429-.601c.098-.257.148-.555.148-.896 0-.336-.049-.63-.146-.881a1.29 1.29 0 00-.425-.59 1.12 1.12 0 00-.694-.211c-.284 0-.52.073-.709.22a1.346 1.346 0 00-.429.602 2.45 2.45 0 00-.142.86c0 .324.049.615.145.873.097.259.24.464.429.615.191.149.426.224.706.224zm3.44.709v-4.84h.911v.768h.05c.089-.26.244-.465.467-.614a1.33 1.33 0 01.763-.227 4.23 4.23 0 01.4.022v.901a1.896 1.896 0 00-.201-.035 2.035 2.035 0 00-.291-.021c-.223 0-.421.047-.596.141a1.062 1.062 0 00-.561.949v2.956h-.942zm5.176.097c-.454 0-.85-.103-1.189-.311a2.106 2.106 0 01-.788-.873c-.187-.374-.28-.811-.28-1.311 0-.502.093-.942.28-1.318a2.1 2.1 0 01.788-.875 2.227 2.227 0 011.189-.313c.454 0 .85.105 1.189.313a2.1 2.1 0 01.788.875c.187.376.281.816.281 1.318 0 .5-.094.937-.281 1.311-.187.374-.45.665-.788.873-.339.208-.735.311-1.189.311zm.003-.79c.295 0 .538-.078.732-.233.193-.156.336-.363.429-.622.094-.258.141-.543.141-.853a2.48 2.48 0 00-.141-.852 1.39 1.39 0 00-.429-.626c-.194-.158-.437-.237-.732-.237-.296 0-.542.079-.738.237a1.401 1.401 0 00-.431.626 2.505 2.505 0 00-.139.852c0 .31.046.595.139.853.094.259.238.466.431.622.196.155.442.233.738.233zm3.21 2.508v-6.655h.92v.784h.079c.055-.101.133-.217.237-.35.102-.132.245-.247.429-.346.182-.101.424-.152.724-.152.391 0 .741.099 1.047.297.307.197.546.482.724.854.177.371.266.819.266 1.342 0 .523-.089.972-.266 1.346a2.018 2.018 0 01-.717.86c-.305.2-.653.3-1.044.3-.294 0-.535-.05-.722-.149a1.36 1.36 0 01-.435-.347 2.632 2.632 0 01-.243-.352h-.057v2.568h-.942zm.923-4.236c0 .341.049.639.148.896.099.256.242.457.429.601.187.143.416.215.688.215.281 0 .517-.075.706-.224a1.39 1.39 0 00.429-.615c.098-.258.148-.549.148-.873 0-.318-.048-.605-.145-.86a1.324 1.324 0 00-.429-.602c-.189-.147-.426-.22-.709-.22-.274 0-.505.07-.694.211a1.29 1.29 0 00-.425.59 2.417 2.417 0 00-.146.881zm6.272 2.516c-.388 0-.738-.1-1.049-.3a2.016 2.016 0 01-.716-.86c-.172-.374-.26-.823-.26-1.346 0-.523.088-.971.26-1.342.178-.372.422-.657.727-.854a1.882 1.882 0 011.044-.297c.299 0 .543.051.727.152.183.099.327.214.427.346.105.133.183.249.239.35h.055v-2.398h.943v6.454h-.921v-.753h-.077c-.056.103-.139.22-.245.352a1.369 1.369 0 01-.432.347c-.189.099-.428.149-.722.149zm.205-.804c.272 0 .505-.072.689-.215a1.35 1.35 0 00.432-.601c.095-.257.145-.555.145-.896 0-.336-.045-.63-.145-.881a1.265 1.265 0 00-.427-.59c-.183-.141-.416-.211-.694-.211-.283 0-.516.073-.704.22a1.384 1.384 0 00-.433.602 2.452 2.452 0 00-.139.86c0 .324.044.615.144.873.095.259.239.464.428.615.194.149.427.224.704.224zm5.483.806c-.455 0-.849-.103-1.187-.311a2.073 2.073 0 01-.788-.873c-.189-.374-.283-.811-.283-1.311 0-.502.094-.942.283-1.318.183-.376.449-.667.788-.875.338-.208.732-.313 1.187-.313.455 0 .849.105 1.188.313.338.208.599.499.788.875.189.376.283.816.283 1.318 0 .5-.094.937-.283 1.311a2.12 2.12 0 01-.788.873c-.339.208-.733.311-1.188.311zm0-.79c.294 0 .539-.078.733-.233.194-.156.338-.363.427-.622.1-.258.144-.543.144-.853 0-.309-.044-.593-.144-.852a1.348 1.348 0 00-.427-.626c-.194-.158-.439-.237-.733-.237a1.15 1.15 0 00-.738.237 1.435 1.435 0 00-.427.626 2.48 2.48 0 00-.139.852c0 .31.045.595.139.853.094.259.239.466.427.622.2.155.444.233.738.233zm4.112.693l-1.42-4.84h.971l.949 3.554h.05l.949-3.554h.976l.944 3.538h.05l.943-3.538h.971l-1.42 4.84h-.96l-.988-3.495h-.072l-.983 3.495h-.96zm7.126-2.874v2.874h-.943v-4.84h.904v.787h.061c.111-.256.283-.462.522-.617.238-.156.544-.234.904-.234.333 0 .622.07.866.208.25.137.444.341.577.612.139.271.206.606.206 1.005v3.079h-.944v-2.966c0-.35-.089-.624-.272-.822-.183-.199-.433-.299-.755-.299-.216 0-.41.047-.582.141-.167.095-.3.234-.4.416-.1.181-.144.4-.144.656zm7.458-3.58v6.454h-.943v-6.454h.943zm1.171 6.454v-4.84h.944v4.84h-.944zm.478-5.588a.59.59 0 01-.422-.163.528.528 0 01-.172-.397c0-.156.055-.288.172-.397a.582.582 0 01.422-.167.59.59 0 01.421.167.519.519 0 01.172.397.528.528 0 01-.172.397.6.6 0 01-.421.163zm5.266 1.929l-.855.151a.95.95 0 00-.172-.311.814.814 0 00-.305-.243 1.13 1.13 0 00-.488-.095c-.272 0-.494.06-.672.18-.177.118-.266.27-.266.457 0 .162.061.292.177.391.123.098.317.179.583.243l.766.176c.45.103.783.261.999.476.216.214.327.492.327.835 0 .29-.083.548-.249.775-.167.225-.4.401-.7.53a2.569 2.569 0 01-1.032.191c-.544 0-.982-.115-1.326-.346a1.464 1.464 0 01-.633-.993l.916-.139a.86.86 0 00.349.539c.172.12.406.18.689.18.31 0 .555-.064.743-.192.183-.131.278-.289.278-.476a.503.503 0 00-.172-.381c-.111-.103-.283-.181-.516-.234l-.816-.179c-.455-.103-.788-.267-1.005-.492-.216-.224-.321-.509-.321-.854 0-.286.077-.536.238-.75a1.6 1.6 0 01.661-.501c.283-.122.604-.183.971-.183.521 0 .932.114 1.237.341.3.225.5.526.594.904zm3.296-1.181v.756h-2.647v-.756h2.647zm-1.936-1.16h.943v4.579c0 .182.028.32.078.413.055.09.127.152.211.185a.853.853 0 00.288.047c.078 0 .144-.005.2-.015l.133-.026.172.779a1.547 1.547 0 01-.238.063 1.8 1.8 0 01-.378.038 1.693 1.693 0 01-.694-.132 1.185 1.185 0 01-.516-.429c-.133-.193-.199-.436-.199-.728v-4.774zm6.431 2.341l-.854.151a1.098 1.098 0 00-.172-.311.798.798 0 00-.311-.243 1.099 1.099 0 00-.488-.095c-.267 0-.489.06-.666.18-.178.118-.267.27-.267.457 0 .162.056.292.178.391.122.098.311.179.583.243l.765.176c.45.103.777.261.999.476.217.214.328.492.328.835 0 .29-.084.548-.256.775a1.642 1.642 0 01-.693.53c-.3.128-.638.191-1.032.191-.544 0-.983-.115-1.327-.346a1.46 1.46 0 01-.632-.993l.91-.139a.908.908 0 00.349.539c.178.12.411.18.694.18.311 0 .555-.064.738-.192.189-.131.278-.289.278-.476a.498.498 0 00-.167-.381c-.111-.103-.283-.181-.516-.234l-.821-.179c-.45-.103-.783-.267-.999-.492-.217-.224-.322-.509-.322-.854 0-.286.078-.536.239-.75.161-.214.382-.381.66-.501.283-.122.605-.183.971-.183.522 0 .932.114 1.232.341.305.225.5.526.599.904zm4.695 3.766c-.305 0-.582-.057-.832-.17a1.386 1.386 0 01-.588-.501c-.145-.219-.217-.487-.217-.804 0-.273.05-.498.156-.674.105-.177.249-.316.427-.419a2.2 2.2 0 01.599-.234c.222-.052.444-.092.677-.119l.705-.082c.183-.023.311-.06.394-.11.083-.051.122-.133.122-.247v-.021c0-.276-.078-.489-.233-.64-.155-.151-.383-.227-.688-.227-.316 0-.566.07-.749.211a1.152 1.152 0 00-.378.463l-.882-.201a1.67 1.67 0 01.461-.713c.199-.182.438-.315.699-.397a2.791 2.791 0 011.454-.056c.216.044.422.126.61.245.189.12.35.292.472.514.122.221.183.507.183.861v3.214h-.921v-.662h-.039a1.36 1.36 0 01-.277.36 1.477 1.477 0 01-.467.292 1.83 1.83 0 01-.688.117zm.206-.756c.26 0 .482-.052.666-.155.188-.102.333-.237.427-.403.1-.168.15-.348.15-.539v-.624a.499.499 0 01-.2.095c-.094.027-.2.051-.322.072l-.355.054-.294.037c-.183.024-.35.062-.5.117a.876.876 0 00-.36.237.585.585 0 00-.134.403c0 .233.089.41.261.529.172.118.394.177.661.177zm4.284-2.225v2.874h-.944v-4.84h.905v.787h.061c.111-.256.289-.462.522-.617.244-.156.543-.234.904-.234.333 0 .622.07.871.208.245.137.439.341.578.612.133.271.205.606.205 1.005v3.079h-.944v-2.966c0-.35-.094-.624-.277-.822-.183-.199-.433-.299-.749-.299a1.2 1.2 0 00-.588.141c-.167.095-.3.234-.4.416-.094.181-.144.4-.144.656zm6.082 2.969c-.394 0-.744-.1-1.049-.3a2.062 2.062 0 01-.721-.86c-.172-.374-.256-.823-.256-1.346 0-.523.089-.971.261-1.342.178-.372.416-.657.727-.854a1.88 1.88 0 011.044-.297c.299 0 .538.051.721.152.189.099.333.214.433.346.1.133.183.249.238.35h.056v-2.398h.943v6.454h-.921v-.753h-.078c-.055.103-.138.22-.244.352a1.396 1.396 0 01-.438.347c-.183.099-.422.149-.716.149zm.205-.804c.272 0 .5-.072.688-.215.189-.144.333-.345.428-.601.1-.257.15-.555.15-.896 0-.336-.05-.63-.145-.881a1.307 1.307 0 00-.427-.59 1.119 1.119 0 00-.694-.211c-.283 0-.521.073-.71.22a1.327 1.327 0 00-.427.602 2.45 2.45 0 00-.145.86c0 .324.05.615.15.873.095.259.239.464.428.615.188.149.427.224.704.224zm7.731.806c-.467 0-.872-.105-1.21-.318a2.146 2.146 0 01-.777-.885 2.987 2.987 0 01-.272-1.292c0-.492.094-.926.278-1.302.188-.378.449-.673.782-.885.339-.213.733-.319 1.193-.319.366 0 .694.069.982.205.289.135.522.324.694.567.183.244.289.529.322.855h-.921a1.08 1.08 0 00-.344-.587c-.178-.163-.417-.245-.722-.245a1.17 1.17 0 00-.688.208c-.194.136-.35.331-.455.586-.111.252-.166.55-.166.894 0 .354.055.658.16.914.106.257.261.455.456.596.194.141.427.211.693.211.183 0 .344-.032.489-.097a.984.984 0 00.366-.287c.105-.124.172-.273.211-.448h.921a1.824 1.824 0 01-.305.839c-.172.245-.4.439-.688.58-.283.14-.616.21-.999.21zm3.845-6.551v6.454h-.943v-6.454h.943zm1.171 6.454v-4.84h.944v4.84h-.944zm.478-5.588a.615.615 0 01-.428-.163.54.54 0 010-.794.606.606 0 01.428-.167.58.58 0 01.416.167.536.536 0 010 .794.588.588 0 01-.416.163zm3.673 5.685c-.466 0-.871-.105-1.209-.318a2.105 2.105 0 01-.777-.885 2.987 2.987 0 01-.272-1.292c0-.492.094-.926.277-1.302.189-.378.45-.673.783-.885.338-.213.732-.319 1.187-.319.372 0 .699.069.988.205.289.135.522.324.694.567.183.244.288.529.322.855h-.922a1.111 1.111 0 00-.344-.587c-.177-.163-.421-.245-.721-.245a1.17 1.17 0 00-.688.208c-.194.136-.35.331-.455.586-.111.252-.167.55-.167.894 0 .354.056.658.161.914.106.257.261.455.455.596.194.141.428.211.694.211.183 0 .344-.032.488-.097a.98.98 0 00.367-.287c.099-.124.172-.273.21-.448h.922a1.825 1.825 0 01-.306.839 1.77 1.77 0 01-.688.58c-.283.14-.616.21-.999.21zm3.768-1.739l-.005-1.15h.161l1.931-2.048h1.132l-2.203 2.331h-.15l-.866.867zm-.865 1.642v-6.454h.943v6.454h-.943zm3.057 0l-1.737-2.301.65-.658 2.242 2.959h-1.155zm9.662-4.194h-1.382a1.28 1.28 0 00-.15-.476 1.2 1.2 0 00-.299-.36 1.337 1.337 0 00-.428-.226 1.576 1.576 0 00-.51-.079c-.333 0-.627.082-.877.249a1.628 1.628 0 00-.577.718c-.133.313-.2.693-.2 1.141 0 .46.067.846.2 1.16.139.313.333.549.583.709.249.159.532.239.86.239.183 0 .355-.024.51-.072.156-.049.294-.119.417-.211.122-.095.221-.209.305-.344.083-.134.139-.288.166-.46l1.382.006a2.55 2.55 0 01-.838 1.591 2.712 2.712 0 01-.849.511 3.13 3.13 0 01-1.115.186c-.578 0-1.088-.13-1.543-.39a2.745 2.745 0 01-1.071-1.132c-.261-.493-.394-1.091-.394-1.793 0-.704.133-1.303.399-1.796.261-.494.622-.87 1.077-1.129.455-.26.966-.39 1.532-.39.377 0 .721.052 1.043.157.322.105.605.259.854.46.245.2.45.445.605.735.156.29.256.621.3.996zm3.047 4.289c-.489 0-.916-.105-1.271-.313a2.097 2.097 0 01-.821-.876 2.801 2.801 0 01-.295-1.307c0-.5.1-.937.295-1.311.188-.376.466-.669.821-.877.355-.209.782-.315 1.271-.315.488 0 .91.106 1.265.315.361.208.633.501.827.877.194.374.288.811.288 1.311 0 .495-.094.931-.288 1.307a2.111 2.111 0 01-.827.876c-.355.208-.777.313-1.265.313zm.005-1.04a.846.846 0 00.561-.189c.144-.129.261-.303.333-.524.077-.22.116-.471.116-.753 0-.281-.039-.533-.116-.753a1.176 1.176 0 00-.333-.523.838.838 0 00-.561-.192.842.842 0 00-.566.192 1.151 1.151 0 00-.344.523c-.078.22-.116.472-.116.753 0 .282.038.533.116.753.078.221.189.395.344.524a.85.85 0 00.566.189zm4.495-1.853v2.798h-1.343v-4.84h1.282v.854h.056a1.35 1.35 0 01.538-.669c.255-.165.561-.249.921-.249.333 0 .627.074.877.221.25.147.444.357.583.63.138.271.211.595.211.971v3.082h-1.343v-2.843c0-.296-.078-.527-.228-.693-.155-.168-.366-.252-.632-.252a.965.965 0 00-.483.117.834.834 0 00-.322.34 1.29 1.29 0 00-.117.533zm6.66-2.042v1.008h-2.914v-1.008h2.914zm-2.253-1.16h1.343v4.512c0 .125.016.221.055.29a.302.302 0 00.161.142.61.61 0 00.239.041c.061 0 .122-.005.188-.016l.145-.028.21.999c-.066.021-.16.045-.283.073a2.308 2.308 0 01-.444.053 2.052 2.052 0 01-.854-.129 1.191 1.191 0 01-.561-.46c-.138-.208-.199-.471-.199-.788v-4.689zm3.03 6v-4.84H662v4.84h-1.343zm.677-5.464a.738.738 0 01-.516-.199.65.65 0 010-.958.728.728 0 01.516-.202c.199 0 .366.067.51.202a.619.619 0 01.211.476.633.633 0 01-.211.482.726.726 0 01-.51.199zm2.991 2.666v2.798h-1.343v-4.84h1.276v.854h.056a1.36 1.36 0 01.544-.669c.249-.165.554-.249.915-.249.339 0 .627.074.877.221.255.147.449.357.588.63.139.271.206.595.206.971v3.082h-1.343v-2.843c0-.296-.073-.527-.228-.693-.155-.168-.366-.252-.633-.252a.947.947 0 00-.477.117.797.797 0 00-.322.34 1.137 1.137 0 00-.116.533zm7.186.737v-2.779h1.343v4.84h-1.287v-.879h-.056a1.399 1.399 0 01-.544.684c-.249.172-.56.258-.921.258-.327 0-.61-.074-.854-.221a1.494 1.494 0 01-.578-.627c-.138-.271-.205-.596-.21-.973v-3.082h1.343v2.842c.005.286.083.511.233.677.15.167.355.249.605.249a.948.948 0 00.455-.11.875.875 0 00.344-.334c.088-.147.127-.329.127-.545zm4.529 2.156c-.5 0-.927-.101-1.288-.303a2.064 2.064 0 01-.827-.864c-.194-.374-.288-.816-.288-1.326 0-.498.094-.935.288-1.311.195-.376.466-.669.816-.88.355-.209.766-.315 1.243-.315.322 0 .616.052.894.155.277.1.516.253.727.457.205.204.366.46.482.769.117.307.172.666.172 1.077v.369h-4.09v-.832h2.825c0-.193-.039-.364-.122-.513a.892.892 0 00-.35-.35 1.014 1.014 0 00-.516-.129c-.205 0-.383.047-.543.142a1.023 1.023 0 00-.5.894v.791c0 .24.044.447.133.621a.95.95 0 00.383.403c.161.095.355.142.583.142.15 0 .283-.021.411-.063a.863.863 0 00.316-.189.795.795 0 00.2-.309l1.243.082a1.691 1.691 0 01-.389.782c-.194.22-.444.393-.749.517a2.818 2.818 0 01-1.054.183zm3.718-.035a.608.608 0 01-.444-.183.615.615 0 01-.183-.447c0-.173.061-.32.183-.442a.607.607 0 01.444-.186c.172 0 .322.063.444.186a.588.588 0 01.188.442.639.639 0 01-.316.545.608.608 0 01-.316.085zM507.83 223.365V207.23h5.755c1.256 0 2.296.229 3.121.685.825.457 1.443 1.082 1.853 1.875.409.788.615 1.676.615 2.663 0 .993-.208 1.886-.623 2.679-.41.788-1.03 1.413-1.861 1.875-.824.457-1.863.685-3.113.685h-3.957v-2.064h3.736c.794 0 1.438-.137 1.931-.41a2.569 2.569 0 001.088-1.134c.232-.478.347-1.021.347-1.631 0-.609-.115-1.15-.347-1.623a2.49 2.49 0 00-1.095-1.111c-.494-.268-1.146-.401-1.955-.401h-3.059v14.047h-2.436zm13.521 0v-12.102h2.279v1.923h.126a2.933 2.933 0 011.166-1.537 3.352 3.352 0 011.908-.566c.147 0 .321.005.52.015.205.011.365.024.481.04v2.253a4.138 4.138 0 00-.505-.087 4.77 4.77 0 00-.724-.055c-.557 0-1.054.118-1.49.354a2.632 2.632 0 00-1.403 2.372v7.39h-2.358zm12.816.244c-1.192 0-2.22-.255-3.082-.764a5.184 5.184 0 01-1.986-2.167c-.463-.935-.694-2.03-.694-3.285 0-1.239.231-2.332.694-3.278.467-.945 1.119-1.683 1.954-2.213.842-.531 1.824-.796 2.949-.796a5.93 5.93 0 011.986.339c.642.226 1.217.58 1.726 1.064.51.483.912 1.11 1.206 1.883.295.766.442 1.698.442 2.796v.835h-9.625v-1.765h7.315c0-.619-.126-1.168-.378-1.646a2.857 2.857 0 00-1.064-1.142c-.452-.279-.983-.418-1.593-.418-.662 0-1.24.163-1.734.488a3.29 3.29 0 00-1.135 1.261 3.634 3.634 0 00-.394 1.678v1.379c0 .809.142 1.496.426 2.064.289.567.691 1 1.206 1.3.515.294 1.116.441 1.805.441.447 0 .854-.063 1.222-.189.367-.131.685-.326.953-.583a2.54 2.54 0 00.615-.953l2.231.401a4.034 4.034 0 01-.961 1.726c-.458.488-1.033.869-1.727 1.142-.688.268-1.474.402-2.357.402zm17.333-12.346l-4.391 12.102h-2.522l-4.399-12.102h2.53l3.067 9.313h.126l3.058-9.313h2.531zm1.727 12.102v-12.102h2.356v12.102h-2.356zm1.19-13.968c-.41 0-.762-.137-1.056-.41a1.33 1.33 0 01-.434-.993c0-.388.144-.719.434-.992a1.48 1.48 0 011.056-.418c.41 0 .761.139 1.05.418.294.273.438.604.438.992 0 .384-.144.714-.438.993-.289.273-.64.41-1.05.41zm9.069 14.212c-1.194 0-2.22-.255-3.086-.764-.855-.515-1.515-1.237-1.987-2.167-.46-.935-.693-2.03-.693-3.285 0-1.239.233-2.332.693-3.278.472-.945 1.121-1.683 1.959-2.213.838-.531 1.821-.796 2.947-.796.683 0 1.343.113 1.987.339a4.84 4.84 0 011.726 1.064c.51.483.91 1.11 1.204 1.883.294.766.444 1.698.444 2.796v.835h-9.628v-1.765h7.319c0-.619-.127-1.168-.383-1.646a2.84 2.84 0 00-1.06-1.142c-.455-.279-.982-.418-1.592-.418-.666 0-1.243.163-1.737.488a3.259 3.259 0 00-1.132 1.261 3.585 3.585 0 00-.394 1.678v1.379c0 .809.138 1.496.421 2.064.294.567.694 1 1.21 1.3.516.294 1.116.441 1.804.441.449 0 .854-.063 1.221-.189.371-.131.688-.326.954-.583.266-.258.472-.575.616-.953l2.231.401a4.043 4.043 0 01-.96 1.726 4.692 4.692 0 01-1.726 1.142c-.694.268-1.476.402-2.358.402zm9.922-.244l-3.563-12.102h2.436l2.376 8.887h.116l2.381-8.887h2.436l2.364 8.848h.117l2.358-8.848h2.436l-3.557 12.102h-2.403l-2.458-8.737h-.183l-2.459 8.737h-2.397zm22.947-7.185v7.185h-2.353V207.23h2.325v6.003h.15a3.471 3.471 0 011.299-1.552c.582-.383 1.343-.575 2.286-.575.832 0 1.554.171 2.175.512.627.341 1.11.851 1.449 1.528.349.673.521 1.513.521 2.522v7.697h-2.358v-7.414c0-.887-.228-1.576-.683-2.064-.46-.494-1.093-.741-1.909-.741-.555 0-1.054.119-1.498.355a2.596 2.596 0 00-1.032 1.04c-.244.452-.372.998-.372 1.639zm15.611 7.429c-1.138 0-2.126-.26-2.975-.78-.843-.52-1.498-1.247-1.97-2.182-.466-.935-.699-2.028-.699-3.278 0-1.255.233-2.353.699-3.293.472-.94 1.127-1.67 1.97-2.19.849-.52 1.837-.78 2.975-.78 1.132 0 2.125.26 2.968.78.85.52 1.504 1.25 1.971 2.19.471.94.704 2.038.704 3.293 0 1.25-.233 2.343-.704 3.278-.467.935-1.121 1.662-1.971 2.182-.843.52-1.836.78-2.968.78zm.005-1.977c.738 0 1.349-.195 1.831-.584.483-.388.838-.906 1.071-1.552.239-.646.356-1.357.356-2.134 0-.772-.117-1.482-.356-2.128-.233-.651-.588-1.174-1.071-1.567-.482-.394-1.093-.592-1.831-.592s-1.354.198-1.842.592c-.483.393-.844.916-1.082 1.567a6.357 6.357 0 00-.345 2.128c0 .777.117 1.488.345 2.134.238.646.599 1.164 1.082 1.552.488.389 1.104.584 1.842.584zm10.039 1.733l-3.563-12.102h2.431l2.375 8.887h.117l2.38-8.887h2.437l2.364 8.848h.122l2.353-8.848h2.436l-3.552 12.102h-2.408l-2.459-8.737h-.177l-2.464 8.737h-2.392zm22.076 4.537c-.35 0-.672-.029-.96-.086a3.043 3.043 0 01-.644-.173l.566-1.931c.433.116.816.166 1.149.15a1.39 1.39 0 00.893-.378c.261-.237.494-.623.694-1.158l.288-.804-4.428-12.259h2.525l3.063 9.391h.128l3.063-9.391h2.531l-4.989 13.716c-.228.631-.522 1.164-.883 1.6a3.413 3.413 0 01-1.276.993c-.494.22-1.065.33-1.72.33zm15.283-4.293c-1.132 0-2.126-.26-2.969-.78-.849-.52-1.504-1.247-1.97-2.182-.472-.935-.705-2.028-.705-3.278 0-1.255.233-2.353.705-3.293.466-.94 1.121-1.67 1.97-2.19.843-.52 1.837-.78 2.969-.78 1.138 0 2.125.26 2.974.78.844.52 1.504 1.25 1.97 2.19.467.94.7 2.038.7 3.293 0 1.25-.233 2.343-.7 3.278-.466.935-1.126 1.662-1.97 2.182-.849.52-1.836.78-2.974.78zm.011-1.977c.733 0 1.343-.195 1.826-.584.483-.388.843-.906 1.076-1.552.233-.646.35-1.357.35-2.134 0-.772-.117-1.482-.35-2.128-.233-.651-.593-1.174-1.076-1.567-.483-.394-1.093-.592-1.826-.592-.744 0-1.36.198-1.848.592-.483.393-.843.916-1.077 1.567a6.234 6.234 0 00-.349 2.128c0 .777.116 1.488.349 2.134.234.646.594 1.164 1.077 1.552.488.389 1.104.584 1.848.584zm15.45-3.286v-7.083h2.364v12.102h-2.32v-2.096h-.128a3.747 3.747 0 01-1.337 1.615c-.61.425-1.371.638-2.281.638-.777 0-1.465-.17-2.064-.512-.594-.347-1.06-.859-1.404-1.536-.333-.678-.5-1.516-.5-2.513v-7.698h2.353v7.414c0 .825.228 1.481.688 1.97.455.488 1.049.732 1.782.732.438 0 .877-.11 1.315-.331a2.74 2.74 0 001.093-1c.3-.446.444-1.014.439-1.702zm7.392-11.116v1.513c0 .446-.084.916-.25 1.41a6.112 6.112 0 01-.694 1.41c-.299.452-.655.84-1.06 1.166l-1.165-.835a8.96 8.96 0 00.804-1.442 3.989 3.989 0 00.345-1.686v-1.536h2.02zm4.267 0v16.135h-2.358V207.23h2.358zm5.039 0v16.135h-2.359V207.23h2.359zm-113.375 33.61l-2.137.378a2.485 2.485 0 00-.422-.779 2.115 2.115 0 00-.771-.607c-.327-.158-.738-.236-1.226-.236-.666 0-1.221.149-1.671.448-.444.295-.671.675-.671 1.143 0 .404.15.73.449.977.3.247.788.449 1.454.606l1.92.442c1.116.257 1.948.654 2.492 1.189.549.536.821 1.232.821 2.088 0 .725-.211 1.371-.632 1.938-.411.562-.994 1.003-1.743 1.323-.738.321-1.598.481-2.575.481-1.354 0-2.464-.289-3.318-.867-.855-.583-1.382-1.41-1.576-2.481l2.275-.347c.144.594.433 1.043.877 1.347.444.3 1.015.45 1.726.45.771 0 1.393-.161 1.853-.481.461-.326.694-.722.694-1.19 0-.378-.144-.696-.428-.953-.277-.258-.704-.452-1.281-.583l-2.054-.449c-1.126-.257-1.964-.667-2.503-1.229-.538-.562-.804-1.274-.804-2.135 0-.715.2-1.339.599-1.875.4-.536.949-.953 1.654-1.253.705-.304 1.509-.457 2.419-.457 1.31 0 2.342.284 3.091.851.75.562 1.249 1.316 1.488 2.261zm7.442 9.391c-1.138 0-2.126-.26-2.969-.78-.849-.52-1.504-1.247-1.976-2.182-.466-.935-.699-2.027-.699-3.277 0-1.256.233-2.354.699-3.294.472-.94 1.127-1.67 1.976-2.189.843-.521 1.831-.781 2.969-.781 1.137 0 2.125.26 2.974.781.844.519 1.498 1.249 1.97 2.189.466.94.699 2.038.699 3.294 0 1.25-.233 2.342-.699 3.277-.472.935-1.126 1.662-1.97 2.182-.849.52-1.837.78-2.974.78zm.005-1.977c.738 0 1.349-.195 1.831-.584.483-.388.838-.905 1.071-1.551.239-.647.356-1.358.356-2.135 0-.772-.117-1.482-.356-2.128-.233-.651-.588-1.173-1.071-1.567-.482-.394-1.093-.591-1.831-.591s-1.354.197-1.842.591c-.483.394-.844.916-1.082 1.567a6.357 6.357 0 00-.345 2.128c0 .777.117 1.488.345 2.135.238.646.599 1.163 1.082 1.551.488.389 1.104.584 1.842.584zm15.45-3.286v-7.082h2.364v12.101H601.1v-2.096h-.128c-.277.646-.727 1.185-1.337 1.615-.611.426-1.371.639-2.281.639-.777 0-1.465-.171-2.065-.513-.593-.346-1.059-.858-1.404-1.536-.338-.677-.505-1.515-.505-2.513v-7.697h2.359v7.413c0 .825.227 1.481.683 1.97.46.489 1.054.733 1.781.733.444 0 .882-.111 1.321-.332.438-.22.804-.554 1.093-1 .294-.446.438-1.013.433-1.702zm7.403-2.166v7.185h-2.359v-12.101h2.264v1.969h.15a3.457 3.457 0 011.304-1.544c.6-.388 1.354-.583 2.264-.583.827 0 1.549.174 2.17.52.622.341 1.099.851 1.443 1.528.339.678.511 1.516.511 2.514v7.697h-2.359v-7.414c0-.876-.227-1.562-.682-2.056-.461-.499-1.088-.748-1.887-.748-.544 0-1.032.118-1.46.354a2.604 2.604 0 00-.999 1.04c-.238.452-.36.998-.36 1.639zm14.95 7.421c-.977 0-1.848-.249-2.614-.748-.76-.504-1.359-1.221-1.798-2.151-.433-.935-.649-2.056-.649-3.364 0-1.308.222-2.427.655-3.356.444-.93 1.048-1.641 1.814-2.135.766-.494 1.637-.741 2.609-.741.754 0 1.359.127 1.814.378.461.247.822.536 1.071.867.261.331.461.623.6.874h.144v-5.995h2.353v16.135h-2.298v-1.883h-.199a5.701 5.701 0 01-.616.883c-.261.33-.622.619-1.088.866-.461.247-1.06.37-1.798.37zm.522-2.008c.677 0 1.254-.179 1.72-.536.472-.363.827-.864 1.071-1.505.25-.641.372-1.387.372-2.238 0-.84-.122-1.575-.366-2.206-.239-.63-.594-1.121-1.06-1.473-.472-.352-1.049-.528-1.737-.528-.711 0-1.299.184-1.771.552-.477.367-.832.869-1.076 1.505-.233.635-.355 1.352-.355 2.15 0 .809.122 1.536.366 2.183.238.646.599 1.158 1.071 1.536.477.373 1.065.56 1.765.56z" fill="#333"/><path d="M132.943 282.574c7.278 0 13.197-5.916 13.197-13.19V249.6c0-7.31-5.889-13.258-13.128-13.258a3.076 3.076 0 00-.689.082 13.21 13.21 0 00-12.577 13.176v19.784c0 7.274 5.919 13.19 13.197 13.19z" fill="#000"/><path d="M129.644 295.535v6.822h6.599v-6.822c12.995-1.632 23.094-12.721 23.094-26.151h-6.599c0 10.91-8.878 19.784-19.794 19.784-10.918 0-19.796-8.874-19.796-19.784h-6.598c0 13.427 10.099 24.519 23.094 26.151z" fill="#000"/><path d="M183.584 241.347a.92.92 0 00-.417-.694c-.243-.166-.55-.249-.92-.249-.265 0-.494.042-.687.126a1.055 1.055 0 00-.451.341.803.803 0 00-.158.488c0 .153.036.286.107.397a.974.974 0 00.287.281c.12.073.248.135.385.186.137.048.268.088.394.119l.631.164c.205.051.417.119.633.205.217.086.418.2.602.34.186.141.335.316.448.523.116.208.174.458.174.748 0 .365-.095.69-.284.973-.187.284-.459.507-.817.672-.355.163-.785.245-1.289.245-.484 0-.902-.077-1.255-.23a1.938 1.938 0 01-.83-.652 1.897 1.897 0 01-.33-1.008h.977a.99.99 0 00.227.582c.135.154.306.268.514.344.21.074.44.11.691.11.275 0 .52-.043.734-.129.217-.088.387-.21.511-.366a.864.864 0 00.186-.551.68.68 0 00-.164-.47 1.204 1.204 0 00-.438-.302c-.183-.08-.39-.15-.621-.211l-.763-.208c-.517-.141-.928-.348-1.23-.621-.301-.273-.451-.634-.451-1.084 0-.372.101-.697.303-.974.201-.277.475-.493.819-.646a2.802 2.802 0 011.167-.233c.437 0 .823.076 1.157.23.336.153.602.364.795.633.193.267.294.574.303.921h-.94zm4.106 4.856c-.477 0-.888-.102-1.233-.306a2.08 2.08 0 01-.795-.867c-.184-.373-.277-.812-.277-1.314 0-.495.093-.932.277-1.311.187-.378.448-.673.782-.885.337-.212.73-.318 1.18-.318.273 0 .538.045.794.135.257.091.487.233.691.426.204.193.365.444.482.753.118.306.177.679.177 1.118v.334h-3.85v-.705h2.926c0-.248-.051-.468-.151-.659a1.144 1.144 0 00-.426-.457 1.185 1.185 0 00-.637-.167c-.264 0-.496.065-.693.195a1.304 1.304 0 00-.454.504 1.45 1.45 0 00-.158.672v.551c0 .324.057.599.17.826.116.227.276.4.483.52.206.117.446.176.722.176.178 0 .341-.025.488-.075a1.004 1.004 0 00.628-.615l.892.161c-.072.262-.2.493-.385.69a1.86 1.86 0 01-.69.457c-.276.107-.59.161-.943.161zm3.969-6.552v6.454h-.943v-6.454h.943zm3.258 6.552c-.477 0-.888-.102-1.233-.306a2.08 2.08 0 01-.795-.867c-.184-.373-.277-.812-.277-1.314 0-.495.093-.932.277-1.311.187-.378.448-.673.782-.885.337-.212.73-.318 1.18-.318.273 0 .538.045.794.135.257.091.487.233.691.426.204.193.365.444.482.753.118.306.177.679.177 1.118v.334h-3.85v-.705h2.926c0-.248-.051-.468-.151-.659a1.144 1.144 0 00-.426-.457 1.185 1.185 0 00-.637-.167c-.264 0-.496.065-.693.195a1.304 1.304 0 00-.454.504 1.45 1.45 0 00-.158.672v.551c0 .324.057.599.17.826.116.227.276.4.483.52.206.117.446.176.722.176.178 0 .341-.025.488-.075a1.004 1.004 0 00.628-.615l.892.161c-.072.262-.2.493-.385.69a1.86 1.86 0 01-.69.457c-.276.107-.59.161-.943.161zm5.066 0c-.469 0-.872-.107-1.211-.318a2.116 2.116 0 01-.775-.886 2.944 2.944 0 01-.271-1.292c0-.492.092-.926.277-1.302.185-.378.446-.673.782-.885.337-.212.733-.318 1.189-.318.368 0 .696.068.984.204.288.135.52.324.697.568.178.243.285.528.318.853h-.918a1.09 1.09 0 00-.346-.585c-.179-.164-.419-.247-.719-.247-.263 0-.493.07-.691.208a1.344 1.344 0 00-.457.587c-.11.252-.164.55-.164.895 0 .353.053.658.161.914.107.256.259.455.454.595.198.141.43.211.697.211.178 0 .34-.032.486-.097a.989.989 0 00.368-.287c.101-.124.172-.273.211-.448h.918a1.777 1.777 0 01-.306.839c-.17.246-.398.439-.684.58-.284.14-.617.211-1 .211zm5.161-4.939v.757h-2.645v-.757h2.645zm-1.936-1.159h.943v4.579c0 .183.027.32.082.412a.424.424 0 00.212.187.854.854 0 00.286.047c.076 0 .142-.006.199-.016l.132-.025.171.778a1.608 1.608 0 01-.234.063 1.771 1.771 0 01-.378.038 1.674 1.674 0 01-.694-.132 1.196 1.196 0 01-.52-.429c-.132-.193-.199-.436-.199-.728v-4.774zm5.729 7.815c-.14 0-.268-.012-.384-.034a1.22 1.22 0 01-.259-.07l.227-.772c.173.046.326.066.461.06a.553.553 0 00.356-.151c.105-.095.198-.249.278-.463l.116-.322-1.772-4.904h1.009l1.227 3.757h.05l1.227-3.757h1.012l-1.996 5.487a2.21 2.21 0 01-.353.64 1.371 1.371 0 01-.511.397 1.679 1.679 0 01-.688.132zm6.211-1.717c-.454 0-.85-.104-1.188-.312a2.1 2.1 0 01-.788-.873c-.187-.374-.281-.811-.281-1.311 0-.502.094-.941.281-1.317.187-.376.449-.669.788-.877.338-.207.734-.311 1.188-.311.455 0 .851.104 1.189.311a2.1 2.1 0 01.789.877c.187.376.28.815.28 1.317 0 .5-.093.937-.28 1.311-.187.374-.45.665-.789.873-.338.208-.734.312-1.189.312zm.004-.791c.294 0 .538-.078.731-.234.194-.155.336-.362.429-.62.094-.259.142-.543.142-.854a2.47 2.47 0 00-.142-.851 1.38 1.38 0 00-.429-.627c-.193-.158-.437-.237-.731-.237-.297 0-.543.079-.738.237a1.4 1.4 0 00-.432.627 2.495 2.495 0 00-.139.851c0 .311.046.595.139.854.095.258.238.465.432.62.195.156.441.234.738.234zm6.277-1.314v-2.834h.946v4.841h-.927v-.838h-.051c-.111.258-.29.473-.536.646-.244.17-.547.255-.911.255-.311 0-.586-.068-.826-.205a1.427 1.427 0 01-.561-.614c-.135-.271-.202-.606-.202-1.006v-3.079h.943v2.966c0 .33.091.592.274.788a.933.933 0 00.712.293c.177 0 .353-.044.527-.133.177-.088.323-.221.438-.4.118-.178.176-.405.174-.68zm2.115 2.007v-4.841h.911v.77h.05c.089-.261.244-.466.467-.615.225-.151.479-.227.763-.227a4.23 4.23 0 01.401.022v.901a1.953 1.953 0 00-.202-.034 1.888 1.888 0 00-.29-.022c-.223 0-.422.047-.596.142a1.048 1.048 0 00-.562.948v2.956h-.942zm5.562 0v-4.841h.905v.789h.06a1.25 1.25 0 01.495-.624c.229-.152.503-.227.823-.227.323 0 .595.075.813.227.221.15.384.358.489.624h.051c.115-.259.299-.465.551-.618.252-.156.553-.233.902-.233.44 0 .798.137 1.075.412.28.276.42.69.42 1.245v3.246h-.943v-3.158c0-.328-.09-.565-.268-.712a.976.976 0 00-.64-.22c-.307 0-.546.094-.716.283-.17.187-.255.428-.255.722v3.085h-.94v-3.218c0-.262-.082-.473-.246-.633-.164-.16-.377-.239-.64-.239a.919.919 0 00-.495.141c-.149.093-.27.222-.362.388a1.18 1.18 0 00-.136.577v2.984h-.943zm7.75 0v-4.841h.942v4.841h-.942zm.476-5.587a.602.602 0 01-.423-.164.532.532 0 01-.173-.397c0-.156.057-.288.173-.397a.596.596 0 01.423-.167c.164 0 .303.056.419.167a.52.52 0 01.177.397.53.53 0 01-.177.397.59.59 0 01-.419.164zm3.677 5.685c-.469 0-.872-.107-1.211-.318a2.116 2.116 0 01-.775-.886 2.945 2.945 0 01-.272-1.292c0-.492.093-.926.278-1.302.185-.378.445-.673.782-.885.336-.212.733-.318 1.189-.318.367 0 .695.068.983.204.288.135.521.324.697.568.179.243.285.528.319.853h-.918a1.092 1.092 0 00-.347-.585c-.179-.164-.418-.247-.719-.247-.262 0-.492.07-.69.208a1.337 1.337 0 00-.457.587c-.11.252-.164.55-.164.895 0 .353.053.658.16.914.108.256.259.455.454.595.198.141.43.211.697.211.179 0 .341-.032.486-.097a.992.992 0 00.369-.287c.101-.124.171-.273.211-.448h.918a1.788 1.788 0 01-.306.839c-.17.246-.398.439-.684.58-.284.14-.617.211-1 .211zm2.9-.098v-4.841h.912v.77h.05a1.17 1.17 0 01.466-.615c.226-.151.48-.227.763-.227a4.164 4.164 0 01.401.022v.901a1.953 1.953 0 00-.202-.034 1.888 1.888 0 00-.29-.022c-.223 0-.421.047-.596.142a1.052 1.052 0 00-.561.948v2.956h-.943zm5.177.098c-.454 0-.85-.104-1.189-.312a2.106 2.106 0 01-.788-.873c-.187-.374-.281-.811-.281-1.311 0-.502.094-.941.281-1.317.187-.376.45-.669.788-.877.339-.207.735-.311 1.189-.311.454 0 .85.104 1.189.311.338.208.601.501.788.877.187.376.28.815.28 1.317 0 .5-.093.937-.28 1.311-.187.374-.45.665-.788.873-.339.208-.735.312-1.189.312zm.003-.791c.294 0 .538-.078.732-.234.193-.155.336-.362.428-.62a2.46 2.46 0 00.142-.854c0-.309-.047-.593-.142-.851a1.378 1.378 0 00-.428-.627c-.194-.158-.438-.237-.732-.237-.297 0-.542.079-.738.237a1.408 1.408 0 00-.432.627 2.52 2.52 0 00-.138.851c0 .311.046.595.138.854.095.258.239.465.432.62.196.156.441.234.738.234zm3.209 2.508v-6.656h.921v.785h.079c.054-.101.133-.217.236-.35a1.33 1.33 0 01.429-.346c.183-.101.425-.151.725-.151.391 0 .74.099 1.047.296.307.197.548.482.722.854.177.372.265.819.265 1.342 0 .523-.087.972-.262 1.346a2.03 2.03 0 01-.719.86c-.304.2-.652.3-1.043.3-.295 0-.535-.05-.722-.149a1.347 1.347 0 01-.435-.346 2.7 2.7 0 01-.243-.353h-.057v2.568h-.943zm.924-4.235c0 .34.049.638.148.895.099.256.242.456.429.602.187.142.416.214.688.214.281 0 .516-.074.706-.224.189-.151.332-.356.429-.614.098-.259.148-.55.148-.873 0-.32-.049-.606-.145-.86a1.318 1.318 0 00-.429-.602c-.189-.148-.426-.221-.709-.221-.274 0-.505.071-.694.211a1.293 1.293 0 00-.426.589 2.458 2.458 0 00-.145.883zm5.401-.454v2.874h-.943v-6.454h.931v2.402h.059c.114-.261.288-.468.521-.622.233-.153.538-.229.915-.229.331 0 .622.068.87.204.25.137.443.341.58.612.138.269.208.605.208 1.008v3.079h-.943v-2.965c0-.355-.091-.63-.274-.826-.183-.198-.438-.296-.763-.296-.223 0-.423.047-.599.142a1.018 1.018 0 00-.414.416c-.098.18-.148.399-.148.655zm6.342 2.972c-.455 0-.851-.104-1.19-.312a2.106 2.106 0 01-.788-.873c-.187-.374-.28-.811-.28-1.311 0-.502.093-.941.28-1.317.187-.376.45-.669.788-.877.339-.207.735-.311 1.19-.311.454 0 .85.104 1.188.311.338.208.601.501.788.877.187.376.281.815.281 1.317 0 .5-.094.937-.281 1.311-.187.374-.45.665-.788.873-.338.208-.734.312-1.188.312zm.002-.791c.295 0 .539-.078.732-.234a1.37 1.37 0 00.429-.62 2.46 2.46 0 00.142-.854c0-.309-.047-.593-.142-.851a1.387 1.387 0 00-.429-.627c-.193-.158-.437-.237-.732-.237-.296 0-.542.079-.737.237a1.393 1.393 0 00-.432.627 2.495 2.495 0 00-.139.851c0 .311.046.595.139.854.094.258.238.465.432.62.195.156.441.234.737.234zm4.152-2.181v2.874h-.942v-4.841h.905v.789h.06c.111-.257.285-.463.523-.618.24-.156.541-.233.905-.233.33 0 .619.069.867.208.248.136.441.34.577.611.137.271.205.606.205 1.005v3.079h-.943v-2.965c0-.351-.092-.625-.274-.823-.183-.2-.434-.299-.754-.299-.218 0-.413.047-.583.142a1.019 1.019 0 00-.401.416c-.096.18-.145.399-.145.655zm6.354 2.972c-.477 0-.888-.102-1.233-.306a2.086 2.086 0 01-.795-.867c-.184-.373-.277-.812-.277-1.314 0-.495.093-.932.277-1.311.188-.378.448-.673.783-.885.336-.212.729-.318 1.179-.318.273 0 .538.045.794.135.257.091.487.233.691.426.204.193.365.444.482.753.118.306.177.679.177 1.118v.334h-3.85v-.705h2.926c0-.248-.051-.468-.151-.659a1.144 1.144 0 00-.426-.457 1.185 1.185 0 00-.637-.167c-.265 0-.496.065-.694.195a1.31 1.31 0 00-.453.504 1.45 1.45 0 00-.158.672v.551c0 .324.057.599.17.826.116.227.277.4.483.52.205.117.446.176.722.176.178 0 .341-.025.488-.075.147-.053.275-.131.382-.234a.99.99 0 00.245-.381l.893.161c-.072.262-.2.493-.385.69a1.869 1.869 0 01-.69.457c-.275.107-.59.161-.943.161zm3.647-.038a.611.611 0 01-.444-.183.61.61 0 01-.186-.447c0-.172.062-.32.186-.441a.603.603 0 01.444-.187c.173 0 .321.062.445.187a.595.595 0 01.186.441.6.6 0 01-.088.318.666.666 0 01-.227.227.61.61 0 01-.316.085zm0-3.523a.61.61 0 01-.444-.186.608.608 0 01-.186-.444c0-.173.062-.32.186-.442a.606.606 0 01.444-.186c.173 0 .321.062.445.186a.597.597 0 01.186.442.6.6 0 01-.088.318.666.666 0 01-.227.227.61.61 0 01-.316.085z" fill="#333"/><path d="M398.001 252.66H182.682a3.328 3.328 0 00-3.329 3.328v24.404a3.327 3.327 0 003.329 3.327h215.319a3.328 3.328 0 003.33-3.327v-24.404a3.33 3.33 0 00-3.33-3.328z" fill="#F8F8F8"/><path d="M184.502 265.064h1.183l2.055 5.017h.076l2.056-5.017h1.182v6.454h-.927v-4.671h-.06l-1.905 4.661h-.769l-1.904-4.664h-.06v4.674h-.927v-6.454zm7.795 6.454v-4.841h.943v4.841h-.943zm.476-5.588a.599.599 0 01-.422-.163.533.533 0 01-.174-.397c0-.156.058-.288.174-.398a.594.594 0 01.422-.167c.164 0 .304.056.42.167.118.11.176.242.176.398a.528.528 0 01-.176.397.59.59 0 01-.42.163zm3.677 5.685c-.468 0-.872-.106-1.21-.318a2.11 2.11 0 01-.776-.885 2.946 2.946 0 01-.271-1.293c0-.491.093-.925.277-1.301.186-.378.446-.674.782-.886.337-.212.733-.318 1.189-.318.368 0 .696.068.984.205a1.717 1.717 0 011.016 1.421h-.918a1.1 1.1 0 00-.347-.586c-.179-.164-.419-.246-.719-.246-.263 0-.493.07-.691.208a1.337 1.337 0 00-.456.587c-.11.251-.165.55-.165.894 0 .353.054.658.161.914.107.256.259.455.454.596.198.141.43.211.697.211.179 0 .34-.033.486-.098a.99.99 0 00.369-.287c.1-.123.171-.273.211-.447h.918a1.749 1.749 0 01-.991 1.418 2.222 2.222 0 01-1 .211zm2.901-.097v-4.841h.911v.769h.05c.089-.261.245-.465.467-.614.225-.152.48-.227.763-.227a4.23 4.23 0 01.401.022v.901a1.929 1.929 0 00-.202-.035 2.022 2.022 0 00-.29-.022c-.223 0-.422.048-.596.142a1.055 1.055 0 00-.562.948v2.957h-.942zm5.177.097c-.455 0-.851-.103-1.189-.311a2.108 2.108 0 01-.789-.873c-.187-.375-.28-.811-.28-1.312 0-.502.093-.941.28-1.317.187-.376.45-.668.789-.876.338-.208.734-.312 1.189-.312.454 0 .85.104 1.188.312.339.208.601.5.788.876.187.376.281.815.281 1.317 0 .501-.094.937-.281 1.312a2.105 2.105 0 01-.788.873c-.338.208-.734.311-1.188.311zm.002-.791c.295 0 .539-.077.732-.233.194-.155.337-.362.429-.621.095-.258.142-.543.142-.854 0-.308-.047-.592-.142-.851a1.374 1.374 0 00-.429-.626c-.193-.159-.437-.237-.732-.237-.296 0-.542.078-.737.237a1.403 1.403 0 00-.432.626 2.528 2.528 0 00-.139.851c0 .311.047.596.139.854.095.259.238.466.432.621.195.156.441.233.737.233zm3.21 2.509v-6.656h.92v.785h.079c.055-.101.134-.218.237-.35a1.33 1.33 0 01.429-.346c.183-.101.424-.152.725-.152.391 0 .74.099 1.047.296.306.198.547.482.721.854.178.372.266.82.266 1.343s-.087.971-.262 1.345a2.04 2.04 0 01-.719.861 1.866 1.866 0 01-1.044.299c-.294 0-.535-.049-.722-.148a1.371 1.371 0 01-.435-.347 2.572 2.572 0 01-.243-.353h-.056v2.569h-.943zm.924-4.236c0 .341.049.639.148.895.099.257.242.457.429.602.187.143.416.214.687.214.282 0 .517-.074.706-.223a1.38 1.38 0 00.429-.615c.099-.258.148-.549.148-.873 0-.319-.048-.606-.145-.86a1.315 1.315 0 00-.428-.602 1.125 1.125 0 00-.71-.221 1.13 1.13 0 00-.694.212 1.299 1.299 0 00-.425.589 2.449 2.449 0 00-.145.882zm5.401-.453v2.874h-.943v-6.454h.93v2.401h.06c.114-.261.287-.468.521-.621.233-.153.537-.23.914-.23.332 0 .622.068.87.205.25.137.444.34.58.612.139.268.208.604.208 1.008v3.079h-.942v-2.966c0-.355-.092-.63-.275-.825-.183-.198-.437-.296-.763-.296-.223 0-.422.047-.599.141a1.028 1.028 0 00-.413.416 1.347 1.347 0 00-.148.656zm6.341 2.971c-.454 0-.85-.103-1.189-.311a2.112 2.112 0 01-.788-.873c-.187-.375-.281-.811-.281-1.312 0-.502.094-.941.281-1.317.187-.376.45-.668.788-.876.339-.208.735-.312 1.189-.312.454 0 .85.104 1.188.312.339.208.602.5.789.876.187.376.28.815.28 1.317 0 .501-.093.937-.28 1.312-.187.373-.45.665-.789.873-.338.208-.734.311-1.188.311zm.003-.791c.294 0 .538-.077.732-.233.193-.155.336-.362.429-.621a2.48 2.48 0 00.142-.854c0-.308-.048-.592-.142-.851a1.39 1.39 0 00-.429-.626c-.194-.159-.438-.237-.732-.237-.296 0-.542.078-.738.237a1.41 1.41 0 00-.432.626 2.528 2.528 0 00-.138.851c0 .311.046.596.138.854.095.259.239.466.432.621.196.156.442.233.738.233zm4.152-2.18v2.874h-.943v-4.841h.905v.788h.06c.111-.256.286-.462.524-.618.239-.155.541-.233.904-.233.33 0 .62.069.868.208a1.4 1.4 0 01.577.611c.136.272.205.607.205 1.006v3.079h-.943v-2.966c0-.351-.092-.625-.274-.823-.184-.199-.435-.298-.754-.298-.219 0-.413.047-.583.141a1.025 1.025 0 00-.401.416 1.382 1.382 0 00-.145.656zm6.354 2.971c-.477 0-.889-.102-1.233-.305a2.073 2.073 0 01-.795-.867c-.185-.374-.277-.812-.277-1.314 0-.496.092-.933.277-1.311.187-.378.448-.674.782-.886.336-.212.73-.318 1.179-.318.274 0 .538.045.795.135.256.091.487.233.69.426.204.193.365.444.483.753.118.307.176.68.176 1.119v.334h-3.85v-.706h2.927c0-.248-.051-.467-.152-.659a1.128 1.128 0 00-.426-.456 1.182 1.182 0 00-.636-.168c-.265 0-.496.066-.694.196a1.304 1.304 0 00-.454.504 1.455 1.455 0 00-.158.671v.552c0 .324.057.599.17.825.116.227.277.401.483.52.206.118.446.177.722.177.179 0 .342-.025.489-.076a1.008 1.008 0 00.627-.614l.893.16c-.072.263-.2.493-.385.69a1.853 1.853 0 01-.691.457 2.583 2.583 0 01-.942.161zm5.553-3.324c0-.791.103-1.517.311-2.181a6.524 6.524 0 01.912-1.838h.864a3.944 3.944 0 00-.435.766 7.208 7.208 0 00-.354.997c-.1.358-.179.732-.236 1.118a7.748 7.748 0 00.063 2.656c.099.513.233.989.401 1.428.168.439.355.798.561 1.075h-.864a6.511 6.511 0 01-.912-1.838 7.27 7.27 0 01-.311-2.183zm5.219 3.315a2.87 2.87 0 01-1.161-.224 1.971 1.971 0 01-.804-.621 1.647 1.647 0 01-.315-.926h.99a.854.854 0 00.192.498c.118.139.272.246.461.321.189.075.399.114.63.114.255 0 .48-.045.675-.133.198-.088.352-.211.463-.369a.933.933 0 00.167-.551.99.99 0 00-.167-.571 1.083 1.083 0 00-.482-.39 1.843 1.843 0 00-.763-.142h-.545v-.794h.545c.24 0 .45-.043.63-.13.184-.086.326-.205.429-.358a.96.96 0 00.155-.546.97.97 0 00-.136-.52.9.9 0 00-.378-.349 1.218 1.218 0 00-.574-.127c-.21 0-.407.039-.589.117a1.095 1.095 0 00-.442.328.848.848 0 00-.183.507h-.942c.01-.349.113-.656.309-.92.197-.265.457-.472.782-.621a2.545 2.545 0 011.078-.224c.414 0 .771.081 1.072.243.302.16.536.373.7.64.166.266.248.559.246.876.002.361-.099.668-.303.92a1.475 1.475 0 01-.807.508v.05c.429.065.761.235.996.51.238.275.356.617.353 1.025.003.355-.096.673-.296.954a2.014 2.014 0 01-.81.665c-.343.16-.735.24-1.176.24zm6.243-3.725v.819h-2.863v-.819h2.863zm5.387-2.817h.978v4.244c0 .452-.107.852-.319 1.201-.212.347-.511.62-.896.819-.384.198-.835.297-1.352.297-.515 0-.965-.099-1.35-.297a2.22 2.22 0 01-.895-.819 2.267 2.267 0 01-.319-1.201v-4.244h.975v4.166c0 .291.063.551.192.778.13.227.314.405.552.536.237.128.519.192.845.192.327 0 .61-.064.848-.192.24-.131.422-.309.549-.536.128-.227.192-.487.192-.778v-4.166zm5.818 1.695a.917.917 0 00-.416-.693c-.244-.166-.551-.249-.92-.249-.266 0-.495.042-.688.126a1.053 1.053 0 00-.451.34.805.805 0 00-.158.489c0 .153.036.285.108.397a.96.96 0 00.287.28c.12.074.248.136.384.186.137.048.268.088.394.12l.631.164c.206.05.417.118.634.205.216.086.417.199.602.34.185.141.334.315.447.523.116.208.174.457.174.747 0 .365-.094.69-.283.974-.188.283-.46.507-.817.671-.355.164-.786.246-1.29.246-.483 0-.902-.077-1.255-.231a1.921 1.921 0 01-.829-.652c-.2-.283-.31-.619-.331-1.008h.977a1 1 0 00.227.583c.135.153.306.268.514.343.21.074.441.111.691.111.275 0 .52-.043.735-.13.216-.088.386-.209.51-.365a.86.86 0 00.186-.552.673.673 0 00-.164-.469 1.21 1.21 0 00-.438-.303 4.411 4.411 0 00-.621-.211l-.763-.208c-.517-.141-.927-.348-1.23-.621-.301-.273-.451-.634-.451-1.084 0-.371.101-.696.303-.973.201-.277.475-.493.82-.646a2.794 2.794 0 011.166-.234c.437 0 .823.077 1.158.23.336.154.601.365.794.634.194.267.295.573.303.92h-.94zm2.095 4.759v-6.454h2.364c.459 0 .838.075 1.139.227.3.149.525.351.674.608.15.254.225.541.225.86 0 .269-.05.496-.149.681a1.223 1.223 0 01-.397.441 1.75 1.75 0 01-.542.239v.064c.214.01.423.079.627.208.206.126.376.305.511.538.134.234.202.517.202.851 0 .33-.078.626-.234.889-.153.26-.391.467-.712.621-.322.151-.733.227-1.233.227h-2.475zm.974-.836h1.406c.467 0 .801-.09 1.003-.27a.873.873 0 00.303-.678c0-.204-.052-.391-.155-.561a1.098 1.098 0 00-.441-.406 1.416 1.416 0 00-.675-.152h-1.441v2.067zm0-2.826h1.305c.219 0 .416-.042.59-.127.177-.083.317-.201.419-.352a.93.93 0 00.158-.542.897.897 0 00-.28-.672c-.188-.18-.475-.27-.862-.27h-1.33v1.963zm6.99 3.662v-6.454h2.302c.502 0 .918.091 1.248.274.331.182.577.433.741.75.164.315.246.67.246 1.065 0 .397-.083.754-.249 1.071a1.806 1.806 0 01-.744.751c-.33.182-.745.274-1.246.274h-1.582v-.826h1.494c.318 0 .575-.055.773-.164.197-.111.343-.263.435-.454.092-.191.138-.408.138-.652 0-.244-.046-.46-.138-.649a.998.998 0 00-.439-.445c-.197-.107-.458-.16-.782-.16h-1.223v5.619h-.974zm6.449-2.874v2.874h-.943v-4.841h.905v.788h.06c.112-.256.286-.462.523-.618.24-.155.541-.233.905-.233.33 0 .619.069.867.208.248.137.441.341.577.611.137.272.205.607.205 1.006v3.079h-.943v-2.966c0-.351-.091-.625-.274-.823-.183-.199-.434-.298-.753-.298a1.19 1.19 0 00-.584.141 1.017 1.017 0 00-.4.416 1.37 1.37 0 00-.145.656zm4.342 2.874v-6.454h2.302c.502 0 .918.091 1.248.274.33.182.577.433.741.75.164.315.246.67.246 1.065 0 .397-.083.754-.249 1.071a1.806 1.806 0 01-.744.751c-.33.182-.745.274-1.246.274h-1.582v-.826h1.494c.317 0 .575-.055.773-.164.197-.111.342-.263.435-.454.092-.191.138-.408.138-.652 0-.244-.046-.46-.138-.649a1.003 1.003 0 00-.439-.445c-.197-.107-.458-.16-.782-.16h-1.223v5.619h-.974zm11.356-4.759a.918.918 0 00-.417-.693c-.243-.166-.55-.249-.92-.249-.265 0-.494.042-.687.126a1.062 1.062 0 00-.452.34.811.811 0 00-.157.489c0 .153.035.285.107.397a.971.971 0 00.287.28c.12.074.248.136.384.186.138.048.269.088.395.12l.63.164c.206.05.418.118.634.205.217.086.418.199.602.34.186.141.335.315.448.523.116.208.174.457.174.747 0 .365-.095.69-.284.974a1.893 1.893 0 01-.817.671c-.355.164-.785.246-1.289.246-.484 0-.902-.077-1.256-.231a1.927 1.927 0 01-.829-.652 1.883 1.883 0 01-.33-1.008h.977a.994.994 0 00.227.583c.134.153.306.268.514.343.21.074.44.111.69.111.276 0 .521-.043.735-.13.216-.088.387-.209.511-.365a.866.866 0 00.186-.552.677.677 0 00-.164-.469 1.227 1.227 0 00-.438-.303 4.383 4.383 0 00-.622-.211l-.763-.208c-.517-.141-.927-.348-1.229-.621-.301-.273-.451-.634-.451-1.084 0-.371.101-.696.302-.973.202-.277.476-.493.82-.646a2.802 2.802 0 011.167-.234c.437 0 .823.077 1.157.23.336.154.602.365.795.634.193.267.294.573.303.92h-.94zm4.058 4.856c-.454 0-.85-.103-1.188-.311a2.105 2.105 0 01-.788-.873c-.187-.375-.281-.811-.281-1.312 0-.502.094-.941.281-1.317.187-.376.449-.668.788-.876.338-.208.734-.312 1.188-.312.455 0 .851.104 1.189.312.339.208.602.5.789.876.187.376.28.815.28 1.317 0 .501-.093.937-.28 1.312-.187.373-.45.665-.789.873-.338.208-.734.311-1.189.311zm.004-.791c.294 0 .538-.077.731-.233.194-.155.336-.362.429-.621a2.48 2.48 0 00.142-.854c0-.308-.048-.592-.142-.851a1.382 1.382 0 00-.429-.626c-.193-.159-.437-.237-.731-.237-.297 0-.542.078-.738.237a1.41 1.41 0 00-.432.626 2.503 2.503 0 00-.139.851c0 .311.046.596.139.854.095.259.239.466.432.621.196.156.441.233.738.233zm6.277-1.314v-2.833h.946v4.841h-.927v-.838h-.051c-.111.257-.29.473-.535.645-.245.17-.548.256-.912.256-.311 0-.586-.069-.826-.205a1.442 1.442 0 01-.561-.615c-.135-.271-.202-.606-.202-1.005v-3.079h.943v2.965c0 .33.091.593.274.789a.933.933 0 00.713.292c.176 0 .352-.043.526-.132.177-.088.323-.221.439-.4.117-.179.175-.406.173-.681zm3.057-.866v2.874h-.942v-4.841h.905v.788h.06c.111-.256.285-.462.523-.618.24-.155.542-.233.905-.233.33 0 .619.069.867.208.248.137.441.341.577.611.137.272.205.607.205 1.006v3.079h-.942v-2.966c0-.351-.092-.625-.275-.823-.183-.199-.434-.298-.754-.298-.218 0-.413.047-.583.141a1.023 1.023 0 00-.4.416 1.37 1.37 0 00-.146.656zm6.08 2.968c-.391 0-.74-.1-1.047-.299a2.046 2.046 0 01-.719-.861c-.172-.374-.259-.822-.259-1.345s.088-.971.262-1.343c.177-.372.419-.656.726-.854a1.89 1.89 0 011.043-.296c.301 0 .543.051.725.152.186.098.328.214.429.346.104.132.183.249.24.35h.057v-2.398h.942v6.454h-.92v-.754h-.079a2.452 2.452 0 01-.246.353 1.36 1.36 0 01-.435.347c-.185.099-.425.148-.719.148zm.208-.804a1.1 1.1 0 00.688-.214c.189-.145.331-.345.428-.602.099-.256.148-.554.148-.895 0-.336-.048-.63-.145-.882a1.292 1.292 0 00-.425-.589 1.121 1.121 0 00-.694-.212c-.284 0-.52.074-.709.221a1.346 1.346 0 00-.429.602 2.443 2.443 0 00-.142.86c0 .324.048.615.145.873.097.259.239.463.429.615.191.149.426.223.706.223zm5.253-1.969c0 .792-.105 1.52-.313 2.184a6.503 6.503 0 01-.911 1.837h-.864c.156-.208.301-.463.435-.766a7.23 7.23 0 00.353-.992c.101-.362.18-.736.237-1.122a7.96 7.96 0 00.085-1.141c0-.498-.05-1.003-.148-1.516a8.39 8.39 0 00-.401-1.427c-.168-.439-.355-.798-.561-1.075h.864c.399.561.703 1.174.911 1.837.208.664.313 1.391.313 2.181z" fill="#333"/><path fill-rule="evenodd" clip-rule="evenodd" d="M386.723 261.903a6.103 6.103 0 00-6.105 6.101 6.102 6.102 0 006.105 6.101 6.102 6.102 0 006.104-6.101 6.103 6.103 0 00-6.104-6.101zm-1.828 4.877a.556.556 0 00-.785.784l2.22 2.219a.556.556 0 00.785 0l2.22-2.219a.553.553 0 00-.394-.94.558.558 0 00-.391.156l-1.827 1.827-1.828-1.827z" fill="#000"/><path d="M417.596 259.451c-4.59 0-8.325 3.733-8.325 8.32 0 4.594 3.728 8.319 8.325 8.319 4.59 0 8.324-3.732 8.324-8.319a8.322 8.322 0 00-8.324-8.32zm0 12.519a3.762 3.762 0 01-3.762-3.76 3.762 3.762 0 013.762-3.759h.168l-.565-.564a.563.563 0 01.397-.956c.148 0 .291.059.396.164l1.601 1.6a.556.556 0 010 .792l-1.601 1.6a.561.561 0 01-.793-.792l.721-.72c-.095-.004-.204-.004-.324-.004a2.643 2.643 0 00-2.591 3.155 2.64 2.64 0 005.232-.516c0-.148.059-.29.164-.396a.563.563 0 01.957.396 3.764 3.764 0 01-3.762 3.76zm-18.367 46.307h-7.074a6.624 6.624 0 00-6.257-4.443 6.63 6.63 0 00-6.257 4.443H181.488c-.59 0-1.155.234-1.571.651a2.217 2.217 0 000 3.14c.416.417.981.651 1.571.651h198.153a6.63 6.63 0 0010.095 3.219 6.634 6.634 0 002.419-3.219h7.074a2.22 2.22 0 100-4.442zm-13.331 4.442a2.222 2.222 0 01-1.571-3.791 2.223 2.223 0 013.793 1.57 2.225 2.225 0 01-2.222 2.221z" fill="#000"/><path d="M184.862 306.133a5.612 5.612 0 100-11.221 5.612 5.612 0 00-5.614 5.61 5.612 5.612 0 005.614 5.611zm18.312 0c3.1 0 5.614-2.512 5.614-5.611a5.613 5.613 0 00-5.614-5.61 5.612 5.612 0 100 11.221zm18.314 0a5.612 5.612 0 100-11.221 5.612 5.612 0 00-5.614 5.61 5.612 5.612 0 005.614 5.611zm18.313 0c3.1 0 5.614-2.512 5.614-5.611a5.613 5.613 0 00-5.614-5.61 5.612 5.612 0 100 11.221zm18.313 0a5.612 5.612 0 100-11.221 5.612 5.612 0 00-5.614 5.61 5.612 5.612 0 005.614 5.611zm18.313 0c3.1 0 5.614-2.512 5.614-5.611a5.613 5.613 0 00-5.614-5.61 5.613 5.613 0 00-5.614 5.61 5.613 5.613 0 005.614 5.611zm18.314 0a5.612 5.612 0 100-11.221 5.612 5.612 0 00-5.614 5.61 5.612 5.612 0 005.614 5.611zm18.312 0c3.1 0 5.614-2.512 5.614-5.611a5.613 5.613 0 00-5.614-5.61 5.613 5.613 0 00-5.614 5.61 5.613 5.613 0 005.614 5.611z" fill="#FF9A62"/><path d="M331.366 306.133a5.612 5.612 0 005.614-5.611 5.612 5.612 0 00-5.614-5.61 5.612 5.612 0 100 11.221zm18.314 0c3.1 0 5.614-2.512 5.614-5.611a5.613 5.613 0 00-5.614-5.61 5.613 5.613 0 00-5.614 5.61 5.613 5.613 0 005.614 5.611zm18.312 0a5.612 5.612 0 005.614-5.611 5.612 5.612 0 00-5.614-5.61 5.612 5.612 0 100 11.221zm18.314 0a5.612 5.612 0 100-11.221 5.613 5.613 0 00-5.614 5.61 5.613 5.613 0 005.614 5.611z" fill="#CECCCC"/></svg>