<svg width="808" height="590" fill="none" xmlns="http://www.w3.org/2000/svg"><path d="M804.67 48H3.33C1.49 48 0 49.673 0 51.738v534.524C0 588.326 1.49 590 3.33 590h801.34c1.839 0 3.33-1.674 3.33-3.738V51.738c0-2.065-1.491-3.738-3.33-3.738z" fill="#FFD233"/><path d="M804.67 0H3.33A3.329 3.329 0 000 3.328v41.445A3.329 3.329 0 003.33 48.1h801.34a3.33 3.33 0 003.33-3.328V3.328A3.33 3.33 0 00804.67 0z" fill="#F8F8F8"/><path d="M5.504 28.846v-9.683h3.453c.753 0 1.377.138 1.872.412.496.274.866.65 1.112 1.125a3.41 3.41 0 01.369 1.598c0 .596-.125 1.132-.374 1.608a2.703 2.703 0 01-1.116 1.125c-.495.274-1.118.411-1.868.411H6.578v-1.239h2.241c.477 0 .863-.081 1.16-.245.296-.167.513-.394.652-.681.139-.287.208-.613.208-.979s-.07-.69-.208-.974a1.492 1.492 0 00-.658-.667c-.296-.16-.687-.24-1.173-.24H6.965v8.43H5.504zm8.153 0v-7.262h1.367v1.154h.075a1.76 1.76 0 01.7-.922c.338-.227.72-.34 1.145-.34a6.048 6.048 0 01.6.033v1.352a2.529 2.529 0 00-.302-.052 2.885 2.885 0 00-.435-.033c-.335 0-.633.07-.894.212a1.58 1.58 0 00-.842 1.424v4.434h-1.414zm7.658.147c-.681 0-1.275-.156-1.783-.468a3.157 3.157 0 01-1.182-1.31c-.281-.561-.421-1.217-.421-1.967 0-.753.14-1.412.42-1.976a3.15 3.15 0 011.183-1.314c.508-.312 1.102-.468 1.783-.468.681 0 1.275.156 1.783.468.508.312.902.75 1.183 1.314.28.564.42 1.223.42 1.976 0 .75-.14 1.406-.42 1.967a3.16 3.16 0 01-1.183 1.31c-.508.312-1.102.468-1.783.468zm.005-1.187c.441 0 .807-.117 1.097-.35a2.05 2.05 0 00.643-.931c.142-.388.213-.815.213-1.281 0-.464-.07-.89-.213-1.277a2.08 2.08 0 00-.643-.94c-.29-.237-.656-.355-1.097-.355-.445 0-.814.118-1.107.354-.29.237-.506.55-.648.941a3.765 3.765 0 00-.208 1.277c0 .466.07.893.208 1.28.142.389.358.699.648.932.293.233.662.35 1.107.35zm4.707-6.222h1.414v7.735c0 .485-.088.895-.265 1.23a1.726 1.726 0 01-.775.76c-.34.174-.762.26-1.263.26h-.142c-.047 0-.096-.001-.147-.004V30.35h.227c.335 0 .576-.09.724-.27.151-.176.227-.433.227-.77v-7.726zm.7-1.12a.9.9 0 01-.634-.246.8.8 0 01-.26-.596.79.79 0 01.26-.596.89.89 0 01.634-.25c.246 0 .456.083.629.25a.783.783 0 01.265.596c0 .23-.088.429-.265.596a.883.883 0 01-.63.246zm5.495 8.529c-.716 0-1.333-.153-1.85-.459a3.11 3.11 0 01-1.192-1.3c-.277-.561-.416-1.218-.416-1.972 0-.743.139-1.399.416-1.966a3.238 3.238 0 011.173-1.329c.505-.318 1.095-.477 1.77-.477.41 0 .806.067 1.191.203.385.135.73.348 1.036.638.306.29.547.667.724 1.13.176.46.264 1.02.264 1.679v.5h-5.774v-1.058h4.389c0-.372-.076-.702-.227-.989a1.715 1.715 0 00-.639-.685 1.784 1.784 0 00-.955-.25c-.398 0-.744.097-1.04.293a1.963 1.963 0 00-.682.756 2.182 2.182 0 00-.236 1.007v.827c0 .486.085.899.255 1.24.174.34.415.6.724.78.309.176.67.264 1.083.264.268 0 .512-.038.733-.113.22-.08.411-.196.572-.35a1.52 1.52 0 00.37-.572l1.338.24c-.108.395-.3.74-.578 1.036a2.796 2.796 0 01-1.035.686c-.413.16-.885.24-1.414.24zm7.492 0c-.703 0-1.308-.16-1.816-.478a3.161 3.161 0 01-1.163-1.328c-.271-.565-.407-1.21-.407-1.939 0-.737.139-1.388.416-1.952a3.188 3.188 0 011.173-1.329c.505-.318 1.1-.477 1.783-.477.552 0 1.044.102 1.476.307.432.202.78.485 1.045.85.268.367.428.794.478 1.282h-1.376a1.649 1.649 0 00-.52-.88c-.269-.245-.628-.368-1.079-.368-.394 0-.74.104-1.036.312-.293.205-.522.498-.686.88-.164.378-.245.825-.245 1.342 0 .53.08.987.24 1.371.161.385.389.683.682.894.296.211.645.317 1.045.317.268 0 .51-.05.728-.147.221-.1.406-.244.554-.43.151-.186.257-.41.317-.671h1.376c-.05.47-.203.888-.459 1.257a2.64 2.64 0 01-1.026.87c-.426.211-.926.317-1.5.317zm7.635-7.409v1.135h-3.968v-1.135h3.968zm-2.904-1.74h1.414v6.87c0 .274.041.48.123.62a.641.641 0 00.317.278c.133.048.276.071.43.071.114 0 .214-.008.299-.023l.198-.038.256 1.167a2.38 2.38 0 01-.35.095c-.152.035-.34.054-.568.057a2.492 2.492 0 01-1.04-.199 1.786 1.786 0 01-.78-.643c-.2-.29-.299-.654-.299-1.092v-7.163zm6.287 9.002l-2.771-9.683h2.237l1.603 6.728h.08l1.77-6.727h1.915l1.764 6.741h.085l1.604-6.742h2.237l-2.772 9.683h-1.996l-1.844-6.33h-.076l-1.84 6.33h-1.996zm11.329 0v-7.262h2.015v7.262H62.06zm1.012-8.198c-.3 0-.557-.1-.77-.298a.965.965 0 01-.318-.723c0-.277.106-.515.317-.714.214-.202.471-.303.771-.303.3 0 .555.101.766.303a.94.94 0 01.322.714.96.96 0 01-.322.723 1.079 1.079 0 01-.766.298zm2.363 8.198v-7.262h1.954v1.267h.075c.133-.45.356-.79.667-1.021.313-.233.672-.35 1.079-.35a3.046 3.046 0 01.633.071v1.787a2.627 2.627 0 00-.392-.075 3.522 3.522 0 00-.459-.034c-.296 0-.56.065-.794.194-.23.126-.413.303-.549.53a1.526 1.526 0 00-.199.785v4.108h-2.014zm8.17.142c-.748 0-1.39-.151-1.93-.454a3.11 3.11 0 01-1.239-1.295c-.29-.561-.435-1.225-.435-1.99 0-.748.145-1.403.435-1.967a3.217 3.217 0 011.225-1.32c.53-.315 1.15-.472 1.863-.472.48 0 .926.077 1.339.231.416.152.778.38 1.088.686.312.306.555.69.728 1.153.173.46.26 1 .26 1.617v.553h-6.134v-1.248h4.238c0-.29-.063-.546-.19-.77a1.355 1.355 0 00-.525-.525 1.498 1.498 0 00-.77-.194c-.306 0-.577.071-.814.213a1.491 1.491 0 00-.549.563 1.59 1.59 0 00-.203.78v1.186c0 .36.066.67.199.932.135.261.326.463.572.605.246.142.538.213.875.213.224 0 .429-.032.615-.095s.345-.158.477-.284a1.22 1.22 0 00.303-.463l1.864.123a2.548 2.548 0 01-.582 1.172c-.29.331-.665.59-1.126.776-.457.183-.985.274-1.584.274z" fill="#333"/><path d="M762.845 30.51c4.083 0 7.393-2.856 7.393-6.38 0-3.522-3.31-6.378-7.393-6.378-4.084 0-7.394 2.856-7.394 6.379 0 3.523 3.31 6.38 7.394 6.38z" fill="#4ECB71"/><path d="M781.329 30.51c4.083 0 7.394-2.856 7.394-6.38 0-3.522-3.311-6.378-7.394-6.378s-7.393 2.856-7.393 6.379c0 3.523 3.31 6.38 7.393 6.38z" fill="#FF9A62"/><path d="M744.358 30.51c4.084 0 7.394-2.856 7.394-6.38 0-3.522-3.31-6.378-7.394-6.378-4.083 0-7.393 2.856-7.393 6.379 0 3.523 3.31 6.38 7.393 6.38z" fill="#FFD233"/><path d="M728.088 142.013H79.357a3.329 3.329 0 00-3.33 3.328v260.726a3.33 3.33 0 003.33 3.329h648.731a3.328 3.328 0 003.329-3.329V145.341a3.328 3.328 0 00-3.329-3.328z" fill="#4ECB71"/><path d="M261.029 259.062v-16.137h5.755c1.25 0 2.288.215 3.113.646.831.43 1.45 1.027 1.86 1.788.411.757.615 1.632.615 2.624 0 .988-.207 1.858-.622 2.609-.41.746-1.03 1.326-1.86 1.741-.826.415-1.863.622-3.114.622h-4.359v-2.095h4.138c.788 0 1.429-.114 1.923-.339.5-.226.865-.555 1.096-.985.231-.431.347-.949.347-1.553 0-.609-.119-1.137-.355-1.584-.231-.446-.597-.787-1.095-1.024-.494-.241-1.144-.362-1.948-.362h-3.058v14.049h-2.436zm7.969-7.28l3.989 7.28h-2.774l-3.91-7.28h2.695zm10.727 7.525c-1.193 0-2.22-.255-3.082-.765a5.177 5.177 0 01-1.986-2.167c-.463-.934-.694-2.03-.694-3.285 0-1.24.231-2.333.694-3.278.467-.946 1.119-1.684 1.955-2.215.84-.53 1.823-.795 2.948-.795.683 0 1.345.112 1.986.339.642.225 1.217.58 1.727 1.063s.911 1.111 1.206 1.883c.294.768.441 1.7.441 2.798v.835h-9.625v-1.765h7.316c0-.62-.126-1.169-.379-1.647a2.866 2.866 0 00-1.064-1.143c-.452-.278-.983-.417-1.592-.417-.662 0-1.241.163-1.735.488a3.29 3.29 0 00-1.135 1.261 3.634 3.634 0 00-.394 1.678v1.379c0 .809.142 1.498.426 2.065a3.077 3.077 0 001.206 1.3c.515.294 1.117.442 1.805.442.447 0 .854-.064 1.222-.19.368-.131.686-.325.954-.583.268-.257.472-.575.615-.953l2.23.401a4.034 4.034 0 01-.961 1.726c-.458.489-1.033.869-1.727 1.143-.688.268-1.474.402-2.357.402zm12.422 0c-1.172 0-2.181-.266-3.027-.796-.841-.536-1.487-1.274-1.939-2.214-.452-.941-.678-2.017-.678-3.231 0-1.23.231-2.314.694-3.254.462-.946 1.114-1.684 1.955-2.215.84-.53 1.831-.795 2.971-.795.92 0 1.74.17 2.46.512.72.336 1.3.808 1.742 1.418.447.609.712 1.321.796 2.135h-2.294a2.747 2.747 0 00-.867-1.465c-.446-.41-1.046-.615-1.797-.615-.657 0-1.233.174-1.727.52-.489.342-.869.83-1.143 1.466-.273.63-.409 1.376-.409 2.238 0 .882.133 1.644.401 2.285.268.641.647 1.137 1.136 1.489.494.352 1.074.528 1.742.528.447 0 .851-.081 1.214-.244.367-.168.675-.407.922-.717.252-.31.428-.683.528-1.119h2.294a4.46 4.46 0 01-.764 2.096 4.406 4.406 0 01-1.711 1.45c-.71.352-1.543.528-2.499.528zm12.106 0c-1.135 0-2.126-.26-2.971-.78-.847-.52-1.504-1.248-1.971-2.183-.468-.935-.702-2.028-.702-3.278 0-1.256.234-2.353.702-3.294.467-.94 1.124-1.671 1.971-2.19.845-.521 1.836-.78 2.971-.78s2.126.259 2.972.78c.846.519 1.503 1.25 1.971 2.19.468.941.701 2.038.701 3.294 0 1.25-.233 2.343-.701 3.278-.468.935-1.125 1.663-1.971 2.183-.846.52-1.837.78-2.972.78zm.008-1.978c.736 0 1.345-.194 1.829-.583.484-.389.841-.907 1.072-1.552a6.188 6.188 0 00.354-2.136c0-.772-.118-1.481-.354-2.127-.231-.652-.588-1.175-1.072-1.569-.484-.394-1.093-.59-1.829-.59-.741 0-1.356.196-1.844.59-.484.394-.844.917-1.08 1.569a6.252 6.252 0 00-.347 2.127c0 .778.115 1.489.347 2.136.236.645.596 1.163 1.08 1.552.488.389 1.103.583 1.844.583zm7.779 1.733v-12.103h2.278v1.923h.126a2.927 2.927 0 011.167-1.537 3.34 3.34 0 011.907-.567c.147 0 .321.005.521.016.205.01.365.023.48.039v2.254a4.32 4.32 0 00-.504-.087 4.783 4.783 0 00-.725-.055c-.558 0-1.054.118-1.49.355a2.631 2.631 0 00-1.403 2.371v7.391h-2.357zm12.13.237c-.977 0-1.85-.25-2.617-.749-.762-.504-1.362-1.221-1.798-2.151-.43-.935-.646-2.057-.646-3.364 0-1.308.218-2.427.655-3.358.441-.929 1.045-1.641 1.813-2.135.767-.493 1.636-.74 2.608-.74.752 0 1.357.126 1.813.378.463.247.821.535 1.073.866.257.332.457.623.599.875h.141v-5.996h2.358v16.137h-2.302v-1.883h-.197a6.217 6.217 0 01-.615.883c-.263.331-.625.619-1.088.867-.463.247-1.061.37-1.797.37zm.52-2.01c.678 0 1.251-.178 1.719-.535.472-.363.83-.865 1.072-1.505.247-.641.37-1.387.37-2.238 0-.841-.121-1.576-.363-2.206-.242-.631-.596-1.122-1.064-1.474-.467-.352-1.045-.528-1.734-.528-.709 0-1.3.184-1.774.552-.473.367-.83.869-1.071 1.505-.237.635-.356 1.353-.356 2.151 0 .809.121 1.536.363 2.183.242.645.599 1.158 1.073 1.536.477.373 1.066.559 1.765.559zm8.354 1.773v-12.103h2.357v12.103h-2.357zm1.19-13.971a1.5 1.5 0 01-1.056-.409 1.332 1.332 0 01-.433-.993c0-.389.144-.719.433-.993a1.486 1.486 0 011.056-.418c.41 0 .76.14 1.049.418.294.274.441.604.441.993 0 .383-.147.715-.441.993a1.472 1.472 0 01-1.049.409zm6.207 6.785v7.186h-2.358v-12.103h2.263v1.97h.15a3.46 3.46 0 011.308-1.544c.599-.389 1.353-.583 2.263-.583.824 0 1.547.173 2.167.519.62.342 1.101.851 1.443 1.529.342.678.513 1.516.513 2.514v7.698h-2.358v-7.414c0-.878-.229-1.563-.685-2.057-.457-.499-1.086-.748-1.884-.748-.547 0-1.033.118-1.459.354a2.55 2.55 0 00-1.001 1.04c-.242.452-.362.998-.362 1.639zm15.497 11.977c-.961 0-1.789-.126-2.483-.378-.688-.252-1.25-.585-1.687-1a4.208 4.208 0 01-.977-1.364l2.026-.835c.142.231.331.476.567.733.242.262.568.485.978.67.415.183.949.275 1.6.275.894 0 1.632-.218 2.215-.654.584-.43.875-1.119.875-2.064v-2.38h-.15a5.283 5.283 0 01-.615.859c-.262.315-.625.589-1.087.819-.463.232-1.065.347-1.806.347-.956 0-1.818-.223-2.585-.67-.762-.451-1.366-1.116-1.813-1.993-.441-.883-.662-1.967-.662-3.254s.218-2.391.654-3.31c.441-.919 1.046-1.623 1.813-2.112.767-.493 1.637-.74 2.609-.74.752 0 1.359.126 1.821.378.463.247.823.535 1.08.866.263.332.465.623.607.875h.173v-1.962h2.31v12.371c0 1.041-.242 1.894-.725 2.561-.484.667-1.138 1.161-1.963 1.482-.82.32-1.745.48-2.775.48zm-.023-6.926c.678 0 1.251-.158 1.718-.473.473-.32.831-.777 1.072-1.371.247-.599.371-1.316.371-2.151 0-.814-.121-1.532-.363-2.151-.241-.62-.596-1.104-1.064-1.45-.468-.352-1.046-.528-1.734-.528-.71 0-1.301.184-1.774.552-.473.362-.83.856-1.072 1.481-.236.625-.354 1.324-.354 2.096 0 .793.12 1.49.362 2.088.242.599.599 1.066 1.072 1.402.478.337 1.067.505 1.766.505zm16.17 2.135l-3.563-12.103h2.436l2.372 8.889h.119l2.38-8.889h2.436l2.365 8.849h.118l2.357-8.849h2.436l-3.555 12.103h-2.404l-2.46-8.738h-.181l-2.46 8.738h-2.396zm15.204 0v-12.103h2.357v12.103h-2.357zm1.191-13.971c-.41 0-.762-.136-1.057-.409a1.332 1.332 0 01-.433-.993c0-.389.144-.719.433-.993a1.488 1.488 0 011.057-.418c.409 0 .759.14 1.048.418.294.274.441.604.441.993 0 .383-.147.715-.441.993a1.472 1.472 0 01-1.048.409zm6.206-2.166v16.137h-2.357v-16.137h2.357zm5.039 0v16.137h-2.357v-16.137h2.357zm17.142 6.989l-2.136.378a2.556 2.556 0 00-.426-.78 2.108 2.108 0 00-.773-.607c-.326-.157-.733-.236-1.221-.236-.668 0-1.225.15-1.672.449-.447.294-.67.675-.67 1.143 0 .404.15.73.45.977.299.247.783.449 1.45.607l1.923.441c1.115.257 1.945.654 2.491 1.19.547.536.82 1.232.82 2.088 0 .725-.21 1.371-.63 1.939-.415.561-.996 1.002-1.742 1.323-.742.321-1.601.481-2.578.481-1.356 0-2.462-.289-3.319-.867-.856-.583-1.382-1.411-1.576-2.482l2.278-.347c.141.593.433 1.043.875 1.347.441.3 1.017.45 1.726.45.772 0 1.39-.161 1.852-.481.463-.326.694-.723.694-1.19 0-.378-.141-.696-.426-.953-.278-.258-.706-.452-1.284-.583l-2.05-.45c-1.13-.257-1.965-.667-2.506-1.229-.536-.562-.805-1.274-.805-2.135 0-.715.2-1.34.599-1.876.4-.536.951-.953 1.656-1.252.704-.305 1.511-.457 2.42-.457 1.308 0 2.338.283 3.09.851.752.562 1.248 1.315 1.49 2.261zm7.992-2.955v1.891h-6.614v-1.891h6.614zm-4.841-2.899h2.357v11.449c0 .457.068.801.205 1.032.137.226.313.381.528.465.221.079.46.118.718.118.189 0 .354-.013.496-.039l.331-.063.426 1.946a4.103 4.103 0 01-.583.158 4.662 4.662 0 01-.946.094c-.62.011-1.198-.1-1.734-.331a2.975 2.975 0 01-1.301-1.071c-.331-.484-.497-1.09-.497-1.821V244.06zm10.483 15.27c-.767 0-1.461-.142-2.081-.425a3.505 3.505 0 01-1.474-1.253c-.358-.546-.536-1.216-.536-2.01 0-.682.131-1.244.394-1.686.263-.441.617-.79 1.064-1.048a5.598 5.598 0 011.498-.583 14.888 14.888 0 011.686-.299l1.766-.205c.452-.058.781-.15.986-.276.204-.126.307-.331.307-.614v-.056c0-.688-.195-1.221-.583-1.599-.384-.379-.957-.568-1.719-.568-.793 0-1.419.176-1.876.528-.452.347-.764.733-.938 1.159l-2.215-.505c.263-.735.646-1.329 1.151-1.78a4.661 4.661 0 011.758-.993 6.835 6.835 0 012.089-.315c.483 0 .996.057 1.537.173.546.11 1.056.315 1.529.614.479.3.87.728 1.174 1.285.306.552.458 1.268.458 2.151v8.037h-2.302v-1.654h-.095a3.364 3.364 0 01-.685.898c-.305.294-.697.538-1.175.733-.478.194-1.051.291-1.718.291zm.512-1.891c.652 0 1.209-.128 1.671-.386.468-.257.823-.593 1.064-1.008a2.61 2.61 0 00.371-1.348v-1.56c-.084.084-.247.163-.489.236a7.513 7.513 0 01-.812.181c-.305.048-.601.093-.891.134l-.725.095a5.827 5.827 0 00-1.253.292 2.133 2.133 0 00-.898.591c-.221.251-.332.588-.332 1.008 0 .583.216 1.025.647 1.324.43.294.98.441 1.647.441zm8.114 1.623v-12.103h2.278v1.923h.126a2.927 2.927 0 011.167-1.537 3.34 3.34 0 011.907-.567 9.613 9.613 0 011.001.055v2.254a4.32 4.32 0 00-.504-.087 4.796 4.796 0 00-.726-.055c-.556 0-1.053.118-1.489.355a2.631 2.631 0 00-1.403 2.371v7.391h-2.357zm14.398-12.103v1.891h-6.614v-1.891h6.614zm-4.84-2.899h2.357v11.449c0 .457.068.801.205 1.032.137.226.313.381.528.465.221.079.46.118.718.118.189 0 .354-.013.496-.039l.331-.063.426 1.946a4.085 4.085 0 01-.584.158 4.654 4.654 0 01-.946.094c-.62.011-1.198-.1-1.734-.331a2.972 2.972 0 01-1.3-1.071c-.332-.484-.497-1.09-.497-1.821V244.06zm21.418 5.854l-2.136.378a2.514 2.514 0 00-.426-.78 2.105 2.105 0 00-.772-.607c-.326-.157-.734-.236-1.222-.236-.668 0-1.225.15-1.671.449-.447.294-.67.675-.67 1.143 0 .404.15.73.449.977.299.247.783.449 1.45.607l1.924.441c1.114.257 1.944.654 2.491 1.19.547.536.82 1.232.82 2.088 0 .725-.211 1.371-.631 1.939-.415.561-.996 1.002-1.742 1.323-.741.321-1.6.481-2.578.481-1.356 0-2.462-.289-3.318-.867-.857-.583-1.382-1.411-1.577-2.482l2.278-.347c.142.593.434 1.043.875 1.347.442.3 1.017.45 1.726.45.773 0 1.391-.161 1.853-.481.463-.326.693-.723.693-1.19 0-.378-.141-.696-.425-.953-.279-.258-.707-.452-1.285-.583l-2.049-.45c-1.13-.257-1.966-.667-2.507-1.229-.536-.562-.804-1.274-.804-2.135 0-.715.2-1.34.599-1.876.399-.536.951-.953 1.655-1.252.704-.305 1.511-.457 2.42-.457 1.309 0 2.339.283 3.09.851.752.562 1.248 1.315 1.49 2.261zm4.697 1.962v7.186h-2.357v-16.137h2.325v6.004h.15a3.47 3.47 0 011.301-1.552c.583-.384 1.345-.575 2.286-.575.83 0 1.555.17 2.175.512.626.341 1.109.851 1.451 1.529.346.672.52 1.512.52 2.521v7.698h-2.357v-7.414c0-.888-.228-1.576-.686-2.065-.457-.494-1.093-.74-1.908-.74-.556 0-1.056.118-1.497.354a2.549 2.549 0 00-1.033 1.04c-.247.452-.37.998-.37 1.639zm15.608 7.431c-1.135 0-2.126-.26-2.972-.78-.846-.52-1.503-1.248-1.971-2.183-.467-.935-.701-2.028-.701-3.278 0-1.256.234-2.353.701-3.294.468-.94 1.125-1.671 1.971-2.19.846-.521 1.837-.78 2.972-.78s2.126.259 2.972.78c.846.519 1.503 1.25 1.97 2.19.468.941.702 2.038.702 3.294 0 1.25-.234 2.343-.702 3.278-.467.935-1.124 1.663-1.97 2.183-.846.52-1.837.78-2.972.78zm.008-1.978c.736 0 1.345-.194 1.828-.583.484-.389.842-.907 1.073-1.552a6.188 6.188 0 00.354-2.136c0-.772-.118-1.481-.354-2.127-.231-.652-.589-1.175-1.073-1.569-.483-.394-1.092-.59-1.828-.59-.741 0-1.356.196-1.845.59-.483.394-.843.917-1.08 1.569a6.277 6.277 0 00-.347 2.127c0 .778.116 1.489.347 2.136.237.645.597 1.163 1.08 1.552.489.389 1.104.583 1.845.583zm7.779 1.733v-12.103h2.278v1.923h.126a2.917 2.917 0 011.167-1.537 3.34 3.34 0 011.907-.567c.147 0 .321.005.52.016.205.01.366.023.481.039v2.254a4.32 4.32 0 00-.504-.087 4.796 4.796 0 00-.726-.055c-.557 0-1.054.118-1.49.355-.43.23-.772.554-1.024.969a2.611 2.611 0 00-.379 1.402v7.391h-2.356zm14.398-12.103v1.891h-6.614v-1.891h6.614zm-4.84-2.899h2.357v11.449c0 .457.068.801.204 1.032.137.226.314.381.529.465.221.079.459.118.717.118.189 0 .355-.013.496-.039l.332-.063.425 1.946a4.065 4.065 0 01-.583.158 4.662 4.662 0 01-.946.094c-.62.011-1.198-.1-1.734-.331a2.975 2.975 0 01-1.301-1.071c-.331-.484-.496-1.09-.496-1.821V244.06zm9.575-1.135v16.137h-2.356v-16.137h2.356zm4.173 20.676c-.352 0-.673-.029-.962-.086a3.049 3.049 0 01-.646-.174l.568-1.93c.43.115.814.165 1.151.149a1.38 1.38 0 00.89-.378c.263-.236.494-.622.694-1.158l.291-.804-4.43-12.261h2.523l3.066 9.393h.127l3.066-9.393h2.53l-4.99 13.719c-.231.63-.525 1.163-.883 1.599a3.411 3.411 0 01-1.277.993c-.494.221-1.066.331-1.718.331zm11.389-4.389c-.431 0-.802-.152-1.111-.457a1.523 1.523 0 01-.466-1.119c0-.431.155-.798.466-1.103.309-.31.68-.465 1.111-.465.431 0 .802.155 1.111.465.31.305.465.672.465 1.103 0 .289-.073.554-.22.796a1.615 1.615 0 01-.568.567 1.5 1.5 0 01-.788.213zm5.798 0c-.431 0-.802-.152-1.111-.457a1.525 1.525 0 01-.465-1.119c0-.431.155-.798.465-1.103.309-.31.68-.465 1.111-.465.431 0 .802.155 1.111.465.31.305.465.672.465 1.103 0 .289-.073.554-.22.796a1.615 1.615 0 01-.568.567 1.5 1.5 0 01-.788.213zm5.798 0c-.431 0-.801-.152-1.111-.457a1.525 1.525 0 01-.465-1.119c0-.431.155-.798.465-1.103.31-.31.68-.465 1.111-.465.431 0 .802.155 1.112.465.31.305.465.672.465 1.103 0 .289-.074.554-.221.796a1.615 1.615 0 01-.568.567 1.5 1.5 0 01-.788.213z" fill="#333"/><path d="M414.902 289.843l-2.23 2.229a11.038 11.038 0 00-18.362 4.597 11.029 11.029 0 005.357 12.93 11.03 11.03 0 007.354 1.091 11.031 11.031 0 008.883-10.818h3.153a14.18 14.18 0 01-11.42 13.91 14.185 14.185 0 01-15.876-8.482 14.185 14.185 0 0114.499-19.542 14.2 14.2 0 018.642 4.085z" fill="#000"/></svg>