<svg width="807" height="590" fill="none" xmlns="http://www.w3.org/2000/svg"><path d="M803.674 48H3.326C1.489 48 0 49.673 0 51.738v534.524C0 588.326 1.489 590 3.326 590h800.348c1.837 0 3.326-1.674 3.326-3.738V51.738c0-2.065-1.489-3.738-3.326-3.738z" fill="#FFD233"/><path d="M803.674 0H3.326A3.327 3.327 0 000 3.328v41.445A3.327 3.327 0 003.326 48.1h800.348A3.327 3.327 0 00807 44.773V3.328A3.327 3.327 0 00803.674 0z" fill="#F8F8F8"/><path d="M5.497 28.846v-9.683h3.448c.753 0 1.377.138 1.871.412.494.274.864.65 1.11 1.125.246.473.369 1.006.369 1.598 0 .596-.125 1.132-.374 1.608a2.7 2.7 0 01-1.114 1.125c-.495.274-1.117.411-1.866.411H6.569v-1.239h2.24c.475 0 .86-.081 1.157-.245.296-.167.513-.394.652-.681.138-.287.207-.613.207-.979s-.069-.69-.207-.974a1.492 1.492 0 00-.657-.667c-.296-.16-.686-.24-1.171-.24H6.957v8.43h-1.46zm8.143 0v-7.262h1.365v1.154h.075a1.76 1.76 0 01.7-.922 2 2 0 011.143-.34 6.031 6.031 0 01.6.033v1.352a2.518 2.518 0 00-.303-.052 2.876 2.876 0 00-.434-.033c-.334 0-.632.07-.893.212a1.58 1.58 0 00-.84 1.424v4.434H13.64zm7.649.147c-.68 0-1.274-.156-1.781-.468a3.155 3.155 0 01-1.181-1.31c-.28-.561-.42-1.217-.42-1.967 0-.753.14-1.412.42-1.976a3.15 3.15 0 011.18-1.314c.508-.312 1.101-.468 1.782-.468.68 0 1.273.156 1.78.468.508.312.901.75 1.181 1.314.28.564.42 1.223.42 1.976 0 .75-.14 1.406-.42 1.967-.28.561-.673.998-1.18 1.31-.508.312-1.101.468-1.781.468zm.004-1.187c.441 0 .807-.117 1.096-.35a2.05 2.05 0 00.643-.931c.142-.388.212-.815.212-1.281 0-.464-.07-.89-.212-1.277a2.08 2.08 0 00-.643-.94c-.29-.237-.655-.355-1.096-.355-.444 0-.812.118-1.105.354-.29.237-.505.55-.647.941a3.768 3.768 0 00-.208 1.277c0 .466.07.893.208 1.28.142.389.357.699.647.932.293.233.661.35 1.105.35zm4.702-6.222h1.412v7.735c0 .485-.088.895-.264 1.23a1.725 1.725 0 01-.775.76c-.34.174-.76.26-1.261.26h-.142a2.31 2.31 0 01-.146-.004V30.35h.225c.334 0 .575-.09.723-.27.151-.176.227-.433.227-.77v-7.726zm.699-1.12a.897.897 0 01-.633-.246.8.8 0 01-.26-.596.79.79 0 01.26-.596.888.888 0 01.633-.25c.245 0 .455.083.628.25a.783.783 0 01.265.596c0 .23-.088.429-.265.596a.881.881 0 01-.628.246zm5.488 8.529c-.715 0-1.33-.153-1.847-.459a3.11 3.11 0 01-1.19-1.3c-.278-.561-.416-1.218-.416-1.972 0-.743.138-1.399.415-1.966a3.23 3.23 0 011.172-1.329c.504-.318 1.093-.477 1.767-.477.409 0 .806.067 1.19.203a2.87 2.87 0 011.034.638c.306.29.547.667.723 1.13.176.46.265 1.02.265 1.679v.5h-5.768v-1.058h4.384c0-.372-.076-.702-.227-.989a1.715 1.715 0 00-.638-.685 1.78 1.78 0 00-.954-.25c-.397 0-.743.097-1.04.293a1.973 1.973 0 00-.68.756 2.184 2.184 0 00-.236 1.007v.827c0 .486.085.899.255 1.24.174.34.415.6.723.78.309.176.67.264 1.082.264.268 0 .512-.038.732-.113.22-.08.411-.196.572-.35a1.52 1.52 0 00.368-.572l1.337.24c-.107.395-.3.74-.576 1.036a2.793 2.793 0 01-1.035.686c-.413.16-.883.24-1.412.24zm7.483 0c-.702 0-1.307-.16-1.814-.478a3.16 3.16 0 01-1.162-1.328c-.27-.565-.406-1.21-.406-1.939 0-.737.139-1.388.416-1.952a3.186 3.186 0 011.171-1.329c.504-.318 1.098-.477 1.781-.477.551 0 1.043.102 1.474.307.431.202.78.485 1.044.85.268.367.427.794.477 1.282h-1.375a1.65 1.65 0 00-.52-.88c-.267-.245-.626-.368-1.076-.368-.394 0-.739.104-1.035.312-.293.205-.52.498-.685.88-.163.378-.245.825-.245 1.342 0 .53.08.987.24 1.371.161.385.388.683.68.894a1.75 1.75 0 001.045.317c.268 0 .51-.05.727-.147.22-.1.405-.244.553-.43a1.62 1.62 0 00.316-.671h1.375c-.05.47-.203.888-.458 1.257a2.638 2.638 0 01-1.025.87c-.425.211-.924.317-1.498.317zm7.626-7.409v1.135h-3.963v-1.135h3.963zm-2.9-1.74h1.412v6.87c0 .274.04.48.123.62a.641.641 0 00.316.278c.132.048.276.071.43.071.113 0 .213-.008.297-.023l.199-.038.255 1.167a2.373 2.373 0 01-.35.095c-.15.035-.34.054-.566.057a2.486 2.486 0 01-1.04-.199 1.784 1.784 0 01-.78-.643c-.197-.29-.297-.654-.297-1.092v-7.163zm6.278 9.002l-2.768-9.683h2.235l1.6 6.728h.081l1.767-6.727h1.913l1.762 6.741h.085l1.602-6.742h2.234l-2.768 9.683h-1.994l-1.842-6.33H54.5l-1.837 6.33h-1.994zm11.315 0v-7.262h2.012v7.262h-2.012zm1.01-8.198c-.298 0-.555-.1-.769-.298a.965.965 0 01-.316-.723c0-.277.105-.515.316-.714.214-.202.47-.303.77-.303.3 0 .554.101.765.303a.94.94 0 01.321.714.96.96 0 01-.32.723 1.077 1.077 0 01-.766.298zm2.362 8.198v-7.262h1.95v1.267h.076c.132-.45.355-.79.666-1.021a1.75 1.75 0 011.077-.35 3.039 3.039 0 01.633.071v1.787a2.618 2.618 0 00-.392-.075 3.514 3.514 0 00-.458-.034c-.296 0-.56.065-.794.194a1.43 1.43 0 00-.548.53 1.528 1.528 0 00-.198.785v4.108h-2.012zm8.159.142c-.747 0-1.39-.151-1.927-.454a3.108 3.108 0 01-1.238-1.295c-.29-.561-.435-1.225-.435-1.99 0-.748.145-1.403.435-1.967a3.214 3.214 0 011.223-1.32c.53-.315 1.15-.472 1.861-.472.48 0 .925.077 1.337.231.416.152.778.38 1.087.686.312.306.554.69.727 1.153.173.46.26 1 .26 1.617v.553H70.72v-1.248h4.232c0-.29-.063-.546-.19-.77a1.354 1.354 0 00-.523-.525 1.495 1.495 0 00-.77-.194c-.306 0-.577.071-.813.213a1.492 1.492 0 00-.548.563 1.59 1.59 0 00-.203.78v1.186c0 .36.066.67.199.932.135.261.325.463.57.605.246.142.538.213.875.213.223 0 .428-.032.614-.095a1.23 1.23 0 00.78-.747l1.86.123a2.548 2.548 0 01-.58 1.172c-.29.331-.665.59-1.125.776-.457.183-.984.274-1.582.274z" fill="#333"/><path d="M761.9 30.51c4.078 0 7.384-2.856 7.384-6.38 0-3.522-3.306-6.378-7.384-6.378s-7.384 2.856-7.384 6.379c0 3.523 3.306 6.38 7.384 6.38z" fill="#4ECB71"/><path d="M780.363 30.51c4.078 0 7.384-2.856 7.384-6.38 0-3.522-3.306-6.378-7.384-6.378s-7.384 2.856-7.384 6.379c0 3.523 3.306 6.38 7.384 6.38z" fill="#FF9A62"/><path d="M743.437 30.51c4.078 0 7.384-2.856 7.384-6.38 0-3.522-3.306-6.378-7.384-6.378s-7.384 2.856-7.384 6.379c0 3.523 3.306 6.38 7.384 6.38z" fill="#FFD233"/><path d="M727.741 142.013H79.813a3.327 3.327 0 00-3.326 3.328v260.726a3.327 3.327 0 003.326 3.329H727.74a3.327 3.327 0 003.325-3.329V145.341a3.327 3.327 0 00-3.325-3.328z" fill="#4ECB71"/><path d="M386.607 219.705c-4.184-1.322-2.993-2.374 1.001-3.876 1.913-.721.749-2.241.802-3.457.023-.556 2.209-.445 2.051-2.591-.112-1.512-3.439-3.666-4.346-4.585-.523-.53 1.067-1.981-.052-3.258-1.53-1.744-1.771-4.779-2.697-6.476 0 0 .706-1.079.165-1.692-4.664-5.284-22.069-4.799-26.517 2.978-4.993 8.731-5.06 20.797 5.322 27.298 4.617 2.89-1.297 13.127-1.297 13.127h18.31c0-1.748-2.042-8.018 1.532-7.736 3.105.244 6.908.109 6.571-3.4-.102-1.059-.222-2.013.517-2.891.739-.876 1.809-2.44-1.362-3.441zm4.19-1.647l17.005 2.23v-4.459l-17.005 2.229zm13.815 14.679l1.824-3.861-15.639-8.449 13.815 12.31zm1.824-25.537l-1.824-3.862-13.815 12.312 15.639-8.45zm31.417 17.381c4.257 0 7.72-3.465 7.72-7.726v-11.59c0-4.283-3.445-7.767-7.68-7.767a1.82 1.82 0 00-.403.048 7.728 7.728 0 00-5.22 2.388 7.742 7.742 0 00-2.137 5.331v11.59c0 4.261 3.462 7.726 7.72 7.726z" fill="#000"/><path d="M435.922 232.175v3.996h3.86v-3.996c7.602-.957 13.51-7.453 13.51-15.321h-3.86c0 6.392-5.194 11.591-11.58 11.591s-11.58-5.199-11.58-11.591h-3.86c0 7.866 5.908 14.364 13.51 15.321z" fill="#000"/><path d="M321.781 302.678v-6.455h4v.839h-3.026v1.966h2.739v.836h-2.739v2.814h-.974zm6.706.098c-.454 0-.849-.104-1.188-.312a2.104 2.104 0 01-.787-.873c-.186-.374-.28-.811-.28-1.311 0-.502.094-.942.28-1.318a2.1 2.1 0 01.787-.876c.339-.208.734-.312 1.188-.312.453 0 .849.104 1.187.312.338.208.601.5.787.876.187.376.28.816.28 1.318 0 .5-.093.937-.28 1.311a2.097 2.097 0 01-.787.873c-.338.208-.734.312-1.187.312zm.003-.791c.294 0 .538-.078.731-.233.192-.156.335-.363.428-.621.094-.259.141-.543.141-.855 0-.308-.047-.592-.141-.851a1.404 1.404 0 00-.428-.627c-.193-.157-.437-.236-.731-.236-.296 0-.542.079-.737.236a1.41 1.41 0 00-.431.627 2.503 2.503 0 00-.139.851c0 .312.046.596.139.855.094.258.238.465.431.621.195.155.441.233.737.233zm3.205.693v-4.841h.91v.769h.051c.088-.261.243-.465.465-.615.225-.151.479-.227.762-.227a4.279 4.279 0 01.401.023v.901a1.88 1.88 0 00-.202-.035 2.017 2.017 0 00-.289-.021c-.223 0-.422.047-.596.141a1.06 1.06 0 00-.561.949v2.956h-.941zm7.64.098c-.477 0-.887-.102-1.231-.306a2.08 2.08 0 01-.794-.866c-.185-.375-.277-.813-.277-1.315 0-.496.092-.933.277-1.311a2.16 2.16 0 01.781-.886 2.161 2.161 0 011.178-.318c.273 0 .537.045.793.135.257.091.486.233.69.426.204.193.365.445.482.753.118.307.176.68.176 1.119v.334h-3.845v-.706h2.923c0-.248-.05-.467-.151-.659a1.146 1.146 0 00-1.062-.623c-.264 0-.495.065-.693.195a1.31 1.31 0 00-.453.504c-.105.206-.157.43-.157.671v.552c0 .324.056.599.17.826.115.227.276.4.481.52.206.118.447.177.722.177.178 0 .341-.026.488-.076.147-.052.274-.13.381-.233.107-.104.189-.231.245-.382l.891.161c-.07.263-.199.492-.384.691a1.855 1.855 0 01-.689.456 2.563 2.563 0 01-.942.161zm3.653-4.939l1.068 1.885 1.077-1.885h1.03l-1.509 2.42 1.521 2.421h-1.03l-1.089-1.809-1.087 1.809h-1.033l1.506-2.421-1.487-2.42h1.033zm5.443 4.948c-.306 0-.584-.056-.831-.17a1.393 1.393 0 01-.589-.501c-.143-.218-.214-.486-.214-.804 0-.273.052-.498.157-.674.105-.177.247-.316.425-.419.179-.103.378-.181.599-.234a5.99 5.99 0 01.673-.119l.706-.083c.18-.022.312-.059.393-.109.082-.051.123-.133.123-.247v-.021c0-.276-.077-.489-.233-.64-.153-.152-.382-.227-.686-.227-.317 0-.567.07-.75.211-.18.139-.305.293-.374.463l-.885-.202a1.7 1.7 0 01.459-.712c.204-.183.438-.315.703-.397.264-.084.542-.126.834-.126.193 0 .398.023.614.069.218.045.422.126.611.246.191.12.347.291.469.514.122.22.183.507.183.861v3.214h-.92v-.661h-.037a1.34 1.34 0 01-.274.359 1.461 1.461 0 01-.47.293c-.19.078-.419.116-.686.116zm.205-.756c.26 0 .482-.051.667-.154.187-.103.329-.238.426-.404.098-.168.148-.348.148-.539v-.624a.497.497 0 01-.196.095 3.07 3.07 0 01-.324.072 40.1 40.1 0 01-.356.054l-.29.037a2.453 2.453 0 00-.501.117.869.869 0 00-.359.237.59.59 0 00-.132.403c0 .233.086.409.259.529.172.118.391.177.658.177zm3.338.649v-4.841h.904v.788h.06a1.25 1.25 0 01.495-.624 1.45 1.45 0 01.822-.227c.323 0 .594.075.812.227.221.151.383.359.489.624h.05a1.36 1.36 0 01.551-.618c.252-.155.552-.233.901-.233.438 0 .796.137 1.073.413.28.275.419.69.419 1.245v3.246h-.941v-3.158c0-.328-.09-.565-.268-.712a.976.976 0 00-.639-.221c-.307 0-.545.094-.715.284-.17.187-.255.427-.255.721v3.086h-.939v-3.218c0-.263-.082-.473-.246-.633-.163-.16-.377-.24-.639-.24a.91.91 0 00-.494.142c-.149.092-.27.222-.362.388a1.19 1.19 0 00-.136.576v2.985h-.942zm7.741 1.816v-6.657h.919v.785h.079c.055-.101.133-.218.236-.35a1.34 1.34 0 01.428-.347c.183-.101.424-.151.725-.151.39 0 .739.099 1.045.296.307.198.547.482.721.854.177.372.265.82.265 1.343 0 .524-.087.972-.261 1.346a2.044 2.044 0 01-.718.861 1.867 1.867 0 01-1.043.299c-.293 0-.534-.05-.721-.148a1.358 1.358 0 01-.434-.347 2.458 2.458 0 01-.243-.353h-.057v2.569h-.941zm.923-4.237c0 .341.049.64.148.896.098.256.241.457.428.602.187.143.416.214.686.214.282 0 .517-.075.706-.224a1.39 1.39 0 00.428-.614c.099-.259.148-.55.148-.874 0-.319-.048-.605-.145-.86a1.315 1.315 0 00-.428-.602c-.189-.147-.425-.221-.709-.221-.273 0-.504.071-.693.212a1.306 1.306 0 00-.425.589 2.471 2.471 0 00-.144.882zm5.394-4.034v6.455h-.942v-6.455h.942zm3.254 6.553c-.477 0-.887-.102-1.231-.306a2.08 2.08 0 01-.794-.866c-.185-.375-.277-.813-.277-1.315 0-.496.092-.933.277-1.311a2.16 2.16 0 01.781-.886 2.161 2.161 0 011.178-.318c.273 0 .537.045.793.135.256.091.486.233.69.426.204.193.365.445.482.753.118.307.176.68.176 1.119v.334h-3.845v-.706h2.922c0-.248-.05-.467-.15-.659a1.142 1.142 0 00-.426-.456 1.179 1.179 0 00-.636-.167c-.265 0-.495.065-.693.195a1.31 1.31 0 00-.453.504c-.105.206-.158.43-.158.671v.552c0 .324.057.599.17.826.116.227.276.4.482.52.206.118.447.177.722.177.178 0 .34-.026.487-.076a1.04 1.04 0 00.382-.233c.107-.104.189-.231.245-.382l.891.161a1.618 1.618 0 01-.384.691 1.863 1.863 0 01-.689.456 2.566 2.566 0 01-.942.161zm4.247-.98l-.047.343a5.375 5.375 0 01-.16.788c-.074.276-.151.531-.23.767-.078.235-.142.422-.192.56h-.668l.114-.529c.048-.221.095-.468.141-.741.046-.273.081-.551.104-.835l.032-.353h.906zm3.043-3.556v-.68c0-.194.037-.391.113-.593.076-.202.176-.392.299-.571a2.2 2.2 0 01.404-.447l.592.35a3.112 3.112 0 00-.29.58 1.964 1.964 0 00-.111.674v.687h-1.007zm1.59 0v-.68c0-.194.038-.391.114-.593a2.57 2.57 0 01.299-.571c.123-.178.258-.327.403-.447l.592.35a3.112 3.112 0 00-.29.58c-.073.201-.11.426-.11.674v.687h-1.008zm3.49-2.017v6.455h-1.364v-6.455h1.364zm2.123 0v.681a1.7 1.7 0 01-.113.593 2.598 2.598 0 01-.296.567 2.37 2.37 0 01-.406.45l-.593-.349c.105-.166.197-.35.277-.552.082-.201.123-.436.123-.703v-.687h1.008zm.606 6.455v-4.841h1.278v.854h.057c.101-.284.269-.507.504-.671.235-.164.516-.246.844-.246.331 0 .613.083.847.249.233.164.388.387.466.668h.05c.099-.277.277-.499.536-.665a1.66 1.66 0 01.922-.252c.452 0 .818.144 1.099.431.284.287.425.692.425 1.218v3.255h-1.338v-2.991c0-.269-.071-.471-.214-.605a.753.753 0 00-.536-.202c-.243 0-.433.078-.569.234-.137.153-.205.356-.205.608v2.956h-1.301v-3.019c0-.238-.068-.427-.204-.568a.702.702 0 00-.532-.211.74.74 0 00-.404.114.78.78 0 00-.28.312.992.992 0 00-.104.466v2.906h-1.341zm9.945-4.841h1.342v5.081c0 .374-.074.677-.22.908-.147.231-.358.4-.633.507-.273.107-.6.161-.98.161-.046 0-.09-.001-.132-.003-.044 0-.09-.001-.139-.004v-1.049l.095.003c.025.002.053.003.082.003.216 0 .368-.046.453-.138.089-.091.132-.227.132-.41v-5.059zm.668-.624a.727.727 0 01-.51-.199.638.638 0 01-.214-.482c0-.185.071-.344.214-.476a.721.721 0 01.51-.202c.202 0 .373.068.513.202a.639.639 0 010 .958.72.72 0 01-.513.199zm4.753 3.404v-2.78h1.342v4.841h-1.288v-.879h-.051a1.42 1.42 0 01-.545.684c-.251.172-.559.259-.922.259-.324 0-.608-.074-.853-.221a1.514 1.514 0 01-.577-.628c-.136-.27-.205-.595-.208-.973v-3.083h1.342v2.843c.002.286.078.512.23.678.151.166.353.249.608.249a.96.96 0 00.453-.111.859.859 0 00.34-.334c.088-.147.131-.329.129-.545zm6.342-1.4l-1.228.076a.635.635 0 00-.136-.284.711.711 0 00-.273-.204.928.928 0 00-.401-.079.985.985 0 00-.526.132c-.142.086-.214.202-.214.347 0 .116.046.213.139.293.093.08.251.144.476.193l.875.176c.47.096.821.252 1.052.466.231.215.346.496.346.845 0 .317-.093.596-.28.835-.185.24-.439.427-.762.562a2.907 2.907 0 01-1.112.198c-.64 0-1.15-.134-1.531-.4a1.563 1.563 0 01-.664-1.097l1.32-.069a.675.675 0 00.289.447c.154.101.35.151.59.151.235 0 .424-.045.566-.135.145-.093.218-.212.221-.356a.376.376 0 00-.154-.3c-.101-.08-.257-.141-.467-.183l-.838-.167c-.472-.094-.823-.258-1.054-.491-.229-.234-.343-.531-.343-.892 0-.312.083-.58.251-.804.17-.225.409-.399.715-.52.309-.122.67-.183 1.083-.183.611 0 1.092.129 1.443.388.352.258.558.61.617 1.055zm3.43-1.38v1.009h-2.913v-1.009h2.913zm-2.251-1.16h1.341v4.514c0 .124.019.22.057.29.038.067.09.114.157.142.07.027.15.04.24.04.063 0 .126-.005.188-.015l.146-.029.21.999a3.522 3.522 0 01-.283.073c-.122.029-.27.047-.444.053a2.025 2.025 0 01-.85-.129 1.184 1.184 0 01-.564-.46c-.135-.208-.201-.471-.198-.788v-4.69zm7.555 1.16v1.009h-2.912v-1.009h2.912zm-2.251-1.16h1.341v4.514c0 .124.019.22.057.29.038.067.09.114.158.142.069.027.149.04.239.04.063 0 .126-.005.189-.015l.145-.029.21.999a3.522 3.522 0 01-.283.073c-.122.029-.27.047-.444.053a2.025 2.025 0 01-.85-.129 1.184 1.184 0 01-.564-.46c-.134-.208-.2-.471-.198-.788v-4.69zm5.181 6.096c-.498 0-.927-.101-1.286-.303a2.055 2.055 0 01-.824-.863c-.194-.374-.29-.816-.29-1.327 0-.498.096-.935.29-1.311.192-.377.465-.67.815-.88.353-.21.766-.315 1.241-.315.319 0 .616.051.891.154a1.991 1.991 0 011.209 1.227c.116.306.173.665.173 1.077v.369h-4.084v-.832h2.822c0-.193-.042-.365-.126-.513a.892.892 0 00-.35-.35.998.998 0 00-.513-.13 1.03 1.03 0 00-.542.142.995.995 0 00-.365.375 1.074 1.074 0 00-.136.52v.791c0 .24.045.447.133.621.09.175.217.309.381.404.164.094.358.142.582.142.149 0 .286-.021.41-.063a.812.812 0 00.519-.499l1.241.082c-.063.299-.192.56-.387.782a1.939 1.939 0 01-.75.517 2.818 2.818 0 01-1.054.183zm7.022-3.556l-1.228.076a.644.644 0 00-.135-.284.723.723 0 00-.274-.204.927.927 0 00-.4-.079.985.985 0 00-.526.132c-.143.086-.214.202-.214.347 0 .116.046.213.138.293.092.08.251.144.476.193l.875.176c.471.096.821.252 1.052.466.231.215.346.496.346.845 0 .317-.093.596-.28.835-.185.24-.439.427-.762.562a2.906 2.906 0 01-1.111.198c-.641 0-1.151-.134-1.531-.4a1.56 1.56 0 01-.665-1.097l1.32-.069c.04.195.136.344.29.447.153.101.349.151.588.151.236 0 .424-.045.567-.135.145-.093.219-.212.221-.356a.372.372 0 00-.155-.3c-.1-.08-.256-.141-.466-.183l-.837-.167c-.473-.094-.825-.258-1.055-.491-.229-.234-.344-.531-.344-.892 0-.312.084-.58.252-.804.171-.225.409-.399.715-.52.309-.122.67-.183 1.083-.183.611 0 1.092.129 1.443.388.353.258.558.61.617 1.055zm3.43-1.38v1.009h-2.913v-1.009h2.913zm-2.251-1.16h1.341v4.514c0 .124.019.22.057.29.038.067.09.114.157.142.069.027.149.04.24.04.063 0 .126-.005.189-.015l.145-.029.21.999a3.522 3.522 0 01-.283.073c-.122.029-.27.047-.444.053a2.025 2.025 0 01-.85-.129 1.19 1.19 0 01-.564-.46c-.134-.208-.2-.471-.198-.788v-4.69zm3.028 6.001v-4.841h1.341v4.841h-1.341zm.674-5.465a.728.728 0 01-.513-.199.643.643 0 01-.212-.482.63.63 0 01.212-.476.722.722 0 01.513-.202c.199 0 .369.068.51.202a.625.625 0 01.214.476.638.638 0 01-.214.482.72.72 0 01-.51.199zm2.986 2.667v2.798h-1.342v-4.841h1.279v.854h.057c.107-.281.286-.504.538-.668.252-.166.558-.249.916-.249.336 0 .63.074.88.221.249.147.443.357.582.63.139.271.208.595.208.971v3.082h-1.342v-2.843c.002-.296-.073-.527-.227-.693-.153-.168-.364-.253-.633-.253-.18 0-.34.04-.478.118a.795.795 0 00-.321.34 1.175 1.175 0 00-.117.533zm6.257 4.715c-.435 0-.807-.06-1.118-.18a1.839 1.839 0 01-.737-.482 1.486 1.486 0 01-.356-.687l1.241-.167a.804.804 0 00.179.271c.082.084.19.151.325.201.136.053.302.079.497.079.292 0 .532-.071.721-.214.192-.141.287-.377.287-.709v-.886h-.057a1.253 1.253 0 01-.264.381c-.118.12-.269.218-.454.293a1.734 1.734 0 01-.661.114c-.363 0-.694-.084-.992-.252-.296-.17-.532-.43-.709-.779-.174-.351-.261-.794-.261-1.33 0-.548.089-1.006.267-1.374.179-.368.416-.643.713-.826.297-.183.624-.274.979-.274.271 0 .497.046.68.139.182.09.33.204.441.34.113.134.2.267.261.397h.051v-.813h1.332v4.888c0 .413-.101.757-.302 1.034a1.822 1.822 0 01-.838.625 3.32 3.32 0 01-1.225.211zm.028-2.995a.915.915 0 00.548-.16 1.02 1.02 0 00.346-.467c.083-.204.124-.448.124-.731 0-.284-.04-.53-.12-.738a1.078 1.078 0 00-.347-.488.878.878 0 00-.551-.174c-.22 0-.406.06-.557.18a1.087 1.087 0 00-.344.492 2.11 2.11 0 00-.116.728c0 .279.039.521.116.725.08.201.195.358.344.469a.92.92 0 00.557.164zm5.262 1.078v-4.841h1.278v.854h.057c.101-.284.269-.507.504-.671.235-.164.516-.246.844-.246.332 0 .614.083.847.249.233.164.389.387.466.668h.051c.098-.277.277-.499.535-.665.26-.168.568-.252.922-.252.452 0 .818.144 1.099.431.284.287.426.692.426 1.218v3.255h-1.338v-2.991c0-.269-.072-.471-.215-.605a.75.75 0 00-.535-.202c-.244 0-.434.078-.57.234-.136.153-.205.356-.205.608v2.956h-1.3v-3.019c0-.238-.069-.427-.205-.568a.703.703 0 00-.533-.211.737.737 0 00-.403.114.78.78 0 00-.28.312.992.992 0 00-.104.466v2.906h-1.341zm8.646 1.816c-.17 0-.33-.014-.479-.041a1.788 1.788 0 01-.365-.098l.302-1.002c.158.048.3.074.426.079a.532.532 0 00.33-.089.655.655 0 00.23-.321l.079-.205-1.735-4.98h1.41l1.002 3.555h.05l1.011-3.555h1.42l-1.88 5.364c-.09.261-.213.488-.368.681a1.505 1.505 0 01-.583.451 2.04 2.04 0 01-.85.161zm7.604-1.724c-.308 0-.583-.054-.824-.161a1.32 1.32 0 01-.573-.482c-.139-.215-.208-.482-.208-.801 0-.269.049-.495.148-.677.098-.184.232-.331.403-.442a1.97 1.97 0 01.579-.252c.218-.056.447-.096.687-.12.281-.029.508-.056.68-.082.172-.027.297-.067.375-.12a.262.262 0 00.116-.233v-.018c0-.2-.063-.354-.189-.464-.124-.109-.3-.164-.529-.164-.241 0-.434.054-.576.161a.742.742 0 00-.284.397l-1.24-.101a1.69 1.69 0 01.371-.763c.185-.216.423-.382.715-.498a2.747 2.747 0 011.021-.176c.268 0 .526.032.771.095.248.062.467.16.658.293.193.132.345.302.457.51.111.206.167.453.167.741v3.265h-1.273v-.671h-.037a1.357 1.357 0 01-.781.668 1.944 1.944 0 01-.634.095zm.385-.927c.197 0 .371-.039.523-.117a.923.923 0 00.356-.321.84.84 0 00.129-.457v-.514a.686.686 0 01-.174.076 3.173 3.173 0 01-.242.06l-.271.047-.246.035c-.157.023-.294.06-.412.11a.646.646 0 00-.274.205.5.5 0 00-.098.315c0 .183.067.322.199.419a.86.86 0 00.51.142zm6.385-1.226v-2.78h1.341v4.841h-1.288v-.879h-.05a1.426 1.426 0 01-.545.684c-.252.172-.559.259-.922.259-.324 0-.608-.074-.854-.221a1.512 1.512 0 01-.576-.628c-.137-.27-.206-.595-.208-.973v-3.083h1.342v2.843c.001.286.078.512.229.678a.784.784 0 00.608.249.962.962 0 00.454-.111.872.872 0 00.34-.334c.088-.147.131-.329.129-.545zm4.099 2.14c-.367 0-.7-.094-.998-.283-.296-.192-.531-.472-.705-.842-.172-.372-.259-.828-.259-1.368 0-.555.09-1.016.268-1.384.178-.369.416-.646.712-.829.298-.184.624-.277.979-.277.271 0 .497.046.677.139.183.09.33.204.442.34.113.134.199.267.257.397h.041v-2.427h1.339v6.455h-1.323v-.775h-.057a1.69 1.69 0 01-.267.4 1.332 1.332 0 01-.444.325 1.532 1.532 0 01-.662.129zm.425-1.068c.217 0 .4-.059.549-.177.151-.12.266-.287.346-.501.082-.214.123-.466.123-.754 0-.287-.04-.537-.12-.75a1.073 1.073 0 00-.346-.491.88.88 0 00-.552-.174c-.22 0-.406.06-.557.18-.151.12-.266.286-.343.498a2.13 2.13 0 00-.117.737c0 .282.039.531.117.748.08.214.194.382.343.504.151.12.337.18.557.18zm3.333.989v-4.841h1.342v4.841h-1.342zm.674-5.465a.73.73 0 01-.513-.199.642.642 0 01-.211-.482c0-.185.07-.344.211-.476a.723.723 0 01.513-.202c.2 0 .37.068.51.202a.639.639 0 010 .958.717.717 0 01-.51.199zm3.831 5.56c-.49 0-.913-.104-1.27-.312a2.134 2.134 0 01-.822-.877c-.193-.376-.289-.812-.289-1.308 0-.5.096-.937.289-1.311.193-.376.468-.668.822-.876.357-.21.78-.315 1.27-.315.489 0 .911.105 1.266.315.357.208.631.5.824.876.194.374.29.811.29 1.311 0 .496-.096.932-.29 1.308a2.12 2.12 0 01-.824.877c-.355.208-.777.312-1.266.312zm.006-1.041a.831.831 0 00.557-.188c.149-.129.261-.303.337-.524.078-.22.117-.471.117-.753a2.25 2.25 0 00-.117-.753 1.182 1.182 0 00-.337-.524.824.824 0 00-.557-.192.854.854 0 00-.567.192 1.183 1.183 0 00-.343.524c-.076.22-.114.472-.114.753 0 .282.038.533.114.753.077.221.192.395.343.524a.862.862 0 00.567.188zm4.273-5.509v.681a1.7 1.7 0 01-.113.593 2.555 2.555 0 01-.296.567 2.337 2.337 0 01-.406.45l-.592-.349c.105-.166.197-.35.277-.552.081-.201.122-.436.122-.703v-.687h1.008zm1.584 0v.681a1.7 1.7 0 01-.113.593 2.555 2.555 0 01-.296.567c-.124.176-.26.327-.409.45l-.592-.349c.107-.166.2-.35.28-.552.082-.201.123-.436.123-.703v-.687h1.007zm-154.607 74.089v6.456h-1.363v-5.16h-.038l-1.477.927v-1.211l1.597-1.012h1.281zm3.964 6.597c-.541-.001-1.007-.135-1.397-.4-.389-.265-.688-.648-.898-1.15-.208-.502-.311-1.106-.308-1.813 0-.704.103-1.304.311-1.799.21-.496.509-.873.897-1.132.391-.261.856-.391 1.395-.391.54 0 1.004.13 1.393.391.39.26.69.639.9 1.135.21.493.314 1.092.312 1.796 0 .708-.105 1.313-.315 1.816-.208.502-.506.885-.894 1.15-.388.265-.854.397-1.396.397zm0-1.131c.37 0 .665-.186.886-.558.22-.372.329-.93.327-1.674 0-.489-.05-.897-.151-1.223-.099-.325-.24-.57-.422-.734a.92.92 0 00-.64-.246c-.366 0-.661.184-.881.552-.22.367-.332.918-.334 1.651 0 .496.049.91.148 1.242.101.33.243.578.425.744a.932.932 0 00.642.246zm9.17-2.67l-.853.152a1.014 1.014 0 00-.171-.313.83.83 0 00-.308-.242 1.121 1.121 0 00-.489-.095c-.266 0-.489.06-.667.18-.178.117-.268.27-.268.457 0 .162.06.292.18.391.12.099.312.179.579.242l.768.177c.446.103.777.262.996.476.218.214.327.492.327.835 0 .29-.084.549-.252.776a1.66 1.66 0 01-.695.529c-.296.128-.64.192-1.03.192-.542 0-.984-.116-1.326-.346a1.464 1.464 0 01-.63-.993l.91-.139a.873.873 0 00.35.539c.176.12.406.179.689.179.309 0 .555-.063.741-.192.184-.13.277-.289.277-.476a.496.496 0 00-.17-.381c-.112-.103-.283-.18-.514-.233l-.819-.18c-.451-.103-.785-.267-1.001-.491-.214-.226-.321-.51-.321-.855 0-.285.079-.536.239-.75.16-.214.38-.381.661-.501.282-.122.604-.183.967-.183.523 0 .934.113 1.235.34.3.226.498.527.595.905zm3.117 3.757c-.477 0-.887-.102-1.231-.305a2.076 2.076 0 01-.794-.867c-.185-.374-.277-.813-.277-1.315 0-.495.092-.933.277-1.311.187-.378.447-.673.781-.885.336-.213.728-.319 1.178-.319.272 0 .537.045.793.136.256.09.486.232.69.425.203.194.364.444.482.753.117.307.176.68.176 1.119v.334h-3.845v-.705h2.923a1.39 1.39 0 00-.152-.659 1.149 1.149 0 00-.425-.457 1.19 1.19 0 00-.636-.167 1.23 1.23 0 00-.693.195 1.312 1.312 0 00-.453.505 1.452 1.452 0 00-.158.671v.551c0 .324.057.599.17.826.116.227.276.4.482.52.206.118.446.176.721.176.179 0 .342-.024.488-.075a1.004 1.004 0 00.627-.615l.891.161a1.603 1.603 0 01-.384.69 1.849 1.849 0 01-.69.457 2.56 2.56 0 01-.941.161zm5.06 0c-.468 0-.871-.106-1.209-.318a2.103 2.103 0 01-.775-.886 2.944 2.944 0 01-.271-1.292c0-.492.092-.926.277-1.302.185-.378.445-.673.781-.885.336-.213.731-.319 1.187-.319.368 0 .695.069.983.205a1.726 1.726 0 011.014 1.422h-.917a1.092 1.092 0 00-.346-.587c-.179-.164-.417-.245-.718-.245-.263 0-.492.069-.689.208a1.325 1.325 0 00-.457.585 2.25 2.25 0 00-.164.896c0 .353.054.658.161.914.107.256.258.455.453.596.197.14.43.211.696.211.179 0 .34-.033.485-.098a.992.992 0 00.369-.287c.1-.124.17-.273.21-.447h.917a1.798 1.798 0 01-.305.838c-.17.246-.398.439-.684.58a2.214 2.214 0 01-.998.211zm4.934 0c-.454 0-.85-.104-1.187-.312a2.106 2.106 0 01-.788-.873c-.187-.374-.28-.811-.28-1.311 0-.503.093-.941.28-1.317.187-.377.45-.669.788-.877.337-.208.733-.312 1.187-.312.453 0 .849.104 1.187.312.338.208.601.5.787.877.187.376.281.814.281 1.317 0 .5-.094.937-.281 1.311a2.097 2.097 0 01-.787.873c-.338.208-.734.312-1.187.312zm.003-.791c.294 0 .537-.078.73-.233.194-.156.337-.362.429-.621a2.46 2.46 0 00.142-.854c0-.309-.047-.593-.142-.851a1.38 1.38 0 00-.429-.628c-.193-.157-.436-.236-.73-.236-.296 0-.542.079-.737.236a1.417 1.417 0 00-.432.628 2.52 2.52 0 00-.138.851c0 .311.046.595.138.854.095.259.239.465.432.621.195.155.441.233.737.233zm4.147-2.181v2.875h-.942v-4.842h.904v.788h.06c.111-.256.285-.462.523-.618.239-.155.54-.233.904-.233.329 0 .618.07.865.208.248.137.44.34.577.612.136.271.204.606.204 1.005v3.08h-.941v-2.966c0-.352-.091-.626-.274-.823-.183-.2-.434-.3-.753-.3-.218 0-.412.048-.582.142a1.025 1.025 0 00-.401.416c-.096.181-.144.4-.144.656zm6.072 2.969c-.391 0-.74-.1-1.046-.3a2.035 2.035 0 01-.718-.86c-.172-.374-.258-.823-.258-1.346 0-.523.087-.971.261-1.342.177-.372.418-.657.724-.854a1.88 1.88 0 011.043-.297c.3 0 .541.051.724.151.185.099.328.215.429.347.102.132.182.249.239.35h.057v-2.399h.941v6.456h-.92v-.754h-.078a2.508 2.508 0 01-.246.353 1.36 1.36 0 01-.435.347c-.184.099-.424.148-.717.148zm.208-.804c.27 0 .499-.071.686-.214.189-.145.332-.346.428-.602.099-.256.148-.555.148-.895 0-.336-.048-.63-.145-.883a1.294 1.294 0 00-.425-.589 1.115 1.115 0 00-.692-.211c-.284 0-.52.073-.709.221a1.341 1.341 0 00-.428.601 2.449 2.449 0 00-.142.861c0 .323.048.614.145.873.096.259.239.463.428.615.191.149.426.223.706.223zm7.059-2.95l-.853.152a.993.993 0 00-.171-.313.821.821 0 00-.308-.242 1.117 1.117 0 00-.488-.095c-.267 0-.489.06-.668.18-.178.117-.268.27-.268.457 0 .162.06.292.18.391.12.099.313.179.58.242l.768.177c.445.103.777.262.995.476.218.214.327.492.327.835 0 .29-.083.549-.251.776a1.657 1.657 0 01-.696.529c-.296.128-.64.192-1.03.192-.542 0-.983-.116-1.326-.346a1.471 1.471 0 01-.63-.993l.91-.139a.873.873 0 00.35.539c.176.12.406.179.69.179.308 0 .555-.063.74-.192.184-.13.277-.289.277-.476a.496.496 0 00-.17-.381c-.111-.103-.283-.18-.514-.233l-.818-.18c-.451-.103-.786-.267-1.002-.491-.214-.226-.321-.51-.321-.855 0-.285.079-.536.239-.75.16-.214.38-.381.662-.501.281-.122.603-.183.967-.183.522 0 .933.113 1.234.34.3.226.499.527.595.905zm5.54-1.182v.757h-2.642v-.757h2.642zm-1.934-1.16h.942v4.58c0 .183.027.321.082.413.054.09.125.152.21.186a.839.839 0 00.287.047c.076 0 .142-.005.198-.015l.133-.026.17.778a1.854 1.854 0 01-.611.101 1.65 1.65 0 01-.693-.132 1.184 1.184 0 01-.519-.428c-.133-.194-.199-.436-.199-.729v-4.775zm2.878 6.002v-4.842h.942v4.842h-.942zm.475-5.589a.6.6 0 01-.422-.164.533.533 0 01-.173-.397c0-.155.058-.288.173-.397a.594.594 0 01.422-.167c.164 0 .304.056.419.167a.522.522 0 01.177.397.526.526 0 01-.177.397.588.588 0 01-.419.164zm2.577-.867v6.456h-.942v-6.456h.942zm2.111 0v6.456h-.941v-6.456h.941zm4.467 6.456l-1.423-4.842h.973l.948 3.555h.047l.951-3.555h.973l.945 3.54h.047l.942-3.54h.973l-1.42 4.842h-.961l-.982-3.496h-.073l-.982 3.496h-.958zm8.109.097c-.476 0-.886-.102-1.231-.305a2.08 2.08 0 01-.793-.867c-.185-.374-.277-.813-.277-1.315 0-.495.092-.933.277-1.311.187-.378.447-.673.781-.885.336-.213.728-.319 1.177-.319.273 0 .538.045.794.136.256.09.486.232.69.425.203.194.364.444.481.753.118.307.177.68.177 1.119v.334h-3.845v-.705h2.922c0-.248-.05-.468-.151-.659a1.142 1.142 0 00-1.061-.624 1.23 1.23 0 00-.693.195 1.315 1.315 0 00-.454.505 1.463 1.463 0 00-.157.671v.551c0 .324.056.599.17.826.115.227.276.4.482.52.205.118.446.176.721.176.178 0 .341-.024.488-.075a1.016 1.016 0 00.627-.615l.891.161a1.603 1.603 0 01-.384.69 1.857 1.857 0 01-.69.457 2.559 2.559 0 01-.942.161zm5.273-.097v-4.842h.904v.788h.059a1.25 1.25 0 01.495-.624c.228-.151.503-.227.822-.227.323 0 .593.076.812.227.22.152.383.36.488.624h.05c.116-.258.3-.464.551-.618a1.69 1.69 0 01.901-.233c.439 0 .797.138 1.074.413.28.275.419.69.419 1.245v3.247h-.941v-3.159c0-.327-.09-.565-.268-.712a.976.976 0 00-.64-.22c-.306 0-.545.094-.714.283-.17.187-.256.428-.256.722v3.086h-.938v-3.218c0-.263-.082-.475-.246-.634-.164-.16-.376-.239-.639-.239a.924.924 0 00-.495.141 1.06 1.06 0 00-.362.388 1.19 1.19 0 00-.135.577v2.985h-.941zm9.147.107c-.306 0-.584-.057-.831-.171a1.398 1.398 0 01-.589-.5c-.143-.219-.215-.487-.215-.804 0-.274.053-.498.158-.675.105-.176.247-.316.426-.419.177-.103.377-.181.598-.233.22-.053.445-.093.674-.12l.705-.082c.18-.023.312-.06.394-.111.082-.05.123-.132.123-.245v-.022c0-.276-.078-.489-.234-.64-.153-.152-.381-.227-.686-.227-.317 0-.567.07-.75.211-.18.139-.305.293-.374.464l-.886-.202c.106-.294.259-.532.461-.713.203-.183.437-.315.702-.397.264-.084.542-.126.834-.126.193 0 .398.023.615.07.218.043.421.126.61.245.192.12.348.292.47.514.121.221.182.508.182.86v3.216h-.919v-.663h-.038a1.344 1.344 0 01-.274.36 1.473 1.473 0 01-.469.293c-.191.078-.42.117-.687.117zm.205-.757c.26 0 .483-.052.667-.154a1.058 1.058 0 00.574-.943v-.624a.497.497 0 01-.196.095 3.07 3.07 0 01-.324.072 40.1 40.1 0 01-.356.054l-.29.038a2.365 2.365 0 00-.5.116.862.862 0 00-.359.237.592.592 0 00-.133.403c0 .233.086.41.259.53.172.117.391.176.658.176zm4.205-.993l-.006-1.15h.163l1.928-2.049h1.127l-2.198 2.333h-.148l-.866.866zm-.866 1.643v-6.456h.942v6.456h-.942zm3.054 0l-1.732-2.301.649-.659 2.239 2.96h-1.156zm3.67.097c-.476 0-.887-.102-1.231-.305a2.083 2.083 0 01-.794-.867c-.185-.374-.277-.813-.277-1.315 0-.495.092-.933.277-1.311.187-.378.448-.673.781-.885.336-.213.729-.319 1.178-.319.273 0 .537.045.794.136.256.09.485.232.689.425.204.194.365.444.482.753.118.307.176.68.176 1.119v.334h-3.845v-.705h2.923c0-.248-.05-.468-.151-.659a1.149 1.149 0 00-.425-.457 1.193 1.193 0 00-.637-.167c-.264 0-.495.065-.692.195a1.307 1.307 0 00-.454.505 1.45 1.45 0 00-.157.671v.551c0 .324.056.599.17.826.115.227.276.4.482.52.205.118.446.176.721.176.178 0 .341-.024.488-.075a1.016 1.016 0 00.627-.615l.89.161c-.07.263-.198.493-.384.69a1.845 1.845 0 01-.689.457 2.563 2.563 0 01-.942.161zm6.68.01a1.96 1.96 0 01-.831-.171 1.392 1.392 0 01-.589-.5c-.143-.219-.214-.487-.214-.804 0-.274.052-.498.157-.675a1.17 1.17 0 01.425-.419 2.21 2.21 0 01.598-.233c.221-.053.445-.093.674-.12l.706-.082c.18-.023.311-.06.393-.111.082-.05.123-.132.123-.245v-.022c0-.276-.077-.489-.233-.64-.153-.152-.382-.227-.686-.227-.317 0-.567.07-.75.211-.18.139-.306.293-.375.464l-.884-.202c.104-.294.258-.532.459-.713.204-.183.438-.315.702-.397a2.745 2.745 0 011.449-.056c.219.043.422.126.611.245.191.12.347.292.469.514.122.221.183.508.183.86v3.216h-.92v-.663h-.037a1.365 1.365 0 01-.274.36 1.467 1.467 0 01-.47.293 1.81 1.81 0 01-.686.117zm.205-.757c.26 0 .482-.052.667-.154.187-.103.329-.238.425-.403.099-.169.148-.348.148-.54v-.624a.491.491 0 01-.195.095 3.07 3.07 0 01-.324.072 46.58 46.58 0 01-.356.054l-.29.038a2.365 2.365 0 00-.5.116.866.866 0 00-.36.237.591.591 0 00-.132.403c0 .233.086.41.258.53.173.117.392.176.659.176zm5.149.744c-.39 0-.739-.1-1.045-.3a2.035 2.035 0 01-.718-.86c-.172-.374-.259-.823-.259-1.346 0-.523.088-.971.262-1.342.176-.372.418-.657.724-.854a1.88 1.88 0 011.043-.297c.3 0 .541.051.724.151.185.099.327.215.428.347.103.132.183.249.24.35h.056v-2.399h.942v6.456h-.92v-.754h-.078a2.508 2.508 0 01-.246.353c-.105.133-.25.248-.434.347-.186.099-.425.148-.719.148zm.208-.804c.271 0 .5-.071.687-.214a1.33 1.33 0 00.428-.602c.099-.256.148-.555.148-.895 0-.336-.049-.63-.145-.883a1.286 1.286 0 00-.425-.589 1.118 1.118 0 00-.693-.211c-.283 0-.519.073-.708.221a1.35 1.35 0 00-.429.601 2.472 2.472 0 00-.142.861c0 .323.049.614.146.873.096.259.239.463.428.615.191.149.426.223.705.223zm3.435-4.132h.942v5.157c0 .323-.059.597-.177.819a1.148 1.148 0 01-.516.508c-.226.115-.507.173-.841.173h-.094l-.098-.003v-.81h.151c.223 0 .383-.06.482-.18.101-.118.151-.289.151-.514v-5.15zm.467-.747a.6.6 0 01-.423-.164.533.533 0 01-.173-.397c0-.155.058-.288.173-.397a.595.595 0 01.423-.167c.163 0 .303.056.418.167a.525.525 0 01.177.397.53.53 0 01-.177.397.587.587 0 01-.418.164zm4.709 3.581v-2.834h.944v4.842h-.926v-.839h-.05c-.111.258-.29.474-.535.646-.244.171-.548.255-.911.255-.311 0-.585-.068-.825-.204a1.44 1.44 0 01-.56-.615c-.135-.271-.202-.606-.202-1.005v-3.08h.942v2.966c0 .33.091.593.274.788.182.196.42.293.711.293a1.154 1.154 0 00.964-.532c.118-.179.175-.406.174-.681zm5.737-1.652l-.854.152a1.01 1.01 0 00-.17-.313.825.825 0 00-.309-.242 1.114 1.114 0 00-.488-.095c-.267 0-.489.06-.667.18-.179.117-.268.27-.268.457 0 .162.06.292.179.391.12.099.313.179.58.242l.768.177c.445.103.777.262.995.476.219.214.328.492.328.835 0 .29-.084.549-.252.776a1.657 1.657 0 01-.696.529c-.296.128-.64.192-1.03.192-.541 0-.984-.116-1.326-.346a1.471 1.471 0 01-.63-.993l.91-.139a.877.877 0 00.35.539c.176.12.406.179.69.179.308 0 .555-.063.74-.192.185-.13.277-.289.277-.476a.496.496 0 00-.17-.381c-.111-.103-.283-.18-.513-.233l-.819-.18c-.452-.103-.785-.267-1.001-.491-.215-.226-.322-.51-.322-.855 0-.285.08-.536.24-.75.159-.214.379-.381.661-.501.281-.122.603-.183.966-.183.524 0 .935.113 1.235.34.3.226.499.527.596.905zm3.29-1.182v.757h-2.642v-.757h2.642zm-1.934-1.16h.942v4.58c0 .183.027.321.082.413.054.09.124.152.21.186a.835.835 0 00.287.047c.076 0 .142-.005.198-.015l.133-.026.17.778a1.836 1.836 0 01-.611.101 1.65 1.65 0 01-.693-.132 1.192 1.192 0 01-.52-.428c-.132-.194-.198-.436-.198-.729v-4.775zm2.878 6.002v-4.842h.904v.788h.059a1.25 1.25 0 01.495-.624 1.46 1.46 0 01.822-.227c.323 0 .594.076.812.227.22.152.383.36.488.624h.051c.115-.258.299-.464.55-.618a1.69 1.69 0 01.901-.233c.439 0 .797.138 1.074.413.28.275.419.69.419 1.245v3.247h-.941v-3.159c0-.327-.09-.565-.268-.712a.976.976 0 00-.64-.22c-.306 0-.544.094-.714.283-.17.187-.256.428-.256.722v3.086h-.938v-3.218c0-.263-.082-.475-.246-.634-.163-.16-.376-.239-.639-.239a.918.918 0 00-.494.141c-.149.093-.27.222-.362.388a1.18 1.18 0 00-.136.577v2.985h-.941zm9.824.097c-.476 0-.886-.102-1.231-.305a2.074 2.074 0 01-.793-.867c-.185-.374-.277-.813-.277-1.315 0-.495.092-.933.277-1.311.186-.378.446-.673.781-.885.336-.213.728-.319 1.177-.319.273 0 .538.045.794.136.256.09.486.232.69.425.203.194.364.444.481.753.118.307.177.68.177 1.119v.334h-3.845v-.705h2.922c0-.248-.05-.468-.151-.659a1.149 1.149 0 00-.425-.457 1.192 1.192 0 00-.636-.167 1.23 1.23 0 00-.693.195 1.315 1.315 0 00-.454.505 1.45 1.45 0 00-.157.671v.551c0 .324.056.599.17.826.115.227.276.4.482.52.205.118.446.176.721.176.178 0 .341-.024.488-.075a1.002 1.002 0 00.626-.615l.892.161a1.603 1.603 0 01-.384.69 1.857 1.857 0 01-.69.457 2.563 2.563 0 01-.942.161zm3.964-2.972v2.875h-.941v-4.842h.904v.788h.06c.111-.256.285-.462.522-.618.24-.155.541-.233.904-.233.33 0 .618.07.866.208.248.137.44.34.576.612.137.271.205.606.205 1.005v3.08h-.942v-2.966c0-.352-.091-.626-.274-.823-.182-.2-.433-.3-.752-.3-.219 0-.413.048-.583.142a1.023 1.023 0 00-.4.416c-.096.181-.145.4-.145.656zm6.52-1.967v.757h-2.643v-.757h2.643zm-1.934-1.16h.942v4.58c0 .183.027.321.082.413.054.09.124.152.21.186a.835.835 0 00.287.047c.076 0 .142-.005.198-.015l.133-.026.17.778a1.839 1.839 0 01-.612.101 1.65 1.65 0 01-.692-.132 1.192 1.192 0 01-.52-.428c-.132-.194-.198-.436-.198-.729v-4.775zm6.424 2.342l-.853.152a1.01 1.01 0 00-.17-.313.833.833 0 00-.309-.242 1.117 1.117 0 00-.488-.095c-.267 0-.489.06-.668.18-.178.117-.268.27-.268.457 0 .162.06.292.18.391.12.099.313.179.58.242l.768.177c.445.103.777.262.995.476.218.214.327.492.327.835 0 .29-.083.549-.251.776a1.657 1.657 0 01-.696.529 2.575 2.575 0 01-1.03.192c-.542 0-.983-.116-1.326-.346a1.471 1.471 0 01-.63-.993l.911-.139a.867.867 0 00.349.539c.177.12.407.179.69.179.309 0 .555-.063.74-.192.184-.13.277-.289.277-.476a.496.496 0 00-.17-.381c-.111-.103-.282-.18-.514-.233l-.818-.18c-.451-.103-.786-.267-1.002-.491-.214-.226-.321-.51-.321-.855 0-.285.08-.536.239-.75.16-.214.38-.381.662-.501a2.41 2.41 0 01.967-.183c.522 0 .934.113 1.234.34.3.226.499.527.595.905zm-128.46 17.08c-.306 0-.583-.056-.831-.17a1.393 1.393 0 01-.589-.501c-.143-.218-.214-.486-.214-.804 0-.273.052-.498.157-.674a1.18 1.18 0 01.425-.42c.179-.102.378-.18.599-.233.221-.052.445-.092.674-.119l.706-.082c.18-.024.311-.06.393-.111.082-.05.123-.132.123-.246v-.022c0-.275-.078-.488-.233-.639-.154-.152-.383-.227-.687-.227-.317 0-.566.07-.749.211a1.12 1.12 0 00-.375.463l-.885-.202c.105-.294.258-.531.46-.712a1.86 1.86 0 01.702-.397 2.74 2.74 0 01.835-.126c.193 0 .397.023.613.069.219.044.423.126.612.246.19.12.347.291.469.514.122.221.183.507.183.86v3.215h-.92v-.662h-.038a1.325 1.325 0 01-.274.359 1.447 1.447 0 01-.469.294c-.191.078-.42.116-.687.116zm.205-.756c.26 0 .483-.052.668-.154a1.09 1.09 0 00.425-.404c.099-.168.148-.348.148-.539v-.624a.486.486 0 01-.195.094 2.925 2.925 0 01-.324.073l-.357.054a14.17 14.17 0 00-.289.038 2.3 2.3 0 00-.501.116.87.87 0 00-.359.236.594.594 0 00-.132.404c0 .233.086.41.258.529.172.118.391.177.658.177zm4.281-2.225v2.874h-.942v-4.841h.904v.788h.06c.111-.256.285-.463.522-.618.24-.155.541-.233.904-.233.33 0 .619.069.867.208.247.136.439.34.575.611.137.272.206.607.206 1.006v3.079h-.942v-2.966c0-.351-.092-.625-.274-.822-.183-.2-.434-.3-.753-.3-.218 0-.413.048-.583.142a1.008 1.008 0 00-.399.416 1.37 1.37 0 00-.145.656zm6.071 2.969c-.39 0-.739-.1-1.045-.3a2.035 2.035 0 01-.718-.86c-.172-.374-.259-.823-.259-1.346 0-.523.088-.971.262-1.343.176-.372.418-.656.724-.854a1.888 1.888 0 011.043-.296c.3 0 .541.05.724.151.185.099.327.215.428.347.103.132.183.249.24.35h.056v-2.399h.942v6.455h-.92v-.753h-.078c-.057.103-.139.22-.246.353a1.38 1.38 0 01-.434.347c-.185.098-.424.148-.719.148zm.208-.804c.271 0 .5-.072.687-.214a1.33 1.33 0 00.428-.602c.099-.256.148-.555.148-.895a2.45 2.45 0 00-.145-.883 1.286 1.286 0 00-.425-.589 1.118 1.118 0 00-.693-.212c-.283 0-.519.074-.708.221a1.354 1.354 0 00-.429.602 2.468 2.468 0 00-.142.861c0 .323.049.614.146.873.096.258.239.463.428.614.191.15.426.224.705.224zm7.092.816c-.306 0-.583-.056-.831-.17a1.393 1.393 0 01-.589-.501c-.143-.218-.214-.486-.214-.804 0-.273.053-.498.157-.674a1.18 1.18 0 01.425-.42c.179-.102.378-.18.599-.233.22-.052.445-.092.674-.119l.705-.082c.181-.024.312-.06.394-.111.082-.05.123-.132.123-.246v-.022c0-.275-.078-.488-.233-.639-.154-.152-.383-.227-.687-.227-.317 0-.567.07-.749.211a1.12 1.12 0 00-.375.463l-.885-.202c.105-.294.258-.531.46-.712.203-.183.437-.315.702-.397.265-.084.543-.126.834-.126.194 0 .398.023.614.069.219.044.423.126.612.246.19.12.347.291.469.514.122.221.183.507.183.86v3.215h-.92v-.662h-.038a1.325 1.325 0 01-.274.359 1.457 1.457 0 01-.469.294c-.191.078-.42.116-.687.116zm.205-.756c.26 0 .483-.052.668-.154.187-.104.329-.238.425-.404.099-.168.148-.348.148-.539v-.624a.486.486 0 01-.195.094 2.895 2.895 0 01-.325.073l-.356.054a14.17 14.17 0 00-.289.038 2.3 2.3 0 00-.501.116.87.87 0 00-.359.236.594.594 0 00-.132.404c0 .233.086.41.258.529.172.118.391.177.658.177zm6.403-1.359v-2.833h.945v4.841h-.926v-.838h-.05c-.112.258-.29.473-.536.646-.243.17-.547.255-.91.255-.31 0-.586-.068-.825-.205a1.431 1.431 0 01-.56-.614c-.135-.272-.202-.607-.202-1.005v-3.08h.941v2.966c0 .33.092.592.275.788a.929.929 0 00.712.293c.176 0 .351-.044.526-.133a1.1 1.1 0 00.437-.4c.118-.178.176-.405.173-.681zm4.371-2.833v.756h-2.643v-.756h2.643zm-1.934-1.16h.942v4.58c0 .183.027.32.082.412a.422.422 0 00.211.187.854.854 0 00.286.047c.076 0 .142-.006.199-.016l.132-.025.17.778a1.625 1.625 0 01-.233.063 1.778 1.778 0 01-.378.038 1.65 1.65 0 01-.693-.132 1.201 1.201 0 01-.52-.429c-.132-.193-.198-.436-.198-.728v-4.775zm4.863 6.099c-.453 0-.849-.104-1.187-.312a2.097 2.097 0 01-.787-.873c-.187-.374-.281-.811-.281-1.311 0-.503.094-.942.281-1.318.186-.376.449-.668.787-.876.338-.208.734-.312 1.187-.312.454 0 .85.104 1.188.312.338.208.6.5.787.876.187.376.28.815.28 1.318 0 .5-.093.937-.28 1.311a2.104 2.104 0 01-.787.873c-.338.208-.734.312-1.188.312zm.003-.791c.295 0 .538-.078.731-.234.193-.155.336-.362.428-.62.095-.259.142-.543.142-.855 0-.309-.047-.592-.142-.851a1.389 1.389 0 00-.428-.627c-.193-.158-.436-.236-.731-.236-.296 0-.541.078-.736.236a1.411 1.411 0 00-.432.627 2.523 2.523 0 00-.139.851c0 .312.047.596.139.855.095.258.238.465.432.62.195.156.44.234.736.234zm7.713-4.148v.756h-2.642v-.756h2.642zm-1.934-1.16h.942v4.58c0 .183.027.32.082.412a.43.43 0 00.211.187.854.854 0 00.286.047c.076 0 .142-.006.199-.016l.132-.025.17.778a1.554 1.554 0 01-.233.063 1.778 1.778 0 01-.378.038 1.654 1.654 0 01-.693-.132 1.193 1.193 0 01-.519-.429c-.133-.193-.199-.436-.199-.728v-4.775zm5.942 3.993v-2.833h.945v4.841h-.926v-.838h-.05c-.111.258-.29.473-.536.646-.243.17-.546.255-.91.255-.31 0-.586-.068-.825-.205a1.44 1.44 0 01-.561-.614c-.134-.272-.201-.607-.201-1.005v-3.08h.942v2.966c0 .33.091.592.274.788a.928.928 0 00.711.293c.177 0 .352-.044.526-.133.177-.088.322-.221.438-.4.118-.178.175-.405.173-.681zm3.054-.866v2.874h-.942v-4.841h.904v.788h.06a1.39 1.39 0 01.523-.618c.239-.155.54-.233.904-.233.329 0 .618.069.866.208.247.136.44.34.576.611.136.272.205.607.205 1.006v3.079h-.942v-2.966c0-.351-.091-.625-.274-.822-.182-.2-.433-.3-.753-.3-.218 0-.412.048-.582.142a1.017 1.017 0 00-.4.416 1.37 1.37 0 00-.145.656zm6.346 2.972c-.477 0-.887-.102-1.231-.306a2.065 2.065 0 01-.794-.867c-.185-.374-.277-.812-.277-1.314 0-.496.092-.933.277-1.311.187-.379.447-.674.781-.886.336-.212.728-.318 1.178-.318.273 0 .537.045.794.135.256.091.486.233.689.426.203.193.364.444.482.753.117.307.176.68.176 1.119v.334h-3.845v-.706h2.923c0-.248-.051-.467-.152-.659a1.148 1.148 0 00-1.061-.624c-.264 0-.496.066-.693.196a1.31 1.31 0 00-.453.504c-.105.206-.158.43-.158.672v.551c0 .323.057.599.17.826.116.227.276.4.482.52.206.117.446.176.721.176a1.5 1.5 0 00.488-.075 1.004 1.004 0 00.627-.615l.892.161c-.072.262-.2.493-.385.69a1.853 1.853 0 01-.69.457 2.574 2.574 0 01-.941.161zm5.867 1.717a1.966 1.966 0 01-.642-.103l.226-.772c.172.046.326.066.46.059a.546.546 0 00.356-.151c.105-.094.197-.249.277-.463l.116-.322-1.769-4.904h1.007l1.226 3.757h.05l1.225-3.757h1.011l-1.994 5.487c-.092.253-.21.466-.352.64a1.361 1.361 0 01-.511.397 1.653 1.653 0 01-.686.132zm6.203-1.717c-.454 0-.849-.104-1.187-.312a2.097 2.097 0 01-.787-.873c-.187-.374-.281-.811-.281-1.311 0-.503.094-.942.281-1.318.186-.376.449-.668.787-.876.338-.208.733-.312 1.187-.312.454 0 .85.104 1.188.312.337.208.6.5.787.876.186.376.28.815.28 1.318 0 .5-.094.937-.28 1.311a2.11 2.11 0 01-.787.873c-.338.208-.734.312-1.188.312zm.003-.791c.295 0 .538-.078.731-.234.193-.155.336-.362.428-.62.095-.259.142-.543.142-.855 0-.309-.047-.592-.142-.851a1.389 1.389 0 00-.428-.627c-.193-.158-.436-.236-.731-.236-.296 0-.541.078-.736.236a1.411 1.411 0 00-.432.627 2.523 2.523 0 00-.139.851c0 .312.047.596.139.855.095.258.238.465.432.62.195.156.44.234.736.234zm6.269-1.315v-2.833h.945v4.841h-.925v-.838h-.051c-.111.258-.29.473-.535.646-.244.17-.547.255-.91.255-.311 0-.586-.068-.825-.205a1.433 1.433 0 01-.561-.614c-.134-.272-.202-.607-.202-1.005v-3.08h.942v2.966c0 .33.092.592.274.788.183.195.42.293.712.293.176 0 .352-.044.526-.133a1.1 1.1 0 00.437-.4c.118-.178.176-.405.173-.681zm2.113 2.008v-4.841h.91v.769h.051a1.17 1.17 0 01.466-.615c.224-.151.478-.226.762-.226a3.268 3.268 0 01.4.021v.902a1.88 1.88 0 00-.202-.035 1.884 1.884 0 00-.289-.022c-.223 0-.422.047-.596.142a1.052 1.052 0 00-.56.949v2.956h-.942zm9.694-4.841l-1.755 4.841h-1.007l-1.758-4.841h1.011l1.225 3.725h.051l1.222-3.725h1.011zm2.66 4.939c-.454 0-.85-.104-1.188-.312a2.11 2.11 0 01-.787-.873c-.187-.374-.28-.811-.28-1.311 0-.503.093-.942.28-1.318.187-.376.45-.668.787-.876.338-.208.734-.312 1.188-.312.453 0 .849.104 1.187.312.338.208.601.5.787.876.187.376.281.815.281 1.318 0 .5-.094.937-.281 1.311a2.097 2.097 0 01-.787.873c-.338.208-.734.312-1.187.312zm.003-.791c.294 0 .537-.078.73-.234.194-.155.336-.362.429-.62.094-.259.142-.543.142-.855 0-.309-.048-.592-.142-.851a1.39 1.39 0 00-.429-.627c-.193-.158-.436-.236-.73-.236-.296 0-.542.078-.737.236a1.41 1.41 0 00-.431.627 2.499 2.499 0 00-.139.851c0 .312.046.596.139.855.094.258.238.465.431.62.195.156.441.234.737.234zm3.205.693v-4.841h.942v4.841h-.942zm.476-5.588a.598.598 0 01-.422-.164.532.532 0 01-.174-.397c0-.156.058-.288.174-.397a.589.589 0 01.422-.168c.163 0 .303.056.419.168a.522.522 0 01.176.397.53.53 0 01-.176.397.591.591 0 01-.419.164zm3.672 5.686c-.468 0-.871-.106-1.209-.318a2.107 2.107 0 01-.774-.886 2.944 2.944 0 01-.271-1.292c0-.492.092-.926.277-1.302a2.12 2.12 0 01.781-.886c.335-.212.731-.318 1.187-.318.367 0 .695.068.982.205a1.722 1.722 0 011.015 1.421h-.917a1.099 1.099 0 00-.346-.586c-.179-.164-.418-.246-.718-.246-.263 0-.492.07-.69.208a1.34 1.34 0 00-.456.586c-.11.253-.164.551-.164.896 0 .352.053.657.16.914.107.256.259.455.454.595.197.141.429.211.696.211.178 0 .34-.032.485-.097a.981.981 0 00.368-.287c.101-.124.171-.273.211-.448h.917a1.788 1.788 0 01-.306.839c-.17.246-.398.439-.683.58a2.218 2.218 0 01-.999.211zm4.982 0c-.477 0-.887-.102-1.232-.306a2.062 2.062 0 01-.793-.867c-.185-.374-.277-.812-.277-1.314 0-.496.092-.933.277-1.311a2.14 2.14 0 01.781-.886 2.158 2.158 0 011.177-.318c.274 0 .538.045.794.135.256.091.486.233.69.426.204.193.364.444.482.753.117.307.176.68.176 1.119v.334h-3.845v-.706h2.922c0-.248-.05-.467-.151-.659a1.141 1.141 0 00-.425-.457 1.19 1.19 0 00-.636-.167c-.264 0-.495.066-.693.196a1.31 1.31 0 00-.453.504c-.105.206-.158.43-.158.672v.551c0 .323.057.599.17.826.116.227.276.4.482.52.206.117.446.176.721.176.179 0 .341-.025.489-.075a1.016 1.016 0 00.626-.615l.891.161a1.609 1.609 0 01-.384.69 1.865 1.865 0 01-.689.457c-.276.107-.59.161-.942.161zm3.642-.038a.61.61 0 01-.443-.183.608.608 0 01-.186-.447c0-.172.062-.32.186-.441a.602.602 0 01.443-.186.6.6 0 01.444.186.592.592 0 01.187.441c0 .116-.03.221-.088.318a.666.666 0 01-.227.227.61.61 0 01-.316.085zm2.415 0a.612.612 0 01-.445-.183.61.61 0 01-.185-.447c0-.172.062-.32.185-.441a.603.603 0 01.445-.186c.172 0 .32.061.444.186a.598.598 0 01.185.441.647.647 0 01-.314.545.61.61 0 01-.315.085zm2.414 0a.608.608 0 01-.444-.183.608.608 0 01-.186-.447c0-.172.062-.32.186-.441a.6.6 0 01.444-.186c.171 0 .32.061.444.186a.598.598 0 01.185.441.641.641 0 01-.315.545.603.603 0 01-.314.085zM338.476 265.716c-.084-.745-.43-1.324-1.039-1.733-.609-.415-1.376-.623-2.299-.623-.662 0-1.234.106-1.717.316-.482.204-.858.488-1.125.851a2.005 2.005 0 00-.394 1.221c0 .384.089.714.268.993.183.278.422.512.716.701.299.184.62.339.961.465.341.121.669.221.984.299l1.575.41c.514.126 1.041.297 1.582.512.54.215 1.041.5 1.504.851.461.352.834.788 1.118 1.308.288.521.433 1.143.433 1.868 0 .914-.237 1.725-.709 2.435-.467.709-1.147 1.269-2.039 1.678-.887.41-1.96.615-3.22.615-1.207 0-2.252-.192-3.133-.576-.882-.383-1.573-.927-2.071-1.631-.499-.709-.774-1.55-.827-2.521h2.441c.047.583.236 1.069.566 1.457.336.384.764.671 1.284.86.525.183 1.1.275 1.724.275.688 0 1.299-.107 1.834-.323.541-.22.966-.525 1.276-.914.31-.394.464-.853.464-1.379 0-.478-.136-.869-.409-1.174-.268-.305-.632-.557-1.095-.756-.456-.2-.973-.376-1.55-.528l-1.905-.52c-1.292-.352-2.315-.87-3.071-1.553-.75-.683-1.126-1.586-1.126-2.71 0-.93.252-1.742.756-2.435.504-.693 1.186-1.232 2.047-1.615.86-.389 1.832-.583 2.913-.583 1.092 0 2.055.191 2.889.575.84.383 1.501.911 1.984 1.584.483.666.735 1.434.756 2.3h-2.346zm8.316 12.167c-.766 0-1.459-.142-2.078-.426a3.501 3.501 0 01-1.473-1.253c-.357-.546-.535-1.216-.535-2.009 0-.683.131-1.245.394-1.686a2.893 2.893 0 011.062-1.048 5.599 5.599 0 011.496-.584c.551-.131 1.113-.23 1.685-.299l1.764-.205c.451-.058.779-.15.984-.276.205-.126.307-.33.307-.614v-.055c0-.689-.194-1.222-.583-1.6-.383-.378-.955-.567-1.716-.567-.792 0-1.417.176-1.874.528-.451.346-.763.732-.936 1.158l-2.213-.504c.263-.735.646-1.33 1.15-1.781a4.651 4.651 0 011.756-.993 6.847 6.847 0 012.086-.315c.483 0 .994.058 1.535.173.545.11 1.055.316 1.527.615.478.299.869.727 1.173 1.284.305.552.457 1.269.457 2.152v8.037h-2.299v-1.655h-.095c-.152.305-.38.604-.684.899-.305.294-.696.538-1.174.732-.477.194-1.049.292-1.716.292zm.512-1.892c.651 0 1.207-.128 1.669-.386a2.703 2.703 0 001.063-1.008c.247-.421.37-.869.37-1.348v-1.56c-.084.084-.247.163-.488.237a7.546 7.546 0 01-.811.181c-.305.047-.601.092-.89.134l-.724.094a5.877 5.877 0 00-1.252.292 2.13 2.13 0 00-.897.591c-.221.252-.331.588-.331 1.008 0 .584.215 1.025.645 1.324.431.294.979.441 1.646.441zm9.159 6.162c-.352 0-.672-.028-.961-.086a2.99 2.99 0 01-.646-.174l.567-1.93c.431.116.814.166 1.15.15.336-.016.632-.142.889-.379.263-.236.494-.622.693-1.158l.292-.804-4.425-12.261h2.519l3.063 9.393h.126l3.062-9.393h2.528l-4.984 13.719c-.231.631-.525 1.164-.882 1.6a3.433 3.433 0 01-1.275.993c-.494.22-1.066.33-1.716.33zm25.023-13.687l-2.134.379a2.536 2.536 0 00-.425-.781 2.092 2.092 0 00-.772-.606c-.325-.158-.732-.236-1.22-.236-.667 0-1.223.149-1.669.448-.446.295-.669.676-.669 1.143 0 .405.149.73.449.977.298.247.782.449 1.448.607l1.921.441c1.113.257 1.942.654 2.488 1.19.546.536.819 1.232.819 2.088 0 .725-.21 1.371-.63 1.939-.414.562-.995 1.003-1.74 1.323-.74.321-1.598.481-2.574.481-1.355 0-2.459-.289-3.315-.867-.855-.583-1.38-1.41-1.574-2.482l2.275-.346c.141.593.433 1.043.873 1.347.442.3 1.016.449 1.725.449.771 0 1.388-.16 1.85-.481.462-.325.693-.722.693-1.189 0-.379-.142-.697-.425-.954-.279-.257-.706-.452-1.284-.583l-2.046-.449c-1.129-.258-1.964-.667-2.504-1.229-.535-.563-.803-1.274-.803-2.136 0-.714.199-1.34.598-1.875.399-.536.95-.954 1.653-1.253.704-.305 1.509-.457 2.417-.457 1.307 0 2.336.283 3.086.851.751.562 1.247 1.316 1.489 2.261zm7.43 9.393c-1.133 0-2.123-.26-2.968-.78-.845-.52-1.501-1.248-1.968-2.183-.467-.935-.701-2.028-.701-3.278 0-1.255.234-2.353.701-3.294.467-.94 1.123-1.67 1.968-2.19s1.835-.78 2.968-.78c1.134 0 2.123.26 2.968.78.845.52 1.502 1.25 1.968 2.19.468.941.701 2.039.701 3.294 0 1.25-.233 2.343-.701 3.278-.466.935-1.123 1.663-1.968 2.183-.845.52-1.834.78-2.968.78zm.008-1.978c.735 0 1.344-.194 1.827-.583.482-.389.839-.906 1.07-1.552a6.16 6.16 0 00.355-2.136c0-.772-.118-1.481-.355-2.127-.231-.652-.588-1.174-1.07-1.568-.483-.394-1.092-.591-1.827-.591-.74 0-1.354.197-1.842.591-.483.394-.842.916-1.079 1.568a6.277 6.277 0 00-.347 2.127c0 .778.116 1.49.347 2.136.237.646.596 1.163 1.079 1.552.488.389 1.102.583 1.842.583zm7.769 1.734v-12.104h2.26v1.97h.149a3.128 3.128 0 011.236-1.56c.572-.378 1.257-.567 2.055-.567.808 0 1.485.189 2.031.567.552.379.958.898 1.221 1.56h.125a3.42 3.42 0 011.378-1.544c.63-.389 1.381-.583 2.252-.583 1.097 0 1.992.344 2.685 1.032.698.688 1.047 1.726 1.047 3.113v8.116h-2.354v-7.896c0-.819-.223-1.413-.669-1.781-.447-.367-.979-.551-1.599-.551-.766 0-1.362.236-1.787.709-.425.468-.638 1.069-.638 1.804v7.715h-2.346v-8.045c0-.657-.204-1.185-.613-1.585-.41-.398-.943-.598-1.599-.598a2.29 2.29 0 00-1.236.354 2.626 2.626 0 00-.906.97c-.225.414-.338.895-.338 1.442v7.462h-2.354zm24.318.244c-1.191 0-2.218-.255-3.078-.764-.856-.515-1.517-1.237-1.984-2.167-.462-.935-.693-2.03-.693-3.286 0-1.24.231-2.332.693-3.278.467-.945 1.118-1.684 1.953-2.214.839-.531 1.821-.796 2.944-.796.682 0 1.343.113 1.984.339a4.81 4.81 0 011.724 1.063c.509.484.91 1.111 1.205 1.884.293.767.44 1.699.44 2.797v.836h-9.613v-1.766h7.307c0-.62-.126-1.169-.379-1.647a2.845 2.845 0 00-1.062-1.142c-.452-.278-.982-.418-1.591-.418-.661 0-1.238.163-1.732.489-.488.32-.866.741-1.133 1.26a3.651 3.651 0 00-.394 1.679v1.379c0 .809.142 1.497.425 2.064.289.568.69 1.001 1.205 1.301.514.294 1.115.441 1.803.441a3.74 3.74 0 001.22-.189 2.532 2.532 0 001.567-1.537l2.228.402a4.045 4.045 0 01-.961 1.726c-.457.488-1.031.869-1.724 1.142-.687.268-1.472.402-2.354.402zm12.957-12.348v1.891h-6.605v-1.891h6.605zm-4.833-2.899h2.354v11.449c0 .457.068.801.204 1.032.136.226.313.381.528.465.22.079.459.118.716.118.189 0 .355-.013.496-.039.142-.026.252-.047.331-.063l.425 1.946a3.937 3.937 0 01-.583.158 4.58 4.58 0 01-.945.094 4.138 4.138 0 01-1.732-.33 2.984 2.984 0 01-1.299-1.072c-.33-.483-.495-1.09-.495-1.82v-11.938zm9.563 7.817v7.186h-2.354v-16.138h2.323v6.004h.149a3.48 3.48 0 011.3-1.552c.582-.383 1.343-.575 2.283-.575.829 0 1.553.171 2.173.512.625.342 1.107.851 1.448 1.529.347.672.52 1.512.52 2.522v7.698h-2.354V270.2c0-.888-.228-1.576-.685-2.065-.457-.493-1.092-.74-1.905-.74-.556 0-1.055.118-1.496.354-.436.236-.78.583-1.031 1.04-.247.452-.371.999-.371 1.64zm10.496 7.186v-12.104h2.354v12.104h-2.354zm1.188-13.971c-.409 0-.761-.137-1.055-.41a1.333 1.333 0 01-.432-.993c0-.388.144-.719.432-.992a1.48 1.48 0 011.055-.418c.41 0 .759.139 1.048.418.293.273.44.604.44.992 0 .384-.147.715-.44.993a1.47 1.47 0 01-1.048.41zm6.199 6.785v7.186h-2.354v-12.104h2.259v1.97h.15a3.464 3.464 0 011.307-1.544c.598-.389 1.352-.583 2.26-.583.824 0 1.545.173 2.164.52.62.341 1.1.851 1.441 1.528.341.678.512 1.516.512 2.515v7.698h-2.354V270.2c0-.878-.228-1.563-.685-2.057-.457-.499-1.084-.748-1.882-.748-.546 0-1.031.118-1.456.354-.42.236-.753.583-1 1.04-.242.452-.362.999-.362 1.64zm15.478 11.977c-.96 0-1.787-.127-2.48-.378-.687-.253-1.249-.586-1.684-1.001a4.208 4.208 0 01-.977-1.363l2.024-.836c.141.232.33.476.567.733.241.263.567.486.976.67.415.184.947.275 1.598.275.892 0 1.63-.218 2.213-.654.582-.43.873-1.118.873-2.064v-2.38h-.149a5.345 5.345 0 01-.615.859c-.262.316-.624.589-1.086.82-.462.231-1.062.347-1.803.347-.955 0-1.816-.224-2.582-.67-.761-.452-1.365-1.116-1.811-1.994-.441-.882-.661-1.967-.661-3.254s.218-2.391.653-3.31c.441-.919 1.045-1.623 1.811-2.112.767-.493 1.635-.74 2.606-.74.751 0 1.357.126 1.819.378.461.247.821.536 1.078.867.263.331.465.623.607.874h.173v-1.962h2.306v12.372c0 1.04-.241 1.893-.724 2.561-.483.667-1.136 1.161-1.96 1.481-.819.321-1.743.481-2.772.481zm-.023-6.927c.677 0 1.249-.157 1.716-.472.473-.321.83-.778 1.071-1.372.246-.598.37-1.315.37-2.151 0-.814-.121-1.531-.362-2.151-.242-.62-.596-1.103-1.063-1.45-.467-.352-1.045-.528-1.732-.528-.709 0-1.299.184-1.771.552-.473.363-.83.856-1.071 1.481-.236.626-.354 1.324-.354 2.096 0 .793.12 1.49.361 2.088.242.599.599 1.067 1.071 1.403.478.336 1.066.504 1.764.504z" fill="#333"/><path d="M415.459 336.289l-2.227 2.228a11.013 11.013 0 00-13.916-1.373 11.032 11.032 0 00-4.06 13.393 11.016 11.016 0 0018.702 2.778 11.036 11.036 0 002.502-6.998h3.149a14.19 14.19 0 01-3.217 8.998 14.158 14.158 0 01-17.633 3.51 14.188 14.188 0 01-1.193-24.3 14.16 14.16 0 0117.893 1.764z" fill="#000"/></svg>