<svg width="807" height="590" fill="none" xmlns="http://www.w3.org/2000/svg"><path d="M803.674 48H3.326C1.489 48 0 49.673 0 51.738v534.524C0 588.326 1.489 590 3.326 590h800.348c1.837 0 3.326-1.674 3.326-3.738V51.738c0-2.065-1.489-3.738-3.326-3.738z" fill="#FFD233"/><path d="M803.674 0H3.326A3.327 3.327 0 000 3.328v41.445A3.327 3.327 0 003.326 48.1h800.348A3.327 3.327 0 00807 44.773V3.328A3.327 3.327 0 00803.674 0z" fill="#F8F8F8"/><path d="M5.497 28.846v-9.683h3.448c.753 0 1.377.138 1.871.412.494.274.864.65 1.11 1.125.246.473.369 1.006.369 1.598 0 .596-.125 1.132-.374 1.608a2.7 2.7 0 01-1.114 1.125c-.495.274-1.117.411-1.866.411H6.569v-1.239h2.24c.475 0 .86-.081 1.157-.245.296-.167.513-.394.652-.681.138-.287.207-.613.207-.979s-.069-.69-.207-.974a1.492 1.492 0 00-.657-.667c-.296-.16-.686-.24-1.171-.24H6.957v8.43h-1.46zm8.143 0v-7.262h1.365v1.154h.075a1.76 1.76 0 01.7-.922 2 2 0 011.143-.34 6.031 6.031 0 01.6.033v1.352a2.518 2.518 0 00-.303-.052 2.876 2.876 0 00-.434-.033c-.334 0-.632.07-.893.212a1.58 1.58 0 00-.84 1.424v4.434H13.64zm7.649.147c-.68 0-1.274-.156-1.781-.468a3.155 3.155 0 01-1.181-1.31c-.28-.561-.42-1.217-.42-1.967 0-.753.14-1.412.42-1.976a3.15 3.15 0 011.18-1.314c.508-.312 1.101-.468 1.782-.468.68 0 1.273.156 1.78.468.508.312.901.75 1.181 1.314.28.564.42 1.223.42 1.976 0 .75-.14 1.406-.42 1.967-.28.561-.673.998-1.18 1.31-.508.312-1.101.468-1.781.468zm.004-1.187c.441 0 .807-.117 1.096-.35a2.05 2.05 0 00.643-.931c.142-.388.212-.815.212-1.281 0-.464-.07-.89-.212-1.277a2.08 2.08 0 00-.643-.94c-.29-.237-.655-.355-1.096-.355-.444 0-.812.118-1.105.354-.29.237-.505.55-.647.941a3.768 3.768 0 00-.208 1.277c0 .466.07.893.208 1.28.142.389.357.699.647.932.293.233.661.35 1.105.35zm4.702-6.222h1.412v7.735c0 .485-.088.895-.264 1.23a1.725 1.725 0 01-.775.76c-.34.174-.76.26-1.261.26h-.142a2.31 2.31 0 01-.146-.004V30.35h.225c.334 0 .575-.09.723-.27.151-.176.227-.433.227-.77v-7.726zm.699-1.12a.897.897 0 01-.633-.246.8.8 0 01-.26-.596.79.79 0 01.26-.596.888.888 0 01.633-.25c.245 0 .455.083.628.25a.783.783 0 01.265.596c0 .23-.088.429-.265.596a.881.881 0 01-.628.246zm5.488 8.529c-.715 0-1.33-.153-1.847-.459a3.11 3.11 0 01-1.19-1.3c-.278-.561-.416-1.218-.416-1.972 0-.743.138-1.399.415-1.966a3.23 3.23 0 011.172-1.329c.504-.318 1.093-.477 1.767-.477.409 0 .806.067 1.19.203a2.87 2.87 0 011.034.638c.306.29.547.667.723 1.13.176.46.265 1.02.265 1.679v.5h-5.768v-1.058h4.384c0-.372-.076-.702-.227-.989a1.715 1.715 0 00-.638-.685 1.78 1.78 0 00-.954-.25c-.397 0-.743.097-1.04.293a1.973 1.973 0 00-.68.756 2.184 2.184 0 00-.236 1.007v.827c0 .486.085.899.255 1.24.174.34.415.6.723.78.309.176.67.264 1.082.264.268 0 .512-.038.732-.113.22-.08.411-.196.572-.35a1.52 1.52 0 00.368-.572l1.337.24c-.107.395-.3.74-.576 1.036a2.793 2.793 0 01-1.035.686c-.413.16-.883.24-1.412.24zm7.483 0c-.702 0-1.307-.16-1.814-.478a3.16 3.16 0 01-1.162-1.328c-.27-.565-.406-1.21-.406-1.939 0-.737.139-1.388.416-1.952a3.186 3.186 0 011.171-1.329c.504-.318 1.098-.477 1.781-.477.551 0 1.043.102 1.474.307.431.202.78.485 1.044.85.268.367.427.794.477 1.282h-1.375a1.65 1.65 0 00-.52-.88c-.267-.245-.626-.368-1.076-.368-.394 0-.739.104-1.035.312-.293.205-.52.498-.685.88-.163.378-.245.825-.245 1.342 0 .53.08.987.24 1.371.161.385.388.683.68.894a1.75 1.75 0 001.045.317c.268 0 .51-.05.727-.147.22-.1.405-.244.553-.43a1.62 1.62 0 00.316-.671h1.375c-.05.47-.203.888-.458 1.257a2.638 2.638 0 01-1.025.87c-.425.211-.924.317-1.498.317zm7.626-7.409v1.135h-3.963v-1.135h3.963zm-2.9-1.74h1.412v6.87c0 .274.04.48.123.62a.641.641 0 00.316.278c.132.048.276.071.43.071.113 0 .213-.008.297-.023l.199-.038.255 1.167a2.373 2.373 0 01-.35.095c-.15.035-.34.054-.566.057a2.486 2.486 0 01-1.04-.199 1.784 1.784 0 01-.78-.643c-.197-.29-.297-.654-.297-1.092v-7.163zm6.278 9.002l-2.768-9.683h2.235l1.6 6.728h.081l1.767-6.727h1.913l1.762 6.741h.085l1.602-6.742h2.234l-2.768 9.683h-1.994l-1.842-6.33H54.5l-1.837 6.33h-1.994zm11.315 0v-7.262h2.012v7.262h-2.012zm1.01-8.198c-.298 0-.555-.1-.769-.298a.965.965 0 01-.316-.723c0-.277.105-.515.316-.714.214-.202.47-.303.77-.303.3 0 .554.101.765.303a.94.94 0 01.321.714.96.96 0 01-.32.723 1.077 1.077 0 01-.766.298zm2.362 8.198v-7.262h1.95v1.267h.076c.132-.45.355-.79.666-1.021a1.75 1.75 0 011.077-.35 3.039 3.039 0 01.633.071v1.787a2.618 2.618 0 00-.392-.075 3.514 3.514 0 00-.458-.034c-.296 0-.56.065-.794.194a1.43 1.43 0 00-.548.53 1.528 1.528 0 00-.198.785v4.108h-2.012zm8.159.142c-.747 0-1.39-.151-1.927-.454a3.108 3.108 0 01-1.238-1.295c-.29-.561-.435-1.225-.435-1.99 0-.748.145-1.403.435-1.967a3.214 3.214 0 011.223-1.32c.53-.315 1.15-.472 1.861-.472.48 0 .925.077 1.337.231.416.152.778.38 1.087.686.312.306.554.69.727 1.153.173.46.26 1 .26 1.617v.553H70.72v-1.248h4.232c0-.29-.063-.546-.19-.77a1.354 1.354 0 00-.523-.525 1.495 1.495 0 00-.77-.194c-.306 0-.577.071-.813.213a1.492 1.492 0 00-.548.563 1.59 1.59 0 00-.203.78v1.186c0 .36.066.67.199.932.135.261.325.463.57.605.246.142.538.213.875.213.223 0 .428-.032.614-.095a1.23 1.23 0 00.78-.747l1.86.123a2.548 2.548 0 01-.58 1.172c-.29.331-.665.59-1.125.776-.457.183-.984.274-1.582.274z" fill="#333"/><path d="M761.9 30.51c4.078 0 7.384-2.856 7.384-6.38 0-3.522-3.306-6.378-7.384-6.378s-7.384 2.856-7.384 6.379c0 3.523 3.306 6.38 7.384 6.38z" fill="#4ECB71"/><path d="M780.362 30.51c4.078 0 7.384-2.856 7.384-6.38 0-3.522-3.306-6.378-7.384-6.378s-7.384 2.856-7.384 6.379c0 3.523 3.306 6.38 7.384 6.38z" fill="#FF9A62"/><path d="M743.438 30.51c4.078 0 7.384-2.856 7.384-6.38 0-3.522-3.306-6.378-7.384-6.378s-7.384 2.856-7.384 6.379c0 3.523 3.306 6.38 7.384 6.38z" fill="#FFD233"/><path d="M727.741 142.013H79.813a3.327 3.327 0 00-3.326 3.328v260.726a3.327 3.327 0 003.326 3.329H727.74a3.327 3.327 0 003.325-3.329V145.341a3.327 3.327 0 00-3.325-3.328z" fill="#4ECB71"/><path d="M727.741 141.862H473.336a3.327 3.327 0 00-3.325 3.328v260.727a3.327 3.327 0 003.325 3.328h254.405a3.327 3.327 0 003.325-3.328V145.19a3.327 3.327 0 00-3.325-3.328z" fill="#85B6FF"/><path d="M667.881 268.896H532.642a3.328 3.328 0 00-3.326 3.329v29.401a3.327 3.327 0 003.326 3.328h135.239a3.327 3.327 0 003.326-3.328v-29.401a3.328 3.328 0 00-3.326-3.329z" fill="#FF9A62"/><path d="M580.658 285.902h-2.068a2.042 2.042 0 00-.233-.714 1.804 1.804 0 00-.449-.539 1.977 1.977 0 00-.631-.34 2.433 2.433 0 00-.771-.118c-.499 0-.937.124-1.308.373-.371.246-.659.605-.865 1.078-.205.47-.31 1.04-.31 1.711 0 .691.105 1.271.31 1.74.206.47.499.824.871 1.064.371.24.798.359 1.286.359.277 0 .532-.036.764-.108.233-.073.444-.178.627-.317a1.87 1.87 0 00.454-.515c.122-.202.205-.432.255-.691l2.068.01a3.896 3.896 0 01-.399 1.286 3.86 3.86 0 01-.86 1.101 4 4 0 01-1.274.766c-.488.186-1.048.279-1.669.279-.859 0-1.629-.195-2.311-.586-.676-.391-1.214-.957-1.607-1.697-.388-.741-.588-1.638-.588-2.691 0-1.055.2-1.954.599-2.695.393-.74.931-1.304 1.613-1.692.681-.391 1.446-.587 2.294-.587.566 0 1.081.079 1.563.237.483.158.909.388 1.281.69.371.3.67.667.903 1.102.238.435.388.933.455 1.494zm4.456 6.434c-.737 0-1.369-.155-1.907-.468a3.184 3.184 0 01-1.23-1.314c-.289-.564-.438-1.218-.438-1.962 0-.75.149-1.406.438-1.967a3.148 3.148 0 011.23-1.314c.538-.315 1.17-.473 1.907-.473.731 0 1.363.158 1.895.473.538.312.948.75 1.242 1.314.288.561.432 1.217.432 1.967 0 .744-.144 1.398-.432 1.962a3.212 3.212 0 01-1.242 1.314c-.532.313-1.164.468-1.895.468zm.005-1.559c.338 0 .616-.095.837-.285.227-.191.394-.453.51-.784.117-.331.172-.708.172-1.13a3.38 3.38 0 00-.172-1.13c-.116-.331-.283-.592-.51-.785-.221-.192-.499-.288-.837-.288a1.29 1.29 0 00-.848.288 1.772 1.772 0 00-.515.785 3.539 3.539 0 00-.172 1.13c0 .422.061.799.172 1.13.116.331.288.593.515.784a1.3 1.3 0 00.848.285zm6.635-2.781v4.199h-2.012v-7.262h1.918v1.281h.083c.16-.422.426-.756.809-1.003.377-.248.837-.373 1.374-.373.505 0 .943.11 1.314.331.377.22.671.536.876.946.21.406.31.892.31 1.456v4.624h-2.012v-4.265c.006-.444-.111-.791-.338-1.04-.233-.252-.549-.378-.948-.378-.271 0-.51.058-.72.175a1.22 1.22 0 00-.482.51 1.762 1.762 0 00-.172.799zm9.866-3.063v1.513h-4.368v-1.513h4.368zm-3.376-1.74h2.012v6.77c0 .186.028.331.083.435a.496.496 0 00.239.213.97.97 0 00.36.061c.094 0 .188-.008.283-.023l.216-.043.316 1.499c-.1.031-.244.068-.427.109-.183.044-.405.07-.665.08-.482.019-.909-.046-1.275-.194a1.776 1.776 0 01-.843-.69c-.205-.312-.304-.706-.299-1.182v-7.035zm4.434 9.002v-7.262h2.012v7.262h-2.012zm1.015-8.198c-.3 0-.56-.1-.771-.298a.97.97 0 01-.316-.724.95.95 0 01.316-.714c.211-.201.471-.302.771-.302.299 0 .554.101.764.302a.953.953 0 01.322.714.973.973 0 01-.322.724c-.21.198-.465.298-.764.298zm4.373 3.999v4.199h-2.018v-7.262h1.918v1.281h.089c.16-.422.426-.756.809-1.003.377-.248.831-.373 1.374-.373.499 0 .943.11 1.314.331.377.22.671.536.876.946.21.406.31.892.31 1.456v4.624h-2.012v-4.265c.006-.444-.111-.791-.338-1.04-.233-.252-.549-.378-.948-.378-.271 0-.515.058-.72.175a1.228 1.228 0 00-.483.51c-.11.221-.171.487-.171.799zm10.658 1.107v-4.17h2.012v7.262h-1.929v-1.319h-.077a2.152 2.152 0 01-.815 1.026c-.377.258-.843.387-1.386.387-.482 0-.909-.11-1.28-.331a2.307 2.307 0 01-.865-.941c-.205-.406-.31-.893-.31-1.46v-4.624h2.012v4.264c0 .429.116.768.343 1.017.228.249.532.373.915.373.238 0 .466-.055.676-.165.211-.114.383-.281.51-.501.133-.221.2-.494.194-.818zm6.679 3.233c-.748 0-1.391-.151-1.929-.453a3.08 3.08 0 01-1.236-1.296c-.294-.561-.438-1.224-.438-1.99 0-.747.144-1.403.438-1.967a3.225 3.225 0 011.219-1.319c.532-.315 1.153-.473 1.863-.473.482 0 .925.077 1.335.232.416.151.782.379 1.092.686.311.305.555.69.726 1.153.172.46.261.999.261 1.617v.553h-6.13v-1.248h4.234c0-.29-.061-.547-.188-.771a1.335 1.335 0 00-.527-.524 1.486 1.486 0 00-.77-.195 1.527 1.527 0 00-1.358.776c-.133.233-.2.493-.205.78v1.187c0 .359.066.67.2.931.133.262.326.464.57.605.244.142.538.213.876.213.222 0 .427-.031.615-.094.183-.063.344-.158.477-.284.127-.126.233-.281.299-.463l1.863.123a2.55 2.55 0 01-.582 1.172c-.289.331-.666.59-1.126.775-.454.183-.981.274-1.579.274zm-81.472-40.554h-.983a1.502 1.502 0 00-.588-.962 1.64 1.64 0 00-.501-.252 1.948 1.948 0 00-.583-.085c-.371 0-.704.094-.998.281a1.912 1.912 0 00-.693.822c-.168.362-.252.803-.252 1.324 0 .525.084.969.252 1.33.17.362.402.635.696.819.294.186.625.278.992.278.204 0 .397-.027.579-.082.185-.057.352-.14.502-.249a1.517 1.517 0 00.594-.948l.983.002c-.053.318-.154.61-.305.877-.15.264-.342.494-.577.687a2.622 2.622 0 01-.8.445c-.3.104-.628.157-.982.157a2.83 2.83 0 01-1.493-.397 2.78 2.78 0 01-1.033-1.145c-.25-.495-.375-1.087-.375-1.774 0-.689.127-1.28.378-1.775a2.76 2.76 0 011.033-1.14 2.801 2.801 0 011.49-.401c.342 0 .661.05.957.148.298.097.566.24.803.429.237.187.434.416.589.687.155.269.261.577.315.924zm1.933-2.1v6.456h-.941v-6.456h.941zm1.169 6.456v-4.842h.942v4.842h-.942zm.476-5.589a.594.594 0 01-.422-.164.53.53 0 01-.174-.397c0-.155.058-.288.174-.397a.592.592 0 01.422-.167c.163 0 .303.056.419.167a.524.524 0 01.176.397.529.529 0 01-.176.397.587.587 0 01-.419.164zm3.672 5.686c-.468 0-.871-.106-1.209-.318a2.107 2.107 0 01-.774-.886 2.942 2.942 0 01-.272-1.292c0-.492.093-.926.278-1.302.185-.378.445-.673.781-.886.335-.212.731-.318 1.187-.318.367 0 .695.069.983.205.287.134.519.324.696.568.178.243.284.528.318.853h-.917a1.093 1.093 0 00-.346-.585c-.179-.165-.418-.247-.718-.247-.263 0-.492.07-.69.208a1.343 1.343 0 00-.456.587c-.11.252-.164.55-.164.895 0 .353.053.658.16.914.107.256.259.455.454.595.197.141.429.212.696.212.178 0 .34-.033.485-.098a.981.981 0 00.368-.287c.101-.123.171-.273.211-.447h.917a1.788 1.788 0 01-.306.838c-.17.246-.398.439-.683.58a2.218 2.218 0 01-.999.211zm3.764-1.74l-.005-1.15h.16l1.929-2.049h1.125l-2.195 2.333h-.149l-.865.866zm-.867 1.643v-6.456h.939v6.456h-.939zm3.057 0l-1.735-2.301.648-.659 2.239 2.96h-1.152zm9.649-4.196h-1.38a1.309 1.309 0 00-.155-.476 1.238 1.238 0 00-.721-.586 1.604 1.604 0 00-.51-.079c-.338 0-.626.083-.875.249a1.642 1.642 0 00-.577.719c-.133.313-.205.694-.205 1.141 0 .46.072.847.205 1.16.139.313.333.55.582.709.244.16.532.239.859.239.183 0 .349-.023.505-.072.16-.048.299-.118.421-.211a1.27 1.27 0 00.305-.343c.077-.135.138-.288.166-.461l1.38.007a2.412 2.412 0 01-.266.857 2.641 2.641 0 01-.571.734 2.715 2.715 0 01-.848.511 3.143 3.143 0 01-1.114.186c-.576 0-1.092-.13-1.541-.391a2.792 2.792 0 01-1.075-1.132c-.26-.493-.388-1.091-.388-1.793 0-.704.133-1.303.394-1.796.266-.494.626-.87 1.08-1.129a3.03 3.03 0 011.53-.391c.371 0 .721.053 1.037.158.321.105.609.258.853.46.25.2.449.444.61.735.155.289.255.621.299.995zm3.043 4.29c-.493 0-.914-.104-1.269-.312a2.147 2.147 0 01-.826-.876 2.89 2.89 0 01-.288-1.308c0-.501.1-.937.288-1.312a2.12 2.12 0 01.826-.875c.355-.211.776-.316 1.269-.316.488 0 .909.105 1.264.316.354.208.632.499.826.875.194.375.288.811.288 1.312 0 .496-.094.932-.288 1.308a2.154 2.154 0 01-.826.876c-.355.208-.776.312-1.264.312zm.006-1.04a.83.83 0 00.554-.189c.149-.128.266-.302.338-.523.077-.221.116-.472.116-.754 0-.281-.039-.532-.116-.753a1.142 1.142 0 00-.338-.523.822.822 0 00-.554-.193.84.84 0 00-.566.193 1.142 1.142 0 00-.343.523 2.255 2.255 0 00-.117.753c0 .282.039.533.117.754.077.221.188.395.343.523.15.126.338.189.566.189zm4.489-1.853v2.799h-1.341v-4.842h1.28v.854h.055c.106-.281.289-.504.538-.668.25-.166.56-.249.915-.249.338 0 .632.074.881.221.249.147.443.357.582.63.138.271.21.595.21.971v3.083h-1.346v-2.843c.005-.297-.072-.528-.222-.694-.155-.168-.366-.252-.637-.252a.968.968 0 00-.477.116.805.805 0 00-.322.341 1.137 1.137 0 00-.116.533zm6.651-2.043v1.009h-2.915v-1.009h2.915zm-2.25-1.16h1.341v4.514a.6.6 0 00.056.29.314.314 0 00.155.142.674.674 0 00.244.041c.061 0 .122-.005.188-.016l.144-.029.211 1c-.067.02-.161.045-.283.072a2.371 2.371 0 01-.443.054 2.052 2.052 0 01-.854-.129 1.228 1.228 0 01-.565-.461c-.133-.208-.2-.47-.194-.788v-4.69zm3.026 6.002v-4.842h1.341v4.842h-1.341zm.676-5.466a.733.733 0 01-.515-.199.649.649 0 010-.958.731.731 0 01.515-.202c.2 0 .366.068.51.202a.649.649 0 010 .958.72.72 0 01-.51.199zm2.982 2.667v2.799h-1.341v-4.842h1.28v.854h.056c.11-.281.288-.504.537-.668.255-.166.56-.249.92-.249.333 0 .627.074.876.221.25.147.443.357.582.63.139.271.211.595.211.971v3.083h-1.342v-2.843c0-.297-.072-.528-.227-.694-.155-.168-.366-.252-.632-.252a.977.977 0 00-.482.116.834.834 0 00-.321.341 1.29 1.29 0 00-.117.533zm7.183.737v-2.78h1.342v4.842h-1.292v-.88h-.05a1.394 1.394 0 01-.543.684c-.255.173-.56.259-.925.259-.322 0-.605-.074-.854-.221a1.518 1.518 0 01-.571-.627 2.125 2.125 0 01-.21-.974v-3.083h1.341v2.843c0 .286.077.512.233.678.149.166.349.249.604.249a.967.967 0 00.454-.11.854.854 0 00.338-.334 1.04 1.04 0 00.133-.546zm4.518 2.156c-.494 0-.926-.101-1.281-.302a2.062 2.062 0 01-.826-.864c-.194-.374-.293-.816-.293-1.327 0-.498.099-.935.293-1.311.194-.376.466-.669.815-.879.355-.211.765-.316 1.242-.316.316 0 .615.051.892.155.277.101.516.253.721.457.21.203.371.46.487.769.117.306.172.666.172 1.077v.369h-4.085v-.832h2.821a.977.977 0 00-.127-.513.89.89 0 00-.349-.35.982.982 0 00-.51-.13 1.013 1.013 0 00-.909.517 1.03 1.03 0 00-.133.521v.791c0 .239.044.446.133.62a.97.97 0 00.377.404c.166.095.36.142.582.142.149 0 .288-.021.41-.063a.836.836 0 00.321-.189.784.784 0 00.2-.309l1.241.082c-.06.298-.194.559-.388.782-.194.22-.443.392-.748.516a2.84 2.84 0 01-1.058.183zm7.526-4.936v1.009h-2.909v-1.009h2.909zm-2.25-1.16h1.341v4.514a.6.6 0 00.056.29.33.33 0 00.161.142.64.64 0 00.238.041c.061 0 .127-.005.188-.016l.145-.029.21 1c-.066.02-.161.045-.283.072a2.36 2.36 0 01-.443.054 2.023 2.023 0 01-.848-.129 1.175 1.175 0 01-.565-.461c-.133-.208-.2-.47-.2-.788v-4.69zm5.16 6.096c-.487 0-.909-.104-1.269-.312a2.133 2.133 0 01-.82-.876c-.194-.376-.288-.812-.288-1.308 0-.501.094-.937.288-1.312.194-.376.465-.667.82-.875.36-.211.782-.316 1.269-.316.494 0 .915.105 1.27.316.354.208.631.499.825.875.189.375.289.811.289 1.312 0 .496-.1.932-.289 1.308a2.151 2.151 0 01-.825.876c-.355.208-.776.312-1.27.312zm.006-1.04c.227 0 .41-.063.56-.189.149-.128.26-.302.338-.523.077-.221.116-.472.116-.754 0-.281-.039-.532-.116-.753a1.192 1.192 0 00-.338-.523.827.827 0 00-.56-.193.863.863 0 00-.566.193 1.191 1.191 0 00-.343.523 2.424 2.424 0 00-.111.753c0 .282.039.533.111.754.077.221.194.395.343.523a.871.871 0 00.566.189zm7.288 2.862c-.438 0-.809-.06-1.119-.18a1.825 1.825 0 01-.737-.482 1.484 1.484 0 01-.355-.687l1.241-.167a.745.745 0 00.178.271.872.872 0 00.321.201c.139.053.305.079.499.079.294 0 .532-.071.721-.214.194-.141.288-.377.288-.709v-.886h-.056a1.305 1.305 0 01-.72.675 1.744 1.744 0 01-.66.114c-.366 0-.693-.085-.992-.253a1.826 1.826 0 01-.709-.778c-.172-.351-.261-.795-.261-1.33 0-.549.089-1.007.266-1.375.178-.367.416-.643.715-.826.294-.183.621-.274.976-.274.271 0 .499.046.681.139.183.091.333.204.444.34.111.135.199.267.26.397h.05v-.813h1.33v4.889c0 .412-.099.756-.299 1.033a1.845 1.845 0 01-.837.625c-.354.14-.765.211-1.225.211zm.028-2.995a.92.92 0 00.549-.16c.149-.109.266-.265.343-.466.084-.205.122-.448.122-.732s-.038-.529-.116-.737a1.123 1.123 0 00-.349-.489.876.876 0 00-.549-.173.87.87 0 00-.56.18 1.084 1.084 0 00-.343.491c-.078.21-.117.453-.117.728 0 .279.039.521.117.725.083.202.194.358.343.47a.93.93 0 00.56.163zm5.509 1.173c-.498 0-.925-.101-1.286-.302a2.096 2.096 0 01-.825-.864c-.194-.374-.289-.816-.289-1.327 0-.498.095-.935.289-1.311.194-.376.465-.669.814-.879.355-.211.771-.316 1.242-.316.321 0 .615.051.892.155.277.101.521.253.726.457.205.203.366.46.483.769.116.306.177.666.177 1.077v.369h-4.085v-.832h2.821c0-.193-.044-.364-.127-.513a.89.89 0 00-.349-.35 1.004 1.004 0 00-.516-.13 1.003 1.003 0 00-.903.517 1.1 1.1 0 00-.139.521v.791c0 .239.044.446.133.62a.946.946 0 00.383.404c.16.095.354.142.582.142.149 0 .282-.021.41-.063a.863.863 0 00.316-.189.88.88 0 00.205-.309l1.236.082a1.687 1.687 0 01-.383.782 1.94 1.94 0 01-.754.516 2.809 2.809 0 01-1.053.183zm5.571-4.936v1.009h-2.91v-1.009h2.91zm-2.251-1.16h1.342v4.514c0 .124.016.22.055.29a.31.31 0 00.161.142.623.623 0 00.238.041c.061 0 .122-.005.189-.016l.144-.029.21 1c-.066.02-.16.045-.282.072a2.383 2.383 0 01-.444.054 2.047 2.047 0 01-.853-.129 1.186 1.186 0 01-.56-.461c-.139-.208-.205-.47-.2-.788v-4.69zm9.007 2.541l-1.23.075a.622.622 0 00-.133-.283.75.75 0 00-.272-.205.96.96 0 00-.405-.079.964.964 0 00-.521.132c-.144.086-.216.202-.216.347a.37.37 0 00.139.294c.094.079.249.143.476.191l.876.177c.466.097.82.252 1.048.466.233.215.349.496.349.845 0 .318-.094.596-.283.836a1.82 1.82 0 01-.759.561 2.918 2.918 0 01-1.114.198c-.638 0-1.147-.134-1.53-.4a1.57 1.57 0 01-.665-1.097l1.319-.069a.692.692 0 00.294.447c.15.101.349.152.587.152.233 0 .422-.046.566-.136.144-.092.221-.211.221-.356a.366.366 0 00-.155-.299c-.1-.08-.255-.141-.465-.183l-.837-.167c-.471-.095-.826-.259-1.059-.492-.227-.233-.338-.531-.338-.892 0-.311.083-.579.249-.804.172-.225.411-.398.715-.52a2.946 2.946 0 011.081-.183c.615 0 1.092.13 1.447.388.349.258.554.61.615 1.056zm3.431-1.381v1.009h-2.915v-1.009h2.915zm-2.25-1.16h1.341v4.514c0 .124.017.22.055.29a.32.32 0 00.156.142.672.672 0 00.243.041c.061 0 .122-.005.189-.016l.144-.029.211 1c-.067.02-.161.045-.283.072a2.383 2.383 0 01-.444.054 2.047 2.047 0 01-.853-.129 1.228 1.228 0 01-.565-.461c-.133-.208-.2-.47-.194-.788v-4.69zm4.406 6.093c-.31 0-.582-.053-.826-.16a1.307 1.307 0 01-.571-.483c-.138-.214-.21-.481-.21-.801 0-.269.05-.494.149-.677.1-.183.233-.33.405-.441.166-.112.36-.196.576-.253.216-.056.449-.096.688-.119.282-.03.51-.057.681-.082a.937.937 0 00.372-.12.265.265 0 00.116-.234v-.019c0-.199-.061-.353-.188-.463-.122-.109-.3-.163-.527-.163-.244 0-.432.053-.576.16a.72.72 0 00-.283.397l-1.242-.1c.061-.295.183-.549.372-.763.183-.217.421-.383.715-.498a2.717 2.717 0 011.02-.177c.266 0 .526.031.77.095.249.063.466.161.66.293.194.132.343.303.454.511.111.205.166.452.166.74v3.266h-1.269v-.672h-.039a1.402 1.402 0 01-.31.401 1.504 1.504 0 01-.471.268 1.968 1.968 0 01-.632.094zm.382-.927c.2 0 .372-.038.521-.116a.926.926 0 00.361-.322.853.853 0 00.127-.457v-.514a.738.738 0 01-.172.076 3.5 3.5 0 01-.244.06c-.088.017-.182.032-.271.047l-.244.035c-.161.023-.294.06-.416.11a.672.672 0 00-.271.205.489.489 0 00-.1.315c0 .183.066.323.2.419a.857.857 0 00.509.142zm3.287.836v-4.842h1.297v.845h.05c.089-.301.238-.528.443-.681.211-.156.449-.233.721-.233a1.874 1.874 0 01.421.047v1.191a2.512 2.512 0 00-.565-.072 1.006 1.006 0 00-.898.482 1.075 1.075 0 00-.128.524v2.739h-1.341zm6.346-4.842v1.009h-2.915v-1.009h2.915zm-2.255-1.16h1.341v4.514c0 .124.022.22.061.29a.298.298 0 00.155.142c.067.027.15.041.238.041.067 0 .128-.005.189-.016l.144-.029.211 1c-.067.02-.161.045-.283.072a2.318 2.318 0 01-.443.054 2.041 2.041 0 01-.849-.129 1.18 1.18 0 01-.565-.461c-.133-.208-.199-.47-.199-.788v-4.69zm5.182 6.096c-.499 0-.926-.101-1.286-.302a2.092 2.092 0 01-.826-.864c-.194-.374-.288-.816-.288-1.327 0-.498.094-.935.288-1.311.194-.376.466-.669.815-.879.355-.211.77-.316 1.241-.316.322 0 .621.051.893.155.277.101.521.253.726.457.205.203.366.46.482.769.117.306.177.666.177 1.077v.369h-4.084v-.832h2.821c0-.193-.045-.364-.128-.513a.884.884 0 00-.349-.35 1.003 1.003 0 00-.515-.13 1.013 1.013 0 00-.904.517 1.099 1.099 0 00-.138.521v.791c0 .239.044.446.133.62a.944.944 0 00.382.404c.161.095.355.142.582.142.15 0 .283-.021.41-.063a.855.855 0 00.316-.189.866.866 0 00.205-.309l1.236.082a1.685 1.685 0 01-.382.782c-.194.22-.444.392-.754.516a2.812 2.812 0 01-1.053.183zm4.783-.015c-.371 0-.704-.095-1.003-.284-.294-.191-.527-.472-.704-.842-.172-.372-.255-.828-.255-1.368 0-.555.089-1.016.266-1.383.178-.37.416-.647.71-.829a1.83 1.83 0 01.981-.278c.271 0 .498.046.676.139.183.091.332.204.443.34.111.135.2.267.255.397h.045v-2.427h1.335v6.456h-1.324v-.776h-.056a1.599 1.599 0 01-.266.4c-.116.131-.26.239-.443.325-.183.086-.405.13-.66.13zm.421-1.069a.859.859 0 00.549-.177c.15-.12.266-.287.349-.501.078-.214.122-.465.122-.753s-.039-.538-.122-.75a1.071 1.071 0 00-.343-.492.904.904 0 00-.555-.173.856.856 0 00-.554.18 1.068 1.068 0 00-.344.497 2.161 2.161 0 00-.116.738c0 .281.039.53.116.747.078.214.194.382.344.504.15.12.333.18.554.18zm-542.132-51.005l-7.155-25.82h4.095l5.026 19.996h.239l5.227-19.996h4.057l5.227 20.008h.24l5.013-20.008h4.107l-7.168 25.82h-3.917l-5.43-19.34h-.201l-5.429 19.34h-3.931zm34.976.391c-1.906 0-3.548-.407-4.925-1.223-1.369-.824-2.428-1.979-3.175-3.467-.738-1.496-1.108-3.248-1.108-5.257 0-1.984.37-3.732 1.108-5.245.747-1.513 1.789-2.694 3.124-3.543 1.344-.848 2.914-1.273 4.711-1.273 1.092 0 2.15.18 3.175.542a7.695 7.695 0 012.759 1.702c.814.773 1.457 1.777 1.927 3.013.47 1.227.705 2.719.705 4.476v1.336H142.2v-2.824h11.69c0-.992-.202-1.87-.605-2.635a4.577 4.577 0 00-1.701-1.828c-.722-.445-1.57-.668-2.544-.668-1.058 0-1.982.261-2.771.782a5.241 5.241 0 00-1.815 2.017 5.836 5.836 0 00-.629 2.685v2.207c0 1.294.227 2.395.68 3.303.462.908 1.104 1.601 1.927 2.08.823.471 1.785.706 2.885.706a5.98 5.98 0 001.953-.303 4.223 4.223 0 001.524-.932c.428-.412.755-.921.982-1.526l3.565.643a6.455 6.455 0 01-1.537 2.761c-.731.782-1.65 1.391-2.759 1.828-1.1.429-2.355.643-3.766.643zm15.466-26.211v25.82h-3.766v-25.82h3.766zm12.437 26.211c-1.873 0-3.485-.425-4.837-1.273-1.344-.857-2.376-2.038-3.099-3.543-.722-1.504-1.083-3.227-1.083-5.169 0-1.967.37-3.703 1.108-5.207.739-1.513 1.781-2.694 3.124-3.543 1.344-.848 2.927-1.273 4.75-1.273 1.469 0 2.779.273 3.929.82 1.151.537 2.079 1.294 2.784 2.269.714.975 1.138 2.113 1.273 3.417h-3.666c-.202-.909-.663-1.69-1.386-2.346-.713-.655-1.671-.983-2.872-.983-1.05 0-1.969.278-2.758.832-.781.546-1.39 1.328-1.827 2.345-.436 1.009-.655 2.202-.655 3.58 0 1.413.214 2.631.643 3.657.428 1.025 1.032 1.82 1.813 2.383.79.563 1.718.845 2.784.845.714 0 1.361-.131 1.94-.391a3.964 3.964 0 001.474-1.148c.403-.496.684-1.092.844-1.79h3.666c-.135 1.252-.542 2.37-1.222 3.354-.68.983-1.592 1.756-2.734 2.32-1.133.563-2.465.844-3.993.844zm19.346 0c-1.814 0-3.397-.416-4.749-1.248-1.352-.832-2.401-1.996-3.149-3.492-.747-1.497-1.121-3.244-1.121-5.245 0-2.009.374-3.765 1.121-5.27.748-1.505 1.797-2.673 3.149-3.505 1.352-.832 2.935-1.248 4.749-1.248 1.814 0 3.397.416 4.749 1.248 1.352.832 2.402 2 3.149 3.505.748 1.505 1.122 3.261 1.122 5.27 0 2.001-.374 3.748-1.122 5.245-.747 1.496-1.797 2.66-3.149 3.492-1.352.832-2.935 1.248-4.749 1.248zm.013-3.164c1.175 0 2.15-.312 2.922-.933.773-.622 1.344-1.45 1.714-2.484.377-1.034.566-2.173.566-3.417 0-1.235-.189-2.37-.566-3.404-.37-1.042-.941-1.878-1.714-2.509-.772-.63-1.747-.945-2.922-.945-1.184 0-2.167.315-2.948.945-.772.631-1.348 1.467-1.726 2.509-.369 1.034-.554 2.169-.554 3.404 0 1.244.185 2.383.554 3.417.378 1.034.954 1.862 1.726 2.484.781.621 1.764.933 2.948.933zm12.43 2.773v-19.365h3.616v3.152h.239c.403-1.068 1.062-1.9 1.978-2.496.915-.606 2.011-.908 3.288-.908 1.293 0 2.376.302 3.249.908.882.605 1.533 1.437 1.953 2.496h.202c.461-1.034 1.196-1.858 2.204-2.471 1.007-.622 2.209-.933 3.603-.933 1.755 0 3.187.55 4.295 1.652 1.117 1.1 1.676 2.761 1.676 4.979v12.986h-3.767V191.51c0-1.311-.357-2.26-1.071-2.849-.713-.588-1.566-.882-2.557-.882-1.226 0-2.179.378-2.859 1.134-.681.748-1.021 1.711-1.021 2.887v12.343h-3.754v-12.872c0-1.05-.327-1.895-.982-2.534-.655-.639-1.507-.958-2.557-.958-.714 0-1.374.189-1.978.567-.596.37-1.079.887-1.449 1.551-.361.664-.541 1.433-.541 2.307v11.939h-3.767zm38.909.391c-1.906 0-3.548-.407-4.925-1.223-1.369-.824-2.427-1.979-3.174-3.467-.74-1.496-1.109-3.248-1.109-5.257 0-1.984.369-3.732 1.109-5.245.747-1.513 1.788-2.694 3.124-3.543 1.343-.848 2.913-1.273 4.711-1.273 1.092 0 2.15.18 3.174.542a7.686 7.686 0 012.759 1.702c.814.773 1.457 1.777 1.927 3.013.47 1.227.705 2.719.705 4.476v1.336h-15.38v-2.824h11.689c0-.992-.201-1.87-.604-2.635a4.577 4.577 0 00-1.701-1.828c-.722-.445-1.57-.668-2.544-.668-1.058 0-1.982.261-2.772.782a5.228 5.228 0 00-1.813 2.017 5.824 5.824 0 00-.63 2.685v2.207c0 1.294.226 2.395.68 3.303.462.908 1.104 1.601 1.927 2.08.824.471 1.785.706 2.885.706.714 0 1.364-.101 1.953-.303a4.214 4.214 0 001.524-.932c.428-.412.756-.921.982-1.526l3.565.643a6.465 6.465 0 01-1.537 2.761c-.73.782-1.65 1.391-2.758 1.828-1.1.429-2.356.643-3.767.643zm29.339-19.756v3.026h-10.568v-3.026h10.568zm-7.734-4.64h3.766v18.319c0 .731.11 1.282.328 1.652.218.361.499.609.844.744a3.38 3.38 0 001.146.189c.302 0 .567-.021.794-.063.227-.042.403-.076.529-.101l.68 3.114a6.32 6.32 0 01-.932.252c-.403.092-.907.143-1.512.152a6.64 6.64 0 01-2.771-.53 4.756 4.756 0 01-2.079-1.715c-.528-.773-.793-1.744-.793-2.912v-19.101zm19.063 24.396c-1.814 0-3.397-.416-4.749-1.248-1.353-.832-2.402-1.996-3.149-3.492-.748-1.497-1.122-3.244-1.122-5.245 0-2.009.374-3.765 1.122-5.27.747-1.505 1.796-2.673 3.149-3.505 1.352-.832 2.935-1.248 4.749-1.248 1.813 0 3.397.416 4.749 1.248 1.351.832 2.401 2 3.149 3.505.747 1.505 1.121 3.261 1.121 5.27 0 2.001-.374 3.748-1.121 5.245-.748 1.496-1.798 2.66-3.149 3.492-1.352.832-2.936 1.248-4.749 1.248zm.012-3.164c1.176 0 2.15-.312 2.923-.933.772-.622 1.343-1.45 1.713-2.484.378-1.034.567-2.173.567-3.417 0-1.235-.189-2.37-.567-3.404-.37-1.042-.941-1.878-1.713-2.509-.773-.63-1.747-.945-2.923-.945-1.184 0-2.167.315-2.948.945-.772.631-1.348 1.467-1.725 2.509-.37 1.034-.554 2.169-.554 3.404 0 1.244.184 2.383.554 3.417.377 1.034.953 1.862 1.725 2.484.781.621 1.764.933 2.948.933zm26.392 2.773l-7.155-25.82h4.094l5.026 19.996h.239l5.228-19.996h4.056l5.227 20.008h.24l5.014-20.008h4.106l-7.168 25.82h-3.917l-5.43-19.34h-.201l-5.429 19.34h-3.93zm28.542 0v-19.365h3.766v19.365h-3.766zm1.902-22.353a2.393 2.393 0 01-1.688-.655c-.462-.446-.693-.976-.693-1.589 0-.622.231-1.152.693-1.589a2.37 2.37 0 011.688-.668c.654 0 1.213.223 1.675.668.47.437.705.967.705 1.589 0 .613-.235 1.143-.705 1.589a2.35 2.35 0 01-1.675.655zm6.15 22.353v-19.365h3.641v3.076h.202c.352-1.042.974-1.862 1.864-2.458.899-.605 1.914-.908 3.048-.908a15.871 15.871 0 011.6.088v3.606a6.856 6.856 0 00-.806-.139 7.666 7.666 0 00-1.159-.088c-.89 0-1.684.189-2.381.567a4.217 4.217 0 00-1.637 1.551c-.404.656-.605 1.404-.605 2.244v11.826h-3.767zm20.48.391c-1.906 0-3.548-.407-4.925-1.223-1.369-.824-2.427-1.979-3.175-3.467-.739-1.496-1.108-3.248-1.108-5.257 0-1.984.369-3.732 1.108-5.245.748-1.513 1.789-2.694 3.125-3.543 1.343-.848 2.913-1.273 4.711-1.273 1.092 0 2.15.18 3.174.542a7.686 7.686 0 012.759 1.702c.814.773 1.457 1.777 1.927 3.013.47 1.227.705 2.719.705 4.476v1.336h-15.38v-2.824h11.69c0-.992-.202-1.87-.605-2.635a4.577 4.577 0 00-1.701-1.828c-.722-.445-1.57-.668-2.544-.668-1.058 0-1.982.261-2.771.782a5.23 5.23 0 00-1.814 2.017 5.824 5.824 0 00-.63 2.685v2.207c0 1.294.226 2.395.68 3.303.462.908 1.105 1.601 1.928 2.08.823.471 1.784.706 2.884.706a5.98 5.98 0 001.953-.303 4.214 4.214 0 001.524-.932c.428-.412.756-.921.983-1.526l3.565.643a6.476 6.476 0 01-1.537 2.761c-.731.782-1.65 1.391-2.759 1.828-1.1.429-2.356.643-3.767.643zm-263.637 45.653l-1.788-6.455h1.023l1.256 4.998h.06l1.307-4.998h1.014l1.307 5.002h.06l1.253-5.002h1.027l-1.792 6.455h-.979l-1.358-4.836h-.05l-1.357 4.836h-.983zm7.233 0v-4.842h.942v4.842h-.942zm.476-5.589a.598.598 0 01-.423-.164.533.533 0 01-.172-.397c0-.156.057-.288.172-.397a.596.596 0 01.423-.167c.163 0 .303.056.418.167a.52.52 0 01.177.397.528.528 0 01-.177.397.583.583 0 01-.418.164zm1.635 5.589v-4.842h.91v.769h.05a1.17 1.17 0 01.467-.614c.224-.152.478-.227.762-.227a4.193 4.193 0 01.4.022v.901a1.929 1.929 0 00-.202-.035 2.01 2.01 0 00-.29-.021c-.222 0-.421.047-.595.141a1.053 1.053 0 00-.56.949v2.957h-.942zm5.218.097c-.477 0-.888-.102-1.232-.306a2.065 2.065 0 01-.794-.867c-.184-.373-.277-.812-.277-1.314 0-.496.093-.933.277-1.311.187-.378.448-.673.781-.885.336-.213.729-.319 1.178-.319.273 0 .538.046.794.135.256.091.486.233.689.426.204.194.365.445.483.753.117.307.176.68.176 1.119v.335h-3.846v-.707h2.923c0-.247-.05-.467-.151-.658a1.142 1.142 0 00-.425-.457 1.184 1.184 0 00-.636-.168 1.23 1.23 0 00-.693.196 1.312 1.312 0 00-.454.504c-.105.206-.157.43-.157.672v.551c0 .324.057.599.17.826.115.227.276.401.481.52.207.118.447.177.722.177.179 0 .341-.026.488-.076a1.016 1.016 0 00.627-.615l.891.161c-.072.263-.2.493-.384.69a1.857 1.857 0 01-.69.457 2.56 2.56 0 01-.941.161zm5.271-.097v-4.842h.942v4.842h-.942zm.476-5.589a.594.594 0 01-.422-.164.532.532 0 01-.174-.397c0-.156.058-.288.174-.397a.592.592 0 01.422-.167c.164 0 .303.056.419.167a.522.522 0 01.176.397.53.53 0 01-.176.397.585.585 0 01-.419.164zm5.26 1.929l-.853.151a1.005 1.005 0 00-.171-.311.834.834 0 00-.308-.243 1.104 1.104 0 00-.489-.095c-.266 0-.488.06-.667.18-.178.118-.268.27-.268.457 0 .162.06.292.18.391.12.098.313.179.579.242l.768.177c.445.103.777.261.996.476.218.214.327.493.327.835 0 .29-.084.549-.252.775a1.647 1.647 0 01-.695.53c-.297.128-.64.192-1.03.192-.542 0-.984-.115-1.326-.347a1.464 1.464 0 01-.63-.993l.91-.138a.873.873 0 00.35.539c.176.12.406.18.689.18.309 0 .556-.065.74-.193.185-.13.277-.289.277-.476a.495.495 0 00-.169-.381c-.112-.103-.283-.181-.514-.233l-.819-.18c-.451-.103-.785-.267-1.001-.492-.214-.224-.321-.509-.321-.854 0-.286.08-.536.239-.75.16-.214.38-.381.661-.501a2.41 2.41 0 01.967-.183c.523 0 .935.114 1.234.341.301.224.499.526.596.904zm3.281 5.475v-6.657h.92v.785h.079c.055-.101.133-.218.236-.35.103-.132.245-.248.428-.346.183-.101.424-.152.725-.152.39 0 .738.099 1.045.296.306.198.547.482.721.855.177.371.265.819.265 1.342 0 .524-.088.972-.262 1.346a2.042 2.042 0 01-.717.861 1.86 1.86 0 01-1.043.299c-.294 0-.534-.05-.721-.148a1.36 1.36 0 01-.435-.347 2.526 2.526 0 01-.242-.353h-.057v2.569h-.942zm.923-4.236c0 .34.05.639.148.895.099.256.241.457.429.602.186.143.415.215.686.215.281 0 .516-.075.705-.225.189-.151.332-.356.429-.614.099-.259.148-.549.148-.873 0-.319-.048-.606-.145-.861a1.33 1.33 0 00-.428-.602c-.189-.147-.425-.22-.709-.22-.273 0-.504.07-.693.211a1.292 1.292 0 00-.425.589 2.45 2.45 0 00-.145.883zm6.538 2.518c-.476 0-.887-.102-1.231-.306a2.059 2.059 0 01-.794-.867c-.185-.373-.277-.812-.277-1.314 0-.496.092-.933.277-1.311.187-.378.447-.673.781-.885.336-.213.728-.319 1.178-.319.273 0 .537.046.793.135.257.091.487.233.69.426.204.194.364.445.482.753.118.307.176.68.176 1.119v.335h-3.845v-.707h2.923c0-.247-.051-.467-.152-.658a1.136 1.136 0 00-.425-.457 1.182 1.182 0 00-.636-.168c-.265 0-.495.066-.693.196a1.31 1.31 0 00-.453.504c-.105.206-.158.43-.158.672v.551c0 .324.057.599.17.826.116.227.276.401.482.52.206.118.446.177.721.177a1.5 1.5 0 00.488-.076 1.002 1.002 0 00.627-.615l.892.161c-.072.263-.2.493-.385.69a1.84 1.84 0 01-.69.457 2.553 2.553 0 01-.941.161zm3.023-.097v-4.842h.91v.769h.05c.088-.261.244-.465.466-.614a1.33 1.33 0 01.762-.227 4.23 4.23 0 01.4.022v.901a1.88 1.88 0 00-.202-.035 2.007 2.007 0 00-.289-.021 1.23 1.23 0 00-.595.141 1.055 1.055 0 00-.561.949v2.957h-.941zm5.893-4.842v.756h-2.733v-.756h2.733zm-1.984 4.842v-5.403c0-.302.066-.554.199-.753.132-.202.307-.352.526-.451a1.67 1.67 0 01.711-.151c.189 0 .351.016.485.047.135.029.234.057.299.082l-.22.763c-.044-.013-.101-.027-.17-.044a.924.924 0 00-.252-.029c-.229 0-.393.057-.491.17-.097.114-.145.278-.145.492v5.277h-.942zm4.753.097c-.477 0-.888-.102-1.232-.306a2.065 2.065 0 01-.794-.867c-.184-.373-.277-.812-.277-1.314 0-.496.093-.933.277-1.311.187-.378.448-.673.781-.885a2.156 2.156 0 011.178-.319c.273 0 .538.046.794.135.256.091.486.233.69.426.203.194.364.445.481.753.118.307.177.68.177 1.119v.335h-3.845v-.707h2.922a1.4 1.4 0 00-.151-.658 1.142 1.142 0 00-.425-.457 1.184 1.184 0 00-.636-.168 1.23 1.23 0 00-.693.196 1.31 1.31 0 00-.453.504c-.106.206-.158.43-.158.672v.551c0 .324.057.599.17.826.116.227.276.401.482.52.206.118.446.177.721.177.179 0 .341-.026.488-.076a1.016 1.016 0 00.627-.615l.891.161c-.072.263-.2.493-.384.69a1.857 1.857 0 01-.69.457 2.56 2.56 0 01-.941.161zm5.059 0c-.468 0-.871-.106-1.209-.318a2.1 2.1 0 01-.774-.886 2.944 2.944 0 01-.271-1.292c0-.492.092-.925.277-1.302.184-.378.445-.673.781-.885.336-.213.731-.319 1.187-.319.367 0 .695.068.983.205a1.715 1.715 0 011.013 1.422h-.916a1.095 1.095 0 00-.346-.587c-.179-.163-.418-.246-.718-.246-.263 0-.493.07-.69.209a1.337 1.337 0 00-.457.586c-.109.252-.163.55-.163.895 0 .353.053.658.161.914.107.256.258.455.453.596.197.141.429.211.696.211.179 0 .34-.033.485-.098a.989.989 0 00.368-.287c.101-.124.171-.273.211-.447h.916a1.776 1.776 0 01-.305.838c-.17.246-.398.439-.683.58a2.218 2.218 0 01-.999.211zm5.155-4.939v.756h-2.642v-.756h2.642zm-1.934-1.16h.942v4.58c0 .183.028.32.082.413.054.09.125.152.211.186a.86.86 0 00.287.047c.075 0 .141-.005.198-.016l.132-.025.17.779a1.458 1.458 0 01-.233.062c-.1.024-.226.037-.378.039a1.647 1.647 0 01-.692-.133 1.177 1.177 0 01-.52-.429c-.132-.193-.199-.436-.199-.727v-4.776zm7.43 1.16v.756h-2.734v-.756h2.734zm-1.984 4.842v-5.403c0-.302.066-.554.198-.753.132-.202.307-.352.526-.451a1.67 1.67 0 01.711-.151c.189 0 .351.016.485.047.135.029.235.057.3.082l-.221.763a3.842 3.842 0 00-.17-.044.919.919 0 00-.252-.029c-.229 0-.392.057-.491.17-.096.114-.145.278-.145.492v5.277h-.941zm4.704.097c-.453 0-.849-.104-1.187-.312a2.104 2.104 0 01-.787-.873c-.187-.374-.28-.811-.28-1.311 0-.502.093-.942.28-1.318a2.1 2.1 0 01.787-.876c.338-.208.734-.312 1.187-.312.454 0 .85.104 1.188.312.338.208.6.5.787.876.187.376.28.816.28 1.318 0 .5-.093.937-.28 1.311a2.104 2.104 0 01-.787.873c-.338.208-.734.312-1.188.312zm.004-.791c.293 0 .537-.078.73-.233.194-.156.336-.363.429-.621.094-.259.142-.543.142-.854a2.47 2.47 0 00-.142-.851 1.38 1.38 0 00-.429-.627c-.193-.158-.437-.237-.73-.237-.296 0-.542.079-.737.237a1.408 1.408 0 00-.432.627 2.52 2.52 0 00-.138.851c0 .311.046.595.138.854a1.4 1.4 0 00.432.621c.195.155.441.233.737.233zm3.205.694v-4.842h.91v.769h.05a1.17 1.17 0 01.467-.614c.224-.152.478-.227.762-.227a4.264 4.264 0 01.399.022v.901a1.802 1.802 0 00-.201-.035 2.02 2.02 0 00-.29-.021 1.23 1.23 0 00-.595.141 1.056 1.056 0 00-.56.949v2.957h-.942zm6.963.107c-.306 0-.584-.057-.831-.171a1.387 1.387 0 01-.589-.501c-.143-.218-.214-.486-.214-.803 0-.273.052-.499.157-.675a1.17 1.17 0 01.425-.419 2.21 2.21 0 01.598-.233c.221-.053.445-.093.674-.12l.706-.082c.18-.023.312-.06.393-.11.082-.051.123-.133.123-.246v-.022c0-.276-.077-.489-.233-.64-.153-.152-.382-.227-.686-.227-.317 0-.567.07-.75.211-.18.139-.306.293-.375.463l-.884-.202a1.7 1.7 0 01.459-.712c.204-.182.438-.315.702-.397.265-.084.543-.126.835-.126.193 0 .398.023.614.069.219.045.422.126.611.246.191.12.347.291.469.514.122.221.183.507.183.861v3.215h-.92v-.662h-.037a1.362 1.362 0 01-.274.359 1.461 1.461 0 01-.47.293c-.19.078-.419.117-.686.117zm.205-.757c.26 0 .482-.051.667-.154a1.077 1.077 0 00.574-.943v-.624a.49.49 0 01-.196.095 2.838 2.838 0 01-.324.072 46.58 46.58 0 01-.356.054l-.29.038a2.365 2.365 0 00-.5.116.866.866 0 00-.36.237.59.59 0 00-.132.403c0 .233.086.41.258.53.173.117.392.176.659.176zm4.28-2.225v2.875h-.942v-4.842h.904v.788h.06c.112-.256.286-.462.523-.617.239-.156.54-.234.904-.234.329 0 .618.069.866.208.247.137.44.341.576.611.137.272.205.607.205 1.006v3.08h-.942v-2.967c0-.35-.091-.624-.274-.822-.182-.199-.433-.299-.752-.299-.219 0-.413.047-.583.141a1.023 1.023 0 00-.4.416c-.097.181-.145.4-.145.656zm4.683 4.69c-.141 0-.269-.011-.384-.035a1.217 1.217 0 01-.258-.069l.226-.772c.173.046.326.066.46.06a.552.552 0 00.356-.152c.105-.094.198-.248.277-.463l.117-.321-1.77-4.905h1.008l1.225 3.757h.05l1.225-3.757h1.011l-1.994 5.488a2.167 2.167 0 01-.352.639 1.379 1.379 0 01-.51.398 1.67 1.67 0 01-.687.132zm6.203-1.718c-.453 0-.849-.104-1.187-.312a2.104 2.104 0 01-.787-.873c-.187-.374-.28-.811-.28-1.311 0-.502.093-.942.28-1.318a2.1 2.1 0 01.787-.876c.338-.208.734-.312 1.187-.312.454 0 .849.104 1.188.312.338.208.6.5.787.876.187.376.28.816.28 1.318 0 .5-.093.937-.28 1.311a2.104 2.104 0 01-.787.873c-.339.208-.734.312-1.188.312zm.004-.791c.293 0 .537-.078.73-.233a1.38 1.38 0 00.429-.621c.094-.259.141-.543.141-.854a2.47 2.47 0 00-.141-.851 1.387 1.387 0 00-.429-.627c-.193-.158-.437-.237-.73-.237-.296 0-.542.079-.737.237a1.408 1.408 0 00-.432.627 2.52 2.52 0 00-.138.851c0 .311.046.595.138.854a1.4 1.4 0 00.432.621c.195.155.441.233.737.233zm4.146-2.181v2.875h-.942v-4.842h.904v.788h.06c.112-.256.286-.462.523-.617.239-.156.541-.234.904-.234.33 0 .618.069.866.208.247.137.44.341.576.611.136.272.205.607.205 1.006v3.08h-.942v-2.967c0-.35-.091-.624-.274-.822-.182-.199-.433-.299-.753-.299-.218 0-.412.047-.582.141a1.03 1.03 0 00-.4.416c-.097.181-.145.4-.145.656zm6.346 2.972c-.477 0-.887-.102-1.231-.306a2.059 2.059 0 01-.794-.867c-.184-.373-.277-.812-.277-1.314 0-.496.093-.933.277-1.311.187-.378.447-.673.781-.885.336-.213.728-.319 1.178-.319.273 0 .537.046.794.135.256.091.486.233.689.426.204.194.364.445.482.753.118.307.176.68.176 1.119v.335h-3.845v-.707h2.923c0-.247-.051-.467-.152-.658a1.136 1.136 0 00-.425-.457 1.18 1.18 0 00-.636-.168c-.264 0-.496.066-.693.196a1.31 1.31 0 00-.453.504c-.105.206-.158.43-.158.672v.551c0 .324.057.599.17.826.116.227.276.401.482.52.206.118.446.177.721.177.179 0 .342-.026.489-.076a1.014 1.014 0 00.626-.615l.892.161c-.072.263-.2.493-.385.69a1.84 1.84 0 01-.69.457 2.553 2.553 0 01-.941.161zm3.643-.038a.611.611 0 01-.444-.183.608.608 0 01-.186-.447c0-.172.062-.319.186-.441a.606.606 0 01.444-.186c.172 0 .32.062.444.186a.6.6 0 01.186.441.658.658 0 01-.315.546.606.606 0 01-.315.084zm0-3.523a.603.603 0 01-.444-.187.603.603 0 01-.186-.444c0-.172.062-.319.186-.441a.606.606 0 01.444-.186c.172 0 .32.062.444.186a.6.6 0 01.186.441.638.638 0 01-.315.545.599.599 0 01-.315.086zm-101.429 28.906c-.254 0-.486-.062-.695-.186a1.442 1.442 0 01-.504-.505 1.34 1.34 0 01-.186-.696c0-.256.062-.489.186-.697.126-.21.294-.377.504-.501.209-.126.441-.189.695-.189a1.399 1.399 0 011.386 1.387c0 .254-.063.487-.189.696a1.418 1.418 0 01-.501.505 1.33 1.33 0 01-.696.186zm10.711-3.414a.797.797 0 00-.324-.592c-.191-.141-.451-.212-.778-.212-.222 0-.41.032-.564.095a.795.795 0 00-.352.255.615.615 0 00-.12.372.53.53 0 00.073.303.74.74 0 00.223.223c.094.061.203.115.327.161.124.045.257.082.397.114l.58.139c.281.062.539.147.774.252.235.105.439.234.611.387a1.6 1.6 0 01.4.542c.097.208.146.447.148.716a1.784 1.784 0 01-.302 1.027c-.198.288-.483.512-.857.672-.371.158-.819.236-1.344.236-.521 0-.975-.079-1.361-.239a2.001 2.001 0 01-.901-.709c-.214-.316-.326-.705-.337-1.17h1.32a.994.994 0 00.186.542c.111.143.259.252.444.325.187.071.398.107.633.107.231 0 .431-.033.602-.101a.918.918 0 00.399-.28.647.647 0 00.142-.413.538.538 0 00-.129-.366.987.987 0 00-.371-.252 3.871 3.871 0 00-.596-.189l-.702-.176c-.544-.133-.973-.34-1.288-.622-.315-.281-.472-.66-.469-1.137a1.683 1.683 0 01.312-1.024c.211-.293.502-.521.872-.684a3.055 3.055 0 011.259-.246c.479 0 .897.081 1.254.246.359.163.638.391.837.684.2.291.303.63.309 1.014h-1.307zm4.762-.242v1.008h-2.912v-1.008h2.912zm-2.251-1.16h1.341v4.513c0 .124.019.221.057.29.038.067.09.114.158.142a.654.654 0 00.239.041c.063 0 .126-.005.189-.016l.145-.028.211.999a4.066 4.066 0 01-.284.073c-.122.029-.27.047-.444.053a2.04 2.04 0 01-.85-.129 1.194 1.194 0 01-.564-.46c-.134-.208-.2-.471-.198-.789v-4.689zm3.028 6.001v-4.841h1.301v.844h.05c.088-.3.236-.527.444-.681a1.17 1.17 0 01.718-.233 1.878 1.878 0 01.422.048v1.191a1.662 1.662 0 00-.261-.05 2.329 2.329 0 00-.306-.023c-.197 0-.373.044-.529.13a.95.95 0 00-.498.876v2.739h-1.341zm5.51.094c-.497 0-.926-.1-1.284-.302a2.08 2.08 0 01-.826-.864c-.193-.374-.29-.816-.29-1.327 0-.498.097-.935.29-1.311.194-.376.465-.669.816-.879.353-.211.766-.316 1.241-.316.319 0 .616.052.891.155.277.101.519.253.724.457.208.204.37.46.485.769.116.307.174.666.174 1.078v.369h-4.085v-.832h2.822c0-.194-.043-.365-.126-.514a.906.906 0 00-.35-.35.997.997 0 00-.513-.129 1.03 1.03 0 00-.542.142.988.988 0 00-.365.375 1.06 1.06 0 00-.136.52v.791c0 .239.045.446.133.621.09.174.217.309.381.403.164.095.358.142.583.142.149 0 .285-.021.409-.063a.822.822 0 00.52-.498l1.24.082a1.703 1.703 0 01-.387.782 1.96 1.96 0 01-.75.517 2.82 2.82 0 01-1.055.182zm4.378-.003c-.309 0-.584-.053-.825-.16a1.335 1.335 0 01-.573-.483c-.139-.214-.208-.481-.208-.801 0-.268.049-.494.148-.677.098-.183.233-.33.403-.441.17-.111.363-.196.579-.252.219-.057.448-.097.687-.12.281-.03.508-.057.68-.082.172-.027.297-.067.375-.12a.263.263 0 00.116-.233v-.019c0-.2-.063-.354-.189-.463-.123-.109-.3-.164-.529-.164-.241 0-.433.053-.576.161a.731.731 0 00-.283.397l-1.241-.101c.063-.294.187-.549.371-.763a1.8 1.8 0 01.715-.498 2.726 2.726 0 011.021-.177c.268 0 .526.032.771.095.248.063.467.161.659.293.192.133.345.303.456.511.111.206.167.453.167.741v3.265h-1.272v-.671h-.038a1.384 1.384 0 01-.312.4c-.13.113-.287.203-.469.268a1.943 1.943 0 01-.633.094zm.384-.927c.197 0 .371-.038.523-.116a.931.931 0 00.356-.321.834.834 0 00.129-.457v-.514a.735.735 0 01-.173.075 2.884 2.884 0 01-.243.06c-.09.017-.181.033-.27.047l-.247.035c-.157.023-.294.06-.412.11a.663.663 0 00-.274.206.497.497 0 00-.097.315c0 .182.066.322.198.419a.867.867 0 00.51.141zm3.283.836v-4.841h1.279v.853h.057c.1-.283.268-.507.503-.671.236-.163.517-.246.844-.246.332 0 .614.084.848.25.232.163.388.386.466.667h.05c.099-.277.277-.498.535-.664.26-.168.568-.253.923-.253.452 0 .818.145 1.099.433.284.285.425.691.425 1.216v3.256h-1.339v-2.991c0-.269-.07-.471-.213-.605a.749.749 0 00-.536-.202c-.243 0-.433.078-.57.233-.136.153-.205.356-.205.608v2.957h-1.3v-3.02c0-.237-.068-.426-.205-.567a.7.7 0 00-.532-.211.744.744 0 00-.403.113.789.789 0 00-.281.312.999.999 0 00-.103.467v2.906h-1.342zm7.991 0v-4.841h1.342v4.841h-1.342zm.674-5.465a.731.731 0 01-.513-.199.644.644 0 01-.211-.483c0-.184.07-.343.211-.476a.724.724 0 01.513-.201c.2 0 .37.067.511.201a.643.643 0 010 .959.721.721 0 01-.511.199zm2.987 2.666v2.799h-1.342v-4.841h1.278v.853h.057c.107-.281.287-.504.539-.667.252-.166.557-.25.916-.25.336 0 .629.074.879.221.25.147.444.357.582.63.139.272.208.595.208.971v3.083h-1.341v-2.843c.002-.296-.074-.528-.227-.694-.153-.168-.364-.252-.633-.252-.18 0-.34.039-.479.117a.818.818 0 00-.321.34 1.188 1.188 0 00-.116.533zm6.256 4.715c-.435 0-.807-.059-1.118-.179a1.865 1.865 0 01-.737-.483 1.48 1.48 0 01-.355-.687l1.24-.167a.812.812 0 00.18.271.87.87 0 00.324.202c.137.053.302.079.498.079.292 0 .532-.072.721-.214.191-.141.286-.378.286-.71v-.885h-.056a1.281 1.281 0 01-.265.381c-.117.12-.269.217-.453.293a1.734 1.734 0 01-.661.114c-.364 0-.694-.085-.992-.253a1.802 1.802 0 01-.709-.778c-.174-.351-.261-.795-.261-1.33 0-.549.089-1.007.267-1.375.179-.367.416-.642.712-.825.298-.183.625-.275.979-.275.271 0 .498.046.68.139.183.091.33.204.442.341.113.134.2.267.261.397h.05v-.813h1.333v4.888c0 .412-.101.757-.303 1.034a1.827 1.827 0 01-.838.624 3.296 3.296 0 01-1.225.211zm.029-2.994a.913.913 0 00.547-.161c.152-.109.267-.264.347-.466a1.96 1.96 0 00.123-.732c0-.283-.04-.529-.12-.737a1.076 1.076 0 00-.346-.488.88.88 0 00-.551-.174.87.87 0 00-.558.18 1.077 1.077 0 00-.343.491c-.078.21-.117.453-.117.728 0 .28.039.521.117.726.08.201.194.358.343.469a.93.93 0 00.558.164zm-47.742 13.207c-.254 0-.486-.062-.695-.187a1.448 1.448 0 01-.504-.504 1.344 1.344 0 01-.186-.696c0-.256.062-.489.186-.697.126-.21.294-.377.504-.501.209-.126.441-.189.695-.189a1.399 1.399 0 011.386 1.387c0 .254-.063.486-.189.696-.124.21-.291.378-.501.504-.207.125-.44.187-.696.187zm7.212 1.185v-6.455h2.545c.489 0 .906.093 1.25.28.344.185.607.442.787.772.183.328.275.706.275 1.135 0 .429-.093.807-.277 1.134a1.92 1.92 0 01-.804.766c-.348.183-.77.275-1.266.275h-1.621v-1.094h1.401c.263 0 .479-.045.648-.136a.891.891 0 00.385-.381c.086-.164.129-.352.129-.564 0-.215-.043-.402-.129-.561a.858.858 0 00-.385-.375c-.171-.091-.39-.136-.654-.136h-.92v5.34h-1.364zm7.727.094c-.489 0-.912-.104-1.269-.312a2.131 2.131 0 01-.822-.876c-.193-.376-.29-.813-.29-1.308 0-.5.097-.937.29-1.311a2.11 2.11 0 01.822-.877c.357-.21.78-.315 1.269-.315.489 0 .911.105 1.266.315.357.208.632.501.825.877.193.374.29.811.29 1.311 0 .495-.097.932-.29 1.308a2.125 2.125 0 01-.825.876c-.355.208-.777.312-1.266.312zm.006-1.04a.834.834 0 00.558-.189c.149-.129.261-.303.337-.524.077-.22.116-.471.116-.753 0-.281-.039-.532-.116-.753a1.179 1.179 0 00-.337-.523.826.826 0 00-.558-.192.857.857 0 00-.567.192 1.188 1.188 0 00-.343.523 2.337 2.337 0 00-.113.753c0 .282.038.533.113.753.078.221.192.395.343.524a.866.866 0 00.567.189zm4.932 1.024c-.367 0-.7-.094-.998-.283-.296-.192-.531-.472-.706-.842-.172-.372-.258-.828-.258-1.368 0-.554.089-1.016.268-1.384.178-.369.415-.645.711-.828.299-.185.625-.278.98-.278.271 0 .496.046.677.139.183.09.33.204.441.34.113.135.199.267.258.398h.041v-2.427h1.338v6.455h-1.322v-.776h-.057a1.722 1.722 0 01-.268.401c-.113.13-.261.238-.444.324-.18.086-.4.129-.661.129zm.425-1.068a.861.861 0 00.548-.176c.151-.12.267-.287.347-.502.081-.214.122-.465.122-.753s-.04-.538-.12-.75a1.076 1.076 0 00-.346-.492.878.878 0 00-.551-.173.867.867 0 00-.557.179c-.151.12-.266.286-.344.498a2.161 2.161 0 00-.116.738c0 .281.039.531.116.747.08.214.194.382.344.504.151.12.337.18.557.18zm5.518 1.084c-.495 0-.921-.105-1.278-.315a2.13 2.13 0 01-.819-.883c-.189-.376-.283-.809-.283-1.298 0-.496.095-.931.286-1.305.193-.376.468-.669.822-.879.355-.213.777-.319 1.266-.319.422 0 .792.077 1.109.23.317.153.567.369.752.647.185.277.287.603.306.977h-1.266a.978.978 0 00-.284-.584.81.81 0 00-.595-.224.901.901 0 00-.544.171 1.077 1.077 0 00-.36.488 2.117 2.117 0 00-.129.779c0 .309.042.572.126.788.087.216.207.381.363.495a.9.9 0 00.544.17.888.888 0 00.413-.095.793.793 0 00.305-.274c.082-.122.135-.268.161-.438h1.266c-.021.37-.122.696-.303.977a1.83 1.83 0 01-.74.656c-.315.157-.687.236-1.118.236zm4.301-.003c-.308 0-.583-.054-.824-.161a1.32 1.32 0 01-.573-.482c-.139-.215-.208-.481-.208-.801 0-.268.049-.495.148-.677a1.19 1.19 0 01.403-.442 1.97 1.97 0 01.579-.252c.218-.056.447-.096.687-.119a16.7 16.7 0 00.68-.083.962.962 0 00.374-.119.263.263 0 00.117-.233v-.019c0-.2-.063-.354-.189-.463-.124-.11-.3-.165-.529-.165-.241 0-.433.054-.576.161a.74.74 0 00-.284.397l-1.241-.101c.063-.294.188-.548.372-.762.185-.217.423-.383.715-.498a2.726 2.726 0 011.021-.177c.268 0 .525.032.771.095a2 2 0 01.658.293c.193.132.345.302.457.51.111.207.167.453.167.741v3.266h-1.272v-.672h-.039a1.35 1.35 0 01-.781.668 1.933 1.933 0 01-.633.095zm.384-.927c.198 0 .372-.039.524-.116a.94.94 0 00.356-.322.838.838 0 00.129-.457v-.513a.727.727 0 01-.174.075 3.173 3.173 0 01-.242.06c-.09.017-.181.033-.271.047l-.246.035c-.157.023-.294.06-.412.11a.654.654 0 00-.274.205.5.5 0 00-.098.315c0 .183.066.323.199.42a.866.866 0 00.509.141zm7.308-2.625l-1.228.076a.634.634 0 00-.135-.284.717.717 0 00-.274-.205.924.924 0 00-.4-.079.976.976 0 00-.526.133c-.143.086-.214.201-.214.346 0 .116.046.213.139.293.092.08.251.145.475.193l.875.176c.471.097.821.252 1.052.467.231.214.347.496.347.844 0 .317-.093.596-.281.835-.184.24-.438.427-.762.561a2.887 2.887 0 01-1.111.199c-.641 0-1.151-.133-1.531-.4a1.563 1.563 0 01-.664-1.097l1.319-.069c.04.195.136.344.29.447.153.101.35.151.589.151.235 0 .424-.045.567-.135.145-.093.218-.211.22-.356a.373.373 0 00-.154-.3c-.101-.08-.256-.141-.466-.183l-.838-.167c-.472-.094-.824-.258-1.055-.491-.229-.234-.343-.531-.343-.892 0-.311.084-.579.252-.804.17-.225.408-.398.715-.52a2.931 2.931 0 011.083-.183c.611 0 1.092.129 1.442.388.353.258.559.61.617 1.056zm3.431-1.381v1.009h-2.913v-1.009h2.913zm-2.252-1.16h1.342v4.514c0 .124.018.221.057.29a.31.31 0 00.157.142c.069.027.149.04.239.04.063 0 .126-.005.189-.015l.145-.028.211.999a3.598 3.598 0 01-.283.072 2.28 2.28 0 01-.444.054 2.045 2.045 0 01-.851-.13 1.18 1.18 0 01-.563-.46c-.135-.208-.201-.471-.199-.788v-4.69zm3.028 6.002v-4.842h1.342v4.842h-1.342zm.674-5.466a.728.728 0 01-.513-.198.644.644 0 01-.211-.483.63.63 0 01.211-.476.722.722 0 01.513-.201c.2 0 .37.067.51.201a.64.64 0 010 .959.716.716 0 01-.51.198zm2.987 2.667v2.799h-1.342v-4.842h1.278v.854h.057c.107-.281.287-.504.539-.668.252-.166.557-.249.916-.249.336 0 .629.074.879.221.249.147.444.357.582.63.139.271.208.595.208.971v3.083h-1.342v-2.843c.003-.297-.073-.528-.226-.694-.153-.168-.364-.252-.633-.252-.18 0-.34.039-.479.117a.806.806 0 00-.321.34 1.188 1.188 0 00-.116.533zm6.256 4.715c-.435 0-.807-.06-1.118-.18a1.846 1.846 0 01-.737-.482 1.484 1.484 0 01-.355-.687l1.24-.167a.812.812 0 00.18.271c.082.084.19.151.324.202.137.052.302.078.498.078.292 0 .532-.071.721-.214.191-.141.286-.377.286-.709v-.885h-.056a1.281 1.281 0 01-.718.673 1.736 1.736 0 01-.662.114c-.363 0-.693-.084-.991-.252a1.807 1.807 0 01-.709-.778c-.174-.352-.261-.795-.261-1.331 0-.548.089-1.006.267-1.374.179-.368.416-.643.712-.826.298-.182.625-.274.979-.274.271 0 .498.046.68.139.183.09.33.204.441.34.114.135.201.267.262.398h.05v-.814h1.332v4.889c0 .412-.1.756-.302 1.034a1.827 1.827 0 01-.838.624 3.3 3.3 0 01-1.225.211zm.028-2.994a.914.914 0 00.548-.161c.152-.109.267-.265.347-.467.082-.203.123-.447.123-.731 0-.283-.04-.53-.12-.738a1.087 1.087 0 00-.346-.488.88.88 0 00-.552-.173.87.87 0 00-.557.179 1.085 1.085 0 00-.343.492c-.078.21-.117.453-.117.728 0 .28.039.521.117.725.079.202.194.359.343.47a.93.93 0 00.557.164zm-51.965 13.206c-.254 0-.486-.062-.695-.186a1.448 1.448 0 01-.504-.504 1.345 1.345 0 01-.186-.697c0-.256.062-.488.186-.696.126-.211.294-.377.504-.501.209-.127.441-.189.695-.189.256 0 .489.062.696.189.21.124.377.29.501.501.126.208.189.44.189.696 0 .255-.063.487-.189.697-.124.21-.291.378-.501.504a1.33 1.33 0 01-.696.186zm7.212 1.185v-6.455h1.364v2.664h2.768v-2.664h1.36v6.455h-1.36v-2.666h-2.768v2.666h-1.364zm8.68.095c-.489 0-.912-.104-1.269-.312a2.128 2.128 0 01-.822-.877c-.194-.376-.29-.812-.29-1.308 0-.5.096-.937.29-1.311.193-.376.467-.668.822-.876.357-.21.78-.315 1.269-.315.489 0 .911.105 1.266.315.357.208.632.5.825.876.193.374.289.811.289 1.311 0 .496-.096.932-.289 1.308a2.122 2.122 0 01-.825.877c-.355.208-.777.312-1.266.312zm.006-1.041a.836.836 0 00.558-.188c.149-.129.261-.303.337-.524.077-.22.116-.471.116-.753 0-.281-.039-.533-.116-.754a1.179 1.179 0 00-.337-.523.828.828 0 00-.558-.192.857.857 0 00-.567.192 1.188 1.188 0 00-.343.523 2.342 2.342 0 00-.114.754c0 .282.039.533.114.753.078.221.192.395.343.524a.866.866 0 00.567.188zm7.174-2.515l-1.228.076a.646.646 0 00-.136-.284.711.711 0 00-.273-.204.928.928 0 00-.401-.079.985.985 0 00-.526.132c-.142.086-.214.202-.214.347 0 .115.046.213.139.293.093.08.251.144.476.192l.875.177c.47.096.821.252 1.052.466.231.215.346.496.346.845 0 .317-.093.595-.28.835-.185.24-.439.427-.762.561a2.888 2.888 0 01-1.112.199c-.64 0-1.15-.134-1.531-.4a1.563 1.563 0 01-.664-1.097l1.32-.069a.675.675 0 00.289.447c.153.101.35.151.589.151.236 0 .425-.045.567-.135.145-.093.218-.212.221-.356a.374.374 0 00-.155-.3c-.1-.08-.256-.141-.466-.183l-.838-.167c-.472-.094-.824-.259-1.054-.492-.229-.233-.344-.53-.344-.892 0-.311.084-.579.252-.803.17-.225.409-.399.715-.52.309-.122.67-.183 1.083-.183.611 0 1.092.129 1.443.388.352.258.558.61.617 1.055zm3.43-1.38v1.009h-2.913V298.6h2.913zm-2.251-1.16h1.341v4.513c0 .125.019.221.057.291.038.067.09.114.157.142.07.027.15.04.239.04.064 0 .127-.005.189-.015l.146-.029.21.999a4.011 4.011 0 01-.283.073c-.122.029-.27.047-.444.053a2.025 2.025 0 01-.85-.129 1.184 1.184 0 01-.564-.46c-.135-.208-.201-.471-.198-.788v-4.69zm3.028 6.001V298.6h1.341v4.841h-1.341zm.674-5.465a.732.732 0 01-.514-.199.645.645 0 01-.211-.482c0-.185.071-.344.211-.476a.726.726 0 01.514-.202.71.71 0 01.509.202.639.639 0 010 .958.716.716 0 01-.509.199zm2.986 2.667v2.798h-1.342V298.6h1.279v.854h.057c.107-.281.286-.504.538-.668.252-.166.558-.249.917-.249.336 0 .628.074.878.221.25.147.444.357.583.63.138.271.208.594.208.971v3.082h-1.342v-2.843c.002-.296-.073-.527-.227-.693-.153-.168-.364-.253-.633-.253-.18 0-.34.04-.478.117a.811.811 0 00-.322.341 1.188 1.188 0 00-.116.533zm6.256 4.715c-.434 0-.807-.06-1.118-.18a1.842 1.842 0 01-.736-.482 1.476 1.476 0 01-.356-.687l1.24-.167a.824.824 0 00.18.27c.082.085.19.152.324.202.137.053.303.079.498.079.292 0 .532-.071.721-.214.191-.141.287-.377.287-.709v-.886h-.057a1.296 1.296 0 01-.718.674 1.734 1.734 0 01-.661.114c-.364 0-.694-.084-.992-.253a1.796 1.796 0 01-.709-.778c-.174-.351-.261-.794-.261-1.33 0-.548.089-1.006.268-1.374.178-.368.415-.643.711-.826a1.84 1.84 0 01.98-.274c.27 0 .497.046.68.139.183.09.33.204.44.34.114.134.201.267.262.397h.051v-.813h1.331v4.888c0 .413-.1.757-.302 1.034-.201.278-.48.486-.837.624a3.301 3.301 0 01-1.226.212zm.029-2.995a.915.915 0 00.548-.16c.151-.11.266-.265.346-.467.082-.204.123-.448.123-.731 0-.284-.04-.53-.119-.738a1.078 1.078 0 00-.347-.488.878.878 0 00-.551-.174c-.22 0-.406.06-.557.18a1.081 1.081 0 00-.344.491 2.096 2.096 0 00-.116.729c0 .279.038.521.116.725.08.201.195.358.344.469a.927.927 0 00.557.164zm6.641 1.17c-.309 0-.584-.054-.825-.161a1.32 1.32 0 01-.573-.482c-.139-.215-.208-.482-.208-.801 0-.269.049-.495.148-.678.099-.183.233-.33.403-.441a1.97 1.97 0 01.579-.252c.219-.057.448-.096.687-.12.282-.029.508-.056.68-.082.172-.027.297-.067.375-.12a.262.262 0 00.117-.233v-.019c0-.199-.064-.353-.189-.463-.125-.109-.301-.164-.53-.164-.241 0-.433.054-.576.161a.735.735 0 00-.283.397l-1.241-.101c.063-.294.187-.548.372-.763.184-.216.423-.382.715-.498a2.741 2.741 0 011.02-.176c.268 0 .525.031.772.095.247.062.466.16.657.293.194.132.346.302.457.51.112.206.167.453.167.741v3.265h-1.272v-.671h-.038a1.37 1.37 0 01-.312.4c-.13.114-.286.203-.469.268a1.942 1.942 0 01-.633.095zm.384-.927c.198 0 .372-.039.523-.117a.938.938 0 00.356-.321.832.832 0 00.129-.457v-.514a.733.733 0 01-.173.076 3.207 3.207 0 01-.243.06l-.271.047-.245.035c-.158.023-.295.06-.413.11a.646.646 0 00-.274.205.5.5 0 00-.097.315c0 .182.065.322.198.419a.86.86 0 00.51.142zm6.579-5.62v6.455h-1.341v-6.455h1.341zm.978 6.455V298.6h1.341v4.841h-1.341zm.674-5.465a.732.732 0 01-.514-.199.644.644 0 01-.21-.482c0-.185.07-.344.21-.476a.726.726 0 01.514-.202c.199 0 .369.068.51.202a.625.625 0 01.214.476.638.638 0 01-.214.482.72.72 0 01-.51.199zm6.154.624l-1.691 4.841H168.5l-1.691-4.841h1.416l1.005 3.464h.051l1.001-3.464h1.42zm2.638 4.936c-.498 0-.926-.101-1.285-.303a2.06 2.06 0 01-.825-.864c-.193-.373-.29-.816-.29-1.326 0-.499.097-.935.29-1.312.193-.376.465-.669.816-.879.352-.21.766-.315 1.24-.315.319 0 .616.051.891.155a1.98 1.98 0 011.21 1.226c.115.306.173.665.173 1.077v.369h-4.085v-.832h2.822c0-.193-.042-.365-.126-.513a.895.895 0 00-.35-.351.995.995 0 00-.513-.129c-.203 0-.384.047-.541.142a.998.998 0 00-.366.375 1.062 1.062 0 00-.135.52v.791c0 .24.044.447.132.621.09.175.217.309.381.404.164.094.358.142.583.142.149 0 .285-.021.409-.064a.826.826 0 00.52-.498l1.24.082c-.062.299-.191.56-.387.782a1.942 1.942 0 01-.749.517 2.823 2.823 0 01-1.055.183zm5.907-.095l-1.316-4.841h1.357l.749 3.252h.044l.782-3.252h1.332l.793 3.234h.041l.737-3.234h1.354l-1.313 4.841h-1.42l-.831-3.045h-.06l-.832 3.045h-1.417zm8.574.095c-.497 0-.925-.101-1.284-.303a2.068 2.068 0 01-.826-.864c-.192-.373-.289-.816-.289-1.326 0-.499.097-.935.289-1.312.194-.376.465-.669.816-.879.353-.21.766-.315 1.241-.315.319 0 .616.051.891.155.277.1.519.253.724.456.208.204.37.461.485.77.116.306.174.665.174 1.077v.369h-4.085v-.832h2.822c0-.193-.042-.365-.126-.513a.902.902 0 00-.35-.351.995.995 0 00-.513-.129 1.03 1.03 0 00-.542.142.995.995 0 00-.365.375 1.062 1.062 0 00-.135.52v.791c0 .24.044.447.132.621.09.175.217.309.381.404.164.094.358.142.583.142.149 0 .285-.021.409-.064a.814.814 0 00.52-.498l1.241.082c-.064.299-.193.56-.388.782a1.939 1.939 0 01-.75.517 2.816 2.816 0 01-1.055.183zm3.024-.095v-6.455h1.341v2.427h.041c.059-.13.144-.263.255-.397a1.36 1.36 0 01.441-.34 1.49 1.49 0 01.68-.139c.353 0 .678.092.977.277.298.183.536.46.715.829.178.368.267.829.267 1.384 0 .54-.087.996-.261 1.368-.172.369-.407.65-.705.842a1.811 1.811 0 01-.996.283c-.26 0-.481-.043-.664-.129a1.353 1.353 0 01-.444-.325 1.621 1.621 0 01-.265-.4h-.06v.775h-1.322zm1.313-2.421c0 .288.04.54.12.754.08.214.195.381.346.501a.868.868 0 00.551.177c.218 0 .404-.06.554-.18.152-.122.266-.29.344-.504.08-.217.12-.466.12-.748 0-.279-.04-.525-.117-.737a1.104 1.104 0 00-.343-.498.87.87 0 00-.558-.18.883.883 0 00-.554.174 1.085 1.085 0 00-.343.491c-.08.213-.12.462-.12.75zm6.157 2.421V298.6h1.301v.844h.05c.088-.3.236-.527.444-.68.208-.156.447-.233.718-.233.067 0 .139.004.217.012.078.009.146.02.205.035v1.191a1.779 1.779 0 00-.262-.05 2.278 2.278 0 00-.305-.022c-.197 0-.374.043-.529.129a.961.961 0 00-.366.353 1.018 1.018 0 00-.131.523v2.739h-1.342zm4.772.092c-.309 0-.584-.054-.825-.161a1.329 1.329 0 01-.574-.482c-.138-.215-.207-.482-.207-.801 0-.269.049-.495.148-.678.098-.183.233-.33.403-.441a1.97 1.97 0 01.579-.252c.219-.057.448-.096.686-.12.282-.029.509-.056.681-.082.172-.027.297-.067.375-.12a.263.263 0 00.116-.233v-.019c0-.199-.063-.353-.189-.463-.123-.109-.3-.164-.529-.164-.241 0-.434.054-.576.161a.735.735 0 00-.283.397l-1.241-.101a1.7 1.7 0 01.371-.763 1.8 1.8 0 01.715-.498 2.745 2.745 0 011.02-.176c.269 0 .526.031.772.095.248.062.467.16.658.293.193.132.346.302.457.51.111.206.167.453.167.741v3.265h-1.273v-.671h-.037a1.37 1.37 0 01-.312.4c-.13.114-.287.203-.469.268a1.942 1.942 0 01-.633.095zm.384-.927c.197 0 .371-.039.523-.117a.921.921 0 00.355-.321.824.824 0 00.13-.457v-.514a.752.752 0 01-.173.076 3.33 3.33 0 01-.514.107l-.246.035c-.157.023-.295.06-.412.11a.646.646 0 00-.274.205.5.5 0 00-.097.315c0 .182.066.322.198.419a.86.86 0 00.51.142zm5.065.914c-.367 0-.7-.094-.998-.283-.296-.192-.531-.473-.705-.842-.172-.372-.258-.828-.258-1.368 0-.555.089-1.016.268-1.384.177-.369.415-.646.711-.829a1.82 1.82 0 01.98-.277c.27 0 .496.046.676.139.183.09.33.204.441.34.114.134.2.267.259.397h.04v-2.427h1.339v6.455h-1.323v-.775h-.056a1.728 1.728 0 01-.268.4 1.332 1.332 0 01-.444.325 1.532 1.532 0 01-.662.129zm.425-1.068a.859.859 0 00.549-.177c.151-.12.266-.287.346-.501.082-.214.123-.466.123-.754s-.04-.537-.12-.75a1.068 1.068 0 00-.346-.491.88.88 0 00-.552-.174c-.22 0-.406.06-.557.18-.151.12-.265.286-.343.498a2.13 2.13 0 00-.117.737c0 .282.039.531.117.748.08.214.194.382.343.504.151.12.337.18.557.18zm3.333.989V298.6h1.342v4.841h-1.342zm.674-5.465a.731.731 0 01-.513-.199.642.642 0 01-.211-.482c0-.185.07-.344.211-.476a.725.725 0 01.513-.202c.2 0 .37.068.511.202a.641.641 0 010 .958.721.721 0 01-.511.199zm3.831 5.56c-.49 0-.913-.104-1.27-.312a2.14 2.14 0 01-.822-.877c-.192-.376-.289-.812-.289-1.308 0-.5.097-.937.289-1.311a2.12 2.12 0 01.822-.876c.357-.21.78-.315 1.27-.315.488 0 .911.105 1.266.315.357.208.631.5.825.876.193.374.289.811.289 1.311 0 .496-.096.932-.289 1.308a2.128 2.128 0 01-.825.877c-.355.208-.778.312-1.266.312zm.006-1.041a.831.831 0 00.557-.188c.149-.129.261-.303.337-.524.078-.22.117-.471.117-.753a2.26 2.26 0 00-.117-.754 1.179 1.179 0 00-.337-.523.824.824 0 00-.557-.192.854.854 0 00-.567.192 1.18 1.18 0 00-.343.523 2.316 2.316 0 00-.113.754c0 .282.037.533.113.753.077.221.192.395.343.524a.862.862 0 00.567.188zm9.129-2.515l-1.228.076a.646.646 0 00-.136-.284.707.707 0 00-.274-.204.92.92 0 00-.4-.079.987.987 0 00-.526.132c-.143.086-.214.202-.214.347 0 .115.047.213.139.293.092.08.251.144.475.192l.876.177c.47.096.821.252 1.052.466.23.215.346.496.346.845 0 .317-.093.595-.28.835-.185.24-.439.427-.762.561a2.892 2.892 0 01-1.112.199c-.64 0-1.151-.134-1.53-.4a1.56 1.56 0 01-.665-1.097l1.32-.069c.04.195.136.344.289.447.153.101.35.151.589.151.235 0 .424-.045.567-.135.145-.093.219-.212.22-.356a.368.368 0 00-.154-.3c-.101-.08-.256-.141-.466-.183l-.837-.167c-.473-.094-.825-.259-1.056-.492-.229-.233-.343-.53-.343-.892 0-.311.084-.579.252-.803a1.61 1.61 0 01.715-.52c.308-.122.67-.183 1.083-.183.611 0 1.092.129 1.442.388.353.258.559.61.618 1.055zm2.199.663v2.798h-1.342v-6.455h1.304v2.468h.057c.109-.286.285-.509.529-.671.243-.164.549-.246.916-.246.336 0 .629.074.879.221.252.144.447.354.585.627.141.271.21.595.208.974v3.082h-1.341v-2.843c.002-.298-.074-.53-.227-.697-.151-.165-.363-.249-.636-.249a.994.994 0 00-.485.117.824.824 0 00-.328.341 1.162 1.162 0 00-.119.533zm6.28 2.893c-.489 0-.912-.104-1.269-.312a2.128 2.128 0 01-.822-.877c-.193-.376-.29-.812-.29-1.308 0-.5.097-.937.29-1.311.193-.376.467-.668.822-.876.357-.21.78-.315 1.269-.315.489 0 .911.105 1.266.315.357.208.632.5.825.876.193.374.29.811.29 1.311 0 .496-.097.932-.29 1.308a2.122 2.122 0 01-.825.877c-.355.208-.777.312-1.266.312zm.007-1.041a.833.833 0 00.557-.188c.149-.129.261-.303.337-.524.077-.22.116-.471.116-.753 0-.281-.039-.533-.116-.754a1.179 1.179 0 00-.337-.523.825.825 0 00-.557-.192.854.854 0 00-.567.192 1.171 1.171 0 00-.343.523 2.315 2.315 0 00-.114.754c0 .282.038.533.114.753.077.221.191.395.343.524a.862.862 0 00.567.188zm3.981.946l-1.316-4.841h1.357l.75 3.252h.044l.781-3.252h1.333l.793 3.234h.041l.737-3.234h1.354l-1.313 4.841h-1.421l-.831-3.045h-.06l-.831 3.045h-1.418zM113.068 315.57c-.254 0-.486-.062-.695-.186a1.442 1.442 0 01-.504-.505 1.34 1.34 0 01-.186-.696c0-.256.062-.489.186-.697.126-.21.294-.377.504-.5.209-.127.441-.19.695-.19.256 0 .489.063.696.19a1.388 1.388 0 01.69 1.197c0 .254-.063.487-.189.696a1.418 1.418 0 01-.501.505 1.33 1.33 0 01-.696.186zm11.196-5.27h1.364v4.192c0 .471-.113.882-.337 1.236a2.264 2.264 0 01-.935.825c-.402.196-.869.293-1.402.293-.535 0-1.003-.097-1.405-.293a2.264 2.264 0 01-.935-.825 2.275 2.275 0 01-.334-1.236V310.3h1.364v4.075c0 .246.053.464.16.656.11.191.263.342.46.451.198.109.428.163.69.163.265 0 .494-.054.69-.163a1.15 1.15 0 00.456-.451c.109-.192.164-.41.164-.656V310.3zm6.388 2.994l-1.229.076a.64.64 0 00-.135-.284.727.727 0 00-.274-.205.938.938 0 00-.4-.079.985.985 0 00-.526.133c-.142.086-.214.201-.214.347 0 .115.046.213.139.293.092.08.25.144.475.192l.875.177c.471.096.821.251 1.052.466.232.214.347.496.347.844 0 .318-.094.596-.281.836a1.818 1.818 0 01-.762.561 2.902 2.902 0 01-1.111.198c-.641 0-1.151-.133-1.531-.4a1.558 1.558 0 01-.664-1.096l1.319-.07c.04.195.137.345.29.447.153.101.35.152.589.152.235 0 .424-.045.567-.136.144-.092.218-.211.22-.356a.367.367 0 00-.154-.299c-.101-.08-.256-.141-.466-.183l-.838-.167c-.472-.095-.824-.259-1.055-.492-.229-.233-.343-.53-.343-.892 0-.311.084-.579.252-.804.17-.224.408-.398.715-.519a2.935 2.935 0 011.083-.183c.611 0 1.092.129 1.443.387a1.5 1.5 0 01.617 1.056zm.857 3.461v-4.841h1.342v4.841h-1.342zm.674-5.465a.73.73 0 01-.513-.199.644.644 0 01-.211-.483c0-.184.07-.343.211-.476a.722.722 0 01.513-.201c.199 0 .37.067.51.201a.628.628 0 01.214.476.64.64 0 01-.214.483.719.719 0 01-.51.199zm2.986 2.666v2.799h-1.341v-4.841h1.278v.853h.057a1.35 1.35 0 01.538-.667c.253-.166.558-.249.917-.249.336 0 .629.073.879.22.25.147.444.358.582.63.139.272.208.595.208.971v3.083h-1.341v-2.843c.001-.296-.074-.528-.228-.694-.153-.168-.364-.252-.633-.252a.96.96 0 00-.478.117.812.812 0 00-.321.34 1.175 1.175 0 00-.117.533zm6.257 4.716c-.435 0-.807-.06-1.118-.18a1.865 1.865 0 01-.737-.483 1.476 1.476 0 01-.356-.687l1.241-.167a.824.824 0 00.504.473c.137.053.302.079.497.079.292 0 .533-.072.721-.214.192-.141.287-.377.287-.71v-.885h-.057a1.26 1.26 0 01-.264.381c-.117.12-.269.217-.453.293a1.736 1.736 0 01-.662.114 1.99 1.99 0 01-.992-.253 1.808 1.808 0 01-.709-.778c-.174-.351-.261-.794-.261-1.33 0-.548.09-1.007.268-1.374.179-.368.416-.643.712-.826.298-.183.624-.274.979-.274a1.5 1.5 0 01.68.138c.183.091.33.204.441.341.113.134.2.267.261.397h.051v-.813h1.332v4.888c0 .412-.101.757-.302 1.034a1.827 1.827 0 01-.838.624 3.3 3.3 0 01-1.225.212zm.029-2.995a.913.913 0 00.547-.161 1.02 1.02 0 00.347-.466c.082-.204.123-.448.123-.731 0-.284-.04-.53-.12-.738a1.07 1.07 0 00-.347-.488.875.875 0 00-.55-.174.869.869 0 00-.558.18 1.07 1.07 0 00-.343.491c-.078.21-.117.453-.117.729 0 .279.039.52.117.725.08.201.194.358.343.469a.928.928 0 00.558.164zm9.563-3.291a1.4 1.4 0 00-.186-.406 1.246 1.246 0 00-.683-.495 1.657 1.657 0 00-.482-.066c-.33 0-.62.081-.87.246-.247.163-.44.402-.579.715-.138.311-.208.691-.208 1.141 0 .45.069.832.205 1.148.137.315.33.555.58.721.25.164.544.246.884.246.309 0 .573-.055.791-.164a1.18 1.18 0 00.504-.469c.117-.202.176-.441.176-.716l.277.041h-1.662v-1.027h2.698v.813c0 .567-.119 1.054-.359 1.462a2.444 2.444 0 01-.989.939c-.419.219-.9.328-1.442.328-.605 0-1.136-.133-1.593-.4a2.78 2.78 0 01-1.071-1.144c-.254-.496-.381-1.085-.381-1.765 0-.524.075-.99.227-1.4.153-.412.367-.761.642-1.046a2.78 2.78 0 01.961-.653 3.112 3.112 0 011.187-.223c.365 0 .705.053 1.02.16.315.106.594.255.838.448.245.193.446.423.601.69.156.265.256.557.299.876h-1.385zm4.532 4.463c-.489 0-.912-.104-1.269-.312a2.138 2.138 0 01-.822-.876c-.193-.376-.29-.812-.29-1.308 0-.5.097-.937.29-1.311.194-.376.467-.668.822-.876.357-.211.78-.315 1.269-.315.489 0 .912.104 1.266.315.357.208.632.5.826.876.193.374.289.811.289 1.311 0 .496-.096.932-.289 1.308a2.134 2.134 0 01-.826.876c-.354.208-.777.312-1.266.312zm.007-1.04a.838.838 0 00.557-.188c.149-.129.261-.303.337-.524a2.25 2.25 0 00.117-.753c0-.282-.039-.533-.117-.754a1.179 1.179 0 00-.337-.523.825.825 0 00-.557-.192.854.854 0 00-.567.192 1.19 1.19 0 00-.344.523 2.339 2.339 0 00-.113.754c0 .281.038.533.113.753.078.221.193.395.344.524a.867.867 0 00.567.188zm5.334 1.04c-.489 0-.911-.104-1.268-.312a2.125 2.125 0 01-.822-.876c-.194-.376-.29-.812-.29-1.308 0-.5.096-.937.29-1.311.193-.376.466-.668.822-.876.357-.211.779-.315 1.268-.315.49 0 .911.104 1.266.315.357.208.633.5.825.876.194.374.29.811.29 1.311 0 .496-.096.932-.29 1.308a2.12 2.12 0 01-.825.876c-.355.208-.776.312-1.266.312zm.007-1.04a.838.838 0 00.557-.188c.149-.129.262-.303.337-.524a2.25 2.25 0 00.117-.753c0-.282-.039-.533-.117-.754a1.17 1.17 0 00-.337-.523.825.825 0 00-.557-.192.854.854 0 00-.567.192 1.18 1.18 0 00-.343.523 2.31 2.31 0 00-.114.754c0 .281.038.533.114.753.077.221.192.395.343.524a.867.867 0 00.567.188zm5.328 2.863c-.435 0-.807-.06-1.118-.18a1.865 1.865 0 01-.737-.483 1.474 1.474 0 01-.355-.687l1.24-.167a.812.812 0 00.18.271.87.87 0 00.324.202c.137.053.303.079.498.079.292 0 .532-.072.721-.214.191-.141.286-.377.286-.71v-.885h-.056a1.281 1.281 0 01-.265.381c-.117.12-.268.217-.453.293a1.734 1.734 0 01-.661.114c-.364 0-.694-.085-.992-.253a1.808 1.808 0 01-.709-.778c-.174-.351-.261-.794-.261-1.33 0-.548.089-1.007.267-1.374.179-.368.416-.643.712-.826.298-.183.625-.274.979-.274a1.5 1.5 0 01.68.138c.183.091.33.204.442.341.113.134.2.267.261.397h.05v-.813h1.333v4.888c0 .412-.101.757-.303 1.034a1.827 1.827 0 01-.838.624 3.296 3.296 0 01-1.225.212zm.029-2.995a.913.913 0 00.547-.161c.152-.109.267-.264.347-.466.082-.204.123-.448.123-.731 0-.284-.04-.53-.12-.738a1.076 1.076 0 00-.346-.488.88.88 0 00-.551-.174.87.87 0 00-.558.18 1.077 1.077 0 00-.343.491c-.078.21-.117.453-.117.729 0 .279.039.52.117.725.08.201.194.358.343.469a.93.93 0 00.558.164zm4.648-5.377v6.455h-1.341V310.3h1.341zm3.181 6.549c-.497 0-.925-.1-1.284-.302a2.08 2.08 0 01-.826-.864c-.193-.374-.289-.816-.289-1.327 0-.498.096-.934.289-1.311.194-.376.466-.669.816-.879.353-.211.767-.315 1.241-.315.319 0 .616.051.891.154.277.101.519.253.724.457.208.204.37.46.485.769.116.307.174.666.174 1.078v.369h-4.085v-.832h2.822c0-.194-.042-.365-.126-.514a.899.899 0 00-.35-.35.997.997 0 00-.513-.129 1.03 1.03 0 00-.542.142.988.988 0 00-.365.375 1.06 1.06 0 00-.135.52v.791c0 .239.043.446.132.621.09.174.217.309.381.403.163.095.358.142.582.142.15 0 .286-.021.41-.063a.82.82 0 00.519-.498l1.241.082a1.698 1.698 0 01-.387.782c-.193.22-.443.392-.749.517a2.829 2.829 0 01-1.056.182zm4.979-6.549h1.681l1.777 4.337h.075l1.776-4.337h1.682v6.455h-1.323v-4.202h-.053l-1.67 4.17h-.9l-1.669-4.185h-.054v4.217h-1.322V310.3zm10.196 6.549c-.497 0-.926-.1-1.285-.302a2.071 2.071 0 01-.825-.864c-.193-.374-.29-.816-.29-1.327 0-.498.097-.934.29-1.311.193-.376.465-.669.816-.879.353-.211.766-.315 1.241-.315.319 0 .616.051.891.154.277.101.519.253.724.457.208.204.369.46.485.769.115.307.173.666.173 1.078v.369h-4.084v-.832h2.822c0-.194-.043-.365-.126-.514a.912.912 0 00-.35-.35.997.997 0 00-.513-.129 1.03 1.03 0 00-.542.142.99.99 0 00-.366.375 1.06 1.06 0 00-.135.52v.791c0 .239.045.446.133.621.09.174.217.309.38.403.164.095.358.142.583.142.149 0 .285-.021.41-.063a.82.82 0 00.519-.498l1.241.082a1.69 1.69 0 01-.388.782c-.192.22-.442.392-.749.517a2.82 2.82 0 01-1.055.182zm5.203 0c-.498 0-.926-.1-1.285-.302a2.071 2.071 0 01-.825-.864c-.193-.374-.29-.816-.29-1.327 0-.498.097-.934.29-1.311.193-.376.465-.669.815-.879.353-.211.766-.315 1.241-.315.319 0 .616.051.891.154.277.101.519.253.724.457.208.204.37.46.485.769.116.307.174.666.174 1.078v.369h-4.085v-.832h2.822c0-.194-.042-.365-.126-.514a.906.906 0 00-.35-.35.995.995 0 00-.513-.129c-.203 0-.384.047-.541.142a.984.984 0 00-.366.375 1.06 1.06 0 00-.135.52v.791c0 .239.044.446.132.621.09.174.217.309.381.403.164.095.358.142.583.142.149 0 .285-.021.409-.063a.822.822 0 00.52-.498l1.241.082a1.7 1.7 0 01-.388.782 1.96 1.96 0 01-.75.517 2.814 2.814 0 01-1.054.182zm5.57-4.935v1.008h-2.912v-1.008h2.912zm-2.251-1.16h1.341v4.513c0 .124.019.221.057.29.038.067.09.115.158.142a.654.654 0 00.239.041c.063 0 .126-.005.189-.016l.145-.028.211.999a4.066 4.066 0 01-.284.073c-.122.029-.27.047-.444.053a2.04 2.04 0 01-.85-.129 1.19 1.19 0 01-.564-.46c-.134-.208-.2-.471-.198-.788v-4.69zm4.486 5.118l-.035.347c-.027.277-.08.554-.157.829a8.212 8.212 0 01-.24.753c-.081.225-.148.402-.198.53h-.869c.032-.124.075-.297.129-.52.055-.221.106-.469.155-.744.048-.275.078-.556.091-.842l.016-.353h1.108zm2.737.883v-.81l3.218-4.52h-3.225V310.3h4.938v.81l-3.221 4.52h3.228v1.125h-4.938zm8.047.094c-.489 0-.912-.104-1.269-.312a2.131 2.131 0 01-.822-.876c-.193-.376-.29-.812-.29-1.308 0-.5.097-.937.29-1.311.193-.376.467-.668.822-.876.357-.211.78-.315 1.269-.315.489 0 .911.104 1.266.315.357.208.632.5.825.876.193.374.29.811.29 1.311 0 .496-.097.932-.29 1.308a2.125 2.125 0 01-.825.876c-.355.208-.777.312-1.266.312zm.006-1.04a.84.84 0 00.558-.188c.149-.129.261-.303.337-.524.077-.22.116-.472.116-.753 0-.282-.039-.533-.116-.754a1.179 1.179 0 00-.337-.523.828.828 0 00-.558-.192.85.85 0 00-.566.192 1.181 1.181 0 00-.344.523 2.312 2.312 0 00-.113.754c0 .281.037.533.113.753.078.221.192.395.344.524a.863.863 0 00.566.188zm5.335 1.04c-.489 0-.912-.104-1.269-.312a2.131 2.131 0 01-.822-.876c-.193-.376-.29-.812-.29-1.308 0-.5.097-.937.29-1.311.193-.376.467-.668.822-.876.357-.211.78-.315 1.269-.315.489 0 .911.104 1.266.315.357.208.632.5.825.876.193.374.29.811.29 1.311 0 .496-.097.932-.29 1.308a2.125 2.125 0 01-.825.876c-.355.208-.777.312-1.266.312zm.006-1.04a.839.839 0 00.558-.188c.149-.129.261-.303.337-.524.078-.22.116-.472.116-.753 0-.282-.038-.533-.116-.754a1.179 1.179 0 00-.337-.523.826.826 0 00-.558-.192.857.857 0 00-.567.192c-.15.128-.265.303-.343.523a2.339 2.339 0 00-.113.754c0 .281.038.533.113.753a1.2 1.2 0 00.343.524.871.871 0 00.567.188zm3.15.946v-4.841h1.278v.853h.057c.101-.283.269-.507.504-.671.235-.163.516-.245.844-.245.331 0 .614.083.847.249.233.163.388.386.466.667h.05c.099-.277.277-.498.536-.664.26-.168.568-.252.923-.252.451 0 .817.144 1.099.432.283.285.425.691.425 1.216v3.256h-1.339v-2.991c0-.269-.071-.471-.214-.605a.748.748 0 00-.535-.202c-.244 0-.434.078-.57.233-.137.153-.205.356-.205.608v2.957h-1.301v-3.019c0-.238-.068-.427-.204-.568a.7.7 0 00-.532-.211.74.74 0 00-.403.113.782.782 0 00-.281.312.999.999 0 00-.104.467v2.906h-1.341zm11.923.094c-.445 0-.829-.079-1.152-.239a1.807 1.807 0 01-.746-.649 1.696 1.696 0 01-.259-.921c0-.252.051-.476.152-.671.1-.195.241-.375.421-.539.181-.166.391-.331.63-.495l1.25-.823a1.15 1.15 0 00.356-.324.671.671 0 00.114-.375.51.51 0 00-.155-.356c-.102-.11-.249-.163-.438-.161a.61.61 0 00-.544.303.59.59 0 00-.076.296c0 .134.038.271.114.409.075.139.176.286.302.442l.412.497 3.059 3.512h-1.399l-2.551-2.843a18.663 18.663 0 01-.504-.599 3.506 3.506 0 01-.416-.668 1.817 1.817 0 01-.166-.772c0-.314.072-.595.217-.845.147-.25.353-.448.617-.593.265-.147.573-.22.926-.22.345 0 .642.07.891.211a1.478 1.478 0 01.784 1.311c0 .305-.075.581-.226.829a2.273 2.273 0 01-.63.662l-1.316.949a1.51 1.51 0 00-.397.4.734.734 0 00-.126.388c0 .153.038.29.113.413a.804.804 0 00.322.29c.138.069.301.103.487.103.227 0 .451-.051.672-.154.222-.105.424-.253.604-.444a2.249 2.249 0 00.602-1.567h1.111c0 .395-.043.751-.129 1.069-.086.315-.206.59-.359.826a2.275 2.275 0 01-.526.573 20.885 20.885 0 00-.365.227c-.24.193-.507.333-.803.42a3.096 3.096 0 01-.873.128zm9.38-4.693a.795.795 0 00-.325-.592c-.191-.141-.45-.212-.778-.212-.222 0-.41.032-.564.095a.795.795 0 00-.352.255.615.615 0 00-.12.372.53.53 0 00.073.303.755.755 0 00.223.224c.095.061.204.114.328.16.124.045.256.082.397.114l.579.139c.281.062.54.147.775.252.235.105.439.234.611.387a1.626 1.626 0 01.548 1.258 1.792 1.792 0 01-.302 1.027c-.198.288-.484.512-.857.672-.372.158-.82.236-1.345.236-.52 0-.974-.079-1.36-.239a1.99 1.99 0 01-.901-.709c-.214-.316-.326-.705-.337-1.17h1.319a.986.986 0 00.187.542c.11.143.258.252.444.325.186.072.397.107.633.107.23 0 .431-.033.601-.101a.922.922 0 00.4-.28.65.65 0 00.141-.413.534.534 0 00-.129-.366.979.979 0 00-.371-.252 3.856 3.856 0 00-.595-.189l-.703-.176c-.543-.133-.973-.34-1.288-.622-.315-.281-.471-.66-.469-1.137a1.69 1.69 0 01.312-1.024c.212-.293.503-.521.872-.684a3.06 3.06 0 011.26-.246c.478 0 .896.081 1.253.246.359.163.638.391.838.684.199.291.302.63.308 1.014h-1.306zm3.405 3.206l.003-1.611h.195l1.549-1.837h1.541l-2.082 2.433h-.318l-.888 1.015zm-1.216 1.393V310.3h1.342v6.455h-1.342zm3.023 0l-1.423-2.109.895-.948 2.1 3.057h-1.572zm2.947 1.816c-.17 0-.329-.014-.479-.041a1.807 1.807 0 01-.365-.098l.303-1.003c.157.049.299.075.425.079a.532.532 0 00.33-.088.647.647 0 00.23-.322l.079-.204-1.735-4.98h1.411l1.001 3.555h.051l1.011-3.555h1.42l-1.88 5.364a2.27 2.27 0 01-.369.681 1.502 1.502 0 01-.582.451 2.045 2.045 0 01-.851.161zm4.271 0v-6.657h1.322v.813h.06c.059-.13.144-.263.255-.397.114-.137.261-.25.441-.341.183-.092.409-.138.68-.138.353 0 .678.092.977.277.298.183.536.459.714.829.179.367.268.829.268 1.384 0 .539-.087.995-.261 1.368-.172.369-.407.65-.705.841a1.812 1.812 0 01-.996.284c-.26 0-.482-.044-.664-.13a1.365 1.365 0 01-.444-.324 1.644 1.644 0 01-.265-.401h-.041v2.592h-1.341zm1.313-4.237c0 .288.04.539.12.753.079.215.195.382.346.502a.874.874 0 00.551.176c.218 0 .403-.06.554-.179.152-.122.266-.291.344-.505.079-.216.119-.465.119-.747 0-.279-.039-.525-.116-.737a1.094 1.094 0 00-.343-.498.87.87 0 00-.558-.18.883.883 0 00-.554.174 1.078 1.078 0 00-.343.491c-.08.213-.12.462-.12.75zm6.406 2.515c-.498 0-.927-.1-1.285-.302a2.08 2.08 0 01-.826-.864c-.192-.374-.289-.816-.289-1.327 0-.498.097-.934.289-1.311.194-.376.465-.669.816-.879.353-.211.766-.315 1.241-.315.319 0 .616.051.891.154.277.101.519.253.724.457.208.204.37.46.485.769.116.307.174.666.174 1.078v.369h-4.085v-.832h2.822c0-.194-.042-.365-.126-.514a.906.906 0 00-.35-.35.997.997 0 00-.513-.129c-.203 0-.384.047-.542.142a.988.988 0 00-.365.375 1.071 1.071 0 00-.136.52v.791c0 .239.045.446.133.621.09.174.217.309.381.403.164.095.358.142.583.142.149 0 .285-.021.409-.063a.822.822 0 00.52-.498l1.24.082a1.698 1.698 0 01-.387.782 1.96 1.96 0 01-.75.517 2.814 2.814 0 01-1.054.182z" fill="#333"/></svg>