<svg width="106" height="36" fill="none" xmlns="http://www.w3.org/2000/svg"><path d="M43.343.389h1.623v.325c0 5.144.01 10.298-.01 15.443 0 1.121-.118 2.243-.61 3.285-.56 1.19-1.416 2.037-2.734 2.371-.197.05-.404.069-.59.128-.07.02-.128.108-.168.177-.02.04-.01.098-.01.157 0 3.237 0 6.473-.01 9.719 0 .197.07.305.217.394.64.403.816 1.032.718 1.642-.108.679-.59 1.082-1.289 1.25-.845.196-1.505-.374-1.74-.886-.335-.708-.09-1.574.55-1.977.197-.128.256-.256.256-.492-.01-3.197-.01-6.394 0-9.59 0-.276-.05-.364-.364-.414a3.85 3.85 0 01-1.967-.905c-.945-.816-1.437-1.869-1.594-3.078a16.163 16.163 0 01-.128-1.683c-.01-5.144-.01-10.299-.01-15.443V.418h1.555v.335c0 5.282-.01 10.564.01 15.847 0 1.032.235 2.026.875 2.872.423.56 1.013.856 1.682.964.669.108 1.338.05 1.967-.256.895-.442 1.348-1.23 1.564-2.144a7.323 7.323 0 00.187-1.672c.01-5.194.01-10.378.01-15.572.01-.128.01-.246.01-.403zM9.633 21.675H8.049c-.059-.55-.108-1.091-.167-1.682-.275.325-.492.65-.767.905-.708.679-1.554 1.043-2.548 1.102-.954.059-1.84-.089-2.646-.61C.937 20.75.475 19.777.2 18.685c-.207-.846-.227-1.711-.177-2.577.078-1.427.54-2.715 1.505-3.817.708-.816 1.583-1.397 2.537-1.888C5.05 9.9 6.003 9.34 6.751 8.504 7.4 7.766 7.793 6.93 7.803 5.937c.01-.817.06-1.643-.187-2.45-.275-.934-.787-1.682-1.82-1.849-1.71-.275-2.95.335-3.334 2.272-.138.699-.118 1.437-.128 2.155-.01.295-.088.383-.374.364-.403-.02-.806-.01-1.21-.01 0-.6-.03-1.19.01-1.77A7.38 7.38 0 01.967 3.26C1.31 1.884 2.049.792 3.426.281 4.105.035 4.823-.034 5.57.045c.502.059.984.118 1.446.324.797.354 1.368.935 1.741 1.722.394.826.61 1.701.63 2.626.01.423.059.846.059 1.269 0 4.063 0 8.115.01 12.178 0 .747.03 1.485.069 2.233-.01.413.059.826.108 1.278zM7.803 9.232a.16.16 0 01-.049-.04c-.03.05-.059.099-.098.148-.433.689-1.063 1.2-1.741 1.623-.709.453-1.466.846-2.164 1.318-1.377.935-2.066 2.263-2.066 3.925 0 .521.01 1.053.069 1.574.088.738.334 1.436.856 1.977.747.787 1.957.984 3.03.462 1.416-.688 2.075-1.908 2.144-3.432.059-1.309.01-2.617.01-3.925.01-1.2.01-2.41.01-3.63zm60.604 1.78c0 1.948.01 3.905-.01 5.853a6.32 6.32 0 01-.57 2.607c-.6 1.269-1.565 2.134-2.971 2.42-1.368.275-2.676.147-3.866-.64-.934-.62-1.466-1.524-1.741-2.587-.167-.649-.305-1.318-.305-1.987a629.74 629.74 0 010-11.4c.01-1.299.315-2.548 1.121-3.61a3.947 3.947 0 012.45-1.535c1.524-.295 2.98-.118 4.21.915.747.63 1.2 1.475 1.416 2.42.167.718.236 1.475.256 2.223.04 1.77.01 3.55.01 5.321zm-7.85-.01c0 1.781-.01 3.571.01 5.352.01.56.069 1.121.187 1.672.206.925.669 1.712 1.574 2.144.63.305 1.298.335 1.987.217 1.033-.168 1.672-.797 2.095-1.702.384-.826.433-1.721.433-2.607 0-3.58-.04-7.151-.05-10.732 0-.63-.098-1.239-.324-1.83-.325-.875-.895-1.534-1.81-1.8a3.441 3.441 0 00-1.387-.107c-.866.098-1.495.501-1.987 1.18-.521.728-.708 1.584-.728 2.46-.02 1.917 0 3.835 0 5.753zm18.64 10.683v-.393c0-5.204.01-10.398-.01-15.601 0-.925-.059-1.85-.462-2.725-.325-.708-.846-1.15-1.574-1.318a3.157 3.157 0 00-1.83.148c-.796.305-1.278.905-1.583 1.652-.325.797-.453 1.643-.453 2.508.01 5.106 0 10.21 0 15.316v.394h-1.623v-.335c0-6.876 0-13.742-.01-20.617 0-.315.089-.433.404-.394.236.02.482.02.718 0 .295-.03.413.069.393.374-.03.403-.01.797-.01 1.24.197-.247.355-.463.522-.67.62-.747 1.426-1.101 2.38-1.2a5.035 5.035 0 012.026.187 3.11 3.11 0 011.86 1.436c.482.807.688 1.702.767 2.646.226 2.932.088 5.863.118 8.784.03 2.725 0 5.46.01 8.185 0 .305-.089.403-.384.383-.423-.02-.826 0-1.259 0zM85.493 8.74v7.781c0 .875.177 1.712.6 2.498.453.846 1.18 1.29 2.095 1.397.689.089 1.377.01 1.997-.364.6-.354.974-.885 1.22-1.514.285-.728.374-1.486.374-2.253.01-5.194 0-10.378 0-15.571 0-.404 0-.404.413-.404h.905c.206 0 .315.07.315.305-.01 5.243.01 10.486-.02 15.72-.01 1.18-.167 2.36-.777 3.422-.698 1.23-1.721 1.948-3.128 2.174-.905.138-1.78.079-2.617-.216a3.887 3.887 0 01-1.996-1.555 5.772 5.772 0 01-.748-1.711 6.03 6.03 0 01-.187-1.023c-.05-.443-.069-.885-.069-1.328V.714c0-.414 0-.414.413-.414.305 0 .6.01.905 0 .227-.01.315.07.305.305-.01.768 0 1.535 0 2.302V8.74zm-38.077 6.984h1.544c0 .315-.02.64 0 .954.05.748.118 1.495.453 2.194.383.806.983 1.357 1.839 1.554 1.033.236 2.007.04 2.794-.698.491-.463.767-1.082.885-1.741.236-1.25.138-2.46-.492-3.59-.384-.69-.905-1.26-1.525-1.761-.285-.237-.55-.492-.826-.748-.885-.817-1.78-1.613-2.636-2.46-.836-.826-1.476-1.8-1.721-2.97a6.805 6.805 0 01-.04-2.784c.148-.757.394-1.456.866-2.085A3.792 3.792 0 0150.858.133c.896-.187 1.79-.197 2.696.098.954.315 1.662.886 2.144 1.761.482.886.66 1.86.679 2.853.01.403 0 .806 0 1.23h-1.623v-1.21c-.01-.905-.197-1.751-.797-2.48a2.163 2.163 0 00-1.279-.757 3.037 3.037 0 00-1.593.099c-.905.305-1.417.964-1.672 1.82a4.513 4.513 0 00.068 2.882 4.94 4.94 0 00.905 1.534c.57.65 1.25 1.21 1.889 1.81.984.934 2.017 1.82 2.941 2.813.748.807 1.19 1.8 1.367 2.912.197 1.19.148 2.35-.245 3.482-.541 1.564-1.623 2.577-3.256 2.912-1.023.206-2.056.157-3.03-.246-1.141-.472-1.86-1.338-2.282-2.479-.404-1.092-.404-2.253-.354-3.443zm57.396-9.62h-1.613c0-.295-.01-.59 0-.885.029-.65-.02-1.299-.256-1.909-.364-.944-.983-1.564-2.056-1.692-1.023-.118-1.849.177-2.518.945-.403.472-.55 1.062-.65 1.652-.117.709-.029 1.407.158 2.086.207.728.61 1.367 1.151 1.878.994.955 2.027 1.86 3.03 2.794.895.836 1.81 1.643 2.39 2.754.335.65.581 1.318.63 2.046.039.492.078.994.059 1.486-.079 1.416-.502 2.715-1.594 3.679-.629.56-1.367.885-2.213 1.003-.994.138-1.948.079-2.872-.305-.954-.393-1.604-1.112-2.027-2.026-.57-1.23-.63-2.548-.55-3.896h1.544v.787c.02.728.108 1.436.364 2.125.295.797.806 1.397 1.613 1.682 1.308.462 2.961.108 3.659-1.348.472-.964.571-2.006.384-3.079-.266-1.455-1.131-2.508-2.233-3.413-.275-.226-.531-.482-.797-.728-.63-.58-1.259-1.16-1.879-1.76-.472-.463-.944-.915-1.347-1.427a5.033 5.033 0 01-1.013-2.292c-.276-1.564-.177-3.079.688-4.456C97.434.891 98.31.33 99.363.133c1.328-.256 2.626-.187 3.767.669.639.482 1.053 1.121 1.338 1.86.393 1.12.374 2.262.344 3.442zm-83.492 0h-1.604c0-.344.02-.669 0-.994-.06-.875-.227-1.721-.738-2.449-.423-.6-.984-.934-1.721-1.033a3.001 3.001 0 00-1.614.197c-.855.354-1.318 1.062-1.514 1.908a9.86 9.86 0 00-.256 2.213c-.03 3.6-.03 7.2 0 10.801.01.915.177 1.82.718 2.607.472.688 1.121 1.062 1.967 1.092.482.02.945-.01 1.397-.207.757-.334 1.18-.964 1.456-1.712.275-.747.344-1.514.305-2.301-.01-.266.078-.354.334-.335.335.02.67.01.994 0 .206-.01.295.06.295.286.01 1.15-.099 2.301-.59 3.354-.6 1.318-1.604 2.184-3.09 2.42a5.306 5.306 0 01-2.291-.128c-.964-.276-1.702-.856-2.223-1.712-.62-1.033-.856-2.164-.866-3.354-.02-3.59-.059-7.171-.049-10.761 0-1.082.089-2.164.492-3.197.57-1.456 1.593-2.43 3.138-2.695 1.357-.237 2.675-.04 3.777.885a4.137 4.137 0 011.17 1.692c.433 1.062.571 2.292.512 3.423zm10.042 9.797h1.535c-.03.62-.04 1.22-.099 1.83a5.794 5.794 0 01-.62 2.095c-.58 1.131-1.514 1.84-2.744 2.105-.993.207-1.997.147-2.941-.256-.925-.393-1.594-1.092-2.017-1.997-.363-.767-.58-1.583-.59-2.44-.01-.49-.059-.983-.059-1.484-.01-3.492-.02-6.975.01-10.467.01-1.406.335-2.764 1.26-3.885A3.629 3.629 0 0127.21.142c1.338-.265 2.626-.157 3.768.68.855.63 1.357 1.514 1.632 2.528.246.885.305 1.8.236 2.744h-1.514c-.03-.433-.05-.875-.099-1.308-.088-.886-.334-1.732-.924-2.41-.315-.364-.758-.59-1.24-.708a3.002 3.002 0 00-1.74.088c-.817.295-1.31.915-1.555 1.702-.187.58-.315 1.21-.315 1.82-.03 3.895-.02 7.78-.01 11.676 0 .806.187 1.603.62 2.301.462.738 1.141 1.132 2.026 1.19.905.07 1.692-.176 2.302-.875.462-.531.669-1.18.777-1.85.099-.59.128-1.19.187-1.819z" fill="#3A2D52"/></svg>