<svg width="52" height="64" fill="none" xmlns="http://www.w3.org/2000/svg"><path d="M51.308 41.714V.686H.69v41.028s.462 7.315 7.61 11.772c3.574 2.285 5.304 2.743 11.53 4.8 5.073 1.6 6.688 4.8 6.688 4.8s1.383-3.315 6.687-4.8c6.341-1.943 7.725-2.515 11.3-4.8 7.148-4.572 6.802-11.772 6.802-11.772z" fill="#010202"/><path d="M26.288 64l-.346-.571s-1.614-3.086-6.572-4.686l-.576-.229c-5.765-1.828-7.61-2.4-11.069-4.571C.461 49.37 0 41.943 0 41.829V0h52v41.714c0 .229 0 7.429-7.149 12.115-3.574 2.285-5.073 2.971-11.76 4.8-5.073 1.485-6.457 4.571-6.457 4.571l-.346.8zM.692.686v41.028c0 .115.461 7.2 7.379 11.543 3.459 2.172 5.073 2.629 10.953 4.572l.577.228c4.035 1.257 5.995 3.429 6.687 4.457.692-1.028 2.421-3.314 6.688-4.457 6.456-1.943 7.955-2.514 11.53-4.8 7.033-4.457 6.802-11.428 6.802-11.428V.686H.692z" fill="#fff"/><path d="M1.384 41.943l24.558-16.571v-24H1.384v40.57z" fill="#E42618"/><path d="M50.616 41.943L26.634 25.372v-24h23.982v40.57z" fill="#5692CE"/><path d="M25.828 1.257h.462v24.8h-.462v-24.8z" fill="#010202"/><path d="M22.138 8.114c-.116.457.115.686.346.915.115.114.46 1.257.345 1.257.346 0-.115-1.943-.115-2.172.116-.914 1.269-.8 1.384-1.6.115-.343 0-.8.23-1.143.116-.114.577-.457.577-.342 0 0-.23.228-.23.342-.116.229.115.572.115.8.23.8-.231 1.143-.692 1.6-.23.229-.23.572-.23.915 0 .114.115.571.23.571s.115-.457.115-.457c.115-.229.346-.571.577-.686-.462.572.115 1.257.23 1.829.23.914 0 1.714-.576 2.4-.577.571-1.384.8-2.306.686-.923-.115-1.845.114-1.5 1.142.231.8 1.154 1.029 1.615 1.6.576.686 1.038 1.715.922 2.629 0 .8-.46 1.6-1.153 2.057-.576.457-1.383.686-1.96.114-.23.229-.23.572-.807.458-.461-.115-.922-.8-1.153-1.143 0 .457.116 1.028-.115 1.485.576-.114.115.229.346.572.115.228.461.114.692.114.46-.114 1.037-.114 1.153.457.115.343-.116.8.115 1.143.23.229.576.114.807.229.461.343-.23.457-.346.571-.23.457.461.8.461 1.143 0 .229-.46.571-.576.571.115.458.23.8 0 1.143l-.23.229c-.116.114-.116.457-.347.571-.23 0-.115-.8-.23-.114 0 .229 0 .571-.346.686-.23.114-.23 0-.461.114s-.577.8-.807.571c-.116-.114 0-.457-.231-.571-.115.114-.115.229-.23.229-.116.114-.231-.115-.347 0-.115.114-.576.457-.691.571-.116.229-.116.686-.231.457-.23-.228-.115-1.028 0-1.257-.346.114-.461-.229-.807 0-.23.114-.461.343-.461.571-.116.115-.116-.914 0-1.142.115-.115.115-.229.23-.458.116-.114.116-.228.23-.457-.114 0-.23 0-.46.115-.116 0-.462.228-.462.228-.23-.114.692-1.943.923-1.143.23-.343.461-.685.922-.571.23.114.577.571.807.457.231-.114 0-1.029-.115-1.143-.115-.457-.576-1.028-.922-1.371-.462-.457-1.153-.457-1.615-.572-.576-.228-.922-.571-1.268-1.143-.115-.228-.23-.457-.23-.8 0-.114.115-.457-.116-.457-.115 0-.346.457-.46.457-.231.115-.462.115-.577.115.346.571.23 1.6-.577 1.714.461.8-.23 1.6-.807 2.057 0 0-.115-.686-.23-.8.115.457-.116.914-.462 1.257-.115.115-.461.457-.692.229-.115 0 0-.572-.115-.686-.115.457-.576.8-.922.8-.23 0-.461-.114-.577-.114l-.46.228c-.232.229-.116.572-.347.343-.23-.228-.23-.685-.23-1.028.345-.343.23-.343.23-.343-.23-.114-.23-.114-.461.114-.23.114-.577.343-.577.572-.115-.229-.23-.458-.23-.686 0-.229.115-.457.115-.8.115-.229.23-.572 0-.686-.23.229-.807.114-.922.572-.116-.115-.116-.572-.116-.8.116-.229.346-.572.577-.686.346-.114.346.114.461-.114.115-.115 0-.343.115-.458-.23-.114-.46-.114-.807 0 .116-.228.462-.457.692-.571.23-.114.461 0 .577 0 .115 0 .346-.114.46-.114.347 0 .577.114.808.343.23.342.461.8.922.685.577-.114.923-.8 1.038-1.371.23-1.257-.461-2.629.576-3.543.462-.457 1.153-.457 1.73-.229.461.115 1.268.458 1.614 0-.807-.114-1.499-.114-1.845-1.142 0 .228-.345 1.028-.576.8-.115-.115 0-.458-.115-.572-.116-.343-.346-.457-.462-.457-.23.686-.691.571-1.153.914-.23.115-.576.686-.807.457-.23.229-.46.458-.807.686-.23.229-.46.457-.46-.114 0 .114-.232.343-.462.571 0 0-.346.229-.461.115 0-.115.23-.343.115-.572a.896.896 0 01-.461.457c-.116.115-.23.115-.346.115V18.4c-.23 0-.346.343-.807.229-.116-.115-.346-.229-.461-.229-.231 0-.346.457-.577.571-.23.115-.115.229-.23 0-.116-.114-.116-.457-.116-.685-.346.114-.461-.115-.807-.229-.346-.114-.692.457-.807.686-.23-.572 0-1.257.576-1.6-.345.114-.345-.343-.23-.572-.115 0-.23.229-.346.229-.115 0 .115-.457.115-.457.116-.229.346-.229.577-.457.23-.229.346-.457.692-.457 1.153 0 1.73.571 2.42.342.347-.114.693-.228.923-.571.116-.114.807-.8.692-.914.115.114-1.038.457-1.153.457-.115 0-1.499-.114-1.384-.114-.115-.229.923-.572 1.153-.686.462-.114.577-.229.808-.572-.231-.114-.462 0-.808-.114-.46-.114-.922-.686-1.383-.571 0-.229.461-.457.692-.457v-.115c-.23 0-1.384-.114-1.038-.457-.23-.114-.461 0-.692-.228-.115 0-.23-.115-.346-.115-.115-.114 0-.114 0-.114-.23-.457 0-.229-.346-.229-.23-.114-.346-.228-.576-.228-.115 0-.23.114-.23 0-.116-.114.46-.686.691-.686-.115-.343 0-.228-.23-.457-.231 0-.346-.114-.577-.114h-.461c0-.229.461-.572.576-.572a.74.74 0 01.692 0c-.23-.343.115-.571.115-.8 0-.228-.691-.457-.576-.457 0-.228.922-.114 1.153-.114.23-.114.346.114.461.114-.23 0 .115-.571.115-.571 0-.343-.576-.343-.576-.343-.115-.114.576-.343.692-.343.46 0 .576.343.922.571.346.229.577.343.692.8 0 .343-.115.8-.23 1.143-.116 1.029.806.686 1.498 1.029.23.114.346.228.692.343h.576c.231 0 .808 0 .808.343.345-.343 1.037-.343 1.383-.686.23-.229.346-.572 0-.8-.576-.229-.922.343-1.383.457-.808.457-1.615-.457-1.384-1.371.115-.229.23-.572.115-.8-.115 0-.576-.115-.807-.343-.115-.115-.461-.457-.692-.457.577-.458.923-.115 1.384 0 0-.115-.115-.229-.115-.458 0-.228.115-.457.115-.571-.115-.229-.346-.343-.346-.686.23-.8 1.499-.457 2.075-.571.462-.114.577-.343 1.038-.572.461-.228 1.153 0 1.614-.228.462-.114.923-.457 1.384-.457.115 0 .922-.115 1.038.114 0 0-.231.457-.231.571-.115.115 0 .343 0 .458.115-.115.346-.572.461-.572l.115.457c.462-.228.808-.228 1.269-.228.576 0 .922-.115 1.499-.343.23-.114 1.037-.572 1.268-.457.115.114.115.457.115.571.23-.114.807-.343.923-.114 0 .114-.23.228-.23.228-.116.458-.116.686 0 .8.114.229.23.572.114.915 0 .228-.23.457-.23.571 0 .229.346.572.461.8.115.457.23.8.461 1.143.115.229.461.914.23 1.143-.115.228-.23-.457-.23-.457-.23-.229-.692-.343-.922-.457.461.571 0 1.714.692 2.057l.115-.115c.115.115.115.115-.115.229-.231.229-.808.114-1.038 0-.23.457.461 1.714.115 2.057-.346.343-.922-.457-1.153-.686 0 .8-.692.915-.922 1.6 0 .115.115.229 0 .229-.116 0-.23-.114-.346-.229-.23-.228-.23-.571-.23-.914-.231.229-.577.343-.462.8.115.572.577 1.143.807 1.6.577.914.577 1.943.807 2.972.462-.686 1.384.457 1.73.8.576.571 1.614 1.257 2.306.685 1.153-1.028.115-2.971-.807-3.771-.577-.572-1.153-1.029-1.269-1.943 0-.457.116-.8.231-1.143.115-.114.23-.228.23-.343.116-.228.231-.343.231-.571.461-.572 1.384-.572 1.614-1.257.231-.457-.576-1.715.116-2.172z" fill="#B22417"/><path d="M21.907 7.886c-.115.343.115.571.23.914.231.457.347.8.231 1.257h.116c.345-.457-.116-1.257-.116-1.714-.115-.8.116-1.143.807-1.372.577-.342.577-.685.692-1.257.116-.228.116-.457.346-.685l.461-.229s-.23.229-.23.343c-.116.228.115.571.115.8.23.8-.23 1.143-.692 1.6-.23.228-.23.571-.23.914 0 .114.115.572.23.572.116 0 .116-.458.116-.458.115-.228.345-.571.576-.685-.461.571.115 1.257.23 1.828.231.915 0 1.715-.576 2.4-.576.572-1.384.8-2.306.686-.922-.114-1.845.114-1.499 1.143.23.8 1.153 1.028 1.614 1.6.577.686 1.038 1.714.923 2.628 0 .8-.461 1.6-1.153 2.058-.577.457-1.384.685-1.96.114-.23.228-.23.571-.807.457-.462-.114-.923-.8-1.153-1.143 0 .457.115 1.029-.116 1.486.577-.114.116.228.346.571.116.229.461.115.692.115.461-.115 1.038-.115 1.153.457.115.343-.115.8.115 1.143.23.228.577.114.807.228.462.343-.23.457-.346.572-.23.457.462.8.462 1.142 0 .229-.462.572-.577.572.115.457.23.8 0 1.143l-.23.228c-.116.115-.116.457-.346.572-.116 0-.116-.343-.116-.457h-.115c0 .457.115.8-.461.914-.115 0-.115-.114-.23 0-.116.114-.462.228-.462.343-.23.228-.23.457-.346.114-.115-.229 0-.343-.23-.457-.116.114-.116.228-.231.228-.115.115-.23-.114-.346 0-.115.115-.576.458-.692.572-.115.228-.115.686-.23.457-.23-.229-.116-1.029 0-1.257-.346.114-.462-.229-.807 0-.231.114-.462.343-.462.571-.115.115-.115-.914 0-1.143.116-.114.116-.228.231-.457.115-.114.115-.228.23-.457-.115 0-.23 0-.46.114-.116 0-.462.229-.462.229-.23-.114.692-1.943.923-1.143.23-.343.46-.686.922-.571.23.114.576.571.807.457.23-.114 0-1.029-.115-1.143-.116-.457-.577-1.029-.923-1.371-.46-.458-1.153-.458-1.614-.572-.576-.228-.922-.571-1.268-1.143-.115-.228-.23-.457-.23-.8 0-.114.115-.457-.116-.457-.115 0-.346.457-.461.457-.23.115-.461.115-.577.115.346.571.23 1.6-.576 1.714.461.8-.23 1.6-.807 2.057 0 0-.116-.686-.23-.8.114.457-.116.914-.462 1.257.346-.114-.115.229-.23.114-.116 0 0-.571-.116-.685-.115.457-.461.685-.807.8-.23.114-.461-.115-.807-.115l-.461.229c-.23.229-.116.686-.462.343-.115-.343-.23-.8-.115-1.143-.115 0-.23-.114-.23-.114-.231-.115-.231-.115-.462.114-.23.114-.576.343-.576.571 0-.228-.115-.457-.23-.685 0-.229.115-.457.115-.8.115-.229.23-.572 0-.686-.231.229-.808.114-.923.571-.23-.114-.115-.457-.115-.685.115-.229.346-.572.576-.686.231-.114.231 0 .346-.229.116-.114 0-.342.116-.457-.231-.114-.462-.114-.808 0 .116-.228.462-.457.692-.571.23-.114.461 0 .577 0 .115 0 .346-.114.461-.114.346 0 .576.114.807.342.23.343.461.8.922.686.577-.114.923-.8 1.038-1.371.461-1.257-.346-2.629.692-3.543.461-.457 1.153-.457 1.73-.229.46.115 1.268.457 1.614 0-.807-.114-1.5-.114-1.845-1.143 0 .229-.346 1.029-.577.8-.115-.114 0-.457-.115-.571a.896.896 0 00-.461-.457c-.23.686-.692.571-1.153.914-.23.114-.577.686-.807.457-.23.229-.461.457-.807.572-.23.228-.462.457-.462-.115h-.115c-.115.229-.23.458-.461.572 0 0-.346.228-.461.114 0-.114.23-.343.23-.571-.23.343-.46.457-.807.457-.115 0 0-.229-.115-.114-.115 0-.115.114-.115.228-.116.114-.116.114-.346.114-.116 0-.346-.228-.461-.228-.231 0-.692.571-.577.8-.23-.229-.461-.572-.346-.914-.346.114-.461-.115-.807-.229-.346-.114-.692.457-.807.686-.23-.572 0-1.257.576-1.6-.23.114-.23-.229-.115-.572-.115 0-.23.229-.346.229-.346-.114 1.153-1.257 1.269-1.257.807-.229 1.383.457 2.19.228.346-.114.692-.228.923-.571.115-.114.807-.914.807-.914s-.923.342-1.153.342c-.116 0-1.614-.114-1.5-.114-.114-.343.923-.571 1.154-.686.461-.114.576-.228.807-.571-.23-.114-.461 0-.807-.114-.461-.115-.923-.686-1.384-.572.116-.228.346-.228.461-.457.231-.228 0-.114-.23-.114-.23-.114-.461-.114-.692-.343-.115 0 .23 0 .115-.114-.115-.115-.46.114-.46 0-.231 0-.231-.115-.347-.115-.115-.228-.115-.228-.115-.342-.115-.343 0-.115-.461-.229-.116 0-.23-.114-.346-.114h-.346c-.115-.229.576-.686.692-.686-.116-.343 0-.343-.23-.457-.116-.114-.231-.229-.462-.229h-.461c0-.114.461-.457.461-.457a.74.74 0 01.692 0c-.116-.343.115-.571.115-.8 0-.228-.692-.457-.576-.457 0-.229.922-.114 1.153-.114.115 0 .23.343.345.228 0-.114.231-.571.231-.571 0-.343-.576-.229-.576-.343-.116-.114.576-.229.691-.229.462 0 .577.343.923.572.346.228.576.228.692.8.115.457-.116.8-.116 1.257-.23.914.692.571 1.384.8l.692.343c.23.114.46 0 .576 0 .23 0 .807.114.807.457.461-.343 1.038-.343 1.384-.8.23-.229.346-.571 0-.8-.577-.114-.923.457-1.268.571C8.07 9.83 7.264 8.8 7.494 8c.116-.229.231-.571.116-.8-.115-.114-.577-.229-.692-.343-.23-.228-.461-.457-.807-.457.577-.457.922-.114 1.384 0v-.457c0-.114.115-.457.115-.572-.115-.228-.461-.457-.346-.685 0-.8 1.268-.457 1.96-.572.461-.114.577-.343 1.038-.571.461-.229 1.153 0 1.614-.229.461-.114.922-.457 1.384-.457.115 0 .922-.114 1.037.114 0 0-.23.458-.23.572-.116.114 0 .343 0 .457 0-.114.346-.571.346-.571s.115.457.115.571c.461-.229.807-.229 1.268-.229.577 0 .923-.114 1.5-.342.23-.115 1.037-.572 1.267-.458.116.115.116.458.116.572 0-.114.692-.343.807-.114l-.116.114c-.115.228-.23.343-.23.571 0 .229.23.572.23.8 0 .229-.115.457-.115.686 0 .114-.115.114-.115.229 0 .114.346.457.461.571.23.457.23.8.461 1.143.116.228.461.8.23 1.143-.23.457-.114-.229-.23-.343-.23-.229-.692-.457-.922-.457.461.571 0 1.714.692 2.057l.115-.114c.115.114.115.114-.115.228-.23.229-.807.114-1.038 0-.23.457.461 1.714.115 2.057-.346.343-.922-.457-1.153-.685-.115.8-.692.914-.922 1.6 0 .114.115.228 0 .228s-.23-.114-.346-.228c-.23-.229-.23-.572-.23-.915-.231.229-.577.343-.462.8.116.572.577 1.143.807 1.6.577.915.692 1.943.807 2.972.462-.686 1.384.457 1.73.8.576.571 1.614 1.257 2.306.685 1.153-1.028.115-2.857-.807-3.657-.577-.571-1.153-.914-1.268-1.714-.116-.457 0-.914.23-1.257a1.6 1.6 0 00.346-.457c.115-.115.115-.343.23-.572.346-.685 1.269-.685 1.5-1.371.46-.457-.462-1.714.23-2.057zm2.537-.115c.115-.114.115-.114 0 0z" fill="#FCC307"/><path d="M3.23 7.543c.115-.572-.808-.457-1.154-.457.462.114 1.038 1.028 1.153.457zm.807 9.714c-.577 0-.462 1.143-.346 1.371 0-.114.922-1.257.346-1.37zm.345-10.514c.116-.343-.807-.457-.807-.457-.115-.115.577 1.028.807.457zm-1.498 8.914c-.462 0-.692.229-.808.457.231-.114.923.229 1.038-.457-.115.114-.23 0-.23 0zm-.116 1.257c-.576-.228-.807.8-.807 1.257.23-.343.461-.457.692-.685.115 0 .461-.343.115-.572zM2.422 9.03c.462 0 .116-.8-.576-.458 0 .115-.346.229-.346.343.115 0 .922.115.922.115zm2.422 12.685s1.499.229 1.268-.228c.115 0-.346-.572-1.268.228zM2.768 10.286c.346 0 .461-.457.116-.572-.346-.114-.692.229-.923.343.23 0 .461.229.807.229zM5.42 22.857c-.461-.8-1.268.914-.922.914.23-.343 1.268-.457.922-.914zm11.3 5.029c-.231 0-.462.343-.462.571-.115.229.116.457.116.572 0-.115.46-.458.46-.572.116-.114.347-.457-.114-.571zm-1.153-.572c-.577-.114-.577.915-.577 1.143l.461-.457c.23-.343.346-.686.115-.686.116 0-.46-.114 0 0zm0-1.371c-.462-.457-.808.571-.923.685.115-.114.577-.114.807-.114.23-.114.346-.343.115-.571zm2.536 2.514c.23-.457.807-.457.461-1.029-.23.23-.576.343-.46 1.03zM8.418 6.286c-.461.114-.807.343-1.268.114-.23-.114-.462-.229-.692-.114-.115 0-.23 0-.461.114.23 0 .807.457.922.571.577.343.922 0 1.614-.114.23.114.577.229.577-.114.115-.343-.23-.572-.692-.457zM6.112 24c-.692-.229-.807 1.029-.807 1.371.23-.457.576-.457.807-.685.346-.229.346-.572 0-.686.461.114-.23-.114 0 0zm1.384.686c-.808-.229-.462 1.142-.346 1.371 0-.457.23-.457.46-.8.231-.114.231-.457-.114-.571zm5.188-18.057c-.346.114-.692.114-1.038-.115-.23 0-.692-.343-1.037-.228-.231.114.23.343.46.457.231.228.577.457.923.457h.692c.115 0 .23-.114.346 0 .115 0 .23.114.23.114.231 0 .462-.228.231-.457-.23-.457-.576-.228-.807-.228z" fill="#0655A1"/><path d="M16.834 18.171c.115.229.115-.8.115-.914 0 0-.23.686-.115.914zM4.843 10.286c.346-.343-.807-.115-.923-.115-.115 0-.115 0-.115.115.115 0 .922.114 1.038 0zm.692.457c0-.114-.577.114-.692.114-.116 0-.116 0-.116.114.116.115.923.115.808-.228zM17.18 22.17c0-.114-.23.343-.116.458.231.228.231-.343.116-.458zM5.304 11.086c-.115 0 .461.114.576-.115.231-.114-.576.115-.576.115zm.807 8.343c.23-.458-.692-.115-.922-.115h-.116c0-.114.807.457 1.038.115zM3.69 17.143c0 .114.115 0 0 0zm7.148 4.457c0 .114.116.229.116.457 0 .114 0 .343-.116.457 0-.114-.115-.571-.23-.571.115 0 0 .8-.116.914 0-.114-.115-.686-.23-.686-.116 0-.116.686-.116.8v-.342c0-.229-.23.228-.23.228 0 .114-.346.686-.346.572.115.228 1.153-.458 1.268-.572.116-.228.23-.571.116-.8.23-.114-.116-.571-.116-.457zm8.417 2.514c.116.457 0 .915-.115 1.372 0 .228-.346.914-.23 1.028.46.229.576-2.057.576-2.285 0 0 .346.457.461.457 0 0-.461-.572-.461-.8v-.115c.23.115.576.458.346.115-.116-.229-.462-.457-.577-.572 0 0 .346.229.461.115 0 0-.46-.572-.46-.686 0-.114.114-.457 0-.572-.116-.114-.462-.114-.577-.114-.346.114 0 .572.115.8.23.457.346.8.461 1.257zM17.872 21.6c.115.114.115.114.115.229-.115-.115-.115-.229-.115-.229zm0 .686c0 .228-.231.571-.116.8.23.228.23-.457.23-.457 0-.343-.114-.572-.23-.915-.115-.114 0 .229 0 .229.116 0 .116.228.116.343zm-.462.571c.231.229.231-.8.231-.914 0-.229-.115 0-.115 0-.116.114 0 .228 0 .457 0 0-.116.343-.116.457zm7.38-13.371c-.116-.457-.462-.8-.462-1.257 0-.115.116-.572.116-.572-.116-.114-.577.457-.577.572-.115.228-.115.457-.115.685-.115-.343-.23-.8-.115-1.028.115-.457.576-.572.807-1.029.23-.571.115-.8 0-1.257 0-.114-.116-.457 0-.457 0-.114.23-.343.23-.343 0-.229-.46.114-.576.114-.23.229-.23.457-.346.8-.115.572-.115.915-.692 1.143-.576.343-.922.572-.807 1.372.115.571.461 1.257.115 1.714.116-.8-.115-.914-.46-1.6-.116-.229.114-.8-.232-.457-.691.8.462 1.714-.23 2.4-.23.228-.807.343-1.038.571-.115.114-.23.343-.346.572-.115.228-.115.342-.23.457-.577.685-.692 1.6-.23 2.4.46.8 1.383 1.257 1.729 2.057.346.686.576 1.257.346 2.057-.923 2.514-3.46-2.057-4.267-.914.116-1.143-.115-2.286-.807-3.2-.46-.572-1.037-1.372-.23-1.943-.116.343.115.686.23.914.346.229.461.114.461-.114 0-.229.116-.457.462-.686.23-.228.46-.457.46-.8.116.343.923.914 1.154.457.23-.571-.461-1.257-.115-1.828.23.228.807.228 1.037 0 .116-.115.23-.229.23-.343-.114-.114-.23.114-.23 0-.576-.229-.23-1.372-.576-1.943.461.114.807.229.922.686 0 .114 0 .228.115.228.231.115.231-.228.231-.228.115-.343-.115-.8-.23-1.143-.231-.457-.231-.8-.462-1.257-.115-.115-.346-.457-.46-.572 0-.114.114-.228.114-.228.116-.457.116-.8-.115-1.257-.115-.229 0-.343.115-.572.116-.114.231-.228.116-.343-.116-.228-.692 0-.807.115.346-1.143-.807-.458-1.5-.115-.46.229-.806.229-1.383.229-.461 0-.922 0-1.268.228 0 0 0-.457-.116-.457-.23-.114-.345.343-.46.457 0-.228 0-.457.115-.685.115-.229.23-.229-.116-.229-.346-.114-.922 0-1.268.114-.461.115-.807.458-1.153.458-.922.114-1.384 0-1.96.342-.461.229-.692.343-1.268.458-.346 0-.807-.115-1.153.114-.346.114-.692.343-.577.8l.23.457c0 .229-.115.457.116.8-.461-.114-.692-.343-1.038-.114-.115 0-.346.228-.46.228.46-.114.922.457 1.267.686.116.114.231.114.346.229.116.228 0 .457-.115.685-.115.8.577 1.715 1.499 1.372.346-.115.576-.343.922-.457.461-.115.692.228.461.571-.345.457-1.037.343-1.383.686 0-.457-.922-.229-1.153-.229-.461 0-.807-.457-1.384-.457-.346-.114-.807 0-.922-.343-.23-.343 0-.914.115-1.257.116-.457 0-.914-.46-1.257-.232 0-.347 0-.347-.114-.115 0-.115-.229-.23-.229-.116-.114-.346-.343-.577-.343-.115 0-.461.229-.576.229-.346.228.46.228.46.457 0 .114-.23.343-.23.571-.115 0-.23-.228-.346-.228-.115 0-.346-.115-.46-.115-.116 0-.577.115-.693.115-.115.228.461.228.577.457.115.228-.116.571 0 .8-.23-.114-1.153 0-1.153.571 0 0 .692.115.807.115.115.114.346.342.346.571-.116.114-.923.343-.692.686l.461.114c.23.114.461 0 .577.229 0 .114.23.457.346.457.23.228.46.228.807.228-.462.457.807.572 1.037.572-.115.114-.807.228-.691.571 0 0 .576.114.691.229.231.114.462.343.807.457.231.114.462 0 .577.114-.23.457-.692.457-1.153.572-.115.114-.922.457-.807.685.115.115.461 0 .576 0 .231 0 .462 0 .692.115.577.114.807 0 1.268-.229-.46.457-.576.914-1.153 1.143-.23.114-.46.228-.691.228-.346 0-.577-.228-.923-.228-.807-.114-.807 0-1.383.343-.23.114-.807.457-.923.8 0 .457.116.114.346.114-.115.114-.115.571.115.571-.23.115-.46.343-.46.572-.116.114-.231 1.143.115 1.028.115 0 .115-.342.23-.457.115-.114.23-.228.461-.228.231-.115.462.228.923.228 0 .229.115.915.461.915-.115 0 .115-.572.115-.572.116-.114.116-.228.23-.228.116-.115.116 0 .231.114.346.114.692.228.923-.229.115.457.692.115.807-.114 0 .229-.461.571.23.343.231-.114.462-.457.577-.686 0 .457.23.229.577.114 0-.685.345-1.028.46-1.028.231-.114.347-.114.462-.229.23-.228.23-.228.576-.343.462-.228.807-.342.923-.8.23.115.346.343.461.572 0 .114-.115.457 0 .457.23.229.576-.457.576-.686.346.8 1.038.915 1.73.915-.23.457-1.268 0-1.614-.115-.577-.114-1.268-.114-1.73.457-.922 1.029-.115 2.4-.46 3.543-.116.572-.808 1.6-1.384 1.143-.462-.228-.462-.8-.923-.914-.23-.114-.576.114-.807.114-.346 0-.576-.114-.922.229-.116.114-.462.343-.346.457 0 0 .576-.114.692 0-.116.228 0 .457-.231.571-.23.115-.346.229-.577.343-.23.229-.46 1.143-.115 1.143-.115 0 .577-.457.692-.457.461-.114.23-.114.23.228 0 .458-.23.8-.115 1.143 0 .115.116.572.23.572.116 0 .462-.572.577-.572.231-.114.577-.228.692 0 .115.115 0 1.143.461 1.143.116 0 .116-.457.231-.571.23-.115.576-.229.692-.115.692.115 1.153.115 1.268-.571.115.229 0 .571.23.571.116.115.577-.228.692-.457.231-.228.462-.685.462-1.143.23.458 0 1.143.576.343.346-.457.692-1.143.461-1.714.807-.114.923-1.143.577-1.714.461 0 .807-.229 1.037-.572-.115.686.231 1.372.692 1.829.577.571 1.153.571 1.845.914.577.229.922.8 1.268 1.372.231.342.462 1.142.231 1.485-.346-.114-.461-.457-.807-.571-.461-.114-.692.228-.922.457-.231-.571-.808.571-.923.914 0 .115-.115.229 0 .229.115.114.577-.343.807-.343-.115.229-.115.343-.23.571-.116.229-.231.229-.231.572 0 .114-.115.914.115.914.116 0 .116-.457.346-.571.116-.115.346-.115.461-.115.116 0 .231.115.462.115-.116.228-.231 1.143.115 1.371.23.229.23-.228.23-.343.116-.228.116-.343.346-.457l.462-.228c.115-.115.23.114.346 0 .115-.115.23-.229.345-.115.116.115 0 .343.116.457.23.343.23 0 .46-.228.116-.114.232-.229.347-.229.115-.114.346 0 .461-.114.461-.229.23-.571.23-.914.116.114 0 .457.116.457.115.114.23-.229.346-.343.115-.114.115-.229.115-.229l.115-.114c.231-.343.116-.571.116-.914 0-.229-.116-.114.115-.343l.23-.229c.116-.114.231-.228.231-.457 0-.114-.23-.343-.346-.457-.576-.114-.576-.343-.576-.457.115-.229.115-.114.115-.229.115-.114.461-.228.23-.571-.115-.229-.46-.114-.691-.114-.577-.229-.115-.8-.23-1.257-.231-.8-1.154-.115-1.615-.343-.576-.115.115-.686-.576-.686.115-.457.115-.914.115-1.371.461.571 1.384 1.714 1.96.571.576.571 1.73.114 2.306-.457.692-.572.922-1.486.807-2.4-.115-.914-.461-1.714-1.153-2.4-.461-.457-1.268-.8-1.384-1.486-.23-1.143.923-1.028 1.73-.914.807.114 1.614-.229 2.19-.8.462-.457.577-1.257.347-2.057zm-13.721 4.228c-.115 0-.23-.114-.461-.114-.23-.114-.23-.686-.462-.8.116.114-.23.8-.23.914-.346.343-.807.457-.807 1.143-.346-.228-.115-.8.115-.914.23-.343.577-.572.577-1.029.345-.228.576-.571.691-1.028 0 .228-.23 1.6.346 1.714-.346 0 0-1.829 0-2.057.116.114.116.228.23.228l-.114.115c0 .228-.116.343-.116.571 0 .343.23.686.23 1.029.232.228.232.228 0 .228zm.692-3.2c0 .457 0 1.029.46 1.143-.46.114-.806-.114-.921-.457-.231-.457-.116-.8-.116-1.371.116.114.461 1.6.577 1.6-.116.114-.116-.8 0-.915-.116-.571-.23-.571-.461-.914-.116-.114-.116-.114 0-.229.23.343.46.686.46 1.143zM6.226 6.286c.577-.115 1.038.343 1.73.343.23-.115.576-.343.922-.229.116-.114.461.229.23.457-.345-.343-1.152.114-1.498.114-.577 0-.807-.571-1.384-.685zm-1.844.457C4.15 7.086 3.69 6.4 3.69 6.4c0-.114.807 0 .692.343zm-.923.8c.23 0 .577.228.807.343.461.228.461.571.461 1.028-.23-.8-1.268-.685-1.96-.457 0-.228-.115-.343 0-.571V7.77c.116.115.231.115.346.115l.346-.343zm-1.268-.457c.23-.115 1.153.114.922.457-.23.343-.576-.343-.922-.457zM1.499 8.8c.115-.114.922-.457 1.038-.114.115.571-.807.114-1.038.114zm.577 1.257c.115-.114.807-.457.807-.114 0 .457-.577.114-.807.114zm.807-.457c-.577-.229.23-.686-.23-1.143.69 0 1.613-.228 1.729.572-.462-.343-.923.342-1.5.571.116-.114.116-.114 0 0zm2.997 2.971c-.46-.114-.807-.457-1.268-.457.461-.228.923-.114 1.268-.457.116-.114-.576-.114-.576-.114-.346 0-.807 0-1.268-.114.23-.115.46-.458.23-.458-.115 0-.23.115-.46.229-.116-.114-.347-.114-.462-.229.23 0 .346-.114.23-.228 0-.114-.46-.114-.46-.229.345-.228.345-.571.115-.8.345-.114.807-.571 1.153-.457.23.114.46.686.46.686.231 0-.115-.572-.115-.686.346-.114.231-.914.116-1.257-.116-.343-.461-.343-.692-.457-.23-.114-.23 0-.23-.229 0-.114 0-.228.115-.343.115.115.807.229.691-.114.577.229.808.686.808 1.257-.231.457-.462 1.029 0 1.486.23.229.46.114.807.229.346.114.576.228.922.342.23.115.461 0 .807 0 .23 0 .461.229.692.229-.115 0-.23.229-.115.229-.23.114-.462.228-.807.114.115 0 .23 0 0 0-.231 0 .345.114.46.114-.115 0-1.152.114-1.037 0-.115.229.692.343.692.343-.461.114-.807-.114-1.153-.114 0 0-.923.228-.923.343 0 .114.808.228.808.342-.116.115-.577.229-.577.229-.115.229.461.114.577.114-.346 0-.808.457-.808.457zm-3.804 3.543c.115-.114.807-.685.922-.343.115.343-.807.229-.922.343zm-.116 1.829c0-.114.461-1.143.807-.914.346.228-.691.685-.807.914zm.923-.457c.346-.343 0-.457 0-.8 0-.115.346-.457.46-.572.347-.343 1.039-.914 1.5-.457-.577.114-.923.914-1.153 1.372-.23.342-.346.8-.807.457zm.807.914c-.116-.229-.116-1.143.346-1.029.46.115-.346.915-.346 1.029zm1.268 3.314c.23-.114 1.038-.571 1.153-.228.115.343-1.038.114-1.153.228zm1.153 2.972c-.23.114-.461.114-.692.457-.115-.343.23-1.372.692-1.143.461.114.115.457 0 .686zm1.038 1.143c-.116-.229-.116-1.258.461-1.029.461.229-.461.686-.461 1.029zm7.725.685c.115-.114.346-.571.576-.571.23 0 .23.228.23.457-.114-.114-.69-.114-.806.114zm.576 1.257c-.23.229-.46.229-.46.572 0-.114.23-1.143.46-1.029.462.115.116.457 0 .457zm.923 1.258c0-.229-.116-1.143.46-1.029.577 0-.46.8-.46 1.029zm1.845-.572c-.116-.571 0-.571.46-.914.231.457-.23.457-.46.914zm5.765-16.571c-.577.457-1.269.571-1.96.571-.692 0-1.384-.228-1.73.457-.346.686 0 1.372.576 1.829.692.457 1.269 1.028 1.5 1.828.46 1.486.23 2.972-1.384 3.543.115-.457-.116-.228-.23 0-.232.229-.577.229-.923.115.115 0 .346-.115.346-.229 0-.229-.116-.114-.231-.114-.346-.115-.692-.115-1.038-.229-.346-.114-.576-.343-.807-.571-.115-.115-.461-.686-.576-.686-.116.114.692 1.029.807 1.143.346.343.692.571 1.153.571-.116.343-.461-.114-.577-.114-.23.114.23.229.462.343-.577.228-1.384-.914-1.5-1.257-.115-.115-.23-.8-.345-.229 0 .229.115.686.115.914-.115-.228-.23-.457-.23-.685 0-.115-.231-.686-.347-.457-.115.114 0 .571 0 .685v.8c0 .229 0 .572-.115.8-.115.229-.346.457-.346.686 0 .343.461-.229.461-.229.116-.228.231-.457.231-.8 0 .115 0 1.143.115 1.143.116.115.116-.457.116-.571.115 0 .115.114.23.114.116 0 .116 0 .116.114.115.115.115.229.23.343.461.229.923-.114 1.384 0 .461.115.23.572.346.915.115.571.46.685.922.685-.115.457-.692.115-.692.229s.23.114.23.114v.457c.116.229.116.343.231.457.116.229.231.115.116.343-.346.8-.577-.343-.807-.228 0 0 .346.685.346.8.115.343.115.685 0 1.028 0-.114-.231-1.143-.462-.914.116 0 .462 1.257.116 1.6 0-.114-.23-.571-.346-.457-.116.114 0 .228 0 .457s-.116.8-.461.571c-.116-.114-.116-.457-.231-.571-.23-.229-.576-.114-.807.229 0-.229-.115-.572 0-.8 0-.115.23-.458.23-.458 0-.228-.345.229-.345.229-.116.229-.116.571-.116.8 0 .229.116.571-.115.8-.23.229-.23.114-.461-.114-.23-.229-.461-.572-.807-.229.115-.343.46-.914.691-1.143.116-.114.577-.228.577-.228.115-.229-.461-.229-.461-.229-.23.114-.346.229-.461.343-.231.229-.346.457-.462.8-.115.229-.115.571-.46.343.114-.229-.116-.914-.462-.686.115-.457.807-1.257 1.268-1.143.23.115.577.229.23-.114-.345-.229-.806 0-1.152.229 0-.343-.23-.572.23-.686.346-.114.577.114.808.228.23.115.46.458.691.115.116-.115 0-.8 0-.915 0-.685-.346-1.257-.807-1.714-.46-.571-.922-.571-1.614-.914-1.384-.572-1.73-2.057-.922-3.314.346-.572.922-.915 1.037-1.6a.883.883 0 00-.23-.915c-.116-.114-.577-.8-.577-.685.116 0 .461 1.142.461 1.257 0 .343-.115.8-.345 1.028.115-.114.115-.914 0-.914-.116 0-.116.571-.231.571 0-.114 0-.571-.115-.571 0 0-.23 1.143-.23 1.257 0-.114-.116-.457-.116-.457-.116 0-.116.571-.116.571 0-.228-.115-.685-.23-.8.115.115 0 .8 0 .915 0-.115-.115-.686-.23-.686v1.257c0-.114-.116-1.143-.347-1.143-.115 0 0 .457 0 .572 0-.115-.345-.8-.345-.8s.115.685.115.8c0-.115-.115-.572-.23-.686.115.229 0 1.143-.116 1.257-.115-.114-.23-1.6-.577-1.486.116 0 .231.915.231 1.029 0 .457 0 .8-.23 1.143-.231.228-.577.571-.116.343.23-.115.692-.457.807-.8.23.457.577.228.923.228-.116.457-.462.8-.923.8-.115 0-.346-.228-.461-.228-.23 0-.115.114-.115.114-.23.229-.923.343-.692.8.23.686.576-.343.23-.229.116-.228.346-.342.577-.457-.115.115.115.229.23.457.116.229.116.458.116.572-.115.571-.346.457-.807.571-.23.115-.115 0-.115.229 0 .228.115.457.115.686.115.457-.115.914-.461 1.257.115-.229.115-.572-.116-.8-.23-.229-.46-.115-.46.228-.116.457-.116.8-.462 1.143 0-.114-.115-1.143-.346-1.028-.115 0 .115.685.115.8 0-.115-.46-.8-.46-.8-.231-.115.114.571.114.571 0 .229-.345.457-.46.457.23-.114.23-1.143 0-.914-.116.114-.116.686-.231.8.115-.114.115-.229.115-.457 0 0 .115-.457-.115-.457 0 0-.116.457-.23.457-.116.228-.232.228-.462.457-.115-.572-.692-.8-1.153-.343-.23-.229.346-1.143.576-1.371.116-.229.231-.343.577-.229.115 0 .461.343.461.114 0-.228-.461-.343-.692-.343a.896.896 0 00-.46.458c-.232.342-.923 1.028-.808 1.485 0 0-.115-.8-.23-.8-.231-.228-.577-.114-.808.115 0-.458.461-.8.807-1.029.577-.457.807-.457 1.269-.114 0 0-.116-.229-.23-.343-.116-.229-.347-.229-.693-.114-.23.114-1.153.571-1.153.914 0-.229.116-.457-.115-.686.576-.228.922-.914 1.614-.571.115 0 .23.228.23.114.116-.114-.23-.343-.23-.343a.994.994 0 00-.807 0c0-.114.23-.343.115-.457.577-.229.807.229 1.153.686.462.571.923.571 1.384-.115.807-1.028.461-2.171.461-3.314 0-.686.23-1.371 1.038-1.6.576-.114 1.153.114 1.614.229.23.114 1.268.343 1.268-.229.116.114.461.457.577.343.23-.114-.23-.457-.23-.457-.462-.343-1.038-.343-1.5-.572-.23-.114-.46-.228-.576-.457-.115-.114-.115-.343-.23-.343-.231-.114-.116.8-.462 1.029 0-.343 0-.686-.23-.914 0 .228-.462-.115-.462-.115-.23.115-.115.458-.23.572-.116.228-.462.457-.692.571.115-.114.346-1.143.115-1.143 0 0-.23.915-.23 1.029-.116.343-.346.457-.692.686.115-.229 0-.457.115-.572.115-.114.115-.228.23-.457.116-.114.462-.571.347-.8 0 0-.577.8-.692.8 0 0 .115-.343.115-.457 0 0-.461.8-.576.8 0-.114.23-.457.115-.457.115 0-.461.571-.461.571.115-.114.23-.228.23-.457 0 .114-.576.572-.692.572L7.15 16c.115.114-.923.686-.807.571 0 .115 1.153-.228 1.153-.228.23-.114.576-.229.807-.457-.116.457-.116.571-.461.914 0 0 .115-.457-.116-.343-.115.114-.115.343-.115.457-.115.229-.23.229-.461.343.115-.114.115-.686-.116-.114-.115.228-.23.571-.576.8.115-.114.115-.457-.115-.457-.116 0-.462.343-.692.457 0-.114-.115-.229-.115-.229l.115-.228c0-.115.23-.229 0-.229-.346 0-.23.572-.807.572-.461 0-.23-.229-.346-.458 0-.114-.23-.228-.23-.228-.116-.229.23-.686.46-.914.231-.229.346-.229.577-.229 0 0 .346.343.23.114 0-.114-.115-.114-.23-.343-.115 0-.23 0-.23-.114-.116-.114-.116-.114-.231-.114-.461-.229-.923.114-1.384.343-.23.228-.461.685-.807.8.115-.115-.115-.229-.115-.457 0-.229.23-.115.461-.115.23-.114.346-.571 0-.685.807-.686 1.96.228 2.882-.229.577-.229.808-.8 1.269-1.143l.807-.8c-.115-.114-1.153.457-1.268.572-.577.228-1.153-.115-1.73.114.461-.343 1.038-.229 1.384-.572.115-.114.46-.457.46-.571-.23-.229-.576-.114-.69-.229 1.037.115 1.267-.8 1.96-1.371.23-.229 1.152-.457.46-.8 1.153-.8 2.191-.114 3.46-.229.576-.114 1.152-.457 1.613-.8l.577-.571s.461-.229.461-.114c-.115-.115-.807 0-.807.114-.23.114-.576.229-.922.457 0 0 .115-.228 0-.343-.116 0-.23.229-.346.343 0-.114.115-.457.115-.457-.115-.114-.461.571-.461.571 0-.114.115-.685.23-.685.116 0-.23.457-.23.571-.115-.114 0-.343 0-.343-.115-.114-.23.343-.23.343a.883.883 0 01-.231-.914c.115-.343.346-.572.23-.914.462.114 1.269-.115 1.269.342 0 .115-.231.458.115.343 0 0 .461-.457.461-.571.23-.343.346-.914-.115-1.257-.461-.343-.692.228-1.153.228-.577 0-.692-.571-.577-1.143 0-.114.116-.342.116-.342 0-.115-.116-.115-.231-.115 0 0-.115-.343-.115-.228-.23-.229-.23.8-.23.8 0 .228-.232.457-.232.571.116.114.231.229.231.343-.346 0-.576-.229-.922-.114-.116 0-.346.114-.462.114.462-.114.577.343.923.571.23.229.576.229.576.572-.115.114-.345.457-.345.571 0-.114.115-.571.115-.571-.23.114-.23.343-.346.457 0-.114.115-.457.115-.457-.115 0-.23.343-.23.457 0 0 .115-.457 0-.457-.116 0-.116.343-.116.343l-.115-.457c-.115 0-.23.571-.346.685l-.23.115c0 .228.345 0 .46-.115l-.345.343c0 .114.461-.114.461-.228 0 .114-.23.342-.23.342 0 .115.23-.114.23-.114-.115.114-.115.114-.115.229.115 0 .23-.229.23-.229 0 .114-.23.457-.115.457.115.115.23-.228.23-.228 0 .114-.115.457-.115.457.116.114.23-.229.23-.229 0 .115-.23.572-.23.572.23-.115.462-.343.462-.343-.116.343.345.457-.116.8-.346.343-.692.114-1.037.114.345-.228.691-.914.23-1.257-.576-.343-.922.229-1.383.343 0 0 .115-.229 0-.343l-.231.343.115-.457c-.23-.115-.461.571-.461.571 0-.114.115-.8.115-.686-.115 0-.346.572-.346.572-.115-.114 0-.343 0-.343l-.23.457c-.692-.571 0-1.143-.23-1.828.345 0 1.037-.229 1.268.114.115.114-.116.457 0 .457.115.114.23-.229.345-.343.231-.343.462-.686.346-1.143-.23-.457-.46-.457-.922-.343-.346.115-.807.572-1.153.115-.115-.229-.115-.686-.115-.915 0-.114.115-.228.115-.228.115-.229.346 0 .346-.114.346-.458-.692-.115-.461.114-.23-.114-.23-.457-.23-.457.576-.115 1.037-.115 1.729-.115.691 0 1.037-.571 1.729-.571.346-.114.692 0 1.038-.114.346-.115.576-.229.922-.343.23-.114 1.268-.457 1.614-.229-.23-.114-.576.457-.692.572a17.94 17.94 0 01-.691.571c-.116.229.46-.114.46-.114.231-.229.462-.457.577-.686-.23.114-.23.572-.691.8-.231.114-.923-.114-1.153.114-.116.115.576 0 .691 0 .346 0 .807 0 1.153-.114.462-.114.692-.457 1.153-.457.462-.114.808-.114 1.269-.114.807-.115 1.383-.572 2.075-.8-.115.228-.23.457-.461.685-.115.115-.461 1.258-.577 1.258.231.114.577-.8.577-.915.23-.343.807-.457 1.153-.457-.346.457-.115.914-.115 1.372 0 .342-.231.571-.116.914.116 0 .23 0 .23.114a.352.352 0 01.116.229c.116.228.116.343.23.571.116.457.462.914.577 1.372-.346-.458-.922-.458-1.268-.686-.576-.343.23-.114.461-.114.461 0 .116-.229 0-.458-.115-.114-.461-1.142-.461-1.142l.23 1.142h-.46c0-.114-.116-1.485-.231-1.371 0 0 .115 1.371.115 1.6-.115.571-.115 1.143-.23 1.714-.231 1.029-.692 1.829-1.615 2.286-.922.457-2.075.8-3.228.571-.577-.114-1.153-.342-1.614-.342-.116 0-1.384.342-1.269.571-.115-.114.577-.229.577-.229a.993.993 0 01.807 0c.577.115 1.153.343 1.614.458 1.268.228 2.306-.115 3.46-.686 0 .571-1.154.8-1.615.914-.692.229-1.268.457-2.075.229-.692-.115-1.384-.8-2.076-.457-.23.114-.461.457-.807.571-.115.114-.807.229-.807.229 0 .342 1.268-.343 1.384-.458.576-.342 1.037-.228 1.614.115-.692-.115-1.384-.115-1.96.457l-.807.8s-.692.457-.692.343c0 .228 1.037-.457 1.153-.457.346-.229.692-.572 1.153-.686-.461.228-.577.686-.923.914-.23.229-.691.457-.922.686-.346.343.461 0 .576-.114.462-.229.692-.458 1.038-.8-.115.342-.461.8-.115 1.142-.115-.114.115-.571.115-.8-.115.115 0 .915.23.8-.114 0-.114-.571-.114-.685.115.114.115.114.23.114 0 .114.115.229.115.343.116.228.231.343.231.457.115.114.922.8.922.571l-.691-.685c-.231-.229-.346-.572-.346-.915.115-.685 1.037-1.028 1.614-1.142.23 0 .461-.115.576-.115.231 0 .231-.114.462.115.23.228.345.571.576.8.23.228.461.342.577.571.23.229.23.686.345.914v-.457c.116.229.116.457.231.686 0-.114.115-.229.115-.229.116.229.116.457.116.572v-.457c.115.228.115.457.23.571v-.229c.116.115.23.572.23.686.116-.686-.114-1.6-.576-2.057-.346-.457-1.153-1.143-.807-1.714.116.457.577.914.807 1.371l.692 1.372c.115.457.346.914.346 1.485v.572c0 .114 0 .571.115.343.231-.343-.115-.8.462-.686.346.114.691.457.922.686.461.571 1.268 1.371 2.075 1.142 1.73-.457 1.153-2.857.231-3.771-.577-.571-1.268-.914-1.614-1.829-.116-.457-.116-.914.115-1.257.115-.228.461-.457.577-.8.115-.228.115-.571.46-.8.347-.228.808-.228 1.154-.571.576-.8-.461-1.6.115-2.514-.23.457.115.8.23 1.257.116.228.231.457.231.685 0 .115-.115.343-.115.458.115.457.461-.229.461-.458.116-.457-.115-.8-.23-1.142-.116-.458-.116-.8.115-1.143.23-.343.576-.457.922-.686.577-.571.23-1.486.807-1.943-.345.457.116 1.029 0 1.486-.115.457-.691.8-.922 1.257-.23.571.115 1.143.115 1.6.116.571-.23.914-.23 1.486.115-.457.576-.915.692-1.486.115-.457-.116-1.029.345-1.371-.23.8.231 1.371.231 2.057.23 1.143 0 1.943-.576 2.4zm-13.375-5.6c.691-.115 1.037.457 1.614.457.346 0 .576-.229.922-.114.23.114.577.457.23.571-.23-.343-1.152 0-1.383 0-.576-.114-.807-.8-1.383-.914zm3.92.343s-.461.685.115.457c.115-.115.115-.115.115-.229s-.345.114-.23-.228zm-.115.685c-.116 0-.231.457-.231.457-.115.229-.346.229-.577.229-.23 0 .116.229.231.229.23 0 .23 0 .461-.115.116 0 .461-.8.116-.8zm.576-2.285c.115-.115.115 0 0 0zm9.224 4.914c-.115 0-.23.571-.23.686a2.486 2.486 0 01-.577.914c.115-.229.23-.457.346-.572-.115.229 0 .115 0 0 .115-.114-.23.115-.23.229-.231 0-.347.114-.577.229.115-.115.23-.229.23-.343 0 .114-.922.571-1.037.571-.116 0-1.269.343-1.153.457C20.869 12 22.138 12 22.138 12c.46 0 .807 0 1.268-.229a2.68 2.68 0 00.807-.8s.23-1.028 0-1.028zm-9.916-4.229c.116-.571-.922-.343-1.153-.114 0 0 .461-.114.577 0 .115 0 .461.457.576.114zm2.767 12.115c0-.229-.23.457-.115.571.23 0 .23-.457.115-.571zM15.22 6.17c.115 0 .115-.342.115-.342.115.114.346.228.23.342.116-.114 0-.342 0-.457.116.115.116.115.231.115.116 0-.115-.458-.115-.458.576-.114.576-.571.922-.914 0 0-.46.114-.576.114-.23.115-.461.115-.807 0a.635.635 0 01.576-.342c.116 0 .461.114.461.114.116-.114-.346-.114-.46-.114a.885.885 0 00-.577.228c-.23.229-.23.457-.577.572-.115 0-.461-.115-.461 0-.115.114.23.114.23.114.116.114.231 0 .346.114l.462.914zM1.845 8.914c.346-.343.346.115 0 0zm.576-.114c.116.114.231.114.462.114-.116.457-.923.686-1.153.229.23.228.691 0 .691-.343zm15.912-3.314c.115 0 .23-.229.346-.457.115-.229.23-.686.115-.915-.23-.343-.23 0-.23.229 0 .343-.116.686-.346.914-.116.229 0 .229.115.229zM15.45 9.143c.462-.114.923-.229 1.153-.686.23-.457.23-.914.116-1.257 0-.114-.116-1.257 0-1.257-.116-.114-.231 1.257-.346 1.371-.116 0-.346-.685-.346-.685v.685c-.116-.228-.116-.914-.23-.457-.116.229.114.572.114.914-.115-.228-.23-1.028-.345-.914-.116.114 0 .914 0 1.143 0-.114-.116-1.143-.231-1.143S15.22 8 15.22 8.114c0-.114-.116-.685-.23-.685-.116 0-.232.571-.116.8.115.228.461.114.692.228-.231.114-.462.343-.692.457V8.8s-.116 0-.116.114c-.115.115.462-.114.577-.114l.692-.343c-.346.343-.692.457-1.038.8-.115.114-.807.686-.576.8 0-.228.922-.8 1.037-.914zM9.11 4.914c.23-.228-.461.115-.577.115-.115 0 .116.114.116.114.23 0 .346-.114.46-.229zm.576.8c-.23-.228 0 .229 0 0 0 .229.23.343.23.457.116.229.116.458.116.686 0 .229 0 .572-.23.8-.116 0-.577.229-.462.229.231.228.807-.686.923-.8.115-.572-.23-.915-.577-1.372zm5.765 5.029c-.346.114-.46.571-.807.686h.23l.347-.343c.115-.115.23-.229.46-.229.116 0 .462-.114.577-.114.116-.343-.691 0-.807 0zM10.492 4.57c.116-.228.231-.342.462-.342.115 0 .46.114.46.114 0-.229-.46-.229-.46-.229a.885.885 0 00-.577.229c-.23.228-.346.571-.576.571-.116 0-.462-.114-.462 0 0 .229.346.229.346.229.116.114.116.114.23.114.347.229.577.343.923.229.23-.115.577-.457.462-.686 0-.343-.462-.229-.808-.229zm-.115.115c0 .114-.115.228-.23.114.115-.114 0-.114.23-.114zm-.461.343c.115.114.346.114.576.114.116-.114.116-.229.231-.229h.461c-.23.343-1.037.572-1.268.115zm.346 2.742s.461-.114.461-.457c-.115-.343-.461.343-.461.457-.116 0-.116 0 0 0zm-1.845 6.86c-.23.228-.692.457-1.038.228.116 0 .231.114 0 0-.115 0 .231.114.346.114.23 0 .461-.114.577-.114.115-.114 1.037-.686.807-.8 0 0-.577.457-.692.572zm9.685-9.03s-.23.229-.346.229c-.23 0-.115-.458 0-.572.116-.228-.115-.114-.23 0-.116.114-.116.457-.116.572.346.457.808-.115.692-.229zm-8.647 6.971c-.461.229-.577.458-.923.686-.23.114.23-.114.23 0 .116-.114.232-.228.462-.343.23-.114.807-.228 1.038-.457.115-.343-.692 0-.807.114zM17.41 7.43c.116.457.231.8.231 1.257 0 .114-.115.914-.115.914.346.114.346-1.714.23-1.943-.115-.686-.46-1.257-.346-1.943 0 .115 0 .115 0 0 0-.114-.115.229-.115.229-.115.114-.115.343-.115.457 0 .343.115.686.23 1.029zM9.455 12c-.116 0 .23-.114.346-.114.115-.115.23-.229.46-.229.116-.114.808-.114.808-.228.115-.229-.577-.115-.577 0-.46.114-.691.457-1.037.571zm5.303-1.029c.462-.457.692-.457 1.269-.571.576-.114 1.037-.457 1.153-.914.115-.115.23-1.486.115-1.486s-.115 1.143-.23 1.257c-.231.457-.692.572-1.154.686-.576.114-.922.114-1.268.571-.346.457-.692.572-1.268.343.576.229.922.572 1.383.114zm-5.995.686c.23-.228.461-.343.692-.571.23-.115.346-.229.576-.343.115 0 .577 0 .577.114.115-.114-.807-.228-.923-.114-.23 0-.576.343-.807.571-.576.457-.922 1.257-1.73 1.486.116-.114.462-.114.693-.229.46-.342.576-.571.922-.914zm-2.998 4.914c0 .115 0 .229-.115.343 0 .115-.23.115-.23.115 0 .228.23.114.46-.115.231-.228.116-.457-.115-.685-.115-.229 0 .342 0 .342zm0-.342c0-.115.115.114 0 0z" fill="#BF6F15"/><path d="M49.81 19.314c.115 0 .115.115 0 0zm0 0c.115-.343-1.269-.114-1.5-.114-.576-.114-1.152-.457-1.498-.914-.23-.457-.461-1.143-.461-1.6 0-.457-.23-1.257-.807-.8-.807.686-.692 2.171-.577 3.085.115.229.115.572.115.915.116.228.231.571.231.8.115.457-.23 1.028-.346 1.486-1.614-.686-3.69.228-3.805 2.057-.115 1.943 2.422 2.971 3.69 1.485-.461 1.829-2.883 1.715-3.805.343-.461-.685-.577-1.485-.692-2.285-.115-.8 0-1.372.23-2.172.231.343 1.384.572 1.615 0 .115-.114-.115-.114-.115-.229V20.8c.23.114.807.114.922-.114.23-.343-.115-.229-.23-.343-.346-.229-.462-1.6-.577-1.6.807-.114.692.571.922 1.143.116-.229.23-1.143.116-1.372-.116-.342-.116-.571-.116-.571-.46-.8-.346-1.6-.807-2.4.577.114 1.384.229 1.96.229.462-.115.807-.686.923-1.143.23-.686.23-1.143.115-1.829-.115-.571-.23-1.257-.23-1.714-.116-.343-.116-.686-.231-1.143 0-.229.115-.572.115-.914 0-.458.23-1.143.115-1.6 0-.343-.23-.572-.346-.8-.115-.229-.115-.458-.23-.572-.115-.343-.23-.228-.461-.343-.116 0-.23-.114-.23-.114.23-.229-.462-.8-.231-.914 0-.115-.346-.115-.346-.115.23-.685-1.153.115-1.269.229-.23.114-1.383.914-1.037.914-.116.115 0 .115.115.115-.23.114 0 .114 0 .114h-.115c0 .228.23.228.23.457.116.114.23.343.23.571.116.115.462 1.258.577 1.258-.115.114.23.914.346.914.23 0 .346-.229.577 0 .115.114.346.686.46.8.347 1.029-.114 2.286-.23 3.314-.23-.343-.46-.571-.807-.914-.346-.229-.576-.343-.692-.8-.23-.686 0-1.257-.46-1.943-.116-.343-.347-.457-.347-.8-.115-.457.116-.8 0-1.257-.115-.914-.692-1.257-1.153-1.943-.346-.457-.576-1.257-1.153-1.6-.46-.229-.691-.114-1.153-.114-.115-.115-.23-.457-.576-.229l-.461.229c-.231.114-.346.228-.577.228-.23.115-.461.229-.576.457-.231.343-.231.572-.346.915-.116.114-.23.228-.23.343-.116.457-.116.342-.116.571v2.171c-.461.458-.807.572-1.269.8-.576.343-.922.915-.691 1.6.115.229.23.458.23.686 0 .229-.23.686-.46.915-.231.57-.808.914-1.154 1.37 0-.456-.115-1.028 0-1.6v-.228c.116-.114.23-.228.23-.457.116-.228.231-.457.231-.685.116-.23.23-.458.116-.8-.116-.23-.23-.23-.461-.458s-.116-.228-.116-.571c.116-.457.346-.8.461-1.257.116-.229 0-.457.116-.686.115-.229.115-.114.23-.229.23-.228.23-.914-.23-.8-.116-.914-.23-1.485-.692-2.285-.115-.229-.115-.229-.115-.457 0-.115-.116-.229-.231-.343-.461-.115-.461.571-.461.8 0 .228 0 .228-.116.571-.115.229-.23.457-.23.572-.115.342-.115.914-.23 1.257-.116.114-.347 0-.462.228.115.343.346.343.461.457.116.115.116.229.116.458.115.342.115.685.23.914.115.343.461.686.577 1.028.115.343 0 .229-.23.458a1.58 1.58 0 00-.347.457c-.346.457-.576.914-.807 1.486-.115.342-.23.57-.23.914-.116.457 0 .914-.116 1.257-.115.229-.23.114-.115.457 0 .343.23.572.346.914.115.572.576 1.943 1.268 2.058.692.114 1.614-.572 2.075-1.03-.23.572-.576 1.144-.46 1.715.114.457.114.457 0 .8-.116.343-.231.572-.231.915 0 .228.115.457.23.685.116.229.23.572.346.915.23.228.461.57.692.8l.115.114c.115 0 .115.114.115.114 0 .114.116.229.116.229.115.228.23.571.23.8.231.685.577 1.371.923 1.943.576 1.028 1.268 1.942 2.19 2.742 2.076 1.829 4.958 2.857 7.726 1.486 2.075-1.029 2.997-3.428 2.42-5.6-.114-.457-.345-.8-.46-1.143 0-.114-.116-.114-.116-.228 0-.115.116-.457.116-.572.115-.685.115-.457.691-.571.692-.229 1.269-.457 1.73-1.029.346.229 1.384-.571 1.038-1.143z" fill="#0655A1"/><path d="M49.003 19.086c-.461.114-.807.114-1.153 0-.807-.229-1.383-.686-1.614-1.486-.115-.457 0-2.057-.807-1.714-.346.114-.577.914-.692 1.257-.23.914 0 1.943.23 2.743.116.457.231.571.231 1.143-.115.457-.23.8-.23 1.143-1.615-.8-3.92.228-3.805 2.285.115 1.829 2.767 2.629 3.805.915-.23 1.942-2.537 2.4-3.805 1.028-1.153-1.257-1.268-3.543-.577-4.914.116.228.462.343.807.457.346.114.807-.229.692-.457-.23-.229-.115-.572-.115-.915.23.229.576.229.807.115.346-.229.115-.114-.115-.229-.23-.228-.462-.457-.462-.8-.115-.343-.115-.8-.23-1.143.461.115.807.115.922.457.116.115.23.8.23.8.116 0 0-.8 0-.8 0-.457-.114-.685-.345-1.142-.461-.8-.346-1.6-.922-2.4.576.228 1.498.457 2.075.228.577-.114.807-.8.922-1.257a8.025 8.025 0 000-3.314c-.115-.457-.23-.915-.23-1.372 0-.457.115-.914.115-1.371.115-.229.115-.686 0-.914-.115-.229-.23-.572-.461-.915-.23-.571-.23-.685-.923-.685l.116-.115s-.23.115-.346.229l.23-.343c-.115-.114-.23.114-.23.114s.23-.228.23-.343c-.115 0-.23 0-.23.115 0 0 .23-.229.23-.343-.115-.114-.345.228-.46.228.115-.114.345-.342.23-.457-.115-.114-.346.229-.346.229a1.6 1.6 0 00.346-.457c-.115.114-.23.114-.346.228.23-.228.346-.228 0-.228.115-.343.115-.457-.23-.229-.231.114-.577.343-.923.457-.23.115-.577.343-.807.572-.23.228-.115.114.23.114-.46.114.116-.114.346 0-.576.457-.23.343.231.114-.115.115-.577.229-.461.343.115.114.461-.114.576-.228-.115 0-.691.342-.46.457.23.114.46-.229.576-.229-.116.114-.807.229-.577.457.115.115.461-.114.461-.114-.115 0-.346.229-.346.343 0 .114.462-.114.577-.229-.461.229-.807.572-.115.229-.462.343-.462.457.115.228-.461.229-.461.458.115.229-.576.343-.461.457.115.229-.115.114-.46.228-.46.342 0 .115.46-.114.576-.114v.114c-.116.115-.577.229-.461.458 0 .114.46-.115.576-.115-.461.229-.692.572 0 .229-.23.228-.576.457-.115.228-.116.115-.461.229-.116.343-.115.115.577-.114.577-.114 0 .457.346.8.461 1.143.115.229.115.571.115.8 0 .914-.23 1.714-.23 2.628-.23-.457-.577-.914-1.153-1.142-.346-.229-.577-.457-.577-.915-.115-.571.116-1.143-.23-1.6-.23-.571-.346-.8-.346-1.371 0-.572 0-1.143-.346-1.6-.23-.343-.576-.572-.922-1.029-.346-.571-.692-1.6-1.384-1.714-.23-.114-.461 0-.692 0-.23 0-.23-.114-.461-.229-.461-.228-.807.115-1.153.458-.346.228-.692.228-.922.457-.346.343-.231.685-.462 1.143 0-.115-.23 0-.23.228-.115.229-.115.457-.115.572 0 .571.23.914.23 1.371.115.8-.807 1.029-1.268 1.371-.461.229-.807.572-.807 1.143 0 .458.346.8.346 1.143 0 .457-.577 1.143-.808 1.486-.23.343-.691.686-.922 1.143 0-.686-.115-1.486 0-2.172.23.115.577-1.257.577-1.257.46 0-.23-.914-.346-1.028-.23-.229-.23-.229-.116-.572.116-.228.231-.457.231-.8.115-.228.23-.571.23-.914v-.457c.116-.229 0-.115.116-.229.346 0 .576 0 .461-.228 0-.229-.23-.343-.461-.229 0-.457-.115-.914-.23-1.371-.116-.229-.116-.458-.231-.572-.116-.114-.346-.343-.346-.457-.115-.229.115-1.143-.461-.457-.116.114-.116.343-.116.571 0 .229-.115.343-.23.572-.116.228-.23.571-.346 1.028 0 .115 0 .457-.115.572 0 0-.231 0-.231.114-.115.114-.23.229-.115.457.115.114.23.114.346.229.115.228.115.914.23 1.143.115.457.346.8.577 1.142.115.229.23.343.115.458-.115.114-.346.228-.461.457-.461.457-.692 1.028-.923 1.6-.46 1.257-.576 3.314.116 4.571.346.572.576 1.372 1.383 1.143a5.68 5.68 0 001.73-1.143c-.116.572-.461.915-.461 1.486 0 .229 0 .457.115.686.115.228.115.228-.116.571-.23.343-.345.8-.23 1.143.115.229.23.343.346.571.115.229.115.457.23.8.116.229.462.458.577.8.115.115.115.229.23.229.116.114.231.343.231.457.346 1.029.692 1.943 1.268 2.972 1.845 3.085 5.765 5.714 9.455 4.114 1.384-.572 2.421-1.943 2.652-3.429.115-.8.115-1.485-.115-2.285-.116-.458-.346-.8-.462-1.258-.115-.228 0-.685.116-1.028.115-.572.23-.457.691-.572.462-.114.808-.114 1.154-.342.576-.343 1.268-.915 1.614-1.6 0-.686-.116-.8-.577-.686zm-6.11 5.028c-.231-.685.691-.8 1.152-.571l.116.114c-.116.343-.923 1.372-1.269.457zm-12.684-10.4c-.115-.343-.23-.571-.23-.914 0-.114.23-.229.23-.343v1.257z" fill="#FCC307"/><path d="M32.054 19.2c-.115.343-.461.8-.23 1.257 0 0 .23-.8.23-1.257zm-2.19-6.4c0 .343.23.571.23.914v-1.257c0 .114-.23.229-.23.343zm8.993-1.143c.115-.457.115-.8-.116-1.143-.115.8-.576 1.372-.23 2.058 0-.343.23-.686.346-.915zm1.499 4c.115.343.23.686.46.915.116.114.693.57.693.57-.116.23-1.153-.8-1.269-1.028 0 .686.807 1.029 1.269 1.372.23.228.346.343.691.457.462.114.807.114 1.038.571.115-.457-.461-.8-.576-1.142-.231-.458-.231-.915-.346-1.258-.346-.914-1.269-1.257-1.73-1.943.23.458.577.8 1.038 1.258.23.114.346.342.461.571.115.114.23.686.115.572-.115-.115-.23-.572-.46-.686.114.114.114.914.23.914-.115-.114-.115-.571-.346-.8-.23-.229-.461-.343-.692-.457.115.114 1.268 1.6 1.038 1.714-.346.114-1.5-1.486-1.614-1.6zm-.346-2.4c0-.114 0-.114 0 0zm2.882 10.857c.23.8 1.153-.114 1.268-.457-.46-.228-1.498-.228-1.268.457zm2.421-5.714c0 .572.346 1.372.577 1.943 0-.114.115-.457.23-.457.116 0 0 .571 0 .571.116-.228.577-.571.577-.8-.115.229-.115.457-.23.572.115-.115.807-.572.807-.686.115.114-.462.571-.577.686.115 0 .922-.572.922-.572.116.114-.807.8-.807.8.231-.114.462-.228.808-.343.115-.114.576-.457.691-.457.23 0-.807.8-.922.8-.346.114-1.268.229-1.384.457-.115.115-.115.572-.115.686-.115.229-.23.572-.115.8.115-.343.115-1.143.346-1.257.115-.114.46-.114.46-.114.231-.115.577-.115.808-.229.807-.229 1.73-.914 1.96-1.714-.922.228-2.306-.114-2.882-1.029-.231-.457-.462-1.028-.462-1.485 0-.23.116-.8-.115-.915-.23-.228-.461.229-.577.457-.46 1.029-.23 2.4.116 3.429.115.229.23.457.23.8 0 .114-.115.343-.115.457-.115.229-.115.572-.23.8-.116.457-.116.343.115.572.115-.572.576-1.258.346-1.943-.346-.457-.462-1.258-.462-1.829zm-2.19-11.429c.115.572 1.153-.228 1.153-.114.115.114-.692.457-.807.457.23.229.691-.114.807 0 0 .115-.116.115-.116.115.231.114-.46.914-.46 1.028.46-.457.23 0 .115.229.115-.229.346-.343.23 0-.23.228-.461.457-.346.114-.23.229-.46-.343-.346-.571-.23.114-.23.114-.23.457 0 .114.23.457.23.457l.346.343c0 .114 0 .228-.23.114.115.8 0 1.6-.116 2.286 0 .114-.23 2.286-.115 2.286.115-.115-.922-1.6-1.153-1.715-.461-.457-.922-.571-1.383-.914-.116.114-.116.229-.116.457.116 0 .692 0 .692.114 0 0-.346.229-.461.229-.23.229-.346.343-.461.571-.231.572 0 1.029.46 1.486.347.457.808.686 1.384.914.462.115 1.269.229 1.615.115.922-.457.807-2.172.807-3.086 0-.914-.116-1.714-.23-2.743-.232.229.114 1.829.114 2.286 0 .228-.115 2.286-.115 2.286s-.115-2.63-.115-2.858c0-.228-.116-.457-.116-.685 0-.229 0-.572-.115-.8 0 0-.576-.572-.346-.572.116.114.116.229.346.229.23 0 .23-.115.346-.229.115-.343.115-.914.115-1.371.116-.457-.115-.686-.23-1.143-.116-.114-.116-.343-.23-.572.114-.457.114-.342-.116-.457-.115 0-.922 0-1.038.229-.23.457.346.228.461.228.116 0 .807-.228.577.115-.115 0-.461.114-.461.114-.23.114-.462.229-.577.229.115.571 1.153-.229 1.153-.115 0 .115-.807.457-.922.457zm-.461-1.942c-.116-.115.115-.458.115-.572-.461.343-1.038.572-1.614.8 1.153.457 1.268 1.714 1.383 2.743-.115.114-.23.457-.23.571.576-.228.922-.57 1.383-1.028a.885.885 0 01-.576-.229c-.115 0-.23-.114-.23-.114-.116-.114-.116-.114 0-.229-.231-.228-.462-.228-.116-.57a.442.442 0 01.115-.687c-.23 0-.23-.457-.23-.685zM31.247 7.886c.115-.572.115-1.143.115-1.715-.115-.57-.23-1.257-.46-1.714-.116-.228-.347-.457-.462-.571 0-.115.115-.686-.115-.572-.116.115.115.457 0 .572-.116.228-.346.457-.462.685-.23.572-.346 1.143-.46 1.715-.116.571 0 1.257.23 1.828.115.343.461 1.372.922 1.372.116-.343.577-1.029.692-1.6zM29.402 6.4c-.346.114-.346.229 0 .343V6.4zm2.19.343c.347 0 .462-.343 0-.343v.343zM30.672 12c-.116 0-.116-.114-.116-.114-.346.457-.23 1.257-.23 1.828 0 .229.115 1.829-.116 1.943.462.114.346-.228.346-.571v-1.143c.116-.457 0-1.257.116-1.943zm.691-1.257c0 .114-.346 1.371-.576 1.257-.116.686 0 1.486 0 2.171.23-.457.576-.8.922-1.142.23-.343.807-1.029.807-1.486 0-.343-.346-.686-.346-1.143.116-.571.346-.914.808-1.143.576-.114 1.383-.457 1.268-1.257-.115-.457-.23-.914-.23-1.371 0-.229.114-.458.114-.572.116-.228.346-.457.346-.571.116-.457.116-.8.462-1.143.23-.229.576-.229.922-.457.346-.229.576-.572 1.153-.457.23.114.23.228.461.228.23 0 .461-.114.692 0 .807.229 1.153 1.257 1.383 1.714.231.458.577.572.923 1.029.346.457.346 1.029.346 1.6-.115.686.115.914.346 1.371.23.572.115 1.143.23 1.6.116.458.23.686.577.915.461.228.807.686 1.153 1.143 0-.915.23-1.715.23-2.629 0-.229 0-.571-.115-.8-.115-.343-.461-.686-.461-1.143-.115 0-.807.229-.577.114-.346-.114.116-.228.116-.342-.577.114-.23-.115.115-.229-.692.229-.461 0 0-.229-.115 0-.576.229-.576.115 0-.115.46-.343.46-.457v-.115c-.115.115-.576.229-.576.115 0-.115.346-.229.461-.343-.46.228-.576.228-.115-.229-.576.229-.461.114-.115-.228-.577.571-.577.457-.115.114-.692.343-.346-.114.115-.229-.115.115-.577.343-.577.229-.115-.114.346-.229.462-.343-.116 0-.462.229-.462.114-.23-.228.462-.457.577-.457-.115-.114-.461.229-.577.229-.46-.229.116-.572.23-.572-.114.115-.576.343-.576.229-.115-.114.462-.343.462-.343-.462.229-.807.229-.231-.114-.23-.115-.807.228-.23-.115-.231-.114-.462.115-.231-.114.23-.228.576-.457.807-.571.23-.229.576-.343.922-.457.462-.229.346-.115.23.228.347-.114.231-.114 0 .229l.231-.229c0 .114-.23.343-.345.457l.346-.228c.115.114-.231.457-.231.457s.346-.229.461-.229c.115.115-.23.229-.23.343.115-.114.115-.114.23-.114.115.114-.23.228-.23.343 0 0 .23-.229.23-.115.115.115-.23.343-.23.343.115 0 .345-.228.345-.228.116.114 0 .114-.115.114.577-.114.577.114.922.686.116.228.346.571.462.914.115.229 0 .686 0 .914-.116.457-.116 1.029-.116 1.372 0 .457.116.914.231 1.371.23 1.029.115 2.286 0 3.315-.115.57-.23 1.142-.922 1.257-.577.114-1.5-.115-2.076-.229.577.8.577 1.6.923 2.4.23.457.23.686.346 1.143 0 .114.115.8 0 .8 0 0-.116-.572-.231-.8-.23-.457-.577-.457-.922-.457.23.343.23.8.23 1.143.115.457.23.571.461.8.116.114.346 0 .116.228-.231.229-.692.114-.807-.114-.116.343-.231.686.115.914.115.114 0 .457-.577.457-.346 0-.807-.228-.922-.457-.692 1.372-.461 3.772.576 4.915 1.269 1.37 3.575.914 3.805-1.03-.922 1.715-3.574.915-3.805-.913-.115-1.943 2.076-2.972 3.805-2.286.116-.457.23-.8.23-1.143.116-.457-.114-.686-.23-1.143-.23-.8-.46-1.828-.23-2.743.115-.457.23-1.257.807-1.371.692-.229.576 1.371.807 1.714.23.8.807 1.257 1.614 1.486.461.114.807.114 1.153 0 .461-.114.577 0 .346.457-.23.686-.922 1.257-1.614 1.6a2.239 2.239 0 01-1.153.343c-.461.114-.577 0-.692.571-.115.343-.23.8-.115 1.029.115.457.46.8.46 1.257.232.8.232 1.486.116 2.286-.23 1.485-1.268 2.743-2.652 3.428-3.69 1.715-7.61-.914-9.454-4.114-.577-.914-.923-1.943-1.268-2.971 0-.115-.231-.343-.231-.457-.115-.115-.115-.23-.23-.23-.231-.228-.462-.456-.577-.8-.116-.228-.116-.456-.23-.8-.116-.228-.231-.342-.347-.57-.115-.458.116-.8.23-1.143.116-.343.116-.343.116-.572-.115-.228-.115-.457-.115-.685.115-.572.461-.915.461-1.486a5.682 5.682 0 01-1.73 1.143c-.807.228-1.152-.457-1.383-1.143-.692-1.257-.461-3.314-.115-4.572.23-.571.46-1.143.922-1.6.115-.114.461-.228.461-.457.116-.114 0-.228-.115-.457-.23-.343-.461-.686-.577-1.143-.115-.228-.115-.914-.23-1.143-.115-.114-.23-.114-.346-.228-.115-.115 0-.229.115-.457.116-.115.23 0 .23-.115.116-.114.116-.457.116-.571.115-.457.23-.8.461-1.257.231-.229.231-.343.231-.572 0-.228 0-.343.115-.571.462-.572.346.228.462.457.115.8.345 1.029.345 1.143.116.228.116.457.231.571.115.457.23.915.23 1.372.231-.115.462 0 .462.228.115.229-.23.229-.346.457-.115.115-.115 0-.115.229-.116.114 0 .229 0 .457-.116.229-.116.572-.231.914 0 .23-.23.458-.23.686-.116.343-.116.457.115.572 0 0 .807.914.23.914zm7.725-4c.461.571.23-.229.23-.343.116-.114.231.229.231.229.116.342-.345.342-.115.571 0 .114.346-.343.346-.343.115.114-.23.572-.23.572.115-.115.23-.458.23-.458.115.115-.23.458-.115.572 0 0 .115-.343.23-.343.116.114-.115.343-.115.457.115.229.23-.114.23-.114.116.114-.115.114-.115.228.116.115.346.229.462.458.115-.458.115-.915-.116-1.258-.23-.57-.576-.8-.922-1.257 0 0 .115.343 0 .343.115 0-.577-1.371-.692-1.486-.115-.228-.23-.457-.576-.57-.346-.23-.577-.115-.923-.115.116.114.116.343-.115.228-.115-.114-.115-.228-.23-.457-.462-.228-.692.114-1.038.343-.116.229-.462.229-.807.571 0 .115-.231 1.143-.231 1.143-.115 0-.115-.228-.115-.228-.462.457-.462 1.143-.23 1.714.23.571.46 1.029 0 1.6-.462.343-1.039.457-1.5.8-.461.343-.692 1.257-.115 1.714.23-.228.461-.571.576-.8.116-.228.231-.457.462-.685.23-.115.46-.229.576-.458.115-.114.346-.685.346-.685.23 0-.23.914-.23.914-.231.343-.577.457-.808.8.462-.229 1.153-.229 1.384-.457.23-.229.23-.914.115-1.257 0 .343-.115.8-.23 1.143-.116.114-.692.571-.807.342 0 0 .576-.457.691-.57.23-.344.23-.801.116-1.144-.116-.457-.231-.8-.346-1.143 0-.114-.23-1.257.115-1.143 0 0-.115.458 0 .572.115.228.23.457.346.8V6.97c0 .115.115-.228.115-.114.115-.228.115-.343.115-.571 0-.115-.115-.343-.115-.343.115-.114.23.114.461 0 .116-.114-.115-.229 0-.229l.577-.114c.115-.114.23-.8.23-.8s0 .457.116.457c.115.114.23.114.461 0 .115-.114.115-.228.23-.228.231 0 0 .342 0 .342.231.115.462-.114.577-.228.115-.114.115-.229.115-.343 0-.114-.115-.114-.115-.229-.23-.342-.115-.342.115 0 .116.115 0 .229.116.458.115.228.46.457.46.571a.353.353 0 00.462 0c.115-.114 0-.571 0-.571.115-.115.23.457.23.457 0 .228-.115.228-.23.343-.115 0-.115.114-.115.114 0 .114 0 .228.115.228-.115.343 0 .458.115.572zm4.958 18.4c.115-.114.461-.343.346-.572 0 .115-.346.458-.461.343l.23-.228c.116-.114.116-.229 0-.343-.46.571-1.383.914-1.614.114-.23-.686.346-1.257 1.038-1.143 1.73.115 1.96 2.4 1.038 3.429-.923 1.143-2.767 1.143-3.805 0-1.038-1.143-1.384-3.086-1.038-4.571-.115.114-.115.114-.23.114 0 .114-.116.228-.231.457s0 .571 0 .8c.115.571.115 1.143.23 1.714.462 1.6 1.73 2.629 3.344 2.629.807 0 1.384-.343 1.96-.915.577-.571.692-1.257.577-2.057-.116-.571-.23-1.257-.577-1.714-.23-.229-.576-.571-.922-.571-.115 0-.922-.115-.922 0-.116-.343 1.383 0 1.614.114.46.229.807.571.922 1.029.577 1.257.461 2.857-.576 3.77-.923.915-2.537.915-3.69.458-1.153-.571-1.73-1.6-1.96-2.743-.115 0-.461.229-.461.114l.23-.114c.116-.114.116-.228.116-.457-.116.114-.462.114-.462 0 0 0 .346-.114.462-.229.115-.114 0-.457 0-.685-.116 0-.692 0-.808-.114 0 0 .577-.23.692-.23-.115 0-1.037.23-1.037.115 0 0 .922-.343 1.037-.343-.115 0-1.153.229-1.153.115 0 0 .577-.229.692-.229-.115 0-1.038.114-1.153-.114 0 .114.116.571.116.571-.231 0-.231-.457-.231-.571-.461.114.115.571 0 .686-.115.228-.23-.458-.23-.572-.116.114-.231.229-.116.457 0 .114.23.457.115.457-.23.115-.23-.571-.23-.8-.23.229-.23.457-.116.8 0 .115.231.457.346.457 0 .115-.346-.228-.46-.228-.116-.229-.116-.343-.116-.572 0-.571.346-.685.807-.914a.896.896 0 00.461-.457c.115-.114-.115-.343.115-.228.116.114.116.57.116.685-.116.114-.23.229-.23.457.69-.114 1.152-.228 1.037-.914 0-.114-.23-.457.115-.228.23.228.23.8 0 .914.576-.229-.115-1.6-.115-1.6l.346.571c.115.229.115.572 0 .915.23-.115.23-.458.23-.572 0-.114-.23-.914-.23-.914s.115.228.115.343c.115.228.115.343.23.457-.115-.343-.115-.686-.115-1.029 0 .114.23.229.23.457.116.229.116.458.116.572 0-.229-.115-1.6-.115-1.6s.346.686.461.8a.723.723 0 010 .686c.115-.23-.115-1.943-.115-1.943l.23.457c.116.228.116.571.116.8 0-.114 0-1.715-.116-1.715.116-.114.346.8.346.915 0-.229-.23-.915-.23-1.029.115-.457.46.572.46.686.116.343-.114.686.116 1.029.23.342.807.57 1.153.342-.461 0-.23-.8-.23-1.028.115-.457.115-.915-.116-1.372-.115-.457-.461-.685-.692-.914-.115-.114-.691-.8-.46-.8-.231 0 .576.8.576.8.23.229.576.572.807.914.23.457.115.8.23 1.143.116.229 0 .229.231.343.23.114.461 0 .577-.114-.808-.114-.577-1.257-.923-1.715-.461-.8-1.153-1.142-1.614-1.714 0 .572.115 1.257.461 1.714.346.458.461.915.461 1.372 0 .229 0 .686-.115.914-.23.343-.115-.114-.115-.228.115-.229.115-.572 0-.915-.116-.457-.346-.571-.577-.8-.346.229-.115-.228 0-.457.116-.457-.115-.914-.115-1.371-.115-.8.23-1.6.23-2.4 0-.457-.23-.8-.345-1.143-.231-.572-.116-.914.23-1.371.23-.458.577-.8.577-1.258 0-.114-.116-.8-.116-.8-.115 0 .577.8.577.8-.115-.685.115-1.257-.346-1.828-.346-.457-.922-.686-1.268-1.143-.116.571-.462 1.143-.462 1.714 0 .343.116.572.231.8 0 .229-.115.572-.23.915-.231.57-.462.914-.231 1.6 0 .114.23.457 0 .342-.23-.114-.23-.571-.461-.8.115.229.115.457.23.8.116.229.346.572.23.915-.114.228-.114.457-.23.114-.115-.229-.115-.572-.23-.914-.23-.572-.23-1.143-.23-1.6 0-.572.345-1.143.46-1.715-.692-.228-1.153.229-1.153.115 0 .114.577-.8.577-.8-.116.114-.577.571-.692.457 0 0 .576-.8.576-.915l-.576.572s.461-.8.576-.8c-.115.114-.576.571-.576.457 0 0 .461-.571.461-.686-.461.457-1.268.915-1.96.572 0 .114-.576 1.143-.692.914.116.114.462-.914.462-.914h-.116c0 .114-.576 1.143-.691.914 0 0 .345-.457.46-.457.116-.229.116-.457-.115-.686 0 .686-.346.915-1.037 1.029-.577.114-1.153.343-1.614.8-.462.457-.577 1.143-.923 1.714-.346.571-.807 1.029-1.268 1.486-.23.228-.23.457-.23.8v.571c0 .229.114.457-.231.457-.116 0-.346-.114-.462-.228V14.4c-.115-.571-.46-1.143-.346-1.6 0 0-.115.114-.23.114 0 0 .807-1.143.922-1.257.23-.114.346.114.462.114.345-.228-.462-.457-.346-.571.115-.114.46.114.46.229.231-.457-.46-.457-.46-.686 0-.114.576.114.576.114.115-.343-.346-.457-.461-.571-.23-.229.576.114.576.114.116-.229-.345-.686-.576-.686-.461-.114-.807.343-1.038.686-.461.572-.807 1.6-.922 2.286-.116.8 0 1.828.23 2.628.116.686.577 2.058 1.384 1.943.807-.114 1.614-1.028 2.075-1.6.577-.685.923-1.371 1.153-2.286.116-.228 0-.914.231-.8.23.229-.115.8-.115 1.143-.116.915.576 1.715 1.499 1.486-.116 0-.692-.228-.577-.343l.577.229c.23 0 .46 0 .576-.229-.115 0-.807-.114-.807-.228 0 0 .807.114.922-.115-.115 0-.576-.114-.576-.228.115-.114.576.228.807-.114 0 0-.346 0-.346-.115 0-.114.23-.114.23-.114.116-.114.116-.114.116-.229 0-.114-.115-.571-.115-.571.23 0 .23.686.23.8 0 .343-.23.8-.46 1.029-.462.457-1.27.8-1.961.228.23.686-.23 1.486-.23 2.172 0 .342-.116.685 0 .914 0 .114.46.8.46.8-.23.228-.691-1.029-.691-1.143-.115-.572 0-1.143.115-1.6-.115.229-.346.571-.461.914-.115.114-.115 1.029-.23 1.029-.347.114.115-1.486.23-1.6.23-.457.346-.8.346-1.257-.115.457-.461.8-.692 1.257-.115.114-.23 1.486-.115 1.371-.23.115-.116-1.485 0-1.6.115-.457.46-.8.576-1.257l-.576.572c-.23.228-.23.342-.346.57-.23.572-.461 1.144-.23 1.715 0-.114.114-.571.114-.571.231 0-.46 1.943-.46 2.171.115-.457.345-.686.576-1.028.115.457.115.685 0 1.028-.116.343-.346 1.029 0 1.372-.116-.115.115-1.372.23-1.372.116 0-.115.8-.115.8-.115.343 0 .572.23.915 0-.23.462-2.858.462-2.858.346 0-.23 2.515-.115 2.743 0-.114.46-1.257.46-1.257.116 0-.114.8-.114.914 0 .229.115.457.23.686 0-.114.115-1.486.115-1.486.116 0 .231 1.029.231 1.143.115.457.23.8.461 1.143.23-.343.461-.457.807-.686.116-.114.346-.685.462-.685.46-.115 0 .457-.116.571 0 .229 0 .343.115.572.116.114.346.342.231.342-.115.229-.576-.571-.692-.685-.115.228-.46.343-.576.571-.115.114-.23.572-.577.457-.115 0-.115-.571-.23-.685-.116-.343-.116-.572-.23-.915 0 .229.23.915.114 1.143-.23.229-.46-.457-.46-.571.114 1.942 1.383 4 2.766 5.371 1.73 1.714 4.151 3.086 6.688 2.4 2.075-.571 3.459-2.286 3.459-4.457 0-.914-.23-2.057-.923-2.743-.691-.686-1.96-.8-2.767-.228-.692.685-1.153 1.942-.461 2.97.576.8 2.652 1.144 2.652-.228-.116.115-.23.343-.346.229.115.114.115.114.115 0 .115-.114 0 .114 0 0zm-5.88-16.686a.896.896 0 00.46-.457s-.23.229-.346.114c0 0 .346-.343.346-.457 0 0-.23.229-.346.114 0 .115.577-.685.577-.8.115-.457-.116-.8 0-1.142-.346 0-.807-.343-.923-.686-.23.343-.576.228-.922.228-.23 0-.577.229-.692-.228-.23.457-.346.8-.692.571 0 .229-.115.343-.346.343.116.457-.115.8-.115 1.143.115.457.346 1.143.577 1.486.691 1.143 1.73.8 2.536.114-.115.114-.115.114-.23.114 0 0 .346-.343.346-.457h-.231c.115-.114-.115 0 0 0zm3.228 5.943c-.115-.114-.46-1.029-.23-.914-.116 0 .23.8.346.8 0-.114-.116-.686 0-.686-.116 0 .23.8.23.8 0-.114-.115-.8 0-.686-.115 0 .346.8.346.915-.115-.115-.23-.8 0-.8-.115 0 .23.8.346.8.115.114 1.153.343 1.153.228 0 .115-1.038-.114-1.153-.114-.346.114-.807 0-1.038-.343zM30.901 7.2c-.115.114-.576 1.257-.461 1.257.346.114.461-.914.461-.914s-.115 1.943-.807.914c-.461-.571-.461-1.486-.461-2.057s.115-1.6.576-1.943c.23-.114.116-.114.116.114 0 .343-.231.686-.231 1.03.115-.115.461-.801.461-.801l-.461 1.143c.115-.114.461-.8.461-.8s-.461 1.143-.461 1.257c.115 0 .461-.686.461-.686l-.461 1.143c.115-.114.461-.8.461-.8l-.461 1.257c.115-.114.461-.914.576-.914l-.46 1.143c.115-.114.576-.914.576-.914s-.346.914-.461.914c.115-.114.46-.8.46-.8s-.46 1.028-.46 1.143c.23-.115.576-.457.576-.686zm.922 8.457c.346-.114.577-.685.808-1.028.115-.115.576-.915.576-.686.115.229-.461.914-.692 1.143-.23.228-.46.571-.692.571.116 0-.115 0 0 0zm8.187-1.486c0 .8-.346 1.372-.346 2.058 0 .114.23 1.828.115 1.828.115 0-.346-1.943-.346-2.057 0-.457.23-.8.23-1.143.116-.114.116-.228.116-.457.115 0 .23-.457.23-.229zm.115-4c.115.229.346.458.346.8 0 .229-.23.458-.346.686l-.346.686c-.115.229-.115.457-.115.114-.23-.457.461-1.143.461-1.486 0-.228 0-.571-.115-.914 0-.114-.346-.457-.23-.571.114 0 .23.228.23.228.115.115.23.115.46.229.116.114.347 0 .232.229-.231.228-.577.114-.577 0 .115.114 0 .342 0 0zM34.706 22.63c-.115.114-.23 1.028-.346.571 0-.114.115-.343.115-.457 0 0 .346-.114.231-.114.115 0-.23.228 0 0zm.23.228c-.115.114-.115.915-.23.457 0-.114 0-.343.115-.457 0 0 .23-.228.116 0 0 .114 0-.114 0 0zm.231 0c0 .114.115.457 0 .457-.115.115-.115.115-.23-.114l.23-.343zm.346.114s-.115.343-.115.229c-.346 0 .115-.571.115-.229zm5.073-5.028c0 .229.461.457.577.686.23.228.346.571.346.914 0 .343 0 .571-.116.914 0 .114.116.8.116.8-.116.229-.116-.457-.116-.457 0-.457.116-.8 0-1.257-.115-.457-.23-.572-.46-.914-.116-.115-.231-.229-.231-.343-.231-.114-.116-.343-.116-.343zm-3.92.343c.115 0 .461 0 .461.114-.115 0-.576 0-.46-.114zm-.23-.114c.23-.115.576-.23.807 0 .115.114.115.228 0 .228.115 0-.346-.228-.346-.228h-.462zm-1.96-4c.115.114-.116.457-.231.114s.461-.229.23-.114c.231.114.116 0 0 0zm2.305-3.658c.116 0 .577-.114.231.229-.115.114-.346-.343-.23-.229.115 0 0-.114 0 0zm.577 10.858c.115.228.115.457.115.8 0 0-.23.457-.346.228 0-.114.23-.457.23-.457v-.572zm-3.113 2.742c.115.115.807-.114.692.115-.116.114-.231.114-.462.114 0 .114-.23-.229-.23-.229zm.346.572c.115.114.576-.114.691-.114.116.114-.46.342-.46.342-.116 0-.231-.228-.231-.228zm.346.457c.115 0 .576-.229.576 0-.115.457-.692 0-.576 0zm2.19-.686c.116.114.807-.114.692.114-.115.115-.346.229-.461.115-.115 0-.346-.343-.23-.229.115 0 0-.114 0 0zm.807.343c.23.114.462-.343.577-.114.115.114-.577.114-.577.114zm-.922.343c.115.114.922-.114.461.229-.115.114-.23 0-.346 0-.115-.115-.23-.343-.115-.23.115 0 0-.113 0 0zm1.153 0c.115.114.922-.343.461.114-.115.114-.346.229-.461.114-.23 0-.23-.342 0-.228.115 0-.23-.114 0 0zm-.922.686c.115 0 .922-.229.576 0-.115.114-.461.228-.576.114.115 0 0-.114 0-.114zm1.268 0c.115.114.692-.229.461.114-.115.114-.346.229-.461.114-.23-.114-.23-.343 0-.228zm-.922.571s.806-.114.46.114c-.23.115-.345-.114-.46-.114.23.114 0-.114 0 0zm.691.114c.115 0 .807-.228.461.115-.115.114-.23.228-.46.114 0 0-.116-.229 0-.229zm.923.229c.115 0 .691-.571.576-.114-.115.342-.576.114-.576.114zm-.923-2.629s.807-.228.461.115c-.115.114-.23.114-.346.114-.23-.229 0-.229-.115-.229zm-3.343 1.715c.115.114.922 0 .576.228-.23.115-.461-.228-.576-.228.23.114 0-.115 0 0zm.576.457c.115.114.807-.229.461.114-.115.114-.346.114-.46.114-.116 0-.116-.342 0-.228.114.114-.116 0 0 0zm.692.685c.115.115.692-.228.461.115-.115.114-.461.228-.576 0 0-.114 0-.229.115-.114.115 0-.115-.115 0 0zm.576.458c.116.114.807 0 .346.228-.346.114-.46-.343-.346-.228zm1.73.114c.115 0 .692-.114.461.114-.346.343-.692-.114-.461-.114zm.807.229c.115 0 .576-.23.461.114-.115.114-.576-.114-.461-.114zm.692.342c.115 0 .807-.457.346.115-.231.343-.577-.115-.346-.115.115 0-.116 0 0 0zm1.037.115c.116 0 .923-.229.462.228-.462.343-.692-.343-.462-.228.116.114-.23 0 0 0zm.692.228c.116-.114.577-.343.461.114-.23.229-.691-.114-.46-.114.114 0-.116 0 0 0zm0 1.029l.116-.114c-.346 0-.692.114-1.038.114.115 0 .23-.114.346-.114-.116 0-1.269.114-1.269 0 0-.115.462-.115.462-.115-.116 0-.346-.114-.462-.114-.115 0-.23.114-.23.229-.116 0-.577 0-.577-.115 0-.114.692-.114.807-.114-.115-.114-.23-.114-.46-.114-.116.114-.231.114-.347.114-.115 0-.576 0-.576-.114 0 0 .692-.115.807-.115-.23-.114-.461-.114-.692-.114-.115 0-.807 0-.807-.114 0 0 .692-.114.807-.114-.115-.115-.922-.343-.922-.343 0-.115.23-.115.23-.115-.115-.114-.23-.228-.345-.228l-.116.114c-.115 0-.346 0-.346-.114s.346-.114.346-.114c-.576-.458-.922-1.143-1.383-1.715-.231-.343-.346-.685-.462-1.028-.115-.343-.46-.8-.46-1.258 0-.228.114-.457.345-.228.23.114.23.571.346.8.23.571.461 1.257.807 1.714.577 1.029 1.499 1.943 2.652 2.4.692.229 1.384.457 2.075.457.23 0 2.652-.228 2.537-.343.23.229-2.075.8-2.19.915zm-2.536-9.6c-.692.8-1.615.914-2.652.8-.461-.114-.807-.114-1.153-.343-.116-.114-1.153-.8-1.038-.914 0 0 1.038.571 1.268.685.692.115 1.5.115 2.076-.228.23-.114 1.037-.8.922-.229-.115.572-1.383.8-1.73.8.923.114 1.96-.228 2.307-1.257l-.231.114s.346-.343.346-.457c-.115 0-.461.229-.461.229l.46-.457c-.114.114-.46.114-.46.114.115-.114.46-.229.346-.457-.116 0-.462.343-.462.343s.462-.572.462-.686l-.462.457c.231-.228.462-.571.462-.914-.116.114-.462.686-.577.571 0 0 .577-.8.461-.914-.23.343-.922.914-.346.229.231-.458.577-1.03.231-1.372-.115-.229-.115-.114-.461-.114-.23 0-.577-.114-.807-.229-.23-.114-.346-.343-.461-.571 0-.114-.231-.686-.116-.572 0 0 .346.686.462.8.23.229.922.572 1.268.229.115-.114.115-.457.115-.571.115-.23.115-.458.115-.8 0-.115-.23-1.03-.23-1.03.115-.113.46.572.46.687.116.342.116.571 0 .914-.114.343-.345.914-.114 1.257 0-.571.46-1.028.46-1.6 0-.343-.114-.571-.23-.8-.115-.114-.115-1.143.115-1.028-.115 0 0 .8.116.8.115.342.346.57.346.914 0 .571-.462 1.143-.577 1.714-.23 1.029.807 2.629-.23 3.886zM36.32 8.457c.115.114.577-.114.692-.114h.577c.115.114-.577.114-.692.114-.116 0-.23.114-.462 0-.115.114-.23-.114-.115 0zm.346.343c.115 0 .577-.114.461.114-.115.229-.576-.114-.46-.114zm-.115-1.029c.23 0 .115.115.115.115s-.346-.115-.115-.115c.115 0-.116 0 0 0zm.461.115c.115-.115.115-.115.23-.115 0 .115-.345.229-.23.115zm-.922-1.257c0 .228-.231.228-.231 0-.115 0-.346.114-.461 0-.116-.115.461-.229.461-.229.576-.114.922.229.23.229zm.576 0c0 .114.115.8 0 .8-.23 0 0-.8 0-.8zm.346.114c-.115-.343.115-.457.461-.457.115-.115.922-.115.807.228-.115.115-.346 0-.46 0 .114.229-.116.115-.231.115-.116 0-.116-.115-.231-.115-.23.115-.115.115-.115.229-.116.114.115.914.115.914-.346.114-.346-.686-.346-.914z" fill="#BF6F15"/><path d="M6.917 42.4h.807c0-.457.116-.457-.23-.457-.462 0-.923 0-1.153.457h.576c.23 0-.115 0 0 0zm0 .343c-.23 0-.461-.114-.576 0 .23.685.922.457 1.383.571v-.457c-.23-.114-.576-.114-.807-.114.115 0-.23 0 0 0zm.692 4.685c.23 0 .461 0 .807.115 0-.457 0-.457-.346-.457-.461 0-.807 0-1.038.457.231-.114.462-.114.577-.114.115 0-.115 0 0 0zm0 .23c-.23 0-.461-.115-.577-.115.231.8.923.457 1.384.685v-.457c-.23 0-.461-.114-.807-.114.23 0-.115 0 0 0zM40.123 37.37c0 1.029-.115 2.057-.115 3.086.577-.114 1.384-.114 1.96.229.807.457 1.384.685 2.306.8.807.114 1.384.228 1.96.8.346.343.346.457-.115.457-.461.114-.807 0-1.268.114-.923.229-1.5.343-2.422.114-.691-.228-1.268-.8-1.96-.685a.885.885 0 00-.576.228c-.115.114 0 1.143 0 1.257 0 .8 0 1.486-.115 2.286a2.834 2.834 0 011.383 0c.577.114 1.038.457 1.614.572.577.114 1.038 0 1.5.114.46.114 1.152.228 1.498.571.461.343.346.457-.115.572-.577.114-1.153.228-1.614.457-.923.343-1.96.114-2.768-.343-.23-.114-1.153-.457-1.383-.114-.115.228-.115.914-.115 1.142-.116 1.03-.116 1.943-.116 2.972 0 .343 0 .571-.23.8-.462.343-1.038.571-1.615.686-1.153.228-2.306.114-3.459 0-2.075-.343-4.38-1.372-6.572-.686-.691.229-.922.914-1.73.914-.46.114-1.152-.114-1.383-.457-.23-.228-.23-.228-.576-.457-.923-.343-2.19-.229-3.229-.114-1.153.114-2.19.571-3.343.685-1.153.229-2.422.229-3.575-.114-.46-.228-1.152-.343-1.498-.686-.346-.228-.116-.571-.116-1.028 0-.572 0-1.257-.115-1.943 0-.229.115-1.029-.115-1.257-.23-.229-1.153-.115-1.5.114-.23.114-.46.229-.806.229-.346 0-.462-.115-.692-.115-.23.115-.346.115-.577.115-.576 0-1.153.114-1.614-.229a1.383 1.383 0 01-.576-.571c-.116-.115-.116-.343-.116-.458-.115-.114-.807.115-.807-.114.23-.228.461 0 .692-.114.23-.114.23-.229.461-.572.461-.57 1.269-.457 1.845-.457.461.115.807.229 1.268.115.462-.115.808-.343 1.269-.458.46-.114.922-.114 1.268 0 0-.57 0-1.142-.115-1.714 0-.228.115-1.028-.116-1.257-.345-.343-1.383-.228-1.844-.114l-.692.343c-.23.114-.577.114-.807.114-.23.114-.462.228-.807.228-.462 0-1.038.115-1.5-.114-.23-.114-.46-.228-.576-.571-.115.343-.115 0-.115-.114-.115-.115-.807.114-.807-.115.115-.228.461 0 .692-.114h.115c.115-.114.115-.457.23-.572.462-.57 1.269-.57 1.96-.457h.462c.115 0 .115.115.115.115.461.114.807-.115 1.153-.229.807-.343 1.614-.571 2.421-.228-.115-.572-.115-1.143-.115-1.715 0-.228-.23-1.6 0-1.714-.115.114.461.114.461.114.116 0 .23-.114.346-.114.23-.114.346-.343.461-.457.23-.229.577-.8.923-.915.23-.114.807.115 1.153.115.46 0 .922 0 1.499-.115 1.268-.228 2.42-.8 3.69-1.142 1.267-.229 2.651-.457 3.804-.343.346 0 .692.114.922.114.231.114.577.229.923.229.346 0 .807-.229 1.153-.229 1.383-.343 2.882-.228 4.266-.114 1.268.114 2.421.571 3.574.914 1.153.343 2.076.229 3.113.229.346 0 .23-.115.577.228.115.114.23.343.461.572.115.114.346.228.461.457-.23.114.116.457.461.228 0 1.258-.115.115 0 0z" fill="#FCC307"/><path d="M37.934 35.886c-1.384.228-2.768.114-4.267-.343-1.73-.572-3.343-.8-5.188-.8-.461 0-.922.114-1.384.114-.46.114-.922.343-1.268.457-.23.115-.692-.228-1.038-.228-.46-.115-.807-.229-1.153-.229-1.73-.114-3.459.114-4.957.686-.923.228-1.96.686-2.883.8-.692.114-1.268 0-1.96-.114 0 .8.115 1.6.23 2.285.116.915.116 1.943.116 2.857 0 1.943.115 3.886.23 5.715.116.914.116 1.828.231 2.743 0 .228-.115.8.115.914.116.114.692.114.923.114 1.614.114 3.113-.457 4.727-.686.922-.114 1.96-.114 2.998-.114.461.114.807.114 1.268.229.346.114 1.153.228 1.268.571.462-.571 1.615-.8 2.306-.914.923-.114 1.845-.114 2.767-.114.923.114 1.73.228 2.652.571.923.229 1.615.571 2.652.457.23 0 .462-.114.577-.114.23 0 .576 0 .692-.114.115-.115.115-.229.115-.458 0-.914.115-1.714.115-2.628.116-1.943.23-3.772.23-5.6-.23-1.943-.23-3.886-.114-6.057z" fill="#fff"/><path d="M26.98 36.114V35.2c0-.114.115-.343 0-.457-.116 0-.231-.114-.231 0V46.17c0 .572 0 1.258.115 1.943v1.715c-.115-.572.115-3.543.115-3.886v-3.886c0-1.371 0-2.743-.115-4 .115-.686.115-1.371.115-1.943zm-1.038 8.8v-6.057c0-1.029 0-1.943-.116-2.971 0-.115.116-.572 0-.686l-.115-.114c-.23-.115-.807-.229-1.153-.229.115 2.971.115 5.829.115 8.8 0 1.6.116 3.086.231 4.572.115.571 0 1.257.115 1.942 0 .115 0 .343.116.458.115.114.576.342.691.457.577.457.231-.686.231-.915V48.8c-.115-1.371-.115-2.629-.115-3.886zm-1.614-8.457v-.914c0-.229.115-.8-.231-.8V39.2c0 1.714.115 3.543.115 5.371v2.972c0 .228-.115 2.743.116 2.857-.116 0 .115-1.714.115-1.943 0-.686.115-1.371.115-1.943v-3.886c0-1.37 0-2.742-.115-4.114-.116-.8-.116-1.371-.116-2.057zm-.346-.114v-.915c0-.228.115-.685-.231-.8V38.4c0 1.828.115 3.771.115 5.6v2.971c0 .229-.115 2.629 0 2.629-.115 0 .116-1.714.116-1.943 0-.571.115-1.143.115-1.714V42.17c0-1.371 0-2.628-.115-4v-1.828zm-.462-.572c0-.228.116-1.142-.23-1.142v3.085c0 1.829.115 3.772.115 5.6v2.972c0 .228-.115 2.628 0 2.628-.115-.114.115-3.314.115-3.657V41.6c0-1.257 0-2.629-.115-3.886.115-.685.115-1.371.115-1.943zm2.998-.8c-.23.115-.23.343-.23.572V46.4c0 .343-.116 3.428.115 3.428-.115 0 .115-3.428.115-3.657v-11.2zm-10.953 7.886c-.115-2.286-.23-4.457-.23-6.743 0-.114-.231 0-.231.114.115 2.286.23 4.572.23 6.972.116.914.116 1.828.116 2.743 0 .114.115.8.115.914.115-.114 0-.914 0-1.143v-2.857zm1.96-6.4c0 .457.115.8.115 1.257.116 1.372.116 2.629.23 4 0 .572.116 1.257.116 1.829 0 .457-.115 1.371.115 1.714l-.345-9.6c-.462.229-.346.572-.231.8zm.576 2.172c0 .228 0 .685 0 0zm0-1.829c0 .571.116 1.143.116 1.714v.114c0 .8.115 1.372.115 2.172 0 .343.115.571.115.914 0 .114.116.343.116.572-.116-2.286-.116-4.458-.231-6.629-.461 0-.23.8-.23 1.143zm.346-.457c0 .457.116 1.028.116 1.485.115 1.258.115 2.743.23 4 .116-2.057-.115-4.228-.115-6.285-.346 0-.23.457-.23.8zm17.295 10.4c0-.343 0-.229 0 0 .116-1.715.116-3.543.116-5.372 0-.914.115-1.943.115-2.971 0-.229.115-2.629.115-2.629.115 0-.115 1.486-.23 1.715-.116.685-.116 1.371-.116 1.943-.115 1.371-.115 2.742-.23 4-.116 1.371-.116 2.742-.116 4.114 0 .571-.115 1.257-.115 1.943v.914c0 .229-.115.8.115.8a29.02 29.02 0 00.346-4.457c0 1.143 0 .457 0 0zm.346.685c0-.914 0 1.486 0 0zm.23-8.457c0-.228.116-2.628.116-2.628.115.114-.23 3.314-.23 3.657-.116 1.257-.116 2.514-.116 3.771-.115 1.372-.115 2.629-.115 4 0 .572-.115 1.143-.115 1.715v.914c0 .229-.116.686.23.8.115-1.257.115-2.514.115-3.772.116-1.828.116-3.77.116-5.6v-2.857zm.462 3.429c0-.914.115-1.943.115-2.971 0-.229.115-2.629.115-2.629.116 0-.115 1.6-.115 1.829-.115.571-.115 1.257-.115 1.828-.115 1.257-.115 2.4-.115 3.657-.116 1.257-.116 2.629-.116 3.886 0 .571-.115 1.257-.115 1.943 0 .228-.23 1.143.23 1.143.116-1.029.116-2.057.116-3.086 0 .228 0 .686 0 0 0-.457 0-.229 0 0a45.374 45.374 0 010-5.6zm-1.384-5.829c-.346 2.4-.346 4.8-.46 7.315-.116 1.257-.116 2.628-.116 3.885 0 .572-.115 1.258-.115 1.829v.8c0 .343-.116.571.23.8.115-1.143.115-2.172.115-3.314v-.115c0-.343 0-.228 0 0 .116-1.828.116-3.657.116-5.6 0-.914.115-1.943.115-2.971.115-.8 0-1.829.115-2.629zm1.614 11.315c0-.115 0-.115 0 0zm.116-5.372c0-.914.115-1.943.115-2.971 0-.914-.115-1.715.115-2.629-.23 2.286-.23 4.572-.46 6.972-.116 2.4-.116 4.8-.231 7.085.346-.114.23-.228.23-.571v-.686c0-.571.115-1.143.115-1.6.116-1.943.116-3.771.116-5.6zm.692-5.486c-.116 0-.116 0 0 0-.346 2.286-.346 4.572-.462 6.972-.115 2.4-.115 4.686-.23 7.086.346.114.23-.8.23-1.029 0-.571.116-1.257.116-1.829.115-1.828.115-3.77.115-5.6 0-.914.115-1.942.115-2.97 0-.915-.115-1.83.116-2.63zm-3.575 12.8c0-1.37 0-.228 0 0zm.346-8.228c-.115 1.486-.115 2.971-.23 4.457 0 .8-.116 1.6-.116 2.4 0 .457-.115.914-.115 1.371v.572c0 .229-.115.343.23.457v-1.143c0 .114 0 .114 0 0 .116-1.486.116-2.971.116-4.457 0-.8 0-1.486.115-2.286V41.6zm-.692 2.286c-.115.914-.115 1.942-.23 2.857 0 .8-.116 1.371-.116 2.171 0 .229 0 .572-.115.914v.572c0 .229-.115.229.23.457.116-1.143.116-2.286.116-3.428 0-.915 0-.458 0 0 .23-1.258.115-2.4.115-3.543zM16.026 42.4c0-1.143-.115-2.4-.115-3.543 0-.571-.116-1.143-.116-1.714 0-.229.116-1.143-.23-.915 0 .572.115 1.143.115 1.715 0-.229 0-.114 0 0 .115 1.943.115 3.886.23 5.943 0 .571.116 1.257.116 1.942 0 .115.115.572.115.686.116-.228 0-.914 0-1.143-.115-1.028-.115-2.057-.115-2.971zm-.346-4v-.457.457zm0 0c0 .114 0 .114 0 0zm.346-.914c0 .228.115 1.143 0 0zm.461 5.028c-.115-2.057-.115-4.228-.23-6.4h-.231c0 .457.115.915.115 1.257 0-.114 0-.114 0 0 .116 1.943.116 3.886.23 5.943 0 .572.116 1.257.116 1.943 0 .114.116.572.116.686.115-.114 0-.686 0-.914-.116-.8-.116-1.715-.116-2.515zm.461-.228c-.115-2.058-.115-4.115-.23-6.286-.461-.114-.23.8-.23.914 0-.114 0-.114 0 0 .114 1.943.114 3.886.23 5.943 0 .572.115 1.257.115 1.943 0 .114.115.571.115.686.116-.115 0-.8 0-.915v-2.285zm.462-.229c-.116-2.057-.116-4-.231-6.057-.346-.114-.23.343-.23.571 0 .115.115 1.372 0 0 .115 1.943.115 3.886.23 5.943 0 .572.115 1.257.115 1.943 0 .114.116.572.116.686.115-.114 0-.572 0-.8v-2.286z" fill="#C7C6C7"/><path d="M26.289 42.971s-.116-7.771-.347-7.771c-.23-.114-.115.8-.115 1.143v12.8c0 1.257-.116 1.828.115 1.828s.116-1.142.116-1.142l.23-6.858z" fill="#1E1E1C"/><path d="M9.339 46.743c0 .114.115 0 0 0zm32.053.228c.23-.114.115-.57-.23-.457-.347 0 0 .572.23.457zm2.421.458c.576-.115-.115-.572-.23-.343-.346.114.115.343.23.343zm-3.228-5.143c.46-.114.691.114 1.037.228.577.343 1.269.572 1.96.686.692.114 1.269-.343 2.076-.457.461-.114 1.73.114.922-.686-.576-.457-1.268-.8-2.075-.8-.807-.114-1.384-.228-2.076-.571-.691-.343-1.383-.572-2.19-.457 0-.8.115-1.486.115-2.286 0-.229.115-.572-.115-.8-.115 0-.115 0-.23.114-.116-.114-.231-.114-.462-.228l-.23-.229c-.231-.228-.462-.457-.577-.686a1.384 1.384 0 00-.577-.571c-.115-.114-.46.114-.576.114-.23 0-.577 0-.807.115-1.153.114-2.306-.343-3.46-.686-1.383-.343-2.651-.457-4.035-.572-.692 0-1.383 0-2.075.115-.346.114-.807.343-1.153.343-.23 0-.461-.115-.807-.23-1.268-.342-2.537-.228-3.805-.113-1.384.114-2.652.571-3.92 1.028-.923.343-1.96.457-3.113.343-.462-.114-.692-.114-1.038.343l-.577.571c-.23.229-.345.457-.576.572-.461.114-.576-.229-.576.343-.116.343 0 .685 0 1.028.115.686.115 1.372.23 2.057-1.038-.343-1.73.115-2.652.457-.115.115-.461.115-.576.115-.23 0-.116-.114-.23-.114-.231-.115-.577 0-.808 0-.461 0-.807-.115-1.153.114a.896.896 0 00-.461.457c-.115.114-.23.457-.23.571-.116.115-.577-.114-.693 0-.576.115.116.343.346.343h.231c.115.114.115.457.23.572.231.343.692.571 1.154.571h1.153c.23 0 .23-.114.46-.228.116-.115.462 0 .577-.115.923-.228 1.5-.8 2.537-.571.461.114.461.114.461.571v.686c0 .571 0 1.143.115 1.6-.576-.114-1.037-.114-1.499.114-.46.114-.922.457-1.383.457-.115 0-.23-.114-.23-.114h-.462c-.461 0-.922-.114-1.268 0-.23.114-.461.114-.577.343-.115.114-.23.571-.346.571-.23.115-.576-.114-.807 0-.346.343.461.229.577.343.23.115.115 0 .23.229.116.228.23.457.462.571.576.457 1.729.457 2.42.343.116 0 .116-.114.231-.114h.462c.23 0 .46-.114.576-.229.346-.114.692-.228 1.153-.343.115 0 .577-.114.807.115.115.114.115.343.115.571 0 .457.116.914.116 1.372 0 .57.115 1.142 0 1.6-.116.457-.116.457.346.685 1.96 1.143 3.92 1.143 5.995.572.923-.229 1.73-.458 2.652-.458.923-.114 2.076-.228 2.883.23.345.228.46.456.922.685.461.114.922.228 1.384.114.46-.114.576-.457.922-.686.23-.228.807-.343 1.153-.457 2.075-.343 3.805.457 5.765.8 1.038.114 2.19.229 3.228.114.577-.114 1.96-.457 2.191-1.028.115-.229.115-.686.115-.914v-1.372c0-.457.116-1.028.116-1.486 0-.228-.116-.57.115-.8-.115-.228.115-.228.461-.228-.115 0-.115 0 0 0s.23 0 0 0c.577.114 1.038.457 1.614.571.577.115 1.153.229 1.73.115.576-.115.922-.457 1.614-.457.346 0 1.153 0 .807-.458-.23-.343-.922-.685-1.384-.8-.576-.114-1.153 0-1.729-.114-.577-.114-1.038-.343-1.499-.571-.576-.229-1.038-.115-1.614-.115 0-.8.115-1.6.115-2.4 0-.228-.115-.457 0-.685-.576-.229-.691-.229-.23-.343zm2.42-.915c.231.115.116.23.116.343-.23 0-.115-.228-.115-.343zm-2.651-.228c0-.229.115-.457.115-.572.231 0-.115 1.258.116 1.258.115 0 .23-.572.23-.572h.116s-.231.457 0 .457c.23 0 .115-1.142.345-1.142 0 .114-.115.685-.115.685l.23-.8c.231 0 1.154.229 1.269.572.115.114-.23.914-.115.914s.23-.8.23-.914c.23.114.116.228.116.457-.116.114-.116.114 0 .343.115.685.115-.229.346-.115l.115.115c0 .114-.115.343 0 .343s.23-.8.23-.915c.116.114 0 .915.116.915 0 0 .23-.8.23-.915h.116c0 .114-.116.915-.116.915s.116-.343.116-.458c.115-.228 0-.343.115-.457.23-.114.807 0 .922 0 .577.114 1.384.457 1.73.915-.577-.115-1.153-.343-1.614-.115-.577.229-1.153.343-1.73.229-.576-.114-1.153-.457-1.614-.686-.23-.114-.461-.114-.692-.229-.23 0-.23.115-.461-.114-.115-.114-.115-.457-.115-.457l-.231.343zm2.652 1.6c.576.114 1.153.114 1.73-.114.576-.229 1.037-.115 1.614-.115-.116 0-.923 0-1.384.115-.577.228-.922.343-1.499.228-1.153-.114-2.075-1.143-3.343-.8 0-.571 2.536.572 2.882.686zm-38.28-.229c0-.114.577-.114.692-.114 0 .343-.46.229-.691.114zm1.73.115c0-.229.461-.115.692-.115.115 0 .576-.114.576.115H6.456zm1.153.228v.229c-.346-.114-.922.114-1.153-.343.346.114.807.114 1.153.114zm0-.457H6.456c.23-.228.807-.228 1.153-.228v.228zm-1.845.114c.116-.914 1.038-1.257 1.845-1.143 0 .458 0 .458-.461.458s-.807.114-.923.457c-.345.8.808 1.257 1.384 1.143v.343c-.807 0-1.96-.115-1.845-1.258zm1.96-1.143c.23 0 .462.115.462.23.115.113.115.456.115.57v.8c0 .343 0 .458-.346.458-.23-.115 0-1.943-.23-2.058zm.116 2.286v-.228h.46c0 .343-.345.228-.46.228zM5.649 47.43c-.115-.115.461-.115.576-.115.231.229-.46.229-.576.115zm1.499.114c0-.229.576-.114.692-.114.115 0 .576-.115.576.114H7.148zm1.153.343v.228c-.346-.114-.923.115-1.153-.342.346 0 .807.114 1.153.114zm0-.457c-.461 0-.807-.115-1.153-.115.115 0 .115-.114.115-.114.115-.114.461-.114.577-.114.346 0 .46 0 .46.343zm-1.845.114c0-1.029 1.153-1.143 1.845-1.029v.457c-.577 0-1.73-.114-1.384.8.116.343.577.458.923.572.46.114.576-.114.576.343-.807 0-1.96-.114-1.96-1.143zm1.96-1.029c.23 0 .461.115.461.229.116.114.116.457.116.571v.8c0 .343 0 .458-.346.458-.23-.23 0-1.943-.23-2.058zm.115 2.172v-.114h.462c0 .114-.231.114-.462.114zM38.163 38.4v2.4c0-.686-.115-1.6 0-2.4zm-.115 12.343c0 .343.115.457-.23.571-.346.115-.577.115-.808.115.116-.229-.115-.229-.23-.229.461 0 .922-.114 1.153-.229.115-.228 0-1.142.115-1.37.115-1.6.23-3.315.23-4.915.116 1.028 0 2.057-.115 3.2 0 .457-.115.914-.115 1.257-.115.457-.23 1.143 0 1.6zM15.911 36.229c1.037-.115 1.96-.457 2.882-.8 1.614-.458 3.344-.8 4.958-.686.461 0 .807.114 1.153.228.346.115.807.343 1.038.23.46-.115.922-.344 1.268-.458.461-.114.922-.114 1.383-.114 1.73 0 3.46.228 5.189.8 1.384.457 2.767.685 4.266.343-.115 2.057-.115 4.114-.115 6.17.115 1.944-.115 3.772-.23 5.6-.116.915-.116 1.715-.116 2.63 0 .228.115.342-.115.457-.116.114-.462.114-.692.114-.23 0-.461.114-.577.114-.922.114-1.73-.114-2.652-.457-.807-.228-1.73-.457-2.652-.571-.922-.115-1.844-.115-2.767.114-.692.114-1.845.343-2.306.914-.23-.343-.922-.457-1.268-.571-.461-.114-.807-.229-1.268-.229-.923-.114-1.96-.114-2.998.114-1.614.23-3.113.8-4.727.686-.23 0-.807 0-.923-.114-.115-.114-.115-.686-.115-.914-.115-.915-.115-1.829-.23-2.743-.231-1.943-.231-3.886-.231-5.715 0-.914 0-1.942-.116-2.857-.115-.8-.23-1.6-.23-2.285.807 0 1.499.114 2.19 0zm10.953 14.628c.23-.114.461-.114.576-.228.116.114 1.269-.343 1.269-.343l-.116-.114c1.384-.23 2.652-.115 3.92.228-.115.114.116.229.116.229a10.534 10.534 0 00-3.805-.343c-1.038.114-1.845.457-2.767.8-.115 0 .115-.229.23-.229 0 .343.577.114.577 0zm-.346.572c-.115.114.807-.229.922-.229.462-.114.808-.229 1.153-.343a5.33 5.33 0 012.306-.114c1.384.114 2.768.686 4.151.914.23 0 .346.115.577.115-.461 0-.923-.115-1.384-.115-.576-.114-1.153-.457-1.614-.457-.115 0-.115.114-.23.114-.116 0-.231-.114-.346-.114-.231-.114-.577-.114-.923-.114a4.404 4.404 0 00-1.73 0c-1.037.114-2.075.228-2.997.8-.115-.343.115-.457.115-.457zm6.226-.8c.807.228 1.384.457 2.191.571-.692-.114-1.73-.229-2.19-.571zm-5.765.914c-.576.457.692-.114.807-.114.346-.115.807-.343 1.153-.343 1.153-.114 2.306-.114 3.344.228.922.229 1.845.572 2.767.686.23 0 .462 0 .692.114-.23 0-.461.115-.576.115h-.807l-1.73-.343c-1.153-.229-2.075-.343-3.344-.343-.576 0-1.153.114-1.614.229-.23.114-.576.114-.807.228-.23.114-.461.229-.576.114.46-.342.576-.457.691-.571zm-2.075.229c.115-.115.576.114.576.228v.114c-.23-.228-.346-.342-.576-.342zm.461.457c-.23.114-.461 0-.576-.115.115 0 .115-.114.115-.114.115 0 .23.114.461.229zm-.115-.8c.23 0 .346.114.461.114v.114c-.23-.114-.346-.114-.461-.228zm0-.343c.115 0 .115-.114.115-.114.115.114.346.114.461.342-.115-.114-.346-.114-.576-.228zM8.647 41.714c.807 0 1.268-.685 2.075-.8.346 0 1.038 0 1.153.229.115.343.115 1.029.115 1.371-.23-.114-.115-.457-.23-.685 0-.115 0-.686-.115-.686-.116 0 0 1.143 0 1.143-.231-.114-.116-1.143-.346-1.143-.116 0 0 1.029 0 1.143-.231-.114-.116-1.143-.231-1.143-.23 0 .115 1.143-.115 1.143 0-.114-.116-1.143-.23-1.143-.116 0-.116.686-.116.8 0 .457 0 .343-.461.457-.462.114-1.038.229-1.384.572.115-.343-.115-.8-.23-1.143 0 .114-.116.228 0 .457.115-.114 0-.343.115-.572zm3.343 1.372c-.807-.229-1.383-.114-2.075.114-.23.114-1.384.686-1.268.229.46 0 1.153-.572 1.73-.686.23 0 1.844-.229 1.613.343zm-.807 3.086c.23-.115.807-.115.923.114.115.228.115.914.115 1.257-.23-.114-.23-.114-.23-.457 0-.114 0-.572-.116-.572-.23 0 .115 1.029-.23 1.029.115-.114 0-1.029-.116-1.029-.115 0-.115.572-.115.572 0 .228.115.457-.115.457.115-.114 0-1.029-.116-1.029-.115 0-.115 1.029-.115 1.143-.461.115-1.038.229-1.499.457 0-.114-.115-1.142-.23-1.142-.116 0-.116.114-.116.114v-.343c.807 0 1.384-.457 1.96-.572zm-.807 2.17c-.23.115-.807.344-1.037.23-.231-.115.23-.23.23-.23.23-.113 2.767-1.028 2.652-.228-.692-.228-1.268 0-1.845.229zm13.72 4c-.576-.228-1.267-.228-1.844-.228-1.038 0-2.075.229-2.998.458-2.306.57-4.727.914-6.802-.458.23-.228.115-.914.115-1.257 0-.685 0-1.371-.115-1.943-.116-1.257-.116-2.4-.231-3.543-.115-2.628-.461-5.142-.576-7.657.46.115.922-.457 1.152-.685.116 0 .231-.115.231-.115.115-.114.115-.228.115-.228.116-.114.231-.343.346-.457v1.028c0-.228-.46-.457-.46-.114-.462-.229-.462.686-.462.914 0-.114 0-.457-.23-.457-.116 0-.231.114-.116.229-.23-.115-.23.228-.23.228-.116-.228-.231 0-.231.114-.115.23 0 .458 0 .8.115.572.115 1.143.115 1.715.115.457.115 1.028.23 1.486 0 .228.231 1.485.116 1.6-.115.114.115 1.6.115 1.942.116.8.116 1.6.23 2.4.116.8.116 1.6.116 2.4 0 .115 0 1.372.23 1.143.231-.228 0-1.371-.115-1.714 0-.8-.115-1.6-.115-2.286-.115-.8-.115-1.6-.23-2.4 0-.571.115-1.143.115-1.6.115 1.486.115 2.972.23 4.457.116.8.116 1.486.231 2.286 0 .229-.115.914 0 1.029.23.343.23-.458.23-.572 0-1.486-.23-2.971-.23-4.457 0-1.486-.115-2.971-.115-4.571.115.8.576 9.142.807 9.142 0 0-.346-5.942-.346-6.628.23.114.23 1.828.23 2.171.116.915.116 1.715.231 2.629.115.457 0 .8.115 1.143.116.343.116.343.116-.114.115-.8-.116-1.6-.23-2.4-.116-1.6-.347-3.315-.231-4.915.115-1.714-.116-3.428-.116-5.143.116 2.058.116 4.229.23 6.4.116 2.058.462 4.115.577 6.058 0 .114-.115.342 0 .457.116.114.346.114.462.114h.922c.922.114 1.73-.114 2.652-.229 1.614-.457 3.574-.8 5.304-.228.115.114.23.114.46.228-1.613-.457-3.343-.114-4.957.115-.692.114-1.384.228-2.19.343a4.404 4.404 0 01-1.73 0c-.115 0-1.153-.23-1.038-.343-.115.228 1.153.457 1.153.457-.23 0-.807-.114-.922-.114-.23.114.23.228.46.228.577.114 1.154 0 1.615 0 .577 0 1.153-.114 1.73-.229.23-.114.576-.228.807-.228 1.383-.229 3.343-.686 4.612-.114-1.614-.229-3.113 0-4.728.343-.922.228-1.844.342-2.767.457-.461 0-.922 0-1.383-.115-.116 0-.923-.228-.923-.343-.23.343 2.19.572 2.306.572-.461.114-.922.114-1.383.114-.116 0-.462-.114-.462-.114-.115.229.231.229.462.229-.116 0-1.269-.343-1.269-.343-.115.228 1.038.457 1.153.457a6.324 6.324 0 002.076 0c-.577.114-1.153.228-1.73.114-.115 0-.807-.228-.807-.228-.115.114.23.228.346.228-.23-.114-.461-.114-.576-.114-.231-.114-.577-.229-.808-.229-.23 0-.115.115.116.115.23.228.576.228.922.342.692.115 1.153.343 1.845.343s1.384-.114 1.96-.228c.576-.115 1.038-.343 1.614-.457.461-.115.923-.115 1.5-.23 1.383-.113 2.65-.113 3.92.458-.347.8-.577.457-.923.343zM19.14 52h-.115c1.614-.343 3.459-.571 5.073-.228h-.115c-.231-.115.23.228.23.228-1.73-.343-3.459 0-5.188.229.115 0 .346-.115.115-.229zm0-.228c.115-.23-.692-.115-.807-.115 1.73-.457 3.92-.8 5.765-.343-.116 0-.346-.114-.461-.114 0 0 .46.229.576.229-1.614-.343-3.459 0-5.073.343zm7.84 1.257c-.576.457-1.383.342-1.96.114.116-.457.807-.114 1.153-.114.116-.115 1.038-.686.807 0zm12.683-1.6v.685c-.115.343-.346.458-.691.572-.808.343-1.5.457-2.306.343a13.41 13.41 0 01-2.998-.343c-.807-.229-1.5-.457-2.306-.572C30.554 52 29.747 52 28.939 52c-.46 0-.922.114-1.268.229-.23.114-.346.228-.576.114.576-.572 2.075-.572 2.882-.572 1.038 0 1.96.115 2.998.458.922.228 1.96.571 2.998.571.576 0 1.153 0 1.614-.114.23-.114.576-.114.807-.229.115 0 .577-.228.461-.228-.115-.115-.692.228-.807.228-.23.114-.576.114-.922.114-.23 0-.692 0-.923-.114-.115.114-.23.114-.576.114-.692 0-1.269-.114-1.96-.228-.23-.114-.577-.229-.807-.229-.116 0 0 .115.115.229-1.73-.457-3.574-.686-5.304-.229-.115.115-.807.343-.922.229-.23-.114.576-.229.576-.229.577-.114 1.268-.457 1.845-.457.807-.114 1.73-.114 2.537.115.807.114 1.498.457 2.306.57.807.115 1.614.23 2.42.23.462 0 .808 0 1.27-.115.114 0 .922-.343.806-.457-.115-.114-.46.114-.576.229-.23.114-.461.114-.577.114-.23 0-.576.114-.807 0-.23-.114-.115-.114-.461-.229h-.115c.346 0 .691 0 1.037-.114.231 0 .577-.114.808-.114.115 0 .46-.229.46-.229-.115-.114-.46.115-.576.229-.23.114-.461.114-.576.114-.23-.114-.116-.114-.346-.228h-.116c.346 0 .692-.115 1.038-.115.807-.228.692-.914.577-1.6-.116-.8.115-1.6.115-2.4 0-.914.115-1.714.115-2.628.116 1.371.116 2.742.116 4.228V48.8c0 .457-.116 1.143-.116 1.714 0 .115 0 1.258.116 1.258.23.114.23-2.172.23-2.4.116-1.03.116-2.058.116-3.086 0 .228.115 1.371.23 1.257 0 .457-.115 1.029-.115 1.486-.115.228-.115.228-.115.571-.116.457-.231 2.286.115 2.4.115 0 .115-1.828.115-2.057.115-.914.115-1.943.115-2.971.116.114.116.114.231 0 0 .457-.115.914-.115 1.37 0 .458.115.915 0 1.372 0 .229-.462 2.058-.116 2.172 0 .228.116.114.231 0s.115-.457.115-.572c.116-.457.116-1.028.116-1.485V48c0-.343.115-.571.115-.914v-.457l.115-.115a36.468 36.468 0 00-.346 4.915zm0-7.657v-.686.686zm.116 2.285v-.685.685zm6.11 1.143c.116.114.231.114.231.229-.115 0-.23-.115-.346-.115.115.115.115 0 .115-.114zm-.346-.114c.116.114.116.228.116.343-.23 0-.116-.115-.116-.343zm-.23-.114c.23.114.115.228.115.457-.23-.115-.115-.229-.115-.458zm-.23-.115c.115.114.115.229.115.343-.116.229.115.114-.231.229 0-.229.115-.458.115-.572zm-2.307-.228v.343c-.115 0 0-.23 0-.343zm-.23-.115c0 .115.115.115 0 0 .115.115.115.229 0 .343h-.116c.116 0 .116-.114.116-.343zm-2.191-.457c.115.343.115.686.115 1.029 0-.229.116-.572.231-.914v.57c0 .115.115-.342.115-.456.116-.343.116-.457.577-.229.23.114.691.229.807.343.115.114.115.572.115.914 0-.228.115-.571.23-.8.231.115-.115 1.029.116 1.029.115 0 .115-.114 0-.114-.115-.115 0-.229.23-.115 0 0-.115.343 0 .343.116 0 .116-.343.231-.457 0 .114-.115.457.115.457.116 0 .116-.8.116-.914.115-.114.922 0 1.153 0 .115 0 .461-.114.576 0 .23.114.116-.114.23.228.116.458-.114.458-.46.572-.807.343-1.384.457-2.191.114-.692-.228-1.268-.571-1.96-.571-.346-.343-.346-.686-.346-1.029zM43.006 48c.576.114 1.038-.114 1.614-.343.461-.228.922-.114 1.384-.114-.462.114-.923 0-1.269.229-.576.228-.922.457-1.498.457-.577 0-1.154-.115-1.615-.343-.46-.229-.922-.457-1.498-.343 0-.114 0-.114.115-.114.807-.229 1.73.457 2.767.571zm-3.228-6.4c0-.229-.116-.8-.116-.914.116-.572 0-1.029 0-1.6 0-.229.116-1.486-.115-1.6-.115 0 0 .914 0 .914v1.486c-.115.914.115 1.943-.115 2.971 0-.457-.116-5.257-.23-5.257 0 0-.231 2.743-.231 2.971.115-.57.115-1.257.115-1.828 0-.229.115-1.257-.115-1.486-.231-.228-.116.8-.116 1.029v1.6c-.115-.915-.23-1.829-.23-2.743 0-.114.115-.572-.116-.343-.115.114 0 .8 0 .914 0 .572 0 1.143-.115 1.715-.115-1.258-.23-2.286-.23-3.543.115.114.23.343.46.457.116.228.231.228.462.457.23.229.807.914 1.268.8-.346 1.257-.461 2.629-.576 4zm1.844 0c.23-.114.116-.571-.23-.457-.23 0 .115.571.23.457zm2.652.686c.346-.229-.23-.572-.346-.457-.346.228.116.571.346.457zm-5.073 2.285c0-.228 0-.228 0 0zM5.65 47.43c-.115 0 .461.114 0 0z" fill="#BF6F15"/><path d="M16.027 39.314c.576-.114 2.075-.228 2.306.457.346.915-1.153 1.029-1.614 1.029v.686s.115.8.23.571c0 .114-.807 0-.807.114.116-.228.116-.457.116-.8 0-.228-.116-.457-.116-.685v-.8c.116-.343-.115-.457-.115-.572zm.692.229c0 .114 0 .914.115.914.115.114.692.114.922 0 .346-.228.462-.8.116-1.028-.346-.115-1.153-.115-1.153.114zm1.845-.343c-.116-.114.115-.114.23-.114.23-.115.461-.115.577-.115.346-.114.807-.228 1.153-.228 0 0 .115.571 0 .571.115-.114-.462-.228-.577-.228-.23 0-.576.114-.576.457 0 .114 0 .571.115.571.23.229.576-.457.692-.457.115 0 .115.8 0 .8-.116.229-.23-.457-.577-.114-.23.228 0 1.028 0 1.257.23-.114.807-.114.923-.343.115-.114.23-.686.46-.686 0 0 0 .572-.114.686-.116.229-.116.229-.346.229-.116.114-1.614.457-1.614.457l.23-.572v-.8c-.23-.457-.23-1.257-.576-1.371.115 0 0-.114 0 0zm3.343-.571c0 .571-.23 1.257.577.8.346-.115.576-.686.23-.915-.23-.114-.807-.114-.807.115zm-.807 0c-.23-.115.461-.229.461-.229.231-.114.462-.229.808-.229.46-.114 1.268.115.922.8-.115.229-.346.229-.461.458-.23.228-.116.114-.116.342.116.229.346.572.462.686.115.114.807.343.807.229 0 .228-.923 0-1.038-.115-.346-.228-.461-.571-.807-.8-.346-.228-.346-.114-.23.229 0 .229.115.343.115.571 0 .115.115.115.115.229s-.923.114-.807.229c0-.115.115-.458.115-.572v-.571c0-.229 0-1.029-.346-1.257.23 0-.115-.115 0 0zm-5.073 7.085c-.115.229-.23.572-.23.8.115 0 .46.115.576 0-.115-.228-.346-.571-.346-.8zm-1.153 1.943c.115-.228.23-.457.346-.571.115-.115.115-.343.115-.457.115-.229.346-1.372.577-1.486.23-.114.46.8.46 1.028.116.229.116.572.232.915 0 .114.345.8.345.8l-.691.114v-.686c-.116-.343 0-.228-.231-.343-.115-.114-.461-.114-.577 0-.23.115-.115.8-.115.915 0-.229-.346-.229-.461-.229zm2.882-2.4c-.115.114.116.914.116 1.029.115.228.115.343.461.228.23-.114.461-.457.23-.8 0-.343-.576-.914-.806-.457.115-.228 0 .114 0 0zm-.46-.228c0-.229 1.383 0 1.614.114.576.571-.116 1.028-.462 1.257.23.229.23.457.346.686.116.228.346.343.577.457-.461.114-.807-.229-1.038-.572-.115-.114-.346-.685-.461-.571-.116.229.23.8.115 1.029-.115.228-.115.114-.23.228-.116 0-.462.114-.462 0 0 .114.23-.457.23-.571 0-.229-.114-.457-.114-.686 0-.229.115-1.257-.116-1.371zm2.19-.115c.115-.228.922-.228 1.153-.114.576.114.807.8.807 1.257 0 .457-.346 1.029-.692 1.257-.115.115-1.153.457-1.268.343 0-.114.115-.228.23-.457v-1.029c0-.228.116-1.142-.23-1.257zm.576 0c-.23.229 0 1.143 0 1.372 0 .228-.115 1.143.231 1.143.577.114.692-1.258.577-1.6.115-.115-.346-1.372-.808-.915.116 0-.115.115 0 0zm1.384-.343c-.115-.228.922-.228.922-.228s-.23.228-.23.457.115.571.115.8c0 .343-.115 1.486.577 1.143.46-.229.23-.914.23-1.372 0-.114-.115-1.371-.346-1.257.116-.114.577-.114.577-.114.115.114-.115.114-.115.229-.116.228-.116.228 0 .457.115.571.23 1.485-.231 1.943-.576.571-1.153-.115-1.268-.8.115-.115.115-.458.115-.8v-.458c-.115 0-.115.115-.346 0zm2.767 1.486h.577c0-.114-.23-.914-.23-.914-.231-.114-.347.686-.347.914zm-.576.8c.346-.457.461-.914.576-1.371.116-.229.23-1.257.461-1.372.116-.114.346 1.372.462 1.6.115.457.23 1.143.576 1.372-.23 0-.576-.115-.807-.115.115-.457.115-.914-.461-.914-.346.114-.346.114-.346.457 0 .115.115.229 0 .457l-.461.115v-.229zm6.918-6.971h.576c0-.115-.115-.915-.115-.915-.115-.114-.461.686-.461.915zm-.692.8c.346-.457.461-.8.807-1.257.115-.229.461-1.258.576-1.372 0 0 .692 2.743.692 2.972-.23-.115-.46-.115-.576-.115.115-.114.115-.457 0-.571-.115-.114-.461-.343-.692-.343-.23.114-.23.114-.461.457 0 .343 0 .229-.346.229zm2.998-2.172c-.116-.228.807.115.922.115.461.114.922.571 1.038 1.028.23.8-.346 1.714-1.268 1.714-.116 0-.577-.114-.808-.114-.115-.114 0-.343.116-.571.115-.572.346-1.829 0-2.172zm.576.115c0 .457-.115.914-.115 1.257 0 .114-.115.914 0 1.143.115.114.576 0 .807-.115.23-.228.23-.8.346-1.028.115-.343.115-.8-.23-1.143-.116.114-.808-.343-.808-.114zM28.48 44.8c-.23.229-.46.8-.46 1.143.23.114.69.114.69-.229.116-.228-.23-.8-.23-.914zm-.922 2.171c0-.114.23-.457.346-.685.115-.229.115-.457.23-.572.116-.228.462-1.6.577-1.6.115.115.461 1.257.461 1.372.115.457.23 1.028.577 1.371-.116 0-.808 0-.808-.114 0-.572.116-.8-.576-.8-.23 0-.23 0-.346.114-.115.229-.23.572-.115.8 0 0-.23 0-.346.114zm2.652-2.628c-.116-.114.922-.114.807.114 0 0-.23.114-.23.229v.228c0 .457 0 .8-.116 1.143 0 .229-.115.572.115.8.346.343.923-.228 1.269-.228-.116.114-.116.342-.231.457-.115.228-.23.114-.576.114-.116 0-1.269-.229-1.269-.114.115-.229.23-.343.23-.572v-.685c.231-.686.347-1.258 0-1.486zm2.421.228c.23.115.692.115.922.115.116 0 .692-.115.808 0 0 0 .115.343.115.457-.115.228-.461-.229-.692-.229-.461 0-.23.572-.346.915 0 .228-.115.457-.115.571v.457c0 .114.115.229.23.343 0-.114-.922 0-.922 0 0-.114.23-.229.23-.229.116-.114 0-.228.116-.228.115-.229.115-.572.115-.914 0-.115.23-.8.116-.915-.231-.343-.807.343-.923.343-.115-.114.346-.686.346-.686zm2.652 1.143c-.115.229-.23.457-.23.8.23 0 .46.115.576.115 0-.343 0-.686-.23-.915h-.116zm.115-.914c.116-.229.23.457.23.343.116.228.116.457.231.571.231.572.462 1.143.808 1.715-.231-.115-.577.114-.692 0-.115-.115 0-.115-.115-.229-.116-.457-.231-.571-.577-.571s-.461 0-.461.457c0 .114.23.343.115.457h-.576s.576-1.257.576-1.372c.23-.457.346-.914.461-1.371 0 .114 0-.114 0 0z" fill="#1E1E1C"/></svg>