<svg width="108" height="24" fill="none" xmlns="http://www.w3.org/2000/svg"><path d="M.387 8.824l9.807.002 5.963.001V2.831L.387 8.824z" fill="#FF9D28"/><path d="M16.156 2.831V24l7.448-24-7.448 2.831z" fill="#68C5ED"/><path d="M16.157 8.826h-5.964l5.964 15.173V8.826z" fill="#044D80"/><path d="M.387 8.824l11.336 3.896-1.53-3.894-9.806-.002z" fill="#E54747"/><path d="M36.512 18.427a2.75 2.75 0 01-.432.328 4.713 4.713 0 01-.789.395c-.324.132-.72.245-1.188.34a8.17 8.17 0 01-1.609.142c-1.166 0-2.174-.19-3.024-.57a5.638 5.638 0 01-2.106-1.589c-.555-.68-.961-1.483-1.22-2.412-.26-.928-.39-1.947-.39-3.058 0-1.11.141-2.137.422-3.08.28-.943.702-1.757 1.264-2.445a5.817 5.817 0 012.106-1.61c.842-.388 1.832-.582 2.97-.582.561 0 1.069.051 1.523.154.453.102.85.223 1.188.361.338.14.619.285.842.439.223.153.392.281.508.383.13.118.24.256.335.417.093.16.14.336.14.526 0 .293-.108.585-.324.877a6.316 6.316 0 01-.713.811 8.82 8.82 0 00-.583-.537 3.94 3.94 0 00-.724-.482 4.752 4.752 0 00-.907-.35 4.197 4.197 0 00-1.134-.143c-.734 0-1.35.15-1.847.449-.497.3-.896.69-1.199 1.173a5.016 5.016 0 00-.648 1.655 9.745 9.745 0 000 3.87c.13.628.353 1.184.67 1.666.316.482.73.87 1.242 1.162.51.292 1.148.438 1.912.438.403 0 .774-.051 1.112-.153a4.422 4.422 0 001.577-.833c.194-.161.356-.3.486-.417.086.102.187.227.302.373.116.147.224.3.324.46.1.161.187.322.26.482.071.161.107.307.107.439 0 .19-.036.35-.108.482a2.086 2.086 0 01-.345.439zm11.132-1.682c0 1.162.166 2.007.5 2.537a3.652 3.652 0 01-1.434.287c-.523 0-.917-.104-1.185-.31-.268-.205-.439-.5-.51-.882-.32.339-.74.625-1.261.86-.522.236-1.16.354-1.913.354-.39 0-.782-.056-1.173-.165a3.064 3.064 0 01-1.065-.539 2.79 2.79 0 01-.782-1c-.203-.418-.304-.927-.304-1.528 0-.748.177-1.356.532-1.825.355-.47.8-.84 1.337-1.11a5.991 5.991 0 011.738-.56 16.317 16.317 0 011.717-.199c.174-.014.344-.022.51-.022h.468v-.401c0-.566-.15-.967-.446-1.205-.297-.238-.779-.357-1.445-.357-.623 0-1.177.103-1.662.309-.486.206-.96.441-1.424.706a3.246 3.246 0 01-.489-.827c-.123-.302-.184-.526-.184-.673 0-.206.112-.404.336-.596.225-.19.533-.363.924-.518.391-.154.84-.279 1.347-.375a8.678 8.678 0 011.608-.143c.783 0 1.445.08 1.989.243.543.162.985.411 1.325.75.34.338.583.76.728 1.268.145.507.218 1.099.218 1.775v4.146zm-2.782-2.558h-.304c-.102 0-.203.008-.304.022-.363.03-.721.074-1.076.132-.355.06-.67.162-.945.31a1.99 1.99 0 00-.674.572c-.174.236-.26.537-.26.905 0 .412.115.76.347 1.047.231.287.623.43 1.173.43.275 0 .536-.036.783-.11.246-.073.463-.169.652-.286.188-.118.336-.247.445-.386.109-.14.163-.269.163-.386v-2.25zm8.192-4.345c.231-.28.592-.562 1.083-.85.491-.286 1.112-.43 1.863-.43.535 0 1.044.093 1.528.276.483.184.913.482 1.288.894.376.412.676.956.9 1.632.223.676.335 1.507.335 2.492 0 1.147-.13 2.092-.39 2.834-.26.743-.595 1.331-1.007 1.765-.411.433-.87.739-1.375.915a4.578 4.578 0 01-1.517.265 3.72 3.72 0 01-1.094-.144 4.346 4.346 0 01-.79-.32 2.103 2.103 0 01-.715-.595v5.421h-2.955V8.871a5.156 5.156 0 01.569-.077c.117-.007.255-.01.416-.01.481 0 .89.08 1.226.242.336.162.548.434.635.816zm3.912 4.08c0-.44-.036-.852-.108-1.235a3.032 3.032 0 00-.357-.992 1.746 1.746 0 00-.67-.651c-.281-.154-.623-.232-1.026-.232-.605 0-1.026.118-1.264.353-.238.236-.356.493-.356.772v4.676c.114.118.32.257.615.42.295.161.637.241 1.026.241.735 0 1.275-.293 1.621-.882.346-.588.519-1.411.519-2.47zm5.366 3.794a3.882 3.882 0 01-.195-.927c-.03-.323-.044-.646-.044-.97V5.585l.326-.044a4.78 4.78 0 01.674-.043c.231 0 .463.021.695.065.232.044.442.133.63.265.189.132.34.312.457.54.116.228.174.526.174.893v1.566h3.042v2.228h-3.042v4.703c0 1.026.412 1.539 1.238 1.539.203 0 .395-.033.576-.1.181-.066.344-.14.49-.22a3.074 3.074 0 00.608-.452c.217.324.383.604.5.84.115.237.173.459.173.667 0 .193-.076.382-.228.567a2.254 2.254 0 01-.641.512 3.953 3.953 0 01-1 .379 5.348 5.348 0 01-1.282.145c-.898 0-1.597-.177-2.097-.53a2.809 2.809 0 01-1.054-1.39zm13.244-.287a3.423 3.423 0 001.7-.419c.219-.117.408-.246.568-.386.16-.14.305-.268.436-.386.174.22.356.504.545.85.19.345.284.628.284.848 0 .324-.181.618-.543.883-.305.235-.736.437-1.293.606-.558.169-1.214.254-1.967.254a7.735 7.735 0 01-2.01-.265 4.424 4.424 0 01-1.76-.926c-.515-.441-.931-1.033-1.25-1.776-.319-.742-.478-1.68-.478-2.812 0-.926.141-1.724.424-2.393.282-.669.659-1.224 1.13-1.665a4.441 4.441 0 011.597-.97 5.542 5.542 0 011.825-.31c.812 0 1.5.13 2.065.387a3.766 3.766 0 011.38 1.036c.354.434.612.93.771 1.49.16.558.24 1.146.24 1.764v.308c0 .118-.005.243-.012.375l-.021.386a2.42 2.42 0 01-.033.298h-6.41c.058.809.305 1.481.74 2.018.436.537 1.127.805 2.072.805zm.99-4.477c0-.706-.135-1.28-.404-1.72-.27-.442-.754-.662-1.453-.662-.598 0-1.075.21-1.432.628-.357.42-.535 1.004-.535 1.754h3.824zm7.816-3.054a3.79 3.79 0 01.348-.438c.144-.16.322-.306.532-.438.21-.13.442-.24.696-.328.253-.087.525-.131.815-.131.173 0 .358.015.554.044.195.029.376.084.543.164.166.08.3.19.402.328.101.138.152.31.152.514 0 .32-.08.689-.239 1.105-.16.416-.319.771-.478 1.065a3.218 3.218 0 00-.739-.474 2.114 2.114 0 00-.87-.166c-.448 0-.825.133-1.129.398-.304.266-.457.583-.457.951v7.14h-2.955V8.872a5.147 5.147 0 01.565-.078c.116-.007.254-.01.413-.01.464 0 .865.09 1.206.273.34.182.554.462.641.84zm8.403 0a3.86 3.86 0 01.347-.438c.145-.16.322-.306.533-.438.21-.13.441-.24.695-.328.253-.087.525-.131.815-.131.174 0 .358.015.554.044a1.9 1.9 0 01.543.164c.167.08.3.19.402.328.102.138.152.31.152.514 0 .32-.08.689-.238 1.105-.16.416-.32.771-.479 1.065a3.214 3.214 0 00-.738-.474 2.114 2.114 0 00-.87-.166c-.449 0-.826.133-1.13.398-.304.266-.456.583-.456.951v7.14H89.96V8.872a5.133 5.133 0 01.565-.078c.115-.007.253-.01.412-.01.464 0 .866.09 1.206.273.34.182.555.462.642.84zm14.103 6.847c0 1.162.166 2.007.5 2.537a3.654 3.654 0 01-1.434.287c-.522 0-.917-.104-1.185-.31-.268-.205-.438-.5-.511-.882-.318.339-.738.625-1.26.86-.521.236-1.159.354-1.912.354-.391 0-.782-.056-1.174-.165a3.063 3.063 0 01-1.064-.539 2.788 2.788 0 01-.783-1c-.203-.418-.304-.927-.304-1.528 0-.748.177-1.356.532-1.825.355-.47.8-.84 1.337-1.11a5.991 5.991 0 011.738-.56 16.345 16.345 0 011.717-.199 6.15 6.15 0 01.511-.022h.467v-.401c0-.566-.149-.967-.446-1.205-.297-.238-.778-.357-1.445-.357-.623 0-1.177.103-1.662.309-.486.206-.96.441-1.423.706a3.25 3.25 0 01-.49-.827c-.122-.302-.184-.526-.184-.673 0-.206.112-.404.337-.596.224-.19.532-.363.923-.518a7.5 7.5 0 011.348-.375 8.679 8.679 0 011.608-.143c.782 0 1.445.08 1.988.243.543.162.985.411 1.326.75.34.338.583.76.728 1.268.144.507.217 1.099.217 1.775v4.146zm-2.782-2.558h-.304a2.22 2.22 0 00-.304.022c-.362.03-.721.074-1.076.132-.355.06-.67.162-.945.31-.275.146-.5.338-.674.572-.173.236-.26.537-.26.905 0 .412.115.76.347 1.047.232.287.623.43 1.174.43.275 0 .536-.036.782-.11.246-.073.463-.169.652-.286a1.7 1.7 0 00.445-.386c.109-.14.163-.269.163-.386v-2.25z" fill="#044D80"/></svg>