<svg width="38" height="41" fill="none" xmlns="http://www.w3.org/2000/svg"><path fill-rule="evenodd" clip-rule="evenodd" d="M38 17.007l-4.09-4.432-1.106 4.112 5.196.32zm-7.755 9.054l3.664-13.486-8.52 3.306L19.387 3.29 0 0l14.096 19.594L9.871 32.6l-4.983 1.605L9.776 41l13.425-12.671 7.044-2.268z" fill="#32A1DA"/><path d="M30.245 26.061l-4.856-10.18 8.52-3.306-3.664 13.486z" fill="url(#paint0_linear_1441_699)"/><path d="M32.796 16.687l5.204.32-4.09-4.432-1.114 4.112z" fill="url(#paint1_linear_1441_699)"/><path d="M9.863 32.616L19.395 3.29l10.85 22.771-20.382 6.555z" fill="url(#paint2_linear_1441_699)"/><path d="M0 0l14.096 19.602L19.395 3.29 0 0z" fill="url(#paint3_linear_1441_699)"/><path d="M4.889 34.205l18.305-5.876-13.425 12.67-4.88-6.794z" fill="url(#paint4_linear_1441_699)"/><path d="M2.012.687L.3.415l.576.807 1.73.271-.593-.806z" fill="#BD4B26"/><path d="M3.19 2.3l-1.73-.272.584.814 1.73.272-.585-.814zm2.344 3.241L3.79 5.27l.584.806 1.746.28-.585-.815z" fill="#0063A8"/><path d="M4.358 3.92l-1.737-.27.584.814 1.746.272-.593-.815zm2.345 3.242L4.95 6.891l.585.806 1.753.28-.585-.815z" fill="#BD4B26"/><path d="M7.88 8.783l-1.76-.28.576.815 1.769.272-.585-.807z" fill="#0063A8"/><path d="M9.05 10.404l-1.77-.28.585.815 1.769.271-.585-.806zm2.929 4.048l-.585-.814-1.785-.28.585.815 1.784.279z" fill="#BD4B26"/><path d="M13.154 16.073l-.592-.815-1.792-.28.584.807 1.8.288z" fill="#0063A8"/><path d="M14.323 17.694l-.584-.815-1.8-.28.576.807 1.808.288z" fill="#BD4B26"/><path d="M10.217 12.017l-1.777-.272.585.807 1.784.279-.592-.814zm2.883 6.196l.585.814.569.088.22-.687-1.373-.215z" fill="#0063A8"/><path d="M6.317 34.022l-.576-.096-.853.28.245.35 1.776.272-.592-.806zm2.345 3.233l-1.785-.28.584.815 1.785.28-.584-.815z" fill="#BD4B26"/><path d="M9.838 38.876l-1.792-.28.576.815 1.8.28-.584-.815z" fill="#0063A8"/><path d="M10.4 40.401l-1.193-.184.56.783.633-.599z" fill="#BD4B26"/><path d="M7.494 35.642l-1.777-.279.584.806 1.777.28-.584-.806z" fill="#0063A8"/><defs><linearGradient id="paint0_linear_1441_699" x1="35.981" y1="16.204" x2="27.409" y2="21.099" gradientUnits="userSpaceOnUse"><stop offset=".005" stop-color="#43B4E4"/><stop offset=".25" stop-color="#3FB0E2"/><stop offset=".503" stop-color="#30A5DA"/><stop offset=".759" stop-color="#0C95CE"/><stop offset="1" stop-color="#0082C1"/></linearGradient><linearGradient id="paint1_linear_1441_699" x1="38.002" y1="14.793" x2="32.8" y2="14.793" gradientUnits="userSpaceOnUse"><stop offset=".005" stop-color="#43B4E4"/><stop offset=".25" stop-color="#3FB0E2"/><stop offset=".503" stop-color="#30A5DA"/><stop offset=".759" stop-color="#0C95CE"/><stop offset="1" stop-color="#0082C1"/></linearGradient><linearGradient id="paint2_linear_1441_699" x1="9.759" y1="13.031" x2="26.628" y2="29.716" gradientUnits="userSpaceOnUse"><stop offset=".005" stop-color="#43B4E4"/><stop offset="1" stop-color="#1C9AD6"/></linearGradient><linearGradient id="paint3_linear_1441_699" x1="-1.679" y1="4.665" x2="17.045" y2="11.405" gradientUnits="userSpaceOnUse"><stop offset=".005" stop-color="#43B4E4"/><stop offset=".25" stop-color="#3FB0E2"/><stop offset=".503" stop-color="#30A5DA"/><stop offset=".759" stop-color="#0C95CE"/><stop offset="1" stop-color="#0082C1"/></linearGradient><linearGradient id="paint4_linear_1441_699" x1="15.557" y1="39.967" x2="13.782" y2="30.008" gradientUnits="userSpaceOnUse"><stop offset=".005" stop-color="#51B6E5"/><stop offset=".25" stop-color="#4CB2E2"/><stop offset=".503" stop-color="#3CA7DA"/><stop offset=".759" stop-color="#1C95CF"/><stop offset="1" stop-color="#0082C1"/></linearGradient></defs></svg>