<svg width="59" height="48" fill="none" xmlns="http://www.w3.org/2000/svg"><path d="M12.381 48a.572.572 0 01-.125-.019l-2.09-.765a.363.363 0 01-.24-.387l.604-4.515a.366.366 0 01.413-.311.363.363 0 01.316.406l-.566 4.221 1.822.661a.36.36 0 01.22.463.38.38 0 01-.354.246z" fill="#222"/><path d="M14.7 46.754a.566.566 0 01-.125-.02l-2.1-.764a.363.363 0 01-.24-.388l.604-4.514a.366.366 0 01.412-.312.362.362 0 01.317.406l-.566 4.222 1.822.661a.36.36 0 01.22.463.364.364 0 01-.345.245z" fill="#222"/><path d="M13.79 26.495s-4.383 1.757-6.07 7.074c-1.688 5.317-2.532 7.81-6.195 7.877 0 0 8.026 5.25 17.155-1.587 0 0 8.64-4.845 2.138-13.033l-7.029-.33z" fill="#348BD1"/><path d="M20.358 26.826h-3.471c6.491 8.197-2.139 13.033-2.139 13.033-2.895 2.172-5.676 3.117-8.13 3.41 3.106.368 7.22-.133 11.602-3.41 0 0 8.63-4.845 2.138-13.033z" fill="#fff" opacity=".5"/><path d="M8.822 43.835c-.739 0-1.477-.057-2.206-.16-3.212-.473-5.264-1.786-5.34-1.842L0 41.002l1.515-.029c.834-.019 1.505-.16 2.062-.453.537-.283.978-.699 1.39-1.303.863-1.275 1.525-3.372 2.301-5.79a12.572 12.572 0 011.726-3.475 11.8 11.8 0 012.09-2.267c1.353-1.143 2.484-1.606 2.532-1.624l.096-.038 7.355.35.134.17c2.071 2.615 2.877 5.184 2.378 7.63a7.824 7.824 0 01-1.064 2.626c-.422.66-.94 1.303-1.563 1.898-.96.926-1.832 1.455-2.005 1.549-2.128 1.587-4.382 2.663-6.692 3.202a15.615 15.615 0 01-3.433.387zM3.068 41.71c.873.378 2.158.822 3.72 1.048a14.36 14.36 0 005.275-.226c2.176-.51 4.305-1.53 6.328-3.041l.03-.02.028-.018c.01-.01.901-.51 1.86-1.445a9.342 9.342 0 001.41-1.72c.46-.736.776-1.52.94-2.304.421-2.115-.27-4.372-2.072-6.705l-6.702-.321c-.278.132-1.18.576-2.215 1.454A11.667 11.667 0 009.76 30.5c-.68.964-1.217 2.04-1.582 3.202-.91 2.88-1.515 4.713-2.416 6.026-.71 1.048-1.563 1.69-2.695 1.983z" fill="#222"/><path d="M20.98 27.553c.739.368 5.16.198 5.16.198l-2.666-3.768-1.851 3.173" fill="#fff"/><path d="M23.934 28.252h-.096c-2.225 0-2.81-.151-3.069-.284l.432-.83c.02.009.134.056.566.103l-.556-.312 1.85-3.173a.474.474 0 01.393-.236.474.474 0 01.413.198l2.665 3.769a.465.465 0 01.039.472.457.457 0 01-.403.255c-.02 0-1.074.038-2.234.038zm-1.841-.983c.393.029.95.048 1.735.048.518 0 1.017-.01 1.42-.02l-1.736-2.455-1.42 2.427z" fill="#222"/><path d="M11.802 24.946s-3.797-1.407-2.07-7.329c0 0 .383 2.314 1.879 2.54 0 0-1.266-2.153.862-4.429 0 0-.527 3.004 2.896 3.344 0 0 1.084 7.848-3.567 5.874z" fill="#FDB527"/><path d="M13.165 25.73c-.47 0-.978-.113-1.534-.35-.135-.056-1.132-.472-1.9-1.614-.469-.7-.757-1.52-.872-2.446-.134-1.134.01-2.418.422-3.826a.475.475 0 01.92.048s.097.538.355 1.086c.077.16.154.302.24.434a1.805 1.805 0 01-.019-.226c-.048-.84.144-2.116 1.362-3.42a.488.488 0 01.556-.103.46.46 0 01.259.5c0 .01-.173 1.068.45 1.87.413.53 1.094.841 2.024.935.22.02.393.19.421.397.01.047.164 1.19.096 2.512-.086 1.87-.556 3.136-1.4 3.76a2.232 2.232 0 01-1.38.443zm-1.19-1.218c.01 0 .01 0 .02.01.863.368 1.505.377 1.975.027.317-.236.566-.651.748-1.227.153-.5.25-1.124.288-1.832.038-.822-.01-1.578-.048-1.993-1.017-.17-1.784-.586-2.302-1.256a3.222 3.222 0 01-.556-1.162 3.203 3.203 0 00-.374 1.662c.03.7.298 1.171.307 1.2a.453.453 0 01-.019.5.48.48 0 01-.47.199c-.69-.104-1.266-.558-1.697-1.313a7.212 7.212 0 00-.048 1.86c.086.775.316 1.464.69 2.03.624.945 1.448 1.276 1.487 1.295z" fill="#222"/><path d="M18.036 29.12c3.125 0 5.658-2.495 5.658-5.572s-2.533-5.572-5.658-5.572c-3.124 0-5.657 2.495-5.657 5.572 0 3.078 2.533 5.572 5.657 5.572z" fill="#348BD1"/><path d="M17.634 18.061c1.985.463 3.643 1.974 4.17 4.052.768 2.984-1.063 6.016-4.094 6.772a6.067 6.067 0 01-1.14.17 5.78 5.78 0 002.694-.02c3.03-.755 4.861-3.787 4.094-6.771-.671-2.607-3.107-4.316-5.724-4.203z" fill="#fff" opacity=".5"/><path d="M18.037 29.583a6.124 6.124 0 01-4.334-1.766 5.94 5.94 0 01-1.793-4.269 5.94 5.94 0 011.793-4.268 6.124 6.124 0 014.334-1.767 6.13 6.13 0 014.335 1.766 5.94 5.94 0 011.793 4.27 5.94 5.94 0 01-1.793 4.268 6.124 6.124 0 01-4.335 1.766zm0-11.135a5.19 5.19 0 00-3.662 1.493 5.034 5.034 0 00-1.515 3.607c0 1.36.536 2.645 1.514 3.608a5.19 5.19 0 003.663 1.492 5.19 5.19 0 003.663-1.492 5.034 5.034 0 001.515-3.608c0-1.36-.537-2.644-1.515-3.607a5.173 5.173 0 00-3.663-1.493z" fill="#222"/><path d="M18.93 25.617a1.56 1.56 0 001.573-1.55 1.56 1.56 0 00-1.573-1.548 1.56 1.56 0 00-1.573 1.549 1.56 1.56 0 001.573 1.549z" fill="#fff"/><path d="M18.93 25.928c-1.036 0-1.889-.83-1.889-1.86 0-1.03.844-1.86 1.889-1.86s1.889.83 1.889 1.86c0 1.03-.844 1.86-1.889 1.86zm0-3.097c-.69 0-1.256.557-1.256 1.237s.566 1.237 1.256 1.237c.69 0 1.256-.557 1.256-1.237s-.566-1.237-1.256-1.237z" fill="#222"/><path d="M19.246 24.418c.313 0 .566-.25.566-.558a.561.561 0 00-.566-.557.562.562 0 00-.565.557c0 .308.253.558.565.558z" fill="#222"/><path d="M15.35 31.576s-1.361-5.412-7.834-2.531c-6.472 2.88-5.878 8.538-5.878 8.538s-.537 1.945 2.292.973c2.829-.973 3.778-2.447 3.778-2.447S5.148 37.886 6.672 39c1.525 1.105 5.351-2.408 5.351-2.408s-2.167 1.842-.316 2.786c1.85.945 5.072-4.146 3.643-7.8z" fill="#348BD1"/><path d="M9.552 30.905c2.349-1.038 4.027-.991 5.206-.51-.843-1.407-2.876-3.324-7.306-1.35-6.473 2.871-5.888 8.538-5.888 8.538s-.508 1.86 2.11 1.039c.105-1.691.93-5.516 5.878-7.716z" fill="#fff" opacity=".5"/><path d="M12.186 39.944c-.24 0-.48-.057-.7-.17-.413-.208-.911-.595-.997-1.256-.01-.048-.01-.095-.01-.142-.105.066-.201.142-.307.208-.7.453-1.342.765-1.889.935-.786.236-1.429.189-1.898-.16-.49-.35-.643-.756-.672-1.078a11.56 11.56 0 01-1.63.709c-1.218.415-2.052.396-2.55-.057-.26-.236-.394-.566-.403-.973 0-.17.02-.32.038-.415-.019-.34-.057-1.681.547-3.325a9.114 9.114 0 011.812-2.956c.988-1.086 2.273-1.974 3.807-2.663 2.301-1.02 4.257-1.162 5.82-.406 1.966.944 2.58 2.947 2.656 3.23.26.67.384 1.407.374 2.2a8.018 8.018 0 01-.345 2.191c-.412 1.37-1.17 2.636-2.023 3.391-.556.491-1.112.737-1.63.737zm.067-2.938c-.297.284-.873.926-.815 1.408.01.075.038.302.489.529.182.094.585.16 1.246-.425.73-.643 1.381-1.748 1.746-2.956.412-1.38.412-2.73-.01-3.816-.01-.019-.01-.038-.02-.057 0 0-.124-.481-.46-1.039-.44-.736-1.006-1.275-1.706-1.605-1.304-.614-2.982-.472-5.015.425-1.41.623-2.58 1.435-3.471 2.408a7.958 7.958 0 00-1.63 2.635c-.633 1.662-.509 3.013-.509 3.032a.49.49 0 01-.01.17c-.018.085-.066.415.087.548.077.066.422.264 1.592-.142 1.103-.387 1.898-.84 2.435-1.228.115-.151.25-.302.394-.453.402-.416.805-.69.824-.709a.459.459 0 01.595.048.467.467 0 01.076.585c-.028.038-.364.558-1.208 1.19-.153.227-.24.435-.24.605 0 .113.03.274.298.472.44.321 1.428.028 2.713-.803.902-.576 1.678-1.256 1.947-1.483a.7.7 0 01.105-.094.475.475 0 01.662.038.457.457 0 01-.029.651c0-.01-.038.02-.086.067z" fill="#222"/><path d="M48.289 17.381s-5.178 1.946-6.453-4.798C40.57 5.84 45.527 3.14 45.527 3.14s1.295-1.511 2.072 1.275c.776 2.786.105 4.363.105 4.363s.02-3.022 1.784-2.436c1.754.595 1.026 5.59 1.026 5.59s1.553 4.543-2.225 5.45z" fill="#ED1E24"/><path d="M46.647 18.099c-.7 0-1.534-.132-2.35-.586-1.486-.821-2.473-2.455-2.924-4.845-.297-1.596-.288-3.116.048-4.505a8.794 8.794 0 011.4-3.088c.997-1.398 2.12-2.116 2.407-2.295.172-.18.69-.623 1.342-.482.652.142 1.141.794 1.477 1.993.172.623.278 1.18.336 1.69.277-.15.7-.254 1.256-.065.546.188.949.66 1.189 1.416.172.53.268 1.21.287 2.021.029 1.143-.096 2.21-.134 2.55.153.5.7 2.598-.201 4.213-.48.859-1.276 1.426-2.369 1.7-.144.056-.844.283-1.764.283zM46.32 3.196c-.192 0-.403.198-.441.245a.365.365 0 01-.135.104c-.01.01-1.188.661-2.195 2.087A7.863 7.863 0 0042.313 8.4c-.297 1.257-.307 2.635-.029 4.1.393 2.105 1.227 3.522 2.455 4.212.661.368 1.419.519 2.263.453.652-.047 1.102-.217 1.112-.217.02-.01.038-.01.058-.02.853-.207 1.438-.613 1.802-1.255.815-1.455.106-3.57.096-3.599a.505.505 0 01-.02-.207c0-.01.183-1.238.145-2.503-.039-1.474-.355-2.418-.854-2.588-.306-.104-.46-.028-.546.028-.154.104-.269.293-.355.53-.048 1.02-.278 1.576-.297 1.624a.478.478 0 01-.518.274.466.466 0 01-.374-.454c0-.019.01-.49.115-1.048.038-.208.096-.397.154-.567.019-.633-.049-1.52-.355-2.616-.326-1.162-.681-1.322-.777-1.341-.029-.01-.048-.01-.067-.01zm6.907 23.299a.391.391 0 01-.143-.028.352.352 0 01-.192-.463l.738-1.728-3.442-2.437a.348.348 0 01-.087-.491.36.36 0 01.5-.085l3.672 2.607a.364.364 0 01.124.425l-.853 1.983c-.038.132-.173.217-.317.217zm-3.48.841a.353.353 0 01-.317-.52l.873-1.671-3.25-2.683a.354.354 0 01-.048-.5.367.367 0 01.508-.047l3.471 2.861a.355.355 0 01.086.435l-.997 1.917a.365.365 0 01-.326.208z" fill="#222"/><path d="M39.746 9.901s4.536-.935 8.86 2.484c4.325 3.419 6.396 4.987 9.417 3.07 0 0-3.606 8.594-14.834 7.961 0 0-9.714.718-8.985-9.444l5.542-4.07z" fill="#ED1E24"/><path d="M34.587 13.717l2.819-1.87c-.729 10.162 8.985 9.444 8.985 9.444 3.557.199 6.348-.52 8.505-1.605-2.32 1.974-5.945 3.787-11.324 3.475 0 0-9.714.718-8.985-9.444z" fill="#fff" opacity=".5"/><path d="M44.358 23.898c-.383 0-.776-.01-1.17-.029a11.14 11.14 0 01-2.492-.179 9.894 9.894 0 01-2.321-.708 8.01 8.01 0 01-2.33-1.559c-1.764-1.728-2.541-4.25-2.301-7.49l.019-.207 5.782-4.25.096-.019c.048-.01 1.227-.245 2.953-.047 1.007.113 2.004.359 2.953.718a12.588 12.588 0 013.337 1.898c1.976 1.559 3.673 2.9 5.082 3.466.672.274 1.266.369 1.86.312.614-.066 1.247-.302 1.928-.746l1.247-.793-.566 1.35c-.038.095-.969 2.267-3.318 4.382A14.819 14.819 0 0150.4 22.85c-1.831.7-3.864 1.049-6.04 1.049zm-1.17-.945h.03c2.483.142 4.784-.17 6.836-.935a13.81 13.81 0 006.856-5.506c-1.083.36-2.128.302-3.289-.16-1.457-.595-2.972-1.757-5.312-3.599a11.513 11.513 0 00-5.782-2.417c-1.323-.161-2.301-.038-2.608.009l-5.274 3.872c-.163 2.862.518 5.072 2.042 6.564a6.877 6.877 0 002.043 1.37c.642.283 1.342.5 2.1.642 1.304.245 2.301.17 2.31.17l.049-.01z" fill="#222"/><path d="M34.48 14.652c-.393.699-4.084 2.937-4.084 2.937l.076-4.495 3.27 1.586" fill="#fff"/><path d="M30.395 18.042a.447.447 0 01-.46-.463l.077-4.495c0-.16.086-.302.22-.378a.504.504 0 01.451-.019l3.27 1.587-.278.557c.326-.264.393-.368.403-.387l.805.444c-.144.245-.527.68-2.33 1.889-.968.642-1.899 1.209-1.908 1.218-.077.019-.163.047-.25.047zm.528-4.23l-.048 2.936c.326-.207.738-.472 1.16-.746a20.148 20.148 0 001.381-.982l-2.493-1.209z" fill="#222"/><path d="M40.494 7.578s2.31-3.192-2.388-7.074c0 0 .969 2.087-.115 3.079 0 0-.163-2.437-3.164-3.136 0 0 2.1 2.163-.49 4.279-.009 0 3.472 6.96 6.157 2.852z" fill="#FDB527"/><path d="M38.594 9.335h-.124c-1.036-.057-2.12-.832-3.232-2.305-.786-1.039-1.294-2.059-1.323-2.097a.45.45 0 01.124-.557c.71-.576 1.084-1.2 1.122-1.85.058-.974-.661-1.748-.67-1.758a.438.438 0 01-.068-.538.46.46 0 01.508-.217c1.707.397 2.58 1.332 3.002 2.04.038.066.076.132.105.198 0-.15-.01-.311-.038-.481-.096-.586-.317-1.068-.317-1.068a.463.463 0 01.144-.557.467.467 0 01.576.01c1.121.925 1.946 1.898 2.473 2.88.432.812.643 1.643.652 2.456.01 1.35-.565 2.229-.642 2.342-.662 1.001-1.429 1.502-2.292 1.502zM34.912 4.83c.202.368.585 1.02 1.074 1.662.92 1.218 1.793 1.88 2.532 1.926h.067c.546 0 1.045-.358 1.524-1.086 0-.01.01-.01.01-.019.019-.028.508-.755.48-1.87-.02-.67-.212-1.35-.566-2.03a7.315 7.315 0 00-1.074-1.483c.057.68-.058 1.445-.643 1.983a.469.469 0 01-.489.095.455.455 0 01-.288-.397c0-.028-.057-.557-.412-1.143A3.227 3.227 0 0035.9 1.326c.134.359.22.784.201 1.246-.067.822-.46 1.578-1.189 2.258z" fill="#222"/><path d="M37.75 14.334c2.539-1.684 3.212-5.076 1.503-7.577-1.71-2.501-5.154-3.164-7.693-1.48-2.54 1.683-3.212 5.075-1.503 7.576 1.709 2.501 5.153 3.164 7.692 1.48z" fill="#ED1E24"/><path d="M38.296 13.972a5.384 5.384 0 00.173-5.657c-1.506-2.626-4.89-3.552-7.556-2.069a5.875 5.875 0 00-.92.642 5.527 5.527 0 011.927-1.785c2.665-1.482 6.05-.557 7.555 2.069a5.402 5.402 0 01-1.179 6.8z" fill="#fff" opacity=".5"/><path d="M34.664 15.719c-.384 0-.777-.038-1.16-.113a5.99 5.99 0 01-3.836-2.503 5.832 5.832 0 01-.91-4.44 5.89 5.89 0 012.54-3.777 6.069 6.069 0 014.507-.897 5.991 5.991 0 013.835 2.503 5.832 5.832 0 01.911 4.439 5.89 5.89 0 01-2.54 3.777 6.018 6.018 0 01-3.347 1.01zM34.644 4.8c-.997 0-1.975.293-2.828.85a4.974 4.974 0 00-2.148 3.192 4.9 4.9 0 00.767 3.75 5.058 5.058 0 003.241 2.115 5.1 5.1 0 003.807-.755 4.973 4.973 0 002.148-3.192 4.9 4.9 0 00-.767-3.75 5.058 5.058 0 00-3.241-2.115 4.904 4.904 0 00-.978-.095z" fill="#222"/><path d="M35.075 11.967a1.506 1.506 0 00.419-2.11 1.558 1.558 0 00-2.143-.413 1.506 1.506 0 00-.419 2.11 1.558 1.558 0 002.143.413z" fill="#fff"/><path d="M34.222 12.527c-.116 0-.24-.01-.355-.038a1.834 1.834 0 01-1.18-.774 1.816 1.816 0 01.499-2.532c.412-.273.901-.368 1.39-.273.49.094.902.368 1.18.774.278.406.374.888.278 1.37a1.804 1.804 0 01-.786 1.161 1.819 1.819 0 01-1.026.312zm-1.026-1.143c.182.264.46.453.786.51.326.066.652 0 .92-.18.269-.179.46-.453.518-.774.067-.321 0-.642-.182-.906a1.206 1.206 0 00-.786-.51 1.21 1.21 0 00-.92.179 1.193 1.193 0 00-.336 1.681z" fill="#222"/><path d="M34.192 11.577c.25-.166.316-.5.148-.747a.552.552 0 00-.759-.146.533.533 0 00-.148.747.552.552 0 00.759.146z" fill="#222"/><path d="M45.68 17.287s-5.494-.709-3.366-7.235c2.13-6.526 7.806-6.583 7.806-6.583s1.86-.727 1.208 2.097c-.652 2.824-2.014 3.891-2.014 3.891s1.486-2.663 2.752-1.313c1.266 1.35-1.793 5.402-1.793 5.402s1.582-2.276 2.714-.604c1.131 1.662-3.539 5.308-7.307 4.345z" fill="#ED1E24"/><path d="M44.385 11.79c-.776 2.37-.546 3.976.067 5.053-1.476-.652-3.596-2.39-2.138-6.866 2.129-6.526 7.805-6.583 7.805-6.583s1.784-.69 1.247 1.908c-1.65.293-5.35 1.502-6.98 6.488z" fill="#fff" opacity=".5"/><path d="M47.005 17.9a5.76 5.76 0 01-1.41-.17c-.288-.047-2.34-.405-3.48-2.19-.912-1.417-.989-3.315-.23-5.63.507-1.548 1.246-2.88 2.214-3.947a8.864 8.864 0 012.723-2.059c1.554-.765 2.886-.869 3.222-.888.24-.075.902-.226 1.41.208.508.435.623 1.228.335 2.446a10.834 10.834 0 01-.517 1.644c.316 0 .738.103 1.14.528.394.416.518 1.03.365 1.804-.105.548-.345 1.19-.72 1.917-.057.104-.114.218-.172.322.048 0 .096-.01.144-.01.662 0 1.093.444 1.342.812.422.624.317 1.436-.306 2.286-.652.897-1.822 1.766-3.126 2.314a8.219 8.219 0 01-2.129.576c-.278.019-.547.038-.806.038zM50.6 3.839c-.134 0-.268.038-.306.047a.454.454 0 01-.164.029c-.01 0-1.361.028-2.934.812a7.934 7.934 0 00-2.426 1.85c-.863.974-1.544 2.183-2.004 3.6-.671 2.049-.623 3.682.135 4.863.977 1.52 2.828 1.776 2.847 1.776.02 0 .039.01.058.01 1.122.282 2.464.14 3.778-.407 1.16-.482 2.176-1.228 2.733-2.002.508-.7.393-1.086.287-1.247-.278-.406-.508-.406-.585-.406-.45 0-1.016.567-1.285.916-.047.066-.076.113-.086.113a.474.474 0 01-.642.104.458.458 0 01-.115-.633.825.825 0 01.086-.113 17.16 17.16 0 001.266-2.04c.671-1.322.853-2.295.489-2.682-.22-.236-.384-.246-.499-.227-.163.02-.364.123-.566.293-.527.869-1.006 1.256-1.045 1.285a.468.468 0 01-.585-.01.446.446 0 01-.105-.567c.01-.018.24-.434.604-.868.134-.161.268-.303.412-.435.317-.548.69-1.36.95-2.474.278-1.171.038-1.483-.039-1.55a1.065 1.065 0 00-.259-.037z" fill="#222"/></svg>