<svg width="37" height="37" fill="none" xmlns="http://www.w3.org/2000/svg"><path d="M18.5 37C28.717 37 37 28.717 37 18.5S28.717 0 18.5 0 0 8.283 0 18.5 8.283 37 18.5 37z" fill="#FF492C"/><path d="M26.507 14.17h-3.16c.085-.495.392-.772 1.014-1.087l.58-.296c1.04-.533 1.595-1.136 1.595-2.12 0-.618-.24-1.106-.717-1.458-.478-.351-1.04-.525-1.699-.525a2.62 2.62 0 00-1.439.41c-.433.267-.755.611-.955 1.04l.914.918c.355-.718.87-1.07 1.547-1.07.573 0 .925.296.925.707 0 .344-.17.63-.829.962l-.374.181c-.81.411-1.372.881-1.698 1.414-.325.533-.485 1.202-.485 2.013v.222h4.78v-1.31zm-.422 2.82h-5.232l-2.616 4.53h5.232l2.616 4.532 2.616-4.533-2.616-4.529z" fill="#fff"/><path d="M18.69 24.542a6.051 6.051 0 01-6.043-6.042 6.051 6.051 0 016.042-6.043l2.068-4.325a10.597 10.597 0 00-2.068-.203c-5.838 0-10.57 4.732-10.57 10.57 0 5.84 4.732 10.572 10.57 10.572a10.505 10.505 0 006.224-2.028l-2.287-3.966a6.024 6.024 0 01-3.937 1.465z" fill="#fff"/></svg>