<svg width="75" height="26" fill="none" xmlns="http://www.w3.org/2000/svg"><mask id="a" style="mask-type:luminance" maskUnits="userSpaceOnUse" x="0" y="0" width="75" height="26"><path d="M75 0H0v26h75V0z" fill="#fff"/></mask><g mask="url(#a)"><path d="M35.234 2.606l-.099 1.221h-.496c-.794 0-1.208.644-1.208 1.254v2.755h-1.406v-5.23h1.34l.033.66c.281-.445.778-.66 1.373-.66h.463zm-9.808 5.213h-1.423V5.064c0-.577-.05-1.303-.86-1.303-.777 0-1.092.56-1.092 1.22V7.82H20.63V2.606h1.306l.034.66c.28-.446.81-.792 1.571-.792 1.423 0 1.87 1.023 1.87 2.079v3.266h.016zm-5.41-1.22l-.1 1.187c-.347.1-.645.116-1.009.116-1.34 0-1.72-.61-1.72-1.831V1.12h1.423v1.47h1.406l-.1 1.22H18.61v2.162c0 .494.132.758.645.758.215 0 .463-.016.76-.131zm-3.292-3.993l-.116 1.221h-.38c-.794 0-1.191.644-1.191 1.254v2.755h-1.423v-5.23h1.34l.033.66c.281-.445.777-.66 1.39-.66h.347zM7.23 7.242c-.96.511-1.92.808-3.193.775C1.705 7.951.017 6.5.017 4.041.017 1.583 1.721.033 4.053 0c1.175-.033 2.234.28 3.06 1.006l-.992 1.006c-.513-.445-1.257-.693-2.167-.66C2.5 1.418 1.605 2.491 1.59 3.96c-.017 1.584.96 2.673 2.481 2.722.711.017 1.224-.082 1.67-.28V4.784H4.154l.099-1.336H7.23v3.794zm22.727-2.623c-.05-.66-.546-1.073-1.224-1.056-.695.033-1.141.478-1.24 1.056h2.464zm1.406 1.088h-3.887c.116.66.645 1.073 1.29 1.09.645.016.993-.182 1.456-.644l.926.71c-.662.808-1.439 1.104-2.349 1.104-1.571 0-2.762-1.105-2.762-2.738S27.21 2.49 28.733 2.49c1.687 0 2.597 1.023 2.597 2.821v.396h.033zm-19.998-.165h-.198c-.662 0-1.853.033-1.836.726 0 .99 2.034.677 2.034-.511v-.215zm1.373-1.138V7.82h-1.24l-.034-.511c-.38.478-1.009.643-1.637.643-.96 0-1.87-.478-1.886-1.584-.033-1.732 1.952-1.864 3.21-1.864h.247v-.05c0-.577-.38-.89-1.091-.89-.513 0-1.026.198-1.39.56l-.81-.824c.744-.594 1.505-.825 2.332-.825 1.571 0 2.3.742 2.3 1.93zm21.818 2.772V6.93h.165c.083 0 .182.016.182.115 0 .132-.1.132-.198.132h-.15zm0 .1h.149l.215.346h.132l-.232-.363c.116-.017.215-.083.215-.231 0-.165-.099-.231-.28-.231h-.315v.808h.116v-.33zm.149.643a.702.702 0 100-1.402.702.702 0 00-.712.692c-.016.413.314.71.712.71zm-.58-.693c0-.33.249-.578.58-.578.314 0 .578.248.578.578 0 .346-.248.594-.578.594a.589.589 0 01-.58-.594zm-27.624 9.65v.05c0 1.98-1.489 2.755-3.275 2.755H1.704v3.794H.579v-9.32h2.663c1.787 0 3.259.791 3.259 2.721zm-1.125.066v-.05c0-1.319-.794-1.814-2.051-1.814H1.72v3.729h1.588c1.34-.017 2.068-.66 2.068-1.865zm1.44 3.218v-.1c0-2.062 1.324-3.497 3.21-3.497 1.588 0 3.076.957 3.076 3.399v.346H7.958c.05 1.55.794 2.409 2.2 2.409 1.059 0 1.67-.396 1.82-1.188h1.091c-.231 1.369-1.373 2.095-2.928 2.095-1.935-.017-3.325-1.37-3.325-3.465zm3.226-2.706c-1.108 0-1.853.759-2.035 1.98h4.004c-.116-1.42-.844-1.98-1.969-1.98zm4.019 2.706v-.1c0-2.062 1.323-3.497 3.21-3.497 1.587 0 3.076.957 3.076 3.399v.346h-5.161c.05 1.55.794 2.409 2.2 2.409 1.059 0 1.67-.396 1.82-1.188h1.091c-.231 1.369-1.373 2.095-2.928 2.095-1.935-.017-3.308-1.37-3.308-3.465zm3.21-2.706c-1.11 0-1.854.759-2.052 1.98h4.003c-.083-1.42-.827-1.98-1.952-1.98zm5.541.429c.43-.776 1.026-1.304 2.25-1.353v1.023c-1.373.066-2.25.495-2.25 2.177v3.745h-1.091v-6.813h1.091v1.22z" fill="#002856"/><path d="M29.825 23.492h-1.142v-9.338h1.142v9.338zm2.681-5.741c.314-.643 1.075-1.204 2.2-1.204 1.422 0 2.415.776 2.415 2.755v4.19h-1.092V19.22c0-1.205-.513-1.733-1.604-1.733-1.01 0-1.92.644-1.92 1.865v4.14h-1.09v-6.83h1.09v1.09zm5.491 3.646h1.059c.082.809.512 1.32 1.62 1.32 1.026 0 1.49-.346 1.49-1.089 0-.742-.53-.956-1.605-1.154-1.787-.33-2.382-.825-2.382-2.013 0-1.27 1.24-1.914 2.316-1.914 1.224 0 2.299.495 2.48 1.98h-1.041c-.15-.743-.58-1.073-1.44-1.073-.793 0-1.29.396-1.29.974 0 .61.348.858 1.605 1.089 1.422.264 2.415.577 2.415 2.029 0 1.237-.844 2.079-2.514 2.079-1.654-.017-2.647-.842-2.713-2.228zm6.236-6.88c0-.396.314-.726.728-.726.413 0 .727.314.727.71a.723.723 0 01-.727.726.72.72 0 01-.728-.71zm1.29 8.975H44.43v-6.83h1.092v6.83zm1.357.396h1.108c.165.792.81 1.188 1.985 1.188 1.34 0 2.2-.644 2.2-2.112v-.99a2.805 2.805 0 01-2.316 1.287c-1.803 0-3.127-1.353-3.127-3.234v-.099c0-1.847 1.307-3.398 3.193-3.398 1.141 0 1.853.544 2.233 1.22v-1.088h1.075v6.368c-.016 1.98-1.356 2.953-3.275 2.953-2.001.017-2.895-.94-3.077-2.095zm5.326-3.927v-.099c0-1.534-.844-2.425-2.167-2.425-1.357 0-2.167 1.007-2.167 2.442v.099c0 1.485.96 2.375 2.117 2.375 1.257.017 2.217-.874 2.217-2.392zm3.854-2.21c.315-.643 1.076-1.204 2.2-1.204 1.407 0 2.416.775 2.416 2.755v4.19h-1.092V19.22c0-1.204-.513-1.732-1.604-1.732-1.01 0-1.92.644-1.92 1.865v4.14h-1.09V13.396h1.092v4.355zm6.369 4.041v-4.206h-.976v-.924h.976V15.11h1.092v1.55h1.604v.925h-1.604v4.108c0 .66.298.99.843.99.282 0 .58-.05.844-.15v.908a2.944 2.944 0 01-.927.149c-1.256 0-1.852-.743-1.852-1.799zm3.308-.395h1.059c.082.809.513 1.32 1.604 1.32 1.042 0 1.489-.346 1.489-1.089 0-.742-.53-.956-1.605-1.154-1.786-.33-2.382-.825-2.382-2.013 0-1.27 1.24-1.914 2.316-1.914 1.224 0 2.3.495 2.481 1.98h-1.042c-.165-.743-.578-1.073-1.439-1.073-.794 0-1.29.396-1.29.974 0 .61.347.858 1.605 1.089 1.422.264 2.415.577 2.415 2.029 0 1.237-.844 2.079-2.515 2.079-1.654-.017-2.63-.842-2.696-2.228z" fill="#40B3E1"/><path d="M71.857 22.023h1.241v.248h-.463v1.402h-.314v-1.402h-.464v-.248zm2.299 1.139l.43-1.122H75v1.65h-.314v-1.254l-.496 1.254h-.1l-.496-1.254v1.254h-.281v-1.65h.413l.43 1.122z" fill="#002856"/></g></svg>