<svg width="54" height="64" fill="none" xmlns="http://www.w3.org/2000/svg"><path d="M53.826 2.147L26.758 0 .188 2.05S0 8.08 0 15.547C0 53.807 26.923 64 26.923 64S54 53.904 54 15.643c0-7.467-.189-13.506-.189-13.506" fill="#ED1C24"/><path d="M27.872 24.437c-5.26 0-10.033 1.775-11.982 2.61a2.151 2.151 0 01-.034-1.448.876.876 0 00.784-.905.873.873 0 00-.856-.836.529.529 0 00-.126 0l-.14.029-.136.053-.053.024-.097.077-.091.077c-.29.275-1.166 1.283-.653 3.184a1.136 1.136 0 00-.624.786 1.002 1.002 0 00-.856-.072 1.118 1.118 0 00-.633.81.998.998 0 00-.866-.091 1.092 1.092 0 00-.628.83.969.969 0 00-.87-.107 1.077 1.077 0 00-.615.854.968.968 0 00-.89-.135c-.555.222-.773 1.037-.483 1.818.29.782.967 1.235 1.547 1.008a1.02 1.02 0 00.585-.762 1.01 1.01 0 00.968.174 1.073 1.073 0 00.59-.743 1.027 1.027 0 00.967.145 1.075 1.075 0 00.594-.729 1.045 1.045 0 00.967.126 1.092 1.092 0 00.605-.704 1.08 1.08 0 00.938.106.801.801 0 00.154-.082c.155.46.126.963-.082 1.403h-.029a.883.883 0 00-.923.864.856.856 0 00.853.87.875.875 0 00.433-.113h.063a2.556 2.556 0 001.073-1.611 3.85 3.85 0 00-.16-2.137 27.142 27.142 0 017.321-1.042c2.596-.049 5.177.41 7.596 1.35.793-1.326 2.133-1.977 3.114-1.446.982.53 1.223 2.132.551 3.588l1.451 1.448h8.737v-.184c0-1.408-3.143-8.682-18.079-9.087m-.093 12.469h-.26c-3.386 0-7.67 1.413-9.492 2.083a1.815 1.815 0 01-.054-1.21.745.745 0 00.66-.772.742.742 0 00-.727-.71.629.629 0 00-.107 0 .543.543 0 00-.12 0 .56.56 0 00-.107.05h-.053l-.087.067-.068.062c-.324.3-.996 1.148-.517 2.74a.427.427 0 00-.092 0 .967.967 0 00-.542.651.878.878 0 00-.725.039.967.967 0 00-.542.66.847.847 0 00-.705-.047.924.924 0 00-.532.684.82.82 0 00-.726-.077.898.898 0 00-.512.7.76.76 0 00-1.175.352 1.53 1.53 0 000 1.105c.246.66.846 1.051 1.32.858a.86.86 0 00.483-.637.862.862 0 00.808.135.875.875 0 00.483-.617.875.875 0 00.803.116.896.896 0 00.484-.594.895.895 0 00.788.092.928.928 0 00.483-.579.91.91 0 00.784.077.884.884 0 00.203-.125c.093.302.083.626-.03.921a.746.746 0 00-.913.724.741.741 0 00.581.725c.11.024.223.024.333-.002a.76.76 0 00.348-.096h.048a2.19 2.19 0 00.885-1.35c.12-.514.094-1.05-.077-1.549a22.46 22.46 0 016.218-.94c1.71-.044 3.412.241 5.014.839.764-1.22 2.016-1.804 2.901-1.303.885.502 1.146 1.848.643 3.16l1.359 1.24h7.025v-.16c0-1.129-2.519-6.955-14.505-7.298m-.257 10.834h-.12a19.027 19.027 0 00-6.94 1.447l-.188.068a1.174 1.174 0 01-.058-1.013.653.653 0 00.572-.69.65.65 0 00-.66-.608.363.363 0 00-.086 0 .59.59 0 00-.111 0l-.087.034h-.04l-.081.058-.068.063c-.208.192-.837.92-.445 2.29a.763.763 0 00-.43.512.697.697 0 00-.561-.034.753.753 0 00-.43.526.678.678 0 00-.566-.048.763.763 0 00-.426.535.668.668 0 00-.57-.058.74.74 0 00-.416.55.63.63 0 00-.58-.067.647.647 0 00-.358.371c-.114.29-.114.612 0 .902.203.54.691.864 1.088.7a.69.69 0 00.391-.483.693.693 0 00.634.092.72.72 0 00.396-.483.66.66 0 001.02-.323.692.692 0 00.624.068.74.74 0 00.407-.449.72.72 0 00.74-.014c.082.275.063.571-.054.834a.653.653 0 00-.653.651.65.65 0 00.653.652.64.64 0 00.3-.082l.048-.025a1.805 1.805 0 00.779-1.152 2.363 2.363 0 00-.078-1.375 17.159 17.159 0 014.657-.7 9.74 9.74 0 013.297.483c.648-.965 1.654-1.375 2.389-.965.735.41.967 1.486.59 2.557l1.006.849h5.318v-.164c0-1.13-1.934-5.306-10.903-5.514m-.569-30.591c-3.042 0-5.426-.512-5.426-1.173 0-.805 2.723-1.172 5.425-1.172 2.607 0 5.42.372 5.42 1.172 0 .661-2.383 1.173-5.42 1.173zm8.074-9.923a1.148 1.148 0 00-.483-.115 1.197 1.197 0 00-1.083.714 1.298 1.298 0 00-.111.482l-.643.241.43 1.23a22.229 22.229 0 01-1.45 2.286 15.301 15.301 0 00-3.613-.66 52.01 52.01 0 01-.483-3.353l.9-.921-.484-.507a1.2 1.2 0 00-.845-1.679 1.207 1.207 0 00-1.342.674 1.2 1.2 0 00-.11.523c0 .166.032.33.097.482l-.484.507.895.921c-.126 1.385-.402 2.928-.484 3.377-1.2.046-2.387.255-3.53.622a32.28 32.28 0 01-1.421-2.286l.43-1.23-.648-.242a1.21 1.21 0 00-.106-.482 1.192 1.192 0 00-1.088-.714 1.148 1.148 0 00-.484.13 1.26 1.26 0 00-.3 2.036l-.236.666 1.194.453c.484 1.09 1.15 5.557 1.16 5.605.233 1.327 2.863 2.287 6.286 2.287 3.424 0 6.01-.941 6.247-2.287.03-.164.068-.415.116-.728.223-1.418.629-4.028 1.045-4.872l1.199-.458-.27-.68a1.256 1.256 0 00-.3-2.021z" fill="#fff"/></svg>