<svg width="124" height="26" fill="none" xmlns="http://www.w3.org/2000/svg"><path d="M43.454 15.451l-.742 2.092h-.062a14.8 14.8 0 00-.721-2.05l-3.979-9.95h-3.896V21.4h2.577v-9.785c0-.615 0-1.313-.021-2.174-.02-.431-.062-.76-.082-1.005h.061c.124.615.268 1.066.372 1.354l4.782 11.569h1.814L48.3 9.687c.103-.267.206-.8.31-1.251h.061a140.146 140.146 0 00-.123 2.851v10.051h2.741V5.502h-3.752l-4.082 9.95zm10.432-5.477h2.68v11.364h-2.68V9.974zm1.36-4.8a1.61 1.61 0 00-1.133.451c-.31.288-.474.657-.474 1.108 0 .43.164.8.474 1.087.309.287.68.431 1.134.431.453 0 .845-.164 1.133-.43a1.44 1.44 0 00.475-1.088c0-.43-.165-.8-.475-1.108-.268-.287-.66-.45-1.133-.45zM66.07 9.872a7.512 7.512 0 00-1.505-.165c-1.216 0-2.33.267-3.257.8-.928.534-1.67 1.272-2.144 2.195-.495.944-.743 2.031-.743 3.282 0 1.088.248 2.052.722 2.934.474.861 1.134 1.559 2.02 2.03.846.472 1.835.718 2.948.718 1.278 0 2.371-.266 3.237-.759l.02-.02v-2.462l-.102.082a4.614 4.614 0 01-1.3.677c-.473.165-.906.246-1.277.246-1.072 0-1.918-.307-2.516-.984-.618-.657-.927-1.559-.927-2.687 0-1.17.309-2.093.948-2.77.64-.676 1.484-1.025 2.515-1.025.866 0 1.752.287 2.556.861l.104.083v-2.606l-.021-.02c-.35-.144-.742-.308-1.278-.41zm8.844-.082a2.84 2.84 0 00-1.814.635c-.454.37-.763.903-1.031 1.539h-.02v-1.99h-2.68v11.364h2.68v-5.805c0-.984.205-1.805.659-2.4.454-.615 1.03-.923 1.732-.923.247 0 .495.062.804.103.288.082.495.164.639.266l.103.082V9.995l-.062-.02c-.186-.124-.556-.185-1.01-.185zm7.298-.062c-1.876 0-3.381.554-4.433 1.641-1.072 1.087-1.587 2.585-1.587 4.472 0 1.764.536 3.2 1.567 4.246 1.03 1.026 2.433 1.559 4.185 1.559 1.835 0 3.298-.554 4.35-1.662 1.072-1.107 1.587-2.584 1.587-4.41 0-1.805-.495-3.24-1.505-4.287-.969-1.046-2.391-1.559-4.164-1.559zm2.144 8.738c-.495.636-1.278.944-2.247.944-.97 0-1.753-.308-2.31-.985-.556-.636-.824-1.559-.824-2.728 0-1.21.289-2.133.825-2.79.556-.656 1.32-.984 2.288-.984.949 0 1.69.308 2.227.944.536.635.824 1.558.824 2.769-.041 1.23-.268 2.195-.783 2.83zm9.504-3.774c-.846-.349-1.382-.615-1.629-.84-.206-.206-.31-.493-.31-.863a.95.95 0 01.434-.82c.309-.205.66-.308 1.175-.308.453 0 .927.082 1.381.205.454.123.866.308 1.196.554l.103.082V10.2l-.062-.02a7.462 7.462 0 00-1.216-.35 8.305 8.305 0 00-1.32-.123c-1.278 0-2.33.308-3.154.985-.825.636-1.216 1.498-1.216 2.503 0 .533.082 1.005.268 1.394.185.39.453.76.824 1.067.371.287.907.616 1.65.923.618.267 1.092.472 1.38.636.29.164.475.349.62.492.103.165.164.37.164.636 0 .76-.577 1.129-1.752 1.129-.454 0-.928-.082-1.484-.267a5.744 5.744 0 01-1.505-.76l-.103-.081v2.605l.061.02c.392.185.866.308 1.444.452.577.102 1.092.184 1.546.184 1.381 0 2.515-.307 3.319-.984.825-.657 1.257-1.498 1.257-2.585 0-.759-.206-1.436-.66-1.948a8.366 8.366 0 00-2.411-1.416zm10.143-4.964c-1.876 0-3.381.554-4.433 1.641-1.051 1.087-1.587 2.585-1.587 4.472 0 1.764.536 3.2 1.567 4.246 1.03 1.026 2.432 1.559 4.185 1.559 1.834 0 3.298-.554 4.349-1.662 1.073-1.107 1.588-2.584 1.588-4.41 0-1.805-.495-3.24-1.505-4.287-.969-1.046-2.391-1.559-4.164-1.559zm2.123 8.738c-.495.636-1.278.944-2.247.944-.99 0-1.752-.308-2.309-.985-.557-.636-.825-1.559-.825-2.728 0-1.21.289-2.133.825-2.79.557-.656 1.319-.984 2.288-.984.928 0 1.691.308 2.227.944.536.635.824 1.558.824 2.769 0 1.23-.268 2.195-.783 2.83zM124 12.17V9.974h-2.701V6.61l-.082.02-2.557.76-.062.02v2.564h-4.04V8.538c0-.656.165-1.169.453-1.497.289-.328.722-.492 1.258-.492.371 0 .763.082 1.196.266l.103.062V4.559l-.062-.02c-.371-.124-.866-.206-1.505-.206-.804 0-1.505.185-2.144.492a3.571 3.571 0 00-1.464 1.457c-.35.615-.536 1.313-.536 2.113v1.58h-1.876v2.174h1.876v9.19h2.701v-9.17h4.04v5.846c0 2.4 1.134 3.61 3.402 3.61.371 0 .763-.061 1.134-.123.392-.082.68-.184.845-.266l.021-.02V19.02l-.103.082c-.165.103-.31.185-.557.247a1.898 1.898 0 01-.536.081c-.536 0-.907-.122-1.175-.43-.247-.287-.371-.76-.371-1.457V12.17H124z" fill="#3A2D52"/><path d="M0 0h12.226v12.133H0V0z" fill="#F25022"/><path d="M13.973 0H26.2v12.133H13.973V0z" fill="#7FBA00"/><path d="M0 13.867h12.226V26H0V13.867z" fill="#00A4EF"/><path d="M13.974 13.867h12.225V26H13.974V13.867z" fill="#FFB900"/></svg>