<svg width="108" height="31" fill="none" xmlns="http://www.w3.org/2000/svg"><path d="M29.354 24.766V13.488l-1.52-.245v-1.337h2.87c.339 0 .752-.019 1.24-.056.8-.05 1.457-.076 1.97-.076 1.664 0 2.94.32 3.828.96.889.64 1.333 1.727 1.333 3.258 0 .954-.238 1.782-.713 2.485a4.633 4.633 0 01-1.933 1.62c-.801.376-1.683.564-2.647.564-.888 0-1.495.013-1.82.038v4.067l2.327.339v1.073h-6.587v-1.073l1.652-.339zm2.608-5.498c.426.075.976.113 1.652.113.875 0 1.564-.276 2.064-.828.513-.553.77-1.431.77-2.636 0-.917-.27-1.62-.808-2.11-.538-.489-1.263-.733-2.176-.733-.576 0-1.076.056-1.502.169v6.025zm12.6-3.671c1.188 0 2.114.332 2.777.998.663.665 1.026 1.613 1.088 2.843a7.19 7.19 0 01-.056 1.186c-.038.364-.063.59-.075.678h-6.512c.05 1.117.344 1.983.882 2.598.55.603 1.326.904 2.327.904.45 0 .926-.044 1.426-.132.513-.1.951-.239 1.314-.414l.431.979c-.425.364-1.02.653-1.782.866a8.338 8.338 0 01-2.252.32c-1.602 0-2.84-.464-3.716-1.393-.863-.93-1.295-2.21-1.295-3.841 0-1.08.231-2.04.694-2.881a5.021 5.021 0 011.933-1.996c.826-.477 1.764-.715 2.815-.715zm-.507 1.186c-.638 0-1.158.276-1.558.828-.4.54-.638 1.318-.713 2.335h3.997c.025-.301.038-.534.038-.697 0-.715-.138-1.242-.413-1.581-.2-.59-.65-.885-1.351-.885zm10.885-1.186c1.188 0 2.114.332 2.777.998.663.665 1.026 1.613 1.088 2.843a7.19 7.19 0 01-.056 1.186c-.038.364-.063.59-.075.678h-6.512c.05 1.117.344 1.983.882 2.598.55.603 1.326.904 2.327.904.45 0 .926-.044 1.426-.132.513-.1.951-.239 1.314-.414l.432.979c-.426.364-1.02.653-1.783.866a8.338 8.338 0 01-2.252.32c-1.602 0-2.84-.464-3.716-1.393-.863-.93-1.295-2.21-1.295-3.841 0-1.08.232-2.04.694-2.881a5.021 5.021 0 011.933-1.996c.826-.477 1.764-.715 2.816-.715zm-.507 1.186c-.638 0-1.157.276-1.558.828-.4.54-.638 1.318-.713 2.335h3.997c.025-.301.038-.534.038-.697 0-.715-.138-1.242-.413-1.581-.2-.59-.65-.885-1.351-.885zm6.53 8.115v-6.609l-1.275-.847v-.904l2.983-.904.563.188v1.639c.176-.452.557-.866 1.145-1.243.6-.377 1.157-.565 1.67-.565.488 0 .801.025.939.075v2.523a2.705 2.705 0 00-.732-.282 3.7 3.7 0 00-.9-.113c-.714 0-1.302.15-1.765.452v6.533l2.327.283v1.054h-6.23v-1.054l1.276-.226zm12.235 1.525c-.8 0-1.652-.082-2.552-.245-.901-.163-1.546-.351-1.933-.565v-3.408h1.126l.75 2.015c.3.377.682.634 1.145.772.463.138 1 .207 1.614.207.675 0 1.239-.188 1.689-.565.463-.376.694-.91.694-1.6 0-.54-.237-1.03-.713-1.469-.463-.44-1.12-.904-1.97-1.393-.989-.54-1.77-1.01-2.346-1.412a5.809 5.809 0 01-1.426-1.394c-.363-.54-.545-1.16-.545-1.864 0-.79.226-1.462.676-2.014a4.344 4.344 0 011.764-1.28 5.849 5.849 0 012.214-.434c.726 0 1.495.07 2.309.208.813.138 1.382.295 1.707.47v2.825h-1.2l-.807-1.846c-.176-.138-.45-.25-.826-.339-.376-.1-.738-.15-1.089-.15a2.82 2.82 0 00-1.576.452c-.463.3-.694.765-.694 1.393 0 .653.269 1.224.806 1.713.551.477 1.395 1.023 2.534 1.638 1.201.64 2.127 1.28 2.777 1.92.651.641.976 1.42.976 2.336 0 .878-.231 1.625-.694 2.24-.45.603-1.064 1.055-1.84 1.356-.775.289-1.632.433-2.57.433zm11.918-10.826c1.276 0 2.277.433 3.003 1.299.738.866 1.107 2.134 1.107 3.803a5.73 5.73 0 01-.732 2.862 5.443 5.443 0 01-1.99 2.071c-.838.502-1.77.753-2.796.753a5.3 5.3 0 01-.825-.075 13.22 13.22 0 01-.563-.075l.094 1.939v1.393l1.801.245v1.073h-5.611v-1.073l1.201-.245V18.29l-1.257-.847v-.904l2.983-.904.526.188v1.13c.238-.351.65-.665 1.239-.941a4.32 4.32 0 011.82-.414zm-1.089 1.487a1.94 1.94 0 00-.938.245c-.288.15-.52.32-.694.508v6.496c.112.239.331.42.657.546.325.113.694.17 1.107.17.475 0 .894-.164 1.257-.49.376-.339.67-.81.882-1.412.213-.615.32-1.337.32-2.165 0-1.23-.239-2.185-.714-2.862-.475-.69-1.1-1.036-1.877-1.036zM95.5 15.578c1.601-.013 2.827.452 3.678 1.393.851.942 1.27 2.228 1.257 3.86 0 1.105-.225 2.084-.675 2.937-.45.841-1.064 1.494-1.84 1.958-.775.452-1.657.678-2.645.678-1.64 0-2.89-.49-3.754-1.468-.85-.992-1.276-2.298-1.276-3.917 0-1.104.225-2.058.676-2.862a4.84 4.84 0 011.876-1.883c.801-.439 1.702-.671 2.703-.696zm-.132 1.224c-.838 0-1.438.345-1.801 1.035-.35.69-.525 1.657-.525 2.9 0 1.192.2 2.228.6 3.107.4.878.982 1.317 1.745 1.317.851 0 1.445-.364 1.783-1.092.338-.74.507-1.776.507-3.106 0-1.23-.188-2.228-.563-2.994-.376-.778-.957-1.167-1.746-1.167zm9.195-.904h3.04v1.45h-2.965v3.878c0 .954.019 1.664.057 2.128.037.464.131.816.281 1.054.15.226.394.34.732.34.25 0 .55-.038.901-.114.363-.075.619-.157.769-.244l.413.96c-.313.326-.794.583-1.445.772a6.687 6.687 0 01-1.858.282c-.851 0-1.464-.238-1.839-.715-.375-.49-.563-1.262-.563-2.316v-6.025h-1.37v-.885c.551-.126.932-.239 1.145-.34.225-.1.413-.27.563-.508.212-.326.506-1.054.882-2.184h1.257v2.467z" fill="#08090D"/><path d="M10.553 21.209l-9.762 9.79v-19.58h19.525l-9.763 9.791z" fill="gold"/><path d="M20.316 0H.79v19.59h19.525V0z" fill="gold"/><path d="M16.247 4.083H12.18v11.423h4.067V4.083z" fill="#fff"/></svg>