<svg width="106" height="18" fill="none" xmlns="http://www.w3.org/2000/svg"><path d="M8.509.059c.07.032.134.076.189.13l3.058 3.058a.643.643 0 01.192.455v14.084a.215.215 0 01-.215.214.233.233 0 01-.15-.062l-2.887-2.88a.644.644 0 01-.187-.454V.059z" fill="url(#paint0_linear_1878_10606)"/><path d="M16.919.198a.627.627 0 01.187-.14v14.543a.643.643 0 01-.19.458l-2.884 2.88a.215.215 0 01-.303 0 .214.214 0 01-.062-.147V3.698a.644.644 0 01.187-.447l3.06-3.053h.005z" fill="url(#paint1_linear_1878_10606)"/><path d="M22.48 11.38l-.215-.214V8.16h-2.921a.215.215 0 00-.15.062l-2.088 2.085 6.687 6.682a.645.645 0 00.453.185h3.512a.215.215 0 00.215-.215.231.231 0 00-.062-.15l-5.431-5.428z" fill="url(#paint2_linear_1878_10606)"/><path d="M17.373 0a.645.645 0 00-.454.198l-3.065 3.049a.644.644 0 00-.128.184h8.539v7.73l.215.215 3.032-3.02a.644.644 0 00.19-.454V3.704a.644.644 0 00-.19-.455L22.452.198a.645.645 0 00-.456-.19L17.373 0z" fill="url(#paint3_linear_1878_10606)"/><path d="M8.696.198A.645.645 0 008.24 0H.215a.215.215 0 00-.15.37l2.88 2.877c.12.12.284.188.455.188h8.118a.43.43 0 01.43.43v-.161a.644.644 0 00-.19-.455L8.697.198z" fill="url(#paint4_linear_1878_10606)"/><path d="M16.915.198A.645.645 0 0117.372 0h4.624c.17 0 .334.068.455.189l3.06 3.058a.642.642 0 01.19.457v.16a.43.43 0 00-.43-.429H14.097a.43.43 0 00-.43.43v-.161a.64.64 0 01.19-.455L16.914.198z" fill="url(#paint5_linear_1878_10606)"/><path d="M25.704 7.73a.43.43 0 01-.43.429h-5.76a.108.108 0 00-.075.185l3.041 3.036 3.035-3.024a.644.644 0 00.19-.455V7.73z" fill="url(#paint6_linear_1878_10606)"/><path d="M55.757 9c-1.219-.3-1.545-.541-1.545-.969 0-.427.382-.71 1.177-.71a5.614 5.614 0 012.51.683l.259-1.56a6.957 6.957 0 00-2.754-.54c-1.829 0-2.908.94-2.908 2.25 0 1.408.796 1.95 2.71 2.418 1.333.313 1.703.528 1.703 1.097 0 .51-.512.824-1.406.824a5.592 5.592 0 01-2.88-.9l-.268 1.57a7.25 7.25 0 003.084.739c2.074 0 3.183-.895 3.183-2.405 0-1.451-.836-1.993-2.865-2.497zm16.342-2.442c0-1.984-1.434-3.114-3.802-3.114h-3.26v10.307h1.933V9.768h.936l2.895 4.08 2.035-.376-2.964-4.043C71.22 8.999 72.1 8.06 72.1 6.558zm-4.054 1.76H66.95V5.044h1.206c1.32 0 2.014.578 2.014 1.61 0 1.074-.808 1.664-2.124 1.664zm-18.43 2.942c-.61.597-1.268.992-1.934.992-.765 0-1.075-.466-1.075-1.146V6.01h-1.88v5.583c0 1.43.795 2.295 2.312 2.295 1.075 0 1.935-.55 2.685-1.23l.268 1.065h1.505v-7.73h-1.88v5.267zm14.452-3.747l-.322-1.503h-1.638V3.326l-1.831.324v2.362h-1.257v1.503h1.259v4.08c0 1.718 1.023 2.267 2.553 2.267.415.01.83-.032 1.234-.122l-.228-1.544c-.22.042-.443.061-.666.056-.767 0-1.064-.34-1.064-.962V7.513h1.96zM41 7.621l-.361-1.608h-1.395v7.73h1.827V9.339a3.614 3.614 0 012.794-1.61l-.43-1.826c-1.182.215-1.895.838-2.435 1.718zm55.9 3.639c-.611.597-1.269.992-1.935.992-.765 0-1.075-.466-1.075-1.146V6.01h-1.88v5.583c0 1.43.795 2.295 2.312 2.295 1.064 0 1.935-.55 2.685-1.23l.269 1.065h1.504v-7.73H96.9v5.267zm-6.932-6.482a1.074 1.074 0 100-2.148 1.074 1.074 0 000 2.148zM103.135 9c-1.219-.301-1.545-.542-1.545-.97 0-.426.382-.71 1.177-.71a5.617 5.617 0 012.511.683l.256-1.552a6.963 6.963 0 00-2.754-.542c-1.829 0-2.908.94-2.908 2.25 0 1.41.796 1.95 2.711 2.418 1.332.314 1.702.529 1.702 1.098 0 .51-.512.824-1.406.824a5.715 5.715 0 01-2.908-.895l-.24 1.565a7.22 7.22 0 003.077.739c2.072 0 3.192-.896 3.192-2.405 0-1.458-.836-2-2.865-2.504zM90.897 6.01h-1.859v7.73h1.859V6.01zm-4.829.29a5.808 5.808 0 00-1.885-.296c-1.874 0-3.534 1.275-3.534 4.123 0 2.576 1.363 3.77 3.05 3.77 1.122 0 1.902-.567 2.483-1.22l.163 1.063h1.582V2.253l-1.86.322V6.3zm0 4.862c-.553.665-1.148 1.09-1.915 1.09-.935 0-1.632-.721-1.632-2.237 0-1.7.81-2.523 1.915-2.523a3.564 3.564 0 011.632.34v3.33zM76.83 5.934a8.161 8.161 0 00-3.148.622l.228 1.475a7.099 7.099 0 012.695-.61c.892 0 1.419.312 1.419 1.147v.243c-3.293.311-4.881 1.104-4.881 2.96 0 1.332.922 2.127 2.297 2.127a3.747 3.747 0 002.695-1.15l.172.993h1.56V8.484c0-1.814-.992-2.55-3.036-2.55zm1.194 5.696a3.011 3.011 0 01-1.986.859c-.645 0-1.051-.354-1.051-.908 0-.737.582-1.402 3.037-1.673v1.722z" fill="#126CF3"/><path d="M39.995 3.434h-9.133V5.15h3.44v8.59h1.934V5.15h4.189l-.43-1.717z" fill="#126CF3"/><defs><linearGradient id="paint0_linear_1878_10606" x1="10.22" y1="18.003" x2="10.22" y2="-.034" gradientUnits="userSpaceOnUse"><stop offset=".71" stop-color="#116BF2"/><stop offset="1" stop-color="#1E50E5"/></linearGradient><linearGradient id="paint1_linear_1878_10606" x1="15.378" y1="18.007" x2="15.378" y2="-.029" gradientUnits="userSpaceOnUse"><stop offset=".71" stop-color="#116BF2"/><stop offset="1" stop-color="#1E50E5"/></linearGradient><linearGradient id="paint2_linear_1878_10606" x1="18.789" y1="8.443" x2="27.162" y2="16.825" gradientUnits="userSpaceOnUse"><stop offset=".41" stop-color="#116BF2"/><stop offset="1" stop-color="#185DEC"/></linearGradient><linearGradient id="paint3_linear_1878_10606" x1="19.704" y1="11.371" x2="19.704" y2="-.069" gradientUnits="userSpaceOnUse"><stop offset=".58" stop-color="#116BF2"/><stop offset="1" stop-color="#1E50E5"/></linearGradient><linearGradient id="paint4_linear_1878_10606" x1="8.002" y1="-.144" x2="4.567" y2="3.295" gradientUnits="userSpaceOnUse"><stop offset=".03" stop-color="#59C5FF"/><stop offset=".99" stop-color="#21B1FF"/></linearGradient><linearGradient id="paint5_linear_1878_10606" x1="16.636" y1=".712" x2="20.072" y2="4.151" gradientUnits="userSpaceOnUse"><stop offset=".04" stop-color="#59C5FF"/><stop offset=".99" stop-color="#21B1FF"/></linearGradient><linearGradient id="paint6_linear_1878_10606" x1="24.265" y1="9.753" x2="21.688" y2="7.174" gradientUnits="userSpaceOnUse"><stop offset=".04" stop-color="#57C4FF"/><stop offset=".99" stop-color="#21B1FF"/></linearGradient></defs></svg>