<svg width="62" height="14" fill="none" xmlns="http://www.w3.org/2000/svg"><path d="M3.028 1.582H0V.114h7.643v1.468H4.615v8.511H3.028v-8.51zm13.5 1.326h1.516v.827c.143-.247.386-.466.73-.656.352-.19.743-.285 1.172-.285 1.05 0 1.855.338 2.417 1.012.563.675.844 1.573.844 2.695 0 1.121-.281 2.02-.844 2.694-.562.675-1.368 1.012-2.417 1.012-.372 0-.739-.08-1.1-.242-.354-.171-.62-.385-.802-.642v3.678h-1.516V2.909zm3.232 5.988c.563 0 1.016-.214 1.359-.642.343-.437.515-1.021.515-1.753s-.172-1.312-.515-1.74a1.643 1.643 0 00-1.359-.655c-.553 0-1 .218-1.344.656-.343.427-.515 1.007-.515 1.739 0 .732.172 1.316.515 1.753a1.64 1.64 0 001.344.642zm8.242 1.311c-.735 0-1.354-.176-1.86-.527a3.333 3.333 0 01-1.144-1.369 4.494 4.494 0 01-.372-1.81c0-.637.124-1.236.372-1.796a3.314 3.314 0 011.144-1.383c.506-.352 1.125-.528 1.86-.528.715 0 1.32.167 1.816.5.495.332.867.764 1.115 1.296a3.94 3.94 0 01.372 1.683V6.9H26.2c.019.56.19 1.036.514 1.426.334.38.787.57 1.359.57.439 0 .8-.1 1.087-.3.295-.2.562-.513.8-.94l1.245.484c-.315.694-.73 1.212-1.244 1.554-.515.342-1.168.513-1.96.513zm1.759-4.533c-.086-.466-.277-.841-.573-1.126-.285-.295-.681-.442-1.186-.442-.468 0-.854.152-1.159.456a2.04 2.04 0 00-.586 1.112h3.503zm3.684-1.454h-.987V2.908h.987V2.51c0-.836.21-1.464.63-1.882C34.502.21 35.094 0 35.846 0c.506 0 .906.086 1.202.257l-.33 1.24a1.989 1.989 0 00-.814-.185c-.639 0-.959.356-.959 1.069v.527h1.588V4.22h-1.587v5.873h-1.502V4.22zm7.579 5.987c-.734 0-1.373-.166-1.917-.499a3.336 3.336 0 01-1.23-1.34 4.049 4.049 0 01-.428-1.867c0-.685.143-1.307.429-1.868a3.337 3.337 0 011.23-1.34c.543-.333 1.182-.499 1.916-.499.724 0 1.358.167 1.902.5.543.332.958.778 1.244 1.34A4.05 4.05 0 0144.6 6.5a4.05 4.05 0 01-.429 1.867 3.296 3.296 0 01-1.244 1.34c-.544.333-1.178.5-1.902.5zm0-1.311c.62 0 1.106-.233 1.459-.699.352-.465.529-1.03.529-1.696 0-.666-.177-1.231-.53-1.697-.352-.465-.838-.698-1.458-.698s-1.11.233-1.473.698c-.353.466-.53 1.031-.53 1.697 0 .665.177 1.23.53 1.696.362.466.853.699 1.473.699zm5.051-5.988h1.515v1.198c.239-.428.544-.751.915-.97a2.282 2.282 0 011.216-.342c.277 0 .587.057.93.171l-.286 1.397a1.584 1.584 0 00-.83-.213c-.562 0-1.03.275-1.401.826-.362.542-.544 1.374-.544 2.495v2.623h-1.516V2.908zm5.915 0h1.515v1.255c.544-.913 1.254-1.369 2.131-1.369.496 0 .915.128 1.258.385.353.247.601.623.744 1.126.258-.465.582-.831.973-1.097.4-.276.825-.414 1.273-.414.686 0 1.21.195 1.573.585.362.39.543.945.543 1.668v5.046h-1.502V5.29c0-.409-.085-.708-.257-.898-.162-.19-.415-.285-.758-.285-.324 0-.62.119-.887.356-.257.238-.462.59-.615 1.055-.152.456-.229 1.012-.229 1.668v2.908h-1.501V5.29c0-.409-.086-.708-.258-.898-.162-.19-.414-.285-.757-.285-.506 0-.92.28-1.244.84-.325.552-.487 1.336-.487 2.353v2.794H51.99V2.908zM10.583 9.765L7.576 2.908h1.768l2.098 4.904 1.966-4.904h1.751l-4.246 10.094H9.228l1.355-3.237z" fill="#757575"/></svg>