<svg width="82" height="26" fill="none" xmlns="http://www.w3.org/2000/svg"><path d="M23.15 12.194V0h5.442v25.588c0 .164-.1.313-.253.378a.424.424 0 01-.453-.078L0 0h7.773l13.846 12.844c.264.245.65.313.983.171a.893.893 0 00.548-.82zM56.678.077L82 17.87h-9.37l-9.74-6.844a.915.915 0 00-.941-.068.891.891 0 00-.49.796v13.832a.417.417 0 01-.349.407.423.423 0 01-.313-.07l-21.2-14.897a.915.915 0 00-.941-.068.891.891 0 00-.49.796l-.009 8.88h-5.429V.413a.41.41 0 01.226-.365.423.423 0 01.433.029l21.2 14.896c.276.195.64.221.94.068a.892.892 0 00.491-.796V.413a.416.416 0 01.638-.35l.022.014z" fill="#00FFF6"/></svg>