<svg width="228" height="26" fill="none" xmlns="http://www.w3.org/2000/svg"><path d="M22.925 12.38V.352h5.39v25.242c0 .163-.1.31-.251.374a.421.421 0 01-.45-.078L0 .351h7.697l13.712 12.67c.26.243.643.31.973.17a.88.88 0 00.543-.81zM56.127.427L81.203 17.98h-9.28l-9.645-6.751a.91.91 0 00-.932-.066.88.88 0 00-.485.784v13.646a.412.412 0 01-.345.401.419.419 0 01-.31-.07L39.212 11.23a.91.91 0 00-.932-.066.88.88 0 00-.486.784l-.008 8.76H32.41V.758c0-.151.087-.29.224-.36a.42.42 0 01.428.029l20.994 14.695a.909.909 0 00.932.067.88.88 0 00.486-.785V.758a.41.41 0 01.504-.397.414.414 0 01.15.066z" fill="#00FFF6"/><path d="M81 17.98h.203L81 17.838v.142z" fill="#1F2024"/><path fill-rule="evenodd" clip-rule="evenodd" d="M100.435 9.134c0 5.33 3.336 9.136 8.726 9.136 5.392 0 8.726-3.807 8.726-9.136 0-5.329-3.334-9.134-8.726-9.134-5.392 0-8.726 3.805-8.726 9.134zm3.592 0c0-3.55 1.8-6.09 5.134-6.09 3.338 0 5.134 2.536 5.134 6.09 0 3.553-1.798 6.091-5.134 6.091-3.336 0-5.134-2.54-5.134-6.09z" fill="#1F2024"/><path d="M99.189.351l-8.58 17.744h-.648L81.38.35h3.644l.376.254 4.348 9.338c.094.21.304.344.536.344a.587.587 0 00.537-.344L95.168.605l.37-.254h3.65zm26.457 17.744h-3.052l-.255-.253V.604l.255-.253h3.052l.254.253v17.238l-.254.253zm17.744-5.661l-.257.254c-.513 1.775-1.8 2.537-3.858 2.537-3.6 0-5.145-2.54-5.145-6.09 0-3.553 1.545-6.09 5.145-6.09 2.059-.002 3.345.76 3.858 2.284l.257.253h3.086l.259-.253C146.219 2.03 143.39 0 139.275 0c-5.659 0-8.745 3.805-8.745 9.134 0 5.33 3.086 9.136 8.745 9.136 4.115 0 6.945-2.029 7.46-5.582l-.259-.254h-3.086zm19.827 5.661H151.09l-.259-.253V.604l.259-.253h12.127l.257.253V3.14l-.257.254h-8.516l-.258.252v3.55l.258.254h7.998l.258.253v2.534l-.258.253h-7.998l-.258.256v4.056l.258.253h8.516l.257.253v2.535l-.257.253z" fill="#1F2024"/><path fill-rule="evenodd" clip-rule="evenodd" d="M191.967 9.134c0 5.33 3.335 9.136 8.724 9.136 5.39 0 8.727-3.807 8.727-9.136 0-5.329-3.336-9.134-8.727-9.134s-8.724 3.805-8.724 9.134zm3.591 0c0-3.55 1.8-6.09 5.133-6.09 3.337 0 5.134 2.536 5.134 6.09 0 3.553-1.799 6.091-5.134 6.091-3.335 0-5.133-2.54-5.133-6.09zm23.494 8.961h-5.633l-.261-.253V.604l.261-.253h5.633c6.404 0 8.708 3.292 8.708 8.871 0 5.58-2.304 8.873-8.708 8.873zm.256-14.703h-2.305l-.256.253v11.156l.256.253h2.305c3.588 0 4.868-1.777 4.868-5.832 0-4.056-1.281-5.83-4.868-5.83z" fill="#1F2024"/><path d="M184.625 18.09h2.981l.265-.254V.604l-.261-.253h-3.027l-.261.253-5.544 10.128a.589.589 0 01-1.05 0L172.182.604l-.261-.253h-3.026l-.256.253v17.232l.256.253h2.98l.256-.253V7.954h.256l5.512 10.14h.702l5.512-10.14h.256v9.882l.256.253z" fill="#1F2024"/></svg>