<svg width="158" height="28" fill="none" xmlns="http://www.w3.org/2000/svg"><path d="M53.676 5.404h-4.914v4.777h4.914V5.404zm-12.238-.001h-4.914v4.778h4.914V5.403zm7.324 7.143v.662c0 2.933-1.56 4.683-3.685 4.683-2.41 0-3.639-2.128-3.639-4.683v-.662h-4.914v.993c0 5.771 3.45 8.94 8.553 8.94 5.528 0 8.599-3.547 8.599-8.94v-.993h-4.914zM12.153 5.403l-3.566 9.685-3.613-9.685H0l6.1 16.473L3.8 28h5.022l8.352-22.597h-5.02zm13.607 0c-4.743 0-8.586 3.848-8.586 8.597 0 4.75 3.843 8.596 8.587 8.596S34.348 18.75 34.348 14s-3.843-8.597-8.587-8.597zm0 12.492c-2.134 0-3.842-1.758-3.842-3.848s1.755-3.847 3.843-3.847c2.087 0 3.843 1.758 3.843 3.847 0 2.09-1.708 3.848-3.843 3.848zM149.413 5.403c-4.744 0-8.587 3.848-8.587 8.597 0 4.75 3.843 8.596 8.587 8.596S158 18.75 158 14s-3.843-8.597-8.587-8.597zm0 12.492c-2.135 0-3.843-1.758-3.843-3.848s1.756-3.847 3.843-3.847c2.087 0 3.843 1.758 3.843 3.847 0 2.09-1.708 3.848-3.843 3.848zM65.499 5.364c-1.567 0-3.087.428-4.322 1.187V0H56.43v22.596h4.748V21.41a8.434 8.434 0 004.322 1.186 8.591 8.591 0 008.594-8.592c0-4.747-3.846-8.64-8.594-8.64zm0 12.485c-2.137 0-3.847-1.756-3.847-3.845 0-2.089 1.757-3.845 3.847-3.845 2.089 0 3.846 1.756 3.846 3.845 0 2.089-1.71 3.845-3.846 3.845zm44.087-7.733c-.094-.472-.235-.898-.469-1.276a5.847 5.847 0 00-.797-1.182c-.234-.33-.563-.567-.891-.803a4.705 4.705 0 00-1.078-.568c-.375-.142-.797-.236-1.172-.33-.422-.048-.797-.095-1.172-.095-.844 0-1.641.142-2.391.473a3.4 3.4 0 00-1.688 1.56l-.047.236V0h-4.688v22.502h4.688v-8.935c0-.189 0-.472.047-.803a3.8 3.8 0 01.281-1.04c.141-.331.423-.662.798-.899.375-.283.89-.378 1.547-.378.609 0 1.125.142 1.5.426.375.283.609.614.75.993.141.378.234.756.281 1.134.047.378.047.662.047.851v8.745h4.782v-8.981c0-.71 0-1.371-.047-1.891-.094-.615-.141-1.135-.281-1.608zm27.123-3.15c-.237.237-.474.71-.474.71V5.404h-4.732v17.194h4.732v-9.852c.142-1.705 1.704-3.031 3.644-3.031.332 0 .663.047.947.094V5.451c-2.603 0-3.881 1.231-4.117 1.515zm-44.16 8.467H81.315c.382 1.862 1.96 2.865 3.872 2.865 1.53 0 2.868-.668 4.016-2.006l2.82 3.152c-1.386 1.768-3.92 3.152-7.362 3.152-4.924 0-8.604-3.438-8.604-8.596 0-5.015 3.537-8.597 8.413-8.597s8.27 3.535 8.27 8.454c-.096.477-.143 1.241-.191 1.576zm-11.282-3.105l6.215-.047c-.335-1.624-1.434-2.627-3.012-2.627s-2.82.955-3.203 2.674zm47.592 3.105h-11.233c.382 1.862 1.959 2.865 3.872 2.865 1.529 0 2.868-.668 4.015-2.006l2.821 3.152c-1.387 1.768-3.92 3.152-7.362 3.152-4.924 0-8.605-3.438-8.605-8.596 0-5.015 3.538-8.597 8.414-8.597 4.875 0 8.269 3.535 8.269 8.454-.047.477-.095 1.241-.191 1.576zm-11.233-3.105l6.214-.047c-.335-1.624-1.434-2.627-3.012-2.627-1.577 0-2.868.955-3.202 2.674z" fill="#0957E8"/></svg>