<svg width="454" height="398" viewBox="0 0 454 398" fill="none" xmlns="http://www.w3.org/2000/svg">
<rect x="98" width="210" height="50" rx="6" fill="#99F3FF"/>
<path d="M126.387 31V23.432C126.152 23.6667 125.832 23.848 125.427 23.976C125.032 24.104 124.59 24.168 124.099 24.168H123.539V21.768H123.891C124.648 21.7573 125.272 21.592 125.763 21.272C126.243 20.9627 126.606 20.4987 126.851 19.88H129.139V31H126.387Z" fill="#16013E"/>
<path d="M157.376 19.64H158.944V26.424C158.955 27.4693 159.275 28.312 159.904 28.952C160.533 29.6027 161.429 29.9387 162.592 29.96C163.755 29.9387 164.651 29.6027 165.28 28.952C165.899 28.312 166.213 27.4693 166.224 26.424V19.64H167.808V26.504C167.797 27.9333 167.344 29.0853 166.448 29.96C165.563 30.8453 164.277 31.2987 162.592 31.32C160.907 31.2987 159.616 30.8453 158.72 29.96C157.835 29.0853 157.387 27.9333 157.376 26.504V19.64ZM170.74 31V23H172.1V24.744C172.761 23.4107 173.924 22.744 175.588 22.744C176.74 22.744 177.609 23.0587 178.196 23.688C178.793 24.3173 179.092 25.24 179.092 26.456V31H177.684V26.664C177.684 24.872 176.836 23.976 175.14 23.976C174.222 23.9867 173.497 24.264 172.964 24.808C172.43 25.352 172.158 26.104 172.148 27.064V31H170.74ZM185.144 31.24C183.917 31.2187 182.93 30.824 182.184 30.056C181.437 29.2987 181.053 28.28 181.032 27C181.053 25.7307 181.448 24.712 182.216 23.944C182.973 23.176 183.992 22.7813 185.272 22.76C186.008 22.76 186.648 22.888 187.192 23.144C187.746 23.4107 188.205 23.8107 188.568 24.344V19.4H189.976V31H188.616V29.448C188.274 30.0347 187.816 30.4773 187.24 30.776C186.664 31.0853 185.965 31.24 185.144 31.24ZM185.528 30.008C186.456 29.9973 187.197 29.7413 187.752 29.24C188.306 28.7387 188.589 28.0613 188.6 27.208V26.84C188.589 25.9653 188.301 25.272 187.736 24.76C187.17 24.248 186.413 23.9867 185.464 23.976C184.546 23.9867 183.826 24.2533 183.304 24.776C182.792 25.3093 182.53 26.0507 182.52 27C182.53 27.9493 182.802 28.6853 183.336 29.208C183.858 29.7307 184.589 29.9973 185.528 30.008ZM201.113 26.616V27.416H193.721C193.753 28.2267 194.041 28.8613 194.585 29.32C195.14 29.7787 195.903 30.0133 196.873 30.024C197.588 30.024 198.196 29.8907 198.697 29.624C199.188 29.3573 199.567 28.9627 199.833 28.44L201.017 28.984C200.633 29.7307 200.089 30.2907 199.385 30.664C198.681 31.048 197.823 31.24 196.809 31.24C195.391 31.2293 194.287 30.8667 193.497 30.152C192.697 29.4373 192.292 28.4187 192.281 27.096C192.303 25.7093 192.708 24.6427 193.497 23.896C194.297 23.1493 195.38 22.7707 196.745 22.76C198.121 22.7707 199.188 23.1013 199.945 23.752C200.713 24.4133 201.103 25.368 201.113 26.616ZM199.657 26.312V26.2C199.636 25.432 199.359 24.8453 198.825 24.44C198.292 24.0347 197.593 23.832 196.729 23.832C195.833 23.8427 195.119 24.0667 194.585 24.504C194.063 24.9413 193.775 25.544 193.721 26.312H199.657ZM204.755 25.032C204.968 24.3707 205.325 23.832 205.827 23.416C206.328 23 206.936 22.7867 207.651 22.776C207.875 22.776 208.077 22.792 208.259 22.824V24.2C208.184 24.1893 208.104 24.184 208.019 24.184C207.944 24.1733 207.859 24.168 207.763 24.168C207.261 24.168 206.845 24.2373 206.515 24.376C206.184 24.504 205.907 24.6907 205.683 24.936C205.331 25.3093 205.101 25.7413 204.995 26.232C204.888 26.7227 204.84 27.2293 204.851 27.752V31H203.443V23H204.755V25.032ZM213.682 31.24C212.498 31.24 211.538 31.016 210.802 30.568C210.077 30.12 209.565 29.48 209.266 28.648L210.594 28.216C210.807 28.824 211.181 29.288 211.714 29.608C212.247 29.928 212.941 30.088 213.794 30.088C214.519 30.088 215.069 29.9813 215.442 29.768C215.815 29.5547 216.002 29.2347 216.002 28.808C216.013 28.4347 215.901 28.1573 215.666 27.976C215.442 27.784 215.069 27.672 214.546 27.64L212.194 27.464C211.33 27.3787 210.685 27.1387 210.258 26.744C209.831 26.3493 209.618 25.8267 209.618 25.176C209.629 24.4187 209.954 23.8267 210.594 23.4C211.234 22.984 212.125 22.7707 213.266 22.76C214.375 22.7707 215.282 22.9787 215.986 23.384C216.69 23.7893 217.154 24.3493 217.378 25.064L216.05 25.512C215.847 25 215.517 24.6 215.058 24.312C214.589 24.024 213.965 23.88 213.186 23.88C212.493 23.88 211.954 23.9867 211.57 24.2C211.197 24.4133 211.005 24.7227 210.994 25.128C210.994 25.7893 211.506 26.168 212.53 26.264L214.914 26.44C215.799 26.5253 216.434 26.76 216.818 27.144C217.213 27.528 217.405 28.0453 217.394 28.696C217.394 29.4853 217.09 30.104 216.482 30.552C215.874 31 214.941 31.2293 213.682 31.24ZM218.459 24.152V23H220.379V20.904L221.803 20.312V23H224.651V24.152H221.803V28.28C221.803 28.824 221.931 29.224 222.187 29.48C222.454 29.7253 222.854 29.848 223.387 29.848C223.622 29.848 223.846 29.832 224.059 29.8C224.262 29.7787 224.464 29.7413 224.667 29.688V30.952C224.475 31.016 224.246 31.064 223.979 31.096C223.712 31.1387 223.424 31.16 223.115 31.16C222.016 31.1387 221.28 30.8613 220.907 30.328C220.523 29.7947 220.347 29.1387 220.379 28.36V24.152H218.459ZM229.329 31.24C228.337 31.2293 227.548 31.016 226.961 30.6C226.385 30.184 226.092 29.608 226.081 28.872C226.081 28.488 226.167 28.136 226.337 27.816C226.508 27.5067 226.753 27.2507 227.073 27.048C227.351 26.8773 227.719 26.728 228.177 26.6C228.636 26.4827 229.26 26.3867 230.049 26.312L233.025 26.088V25.944C233.025 25.2507 232.817 24.7333 232.401 24.392C231.985 24.0613 231.367 23.896 230.545 23.896C229.767 23.896 229.148 24.04 228.689 24.328C228.231 24.616 227.964 25.032 227.889 25.576H226.353C226.449 24.7227 226.871 24.0453 227.617 23.544C228.353 23.032 229.329 22.7707 230.545 22.76C231.857 22.76 232.839 23.032 233.489 23.576C234.129 24.1307 234.449 24.9733 234.449 26.104V28.216C234.449 28.8773 234.465 29.4213 234.497 29.848C234.54 30.2747 234.604 30.6587 234.689 31H233.217C233.175 30.776 233.148 30.5307 233.137 30.264C233.116 29.9973 233.1 29.7253 233.089 29.448C232.78 30.024 232.316 30.4667 231.697 30.776C231.068 31.0853 230.279 31.24 229.329 31.24ZM229.713 30.12C230.716 30.1093 231.516 29.8693 232.113 29.4C232.721 28.9413 233.031 28.3067 233.041 27.496V27.096L229.793 27.4C228.983 27.4853 228.407 27.64 228.065 27.864C227.735 28.0987 227.575 28.424 227.585 28.84C227.585 29.2453 227.772 29.56 228.145 29.784C228.508 30.008 229.031 30.12 229.713 30.12ZM237.318 31V23H238.678V24.744C239.339 23.4107 240.502 22.744 242.166 22.744C243.318 22.744 244.187 23.0587 244.774 23.688C245.371 24.3173 245.67 25.24 245.67 26.456V31H244.262V26.664C244.262 24.872 243.414 23.976 241.718 23.976C240.8 23.9867 240.075 24.264 239.542 24.808C239.008 25.352 238.736 26.104 238.726 27.064V31H237.318ZM251.722 31.24C250.495 31.2187 249.509 30.824 248.762 30.056C248.015 29.2987 247.631 28.28 247.61 27C247.631 25.7307 248.026 24.712 248.794 23.944C249.551 23.176 250.57 22.7813 251.85 22.76C252.586 22.76 253.226 22.888 253.77 23.144C254.325 23.4107 254.783 23.8107 255.146 24.344V19.4H256.554V31H255.194V29.448C254.853 30.0347 254.394 30.4773 253.818 30.776C253.242 31.0853 252.543 31.24 251.722 31.24ZM252.106 30.008C253.034 29.9973 253.775 29.7413 254.33 29.24C254.885 28.7387 255.167 28.0613 255.178 27.208V26.84C255.167 25.9653 254.879 25.272 254.314 24.76C253.749 24.248 252.991 23.9867 252.042 23.976C251.125 23.9867 250.405 24.2533 249.882 24.776C249.37 25.3093 249.109 26.0507 249.098 27C249.109 27.9493 249.381 28.6853 249.914 29.208C250.437 29.7307 251.167 29.9973 252.106 30.008Z" fill="#16013E"/>
<circle cx="127" cy="25" r="15.5" stroke="#FFFBF5" stroke-width="3"/>
<rect x="98" y="58" width="210" height="50" rx="6" fill="#BFE0FF"/>
<path d="M121.934 89V87.032C123.054 86.5093 124.051 86.008 124.926 85.528C125.8 85.048 126.536 84.5893 127.134 84.152C127.752 83.704 128.19 83.2667 128.446 82.84C128.702 82.4027 128.824 81.9333 128.814 81.432C128.814 80.8987 128.654 80.4773 128.334 80.168C128.014 79.848 127.523 79.6827 126.862 79.672C126.222 79.672 125.72 79.8373 125.358 80.168C125.006 80.4987 124.824 80.9573 124.814 81.544C124.814 81.6507 124.819 81.7627 124.83 81.88C124.851 82.008 124.872 82.1413 124.894 82.28L122.062 82.008C122.019 81.7627 121.998 81.512 121.998 81.256C122.019 80.1253 122.472 79.2347 123.358 78.584C124.243 77.9227 125.438 77.5867 126.942 77.576C128.478 77.5867 129.662 77.912 130.494 78.552C131.326 79.192 131.747 80.0827 131.758 81.224C131.758 82.0027 131.566 82.696 131.182 83.304C130.798 83.912 130.254 84.472 129.55 84.984C129.091 85.304 128.563 85.624 127.966 85.944C127.358 86.2533 126.67 86.5573 125.902 86.856H131.934V89H121.934Z" fill="#16013E"/>
<path d="M157.712 89V77.64H162.592C164.416 77.6507 165.872 78.1467 166.96 79.128C168.037 80.0987 168.592 81.464 168.624 83.224C168.592 84.984 168.032 86.3813 166.944 87.416C165.856 88.4507 164.405 88.9787 162.592 89H157.712ZM159.28 87.688H162.576C163.973 87.6667 165.051 87.256 165.808 86.456C166.565 85.6453 166.949 84.568 166.96 83.224C166.949 81.88 166.549 80.8347 165.76 80.088C164.971 79.3413 163.883 78.9627 162.496 78.952H159.28V87.688ZM178.754 84.616V85.416H171.362C171.394 86.2267 171.682 86.8613 172.226 87.32C172.781 87.7787 173.543 88.0133 174.514 88.024C175.229 88.024 175.837 87.8907 176.338 87.624C176.829 87.3573 177.207 86.9627 177.474 86.44L178.658 86.984C178.274 87.7307 177.73 88.2907 177.026 88.664C176.322 89.048 175.463 89.24 174.45 89.24C173.031 89.2293 171.927 88.8667 171.138 88.152C170.338 87.4373 169.933 86.4187 169.922 85.096C169.943 83.7093 170.349 82.6427 171.138 81.896C171.938 81.1493 173.021 80.7707 174.386 80.76C175.762 80.7707 176.829 81.1013 177.586 81.752C178.354 82.4133 178.743 83.368 178.754 84.616ZM177.298 84.312V84.2C177.277 83.432 176.999 82.8453 176.466 82.44C175.933 82.0347 175.234 81.832 174.37 81.832C173.474 81.8427 172.759 82.0667 172.226 82.504C171.703 82.9413 171.415 83.544 171.362 84.312H177.298ZM185.947 81V82.152H183.195V89H181.787V82.152H179.883V81H181.787V80.04C181.787 79.1547 182.027 78.472 182.507 77.992C182.987 77.512 183.691 77.272 184.619 77.272C184.875 77.272 185.115 77.288 185.339 77.32C185.563 77.3413 185.766 77.3733 185.947 77.416V78.632C185.755 78.5893 185.553 78.5627 185.339 78.552C185.126 78.5307 184.923 78.52 184.731 78.52C184.187 78.52 183.798 78.648 183.563 78.904C183.318 79.16 183.195 79.5653 183.195 80.12V81H185.947ZM187.705 79.528V77.752H189.353V79.528H187.705ZM187.833 89V81H189.241V89H187.833ZM192.349 89V81H193.709V82.744C194.37 81.4107 195.533 80.744 197.197 80.744C198.349 80.744 199.218 81.0587 199.805 81.688C200.402 82.3173 200.701 83.24 200.701 84.456V89H199.293V84.664C199.293 82.872 198.445 81.976 196.749 81.976C195.832 81.9867 195.106 82.264 194.573 82.808C194.04 83.352 193.768 84.104 193.757 85.064V89H192.349ZM211.457 84.616V85.416H204.065C204.097 86.2267 204.385 86.8613 204.929 87.32C205.484 87.7787 206.246 88.0133 207.217 88.024C207.932 88.024 208.54 87.8907 209.041 87.624C209.532 87.3573 209.91 86.9627 210.177 86.44L211.361 86.984C210.977 87.7307 210.433 88.2907 209.729 88.664C209.025 89.048 208.166 89.24 207.153 89.24C205.734 89.2293 204.63 88.8667 203.841 88.152C203.041 87.4373 202.636 86.4187 202.625 85.096C202.646 83.7093 203.052 82.6427 203.841 81.896C204.641 81.1493 205.724 80.7707 207.089 80.76C208.465 80.7707 209.532 81.1013 210.289 81.752C211.057 82.4133 211.446 83.368 211.457 84.616ZM210.001 84.312V84.2C209.98 83.432 209.702 82.8453 209.169 82.44C208.636 82.0347 207.937 81.832 207.073 81.832C206.177 81.8427 205.462 82.0667 204.929 82.504C204.406 82.9413 204.118 83.544 204.065 84.312H210.001Z" fill="#16013E"/>
<circle cx="127" cy="83" r="15.5" stroke="#FFFBF5" stroke-width="3"/>
<rect x="98" y="116" width="210" height="50" rx="6" fill="#D3BFFF"/>
<path d="M126.927 147.304C125.348 147.293 124.111 146.957 123.215 146.296C122.33 145.635 121.86 144.723 121.807 143.56L124.607 143.304C124.65 143.933 124.874 144.413 125.279 144.744C125.674 145.085 126.228 145.256 126.943 145.256C127.647 145.256 128.186 145.123 128.559 144.856C128.922 144.589 129.103 144.211 129.103 143.72C129.103 143.208 128.911 142.835 128.527 142.6C128.143 142.376 127.583 142.264 126.847 142.264H125.935V140.488H126.831C127.492 140.488 127.999 140.365 128.351 140.12C128.703 139.875 128.879 139.517 128.879 139.048C128.879 138.589 128.708 138.232 128.367 137.976C128.015 137.72 127.508 137.592 126.847 137.592C126.154 137.592 125.62 137.768 125.247 138.12C124.874 138.483 124.676 138.984 124.655 139.624L121.903 139.288C121.924 138.179 122.372 137.288 123.247 136.616C124.111 135.944 125.338 135.597 126.927 135.576C128.484 135.587 129.674 135.869 130.495 136.424C131.306 136.979 131.716 137.757 131.727 138.76C131.706 139.464 131.466 140.024 131.007 140.44C130.548 140.867 129.962 141.139 129.247 141.256C130.122 141.363 130.799 141.64 131.279 142.088C131.759 142.525 132.004 143.133 132.015 143.912C132.004 144.936 131.556 145.752 130.671 146.36C129.796 146.979 128.548 147.293 126.927 147.304Z" fill="#16013E"/>
<path d="M157.712 147V135.64H162.592C164.416 135.651 165.872 136.147 166.96 137.128C168.037 138.099 168.592 139.464 168.624 141.224C168.592 142.984 168.032 144.381 166.944 145.416C165.856 146.451 164.405 146.979 162.592 147H157.712ZM159.28 145.688H162.576C163.973 145.667 165.051 145.256 165.808 144.456C166.565 143.645 166.949 142.568 166.96 141.224C166.949 139.88 166.549 138.835 165.76 138.088C164.971 137.341 163.883 136.963 162.496 136.952H159.28V145.688ZM170.674 137.528V135.752H172.322V137.528H170.674ZM170.802 147V139H172.21V147H170.802ZM177.606 147L173.862 139H175.43L178.086 144.792C178.214 145.112 178.31 145.411 178.374 145.688H178.406C178.448 145.549 178.491 145.405 178.534 145.256C178.576 145.107 178.63 144.952 178.694 144.792L181.35 139H182.918L179.174 147H177.606ZM192.52 142.616V143.416H185.128C185.16 144.227 185.448 144.861 185.992 145.32C186.546 145.779 187.309 146.013 188.28 146.024C188.994 146.024 189.602 145.891 190.104 145.624C190.594 145.357 190.973 144.963 191.24 144.44L192.424 144.984C192.04 145.731 191.496 146.291 190.792 146.664C190.088 147.048 189.229 147.24 188.216 147.24C186.797 147.229 185.693 146.867 184.904 146.152C184.104 145.437 183.698 144.419 183.688 143.096C183.709 141.709 184.114 140.643 184.904 139.896C185.704 139.149 186.786 138.771 188.152 138.76C189.528 138.771 190.594 139.101 191.352 139.752C192.12 140.413 192.509 141.368 192.52 142.616ZM191.064 142.312V142.2C191.042 141.432 190.765 140.845 190.232 140.44C189.698 140.035 189 139.832 188.136 139.832C187.24 139.843 186.525 140.067 185.992 140.504C185.469 140.941 185.181 141.544 185.128 142.312H191.064ZM196.161 141.032C196.374 140.371 196.732 139.832 197.233 139.416C197.734 139 198.342 138.787 199.057 138.776C199.281 138.776 199.484 138.792 199.665 138.824V140.2C199.59 140.189 199.51 140.184 199.425 140.184C199.35 140.173 199.265 140.168 199.169 140.168C198.668 140.168 198.252 140.237 197.921 140.376C197.59 140.504 197.313 140.691 197.089 140.936C196.737 141.309 196.508 141.741 196.401 142.232C196.294 142.723 196.246 143.229 196.257 143.752V147H194.849V139H196.161V141.032ZM209.12 138.904C208.79 138.904 208.518 138.963 208.304 139.08C208.08 139.197 207.92 139.368 207.824 139.592C208.112 139.837 208.336 140.12 208.496 140.44C208.646 140.771 208.72 141.133 208.72 141.528C208.71 142.36 208.384 143.027 207.744 143.528C207.094 144.04 206.192 144.301 205.04 144.312C204.262 144.312 203.59 144.184 203.024 143.928C202.8 144.003 202.624 144.109 202.496 144.248C202.358 144.387 202.288 144.552 202.288 144.744C202.288 144.989 202.395 145.181 202.608 145.32C202.822 145.469 203.168 145.544 203.648 145.544H206.8C207.75 145.544 208.459 145.736 208.928 146.12C209.408 146.493 209.648 147.043 209.648 147.768C209.659 148.589 209.286 149.224 208.528 149.672C207.771 150.12 206.587 150.349 204.976 150.36C203.398 150.349 202.272 150.141 201.6 149.736C200.918 149.341 200.587 148.813 200.608 148.152C200.608 147.768 200.72 147.432 200.944 147.144C201.168 146.856 201.504 146.643 201.952 146.504C201.622 146.365 201.382 146.179 201.232 145.944C201.072 145.709 200.992 145.443 200.992 145.144C200.992 144.739 201.115 144.403 201.36 144.136C201.595 143.869 201.92 143.667 202.336 143.528C202.016 143.283 201.771 142.989 201.6 142.648C201.43 142.307 201.344 141.933 201.344 141.528C201.355 140.696 201.686 140.029 202.336 139.528C202.976 139.027 203.878 138.771 205.04 138.76C205.862 138.76 206.55 138.893 207.104 139.16C207.222 138.712 207.451 138.355 207.792 138.088C208.144 137.832 208.608 137.699 209.184 137.688C209.28 137.688 209.371 137.693 209.456 137.704C209.552 137.715 209.654 137.731 209.76 137.752V138.968C209.59 138.925 209.376 138.904 209.12 138.904ZM205.04 143.272C205.755 143.261 206.315 143.101 206.72 142.792C207.126 142.472 207.334 142.051 207.344 141.528C207.334 141.005 207.126 140.589 206.72 140.28C206.315 139.981 205.755 139.827 205.04 139.816C204.326 139.816 203.766 139.971 203.36 140.28C202.955 140.579 202.747 140.995 202.736 141.528C202.747 142.051 202.955 142.467 203.36 142.776C203.766 143.096 204.326 143.261 205.04 143.272ZM206.528 146.776H203.6C203.323 146.776 203.072 146.76 202.848 146.728C202.55 146.856 202.326 147.021 202.176 147.224C202.027 147.437 201.952 147.667 201.952 147.912C201.963 148.381 202.235 148.717 202.768 148.92C203.302 149.123 204.064 149.224 205.056 149.224C206.23 149.224 207.062 149.101 207.552 148.856C208.032 148.611 208.267 148.28 208.256 147.864C208.256 147.501 208.118 147.229 207.84 147.048C207.552 146.867 207.115 146.776 206.528 146.776ZM219.676 142.616V143.416H212.284C212.316 144.227 212.604 144.861 213.148 145.32C213.703 145.779 214.465 146.013 215.436 146.024C216.151 146.024 216.759 145.891 217.26 145.624C217.751 145.357 218.129 144.963 218.396 144.44L219.58 144.984C219.196 145.731 218.652 146.291 217.948 146.664C217.244 147.048 216.385 147.24 215.372 147.24C213.953 147.229 212.849 146.867 212.06 146.152C211.26 145.437 210.855 144.419 210.844 143.096C210.865 141.709 211.271 140.643 212.06 139.896C212.86 139.149 213.943 138.771 215.308 138.76C216.684 138.771 217.751 139.101 218.508 139.752C219.276 140.413 219.665 141.368 219.676 142.616ZM218.22 142.312V142.2C218.199 141.432 217.921 140.845 217.388 140.44C216.855 140.035 216.156 139.832 215.292 139.832C214.396 139.843 213.681 140.067 213.148 140.504C212.625 140.941 212.337 141.544 212.284 142.312H218.22Z" fill="#16013E"/>
<circle cx="127" cy="141" r="15.5" stroke="#FFFBF5" stroke-width="3"/>
<rect x="98" y="174" width="210" height="50" rx="6" fill="#FFBFF1"/>
<path d="M132.528 202.568H130.544V205H127.808V202.568H121.504V200.76L127.472 193.88H130.544V200.616H132.528V202.568ZM127.888 197.432C127.888 197.101 127.888 196.84 127.888 196.648C127.899 196.467 127.915 196.291 127.936 196.12H127.888C127.813 196.28 127.712 196.451 127.584 196.632C127.445 196.824 127.264 197.048 127.04 197.304L125.04 199.656C124.848 199.88 124.683 200.067 124.544 200.216C124.405 200.355 124.261 200.488 124.112 200.616H127.888V197.432Z" fill="#16013E"/>
<path d="M162.672 205.32C160.699 205.288 159.2 204.717 158.176 203.608C157.152 202.499 156.635 201.064 156.624 199.304C156.635 197.501 157.173 196.061 158.24 194.984C159.307 193.907 160.805 193.352 162.736 193.32C164.293 193.331 165.531 193.699 166.448 194.424C167.355 195.149 167.931 196.152 168.176 197.432L166.544 197.592C166.352 196.675 165.931 195.955 165.28 195.432C164.619 194.92 163.744 194.659 162.656 194.648C161.269 194.669 160.197 195.091 159.44 195.912C158.672 196.733 158.283 197.859 158.272 199.288C158.283 200.675 158.672 201.795 159.44 202.648C160.219 203.512 161.307 203.955 162.704 203.976C163.728 203.965 164.576 203.72 165.248 203.24C165.909 202.76 166.368 202.072 166.624 201.176L168.176 201.448C167.845 202.621 167.227 203.555 166.32 204.248C165.424 204.941 164.208 205.299 162.672 205.32ZM174.107 205.24C172.721 205.229 171.617 204.845 170.795 204.088C169.974 203.341 169.553 202.312 169.531 201C169.553 199.688 169.974 198.659 170.795 197.912C171.617 197.155 172.721 196.771 174.107 196.76C175.494 196.771 176.598 197.155 177.419 197.912C178.23 198.659 178.646 199.688 178.667 201C178.646 202.312 178.23 203.341 177.419 204.088C176.598 204.845 175.494 205.229 174.107 205.24ZM174.107 204.024C175.057 204.024 175.803 203.763 176.347 203.24C176.891 202.717 177.169 201.971 177.179 201C177.169 200.029 176.891 199.283 176.347 198.76C175.803 198.237 175.057 197.976 174.107 197.976C173.158 197.976 172.411 198.237 171.867 198.76C171.323 199.283 171.046 200.029 171.035 201C171.046 201.971 171.323 202.717 171.867 203.24C172.411 203.763 173.158 204.024 174.107 204.024ZM180.911 205V197H182.271V198.744C182.933 197.411 184.095 196.744 185.759 196.744C186.911 196.744 187.781 197.059 188.367 197.688C188.965 198.317 189.263 199.24 189.263 200.456V205H187.855V200.664C187.855 198.872 187.007 197.976 185.311 197.976C184.394 197.987 183.669 198.264 183.135 198.808C182.602 199.352 182.33 200.104 182.319 201.064V205H180.911ZM194.356 205L190.612 197H192.18L194.836 202.792C194.964 203.112 195.06 203.411 195.124 203.688H195.156C195.198 203.549 195.241 203.405 195.284 203.256C195.326 203.107 195.38 202.952 195.444 202.792L198.1 197H199.668L195.924 205H194.356ZM209.27 200.616V201.416H201.878C201.91 202.227 202.198 202.861 202.742 203.32C203.296 203.779 204.059 204.013 205.03 204.024C205.744 204.024 206.352 203.891 206.854 203.624C207.344 203.357 207.723 202.963 207.99 202.44L209.174 202.984C208.79 203.731 208.246 204.291 207.542 204.664C206.838 205.048 205.979 205.24 204.966 205.24C203.547 205.229 202.443 204.867 201.654 204.152C200.854 203.437 200.448 202.419 200.438 201.096C200.459 199.709 200.864 198.643 201.654 197.896C202.454 197.149 203.536 196.771 204.902 196.76C206.278 196.771 207.344 197.101 208.102 197.752C208.87 198.413 209.259 199.368 209.27 200.616ZM207.814 200.312V200.2C207.792 199.432 207.515 198.845 206.982 198.44C206.448 198.035 205.75 197.832 204.886 197.832C203.99 197.843 203.275 198.067 202.742 198.504C202.219 198.941 201.931 199.544 201.878 200.312H207.814ZM212.911 199.032C213.124 198.371 213.482 197.832 213.983 197.416C214.484 197 215.092 196.787 215.807 196.776C216.031 196.776 216.234 196.792 216.415 196.824V198.2C216.34 198.189 216.26 198.184 216.175 198.184C216.1 198.173 216.015 198.168 215.919 198.168C215.418 198.168 215.002 198.237 214.671 198.376C214.34 198.504 214.063 198.691 213.839 198.936C213.487 199.309 213.258 199.741 213.151 200.232C213.044 200.723 212.996 201.229 213.007 201.752V205H211.599V197H212.911V199.032ZM225.87 196.904C225.54 196.904 225.268 196.963 225.054 197.08C224.83 197.197 224.67 197.368 224.574 197.592C224.862 197.837 225.086 198.12 225.246 198.44C225.396 198.771 225.47 199.133 225.47 199.528C225.46 200.36 225.134 201.027 224.494 201.528C223.844 202.04 222.942 202.301 221.79 202.312C221.012 202.312 220.34 202.184 219.774 201.928C219.55 202.003 219.374 202.109 219.246 202.248C219.108 202.387 219.038 202.552 219.038 202.744C219.038 202.989 219.145 203.181 219.358 203.32C219.572 203.469 219.918 203.544 220.398 203.544H223.55C224.5 203.544 225.209 203.736 225.678 204.12C226.158 204.493 226.398 205.043 226.398 205.768C226.409 206.589 226.036 207.224 225.278 207.672C224.521 208.12 223.337 208.349 221.726 208.36C220.148 208.349 219.022 208.141 218.35 207.736C217.668 207.341 217.337 206.813 217.358 206.152C217.358 205.768 217.47 205.432 217.694 205.144C217.918 204.856 218.254 204.643 218.702 204.504C218.372 204.365 218.132 204.179 217.982 203.944C217.822 203.709 217.742 203.443 217.742 203.144C217.742 202.739 217.865 202.403 218.11 202.136C218.345 201.869 218.67 201.667 219.086 201.528C218.766 201.283 218.521 200.989 218.35 200.648C218.18 200.307 218.094 199.933 218.094 199.528C218.105 198.696 218.436 198.029 219.086 197.528C219.726 197.027 220.628 196.771 221.79 196.76C222.612 196.76 223.3 196.893 223.854 197.16C223.972 196.712 224.201 196.355 224.542 196.088C224.894 195.832 225.358 195.699 225.934 195.688C226.03 195.688 226.121 195.693 226.206 195.704C226.302 195.715 226.404 195.731 226.51 195.752V196.968C226.34 196.925 226.126 196.904 225.87 196.904ZM221.79 201.272C222.505 201.261 223.065 201.101 223.47 200.792C223.876 200.472 224.084 200.051 224.094 199.528C224.084 199.005 223.876 198.589 223.47 198.28C223.065 197.981 222.505 197.827 221.79 197.816C221.076 197.816 220.516 197.971 220.11 198.28C219.705 198.579 219.497 198.995 219.486 199.528C219.497 200.051 219.705 200.467 220.11 200.776C220.516 201.096 221.076 201.261 221.79 201.272ZM223.278 204.776H220.35C220.073 204.776 219.822 204.76 219.598 204.728C219.3 204.856 219.076 205.021 218.926 205.224C218.777 205.437 218.702 205.667 218.702 205.912C218.713 206.381 218.985 206.717 219.518 206.92C220.052 207.123 220.814 207.224 221.806 207.224C222.98 207.224 223.812 207.101 224.302 206.856C224.782 206.611 225.017 206.28 225.006 205.864C225.006 205.501 224.868 205.229 224.59 205.048C224.302 204.867 223.865 204.776 223.278 204.776ZM236.426 200.616V201.416H229.034C229.066 202.227 229.354 202.861 229.898 203.32C230.453 203.779 231.215 204.013 232.186 204.024C232.901 204.024 233.509 203.891 234.01 203.624C234.501 203.357 234.879 202.963 235.146 202.44L236.33 202.984C235.946 203.731 235.402 204.291 234.698 204.664C233.994 205.048 233.135 205.24 232.122 205.24C230.703 205.229 229.599 204.867 228.81 204.152C228.01 203.437 227.605 202.419 227.594 201.096C227.615 199.709 228.021 198.643 228.81 197.896C229.61 197.149 230.693 196.771 232.058 196.76C233.434 196.771 234.501 197.101 235.258 197.752C236.026 198.413 236.415 199.368 236.426 200.616ZM234.97 200.312V200.2C234.949 199.432 234.671 198.845 234.138 198.44C233.605 198.035 232.906 197.832 232.042 197.832C231.146 197.843 230.431 198.067 229.898 198.504C229.375 198.941 229.087 199.544 229.034 200.312H234.97Z" fill="#16013E"/>
<circle cx="127" cy="199" r="15.5" stroke="#FFFBF5" stroke-width="3"/>
<rect x="98" y="232" width="210" height="50" rx="6" fill="#FFBFBF"/>
<path d="M126.949 263.304C125.583 263.293 124.469 263.005 123.605 262.44C122.741 261.864 122.207 261.069 122.005 260.056L124.725 259.656C124.831 260.147 125.077 260.531 125.461 260.808C125.845 261.096 126.341 261.24 126.949 261.24C127.653 261.24 128.202 261.064 128.597 260.712C128.981 260.371 129.173 259.885 129.173 259.256C129.162 258.627 128.975 258.136 128.613 257.784C128.239 257.432 127.717 257.256 127.045 257.256C126.479 257.256 126.015 257.373 125.653 257.608C125.279 257.843 125.002 258.184 124.821 258.632L122.341 258.408L123.061 251.88H131.285V253.976H125.141L124.805 256.568C125.093 256.173 125.498 255.869 126.021 255.656C126.554 255.443 127.173 255.336 127.877 255.336C129.167 255.347 130.17 255.688 130.885 256.36C131.599 257.032 131.962 257.976 131.973 259.192C131.962 260.472 131.514 261.475 130.629 262.2C129.743 262.925 128.517 263.293 126.949 263.304Z" fill="#16013E"/>
<path d="M159.28 261.688H166.416V263H157.712V251.64H166.304V252.952H159.28V256.52H166.032V257.832H159.28V261.688ZM171.611 263.24C170.619 263.229 169.829 263.016 169.243 262.6C168.667 262.184 168.373 261.608 168.363 260.872C168.363 260.488 168.448 260.136 168.618 259.816C168.789 259.507 169.035 259.251 169.355 259.048C169.632 258.877 170 258.728 170.459 258.6C170.917 258.483 171.541 258.387 172.331 258.312L175.307 258.088V257.944C175.307 257.251 175.099 256.733 174.683 256.392C174.267 256.061 173.648 255.896 172.827 255.896C172.048 255.896 171.429 256.04 170.971 256.328C170.512 256.616 170.245 257.032 170.171 257.576H168.635C168.731 256.723 169.152 256.045 169.899 255.544C170.635 255.032 171.611 254.771 172.827 254.76C174.139 254.76 175.12 255.032 175.771 255.576C176.411 256.131 176.731 256.973 176.731 258.104V260.216C176.731 260.877 176.747 261.421 176.779 261.848C176.821 262.275 176.885 262.659 176.97 263H175.499C175.456 262.776 175.429 262.531 175.419 262.264C175.397 261.997 175.381 261.725 175.371 261.448C175.061 262.024 174.597 262.467 173.979 262.776C173.349 263.085 172.56 263.24 171.611 263.24ZM171.995 262.12C172.997 262.109 173.797 261.869 174.395 261.4C175.003 260.941 175.312 260.307 175.323 259.496V259.096L172.075 259.4C171.264 259.485 170.688 259.64 170.347 259.864C170.016 260.099 169.856 260.424 169.867 260.84C169.867 261.245 170.053 261.56 170.427 261.784C170.789 262.008 171.312 262.12 171.995 262.12ZM180.911 257.032C181.124 256.371 181.482 255.832 181.983 255.416C182.484 255 183.092 254.787 183.807 254.776C184.031 254.776 184.234 254.792 184.415 254.824V256.2C184.34 256.189 184.26 256.184 184.175 256.184C184.1 256.173 184.015 256.168 183.919 256.168C183.418 256.168 183.002 256.237 182.671 256.376C182.34 256.504 182.063 256.691 181.839 256.936C181.487 257.309 181.258 257.741 181.151 258.232C181.044 258.723 180.996 259.229 181.007 259.752V263H179.599V255H180.911V257.032ZM187.774 251.4V263H186.366V251.4H187.774ZM190.974 266.248C190.846 266.248 190.713 266.243 190.574 266.232C190.436 266.221 190.292 266.205 190.142 266.184V264.936C190.398 264.968 190.628 264.984 190.83 264.984C191.46 264.984 191.972 264.845 192.366 264.568C192.772 264.301 193.076 263.907 193.278 263.384L193.454 262.952L189.502 255H191.134L193.902 260.872C194.03 261.181 194.116 261.432 194.158 261.624H194.174C194.238 261.432 194.324 261.181 194.43 260.872L197.022 255H198.59L194.686 263.512C194.238 264.504 193.71 265.213 193.102 265.64C192.505 266.056 191.796 266.259 190.974 266.248ZM208.77 263L203.97 251.64H205.666L209.202 260.2C209.309 260.477 209.394 260.717 209.458 260.92C209.522 261.133 209.575 261.331 209.618 261.512H209.666C209.709 261.331 209.762 261.133 209.826 260.92C209.89 260.717 209.975 260.477 210.082 260.2L213.602 251.64H215.314L210.514 263H208.77ZM219.407 263.24C218.415 263.229 217.626 263.016 217.039 262.6C216.463 262.184 216.17 261.608 216.159 260.872C216.159 260.488 216.245 260.136 216.415 259.816C216.586 259.507 216.831 259.251 217.151 259.048C217.429 258.877 217.797 258.728 218.255 258.6C218.714 258.483 219.338 258.387 220.127 258.312L223.103 258.088V257.944C223.103 257.251 222.895 256.733 222.479 256.392C222.063 256.061 221.445 255.896 220.623 255.896C219.845 255.896 219.226 256.04 218.767 256.328C218.309 256.616 218.042 257.032 217.967 257.576H216.431C216.527 256.723 216.949 256.045 217.695 255.544C218.431 255.032 219.407 254.771 220.623 254.76C221.935 254.76 222.917 255.032 223.567 255.576C224.207 256.131 224.527 256.973 224.527 258.104V260.216C224.527 260.877 224.543 261.421 224.575 261.848C224.618 262.275 224.682 262.659 224.767 263H223.295C223.253 262.776 223.226 262.531 223.215 262.264C223.194 261.997 223.178 261.725 223.167 261.448C222.858 262.024 222.394 262.467 221.775 262.776C221.146 263.085 220.357 263.24 219.407 263.24ZM219.791 262.12C220.794 262.109 221.594 261.869 222.191 261.4C222.799 260.941 223.109 260.307 223.119 259.496V259.096L219.871 259.4C219.061 259.485 218.485 259.64 218.143 259.864C217.813 260.099 217.653 260.424 217.663 260.84C217.663 261.245 217.85 261.56 218.223 261.784C218.586 262.008 219.109 262.12 219.791 262.12ZM228.884 251.4V263H227.476V251.4H228.884ZM231.94 253.528V251.752H233.588V253.528H231.94ZM232.068 263V255H233.476V263H232.068ZM239.831 263.24C238.605 263.219 237.618 262.824 236.871 262.056C236.125 261.299 235.741 260.28 235.719 259C235.741 257.731 236.135 256.712 236.903 255.944C237.661 255.176 238.679 254.781 239.959 254.76C240.695 254.76 241.335 254.888 241.879 255.144C242.434 255.411 242.893 255.811 243.255 256.344V251.4H244.663V263H243.303V261.448C242.962 262.035 242.503 262.477 241.927 262.776C241.351 263.085 240.653 263.24 239.831 263.24ZM240.215 262.008C241.143 261.997 241.885 261.741 242.439 261.24C242.994 260.739 243.277 260.061 243.287 259.208V258.84C243.277 257.965 242.989 257.272 242.423 256.76C241.858 256.248 241.101 255.987 240.151 255.976C239.234 255.987 238.514 256.253 237.991 256.776C237.479 257.309 237.218 258.051 237.207 259C237.218 259.949 237.49 260.685 238.023 261.208C238.546 261.731 239.277 261.997 240.215 262.008ZM250.345 263.24C249.353 263.229 248.564 263.016 247.977 262.6C247.401 262.184 247.108 261.608 247.097 260.872C247.097 260.488 247.182 260.136 247.353 259.816C247.524 259.507 247.769 259.251 248.089 259.048C248.366 258.877 248.734 258.728 249.193 258.6C249.652 258.483 250.276 258.387 251.065 258.312L254.041 258.088V257.944C254.041 257.251 253.833 256.733 253.417 256.392C253.001 256.061 252.382 255.896 251.561 255.896C250.782 255.896 250.164 256.04 249.705 256.328C249.246 256.616 248.98 257.032 248.905 257.576H247.369C247.465 256.723 247.886 256.045 248.633 255.544C249.369 255.032 250.345 254.771 251.561 254.76C252.873 254.76 253.854 255.032 254.505 255.576C255.145 256.131 255.465 256.973 255.465 258.104V260.216C255.465 260.877 255.481 261.421 255.513 261.848C255.556 262.275 255.62 262.659 255.705 263H254.233C254.19 262.776 254.164 262.531 254.153 262.264C254.132 261.997 254.116 261.725 254.105 261.448C253.796 262.024 253.332 262.467 252.713 262.776C252.084 263.085 251.294 263.24 250.345 263.24ZM250.729 262.12C251.732 262.109 252.532 261.869 253.129 261.4C253.737 260.941 254.046 260.307 254.057 259.496V259.096L250.809 259.4C249.998 259.485 249.422 259.64 249.081 259.864C248.75 260.099 248.59 260.424 248.601 260.84C248.601 261.245 248.788 261.56 249.161 261.784C249.524 262.008 250.046 262.12 250.729 262.12ZM257.037 256.152V255H258.957V252.904L260.381 252.312V255H263.229V256.152H260.381V260.28C260.381 260.824 260.509 261.224 260.765 261.48C261.032 261.725 261.432 261.848 261.965 261.848C262.2 261.848 262.424 261.832 262.637 261.8C262.84 261.779 263.043 261.741 263.245 261.688V262.952C263.053 263.016 262.824 263.064 262.557 263.096C262.291 263.139 262.003 263.16 261.693 263.16C260.595 263.139 259.859 262.861 259.485 262.328C259.101 261.795 258.925 261.139 258.957 260.36V256.152H257.037ZM265.283 253.528V251.752H266.931V253.528H265.283ZM265.411 263V255H266.819V263H265.411ZM273.623 263.24C272.236 263.229 271.132 262.845 270.311 262.088C269.49 261.341 269.068 260.312 269.047 259C269.068 257.688 269.49 256.659 270.311 255.912C271.132 255.155 272.236 254.771 273.623 254.76C275.01 254.771 276.114 255.155 276.935 255.912C277.746 256.659 278.162 257.688 278.183 259C278.162 260.312 277.746 261.341 276.935 262.088C276.114 262.845 275.01 263.229 273.623 263.24ZM273.623 262.024C274.572 262.024 275.319 261.763 275.863 261.24C276.407 260.717 276.684 259.971 276.695 259C276.684 258.029 276.407 257.283 275.863 256.76C275.319 256.237 274.572 255.976 273.623 255.976C272.674 255.976 271.927 256.237 271.383 256.76C270.839 257.283 270.562 258.029 270.551 259C270.562 259.971 270.839 260.717 271.383 261.24C271.927 261.763 272.674 262.024 273.623 262.024ZM280.427 263V255H281.787V256.744C282.448 255.411 283.611 254.744 285.275 254.744C286.427 254.744 287.296 255.059 287.883 255.688C288.48 256.317 288.779 257.24 288.779 258.456V263H287.371V258.664C287.371 256.872 286.523 255.976 284.827 255.976C283.91 255.987 283.184 256.264 282.651 256.808C282.118 257.352 281.846 258.104 281.835 259.064V263H280.427Z" fill="#16013E"/>
<circle cx="127" cy="257" r="15.5" stroke="#FFFBF5" stroke-width="3"/>
<rect x="98" y="290" width="210" height="50" rx="6" fill="#FFD6BF"/>
<path d="M127.952 313.448C129.285 313.459 130.309 313.795 131.024 314.456C131.749 315.107 132.117 316.035 132.128 317.24C132.107 318.456 131.653 319.432 130.768 320.168C129.893 320.904 128.715 321.283 127.232 321.304C125.536 321.293 124.224 320.792 123.296 319.8C122.379 318.819 121.915 317.421 121.904 315.608C121.915 313.709 122.389 312.232 123.328 311.176C124.267 310.12 125.584 309.587 127.28 309.576C128.592 309.576 129.648 309.837 130.448 310.36C131.259 310.883 131.765 311.64 131.968 312.632L129.264 313.016C129.136 312.547 128.901 312.189 128.56 311.944C128.208 311.709 127.76 311.592 127.216 311.592C126.395 311.603 125.76 311.885 125.312 312.44C124.853 313.005 124.603 313.816 124.56 314.872C124.901 314.403 125.36 314.051 125.936 313.816C126.512 313.571 127.184 313.448 127.952 313.448ZM127.184 319.288C127.867 319.277 128.405 319.101 128.8 318.76C129.195 318.408 129.397 317.928 129.408 317.32C129.408 316.701 129.216 316.221 128.832 315.88C128.448 315.539 127.909 315.368 127.216 315.368C126.608 315.368 126.085 315.517 125.648 315.816C125.211 316.104 124.88 316.515 124.656 317.048C124.795 317.773 125.077 318.328 125.504 318.712C125.931 319.096 126.491 319.288 127.184 319.288Z" fill="#16013E"/>
<path d="M168.112 309.64V321H166.544V315.848H159.28V321H157.712V309.64H159.28V314.536H166.544V309.64H168.112ZM171.252 311.528V309.752H172.9V311.528H171.252ZM171.38 321V313H172.788V321H171.38ZM175.192 315.896H181.368V317.192H175.192V315.896ZM192.538 310.952H185.514V314.536H192.266V315.848H185.514V321H183.946V309.64H192.538V310.952ZM194.69 311.528V309.752H196.338V311.528H194.69ZM194.818 321V313H196.226V321H194.818ZM210.151 309.64C211.389 309.651 212.359 309.96 213.063 310.568C213.778 311.187 214.141 312.024 214.151 313.08C214.141 314.157 213.762 315.005 213.015 315.624C212.279 316.243 211.271 316.557 209.991 316.568H206.311V321H204.743V309.64H210.151ZM209.927 315.256C210.727 315.245 211.357 315.048 211.815 314.664C212.263 314.291 212.493 313.763 212.503 313.08C212.493 312.419 212.263 311.901 211.815 311.528C211.357 311.155 210.733 310.963 209.943 310.952H206.311V315.256H209.927ZM217.38 315.032C217.593 314.371 217.95 313.832 218.452 313.416C218.953 313 219.561 312.787 220.276 312.776C220.5 312.776 220.702 312.792 220.884 312.824V314.2C220.809 314.189 220.729 314.184 220.644 314.184C220.569 314.173 220.484 314.168 220.388 314.168C219.886 314.168 219.47 314.237 219.14 314.376C218.809 314.504 218.532 314.691 218.308 314.936C217.956 315.309 217.726 315.741 217.62 316.232C217.513 316.723 217.465 317.229 217.476 317.752V321H216.068V313H217.38V315.032ZM226.451 321.24C225.064 321.229 223.96 320.845 223.139 320.088C222.318 319.341 221.896 318.312 221.875 317C221.896 315.688 222.318 314.659 223.139 313.912C223.96 313.155 225.064 312.771 226.451 312.76C227.838 312.771 228.942 313.155 229.763 313.912C230.574 314.659 230.99 315.688 231.011 317C230.99 318.312 230.574 319.341 229.763 320.088C228.942 320.845 227.838 321.229 226.451 321.24ZM226.451 320.024C227.4 320.024 228.147 319.763 228.691 319.24C229.235 318.717 229.512 317.971 229.523 317C229.512 316.029 229.235 315.283 228.691 314.76C228.147 314.237 227.4 313.976 226.451 313.976C225.502 313.976 224.755 314.237 224.211 314.76C223.667 315.283 223.39 316.029 223.379 317C223.39 317.971 223.667 318.717 224.211 319.24C224.755 319.763 225.502 320.024 226.451 320.024ZM231.959 314.152V313H233.879V310.904L235.303 310.312V313H238.151V314.152H235.303V318.28C235.303 318.824 235.431 319.224 235.687 319.48C235.954 319.725 236.354 319.848 236.887 319.848C237.122 319.848 237.346 319.832 237.559 319.8C237.762 319.779 237.964 319.741 238.167 319.688V320.952C237.975 321.016 237.746 321.064 237.479 321.096C237.212 321.139 236.924 321.16 236.615 321.16C235.516 321.139 234.78 320.861 234.407 320.328C234.023 319.795 233.847 319.139 233.879 318.36V314.152H231.959ZM244.029 321.24C242.643 321.229 241.539 320.845 240.717 320.088C239.896 319.341 239.475 318.312 239.453 317C239.475 315.688 239.896 314.659 240.717 313.912C241.539 313.155 242.643 312.771 244.029 312.76C245.416 312.771 246.52 313.155 247.341 313.912C248.152 314.659 248.568 315.688 248.589 317C248.568 318.312 248.152 319.341 247.341 320.088C246.52 320.845 245.416 321.229 244.029 321.24ZM244.029 320.024C244.979 320.024 245.725 319.763 246.269 319.24C246.813 318.717 247.091 317.971 247.101 317C247.091 316.029 246.813 315.283 246.269 314.76C245.725 314.237 244.979 313.976 244.029 313.976C243.08 313.976 242.333 314.237 241.789 314.76C241.245 315.283 240.968 316.029 240.957 317C240.968 317.971 241.245 318.717 241.789 319.24C242.333 319.763 243.08 320.024 244.029 320.024ZM249.537 314.152V313H251.457V310.904L252.881 310.312V313H255.729V314.152H252.881V318.28C252.881 318.824 253.009 319.224 253.265 319.48C253.532 319.725 253.932 319.848 254.465 319.848C254.7 319.848 254.924 319.832 255.137 319.8C255.34 319.779 255.543 319.741 255.745 319.688V320.952C255.553 321.016 255.324 321.064 255.057 321.096C254.791 321.139 254.503 321.16 254.193 321.16C253.095 321.139 252.359 320.861 251.985 320.328C251.601 319.795 251.425 319.139 251.457 318.36V314.152H249.537ZM257.927 324.248C257.799 324.248 257.666 324.243 257.527 324.232C257.389 324.221 257.245 324.205 257.095 324.184V322.936C257.351 322.968 257.581 322.984 257.783 322.984C258.413 322.984 258.925 322.845 259.319 322.568C259.725 322.301 260.029 321.907 260.231 321.384L260.407 320.952L256.455 313H258.087L260.855 318.872C260.983 319.181 261.069 319.432 261.111 319.624H261.127C261.191 319.432 261.277 319.181 261.383 318.872L263.975 313H265.543L261.639 321.512C261.191 322.504 260.663 323.213 260.055 323.64C259.458 324.056 258.749 324.259 257.927 324.248ZM267.177 324.12V313H268.537V314.568C268.878 313.992 269.353 313.544 269.961 313.224C270.569 312.915 271.262 312.76 272.041 312.76C273.278 312.781 274.265 313.171 275.001 313.928C275.726 314.685 276.1 315.715 276.121 317.016C276.1 318.296 275.71 319.315 274.953 320.072C274.196 320.829 273.198 321.219 271.961 321.24C271.182 321.229 270.494 321.075 269.897 320.776C269.3 320.477 268.862 320.099 268.585 319.64V324.12H267.177ZM271.577 320.008C272.526 319.997 273.273 319.731 273.817 319.208C274.35 318.685 274.622 317.955 274.633 317.016C274.622 316.067 274.361 315.325 273.849 314.792C273.326 314.269 272.601 314.003 271.673 313.992C270.734 314.003 269.982 314.259 269.417 314.76C268.852 315.272 268.564 315.96 268.553 316.824V317.192C268.564 318.056 268.841 318.739 269.385 319.24C269.918 319.741 270.649 319.997 271.577 320.008ZM286.317 316.616V317.416H278.924C278.957 318.227 279.245 318.861 279.789 319.32C280.343 319.779 281.106 320.013 282.077 320.024C282.791 320.024 283.399 319.891 283.901 319.624C284.391 319.357 284.77 318.963 285.036 318.44L286.22 318.984C285.837 319.731 285.293 320.291 284.589 320.664C283.885 321.048 283.026 321.24 282.013 321.24C280.594 321.229 279.49 320.867 278.701 320.152C277.901 319.437 277.495 318.419 277.485 317.096C277.506 315.709 277.911 314.643 278.701 313.896C279.501 313.149 280.583 312.771 281.949 312.76C283.325 312.771 284.391 313.101 285.149 313.752C285.917 314.413 286.306 315.368 286.317 316.616ZM284.861 316.312V316.2C284.839 315.432 284.562 314.845 284.029 314.44C283.495 314.035 282.797 313.832 281.933 313.832C281.037 313.843 280.322 314.067 279.789 314.504C279.266 314.941 278.978 315.544 278.924 316.312H284.861Z" fill="#16013E"/>
<circle cx="127" cy="315" r="15.5" stroke="#FFFBF5" stroke-width="3"/>
<rect x="98" y="348" width="210" height="50" rx="6" fill="#FFDC84"/>
<path d="M124.43 379V378.776C124.441 377.133 124.841 375.576 125.63 374.104C126.409 372.632 127.513 371.293 128.942 370.088H122.35V367.88H131.726V369.944C130.403 371.043 129.369 372.296 128.622 373.704C127.865 375.101 127.481 376.701 127.47 378.504V379H124.43Z" fill="#16013E"/>
<path d="M157.712 379V367.64H159.28V377.656H165.968V379H157.712ZM175.895 374.616V375.416H168.503C168.535 376.227 168.823 376.861 169.367 377.32C169.921 377.779 170.684 378.013 171.655 378.024C172.369 378.024 172.977 377.891 173.479 377.624C173.969 377.357 174.348 376.963 174.615 376.44L175.799 376.984C175.415 377.731 174.871 378.291 174.167 378.664C173.463 379.048 172.604 379.24 171.591 379.24C170.172 379.229 169.068 378.867 168.279 378.152C167.479 377.437 167.073 376.419 167.063 375.096C167.084 373.709 167.489 372.643 168.279 371.896C169.079 371.149 170.161 370.771 171.527 370.76C172.903 370.771 173.969 371.101 174.727 371.752C175.495 372.413 175.884 373.368 175.895 374.616ZM174.439 374.312V374.2C174.417 373.432 174.14 372.845 173.607 372.44C173.073 372.035 172.375 371.832 171.511 371.832C170.615 371.843 169.9 372.067 169.367 372.504C168.844 372.941 168.556 373.544 168.503 374.312H174.439ZM180.72 379.24C179.728 379.229 178.939 379.016 178.352 378.6C177.776 378.184 177.483 377.608 177.472 376.872C177.472 376.488 177.557 376.136 177.728 375.816C177.899 375.507 178.144 375.251 178.464 375.048C178.741 374.877 179.109 374.728 179.568 374.6C180.027 374.483 180.651 374.387 181.44 374.312L184.416 374.088V373.944C184.416 373.251 184.208 372.733 183.792 372.392C183.376 372.061 182.757 371.896 181.936 371.896C181.157 371.896 180.539 372.04 180.08 372.328C179.621 372.616 179.355 373.032 179.28 373.576H177.744C177.84 372.723 178.261 372.045 179.008 371.544C179.744 371.032 180.72 370.771 181.936 370.76C183.248 370.76 184.229 371.032 184.88 371.576C185.52 372.131 185.84 372.973 185.84 374.104V376.216C185.84 376.877 185.856 377.421 185.888 377.848C185.931 378.275 185.995 378.659 186.08 379H184.608C184.565 378.776 184.539 378.531 184.528 378.264C184.507 377.997 184.491 377.725 184.48 377.448C184.171 378.024 183.707 378.467 183.088 378.776C182.459 379.085 181.669 379.24 180.72 379.24ZM181.104 378.12C182.107 378.109 182.907 377.869 183.504 377.4C184.112 376.941 184.421 376.307 184.432 375.496V375.096L181.184 375.4C180.373 375.485 179.797 375.64 179.456 375.864C179.125 376.099 178.965 376.424 178.976 376.84C178.976 377.245 179.163 377.56 179.536 377.784C179.899 378.008 180.421 378.12 181.104 378.12ZM190.02 373.032C190.234 372.371 190.591 371.832 191.092 371.416C191.594 371 192.202 370.787 192.916 370.776C193.14 370.776 193.343 370.792 193.524 370.824V372.2C193.45 372.189 193.37 372.184 193.284 372.184C193.21 372.173 193.124 372.168 193.028 372.168C192.527 372.168 192.111 372.237 191.78 372.376C191.45 372.504 191.172 372.691 190.948 372.936C190.596 373.309 190.367 373.741 190.26 374.232C190.154 374.723 190.106 375.229 190.116 375.752V379H188.708V371H190.02V373.032ZM195.396 379V371H196.756V372.744C197.417 371.411 198.58 370.744 200.244 370.744C201.396 370.744 202.265 371.059 202.852 371.688C203.449 372.317 203.748 373.24 203.748 374.456V379H202.34V374.664C202.34 372.872 201.492 371.976 199.796 371.976C198.878 371.987 198.153 372.264 197.62 372.808C197.086 373.352 196.814 374.104 196.804 375.064V379H195.396Z" fill="#16013E"/>
<circle cx="127" cy="373" r="15.5" stroke="#FFFBF5" stroke-width="3"/>
<path d="M347.343 176H345.775V164.64H347.343V176ZM349.303 169.152V168H351.223V165.904L352.647 165.312V168H355.495V169.152H352.647V173.28C352.647 173.824 352.775 174.224 353.031 174.48C353.298 174.725 353.698 174.848 354.231 174.848C354.466 174.848 354.69 174.832 354.903 174.8C355.106 174.779 355.308 174.741 355.511 174.688V175.952C355.319 176.016 355.09 176.064 354.823 176.096C354.556 176.139 354.268 176.16 353.959 176.16C352.86 176.139 352.124 175.861 351.751 175.328C351.367 174.795 351.191 174.139 351.223 173.36V169.152H349.303ZM365.629 171.616V172.416H358.237C358.269 173.227 358.557 173.861 359.101 174.32C359.656 174.779 360.418 175.013 361.389 175.024C362.104 175.024 362.712 174.891 363.213 174.624C363.704 174.357 364.082 173.963 364.349 173.44L365.533 173.984C365.149 174.731 364.605 175.291 363.901 175.664C363.197 176.048 362.338 176.24 361.325 176.24C359.906 176.229 358.802 175.867 358.013 175.152C357.213 174.437 356.808 173.419 356.797 172.096C356.818 170.709 357.224 169.643 358.013 168.896C358.813 168.149 359.896 167.771 361.261 167.76C362.637 167.771 363.704 168.101 364.461 168.752C365.229 169.413 365.618 170.368 365.629 171.616ZM364.173 171.312V171.2C364.152 170.432 363.874 169.845 363.341 169.44C362.808 169.035 362.109 168.832 361.245 168.832C360.349 168.843 359.634 169.067 359.101 169.504C358.578 169.941 358.29 170.544 358.237 171.312H364.173ZM369.27 170.032C369.484 169.371 369.841 168.832 370.342 168.416C370.844 168 371.452 167.787 372.166 167.776C372.39 167.776 372.593 167.792 372.774 167.824V169.2C372.7 169.189 372.62 169.184 372.534 169.184C372.46 169.173 372.374 169.168 372.278 169.168C371.777 169.168 371.361 169.237 371.03 169.376C370.7 169.504 370.422 169.691 370.198 169.936C369.846 170.309 369.617 170.741 369.51 171.232C369.404 171.723 369.356 172.229 369.366 172.752V176H367.958V168H369.27V170.032ZM377.142 176.24C376.15 176.229 375.36 176.016 374.774 175.6C374.198 175.184 373.904 174.608 373.894 173.872C373.894 173.488 373.979 173.136 374.15 172.816C374.32 172.507 374.566 172.251 374.886 172.048C375.163 171.877 375.531 171.728 375.99 171.6C376.448 171.483 377.072 171.387 377.862 171.312L380.838 171.088V170.944C380.838 170.251 380.63 169.733 380.214 169.392C379.798 169.061 379.179 168.896 378.358 168.896C377.579 168.896 376.96 169.04 376.502 169.328C376.043 169.616 375.776 170.032 375.702 170.576H374.166C374.262 169.723 374.683 169.045 375.43 168.544C376.166 168.032 377.142 167.771 378.358 167.76C379.67 167.76 380.651 168.032 381.302 168.576C381.942 169.131 382.262 169.973 382.262 171.104V173.216C382.262 173.877 382.278 174.421 382.31 174.848C382.352 175.275 382.416 175.659 382.502 176H381.03C380.987 175.776 380.96 175.531 380.95 175.264C380.928 174.997 380.912 174.725 380.902 174.448C380.592 175.024 380.128 175.467 379.51 175.776C378.88 176.085 378.091 176.24 377.142 176.24ZM377.526 175.12C378.528 175.109 379.328 174.869 379.926 174.4C380.534 173.941 380.843 173.307 380.854 172.496V172.096L377.606 172.4C376.795 172.485 376.219 172.64 375.878 172.864C375.547 173.099 375.387 173.424 375.398 173.84C375.398 174.245 375.584 174.56 375.958 174.784C376.32 175.008 376.843 175.12 377.526 175.12ZM383.834 169.152V168H385.754V165.904L387.178 165.312V168H390.026V169.152H387.178V173.28C387.178 173.824 387.306 174.224 387.562 174.48C387.829 174.725 388.229 174.848 388.762 174.848C388.997 174.848 389.221 174.832 389.434 174.8C389.637 174.779 389.839 174.741 390.042 174.688V175.952C389.85 176.016 389.621 176.064 389.354 176.096C389.087 176.139 388.799 176.16 388.49 176.16C387.391 176.139 386.655 175.861 386.282 175.328C385.898 174.795 385.722 174.139 385.754 173.36V169.152H383.834ZM400.16 171.616V172.416H392.768C392.8 173.227 393.088 173.861 393.632 174.32C394.187 174.779 394.95 175.013 395.92 175.024C396.635 175.024 397.243 174.891 397.744 174.624C398.235 174.357 398.614 173.963 398.88 173.44L400.064 173.984C399.68 174.731 399.136 175.291 398.432 175.664C397.728 176.048 396.87 176.24 395.856 176.24C394.438 176.229 393.334 175.867 392.544 175.152C391.744 174.437 391.339 173.419 391.328 172.096C391.35 170.709 391.755 169.643 392.544 168.896C393.344 168.149 394.427 167.771 395.792 167.76C397.168 167.771 398.235 168.101 398.992 168.752C399.76 169.413 400.15 170.368 400.16 171.616ZM398.704 171.312V171.2C398.683 170.432 398.406 169.845 397.872 169.44C397.339 169.035 396.64 168.832 395.776 168.832C394.88 168.843 394.166 169.067 393.632 169.504C393.11 169.941 392.822 170.544 392.768 171.312H398.704Z" fill="#16013E"/>
<path d="M377 128C375.895 128 375 128.895 375 130C375 131.105 375.895 132 377 132V128ZM369.914 131.414C370.695 130.633 370.695 129.367 369.914 128.586L357.186 115.858C356.405 115.077 355.139 115.077 354.358 115.858C353.577 116.639 353.577 117.905 354.358 118.686L365.672 130L354.358 141.314C353.577 142.095 353.577 143.361 354.358 144.142C355.139 144.923 356.405 144.923 357.186 144.142L369.914 131.414ZM377 132H404V128H377V132ZM410 138V202H414V138H410ZM404 208H340V212H404V208ZM334 202V138H330V202H334ZM340 132H368.5V128H340V132ZM334 138C334 134.686 336.686 132 340 132V128C334.477 128 330 132.477 330 138H334ZM340 208C336.686 208 334 205.314 334 202H330C330 207.523 334.477 212 340 212V208ZM410 202C410 205.314 407.314 208 404 208V212C409.523 212 414 207.523 414 202H410ZM404 132C407.314 132 410 134.686 410 138H414C414 132.477 409.523 128 404 128V132Z" fill="#16013E"/>
<path d="M363.627 280.64V281.968H359.291V292H357.723V281.968H353.387V280.64H363.627ZM373.293 287.616V288.416H365.901C365.933 289.227 366.221 289.861 366.765 290.32C367.32 290.779 368.082 291.013 369.053 291.024C369.768 291.024 370.376 290.891 370.877 290.624C371.368 290.357 371.746 289.963 372.013 289.44L373.197 289.984C372.813 290.731 372.269 291.291 371.565 291.664C370.861 292.048 370.002 292.24 368.989 292.24C367.57 292.229 366.466 291.867 365.677 291.152C364.877 290.437 364.472 289.419 364.461 288.096C364.482 286.709 364.888 285.643 365.677 284.896C366.477 284.149 367.56 283.771 368.925 283.76C370.301 283.771 371.368 284.101 372.125 284.752C372.893 285.413 373.282 286.368 373.293 287.616ZM371.837 287.312V287.2C371.816 286.432 371.538 285.845 371.005 285.44C370.472 285.035 369.773 284.832 368.909 284.832C368.013 284.843 367.298 285.067 366.765 285.504C366.242 285.941 365.954 286.544 365.901 287.312H371.837ZM379.174 292.24C377.99 292.24 377.03 292.016 376.294 291.568C375.569 291.12 375.057 290.48 374.758 289.648L376.086 289.216C376.3 289.824 376.673 290.288 377.206 290.608C377.74 290.928 378.433 291.088 379.286 291.088C380.012 291.088 380.561 290.981 380.934 290.768C381.308 290.555 381.494 290.235 381.494 289.808C381.505 289.435 381.393 289.157 381.158 288.976C380.934 288.784 380.561 288.672 380.038 288.64L377.686 288.464C376.822 288.379 376.177 288.139 375.75 287.744C375.324 287.349 375.11 286.827 375.11 286.176C375.121 285.419 375.446 284.827 376.086 284.4C376.726 283.984 377.617 283.771 378.758 283.76C379.868 283.771 380.774 283.979 381.478 284.384C382.182 284.789 382.646 285.349 382.87 286.064L381.542 286.512C381.34 286 381.009 285.6 380.55 285.312C380.081 285.024 379.457 284.88 378.678 284.88C377.985 284.88 377.446 284.987 377.062 285.2C376.689 285.413 376.497 285.723 376.486 286.128C376.486 286.789 376.998 287.168 378.022 287.264L380.406 287.44C381.292 287.525 381.926 287.76 382.31 288.144C382.705 288.528 382.897 289.045 382.886 289.696C382.886 290.485 382.582 291.104 381.974 291.552C381.366 292 380.433 292.229 379.174 292.24ZM383.951 285.152V284H385.871V281.904L387.295 281.312V284H390.143V285.152H387.295V289.28C387.295 289.824 387.423 290.224 387.679 290.48C387.946 290.725 388.346 290.848 388.879 290.848C389.114 290.848 389.338 290.832 389.551 290.8C389.754 290.779 389.957 290.741 390.159 290.688V291.952C389.967 292.016 389.738 292.064 389.471 292.096C389.205 292.139 388.917 292.16 388.607 292.16C387.509 292.139 386.773 291.861 386.399 291.328C386.015 290.795 385.839 290.139 385.871 289.36V285.152H383.951Z" fill="#16013E"/>
<path d="M377 244C375.895 244 375 244.895 375 246C375 247.105 375.895 248 377 248V244ZM369.914 247.414C370.695 246.633 370.695 245.367 369.914 244.586L357.186 231.858C356.405 231.077 355.139 231.077 354.358 231.858C353.577 232.639 353.577 233.905 354.358 234.686L365.672 246L354.358 257.314C353.577 258.095 353.577 259.361 354.358 260.142C355.139 260.923 356.405 260.923 357.186 260.142L369.914 247.414ZM377 248H404V244H377V248ZM410 254V318H414V254H410ZM404 324H340V328H404V324ZM334 318V254H330V318H334ZM340 248H368.5V244H340V248ZM334 254C334 250.686 336.686 248 340 248V244C334.477 244 330 248.477 330 254H334ZM340 324C336.686 324 334 321.314 334 318H330C330 323.523 334.477 328 340 328V324ZM410 318C410 321.314 407.314 324 404 324V328C409.523 328 414 323.523 414 318H410ZM404 248C407.314 248 410 250.686 410 254H414C414 248.477 409.523 244 404 244V248Z" fill="#16013E"/>
<path d="M332 374C330.895 374 330 374.895 330 376C330 377.105 330.895 378 332 378V374ZM330.586 23.5858C329.805 24.3668 329.805 25.6332 330.586 26.4142L343.314 39.1421C344.095 39.9232 345.361 39.9232 346.142 39.1421C346.923 38.3611 346.923 37.0948 346.142 36.3137L334.828 25L346.142 13.6863C346.923 12.9052 346.923 11.6389 346.142 10.8579C345.361 10.0768 344.095 10.0768 343.314 10.8579L330.586 23.5858ZM332 378H444V374H332V378ZM454 368V142H450V368H454ZM454 142V33H450V142H454ZM444 23H332V27H444V23ZM454 33C454 27.4772 449.523 23 444 23V27C447.314 27 450 29.6863 450 33H454ZM444 378C449.523 378 454 373.523 454 368H450C450 371.314 447.314 374 444 374V378Z" fill="#16013E"/>
<rect x="50" width="166" height="50" rx="6" transform="rotate(90 50 0)" fill="#007A8B"/>
<path d="M31 123.288L19.64 123.288L19.64 118.408C19.6507 116.584 20.1467 115.128 21.128 114.04C22.0987 112.963 23.464 112.408 25.224 112.376C26.984 112.408 28.3813 112.968 29.416 114.056C30.4507 115.144 30.9787 116.595 31 118.408L31 123.288ZM29.688 121.72L29.688 118.424C29.6667 117.027 29.256 115.949 28.456 115.192C27.6453 114.435 26.568 114.051 25.224 114.04C23.88 114.051 22.8347 114.451 22.088 115.24C21.3413 116.029 20.9627 117.117 20.952 118.504L20.952 121.72L29.688 121.72ZM21.528 110.326L19.752 110.326L19.752 108.678L21.528 108.678L21.528 110.326ZM31 110.198L23 110.198L23 108.79L31 108.79L31 110.198ZM31.24 102.13C31.24 103.314 31.016 104.274 30.568 105.01C30.12 105.736 29.48 106.248 28.648 106.546L28.216 105.218C28.824 105.005 29.288 104.632 29.608 104.098C29.928 103.565 30.088 102.872 30.088 102.018C30.088 101.293 29.9813 100.744 29.768 100.37C29.5547 99.997 29.2347 99.8104 28.808 99.8104C28.4347 99.7997 28.1573 99.9117 27.976 100.146C27.784 100.37 27.672 100.744 27.64 101.266L27.464 103.618C27.3787 104.482 27.1387 105.128 26.744 105.554C26.3493 105.981 25.8267 106.194 25.176 106.194C24.4187 106.184 23.8267 105.858 23.4 105.218C22.984 104.578 22.7707 103.688 22.76 102.546C22.7707 101.437 22.9787 100.53 23.384 99.8264C23.7893 99.1224 24.3493 98.6584 25.064 98.4344L25.512 99.7624C25 99.965 24.6 100.296 24.312 100.754C24.024 101.224 23.88 101.848 23.88 102.626C23.88 103.32 23.9867 103.858 24.2 104.242C24.4133 104.616 24.7227 104.808 25.128 104.818C25.7893 104.818 26.168 104.306 26.264 103.282L26.44 100.898C26.5253 100.013 26.76 99.3784 27.144 98.9944C27.528 98.5997 28.0453 98.4077 28.696 98.4184C29.4853 98.4184 30.104 98.7224 30.552 99.3304C31 99.9384 31.2293 100.872 31.24 102.13ZM31.24 92.4414C31.2293 93.8174 30.8453 94.9054 30.088 95.7054C29.3307 96.5054 28.3013 96.916 27 96.9374C25.6773 96.9267 24.6427 96.516 23.896 95.7054C23.1493 94.9054 22.7707 93.8067 22.76 92.4094C22.76 91.2254 23.0107 90.2814 23.512 89.5774C24.0133 88.8734 24.7493 88.4254 25.72 88.2334L25.896 89.7214C25.2667 89.8707 24.7867 90.1694 24.456 90.6174C24.136 91.076 23.976 91.684 23.976 92.4414C23.9867 93.3907 24.248 94.1267 24.76 94.6494C25.2827 95.1614 26.024 95.4227 26.984 95.4334C27.9547 95.4227 28.7013 95.156 29.224 94.6334C29.7467 94.1 30.0133 93.3587 30.024 92.4094C30.024 90.948 29.3893 90.0254 28.12 89.6414L28.344 88.2494C29.2613 88.4627 29.9707 88.932 30.472 89.6574C30.9733 90.3827 31.2293 91.3107 31.24 92.4414ZM31.24 82.2989C31.2293 83.6855 30.8453 84.7895 30.088 85.6109C29.3413 86.4322 28.312 86.8535 27 86.8749C25.688 86.8535 24.6587 86.4322 23.912 85.6109C23.1547 84.7895 22.7707 83.6855 22.76 82.2989C22.7707 80.9122 23.1547 79.8082 23.912 78.9869C24.6587 78.1762 25.688 77.7602 27 77.7389C28.312 77.7602 29.3413 78.1762 30.088 78.9869C30.8453 79.8082 31.2293 80.9122 31.24 82.2989ZM30.024 82.2989C30.024 81.3495 29.7627 80.6029 29.24 80.0589C28.7173 79.5149 27.9707 79.2375 27 79.2269C26.0293 79.2375 25.2827 79.5149 24.76 80.0589C24.2373 80.6029 23.976 81.3495 23.976 82.2989C23.976 83.2482 24.2373 83.9949 24.76 84.5389C25.2827 85.0829 26.0293 85.3602 27 85.3709C27.9707 85.3602 28.7173 85.0829 29.24 84.5389C29.7627 83.9949 30.024 83.2482 30.024 82.2989ZM31 73.2069L23 76.9509L23 75.3829L28.792 72.7269C29.112 72.5989 29.4107 72.5029 29.688 72.4389L29.688 72.4069C29.5493 72.3642 29.4053 72.3215 29.256 72.2789C29.1067 72.2362 28.952 72.1829 28.792 72.1189L23 69.4629L23 67.8949L31 71.6389L31 73.2069ZM26.616 58.2929L27.416 58.2929L27.416 65.6849C28.2267 65.6529 28.8613 65.3649 29.32 64.8209C29.7787 64.2662 30.0133 63.5035 30.024 62.5329C30.024 61.8182 29.8907 61.2102 29.624 60.7089C29.3573 60.2182 28.9627 59.8395 28.44 59.5729L28.984 58.3889C29.7307 58.7729 30.2907 59.3169 30.664 60.0209C31.048 60.7249 31.24 61.5835 31.24 62.5969C31.2293 64.0155 30.8667 65.1195 30.152 65.9089C29.4373 66.7089 28.4187 67.1142 27.096 67.1249C25.7093 67.1035 24.6427 66.6982 23.896 65.9089C23.1493 65.1089 22.7707 64.0262 22.76 62.6609C22.7707 61.2849 23.1013 60.2182 23.752 59.4609C24.4133 58.6929 25.368 58.3035 26.616 58.2929ZM26.312 59.7489L26.2 59.7489C25.432 59.7702 24.8453 60.0475 24.44 60.5809C24.0347 61.1142 23.832 61.8129 23.832 62.6769C23.8427 63.5729 24.0667 64.2875 24.504 64.8209C24.9413 65.3435 25.544 65.6315 26.312 65.6849L26.312 59.7489ZM25.032 54.6516C24.3707 54.4383 23.832 54.081 23.416 53.5796C23 53.0783 22.7867 52.4703 22.776 51.7556C22.776 51.5316 22.792 51.329 22.824 51.1476L24.2 51.1476C24.1893 51.2223 24.184 51.3023 24.184 51.3876C24.1733 51.4623 24.168 51.5476 24.168 51.6436C24.168 52.145 24.2373 52.561 24.376 52.8916C24.504 53.2223 24.6907 53.4996 24.936 53.7236C25.3093 54.0756 25.7413 54.305 26.232 54.4116C26.7227 54.5183 27.2293 54.5663 27.752 54.5556L31 54.5556L31 55.9636L23 55.9636L23 54.6516L25.032 54.6516ZM34.248 49.2601C34.248 49.3881 34.2427 49.5215 34.232 49.6601C34.2213 49.7988 34.2053 49.9428 34.184 50.0921L32.936 50.0921C32.968 49.8361 32.984 49.6068 32.984 49.4041C32.984 48.7748 32.8453 48.2628 32.568 47.8681C32.3013 47.4628 31.9067 47.1588 31.384 46.9561L30.952 46.7801L23 50.7321L23 49.1001L28.872 46.3321C29.1813 46.2041 29.432 46.1188 29.624 46.0761L29.624 46.0601C29.432 45.9961 29.1813 45.9108 28.872 45.8041L23 43.2121L23 41.6441L31.512 45.5481C32.504 45.9961 33.2133 46.5241 33.64 47.1321C34.056 47.7295 34.2587 48.4388 34.248 49.2601Z" fill="#FFFBF5"/>
<rect x="50" y="174" width="166" height="50" rx="6" transform="rotate(90 50 174)" fill="#FF415C"/>
<path d="M31 313.288L19.64 313.288L19.64 308.408C19.6507 306.584 20.1467 305.128 21.128 304.04C22.0987 302.963 23.464 302.408 25.224 302.376C26.984 302.408 28.3813 302.968 29.416 304.056C30.4507 305.144 30.9787 306.595 31 308.408L31 313.288ZM29.688 311.72L29.688 308.424C29.6667 307.027 29.256 305.949 28.456 305.192C27.6453 304.435 26.568 304.051 25.224 304.04C23.88 304.051 22.8347 304.451 22.088 305.24C21.3413 306.029 20.9627 307.117 20.952 308.504L20.952 311.72L29.688 311.72ZM26.616 292.246L27.416 292.246L27.416 299.638C28.2267 299.606 28.8613 299.318 29.32 298.774C29.7787 298.219 30.0133 297.457 30.024 296.486C30.024 295.771 29.8907 295.163 29.624 294.662C29.3573 294.171 28.9627 293.793 28.44 293.526L28.984 292.342C29.7307 292.726 30.2907 293.27 30.664 293.974C31.048 294.678 31.24 295.537 31.24 296.55C31.2293 297.969 30.8667 299.073 30.152 299.862C29.4373 300.662 28.4187 301.067 27.096 301.078C25.7093 301.057 24.6427 300.651 23.896 299.862C23.1493 299.062 22.7707 297.979 22.76 296.614C22.7707 295.238 23.1013 294.171 23.752 293.414C24.4133 292.646 25.368 292.257 26.616 292.246ZM26.312 293.702L26.2 293.702C25.432 293.723 24.8453 294.001 24.44 294.534C24.0347 295.067 23.832 295.766 23.832 296.63C23.8427 297.526 24.0667 298.241 24.504 298.774C24.9413 299.297 25.544 299.585 26.312 299.638L26.312 293.702ZM31 287.629L23 291.373L23 289.805L28.792 287.149C29.112 287.021 29.4107 286.925 29.688 286.861L29.688 286.829C29.5493 286.786 29.4053 286.743 29.256 286.701C29.1067 286.658 28.952 286.605 28.792 286.541L23 283.885L23 282.317L31 286.061L31 287.629ZM26.616 272.715L27.416 272.715L27.416 280.107C28.2267 280.075 28.8613 279.787 29.32 279.243C29.7787 278.688 30.0133 277.925 30.024 276.955C30.024 276.24 29.8907 275.632 29.624 275.131C29.3573 274.64 28.9627 274.261 28.44 273.995L28.984 272.811C29.7307 273.195 30.2907 273.739 30.664 274.443C31.048 275.147 31.24 276.005 31.24 277.019C31.2293 278.437 30.8667 279.541 30.152 280.331C29.4373 281.131 28.4187 281.536 27.096 281.547C25.7093 281.525 24.6427 281.12 23.896 280.331C23.1493 279.531 22.7707 278.448 22.76 277.083C22.7707 275.707 23.1013 274.64 23.752 273.883C24.4133 273.115 25.368 272.725 26.616 272.715ZM26.312 274.171L26.2 274.171C25.432 274.192 24.8453 274.469 24.44 275.003C24.0347 275.536 23.832 276.235 23.832 277.099C23.8427 277.995 24.0667 278.709 24.504 279.243C24.9413 279.765 25.544 280.053 26.312 280.107L26.312 274.171ZM19.4 268.897L31 268.897L31 270.305L19.4 270.305L19.4 268.897ZM31.24 262.018C31.2293 263.404 30.8453 264.508 30.088 265.33C29.3413 266.151 28.312 266.572 27 266.594C25.688 266.572 24.6587 266.151 23.912 265.33C23.1547 264.508 22.7707 263.404 22.76 262.018C22.7707 260.631 23.1547 259.527 23.912 258.706C24.6587 257.895 25.688 257.479 27 257.458C28.312 257.479 29.3413 257.895 30.088 258.706C30.8453 259.527 31.2293 260.631 31.24 262.018ZM30.024 262.018C30.024 261.068 29.7627 260.322 29.24 259.778C28.7173 259.234 27.9707 258.956 27 258.946C26.0293 258.956 25.2827 259.234 24.76 259.778C24.2373 260.322 23.976 261.068 23.976 262.018C23.976 262.967 24.2373 263.714 24.76 264.258C25.2827 264.802 26.0293 265.079 27 265.09C27.9707 265.079 28.7173 264.802 29.24 264.258C29.7627 263.714 30.024 262.967 30.024 262.018ZM34.12 255.214L23 255.214L23 253.854L24.568 253.854C23.992 253.512 23.544 253.038 23.224 252.43C22.9147 251.822 22.76 251.128 22.76 250.35C22.7813 249.112 23.1707 248.126 23.928 247.39C24.6853 246.664 25.7147 246.291 27.016 246.27C28.296 246.291 29.3147 246.68 30.072 247.438C30.8293 248.195 31.2187 249.192 31.24 250.43C31.2293 251.208 31.0747 251.896 30.776 252.494C30.4773 253.091 30.0987 253.528 29.64 253.806L34.12 253.806L34.12 255.214ZM30.008 250.814C29.9973 249.864 29.7307 249.118 29.208 248.574C28.6853 248.04 27.9547 247.768 27.016 247.758C26.0667 247.768 25.3253 248.03 24.792 248.542C24.2693 249.064 24.0027 249.79 23.992 250.718C24.0027 251.656 24.2587 252.408 24.76 252.974C25.272 253.539 25.96 253.827 26.824 253.838L27.192 253.838C28.056 253.827 28.7387 253.55 29.24 253.006C29.7413 252.472 29.9973 251.742 30.008 250.814ZM23 244.026L23 242.666L24.6 242.666C23.9813 242.41 23.5173 242.037 23.208 241.546C22.8987 241.055 22.744 240.458 22.744 239.754C22.744 239.029 22.904 238.421 23.224 237.93C23.544 237.439 24.0133 237.082 24.632 236.858C24.0133 236.549 23.544 236.133 23.224 235.61C22.904 235.087 22.744 234.474 22.744 233.77C22.744 232.767 23.0427 231.999 23.64 231.466C24.2373 230.933 25.1013 230.666 26.232 230.666L31 230.666L31 232.074L26.344 232.074C25.5653 232.074 24.9787 232.25 24.584 232.602C24.1787 232.954 23.976 233.477 23.976 234.17C23.9867 234.938 24.2213 235.541 24.68 235.978C25.1387 236.405 25.7787 236.623 26.6 236.634L31 236.634L31 238.058L26.344 238.058C25.576 238.058 24.9893 238.234 24.584 238.586C24.1787 238.938 23.976 239.455 23.976 240.138C23.9867 240.895 24.232 241.498 24.712 241.946C25.2027 242.383 25.8693 242.607 26.712 242.618L31 242.618L31 244.026L23 244.026ZM26.616 219.918L27.416 219.918L27.416 227.31C28.2267 227.278 28.8613 226.99 29.32 226.446C29.7787 225.891 30.0133 225.129 30.024 224.158C30.024 223.443 29.8907 222.835 29.624 222.334C29.3573 221.843 28.9627 221.465 28.44 221.198L28.984 220.014C29.7307 220.398 30.2907 220.942 30.664 221.646C31.048 222.35 31.24 223.209 31.24 224.222C31.2293 225.641 30.8667 226.745 30.152 227.534C29.4373 228.334 28.4187 228.739 27.096 228.75C25.7093 228.729 24.6427 228.323 23.896 227.534C23.1493 226.734 22.7707 225.651 22.76 224.286C22.7707 222.91 23.1013 221.843 23.752 221.086C24.4133 220.318 25.368 219.929 26.616 219.918ZM26.312 221.374L26.2 221.374C25.432 221.395 24.8453 221.673 24.44 222.206C24.0347 222.739 23.832 223.438 23.832 224.302C23.8427 225.198 24.0667 225.913 24.504 226.446C24.9413 226.969 25.544 227.257 26.312 227.31L26.312 221.374ZM31 217.589L23 217.589L23 216.229L24.744 216.229C23.4107 215.567 22.744 214.405 22.744 212.741C22.744 211.589 23.0587 210.719 23.688 210.133C24.3173 209.535 25.24 209.237 26.456 209.237L31 209.237L31 210.645L26.664 210.645C24.872 210.645 23.976 211.493 23.976 213.189C23.9867 214.106 24.264 214.831 24.808 215.365C25.352 215.898 26.104 216.17 27.064 216.181L31 216.181L31 217.589ZM24.152 207.728L23 207.728L23 205.808L20.904 205.808L20.312 204.384L23 204.384L23 201.536L24.152 201.536L24.152 204.384L28.28 204.384C28.824 204.384 29.224 204.256 29.48 204C29.7253 203.734 29.848 203.334 29.848 202.8C29.848 202.566 29.832 202.342 29.8 202.128C29.7787 201.926 29.7413 201.723 29.688 201.52L30.952 201.52C31.016 201.712 31.064 201.942 31.096 202.208C31.1387 202.475 31.16 202.763 31.16 203.072C31.1387 204.171 30.8613 204.907 30.328 205.28C29.7947 205.664 29.1387 205.84 28.36 205.808L24.152 205.808L24.152 207.728Z" fill="#FFFBF5"/>
<path d="M72.5858 377.414C73.3669 378.195 74.6332 378.195 75.4142 377.414L88.1422 364.686C88.9232 363.905 88.9232 362.639 88.1422 361.858C87.3611 361.077 86.0948 361.077 85.3137 361.858L74 373.172L62.6863 361.858C61.9053 361.077 60.6389 361.077 59.8579 361.858C59.0768 362.639 59.0768 363.905 59.8579 364.686L72.5858 377.414ZM72 25L72 376L76 376L76 25L72 25Z" fill="black"/>
</svg>
