<svg width="991" height="325" viewBox="0 0 991 325" fill="none" xmlns="http://www.w3.org/2000/svg">
<rect x="2.8296" width="225.905" height="225.905" transform="matrix(0.707399 -0.706814 0.707399 0.706814 185.828 164.5)" fill="#FFFBF5" stroke="#005A38" stroke-width="4"/>
<rect x="2.8296" width="225.905" height="225.905" transform="matrix(0.707399 -0.706814 0.707399 0.706814 505.828 164.5)" fill="#FFFBF5" stroke="#0957E8" stroke-width="4"/>
<path d="M183.712 58.6045V47.2445H188.592C190.416 47.2552 191.872 47.7512 192.96 48.7325C194.037 49.7032 194.592 51.0685 194.624 52.8285C194.592 54.5885 194.032 55.9858 192.944 57.0205C191.856 58.0552 190.405 58.5832 188.592 58.6045H183.712ZM185.28 57.2925H188.576C189.973 57.2712 191.051 56.8605 191.808 56.0605C192.565 55.2498 192.949 54.1725 192.96 52.8285C192.949 51.4845 192.549 50.4392 191.76 49.6925C190.971 48.9458 189.883 48.5672 188.496 48.5565H185.28V57.2925ZM196.674 49.1325V47.3565H198.322V49.1325H196.674ZM196.802 58.6045V50.6045H198.21V58.6045H196.802ZM203.606 58.6045L199.862 50.6045H201.43L204.086 56.3965C204.214 56.7165 204.31 57.0152 204.374 57.2925H204.406C204.448 57.1538 204.491 57.0098 204.534 56.8605C204.576 56.7112 204.63 56.5565 204.694 56.3965L207.35 50.6045H208.918L205.174 58.6045H203.606ZM218.52 54.2205V55.0205H211.128C211.16 55.8312 211.448 56.4658 211.992 56.9245C212.546 57.3832 213.309 57.6178 214.28 57.6285C214.994 57.6285 215.602 57.4952 216.104 57.2285C216.594 56.9618 216.973 56.5672 217.24 56.0445L218.424 56.5885C218.04 57.3352 217.496 57.8952 216.792 58.2685C216.088 58.6525 215.229 58.8445 214.216 58.8445C212.797 58.8338 211.693 58.4712 210.904 57.7565C210.104 57.0418 209.698 56.0232 209.688 54.7005C209.709 53.3138 210.114 52.2472 210.904 51.5005C211.704 50.7538 212.786 50.3752 214.152 50.3645C215.528 50.3752 216.594 50.7058 217.352 51.3565C218.12 52.0178 218.509 52.9725 218.52 54.2205ZM217.064 53.9165V53.8045C217.042 53.0365 216.765 52.4498 216.232 52.0445C215.698 51.6392 215 51.4365 214.136 51.4365C213.24 51.4472 212.525 51.6712 211.992 52.1085C211.469 52.5458 211.181 53.1485 211.128 53.9165H217.064ZM222.161 52.6365C222.374 51.9752 222.732 51.4365 223.233 51.0205C223.734 50.6045 224.342 50.3912 225.057 50.3805C225.281 50.3805 225.484 50.3965 225.665 50.4285V51.8045C225.59 51.7938 225.51 51.7885 225.425 51.7885C225.35 51.7778 225.265 51.7725 225.169 51.7725C224.668 51.7725 224.252 51.8418 223.921 51.9805C223.59 52.1085 223.313 52.2952 223.089 52.5405C222.737 52.9138 222.508 53.3458 222.401 53.8365C222.294 54.3272 222.246 54.8338 222.257 55.3565V58.6045H220.849V50.6045H222.161V52.6365ZM235.12 50.5085C234.79 50.5085 234.518 50.5672 234.304 50.6845C234.08 50.8018 233.92 50.9725 233.824 51.1965C234.112 51.4418 234.336 51.7245 234.496 52.0445C234.646 52.3752 234.72 52.7378 234.72 53.1325C234.71 53.9645 234.384 54.6312 233.744 55.1325C233.094 55.6445 232.192 55.9058 231.04 55.9165C230.262 55.9165 229.59 55.7885 229.024 55.5325C228.8 55.6072 228.624 55.7138 228.496 55.8525C228.358 55.9912 228.288 56.1565 228.288 56.3485C228.288 56.5938 228.395 56.7858 228.608 56.9245C228.822 57.0738 229.168 57.1485 229.648 57.1485H232.8C233.75 57.1485 234.459 57.3405 234.928 57.7245C235.408 58.0978 235.648 58.6472 235.648 59.3725C235.659 60.1938 235.286 60.8285 234.528 61.2765C233.771 61.7245 232.587 61.9538 230.976 61.9645C229.398 61.9538 228.272 61.7458 227.6 61.3405C226.918 60.9458 226.587 60.4178 226.608 59.7565C226.608 59.3725 226.72 59.0365 226.944 58.7485C227.168 58.4605 227.504 58.2472 227.952 58.1085C227.622 57.9698 227.382 57.7832 227.232 57.5485C227.072 57.3138 226.992 57.0472 226.992 56.7485C226.992 56.3432 227.115 56.0072 227.36 55.7405C227.595 55.4738 227.92 55.2712 228.336 55.1325C228.016 54.8872 227.771 54.5938 227.6 54.2525C227.43 53.9112 227.344 53.5378 227.344 53.1325C227.355 52.3005 227.686 51.6338 228.336 51.1325C228.976 50.6312 229.878 50.3752 231.04 50.3645C231.862 50.3645 232.55 50.4978 233.104 50.7645C233.222 50.3165 233.451 49.9592 233.792 49.6925C234.144 49.4365 234.608 49.3032 235.184 49.2925C235.28 49.2925 235.371 49.2978 235.456 49.3085C235.552 49.3192 235.654 49.3352 235.76 49.3565V50.5725C235.59 50.5298 235.376 50.5085 235.12 50.5085ZM231.04 54.8765C231.755 54.8658 232.315 54.7058 232.72 54.3965C233.126 54.0765 233.334 53.6552 233.344 53.1325C233.334 52.6098 233.126 52.1938 232.72 51.8845C232.315 51.5858 231.755 51.4312 231.04 51.4205C230.326 51.4205 229.766 51.5752 229.36 51.8845C228.955 52.1832 228.747 52.5992 228.736 53.1325C228.747 53.6552 228.955 54.0712 229.36 54.3805C229.766 54.7005 230.326 54.8658 231.04 54.8765ZM232.528 58.3805H229.6C229.323 58.3805 229.072 58.3645 228.848 58.3325C228.55 58.4605 228.326 58.6258 228.176 58.8285C228.027 59.0418 227.952 59.2712 227.952 59.5165C227.963 59.9858 228.235 60.3218 228.768 60.5245C229.302 60.7272 230.064 60.8285 231.056 60.8285C232.23 60.8285 233.062 60.7058 233.552 60.4605C234.032 60.2152 234.267 59.8845 234.256 59.4685C234.256 59.1058 234.118 58.8338 233.84 58.6525C233.552 58.4712 233.115 58.3805 232.528 58.3805ZM245.676 54.2205V55.0205H238.284C238.316 55.8312 238.604 56.4658 239.148 56.9245C239.703 57.3832 240.465 57.6178 241.436 57.6285C242.151 57.6285 242.759 57.4952 243.26 57.2285C243.751 56.9618 244.129 56.5672 244.396 56.0445L245.58 56.5885C245.196 57.3352 244.652 57.8952 243.948 58.2685C243.244 58.6525 242.385 58.8445 241.372 58.8445C239.953 58.8338 238.849 58.4712 238.06 57.7565C237.26 57.0418 236.855 56.0232 236.844 54.7005C236.865 53.3138 237.271 52.2472 238.06 51.5005C238.86 50.7538 239.943 50.3752 241.308 50.3645C242.684 50.3752 243.751 50.7058 244.508 51.3565C245.276 52.0178 245.665 52.9725 245.676 54.2205ZM244.22 53.9165V53.8045C244.199 53.0365 243.921 52.4498 243.388 52.0445C242.855 51.6392 242.156 51.4365 241.292 51.4365C240.396 51.4472 239.681 51.6712 239.148 52.1085C238.625 52.5458 238.337 53.1485 238.284 53.9165H244.22Z" fill="#16013E"/>
<path d="M183.712 279.422V268.062H188.592C190.416 268.073 191.872 268.569 192.96 269.55C194.037 270.521 194.592 271.886 194.624 273.646C194.592 275.406 194.032 276.803 192.944 277.838C191.856 278.873 190.405 279.401 188.592 279.422H183.712ZM185.28 278.11H188.576C189.973 278.089 191.051 277.678 191.808 276.878C192.565 276.067 192.949 274.99 192.96 273.646C192.949 272.302 192.549 271.257 191.76 270.51C190.971 269.763 189.883 269.385 188.496 269.374H185.28V278.11ZM196.674 269.95V268.174H198.322V269.95H196.674ZM196.802 279.422V271.422H198.21V279.422H196.802ZM203.606 279.422L199.862 271.422H201.43L204.086 277.214C204.214 277.534 204.31 277.833 204.374 278.11H204.406C204.448 277.971 204.491 277.827 204.534 277.678C204.576 277.529 204.63 277.374 204.694 277.214L207.35 271.422H208.918L205.174 279.422H203.606ZM218.52 275.038V275.838H211.128C211.16 276.649 211.448 277.283 211.992 277.742C212.546 278.201 213.309 278.435 214.28 278.446C214.994 278.446 215.602 278.313 216.104 278.046C216.594 277.779 216.973 277.385 217.24 276.862L218.424 277.406C218.04 278.153 217.496 278.713 216.792 279.086C216.088 279.47 215.229 279.662 214.216 279.662C212.797 279.651 211.693 279.289 210.904 278.574C210.104 277.859 209.698 276.841 209.688 275.518C209.709 274.131 210.114 273.065 210.904 272.318C211.704 271.571 212.786 271.193 214.152 271.182C215.528 271.193 216.594 271.523 217.352 272.174C218.12 272.835 218.509 273.79 218.52 275.038ZM217.064 274.734V274.622C217.042 273.854 216.765 273.267 216.232 272.862C215.698 272.457 215 272.254 214.136 272.254C213.24 272.265 212.525 272.489 211.992 272.926C211.469 273.363 211.181 273.966 211.128 274.734H217.064ZM222.161 273.454C222.374 272.793 222.732 272.254 223.233 271.838C223.734 271.422 224.342 271.209 225.057 271.198C225.281 271.198 225.484 271.214 225.665 271.246V272.622C225.59 272.611 225.51 272.606 225.425 272.606C225.35 272.595 225.265 272.59 225.169 272.59C224.668 272.59 224.252 272.659 223.921 272.798C223.59 272.926 223.313 273.113 223.089 273.358C222.737 273.731 222.508 274.163 222.401 274.654C222.294 275.145 222.246 275.651 222.257 276.174V279.422H220.849V271.422H222.161V273.454ZM235.12 271.326C234.79 271.326 234.518 271.385 234.304 271.502C234.08 271.619 233.92 271.79 233.824 272.014C234.112 272.259 234.336 272.542 234.496 272.862C234.646 273.193 234.72 273.555 234.72 273.95C234.71 274.782 234.384 275.449 233.744 275.95C233.094 276.462 232.192 276.723 231.04 276.734C230.262 276.734 229.59 276.606 229.024 276.35C228.8 276.425 228.624 276.531 228.496 276.67C228.358 276.809 228.288 276.974 228.288 277.166C228.288 277.411 228.395 277.603 228.608 277.742C228.822 277.891 229.168 277.966 229.648 277.966H232.8C233.75 277.966 234.459 278.158 234.928 278.542C235.408 278.915 235.648 279.465 235.648 280.19C235.659 281.011 235.286 281.646 234.528 282.094C233.771 282.542 232.587 282.771 230.976 282.782C229.398 282.771 228.272 282.563 227.6 282.158C226.918 281.763 226.587 281.235 226.608 280.574C226.608 280.19 226.72 279.854 226.944 279.566C227.168 279.278 227.504 279.065 227.952 278.926C227.622 278.787 227.382 278.601 227.232 278.366C227.072 278.131 226.992 277.865 226.992 277.566C226.992 277.161 227.115 276.825 227.36 276.558C227.595 276.291 227.92 276.089 228.336 275.95C228.016 275.705 227.771 275.411 227.6 275.07C227.43 274.729 227.344 274.355 227.344 273.95C227.355 273.118 227.686 272.451 228.336 271.95C228.976 271.449 229.878 271.193 231.04 271.182C231.862 271.182 232.55 271.315 233.104 271.582C233.222 271.134 233.451 270.777 233.792 270.51C234.144 270.254 234.608 270.121 235.184 270.11C235.28 270.11 235.371 270.115 235.456 270.126C235.552 270.137 235.654 270.153 235.76 270.174V271.39C235.59 271.347 235.376 271.326 235.12 271.326ZM231.04 275.694C231.755 275.683 232.315 275.523 232.72 275.214C233.126 274.894 233.334 274.473 233.344 273.95C233.334 273.427 233.126 273.011 232.72 272.702C232.315 272.403 231.755 272.249 231.04 272.238C230.326 272.238 229.766 272.393 229.36 272.702C228.955 273.001 228.747 273.417 228.736 273.95C228.747 274.473 228.955 274.889 229.36 275.198C229.766 275.518 230.326 275.683 231.04 275.694ZM232.528 279.198H229.6C229.323 279.198 229.072 279.182 228.848 279.15C228.55 279.278 228.326 279.443 228.176 279.646C228.027 279.859 227.952 280.089 227.952 280.334C227.963 280.803 228.235 281.139 228.768 281.342C229.302 281.545 230.064 281.646 231.056 281.646C232.23 281.646 233.062 281.523 233.552 281.278C234.032 281.033 234.267 280.702 234.256 280.286C234.256 279.923 234.118 279.651 233.84 279.47C233.552 279.289 233.115 279.198 232.528 279.198ZM245.676 275.038V275.838H238.284C238.316 276.649 238.604 277.283 239.148 277.742C239.703 278.201 240.465 278.435 241.436 278.446C242.151 278.446 242.759 278.313 243.26 278.046C243.751 277.779 244.129 277.385 244.396 276.862L245.58 277.406C245.196 278.153 244.652 278.713 243.948 279.086C243.244 279.47 242.385 279.662 241.372 279.662C239.953 279.651 238.849 279.289 238.06 278.574C237.26 277.859 236.855 276.841 236.844 275.518C236.865 274.131 237.271 273.065 238.06 272.318C238.86 271.571 239.943 271.193 241.308 271.182C242.684 271.193 243.751 271.523 244.508 272.174C245.276 272.835 245.665 273.79 245.676 275.038ZM244.22 274.734V274.622C244.199 273.854 243.921 273.267 243.388 272.862C242.855 272.457 242.156 272.254 241.292 272.254C240.396 272.265 239.681 272.489 239.148 272.926C238.625 273.363 238.337 273.966 238.284 274.734H244.22Z" fill="#16013E"/>
<path d="M8.46 171.072C5.94 171.045 3.98667 170.372 2.6 169.052C1.21333 167.719 0.513333 165.905 0.5 163.612C0.526667 161.319 1.26 159.499 2.7 158.152C4.12667 156.792 6.07333 156.099 8.54 156.072C10.58 156.085 12.24 156.552 13.52 157.472C14.8 158.379 15.6 159.652 15.92 161.292L12.24 161.932C12.0533 160.959 11.64 160.212 11 159.692C10.36 159.159 9.51333 158.892 8.46 158.892C7.12667 158.905 6.09333 159.325 5.36 160.152C4.61333 160.979 4.23333 162.119 4.22 163.572C4.23333 164.999 4.62 166.125 5.38 166.952C6.14 167.792 7.19333 168.219 8.54 168.232C9.55333 168.232 10.38 167.979 11.02 167.472C11.66 166.979 12.0867 166.259 12.3 165.312L15.96 166.092C15.5067 167.665 14.64 168.885 13.36 169.752C12.08 170.619 10.4467 171.059 8.46 171.072ZM32.1653 156.472V170.672H28.5653V164.812H21.6653V170.672H18.0853V156.472H21.6653V162.132H28.5653V156.472H32.1653ZM46.6486 170.672L45.4686 167.572H38.9686L37.7686 170.672H34.0486L40.0886 156.472H44.3486L50.3686 170.672H46.6486ZM39.9086 165.132H44.5286L43.1686 161.572C42.9553 161.079 42.7686 160.632 42.6086 160.232C42.4619 159.832 42.3353 159.399 42.2286 158.932H42.1886C42.0953 159.399 41.9753 159.832 41.8286 160.232C41.6686 160.632 41.4819 161.079 41.2686 161.572L39.9086 165.132ZM52.265 170.672V156.472H55.845V167.792H63.285V170.672H52.265ZM65.3509 170.672V156.472H68.9309V167.792H76.3709V170.672H65.3509ZM82.0169 168.052H90.2169V170.672H78.4369V156.472H90.0769V159.072H82.0169V162.172H89.7369V164.692H82.0169V168.052ZM92.9486 170.672V156.472H96.8686L102.769 164.612C102.955 164.892 103.135 165.185 103.309 165.492C103.482 165.785 103.622 166.065 103.729 166.332H103.769V164.452V156.472H107.049V170.672H103.329L97.2086 162.432C97.0353 162.152 96.8619 161.865 96.6886 161.572C96.5153 161.279 96.3753 161.012 96.2686 160.772H96.2086C96.2219 161.065 96.2286 161.372 96.2286 161.692C96.2286 162.012 96.2286 162.339 96.2286 162.672V170.672H92.9486ZM116.411 171.072C114.145 171.045 112.378 170.365 111.111 169.032C109.845 167.699 109.205 165.905 109.191 163.652C109.218 161.372 109.945 159.545 111.371 158.172C112.785 156.812 114.751 156.112 117.271 156.072C119.298 156.099 120.931 156.512 122.171 157.312C123.411 158.125 124.198 159.205 124.531 160.552L120.831 161.232C120.645 160.499 120.251 159.899 119.651 159.432C119.038 158.979 118.225 158.745 117.211 158.732C115.838 158.745 114.785 159.185 114.051 160.052C113.305 160.905 112.925 162.085 112.911 163.592C112.925 165.085 113.298 166.259 114.031 167.112C114.778 167.965 115.845 168.399 117.231 168.412C118.511 168.372 119.491 168.052 120.171 167.452C120.851 166.865 121.205 166.192 121.231 165.432V165.212H116.911V162.752H124.531V170.672H121.911L121.751 168.452C121.338 169.239 120.685 169.865 119.791 170.332C118.898 170.812 117.771 171.059 116.411 171.072ZM130.845 168.052H139.045V170.672H127.265V156.472H138.905V159.072H130.845V162.172H138.565V164.692H130.845V168.052Z" fill="#16013E"/>
<path d="M882.58 170.918C880.1 170.891 878.14 170.211 876.7 168.878C875.26 167.558 874.527 165.738 874.5 163.418C874.527 161.098 875.26 159.278 876.7 157.958C878.14 156.624 880.1 155.944 882.58 155.918C885.06 155.944 887.02 156.624 888.46 157.958C889.9 159.278 890.633 161.098 890.66 163.418C890.633 165.738 889.9 167.558 888.46 168.878C887.02 170.211 885.06 170.891 882.58 170.918ZM882.58 168.158C883.927 168.144 884.98 167.718 885.74 166.878C886.513 166.051 886.907 164.898 886.92 163.418C886.907 161.938 886.513 160.784 885.74 159.958C884.98 159.118 883.927 158.691 882.58 158.678C881.233 158.691 880.18 159.118 879.42 159.958C878.647 160.784 878.253 161.938 878.24 163.418C878.253 164.884 878.647 166.038 879.42 166.878C880.18 167.718 881.233 168.144 882.58 168.158ZM892.428 156.318H896.028V164.718C896.041 165.718 896.341 166.524 896.928 167.138C897.515 167.738 898.348 168.044 899.428 168.058C900.521 168.044 901.361 167.738 901.948 167.138C902.535 166.524 902.828 165.718 902.828 164.718V156.318H906.428V164.958C906.415 166.784 905.801 168.224 904.588 169.278C903.388 170.344 901.668 170.891 899.428 170.918C897.188 170.891 895.468 170.344 894.268 169.278C893.055 168.211 892.441 166.764 892.428 164.938V156.318ZM921.271 156.318V159.158H916.351V170.518H912.771V159.158H907.851V156.318H921.271ZM929.882 170.918C927.362 170.891 925.409 170.218 924.022 168.898C922.635 167.564 921.935 165.751 921.922 163.458C921.949 161.164 922.682 159.344 924.122 157.998C925.549 156.638 927.495 155.944 929.962 155.918C932.002 155.931 933.662 156.398 934.942 157.318C936.222 158.224 937.022 159.498 937.342 161.138L933.662 161.778C933.475 160.804 933.062 160.058 932.422 159.538C931.782 159.004 930.935 158.738 929.882 158.738C928.549 158.751 927.515 159.171 926.782 159.998C926.035 160.824 925.655 161.964 925.642 163.418C925.655 164.844 926.042 165.971 926.802 166.798C927.562 167.638 928.615 168.064 929.962 168.078C930.975 168.078 931.802 167.824 932.442 167.318C933.082 166.824 933.509 166.104 933.722 165.158L937.382 165.938C936.929 167.511 936.062 168.731 934.782 169.598C933.502 170.464 931.869 170.904 929.882 170.918ZM946.447 170.918C943.967 170.891 942.007 170.211 940.567 168.878C939.127 167.558 938.394 165.738 938.367 163.418C938.394 161.098 939.127 159.278 940.567 157.958C942.007 156.624 943.967 155.944 946.447 155.918C948.927 155.944 950.887 156.624 952.327 157.958C953.767 159.278 954.501 161.098 954.527 163.418C954.501 165.738 953.767 167.558 952.327 168.878C950.887 170.211 948.927 170.891 946.447 170.918ZM946.447 168.158C947.794 168.144 948.847 167.718 949.607 166.878C950.381 166.051 950.774 164.898 950.787 163.418C950.774 161.938 950.381 160.784 949.607 159.958C948.847 159.118 947.794 158.691 946.447 158.678C945.101 158.691 944.047 159.118 943.287 159.958C942.514 160.784 942.121 161.938 942.107 163.418C942.121 164.884 942.514 166.038 943.287 166.878C944.047 167.718 945.101 168.144 946.447 168.158ZM956.675 170.518V156.318H961.795L964.935 165.018C965.135 165.631 965.268 166.178 965.335 166.658H965.375C965.402 166.418 965.455 166.158 965.535 165.878C965.602 165.598 965.688 165.304 965.795 164.998L968.875 156.318H974.075V170.518H970.795V161.018C970.795 160.711 970.802 160.398 970.815 160.078C970.842 159.771 970.868 159.464 970.895 159.158H970.835C970.795 159.358 970.728 159.611 970.635 159.918C970.542 160.238 970.442 160.531 970.335 160.798L966.855 170.518H963.695L960.195 160.798C960.088 160.531 959.995 160.251 959.915 159.958C959.835 159.664 959.775 159.404 959.735 159.178H959.655C959.695 159.444 959.722 159.731 959.735 160.038C959.748 160.358 959.755 160.684 959.755 161.018V170.518H956.675ZM980.939 167.898H989.139V170.518H977.359V156.318H988.999V158.918H980.939V162.018H988.659V164.538H980.939V167.898Z" fill="#16013E"/>
<path d="M453.672 58.9245C451.699 58.8925 450.2 58.3218 449.176 57.2125C448.152 56.1032 447.635 54.6685 447.624 52.9085C447.635 51.1058 448.173 49.6658 449.24 48.5885C450.307 47.5112 451.805 46.9565 453.736 46.9245C455.293 46.9352 456.531 47.3032 457.448 48.0285C458.355 48.7538 458.931 49.7565 459.176 51.0365L457.544 51.1965C457.352 50.2792 456.931 49.5592 456.28 49.0365C455.619 48.5245 454.744 48.2632 453.656 48.2525C452.269 48.2738 451.197 48.6952 450.44 49.5165C449.672 50.3378 449.283 51.4632 449.272 52.8925C449.283 54.2792 449.672 55.3992 450.44 56.2525C451.219 57.1165 452.307 57.5592 453.704 57.5805C454.728 57.5698 455.576 57.3245 456.248 56.8445C456.909 56.3645 457.368 55.6765 457.624 54.7805L459.176 55.0525C458.845 56.2258 458.227 57.1592 457.32 57.8525C456.424 58.5458 455.208 58.9032 453.672 58.9245ZM465.107 58.8445C463.721 58.8338 462.617 58.4498 461.795 57.6925C460.974 56.9458 460.553 55.9165 460.531 54.6045C460.553 53.2925 460.974 52.2632 461.795 51.5165C462.617 50.7592 463.721 50.3752 465.107 50.3645C466.494 50.3752 467.598 50.7592 468.419 51.5165C469.23 52.2632 469.646 53.2925 469.667 54.6045C469.646 55.9165 469.23 56.9458 468.419 57.6925C467.598 58.4498 466.494 58.8338 465.107 58.8445ZM465.107 57.6285C466.057 57.6285 466.803 57.3672 467.347 56.8445C467.891 56.3218 468.169 55.5752 468.179 54.6045C468.169 53.6338 467.891 52.8872 467.347 52.3645C466.803 51.8418 466.057 51.5805 465.107 51.5805C464.158 51.5805 463.411 51.8418 462.867 52.3645C462.323 52.8872 462.046 53.6338 462.035 54.6045C462.046 55.5752 462.323 56.3218 462.867 56.8445C463.411 57.3672 464.158 57.6285 465.107 57.6285ZM471.911 58.6045V50.6045H473.271V52.3485C473.933 51.0152 475.095 50.3485 476.759 50.3485C477.911 50.3485 478.781 50.6632 479.367 51.2925C479.965 51.9218 480.263 52.8445 480.263 54.0605V58.6045H478.855V54.2685C478.855 52.4765 478.007 51.5805 476.311 51.5805C475.394 51.5912 474.669 51.8685 474.135 52.4125C473.602 52.9565 473.33 53.7085 473.319 54.6685V58.6045H471.911ZM485.356 58.6045L481.612 50.6045H483.18L485.836 56.3965C485.964 56.7165 486.06 57.0152 486.124 57.2925H486.156C486.198 57.1538 486.241 57.0098 486.284 56.8605C486.326 56.7112 486.38 56.5565 486.444 56.3965L489.1 50.6045H490.668L486.924 58.6045H485.356ZM500.27 54.2205V55.0205H492.878C492.91 55.8312 493.198 56.4658 493.742 56.9245C494.296 57.3832 495.059 57.6178 496.03 57.6285C496.744 57.6285 497.352 57.4952 497.854 57.2285C498.344 56.9618 498.723 56.5672 498.99 56.0445L500.174 56.5885C499.79 57.3352 499.246 57.8952 498.542 58.2685C497.838 58.6525 496.979 58.8445 495.966 58.8445C494.547 58.8338 493.443 58.4712 492.654 57.7565C491.854 57.0418 491.448 56.0232 491.438 54.7005C491.459 53.3138 491.864 52.2472 492.654 51.5005C493.454 50.7538 494.536 50.3752 495.902 50.3645C497.278 50.3752 498.344 50.7058 499.102 51.3565C499.87 52.0178 500.259 52.9725 500.27 54.2205ZM498.814 53.9165V53.8045C498.792 53.0365 498.515 52.4498 497.982 52.0445C497.448 51.6392 496.75 51.4365 495.886 51.4365C494.99 51.4472 494.275 51.6712 493.742 52.1085C493.219 52.5458 492.931 53.1485 492.878 53.9165H498.814ZM503.911 52.6365C504.124 51.9752 504.482 51.4365 504.983 51.0205C505.484 50.6045 506.092 50.3912 506.807 50.3805C507.031 50.3805 507.234 50.3965 507.415 50.4285V51.8045C507.34 51.7938 507.26 51.7885 507.175 51.7885C507.1 51.7778 507.015 51.7725 506.919 51.7725C506.418 51.7725 506.002 51.8418 505.671 51.9805C505.34 52.1085 505.063 52.2952 504.839 52.5405C504.487 52.9138 504.258 53.3458 504.151 53.8365C504.044 54.3272 503.996 54.8338 504.007 55.3565V58.6045H502.599V50.6045H503.911V52.6365ZM516.87 50.5085C516.54 50.5085 516.268 50.5672 516.054 50.6845C515.83 50.8018 515.67 50.9725 515.574 51.1965C515.862 51.4418 516.086 51.7245 516.246 52.0445C516.396 52.3752 516.47 52.7378 516.47 53.1325C516.46 53.9645 516.134 54.6312 515.494 55.1325C514.844 55.6445 513.942 55.9058 512.79 55.9165C512.012 55.9165 511.34 55.7885 510.774 55.5325C510.55 55.6072 510.374 55.7138 510.246 55.8525C510.108 55.9912 510.038 56.1565 510.038 56.3485C510.038 56.5938 510.145 56.7858 510.358 56.9245C510.572 57.0738 510.918 57.1485 511.398 57.1485H514.55C515.5 57.1485 516.209 57.3405 516.678 57.7245C517.158 58.0978 517.398 58.6472 517.398 59.3725C517.409 60.1938 517.036 60.8285 516.278 61.2765C515.521 61.7245 514.337 61.9538 512.726 61.9645C511.148 61.9538 510.022 61.7458 509.35 61.3405C508.668 60.9458 508.337 60.4178 508.358 59.7565C508.358 59.3725 508.47 59.0365 508.694 58.7485C508.918 58.4605 509.254 58.2472 509.702 58.1085C509.372 57.9698 509.132 57.7832 508.982 57.5485C508.822 57.3138 508.742 57.0472 508.742 56.7485C508.742 56.3432 508.865 56.0072 509.11 55.7405C509.345 55.4738 509.67 55.2712 510.086 55.1325C509.766 54.8872 509.521 54.5938 509.35 54.2525C509.18 53.9112 509.094 53.5378 509.094 53.1325C509.105 52.3005 509.436 51.6338 510.086 51.1325C510.726 50.6312 511.628 50.3752 512.79 50.3645C513.612 50.3645 514.3 50.4978 514.854 50.7645C514.972 50.3165 515.201 49.9592 515.542 49.6925C515.894 49.4365 516.358 49.3032 516.934 49.2925C517.03 49.2925 517.121 49.2978 517.206 49.3085C517.302 49.3192 517.404 49.3352 517.51 49.3565V50.5725C517.34 50.5298 517.126 50.5085 516.87 50.5085ZM512.79 54.8765C513.505 54.8658 514.065 54.7058 514.47 54.3965C514.876 54.0765 515.084 53.6552 515.094 53.1325C515.084 52.6098 514.876 52.1938 514.47 51.8845C514.065 51.5858 513.505 51.4312 512.79 51.4205C512.076 51.4205 511.516 51.5752 511.11 51.8845C510.705 52.1832 510.497 52.5992 510.486 53.1325C510.497 53.6552 510.705 54.0712 511.11 54.3805C511.516 54.7005 512.076 54.8658 512.79 54.8765ZM514.278 58.3805H511.35C511.073 58.3805 510.822 58.3645 510.598 58.3325C510.3 58.4605 510.076 58.6258 509.926 58.8285C509.777 59.0418 509.702 59.2712 509.702 59.5165C509.713 59.9858 509.985 60.3218 510.518 60.5245C511.052 60.7272 511.814 60.8285 512.806 60.8285C513.98 60.8285 514.812 60.7058 515.302 60.4605C515.782 60.2152 516.017 59.8845 516.006 59.4685C516.006 59.1058 515.868 58.8338 515.59 58.6525C515.302 58.4712 514.865 58.3805 514.278 58.3805ZM527.426 54.2205V55.0205H520.034C520.066 55.8312 520.354 56.4658 520.898 56.9245C521.453 57.3832 522.215 57.6178 523.186 57.6285C523.901 57.6285 524.509 57.4952 525.01 57.2285C525.501 56.9618 525.879 56.5672 526.146 56.0445L527.33 56.5885C526.946 57.3352 526.402 57.8952 525.698 58.2685C524.994 58.6525 524.135 58.8445 523.122 58.8445C521.703 58.8338 520.599 58.4712 519.81 57.7565C519.01 57.0418 518.605 56.0232 518.594 54.7005C518.615 53.3138 519.021 52.2472 519.81 51.5005C520.61 50.7538 521.693 50.3752 523.058 50.3645C524.434 50.3752 525.501 50.7058 526.258 51.3565C527.026 52.0178 527.415 52.9725 527.426 54.2205ZM525.97 53.9165V53.8045C525.949 53.0365 525.671 52.4498 525.138 52.0445C524.605 51.6392 523.906 51.4365 523.042 51.4365C522.146 51.4472 521.431 51.6712 520.898 52.1085C520.375 52.5458 520.087 53.1485 520.034 53.9165H525.97Z" fill="#16013E"/>
<path d="M453.672 279.742C451.699 279.71 450.2 279.139 449.176 278.03C448.152 276.921 447.635 275.486 447.624 273.726C447.635 271.923 448.173 270.483 449.24 269.406C450.307 268.329 451.805 267.774 453.736 267.742C455.293 267.753 456.531 268.121 457.448 268.846C458.355 269.571 458.931 270.574 459.176 271.854L457.544 272.014C457.352 271.097 456.931 270.377 456.28 269.854C455.619 269.342 454.744 269.081 453.656 269.07C452.269 269.091 451.197 269.513 450.44 270.334C449.672 271.155 449.283 272.281 449.272 273.71C449.283 275.097 449.672 276.217 450.44 277.07C451.219 277.934 452.307 278.377 453.704 278.398C454.728 278.387 455.576 278.142 456.248 277.662C456.909 277.182 457.368 276.494 457.624 275.598L459.176 275.87C458.845 277.043 458.227 277.977 457.32 278.67C456.424 279.363 455.208 279.721 453.672 279.742ZM465.107 279.662C463.721 279.651 462.617 279.267 461.795 278.51C460.974 277.763 460.553 276.734 460.531 275.422C460.553 274.11 460.974 273.081 461.795 272.334C462.617 271.577 463.721 271.193 465.107 271.182C466.494 271.193 467.598 271.577 468.419 272.334C469.23 273.081 469.646 274.11 469.667 275.422C469.646 276.734 469.23 277.763 468.419 278.51C467.598 279.267 466.494 279.651 465.107 279.662ZM465.107 278.446C466.057 278.446 466.803 278.185 467.347 277.662C467.891 277.139 468.169 276.393 468.179 275.422C468.169 274.451 467.891 273.705 467.347 273.182C466.803 272.659 466.057 272.398 465.107 272.398C464.158 272.398 463.411 272.659 462.867 273.182C462.323 273.705 462.046 274.451 462.035 275.422C462.046 276.393 462.323 277.139 462.867 277.662C463.411 278.185 464.158 278.446 465.107 278.446ZM471.911 279.422V271.422H473.271V273.166C473.933 271.833 475.095 271.166 476.759 271.166C477.911 271.166 478.781 271.481 479.367 272.11C479.965 272.739 480.263 273.662 480.263 274.878V279.422H478.855V275.086C478.855 273.294 478.007 272.398 476.311 272.398C475.394 272.409 474.669 272.686 474.135 273.23C473.602 273.774 473.33 274.526 473.319 275.486V279.422H471.911ZM485.356 279.422L481.612 271.422H483.18L485.836 277.214C485.964 277.534 486.06 277.833 486.124 278.11H486.156C486.198 277.971 486.241 277.827 486.284 277.678C486.326 277.529 486.38 277.374 486.444 277.214L489.1 271.422H490.668L486.924 279.422H485.356ZM500.27 275.038V275.838H492.878C492.91 276.649 493.198 277.283 493.742 277.742C494.296 278.201 495.059 278.435 496.03 278.446C496.744 278.446 497.352 278.313 497.854 278.046C498.344 277.779 498.723 277.385 498.99 276.862L500.174 277.406C499.79 278.153 499.246 278.713 498.542 279.086C497.838 279.47 496.979 279.662 495.966 279.662C494.547 279.651 493.443 279.289 492.654 278.574C491.854 277.859 491.448 276.841 491.438 275.518C491.459 274.131 491.864 273.065 492.654 272.318C493.454 271.571 494.536 271.193 495.902 271.182C497.278 271.193 498.344 271.523 499.102 272.174C499.87 272.835 500.259 273.79 500.27 275.038ZM498.814 274.734V274.622C498.792 273.854 498.515 273.267 497.982 272.862C497.448 272.457 496.75 272.254 495.886 272.254C494.99 272.265 494.275 272.489 493.742 272.926C493.219 273.363 492.931 273.966 492.878 274.734H498.814ZM503.911 273.454C504.124 272.793 504.482 272.254 504.983 271.838C505.484 271.422 506.092 271.209 506.807 271.198C507.031 271.198 507.234 271.214 507.415 271.246V272.622C507.34 272.611 507.26 272.606 507.175 272.606C507.1 272.595 507.015 272.59 506.919 272.59C506.418 272.59 506.002 272.659 505.671 272.798C505.34 272.926 505.063 273.113 504.839 273.358C504.487 273.731 504.258 274.163 504.151 274.654C504.044 275.145 503.996 275.651 504.007 276.174V279.422H502.599V271.422H503.911V273.454ZM516.87 271.326C516.54 271.326 516.268 271.385 516.054 271.502C515.83 271.619 515.67 271.79 515.574 272.014C515.862 272.259 516.086 272.542 516.246 272.862C516.396 273.193 516.47 273.555 516.47 273.95C516.46 274.782 516.134 275.449 515.494 275.95C514.844 276.462 513.942 276.723 512.79 276.734C512.012 276.734 511.34 276.606 510.774 276.35C510.55 276.425 510.374 276.531 510.246 276.67C510.108 276.809 510.038 276.974 510.038 277.166C510.038 277.411 510.145 277.603 510.358 277.742C510.572 277.891 510.918 277.966 511.398 277.966H514.55C515.5 277.966 516.209 278.158 516.678 278.542C517.158 278.915 517.398 279.465 517.398 280.19C517.409 281.011 517.036 281.646 516.278 282.094C515.521 282.542 514.337 282.771 512.726 282.782C511.148 282.771 510.022 282.563 509.35 282.158C508.668 281.763 508.337 281.235 508.358 280.574C508.358 280.19 508.47 279.854 508.694 279.566C508.918 279.278 509.254 279.065 509.702 278.926C509.372 278.787 509.132 278.601 508.982 278.366C508.822 278.131 508.742 277.865 508.742 277.566C508.742 277.161 508.865 276.825 509.11 276.558C509.345 276.291 509.67 276.089 510.086 275.95C509.766 275.705 509.521 275.411 509.35 275.07C509.18 274.729 509.094 274.355 509.094 273.95C509.105 273.118 509.436 272.451 510.086 271.95C510.726 271.449 511.628 271.193 512.79 271.182C513.612 271.182 514.3 271.315 514.854 271.582C514.972 271.134 515.201 270.777 515.542 270.51C515.894 270.254 516.358 270.121 516.934 270.11C517.03 270.11 517.121 270.115 517.206 270.126C517.302 270.137 517.404 270.153 517.51 270.174V271.39C517.34 271.347 517.126 271.326 516.87 271.326ZM512.79 275.694C513.505 275.683 514.065 275.523 514.47 275.214C514.876 274.894 515.084 274.473 515.094 273.95C515.084 273.427 514.876 273.011 514.47 272.702C514.065 272.403 513.505 272.249 512.79 272.238C512.076 272.238 511.516 272.393 511.11 272.702C510.705 273.001 510.497 273.417 510.486 273.95C510.497 274.473 510.705 274.889 511.11 275.198C511.516 275.518 512.076 275.683 512.79 275.694ZM514.278 279.198H511.35C511.073 279.198 510.822 279.182 510.598 279.15C510.3 279.278 510.076 279.443 509.926 279.646C509.777 279.859 509.702 280.089 509.702 280.334C509.713 280.803 509.985 281.139 510.518 281.342C511.052 281.545 511.814 281.646 512.806 281.646C513.98 281.646 514.812 281.523 515.302 281.278C515.782 281.033 516.017 280.702 516.006 280.286C516.006 279.923 515.868 279.651 515.59 279.47C515.302 279.289 514.865 279.198 514.278 279.198ZM527.426 275.038V275.838H520.034C520.066 276.649 520.354 277.283 520.898 277.742C521.453 278.201 522.215 278.435 523.186 278.446C523.901 278.446 524.509 278.313 525.01 278.046C525.501 277.779 525.879 277.385 526.146 276.862L527.33 277.406C526.946 278.153 526.402 278.713 525.698 279.086C524.994 279.47 524.135 279.662 523.122 279.662C521.703 279.651 520.599 279.289 519.81 278.574C519.01 277.859 518.605 276.841 518.594 275.518C518.615 274.131 519.021 273.065 519.81 272.318C520.61 271.571 521.693 271.193 523.058 271.182C524.434 271.193 525.501 271.523 526.258 272.174C527.026 272.835 527.415 273.79 527.426 275.038ZM525.97 274.734V274.622C525.949 273.854 525.671 273.267 525.138 272.862C524.605 272.457 523.906 272.254 523.042 272.254C522.146 272.265 521.431 272.489 520.898 272.926C520.375 273.363 520.087 273.966 520.034 274.734H525.97Z" fill="#16013E"/>
<path d="M291.5 33.7607C291.5 33.4846 291.276 33.2609 291 33.2609H286.498C286.222 33.2609 285.998 33.4846 285.998 33.7607C285.998 34.0367 286.222 34.2605 286.498 34.2605L290.5 34.2605V38.2588C290.5 38.5348 290.724 38.7586 291 38.7586C291.276 38.7586 291.5 38.5348 291.5 38.2588V33.7607ZM212.354 113.049L291.354 34.1141L290.646 33.4073L211.646 112.342L212.354 113.049Z" fill="#16013E"/>
<path d="M479.696 213.262C479.696 212.986 479.472 212.762 479.196 212.762H474.694C474.418 212.762 474.194 212.986 474.194 213.262C474.194 213.538 474.418 213.762 474.694 213.762L478.696 213.762V217.76C478.696 218.036 478.92 218.26 479.196 218.26C479.472 218.26 479.696 218.036 479.696 217.76V213.262ZM400.354 292.746L479.55 213.616L478.842 212.909L399.646 292.039L400.354 292.746Z" fill="#16013E"/>
<path d="M479.5 112.695C479.5 112.971 479.276 113.195 479 113.195H474.498C474.222 113.195 473.998 112.971 473.998 112.695C473.998 112.419 474.222 112.196 474.498 112.196L478.5 112.196V108.197C478.5 107.921 478.724 107.697 479 107.697C479.276 107.697 479.5 107.921 479.5 108.197V112.695ZM400.354 33.4073L479.354 112.342L478.646 113.049L399.646 34.1141L400.354 33.4073Z" fill="#16013E"/>
<path d="M292.696 292.588C292.696 292.864 292.472 293.088 292.196 293.088H287.694C287.418 293.088 287.194 292.864 287.194 292.588C287.194 292.312 287.418 292.089 287.694 292.089H291.696V288.09C291.696 287.814 291.92 287.591 292.196 287.591C292.472 287.591 292.696 287.814 292.696 288.09V292.588ZM213.354 213.105L292.55 292.235L291.842 292.942L212.646 213.811L213.354 213.105Z" fill="#16013E"/>
<path d="M222.312 170.512V159.152H227.96C229.848 159.173 231.336 159.669 232.424 160.64C233.523 161.61 234.083 162.965 234.104 164.704C234.083 166.474 233.517 167.877 232.408 168.912C231.288 169.957 229.789 170.49 227.912 170.512H222.312ZM225.176 168.448H227.704C228.803 168.426 229.645 168.074 230.232 167.392C230.808 166.72 231.101 165.829 231.112 164.72C231.101 163.642 230.803 162.794 230.216 162.176C229.619 161.546 228.781 161.226 227.704 161.216H225.176V168.448ZM238.676 170.512H235.812V159.152H238.676V170.512ZM245.888 170.832C244.459 170.821 243.238 170.576 242.224 170.096C241.211 169.616 240.464 168.938 239.984 168.064L242.096 166.592C242.47 167.242 242.982 167.749 243.632 168.112C244.283 168.474 245.078 168.661 246.016 168.672C246.795 168.672 247.392 168.565 247.808 168.352C248.235 168.138 248.448 167.802 248.448 167.344C248.459 166.96 248.326 166.672 248.048 166.48C247.76 166.277 247.302 166.133 246.672 166.048L244.32 165.696C243.147 165.514 242.267 165.146 241.68 164.592C241.083 164.037 240.784 163.269 240.784 162.288C240.795 161.2 241.248 160.352 242.144 159.744C243.03 159.146 244.278 158.842 245.888 158.832C247.115 158.832 248.182 159.024 249.088 159.408C250.006 159.781 250.736 160.357 251.28 161.136L249.408 162.704C249.056 162.128 248.566 161.685 247.936 161.376C247.307 161.066 246.571 160.912 245.728 160.912C245.024 160.912 244.48 161.013 244.096 161.216C243.712 161.429 243.52 161.728 243.52 162.112C243.51 162.474 243.643 162.752 243.92 162.944C244.198 163.136 244.672 163.285 245.344 163.392L247.632 163.728C248.88 163.92 249.803 164.277 250.4 164.8C250.987 165.333 251.28 166.096 251.28 167.088C251.27 168.261 250.8 169.173 249.872 169.824C248.944 170.485 247.616 170.821 245.888 170.832ZM258.518 170.832C256.502 170.81 254.939 170.272 253.83 169.216C252.721 168.149 252.161 166.698 252.15 164.864C252.171 163.029 252.758 161.573 253.91 160.496C255.051 159.408 256.609 158.853 258.582 158.832C260.214 158.842 261.542 159.216 262.566 159.952C263.59 160.677 264.23 161.696 264.486 163.008L261.542 163.52C261.393 162.741 261.062 162.144 260.55 161.728C260.038 161.301 259.361 161.088 258.518 161.088C257.451 161.098 256.625 161.434 256.038 162.096C255.441 162.757 255.137 163.669 255.126 164.832C255.137 165.973 255.446 166.874 256.054 167.536C256.662 168.208 257.505 168.549 258.582 168.56C259.393 168.56 260.054 168.357 260.566 167.952C261.078 167.557 261.419 166.981 261.59 166.224L264.518 166.848C264.155 168.106 263.462 169.082 262.438 169.776C261.414 170.469 260.107 170.821 258.518 170.832ZM271.77 170.832C269.786 170.81 268.218 170.266 267.066 169.2C265.914 168.144 265.328 166.688 265.306 164.832C265.328 162.976 265.914 161.52 267.066 160.464C268.218 159.397 269.786 158.853 271.77 158.832C273.754 158.853 275.322 159.397 276.474 160.464C277.626 161.52 278.213 162.976 278.234 164.832C278.213 166.688 277.626 168.144 276.474 169.2C275.322 170.266 273.754 170.81 271.77 170.832ZM271.77 168.624C272.848 168.613 273.69 168.272 274.298 167.6C274.917 166.938 275.232 166.016 275.242 164.832C275.232 163.648 274.917 162.725 274.298 162.064C273.69 161.392 272.848 161.05 271.77 161.04C270.693 161.05 269.85 161.392 269.242 162.064C268.624 162.725 268.309 163.648 268.298 164.832C268.309 166.005 268.624 166.928 269.242 167.6C269.85 168.272 270.693 168.613 271.77 168.624ZM283.233 170.512L278.641 159.152H281.777L284.529 166.64C284.625 166.928 284.705 167.178 284.769 167.392C284.822 167.605 284.865 167.813 284.897 168.016H284.961C284.993 167.813 285.035 167.605 285.089 167.392C285.142 167.178 285.217 166.928 285.313 166.64L288.081 159.152H291.217L286.625 170.512H283.233ZM295.395 168.416H301.955V170.512H292.531V159.152H301.843V161.232H295.395V163.712H301.571V165.728H295.395V168.416ZM311.836 170.512L309.436 166.272H307.004V170.512H304.14V159.152H310.316C311.873 159.173 312.993 159.52 313.676 160.192C314.348 160.853 314.679 161.68 314.668 162.672C314.679 163.365 314.492 164.005 314.108 164.592C313.724 165.178 313.116 165.61 312.284 165.888L315.004 170.512H311.836ZM307.004 161.136V164.352H309.692C310.396 164.341 310.903 164.186 311.212 163.888C311.521 163.578 311.671 163.184 311.66 162.704C311.671 162.245 311.521 161.872 311.212 161.584C310.903 161.296 310.396 161.146 309.692 161.136H307.004Z" fill="#005A38"/>
<path d="M381.312 170.512V159.152H386.96C388.848 159.173 390.336 159.669 391.424 160.64C392.523 161.61 393.083 162.965 393.104 164.704C393.083 166.474 392.517 167.877 391.408 168.912C390.288 169.957 388.789 170.49 386.912 170.512H381.312ZM384.176 168.448H386.704C387.803 168.426 388.645 168.074 389.232 167.392C389.808 166.72 390.101 165.829 390.112 164.72C390.101 163.642 389.803 162.794 389.216 162.176C388.619 161.546 387.781 161.226 386.704 161.216H384.176V168.448ZM397.676 168.416H404.236V170.512H394.812V159.152H404.124V161.232H397.676V163.712H403.852V165.728H397.676V168.416ZM415.733 161.296H409.285V163.824H415.445V165.92H409.285V170.512H406.421V159.152H415.733V161.296ZM420.426 170.512H417.562V159.152H420.426V170.512ZM423.046 170.512V159.152H426.182L430.902 165.664C431.052 165.888 431.196 166.122 431.334 166.368C431.473 166.602 431.585 166.826 431.67 167.04H431.702V165.536V159.152H434.326V170.512H431.35L426.454 163.92C426.316 163.696 426.177 163.466 426.038 163.232C425.9 162.997 425.788 162.784 425.702 162.592H425.654C425.665 162.826 425.67 163.072 425.67 163.328C425.67 163.584 425.67 163.845 425.67 164.112V170.512H423.046ZM439.817 168.416H446.377V170.512H436.953V159.152H446.265V161.232H439.817V163.712H445.993V165.728H439.817V168.416Z" fill="#005A38"/>
<path d="M551.312 170.512V159.152H556.96C558.848 159.173 560.336 159.669 561.424 160.64C562.523 161.61 563.083 162.965 563.104 164.704C563.083 166.474 562.517 167.877 561.408 168.912C560.288 169.957 558.789 170.49 556.912 170.512H551.312ZM554.176 168.448H556.704C557.803 168.426 558.645 168.074 559.232 167.392C559.808 166.72 560.101 165.829 560.112 164.72C560.101 163.642 559.803 162.794 559.216 162.176C558.619 161.546 557.781 161.226 556.704 161.216H554.176V168.448ZM567.676 168.416H574.236V170.512H564.812V159.152H574.124V161.232H567.676V163.712H573.852V165.728H567.676V168.416ZM579.701 170.512L575.109 159.152H578.245L580.997 166.64C581.093 166.928 581.173 167.178 581.237 167.392C581.291 167.605 581.333 167.813 581.365 168.016H581.429C581.461 167.813 581.504 167.605 581.557 167.392C581.611 167.178 581.685 166.928 581.781 166.64L584.549 159.152H587.685L583.093 170.512H579.701ZM591.864 168.416H598.424V170.512H589V159.152H598.312V161.232H591.864V163.712H598.04V165.728H591.864V168.416ZM600.609 170.512V159.152H603.473V168.208H609.425V170.512H600.609ZM616.63 170.832C614.646 170.81 613.078 170.266 611.926 169.2C610.774 168.144 610.187 166.688 610.166 164.832C610.187 162.976 610.774 161.52 611.926 160.464C613.078 159.397 614.646 158.853 616.63 158.832C618.614 158.853 620.182 159.397 621.334 160.464C622.486 161.52 623.072 162.976 623.094 164.832C623.072 166.688 622.486 168.144 621.334 169.2C620.182 170.266 618.614 170.81 616.63 170.832ZM616.63 168.624C617.707 168.613 618.55 168.272 619.158 167.6C619.776 166.938 620.091 166.016 620.102 164.832C620.091 163.648 619.776 162.725 619.158 162.064C618.55 161.392 617.707 161.05 616.63 161.04C615.552 161.05 614.71 161.392 614.102 162.064C613.483 162.725 613.168 163.648 613.158 164.832C613.168 166.005 613.483 166.928 614.102 167.6C614.71 168.272 615.552 168.613 616.63 168.624ZM631.004 159.152C632.348 159.162 633.404 159.488 634.172 160.128C634.94 160.778 635.329 161.669 635.34 162.8C635.329 163.984 634.929 164.906 634.14 165.568C633.361 166.24 632.284 166.581 630.908 166.592H627.676V170.512H624.812V159.152H631.004ZM630.3 164.608C630.94 164.608 631.436 164.458 631.788 164.16C632.14 163.861 632.316 163.434 632.316 162.88C632.316 162.336 632.14 161.914 631.788 161.616C631.447 161.317 630.951 161.168 630.3 161.168H627.676V164.608H630.3Z" fill="#0957E8"/>
<path d="M701.312 170.512V159.152H706.96C708.848 159.173 710.336 159.669 711.424 160.64C712.523 161.61 713.083 162.965 713.104 164.704C713.083 166.474 712.517 167.877 711.408 168.912C710.288 169.957 708.789 170.49 706.912 170.512H701.312ZM704.176 168.448H706.704C707.803 168.426 708.645 168.074 709.232 167.392C709.808 166.72 710.101 165.829 710.112 164.72C710.101 163.642 709.803 162.794 709.216 162.176C708.619 161.546 707.781 161.226 706.704 161.216H704.176V168.448ZM717.676 168.416H724.236V170.512H714.812V159.152H724.124V161.232H717.676V163.712H723.852V165.728H717.676V168.416ZM726.421 170.512V159.152H729.285V168.208H735.237V170.512H726.421ZM739.754 170.512H736.89V159.152H739.754V170.512ZM745.655 170.512L741.062 159.152H744.199L746.951 166.64C747.047 166.928 747.127 167.178 747.191 167.392C747.244 167.605 747.287 167.813 747.319 168.016H747.383C747.415 167.813 747.457 167.605 747.511 167.392C747.564 167.178 747.639 166.928 747.735 166.64L750.503 159.152H753.639L749.047 170.512H745.655ZM757.817 168.416H764.377V170.512H754.953V159.152H764.265V161.232H757.817V163.712H763.993V165.728H757.817V168.416ZM774.258 170.512L771.858 166.272H769.426V170.512H766.562V159.152H772.738C774.295 159.173 775.415 159.52 776.098 160.192C776.77 160.853 777.101 161.68 777.09 162.672C777.101 163.365 776.914 164.005 776.53 164.592C776.146 165.178 775.538 165.61 774.706 165.888L777.426 170.512H774.258ZM769.426 161.136V164.352H772.114C772.818 164.341 773.325 164.186 773.634 163.888C773.943 163.578 774.093 163.184 774.082 162.704C774.093 162.245 773.943 161.872 773.634 161.584C773.325 161.296 772.818 161.146 772.114 161.136H769.426Z" fill="#0957E8"/>
<line x1="348" y1="9.62695" x2="348" y2="315.374" stroke="#005A38" stroke-width="2" stroke-dasharray="6 6"/>
<line x1="668" y1="9.62695" x2="668" y2="315.374" stroke="#0957E8" stroke-width="2" stroke-dasharray="6 6"/>
</svg>
