<svg width="673" height="439" viewBox="0 0 673 439" fill="none" xmlns="http://www.w3.org/2000/svg">
<g filter="url(#filter0_d_2134_1019)">
<rect x="9" y="9" width="651" height="417" rx="16" fill="#F2EDEA"/>
<rect x="8.5" y="8.5" width="652" height="418" rx="16.5" stroke="#D3CBD3"/>
</g>
<rect x="25" y="25" width="619" height="385" rx="8" fill="white"/>
<path d="M25 33C25 28.5817 28.5817 25 33 25H636C640.418 25 644 28.5817 644 33V59H25V33Z" fill="#DDDDDD"/>
<path d="M33 69C33 67.8954 33.8954 67 35 67H137C138.105 67 139 67.8954 139 69V376C139 377.105 138.105 378 137 378H35C33.8954 378 33 377.105 33 376V69Z" fill="#E8E8E8"/>
<rect x="147" y="91" width="360" height="287" rx="2" fill="#E8E8E8"/>
<rect x="147" y="67" width="360" height="16" rx="2" fill="#E8E8E8"/>
<path d="M33 388C33 386.895 33.8954 386 35 386H634C635.105 386 636 386.895 636 388V400C636 401.105 635.105 402 634 402H35C33.8954 402 33 401.105 33 400V388Z" fill="#E8E8E8"/>
<path d="M620 69C620 67.8954 620.895 67 622 67H634C635.105 67 636 67.8954 636 69V376C636 377.105 635.105 378 634 378H622C620.895 378 620 377.105 620 376V69Z" fill="#E8E8E8"/>
<rect x="515" y="67" width="97" height="311" rx="2" fill="#E8E8E8"/>
<defs>
<filter id="filter0_d_2134_1019" x="0" y="0" width="673" height="439" filterUnits="userSpaceOnUse" color-interpolation-filters="sRGB">
<feFlood flood-opacity="0" result="BackgroundImageFix"/>
<feColorMatrix in="SourceAlpha" type="matrix" values="0 0 0 0 0 0 0 0 0 0 0 0 0 0 0 0 0 0 127 0" result="hardAlpha"/>
<feOffset dx="2" dy="2"/>
<feGaussianBlur stdDeviation="5"/>
<feComposite in2="hardAlpha" operator="out"/>
<feColorMatrix type="matrix" values="0 0 0 0 0 0 0 0 0 0 0 0 0 0 0 0 0 0 0.1 0"/>
<feBlend mode="normal" in2="BackgroundImageFix" result="effect1_dropShadow_2134_1019"/>
<feBlend mode="normal" in="SourceGraphic" in2="effect1_dropShadow_2134_1019" result="shape"/>
</filter>
</defs>
</svg>
