<svg width="336" height="470" viewBox="0 0 336 470" fill="none" xmlns="http://www.w3.org/2000/svg">
<g clip-path="url(#clip0_2957_46868)">
<path d="M0 0H336V470H0V0Z" fill="white"/>
<g filter="url(#filter0_d_2957_46868)">
<path d="M0 0H336V470H0V0Z" fill="#F0F0F0"/>
</g>
<path d="M16 0C7.16344 0 0 7.16344 0 16V304.381H70.112C91.168 304.381 112.112 307.514 132.048 314.341C143.248 318.145 155.232 320.272 167.664 320.272C180.096 320.272 192.08 318.145 203.28 314.341C223.216 307.514 244.16 304.381 265.216 304.381H336V16C336 7.16344 328.837 0 320 0H16Z" fill="#212121"/>
<path d="M0 440.905H336V470H0V440.905Z" fill="black"/>
<path d="M321.44 454.557L320.096 453.326C319.984 453.214 319.872 453.214 319.76 453.326L318.528 454.557V449.41H311.36V448.514C311.36 448.067 311.808 447.619 312.256 447.619H323.792C324.128 447.619 324.352 447.395 324.352 447.06C324.352 446.724 324.128 446.5 323.904 446.5H312.256C311.136 446.5 310.24 447.395 310.24 448.514V462.95C310.24 463.174 310.352 463.286 310.464 463.286H322.336C323.456 463.286 324.352 462.39 324.352 461.271V449.41H321.44V454.557ZM313.264 461.495C313.264 461.831 313.04 462.055 312.704 462.055C312.368 462.055 312.144 461.831 312.144 461.495V450.976C312.144 450.64 312.368 450.417 312.704 450.417C313.04 450.417 313.264 450.64 313.264 450.976V461.495Z" fill="#F0F0F0"/>
<path d="M144.48 372.519V362.696H150.798V364.117H146.22V366.807H150.526V368.242H146.22V372.519H144.48ZM156.417 372.643C155.484 372.643 154.669 372.441 153.972 372.036C153.28 371.619 152.724 371.01 152.368 370.284C151.997 369.521 151.811 368.624 151.811 367.594C151.811 366.573 151.997 365.685 152.368 364.931C152.74 364.168 153.27 363.584 153.958 363.179C154.655 362.774 155.475 362.572 156.417 362.572C157.359 362.572 158.174 362.774 158.863 363.179C159.561 363.585 160.117 364.197 160.452 364.931C160.824 365.685 161.009 366.573 161.009 367.594C161.009 368.624 160.824 369.521 160.452 370.284C160.106 371.011 159.553 371.621 158.863 372.036C158.174 372.441 157.359 372.643 156.417 372.643ZM156.417 371.222C157.314 371.222 158.011 370.909 158.509 370.284C159.007 369.659 159.257 368.762 159.257 367.594C159.257 366.435 159.007 365.547 158.509 364.931C158.011 364.306 157.314 363.993 156.417 363.993C155.52 363.993 154.823 364.301 154.325 364.917C153.827 365.533 153.578 366.426 153.578 367.594C153.578 368.762 153.827 369.659 154.325 370.284C154.823 370.909 155.52 371.222 156.417 371.222ZM167.191 372.643C166.24 372.643 165.406 372.436 164.691 372.022C163.988 371.611 163.421 371.002 163.061 370.27C162.68 369.507 162.49 368.615 162.49 367.594C162.49 366.582 162.68 365.699 163.061 364.945C163.441 364.181 163.984 363.597 164.691 363.193C165.406 362.779 166.24 362.572 167.191 362.572C167.843 362.572 168.454 362.678 169.025 362.889C169.605 363.091 170.085 363.377 170.465 363.744L169.894 365.041C169.46 364.683 169.025 364.425 168.59 364.269C168.153 364.101 167.687 364.017 167.218 364.02C166.285 364.02 165.56 364.329 165.044 364.945C164.537 365.561 164.283 366.444 164.283 367.594C164.283 368.753 164.537 369.645 165.044 370.27C165.551 370.886 166.276 371.195 167.218 371.195C167.707 371.195 168.164 371.116 168.59 370.96C169.025 370.794 169.46 370.532 169.894 370.174L170.465 371.471C170.085 371.838 169.605 372.128 169.025 372.34C168.436 372.545 167.816 372.648 167.191 372.643ZM176.1 372.643C174.768 372.643 173.758 372.298 173.07 371.608C172.391 370.909 172.051 369.889 172.051 368.546V362.696H173.776V368.642C173.776 369.488 173.971 370.132 174.361 370.574C174.75 371.006 175.33 371.222 176.1 371.222C176.851 371.222 177.422 371.001 177.811 370.56C178.21 370.118 178.409 369.479 178.409 368.642V362.696H180.135V368.546C180.135 369.879 179.791 370.896 179.102 371.595C178.414 372.294 177.413 372.643 176.1 372.643ZM185.436 372.643C184.728 372.648 184.022 372.546 183.343 372.34C182.7 372.137 182.152 371.848 181.699 371.471L182.297 370.174C182.768 370.532 183.257 370.799 183.764 370.974C184.31 371.144 184.878 371.227 185.449 371.222C186.119 371.222 186.636 371.103 186.998 370.863C187.369 370.624 187.555 370.289 187.555 369.856C187.555 369.488 187.383 369.208 187.039 369.015C186.704 368.812 186.147 368.624 185.368 368.449C184.154 368.182 183.271 367.837 182.718 367.414C182.166 366.991 181.89 366.375 181.89 365.566C181.89 364.986 182.043 364.471 182.351 364.02C182.659 363.57 183.094 363.216 183.656 362.958C184.226 362.701 184.883 362.572 185.626 362.572C186.305 362.572 186.948 362.678 187.555 362.889C188.171 363.091 188.674 363.377 189.063 363.744L188.479 365.041C187.618 364.342 186.667 363.993 185.626 363.993C185.001 363.993 184.507 364.126 184.145 364.393C183.972 364.51 183.832 364.668 183.737 364.854C183.641 365.04 183.595 365.247 183.601 365.455C183.601 365.842 183.76 366.136 184.077 366.338C184.403 366.541 184.955 366.729 185.734 366.904C186.541 367.097 187.197 367.309 187.704 367.539C188.212 367.759 188.601 368.049 188.873 368.408C189.145 368.757 189.28 369.199 189.28 369.732C189.28 370.321 189.126 370.836 188.819 371.277C188.511 371.71 188.067 372.045 187.487 372.284C186.907 372.524 186.224 372.643 185.436 372.643Z" fill="#212121"/>
<path d="M125.467 270.201H129.62C130.65 270.201 131.452 270.452 132.026 270.953C132.599 271.445 132.886 272.121 132.886 272.981C132.886 273.84 132.594 274.52 132.012 275.022C131.439 275.523 130.641 275.774 129.62 275.774H127.201V279.762H125.467V270.201ZM129.418 274.431C130.018 274.431 130.471 274.31 130.776 274.068C131.089 273.818 131.246 273.46 131.246 272.994C131.246 272.52 131.094 272.162 130.789 271.92C130.484 271.669 130.027 271.544 129.418 271.544H127.201V274.431H129.418ZM142.294 279.762H140.466L139.243 276.58C139.135 276.284 138.97 276.078 138.746 275.962C138.522 275.845 138.231 275.787 137.872 275.787H136.138V279.762H134.418V270.201H138.517C139.601 270.201 140.426 270.438 140.99 270.913C141.555 271.387 141.837 272.068 141.837 272.954C141.837 273.589 141.667 274.131 141.326 274.579C140.995 275.017 140.52 275.331 139.902 275.519C140.466 275.635 140.874 276.029 141.125 276.7L142.294 279.762ZM138.275 274.444C138.929 274.444 139.413 274.324 139.727 274.082C140.04 273.84 140.197 273.473 140.197 272.981C140.197 272.497 140.04 272.139 139.727 271.906C139.422 271.665 138.938 271.544 138.275 271.544H136.111V274.444H138.275ZM148.036 279.883C147.113 279.883 146.307 279.686 145.617 279.292C144.935 278.888 144.384 278.296 144.031 277.587C143.664 276.844 143.48 275.971 143.48 274.968C143.48 273.974 143.664 273.11 144.031 272.376C144.399 271.633 144.923 271.065 145.604 270.671C146.294 270.277 147.104 270.08 148.036 270.08C148.968 270.08 149.775 270.277 150.456 270.671C151.144 271.063 151.693 271.659 152.028 272.376C152.395 273.11 152.579 273.974 152.579 274.968C152.579 275.971 152.395 276.844 152.028 277.587C151.682 278.297 151.136 278.89 150.456 279.292C149.775 279.686 148.968 279.883 148.036 279.883ZM148.036 278.5C148.923 278.5 149.613 278.195 150.106 277.587C150.599 276.978 150.845 276.105 150.845 274.968C150.845 273.84 150.599 272.976 150.106 272.376C149.613 271.768 148.923 271.463 148.036 271.463C147.149 271.463 146.459 271.763 145.967 272.363C145.474 272.963 145.227 273.831 145.227 274.968C145.227 276.105 145.474 276.978 145.967 277.587C146.459 278.195 147.149 278.5 148.036 278.5ZM158.697 279.883C157.756 279.883 156.932 279.682 156.224 279.279C155.53 278.881 154.969 278.288 154.611 277.573C154.235 276.83 154.047 275.962 154.047 274.968C154.047 273.983 154.235 273.124 154.611 272.39C154.964 271.672 155.526 271.077 156.224 270.684C156.932 270.282 157.756 270.08 158.697 270.08C159.342 270.08 159.947 270.183 160.511 270.389C161.085 270.586 161.56 270.863 161.936 271.222L161.372 272.484C160.942 272.135 160.511 271.884 160.081 271.732C159.647 271.569 159.187 271.487 158.724 271.49C157.801 271.49 157.084 271.79 156.574 272.39C156.072 272.99 155.821 273.849 155.821 274.968C155.821 276.096 156.072 276.964 156.574 277.573C157.075 278.173 157.792 278.473 158.724 278.473C159.208 278.473 159.66 278.397 160.081 278.245C160.511 278.084 160.942 277.828 161.372 277.479L161.936 278.742C161.56 279.1 161.085 279.382 160.511 279.588C159.927 279.788 159.314 279.888 158.697 279.883ZM163.557 279.762V270.201H169.954V271.571H165.25V274.216H169.672V275.586H165.25V278.392H169.954V279.762H163.557ZM174.657 279.883C173.956 279.888 173.259 279.788 172.588 279.588C171.952 279.391 171.409 279.109 170.961 278.742L171.553 277.479C172.019 277.828 172.503 278.088 173.004 278.258C173.544 278.424 174.106 278.505 174.671 278.5C175.334 278.5 175.845 278.383 176.203 278.151C176.57 277.918 176.754 277.591 176.754 277.17C176.754 276.812 176.584 276.539 176.243 276.351C175.912 276.154 175.361 275.971 174.59 275.801C173.39 275.541 172.516 275.205 171.969 274.794C171.423 274.382 171.15 273.782 171.15 272.994C171.15 272.43 171.302 271.929 171.607 271.49C171.911 271.051 172.341 270.707 172.897 270.456C173.461 270.205 174.111 270.08 174.846 270.08C175.518 270.08 176.154 270.183 176.754 270.389C177.363 270.586 177.861 270.863 178.246 271.222L177.668 272.484C176.817 271.803 175.876 271.463 174.846 271.463C174.227 271.463 173.739 271.593 173.381 271.853C173.022 272.103 172.843 272.448 172.843 272.887C172.843 273.263 173 273.549 173.313 273.746C173.636 273.943 174.183 274.127 174.953 274.297C175.751 274.485 176.4 274.691 176.902 274.914C177.404 275.129 177.789 275.411 178.058 275.76C178.327 276.101 178.461 276.53 178.461 277.05C178.461 277.622 178.309 278.124 178.004 278.554C177.699 278.974 177.26 279.301 176.687 279.534C176.113 279.767 175.437 279.883 174.657 279.883ZM183.305 279.883C182.604 279.888 181.906 279.788 181.235 279.588C180.599 279.391 180.057 279.109 179.609 278.742L180.2 277.479C180.666 277.828 181.15 278.088 181.652 278.258C182.162 278.419 182.718 278.5 183.318 278.5C183.981 278.5 184.492 278.383 184.85 278.151C185.218 277.918 185.401 277.591 185.401 277.17C185.401 276.812 185.231 276.539 184.891 276.351C184.559 276.154 184.008 275.971 183.238 275.801C182.037 275.541 181.163 275.205 180.617 274.794C180.07 274.382 179.797 273.782 179.797 272.994C179.797 272.43 179.949 271.929 180.254 271.49C180.559 271.051 180.989 270.707 181.544 270.456C182.109 270.205 182.758 270.08 183.493 270.08C184.165 270.08 184.801 270.183 185.401 270.389C186.011 270.586 186.508 270.863 186.893 271.222L186.315 272.484C185.464 271.803 184.523 271.463 183.493 271.463C182.875 271.463 182.386 271.593 182.028 271.853C181.67 272.103 181.49 272.448 181.49 272.887C181.49 273.263 181.647 273.549 181.961 273.746C182.283 273.943 182.83 274.127 183.601 274.297C184.398 274.485 185.048 274.691 185.549 274.914C186.051 275.129 186.436 275.411 186.705 275.76C186.974 276.101 187.108 276.53 187.108 277.05C187.108 277.622 186.956 278.124 186.651 278.554C186.347 278.974 185.908 279.301 185.334 279.534C184.761 279.767 184.084 279.883 183.305 279.883ZM188.717 279.762V270.201H190.451V279.762H188.717ZM198.959 270.201H200.585V279.762H199.295L194.134 273.061V279.762H192.521V270.201H193.812L198.959 276.888V270.201ZM210.651 274.592V279.185C210.212 279.4 209.684 279.57 209.065 279.695C208.441 279.821 207.806 279.884 207.17 279.883C206.185 279.883 205.329 279.686 204.603 279.292C203.889 278.91 203.308 278.32 202.937 277.6C202.552 276.866 202.359 275.989 202.359 274.968C202.359 273.965 202.552 273.097 202.937 272.363C203.303 271.649 203.874 271.06 204.577 270.671C205.293 270.277 206.131 270.08 207.09 270.08C207.729 270.075 208.364 270.175 208.971 270.376C209.563 270.572 210.056 270.85 210.45 271.208L209.858 272.47C209.41 272.121 208.971 271.871 208.541 271.718C208.111 271.566 207.641 271.49 207.13 271.49C206.145 271.49 205.396 271.786 204.886 272.376C204.384 272.967 204.133 273.831 204.133 274.968C204.133 276.141 204.393 277.027 204.913 277.627C205.432 278.218 206.207 278.513 207.238 278.513C207.865 278.513 208.483 278.428 209.092 278.258V275.841H207.023V274.592H210.651Z" fill="#949494"/>
<path d="M148.836 299.796H152.174V294.347C152.029 294.577 150.917 296.393 148.836 299.796ZM152.134 305.5V301.753H146.061V299.894L151.809 291.18H154.625V299.796H156.879V301.753H154.674V305.5H152.134ZM163.788 305.727C162.193 305.727 160.953 305.048 160.067 303.691C159.188 302.327 158.748 300.501 158.748 298.212C158.748 295.898 159.181 294.104 160.048 292.832C160.92 291.554 162.174 290.915 163.808 290.915C165.416 290.915 166.653 291.567 167.519 292.872C168.392 294.177 168.828 295.957 168.828 298.212C168.828 299.714 168.641 301.025 168.267 302.147C167.893 303.261 167.322 304.137 166.554 304.773C165.793 305.409 164.871 305.727 163.788 305.727ZM163.828 303.592C165.462 303.592 166.279 301.802 166.279 298.222C166.279 297.527 166.236 296.885 166.151 296.295C166.073 295.738 165.938 295.191 165.747 294.662C165.57 294.157 165.317 293.764 164.989 293.482C164.674 293.196 164.262 293.041 163.837 293.049C163.394 293.041 162.963 293.195 162.627 293.482C162.285 293.764 162.023 294.157 161.839 294.662C161.647 295.191 161.512 295.738 161.435 296.295C161.35 296.885 161.308 297.53 161.308 298.232C161.308 299.045 161.35 299.763 161.435 300.386C161.521 301.009 161.655 301.57 161.839 302.068C162.029 302.56 162.292 302.937 162.627 303.199C162.961 303.461 163.362 303.592 163.828 303.592ZM184.167 305.697C183.077 305.697 182.201 305.346 181.538 304.645C180.876 303.943 180.544 303.051 180.544 301.97C180.544 300.907 180.876 300.019 181.538 299.304C182.201 298.583 183.074 298.222 184.157 298.222C185.24 298.222 186.116 298.583 186.785 299.304C187.455 300.025 187.789 300.914 187.789 301.97C187.789 303.058 187.458 303.953 186.795 304.655C186.132 305.35 185.256 305.697 184.167 305.697ZM184.157 304.163C184.675 304.163 185.062 303.989 185.318 303.642C185.581 303.294 185.712 302.737 185.712 301.97C185.712 301.235 185.587 300.684 185.338 300.317C185.089 299.95 184.695 299.766 184.157 299.766C183.625 299.766 183.235 299.947 182.985 300.307C182.736 300.668 182.611 301.219 182.611 301.96C182.611 302.727 182.739 303.287 182.995 303.642C183.251 303.989 183.638 304.163 184.157 304.163ZM173.85 305.5L183.015 291.18H185.013L175.849 305.5H173.85ZM174.628 298.468C173.512 298.468 172.63 298.14 171.98 297.485C171.33 296.822 171.006 295.908 171.006 294.741C171.006 293.593 171.33 292.685 171.98 292.016C172.63 291.341 173.512 291.003 174.628 291.003C175.737 291.003 176.617 291.341 177.266 292.016C177.922 292.691 178.251 293.6 178.251 294.741C178.251 295.914 177.926 296.829 177.276 297.485C176.626 298.14 175.744 298.468 174.628 298.468ZM174.628 296.934C175.147 296.934 175.534 296.763 175.79 296.422C176.046 296.075 176.174 295.518 176.174 294.75C176.174 294.009 176.049 293.455 175.8 293.088C175.557 292.721 175.166 292.537 174.628 292.537C174.09 292.537 173.696 292.721 173.447 293.088C173.204 293.449 173.083 294 173.083 294.741C173.083 295.508 173.211 296.065 173.467 296.413C173.722 296.76 174.11 296.934 174.628 296.934Z" fill="#F0F0F0"/>
<path d="M59.3601 50.358H43.6801C40.5441 50.358 38.0801 47.896 38.0801 44.762C38.0801 41.629 40.5441 39.167 43.6801 39.167H59.3601C62.4961 39.167 64.9601 41.629 64.9601 44.762C64.9601 47.896 62.3841 50.358 59.3601 50.358Z" fill="#373737"/>
<path d="M59.3599 49.2381C61.8249 49.2381 63.8399 47.2241 63.8399 44.7621C63.8399 42.3001 61.8249 40.2861 59.3599 40.2861C56.8969 40.2861 54.8799 42.3001 54.8799 44.7621C54.8799 47.2241 56.8969 49.2381 59.3599 49.2381Z" fill="#724DFF"/>
<path d="M17.8419 49.3399C17.0719 49.3399 16.4009 49.1749 15.8259 48.8469C15.2576 48.5105 14.7985 48.0171 14.5039 47.4259C14.1979 46.8059 14.0439 46.0789 14.0439 45.2439C14.0439 44.4159 14.1979 43.6959 14.5039 43.0839C14.7876 42.4892 15.2442 41.9939 15.8139 41.6629C16.3899 41.3349 17.0649 41.1699 17.8419 41.1699C18.6179 41.1699 19.2899 41.3339 19.8579 41.6629C20.4313 41.9895 20.889 42.486 21.1679 43.0839C21.4739 43.6959 21.6279 44.4159 21.6279 45.2439C21.6279 46.0789 21.4739 46.8069 21.1679 47.4259C20.8801 48.0178 20.4245 48.512 19.8579 48.8469C19.2899 49.1749 18.6179 49.3399 17.8419 49.3399ZM17.8419 48.1869C18.5809 48.1869 19.1559 47.9329 19.5669 47.4259C19.9769 46.9189 20.1829 46.1909 20.1829 45.2439C20.1829 44.3039 19.9769 43.5839 19.5669 43.0839C19.1559 42.5769 18.5809 42.3229 17.8419 42.3229C17.1019 42.3229 16.5279 42.5729 16.1169 43.0729C15.7069 43.5729 15.5009 44.2959 15.5009 45.2429C15.5009 46.1909 15.7059 46.9189 16.1169 47.4259C16.5269 47.9329 17.1019 48.1869 17.8419 48.1869ZM23.1069 49.2389V41.2699H28.3149V42.4229H24.5409V44.6049H28.0909V45.7689H24.5409V49.2379L23.1069 49.2389ZM29.5159 49.2389V41.2699H34.7239V42.4229H30.9489V44.6049H34.4989V45.7689H30.9489V49.2379L29.5159 49.2389Z" fill="#424242"/>
<path d="M72.7228 49.3399C71.9528 49.3399 71.2808 49.1749 70.7068 48.8469C70.1384 48.5105 69.6794 48.0171 69.3848 47.4259C69.0788 46.8059 68.9248 46.0789 68.9248 45.2439C68.9248 44.4159 69.0788 43.6959 69.3848 43.0839C69.6684 42.4891 70.125 41.9938 70.6948 41.6629C71.2698 41.3349 71.9458 41.1699 72.7228 41.1699C73.4988 41.1699 74.1708 41.3339 74.7388 41.6629C75.3121 41.9895 75.7698 42.486 76.0488 43.0839C76.3548 43.6959 76.5088 44.4159 76.5088 45.2439C76.5088 46.0789 76.3548 46.8069 76.0488 47.4259C75.7609 48.0178 75.3054 48.512 74.7388 48.8469C74.1708 49.1749 73.4988 49.3399 72.7228 49.3399ZM72.7228 48.1869C73.4618 48.1869 74.0368 47.9329 74.4468 47.4259C74.8578 46.9189 75.0628 46.1909 75.0628 45.2439C75.0628 44.3039 74.8578 43.5839 74.4468 43.0839C74.0368 42.5769 73.4618 42.3229 72.7228 42.3229C71.9828 42.3229 71.4078 42.5729 70.9978 43.0729C70.5878 43.5729 70.3818 44.2959 70.3818 45.2429C70.3818 46.1909 70.5868 46.9189 70.9978 47.4259C71.4078 47.9329 71.9828 48.1869 72.7228 48.1869ZM83.3528 41.2709H84.7078V49.2389H83.6328L79.3328 43.6549V49.2389H77.9878V41.2699H79.0628L83.3528 46.8429V41.2709ZM260.076 49.2379L259.281 47.3689H255.383L254.577 49.2389H253.121L256.727 41.2709H257.903L261.521 49.2379H260.076ZM255.865 46.2499H258.799L257.332 42.8369L255.865 46.2499Z" fill="#724DFF"/>
<path d="M268.576 49.8985H267.4L270.301 40.8115H271.5L268.576 49.8985ZM282.41 45.1205C282.872 45.2545 283.227 45.4905 283.474 45.8255C283.727 46.1615 283.854 46.5755 283.854 47.0675C283.854 47.7465 283.612 48.2805 283.126 48.6675C282.648 49.0475 281.98 49.2385 281.122 49.2385H277.504V41.2715H281.01C281.831 41.2715 282.477 41.4575 282.947 41.8305C283.418 42.1965 283.653 42.7035 283.653 43.3525C283.653 43.7705 283.541 44.1355 283.317 44.4495C283.092 44.7617 282.775 44.9962 282.41 45.1205ZM278.915 44.6285H280.774C281.775 44.6285 282.275 44.2555 282.275 43.5085C282.275 43.1365 282.152 42.8565 281.906 42.6695C281.659 42.4835 281.282 42.3895 280.774 42.3895H278.915V44.6285ZM280.965 48.1195C281.487 48.1195 281.868 48.0265 282.107 47.8395C282.354 47.6535 282.477 47.3595 282.477 46.9555C282.477 46.5455 282.354 46.2435 282.107 46.0495C281.868 45.8555 281.487 45.7585 280.965 45.7585H278.915V48.1195H280.965Z" fill="#949494"/>
<path d="M14.5596 289.833C14.5596 286.125 17.0676 283.119 20.1596 283.119H58.2396C61.3326 283.119 63.8396 286.125 63.8396 289.833C63.8396 293.542 61.3326 296.548 58.2396 296.548H20.1596C17.0676 296.548 14.5596 293.542 14.5596 289.833Z" fill="#724DFF"/>
<path d="M32.3768 292.931L31.7398 291.436H28.6218L27.9768 292.931H26.8118L29.6978 286.557H30.6378L33.5318 292.931H32.3768ZM29.0068 290.54H31.3548L30.1808 287.81L29.0068 290.54ZM36.8128 293.011C35.9348 293.011 35.2688 292.788 34.8148 292.34C34.3668 291.886 34.1428 291.224 34.1428 290.352V286.557H35.2808V290.415C35.2808 290.964 35.4088 291.382 35.6658 291.668C35.9228 291.949 36.3048 292.089 36.8128 292.089C37.3078 292.089 37.6848 291.946 37.9418 291.66C38.2048 291.373 38.3358 290.958 38.3358 290.415V286.557H39.4738V290.352C39.4738 291.218 39.2468 291.877 38.7928 292.331C38.3388 292.785 37.6788 293.011 36.8128 293.011ZM42.3068 292.931V287.506H40.2278V286.557H45.5598V287.506H43.4718V292.931H42.3068ZM48.8128 293.011C48.1978 293.011 47.6598 292.88 47.1998 292.617C46.7451 292.348 46.3779 291.953 46.1428 291.48C45.8978 290.985 45.7748 290.403 45.7748 289.735C45.7748 289.072 45.8978 288.496 46.1428 288.007C46.3699 287.531 46.7351 287.135 47.1908 286.87C47.6508 286.607 48.1908 286.476 48.8128 286.476C49.4338 286.476 49.9718 286.607 50.4258 286.87C50.8858 287.133 51.2358 287.512 51.4738 288.007C51.7188 288.496 51.8408 289.072 51.8408 289.735C51.8408 290.403 51.7188 290.985 51.4738 291.48C51.2288 291.97 50.8798 292.349 50.4258 292.617C49.9718 292.88 49.4338 293.011 48.8128 293.011ZM48.8128 292.089C49.4038 292.089 49.8638 291.886 50.1928 291.48C50.5208 291.075 50.6848 290.493 50.6848 289.735C50.6848 288.983 50.5208 288.407 50.1928 288.007C49.8638 287.601 49.4038 287.398 48.8128 287.398C48.2208 287.398 47.7618 287.598 47.4328 287.998C47.1048 288.398 46.9398 288.977 46.9398 289.735C46.9398 290.493 47.1048 291.075 47.4328 291.48C47.7618 291.886 48.2208 292.089 48.8128 292.089ZM16.5068 22.1206V18.6426H21.1328V17.2796H16.5068V13.9116H21.5248V12.5326H15.0488V23.4996H21.6028V22.1196L16.5068 22.1206ZM35.5148 23.4996H37.1298L34.5428 19.1126C35.8598 18.6426 36.8158 17.3736 36.8158 15.9326C36.8158 14.0526 35.2798 12.5326 33.3978 12.5326H29.0078V23.4996H30.4658V19.2996H33.0528L35.5148 23.4996ZM30.4658 13.8956H33.3978C34.4798 13.8956 35.3578 14.8046 35.3578 15.9326C35.3578 17.0606 34.4798 17.9846 33.3978 17.9846H30.4658V13.8956ZM51.4668 23.4996H53.0188L48.9258 12.5326H47.2798L43.1868 23.4996H44.7398L45.6338 21.0396H50.5728L51.4668 23.4996ZM46.1348 19.6766L48.0948 14.2716L50.0708 19.6766H46.1348ZM130.123 18.7596H128.668V22.1546H126.766V12.3096H130.682C132.472 12.3096 133.927 13.7806 133.927 15.5916C133.923 16.1979 133.741 16.7897 133.402 17.2929C133.064 17.7961 132.585 18.1883 132.025 18.4206L134.151 22.1546H132.137L130.123 18.7596ZM128.668 17.0626H130.682C131.353 17.0626 132.025 16.3826 132.025 15.5916C132.025 14.7996 131.465 14.1206 130.682 14.1206H128.668V17.0626ZM138.627 20.6826C139.298 20.6826 139.858 20.3426 140.193 20.0036L141.648 20.7956C140.977 21.7016 139.97 22.2666 138.627 22.2666C136.277 22.2666 134.822 20.6826 134.822 18.5326C134.822 16.4956 136.277 14.7986 138.515 14.7986C140.529 14.7986 141.984 16.3826 141.984 18.5326C141.984 18.7586 141.984 18.9856 141.872 19.3246H136.613C136.836 20.2306 137.62 20.6826 138.627 20.6826ZM140.082 17.9666C139.858 16.9486 139.074 16.4966 138.403 16.4966C137.396 16.4966 136.836 17.0616 136.613 17.9666H140.082ZM149.48 15.1386L146.795 22.1546H144.781L142.207 15.1386H144.221L145.9 20.0046L147.578 15.1386H149.48ZM153.51 20.6826C154.181 20.6826 154.741 20.3426 155.076 20.0036L156.531 20.7956C155.86 21.7016 154.852 22.2666 153.51 22.2666C151.16 22.2666 149.705 20.6826 149.705 18.5326C149.705 16.4956 151.16 14.7986 153.398 14.7986C155.412 14.7986 156.867 16.3826 156.867 18.5326C156.867 18.7586 156.867 18.9856 156.755 19.3246H151.495C151.831 20.2306 152.614 20.6826 153.51 20.6826ZM155.076 17.9666C154.852 16.9486 154.069 16.4966 153.398 16.4966C152.391 16.4966 151.831 17.0616 151.607 17.9666H155.076ZM162.125 15.0246V17.0616C161.23 16.9486 159.999 17.4016 159.999 18.8716V22.2676H158.209V15.1376H159.999V16.3826C160.335 15.3646 161.23 15.0246 162.125 15.0246ZM170.407 18.6466C170.407 20.6836 168.84 22.3806 167.05 22.3806C166.043 22.3806 165.259 22.0406 164.812 21.3626V22.1546H163.021V12.3096H164.812V15.9296C165.259 15.2516 166.043 14.9116 167.05 14.9116C168.952 14.9116 170.407 16.4966 170.407 18.6466ZM168.616 18.6466C168.616 17.5146 167.833 16.7226 166.714 16.7226C165.595 16.7226 164.812 17.5146 164.812 18.6466C164.812 19.7776 165.595 20.5696 166.714 20.5696C167.833 20.5696 168.616 19.7776 168.616 18.6466ZM178.687 18.7596H177.232V22.1546H175.33V12.3096H179.135C180.925 12.3096 182.38 13.7796 182.38 15.5906C182.376 16.1972 182.194 16.7892 181.855 17.2925C181.517 17.7959 181.037 18.1883 180.477 18.4206L182.604 22.1546H180.589L178.687 18.7596ZM177.232 17.0616H179.135C179.806 17.0616 180.477 16.3826 180.477 15.5916C180.477 14.7986 179.918 14.1196 179.135 14.1196H177.12V17.0616H177.232ZM187.08 20.6826C187.751 20.6826 188.311 20.3426 188.647 20.0036L190.101 20.7956C189.43 21.7016 188.423 22.2666 187.08 22.2666C184.73 22.2666 183.275 20.6826 183.275 18.5326C183.275 16.4956 184.73 14.7986 186.968 14.7986C188.982 14.7986 190.437 16.3826 190.437 18.5326C190.437 18.7586 190.437 18.9856 190.325 19.3246H185.066C185.401 20.2306 186.185 20.6826 187.08 20.6826ZM188.647 17.9666C188.423 16.9486 187.639 16.4966 186.968 16.4966C185.961 16.4966 185.401 17.0616 185.178 17.9666H188.647ZM201.963 17.8536V22.1536H200.172V17.9676C200.172 17.1746 199.725 16.6096 199.053 16.6096C198.27 16.6096 197.711 17.1746 197.711 18.1936V22.1536H195.92V17.9676C195.92 17.1746 195.473 16.6096 194.801 16.6096C194.018 16.6096 193.458 17.1746 193.458 18.1936V22.1536H191.668V15.1396H193.458V15.9316C193.794 15.3656 194.465 15.0256 195.361 15.0256C196.256 15.0256 196.815 15.3656 197.263 16.0446C197.711 15.3646 198.382 15.0256 199.277 15.0256C200.956 14.9126 201.963 16.0446 201.963 17.8556V17.8536ZM203.193 18.6456C203.193 16.6086 204.76 14.9116 206.886 14.9116C208.9 14.9116 210.579 16.4956 210.579 18.6456C210.579 20.6826 208.9 22.3796 206.886 22.3796C204.872 22.2666 203.193 20.6826 203.193 18.6456ZM208.788 18.6456C208.788 17.5136 208.005 16.7216 206.886 16.7216C206.634 16.7207 206.384 16.7701 206.152 16.8668C205.919 16.9635 205.708 17.1055 205.531 17.2846C205.354 17.4637 205.215 17.6763 205.121 17.91C205.027 18.1437 204.98 18.3937 204.984 18.6456C204.984 19.7776 205.767 20.5696 206.886 20.5696C208.005 20.5696 208.788 19.7776 208.788 18.6456ZM218.075 15.1386L215.389 22.1546H213.375L210.689 15.1386H212.704L214.382 20.0046L216.061 15.1386H218.075ZM222.215 20.6826C222.886 20.6826 223.446 20.3426 223.781 20.0036L225.236 20.7956C224.565 21.7016 223.558 22.2666 222.215 22.2666C219.865 22.2666 218.41 20.6826 218.41 18.5326C218.41 16.4956 219.865 14.7986 222.103 14.7986C224.117 14.7986 225.572 16.3826 225.572 18.5326C225.572 18.7586 225.572 18.9856 225.46 19.3246H220.201C220.424 20.2306 221.208 20.6826 222.215 20.6826ZM223.669 17.9666C223.446 16.9486 222.662 16.4966 221.991 16.4966C220.984 16.4966 220.424 17.0616 220.201 17.9666H223.669ZM230.719 15.0246V17.0616C229.824 16.9486 228.593 17.4016 228.593 18.8716V22.2676H226.803V15.1376H228.593V16.3826C228.929 15.3646 229.824 15.0246 230.719 15.0246Z" fill="#F0F0F0"/>
<path d="M114.345 22.2675H113.338L106.4 18.7595V16.7225L113.338 13.1025H114.345L121.283 16.7225V18.7595L114.345 22.2675ZM109.31 17.7415L113.786 20.1175L118.262 17.7415L113.786 15.3645L109.31 17.7415Z" fill="#724DFF"/>
<path d="M278.096 22.1576C278.096 22.1576 277.984 21.7096 277.984 21.2616C277.648 21.9336 277.2 22.3816 276.304 22.3816C275.072 22.3816 274.4 21.4856 274.4 19.9196C274.4 18.4646 275.184 17.5696 276.192 17.0096C277.312 16.4496 277.984 15.8906 277.984 14.7716C277.984 13.6516 277.648 12.9816 276.752 12.9816C275.856 12.9816 275.408 13.6516 275.408 14.7716V15.1076H274.736V14.7716C274.736 13.3166 275.296 12.3096 276.752 12.3096C278.208 12.3096 278.768 13.3166 278.768 14.9956V20.5906C278.768 21.3736 278.88 22.2696 278.88 22.2696H278.096V22.1576ZM277.984 16.3376C277.76 16.7856 277.424 17.1216 276.64 17.5696C275.52 18.1296 275.184 18.7996 275.184 19.9196C275.184 21.1496 275.632 21.7096 276.416 21.7096C277.2 21.7096 277.984 20.9266 277.984 19.8076V16.3376ZM282.128 22.3806C280.784 22.3806 280 21.4856 280 19.8066V14.8826C280 13.2046 280.784 12.3096 282.128 12.3096C283.36 12.3096 284.144 13.2046 284.144 14.8826V15.1066H283.472V14.8826C283.472 13.6526 283.024 12.9806 282.128 12.9806C281.232 12.9806 280.784 13.6516 280.784 14.8826V19.6946C280.784 20.9256 281.232 21.5976 282.128 21.5976C283.024 21.5976 283.472 20.9256 283.472 19.6946V19.5826H284.144V19.8066C284.144 21.4856 283.36 22.3806 282.128 22.3806ZM287.393 22.3806C286.161 22.3806 285.377 21.4856 285.377 19.8066V14.8826C285.377 13.2046 286.161 12.3096 287.393 12.3096C288.625 12.3096 289.409 13.2046 289.409 14.8826V15.1066H288.737V14.8826C288.737 13.6526 288.289 12.9806 287.393 12.9806C286.497 12.9806 286.049 13.6516 286.049 14.8826V19.6946C286.049 20.9256 286.497 21.5976 287.393 21.5976C288.289 21.5976 288.737 20.9256 288.737 19.6946V19.5826H289.409V19.8066C289.409 21.4856 288.625 22.3806 287.393 22.3806ZM299.489 15.1066V14.5466C299.489 13.6516 299.041 12.9806 298.257 12.9806C297.473 12.9806 296.913 13.5406 296.913 14.5476C296.913 15.2186 297.249 15.7776 297.697 16.2256L299.265 17.6806C299.937 18.2406 300.385 18.9116 300.385 20.0306C300.385 21.4856 299.601 22.3806 298.257 22.3806C296.689 22.3806 296.129 21.2616 296.129 19.9186V19.4706H296.801V19.9186C296.801 21.0386 297.249 21.7086 298.257 21.7086C299.153 21.7086 299.713 21.0386 299.713 20.0306C299.713 19.3596 299.377 18.7996 298.929 18.2406L297.249 16.7856C296.577 16.2256 296.129 15.5546 296.129 14.5476C296.129 13.2046 296.913 12.3096 298.145 12.3096C299.489 12.3096 300.161 13.2046 300.161 14.5476V14.9946H299.489V15.1066ZM303.521 22.3806C302.289 22.3806 301.393 21.4856 301.393 19.8066V14.8826C301.393 13.2046 302.289 12.3096 303.521 12.3096C304.865 12.3096 305.761 13.2046 305.761 14.8826V19.6946C305.761 21.4846 304.865 22.3806 303.521 22.3806ZM304.977 14.8826C304.977 13.6526 304.417 12.9806 303.521 12.9806C302.625 12.9806 302.065 13.6516 302.065 14.8826V19.6946C302.065 20.9256 302.625 21.5976 303.521 21.5976C304.417 21.5976 304.977 20.9256 304.977 19.6946V14.8826ZM310.688 22.1566V14.8826C310.688 13.6526 310.352 12.9806 309.456 12.9806C308.448 12.9806 308 13.7636 308 15.1066V22.1566H307.328V12.4206H308V13.2046C308.112 12.6446 308.784 12.3096 309.456 12.3096C310.8 12.3096 311.36 13.0926 311.36 14.8826V22.1566H310.688ZM321.665 15.1066V14.5466C321.665 13.6516 321.217 12.9806 320.433 12.9806C319.649 12.9806 319.089 13.5406 319.089 14.5476C319.089 15.2186 319.425 15.7776 319.873 16.2256L321.441 17.6806C322.113 18.2406 322.561 18.9116 322.561 20.0306C322.561 21.3736 321.777 22.3806 320.433 22.3806C318.865 22.3806 318.305 21.2616 318.305 19.9186V19.4706H318.977V19.9186C318.977 21.0386 319.425 21.7086 320.433 21.7086C321.329 21.7086 321.889 21.0386 321.889 20.0306C321.889 19.3596 321.553 18.7996 321.105 18.2406L319.537 16.7856C318.865 16.2256 318.417 15.5546 318.417 14.5476C318.417 13.2046 319.201 12.3096 320.433 12.3096C321.665 12.3096 322.337 13.2046 322.337 14.5476V14.9946H321.665V15.1066ZM316.512 12.4206V19.6946C316.512 20.9256 315.952 21.5976 315.056 21.5976C314.16 21.5976 313.6 20.9256 313.6 19.6946V12.4206H312.928V19.6946C312.928 21.4846 313.824 22.2686 315.056 22.2686C316.288 22.2686 317.184 21.3736 317.184 19.6946V12.4206H316.512ZM294.225 18.5756V19.6956C294.225 20.9256 293.665 21.5976 292.769 21.5976C291.873 21.5976 291.313 20.9256 291.313 19.6946V12.4206H290.641V19.6946C290.641 21.2616 291.425 22.1566 292.545 22.2686V26.9686C292.321 27.0806 292.097 27.3046 292.097 27.6396C292.097 28.0876 292.433 28.3116 292.769 28.3116C293.217 28.3116 293.441 27.9756 293.441 27.6396C293.441 27.3046 293.217 27.0796 292.993 26.9686V22.3806C294.113 22.2686 294.897 21.3736 294.897 19.8066V12.4206H294.225V18.5756Z" fill="#F0F0F0"/>
<path fill-rule="evenodd" clip-rule="evenodd" d="M90.0569 391.666H82.8789V389.428H91.3809L103.701 411.809H110.879V414.047H102.377L90.0569 391.666ZM166.422 391.666H173.6V389.428H165.097L152.777 411.809H145.6V414.047H154.102L166.422 391.666ZM301.035 414.047H291.446L285.846 391.666H278.881V389.428H287.595L293.195 411.809H299.286L304.886 389.428H313.601V391.666H306.635L301.035 414.047ZM220.884 389.428H230.473L236.073 411.809H243.038V414.047H234.324L228.724 391.666H222.633L217.033 414.047H208.318V411.809H215.284L220.884 389.428Z" fill="#212121"/>
<path fill-rule="evenodd" clip-rule="evenodd" d="M48.1603 402.857H21.2803V400.619H48.1603V402.857Z" fill="#724DFF"/>
<path d="M260.959 160.024C260.959 211.321 219.339 252.905 167.999 252.905C116.659 252.905 75.0391 211.321 75.0391 160.024C75.0391 108.727 116.659 67.1436 167.999 67.1436C219.339 67.1436 260.959 108.727 260.959 160.024Z" fill="black"/>
<path d="M123.76 236.585C110.293 228.817 99.1109 217.637 91.3418 204.17C83.5754 190.708 79.4978 175.436 79.5206 159.894C79.5434 144.352 83.6659 129.092 91.4718 115.653C99.2804 102.21 110.495 91.062 123.985 83.334L168 160.024L123.76 236.585Z" fill="#724DFF"/>
<path fill-rule="evenodd" clip-rule="evenodd" d="M123.266 236.416L127.746 228.023L128.734 228.55L124.254 236.942L123.266 236.416ZM211.746 236.942L207.266 228.55L208.254 228.023L212.734 236.416L211.746 236.942Z" fill="#949494"/>
<path d="M247.519 160.024C247.519 203.905 211.916 239.477 167.999 239.477C124.081 239.477 88.4785 203.905 88.4785 160.024C88.4785 116.144 124.081 80.5723 167.999 80.5723C211.916 80.5723 247.519 116.144 247.519 160.024Z" fill="#212121"/>
<path d="M131.038 100.416C130.891 100.161 130.796 99.8797 130.758 99.5881C130.72 99.2966 130.739 99.0004 130.816 98.7165C130.892 98.4325 131.024 98.1665 131.203 97.9335C131.383 97.7005 131.606 97.5051 131.861 97.3586C132.376 97.0626 132.987 96.9831 133.561 97.1374C134.134 97.2917 134.623 97.6672 134.92 98.1816L143.305 112.727C143.452 112.981 143.547 113.262 143.585 113.554C143.624 113.846 143.604 114.142 143.527 114.426C143.451 114.71 143.319 114.976 143.14 115.209C142.961 115.442 142.737 115.637 142.482 115.784C141.967 116.08 141.356 116.16 140.782 116.005C140.209 115.851 139.72 115.475 139.423 114.961L131.038 100.416ZM22.4002 263.067C21.7072 263.067 21.1032 262.919 20.5852 262.624C20.0737 262.321 19.6604 261.877 19.3952 261.345C19.1202 260.787 18.9822 260.133 18.9822 259.381C18.9822 258.636 19.1202 257.988 19.3962 257.437C19.6516 256.901 20.0629 256.455 20.5762 256.158C21.0932 255.863 21.7012 255.715 22.3992 255.715C23.0992 255.715 23.7032 255.863 24.2142 256.158C24.7312 256.453 25.1242 256.88 25.3942 257.437C25.6692 257.988 25.8072 258.636 25.8072 259.381C25.8072 260.133 25.6692 260.787 25.3932 261.345C25.1182 261.895 24.7252 262.322 24.2132 262.624C23.7032 262.919 23.0992 263.067 22.4002 263.067ZM22.4002 262.03C23.0652 262.03 23.5822 261.801 23.9522 261.345C24.3222 260.888 24.5062 260.234 24.5062 259.381C24.5062 258.535 24.3222 257.887 23.9522 257.437C23.5822 256.98 23.0652 256.752 22.3992 256.752C21.7342 256.752 21.2172 256.977 20.8472 257.427C20.4772 257.877 20.2932 258.528 20.2932 259.381C20.2932 260.234 20.4782 260.888 20.8472 261.345C21.2172 261.801 21.7352 262.03 22.4002 262.03ZM30.1022 263.067C29.1142 263.067 28.3642 262.815 27.8542 262.312C27.3502 261.801 27.0982 261.056 27.0982 260.076V255.805H28.3782V260.146C28.3782 260.764 28.5222 261.234 28.8112 261.556C29.1012 261.872 29.5312 262.03 30.1012 262.03C30.6592 262.03 31.0832 261.868 31.3712 261.546C31.6672 261.224 31.8152 260.757 31.8152 260.146V255.805H33.0952V260.076C33.0952 261.049 32.8402 261.791 32.3292 262.302C31.8192 262.812 31.0762 263.067 30.1022 263.067ZM36.2842 262.976V256.873H33.9452V255.805H39.9432V256.873H37.5942V262.976H36.2842ZM40.8422 255.805H43.9562C44.7292 255.805 45.3312 255.993 45.7612 256.369C46.1912 256.739 46.4062 257.246 46.4062 257.89C46.4062 258.535 46.1882 259.045 45.7512 259.421C45.3212 259.797 44.7232 259.985 43.9572 259.985H42.1422V262.976H40.8422V255.805ZM43.8052 258.978C44.2552 258.978 44.5952 258.887 44.8232 258.706C45.0592 258.518 45.1762 258.249 45.1762 257.9C45.1762 257.544 45.0622 257.276 44.8332 257.095C44.6052 256.907 44.2632 256.813 43.8052 256.813H42.1422V258.978H43.8052ZM50.5172 263.067C49.5302 263.067 48.7802 262.815 48.2702 262.312C47.7662 261.801 47.5142 261.056 47.5142 260.076V255.805H48.7942V260.146C48.7942 260.764 48.9382 261.234 49.2272 261.556C49.5172 261.872 49.9472 262.03 50.5172 262.03C51.0752 262.03 51.4992 261.868 51.7872 261.546C52.0832 261.224 52.2312 260.757 52.2312 260.146V255.805H53.5112V260.076C53.5112 261.049 53.2562 261.791 52.7452 262.302C52.2352 262.812 51.4922 263.067 50.5182 263.067H50.5172ZM56.7002 262.976V256.873H54.3602V255.805H60.3582V256.873H58.0102V262.976H56.7002ZM28.1572 79.5136V80.5716H23.3392V79.6146L25.7782 76.9856C26.0672 76.6706 26.2782 76.3816 26.4132 76.1196C26.5472 75.8576 26.6152 75.5996 26.6152 75.3436C26.6152 75.0156 26.5172 74.7666 26.3222 74.5986C26.1342 74.4306 25.8622 74.3466 25.5062 74.3466C24.8742 74.3466 24.2262 74.5956 23.5602 75.0926L23.1272 74.1456C23.4092 73.8906 23.7722 73.6886 24.2162 73.5416C24.6592 73.3866 25.1062 73.3096 25.5562 73.3096C26.2762 73.3096 26.8432 73.4876 27.2602 73.8436C27.6832 74.1926 27.8952 74.6656 27.8952 75.2636C27.8952 75.6736 27.8052 76.0596 27.6232 76.4216C27.4482 76.7846 27.1532 77.1906 26.7362 77.6406L24.9722 79.5136H28.1572ZM32.0832 75.9896C32.5332 75.9896 32.9302 76.0866 33.2732 76.2806C33.6152 76.4686 33.8812 76.7376 34.0692 77.0866C34.2572 77.4296 34.3512 77.8256 34.3512 78.2746C34.3512 78.7446 34.2442 79.1616 34.0292 79.5246C33.807 79.8867 33.4847 80.1767 33.1012 80.3596C32.6982 80.5546 32.2312 80.6516 31.7012 80.6516C31.2502 80.6516 30.8062 80.5776 30.3702 80.4316C29.9734 80.2995 29.6067 80.0901 29.2912 79.8156L29.7242 78.8696C30.3762 79.3656 31.0422 79.6146 31.7202 79.6146C32.1702 79.6146 32.5132 79.5046 32.7492 79.2816C32.9902 79.0536 33.1112 78.7316 33.1112 78.3156C33.1112 77.9196 32.9872 77.6036 32.7382 77.3686C32.4962 77.1266 32.1712 77.0066 31.7612 77.0066C31.4782 77.0066 31.2132 77.0596 30.9642 77.1666C30.7151 77.2679 30.4915 77.4229 30.3092 77.6206H29.5232V73.3996H34.0192V74.4066H30.7932V76.3606C31.1562 76.1126 31.5862 75.9876 32.0832 75.9876V75.9896ZM28.1572 100.776V101.834H23.3392V100.877L25.7782 98.2466C26.0672 97.9326 26.2782 97.6436 26.4132 97.3816C26.5472 97.1196 26.6152 96.8616 26.6152 96.6066C26.6152 96.2766 26.5172 96.0286 26.3222 95.8606C26.1342 95.6936 25.8622 95.6096 25.5062 95.6096C24.8742 95.6096 24.2262 95.8576 23.5602 96.3546L23.1272 95.4076C23.4092 95.1526 23.7722 94.9516 24.2162 94.8036C24.6592 94.6486 25.1062 94.5716 25.5562 94.5716C26.2762 94.5716 26.8432 94.7496 27.2602 95.1056C27.6832 95.4546 27.8952 95.9286 27.8952 96.5256C27.8952 96.9356 27.8052 97.3216 27.6232 97.6836C27.4482 98.0466 27.1532 98.4526 26.7362 98.9026L24.9722 100.776H28.1572ZM31.7002 101.924C30.8472 101.924 30.1962 101.612 29.7452 100.988C29.3022 100.357 29.0802 99.4396 29.0802 98.2376C29.0802 97.0566 29.3022 96.1526 29.7452 95.5276C30.1952 94.9046 30.8472 94.5916 31.7012 94.5916C32.5542 94.5916 33.2032 94.9046 33.6462 95.5286C34.0962 96.1466 34.3222 97.0486 34.3222 98.2376C34.3222 99.4326 34.0962 100.347 33.6462 100.978C33.2032 101.609 32.5532 101.924 31.7002 101.924ZM31.7002 100.907C32.1642 100.907 32.5002 100.696 32.7092 100.273C32.9242 99.8426 33.0312 99.1646 33.0312 98.2376C33.0312 97.3246 32.9242 96.6596 32.7092 96.2436C32.5002 95.8206 32.1642 95.6096 31.7012 95.6096C31.2372 95.6096 30.8982 95.8196 30.6832 96.2436C30.4742 96.6596 30.3702 97.3236 30.3702 98.2376C30.3702 99.1646 30.4742 99.8426 30.6832 100.273C30.8982 100.696 31.2362 100.907 31.7002 100.907ZM26.6242 122.038H28.1872V123.095H23.7622V122.038H25.3342V117.415L23.8732 118.291V117.133L25.8682 115.924H26.6242V122.038ZM32.0832 118.513C32.5332 118.513 32.9302 118.61 33.2732 118.805C33.6152 118.993 33.8812 119.261 34.0692 119.61C34.2572 119.953 34.3512 120.349 34.3512 120.799C34.3512 121.269 34.2442 121.685 34.0292 122.048C33.8069 122.41 33.4846 122.7 33.1012 122.884C32.6982 123.078 32.2312 123.176 31.7012 123.176C31.2484 123.175 30.7987 123.1 30.3702 122.954C29.9734 122.823 29.6066 122.614 29.2912 122.34L29.7242 121.393C30.3762 121.89 31.0422 122.138 31.7202 122.138C32.1702 122.138 32.5132 122.028 32.7482 121.806C32.9902 121.578 33.1112 121.255 33.1112 120.839C33.1112 120.443 32.9872 120.127 32.7382 119.892C32.4962 119.651 32.1702 119.53 31.7612 119.53C31.4782 119.53 31.2132 119.584 30.9642 119.691C30.7153 119.792 30.4917 119.946 30.3092 120.144H29.5232V115.924H34.0192V116.931H30.7932V118.885C31.1562 118.637 31.5862 118.513 32.0832 118.513ZM26.6242 143.3H28.1872V144.357H23.7622V143.3H25.3342V138.677L23.8732 139.553V138.395L25.8682 137.186H26.6242V143.3ZM31.7002 144.448C30.8482 144.448 30.1962 144.136 29.7452 143.511C29.3022 142.88 29.0802 141.963 29.0802 140.762C29.0802 139.58 29.3022 138.677 29.7452 138.052C30.1952 137.428 30.8472 137.116 31.7012 137.116C32.5542 137.116 33.2032 137.428 33.6462 138.052C34.0962 138.67 34.3222 139.573 34.3222 140.762C34.3222 141.957 34.0972 142.87 33.6462 143.501C33.2032 144.132 32.5532 144.448 31.7002 144.448ZM31.7002 143.431C32.1652 143.431 32.5002 143.219 32.7092 142.796C32.9242 142.366 33.0312 141.688 33.0312 140.762C33.0312 139.848 32.9242 139.184 32.7092 138.767C32.5012 138.344 32.1652 138.133 31.7012 138.133C31.2372 138.133 30.8982 138.344 30.6832 138.767C30.4742 139.184 30.3702 139.848 30.3702 140.762C30.3702 141.688 30.4742 142.366 30.6832 142.796C30.8982 143.219 31.2362 143.431 31.7002 143.431ZM32.0832 161.037C32.5332 161.037 32.9302 161.134 33.2732 161.329C33.6152 161.517 33.8812 161.785 34.0692 162.134C34.2572 162.477 34.3512 162.873 34.3512 163.323C34.3512 163.793 34.2442 164.209 34.0292 164.572C33.8069 164.934 33.4846 165.224 33.1012 165.408C32.6982 165.602 32.2312 165.7 31.7012 165.7C31.2484 165.699 30.7987 165.624 30.3702 165.478C29.9734 165.347 29.6066 165.138 29.2912 164.864L29.7242 163.917C30.3762 164.414 31.0422 164.662 31.7202 164.662C32.1702 164.662 32.5132 164.552 32.7492 164.33C32.9902 164.102 33.1112 163.779 33.1112 163.363C33.1112 162.967 32.9872 162.651 32.7382 162.416C32.4962 162.175 32.1702 162.054 31.7612 162.054C31.4782 162.054 31.2132 162.108 30.9642 162.215C30.7154 162.316 30.4918 162.47 30.3092 162.668H29.5232V158.448H34.0192V159.455H30.7932V161.409C31.1562 161.161 31.5862 161.037 32.0832 161.037ZM31.7002 186.972C30.8472 186.972 30.1962 186.66 29.7452 186.035C29.3022 185.404 29.0802 184.488 29.0802 183.286C29.0802 182.104 29.3022 181.201 29.7452 180.577C30.1952 179.952 30.8472 179.64 31.7012 179.64C32.5542 179.64 33.2032 179.952 33.6462 180.577C34.0962 181.194 34.3222 182.098 34.3222 183.286C34.3222 184.481 34.0972 185.394 33.6462 186.025C33.2032 186.657 32.5532 186.972 31.7002 186.972ZM31.7002 185.955C32.1652 185.955 32.5002 185.743 32.7092 185.32C32.9242 184.891 33.0312 184.213 33.0312 183.286C33.0312 182.373 32.9242 181.708 32.7092 181.292C32.5012 180.869 32.1652 180.657 31.7012 180.657C31.2372 180.657 30.8982 180.869 30.6832 181.292C30.4742 181.708 30.3702 182.373 30.3702 183.286C30.3702 184.213 30.4742 184.891 30.6832 185.32C30.8982 185.743 31.2362 185.955 31.7002 185.955ZM24.9532 205.927V204.92H27.9872V205.927H24.9532ZM32.0852 203.561C32.5352 203.561 32.9322 203.658 33.2752 203.853C33.6172 204.041 33.8832 204.309 34.0712 204.658C34.2592 205.001 34.3532 205.397 34.3532 205.847C34.3532 206.317 34.2462 206.733 34.0312 207.096C33.8086 207.458 33.4864 207.748 33.1032 207.932C32.7002 208.126 32.2332 208.224 31.7032 208.224C31.2503 208.223 30.8007 208.148 30.3722 208.002C29.9754 207.871 29.6086 207.662 29.2932 207.388L29.7272 206.441C30.3782 206.938 31.0442 207.186 31.7222 207.186C32.1722 207.186 32.5152 207.075 32.7512 206.854C32.9922 206.626 33.1132 206.303 33.1132 205.887C33.1132 205.491 32.9892 205.175 32.7402 204.94C32.4982 204.699 32.1722 204.578 31.7632 204.578C31.4802 204.578 31.2152 204.631 30.9662 204.739C30.7174 204.84 30.4938 204.994 30.3112 205.192H29.5252V200.972H34.0202V201.979H30.7952V203.933C31.1582 203.685 31.5882 203.561 32.0852 203.561ZM18.9082 227.189V226.182H21.9422V227.189H18.9082ZM26.6242 228.347H28.1872V229.405H23.7622V228.347H25.3342V223.725L23.8732 224.601V223.443L25.8682 222.234H26.6242V228.347ZM31.7002 229.496C30.8472 229.496 30.1962 229.183 29.7452 228.559C29.3022 227.928 29.0802 227.011 29.0802 225.809C29.0802 224.628 29.3022 223.725 29.7452 223.1C30.1952 222.476 30.8472 222.164 31.7012 222.164C32.5542 222.164 33.2032 222.476 33.6462 223.1C34.0962 223.718 34.3222 224.621 34.3222 225.809C34.3222 227.005 34.0972 227.918 33.6462 228.549C33.2032 229.18 32.5532 229.496 31.7002 229.496ZM31.7002 228.478C32.1652 228.478 32.5002 228.267 32.7092 227.844C32.9242 227.414 33.0312 226.736 33.0312 225.809C33.0312 224.896 32.9242 224.232 32.7092 223.815C32.5012 223.392 32.1652 223.181 31.7012 223.181C31.2372 223.181 30.8982 223.392 30.6832 223.815C30.4742 224.232 30.3702 224.896 30.3702 225.809C30.3702 226.736 30.4742 227.414 30.6832 227.844C30.8982 228.267 31.2362 228.478 31.7002 228.478ZM33.4642 275.286V274.292H34.7292V269.394C34.2592 269.614 33.7822 269.801 33.2972 269.955V268.824C33.8433 268.641 34.3708 268.407 34.8722 268.125H35.9792V274.312H37.2692V275.286H33.4642ZM41.4132 275.399C40.6152 275.399 39.9952 275.059 39.5532 274.381C39.1132 273.699 38.8932 272.786 38.8932 271.642C38.8932 270.484 39.1092 269.588 39.5432 268.952C39.9792 268.312 40.6062 267.993 41.4232 267.993C42.2262 267.993 42.8452 268.319 43.2782 268.971C43.7142 269.624 43.9332 270.514 43.9332 271.642C43.9332 272.392 43.8392 273.048 43.6532 273.609C43.4652 274.166 43.1802 274.604 42.7962 274.922C42.4162 275.24 41.9542 275.399 41.4132 275.399ZM41.4332 274.332C42.2492 274.332 42.6582 273.437 42.6582 271.647C42.6582 271.299 42.6372 270.978 42.5942 270.683C42.5556 270.404 42.4879 270.13 42.3922 269.866C42.3202 269.639 42.1894 269.435 42.0132 269.276C41.8557 269.133 41.6497 269.056 41.4372 269.06C41.216 269.056 41.0009 269.132 40.8322 269.276C40.6502 269.433 40.5141 269.637 40.4382 269.866C40.3426 270.13 40.2749 270.404 40.2362 270.683C40.1918 271.003 40.1705 271.327 40.1722 271.651C40.1722 272.058 40.1942 272.417 40.2362 272.728C40.2792 273.04 40.3462 273.32 40.4382 273.569C40.5332 273.815 40.6642 274.004 40.8322 274.135C41.0037 274.267 41.2165 274.337 41.4332 274.332ZM50.5922 274.415C50.8152 274.415 51.0102 274.371 51.1772 274.282C51.3452 274.191 51.4762 274.066 51.5712 273.909C51.6692 273.748 51.7412 273.573 51.7882 273.382C51.8372 273.192 51.8612 272.987 51.8612 272.768C51.8612 272.276 51.7552 271.876 51.5412 271.568C51.3282 271.256 51.0082 271.101 50.5812 271.101C50.2962 271.101 50.0552 271.178 49.8582 271.332C49.6656 271.485 49.5206 271.689 49.4402 271.922C49.354 272.188 49.3124 272.467 49.3172 272.748C49.3172 272.974 49.3402 273.184 49.3862 273.378C49.4352 273.571 49.5072 273.748 49.6022 273.909C49.7012 274.066 49.8342 274.191 50.0012 274.282C50.1712 274.371 50.3692 274.415 50.5922 274.415ZM50.3402 275.399C49.6882 275.399 49.1402 275.159 48.6972 274.681C48.2572 274.202 48.0372 273.571 48.0372 272.787C48.0372 272.43 48.0872 272.092 48.1902 271.774C48.2912 271.456 48.4372 271.173 48.6282 270.924C48.8294 270.668 49.0895 270.465 49.3862 270.333C49.7147 270.182 50.0728 270.106 50.4342 270.112C50.7822 270.112 51.0762 270.184 51.3152 270.329C51.5582 270.47 51.7272 270.617 51.8222 270.771V268.121H53.0322V273.938L53.0772 275.286H51.8272L51.8172 274.641C51.7816 274.726 51.7316 274.804 51.6692 274.873C51.6002 274.951 51.5092 275.033 51.3942 275.118C51.2792 275.2 51.1302 275.268 50.9462 275.32C50.7491 275.374 50.5445 275.4 50.3402 275.399ZM55.9322 271.096H57.0002C57.1672 271.096 57.3212 271.081 57.4622 271.051C57.6042 271.019 57.7362 270.966 57.8622 270.894C57.9891 270.822 58.0931 270.717 58.1622 270.589C58.2378 270.443 58.275 270.281 58.2702 270.117C58.2702 269.763 58.1472 269.522 57.9002 269.394C57.6542 269.263 57.2672 269.198 56.7392 269.198H55.9322V271.096ZM55.9462 274.218H57.0742C58.0812 274.218 58.5842 273.882 58.5842 273.21C58.5842 272.791 58.4712 272.502 58.2452 272.345C58.0222 272.187 57.6222 272.109 57.0452 272.109H55.9462V274.218ZM54.6822 275.286V268.125H56.6652C56.8722 268.125 57.0572 268.13 57.2212 268.14C57.3852 268.147 57.5722 268.165 57.7822 268.194C57.9962 268.221 58.1822 268.26 58.3442 268.312C58.5042 268.362 58.6672 268.432 58.8312 268.524C59.1474 268.695 59.3853 268.982 59.4952 269.325C59.5652 269.512 59.5992 269.724 59.5992 269.96C59.5992 270.668 59.2822 271.178 58.6492 271.489C59.0752 271.604 59.3952 271.82 59.6092 272.138C59.8222 272.453 59.9292 272.828 59.9292 273.264C59.9292 273.537 59.8742 273.792 59.7662 274.032C59.6525 274.275 59.4902 274.492 59.2892 274.671C59.0792 274.861 58.8012 275.012 58.4572 275.123C58.0806 275.237 57.6886 275.292 57.2952 275.286H54.6822Z" fill="#949494"/>
<path fill-rule="evenodd" clip-rule="evenodd" d="M59.36 76.0947V227.167H56V76.0947H59.36Z" fill="#424242"/>
<path fill-rule="evenodd" clip-rule="evenodd" d="M59.36 137.643V227.167H56V137.643H59.36Z" fill="#724DFF"/>
<path d="M57.681 129.809C63.557 129.809 68.321 134.569 68.321 140.44C68.321 146.311 63.557 151.071 57.681 151.071C51.805 151.071 47.041 146.311 47.041 140.44C47.041 134.569 51.805 129.809 57.681 129.809Z" fill="#724DFF"/>
<path d="M57.6815 134.285C59.3145 134.285 60.8809 134.933 62.0361 136.087C63.1913 137.241 63.8407 138.807 63.8415 140.44C63.8407 142.073 63.1913 143.639 62.0361 144.793C60.8809 145.948 59.3145 146.596 57.6815 146.595C56.0485 146.596 54.4821 145.948 53.3269 144.793C52.1717 143.639 51.5223 142.073 51.5215 140.44C51.5223 138.807 52.1717 137.241 53.3269 136.087C54.4821 134.933 56.0485 134.285 57.6815 134.285Z" fill="#212121"/>
<path d="M315.06 80.6621C314.207 80.6621 313.555 80.3501 313.105 79.7251C312.661 79.0941 312.439 78.1781 312.439 76.9751C312.439 75.7951 312.661 74.8911 313.105 74.2671C313.555 73.6421 314.207 73.3301 315.06 73.3301C315.914 73.3301 316.562 73.6421 317.006 74.2671C317.456 74.8841 317.681 75.7871 317.681 76.9761C317.681 78.1711 317.456 79.0841 317.006 79.7151C316.562 80.3471 315.914 80.6621 315.06 80.6621ZM315.06 79.6451C315.524 79.6451 315.86 79.4331 316.068 79.0101C316.283 78.5801 316.391 77.9021 316.391 76.9761C316.391 76.0631 316.283 75.3981 316.068 74.9821C315.86 74.5591 315.524 74.3471 315.06 74.3471C314.597 74.3471 314.257 74.5591 314.042 74.9821C313.834 75.3981 313.73 76.0621 313.73 76.9761C313.73 77.9031 313.834 78.5811 314.042 79.0101C314.257 79.4331 314.597 79.6451 315.06 79.6451ZM302.268 102.975V101.968H305.302V102.975H302.268ZM309.984 104.133H311.546V105.191H307.121V104.133H308.693V99.5101L307.232 100.387V99.2281L309.228 98.0201H309.984V104.133ZM315.06 105.281C314.207 105.281 313.555 104.969 313.104 104.345C312.661 103.713 312.439 102.797 312.439 101.595C312.439 100.413 312.661 99.5101 313.104 98.8861C313.555 98.2611 314.207 97.9491 315.06 97.9491C315.913 97.9491 316.562 98.2611 317.005 98.8861C317.456 99.5041 317.681 100.407 317.681 101.595C317.681 102.79 317.456 103.703 317.005 104.335C316.562 104.966 315.913 105.281 315.06 105.281ZM315.06 104.264C315.524 104.264 315.86 104.053 316.068 103.63C316.283 103.2 316.391 102.522 316.391 101.595C316.391 100.682 316.283 100.017 316.068 99.6011C315.86 99.1781 315.524 98.9661 315.06 98.9661C314.596 98.9661 314.257 99.1781 314.042 99.6011C313.834 100.017 313.729 100.682 313.729 101.595C313.729 102.522 313.834 103.2 314.042 103.63C314.257 104.053 314.596 104.264 315.06 104.264ZM302.258 127.594V126.586H305.292V127.594H302.258ZM311.516 128.752V129.809H306.698V128.853L309.137 126.224C309.426 125.908 309.638 125.62 309.772 125.358C309.907 125.096 309.974 124.837 309.974 124.582C309.974 124.253 309.876 124.005 309.681 123.837C309.493 123.669 309.221 123.585 308.865 123.585C308.233 123.585 307.585 123.834 306.92 124.33L306.486 123.384C306.768 123.129 307.131 122.927 307.575 122.779C308.018 122.625 308.465 122.548 308.915 122.548C309.634 122.548 310.202 122.726 310.619 123.082C311.042 123.431 311.254 123.904 311.254 124.502C311.254 124.911 311.163 125.297 310.982 125.66C310.807 126.022 310.511 126.429 310.095 126.879L308.331 128.752H311.516ZM315.06 129.9C314.207 129.9 313.555 129.588 313.105 128.963C312.661 128.332 312.439 127.416 312.439 126.214C312.439 125.032 312.661 124.129 313.105 123.505C313.555 122.88 314.207 122.568 315.06 122.568C315.913 122.568 316.562 122.88 317.005 123.505C317.456 124.122 317.681 125.025 317.681 126.214C317.681 127.409 317.456 128.322 317.005 128.953C316.562 129.584 315.913 129.9 315.06 129.9ZM315.06 128.883C315.524 128.883 315.86 128.671 316.068 128.248C316.283 127.819 316.391 127.14 316.391 126.214C316.391 125.301 316.283 124.636 316.068 124.22C315.86 123.797 315.524 123.585 315.06 123.585C314.596 123.585 314.257 123.797 314.042 124.22C313.834 124.636 313.729 125.301 313.729 126.214C313.729 127.14 313.834 127.819 314.042 128.248C314.257 128.671 314.596 128.883 315.06 128.883ZM302.268 152.213V151.206H305.302V152.213H302.268ZM310.125 150.742C310.548 150.856 310.871 151.065 311.092 151.367C311.321 151.669 311.435 152.042 311.435 152.485C311.435 153.109 311.203 153.603 310.74 153.965C310.283 154.328 309.664 154.509 308.885 154.509C308.401 154.509 307.934 154.435 307.484 154.287C307.079 154.162 306.705 153.952 306.385 153.673L306.829 152.726C307.467 153.223 308.136 153.472 308.834 153.472C309.291 153.472 309.631 153.381 309.853 153.2C310.081 153.018 310.195 152.743 310.195 152.374C310.195 152.011 310.081 151.746 309.853 151.578C309.624 151.404 309.271 151.316 308.794 151.316H307.847V150.279H308.623C309.55 150.279 310.014 149.927 310.014 149.222C310.014 148.893 309.913 148.641 309.711 148.466C309.51 148.292 309.228 148.204 308.865 148.204C308.22 148.204 307.574 148.453 306.929 148.95L306.496 148.003C306.815 147.731 307.186 147.526 307.585 147.399C308.022 147.245 308.482 147.167 308.945 147.167C309.651 147.167 310.212 147.342 310.629 147.691C311.052 148.033 311.264 148.493 311.264 149.07C311.266 149.44 311.157 149.801 310.951 150.108C310.756 150.397 310.481 150.608 310.125 150.742ZM315.06 154.519C314.207 154.519 313.555 154.207 313.104 153.582C312.661 152.951 312.439 152.035 312.439 150.833C312.439 149.651 312.661 148.748 313.104 148.124C313.555 147.499 314.207 147.187 315.06 147.187C315.913 147.187 316.562 147.499 317.005 148.124C317.456 148.741 317.681 149.645 317.681 150.833C317.681 152.028 317.456 152.941 317.005 153.572C316.562 154.204 315.913 154.519 315.06 154.519ZM315.06 153.502C315.524 153.502 315.86 153.29 316.068 152.867C316.283 152.438 316.391 151.76 316.391 150.833C316.391 149.92 316.283 149.255 316.068 148.839C315.86 148.416 315.524 148.204 315.06 148.204C314.596 148.204 314.257 148.416 314.042 148.839C313.834 149.255 313.729 149.92 313.729 150.833C313.729 151.76 313.834 152.438 314.042 152.867C314.257 153.29 314.596 153.502 315.06 153.502ZM302.268 176.832V175.825H305.302V176.832H302.268ZM311.798 176.631V177.648H310.78V179.048H309.51V177.648H306.385V176.681L309.742 171.877H310.78V176.631H311.798ZM307.615 176.631H309.51V173.901L307.615 176.631ZM315.06 179.139C314.207 179.139 313.555 178.826 313.104 178.202C312.661 177.571 312.439 176.654 312.439 175.452C312.439 174.271 312.661 173.368 313.104 172.743C313.555 172.119 314.207 171.807 315.06 171.807C315.913 171.807 316.562 172.119 317.005 172.743C317.456 173.361 317.681 174.264 317.681 175.452C317.681 176.648 317.456 177.561 317.005 178.192C316.562 178.823 315.913 179.139 315.06 179.139ZM315.06 178.121C315.524 178.121 315.86 177.91 316.068 177.487C316.283 177.057 316.391 176.379 316.391 175.452C316.391 174.539 316.283 173.875 316.068 173.458C315.86 173.035 315.524 172.824 315.06 172.824C314.596 172.824 314.257 173.035 314.042 173.458C313.834 173.875 313.729 174.539 313.729 175.452C313.729 176.379 313.834 177.057 314.042 177.487C314.257 177.91 314.596 178.121 315.06 178.121ZM302.268 201.451V200.444H305.302V201.451H302.268ZM309.399 199.085C309.849 199.085 310.246 199.182 310.588 199.377C310.931 199.565 311.197 199.833 311.385 200.182C311.573 200.525 311.667 200.921 311.667 201.371C311.667 201.841 311.559 202.257 311.344 202.62C311.122 202.982 310.8 203.272 310.417 203.456C310.014 203.65 309.547 203.748 309.016 203.748C308.566 203.748 308.122 203.674 307.685 203.526C307.289 203.395 306.922 203.186 306.607 202.912L307.04 201.965C307.692 202.462 308.357 202.71 309.036 202.71C309.486 202.71 309.829 202.6 310.064 202.378C310.306 202.15 310.427 201.827 310.427 201.411C310.427 201.015 310.303 200.699 310.054 200.464C309.812 200.223 309.486 200.102 309.076 200.102C308.794 200.102 308.529 200.156 308.28 200.263C308.031 200.364 307.808 200.519 307.625 200.716H306.839V196.496H311.334V197.503H308.109V199.457C308.472 199.209 308.902 199.085 309.399 199.085ZM315.06 203.758C314.207 203.758 313.555 203.446 313.104 202.821C312.661 202.19 312.439 201.273 312.439 200.072C312.439 198.89 312.661 197.987 313.104 197.362C313.555 196.738 314.207 196.426 315.06 196.426C315.913 196.426 316.562 196.738 317.005 197.362C317.456 197.98 317.681 198.883 317.681 200.072C317.681 201.267 317.456 202.18 317.005 202.811C316.562 203.442 315.913 203.758 315.06 203.758ZM315.06 202.741C315.524 202.741 315.86 202.529 316.068 202.106C316.283 201.676 316.391 200.998 316.391 200.072C316.391 199.158 316.283 198.494 316.068 198.077C315.86 197.654 315.524 197.443 315.06 197.443C314.596 197.443 314.257 197.654 314.042 198.077C313.834 198.494 313.729 199.158 313.729 200.072C313.729 200.998 313.834 201.676 314.042 202.106C314.257 202.529 314.596 202.741 315.06 202.741ZM302.268 226.07V225.063H305.302V226.07H302.268ZM309.458 223.683C309.882 223.683 310.258 223.781 310.587 223.975C310.923 224.17 311.185 224.442 311.374 224.791C311.562 225.14 311.656 225.54 311.656 225.99C311.656 226.446 311.552 226.856 311.343 227.218C311.144 227.578 310.848 227.875 310.487 228.074C310.107 228.28 309.68 228.385 309.247 228.377C308.34 228.377 307.641 228.071 307.15 227.46C306.66 226.842 306.414 225.966 306.414 224.831C306.414 224.039 306.529 223.358 306.757 222.787C306.992 222.216 307.328 221.78 307.765 221.478C308.209 221.175 308.733 221.024 309.337 221.024C309.768 221.024 310.184 221.098 310.587 221.246C310.997 221.387 311.353 221.592 311.656 221.86L311.212 222.807C310.581 222.31 309.973 222.062 309.388 222.062C308.857 222.062 308.447 222.287 308.158 222.737C307.869 223.186 307.718 223.831 307.705 224.67C307.859 224.368 308.094 224.13 308.41 223.955C308.729 223.773 309.091 223.679 309.458 223.683ZM309.186 227.349C309.556 227.349 309.852 227.228 310.073 226.987C310.302 226.745 310.416 226.426 310.416 226.03C310.416 225.634 310.302 225.318 310.073 225.083C309.852 224.841 309.553 224.721 309.176 224.721C308.8 224.721 308.494 224.841 308.259 225.083C308.024 225.325 307.906 225.64 307.906 226.03C307.906 226.419 308.024 226.738 308.259 226.987C308.501 227.228 308.81 227.349 309.186 227.349ZM315.06 228.377C314.207 228.377 313.555 228.064 313.104 227.44C312.661 226.809 312.439 225.892 312.439 224.69C312.439 223.509 312.661 222.606 313.104 221.981C313.555 221.357 314.207 221.045 315.06 221.045C315.913 221.045 316.562 221.357 317.005 221.981C317.456 222.599 317.681 223.502 317.681 224.69C317.681 225.886 317.456 226.799 317.005 227.43C316.562 228.061 315.913 228.377 315.06 228.377ZM315.06 227.359C315.524 227.359 315.86 227.148 316.068 226.725C316.283 226.295 316.391 225.617 316.391 224.69C316.391 223.777 316.283 223.113 316.068 222.696C315.86 222.273 315.524 222.062 315.06 222.062C314.596 222.062 314.257 222.273 314.042 222.696C313.834 223.113 313.729 223.777 313.729 224.69C313.729 225.617 313.834 226.295 314.042 226.725C314.257 227.148 314.596 227.359 315.06 227.359ZM280.777 262.976V255.805H282.078V261.908H285.434V262.976H280.777ZM286.418 262.976V255.805H291.216V256.832H287.688V258.817H291.004V259.844H287.688V261.949H291.216V262.976H286.418ZM297.675 255.805H298.996L295.801 262.976H294.742L291.547 255.805H292.897L295.286 261.344L297.675 255.805ZM299.678 262.976V255.805H304.476V256.832H300.948V258.817H304.265V259.844H300.948V261.949H304.476V262.976H299.678ZM305.672 262.976V255.805H306.973V261.908H310.329V262.976H305.672Z" fill="#949494"/>
<path fill-rule="evenodd" clip-rule="evenodd" d="M284.481 76.0957V227.167H281.121V76.0957H284.481Z" fill="#424242"/>
<path fill-rule="evenodd" clip-rule="evenodd" d="M284.481 115.262V227.167H281.121V115.262H284.481Z" fill="#724DFF"/>
<path d="M305.76 48.12H306.88V49.239H305.76V50.358H304.64V49.238H303.52V48.12H304.64V47H305.76V48.12Z" fill="#939393"/>
<path fill-rule="evenodd" clip-rule="evenodd" d="M309.679 40.286C307.86 40.286 306.319 41.826 306.319 43.643C306.319 45.46 307.86 47 309.679 47C310.644 47 311.502 46.617 312.068 46.06C312.671 45.353 313.039 44.586 313.039 43.643C313.039 41.826 311.498 40.286 309.679 40.286ZM305.199 43.643C305.199 41.208 307.242 39.167 309.679 39.167C312.116 39.167 314.159 41.208 314.159 43.643C314.159 44.931 313.638 45.95 312.904 46.805L312.89 46.821L312.875 46.836C312.097 47.614 310.946 48.119 309.679 48.119C307.242 48.119 305.199 46.079 305.199 43.643Z" fill="#939393"/>
<path fill-rule="evenodd" clip-rule="evenodd" d="M312.876 46.0449L316.236 49.4029L315.444 50.1929L312.084 46.8369L312.876 46.0449Z" fill="#939393"/>
<path d="M322.559 50.358H319.199L322.559 47.001V50.358Z" fill="#939393"/>
<path fill-rule="evenodd" clip-rule="evenodd" d="M166.88 39.1669C166.145 39.1665 165.417 39.3109 164.738 39.5919C164.059 39.8728 163.441 40.2849 162.921 40.8044C162.401 41.324 161.989 41.9409 161.707 42.6199C161.425 43.2989 161.28 44.0268 161.28 44.7619C161.28 45.497 161.425 46.2248 161.707 46.9038C161.989 47.5829 162.401 48.1998 162.921 48.7193C163.441 49.2389 164.059 49.6509 164.738 49.9319C165.417 50.2129 166.145 50.3573 166.88 50.3569C169.972 50.3569 172.48 47.8519 172.48 44.7619C172.479 43.2774 171.889 41.854 170.839 40.8047C169.789 39.7555 168.365 39.1663 166.88 39.1669ZM166.88 38.0469C165.998 38.0465 165.124 38.2199 164.309 38.5571C163.494 38.8944 162.753 39.3889 162.129 40.0125C161.505 40.636 161.01 41.3764 160.672 42.1913C160.334 43.0062 160.16 43.8797 160.16 44.7619C160.16 45.644 160.334 46.5175 160.672 47.3324C161.01 48.1473 161.505 48.8877 162.129 49.5113C162.753 50.1348 163.494 50.6294 164.309 50.9666C165.124 51.3039 165.998 51.4773 166.88 51.4769C167.762 51.4773 168.636 51.3039 169.451 50.9666C170.266 50.6294 171.007 50.1348 171.631 49.5113C172.255 48.8877 172.75 48.1473 173.088 47.3324C173.426 46.5175 173.6 45.644 173.6 44.7619C173.6 43.8798 173.426 43.0064 173.088 42.1916C172.75 41.3768 172.255 40.6366 171.631 40.0131C171.007 39.3897 170.266 38.8952 169.451 38.558C168.636 38.2208 167.762 38.0465 166.88 38.0469Z" fill="#949494"/>
<path d="M166.131 48.4932H167.624V44.0172H166.131V48.4932ZM167.624 41.7782C167.624 41.5804 167.545 41.3906 167.405 41.2507C167.265 41.1108 167.076 41.0322 166.878 41.0322C166.68 41.0322 166.49 41.1108 166.35 41.2507C166.21 41.3906 166.132 41.5804 166.132 41.7782C166.132 41.9761 166.21 42.1658 166.35 42.3057C166.49 42.4456 166.68 42.5242 166.878 42.5242C167.076 42.5242 167.265 42.4456 167.405 42.3057C167.545 42.1658 167.624 41.9761 167.624 41.7782Z" fill="#949494"/>
</g>
<defs>
<filter id="filter0_d_2957_46868" x="-8" y="-8" width="356" height="490" filterUnits="userSpaceOnUse" color-interpolation-filters="sRGB">
<feFlood flood-opacity="0" result="BackgroundImageFix"/>
<feColorMatrix in="SourceAlpha" type="matrix" values="0 0 0 0 0 0 0 0 0 0 0 0 0 0 0 0 0 0 127 0" result="hardAlpha"/>
<feOffset dx="2" dy="2"/>
<feGaussianBlur stdDeviation="5"/>
<feComposite in2="hardAlpha" operator="out"/>
<feColorMatrix type="matrix" values="0 0 0 0 0 0 0 0 0 0 0 0 0 0 0 0 0 0 0.1 0"/>
<feBlend mode="normal" in2="BackgroundImageFix" result="effect1_dropShadow_2957_46868"/>
<feBlend mode="normal" in="SourceGraphic" in2="effect1_dropShadow_2957_46868" result="shape"/>
</filter>
<clipPath id="clip0_2957_46868">
<rect width="336" height="470" fill="white"/>
</clipPath>
</defs>
</svg>
