<svg width="679" height="526" viewBox="0 0 679 526" fill="none" xmlns="http://www.w3.org/2000/svg">
<circle cx="447" cy="163.5" r="163" fill="#FCDE70"/>
<circle cx="233" cy="163.5" r="163" fill="#F7917D" fill-opacity="0.8"/>
<circle cx="340" cy="362.5" r="163" fill="#72E1E5" fill-opacity="0.8"/>
<rect x="219" y="351.5" width="241" height="55" rx="4" fill="#FFFBF5"/>
<path d="M241.624 391.5V368.78H252.92C256.696 368.823 259.672 369.815 261.848 371.756C264.045 373.697 265.165 376.407 265.208 379.884C265.165 383.425 264.035 386.231 261.816 388.3C259.576 390.391 256.579 391.457 252.824 391.5H241.624ZM247.352 387.372H252.408C254.605 387.329 256.291 386.625 257.464 385.26C258.616 383.916 259.203 382.135 259.224 379.916C259.203 377.761 258.605 376.065 257.432 374.828C256.237 373.569 254.563 372.929 252.408 372.908H247.352V387.372ZM286.128 383.436V384.716H272.112C272.197 385.825 272.667 386.689 273.52 387.308C274.373 387.927 275.536 388.236 277.008 388.236C278.053 388.236 278.981 388.033 279.792 387.628C280.581 387.244 281.221 386.668 281.712 385.9L285.808 387.756C284.955 389.1 283.771 390.135 282.256 390.86C280.741 391.607 278.949 391.98 276.88 391.98C273.723 391.959 271.269 391.223 269.52 389.772C267.771 388.321 266.885 386.273 266.864 383.628C266.907 380.919 267.792 378.807 269.52 377.292C271.227 375.799 273.573 375.041 276.56 375.02C279.611 375.041 281.968 375.788 283.632 377.26C285.275 378.711 286.107 380.769 286.128 383.436ZM280.752 381.74V381.676C280.731 380.567 280.347 379.703 279.6 379.084C278.832 378.465 277.797 378.156 276.496 378.156C275.173 378.156 274.128 378.476 273.36 379.116C272.592 379.735 272.165 380.609 272.08 381.74H280.752ZM294.324 391.5L287.156 375.5H292.948L296.756 385.132C296.884 385.516 296.991 385.857 297.076 386.156C297.162 386.476 297.247 386.796 297.332 387.116H297.428C297.514 386.796 297.599 386.476 297.684 386.156C297.748 385.857 297.855 385.516 298.004 385.132L301.78 375.5H307.604L300.404 391.5H294.324ZM327.691 383.436V384.716H313.675C313.76 385.825 314.229 386.689 315.083 387.308C315.936 387.927 317.099 388.236 318.571 388.236C319.616 388.236 320.544 388.033 321.355 387.628C322.144 387.244 322.784 386.668 323.275 385.9L327.371 387.756C326.517 389.1 325.333 390.135 323.819 390.86C322.304 391.607 320.512 391.98 318.443 391.98C315.285 391.959 312.832 391.223 311.083 389.772C309.333 388.321 308.448 386.273 308.427 383.628C308.469 380.919 309.355 378.807 311.083 377.292C312.789 375.799 315.136 375.041 318.123 375.02C321.173 375.041 323.531 375.788 325.194 377.26C326.837 378.711 327.669 380.769 327.691 383.436ZM322.315 381.74V381.676C322.293 380.567 321.909 379.703 321.163 379.084C320.395 378.465 319.36 378.156 318.059 378.156C316.736 378.156 315.691 378.476 314.923 379.116C314.155 379.735 313.728 380.609 313.643 381.74H322.315ZM336.719 368.3V391.5H331.247V368.3H336.719ZM350.098 391.98C347.133 391.959 344.743 391.212 342.93 389.74C341.095 388.289 340.157 386.199 340.114 383.468C340.157 380.759 341.095 378.679 342.93 377.228C344.743 375.777 347.133 375.041 350.098 375.02C353.063 375.041 355.463 375.777 357.298 377.228C359.133 378.679 360.071 380.759 360.114 383.468C360.071 386.199 359.133 388.289 357.298 389.74C355.463 391.212 353.063 391.959 350.098 391.98ZM350.098 388.3C351.463 388.3 352.541 387.884 353.33 387.052C354.119 386.241 354.525 385.047 354.546 383.468C354.525 381.889 354.119 380.705 353.33 379.916C352.541 379.105 351.463 378.7 350.098 378.7C348.733 378.7 347.655 379.105 346.866 379.916C346.077 380.705 345.671 381.889 345.65 383.468C345.671 385.047 346.077 386.241 346.866 387.052C347.655 387.884 348.733 388.3 350.098 388.3ZM363.337 397.74V375.5H368.649V378.188C369.31 377.143 370.206 376.353 371.337 375.82C372.467 375.287 373.747 375.02 375.177 375.02C377.609 375.063 379.539 375.831 380.969 377.324C382.398 378.817 383.123 380.855 383.145 383.436C383.102 386.039 382.345 388.108 380.873 389.644C379.401 391.159 377.427 391.937 374.953 391.98C373.609 391.98 372.414 391.735 371.369 391.244C370.345 390.775 369.491 390.113 368.809 389.26V397.74H363.337ZM373.097 388.3C374.462 388.279 375.529 387.841 376.297 386.988C377.065 386.135 377.459 384.951 377.481 383.436C377.481 381.921 377.097 380.759 376.329 379.948C375.582 379.116 374.515 378.7 373.129 378.7C371.763 378.7 370.686 379.095 369.897 379.884C369.107 380.652 368.702 381.751 368.681 383.18V383.852C368.702 385.217 369.107 386.295 369.897 387.084C370.686 387.873 371.753 388.279 373.097 388.3ZM404.191 383.436V384.716H390.175C390.26 385.825 390.729 386.689 391.583 387.308C392.436 387.927 393.599 388.236 395.071 388.236C396.116 388.236 397.044 388.033 397.855 387.628C398.644 387.244 399.284 386.668 399.775 385.9L403.871 387.756C403.017 389.1 401.833 390.135 400.319 390.86C398.804 391.607 397.012 391.98 394.943 391.98C391.785 391.959 389.332 391.223 387.583 389.772C385.833 388.321 384.948 386.273 384.927 383.628C384.969 380.919 385.855 378.807 387.583 377.292C389.289 375.799 391.636 375.041 394.623 375.02C397.673 375.041 400.031 375.788 401.694 377.26C403.337 378.711 404.169 380.769 404.191 383.436ZM398.815 381.74V381.676C398.793 380.567 398.409 379.703 397.663 379.084C396.895 378.465 395.86 378.156 394.559 378.156C393.236 378.156 392.191 378.476 391.423 379.116C390.655 379.735 390.228 380.609 390.143 381.74H398.815ZM412.579 379.916C413.027 378.38 413.773 377.196 414.819 376.364C415.864 375.532 417.176 375.105 418.755 375.084C418.989 375.084 419.181 375.095 419.331 375.116C419.501 375.116 419.661 375.137 419.811 375.18V380.172C419.533 380.129 419.267 380.097 419.011 380.076C418.755 380.055 418.477 380.044 418.179 380.044C417.325 380.044 416.6 380.151 416.003 380.364C415.405 380.577 414.904 380.876 414.499 381.26C413.987 381.751 413.613 382.359 413.379 383.084C413.165 383.809 413.059 384.609 413.059 385.484V391.5H407.587V375.5H412.579V379.916ZM430.648 391.98C428.408 391.98 426.466 391.66 424.824 391.02C423.181 390.38 421.858 389.431 420.856 388.172L423.8 385.676C424.546 386.572 425.506 387.255 426.68 387.724C427.832 388.193 429.24 388.428 430.904 388.428C432.013 388.428 432.834 388.311 433.368 388.076C433.88 387.82 434.136 387.447 434.136 386.956C434.157 386.508 433.997 386.177 433.656 385.964C433.336 385.751 432.728 385.601 431.832 385.516L427.576 385.1C425.634 384.865 424.184 384.332 423.224 383.5C422.285 382.689 421.816 381.58 421.816 380.172C421.837 378.529 422.562 377.26 423.992 376.364C425.421 375.468 427.49 375.02 430.2 375.02C432.141 375.02 433.869 375.287 435.384 375.82C436.877 376.332 438.082 377.079 439 378.06L436.44 380.684C435.629 379.959 434.701 379.415 433.656 379.052C432.589 378.689 431.341 378.508 429.912 378.508C428.866 378.508 428.088 378.615 427.576 378.828C427.064 379.041 426.808 379.383 426.808 379.852C426.808 380.236 426.968 380.535 427.288 380.748C427.608 380.94 428.13 381.079 428.856 381.164L433.56 381.644C435.501 381.857 436.909 382.38 437.784 383.212C438.658 384.023 439.085 385.132 439.064 386.54C439.064 388.247 438.36 389.58 436.952 390.54C435.544 391.479 433.442 391.959 430.648 391.98Z" fill="#3A2D52"/>
<path d="M302.768 430.82C300.901 430.799 299.419 430.255 298.32 429.188C297.211 428.111 296.645 426.655 296.624 424.82C296.645 422.964 297.211 421.503 298.32 420.436C299.419 419.38 300.901 418.841 302.768 418.82C304.645 418.841 306.133 419.38 307.232 420.436C308.341 421.503 308.907 422.964 308.928 424.82C308.907 426.676 308.341 428.132 307.232 429.188C306.133 430.255 304.645 430.799 302.768 430.82ZM302.768 429.508C304.155 429.487 305.248 429.06 306.048 428.228C306.848 427.396 307.253 426.26 307.264 424.82C307.253 423.369 306.848 422.228 306.048 421.396C305.248 420.575 304.155 420.153 302.768 420.132C301.381 420.153 300.288 420.575 299.488 421.396C298.688 422.228 298.283 423.369 298.272 424.82C298.283 426.249 298.688 427.385 299.488 428.228C300.288 429.06 301.381 429.487 302.768 429.508ZM315.947 430.74C315.094 430.729 314.385 430.569 313.819 430.26C313.243 429.951 312.811 429.545 312.523 429.044L312.315 430.5H311.163V418.9H312.571V424.004C312.881 423.481 313.334 423.06 313.931 422.74C314.529 422.431 315.227 422.271 316.027 422.26C317.286 422.281 318.278 422.676 319.003 423.444C319.729 424.201 320.097 425.22 320.107 426.5C320.086 427.769 319.702 428.788 318.955 429.556C318.198 430.324 317.195 430.719 315.947 430.74ZM315.547 429.508C316.497 429.497 317.243 429.225 317.787 428.692C318.331 428.159 318.609 427.428 318.619 426.5C318.609 425.572 318.347 424.841 317.835 424.308C317.313 423.775 316.571 423.503 315.611 423.492C314.683 423.503 313.942 423.759 313.387 424.26C312.833 424.761 312.55 425.444 312.539 426.308V426.708C312.55 427.561 312.822 428.239 313.355 428.74C313.889 429.241 314.619 429.497 315.547 429.508ZM325.901 430.74C324.717 430.74 323.757 430.516 323.021 430.068C322.296 429.62 321.784 428.98 321.485 428.148L322.813 427.716C323.026 428.324 323.4 428.788 323.933 429.108C324.466 429.428 325.16 429.588 326.013 429.588C326.738 429.588 327.288 429.481 327.661 429.268C328.034 429.055 328.221 428.735 328.221 428.308C328.232 427.935 328.12 427.657 327.885 427.476C327.661 427.284 327.288 427.172 326.765 427.14L324.413 426.964C323.549 426.879 322.904 426.639 322.477 426.244C322.05 425.849 321.837 425.327 321.837 424.676C321.848 423.919 322.173 423.327 322.813 422.9C323.453 422.484 324.344 422.271 325.485 422.26C326.594 422.271 327.501 422.479 328.205 422.884C328.909 423.289 329.373 423.849 329.597 424.564L328.269 425.012C328.066 424.5 327.736 424.1 327.277 423.812C326.808 423.524 326.184 423.38 325.405 423.38C324.712 423.38 324.173 423.487 323.789 423.7C323.416 423.913 323.224 424.223 323.213 424.628C323.213 425.289 323.725 425.668 324.749 425.764L327.133 425.94C328.018 426.025 328.653 426.26 329.037 426.644C329.432 427.028 329.624 427.545 329.613 428.196C329.613 428.985 329.309 429.604 328.701 430.052C328.093 430.5 327.16 430.729 325.901 430.74ZM339.926 426.116V426.916H332.534C332.566 427.727 332.854 428.361 333.398 428.82C333.953 429.279 334.715 429.513 335.686 429.524C336.401 429.524 337.009 429.391 337.51 429.124C338.001 428.857 338.379 428.463 338.646 427.94L339.83 428.484C339.446 429.231 338.902 429.791 338.198 430.164C337.494 430.548 336.635 430.74 335.622 430.74C334.203 430.729 333.099 430.367 332.31 429.652C331.51 428.937 331.105 427.919 331.094 426.596C331.115 425.209 331.521 424.143 332.31 423.396C333.11 422.649 334.193 422.271 335.558 422.26C336.934 422.271 338.001 422.601 338.758 423.252C339.526 423.913 339.915 424.868 339.926 426.116ZM338.47 425.812V425.7C338.449 424.932 338.171 424.345 337.638 423.94C337.105 423.535 336.406 423.332 335.542 423.332C334.646 423.343 333.931 423.567 333.398 424.004C332.875 424.441 332.587 425.044 332.534 425.812H338.47ZM343.567 424.532C343.78 423.871 344.138 423.332 344.639 422.916C345.14 422.5 345.748 422.287 346.463 422.276C346.687 422.276 346.89 422.292 347.071 422.324V423.7C346.996 423.689 346.916 423.684 346.831 423.684C346.756 423.673 346.671 423.668 346.575 423.668C346.074 423.668 345.658 423.737 345.327 423.876C344.996 424.004 344.719 424.191 344.495 424.436C344.143 424.809 343.914 425.241 343.807 425.732C343.7 426.223 343.652 426.729 343.663 427.252V430.5H342.255V422.5H343.567V424.532ZM351.231 430.5L347.487 422.5H349.055L351.711 428.292C351.839 428.612 351.935 428.911 351.999 429.188H352.031C352.073 429.049 352.116 428.905 352.159 428.756C352.201 428.607 352.255 428.452 352.319 428.292L354.975 422.5H356.543L352.799 430.5H351.231ZM358.065 421.028V419.252H359.713V421.028H358.065ZM358.193 430.5V422.5H359.601V430.5H358.193ZM362.708 430.5V422.5H364.068V424.244C364.73 422.911 365.892 422.244 367.556 422.244C368.708 422.244 369.578 422.559 370.164 423.188C370.762 423.817 371.06 424.74 371.06 425.956V430.5H369.652V426.164C369.652 424.372 368.804 423.476 367.108 423.476C366.191 423.487 365.466 423.764 364.932 424.308C364.399 424.852 364.127 425.604 364.116 426.564V430.5H362.708ZM381.449 422.404C381.118 422.404 380.846 422.463 380.633 422.58C380.409 422.697 380.249 422.868 380.153 423.092C380.441 423.337 380.665 423.62 380.825 423.94C380.974 424.271 381.049 424.633 381.049 425.028C381.038 425.86 380.713 426.527 380.073 427.028C379.422 427.54 378.521 427.801 377.369 427.812C376.59 427.812 375.918 427.684 375.353 427.428C375.129 427.503 374.953 427.609 374.825 427.748C374.686 427.887 374.617 428.052 374.617 428.244C374.617 428.489 374.723 428.681 374.937 428.82C375.15 428.969 375.497 429.044 375.977 429.044H379.129C380.078 429.044 380.787 429.236 381.257 429.62C381.737 429.993 381.977 430.543 381.977 431.268C381.987 432.089 381.614 432.724 380.857 433.172C380.099 433.62 378.915 433.849 377.305 433.86C375.726 433.849 374.601 433.641 373.929 433.236C373.246 432.841 372.915 432.313 372.937 431.652C372.937 431.268 373.049 430.932 373.273 430.644C373.497 430.356 373.833 430.143 374.281 430.004C373.95 429.865 373.71 429.679 373.561 429.444C373.401 429.209 373.321 428.943 373.321 428.644C373.321 428.239 373.443 427.903 373.689 427.636C373.923 427.369 374.249 427.167 374.664 427.028C374.345 426.783 374.099 426.489 373.929 426.148C373.758 425.807 373.673 425.433 373.673 425.028C373.683 424.196 374.014 423.529 374.664 423.028C375.305 422.527 376.206 422.271 377.369 422.26C378.19 422.26 378.878 422.393 379.433 422.66C379.55 422.212 379.779 421.855 380.121 421.588C380.473 421.332 380.937 421.199 381.513 421.188C381.609 421.188 381.699 421.193 381.785 421.204C381.881 421.215 381.982 421.231 382.089 421.252V422.468C381.918 422.425 381.705 422.404 381.449 422.404ZM377.369 426.772C378.083 426.761 378.643 426.601 379.049 426.292C379.454 425.972 379.662 425.551 379.673 425.028C379.662 424.505 379.454 424.089 379.049 423.78C378.643 423.481 378.083 423.327 377.369 423.316C376.654 423.316 376.094 423.471 375.689 423.78C375.283 424.079 375.075 424.495 375.065 425.028C375.075 425.551 375.283 425.967 375.689 426.276C376.094 426.596 376.654 426.761 377.369 426.772ZM378.857 430.276H375.929C375.651 430.276 375.401 430.26 375.177 430.228C374.878 430.356 374.654 430.521 374.505 430.724C374.355 430.937 374.281 431.167 374.281 431.412C374.291 431.881 374.563 432.217 375.097 432.42C375.63 432.623 376.393 432.724 377.385 432.724C378.558 432.724 379.39 432.601 379.881 432.356C380.361 432.111 380.595 431.78 380.585 431.364C380.585 431.001 380.446 430.729 380.169 430.548C379.881 430.367 379.443 430.276 378.857 430.276Z" fill="#3A2D52"/>
<path d="M300.36 221.78H306.12V235.22C306.141 236.82 306.621 238.111 307.56 239.092C308.498 240.052 309.832 240.543 311.56 240.564C313.309 240.543 314.653 240.052 315.592 239.092C316.53 238.111 317 236.82 317 235.22V221.78H322.76V235.604C322.738 238.527 321.757 240.831 319.816 242.516C317.896 244.223 315.144 245.097 311.56 245.14C307.976 245.097 305.224 244.223 303.304 242.516C301.362 240.809 300.381 238.495 300.36 235.572V221.78ZM335.085 244.98C332.845 244.98 330.904 244.66 329.261 244.02C327.619 243.38 326.296 242.431 325.293 241.172L328.237 238.676C328.984 239.572 329.944 240.255 331.117 240.724C332.269 241.193 333.677 241.428 335.341 241.428C336.451 241.428 337.272 241.311 337.805 241.076C338.317 240.82 338.573 240.447 338.573 239.956C338.595 239.508 338.435 239.177 338.093 238.964C337.773 238.751 337.165 238.601 336.269 238.516L332.013 238.1C330.072 237.865 328.621 237.332 327.661 236.5C326.723 235.689 326.253 234.58 326.253 233.172C326.275 231.529 327 230.26 328.429 229.364C329.859 228.468 331.928 228.02 334.637 228.02C336.579 228.02 338.307 228.287 339.821 228.82C341.315 229.332 342.52 230.079 343.437 231.06L340.877 233.684C340.067 232.959 339.139 232.415 338.093 232.052C337.027 231.689 335.779 231.508 334.349 231.508C333.304 231.508 332.525 231.615 332.013 231.828C331.501 232.041 331.245 232.383 331.245 232.852C331.245 233.236 331.405 233.535 331.725 233.748C332.045 233.94 332.568 234.079 333.293 234.164L337.997 234.644C339.939 234.857 341.347 235.38 342.221 236.212C343.096 237.023 343.523 238.132 343.501 239.54C343.501 241.247 342.797 242.58 341.389 243.54C339.981 244.479 337.88 244.959 335.085 244.98ZM364.503 236.436V237.716H350.487C350.572 238.825 351.042 239.689 351.895 240.308C352.748 240.927 353.911 241.236 355.383 241.236C356.428 241.236 357.356 241.033 358.167 240.628C358.956 240.244 359.596 239.668 360.087 238.9L364.183 240.756C363.33 242.1 362.146 243.135 360.631 243.86C359.116 244.607 357.324 244.98 355.255 244.98C352.098 244.959 349.644 244.223 347.895 242.772C346.146 241.321 345.26 239.273 345.239 236.628C345.282 233.919 346.167 231.807 347.895 230.292C349.602 228.799 351.948 228.041 354.935 228.02C357.986 228.041 360.343 228.788 362.007 230.26C363.65 231.711 364.482 233.769 364.503 236.436ZM359.127 234.74V234.676C359.106 233.567 358.722 232.703 357.975 232.084C357.207 231.465 356.172 231.156 354.871 231.156C353.548 231.156 352.503 231.476 351.735 232.116C350.967 232.735 350.54 233.609 350.455 234.74H359.127ZM372.891 232.916C373.339 231.38 374.086 230.196 375.131 229.364C376.177 228.532 377.489 228.105 379.067 228.084C379.302 228.084 379.494 228.095 379.643 228.116C379.814 228.116 379.974 228.137 380.123 228.18V233.172C379.846 233.129 379.579 233.097 379.323 233.076C379.067 233.055 378.79 233.044 378.491 233.044C377.638 233.044 376.913 233.151 376.315 233.364C375.718 233.577 375.217 233.876 374.811 234.26C374.299 234.751 373.926 235.359 373.691 236.084C373.478 236.809 373.371 237.609 373.371 238.484V244.5H367.899V228.5H372.891V232.916ZM267.641 271.916C268.089 270.38 268.836 269.196 269.881 268.364C270.927 267.532 272.239 267.105 273.817 267.084C274.052 267.084 274.244 267.095 274.393 267.116C274.564 267.116 274.724 267.137 274.873 267.18V272.172C274.596 272.129 274.329 272.097 274.073 272.076C273.817 272.055 273.54 272.044 273.241 272.044C272.388 272.044 271.663 272.151 271.065 272.364C270.468 272.577 269.967 272.876 269.561 273.26C269.049 273.751 268.676 274.359 268.441 275.084C268.228 275.809 268.121 276.609 268.121 277.484V283.5H262.649V267.5H267.641V271.916ZM295.534 275.436V276.716H281.518C281.604 277.825 282.073 278.689 282.926 279.308C283.78 279.927 284.942 280.236 286.414 280.236C287.46 280.236 288.388 280.033 289.198 279.628C289.988 279.244 290.628 278.668 291.118 277.9L295.214 279.756C294.361 281.1 293.177 282.135 291.662 282.86C290.148 283.607 288.356 283.98 286.286 283.98C283.129 283.959 280.676 283.223 278.926 281.772C277.177 280.321 276.292 278.273 276.27 275.628C276.313 272.919 277.198 270.807 278.926 269.292C280.633 267.799 282.98 267.041 285.966 267.02C289.017 267.041 291.374 267.788 293.038 269.26C294.681 270.711 295.513 272.769 295.534 275.436ZM290.158 273.74V273.676C290.137 272.567 289.753 271.703 289.006 271.084C288.238 270.465 287.204 270.156 285.902 270.156C284.58 270.156 283.534 270.476 282.766 271.116C281.998 271.735 281.572 272.609 281.486 273.74H290.158ZM306.867 283.98C304.627 283.98 302.685 283.66 301.043 283.02C299.4 282.38 298.077 281.431 297.075 280.172L300.019 277.676C300.765 278.572 301.725 279.255 302.899 279.724C304.051 280.193 305.459 280.428 307.123 280.428C308.232 280.428 309.053 280.311 309.587 280.076C310.099 279.82 310.355 279.447 310.355 278.956C310.376 278.508 310.216 278.177 309.875 277.964C309.555 277.751 308.947 277.601 308.051 277.516L303.795 277.1C301.853 276.865 300.403 276.332 299.443 275.5C298.504 274.689 298.035 273.58 298.035 272.172C298.056 270.529 298.781 269.26 300.211 268.364C301.64 267.468 303.709 267.02 306.419 267.02C308.36 267.02 310.088 267.287 311.603 267.82C313.096 268.332 314.301 269.079 315.219 270.06L312.659 272.684C311.848 271.959 310.92 271.415 309.875 271.052C308.808 270.689 307.56 270.508 306.131 270.508C305.085 270.508 304.307 270.615 303.795 270.828C303.283 271.041 303.027 271.383 303.027 271.852C303.027 272.236 303.187 272.535 303.507 272.748C303.827 272.94 304.349 273.079 305.075 273.164L309.779 273.644C311.72 273.857 313.128 274.38 314.003 275.212C314.877 276.023 315.304 277.132 315.283 278.54C315.283 280.247 314.579 281.58 313.171 282.54C311.763 283.479 309.661 283.959 306.867 283.98ZM336.284 275.436V276.716H322.268C322.354 277.825 322.823 278.689 323.676 279.308C324.53 279.927 325.692 280.236 327.164 280.236C328.21 280.236 329.138 280.033 329.948 279.628C330.738 279.244 331.378 278.668 331.868 277.9L335.964 279.756C335.111 281.1 333.927 282.135 332.412 282.86C330.898 283.607 329.106 283.98 327.036 283.98C323.879 283.959 321.426 283.223 319.676 281.772C317.927 280.321 317.042 278.273 317.02 275.628C317.063 272.919 317.948 270.807 319.676 269.292C321.383 267.799 323.73 267.041 326.716 267.02C329.767 267.041 332.124 267.788 333.788 269.26C335.431 270.711 336.263 272.769 336.284 275.436ZM330.908 273.74V273.676C330.887 272.567 330.503 271.703 329.756 271.084C328.988 270.465 327.954 270.156 326.652 270.156C325.33 270.156 324.284 270.476 323.516 271.116C322.748 271.735 322.322 272.609 322.236 273.74H330.908ZM344.929 283.98C342.902 283.959 341.302 283.521 340.129 282.668C338.977 281.815 338.39 280.631 338.368 279.116C338.368 278.369 338.518 277.708 338.817 277.132C339.115 276.535 339.542 276.033 340.097 275.628C340.651 275.244 341.366 274.924 342.241 274.668C343.115 274.433 344.257 274.241 345.665 274.092L351.617 273.548V273.068C351.617 272.172 351.329 271.5 350.753 271.052C350.155 270.625 349.313 270.412 348.225 270.412C347.115 270.412 346.241 270.625 345.601 271.052C344.961 271.457 344.587 272.065 344.481 272.876H338.881C339.115 271.041 340.054 269.612 341.697 268.588C343.339 267.564 345.526 267.041 348.257 267.02C351.286 267.02 353.526 267.585 354.977 268.716C356.427 269.825 357.142 271.543 357.121 273.868V278.828C357.121 279.852 357.153 280.748 357.217 281.516C357.281 282.284 357.377 282.945 357.505 283.5H352.097C352.033 283.116 351.979 282.689 351.937 282.22C351.894 281.751 351.873 281.271 351.873 280.78C351.339 281.804 350.475 282.593 349.281 283.148C348.086 283.703 346.635 283.98 344.929 283.98ZM347.009 280.652C348.438 280.631 349.579 280.311 350.433 279.692C351.286 279.073 351.723 278.231 351.745 277.164V276.14L347.329 276.588C346.134 276.716 345.27 276.961 344.737 277.324C344.203 277.665 343.947 278.145 343.969 278.764C343.969 279.361 344.235 279.82 344.769 280.14C345.302 280.481 346.049 280.652 347.009 280.652ZM366.516 271.916C366.964 270.38 367.711 269.196 368.756 268.364C369.802 267.532 371.114 267.105 372.692 267.084C372.927 267.084 373.119 267.095 373.268 267.116C373.439 267.116 373.599 267.137 373.748 267.18V272.172C373.471 272.129 373.204 272.097 372.948 272.076C372.692 272.055 372.415 272.044 372.116 272.044C371.263 272.044 370.538 272.151 369.94 272.364C369.343 272.577 368.842 272.876 368.436 273.26C367.924 273.751 367.551 274.359 367.316 275.084C367.103 275.809 366.996 276.609 366.996 277.484V283.5H361.524V267.5H366.516V271.916ZM385.161 283.98C382.089 283.959 379.657 283.191 377.865 281.676C376.095 280.161 375.188 278.092 375.145 275.468C375.167 272.823 376.073 270.753 377.865 269.26C379.636 267.788 382.1 267.041 385.257 267.02C387.839 267.02 389.94 267.532 391.561 268.556C393.161 269.559 394.175 271.009 394.601 272.908L389.193 273.836C388.959 272.876 388.5 272.14 387.817 271.628C387.113 271.137 386.207 270.892 385.097 270.892C383.732 270.892 382.665 271.287 381.897 272.076C381.151 272.844 380.767 273.943 380.745 275.372C380.767 276.844 381.161 277.985 381.929 278.796C382.697 279.607 383.764 280.023 385.129 280.044C386.239 280.044 387.135 279.788 387.817 279.276C388.521 278.785 388.991 278.049 389.225 277.068L394.601 278.092C394.175 279.927 393.129 281.356 391.465 282.38C389.801 283.425 387.7 283.959 385.161 283.98ZM397.934 283.5V260.3H403.406V270.604C404.025 269.409 404.878 268.513 405.966 267.916C407.076 267.297 408.377 266.988 409.87 266.988C412.11 266.988 413.817 267.649 414.99 268.972C416.164 270.273 416.75 272.193 416.75 274.732V283.5H411.278V275.308C411.278 273.9 410.958 272.833 410.318 272.108C409.7 271.404 408.772 271.052 407.534 271.052C406.233 271.052 405.22 271.447 404.494 272.236C403.769 273.025 403.406 274.156 403.406 275.628V283.5H397.934Z" fill="#3A2D52"/>
<rect y="42.5" width="199" height="94" rx="4" fill="#FFFBF5"/>
<path d="M35.008 59.78C37.696 59.8013 39.808 60.452 41.344 61.732C42.88 63.0333 43.6587 64.8147 43.68 67.076C43.6587 69.444 42.8587 71.2893 41.28 72.612C39.7227 73.956 37.568 74.6387 34.816 74.66H28.352V82.5H22.624V59.78H35.008ZM33.6 70.692C34.88 70.692 35.872 70.3933 36.576 69.796C37.28 69.1987 37.632 68.3453 37.632 67.236C37.632 66.148 37.28 65.3053 36.576 64.708C35.8933 64.1107 34.9013 63.812 33.6 63.812H28.352V70.692H33.6ZM51.5163 70.916C51.9643 69.38 52.7109 68.196 53.7563 67.364C54.8016 66.532 56.1136 66.1053 57.6923 66.084C57.9269 66.084 58.1189 66.0947 58.2683 66.116C58.4389 66.116 58.5989 66.1373 58.7483 66.18V71.172C58.4709 71.1293 58.2043 71.0973 57.9483 71.076C57.6923 71.0547 57.4149 71.044 57.1163 71.044C56.2629 71.044 55.5376 71.1507 54.9403 71.364C54.3429 71.5773 53.8416 71.876 53.4363 72.26C52.9243 72.7507 52.5509 73.3587 52.3163 74.084C52.1029 74.8093 51.9963 75.6093 51.9963 76.484V82.5H46.5243V66.5H51.5163V70.916ZM70.1293 82.98C67.1639 82.9587 64.7746 82.212 62.9613 80.74C61.1266 79.2893 60.1879 77.1987 60.1453 74.468C60.1879 71.7587 61.1266 69.6787 62.9613 68.228C64.7746 66.7773 67.1639 66.0413 70.1293 66.02C73.0946 66.0413 75.4946 66.7773 77.3293 68.228C79.1639 69.6787 80.1026 71.7587 80.1453 74.468C80.1026 77.1987 79.1639 79.2893 77.3293 80.74C75.4946 82.212 73.0946 82.9587 70.1293 82.98ZM70.1293 79.3C71.4946 79.3 72.5719 78.884 73.3613 78.052C74.1506 77.2413 74.5559 76.0467 74.5773 74.468C74.5559 72.8893 74.1506 71.7053 73.3613 70.916C72.5719 70.1053 71.4946 69.7 70.1293 69.7C68.7639 69.7 67.6866 70.1053 66.8973 70.916C66.1079 71.7053 65.7026 72.8893 65.6813 74.468C65.7026 76.0467 66.1079 77.2413 66.8973 78.052C67.6866 78.884 68.7639 79.3 70.1293 79.3ZM89.896 82.98C87.5067 82.9373 85.5867 82.1587 84.136 80.644C82.7067 79.108 81.9707 77.06 81.928 74.5C81.9707 71.9187 82.728 69.8707 84.2 68.356C85.6933 66.8413 87.6773 66.0627 90.152 66.02C91.5387 66.02 92.7547 66.2547 93.8 66.724C94.824 67.172 95.6453 67.8547 96.264 68.772V59.3H101.736V82.5H96.488V79.588C95.8907 80.6547 95.016 81.4867 93.864 82.084C92.7333 82.6813 91.4107 82.98 89.896 82.98ZM92.008 79.3C93.3307 79.2787 94.376 78.8947 95.144 78.148C95.9333 77.38 96.3387 76.356 96.36 75.076V74.02C96.3387 72.6547 95.9333 71.5987 95.144 70.852C94.3547 70.1053 93.2773 69.7213 91.912 69.7C90.5467 69.7 89.4907 70.116 88.744 70.948C87.976 71.7587 87.592 72.9213 87.592 74.436C87.6133 75.9507 88.008 77.1347 88.776 77.988C89.5653 78.8413 90.6427 79.2787 92.008 79.3ZM113.018 82.98C110.757 82.9587 109.061 82.3613 107.93 81.188C106.799 80.0147 106.234 78.3293 106.234 76.132V66.5H111.706V75.044C111.727 76.4307 112.047 77.4333 112.666 78.052C113.306 78.6707 114.138 78.9693 115.162 78.948C116.549 78.9053 117.594 78.4893 118.298 77.7C118.981 76.8893 119.322 75.8973 119.322 74.724V66.5H124.794V82.5H119.514V79.204C118.959 80.42 118.117 81.348 116.986 81.988C115.855 82.6493 114.533 82.98 113.018 82.98ZM138.036 82.98C134.964 82.9587 132.532 82.1907 130.74 80.676C128.97 79.1613 128.063 77.092 128.02 74.468C128.042 71.8227 128.948 69.7533 130.74 68.26C132.511 66.788 134.975 66.0413 138.132 66.02C140.714 66.02 142.815 66.532 144.436 67.556C146.036 68.5587 147.05 70.0093 147.476 71.908L142.068 72.836C141.834 71.876 141.375 71.14 140.692 70.628C139.988 70.1373 139.082 69.892 137.972 69.892C136.607 69.892 135.54 70.2867 134.772 71.076C134.026 71.844 133.642 72.9427 133.62 74.372C133.642 75.844 134.036 76.9853 134.804 77.796C135.572 78.6067 136.639 79.0227 138.004 79.044C139.114 79.044 140.01 78.788 140.692 78.276C141.396 77.7853 141.866 77.0493 142.1 76.068L147.476 77.092C147.05 78.9267 146.004 80.356 144.34 81.38C142.676 82.4253 140.575 82.9587 138.036 82.98ZM148.441 70.084V66.5H152.057V62.692L157.529 60.644V66.5H162.809V70.084H157.529V75.684C157.529 77.5613 158.532 78.5 160.537 78.5C161.007 78.5 161.423 78.468 161.785 78.404C162.169 78.3613 162.511 78.308 162.809 78.244V82.404C162.255 82.5533 161.668 82.66 161.049 82.724C160.452 82.8093 159.801 82.852 159.097 82.852C156.665 82.852 154.884 82.34 153.753 81.316C152.601 80.3133 152.036 78.8413 152.057 76.9V70.084H148.441ZM22.368 105.5H27.68V108.7C28.768 106.247 30.7413 105.02 33.6 105.02C36.416 104.999 38.304 106.236 39.264 108.732C39.9253 107.495 40.7787 106.567 41.824 105.948C42.8907 105.329 44.128 105.02 45.536 105.02C47.5413 105.02 49.0773 105.628 50.144 106.844C51.232 108.039 51.776 109.767 51.776 112.028V121.5H46.304V113.02C46.304 110.396 45.28 109.095 43.232 109.116C42.144 109.116 41.3013 109.468 40.704 110.172C40.1067 110.855 39.808 111.836 39.808 113.116V121.5H34.336V113.02C34.336 110.396 33.312 109.095 31.264 109.116C30.176 109.116 29.3333 109.479 28.736 110.204C28.1387 110.908 27.84 111.911 27.84 113.212V121.5H22.368V105.5ZM61.366 121.98C59.3393 121.959 57.7393 121.521 56.566 120.668C55.414 119.815 54.8273 118.631 54.806 117.116C54.806 116.369 54.9553 115.708 55.254 115.132C55.5527 114.535 55.9793 114.033 56.534 113.628C57.0887 113.244 57.8033 112.924 58.678 112.668C59.5527 112.433 60.694 112.241 62.102 112.092L68.054 111.548V111.068C68.054 110.172 67.766 109.5 67.19 109.052C66.5927 108.625 65.75 108.412 64.662 108.412C63.5527 108.412 62.678 108.625 62.038 109.052C61.398 109.457 61.0247 110.065 60.918 110.876H55.318C55.5527 109.041 56.4913 107.612 58.134 106.588C59.7767 105.564 61.9633 105.041 64.694 105.02C67.7233 105.02 69.9633 105.585 71.414 106.716C72.8647 107.825 73.5793 109.543 73.558 111.868V116.828C73.558 117.852 73.59 118.748 73.654 119.516C73.718 120.284 73.814 120.945 73.942 121.5H68.534C68.47 121.116 68.4167 120.689 68.374 120.22C68.3313 119.751 68.31 119.271 68.31 118.78C67.7767 119.804 66.9127 120.593 65.718 121.148C64.5233 121.703 63.0727 121.98 61.366 121.98ZM63.446 118.652C64.8753 118.631 66.0167 118.311 66.87 117.692C67.7233 117.073 68.1607 116.231 68.182 115.164V114.14L63.766 114.588C62.5713 114.716 61.7073 114.961 61.174 115.324C60.6407 115.665 60.3847 116.145 60.406 116.764C60.406 117.361 60.6727 117.82 61.206 118.14C61.7393 118.481 62.486 118.652 63.446 118.652ZM77.9618 121.5V105.5H83.2738V108.86C83.9138 107.58 84.7991 106.62 85.9298 105.98C87.0391 105.34 88.3831 105.02 89.9618 105.02C92.2018 105.02 93.8978 105.649 95.0498 106.908C96.2018 108.188 96.7778 110.065 96.7778 112.54V121.5H91.3058V113.372C91.3058 111.943 91.0071 110.865 90.4098 110.14C89.7911 109.436 88.8631 109.084 87.6258 109.084C86.2818 109.084 85.2471 109.479 84.5218 110.268C83.7964 111.057 83.4338 112.177 83.4338 113.628V121.5H77.9618ZM106.366 121.98C104.339 121.959 102.739 121.521 101.566 120.668C100.414 119.815 99.8273 118.631 99.806 117.116C99.806 116.369 99.9553 115.708 100.254 115.132C100.553 114.535 100.979 114.033 101.534 113.628C102.089 113.244 102.803 112.924 103.678 112.668C104.553 112.433 105.694 112.241 107.102 112.092L113.054 111.548V111.068C113.054 110.172 112.766 109.5 112.19 109.052C111.593 108.625 110.75 108.412 109.662 108.412C108.553 108.412 107.678 108.625 107.038 109.052C106.398 109.457 106.025 110.065 105.918 110.876H100.318C100.553 109.041 101.491 107.612 103.134 106.588C104.777 105.564 106.963 105.041 109.694 105.02C112.723 105.02 114.963 105.585 116.414 106.716C117.865 107.825 118.579 109.543 118.558 111.868V116.828C118.558 117.852 118.59 118.748 118.654 119.516C118.718 120.284 118.814 120.945 118.942 121.5H113.534C113.47 121.116 113.417 120.689 113.374 120.22C113.331 119.751 113.31 119.271 113.31 118.78C112.777 119.804 111.913 120.593 110.718 121.148C109.523 121.703 108.073 121.98 106.366 121.98ZM108.446 118.652C109.875 118.631 111.017 118.311 111.87 117.692C112.723 117.073 113.161 116.231 113.182 115.164V114.14L108.766 114.588C107.571 114.716 106.707 114.961 106.174 115.324C105.641 115.665 105.385 116.145 105.406 116.764C105.406 117.361 105.673 117.82 106.206 118.14C106.739 118.481 107.486 118.652 108.446 118.652ZM141.746 106.332C141.468 106.268 141.202 106.215 140.946 106.172C140.668 106.151 140.391 106.14 140.114 106.14C139.196 106.14 138.46 106.321 137.906 106.684C138.567 107.153 139.068 107.697 139.41 108.316C139.751 108.956 139.922 109.671 139.922 110.46C139.9 112.167 139.122 113.511 137.586 114.492C136.05 115.473 133.916 115.975 131.186 115.996C130.375 115.996 129.618 115.953 128.914 115.868C128.21 115.761 127.548 115.623 126.93 115.452C126.503 115.665 126.29 115.964 126.29 116.348C126.29 116.753 126.46 117.063 126.802 117.276C127.164 117.489 127.708 117.596 128.434 117.596H135.314C139.538 117.617 141.639 119.185 141.618 122.3C141.618 124.241 140.711 125.713 138.898 126.716C137.084 127.719 134.343 128.22 130.674 128.22C127.559 128.22 125.244 127.879 123.73 127.196C122.215 126.535 121.458 125.596 121.458 124.38C121.458 123.697 121.692 123.121 122.162 122.652C122.631 122.161 123.335 121.777 124.274 121.5C123.527 121.201 122.951 120.796 122.546 120.284C122.14 119.772 121.938 119.175 121.938 118.492C121.938 117.596 122.226 116.839 122.802 116.22C123.378 115.58 124.21 115.111 125.298 114.812C124.359 114.321 123.644 113.703 123.154 112.956C122.663 112.231 122.418 111.399 122.418 110.46C122.439 108.753 123.218 107.42 124.754 106.46C126.29 105.521 128.434 105.041 131.186 105.02C132.978 105.02 134.535 105.233 135.858 105.66C136.135 104.7 136.69 103.964 137.522 103.452C138.354 102.94 139.431 102.684 140.754 102.684C140.924 102.684 141.095 102.695 141.266 102.716C141.415 102.716 141.575 102.737 141.746 102.78V106.332ZM131.186 113.244C132.231 113.244 133.052 112.988 133.65 112.476C134.247 111.985 134.556 111.313 134.578 110.46C134.578 109.607 134.279 108.945 133.682 108.476C133.084 107.985 132.252 107.74 131.186 107.74C130.098 107.74 129.255 107.985 128.658 108.476C128.06 108.945 127.762 109.607 127.762 110.46C127.783 111.313 128.092 111.985 128.69 112.476C129.287 112.988 130.119 113.244 131.186 113.244ZM134.738 122.012L127.282 121.98C126.898 121.98 126.535 121.959 126.194 121.916C125.959 122.129 125.788 122.353 125.682 122.588C125.575 122.823 125.522 123.079 125.522 123.356C125.522 124.081 125.991 124.615 126.93 124.956C127.847 125.276 129.202 125.436 130.994 125.436C133.17 125.436 134.727 125.276 135.666 124.956C136.583 124.636 137.031 124.145 137.01 123.484C137.01 122.993 136.828 122.62 136.466 122.364C136.103 122.129 135.527 122.012 134.738 122.012ZM162.472 113.436V114.716H148.456C148.541 115.825 149.01 116.689 149.864 117.308C150.717 117.927 151.88 118.236 153.352 118.236C154.397 118.236 155.325 118.033 156.136 117.628C156.925 117.244 157.565 116.668 158.056 115.9L162.152 117.756C161.298 119.1 160.114 120.135 158.6 120.86C157.085 121.607 155.293 121.98 153.224 121.98C150.066 121.959 147.613 121.223 145.864 119.772C144.114 118.321 143.229 116.273 143.208 113.628C143.25 110.919 144.136 108.807 145.864 107.292C147.57 105.799 149.917 105.041 152.904 105.02C155.954 105.041 158.312 105.788 159.976 107.26C161.618 108.711 162.45 110.769 162.472 113.436ZM157.096 111.74V111.676C157.074 110.567 156.69 109.703 155.944 109.084C155.176 108.465 154.141 108.156 152.84 108.156C151.517 108.156 150.472 108.476 149.704 109.116C148.936 109.735 148.509 110.609 148.424 111.74H157.096ZM170.86 109.916C171.308 108.38 172.055 107.196 173.1 106.364C174.145 105.532 175.457 105.105 177.036 105.084C177.271 105.084 177.463 105.095 177.612 105.116C177.783 105.116 177.943 105.137 178.092 105.18V110.172C177.815 110.129 177.548 110.097 177.292 110.076C177.036 110.055 176.759 110.044 176.46 110.044C175.607 110.044 174.881 110.151 174.284 110.364C173.687 110.577 173.185 110.876 172.78 111.26C172.268 111.751 171.895 112.359 171.66 113.084C171.447 113.809 171.34 114.609 171.34 115.484V121.5H165.868V105.5H170.86V109.916Z" fill="#3A2D52"/>
<path d="M98.4 149.14V150.468H94.064V160.5H92.496V150.468H88.16V149.14H98.4ZM102.611 160.74C101.619 160.729 100.829 160.516 100.243 160.1C99.6665 159.684 99.3732 159.108 99.3625 158.372C99.3625 157.988 99.4478 157.636 99.6185 157.316C99.7892 157.007 100.035 156.751 100.355 156.548C100.632 156.377 101 156.228 101.459 156.1C101.917 155.983 102.541 155.887 103.331 155.812L106.307 155.588V155.444C106.307 154.751 106.099 154.233 105.683 153.892C105.267 153.561 104.648 153.396 103.827 153.396C103.048 153.396 102.429 153.54 101.971 153.828C101.512 154.116 101.245 154.532 101.171 155.076H99.6345C99.7305 154.223 100.152 153.545 100.899 153.044C101.635 152.532 102.611 152.271 103.827 152.26C105.139 152.26 106.12 152.532 106.771 153.076C107.411 153.631 107.731 154.473 107.731 155.604V157.716C107.731 158.377 107.747 158.921 107.779 159.348C107.821 159.775 107.885 160.159 107.97 160.5H106.499C106.456 160.276 106.429 160.031 106.419 159.764C106.397 159.497 106.381 159.225 106.371 158.948C106.061 159.524 105.597 159.967 104.979 160.276C104.349 160.585 103.56 160.74 102.611 160.74ZM102.995 159.62C103.997 159.609 104.797 159.369 105.395 158.9C106.003 158.441 106.312 157.807 106.323 156.996V156.596L103.075 156.9C102.264 156.985 101.688 157.14 101.347 157.364C101.016 157.599 100.856 157.924 100.867 158.34C100.867 158.745 101.053 159.06 101.427 159.284C101.789 159.508 102.312 159.62 102.995 159.62ZM117.175 160.5L114.263 156.356L112.087 158.068V160.5H110.679V148.9H112.087V156.516L116.759 152.5H118.711L115.351 155.46L118.935 160.5H117.175ZM120.721 151.028V149.252H122.369V151.028H120.721ZM120.849 160.5V152.5H122.257V160.5H120.849ZM125.365 160.5V152.5H126.725V154.244C127.386 152.911 128.549 152.244 130.213 152.244C131.365 152.244 132.234 152.559 132.821 153.188C133.418 153.817 133.717 154.74 133.717 155.956V160.5H132.309V156.164C132.309 154.372 131.461 153.476 129.765 153.476C128.847 153.487 128.122 153.764 127.589 154.308C127.055 154.852 126.783 155.604 126.773 156.564V160.5H125.365ZM144.105 152.404C143.774 152.404 143.502 152.463 143.289 152.58C143.065 152.697 142.905 152.868 142.809 153.092C143.097 153.337 143.321 153.62 143.481 153.94C143.63 154.271 143.705 154.633 143.705 155.028C143.694 155.86 143.369 156.527 142.729 157.028C142.078 157.54 141.177 157.801 140.025 157.812C139.246 157.812 138.574 157.684 138.009 157.428C137.785 157.503 137.609 157.609 137.481 157.748C137.342 157.887 137.273 158.052 137.273 158.244C137.273 158.489 137.379 158.681 137.593 158.82C137.806 158.969 138.153 159.044 138.633 159.044H141.785C142.734 159.044 143.443 159.236 143.913 159.62C144.393 159.993 144.633 160.543 144.633 161.268C144.643 162.089 144.27 162.724 143.513 163.172C142.755 163.62 141.571 163.849 139.961 163.86C138.382 163.849 137.257 163.641 136.585 163.236C135.902 162.841 135.571 162.313 135.593 161.652C135.593 161.268 135.705 160.932 135.929 160.644C136.153 160.356 136.489 160.143 136.937 160.004C136.606 159.865 136.366 159.679 136.217 159.444C136.057 159.209 135.977 158.943 135.977 158.644C135.977 158.239 136.099 157.903 136.345 157.636C136.579 157.369 136.905 157.167 137.321 157.028C137.001 156.783 136.755 156.489 136.585 156.148C136.414 155.807 136.329 155.433 136.329 155.028C136.339 154.196 136.67 153.529 137.321 153.028C137.961 152.527 138.862 152.271 140.025 152.26C140.846 152.26 141.534 152.393 142.089 152.66C142.206 152.212 142.435 151.855 142.777 151.588C143.129 151.332 143.593 151.199 144.169 151.188C144.265 151.188 144.355 151.193 144.441 151.204C144.537 151.215 144.638 151.231 144.745 151.252V152.468C144.574 152.425 144.361 152.404 144.105 152.404ZM140.025 156.772C140.739 156.761 141.299 156.601 141.705 156.292C142.11 155.972 142.318 155.551 142.329 155.028C142.318 154.505 142.11 154.089 141.705 153.78C141.299 153.481 140.739 153.327 140.025 153.316C139.31 153.316 138.75 153.471 138.345 153.78C137.939 154.079 137.731 154.495 137.721 155.028C137.731 155.551 137.939 155.967 138.345 156.276C138.75 156.596 139.31 156.761 140.025 156.772ZM141.513 160.276H138.585C138.307 160.276 138.057 160.26 137.833 160.228C137.534 160.356 137.31 160.521 137.161 160.724C137.011 160.937 136.937 161.167 136.937 161.412C136.947 161.881 137.219 162.217 137.753 162.42C138.286 162.623 139.049 162.724 140.041 162.724C141.214 162.724 142.046 162.601 142.537 162.356C143.017 162.111 143.251 161.78 143.241 161.364C143.241 161.001 143.102 160.729 142.825 160.548C142.537 160.367 142.099 160.276 141.513 160.276ZM151.958 160.5V152.5H153.318V154.244C153.98 152.911 155.142 152.244 156.806 152.244C157.958 152.244 158.828 152.559 159.414 153.188C160.012 153.817 160.31 154.74 160.31 155.956V160.5H158.902V156.164C158.902 154.372 158.054 153.476 156.358 153.476C155.441 153.487 154.716 153.764 154.182 154.308C153.649 154.852 153.377 155.604 153.366 156.564V160.5H151.958ZM166.811 160.74C165.424 160.729 164.32 160.345 163.499 159.588C162.677 158.841 162.256 157.812 162.235 156.5C162.256 155.188 162.677 154.159 163.499 153.412C164.32 152.655 165.424 152.271 166.811 152.26C168.197 152.271 169.301 152.655 170.123 153.412C170.933 154.159 171.349 155.188 171.371 156.5C171.349 157.812 170.933 158.841 170.123 159.588C169.301 160.345 168.197 160.729 166.811 160.74ZM166.811 159.524C167.76 159.524 168.507 159.263 169.051 158.74C169.595 158.217 169.872 157.471 169.883 156.5C169.872 155.529 169.595 154.783 169.051 154.26C168.507 153.737 167.76 153.476 166.811 153.476C165.861 153.476 165.115 153.737 164.571 154.26C164.027 154.783 163.749 155.529 163.739 156.5C163.749 157.471 164.027 158.217 164.571 158.74C165.115 159.263 165.861 159.524 166.811 159.524ZM172.319 153.652V152.5H174.239V150.404L175.663 149.812V152.5H178.511V153.652H175.663V157.78C175.663 158.324 175.791 158.724 176.047 158.98C176.313 159.225 176.713 159.348 177.247 159.348C177.481 159.348 177.705 159.332 177.919 159.3C178.121 159.279 178.324 159.241 178.527 159.188V160.452C178.335 160.516 178.105 160.564 177.839 160.596C177.572 160.639 177.284 160.66 176.975 160.66C175.876 160.639 175.14 160.361 174.767 159.828C174.383 159.295 174.207 158.639 174.239 157.86V153.652H172.319ZM188.645 156.116V156.916H181.253C181.285 157.727 181.573 158.361 182.117 158.82C182.671 159.279 183.434 159.513 184.405 159.524C185.119 159.524 185.727 159.391 186.229 159.124C186.719 158.857 187.098 158.463 187.365 157.94L188.549 158.484C188.165 159.231 187.621 159.791 186.917 160.164C186.213 160.548 185.354 160.74 184.341 160.74C182.922 160.729 181.818 160.367 181.029 159.652C180.229 158.937 179.823 157.919 179.813 156.596C179.834 155.209 180.239 154.143 181.029 153.396C181.829 152.649 182.911 152.271 184.277 152.26C185.653 152.271 186.719 152.601 187.477 153.252C188.245 153.913 188.634 154.868 188.645 156.116ZM187.189 155.812V155.7C187.167 154.932 186.89 154.345 186.357 153.94C185.823 153.535 185.125 153.332 184.261 153.332C183.365 153.343 182.65 153.567 182.117 154.004C181.594 154.441 181.306 155.044 181.253 155.812H187.189ZM194.526 160.74C193.342 160.74 192.382 160.516 191.646 160.068C190.921 159.62 190.409 158.98 190.11 158.148L191.438 157.716C191.651 158.324 192.025 158.788 192.558 159.108C193.091 159.428 193.785 159.588 194.638 159.588C195.363 159.588 195.913 159.481 196.286 159.268C196.659 159.055 196.846 158.735 196.846 158.308C196.857 157.935 196.745 157.657 196.51 157.476C196.286 157.284 195.913 157.172 195.39 157.14L193.038 156.964C192.174 156.879 191.529 156.639 191.102 156.244C190.675 155.849 190.462 155.327 190.462 154.676C190.473 153.919 190.798 153.327 191.438 152.9C192.078 152.484 192.969 152.271 194.11 152.26C195.219 152.271 196.126 152.479 196.83 152.884C197.534 153.289 197.998 153.849 198.222 154.564L196.894 155.012C196.691 154.5 196.361 154.1 195.902 153.812C195.433 153.524 194.809 153.38 194.03 153.38C193.337 153.38 192.798 153.487 192.414 153.7C192.041 153.913 191.849 154.223 191.838 154.628C191.838 155.289 192.35 155.668 193.374 155.764L195.758 155.94C196.643 156.025 197.278 156.26 197.662 156.644C198.057 157.028 198.249 157.545 198.238 158.196C198.238 158.985 197.934 159.604 197.326 160.052C196.718 160.5 195.785 160.729 194.526 160.74Z" fill="#3A2D52"/>
<rect x="483" y="42.5" width="196" height="94" rx="4" fill="#FFFBF5"/>
<path d="M518.008 59.78C520.696 59.8013 522.808 60.452 524.344 61.732C525.88 63.0333 526.659 64.8147 526.68 67.076C526.659 69.444 525.859 71.2893 524.28 72.612C522.723 73.956 520.568 74.6387 517.816 74.66H511.352V82.5H505.624V59.78H518.008ZM516.6 70.692C517.88 70.692 518.872 70.3933 519.576 69.796C520.28 69.1987 520.632 68.3453 520.632 67.236C520.632 66.148 520.28 65.3053 519.576 64.708C518.893 64.1107 517.901 63.812 516.6 63.812H511.352V70.692H516.6ZM534.516 70.916C534.964 69.38 535.711 68.196 536.756 67.364C537.802 66.532 539.114 66.1053 540.692 66.084C540.927 66.084 541.119 66.0947 541.268 66.116C541.439 66.116 541.599 66.1373 541.748 66.18V71.172C541.471 71.1293 541.204 71.0973 540.948 71.076C540.692 71.0547 540.415 71.044 540.116 71.044C539.263 71.044 538.538 71.1507 537.94 71.364C537.343 71.5773 536.842 71.876 536.436 72.26C535.924 72.7507 535.551 73.3587 535.316 74.084C535.103 74.8093 534.996 75.6093 534.996 76.484V82.5H529.524V66.5H534.516V70.916ZM553.129 82.98C550.164 82.9587 547.775 82.212 545.961 80.74C544.127 79.2893 543.188 77.1987 543.145 74.468C543.188 71.7587 544.127 69.6787 545.961 68.228C547.775 66.7773 550.164 66.0413 553.129 66.02C556.095 66.0413 558.495 66.7773 560.329 68.228C562.164 69.6787 563.103 71.7587 563.145 74.468C563.103 77.1987 562.164 79.2893 560.329 80.74C558.495 82.212 556.095 82.9587 553.129 82.98ZM553.129 79.3C554.495 79.3 555.572 78.884 556.361 78.052C557.151 77.2413 557.556 76.0467 557.577 74.468C557.556 72.8893 557.151 71.7053 556.361 70.916C555.572 70.1053 554.495 69.7 553.129 69.7C551.764 69.7 550.687 70.1053 549.897 70.916C549.108 71.7053 548.703 72.8893 548.681 74.468C548.703 76.0467 549.108 77.2413 549.897 78.052C550.687 78.884 551.764 79.3 553.129 79.3ZM572.896 82.98C570.507 82.9373 568.587 82.1587 567.136 80.644C565.707 79.108 564.971 77.06 564.928 74.5C564.971 71.9187 565.728 69.8707 567.2 68.356C568.693 66.8413 570.677 66.0627 573.152 66.02C574.539 66.02 575.755 66.2547 576.8 66.724C577.824 67.172 578.645 67.8547 579.264 68.772V59.3H584.736V82.5H579.488V79.588C578.891 80.6547 578.016 81.4867 576.864 82.084C575.733 82.6813 574.411 82.98 572.896 82.98ZM575.008 79.3C576.331 79.2787 577.376 78.8947 578.144 78.148C578.933 77.38 579.339 76.356 579.36 75.076V74.02C579.339 72.6547 578.933 71.5987 578.144 70.852C577.355 70.1053 576.277 69.7213 574.912 69.7C573.547 69.7 572.491 70.116 571.744 70.948C570.976 71.7587 570.592 72.9213 570.592 74.436C570.613 75.9507 571.008 77.1347 571.776 77.988C572.565 78.8413 573.643 79.2787 575.008 79.3ZM596.018 82.98C593.757 82.9587 592.061 82.3613 590.93 81.188C589.799 80.0147 589.234 78.3293 589.234 76.132V66.5H594.706V75.044C594.727 76.4307 595.047 77.4333 595.666 78.052C596.306 78.6707 597.138 78.9693 598.162 78.948C599.549 78.9053 600.594 78.4893 601.298 77.7C601.981 76.8893 602.322 75.8973 602.322 74.724V66.5H607.794V82.5H602.514V79.204C601.959 80.42 601.117 81.348 599.986 81.988C598.855 82.6493 597.533 82.98 596.018 82.98ZM621.036 82.98C617.964 82.9587 615.532 82.1907 613.74 80.676C611.97 79.1613 611.063 77.092 611.02 74.468C611.042 71.8227 611.948 69.7533 613.74 68.26C615.511 66.788 617.975 66.0413 621.132 66.02C623.714 66.02 625.815 66.532 627.436 67.556C629.036 68.5587 630.05 70.0093 630.476 71.908L625.068 72.836C624.834 71.876 624.375 71.14 623.692 70.628C622.988 70.1373 622.082 69.892 620.972 69.892C619.607 69.892 618.54 70.2867 617.772 71.076C617.026 71.844 616.642 72.9427 616.62 74.372C616.642 75.844 617.036 76.9853 617.804 77.796C618.572 78.6067 619.639 79.0227 621.004 79.044C622.114 79.044 623.01 78.788 623.692 78.276C624.396 77.7853 624.866 77.0493 625.1 76.068L630.476 77.092C630.05 78.9267 629.004 80.356 627.34 81.38C625.676 82.4253 623.575 82.9587 621.036 82.98ZM631.441 70.084V66.5H635.057V62.692L640.529 60.644V66.5H645.809V70.084H640.529V75.684C640.529 77.5613 641.532 78.5 643.537 78.5C644.007 78.5 644.423 78.468 644.785 78.404C645.169 78.3613 645.511 78.308 645.809 78.244V82.404C645.255 82.5533 644.668 82.66 644.049 82.724C643.452 82.8093 642.801 82.852 642.097 82.852C639.665 82.852 637.884 82.34 636.753 81.316C635.601 80.3133 635.036 78.8413 635.057 76.9V70.084H631.441ZM511.896 121.98C509.507 121.937 507.587 121.159 506.136 119.644C504.707 118.108 503.971 116.06 503.928 113.5C503.971 110.919 504.728 108.871 506.2 107.356C507.693 105.841 509.677 105.063 512.152 105.02C513.539 105.02 514.755 105.255 515.8 105.724C516.824 106.172 517.645 106.855 518.264 107.772V98.3H523.736V121.5H518.488V118.588C517.891 119.655 517.016 120.487 515.864 121.084C514.733 121.681 513.411 121.98 511.896 121.98ZM514.008 118.3C515.331 118.279 516.376 117.895 517.144 117.148C517.933 116.38 518.339 115.356 518.36 114.076V113.02C518.339 111.655 517.933 110.599 517.144 109.852C516.355 109.105 515.277 108.721 513.912 108.7C512.547 108.7 511.491 109.116 510.744 109.948C509.976 110.759 509.592 111.921 509.592 113.436C509.613 114.951 510.008 116.135 510.776 116.988C511.565 117.841 512.643 118.279 514.008 118.3ZM546.378 113.436V114.716H532.362C532.447 115.825 532.917 116.689 533.77 117.308C534.623 117.927 535.786 118.236 537.258 118.236C538.303 118.236 539.231 118.033 540.042 117.628C540.831 117.244 541.471 116.668 541.962 115.9L546.058 117.756C545.205 119.1 544.021 120.135 542.506 120.86C540.991 121.607 539.199 121.98 537.13 121.98C533.973 121.959 531.519 121.223 529.77 119.772C528.021 118.321 527.135 116.273 527.114 113.628C527.157 110.919 528.042 108.807 529.77 107.292C531.477 105.799 533.823 105.041 536.81 105.02C539.861 105.041 542.218 105.788 543.882 107.26C545.525 108.711 546.357 110.769 546.378 113.436ZM541.002 111.74V111.676C540.981 110.567 540.597 109.703 539.85 109.084C539.082 108.465 538.047 108.156 536.746 108.156C535.423 108.156 534.378 108.476 533.61 109.116C532.842 109.735 532.415 110.609 532.33 111.74H541.002ZM557.71 121.98C555.47 121.98 553.529 121.66 551.886 121.02C550.244 120.38 548.921 119.431 547.918 118.172L550.862 115.676C551.609 116.572 552.569 117.255 553.742 117.724C554.894 118.193 556.302 118.428 557.966 118.428C559.076 118.428 559.897 118.311 560.43 118.076C560.942 117.82 561.198 117.447 561.198 116.956C561.22 116.508 561.06 116.177 560.718 115.964C560.398 115.751 559.79 115.601 558.894 115.516L554.638 115.1C552.697 114.865 551.246 114.332 550.286 113.5C549.348 112.689 548.878 111.58 548.878 110.172C548.9 108.529 549.625 107.26 551.054 106.364C552.484 105.468 554.553 105.02 557.262 105.02C559.204 105.02 560.932 105.287 562.446 105.82C563.94 106.332 565.145 107.079 566.062 108.06L563.502 110.684C562.692 109.959 561.764 109.415 560.718 109.052C559.652 108.689 558.404 108.508 556.974 108.508C555.929 108.508 555.15 108.615 554.638 108.828C554.126 109.041 553.87 109.383 553.87 109.852C553.87 110.236 554.03 110.535 554.35 110.748C554.67 110.94 555.193 111.079 555.918 111.164L560.622 111.644C562.564 111.857 563.972 112.38 564.846 113.212C565.721 114.023 566.148 115.132 566.126 116.54C566.126 118.247 565.422 119.58 564.014 120.54C562.606 121.479 560.505 121.959 557.71 121.98ZM569.24 103.196V98.428H575V103.196H569.24ZM569.368 121.5V105.5H574.84V121.5H569.368ZM598.371 106.332C598.093 106.268 597.827 106.215 597.571 106.172C597.293 106.151 597.016 106.14 596.739 106.14C595.821 106.14 595.085 106.321 594.531 106.684C595.192 107.153 595.693 107.697 596.035 108.316C596.376 108.956 596.547 109.671 596.547 110.46C596.525 112.167 595.747 113.511 594.211 114.492C592.675 115.473 590.541 115.975 587.811 115.996C587 115.996 586.243 115.953 585.539 115.868C584.835 115.761 584.173 115.623 583.555 115.452C583.128 115.665 582.915 115.964 582.915 116.348C582.915 116.753 583.085 117.063 583.427 117.276C583.789 117.489 584.333 117.596 585.059 117.596H591.939C596.163 117.617 598.264 119.185 598.243 122.3C598.243 124.241 597.336 125.713 595.523 126.716C593.709 127.719 590.968 128.22 587.299 128.22C584.184 128.22 581.869 127.879 580.355 127.196C578.84 126.535 578.083 125.596 578.083 124.38C578.083 123.697 578.317 123.121 578.787 122.652C579.256 122.161 579.96 121.777 580.899 121.5C580.152 121.201 579.576 120.796 579.171 120.284C578.765 119.772 578.563 119.175 578.563 118.492C578.563 117.596 578.851 116.839 579.427 116.22C580.003 115.58 580.835 115.111 581.923 114.812C580.984 114.321 580.269 113.703 579.779 112.956C579.288 112.231 579.043 111.399 579.043 110.46C579.064 108.753 579.843 107.42 581.379 106.46C582.915 105.521 585.059 105.041 587.811 105.02C589.603 105.02 591.16 105.233 592.483 105.66C592.76 104.7 593.315 103.964 594.147 103.452C594.979 102.94 596.056 102.684 597.379 102.684C597.549 102.684 597.72 102.695 597.891 102.716C598.04 102.716 598.2 102.737 598.371 102.78V106.332ZM587.811 113.244C588.856 113.244 589.677 112.988 590.275 112.476C590.872 111.985 591.181 111.313 591.203 110.46C591.203 109.607 590.904 108.945 590.307 108.476C589.709 107.985 588.877 107.74 587.811 107.74C586.723 107.74 585.88 107.985 585.283 108.476C584.685 108.945 584.387 109.607 584.387 110.46C584.408 111.313 584.717 111.985 585.315 112.476C585.912 112.988 586.744 113.244 587.811 113.244ZM591.363 122.012L583.907 121.98C583.523 121.98 583.16 121.959 582.819 121.916C582.584 122.129 582.413 122.353 582.307 122.588C582.2 122.823 582.147 123.079 582.147 123.356C582.147 124.081 582.616 124.615 583.555 124.956C584.472 125.276 585.827 125.436 587.619 125.436C589.795 125.436 591.352 125.276 592.291 124.956C593.208 124.636 593.656 124.145 593.635 123.484C593.635 122.993 593.453 122.62 593.091 122.364C592.728 122.129 592.152 122.012 591.363 122.012ZM601.337 121.5V105.5H606.649V108.86C607.289 107.58 608.174 106.62 609.305 105.98C610.414 105.34 611.758 105.02 613.337 105.02C615.577 105.02 617.273 105.649 618.425 106.908C619.577 108.188 620.153 110.065 620.153 112.54V121.5H614.681V113.372C614.681 111.943 614.382 110.865 613.785 110.14C613.166 109.436 612.238 109.084 611.001 109.084C609.657 109.084 608.622 109.479 607.897 110.268C607.171 111.057 606.809 112.177 606.809 113.628V121.5H601.337ZM642.253 113.436V114.716H628.237C628.322 115.825 628.792 116.689 629.645 117.308C630.498 117.927 631.661 118.236 633.133 118.236C634.178 118.236 635.106 118.033 635.917 117.628C636.706 117.244 637.346 116.668 637.837 115.9L641.933 117.756C641.08 119.1 639.896 120.135 638.381 120.86C636.866 121.607 635.074 121.98 633.005 121.98C629.848 121.959 627.394 121.223 625.645 119.772C623.896 118.321 623.01 116.273 622.989 113.628C623.032 110.919 623.917 108.807 625.645 107.292C627.352 105.799 629.698 105.041 632.685 105.02C635.736 105.041 638.093 105.788 639.757 107.26C641.4 108.711 642.232 110.769 642.253 113.436ZM636.877 111.74V111.676C636.856 110.567 636.472 109.703 635.725 109.084C634.957 108.465 633.922 108.156 632.621 108.156C631.298 108.156 630.253 108.476 629.485 109.116C628.717 109.735 628.29 110.609 628.205 111.74H636.877ZM650.641 109.916C651.089 108.38 651.836 107.196 652.881 106.364C653.927 105.532 655.239 105.105 656.817 105.084C657.052 105.084 657.244 105.095 657.393 105.116C657.564 105.116 657.724 105.137 657.873 105.18V110.172C657.596 110.129 657.329 110.097 657.073 110.076C656.817 110.055 656.54 110.044 656.241 110.044C655.388 110.044 654.663 110.151 654.065 110.364C653.468 110.577 652.967 110.876 652.561 111.26C652.049 111.751 651.676 112.359 651.441 113.084C651.228 113.809 651.121 114.609 651.121 115.484V121.5H645.649V105.5H650.641V109.916Z" fill="#3A2D52"/>
<path d="M493.304 150.452H486.28V154.036H493.032V155.348H486.28V160.5H484.712V149.14H493.304V150.452ZM498.079 160.74C497.087 160.729 496.298 160.516 495.711 160.1C495.135 159.684 494.842 159.108 494.831 158.372C494.831 157.988 494.917 157.636 495.087 157.316C495.258 157.007 495.503 156.751 495.823 156.548C496.101 156.377 496.469 156.228 496.927 156.1C497.386 155.983 498.01 155.887 498.799 155.812L501.775 155.588V155.444C501.775 154.751 501.567 154.233 501.151 153.892C500.735 153.561 500.117 153.396 499.295 153.396C498.517 153.396 497.898 153.54 497.439 153.828C496.981 154.116 496.714 154.532 496.639 155.076H495.103C495.199 154.223 495.621 153.545 496.367 153.044C497.103 152.532 498.079 152.271 499.295 152.26C500.607 152.26 501.589 152.532 502.239 153.076C502.879 153.631 503.199 154.473 503.199 155.604V157.716C503.199 158.377 503.215 158.921 503.247 159.348C503.29 159.775 503.354 160.159 503.439 160.5H501.967C501.925 160.276 501.898 160.031 501.887 159.764C501.866 159.497 501.85 159.225 501.839 158.948C501.53 159.524 501.066 159.967 500.447 160.276C499.818 160.585 499.029 160.74 498.079 160.74ZM498.463 159.62C499.466 159.609 500.266 159.369 500.863 158.9C501.471 158.441 501.781 157.807 501.791 156.996V156.596L498.543 156.9C497.733 156.985 497.157 157.14 496.815 157.364C496.485 157.599 496.325 157.924 496.335 158.34C496.335 158.745 496.522 159.06 496.895 159.284C497.258 159.508 497.781 159.62 498.463 159.62ZM509.684 160.74C508.308 160.729 507.22 160.345 506.42 159.588C505.62 158.831 505.209 157.801 505.188 156.5C505.198 155.177 505.609 154.143 506.42 153.396C507.22 152.649 508.318 152.271 509.716 152.26C510.9 152.26 511.844 152.511 512.548 153.012C513.252 153.513 513.7 154.249 513.892 155.22L512.404 155.396C512.254 154.767 511.956 154.287 511.508 153.956C511.049 153.636 510.441 153.476 509.684 153.476C508.734 153.487 507.998 153.748 507.476 154.26C506.964 154.783 506.702 155.524 506.692 156.484C506.702 157.455 506.969 158.201 507.492 158.724C508.025 159.247 508.766 159.513 509.716 159.524C511.177 159.524 512.1 158.889 512.484 157.62L513.876 157.844C513.662 158.761 513.193 159.471 512.468 159.972C511.742 160.473 510.814 160.729 509.684 160.74ZM516.002 151.028V149.252H517.65V151.028H516.002ZM516.13 160.5V152.5H517.538V160.5H516.13ZM522.134 148.9V160.5H520.726V148.9H522.134ZM525.19 151.028V149.252H526.838V151.028H525.19ZM525.318 160.5V152.5H526.726V160.5H525.318ZM528.537 153.652V152.5H530.457V150.404L531.881 149.812V152.5H534.729V153.652H531.881V157.78C531.881 158.324 532.009 158.724 532.265 158.98C532.532 159.225 532.932 159.348 533.465 159.348C533.7 159.348 533.924 159.332 534.137 159.3C534.34 159.279 534.543 159.241 534.745 159.188V160.452C534.553 160.516 534.324 160.564 534.057 160.596C533.791 160.639 533.503 160.66 533.193 160.66C532.095 160.639 531.359 160.361 530.985 159.828C530.601 159.295 530.425 158.639 530.457 157.86V153.652H528.537ZM539.407 160.74C538.415 160.729 537.626 160.516 537.039 160.1C536.463 159.684 536.17 159.108 536.159 158.372C536.159 157.988 536.245 157.636 536.415 157.316C536.586 157.007 536.831 156.751 537.151 156.548C537.429 156.377 537.797 156.228 538.255 156.1C538.714 155.983 539.338 155.887 540.127 155.812L543.103 155.588V155.444C543.103 154.751 542.895 154.233 542.479 153.892C542.063 153.561 541.445 153.396 540.623 153.396C539.845 153.396 539.226 153.54 538.767 153.828C538.309 154.116 538.042 154.532 537.967 155.076H536.431C536.527 154.223 536.949 153.545 537.695 153.044C538.431 152.532 539.407 152.271 540.623 152.26C541.935 152.26 542.917 152.532 543.567 153.076C544.207 153.631 544.527 154.473 544.527 155.604V157.716C544.527 158.377 544.543 158.921 544.575 159.348C544.618 159.775 544.682 160.159 544.767 160.5H543.295C543.253 160.276 543.226 160.031 543.215 159.764C543.194 159.497 543.178 159.225 543.167 158.948C542.858 159.524 542.394 159.967 541.775 160.276C541.146 160.585 540.357 160.74 539.407 160.74ZM539.791 159.62C540.794 159.609 541.594 159.369 542.191 158.9C542.799 158.441 543.109 157.807 543.119 156.996V156.596L539.871 156.9C539.061 156.985 538.485 157.14 538.143 157.364C537.813 157.599 537.653 157.924 537.663 158.34C537.663 158.745 537.85 159.06 538.223 159.284C538.586 159.508 539.109 159.62 539.791 159.62ZM546.1 153.652V152.5H548.02V150.404L549.444 149.812V152.5H552.292V153.652H549.444V157.78C549.444 158.324 549.572 158.724 549.828 158.98C550.094 159.225 550.494 159.348 551.028 159.348C551.262 159.348 551.486 159.332 551.7 159.3C551.902 159.279 552.105 159.241 552.308 159.188V160.452C552.116 160.516 551.886 160.564 551.62 160.596C551.353 160.639 551.065 160.66 550.756 160.66C549.657 160.639 548.921 160.361 548.548 159.828C548.164 159.295 547.988 158.639 548.02 157.86V153.652H546.1ZM554.346 151.028V149.252H555.994V151.028H554.346ZM554.474 160.5V152.5H555.882V160.5H554.474ZM558.99 160.5V152.5H560.35V154.244C561.011 152.911 562.174 152.244 563.838 152.244C564.99 152.244 565.859 152.559 566.446 153.188C567.043 153.817 567.342 154.74 567.342 155.956V160.5H565.934V156.164C565.934 154.372 565.086 153.476 563.39 153.476C562.472 153.487 561.747 153.764 561.214 154.308C560.68 154.852 560.408 155.604 560.398 156.564V160.5H558.99ZM577.73 152.404C577.399 152.404 577.127 152.463 576.914 152.58C576.69 152.697 576.53 152.868 576.434 153.092C576.722 153.337 576.946 153.62 577.106 153.94C577.255 154.271 577.33 154.633 577.33 155.028C577.319 155.86 576.994 156.527 576.354 157.028C575.703 157.54 574.802 157.801 573.65 157.812C572.871 157.812 572.199 157.684 571.634 157.428C571.41 157.503 571.234 157.609 571.106 157.748C570.967 157.887 570.898 158.052 570.898 158.244C570.898 158.489 571.004 158.681 571.218 158.82C571.431 158.969 571.778 159.044 572.258 159.044H575.41C576.359 159.044 577.068 159.236 577.538 159.62C578.018 159.993 578.258 160.543 578.258 161.268C578.268 162.089 577.895 162.724 577.138 163.172C576.38 163.62 575.196 163.849 573.586 163.86C572.007 163.849 570.882 163.641 570.21 163.236C569.527 162.841 569.196 162.313 569.218 161.652C569.218 161.268 569.33 160.932 569.554 160.644C569.778 160.356 570.114 160.143 570.562 160.004C570.231 159.865 569.991 159.679 569.842 159.444C569.682 159.209 569.602 158.943 569.602 158.644C569.602 158.239 569.724 157.903 569.97 157.636C570.204 157.369 570.53 157.167 570.946 157.028C570.626 156.783 570.38 156.489 570.21 156.148C570.039 155.807 569.954 155.433 569.954 155.028C569.964 154.196 570.295 153.529 570.946 153.028C571.586 152.527 572.487 152.271 573.65 152.26C574.471 152.26 575.159 152.393 575.714 152.66C575.831 152.212 576.06 151.855 576.402 151.588C576.754 151.332 577.218 151.199 577.794 151.188C577.89 151.188 577.98 151.193 578.066 151.204C578.162 151.215 578.263 151.231 578.37 151.252V152.468C578.199 152.425 577.986 152.404 577.73 152.404ZM573.65 156.772C574.364 156.761 574.924 156.601 575.33 156.292C575.735 155.972 575.943 155.551 575.954 155.028C575.943 154.505 575.735 154.089 575.33 153.78C574.924 153.481 574.364 153.327 573.65 153.316C572.935 153.316 572.375 153.471 571.97 153.78C571.564 154.079 571.356 154.495 571.346 155.028C571.356 155.551 571.564 155.967 571.97 156.276C572.375 156.596 572.935 156.761 573.65 156.772ZM575.138 160.276H572.21C571.932 160.276 571.682 160.26 571.458 160.228C571.159 160.356 570.935 160.521 570.786 160.724C570.636 160.937 570.562 161.167 570.562 161.412C570.572 161.881 570.844 162.217 571.378 162.42C571.911 162.623 572.674 162.724 573.666 162.724C574.839 162.724 575.671 162.601 576.162 162.356C576.642 162.111 576.876 161.78 576.866 161.364C576.866 161.001 576.727 160.729 576.45 160.548C576.162 160.367 575.724 160.276 575.138 160.276Z" fill="#3A2D52"/>
</svg>
