<svg width="336" height="470" viewBox="0 0 336 470" fill="none" xmlns="http://www.w3.org/2000/svg">
<g clip-path="url(#clip0_2967_48729)">
<path d="M0 0H336V470H0V0Z" fill="white"/>
<path d="M0 0H336V470H0V0Z" fill="#F0F0F0"/>
<path d="M16 0C7.16344 0 0 7.16344 0 16V304.381H70.112C91.168 304.381 112.112 307.514 132.048 314.341C143.248 318.145 155.232 320.272 167.664 320.272C180.096 320.272 192.08 318.145 203.28 314.341C223.216 307.514 244.16 304.381 265.216 304.381H336V16C336 7.16344 328.837 0 320 0H16Z" fill="#212121"/>
<path d="M0 440.905H336V470H0V440.905Z" fill="black"/>
<path d="M321.44 454.557L320.096 453.326C319.984 453.214 319.872 453.214 319.76 453.326L318.528 454.557V449.41H311.36V448.514C311.36 448.067 311.808 447.619 312.256 447.619H323.792C324.128 447.619 324.352 447.395 324.352 447.06C324.352 446.724 324.128 446.5 323.904 446.5H312.256C311.136 446.5 310.24 447.395 310.24 448.514V462.95C310.24 463.174 310.352 463.286 310.464 463.286H322.336C323.456 463.286 324.352 462.39 324.352 461.271V449.41H321.44V454.557ZM313.264 461.495C313.264 461.831 313.04 462.055 312.704 462.055C312.368 462.055 312.144 461.831 312.144 461.495V450.976C312.144 450.64 312.368 450.417 312.704 450.417C313.04 450.417 313.264 450.64 313.264 450.976V461.495Z" fill="#F0F0F0"/>
<path d="M133.557 363.082H135.29V372.643H133.557V363.082ZM145.427 363.082V372.643H144.137L138.976 365.942V372.643H137.363V363.082H138.653L143.801 369.769V363.082H145.427ZM149.753 364.505H146.635V363.082H154.632V364.505H151.5V372.643H149.753V364.505ZM155.83 363.082H162.227V364.452H157.523V367.097H161.945V368.467H157.523V371.273H162.227V372.643H155.83V363.082ZM171.886 363.082V372.643H170.596L165.435 365.942V372.643H163.822V363.082H165.112L170.26 369.769V363.082H171.886ZM177.208 372.764C176.507 372.769 175.809 372.669 175.138 372.468C174.502 372.271 173.96 371.989 173.512 371.622L174.103 370.36C174.569 370.709 175.053 370.969 175.554 371.139C176.094 371.304 176.656 371.386 177.221 371.381C177.884 371.381 178.395 371.264 178.753 371.032C179.121 370.799 179.304 370.472 179.304 370.051C179.304 369.693 179.134 369.42 178.793 369.232C178.462 369.035 177.911 368.852 177.14 368.682C175.94 368.422 175.066 368.086 174.52 367.674C173.973 367.263 173.7 366.663 173.7 365.875C173.7 365.311 173.852 364.81 174.157 364.371C174.461 363.932 174.891 363.588 175.447 363.337C176.011 363.086 176.661 362.961 177.396 362.961C178.068 362.961 178.704 363.064 179.304 363.27C179.913 363.467 180.411 363.744 180.796 364.102L180.218 365.365C179.367 364.684 178.426 364.344 177.396 364.344C176.777 364.344 176.289 364.474 175.931 364.734C175.572 364.984 175.393 365.329 175.393 365.768C175.393 366.144 175.55 366.43 175.864 366.627C176.186 366.824 176.733 367.007 177.503 367.178C178.301 367.366 178.95 367.571 179.452 367.795C179.954 368.01 180.339 368.292 180.608 368.641C180.877 368.981 181.011 369.411 181.011 369.93C181.011 370.503 180.859 371.005 180.554 371.434C180.249 371.855 179.81 372.182 179.237 372.415C178.664 372.647 177.987 372.764 177.208 372.764ZM182.617 363.082H184.351V372.643H182.617V363.082ZM188.669 364.505H185.551V363.082H193.547V364.505H190.416V372.643H188.669V364.505Z" fill="#212121"/>
<path d="M199.001 368.856V372.643H197.267V368.856L193.383 363.082H195.359L198.128 367.406L200.91 363.082H202.885L199.001 368.856Z" fill="#212121"/>
<path d="M280.4 423.081H277.685V425.793H276.502V423.081H273.787V421.885H276.502V419.173H277.685V421.885H280.4V423.081ZM54.6885 423.403V422.06H58.7335V423.403H54.6885ZM166.255 420.124C166.726 420.124 167.144 420.232 167.51 420.449C167.883 420.665 168.174 420.967 168.383 421.355C168.593 421.743 168.697 422.187 168.697 422.687C168.697 423.194 168.581 423.649 168.35 424.052C168.126 424.455 167.809 424.772 167.398 425.003C166.976 425.232 166.501 425.347 166.02 425.339C165.012 425.339 164.236 425 163.691 424.321C163.146 423.634 162.873 422.661 162.873 421.4C162.873 420.52 163 419.762 163.254 419.128C163.515 418.494 163.889 418.009 164.374 417.673C164.867 417.338 165.449 417.17 166.121 417.17C166.599 417.17 167.062 417.252 167.51 417.416C167.948 417.562 168.351 417.794 168.697 418.099L168.204 419.151C167.502 418.599 166.827 418.323 166.177 418.323C165.587 418.323 165.132 418.572 164.811 419.072C164.49 419.572 164.322 420.288 164.307 421.221C164.478 420.885 164.74 420.62 165.091 420.426C165.446 420.224 165.848 420.12 166.255 420.124ZM165.953 424.198C166.364 424.198 166.692 424.063 166.939 423.795C167.193 423.526 167.319 423.172 167.319 422.732C167.319 422.291 167.193 421.941 166.939 421.68C166.692 421.411 166.36 421.277 165.942 421.277C165.524 421.277 165.184 421.411 164.923 421.68C164.661 421.948 164.531 422.299 164.531 422.732C164.531 423.164 164.661 423.519 164.923 423.795C165.191 424.063 165.535 424.198 165.953 424.198Z" fill="#949494"/>
<path fill-rule="evenodd" clip-rule="evenodd" d="M281.121 403.417H54.8809V400.06H281.121V403.417Z" fill="#D8D8D8"/>
<path fill-rule="evenodd" clip-rule="evenodd" d="M178.081 403.417H54.8809V400.06H178.081V403.417Z" fill="#FF878B"/>
<path d="M194.88 401.179C194.88 407.05 190.116 411.81 184.24 411.81C178.363 411.81 173.6 407.05 173.6 401.179C173.6 395.307 178.363 390.548 184.24 390.548C190.116 390.548 194.88 395.307 194.88 401.179Z" fill="#FF878B"/>
<path d="M190.4 401.179C190.4 401.988 190.24 402.789 189.93 403.535C189.62 404.282 189.167 404.961 188.595 405.532C188.023 406.104 187.344 406.557 186.596 406.866C185.849 407.175 185.049 407.334 184.24 407.333C183.432 407.334 182.631 407.175 181.884 406.866C181.137 406.557 180.458 406.104 179.886 405.532C179.314 404.961 178.86 404.282 178.55 403.535C178.24 402.789 178.08 401.988 178.08 401.179C178.081 399.546 178.73 397.981 179.885 396.826C181.041 395.672 182.607 395.024 184.24 395.024C185.873 395.024 187.439 395.672 188.595 396.826C189.75 397.981 190.399 399.546 190.4 401.179Z" fill="#F0F0F0"/>
<path d="M59.3601 50.357H43.6801C40.5441 50.357 38.0801 47.895 38.0801 44.762C38.0801 41.629 40.5441 39.166 43.6801 39.166H59.3601C62.4961 39.166 64.9601 41.629 64.9601 44.762C64.9601 47.895 62.3841 50.357 59.3601 50.357Z" fill="#373737"/>
<path d="M59.3599 49.2391C61.8249 49.2391 63.8399 47.2241 63.8399 44.7621C63.8399 42.3001 61.8249 40.2861 59.3599 40.2861C56.8969 40.2861 54.8799 42.3001 54.8799 44.7621C54.8799 47.2241 56.8969 49.2391 59.3599 49.2391Z" fill="#FF878B"/>
<path d="M17.8419 49.3389C17.0719 49.3389 16.4009 49.1749 15.8259 48.8469C15.2574 48.5102 14.7984 48.0164 14.5039 47.4249C14.1979 46.8059 14.0439 46.0789 14.0439 45.2429C14.0439 44.4149 14.1979 43.6949 14.5039 43.0829C14.7878 42.4886 15.2443 41.9937 15.8139 41.6629C16.3899 41.3339 17.0649 41.1699 17.8419 41.1699C18.6179 41.1699 19.2899 41.3339 19.8579 41.6619C20.4314 41.9888 20.8891 42.4857 21.1679 43.0839C21.4739 43.6949 21.6279 44.4149 21.6279 45.2439C21.6279 46.0789 21.4739 46.8059 21.1679 47.4249C20.8803 48.0172 20.4247 48.5117 19.8579 48.8469C19.2899 49.1749 18.6179 49.3389 17.8419 49.3389ZM17.8419 48.1859C18.5809 48.1859 19.1559 47.9329 19.5669 47.4259C19.9769 46.9179 20.1829 46.1909 20.1829 45.2429C20.1829 44.3029 19.9769 43.5829 19.5669 43.0829C19.1559 42.5759 18.5809 42.3229 17.8419 42.3229C17.1019 42.3229 16.5279 42.5729 16.1169 43.0729C15.7069 43.5729 15.5009 44.2959 15.5009 45.2429C15.5009 46.1909 15.7059 46.9179 16.1169 47.4249C16.5269 47.9329 17.1019 48.1859 17.8419 48.1859ZM23.1069 49.2379V41.2699H28.3149V42.4229H24.5409V44.6049H28.0909V45.7689H24.5409V49.2389L23.1069 49.2379ZM29.5159 49.2379V41.2699H34.7239V42.4229H30.9489V44.6049H34.4989V45.7689H30.9489V49.2389L29.5159 49.2379Z" fill="#424242"/>
<path d="M72.7228 49.3389C71.9528 49.3389 71.2808 49.1749 70.7068 48.8469C70.1383 48.5102 69.6792 48.0164 69.3848 47.4249C69.0788 46.8059 68.9248 46.0789 68.9248 45.2429C68.9248 44.4149 69.0788 43.6949 69.3848 43.0829C69.6686 42.4885 70.1252 41.9936 70.6948 41.6629C71.2698 41.3339 71.9458 41.1699 72.7228 41.1699C73.4988 41.1699 74.1708 41.3339 74.7388 41.6619C75.3122 41.9888 75.7699 42.4857 76.0488 43.0839C76.3548 43.6949 76.5088 44.4149 76.5088 45.2439C76.5088 46.0789 76.3548 46.8059 76.0488 47.4249C75.7611 48.0172 75.3055 48.5117 74.7388 48.8469C74.1708 49.1749 73.4988 49.3389 72.7228 49.3389ZM72.7228 48.1859C73.4618 48.1859 74.0368 47.9329 74.4468 47.4259C74.8578 46.9179 75.0628 46.1909 75.0628 45.2429C75.0628 44.3029 74.8578 43.5829 74.4468 43.0829C74.0368 42.5759 73.4618 42.3229 72.7228 42.3229C71.9828 42.3229 71.4078 42.5729 70.9978 43.0729C70.5878 43.5729 70.3818 44.2959 70.3818 45.2429C70.3818 46.1909 70.5868 46.9179 70.9978 47.4249C71.4078 47.9329 71.9828 48.1859 72.7228 48.1859ZM83.3528 41.2699H84.7078V49.2379H83.6328L79.3328 43.6539V49.2379H77.9878V41.2699H79.0628L83.3528 46.8429V41.2699ZM260.076 49.2379L259.281 47.3689H255.383L254.577 49.2389H253.121L256.727 41.2709H257.903L261.521 49.2379H260.076ZM255.865 46.2499H258.799L257.332 42.8369L255.865 46.2499Z" fill="#FF878B"/>
<path d="M268.576 49.8975H267.4L270.301 40.8105H271.5L268.576 49.8975ZM282.41 45.1195C282.872 45.2535 283.227 45.4895 283.474 45.8245C283.727 46.1605 283.854 46.5745 283.854 47.0665C283.854 47.7455 283.612 48.2785 283.126 48.6665C282.648 49.0465 281.98 49.2375 281.122 49.2375H277.504V41.2695H281.01C281.831 41.2695 282.477 41.4565 282.947 41.8295C283.418 42.1955 283.653 42.7025 283.653 43.3515C283.653 43.7695 283.541 44.1345 283.317 44.4485C283.092 44.7607 282.775 44.9952 282.41 45.1195ZM278.915 44.6275H280.774C281.775 44.6275 282.275 44.2545 282.275 43.5075C282.275 43.1345 282.152 42.8555 281.906 42.6685C281.659 42.4825 281.282 42.3885 280.774 42.3885H278.915V44.6275ZM280.965 48.1185C281.487 48.1185 281.868 48.0255 282.107 47.8385C282.354 47.6525 282.477 47.3585 282.477 46.9545C282.477 46.5445 282.354 46.2425 282.107 46.0485C281.868 45.8545 281.487 45.7575 280.965 45.7575H278.915V48.1185H280.965ZM22.4004 264.186C21.7074 264.186 21.1034 264.038 20.5854 263.743C20.0739 263.44 19.6607 262.996 19.3954 262.464C19.1204 261.907 18.9824 261.252 18.9824 260.5C18.9824 259.755 19.1204 259.107 19.3964 258.556C19.6521 258.02 20.0634 257.574 20.5764 257.277C21.0934 256.982 21.7014 256.834 22.3994 256.834C23.0994 256.834 23.7034 256.982 24.2144 257.277C24.7314 257.573 25.1244 257.999 25.3944 258.556C25.6694 259.107 25.8074 259.755 25.8074 260.5C25.8074 261.252 25.6694 261.907 25.3934 262.464C25.1184 263.014 24.7254 263.441 24.2134 263.743C23.7034 264.038 23.0994 264.186 22.4004 264.186ZM22.4004 263.149C23.0654 263.149 23.5824 262.92 23.9524 262.464C24.3224 262.007 24.5064 261.353 24.5064 260.5C24.5064 259.654 24.3224 259.006 23.9524 258.556C23.5824 258.1 23.0654 257.871 22.3994 257.871C21.7344 257.871 21.2174 258.096 20.8474 258.546C20.4774 258.996 20.2934 259.647 20.2934 260.5C20.2934 261.353 20.4784 262.007 20.8474 262.464C21.2174 262.92 21.7354 263.149 22.4004 263.149ZM30.1024 264.186C29.1144 264.186 28.3644 263.934 27.8544 263.431C27.3504 262.92 27.0984 262.175 27.0984 261.195V256.925H28.3784V261.265C28.3784 261.883 28.5224 262.353 28.8114 262.675C29.1014 262.991 29.5314 263.149 30.1014 263.149C30.6594 263.149 31.0834 262.988 31.3714 262.665C31.6674 262.343 31.8154 261.876 31.8154 261.265V256.925H33.0954V261.195C33.0954 262.168 32.8404 262.91 32.3294 263.421C31.8194 263.931 31.0764 264.186 30.1024 264.186ZM36.2844 257.992H33.9454V256.925H39.9434V257.992H37.5944V264.095H36.2844V257.992ZM40.8424 256.925H43.9564C44.7294 256.925 45.3314 257.113 45.7614 257.489C46.1914 257.858 46.4064 258.365 46.4064 259.009C46.4064 259.654 46.1884 260.164 45.7514 260.54C45.3214 260.916 44.7234 261.104 43.9574 261.104H42.1424V264.095H40.8424V256.925ZM43.8054 260.097C44.2554 260.097 44.5954 260.006 44.8234 259.825C45.0594 259.637 45.1764 259.369 45.1764 259.019C45.1764 258.664 45.0624 258.395 44.8334 258.214C44.6054 258.026 44.2634 257.932 43.8054 257.932H42.1424V260.097H43.8054ZM50.5174 264.186C49.5304 264.186 48.7804 263.934 48.2704 263.431C47.7664 262.92 47.5144 262.175 47.5144 261.195V256.925H48.7944V261.265C48.7944 261.883 48.9384 262.353 49.2274 262.675C49.5174 262.991 49.9474 263.149 50.5174 263.149C51.0754 263.149 51.4994 262.988 51.7874 262.665C52.0834 262.343 52.2314 261.876 52.2314 261.265V256.925H53.5114V261.195C53.5114 262.168 53.2564 262.91 52.7454 263.421C52.2354 263.931 51.4924 264.186 50.5184 264.186H50.5174ZM56.7004 257.992H54.3604V256.925H60.3584V257.992H58.0104V264.095H56.7004V257.992ZM28.1874 79.5135V80.5715H23.7624V79.5135H25.3344V74.8905L23.8734 75.7675V74.6085L25.8684 73.4005H26.6244V79.5135H28.1874ZM31.7004 80.6615C30.8484 80.6615 30.1964 80.3495 29.7454 79.7255C29.3024 79.0945 29.0804 78.1775 29.0804 76.9755C29.0804 75.7935 29.3024 74.8905 29.7454 74.2655C30.1954 73.6415 30.8474 73.3295 31.7014 73.3295C32.5544 73.3295 33.2034 73.6415 33.6464 74.2665C34.0964 74.8845 34.3224 75.7865 34.3224 76.9755C34.3224 78.1705 34.0974 79.0835 33.6464 79.7155C33.2034 80.3455 32.5534 80.6615 31.7004 80.6615ZM31.7004 79.6445C32.1654 79.6445 32.5004 79.4335 32.7094 79.0105C32.9244 78.5805 33.0314 77.9025 33.0314 76.9755C33.0314 76.0625 32.9244 75.3975 32.7094 74.9815C32.5014 74.5585 32.1654 74.3465 31.7014 74.3465C31.2374 74.3465 30.8984 74.5585 30.6834 74.9815C30.4744 75.3975 30.3704 76.0615 30.3704 76.9755C30.3704 77.9025 30.4744 78.5805 30.6834 79.0105C30.8984 79.4335 31.2364 79.6445 31.7004 79.6445ZM32.0834 97.2505C32.5334 97.2505 32.9304 97.3485 33.2734 97.5425C33.6154 97.7305 33.8814 97.9995 34.0694 98.3485C34.2574 98.6905 34.3514 99.0885 34.3514 99.5365C34.3601 99.9745 34.2487 100.406 34.0294 100.786C33.8074 101.148 33.4851 101.438 33.1014 101.622C32.6984 101.817 32.2314 101.914 31.7014 101.914C31.2504 101.914 30.8064 101.84 30.3704 101.693C29.9737 101.561 29.607 101.352 29.2914 101.078L29.7244 100.132C30.3764 100.628 31.0424 100.877 31.7204 100.877C32.1704 100.877 32.5134 100.766 32.7494 100.545C32.9904 100.316 33.1114 99.9945 33.1114 99.5775C33.1114 99.1815 32.9874 98.8655 32.7384 98.6305C32.4964 98.3885 32.1704 98.2675 31.7614 98.2675C31.4784 98.2675 31.2134 98.3215 30.9644 98.4295C30.7152 98.53 30.4914 98.6848 30.3094 98.8825H29.5234V94.6625H34.0194V95.6695H30.7934V97.6235C31.1564 97.3745 31.5864 97.2505 32.0834 97.2505ZM31.7004 123.186C30.8474 123.186 30.1964 122.874 29.7454 122.249C29.3024 121.618 29.0804 120.702 29.0804 119.5C29.0804 118.318 29.3024 117.415 29.7454 116.791C30.1954 116.166 30.8474 115.854 31.7014 115.854C32.5544 115.854 33.2034 116.166 33.6464 116.791C34.0964 117.408 34.3224 118.311 34.3224 119.5C34.3224 120.695 34.0974 121.608 33.6464 122.239C33.2034 122.87 32.5534 123.186 31.7004 123.186ZM31.7004 122.169C32.1654 122.169 32.5004 121.957 32.7094 121.534C32.9244 121.105 33.0314 120.426 33.0314 119.5C33.0314 118.587 32.9244 117.922 32.7094 117.506C32.5014 117.083 32.1654 116.871 31.7014 116.871C31.2374 116.871 30.8984 117.083 30.6834 117.506C30.4744 117.922 30.3704 118.587 30.3704 119.5C30.3704 120.426 30.4744 121.105 30.6834 121.534C30.8984 121.957 31.2364 122.169 31.7004 122.169ZM24.9514 141.135H27.9854V142.142H24.9514V141.135ZM32.0834 139.775C32.5334 139.775 32.9304 139.872 33.2734 140.067C33.6154 140.255 33.8814 140.524 34.0694 140.873C34.2574 141.215 34.3514 141.611 34.3514 142.061C34.3514 142.531 34.2444 142.947 34.0294 143.31C33.8071 143.672 33.4848 143.962 33.1014 144.146C32.6984 144.341 32.2314 144.438 31.7014 144.438C31.2504 144.438 30.8064 144.364 30.3694 144.216C29.9729 144.084 29.6065 143.876 29.2914 143.602L29.7244 142.655C30.3764 143.152 31.0414 143.401 31.7204 143.401C32.1704 143.401 32.5134 143.29 32.7484 143.068C32.9904 142.84 33.1114 142.518 33.1114 142.101C33.1114 141.705 32.9874 141.39 32.7384 141.155C32.4964 140.913 32.1704 140.792 31.7614 140.792C31.4784 140.792 31.2134 140.846 30.9644 140.953C30.7156 141.054 30.492 141.208 30.3094 141.406H29.5234V137.187H34.0194V138.194H30.7934V140.148C31.1564 139.899 31.5864 139.775 32.0834 139.775ZM18.9084 162.396H21.9424V163.404H18.9084V162.396ZM28.1874 164.562V165.619H23.7624V164.562H25.3344V159.939L23.8734 160.815V159.657L25.8684 158.448H26.6244V164.562H28.1874ZM31.7004 165.71C30.8474 165.71 30.1964 165.398 29.7454 164.773C29.3024 164.142 29.0804 163.226 29.0804 162.024C29.0804 160.842 29.3024 159.939 29.7454 159.315C30.1954 158.69 30.8474 158.378 31.7014 158.378C32.5544 158.378 33.2034 158.69 33.6464 159.315C34.0964 159.932 34.3224 160.835 34.3224 162.024C34.3224 163.219 34.0974 164.132 33.6464 164.763C33.2034 165.394 32.5534 165.71 31.7004 165.71ZM31.7004 164.693C32.1654 164.693 32.5004 164.481 32.7094 164.058C32.9244 163.629 33.0314 162.95 33.0314 162.024C33.0314 161.111 32.9244 160.446 32.7094 160.03C32.5014 159.607 32.1654 159.395 31.7014 159.395C31.2374 159.395 30.8984 159.607 30.6834 160.03C30.4744 160.446 30.3704 161.111 30.3704 162.024C30.3704 162.95 30.4744 163.629 30.6834 164.058C30.8984 164.481 31.2364 164.693 31.7004 164.693ZM18.9084 183.658H21.9424V184.666H18.9084V183.658ZM28.1874 185.824V186.881H23.7624V185.824H25.3344V181.201L23.8734 182.077V180.919L25.8684 179.71H26.6244V185.824H28.1874ZM32.0834 182.299C32.5334 182.299 32.9304 182.396 33.2734 182.591C33.6154 182.779 33.8814 183.047 34.0694 183.397C34.2574 183.739 34.3514 184.135 34.3514 184.585C34.3514 185.055 34.2444 185.471 34.0294 185.834C33.8071 186.196 33.4848 186.486 33.1014 186.67C32.6984 186.865 32.2314 186.962 31.7014 186.962C31.2482 186.961 30.7982 186.886 30.3694 186.74C29.9729 186.608 29.6065 186.4 29.2914 186.126L29.7244 185.179C30.3764 185.676 31.0414 185.925 31.7204 185.925C32.1704 185.925 32.5134 185.814 32.7484 185.592C32.9904 185.364 33.1114 185.042 33.1114 184.625C33.1114 184.229 32.9874 183.914 32.7384 183.679C32.4964 183.437 32.1704 183.316 31.7614 183.316C31.4784 183.316 31.2134 183.37 30.9644 183.477C30.7156 183.578 30.492 183.732 30.3094 183.93H29.5234V179.71H34.0194V180.718H30.7934V182.671C31.1564 182.423 31.5864 182.299 32.0834 182.299ZM18.8984 204.92H21.9334V205.927H18.8984V204.92ZM28.1574 207.086V208.143H23.3394V207.186L25.7784 204.558C26.0674 204.242 26.2784 203.953 26.4134 203.692C26.5474 203.43 26.6154 203.171 26.6154 202.916C26.6154 202.587 26.5174 202.339 26.3224 202.171C26.1344 202.003 25.8624 201.919 25.5064 201.919C24.8744 201.919 24.2264 202.167 23.5604 202.664L23.1274 201.718C23.4094 201.462 23.7724 201.261 24.2164 201.113C24.6594 200.959 25.1064 200.882 25.5564 200.882C26.2764 200.882 26.8434 201.06 27.2604 201.415C27.6834 201.765 27.8954 202.238 27.8954 202.835C27.8954 203.245 27.8054 203.631 27.6234 203.994C27.4484 204.356 27.1534 204.762 26.7364 205.212L24.9724 207.086H28.1574ZM31.7004 208.234C30.8474 208.234 30.1964 207.922 29.7454 207.297C29.3024 206.666 29.0804 205.749 29.0804 204.548C29.0804 203.366 29.3024 202.463 29.7454 201.838C30.1954 201.214 30.8474 200.902 31.7014 200.902C32.5544 200.902 33.2034 201.214 33.6464 201.838C34.0964 202.456 34.3224 203.359 34.3224 204.548C34.3224 205.743 34.0964 206.656 33.6464 207.287C33.2034 207.918 32.5534 208.234 31.7004 208.234ZM31.7004 207.217C32.1644 207.217 32.5004 207.005 32.7094 206.582C32.9244 206.152 33.0314 205.474 33.0314 204.548C33.0314 203.634 32.9244 202.97 32.7094 202.553C32.5004 202.13 32.1644 201.919 31.7014 201.919C31.2374 201.919 30.8984 202.13 30.6834 202.553C30.4744 202.97 30.3704 203.634 30.3704 204.548C30.3704 205.474 30.4744 206.152 30.6834 206.582C30.8984 207.005 31.2364 207.217 31.7004 207.217ZM18.8984 226.182H21.9334V227.189H18.8984V226.182ZM28.1574 228.348V229.405H23.3394V228.448L25.7784 225.82C26.0674 225.504 26.2784 225.215 26.4134 224.953C26.5419 224.714 26.6112 224.448 26.6154 224.178C26.6154 223.849 26.5174 223.601 26.3224 223.433C26.1344 223.265 25.8624 223.181 25.5064 223.181C24.8744 223.181 24.2264 223.429 23.5604 223.926L23.1274 222.979C23.4094 222.724 23.7724 222.523 24.2164 222.375C24.6594 222.221 25.1064 222.144 25.5564 222.144C26.2764 222.144 26.8434 222.321 27.2604 222.677C27.6834 223.026 27.8954 223.5 27.8954 224.097C27.8954 224.507 27.8054 224.893 27.6234 225.256C27.4484 225.618 27.1534 226.024 26.7364 226.474L24.9724 228.348H28.1574ZM32.0834 224.823C32.5334 224.823 32.9304 224.92 33.2734 225.115C33.6154 225.303 33.8814 225.571 34.0694 225.92C34.2574 226.263 34.3514 226.659 34.3514 227.109C34.3514 227.579 34.2444 227.995 34.0294 228.358C33.8068 228.72 33.4847 229.01 33.1014 229.194C32.6984 229.388 32.2314 229.486 31.7014 229.486C31.2486 229.485 30.7989 229.41 30.3704 229.264C29.9736 229.132 29.6068 228.924 29.2914 228.65L29.7244 227.703C30.3764 228.2 31.0424 228.448 31.7204 228.448C32.1704 228.448 32.5134 228.337 32.7494 228.116C32.9904 227.888 33.1114 227.565 33.1114 227.149C33.1114 226.753 32.9874 226.437 32.7384 226.202C32.4964 225.961 32.1714 225.84 31.7614 225.84C31.4784 225.84 31.2134 225.893 30.9644 226.001C30.7156 226.102 30.492 226.256 30.3094 226.454H29.5234V222.234H34.0194V223.241H30.7934V225.195C31.1564 224.947 31.5864 224.823 32.0834 224.823ZM41.4944 276.496C40.6404 276.496 39.9894 276.183 39.5384 275.559C39.0954 274.928 38.8734 274.011 38.8734 272.81C38.8734 271.628 39.0954 270.725 39.5384 270.1C39.9884 269.476 40.6404 269.164 41.4944 269.164C42.3474 269.164 42.9964 269.476 43.4394 270.1C43.8894 270.718 44.1154 271.621 44.1154 272.81C44.1154 274.005 43.8894 274.918 43.4394 275.549C42.9964 276.18 42.3474 276.496 41.4944 276.496ZM41.4944 275.478C41.9584 275.478 42.2944 275.267 42.5024 274.844C42.7174 274.414 42.8244 273.736 42.8244 272.81C42.8244 271.896 42.7174 271.232 42.5024 270.815C42.2934 270.392 41.9584 270.181 41.4944 270.181C41.0304 270.181 40.6914 270.392 40.4764 270.815C40.2674 271.232 40.1634 271.896 40.1634 272.81C40.1634 273.736 40.2674 274.414 40.4764 274.844C40.6914 275.267 41.0304 275.478 41.4944 275.478ZM52.8344 268.992V276.405H51.5944V275.589C51.4412 275.869 51.2103 276.1 50.9294 276.254C50.6245 276.412 50.2849 276.491 49.9414 276.486C49.5054 276.486 49.1154 276.375 48.7724 276.153C48.4218 275.922 48.1427 275.598 47.9664 275.217C47.7721 274.776 47.6759 274.298 47.6844 273.817C47.6844 273.293 47.7784 272.833 47.9664 272.437C48.138 272.058 48.4164 271.738 48.7676 271.516C49.1187 271.294 49.5271 271.18 49.9424 271.188C50.3044 271.188 50.6274 271.265 50.9094 271.42C51.1994 271.567 51.4194 271.779 51.5754 272.054V268.992H52.8344ZM50.2744 275.499C50.6914 275.499 51.0144 275.354 51.2424 275.066C51.4774 274.777 51.5954 274.367 51.5954 273.837C51.5954 273.306 51.4804 272.897 51.2524 272.608C51.0234 272.319 50.7014 272.175 50.2844 272.175C49.8614 272.175 49.5324 272.319 49.2964 272.608C49.0684 272.89 48.9544 273.293 48.9544 273.817C48.9544 274.347 49.0684 274.76 49.2964 275.055C49.5324 275.351 49.8584 275.499 50.2744 275.499ZM58.7124 272.699C59.1294 272.82 59.4484 273.031 59.6694 273.333C59.8984 273.635 60.0124 274.008 60.0124 274.451C60.0124 275.062 59.7944 275.542 59.3574 275.891C58.9274 276.234 58.3254 276.405 57.5534 276.405H54.2974V269.234H57.4524C58.1924 269.234 58.7724 269.402 59.1964 269.738C59.6194 270.067 59.8314 270.523 59.8314 271.107C59.8314 271.483 59.7304 271.812 59.5284 272.094C59.3259 272.375 59.0407 272.587 58.7124 272.699ZM55.5674 272.256H57.2404C58.1404 272.256 58.5914 271.92 58.5914 271.248C58.5914 270.913 58.4814 270.661 58.2584 270.493C58.0374 270.325 57.6984 270.241 57.2404 270.241H55.5674V272.256ZM57.4124 275.398C57.8824 275.398 58.2254 275.314 58.4404 275.146C58.6614 274.978 58.7724 274.713 58.7724 274.35C58.7724 273.981 58.6624 273.709 58.4404 273.535C58.2254 273.36 57.8824 273.273 57.4124 273.273H55.5674V275.398H57.4124Z" fill="#949494"/>
<path fill-rule="evenodd" clip-rule="evenodd" d="M59.36 76.0957V227.167H56V76.0957H59.36Z" fill="#424242"/>
<path fill-rule="evenodd" clip-rule="evenodd" d="M59.36 117.695V227.167H56V117.695H59.36Z" fill="#FF878B"/>
<path d="M57.681 108.548C63.557 108.548 68.321 113.307 68.321 119.179C68.321 125.05 63.557 129.81 57.681 129.81C51.805 129.81 47.041 125.05 47.041 119.179C47.041 113.307 51.805 108.548 57.681 108.548Z" fill="#FF878B"/>
<path d="M57.6815 113.024C59.3145 113.024 60.8809 113.672 62.0361 114.826C63.1913 115.981 63.8407 117.546 63.8415 119.179C63.8411 119.988 63.6814 120.789 63.3717 121.535C63.0619 122.282 62.608 122.961 62.036 123.532C61.464 124.104 60.785 124.557 60.0379 124.866C59.2907 125.175 58.49 125.334 57.6815 125.333C56.8729 125.334 56.0722 125.175 55.3251 124.866C54.5779 124.557 53.899 124.104 53.327 123.532C52.7549 122.961 52.3011 122.282 51.9913 121.535C51.6815 120.789 51.5219 119.988 51.5215 119.179C51.5223 117.546 52.1717 115.981 53.3269 114.826C54.4821 113.672 56.0485 113.024 57.6815 113.024Z" fill="#212121"/>
<path d="M260.959 160.024C260.959 211.321 219.339 252.905 167.999 252.905C116.659 252.905 75.0391 211.321 75.0391 160.024C75.0391 108.727 116.66 67.1426 168 67.1426C219.34 67.1426 260.959 108.727 260.959 160.024Z" fill="black"/>
<path d="M112.216 228.646C103.199 221.33 95.7111 212.309 90.1816 202.098C84.6521 191.887 81.189 180.687 79.9902 169.137L84.3902 168.681C85.5293 179.653 88.8194 190.294 94.0725 199.994C99.3256 209.695 106.439 218.265 115.005 225.215L112.216 228.646ZM133.971 78.419C155.634 69.4013 179.99 69.3509 201.69 78.279L200.006 82.366C179.391 73.8846 156.252 73.9325 135.672 82.499L133.971 78.419ZM255.992 169.284C254.774 180.832 251.292 192.027 245.745 202.229C240.199 212.43 232.696 221.439 223.666 228.74L220.883 225.304C229.461 218.368 236.589 209.81 241.858 200.118C247.128 190.426 250.436 179.792 251.593 168.821L255.992 169.284Z" fill="#FF878B"/>
<path fill-rule="evenodd" clip-rule="evenodd" d="M163.551 100.525C165.085 98.0608 168.674 98.0608 170.208 100.525L223.521 186.151C225.145 188.76 223.267 192.136 220.192 192.136H113.567C110.492 192.136 108.614 188.76 110.238 186.151L163.551 100.525ZM169.257 101.116C168.161 99.3558 165.598 99.3558 164.502 101.116L111.189 186.742C110.029 188.605 111.37 191.017 113.567 191.017H220.192C222.389 191.017 223.73 188.605 222.57 186.742L169.257 101.116Z" fill="#949494"/>
<path d="M190.745 202.628C190.117 202.628 189.568 202.494 189.096 202.225C188.633 201.96 188.259 201.565 188.021 201.088C187.77 200.593 187.645 200.014 187.645 199.351C187.645 198.695 187.77 198.122 188.021 197.633C188.255 197.154 188.63 196.757 189.096 196.496C189.568 196.227 190.117 196.093 190.745 196.093C191.175 196.093 191.578 196.161 191.954 196.299C192.337 196.43 192.653 196.615 192.904 196.854L192.528 197.695C192.272 197.48 191.981 197.31 191.668 197.194C191.378 197.085 191.072 197.03 190.763 197.033C190.147 197.033 189.669 197.233 189.329 197.633C188.995 198.032 188.827 198.605 188.827 199.351C188.827 200.103 188.995 200.682 189.329 201.088C189.664 201.488 190.141 201.688 190.763 201.688C191.085 201.688 191.387 201.637 191.668 201.536C191.954 201.428 192.241 201.258 192.528 201.026L192.904 201.867C192.63 202.119 192.306 202.312 191.954 202.431C191.564 202.564 191.156 202.631 190.745 202.628ZM193.984 202.547V196.173H195.14V201.598H198.124V202.547H193.984ZM203.82 202.547L203.184 201.052H200.066L199.42 202.547H198.256L201.141 196.173H202.082L204.976 202.547H203.82ZM200.451 200.157H202.798L201.625 197.427L200.451 200.157ZM210.916 202.547H209.698L208.882 200.426C208.811 200.229 208.7 200.092 208.551 200.014C208.401 199.936 208.207 199.898 207.968 199.898H206.812V202.547H205.666V196.173H208.398C209.121 196.173 209.671 196.332 210.047 196.648C210.423 196.964 210.612 197.418 210.612 198.009C210.612 198.432 210.498 198.793 210.271 199.092C210.05 199.384 209.733 199.593 209.321 199.718C209.698 199.796 209.969 200.059 210.137 200.506L210.916 202.547ZM208.237 199.002C208.673 199.002 208.996 198.922 209.205 198.761C209.414 198.599 209.518 198.355 209.518 198.026C209.518 197.704 209.414 197.465 209.205 197.31C209.002 197.149 208.679 197.069 208.237 197.069H206.795V199.002H208.237ZM211.957 202.547V196.173H213.113V202.547H211.957ZM215.991 202.547V197.122H213.912V196.173H219.243V197.122H217.155V202.547H215.991Z" fill="#949494"/>
<path d="M225.469 196.173L222.88 200.023V202.547H221.724V200.023L219.135 196.173H220.452L222.298 199.056L224.152 196.173H225.469ZM114.374 199.253C114.744 199.36 115.028 199.548 115.225 199.817C115.428 200.086 115.53 200.417 115.53 200.811C115.53 201.354 115.335 201.781 114.947 202.091C114.565 202.395 114.03 202.547 113.343 202.547H110.449V196.173H113.254C113.911 196.173 114.427 196.323 114.804 196.621C115.18 196.913 115.368 197.319 115.368 197.838C115.368 198.173 115.279 198.465 115.099 198.716C114.919 198.966 114.666 199.154 114.374 199.253ZM111.578 198.859H113.066C113.866 198.859 114.266 198.561 114.266 197.964C114.266 197.665 114.168 197.442 113.97 197.292C113.773 197.143 113.472 197.069 113.066 197.069H111.578V198.859ZM113.218 201.652C113.636 201.652 113.941 201.578 114.132 201.428C114.329 201.279 114.427 201.043 114.427 200.721C114.427 200.393 114.329 200.151 114.132 199.996C113.941 199.841 113.636 199.763 113.218 199.763H111.578V201.652H113.218ZM119.468 202.628C118.853 202.628 118.315 202.497 117.855 202.234C117.4 201.965 117.033 201.57 116.798 201.097C116.553 200.602 116.43 200.02 116.43 199.351C116.43 198.689 116.553 198.113 116.798 197.624C117.025 197.148 117.39 196.751 117.846 196.487C118.306 196.224 118.847 196.093 119.468 196.093C120.089 196.093 120.627 196.224 121.081 196.487C121.541 196.749 121.89 197.128 122.129 197.624C122.374 198.113 122.496 198.689 122.496 199.351C122.496 200.02 122.374 200.602 122.129 201.097C121.884 201.587 121.535 201.966 121.081 202.234C120.627 202.497 120.089 202.628 119.468 202.628ZM119.468 201.706C120.059 201.706 120.519 201.503 120.848 201.097C121.176 200.691 121.34 200.109 121.34 199.351C121.34 198.599 121.176 198.024 120.848 197.624C120.519 197.218 120.059 197.015 119.468 197.015C118.876 197.015 118.417 197.215 118.088 197.615C117.759 198.015 117.595 198.593 117.595 199.351C117.595 200.109 117.759 200.691 118.088 201.097C118.417 201.503 118.876 201.706 119.468 201.706ZM123.68 196.173H126.028C127.073 196.173 127.882 196.451 128.456 197.006C129.035 197.561 129.325 198.343 129.325 199.351C129.325 200.366 129.035 201.154 128.456 201.715C127.882 202.27 127.073 202.547 126.028 202.547H123.68V196.173ZM125.956 201.607C127.425 201.607 128.16 200.855 128.16 199.351C128.16 197.859 127.425 197.113 125.956 197.113H124.836V201.607H125.956ZM135.424 196.173L132.835 200.023V202.547H131.679V200.023L129.09 196.173H130.407L132.252 199.056L134.107 196.173H135.424ZM164.033 92.505H160.915L160.27 94H159.105L161.991 87.626H162.931L165.825 94H164.67L164.033 92.505ZM163.648 91.61L162.474 88.879L161.301 91.61H163.648ZM166.516 87.626H167.672V94H166.516V87.626ZM174.303 94H173.085L172.27 91.878C172.198 91.681 172.087 91.544 171.938 91.466C171.789 91.389 171.595 91.35 171.356 91.35H170.2V94H169.053V87.626H171.786C172.508 87.626 173.058 87.784 173.434 88.1C173.811 88.417 173.999 88.87 173.999 89.461C173.999 89.885 173.885 90.246 173.658 90.544C173.437 90.837 173.121 91.046 172.709 91.171C173.085 91.248 173.357 91.511 173.524 91.959L174.303 94ZM171.624 90.455C172.06 90.455 172.383 90.374 172.592 90.213C172.801 90.052 172.906 89.807 172.906 89.479C172.906 89.157 172.801 88.918 172.592 88.763C172.389 88.602 172.066 88.521 171.624 88.521H170.182V90.455H171.624Z" fill="#949494"/>
<path d="M173.598 151.071C173.598 151.954 173.424 152.827 173.086 153.642C172.748 154.457 172.253 155.197 171.629 155.821C171.005 156.444 170.264 156.939 169.449 157.276C168.634 157.613 167.76 157.787 166.878 157.786C165.097 157.787 163.388 157.08 162.128 155.821C160.867 154.561 160.159 152.853 160.158 151.071C160.159 150.189 160.333 149.316 160.671 148.501C161.009 147.686 161.504 146.946 162.128 146.323C162.752 145.699 163.492 145.205 164.307 144.868C165.123 144.53 165.996 144.357 166.878 144.357C167.76 144.357 168.634 144.53 169.449 144.868C170.264 145.205 171.005 145.699 171.629 146.323C172.253 146.946 172.748 147.686 173.086 148.501C173.424 149.316 173.598 150.189 173.598 151.071Z" fill="#F0F0F0"/>
<path d="M315.06 80.6621C314.207 80.6621 313.555 80.3501 313.105 79.7261C312.661 79.0951 312.439 78.1781 312.439 76.9761C312.439 75.7941 312.661 74.8911 313.105 74.2661C313.555 73.6421 314.207 73.3301 315.06 73.3301C315.914 73.3301 316.562 73.6421 317.006 74.2671C317.456 74.8851 317.681 75.7871 317.681 76.9761C317.681 78.1711 317.456 79.0841 317.006 79.7161C316.562 80.3461 315.914 80.6621 315.06 80.6621ZM315.06 79.6451C315.524 79.6451 315.86 79.4341 316.068 79.0111C316.283 78.5811 316.391 77.9031 316.391 76.9761C316.391 76.0631 316.283 75.3981 316.068 74.9821C315.86 74.5591 315.524 74.3471 315.06 74.3471C314.597 74.3471 314.257 74.5591 314.042 74.9821C313.834 75.3981 313.73 76.0621 313.73 76.9761C313.73 77.9031 313.834 78.5811 314.042 79.0111C314.257 79.4341 314.597 79.6451 315.06 79.6451ZM302.268 101.968H305.302V102.975H302.268V101.968ZM311.546 104.133V105.191H307.121V104.133H308.693V99.5111L307.232 100.387V99.2291L309.228 98.0201H309.984V104.133H311.546ZM315.06 105.281C314.207 105.281 313.555 104.969 313.104 104.345C312.661 103.714 312.439 102.797 312.439 101.595C312.439 100.414 312.661 99.5111 313.104 98.8861C313.555 98.2621 314.207 97.9491 315.06 97.9491C315.913 97.9491 316.562 98.2621 317.005 98.8861C317.456 99.5041 317.681 100.407 317.681 101.595C317.681 102.79 317.456 103.704 317.005 104.335C316.562 104.966 315.913 105.281 315.06 105.281ZM315.06 104.264C315.524 104.264 315.86 104.053 316.068 103.63C316.283 103.2 316.391 102.522 316.391 101.595C316.391 100.682 316.283 100.017 316.068 99.6011C315.86 99.1781 315.524 98.9671 315.06 98.9671C314.596 98.9671 314.257 99.1781 314.042 99.6011C313.834 100.017 313.729 100.682 313.729 101.595C313.729 102.522 313.834 103.2 314.042 103.63C314.257 104.053 314.596 104.264 315.06 104.264ZM302.258 127.594V126.587H305.292V127.594H302.258ZM311.516 128.752V129.81H306.698V128.853L309.137 126.224C309.426 125.909 309.638 125.62 309.772 125.358C309.901 125.12 309.97 124.854 309.974 124.583C309.974 124.254 309.876 124.005 309.681 123.837C309.493 123.67 309.221 123.586 308.865 123.586C308.233 123.586 307.585 123.834 306.92 124.331L306.486 123.384C306.768 123.129 307.131 122.928 307.575 122.78C308.006 122.628 308.459 122.55 308.915 122.548C309.634 122.548 310.202 122.726 310.619 123.082C311.042 123.431 311.254 123.905 311.254 124.502C311.254 124.912 311.163 125.298 310.982 125.66C310.807 126.023 310.511 126.429 310.095 126.879L308.331 128.752H311.516ZM315.06 129.9C314.207 129.9 313.555 129.588 313.105 128.964C312.661 128.333 312.439 127.416 312.439 126.214C312.439 125.033 312.661 124.13 313.105 123.505C313.555 122.881 314.207 122.568 315.06 122.568C315.913 122.568 316.562 122.881 317.005 123.505C317.456 124.123 317.681 125.026 317.681 126.214C317.681 127.409 317.456 128.323 317.005 128.954C316.562 129.585 315.913 129.9 315.06 129.9ZM315.06 128.883C315.524 128.883 315.86 128.672 316.068 128.249C316.283 127.819 316.391 127.141 316.391 126.214C316.391 125.301 316.283 124.636 316.068 124.22C315.86 123.797 315.524 123.586 315.06 123.586C314.596 123.586 314.257 123.797 314.042 124.22C313.834 124.636 313.729 125.301 313.729 126.214C313.729 127.141 313.834 127.819 314.042 128.249C314.257 128.672 314.596 128.883 315.06 128.883ZM302.268 152.213V151.206H305.302V152.213H302.268ZM310.125 150.743C310.548 150.857 310.871 151.065 311.092 151.367C311.321 151.669 311.435 152.042 311.435 152.485C311.435 153.109 311.203 153.603 310.74 153.965C310.283 154.328 309.664 154.509 308.885 154.509C308.401 154.509 307.934 154.435 307.484 154.288C307.079 154.162 306.705 153.952 306.385 153.673L306.829 152.727C307.467 153.224 308.136 153.472 308.834 153.472C309.291 153.472 309.631 153.381 309.853 153.2C310.081 153.019 310.195 152.743 310.195 152.374C310.195 152.012 310.081 151.746 309.853 151.579C309.624 151.404 309.271 151.317 308.794 151.317H307.847V150.279H308.623C309.55 150.279 310.014 149.927 310.014 149.222C310.014 148.893 309.913 148.641 309.711 148.466C309.51 148.292 309.228 148.205 308.865 148.205C308.22 148.205 307.574 148.453 306.929 148.95L306.496 148.003C306.816 147.731 307.186 147.526 307.585 147.399C308.022 147.245 308.482 147.167 308.945 147.167C309.651 147.167 310.212 147.342 310.629 147.691C311.052 148.033 311.264 148.493 311.264 149.071C311.266 149.44 311.157 149.801 310.951 150.108C310.756 150.397 310.481 150.608 310.125 150.743ZM315.06 154.519C314.207 154.519 313.555 154.207 313.104 153.583C312.661 152.952 312.439 152.035 312.439 150.833C312.439 149.652 312.661 148.748 313.104 148.124C313.555 147.5 314.207 147.187 315.06 147.187C315.913 147.187 316.562 147.5 317.005 148.124C317.456 148.742 317.681 149.645 317.681 150.833C317.681 152.028 317.456 152.942 317.005 153.573C316.562 154.204 315.913 154.519 315.06 154.519ZM315.06 153.502C315.524 153.502 315.86 153.291 316.068 152.868C316.283 152.438 316.391 151.76 316.391 150.833C316.391 149.92 316.283 149.255 316.068 148.839C315.86 148.416 315.524 148.205 315.06 148.205C314.596 148.205 314.257 148.416 314.042 148.839C313.834 149.255 313.729 149.92 313.729 150.833C313.729 151.76 313.834 152.438 314.042 152.868C314.257 153.291 314.596 153.502 315.06 153.502ZM302.268 176.832V175.825H305.302V176.832H302.268ZM311.798 176.631V177.648H310.78V179.048H309.51V177.648H306.385V176.681L309.742 171.877H310.78V176.631H311.798ZM307.615 176.631H309.51V173.901L307.615 176.631ZM315.06 179.138C314.207 179.138 313.555 178.826 313.104 178.202C312.661 177.571 312.439 176.654 312.439 175.452C312.439 174.271 312.661 173.367 313.104 172.743C313.555 172.119 314.207 171.806 315.06 171.806C315.913 171.806 316.562 172.119 317.005 172.743C317.456 173.361 317.681 174.264 317.681 175.452C317.681 176.647 317.456 177.561 317.005 178.192C316.562 178.823 315.913 179.138 315.06 179.138ZM315.06 178.121C315.524 178.121 315.86 177.91 316.068 177.487C316.283 177.057 316.391 176.379 316.391 175.452C316.391 174.539 316.283 173.874 316.068 173.458C315.86 173.035 315.524 172.824 315.06 172.824C314.596 172.824 314.257 173.035 314.042 173.458C313.834 173.874 313.729 174.539 313.729 175.452C313.729 176.379 313.834 177.057 314.042 177.487C314.257 177.91 314.596 178.121 315.06 178.121ZM302.268 200.444H305.302V201.451H302.268V200.444ZM309.399 199.084C309.849 199.084 310.246 199.182 310.588 199.376C310.931 199.564 311.197 199.833 311.385 200.182C311.573 200.525 311.667 200.921 311.667 201.371C311.667 201.841 311.559 202.257 311.344 202.619C311.123 202.981 310.801 203.272 310.417 203.455C310.014 203.65 309.547 203.747 309.016 203.747C308.566 203.747 308.122 203.674 307.685 203.526C307.249 203.371 306.889 203.167 306.607 202.912L307.04 201.965C307.692 202.462 308.357 202.71 309.036 202.71C309.486 202.71 309.829 202.599 310.064 202.378C310.306 202.149 310.427 201.827 310.427 201.411C310.427 201.015 310.303 200.699 310.054 200.464C309.812 200.222 309.486 200.102 309.076 200.102C308.794 200.102 308.529 200.155 308.28 200.263C308.031 200.363 307.813 200.515 307.625 200.716H306.839V196.496H311.334V197.503H308.109V199.457C308.472 199.209 308.902 199.084 309.399 199.084ZM315.06 203.758C314.207 203.758 313.555 203.445 313.104 202.821C312.661 202.19 312.439 201.273 312.439 200.071C312.439 198.89 312.661 197.987 313.104 197.362C313.555 196.738 314.207 196.426 315.06 196.426C315.913 196.426 316.562 196.738 317.005 197.362C317.456 197.98 317.681 198.883 317.681 200.071C317.681 201.267 317.456 202.18 317.005 202.811C316.562 203.442 315.913 203.758 315.06 203.758ZM315.06 202.74C315.524 202.74 315.86 202.529 316.068 202.106C316.283 201.676 316.391 200.998 316.391 200.071C316.391 199.158 316.283 198.494 316.068 198.077C315.86 197.654 315.524 197.443 315.06 197.443C314.596 197.443 314.257 197.654 314.042 198.077C313.834 198.494 313.729 199.158 313.729 200.071C313.729 200.998 313.834 201.676 314.042 202.106C314.257 202.529 314.596 202.74 315.06 202.74ZM302.268 226.07V225.063H305.302V226.07H302.268ZM309.459 223.683C309.883 223.683 310.259 223.781 310.588 223.975C310.924 224.17 311.186 224.442 311.375 224.791C311.563 225.14 311.657 225.54 311.657 225.99C311.657 226.446 311.553 226.856 311.344 227.218C311.145 227.578 310.849 227.875 310.488 228.074C310.108 228.28 309.681 228.385 309.248 228.377C308.341 228.377 307.642 228.071 307.151 227.46C306.661 226.842 306.415 225.966 306.415 224.831C306.415 224.039 306.53 223.358 306.758 222.787C306.993 222.216 307.329 221.78 307.766 221.478C308.21 221.175 308.734 221.024 309.338 221.024C309.769 221.024 310.185 221.098 310.588 221.246C310.998 221.387 311.354 221.592 311.657 221.86L311.213 222.807C310.582 222.31 309.974 222.062 309.389 222.062C308.858 222.062 308.448 222.287 308.159 222.737C307.87 223.186 307.719 223.831 307.706 224.67C307.86 224.368 308.095 224.13 308.411 223.955C308.73 223.773 309.092 223.679 309.459 223.683ZM309.187 227.349C309.557 227.349 309.853 227.228 310.074 226.987C310.303 226.745 310.417 226.426 310.417 226.03C310.417 225.634 310.303 225.318 310.074 225.083C309.853 224.841 309.554 224.721 309.177 224.721C308.801 224.721 308.495 224.841 308.26 225.083C308.025 225.325 307.907 225.64 307.907 226.03C307.907 226.419 308.025 226.738 308.26 226.987C308.502 227.228 308.811 227.349 309.187 227.349ZM315.06 228.377C314.207 228.377 313.555 228.064 313.104 227.44C312.661 226.809 312.439 225.892 312.439 224.69C312.439 223.509 312.661 222.606 313.104 221.981C313.555 221.357 314.207 221.045 315.06 221.045C315.913 221.045 316.562 221.357 317.005 221.981C317.456 222.599 317.681 223.502 317.681 224.69C317.681 225.886 317.456 226.799 317.005 227.43C316.562 228.061 315.913 228.377 315.06 228.377ZM315.06 227.359C315.524 227.359 315.86 227.148 316.068 226.725C316.283 226.295 316.391 225.617 316.391 224.69C316.391 223.777 316.283 223.113 316.068 222.696C315.86 222.273 315.524 222.062 315.06 222.062C314.596 222.062 314.257 222.273 314.042 222.696C313.834 223.113 313.729 223.777 313.729 224.69C313.729 225.617 313.834 226.295 314.042 226.725C314.257 227.148 314.596 227.359 315.06 227.359ZM280.777 255.806H282.078V261.909H285.434V262.977H280.777V255.806ZM286.418 255.806H291.216V256.833H287.688V258.817H291.004V259.844H287.688V261.949H291.216V262.977H286.418V255.806ZM298.995 255.806L295.8 262.977H294.741L291.546 255.806H292.896L295.285 261.345L297.674 255.806H298.995ZM299.677 255.806H304.475V256.833H300.947V258.817H304.264V259.844H300.947V261.949H304.475V262.977H299.677V255.806ZM305.672 255.806H306.973V261.909H310.329V262.977H305.672V255.806Z" fill="#949494"/>
<path fill-rule="evenodd" clip-rule="evenodd" d="M284.481 76.0957V227.167H281.121V76.0957H284.481Z" fill="#424242"/>
<path fill-rule="evenodd" clip-rule="evenodd" d="M284.481 117.695V227.167H281.121V117.695H284.481Z" fill="#FF878B"/>
<path d="M305.76 48.119H306.88V49.239H305.76V50.357H304.64V49.238H303.52V48.12H304.64V47H305.76V48.119Z" fill="#939393"/>
<path fill-rule="evenodd" clip-rule="evenodd" d="M309.679 40.286C307.86 40.286 306.319 41.826 306.319 43.643C306.319 45.46 307.86 47 309.679 47C310.644 47 311.502 46.617 312.068 46.06C312.671 45.352 313.039 44.586 313.039 43.643C313.039 41.826 311.498 40.286 309.679 40.286ZM305.199 43.643C305.199 41.208 307.242 39.166 309.679 39.166C312.116 39.166 314.159 41.208 314.159 43.643C314.159 44.93 313.638 45.95 312.904 46.804L312.89 46.821L312.875 46.836C312.097 47.614 310.946 48.119 309.679 48.119C307.242 48.119 305.199 46.078 305.199 43.643Z" fill="#939393"/>
<path fill-rule="evenodd" clip-rule="evenodd" d="M312.876 46.0449L316.236 49.4019L315.444 50.1929L312.084 46.8359L312.876 46.0449Z" fill="#939393"/>
<path d="M322.559 50.357H319.199L322.559 47V50.357Z" fill="#939393"/>
<path d="M21.2803 331.238C21.2803 325.676 25.7923 321.167 31.3603 321.167H78.3993C83.9663 321.167 88.4793 325.676 88.4793 331.238C88.4793 336.8 83.9663 341.31 78.3993 341.31H31.3593C25.7923 341.31 21.2793 336.8 21.2793 331.238H21.2803Z" fill="#FF878B"/>
<path d="M38.9668 334.697V327.526H40.2668V333.63H43.6238V334.697H38.9668ZM44.6068 334.697V327.526H49.4048V328.554H45.8768V330.538H49.1938V331.565H45.8768V333.67H49.4048V334.697H44.6068ZM55.9668 334.697L55.2508 333.015H51.7428L51.0168 334.697H49.7068L52.9528 327.526H54.0108L57.2668 334.697H55.9668ZM52.1768 332.008H54.8168L53.4968 328.936L52.1768 332.008ZM63.9518 334.697H62.5798L61.6628 332.31C61.5818 332.089 61.4578 331.934 61.2898 331.847C61.1218 331.76 60.9028 331.716 60.6338 331.716H59.3338V334.697H58.0438V327.526H61.1178C61.9308 327.526 62.5498 327.704 62.9728 328.06C63.3958 328.416 63.6078 328.926 63.6078 329.591C63.6078 330.068 63.4798 330.474 63.2248 330.81C62.9758 331.139 62.6198 331.374 62.1558 331.515C62.5798 331.602 62.8858 331.897 63.0738 332.401L63.9518 334.697ZM60.9378 330.709C61.4278 330.709 61.7908 330.618 62.0258 330.437C62.2618 330.256 62.3788 329.98 62.3788 329.611C62.3788 329.249 62.2618 328.98 62.0268 328.805C61.7978 328.624 61.4348 328.534 60.9368 328.534H59.3148V330.709H60.9378ZM69.9498 327.526H71.1698V334.697H70.1998L66.3298 329.672V334.697H65.1198V327.526H66.0878L69.9478 332.542V327.526H69.9498ZM135.52 12.5306H137.536L139.888 19.8046L142.128 12.5306H144.144L141.008 21.9306H138.656L135.52 12.5306ZM144.031 18.5756C144.031 16.5606 145.599 14.9946 147.615 14.9946C149.631 14.9946 151.199 16.5606 151.199 18.5746C151.199 20.5896 149.631 22.1566 147.615 22.1566C145.599 22.1566 144.031 20.5896 144.031 18.5756ZM149.407 18.5756C149.407 17.4556 148.623 16.6726 147.615 16.6726C146.607 16.7846 145.823 17.5676 145.823 18.5756C145.823 19.6946 146.607 20.4776 147.615 20.4776C148.623 20.4776 149.407 19.6946 149.407 18.5756ZM152.207 13.4276C152.207 12.8676 152.655 12.3076 153.215 12.3076C153.775 12.3076 154.335 12.7556 154.335 13.4276C154.335 13.9876 153.887 14.4346 153.215 14.4346C152.655 14.4346 152.207 13.9866 152.207 13.4276ZM152.319 15.2176H153.999V21.9316H152.319V15.2176ZM155.344 18.5756C155.344 16.5606 156.8 14.9946 158.928 14.9946C160.16 15.1066 161.28 15.7776 161.84 16.7846L160.384 17.6796C160.16 17.1196 159.488 16.7846 158.816 16.7846C158.58 16.7814 158.345 16.8255 158.127 16.9143C157.908 17.0031 157.709 17.1348 157.542 17.3016C157.375 17.4684 157.243 17.667 157.154 17.8857C157.065 18.1043 157.021 18.3386 157.024 18.5746C157.024 19.5826 157.808 20.3656 158.816 20.3656C159.488 20.3656 160.048 20.0296 160.384 19.4706L161.84 20.3656C161.28 21.4856 160.16 22.1556 158.816 22.1556C156.8 22.1556 155.344 20.5896 155.344 18.5756ZM166.208 20.5896C166.88 20.5896 167.44 20.2536 167.664 19.9176L169.12 20.7016C168.785 21.1583 168.346 21.5284 167.84 21.7813C167.333 22.0342 166.774 22.1626 166.208 22.1556C163.968 22.1556 162.512 20.5896 162.512 18.5756C162.512 16.5606 163.968 14.9946 166.096 14.9946C168.112 14.9946 169.456 16.5606 169.456 18.5746C169.456 18.7986 169.456 19.0226 169.344 19.2466H164.304C164.528 20.2536 165.312 20.5896 166.208 20.5896ZM167.664 18.0156C167.44 17.0086 166.768 16.6726 165.984 16.6726C165.088 16.6726 164.416 17.1206 164.192 18.0156H167.664ZM180.879 15.2176V21.9326H179.199V21.1486C178.751 21.7086 177.967 22.1566 176.959 22.1566C175.167 22.1566 173.711 20.5896 173.711 18.5756C173.711 16.5606 175.167 14.9946 176.959 14.9946C177.967 14.9946 178.639 15.3296 179.199 16.0016V15.2176H180.879ZM179.087 18.5756C179.087 17.4556 178.303 16.6726 177.183 16.6726C176.175 16.6726 175.279 17.4566 175.279 18.5756C175.279 19.6946 176.063 20.4776 177.183 20.4776C178.303 20.4776 179.087 19.6946 179.087 18.5756ZM188.608 15.2186V21.9326H186.928V21.2616C186.48 21.8216 185.808 22.1566 184.912 22.1566C183.456 22.1566 182.336 21.1496 182.336 19.3586V15.2186H184.016V19.1346C184.016 20.0306 184.576 20.4776 185.36 20.4776C186.256 20.4776 186.816 20.0306 186.816 18.7996V15.2186H188.608ZM192.64 16.8966V19.6946C192.64 20.3646 193.2 20.4776 194.208 20.3646V21.9326C191.744 22.1556 190.96 21.4846 190.96 19.6946V16.8966H189.84V15.2176H190.96V13.8746L192.64 13.3146V15.2176H194.208V16.8966H192.64ZM194.992 18.5756C194.992 16.5606 196.56 14.9946 198.576 14.9946C200.592 14.9946 202.16 16.5606 202.16 18.5746C202.16 20.5896 200.592 22.1566 198.576 22.1566C196.56 22.1566 194.992 20.5896 194.992 18.5756ZM200.368 18.5756C200.368 17.4556 199.584 16.6726 198.576 16.6726C197.568 16.6726 196.784 17.4566 196.784 18.5756C196.784 19.6946 197.568 20.4776 198.576 20.4776C199.584 20.4776 200.368 19.6946 200.368 18.5756ZM209.217 20.1416V21.9316H203.393V12.5316H209.105V14.3226H205.185V16.3366H208.769V18.1266H205.185V20.1416H209.217ZM218.735 20.4776L219.743 21.4846L218.399 22.6036L217.391 21.5966C216.662 21.9651 215.856 22.157 215.039 22.1566C212.351 22.1566 210.111 20.0296 210.111 17.2316C210.111 14.4346 212.239 12.3086 215.039 12.3086C217.839 12.3086 219.967 14.4346 219.967 17.2316C219.967 18.4626 219.519 19.5816 218.735 20.4776ZM216.047 20.1416L214.479 18.5746L215.823 17.4556L217.503 19.1346C217.839 18.6866 218.063 18.0146 218.063 17.3446C218.063 15.5536 216.719 14.2106 215.039 14.2106C213.359 14.2106 212.015 15.4416 212.015 17.3436C212.015 19.1336 213.359 20.3656 215.039 20.3656C215.375 20.3656 215.711 20.2536 216.047 20.1416Z" fill="#F0F0F0"/>
<path d="M126 22.0447H114.24C113.792 22.0447 113.344 21.8207 113.232 21.3727C113.008 21.0377 113.12 20.5897 113.456 20.2537L119.392 13.8757C119.504 13.5397 119.84 13.4277 120.176 13.4277C120.512 13.4277 120.736 13.5397 120.96 13.7637L126.896 20.1417C127.232 20.4777 127.232 20.9257 127.12 21.3727C126.896 21.8207 126.448 22.0447 126 22.0447ZM116.816 19.8067H123.536L120.176 16.1137L116.816 19.8067Z" fill="#FF878B"/>
<path d="M278.096 22.1566C278.096 22.1566 277.984 21.7086 277.984 21.2616C277.648 21.9316 277.2 22.3806 276.304 22.3806C275.072 22.3806 274.4 21.4846 274.4 19.9186C274.4 18.4636 275.184 17.5686 276.192 17.0086C277.312 16.4486 277.984 15.8896 277.984 14.7706C277.984 13.6506 277.648 12.9806 276.752 12.9806C275.856 12.9806 275.408 13.6506 275.408 14.7706V15.1066H274.736V14.7706C274.736 13.3156 275.296 12.3086 276.752 12.3086C278.208 12.3086 278.768 13.3156 278.768 14.9946V20.5896C278.768 21.3726 278.88 22.2686 278.88 22.2686H278.096V22.1566ZM277.984 16.3366C277.76 16.7846 277.424 17.1206 276.64 17.5686C275.52 18.1286 275.184 18.7986 275.184 19.9186C275.184 21.1486 275.632 21.7086 276.416 21.7086C277.2 21.7086 277.984 20.9256 277.984 19.8066V16.3366ZM282.128 22.3796C280.784 22.3796 280 21.4846 280 19.8056V14.8816C280 13.2036 280.784 12.3086 282.128 12.3086C283.36 12.3086 284.144 13.2036 284.144 14.8816V15.1056H283.472V14.8816C283.472 13.6516 283.024 12.9796 282.128 12.9796C281.232 12.9796 280.784 13.6506 280.784 14.8816V19.6936C280.784 20.9246 281.232 21.5966 282.128 21.5966C283.024 21.5966 283.472 20.9246 283.472 19.6936V19.5816H284.144V19.8056C284.144 21.4846 283.36 22.3796 282.128 22.3796ZM287.393 22.3796C286.161 22.3796 285.377 21.4846 285.377 19.8056V14.8816C285.377 13.2036 286.161 12.3086 287.393 12.3086C288.625 12.3086 289.409 13.2036 289.409 14.8816V15.1056H288.737V14.8816C288.737 13.6516 288.289 12.9796 287.393 12.9796C286.497 12.9796 286.049 13.6506 286.049 14.8816V19.6936C286.049 20.9246 286.497 21.5966 287.393 21.5966C288.289 21.5966 288.737 20.9246 288.737 19.6936V19.5816H289.409V19.8056C289.409 21.4846 288.625 22.3796 287.393 22.3796ZM299.489 15.1056V14.5456C299.489 13.6516 299.041 12.9796 298.257 12.9796C297.473 12.9796 296.913 13.5396 296.913 14.5466C296.913 15.2176 297.249 15.7766 297.697 16.2246L299.265 17.6796C299.937 18.2396 300.385 18.9106 300.385 20.0296C300.385 21.4846 299.601 22.3796 298.257 22.3796C296.689 22.3796 296.129 21.2606 296.129 19.9176V19.4706H296.801V19.9176C296.801 21.0376 297.249 21.7076 298.257 21.7076C299.153 21.7076 299.713 21.0376 299.713 20.0296C299.713 19.3586 299.377 18.7996 298.929 18.2396L297.249 16.7846C296.577 16.2246 296.129 15.5536 296.129 14.5466C296.129 13.2036 296.913 12.3086 298.145 12.3086C299.489 12.3086 300.161 13.2036 300.161 14.5466V14.9936H299.489V15.1056ZM303.521 22.3796C302.289 22.3796 301.393 21.4846 301.393 19.8056V14.8816C301.393 13.2036 302.289 12.3086 303.521 12.3086C304.865 12.3086 305.761 13.2036 305.761 14.8816V19.6936C305.761 21.4836 304.865 22.3796 303.521 22.3796ZM304.977 14.8816C304.977 13.6516 304.417 12.9796 303.521 12.9796C302.625 12.9796 302.065 13.6506 302.065 14.8816V19.6936C302.065 20.9246 302.625 21.5966 303.521 21.5966C304.417 21.5966 304.977 20.9246 304.977 19.6936V14.8816ZM310.688 22.1556V14.8816C310.688 13.6516 310.352 12.9796 309.456 12.9796C308.448 12.9796 308 13.7626 308 15.1056V22.1556H307.328V12.4206H308V13.2036C308.112 12.6436 308.784 12.3086 309.456 12.3086C310.8 12.3086 311.36 13.0916 311.36 14.8816V22.1556H310.688ZM321.665 15.1056V14.5456C321.665 13.6516 321.217 12.9796 320.433 12.9796C319.649 12.9796 319.089 13.5396 319.089 14.5466C319.089 15.2176 319.425 15.7766 319.873 16.2246L321.441 17.6796C322.113 18.2396 322.561 18.9106 322.561 20.0296C322.561 21.3726 321.777 22.3796 320.433 22.3796C318.865 22.3796 318.305 21.2606 318.305 19.9176V19.4706H318.977V19.9176C318.977 21.0376 319.425 21.7076 320.433 21.7076C321.329 21.7076 321.889 21.0376 321.889 20.0296C321.889 19.3586 321.553 18.7996 321.105 18.2396L319.537 16.7846C318.865 16.2246 318.417 15.5536 318.417 14.5466C318.417 13.2036 319.201 12.3086 320.433 12.3086C321.665 12.3086 322.337 13.2036 322.337 14.5466V14.9936H321.665V15.1056ZM316.512 12.4196V19.6946C316.512 20.9246 315.952 21.5966 315.056 21.5966C314.16 21.5966 313.6 20.9256 313.6 19.6946V12.4196H312.928V19.6936C312.928 21.4836 313.824 22.2676 315.056 22.2676C316.288 22.2676 317.184 21.3716 317.184 19.6936V12.4196H316.512ZM294.225 18.5756V19.6946C294.225 20.9246 293.665 21.5966 292.769 21.5966C291.873 21.5966 291.313 20.9256 291.313 19.6946V12.4196H290.641V19.6936C290.641 21.2596 291.425 22.1556 292.545 22.2676V26.9676C292.321 27.0786 292.097 27.3026 292.097 27.6386C292.097 28.0866 292.433 28.3096 292.769 28.3096C293.217 28.3096 293.441 27.9746 293.441 27.6386C293.441 27.3026 293.217 27.0786 292.993 26.9676V22.3796C294.113 22.2676 294.897 21.3716 294.897 19.8056V12.4196H294.225V18.5756ZM18.8393 21.8076V23.2396H12.3203V12.3096H18.8393V13.7406H13.7543V17.1236H18.3173V18.4246H13.7543V21.9386H18.8393V21.8076ZM29.2683 19.0746H26.6613V23.2386H25.2273V12.3096H29.6593C31.4843 12.3096 33.0493 13.8716 33.0493 15.6926C33.0493 17.1246 32.1363 18.4256 30.8333 18.8156L33.4403 23.2396H31.8763L29.2683 19.0746ZM26.6613 17.7746H29.5293C30.5723 17.7746 31.4843 16.8626 31.4843 15.6916C31.4843 14.5216 30.5723 13.6096 29.5293 13.6096H26.6603V17.7736L26.6613 17.7746ZM46.2163 20.7666H41.2623L40.3503 23.2386H38.7853L42.9573 12.3086H44.6523L48.6933 23.2386H47.1303L46.2163 20.7666ZM45.6953 19.4656L43.7393 14.1306L41.7843 19.4656H45.6953Z" fill="#F0F0F0"/>
<path fill-rule="evenodd" clip-rule="evenodd" d="M166.88 39.1669C166.145 39.1665 165.417 39.3109 164.738 39.5919C164.059 39.8728 163.441 40.2849 162.921 40.8044C162.401 41.324 161.989 41.9409 161.707 42.6199C161.425 43.2989 161.28 44.0268 161.28 44.7619C161.28 45.497 161.425 46.2248 161.707 46.9038C161.989 47.5829 162.401 48.1998 162.921 48.7193C163.441 49.2389 164.059 49.6509 164.738 49.9319C165.417 50.2129 166.145 50.3573 166.88 50.3569C169.972 50.3569 172.48 47.8519 172.48 44.7619C172.479 43.2774 171.889 41.854 170.839 40.8047C169.789 39.7555 168.365 39.1663 166.88 39.1669ZM166.88 38.0469C165.998 38.0465 165.124 38.2199 164.309 38.5571C163.494 38.8944 162.753 39.3889 162.129 40.0125C161.505 40.636 161.01 41.3764 160.672 42.1913C160.334 43.0062 160.16 43.8797 160.16 44.7619C160.16 45.644 160.334 46.5175 160.672 47.3324C161.01 48.1473 161.505 48.8877 162.129 49.5113C162.753 50.1348 163.494 50.6294 164.309 50.9666C165.124 51.3039 165.998 51.4773 166.88 51.4769C167.762 51.4773 168.636 51.3039 169.451 50.9666C170.266 50.6294 171.007 50.1348 171.631 49.5113C172.255 48.8877 172.75 48.1473 173.088 47.3324C173.426 46.5175 173.6 45.644 173.6 44.7619C173.6 43.8798 173.426 43.0064 173.088 42.1916C172.75 41.3768 172.255 40.6366 171.631 40.0131C171.007 39.3897 170.266 38.8952 169.451 38.558C168.636 38.2208 167.762 38.0465 166.88 38.0469Z" fill="#949494"/>
<path d="M166.133 48.4922H167.626V44.0162H166.133V48.4922ZM167.626 41.7782C167.626 41.6803 167.607 41.5833 167.569 41.4927C167.532 41.4022 167.477 41.32 167.407 41.2507C167.338 41.1815 167.256 41.1265 167.165 41.089C167.075 41.0515 166.978 41.0322 166.88 41.0322C166.782 41.0322 166.685 41.0515 166.594 41.089C166.504 41.1265 166.422 41.1815 166.352 41.2507C166.283 41.32 166.228 41.4022 166.191 41.4927C166.153 41.5833 166.134 41.6803 166.134 41.7782C166.134 41.9761 166.212 42.1658 166.352 42.3057C166.492 42.4456 166.682 42.5242 166.88 42.5242C167.078 42.5242 167.267 42.4456 167.407 42.3057C167.547 42.1658 167.626 41.9761 167.626 41.7782Z" fill="#949494"/>
</g>
<defs>
<clipPath id="clip0_2967_48729">
<rect width="336" height="470" fill="white"/>
</clipPath>
</defs>
</svg>
