<svg width="336" height="470" viewBox="0 0 336 470" fill="none" xmlns="http://www.w3.org/2000/svg">
<g clip-path="url(#clip0_2957_46814)">
<path d="M0 0H336V470H0V0Z" fill="white"/>
<g filter="url(#filter0_d_2957_46814)">
<path d="M0 8.00001C0 3.58173 3.58172 0 8 0H328C332.418 0 336 3.58172 336 8V462C336 466.418 332.418 470 328 470H8.00001C3.58173 470 0 466.418 0 462V8.00001Z" fill="#F0F0F0"/>
</g>
<path d="M16 0C7.16344 0 0 7.16344 0 16V304.381H70.112C91.168 304.381 112.112 307.514 132.048 314.341C143.248 318.145 155.232 320.272 167.664 320.272C180.096 320.272 192.08 318.145 203.28 314.341C223.216 307.514 244.16 304.381 265.216 304.381H336V16C336 7.16344 328.837 0 320 0H16Z" fill="#212121"/>
<path d="M0 440.905H336V470H0V440.905Z" fill="black"/>
<path d="M321.44 454.557L320.096 453.326C319.984 453.214 319.872 453.214 319.76 453.326L318.528 454.557V449.41H311.36V448.514C311.36 448.067 311.808 447.619 312.256 447.619H323.792C324.128 447.619 324.352 447.395 324.352 447.06C324.352 446.724 324.128 446.5 323.904 446.5H312.256C311.136 446.5 310.24 447.395 310.24 448.514V462.95C310.24 463.174 310.352 463.286 310.464 463.286H322.336C323.456 463.286 324.352 462.39 324.352 461.271V449.41H321.44V454.557ZM313.264 461.495C313.264 461.831 313.04 462.055 312.704 462.055C312.368 462.055 312.144 461.831 312.144 461.495V450.976C312.144 450.64 312.368 450.417 312.704 450.417C313.04 450.417 313.264 450.64 313.264 450.976V461.495Z" fill="#F0F0F0"/>
<path d="M125.467 270.201H129.62C130.65 270.201 131.452 270.452 132.026 270.953C132.599 271.445 132.886 272.121 132.886 272.981C132.886 273.84 132.594 274.52 132.012 275.022C131.439 275.523 130.641 275.774 129.62 275.774H127.201V279.762H125.467V270.201ZM129.418 274.431C130.018 274.431 130.471 274.31 130.776 274.068C131.089 273.818 131.246 273.46 131.246 272.994C131.246 272.52 131.094 272.162 130.789 271.92C130.484 271.669 130.027 271.544 129.418 271.544H127.201V274.431H129.418ZM142.294 279.762H140.466L139.243 276.58C139.135 276.284 138.97 276.078 138.746 275.962C138.522 275.845 138.231 275.787 137.872 275.787H136.138V279.762H134.418V270.201H138.517C139.601 270.201 140.426 270.438 140.99 270.913C141.555 271.387 141.837 272.068 141.837 272.954C141.837 273.589 141.667 274.131 141.326 274.579C140.995 275.017 140.52 275.331 139.902 275.519C140.466 275.635 140.874 276.029 141.125 276.7L142.294 279.762ZM138.275 274.444C138.929 274.444 139.413 274.324 139.727 274.082C140.04 273.84 140.197 273.473 140.197 272.981C140.197 272.497 140.04 272.139 139.727 271.906C139.422 271.665 138.938 271.544 138.275 271.544H136.111V274.444H138.275ZM148.036 279.883C147.113 279.883 146.307 279.686 145.617 279.292C144.935 278.888 144.384 278.296 144.031 277.587C143.664 276.844 143.48 275.971 143.48 274.968C143.48 273.974 143.664 273.11 144.031 272.376C144.399 271.633 144.923 271.065 145.604 270.671C146.294 270.277 147.104 270.08 148.036 270.08C148.968 270.08 149.775 270.277 150.456 270.671C151.144 271.063 151.693 271.659 152.028 272.376C152.395 273.11 152.579 273.974 152.579 274.968C152.579 275.971 152.395 276.844 152.028 277.587C151.682 278.297 151.136 278.89 150.456 279.292C149.775 279.686 148.968 279.883 148.036 279.883ZM148.036 278.5C148.923 278.5 149.613 278.195 150.106 277.587C150.599 276.978 150.845 276.105 150.845 274.968C150.845 273.84 150.599 272.976 150.106 272.376C149.613 271.768 148.923 271.463 148.036 271.463C147.149 271.463 146.459 271.763 145.967 272.363C145.474 272.963 145.227 273.831 145.227 274.968C145.227 276.105 145.474 276.978 145.967 277.587C146.459 278.195 147.149 278.5 148.036 278.5ZM158.696 279.883C157.755 279.883 156.931 279.682 156.223 279.279C155.529 278.881 154.968 278.288 154.61 277.573C154.234 276.83 154.046 275.962 154.046 274.968C154.046 273.983 154.234 273.124 154.61 272.39C154.963 271.672 155.525 271.077 156.223 270.684C156.931 270.282 157.755 270.08 158.696 270.08C159.341 270.08 159.946 270.183 160.51 270.389C161.084 270.586 161.559 270.863 161.935 271.222L161.371 272.484C160.941 272.135 160.51 271.884 160.08 271.732C159.646 271.569 159.186 271.487 158.723 271.49C157.8 271.49 157.083 271.79 156.573 272.39C156.071 272.99 155.82 273.849 155.82 274.968C155.82 276.096 156.071 276.964 156.573 277.573C157.074 278.173 157.791 278.473 158.723 278.473C159.207 278.473 159.659 278.397 160.08 278.245C160.51 278.084 160.941 277.828 161.371 277.479L161.935 278.742C161.559 279.1 161.084 279.382 160.51 279.588C159.926 279.788 159.313 279.888 158.696 279.883ZM163.556 270.201H169.953V271.571H165.249V274.216H169.671V275.586H165.249V278.392H169.953V279.762H163.556V270.201ZM174.656 279.883C173.955 279.888 173.258 279.788 172.587 279.588C171.951 279.391 171.408 279.109 170.96 278.742L171.552 277.479C172.018 277.828 172.502 278.088 173.003 278.258C173.543 278.424 174.105 278.505 174.67 278.5C175.333 278.5 175.844 278.383 176.202 278.151C176.569 277.918 176.753 277.591 176.753 277.17C176.753 276.812 176.583 276.539 176.242 276.351C175.911 276.154 175.36 275.971 174.589 275.801C173.389 275.541 172.515 275.205 171.968 274.794C171.422 274.382 171.149 273.782 171.149 272.994C171.149 272.43 171.301 271.929 171.606 271.49C171.91 271.051 172.34 270.707 172.896 270.456C173.46 270.205 174.11 270.08 174.845 270.08C175.517 270.08 176.153 270.183 176.753 270.389C177.362 270.586 177.86 270.863 178.245 271.222L177.667 272.484C176.816 271.803 175.875 271.463 174.845 271.463C174.226 271.463 173.738 271.593 173.38 271.853C173.021 272.103 172.842 272.448 172.842 272.887C172.842 273.263 172.999 273.549 173.312 273.746C173.635 273.943 174.182 274.127 174.952 274.297C175.75 274.485 176.399 274.691 176.901 274.914C177.403 275.129 177.788 275.411 178.057 275.76C178.326 276.101 178.46 276.53 178.46 277.05C178.46 277.622 178.308 278.124 178.003 278.554C177.698 278.974 177.259 279.301 176.686 279.534C176.112 279.767 175.436 279.883 174.656 279.883ZM183.306 279.883C182.605 279.888 181.907 279.788 181.236 279.588C180.6 279.391 180.058 279.109 179.61 278.742L180.201 277.479C180.667 277.828 181.151 278.088 181.653 278.258C182.163 278.419 182.719 278.5 183.319 278.5C183.982 278.5 184.493 278.383 184.851 278.151C185.219 277.918 185.402 277.591 185.402 277.17C185.402 276.812 185.232 276.539 184.892 276.351C184.56 276.154 184.009 275.971 183.239 275.801C182.038 275.541 181.164 275.205 180.618 274.794C180.071 274.382 179.798 273.782 179.798 272.994C179.798 272.43 179.95 271.929 180.255 271.49C180.56 271.051 180.99 270.707 181.545 270.456C182.11 270.205 182.759 270.08 183.494 270.08C184.166 270.08 184.802 270.183 185.402 270.389C186.012 270.586 186.509 270.863 186.894 271.222L186.316 272.484C185.465 271.803 184.524 271.463 183.494 271.463C182.876 271.463 182.387 271.593 182.029 271.853C181.671 272.103 181.491 272.448 181.491 272.887C181.491 273.263 181.648 273.549 181.962 273.746C182.284 273.943 182.831 274.127 183.602 274.297C184.399 274.485 185.049 274.691 185.55 274.914C186.052 275.129 186.437 275.411 186.706 275.76C186.975 276.101 187.109 276.53 187.109 277.05C187.109 277.622 186.957 278.124 186.652 278.554C186.348 278.974 185.909 279.301 185.335 279.534C184.762 279.767 184.085 279.883 183.306 279.883ZM188.716 270.201H190.45V279.762H188.716V270.201ZM200.586 270.201V279.762H199.296L194.135 273.061V279.762H192.522V270.201H193.813L198.96 276.888V270.201H200.586ZM210.651 274.592V279.185C210.212 279.4 209.684 279.57 209.065 279.695C208.441 279.821 207.806 279.884 207.17 279.883C206.185 279.883 205.329 279.686 204.603 279.292C203.889 278.91 203.308 278.32 202.937 277.6C202.552 276.866 202.359 275.989 202.359 274.968C202.359 273.965 202.552 273.097 202.937 272.363C203.303 271.649 203.874 271.06 204.577 270.671C205.293 270.277 206.131 270.08 207.09 270.08C207.729 270.075 208.364 270.175 208.971 270.376C209.563 270.572 210.056 270.85 210.45 271.208L209.858 272.47C209.41 272.121 208.971 271.871 208.541 271.718C208.111 271.566 207.641 271.49 207.13 271.49C206.145 271.49 205.396 271.786 204.886 272.376C204.384 272.967 204.133 273.831 204.133 274.968C204.133 276.141 204.393 277.027 204.913 277.627C205.432 278.218 206.207 278.513 207.238 278.513C207.865 278.513 208.483 278.428 209.092 278.258V275.841H207.023V274.592H210.651Z" fill="#949494"/>
<path d="M148.836 299.795H152.174V294.347C152.029 294.576 150.917 296.392 148.836 299.795ZM152.134 305.5V301.753H146.061V299.894L151.809 291.18H154.625V299.795H156.879V301.753H154.674V305.5H152.134ZM163.789 305.726C162.194 305.726 160.954 305.048 160.068 303.69C159.189 302.326 158.749 300.5 158.749 298.212C158.749 295.897 159.182 294.104 160.049 292.832C160.921 291.553 162.175 290.914 163.809 290.914C165.417 290.914 166.654 291.566 167.52 292.871C168.393 294.176 168.829 295.956 168.829 298.212C168.829 299.713 168.642 301.025 168.268 302.146C167.894 303.261 167.323 304.136 166.555 304.772C165.794 305.408 164.872 305.726 163.789 305.726ZM163.829 303.592C165.463 303.592 166.28 301.802 166.28 298.222C166.28 297.527 166.237 296.884 166.152 296.294C166.074 295.737 165.939 295.19 165.748 294.661C165.571 294.156 165.318 293.763 164.99 293.481C164.675 293.195 164.263 293.04 163.838 293.048C163.372 293.048 162.969 293.193 162.628 293.481C162.286 293.763 162.024 294.156 161.84 294.661C161.648 295.19 161.513 295.737 161.436 296.294C161.347 296.936 161.305 297.584 161.309 298.232C161.309 299.045 161.351 299.763 161.436 300.386C161.522 301.008 161.656 301.569 161.84 302.067C162.03 302.559 162.293 302.936 162.628 303.198C162.962 303.461 163.363 303.592 163.829 303.592ZM184.166 305.697C183.076 305.697 182.2 305.346 181.537 304.644C180.875 303.943 180.543 303.051 180.543 301.969C180.543 300.907 180.875 300.018 181.537 299.304C182.2 298.582 183.073 298.222 184.156 298.222C185.239 298.222 186.115 298.582 186.784 299.304C187.454 300.025 187.788 300.913 187.788 301.969C187.788 303.057 187.457 303.953 186.794 304.654C186.131 305.349 185.255 305.697 184.166 305.697ZM184.156 304.162C184.674 304.162 185.061 303.989 185.317 303.641C185.58 303.294 185.711 302.736 185.711 301.969C185.711 301.235 185.586 300.684 185.337 300.317C185.088 299.95 184.694 299.766 184.156 299.766C183.624 299.766 183.234 299.946 182.984 300.307C182.735 300.667 182.61 301.218 182.61 301.959C182.61 302.726 182.738 303.287 182.994 303.641C183.25 303.989 183.637 304.162 184.156 304.162ZM173.849 305.5L183.014 291.18H185.012L175.848 305.5H173.849ZM174.627 298.468C173.511 298.468 172.629 298.14 171.979 297.484C171.329 296.822 171.005 295.907 171.005 294.74C171.005 293.593 171.329 292.684 171.979 292.016C172.629 291.34 173.511 291.003 174.627 291.003C175.736 291.003 176.616 291.34 177.265 292.016C177.921 292.691 178.25 293.599 178.25 294.74C178.25 295.914 177.925 296.828 177.275 297.484C176.625 298.14 175.743 298.468 174.627 298.468ZM174.627 296.933C175.146 296.933 175.533 296.763 175.789 296.422C176.045 296.074 176.173 295.517 176.173 294.75C176.173 294.009 176.048 293.455 175.799 293.088C175.556 292.72 175.165 292.537 174.627 292.537C174.089 292.537 173.695 292.72 173.446 293.088C173.203 293.448 173.082 293.999 173.082 294.74C173.082 295.507 173.21 296.065 173.466 296.412C173.721 296.76 174.109 296.933 174.627 296.933Z" fill="#F0F0F0"/>
<path d="M59.3601 50.358H43.6801C40.5441 50.358 38.0801 47.896 38.0801 44.762C38.0801 41.629 40.5441 39.167 43.6801 39.167H59.3601C62.4961 39.167 64.9601 41.629 64.9601 44.762C64.9601 47.896 62.3841 50.358 59.3601 50.358Z" fill="#373737"/>
<path d="M59.3599 49.2391C61.8249 49.2391 63.8399 47.2241 63.8399 44.7621C63.8399 42.3001 61.8249 40.2861 59.3599 40.2861C56.8969 40.2861 54.8799 42.3001 54.8799 44.7621C54.8799 47.2241 56.8969 49.2391 59.3599 49.2391Z" fill="#F4B70B"/>
<path d="M17.8419 49.3389C17.0719 49.3389 16.4009 49.1749 15.8259 48.8469C15.2574 48.5102 14.7984 48.0164 14.5039 47.4249C14.1979 46.8059 14.0439 46.0789 14.0439 45.2429C14.0439 44.4149 14.1979 43.6949 14.5039 43.0829C14.7878 42.4886 15.2443 41.9937 15.8139 41.6629C16.3899 41.3339 17.0649 41.1699 17.8419 41.1699C18.6179 41.1699 19.2899 41.3339 19.8579 41.6619C20.4314 41.9888 20.8891 42.4857 21.1679 43.0839C21.4739 43.6949 21.6279 44.4149 21.6279 45.2439C21.6279 46.0789 21.4739 46.8059 21.1679 47.4249C20.8803 48.0172 20.4247 48.5117 19.8579 48.8469C19.2899 49.1749 18.6179 49.3389 17.8419 49.3389ZM17.8419 48.1859C18.5809 48.1859 19.1559 47.9329 19.5669 47.4259C19.9769 46.9179 20.1829 46.1909 20.1829 45.2429C20.1829 44.3029 19.9769 43.5829 19.5669 43.0829C19.1559 42.5759 18.5809 42.3229 17.8419 42.3229C17.1019 42.3229 16.5279 42.5729 16.1169 43.0729C15.7069 43.5729 15.5009 44.2959 15.5009 45.2429C15.5009 46.1909 15.7059 46.9179 16.1169 47.4249C16.5269 47.9329 17.1019 48.1859 17.8419 48.1859ZM23.1069 49.2379V41.2699H28.3149V42.4229H24.5409V44.6049H28.0909V45.7689H24.5409V49.2389L23.1069 49.2379ZM29.5169 49.2379V41.2699H34.7249V42.4229H30.9499V44.6049H34.4999V45.7689H30.9499V49.2389L29.5169 49.2379Z" fill="#424242"/>
<path d="M72.7228 49.3389C71.9528 49.3389 71.2808 49.1749 70.7068 48.8469C70.1383 48.5102 69.6792 48.0164 69.3848 47.4249C69.0788 46.8059 68.9248 46.0789 68.9248 45.2429C68.9248 44.4149 69.0788 43.6949 69.3848 43.0829C69.6686 42.4885 70.1252 41.9936 70.6948 41.6629C71.2698 41.3339 71.9458 41.1699 72.7228 41.1699C73.4988 41.1699 74.1708 41.3339 74.7388 41.6619C75.3122 41.9888 75.7699 42.4857 76.0488 43.0839C76.3548 43.6949 76.5088 44.4149 76.5088 45.2439C76.5088 46.0789 76.3548 46.8059 76.0488 47.4249C75.7611 48.0172 75.3055 48.5117 74.7388 48.8469C74.1708 49.1749 73.4988 49.3389 72.7228 49.3389ZM72.7228 48.1859C73.4618 48.1859 74.0368 47.9329 74.4468 47.4259C74.8578 46.9179 75.0628 46.1909 75.0628 45.2429C75.0628 44.3029 74.8578 43.5829 74.4468 43.0829C74.0368 42.5759 73.4618 42.3229 72.7228 42.3229C71.9828 42.3229 71.4078 42.5729 70.9978 43.0729C70.5878 43.5729 70.3818 44.2959 70.3818 45.2429C70.3818 46.1909 70.5868 46.9179 70.9978 47.4249C71.4078 47.9329 71.9828 48.1859 72.7228 48.1859ZM83.3528 41.2699H84.7078V49.2379H83.6328L79.3328 43.6539V49.2379H77.9878V41.2699H79.0628L83.3528 46.8429V41.2699ZM260.076 49.2379L259.281 47.3689H255.383L254.577 49.2389H253.121L256.727 41.2709H257.903L261.521 49.2379H260.076ZM255.865 46.2499H258.799L257.332 42.8369L255.865 46.2499Z" fill="#F4B70B"/>
<path d="M268.576 49.8975H267.4L270.301 40.8105H271.5L268.576 49.8975ZM282.41 45.1195C282.872 45.2535 283.227 45.4895 283.474 45.8245C283.727 46.1605 283.854 46.5745 283.854 47.0665C283.854 47.7465 283.612 48.2785 283.126 48.6665C282.648 49.0465 281.98 49.2375 281.122 49.2375H277.504V41.2695H281.01C281.831 41.2695 282.477 41.4565 282.947 41.8295C283.418 42.1955 283.653 42.7025 283.653 43.3515C283.653 43.7695 283.541 44.1345 283.317 44.4485C283.1 44.7545 282.798 44.9785 282.41 45.1195ZM278.915 44.6275H280.774C281.775 44.6275 282.275 44.2545 282.275 43.5075C282.275 43.1355 282.152 42.8555 281.906 42.6685C281.659 42.4825 281.282 42.3885 280.774 42.3885H278.915V44.6275ZM280.965 48.1185C281.487 48.1185 281.868 48.0255 282.107 47.8385C282.354 47.6525 282.477 47.3585 282.477 46.9545C282.477 46.5445 282.354 46.2425 282.107 46.0485C281.868 45.8545 281.487 45.7575 280.965 45.7575H278.915V48.1185H280.965Z" fill="#949494"/>
<path d="M16.5068 22.1196V18.6416H21.1328V17.2796H16.5068V13.9116H21.5248V12.5326H15.0488V23.4996H21.6028V22.1196H16.5068ZM35.5148 23.4986H37.1298L34.5428 19.1116C35.8598 18.6416 36.8158 17.3726 36.8158 15.9316C36.8158 14.0516 35.2798 12.5316 33.3978 12.5316H29.0078V23.4996H30.4658V19.2996H33.0528L35.5148 23.4986ZM30.4658 13.8946H33.3978C34.4798 13.8946 35.3578 14.8036 35.3578 15.9316C35.3578 17.0596 34.4798 17.9836 33.3978 17.9836H30.4658V13.8946ZM51.4678 23.4986H53.0198L48.9268 12.5316H47.2808L43.1878 23.4996H44.7408L45.6348 21.0396H50.5738L51.4678 23.4986ZM46.1358 19.6756L48.0958 14.2706L50.0718 19.6756H46.1358ZM135.641 12.7566H137.667L140.032 20.0306L142.284 12.7566H144.311L141.158 22.1566H138.793L135.641 12.7566ZM144.197 18.7996C144.197 16.7856 145.774 15.2196 147.8 15.2196C149.715 15.2196 151.404 16.7856 151.404 18.7996C151.404 20.8136 149.827 22.3806 147.8 22.3806C145.774 22.2686 144.197 20.7026 144.197 18.8006V18.7996ZM149.602 18.7996C149.602 17.6806 148.814 16.8976 147.8 16.8976C146.787 16.8976 145.999 17.6806 145.999 18.7996C145.999 19.9196 146.787 20.7026 147.8 20.7026C148.814 20.5906 149.602 19.8066 149.602 18.7996ZM152.418 13.5396C152.418 12.9796 152.868 12.4206 153.431 12.4206C153.994 12.4206 154.557 12.8686 154.557 13.5406C154.557 14.0996 154.107 14.5476 153.431 14.5476C153.298 14.5485 153.166 14.5231 153.043 14.4728C152.92 14.4226 152.808 14.3484 152.714 14.2547C152.62 14.161 152.545 14.0495 152.494 13.9268C152.444 13.804 152.418 13.6724 152.418 13.5396ZM152.531 15.4426H154.22V22.1566H152.531V15.4426ZM155.57 18.7996C155.57 16.7856 157.034 15.2196 159.173 15.2196C160.525 15.2196 161.651 15.8896 162.214 16.8976L160.75 17.7926C160.525 17.2326 159.849 16.8976 159.173 16.8976C158.936 16.8938 158.701 16.9375 158.482 17.026C158.262 17.1145 158.063 17.246 157.895 17.4128C157.727 17.5796 157.594 17.7784 157.504 17.9973C157.415 18.2162 157.37 18.4509 157.372 18.6876C157.372 19.6946 158.16 20.4776 159.173 20.4776C159.491 20.4813 159.805 20.4004 160.082 20.2431C160.359 20.0859 160.59 19.858 160.75 19.5826L162.214 20.4786C161.538 21.5976 160.412 22.2686 159.061 22.2686C157.034 22.2686 155.57 20.7026 155.57 18.7996ZM166.493 20.7016C167.169 20.7016 167.732 20.3656 167.957 20.0306L169.421 20.8136C169.083 21.2711 168.642 21.6416 168.133 21.8946C167.623 22.1476 167.061 22.2758 166.493 22.2686C164.241 22.2686 162.777 20.7016 162.777 18.6876C162.777 16.6736 164.241 15.1066 166.381 15.1066C168.407 15.1066 169.758 16.6736 169.758 18.6866C169.758 18.9116 169.758 19.1346 169.646 19.3586H164.579C164.804 20.3656 165.592 20.7016 166.493 20.7016ZM167.957 18.1276C167.732 17.1206 167.056 16.7846 166.268 16.7846C165.367 16.7846 164.692 17.2326 164.466 18.1276H167.957ZM179.892 20.3656V22.1556H174.375V12.7556H176.289V20.3656H179.892ZM184.17 20.7016C184.846 20.7016 185.409 20.3656 185.634 20.0306L186.985 20.8136C186.647 21.271 186.206 21.6416 185.697 21.8946C185.188 22.1476 184.626 22.2758 184.058 22.2686C181.806 22.2686 180.342 20.7016 180.342 18.6876C180.342 16.6736 181.806 15.1066 183.945 15.1066C185.972 15.1066 187.323 16.6736 187.323 18.6866C187.436 19.0236 187.436 19.2466 187.436 19.4706H182.369C182.594 20.3656 183.269 20.7016 184.17 20.7016ZM185.747 18.1276C185.521 17.1206 184.733 16.7846 184.058 16.7846C183.157 16.7846 182.481 17.2326 182.256 18.1276H185.747ZM194.868 15.4426L192.279 22.1566H190.252L187.662 15.4426H189.576L191.265 20.1426L192.954 15.4426H194.868ZM198.809 20.7016C199.484 20.7016 200.047 20.3656 200.273 20.0306L201.624 20.8136C201.286 21.2711 200.845 21.6416 200.336 21.8946C199.826 22.1476 199.264 22.2758 198.696 22.2686C196.444 22.2686 194.98 20.7016 194.98 18.6876C194.98 16.6736 196.444 15.1066 198.584 15.1066C200.61 15.1066 201.962 16.6736 201.962 18.6866C201.962 18.9116 201.962 19.1346 201.849 19.3586H196.782C197.12 20.3656 197.908 20.7016 198.809 20.7016ZM200.273 18.1276C200.047 17.1206 199.372 16.7846 198.696 16.7846C197.795 16.7846 197.12 17.2326 196.895 18.1276H200.273ZM203.312 12.3096H205.001V22.1566H203.312V12.3096ZM210.069 20.7016C210.744 20.7016 211.307 20.3656 211.532 20.0306L212.884 20.8136C212.546 21.2711 212.105 21.6416 211.596 21.8946C211.086 22.1476 210.524 22.2758 209.956 22.2686C207.704 22.2686 206.24 20.7016 206.24 18.6876C206.24 16.6736 207.704 15.1066 209.843 15.1066C211.87 15.1066 213.221 16.6736 213.221 18.6866C213.221 18.9116 213.221 19.1346 213.109 19.3586H208.042C208.38 20.3656 209.168 20.7016 210.069 20.7016ZM211.532 18.1276C211.307 17.1206 210.632 16.7846 209.843 16.7846C208.943 16.7846 208.267 17.2326 208.042 18.1276H211.532ZM218.401 15.2196V17.1216C217.501 17.0096 216.375 17.4566 216.375 18.7996V22.0446H214.686V15.3306H216.375V16.4506C216.712 15.6666 217.501 15.2186 218.401 15.2186V15.2196Z" fill="#F0F0F0"/>
<path d="M115.26 18.5759H113.121V16.3379H115.26C116.274 16.3379 117.4 15.8899 118.075 15.2179L121.003 12.4209L122.579 13.9879L119.764 16.7849C118.526 17.9049 116.949 18.5759 115.26 18.5759ZM120.328 22.3809L118.752 20.8149L121.567 18.0169C122.693 16.7869 124.269 16.2269 125.958 16.2269H128.098V18.4649H125.958C124.832 18.4649 123.819 18.9119 123.143 19.5839L120.328 22.3809Z" fill="#F4B70B"/>
<path d="M278.096 22.1566C278.096 22.1566 277.984 21.7096 277.984 21.2616C277.648 21.9326 277.2 22.3806 276.304 22.3806C275.072 22.3806 274.4 21.4856 274.4 19.9186C274.4 18.4636 275.184 17.5686 276.192 17.0086C277.312 16.4496 277.984 15.8896 277.984 14.7706C277.984 13.6516 277.648 12.9806 276.752 12.9806C275.856 12.9806 275.408 13.6516 275.408 14.7706V15.1066H274.736V14.7716C274.736 13.3166 275.296 12.3096 276.752 12.3096C278.208 12.3096 278.768 13.3166 278.768 14.9946V20.5896C278.768 21.3736 278.88 22.2696 278.88 22.2696H278.096V22.1566ZM277.984 16.3376C277.76 16.7856 277.424 17.1216 276.64 17.5686C275.52 18.1286 275.184 18.7996 275.184 19.9186C275.184 21.1496 275.632 21.7086 276.416 21.7086C277.2 21.7086 277.984 20.9256 277.984 19.8066V16.3376ZM282.128 22.3806C280.784 22.3806 280 21.4856 280 19.8066V14.8826C280 13.2046 280.784 12.3096 282.128 12.3096C283.36 12.3096 284.144 13.2046 284.144 14.8826V15.1066H283.472V14.8826C283.472 13.6526 283.024 12.9806 282.128 12.9806C281.232 12.9806 280.784 13.6516 280.784 14.8826V19.6946C280.784 20.9256 281.232 21.5976 282.128 21.5976C283.024 21.5976 283.472 20.9256 283.472 19.6946V19.5826H284.144V19.8066C284.144 21.4856 283.36 22.3806 282.128 22.3806ZM287.393 22.3806C286.161 22.3806 285.377 21.4856 285.377 19.8066V14.8826C285.377 13.2046 286.161 12.3096 287.393 12.3096C288.625 12.3096 289.409 13.2046 289.409 14.8826V15.1066H288.737V14.8826C288.737 13.6526 288.289 12.9806 287.393 12.9806C286.497 12.9806 286.049 13.6516 286.049 14.8826V19.6946C286.049 20.9256 286.497 21.5976 287.393 21.5976C288.289 21.5976 288.737 20.9256 288.737 19.6946V19.5826H289.409V19.8066C289.409 21.4856 288.625 22.3806 287.393 22.3806ZM299.489 15.1066V14.5466C299.489 13.6516 299.041 12.9806 298.257 12.9806C297.473 12.9806 296.913 13.5406 296.913 14.5476C296.913 15.2186 297.249 15.7776 297.697 16.2256L299.265 17.6806C299.937 18.2406 300.385 18.9116 300.385 20.0306C300.385 21.4856 299.601 22.3806 298.257 22.3806C296.689 22.3806 296.129 21.2616 296.129 19.9186V19.4706H296.801V19.9186C296.801 21.0386 297.249 21.7086 298.257 21.7086C299.153 21.7086 299.713 21.0386 299.713 20.0306C299.713 19.3596 299.377 18.7996 298.929 18.2406L297.249 16.7856C296.577 16.2256 296.129 15.5546 296.129 14.5476C296.129 13.2046 296.913 12.3096 298.145 12.3096C299.489 12.3096 300.161 13.2046 300.161 14.5476V14.9946H299.489V15.1066ZM303.521 22.3806C302.289 22.3806 301.393 21.4856 301.393 19.8066V14.8826C301.393 13.2046 302.289 12.3096 303.521 12.3096C304.865 12.3096 305.761 13.2046 305.761 14.8826V19.6946C305.761 21.4846 304.865 22.3806 303.521 22.3806ZM304.977 14.8826C304.977 13.6526 304.417 12.9806 303.521 12.9806C302.625 12.9806 302.065 13.6516 302.065 14.8826V19.6946C302.065 20.9256 302.625 21.5976 303.521 21.5976C304.417 21.5976 304.977 20.9256 304.977 19.6946V14.8826ZM310.688 22.1566V14.8826C310.688 13.6526 310.352 12.9806 309.456 12.9806C308.448 12.9806 308 13.7636 308 15.1066V22.1566H307.328V12.4206H308V13.2046C308.112 12.6446 308.784 12.3096 309.456 12.3096C310.8 12.3096 311.36 13.0926 311.36 14.8826V22.1566H310.688ZM321.665 15.1066V14.5466C321.665 13.6516 321.217 12.9806 320.433 12.9806C319.649 12.9806 319.089 13.5406 319.089 14.5476C319.089 15.2186 319.425 15.7776 319.873 16.2256L321.441 17.6806C322.113 18.2406 322.561 18.9116 322.561 20.0306C322.561 21.3736 321.777 22.3806 320.433 22.3806C318.865 22.3806 318.305 21.2616 318.305 19.9186V19.4706H318.977V19.9186C318.977 21.0386 319.425 21.7086 320.433 21.7086C321.329 21.7086 321.889 21.0386 321.889 20.0306C321.889 19.3596 321.553 18.7996 321.105 18.2406L319.537 16.7856C318.865 16.2256 318.417 15.5546 318.417 14.5476C318.417 13.2046 319.201 12.3096 320.433 12.3096C321.665 12.3096 322.337 13.2046 322.337 14.5476V14.9946H321.665V15.1066ZM316.512 12.4206V19.6946C316.512 20.9256 315.952 21.5976 315.056 21.5976C314.16 21.5976 313.6 20.9256 313.6 19.6946V12.4206H312.928V19.6946C312.928 21.4846 313.824 22.2686 315.056 22.2686C316.288 22.2686 317.184 21.3736 317.184 19.6946V12.4206H316.512ZM294.225 18.5756V19.6956C294.225 20.9256 293.665 21.5976 292.769 21.5976C291.873 21.5976 291.313 20.9256 291.313 19.6946V12.4206H290.641V19.6946C290.641 21.2616 291.425 22.1566 292.545 22.2686V26.9686C292.321 27.0806 292.097 27.3046 292.097 27.6396C292.097 28.0876 292.433 28.3116 292.769 28.3116C293.217 28.3116 293.441 27.9756 293.441 27.6396C293.441 27.3046 293.217 27.0796 292.993 26.9686V22.3806C294.113 22.2686 294.897 21.3736 294.897 19.8066V12.4206H294.225V18.5756Z" fill="#F0F0F0"/>
<path d="M260.959 160.024C260.959 211.32 219.339 252.905 167.999 252.905C116.659 252.905 75.0391 211.32 75.0391 160.024C75.0391 108.727 116.659 67.1426 167.999 67.1426C219.339 67.1426 260.959 108.727 260.959 160.024Z" fill="black"/>
<path d="M123.76 236.584C110.293 228.817 99.1114 217.636 91.3423 204.17C83.5762 190.708 79.4988 175.436 79.5216 159.894C79.5444 144.353 83.6667 129.092 91.4723 115.653C99.2809 102.209 110.495 91.0614 123.985 83.333L168 160.024L123.76 236.584Z" fill="#F4B70B"/>
<path fill-rule="evenodd" clip-rule="evenodd" d="M123.266 236.415L127.746 228.022L128.734 228.549L124.254 236.941L123.266 236.415ZM211.746 236.941L207.266 228.549L208.254 228.022L212.734 236.415L211.746 236.941Z" fill="#949494"/>
<path d="M247.519 160.024C247.519 203.904 211.916 239.476 167.999 239.476C124.081 239.476 88.4785 203.904 88.4785 160.024C88.4785 116.143 124.081 80.5713 167.999 80.5713C211.916 80.5713 247.519 116.143 247.519 160.024Z" fill="#212121"/>
<path d="M131.038 100.415C130.891 100.16 130.796 99.879 130.758 99.5876C130.72 99.2961 130.74 99 130.816 98.7161C130.893 98.4323 131.024 98.1663 131.204 97.9334C131.383 97.7005 131.606 97.5052 131.861 97.3588C132.376 97.0622 132.987 96.9822 133.561 97.1363C134.135 97.2905 134.624 97.6662 134.92 98.1808L143.305 112.727C143.452 112.981 143.547 113.263 143.585 113.554C143.623 113.845 143.604 114.142 143.527 114.425C143.451 114.709 143.319 114.975 143.14 115.208C142.961 115.441 142.737 115.636 142.482 115.783C141.968 116.079 141.356 116.159 140.783 116.005C140.209 115.851 139.72 115.475 139.423 114.961L131.038 100.415Z" fill="#949494"/>
<path d="M157.673 402.403L154.919 395.751L152.969 392.23C152.854 392.132 152.51 392.034 152.166 392.034L150.215 392.425C150.1 392.425 149.986 392.523 149.871 392.621C149.527 393.404 147.462 397.61 147.232 398.001C146.888 398.392 145.855 394.48 145.626 393.501C145.626 393.404 145.396 393.306 145.052 393.306H144.593C144.364 393.306 144.019 393.404 144.019 393.501L142.069 399.371C142.069 399.468 141.954 399.468 141.839 399.566L139.545 400.153H138.971L136.217 399.273C135.988 399.175 135.758 399.175 135.644 399.273L133.578 399.664C133.234 399.762 132.89 399.664 132.775 399.566L130.022 395.849C129.792 395.556 128.989 395.653 128.874 395.947C128.53 398.392 127.727 403.577 127.497 403.968C127.268 404.359 126.006 406.316 125.547 407.098C125.432 407.196 125.088 407.294 124.858 407.294L124.17 407.196V410.033L124.858 409.935C125.203 409.935 125.547 409.935 125.547 410.131C126.006 410.815 127.153 412.869 127.497 413.261C127.727 413.554 128.53 418.739 128.874 421.282C128.874 421.575 129.792 421.575 130.022 421.38L132.775 417.663C132.89 417.565 133.234 417.467 133.578 417.565L135.414 417.956H135.988L138.742 417.076C138.971 416.978 139.2 416.978 139.315 417.076L141.61 417.663C141.725 417.663 141.839 417.76 141.839 417.858L143.79 423.727C143.79 423.825 144.019 423.923 144.364 423.923H144.823C145.167 423.923 145.396 423.825 145.396 423.727C145.626 422.749 146.773 418.934 147.003 419.228C147.347 419.619 149.297 423.825 149.642 424.608C149.642 424.705 149.756 424.705 149.986 424.803L151.936 425.194C152.28 425.292 152.625 425.194 152.739 424.999L154.919 421.184L157.673 414.532V402.403C157.788 402.403 157.788 402.403 157.673 402.403ZM237.44 407.396C237.17 407.396 236.899 407.466 236.628 407.466C233.38 407.606 232.568 406.977 231.486 406.977C230.674 406.977 229.862 404.881 229.32 403.344C229.32 403.134 226.884 403.134 226.614 403.344C225.802 403.973 224.719 404.462 223.907 404.532C222.554 404.602 208.88 402.546 203.28 397.511C203.01 397.371 201.311 406.804 201.04 406.943C197.522 409.179 191.81 401.29 192.08 401.429C192.351 401.499 185.575 392.406 183.68 391.917C183.139 391.778 179.2 399.751 179.2 399.751L174.039 406.943C171.482 405.965 175.84 404.786 178.164 407.256H175.728C175.187 407.256 174.646 407.187 174.375 407.117L172.48 406.139V410.121L174.375 409.143C174.646 409.073 175.187 409.003 175.728 409.003H178.164C178.976 409.003 172.48 409.073 172.48 409.143L186.48 424.678C186.48 424.888 188.739 420.901 189.28 420.762L191.52 416.536C191.52 416.536 197.522 407.885 201.04 410.121C201.311 410.261 203.299 419.542 203.84 419.332C208.88 414.296 222.554 411.658 223.907 411.728C224.719 411.728 225.802 412.287 226.614 412.916C226.884 413.125 229.05 413.055 229.32 412.916C229.862 411.379 230.944 409.283 231.486 409.283C232.568 409.283 233.38 408.654 236.628 408.794C236.899 408.794 237.17 408.863 237.44 408.863V407.396ZM297.998 406.902C297.309 406.609 296.621 406.315 296.277 406.12C296.162 406.12 296.162 406.022 296.162 406.022L295.359 399.468C295.359 399.175 294.211 399.175 294.211 399.468V399.761C294.326 400.251 290.655 395.947 289.622 394.577C289.507 394.381 288.934 394.381 288.704 394.479L286.065 395.751C285.95 395.751 285.95 395.849 285.95 395.849L281.82 407.098L281.705 407.196V409.739C281.82 409.739 281.82 409.837 281.82 409.837L285.95 421.086L286.065 421.184L288.704 422.455C288.934 422.553 289.507 422.553 289.622 422.357C290.769 420.988 294.441 416.684 294.211 417.173V417.467C294.211 417.76 295.359 417.76 295.359 417.467L296.162 410.913C296.162 410.815 296.162 410.815 296.277 410.815C296.621 410.717 297.309 410.326 297.998 410.032V406.902Z" fill="#F4B70B"/>
<path d="M312.911 408.37V407.881C312.911 407.783 312.682 407.685 312.452 407.685H306.601C306.371 407.685 306.256 407.685 306.142 407.587L305.683 407.098C305.568 407 305.109 406.902 304.88 407.098L303.847 407.685C303.732 407.685 303.617 407.783 303.503 407.783L298.798 408.076H298.454L295.127 407C295.012 407 295.012 406.902 295.012 406.902V401.914L294.897 401.816C294.668 401.62 294.094 401.718 293.98 401.816C293.635 402.403 292.947 403.479 292.832 403.674C292.603 403.968 289.964 401.718 289.161 401.131C289.046 401.033 288.816 401.033 288.587 401.033L286.636 401.425C286.522 401.425 286.407 401.522 286.407 401.522L282.276 407.783C282.276 407.881 282.162 407.881 281.932 407.881L280.096 408.174H279.867C279.178 408.174 276.081 407.881 275.736 407.881C275.392 407.881 271.147 408.076 270.459 408.174C269.885 408.272 265.295 408.174 264.607 408.174H264.492L261.624 407.685H261.165L259.1 408.174H258.755C258.067 408.076 255.887 407.685 255.313 407.587C254.625 407.391 251.527 407.978 250.724 408.174C250.035 408.37 248.314 408.076 247.855 407.978H247.511C247.052 408.076 245.905 408.174 245.561 408.174C245.102 408.174 242.348 407.783 241.66 407.783C241.086 407.783 239.939 407.881 239.594 407.978H231.219L226.285 406.315C226.055 406.218 225.826 406.218 225.711 406.315C225.137 406.511 223.875 407.098 223.416 407.196C222.843 407.294 208.73 404.066 206.55 403.577H205.976L202.993 404.653C202.879 404.653 202.879 404.75 202.879 404.75C202.764 405.142 201.961 407.391 202.075 407.783C202.19 408.076 199.781 408.076 199.092 408.076H198.863L196.797 407.489C196.683 407.489 196.683 407.489 196.683 407.391C196.453 407.098 195.076 405.826 195.076 405.729C195.076 405.631 194.273 405.924 193.7 406.218C193.47 406.315 193.011 406.315 192.896 406.12L185.094 398.099C184.98 397.903 184.406 397.903 184.176 398.099C182.685 399.86 177.522 405.924 177.177 406.12C176.948 406.218 176.145 405.729 175.571 405.239C175.342 405.044 174.653 405.142 174.653 405.337V407.881C174.653 407.978 174.424 408.076 174.194 408.076H172.359C172.129 408.076 171.9 407.978 171.9 407.881L169.031 401.718C168.916 401.522 168.343 401.522 168.113 401.718C167.884 401.914 167.31 401.816 167.195 401.62L163.409 387.632C163.294 387.437 162.606 387.437 162.491 387.632L162.376 387.828C162.262 388.024 161.459 388.024 161.459 387.828V387.339C161.459 387.339 161.459 387.241 161.344 387.241L161.229 387.143C161 386.948 160.426 387.045 160.426 387.241L158.246 403.968C158.246 404.066 158.016 404.163 157.787 404.163H157.099C156.869 404.163 156.754 404.163 156.64 404.066L152.509 400.251C152.394 400.153 151.935 400.055 151.706 400.153C151.132 400.446 150.214 400.838 150.1 400.936C149.985 401.033 149.641 400.936 149.296 400.838C149.067 400.74 148.608 400.838 148.608 400.936C148.264 401.62 147.575 403.185 147.231 403.381C147.002 403.577 145.51 401.816 144.707 400.936C144.592 400.74 143.904 400.74 143.789 400.936C143.215 401.816 142.183 403.185 141.953 403.381C141.609 403.674 139.085 404.555 138.511 404.653C138.052 404.75 135.872 404.359 135.184 404.261H134.725L134.151 404.555C133.922 404.653 133.692 404.555 133.463 404.457L130.594 402.501C130.365 402.403 129.906 402.403 129.791 402.501L126.464 407.391C126.464 407.489 126.234 407.489 126.005 407.489H122.219C122.104 407.489 121.989 407.489 121.874 407.391L117.744 405.631C117.514 405.533 117.17 405.533 117.055 405.631C116.252 406.12 114.072 407.294 113.728 407.391C113.384 407.489 111.548 407 111.089 406.805H110.745L102.599 407.391H102.484L93.5339 407.196C93.4199 407.196 93.3049 407.196 93.1899 407.098C92.9609 407 92.3869 406.805 92.2719 406.609C92.1569 406.413 87.7969 403.381 86.4209 402.501C86.1619 402.403 85.876 402.403 85.6169 402.501C84.4699 403.185 81.4869 405.044 81.2569 405.142C81.0279 405.239 80.6839 404.163 80.5689 403.772C80.5689 403.674 80.3399 403.577 80.1099 403.577H79.7659C79.5359 403.577 79.4219 403.674 79.3069 403.674L77.8149 406.12C77.8149 406.218 77.5849 406.218 77.3559 406.218H74.2599C74.0299 406.218 73.7999 406.12 73.7999 406.022L68.6369 393.501C68.5229 393.306 67.8339 393.306 67.7199 393.501L66.8019 396.338C66.6869 396.534 65.9989 396.534 65.8839 396.338L62.4419 390.469C62.4419 390.371 62.2119 390.371 61.9819 390.371H57.9669C57.7369 390.371 57.6229 390.469 57.5079 390.469L54.4099 394.773C54.2949 394.969 53.4919 394.969 53.4919 394.773L52.3449 387.241V387.143L50.6239 385.089C50.5089 384.893 49.7059 384.893 49.7059 385.187C49.4759 388.415 48.7879 398.392 48.6729 398.686C48.4429 398.979 46.9529 403.479 46.4929 404.848C46.4929 405.044 45.9199 405.044 45.6899 404.946L41.9039 403.185C41.9039 403.185 41.7889 403.185 41.7889 403.088L40.4119 401.229C40.2969 401.033 39.7239 401.033 39.4939 401.229C38.8059 401.914 37.6579 403.088 37.1999 403.283C36.7399 403.479 36.0519 403.381 35.7079 403.283C35.5929 403.283 35.4779 403.185 35.4779 403.185L33.5279 400.544C33.4129 400.446 33.0689 400.349 32.7249 400.446L29.0529 401.816C28.9389 401.816 28.9389 401.914 28.9389 401.914V407.685C28.9389 407.783 28.7089 407.881 28.4789 407.881H23.0869C22.8569 407.881 22.6279 407.978 22.6279 408.076V408.37C22.6279 408.467 22.7429 408.467 22.7429 408.467C22.6279 408.467 22.6279 408.565 22.6279 408.565V408.859C22.6279 408.957 22.8579 409.054 23.0869 409.054H28.3649C28.5949 409.054 28.8239 409.152 28.8239 409.25V415.021C28.8239 415.119 28.9379 415.119 28.9379 415.119L32.6099 416.489C32.8399 416.586 33.2979 416.489 33.4129 416.391L35.3629 413.75C35.3629 413.652 35.4779 413.652 35.5929 413.652C35.9369 413.554 36.6259 413.554 37.0849 413.652C37.5439 413.847 38.8049 415.021 39.3789 415.706C39.4939 415.902 40.0679 415.902 40.2969 415.706L41.6739 413.847C41.6739 413.847 41.6739 413.75 41.7889 413.75L45.5749 411.989C45.8049 411.891 46.3779 411.891 46.3779 412.087C46.8379 413.456 48.3289 417.956 48.5579 418.249C48.7879 418.543 49.3619 428.52 49.5909 431.748C49.5909 431.944 50.2789 432.042 50.5089 431.846L52.2299 429.792V429.694L53.3769 422.162C53.3769 421.966 54.1809 421.869 54.2949 422.162L57.3929 426.368C57.5079 426.466 57.6229 426.466 57.8529 426.466H61.8679C62.0979 426.466 62.2119 426.368 62.3269 426.368L65.7689 420.499C65.8839 420.303 66.5719 420.303 66.6869 420.499L67.6049 423.336C67.7199 423.531 68.4079 423.531 68.5229 423.336L73.8009 410.424C73.8009 410.326 74.0309 410.228 74.2599 410.228H77.3569C77.5869 410.228 77.7019 410.326 77.8169 410.326L79.3079 412.771C79.3079 412.869 79.5369 412.869 79.7669 412.869H80.1109C80.3409 412.869 80.5699 412.771 80.5699 412.674C80.6849 412.282 80.9139 411.206 81.2579 411.304C81.4879 411.402 84.4709 413.261 85.6179 413.945C85.8479 414.043 86.1919 414.043 86.4219 413.945C87.7979 413.065 92.1579 409.935 92.2729 409.837C92.3879 409.739 92.9619 409.446 93.1909 409.348C93.3059 409.348 93.4209 409.348 93.5349 409.25L102.485 409.054H102.6L110.746 409.641H111.09C111.664 409.446 113.5 408.957 113.729 409.054C113.958 409.152 116.253 410.326 117.056 410.815C117.171 410.913 117.515 410.913 117.745 410.815L121.875 409.054C121.99 409.054 122.105 408.957 122.22 408.957H126.006C126.235 408.957 126.35 409.054 126.465 409.054L129.792 413.945C129.907 414.141 130.481 414.141 130.595 413.945L133.464 411.989C133.578 411.891 133.923 411.891 134.152 411.891L135.414 412.282H135.873C136.562 412.185 138.742 411.793 139.201 411.891C139.774 411.989 142.298 412.967 142.643 413.163C142.872 413.358 143.905 414.826 144.478 415.608C144.593 415.804 145.167 415.804 145.396 415.608C146.2 414.728 147.576 412.967 147.921 413.163C148.15 413.358 148.953 414.923 149.297 415.608C149.412 415.706 149.756 415.804 149.986 415.706C150.33 415.608 150.674 415.51 150.789 415.608C150.904 415.706 151.822 416.097 152.395 416.391C152.625 416.489 152.969 416.489 153.198 416.293L157.329 412.478C157.444 412.38 157.558 412.38 157.788 412.38H158.476C158.706 412.38 158.935 412.478 158.935 412.576L161.115 429.303C161.115 429.498 161.689 429.498 161.918 429.401L162.033 429.303L162.148 429.205V429.107C162.148 428.911 162.951 428.814 163.066 429.107L163.181 429.303C163.295 429.498 163.984 429.498 164.098 429.303L167.885 415.315C168 415.119 168.573 415.119 168.803 415.217C169.032 415.413 169.606 415.315 169.721 415.217L172.589 409.054C172.589 408.957 172.818 408.859 173.048 408.859H174.884C175.113 408.859 175.343 408.957 175.343 409.054V411.598C175.343 411.793 176.031 411.891 176.261 411.695C176.834 411.206 177.523 410.717 177.867 410.815C178.326 411.011 183.374 417.075 184.866 418.836C184.981 419.032 185.554 419.032 185.784 418.836L193.586 410.815C193.701 410.717 194.16 410.619 194.389 410.717C194.963 410.913 195.766 411.304 195.766 411.206C195.766 411.109 197.143 409.837 197.372 409.543L197.487 409.446L199.552 408.859H199.782C200.355 408.859 202.765 408.761 202.765 409.152C202.65 409.446 203.338 411.695 203.568 412.185L203.683 412.282L206.666 413.358C206.781 413.456 207.01 413.456 207.24 413.358C209.42 412.869 223.532 409.543 224.106 409.739C224.565 409.837 225.827 410.326 226.401 410.619C226.515 410.717 226.86 410.717 226.974 410.619L231.908 408.957H240.283C240.627 409.054 241.774 409.152 242.348 409.152C243.036 409.152 245.79 408.761 246.249 408.761C246.593 408.761 247.855 408.859 248.2 408.957H248.544C249.117 408.859 250.839 408.565 251.412 408.761C252.215 408.957 255.313 409.543 256.002 409.348C256.575 409.152 258.755 408.859 259.444 408.761H259.788L261.853 409.25H262.312L265.181 408.761H265.295C265.984 408.761 270.459 408.663 271.147 408.761C271.835 408.859 276.081 409.054 276.425 409.054C276.769 409.054 279.867 408.761 280.555 408.761H280.785L282.621 409.054C282.735 409.054 282.85 409.152 282.965 409.152L287.095 415.413C287.095 415.51 287.21 415.51 287.325 415.51L289.275 415.902C289.505 415.902 289.734 415.902 289.849 415.804C290.652 415.217 293.291 412.967 293.521 413.261C293.635 413.456 294.324 414.434 294.668 415.119C294.783 415.315 295.356 415.315 295.586 415.119L295.701 415.021V410.033C295.701 409.935 295.815 409.935 295.815 409.935L299.143 408.859H299.487L304.191 409.152C304.306 409.152 304.421 409.152 304.535 409.25L305.568 409.837C305.797 409.935 306.256 409.935 306.371 409.837L306.83 409.348C306.945 409.25 307.06 409.25 307.289 409.25H313.141C313.37 409.25 313.6 409.152 313.6 409.054V408.565C313.6 408.467 313.485 408.467 313.485 408.467C312.911 408.467 312.911 408.37 312.911 408.37Z" fill="#262626"/>
<path fill-rule="evenodd" clip-rule="evenodd" d="M21.8399 416.293V400.642H22.9589V416.293H21.8399Z" fill="url(#paint0_linear_2957_46814)"/>
<path fill-rule="evenodd" clip-rule="evenodd" d="M312.123 416.293V400.642H313.242V416.293H312.123Z" fill="url(#paint1_linear_2957_46814)"/>
<path d="M288.212 437.608C287.75 437.608 287.347 437.51 287.002 437.313C286.661 437.111 286.385 436.815 286.209 436.46C286.025 436.089 285.934 435.652 285.934 435.151C285.934 434.654 286.025 434.222 286.209 433.855C286.393 433.484 286.655 433.199 286.995 433.002C287.34 432.806 287.746 432.707 288.212 432.707C288.678 432.707 289.081 432.806 289.421 433.002C289.766 433.199 290.028 433.484 290.208 433.855C290.391 434.222 290.483 434.654 290.483 435.151C290.483 435.652 290.391 436.089 290.208 436.46C290.035 436.815 289.761 437.112 289.421 437.313C289.081 437.51 288.678 437.608 288.212 437.608ZM288.212 436.917C288.655 436.917 289 436.765 289.247 436.46C289.493 436.156 289.616 435.72 289.616 435.151C289.616 434.587 289.493 434.155 289.247 433.855C289 433.551 288.655 433.399 288.212 433.399C287.768 433.399 287.423 433.549 287.177 433.848C286.93 434.148 286.807 434.583 286.807 435.151C286.807 435.72 286.93 436.156 287.177 436.46C287.423 436.765 287.768 436.917 288.212 436.917ZM293.347 437.608C292.688 437.608 292.189 437.441 291.848 437.105C291.512 436.765 291.344 436.268 291.344 435.614V432.767H292.198V435.661C292.198 436.073 292.294 436.386 292.486 436.601C292.679 436.812 292.966 436.917 293.347 436.917C293.718 436.917 294.001 436.809 294.193 436.595C294.39 436.38 294.489 436.069 294.489 435.661V432.767H295.342V435.614C295.342 436.263 295.172 436.758 294.832 437.098C294.491 437.438 293.996 437.608 293.347 437.608ZM297.468 437.548V433.479H295.909V432.767H299.907V433.479H298.341V437.548H297.468ZM300.506 432.767H302.582C303.098 432.767 303.499 432.893 303.785 433.143C304.072 433.39 304.215 433.728 304.215 434.157C304.215 434.587 304.07 434.927 303.779 435.178C303.492 435.429 303.093 435.554 302.582 435.554H301.373V437.548H300.506V432.767ZM302.482 434.882C302.782 434.882 303.008 434.822 303.16 434.701C303.317 434.576 303.396 434.397 303.396 434.164C303.396 433.927 303.319 433.748 303.167 433.627C303.015 433.502 302.786 433.439 302.482 433.439H301.373V434.882H302.482ZM306.957 437.608C306.299 437.608 305.799 437.441 305.459 437.105C305.123 436.765 304.955 436.268 304.955 435.614V432.767H305.808V435.661C305.808 436.073 305.904 436.386 306.097 436.601C306.29 436.812 306.576 436.917 306.957 436.917C307.329 436.917 307.611 436.809 307.804 436.595C308.001 436.38 308.1 436.069 308.1 435.661V432.767H308.953V435.614C308.953 436.263 308.783 436.758 308.442 437.098C308.102 437.438 307.607 437.608 306.957 437.608ZM311.078 437.548V433.479H309.519V432.767H313.518V433.479H311.952V437.548H311.078Z" fill="#949494"/>
<path d="M280 437.548C280.593 437.547 281.162 437.31 281.581 436.891C282.001 436.472 282.238 435.904 282.24 435.31C282.238 434.717 282.001 434.149 281.581 433.729C281.162 433.31 280.593 433.074 280 433.072C279.407 433.074 278.838 433.31 278.418 433.729C277.999 434.149 277.762 434.717 277.76 435.31C277.762 435.904 277.999 436.472 278.418 436.891C278.838 437.31 279.407 437.547 280 437.548Z" fill="#F4B70B"/>
<path d="M252.092 437.548V432.767H252.959V437.548H252.092ZM257.214 432.767H258.027V437.548H257.382L254.801 434.197V437.548H253.995V432.767H254.64L257.214 436.111V432.767ZM259.068 432.767H261.144C261.659 432.767 262.06 432.892 262.347 433.143C262.634 433.389 262.777 433.727 262.777 434.157C262.777 434.587 262.632 434.927 262.34 435.178C262.054 435.428 261.655 435.554 261.144 435.554H259.935V437.548H259.068V432.767ZM261.043 434.882C261.344 434.882 261.57 434.822 261.722 434.701C261.879 434.575 261.957 434.396 261.957 434.164C261.957 433.926 261.881 433.747 261.729 433.627C261.577 433.501 261.348 433.439 261.043 433.439H259.935V434.882H261.043ZM265.519 437.608C264.86 437.608 264.361 437.44 264.02 437.105C263.684 436.764 263.516 436.267 263.516 435.614V432.767H264.37V435.661C264.37 436.073 264.466 436.386 264.659 436.601C264.852 436.811 265.138 436.917 265.519 436.917C265.891 436.917 266.173 436.809 266.366 436.594C266.563 436.379 266.661 436.068 266.661 435.661V432.767H267.515V435.614C267.515 436.263 267.345 436.758 267.004 437.098C266.664 437.438 266.169 437.608 265.519 437.608ZM269.64 437.548V433.479H268.081V432.767H272.079V433.479H270.514V437.548H269.64Z" fill="#949494"/>
<path d="M246.4 437.546C246.993 437.545 247.562 437.308 247.982 436.889C248.401 436.47 248.638 435.902 248.64 435.308C248.638 434.715 248.401 434.147 247.982 433.727C247.562 433.308 246.993 433.072 246.4 433.07C245.807 433.072 245.238 433.308 244.819 433.727C244.399 434.147 244.162 434.715 244.16 435.308C244.162 435.902 244.399 436.47 244.819 436.889C245.238 437.308 245.807 437.545 246.4 437.546Z" fill="#262626"/>
<path d="M305.76 48.119H306.88V49.239H305.76V50.357H304.64V49.238H303.52V48.12H304.64V47H305.76V48.119Z" fill="#939393"/>
<path fill-rule="evenodd" clip-rule="evenodd" d="M309.679 40.286C307.86 40.286 306.319 41.826 306.319 43.643C306.319 45.46 307.86 47 309.679 47C310.644 47 311.502 46.617 312.068 46.06C312.671 45.352 313.039 44.586 313.039 43.643C313.039 41.825 311.498 40.286 309.679 40.286ZM305.199 43.643C305.199 41.208 307.242 39.166 309.679 39.166C312.116 39.166 314.159 41.208 314.159 43.643C314.159 44.93 313.638 45.95 312.904 46.804L312.89 46.821L312.875 46.836C312.097 47.614 310.946 48.119 309.679 48.119C307.242 48.119 305.199 46.078 305.199 43.643Z" fill="#939393"/>
<path fill-rule="evenodd" clip-rule="evenodd" d="M312.876 46.0449L316.236 49.4019L315.444 50.1929L312.084 46.8359L312.876 46.0449Z" fill="#939393"/>
<path d="M322.559 50.357H319.199L322.559 47V50.357Z" fill="#939393"/>
<path d="M22.4004 263.067C21.7074 263.067 21.1034 262.919 20.5854 262.624C20.0739 262.321 19.6607 261.877 19.3954 261.345C19.1204 260.787 18.9824 260.133 18.9824 259.381C18.9824 258.636 19.1204 257.988 19.3964 257.437C19.6519 256.902 20.0632 256.456 20.5764 256.158C21.0934 255.863 21.7014 255.715 22.3994 255.715C23.0994 255.715 23.7034 255.863 24.2144 256.158C24.7314 256.453 25.1244 256.88 25.3944 257.437C25.6694 257.988 25.8074 258.636 25.8074 259.381C25.8074 260.133 25.6694 260.787 25.3934 261.345C25.1184 261.895 24.7254 262.322 24.2134 262.624C23.7034 262.919 23.0994 263.067 22.4004 263.067ZM22.4004 262.03C23.0654 262.03 23.5824 261.801 23.9524 261.345C24.3224 260.888 24.5064 260.234 24.5064 259.381C24.5064 258.535 24.3224 257.887 23.9524 257.437C23.5824 256.98 23.0654 256.752 22.3994 256.752C21.7344 256.752 21.2174 256.977 20.8474 257.427C20.4774 257.877 20.2934 258.528 20.2934 259.381C20.2934 260.234 20.4784 260.888 20.8474 261.345C21.2174 261.801 21.7354 262.03 22.4004 262.03ZM30.1024 263.067C29.1154 263.067 28.3654 262.815 27.8554 262.312C27.3514 261.801 27.0994 261.056 27.0994 260.076V255.805H28.3794V260.146C28.3794 260.764 28.5234 261.234 28.8124 261.556C29.1024 261.872 29.5324 262.03 30.1024 262.03C30.6604 262.03 31.0844 261.868 31.3724 261.546C31.6684 261.224 31.8164 260.757 31.8164 260.146V255.805H33.0964V260.076C33.0964 261.049 32.8414 261.791 32.3304 262.302C31.8204 262.812 31.0774 263.067 30.1024 263.067ZM36.2834 262.976V256.873H33.9444V255.805H39.9424V256.873H37.5934V262.976H36.2834ZM40.8404 255.805H43.9554C44.7284 255.805 45.3304 255.993 45.7604 256.369C46.1904 256.739 46.4054 257.246 46.4054 257.89C46.4054 258.535 46.1874 259.045 45.7504 259.421C45.3204 259.797 44.7224 259.985 43.9564 259.985H42.1404V262.976H40.8404V255.805ZM43.8044 258.978C44.2544 258.978 44.5944 258.887 44.8224 258.706C45.0584 258.518 45.1754 258.249 45.1754 257.9C45.1754 257.544 45.0614 257.276 44.8334 257.095C44.6044 256.907 44.2614 256.813 43.8044 256.813H42.1414V258.978H43.8044ZM50.5174 263.067C49.5304 263.067 48.7804 262.815 48.2704 262.312C47.7664 261.801 47.5144 261.056 47.5144 260.076V255.805H48.7944V260.146C48.7944 260.764 48.9384 261.234 49.2274 261.556C49.5174 261.872 49.9474 262.03 50.5174 262.03C51.0754 262.03 51.4994 261.868 51.7874 261.546C52.0834 261.224 52.2314 260.757 52.2314 260.146V255.805H53.5114V260.076C53.5114 261.049 53.2564 261.791 52.7454 262.302C52.2354 262.812 51.4924 263.067 50.5184 263.067H50.5174ZM56.6994 262.976V256.873H54.3604V255.805H60.3584V256.873H58.0094V262.976H56.6994ZM31.7004 80.6621C30.8474 80.6621 30.1964 80.3501 29.7454 79.7251C29.3024 79.0941 29.0804 78.1781 29.0804 76.9751C29.0804 75.7951 29.3024 74.8911 29.7454 74.2671C30.1954 73.6421 30.8474 73.3301 31.7014 73.3301C32.5544 73.3301 33.2034 73.6421 33.6464 74.2671C34.0964 74.8841 34.3224 75.7871 34.3224 76.9761C34.3224 78.1711 34.0974 79.0841 33.6464 79.7151C33.2034 80.3471 32.5534 80.6621 31.7004 80.6621ZM31.7004 79.6451C32.1654 79.6451 32.5004 79.4331 32.7094 79.0101C32.9244 78.5801 33.0314 77.9021 33.0314 76.9761C33.0314 76.0631 32.9244 75.3981 32.7094 74.9821C32.5014 74.5591 32.1654 74.3471 31.7014 74.3471C31.2374 74.3471 30.8984 74.5591 30.6834 74.9821C30.4744 75.3981 30.3704 76.0621 30.3704 76.9761C30.3704 77.9031 30.4744 78.5811 30.6834 79.0101C30.8984 79.4331 31.2364 79.6451 31.7004 79.6451ZM24.9514 99.6181V98.6101H27.9854V99.6171L24.9514 99.6181ZM32.0824 97.2511C32.5324 97.2511 32.9294 97.3481 33.2724 97.5431C33.6144 97.7311 33.8804 98.0001 34.0684 98.3491C34.2564 98.6911 34.3504 99.0871 34.3504 99.5371C34.3504 100.007 34.2434 100.423 34.0284 100.786C33.8064 101.149 33.484 101.439 33.1004 101.622C32.6974 101.817 32.2304 101.914 31.7004 101.914C31.2494 101.914 30.8054 101.84 30.3694 101.692C29.9726 101.561 29.6058 101.352 29.2904 101.078L29.7234 100.131C30.3754 100.628 31.0414 100.877 31.7194 100.877C32.1694 100.877 32.5124 100.766 32.7474 100.544C32.9894 100.316 33.1104 99.9941 33.1104 99.5771C33.1104 99.1811 32.9864 98.8671 32.7374 98.6311C32.4954 98.3891 32.1694 98.2681 31.7604 98.2681C31.4774 98.2681 31.2124 98.3221 30.9634 98.4291C30.7143 98.5303 30.4906 98.6853 30.3084 98.8831H29.5224V94.6631H34.0174V95.6701H30.7924V97.6241C31.1554 97.3751 31.5854 97.2511 32.0824 97.2511ZM18.9084 120.879V119.872H21.9424V120.879H18.9084ZM26.6244 122.037H28.1874V123.095H23.7624V122.037H25.3344V117.415L23.8734 118.291V117.133L25.8684 115.924H26.6244V122.037ZM31.7004 123.186C30.8474 123.186 30.1964 122.873 29.7454 122.249C29.3024 121.618 29.0804 120.701 29.0804 119.499C29.0804 118.318 29.3024 117.415 29.7454 116.79C30.1954 116.166 30.8474 115.854 31.7014 115.854C32.5544 115.854 33.2034 116.166 33.6464 116.79C34.0964 117.408 34.3224 118.311 34.3224 119.499C34.3224 120.695 34.0974 121.608 33.6464 122.239C33.2034 122.87 32.5534 123.186 31.7004 123.186ZM31.7004 122.168C32.1654 122.168 32.5004 121.957 32.7094 121.534C32.9244 121.104 33.0314 120.426 33.0314 119.499C33.0314 118.586 32.9244 117.922 32.7094 117.505C32.5014 117.082 32.1654 116.871 31.7014 116.871C31.2374 116.871 30.8984 117.082 30.6834 117.505C30.4744 117.922 30.3704 118.586 30.3704 119.499C30.3704 120.426 30.4744 121.104 30.6834 121.534C30.8984 121.957 31.2364 122.168 31.7004 122.168ZM18.9084 142.141V141.134H21.9424V142.141H18.9084ZM26.6244 143.299H28.1874V144.357H23.7624V143.299H25.3344V138.677L23.8734 139.553V138.395L25.8684 137.186H26.6244V143.299ZM32.0834 139.774C32.5334 139.774 32.9304 139.872 33.2734 140.066C33.6154 140.254 33.8814 140.523 34.0694 140.872C34.2574 141.215 34.3514 141.611 34.3514 142.061C34.3514 142.531 34.2444 142.947 34.0294 143.309C33.8074 143.672 33.485 143.962 33.1014 144.145C32.6984 144.34 32.2314 144.437 31.7014 144.437C31.2483 144.437 30.7983 144.362 30.3694 144.216C29.9334 144.061 29.5734 143.857 29.2914 143.602L29.7244 142.655C30.3764 143.152 31.0414 143.4 31.7204 143.4C32.1704 143.4 32.5134 143.289 32.7484 143.068C32.9904 142.839 33.1114 142.517 33.1114 142.101C33.1114 141.705 32.9874 141.389 32.7384 141.154C32.4964 140.912 32.1704 140.792 31.7614 140.792C31.4784 140.792 31.2134 140.845 30.9644 140.953C30.7164 141.053 30.4974 141.205 30.3094 141.406H29.5234V137.186H34.0194V138.193H30.7934V140.147C31.1564 139.899 31.5864 139.774 32.0834 139.774ZM18.8984 163.403V162.396H21.9334V163.403H18.8984ZM28.1574 164.561V165.619H23.3394V164.662L25.7784 162.033C26.0674 161.718 26.2784 161.429 26.4134 161.167C26.5474 160.905 26.6154 160.647 26.6154 160.392C26.6154 160.063 26.5174 159.814 26.3224 159.647C26.1344 159.479 25.8624 159.395 25.5064 159.395C24.8744 159.395 24.2264 159.643 23.5604 160.14L23.1274 159.193C23.4094 158.938 23.7724 158.737 24.2164 158.589C24.6469 158.437 25.0999 158.359 25.5564 158.357C26.2764 158.357 26.8434 158.535 27.2604 158.891C27.6834 159.24 27.8954 159.714 27.8954 160.311C27.8954 160.721 27.8054 161.107 27.6234 161.469C27.4484 161.832 27.1534 162.238 26.7364 162.688L24.9724 164.561H28.1574ZM31.7004 165.71C30.8474 165.71 30.1964 165.397 29.7454 164.773C29.3024 164.142 29.0804 163.225 29.0804 162.023C29.0804 160.842 29.3024 159.939 29.7454 159.314C30.1954 158.69 30.8474 158.378 31.7014 158.378C32.5544 158.378 33.2034 158.69 33.6464 159.314C34.0964 159.932 34.3224 160.835 34.3224 162.023C34.3224 163.219 34.0964 164.132 33.6464 164.763C33.2034 165.394 32.5534 165.71 31.7004 165.71ZM31.7004 164.692C32.1644 164.692 32.5004 164.481 32.7094 164.058C32.9244 163.628 33.0314 162.95 33.0314 162.023C33.0314 161.11 32.9244 160.446 32.7094 160.029C32.5004 159.606 32.1644 159.395 31.7014 159.395C31.2374 159.395 30.8984 159.606 30.6834 160.029C30.4744 160.446 30.3704 161.11 30.3704 162.023C30.3704 162.95 30.4744 163.628 30.6834 164.058C30.8984 164.481 31.2364 164.692 31.7004 164.692ZM18.8984 184.665V183.658H21.9334V184.665H18.8984ZM28.1574 185.823V186.881H23.3394V185.924L25.7784 183.295C26.0674 182.98 26.2784 182.691 26.4134 182.429C26.5474 182.167 26.6154 181.909 26.6154 181.654C26.6154 181.325 26.5174 181.076 26.3224 180.908C26.1344 180.74 25.8624 180.656 25.5064 180.656C24.8744 180.656 24.2264 180.905 23.5604 181.402L23.1274 180.455C23.4094 180.2 23.7724 179.998 24.2164 179.851C24.6594 179.696 25.1064 179.619 25.5564 179.619C26.2764 179.619 26.8434 179.797 27.2604 180.153C27.6834 180.502 27.8954 180.975 27.8954 181.573C27.8954 181.983 27.8054 182.369 27.6234 182.731C27.4484 183.094 27.1534 183.5 26.7364 183.95L24.9724 185.823H28.1574ZM32.0834 182.298C32.5334 182.298 32.9304 182.395 33.2734 182.59C33.6154 182.778 33.8814 183.047 34.0694 183.396C34.2574 183.738 34.3514 184.134 34.3514 184.584C34.3601 185.022 34.2487 185.454 34.0294 185.833C33.8074 186.196 33.4851 186.486 33.1014 186.669C32.6984 186.864 32.2314 186.961 31.7014 186.961C31.2504 186.961 30.8064 186.887 30.3704 186.74C29.9737 186.608 29.607 186.399 29.2914 186.125L29.7244 185.179C30.3764 185.675 31.0424 185.924 31.7204 185.924C32.1704 185.924 32.5134 185.813 32.7494 185.591C32.9904 185.363 33.1114 185.041 33.1114 184.625C33.1114 184.228 32.9874 183.913 32.7384 183.678C32.4964 183.436 32.1714 183.315 31.7614 183.315C31.4784 183.315 31.2134 183.369 30.9644 183.476C30.7153 183.577 30.4917 183.732 30.3094 183.93H29.5234V179.71H34.0194V180.717H30.7934V182.671C31.1564 182.422 31.5864 182.298 32.0834 182.298ZM18.9084 205.927V204.92H21.9424V205.927H18.9084ZM26.7654 204.457C27.1894 204.571 27.5114 204.779 27.7334 205.081C27.9614 205.383 28.0764 205.756 28.0764 206.199C28.0764 206.823 27.8444 207.317 27.3804 207.68C26.9234 208.042 26.3054 208.223 25.5254 208.223C25.0414 208.223 24.5754 208.15 24.1254 208.002C23.7199 207.876 23.3452 207.666 23.0254 207.387L23.4694 206.441C24.1074 206.938 24.7764 207.186 25.4754 207.186C25.9324 207.186 26.2714 207.095 26.4934 206.914C26.7214 206.733 26.8364 206.458 26.8364 206.088C26.8364 205.726 26.7214 205.46 26.4934 205.293C26.2654 205.118 25.9124 205.031 25.4354 205.031H24.4874V203.993H25.2634C26.1914 203.993 26.6544 203.641 26.6544 202.936C26.6544 202.607 26.5544 202.355 26.3524 202.181C26.1504 202.006 25.8684 201.919 25.5054 201.919C24.8604 201.919 24.2154 202.167 23.5704 202.664L23.1364 201.717C23.4556 201.445 23.8259 201.24 24.2254 201.113C24.6625 200.96 25.1223 200.881 25.5854 200.881C26.2914 200.881 26.8524 201.056 27.2694 201.405C27.6934 201.747 27.9044 202.207 27.9044 202.785C27.9062 203.154 27.7975 203.515 27.5924 203.822C27.3974 204.111 27.1224 204.322 26.7654 204.457ZM31.7004 208.233C30.8474 208.233 30.1964 207.921 29.7454 207.297C29.3024 206.666 29.0804 205.749 29.0804 204.547C29.0804 203.366 29.3024 202.463 29.7454 201.838C30.1954 201.214 30.8474 200.901 31.7014 200.901C32.5544 200.901 33.2034 201.214 33.6464 201.838C34.0964 202.456 34.3224 203.359 34.3224 204.547C34.3224 205.742 34.0974 206.656 33.6464 207.287C33.2034 207.918 32.5534 208.233 31.7004 208.233ZM31.7004 207.216C32.1654 207.216 32.5004 207.005 32.7094 206.582C32.9244 206.152 33.0314 205.474 33.0314 204.547C33.0314 203.634 32.9244 202.969 32.7094 202.553C32.5014 202.13 32.1654 201.919 31.7014 201.919C31.2374 201.919 30.8984 202.13 30.6834 202.553C30.4744 202.969 30.3704 203.634 30.3704 204.547C30.3704 205.474 30.4744 206.152 30.6834 206.582C30.8984 207.005 31.2364 207.216 31.7004 207.216ZM18.9084 227.189V226.182H21.9424V227.189H18.9084ZM26.7654 225.718C27.1894 225.833 27.5114 226.041 27.7334 226.343C27.9614 226.645 28.0764 227.018 28.0764 227.461C28.0764 228.085 27.8444 228.579 27.3804 228.941C26.9234 229.304 26.3054 229.485 25.5254 229.485C25.0414 229.485 24.5754 229.411 24.1254 229.264C23.7199 229.138 23.3452 228.928 23.0254 228.649L23.4694 227.702C24.1074 228.199 24.7764 228.448 25.4754 228.448C25.9324 228.448 26.2714 228.357 26.4934 228.176C26.7214 227.995 26.8364 227.719 26.8364 227.35C26.8364 226.987 26.7214 226.722 26.4934 226.554C26.2654 226.38 25.9124 226.292 25.4354 226.292H24.4874V225.255H25.2634C26.1914 225.255 26.6544 224.903 26.6544 224.198C26.6544 223.869 26.5544 223.617 26.3524 223.442C26.1504 223.268 25.8684 223.18 25.5054 223.18C24.8604 223.18 24.2154 223.429 23.5704 223.926L23.1364 222.979C23.4554 222.707 23.8257 222.502 24.2254 222.375C24.6624 222.221 25.1222 222.143 25.5854 222.143C26.2914 222.143 26.8524 222.318 27.2694 222.667C27.6934 223.009 27.9044 223.469 27.9044 224.047C27.8974 224.443 27.7944 224.788 27.5924 225.084C27.3974 225.373 27.1224 225.584 26.7654 225.718ZM32.0834 224.822C32.5334 224.822 32.9304 224.919 33.2734 225.114C33.6154 225.302 33.8814 225.571 34.0694 225.92C34.2574 226.262 34.3514 226.658 34.3514 227.108C34.3601 227.546 34.2487 227.978 34.0294 228.357C33.8074 228.72 33.485 229.01 33.1014 229.193C32.6984 229.388 32.2314 229.485 31.7014 229.485C31.2504 229.485 30.8064 229.411 30.3694 229.264C29.973 229.132 29.6067 228.923 29.2914 228.649L29.7244 227.702C30.3764 228.199 31.0414 228.448 31.7204 228.448C32.1704 228.448 32.5134 228.337 32.7484 228.115C32.9904 227.887 33.1114 227.565 33.1114 227.149C33.1114 226.752 32.9874 226.437 32.7384 226.202C32.4964 225.96 32.1704 225.839 31.7614 225.839C31.4784 225.839 31.2134 225.893 30.9644 226C30.7153 226.101 30.4917 226.256 30.3094 226.454H29.5234V222.234H34.0194V223.241H30.7934V225.195C31.1564 224.946 31.5864 224.822 32.0834 224.822ZM41.4134 275.399C40.6154 275.399 39.9954 275.059 39.5534 274.381C39.1134 273.699 38.8934 272.786 38.8934 271.642C38.8934 270.484 39.1094 269.588 39.5434 268.952C39.9794 268.312 40.6054 267.993 41.4234 267.993C42.2264 267.993 42.8454 268.319 43.2784 268.971C43.7144 269.624 43.9334 270.514 43.9334 271.642C43.9334 272.392 43.8394 273.048 43.6524 273.609C43.4654 274.166 43.1794 274.604 42.7964 274.922C42.4154 275.24 41.9544 275.399 41.4134 275.399ZM41.4334 274.332C42.2494 274.332 42.6584 273.437 42.6584 271.647C42.6584 271.299 42.6364 270.978 42.5944 270.683C42.5559 270.404 42.4882 270.131 42.3924 269.866C42.3205 269.639 42.1897 269.436 42.0134 269.276C41.856 269.133 41.6499 269.056 41.4374 269.06C41.2162 269.056 41.0011 269.133 40.8324 269.276C40.6505 269.434 40.5144 269.638 40.4384 269.866C40.3423 270.13 40.2746 270.404 40.2364 270.683C40.192 271.004 40.1706 271.327 40.1724 271.651C40.1724 272.058 40.1944 272.417 40.2364 272.728C40.2794 273.04 40.3464 273.32 40.4384 273.569C40.5334 273.815 40.6644 274.004 40.8324 274.135C41.0039 274.268 41.2168 274.337 41.4334 274.332ZM50.5924 274.415C50.8154 274.415 51.0104 274.371 51.1774 274.282C51.3454 274.191 51.4764 274.066 51.5714 273.909C51.6708 273.746 51.7441 273.568 51.7884 273.382C51.8374 273.192 51.8614 272.987 51.8614 272.768C51.8614 272.276 51.7554 271.876 51.5414 271.568C51.3284 271.256 51.0084 271.101 50.5814 271.101C50.2964 271.101 50.0554 271.178 49.8584 271.332C49.6659 271.485 49.5209 271.69 49.4404 271.922C49.3542 272.189 49.3126 272.468 49.3174 272.748C49.3174 272.974 49.3404 273.184 49.3864 273.378C49.4354 273.571 49.5074 273.748 49.6024 273.909C49.7014 274.066 49.8344 274.191 50.0014 274.282C50.1714 274.371 50.3694 274.415 50.5924 274.415ZM50.3414 275.399C49.6884 275.399 49.1404 275.159 48.6974 274.681C48.2574 274.202 48.0374 273.571 48.0374 272.787C48.0374 272.43 48.0884 272.092 48.1904 271.774C48.2914 271.456 48.4374 271.173 48.6284 270.924C48.8296 270.669 49.0897 270.466 49.3864 270.333C49.715 270.182 50.073 270.107 50.4344 270.112C50.7824 270.112 51.0764 270.184 51.3154 270.329C51.5584 270.47 51.7274 270.617 51.8224 270.771V268.121H53.0324V273.938L53.0774 275.286H51.8274L51.8174 274.641C51.7819 274.726 51.7318 274.805 51.6694 274.873C51.5867 274.964 51.4946 275.046 51.3944 275.118C51.2794 275.2 51.1304 275.268 50.9464 275.32C50.7494 275.374 50.5458 275.401 50.3414 275.399ZM55.9324 271.096H57.0004C57.1674 271.096 57.3214 271.081 57.4624 271.051C57.6034 271.019 57.7364 270.966 57.8624 270.894C57.9893 270.823 58.0934 270.717 58.1624 270.589C58.238 270.443 58.2752 270.281 58.2704 270.117C58.2704 269.763 58.1474 269.522 57.9004 269.394C57.6544 269.263 57.2674 269.198 56.7394 269.198H55.9324V271.096ZM55.9464 274.218H57.0744C58.0814 274.218 58.5844 273.882 58.5844 273.21C58.5844 272.791 58.4714 272.502 58.2454 272.345C58.0224 272.187 57.6224 272.109 57.0454 272.109H55.9464V274.218ZM54.6824 275.286V268.125H56.6654C56.8724 268.125 57.0574 268.13 57.2214 268.14C57.3854 268.147 57.5724 268.165 57.7824 268.194C57.9964 268.221 58.1824 268.26 58.3434 268.312C58.5044 268.362 58.6674 268.432 58.8314 268.524C59.1477 268.696 59.3856 268.983 59.4954 269.325C59.5654 269.512 59.5994 269.724 59.5994 269.96C59.5994 270.668 59.2824 271.178 58.6494 271.489C59.0754 271.604 59.3954 271.82 59.6094 272.138C59.8224 272.453 59.9294 272.828 59.9294 273.264C59.9294 273.537 59.8744 273.792 59.7664 274.032C59.6525 274.276 59.4898 274.493 59.2884 274.671C59.0466 274.879 58.7633 275.033 58.4574 275.123C58.0808 275.237 57.6889 275.292 57.2954 275.286H54.6824Z" fill="#949494"/>
<path fill-rule="evenodd" clip-rule="evenodd" d="M59.362 76.0957V227.167H56.002V76.0957H59.362Z" fill="#424242"/>
<path fill-rule="evenodd" clip-rule="evenodd" d="M59.36 87.2852V227.167H56V87.2852H59.36Z" fill="#F4B70B"/>
<path d="M57.681 66.0244C63.557 66.0244 68.321 70.7844 68.321 76.6554C68.321 82.5264 63.557 87.2864 57.681 87.2864C51.805 87.2864 47.041 82.5264 47.041 76.6564C47.041 70.7844 51.805 66.0244 57.681 66.0244Z" fill="#F4B70B"/>
<path d="M57.6815 70.5C58.4901 70.4996 59.2909 70.6585 60.0381 70.9676C60.7853 71.2767 61.4644 71.73 62.0364 72.3016C62.6084 72.8731 63.0622 73.5518 63.3719 74.2987C63.6817 75.0457 63.8412 75.8464 63.8415 76.655C63.8407 78.288 63.1913 79.8539 62.0361 81.0081C60.8809 82.1624 59.3145 82.8105 57.6815 82.81C56.0485 82.8105 54.4821 82.1624 53.3269 81.0081C52.1717 79.8539 51.5223 78.288 51.5215 76.655C51.5219 75.8465 51.6815 75.0459 51.9913 74.2991C52.3011 73.5522 52.7549 72.8737 53.327 72.3022C53.899 71.7308 54.5779 71.2776 55.3251 70.9685C56.0722 70.6595 56.8729 70.4996 57.6815 70.5Z" fill="#212121"/>
<path d="M315.06 80.6621C314.207 80.6621 313.555 80.3501 313.105 79.7251C312.661 79.0941 312.439 78.1781 312.439 76.9751C312.439 75.7951 312.661 74.8911 313.105 74.2671C313.555 73.6421 314.207 73.3301 315.06 73.3301C315.914 73.3301 316.562 73.6421 317.006 74.2671C317.456 74.8841 317.681 75.7871 317.681 76.9761C317.681 78.1711 317.456 79.0841 317.006 79.7151C316.562 80.3471 315.914 80.6621 315.06 80.6621ZM315.06 79.6451C315.524 79.6451 315.86 79.4331 316.068 79.0101C316.283 78.5801 316.391 77.9021 316.391 76.9761C316.391 76.0631 316.283 75.3981 316.068 74.9821C315.86 74.5591 315.524 74.3471 315.06 74.3471C314.597 74.3471 314.257 74.5591 314.042 74.9821C313.834 75.3981 313.73 76.0621 313.73 76.9761C313.73 77.9031 313.834 78.5811 314.042 79.0101C314.257 79.4331 314.597 79.6451 315.06 79.6451ZM302.268 102.975V101.968H305.302V102.975H302.268ZM309.984 104.133H311.546V105.191H307.121V104.133H308.693V99.5101L307.232 100.387V99.2281L309.228 98.0201H309.984V104.133ZM315.06 105.281C314.207 105.281 313.555 104.969 313.104 104.345C312.661 103.713 312.439 102.797 312.439 101.595C312.439 100.413 312.661 99.5101 313.104 98.8861C313.555 98.2611 314.207 97.9491 315.06 97.9491C315.913 97.9491 316.562 98.2611 317.005 98.8861C317.456 99.5041 317.681 100.407 317.681 101.595C317.681 102.79 317.456 103.703 317.005 104.335C316.562 104.966 315.913 105.281 315.06 105.281ZM315.06 104.264C315.524 104.264 315.86 104.053 316.068 103.63C316.283 103.2 316.391 102.522 316.391 101.595C316.391 100.682 316.283 100.017 316.068 99.6011C315.86 99.1781 315.524 98.9661 315.06 98.9661C314.596 98.9661 314.257 99.1781 314.042 99.6011C313.834 100.017 313.729 100.682 313.729 101.595C313.729 102.522 313.834 103.2 314.042 103.63C314.257 104.053 314.596 104.264 315.06 104.264ZM302.258 127.594V126.586H305.292V127.594H302.258ZM311.516 128.752V129.809H306.698V128.853L309.137 126.224C309.426 125.908 309.638 125.62 309.772 125.358C309.907 125.096 309.974 124.837 309.974 124.582C309.974 124.253 309.876 124.005 309.681 123.837C309.493 123.669 309.221 123.585 308.865 123.585C308.233 123.585 307.585 123.834 306.92 124.33L306.486 123.384C306.768 123.129 307.131 122.927 307.575 122.779C308.018 122.625 308.465 122.548 308.915 122.548C309.634 122.548 310.202 122.726 310.619 123.082C311.042 123.431 311.254 123.904 311.254 124.502C311.254 124.911 311.163 125.297 310.982 125.66C310.807 126.022 310.511 126.429 310.095 126.879L308.331 128.752H311.516ZM315.06 129.9C314.207 129.9 313.555 129.588 313.105 128.963C312.661 128.332 312.439 127.416 312.439 126.214C312.439 125.032 312.661 124.129 313.105 123.505C313.555 122.88 314.207 122.568 315.06 122.568C315.913 122.568 316.562 122.88 317.005 123.505C317.456 124.122 317.681 125.025 317.681 126.214C317.681 127.409 317.456 128.322 317.005 128.953C316.562 129.584 315.913 129.9 315.06 129.9ZM315.06 128.883C315.524 128.883 315.86 128.671 316.068 128.248C316.283 127.819 316.391 127.14 316.391 126.214C316.391 125.301 316.283 124.636 316.068 124.22C315.86 123.797 315.524 123.585 315.06 123.585C314.596 123.585 314.257 123.797 314.042 124.22C313.834 124.636 313.729 125.301 313.729 126.214C313.729 127.14 313.834 127.819 314.042 128.248C314.257 128.671 314.596 128.883 315.06 128.883ZM302.268 152.213V151.206H305.302V152.213H302.268ZM310.125 150.742C310.548 150.856 310.871 151.065 311.092 151.367C311.321 151.669 311.435 152.042 311.435 152.485C311.435 153.109 311.203 153.603 310.74 153.965C310.283 154.328 309.664 154.509 308.885 154.509C308.401 154.509 307.934 154.435 307.484 154.287C307.079 154.162 306.705 153.952 306.385 153.673L306.829 152.726C307.467 153.223 308.136 153.472 308.834 153.472C309.291 153.472 309.631 153.381 309.853 153.2C310.081 153.018 310.195 152.743 310.195 152.374C310.195 152.011 310.081 151.746 309.853 151.578C309.624 151.404 309.271 151.316 308.794 151.316H307.847V150.279H308.623C309.55 150.279 310.014 149.927 310.014 149.222C310.014 148.893 309.913 148.641 309.711 148.466C309.51 148.292 309.228 148.204 308.865 148.204C308.22 148.204 307.574 148.453 306.929 148.95L306.496 148.003C306.815 147.731 307.186 147.526 307.585 147.399C308.022 147.245 308.482 147.167 308.945 147.167C309.651 147.167 310.212 147.342 310.629 147.691C311.052 148.033 311.264 148.493 311.264 149.07C311.266 149.44 311.157 149.801 310.951 150.108C310.756 150.397 310.481 150.608 310.125 150.742ZM315.06 154.519C314.207 154.519 313.555 154.207 313.104 153.582C312.661 152.951 312.439 152.035 312.439 150.833C312.439 149.651 312.661 148.748 313.104 148.124C313.555 147.499 314.207 147.187 315.06 147.187C315.913 147.187 316.562 147.499 317.005 148.124C317.456 148.741 317.681 149.645 317.681 150.833C317.681 152.028 317.456 152.941 317.005 153.572C316.562 154.204 315.913 154.519 315.06 154.519ZM315.06 153.502C315.524 153.502 315.86 153.29 316.068 152.867C316.283 152.438 316.391 151.76 316.391 150.833C316.391 149.92 316.283 149.255 316.068 148.839C315.86 148.416 315.524 148.204 315.06 148.204C314.596 148.204 314.257 148.416 314.042 148.839C313.834 149.255 313.729 149.92 313.729 150.833C313.729 151.76 313.834 152.438 314.042 152.867C314.257 153.29 314.596 153.502 315.06 153.502ZM302.268 176.832V175.825H305.302V176.832H302.268ZM311.798 176.63V177.648H310.78V179.048H309.51V177.648H306.385V176.681L309.742 171.877H310.78V176.63H311.798ZM307.615 176.63H309.51V173.901L307.615 176.63ZM315.06 179.138C314.207 179.138 313.555 178.826 313.104 178.202C312.661 177.57 312.439 176.654 312.439 175.452C312.439 174.27 312.661 173.367 313.104 172.743C313.555 172.118 314.207 171.806 315.06 171.806C315.913 171.806 316.562 172.118 317.005 172.743C317.456 173.361 317.681 174.264 317.681 175.452C317.681 176.647 317.456 177.56 317.005 178.191C316.562 178.823 315.913 179.138 315.06 179.138ZM315.06 178.121C315.524 178.121 315.86 177.909 316.068 177.486C316.283 177.057 316.391 176.379 316.391 175.452C316.391 174.539 316.283 173.874 316.068 173.458C315.86 173.035 315.524 172.823 315.06 172.823C314.596 172.823 314.257 173.035 314.042 173.458C313.834 173.874 313.729 174.539 313.729 175.452C313.729 176.379 313.834 177.057 314.042 177.486C314.257 177.909 314.596 178.121 315.06 178.121ZM302.268 201.451V200.444H305.302V201.451H302.268ZM309.399 199.084C309.849 199.084 310.246 199.182 310.588 199.376C310.931 199.564 311.197 199.833 311.385 200.182C311.573 200.524 311.667 200.921 311.667 201.37C311.676 201.808 311.564 202.24 311.344 202.619C311.123 202.981 310.801 203.272 310.417 203.455C310.014 203.65 309.547 203.747 309.016 203.747C308.566 203.747 308.122 203.673 307.685 203.526C307.289 203.394 306.923 203.185 306.607 202.911L307.04 201.965C307.692 202.461 308.357 202.71 309.036 202.71C309.486 202.71 309.829 202.599 310.064 202.378C310.306 202.149 310.427 201.827 310.427 201.411C310.427 201.015 310.303 200.699 310.054 200.464C309.812 200.222 309.486 200.101 309.076 200.101C308.794 200.101 308.529 200.155 308.28 200.263C308.031 200.363 307.813 200.514 307.625 200.716H306.839V196.496H311.334V197.503H308.109V199.457C308.472 199.208 308.902 199.084 309.399 199.084ZM315.06 203.757C314.207 203.757 313.555 203.445 313.104 202.821C312.661 202.19 312.439 201.273 312.439 200.071C312.439 198.889 312.661 197.986 313.104 197.362C313.555 196.738 314.207 196.425 315.06 196.425C315.913 196.425 316.562 196.738 317.005 197.362C317.456 197.98 317.681 198.883 317.681 200.071C317.681 201.266 317.456 202.179 317.005 202.811C316.562 203.442 315.913 203.757 315.06 203.757ZM315.06 202.74C315.524 202.74 315.86 202.529 316.068 202.106C316.283 201.676 316.391 200.998 316.391 200.071C316.391 199.158 316.283 198.493 316.068 198.077C315.86 197.654 315.524 197.443 315.06 197.443C314.596 197.443 314.257 197.654 314.042 198.077C313.834 198.493 313.729 199.158 313.729 200.071C313.729 200.998 313.834 201.676 314.042 202.106C314.257 202.529 314.596 202.74 315.06 202.74ZM302.268 226.07V225.063H305.302V226.07H302.268ZM309.459 223.683C309.883 223.683 310.259 223.781 310.588 223.975C310.924 224.17 311.186 224.442 311.375 224.791C311.563 225.14 311.657 225.54 311.657 225.99C311.657 226.446 311.553 226.856 311.344 227.218C311.145 227.578 310.849 227.875 310.488 228.074C310.108 228.28 309.681 228.385 309.248 228.377C308.341 228.377 307.642 228.071 307.151 227.46C306.661 226.842 306.415 225.966 306.415 224.831C306.415 224.039 306.53 223.358 306.758 222.787C306.993 222.216 307.329 221.78 307.766 221.478C308.21 221.175 308.734 221.024 309.338 221.024C309.769 221.024 310.185 221.098 310.588 221.246C310.998 221.387 311.354 221.592 311.657 221.86L311.213 222.807C310.582 222.31 309.974 222.062 309.389 222.062C308.858 222.062 308.448 222.287 308.159 222.737C307.87 223.186 307.719 223.831 307.706 224.67C307.86 224.368 308.095 224.13 308.411 223.955C308.73 223.773 309.092 223.679 309.459 223.683ZM309.187 227.349C309.557 227.349 309.853 227.228 310.074 226.987C310.303 226.745 310.417 226.426 310.417 226.03C310.417 225.634 310.303 225.318 310.074 225.083C309.853 224.841 309.554 224.721 309.177 224.721C308.801 224.721 308.495 224.841 308.26 225.083C308.025 225.325 307.907 225.64 307.907 226.03C307.907 226.419 308.025 226.738 308.26 226.987C308.502 227.228 308.811 227.349 309.187 227.349ZM315.06 228.377C314.207 228.377 313.555 228.064 313.104 227.44C312.661 226.809 312.439 225.892 312.439 224.69C312.439 223.509 312.661 222.606 313.104 221.981C313.555 221.357 314.207 221.045 315.06 221.045C315.913 221.045 316.562 221.357 317.005 221.981C317.456 222.599 317.681 223.502 317.681 224.69C317.681 225.886 317.456 226.799 317.005 227.43C316.562 228.061 315.913 228.377 315.06 228.377ZM315.06 227.359C315.524 227.359 315.86 227.148 316.068 226.725C316.283 226.295 316.391 225.617 316.391 224.69C316.391 223.777 316.283 223.113 316.068 222.696C315.86 222.273 315.524 222.062 315.06 222.062C314.596 222.062 314.257 222.273 314.042 222.696C313.834 223.113 313.729 223.777 313.729 224.69C313.729 225.617 313.834 226.295 314.042 226.725C314.257 227.148 314.596 227.359 315.06 227.359ZM280.777 262.977V255.806H282.078V261.909H285.434V262.977H280.777ZM286.418 262.977V255.806H291.216V256.833H287.688V258.817H291.004V259.844H287.688V261.949H291.216V262.977H286.418ZM297.674 255.806H298.995L295.8 262.977H294.741L291.546 255.806H292.896L295.285 261.345L297.674 255.806ZM299.677 262.977V255.806H304.475V256.833H300.947V258.817H304.264V259.844H300.947V261.949H304.475V262.977H299.677ZM305.672 262.977V255.806H306.973V261.909H310.329V262.977H305.672Z" fill="#949494"/>
<path fill-rule="evenodd" clip-rule="evenodd" d="M284.481 76.0947V227.167H281.121V76.0947H284.481Z" fill="#424242"/>
<path fill-rule="evenodd" clip-rule="evenodd" d="M284.481 115.262V227.167H281.121V115.262H284.481Z" fill="#F4B70B"/>
<path fill-rule="evenodd" clip-rule="evenodd" d="M166.88 39.1669C166.145 39.1666 165.417 39.3111 164.738 39.5922C164.058 39.8733 163.441 40.2854 162.921 40.8051C162.401 41.3247 161.989 41.9417 161.707 42.6207C161.425 43.2998 161.28 44.0277 161.28 44.7629C161.28 45.4979 161.425 46.2258 161.707 46.9048C161.989 47.5838 162.401 48.2007 162.921 48.7203C163.441 49.2399 164.059 49.6519 164.738 49.9329C165.417 50.2138 166.145 50.3582 166.88 50.3579C169.972 50.3579 172.48 47.8529 172.48 44.7629C172.48 44.0277 172.335 43.2998 172.053 42.6207C171.772 41.9417 171.359 41.3247 170.839 40.8051C170.319 40.2854 169.702 39.8733 169.023 39.5922C168.343 39.3111 167.615 39.1666 166.88 39.1669ZM166.88 38.0479C165.998 38.0475 165.124 38.2208 164.309 38.5581C163.494 38.8954 162.753 39.3899 162.129 40.0134C161.505 40.637 161.01 41.3774 160.672 42.1923C160.334 43.0072 160.16 43.8807 160.16 44.7629C160.161 45.6449 160.335 46.5183 160.673 47.3331C161.011 48.1479 161.506 48.8882 162.13 49.5116C162.754 50.1351 163.494 50.6295 164.309 50.9667C165.125 51.3039 165.998 51.4772 166.88 51.4769C167.762 51.4772 168.636 51.3039 169.451 50.9667C170.266 50.6295 171.007 50.1351 171.631 49.5116C172.255 48.8882 172.75 48.1479 173.088 47.3331C173.426 46.5183 173.6 45.6449 173.6 44.7629C173.6 43.8807 173.426 43.0072 173.088 42.1923C172.75 41.3774 172.255 40.637 171.631 40.0134C171.007 39.3899 170.266 38.8954 169.451 38.5581C168.636 38.2208 167.762 38.0475 166.88 38.0479Z" fill="#949494"/>
<path d="M166.133 48.4922H167.626V44.0162H166.133V48.4922ZM167.626 41.7782C167.626 41.6803 167.607 41.5833 167.569 41.4927C167.532 41.4022 167.477 41.32 167.407 41.2507C167.338 41.1815 167.256 41.1265 167.165 41.089C167.075 41.0515 166.978 41.0322 166.88 41.0322C166.782 41.0322 166.685 41.0515 166.594 41.089C166.504 41.1265 166.422 41.1815 166.352 41.2507C166.283 41.32 166.228 41.4022 166.191 41.4927C166.153 41.5833 166.134 41.6803 166.134 41.7782C166.134 41.9761 166.212 42.1658 166.352 42.3057C166.492 42.4456 166.682 42.5242 166.88 42.5242C167.078 42.5242 167.267 42.4456 167.407 42.3057C167.547 42.1658 167.626 41.9761 167.626 41.7782Z" fill="#949494"/>
<path d="M174.721 361.452C174.721 355.89 179.234 351.381 184.801 351.381H303.521C309.088 351.381 313.601 355.89 313.601 361.452C313.601 367.015 309.088 371.524 303.521 371.524H184.801C179.234 371.524 174.721 367.015 174.721 361.452Z" fill="#F4B70B"/>
<path d="M218.748 364.809V357.638H223.546V358.666H220.018V360.65H223.334V361.677H220.018V363.782H223.546V364.809H218.748ZM230.71 357.638H231.738V364.809H230.589V360.358L228.684 364.809H227.827L225.912 360.408V364.809H224.763V357.638H225.791L228.261 363.248L230.71 357.638ZM233.307 357.638H236.422C237.194 357.638 237.796 357.826 238.226 358.202C238.656 358.572 238.871 359.079 238.871 359.723C238.871 360.368 238.653 360.878 238.216 361.254C237.786 361.63 237.188 361.818 236.422 361.818H234.607V364.809H233.307V357.638ZM236.27 360.811C236.721 360.811 237.06 360.72 237.289 360.539C237.524 360.351 237.641 360.082 237.641 359.733C237.641 359.377 237.527 359.109 237.299 358.928C237.07 358.74 236.727 358.646 236.27 358.646H234.607V360.811H236.27ZM244.98 357.638H246.27V364.809H244.98V361.697H241.301V364.809H240.02V357.638H241.301V360.64H244.98V357.638ZM253.31 364.809L252.594 363.127H249.086L248.361 364.809H247.05L250.296 357.638H251.354L254.61 364.809H253.31ZM249.52 362.12H252.161L250.84 359.048L249.52 362.12ZM257.727 364.9C257.202 364.904 256.678 364.829 256.175 364.678C255.731 364.548 255.317 364.333 254.955 364.044L255.399 363.097C255.748 363.359 256.111 363.554 256.487 363.681C256.87 363.802 257.287 363.863 257.737 363.863C258.235 363.863 258.618 363.775 258.886 363.601C259.162 363.426 259.3 363.181 259.3 362.866C259.3 362.597 259.172 362.392 258.917 362.251C258.668 362.103 258.255 361.966 257.677 361.838C256.776 361.644 256.121 361.392 255.711 361.083C255.301 360.774 255.096 360.324 255.096 359.733C255.096 359.31 255.211 358.934 255.439 358.605C255.667 358.276 255.99 358.018 256.407 357.83C256.83 357.642 257.317 357.548 257.868 357.548C258.355 357.546 258.839 357.624 259.3 357.779C259.757 357.927 260.13 358.135 260.419 358.404L259.985 359.351C259.347 358.84 258.641 358.585 257.868 358.585C257.405 358.585 257.038 358.683 256.77 358.877C256.642 358.961 256.538 359.077 256.467 359.213C256.396 359.349 256.362 359.5 256.366 359.653C256.366 359.935 256.484 360.15 256.719 360.297C256.961 360.445 257.371 360.583 257.949 360.71C258.547 360.851 259.034 361.006 259.411 361.174C259.787 361.335 260.076 361.546 260.277 361.808C260.479 362.063 260.58 362.385 260.58 362.775C260.58 363.205 260.466 363.581 260.237 363.903C260.009 364.218 259.679 364.464 259.249 364.638C258.819 364.813 258.312 364.9 257.727 364.9ZM261.785 364.809V357.638H263.085V364.809H261.785ZM267.069 364.9C266.544 364.904 266.02 364.829 265.517 364.678C265.073 364.549 264.658 364.333 264.297 364.044L264.74 363.097C265.07 363.349 265.437 363.546 265.829 363.681C266.212 363.802 266.629 363.863 267.079 363.863C267.576 363.863 267.959 363.775 268.228 363.601C268.357 363.527 268.463 363.42 268.536 363.291C268.608 363.161 268.645 363.015 268.641 362.866C268.641 362.597 268.514 362.392 268.258 362.251C268.01 362.103 267.596 361.966 267.018 361.838C266.118 361.644 265.463 361.392 265.053 361.083C264.643 360.774 264.438 360.324 264.438 359.733C264.438 359.31 264.552 358.934 264.781 358.605C265.009 358.276 265.332 358.018 265.748 357.83C266.172 357.642 266.659 357.548 267.21 357.548C267.714 357.548 268.191 357.625 268.641 357.779C269.098 357.927 269.471 358.135 269.76 358.404L269.327 359.351C268.688 358.84 267.983 358.585 267.21 358.585C266.746 358.585 266.38 358.683 266.111 358.877C265.983 358.961 265.879 359.077 265.808 359.213C265.738 359.349 265.703 359.5 265.708 359.653C265.708 359.935 265.826 360.15 266.061 360.297C266.303 360.445 266.713 360.583 267.291 360.71C267.889 360.851 268.376 361.006 268.752 361.174C269.129 361.335 269.418 361.546 269.619 361.808C269.821 362.063 269.922 362.385 269.922 362.775C269.922 363.205 269.807 363.581 269.579 363.903C269.35 364.218 269.021 364.464 268.591 364.638C268.161 364.813 267.654 364.9 267.069 364.9ZM309.122 361.452C309.122 362.334 308.948 363.208 308.61 364.023C308.272 364.837 307.777 365.578 307.153 366.201C306.529 366.824 305.788 367.319 304.973 367.656C304.158 367.993 303.284 368.167 302.402 368.166C301.52 368.167 300.646 367.993 299.831 367.656C299.016 367.319 298.276 366.824 297.652 366.201C297.028 365.578 296.532 364.837 296.195 364.023C295.857 363.208 295.682 362.334 295.682 361.452C295.682 360.57 295.857 359.697 296.195 358.882C296.532 358.067 297.028 357.327 297.652 356.704C298.276 356.08 299.016 355.586 299.831 355.248C300.646 354.911 301.52 354.738 302.402 354.738C303.284 354.738 304.158 354.911 304.973 355.248C305.788 355.586 306.529 356.08 307.153 356.704C307.777 357.327 308.272 358.067 308.61 358.882C308.948 359.697 309.122 360.57 309.122 361.452Z" fill="#F0F0F0"/>
<path d="M306.882 361.452C306.882 362.04 306.766 362.622 306.54 363.165C306.315 363.708 305.985 364.202 305.569 364.617C305.153 365.033 304.659 365.363 304.116 365.587C303.572 365.812 302.99 365.928 302.402 365.928C301.814 365.928 301.231 365.812 300.688 365.587C300.145 365.363 299.651 365.033 299.235 364.617C298.819 364.202 298.489 363.708 298.264 363.165C298.038 362.622 297.922 362.04 297.922 361.452C297.922 360.864 298.038 360.281 298.264 359.738C298.489 359.195 298.819 358.701 299.235 358.286C299.651 357.87 300.145 357.54 300.688 357.316C301.231 357.091 301.814 356.975 302.402 356.976C302.99 356.975 303.572 357.091 304.116 357.316C304.659 357.54 305.153 357.87 305.569 358.286C305.985 358.701 306.315 359.195 306.54 359.738C306.766 360.281 306.882 360.864 306.882 361.452Z" fill="#D8D8D8"/>
<path d="M309.122 361.452C309.121 362.334 308.947 363.208 308.609 364.023C308.271 364.837 307.776 365.578 307.152 366.201C306.528 366.824 305.787 367.319 304.972 367.656C304.157 367.993 303.284 368.167 302.402 368.166C301.52 368.167 300.646 367.993 299.831 367.656C299.016 367.319 298.275 366.824 297.651 366.201C297.027 365.578 296.532 364.837 296.194 364.023C295.856 363.208 295.682 362.334 295.682 361.452C295.682 360.57 295.856 359.697 296.194 358.882C296.532 358.067 297.027 357.327 297.651 356.704C298.275 356.08 299.016 355.586 299.831 355.248C300.646 354.911 301.52 354.738 302.402 354.738C303.284 354.738 304.157 354.911 304.972 355.248C305.787 355.586 306.528 356.08 307.152 356.704C307.776 357.327 308.271 358.067 308.609 358.882C308.947 359.697 309.121 360.57 309.122 361.452Z" fill="#F0F0F0"/>
<path d="M306.882 361.452C306.882 362.04 306.766 362.622 306.54 363.165C306.315 363.708 305.985 364.202 305.569 364.617C305.153 365.033 304.659 365.363 304.116 365.587C303.572 365.812 302.99 365.928 302.402 365.928C301.814 365.928 301.231 365.812 300.688 365.587C300.145 365.363 299.651 365.033 299.235 364.617C298.819 364.202 298.489 363.708 298.264 363.165C298.038 362.622 297.922 362.04 297.922 361.452C297.922 360.864 298.038 360.281 298.264 359.738C298.489 359.195 298.819 358.701 299.235 358.286C299.651 357.87 300.145 357.54 300.688 357.316C301.231 357.091 301.814 356.975 302.402 356.976C302.99 356.975 303.572 357.091 304.116 357.316C304.659 357.54 305.153 357.87 305.569 358.286C305.985 358.701 306.315 359.195 306.54 359.738C306.766 360.281 306.882 360.864 306.882 361.452Z" fill="#1CCCD1"/>
<path fill-rule="evenodd" clip-rule="evenodd" d="M151.2 352.5H32.4804C27.5324 352.5 23.5204 356.508 23.5204 361.452C23.5204 366.397 27.5324 370.405 32.4804 370.405H151.2C156.149 370.405 160.16 366.397 160.16 361.452C160.16 356.508 156.149 352.5 151.2 352.5ZM32.4804 351.381C26.9134 351.381 22.4004 355.89 22.4004 361.452C22.4004 367.015 26.9134 371.524 32.4804 371.524H151.2C156.767 371.524 161.28 367.015 161.28 361.452C161.28 355.89 156.767 351.381 151.2 351.381H32.4804Z" fill="#212121"/>
<path d="M50.7666 361.103C51.1826 361.224 51.5016 361.435 51.7236 361.738C51.9526 362.04 52.0666 362.412 52.0666 362.855C52.0666 363.466 51.8486 363.947 51.4116 364.296C50.9816 364.638 50.3796 364.809 49.6066 364.809H46.3516V357.638H49.5066C50.2456 357.638 50.8266 357.806 51.2496 358.142C51.6736 358.471 51.8856 358.928 51.8856 359.512C51.8856 359.888 51.7846 360.217 51.5826 360.499C51.3796 360.78 51.0945 360.991 50.7666 361.103ZM47.6216 360.66H49.2946C50.1946 360.66 50.6446 360.324 50.6446 359.653C50.6446 359.317 50.5346 359.065 50.3126 358.897C50.0906 358.73 49.7516 358.646 49.2946 358.646H47.6216V360.66ZM49.4656 363.802C49.9356 363.802 50.2786 363.718 50.4936 363.55C50.7156 363.383 50.8266 363.117 50.8266 362.755C50.8266 362.385 50.7166 362.114 50.4936 361.939C50.2786 361.764 49.9366 361.677 49.4656 361.677H47.6216V363.802H49.4656ZM59.2176 364.809H57.8476L56.9296 362.422C56.8496 362.201 56.7246 362.046 56.5566 361.959C56.3886 361.872 56.1706 361.828 55.9016 361.828H54.6016V364.809H53.3116V357.638H56.3856C57.1986 357.638 57.8166 357.816 58.2406 358.172C58.6636 358.528 58.8756 359.038 58.8756 359.703C58.8756 360.18 58.7476 360.586 58.4926 360.922C58.2436 361.251 57.8876 361.486 57.4236 361.627C57.8466 361.714 58.1536 362.009 58.3406 362.513L59.2176 364.809ZM56.2036 360.821C56.6946 360.821 57.0576 360.73 57.2936 360.549C57.5276 360.368 57.6456 360.093 57.6456 359.723C57.6456 359.361 57.5276 359.092 57.2926 358.918C57.0646 358.736 56.7016 358.646 56.2046 358.646H54.5816V360.821H56.2046H56.2036ZM60.3886 364.809V357.638H65.1866V358.666H61.6586V360.65H64.9746V361.677H61.6586V363.782H65.1866V364.809H60.3886ZM71.7486 364.809L71.0326 363.127H67.5246L66.7996 364.809H65.4896L68.7346 357.638H69.7926L73.0486 364.809H71.7486ZM67.9586 362.12H70.5986L69.2786 359.048L67.9586 362.12ZM74.6226 364.809V358.706H72.2836V357.638H78.2816V358.706H75.9326V364.809H74.6226ZM84.1396 357.638H85.4296V364.809H84.1396V361.697H80.4596V364.809H79.1796V357.638H80.4596V360.64H84.1396V357.638ZM93.0076 364.9C92.3036 364.9 91.6856 364.749 91.1546 364.447C90.6343 364.149 90.2134 363.704 89.9446 363.168C89.6626 362.61 89.5216 361.959 89.5216 361.214C89.5216 360.475 89.6616 359.831 89.9436 359.28C90.2084 358.741 90.6302 358.295 91.1536 358.001C91.6856 357.699 92.3036 357.548 93.0086 357.548C93.4926 357.548 93.9466 357.625 94.3686 357.779C94.7986 357.927 95.1556 358.135 95.4386 358.404L95.0146 359.351C94.7266 359.109 94.3992 358.918 94.0466 358.787C93.7217 358.664 93.3769 358.602 93.0296 358.605C92.3356 358.605 91.7996 358.83 91.4156 359.28C91.0396 359.73 90.8516 360.375 90.8516 361.214C90.8516 362.06 91.0396 362.711 91.4156 363.168C91.7926 363.618 92.3306 363.842 93.0296 363.842C93.3916 363.842 93.7306 363.785 94.0466 363.671C94.3696 363.55 94.6916 363.359 95.0146 363.097L95.4386 364.044C95.1566 364.312 94.7986 364.524 94.3686 364.678C93.931 364.828 93.4702 364.903 93.0076 364.9ZM99.7006 364.9C99.0076 364.9 98.4036 364.752 97.8856 364.457C97.3742 364.154 96.9613 363.71 96.6966 363.178C96.4206 362.62 96.2826 361.966 96.2826 361.214C96.2826 360.469 96.4206 359.821 96.6966 359.27C96.9517 358.734 97.3631 358.288 97.8766 357.991C98.3936 357.696 99.0016 357.548 99.7006 357.548C100.399 357.548 101.004 357.696 101.515 357.991C102.032 358.286 102.426 358.713 102.694 359.27C102.97 359.821 103.108 360.469 103.108 361.214C103.108 361.966 102.97 362.62 102.694 363.178C102.419 363.728 102.026 364.155 101.515 364.457C101.004 364.752 100.399 364.9 99.7006 364.9ZM99.7006 363.863C100.366 363.863 100.883 363.634 101.253 363.178C101.623 362.721 101.807 362.067 101.807 361.214C101.807 360.368 101.623 359.72 101.253 359.27C100.883 358.813 100.366 358.585 99.7006 358.585C99.0346 358.585 98.5176 358.81 98.1476 359.26C97.7786 359.71 97.5936 360.361 97.5936 361.214C97.5936 362.067 97.7786 362.721 98.1476 363.178C98.5176 363.634 99.0346 363.863 99.7006 363.863ZM109.268 357.638H110.488V364.809H109.52L105.649 359.784V364.809H104.44V357.638H105.407L109.268 362.654V357.638ZM113.732 364.809V358.706H111.394V357.638H117.391V358.706H115.043V364.809H113.732ZM124.197 364.809H122.826L121.908 362.422C121.828 362.201 121.703 362.046 121.535 361.959C121.367 361.872 121.149 361.828 120.88 361.828H119.58V364.809H118.29V357.638H121.364C122.177 357.638 122.795 357.816 123.219 358.172C123.642 358.528 123.854 359.038 123.854 359.703C123.854 360.18 123.726 360.586 123.471 360.922C123.222 361.251 122.866 361.486 122.402 361.627C122.826 361.714 123.131 362.009 123.32 362.513L124.197 364.809ZM121.183 360.821C121.673 360.821 122.036 360.73 122.271 360.549C122.506 360.368 122.624 360.093 122.624 359.723C122.624 359.361 122.506 359.092 122.271 358.918C122.043 358.736 121.68 358.646 121.183 358.646H119.56V360.821H121.183ZM128.503 364.9C127.811 364.9 127.206 364.752 126.689 364.457C126.177 364.154 125.764 363.71 125.5 363.178C125.224 362.62 125.086 361.966 125.086 361.214C125.086 360.469 125.224 359.821 125.5 359.27C125.754 358.734 126.165 358.288 126.679 357.991C127.196 357.696 127.805 357.548 128.503 357.548C129.202 357.548 129.807 357.696 130.318 357.991C130.835 358.286 131.228 358.713 131.497 359.27C131.773 359.821 131.91 360.469 131.91 361.214C131.91 361.966 131.773 362.62 131.497 363.178C131.222 363.728 130.829 364.155 130.318 364.457C129.807 364.752 129.202 364.9 128.503 364.9ZM128.503 363.863C129.169 363.863 129.686 363.634 130.056 363.178C130.425 362.721 130.61 362.067 130.61 361.214C130.61 360.368 130.425 359.72 130.056 359.27C129.686 358.813 129.169 358.585 128.503 358.585C127.838 358.585 127.321 358.81 126.951 359.26C126.581 359.71 126.397 360.361 126.397 361.214C126.397 362.067 126.581 362.721 126.951 363.178C127.321 363.634 127.838 363.863 128.503 363.863ZM133.242 364.809V357.638H134.543V363.742H137.899V364.809H133.242Z" fill="#212121"/>
</g>
<defs>
<filter id="filter0_d_2957_46814" x="-8" y="-8" width="356" height="490" filterUnits="userSpaceOnUse" color-interpolation-filters="sRGB">
<feFlood flood-opacity="0" result="BackgroundImageFix"/>
<feColorMatrix in="SourceAlpha" type="matrix" values="0 0 0 0 0 0 0 0 0 0 0 0 0 0 0 0 0 0 127 0" result="hardAlpha"/>
<feOffset dx="2" dy="2"/>
<feGaussianBlur stdDeviation="5"/>
<feComposite in2="hardAlpha" operator="out"/>
<feColorMatrix type="matrix" values="0 0 0 0 0 0 0 0 0 0 0 0 0 0 0 0 0 0 0.1 0"/>
<feBlend mode="normal" in2="BackgroundImageFix" result="effect1_dropShadow_2957_46814"/>
<feBlend mode="normal" in="SourceGraphic" in2="effect1_dropShadow_2957_46814" result="shape"/>
</filter>
<linearGradient id="paint0_linear_2957_46814" x1="22.3989" y1="408.468" x2="23.5179" y2="408.468" gradientUnits="userSpaceOnUse">
<stop stop-color="#1E1E1E"/>
<stop offset="0.998" stop-color="#262626"/>
</linearGradient>
<linearGradient id="paint1_linear_2957_46814" x1="312.683" y1="408.468" x2="313.802" y2="408.468" gradientUnits="userSpaceOnUse">
<stop stop-color="#1E1E1E"/>
<stop offset="0.998" stop-color="#262626"/>
</linearGradient>
<clipPath id="clip0_2957_46814">
<rect width="336" height="470" fill="white"/>
</clipPath>
</defs>
</svg>
