<svg width="808" height="590" viewBox="0 0 808 590" fill="none" xmlns="http://www.w3.org/2000/svg">
<path d="M804.67 48H3.32967C1.49074 48 0 49.6735 0 51.7379V586.262C0 588.326 1.49074 590 3.32967 590H804.67C806.509 590 808 588.326 808 586.262V51.7379C808 49.6735 806.509 48 804.67 48Z" fill="#FFD233"/>
<path d="M804.67 0H3.32967C1.49074 0 0 1.49018 0 3.32842V44.7729C0 46.6112 1.49074 48.1013 3.32967 48.1013H804.67C806.509 48.1013 808 46.6112 808 44.7729V3.32842C808 1.49018 806.509 0 804.67 0Z" fill="#F8F8F8"/>
<path d="M5.50391 28.8462V19.1635H8.95655C9.71016 19.1635 10.3345 19.3006 10.8295 19.5748C11.3246 19.849 11.695 20.2241 11.9409 20.7C12.1869 21.1728 12.3099 21.7055 12.3099 22.2981C12.3099 22.8938 12.1853 23.4296 11.9362 23.9056C11.6903 24.3783 11.3182 24.7535 10.8201 25.0308C10.325 25.305 9.70228 25.4421 8.95183 25.4421H6.57755V24.2034H8.81936C9.29551 24.2034 9.68175 24.1215 9.97815 23.9576C10.2745 23.7905 10.4921 23.5636 10.6308 23.2767C10.7696 22.9899 10.8389 22.6637 10.8389 22.2981C10.8389 21.9324 10.7696 21.6078 10.6308 21.3241C10.4921 21.0405 10.273 20.8183 9.97343 20.6575C9.67703 20.4968 9.28607 20.4164 8.8005 20.4164H6.96535V28.8462H5.50391ZM13.6566 28.8462V21.5842H15.0235V22.7378H15.0992C15.2316 22.3469 15.4649 22.0396 15.7991 21.8158C16.1365 21.5889 16.5181 21.4755 16.9437 21.4755C17.032 21.4755 17.136 21.4786 17.2559 21.4849C17.3788 21.4912 17.475 21.4991 17.5444 21.5085V22.8607C17.4876 22.8449 17.3867 22.8276 17.2417 22.8087C17.0966 22.7866 16.9516 22.7756 16.8066 22.7756C16.4723 22.7756 16.1744 22.8465 15.9127 22.9883C15.6541 23.127 15.4491 23.3209 15.2978 23.5699C15.1465 23.8157 15.0708 24.0963 15.0708 24.4115V28.8462H13.6566ZM21.3151 28.9927C20.634 28.9927 20.0396 28.8368 19.532 28.5247C19.0244 28.2127 18.6302 27.7761 18.3496 27.2151C18.069 26.654 17.9286 25.9984 17.9286 25.2483C17.9286 24.4949 18.069 23.8362 18.3496 23.272C18.6302 22.7079 19.0244 22.2697 19.532 21.9577C20.0396 21.6456 20.634 21.4896 21.3151 21.4896C21.9961 21.4896 22.5905 21.6456 23.0982 21.9577C23.6058 22.2697 23.9999 22.7079 24.2806 23.272C24.5612 23.8362 24.7015 24.4949 24.7015 25.2483C24.7015 25.9984 24.5612 26.654 24.2806 27.2151C23.9999 27.7761 23.6058 28.2127 23.0982 28.5247C22.5905 28.8368 21.9961 28.9927 21.3151 28.9927ZM21.3198 27.8061C21.7612 27.8061 22.127 27.6895 22.4171 27.4562C22.7071 27.223 22.9216 26.9125 23.0603 26.5248C23.2022 26.1371 23.2731 25.71 23.2731 25.2436C23.2731 24.7802 23.2022 24.3547 23.0603 23.967C22.9216 23.5762 22.7071 23.2626 22.4171 23.0262C22.127 22.7898 21.7612 22.6716 21.3198 22.6716C20.8752 22.6716 20.5063 22.7898 20.2131 23.0262C19.923 23.2626 19.707 23.5762 19.5651 23.967C19.4264 24.3547 19.357 24.7802 19.357 25.2436C19.357 25.71 19.4264 26.1371 19.5651 26.5248C19.707 26.9125 19.923 27.223 20.2131 27.4562C20.5063 27.6895 20.8752 27.8061 21.3198 27.8061ZM26.027 21.5842H27.4412V29.319C27.4412 29.8044 27.3529 30.2141 27.1763 30.5482C27.0029 30.8823 26.7443 31.136 26.4006 31.3094C26.0601 31.4827 25.6391 31.5694 25.1378 31.5694C25.0874 31.5694 25.04 31.5694 24.9959 31.5694C24.9486 31.5694 24.8997 31.5679 24.8493 31.5647V30.3496C24.8934 30.3496 24.9329 30.3496 24.9675 30.3496C24.9991 30.3496 25.0353 30.3496 25.0763 30.3496C25.4106 30.3496 25.6517 30.2598 25.8 30.0801C25.9513 29.9037 26.027 29.6468 26.027 29.3095V21.5842ZM26.7269 20.4637C26.481 20.4637 26.2698 20.3817 26.0932 20.2178C25.9198 20.0508 25.833 19.8522 25.833 19.6221C25.833 19.3889 25.9198 19.1903 26.0932 19.0264C26.2698 18.8594 26.481 18.7758 26.7269 18.7758C26.9729 18.7758 27.1826 18.8594 27.356 19.0264C27.5326 19.1903 27.6208 19.3889 27.6208 19.6221C27.6208 19.8522 27.5326 20.0508 27.356 20.2178C27.1826 20.3817 26.9729 20.4637 26.7269 20.4637ZM32.2216 28.9927C31.5059 28.9927 30.8894 28.8399 30.3723 28.5341C29.8583 28.2253 29.461 27.7919 29.1804 27.234C28.9029 26.673 28.7642 26.0158 28.7642 25.2625C28.7642 24.5186 28.9029 23.863 29.1804 23.2957C29.461 22.7283 29.8521 22.2855 30.3534 21.9671C30.8579 21.6488 31.4475 21.4896 32.1223 21.4896C32.5322 21.4896 32.9295 21.5574 33.3141 21.6929C33.6988 21.8284 34.0441 22.0412 34.3499 22.3312C34.6558 22.6212 34.897 22.9978 35.0736 23.4611C35.2501 23.9213 35.3384 24.4808 35.3384 25.1395V25.6407H29.5635V24.5816H33.9527C33.9527 24.2097 33.877 23.8804 33.7256 23.5935C33.5743 23.3035 33.3614 23.075 33.0871 22.908C32.816 22.7409 32.4975 22.6574 32.1317 22.6574C31.7344 22.6574 31.3876 22.7551 31.0912 22.9506C30.798 23.1428 30.5709 23.395 30.4102 23.707C30.2525 24.0159 30.1737 24.3515 30.1737 24.714V25.5414C30.1737 26.0268 30.2588 26.4397 30.429 26.7801C30.6025 27.1205 30.8437 27.3806 31.1527 27.5602C31.4617 27.7367 31.8227 27.825 32.2358 27.825C32.5038 27.825 32.7482 27.7871 32.9689 27.7115C33.1896 27.6327 33.3803 27.5161 33.5412 27.3617C33.702 27.2072 33.825 27.0165 33.9101 26.7896L35.2486 27.0307C35.1414 27.4247 34.949 27.7698 34.6715 28.0661C34.3972 28.3592 34.052 28.5877 33.6358 28.7516C33.2227 28.9124 32.7513 28.9927 32.2216 28.9927ZM39.7145 28.9927C39.0114 28.9927 38.406 28.8336 37.8983 28.5152C37.3938 28.1938 37.006 27.7509 36.7348 27.1867C36.4637 26.6225 36.3281 25.9764 36.3281 25.2483C36.3281 24.5108 36.4668 23.8599 36.7443 23.2957C37.0218 22.7283 37.4127 22.2855 37.9172 21.9671C38.4217 21.6488 39.0161 21.4896 39.7003 21.4896C40.2521 21.4896 40.744 21.5921 41.176 21.7969C41.608 21.9986 41.9564 22.2823 42.2212 22.6479C42.4893 23.0136 42.6485 23.4407 42.6989 23.9292H41.3226C41.2469 23.5888 41.0735 23.2957 40.8023 23.0498C40.5343 22.804 40.1749 22.6811 39.724 22.6811C39.3299 22.6811 38.9846 22.7851 38.6882 22.9931C38.3949 23.198 38.1664 23.4911 38.0024 23.8725C37.8384 24.2507 37.7565 24.6983 37.7565 25.2152C37.7565 25.7447 37.8368 26.2018 37.9977 26.5862C38.1585 26.9708 38.3855 27.2686 38.6787 27.4798C38.9751 27.691 39.3235 27.7966 39.724 27.7966C39.992 27.7966 40.2348 27.7478 40.4523 27.6501C40.673 27.5492 40.8575 27.4058 41.0057 27.2198C41.1571 27.0339 41.2627 26.81 41.3226 26.5485H42.6989C42.6485 27.0181 42.4955 27.4373 42.2402 27.8061C41.9848 28.1748 41.6426 28.4648 41.2138 28.676C40.7881 28.8872 40.2884 28.9927 39.7145 28.9927ZM47.3493 21.5842V22.7188H43.3812V21.5842H47.3493ZM44.4453 19.8443H45.8595V26.7139C45.8595 26.9882 45.9005 27.1946 45.9825 27.3333C46.0645 27.4688 46.1701 27.5618 46.2994 27.6122C46.4318 27.6595 46.5753 27.6831 46.7298 27.6831C46.8433 27.6831 46.9426 27.6753 47.0277 27.6595C47.1129 27.6437 47.1791 27.6311 47.2263 27.6217L47.4818 28.7894C47.3998 28.8209 47.2831 28.8525 47.1318 28.884C46.9804 28.9187 46.7913 28.9376 46.5642 28.9408C46.1921 28.947 45.8453 28.8809 45.5237 28.7422C45.2021 28.6035 44.942 28.3891 44.7433 28.0992C44.5447 27.8092 44.4453 27.4451 44.4453 27.0071V19.8443ZM50.7322 28.8462L47.9606 19.1635H50.1977L51.8011 25.8913H51.8815L53.6504 19.1635H55.5657L57.3299 25.9055H57.4154L59.0186 19.1635H61.2556L58.4842 28.8462H56.488L54.6436 22.5156H54.5679L52.7281 28.8462H50.7322ZM62.0608 28.8462V21.5842H64.0758V28.8462H62.0608ZM63.073 20.6481C62.7733 20.6481 62.5164 20.5488 62.3022 20.3502C62.0908 20.1485 61.9853 19.9074 61.9853 19.6268C61.9853 19.3495 62.0908 19.1115 62.3022 18.913C62.5164 18.7112 62.7733 18.6104 63.073 18.6104C63.3727 18.6104 63.628 18.7112 63.8394 18.913C64.0536 19.1115 64.1607 19.3495 64.1607 19.6268C64.1607 19.9074 64.0536 20.1485 63.8394 20.3502C63.628 20.5488 63.3727 20.6481 63.073 20.6481ZM65.4365 28.8462V21.5842H67.3899V22.8513H67.4654C67.598 22.4005 67.8206 22.0601 68.1325 21.83C68.4449 21.5968 68.8039 21.4802 69.2107 21.4802C69.3117 21.4802 69.4205 21.4865 69.537 21.4991C69.6541 21.5117 69.7562 21.529 69.8445 21.5511V23.3382C69.7501 23.3099 69.6192 23.2846 69.4521 23.2626C69.2851 23.2405 69.1319 23.2295 68.9932 23.2295C68.6968 23.2295 68.4321 23.2941 68.1985 23.4233C67.9687 23.5494 67.7856 23.7259 67.6502 23.9529C67.5176 24.1798 67.4515 24.4414 67.4515 24.7377V28.8462H65.4365ZM73.6059 28.988C72.8584 28.988 72.2152 28.8368 71.6763 28.5341C71.1403 28.2284 70.7274 27.7966 70.4371 27.2387C70.1469 26.6777 70.0021 26.0142 70.0021 25.2483C70.0021 24.5013 70.1469 23.8457 70.4371 23.2815C70.7274 22.7173 71.1353 22.2776 71.6619 21.9624C72.1919 21.6472 72.8129 21.4896 73.5254 21.4896C74.0049 21.4896 74.4511 21.5668 74.8639 21.7213C75.2801 21.8726 75.6425 22.1011 75.9516 22.4068C76.2641 22.7126 76.5066 23.0971 76.6803 23.5604C76.8534 24.0206 76.9405 24.5596 76.9405 25.1774V25.7305H70.8062V24.4824H75.0437C75.0437 24.1924 74.9805 23.9355 74.8545 23.7117C74.7285 23.4879 74.5532 23.313 74.3295 23.1869C74.1087 23.0577 73.8517 22.9931 73.5587 22.9931C73.2529 22.9931 72.9816 23.064 72.7452 23.2058C72.5115 23.3445 72.3289 23.5321 72.1963 23.7685C72.0642 24.0017 71.996 24.2617 71.9932 24.5485V25.7352C71.9932 26.0946 72.0592 26.405 72.1919 26.6666C72.3273 26.9282 72.5182 27.1299 72.764 27.2718C73.0099 27.4136 73.3018 27.4846 73.6392 27.4846C73.8628 27.4846 74.0676 27.453 74.2541 27.39C74.44 27.327 74.5992 27.2324 74.7313 27.1063C74.8639 26.9803 74.9649 26.8258 75.0343 26.643L76.8978 26.7659C76.8029 27.2135 76.6092 27.6044 76.3162 27.9384C76.026 28.2694 75.6508 28.5278 75.1902 28.7138C74.733 28.8966 74.2052 28.988 73.6059 28.988Z" fill="#333333"/>
<path d="M762.845 30.5104C766.928 30.5104 770.238 27.6542 770.238 24.1309C770.238 20.6077 766.928 17.7515 762.845 17.7515C758.761 17.7515 755.451 20.6077 755.451 24.1309C755.451 27.6542 758.761 30.5104 762.845 30.5104Z" fill="#4ECB71"/>
<path d="M781.329 30.5104C785.412 30.5104 788.723 27.6542 788.723 24.1309C788.723 20.6077 785.412 17.7515 781.329 17.7515C777.246 17.7515 773.936 20.6077 773.936 24.1309C773.936 27.6542 777.246 30.5104 781.329 30.5104Z" fill="#FF9A62"/>
<path d="M744.358 30.5104C748.442 30.5104 751.752 27.6542 751.752 24.1309C751.752 20.6077 748.442 17.7515 744.358 17.7515C740.275 17.7515 736.965 20.6077 736.965 24.1309C736.965 27.6542 740.275 30.5104 744.358 30.5104Z" fill="#FFD233"/>
<path d="M728.088 142.013H79.357C77.5181 142.013 76.0273 143.503 76.0273 145.341V406.067C76.0273 407.906 77.5181 409.396 79.357 409.396H728.088C729.927 409.396 731.417 407.906 731.417 406.067V145.341C731.417 143.503 729.927 142.013 728.088 142.013Z" fill="#4ECB71"/>
<path d="M261.029 259.062V242.925H266.784C268.034 242.925 269.072 243.14 269.897 243.571C270.728 244.001 271.347 244.598 271.757 245.359C272.168 246.116 272.372 246.991 272.372 247.983C272.372 248.971 272.165 249.841 271.75 250.592C271.34 251.338 270.72 251.918 269.89 252.333C269.064 252.748 268.027 252.955 266.776 252.955H262.417V250.86H266.555C267.343 250.86 267.984 250.746 268.478 250.521C268.978 250.295 269.343 249.966 269.574 249.536C269.805 249.105 269.921 248.587 269.921 247.983C269.921 247.374 269.802 246.846 269.566 246.399C269.335 245.953 268.969 245.612 268.471 245.375C267.977 245.134 267.327 245.013 266.523 245.013H263.465V259.062H261.029ZM268.998 251.782L272.987 259.062H270.213L266.303 251.782H268.998ZM279.725 259.307C278.532 259.307 277.505 259.052 276.643 258.542C275.786 258.027 275.124 257.305 274.657 256.375C274.194 255.441 273.963 254.345 273.963 253.09C273.963 251.85 274.194 250.757 274.657 249.812C275.124 248.866 275.776 248.128 276.612 247.597C277.452 247.067 278.435 246.802 279.56 246.802C280.243 246.802 280.905 246.914 281.546 247.141C282.188 247.366 282.763 247.721 283.273 248.204C283.783 248.687 284.184 249.315 284.479 250.087C284.773 250.855 284.92 251.787 284.92 252.885V253.72H275.295V251.955H282.611C282.611 251.335 282.485 250.786 282.232 250.308C281.98 249.825 281.625 249.444 281.168 249.165C280.716 248.887 280.185 248.748 279.576 248.748C278.914 248.748 278.335 248.911 277.841 249.236C277.352 249.557 276.975 249.977 276.706 250.497C276.443 251.012 276.312 251.571 276.312 252.175V253.554C276.312 254.363 276.454 255.052 276.738 255.619C277.027 256.186 277.429 256.62 277.944 256.919C278.459 257.213 279.061 257.361 279.749 257.361C280.196 257.361 280.603 257.297 280.971 257.171C281.339 257.04 281.657 256.846 281.925 256.588C282.193 256.331 282.397 256.013 282.54 255.635L284.77 256.036C284.592 256.693 284.271 257.268 283.809 257.762C283.351 258.251 282.776 258.631 282.082 258.905C281.394 259.173 280.608 259.307 279.725 259.307ZM292.147 259.307C290.975 259.307 289.966 259.041 289.12 258.511C288.279 257.975 287.633 257.237 287.181 256.297C286.729 255.356 286.503 254.28 286.503 253.066C286.503 251.836 286.734 250.752 287.197 249.812C287.659 248.866 288.311 248.128 289.152 247.597C289.992 247.067 290.983 246.802 292.123 246.802C293.043 246.802 293.863 246.972 294.583 247.314C295.303 247.65 295.883 248.122 296.325 248.732C296.772 249.341 297.037 250.053 297.121 250.867H294.827C294.701 250.3 294.412 249.812 293.96 249.402C293.514 248.992 292.914 248.787 292.163 248.787C291.506 248.787 290.93 248.961 290.436 249.307C289.947 249.649 289.567 250.137 289.293 250.773C289.02 251.403 288.884 252.149 288.884 253.011C288.884 253.893 289.017 254.655 289.285 255.296C289.553 255.937 289.932 256.433 290.421 256.785C290.915 257.137 291.495 257.313 292.163 257.313C292.61 257.313 293.014 257.232 293.377 257.069C293.744 256.901 294.052 256.662 294.299 256.352C294.551 256.042 294.727 255.669 294.827 255.233H297.121C297.037 256.016 296.782 256.714 296.357 257.329C295.931 257.944 295.36 258.427 294.646 258.779C293.936 259.131 293.103 259.307 292.147 259.307ZM304.253 259.307C303.118 259.307 302.127 259.047 301.282 258.527C300.435 258.007 299.778 257.279 299.311 256.344C298.843 255.409 298.609 254.316 298.609 253.066C298.609 251.81 298.843 250.713 299.311 249.772C299.778 248.832 300.435 248.101 301.282 247.582C302.127 247.061 303.118 246.802 304.253 246.802C305.388 246.802 306.379 247.061 307.225 247.582C308.071 248.101 308.728 248.832 309.196 249.772C309.664 250.713 309.897 251.81 309.897 253.066C309.897 254.316 309.664 255.409 309.196 256.344C308.728 257.279 308.071 258.007 307.225 258.527C306.379 259.047 305.388 259.307 304.253 259.307ZM304.261 257.329C304.997 257.329 305.606 257.135 306.09 256.746C306.574 256.357 306.931 255.839 307.162 255.194C307.398 254.547 307.516 253.836 307.516 253.058C307.516 252.286 307.398 251.577 307.162 250.931C306.931 250.279 306.574 249.756 306.09 249.362C305.606 248.968 304.997 248.772 304.261 248.772C303.52 248.772 302.905 248.968 302.417 249.362C301.933 249.756 301.573 250.279 301.337 250.931C301.105 251.577 300.99 252.286 300.99 253.058C300.99 253.836 301.105 254.547 301.337 255.194C301.573 255.839 301.933 256.357 302.417 256.746C302.905 257.135 303.52 257.329 304.261 257.329ZM312.04 259.062V246.959H314.318V248.882H314.444C314.665 248.23 315.054 247.718 315.611 247.345C316.173 246.967 316.809 246.778 317.518 246.778C317.665 246.778 317.839 246.783 318.039 246.794C318.244 246.804 318.404 246.817 318.519 246.833V249.087C318.425 249.061 318.257 249.032 318.015 249C317.773 248.963 317.532 248.945 317.29 248.945C316.732 248.945 316.236 249.063 315.8 249.3C315.369 249.53 315.028 249.854 314.775 250.269C314.523 250.678 314.397 251.146 314.397 251.671V259.062H312.04ZM324.17 259.299C323.193 259.299 322.32 259.049 321.553 258.55C320.791 258.046 320.191 257.329 319.755 256.399C319.325 255.464 319.109 254.342 319.109 253.035C319.109 251.727 319.327 250.608 319.764 249.677C320.205 248.748 320.809 248.036 321.577 247.542C322.344 247.049 323.213 246.802 324.185 246.802C324.937 246.802 325.542 246.928 325.998 247.18C326.461 247.427 326.819 247.715 327.071 248.046C327.328 248.378 327.528 248.669 327.67 248.921H327.811V242.925H330.169V259.062H327.867V257.179H327.67C327.528 257.437 327.323 257.731 327.055 258.062C326.792 258.393 326.43 258.681 325.967 258.929C325.504 259.176 324.906 259.299 324.17 259.299ZM324.69 257.289C325.368 257.289 325.941 257.111 326.409 256.754C326.881 256.391 327.239 255.889 327.481 255.249C327.728 254.608 327.851 253.862 327.851 253.011C327.851 252.17 327.73 251.435 327.488 250.805C327.246 250.174 326.892 249.683 326.424 249.331C325.957 248.979 325.379 248.803 324.69 248.803C323.981 248.803 323.39 248.987 322.916 249.355C322.443 249.722 322.086 250.224 321.845 250.86C321.608 251.495 321.489 252.213 321.489 253.011C321.489 253.82 321.61 254.547 321.852 255.194C322.094 255.839 322.451 256.352 322.925 256.73C323.402 257.103 323.991 257.289 324.69 257.289ZM333.044 259.062V246.959H335.401V259.062H333.044ZM334.234 245.091C333.825 245.091 333.472 244.955 333.178 244.682C332.889 244.404 332.745 244.072 332.745 243.689C332.745 243.3 332.889 242.97 333.178 242.696C333.472 242.418 333.825 242.278 334.234 242.278C334.644 242.278 334.994 242.418 335.283 242.696C335.577 242.97 335.724 243.3 335.724 243.689C335.724 244.072 335.577 244.404 335.283 244.682C334.994 244.955 334.644 245.091 334.234 245.091ZM340.441 251.876V259.062H338.083V246.959H340.346V248.929H340.496C340.774 248.288 341.211 247.774 341.804 247.385C342.403 246.996 343.157 246.802 344.067 246.802C344.891 246.802 345.614 246.975 346.234 247.321C346.854 247.663 347.335 248.172 347.677 248.85C348.019 249.528 348.19 250.366 348.19 251.364V259.062H345.832V251.648C345.832 250.77 345.603 250.085 345.147 249.591C344.69 249.092 344.061 248.843 343.263 248.843C342.716 248.843 342.23 248.961 341.804 249.197C341.384 249.433 341.05 249.78 340.803 250.237C340.561 250.689 340.441 251.235 340.441 251.876ZM355.938 263.853C354.977 263.853 354.149 263.727 353.455 263.475C352.767 263.223 352.205 262.89 351.768 262.475C351.332 262.059 351.006 261.605 350.791 261.111L352.817 260.276C352.959 260.507 353.148 260.752 353.384 261.009C353.626 261.271 353.952 261.494 354.362 261.679C354.777 261.862 355.311 261.954 355.962 261.954C356.856 261.954 357.594 261.736 358.177 261.3C358.761 260.87 359.052 260.181 359.052 259.236V256.856H358.902C358.761 257.114 358.555 257.4 358.287 257.715C358.025 258.03 357.662 258.304 357.2 258.534C356.737 258.766 356.135 258.881 355.394 258.881C354.438 258.881 353.576 258.658 352.809 258.211C352.047 257.76 351.443 257.095 350.996 256.218C350.555 255.335 350.334 254.251 350.334 252.964C350.334 251.677 350.552 250.573 350.988 249.654C351.429 248.735 352.034 248.031 352.801 247.542C353.568 247.049 354.438 246.802 355.41 246.802C356.162 246.802 356.769 246.928 357.231 247.18C357.694 247.427 358.054 247.715 358.311 248.046C358.574 248.378 358.776 248.669 358.918 248.921H359.091V246.959H361.401V259.33C361.401 260.371 361.159 261.224 360.676 261.891C360.192 262.558 359.538 263.052 358.713 263.373C357.893 263.693 356.968 263.853 355.938 263.853ZM355.915 256.927C356.593 256.927 357.166 256.769 357.633 256.454C358.106 256.134 358.464 255.677 358.705 255.083C358.952 254.484 359.076 253.767 359.076 252.932C359.076 252.118 358.955 251.4 358.713 250.781C358.472 250.161 358.117 249.677 357.649 249.331C357.181 248.979 356.603 248.803 355.915 248.803C355.205 248.803 354.614 248.987 354.141 249.355C353.668 249.717 353.311 250.211 353.069 250.836C352.833 251.461 352.715 252.16 352.715 252.932C352.715 253.725 352.835 254.422 353.077 255.02C353.319 255.619 353.676 256.086 354.149 256.422C354.627 256.759 355.216 256.927 355.915 256.927ZM372.085 259.062L368.522 246.959H370.958L373.33 255.848H373.449L375.829 246.959H378.265L380.63 255.808H380.748L383.105 246.959H385.541L381.986 259.062H379.582L377.122 250.324H376.941L374.481 259.062H372.085ZM387.289 259.062V246.959H389.646V259.062H387.289ZM388.48 245.091C388.07 245.091 387.718 244.955 387.423 244.682C387.134 244.404 386.99 244.072 386.99 243.689C386.99 243.3 387.134 242.97 387.423 242.696C387.718 242.418 388.07 242.278 388.48 242.278C388.889 242.278 389.239 242.418 389.528 242.696C389.822 242.97 389.969 243.3 389.969 243.689C389.969 244.072 389.822 244.404 389.528 244.682C389.239 244.955 388.889 245.091 388.48 245.091ZM394.686 242.925V259.062H392.329V242.925H394.686ZM399.725 242.925V259.062H397.368V242.925H399.725ZM416.867 249.914L414.731 250.292C414.641 250.019 414.499 249.759 414.305 249.512C414.116 249.265 413.858 249.063 413.532 248.905C413.206 248.748 412.799 248.669 412.311 248.669C411.643 248.669 411.086 248.819 410.639 249.118C410.192 249.412 409.969 249.793 409.969 250.261C409.969 250.665 410.119 250.991 410.419 251.238C410.718 251.485 411.202 251.687 411.869 251.845L413.792 252.286C414.907 252.543 415.737 252.94 416.283 253.476C416.83 254.012 417.103 254.708 417.103 255.564C417.103 256.289 416.893 256.935 416.473 257.503C416.058 258.064 415.477 258.505 414.731 258.826C413.989 259.147 413.13 259.307 412.153 259.307C410.797 259.307 409.691 259.018 408.834 258.44C407.978 257.857 407.452 257.029 407.258 255.958L409.536 255.611C409.677 256.204 409.969 256.654 410.411 256.958C410.852 257.258 411.428 257.408 412.137 257.408C412.909 257.408 413.527 257.247 413.989 256.927C414.452 256.601 414.683 256.204 414.683 255.737C414.683 255.359 414.542 255.041 414.257 254.784C413.979 254.526 413.551 254.332 412.973 254.201L410.923 253.751C409.793 253.494 408.958 253.084 408.417 252.522C407.881 251.96 407.612 251.248 407.612 250.387C407.612 249.672 407.812 249.047 408.211 248.511C408.611 247.975 409.162 247.558 409.867 247.259C410.571 246.954 411.378 246.802 412.287 246.802C413.595 246.802 414.625 247.085 415.377 247.653C416.129 248.215 416.625 248.968 416.867 249.914ZM424.859 246.959V248.85H418.245V246.959H424.859ZM420.018 244.06H422.375V255.509C422.375 255.966 422.443 256.31 422.58 256.541C422.717 256.767 422.893 256.922 423.108 257.006C423.329 257.085 423.568 257.124 423.826 257.124C424.015 257.124 424.18 257.111 424.322 257.085C424.464 257.058 424.574 257.037 424.653 257.022L425.079 258.968C424.942 259.02 424.748 259.073 424.496 259.126C424.244 259.183 423.928 259.215 423.55 259.22C422.93 259.231 422.352 259.12 421.816 258.889C421.28 258.658 420.846 258.301 420.515 257.818C420.184 257.334 420.018 256.728 420.018 255.997V244.06ZM430.501 259.33C429.734 259.33 429.04 259.188 428.42 258.905C427.8 258.616 427.308 258.198 426.946 257.652C426.588 257.106 426.41 256.436 426.41 255.642C426.41 254.96 426.541 254.398 426.804 253.956C427.067 253.515 427.421 253.166 427.868 252.908C428.315 252.651 428.814 252.457 429.366 252.325C429.917 252.194 430.48 252.094 431.052 252.026C431.778 251.942 432.366 251.874 432.818 251.821C433.27 251.763 433.599 251.671 433.804 251.545C434.008 251.419 434.111 251.214 434.111 250.931V250.875C434.111 250.187 433.916 249.654 433.528 249.276C433.144 248.897 432.571 248.708 431.809 248.708C431.016 248.708 430.39 248.884 429.933 249.236C429.481 249.583 429.169 249.969 428.995 250.395L426.78 249.89C427.043 249.155 427.426 248.561 427.931 248.11C428.441 247.653 429.027 247.321 429.689 247.117C430.351 246.906 431.047 246.802 431.778 246.802C432.261 246.802 432.774 246.859 433.315 246.975C433.861 247.085 434.371 247.29 434.844 247.589C435.323 247.889 435.714 248.317 436.018 248.874C436.324 249.426 436.476 250.142 436.476 251.025V259.062H434.174V257.408H434.079C433.927 257.712 433.698 258.012 433.394 258.306C433.089 258.6 432.697 258.844 432.219 259.039C431.741 259.233 431.168 259.33 430.501 259.33ZM431.013 257.439C431.665 257.439 432.222 257.311 432.684 257.053C433.152 256.796 433.507 256.46 433.748 256.045C433.996 255.624 434.119 255.175 434.119 254.697V253.137C434.035 253.221 433.872 253.3 433.63 253.373C433.394 253.441 433.123 253.502 432.818 253.554C432.513 253.602 432.217 253.647 431.927 253.688C431.638 253.725 431.397 253.757 431.202 253.783C430.745 253.841 430.327 253.938 429.949 254.075C429.576 254.211 429.276 254.408 429.051 254.666C428.83 254.917 428.719 255.254 428.719 255.674C428.719 256.257 428.935 256.699 429.366 256.998C429.796 257.292 430.346 257.439 431.013 257.439ZM439.127 259.062V246.959H441.405V248.882H441.531C441.752 248.23 442.141 247.718 442.698 247.345C443.26 246.967 443.896 246.778 444.605 246.778C444.752 246.778 444.926 246.783 445.126 246.794C445.33 246.804 445.491 246.817 445.606 246.833V249.087C445.512 249.061 445.344 249.032 445.102 249C444.86 248.963 444.618 248.945 444.376 248.945C443.82 248.945 443.323 249.063 442.887 249.3C442.456 249.53 442.115 249.854 441.862 250.269C441.61 250.678 441.484 251.146 441.484 251.671V259.062H439.127ZM453.525 246.959V248.85H446.911V246.959H453.525ZM448.685 244.06H451.042V255.509C451.042 255.966 451.11 256.31 451.247 256.541C451.384 256.767 451.56 256.922 451.775 257.006C451.996 257.085 452.235 257.124 452.493 257.124C452.682 257.124 452.847 257.111 452.989 257.085C453.131 257.058 453.241 257.037 453.32 257.022L453.746 258.968C453.609 259.02 453.415 259.073 453.162 259.126C452.91 259.183 452.595 259.215 452.216 259.22C451.596 259.231 451.018 259.12 450.482 258.889C449.946 258.658 449.513 258.301 449.182 257.818C448.85 257.334 448.685 256.728 448.685 255.997V244.06ZM470.103 249.914L467.967 250.292C467.878 250.019 467.736 249.759 467.541 249.512C467.352 249.265 467.095 249.063 466.769 248.905C466.443 248.748 466.035 248.669 465.547 248.669C464.879 248.669 464.322 248.819 463.876 249.118C463.429 249.412 463.206 249.793 463.206 250.261C463.206 250.665 463.356 250.991 463.655 251.238C463.954 251.485 464.438 251.687 465.105 251.845L467.029 252.286C468.143 252.543 468.973 252.94 469.52 253.476C470.067 254.012 470.34 254.708 470.34 255.564C470.34 256.289 470.129 256.935 469.709 257.503C469.294 258.064 468.713 258.505 467.967 258.826C467.226 259.147 466.367 259.307 465.389 259.307C464.033 259.307 462.927 259.018 462.071 258.44C461.214 257.857 460.689 257.029 460.494 255.958L462.772 255.611C462.914 256.204 463.206 256.654 463.647 256.958C464.089 257.258 464.664 257.408 465.373 257.408C466.146 257.408 466.764 257.247 467.226 256.927C467.689 256.601 467.919 256.204 467.919 255.737C467.919 255.359 467.778 255.041 467.494 254.784C467.215 254.526 466.787 254.332 466.209 254.201L464.16 253.751C463.03 253.494 462.194 253.084 461.653 252.522C461.117 251.96 460.849 251.248 460.849 250.387C460.849 249.672 461.049 249.047 461.448 248.511C461.847 247.975 462.399 247.558 463.103 247.259C463.807 246.954 464.614 246.802 465.523 246.802C466.832 246.802 467.862 247.085 468.613 247.653C469.365 248.215 469.861 248.968 470.103 249.914ZM474.8 251.876V259.062H472.443V242.925H474.768V248.929H474.918C475.201 248.278 475.635 247.76 476.219 247.377C476.802 246.993 477.564 246.802 478.505 246.802C479.335 246.802 480.06 246.972 480.68 247.314C481.306 247.655 481.789 248.165 482.131 248.843C482.477 249.515 482.651 250.355 482.651 251.364V259.062H480.294V251.648C480.294 250.76 480.066 250.072 479.608 249.583C479.151 249.089 478.515 248.843 477.7 248.843C477.144 248.843 476.644 248.961 476.203 249.197C475.766 249.433 475.422 249.78 475.17 250.237C474.923 250.689 474.8 251.235 474.8 251.876ZM490.408 259.307C489.273 259.307 488.282 259.047 487.436 258.527C486.59 258.007 485.933 257.279 485.465 256.344C484.998 255.409 484.764 254.316 484.764 253.066C484.764 251.81 484.998 250.713 485.465 249.772C485.933 248.832 486.59 248.101 487.436 247.582C488.282 247.061 489.273 246.802 490.408 246.802C491.543 246.802 492.534 247.061 493.38 247.582C494.226 248.101 494.883 248.832 495.35 249.772C495.818 250.713 496.052 251.81 496.052 253.066C496.052 254.316 495.818 255.409 495.35 256.344C494.883 257.279 494.226 258.007 493.38 258.527C492.534 259.047 491.543 259.307 490.408 259.307ZM490.416 257.329C491.152 257.329 491.761 257.135 492.244 256.746C492.728 256.357 493.086 255.839 493.317 255.194C493.553 254.547 493.671 253.836 493.671 253.058C493.671 252.286 493.553 251.577 493.317 250.931C493.086 250.279 492.728 249.756 492.244 249.362C491.761 248.968 491.152 248.772 490.416 248.772C489.675 248.772 489.06 248.968 488.571 249.362C488.088 249.756 487.728 250.279 487.491 250.931C487.26 251.577 487.144 252.286 487.144 253.058C487.144 253.836 487.26 254.547 487.491 255.194C487.728 255.839 488.088 256.357 488.571 256.746C489.06 257.135 489.675 257.329 490.416 257.329ZM498.195 259.062V246.959H500.473V248.882H500.599C500.819 248.23 501.208 247.718 501.766 247.345C502.328 246.967 502.964 246.778 503.673 246.778C503.82 246.778 503.994 246.783 504.193 246.794C504.398 246.804 504.559 246.817 504.674 246.833V249.087C504.58 249.061 504.412 249.032 504.17 249C503.928 248.963 503.686 248.945 503.444 248.945C502.887 248.945 502.39 249.063 501.954 249.3C501.524 249.53 501.182 249.854 500.93 250.269C500.677 250.678 500.551 251.146 500.551 251.671V259.062H498.195ZM512.593 246.959V248.85H505.979V246.959H512.593ZM507.753 244.06H510.11V255.509C510.11 255.966 510.178 256.31 510.314 256.541C510.451 256.767 510.628 256.922 510.843 257.006C511.064 257.085 511.302 257.124 511.56 257.124C511.749 257.124 511.915 257.111 512.056 257.085C512.199 257.058 512.309 257.037 512.388 257.022L512.813 258.968C512.677 259.02 512.482 259.073 512.23 259.126C511.978 259.183 511.662 259.215 511.284 259.22C510.664 259.231 510.086 259.12 509.55 258.889C509.014 258.658 508.58 258.301 508.249 257.818C507.918 257.334 507.753 256.728 507.753 255.997V244.06ZM517.328 242.925V259.062H514.972V242.925H517.328ZM521.501 263.601C521.149 263.601 520.828 263.572 520.539 263.515C520.25 263.462 520.035 263.404 519.893 263.341L520.461 261.411C520.891 261.526 521.275 261.576 521.612 261.56C521.948 261.544 522.245 261.418 522.502 261.182C522.765 260.946 522.996 260.56 523.196 260.024L523.487 259.22L519.057 246.959H521.58L524.646 256.352H524.773L527.839 246.959H530.369L525.379 260.678C525.148 261.308 524.854 261.841 524.496 262.277C524.139 262.719 523.713 263.05 523.219 263.27C522.725 263.491 522.153 263.601 521.501 263.601ZM532.89 259.212C532.459 259.212 532.088 259.06 531.779 258.755C531.468 258.445 531.313 258.072 531.313 257.636C531.313 257.205 531.468 256.838 531.779 256.533C532.088 256.223 532.459 256.068 532.89 256.068C533.321 256.068 533.692 256.223 534.001 256.533C534.311 256.838 534.466 257.205 534.466 257.636C534.466 257.925 534.393 258.19 534.246 258.432C534.104 258.669 533.915 258.858 533.678 258.999C533.442 259.141 533.179 259.212 532.89 259.212ZM538.688 259.212C538.257 259.212 537.886 259.06 537.577 258.755C537.267 258.445 537.112 258.072 537.112 257.636C537.112 257.205 537.267 256.838 537.577 256.533C537.886 256.223 538.257 256.068 538.688 256.068C539.119 256.068 539.49 256.223 539.799 256.533C540.109 256.838 540.264 257.205 540.264 257.636C540.264 257.925 540.191 258.19 540.044 258.432C539.902 258.669 539.713 258.858 539.476 258.999C539.24 259.141 538.977 259.212 538.688 259.212ZM544.486 259.212C544.055 259.212 543.685 259.06 543.375 258.755C543.065 258.445 542.91 258.072 542.91 257.636C542.91 257.205 543.065 256.838 543.375 256.533C543.685 256.223 544.055 256.068 544.486 256.068C544.917 256.068 545.288 256.223 545.598 256.533C545.908 256.838 546.063 257.205 546.063 257.636C546.063 257.925 545.989 258.19 545.842 258.432C545.7 258.669 545.511 258.858 545.274 258.999C545.038 259.141 544.775 259.212 544.486 259.212Z" fill="#333333"/>
<path d="M414.902 289.843L412.672 292.072C410.868 290.267 408.492 289.144 405.951 288.894C403.411 288.644 400.862 289.281 398.739 290.699C396.616 292.117 395.051 294.226 394.31 296.669C393.568 299.111 393.697 301.734 394.674 304.092C395.651 306.45 397.415 308.396 399.667 309.599C401.918 310.803 404.517 311.188 407.021 310.69C409.525 310.193 411.779 308.843 413.399 306.87C415.019 304.897 415.904 302.424 415.904 299.872H419.057C419.057 303.153 417.919 306.333 415.837 308.869C413.754 311.405 410.857 313.142 407.637 313.782C404.418 314.422 401.076 313.926 398.181 312.38C395.286 310.833 393.017 308.331 391.761 305.3C390.506 302.268 390.34 298.895 391.293 295.755C392.245 292.615 394.258 289.903 396.987 288.08C399.716 286.257 402.994 285.436 406.26 285.758C409.526 286.08 412.581 287.524 414.902 289.843Z" fill="black"/>
</svg>
