<svg width="807" height="590" viewBox="0 0 807 590" fill="none" xmlns="http://www.w3.org/2000/svg">
<path d="M803.674 48H3.32555C1.4889 48 0 49.6735 0 51.7379V586.262C0 588.326 1.4889 590 3.32555 590H803.674C805.511 590 807 588.326 807 586.262V51.7379C807 49.6735 805.511 48 803.674 48Z" fill="#FFD233"/>
<path d="M803.674 0H3.32555C1.4889 0 0 1.49018 0 3.32842V44.7729C0 46.6112 1.4889 48.1013 3.32555 48.1013H803.674C805.511 48.1013 807 46.6112 807 44.7729V3.32842C807 1.49018 805.511 0 803.674 0Z" fill="#F8F8F8"/>
<path d="M5.49707 28.8462V19.1635H8.94544C9.69812 19.1635 10.3217 19.3006 10.8161 19.5748C11.3105 19.849 11.6805 20.2241 11.9261 20.7C12.1718 21.1728 12.2946 21.7055 12.2946 22.2981C12.2946 22.8938 12.1702 23.4296 11.9214 23.9056C11.6758 24.3783 11.3042 24.7535 10.8066 25.0308C10.3122 25.305 9.69025 25.4421 8.94073 25.4421H6.56939V24.2034H8.80843C9.28398 24.2034 9.66974 24.1215 9.96577 23.9576C10.2618 23.7905 10.4791 23.5636 10.6176 23.2767C10.7562 22.9899 10.8255 22.6637 10.8255 22.2981C10.8255 21.9324 10.7562 21.6078 10.6176 21.3241C10.4791 21.0405 10.2602 20.8183 9.96106 20.6575C9.66503 20.4968 9.27456 20.4164 8.78958 20.4164H6.9567V28.8462H5.49707ZM13.6397 28.8462V21.5842H15.0049V22.7378H15.0805C15.2127 22.3469 15.4458 22.0396 15.7796 21.8158C16.1165 21.5889 16.4976 21.4755 16.9227 21.4755C17.0109 21.4755 17.1148 21.4786 17.2345 21.4849C17.3573 21.4912 17.4534 21.4991 17.5226 21.5085V22.8607C17.4659 22.8449 17.3652 22.8276 17.2203 22.8087C17.0755 22.7866 16.9306 22.7756 16.7858 22.7756C16.4519 22.7756 16.1543 22.8465 15.893 22.9883C15.6347 23.127 15.43 23.3209 15.2788 23.5699C15.1277 23.8157 15.0521 24.0963 15.0521 24.4115V28.8462H13.6397ZM21.2887 28.9927C20.6084 28.9927 20.0148 28.8368 19.5078 28.5247C19.0008 28.2127 18.6072 27.7761 18.3269 27.2151C18.0466 26.654 17.9064 25.9984 17.9064 25.2483C17.9064 24.4949 18.0466 23.8362 18.3269 23.272C18.6072 22.7079 19.0008 22.2697 19.5078 21.9577C20.0148 21.6456 20.6084 21.4896 21.2887 21.4896C21.9689 21.4896 22.5625 21.6456 23.0695 21.9577C23.5766 22.2697 23.9702 22.7079 24.2505 23.272C24.5308 23.8362 24.6709 24.4949 24.6709 25.2483C24.6709 25.9984 24.5308 26.654 24.2505 27.2151C23.9702 27.7761 23.5766 28.2127 23.0695 28.5247C22.5625 28.8368 21.9689 28.9927 21.2887 28.9927ZM21.2934 27.8061C21.7343 27.8061 22.0996 27.6895 22.3893 27.4562C22.679 27.223 22.8932 26.9125 23.0317 26.5248C23.1735 26.1371 23.2443 25.71 23.2443 25.2436C23.2443 24.7802 23.1735 24.3547 23.0317 23.967C22.8932 23.5762 22.679 23.2626 22.3893 23.0262C22.0996 22.7898 21.7343 22.6716 21.2934 22.6716C20.8494 22.6716 20.4809 22.7898 20.188 23.0262C19.8983 23.2626 19.6826 23.5762 19.5409 23.967C19.4023 24.3547 19.333 24.7802 19.333 25.2436C19.333 25.71 19.4023 26.1371 19.5409 26.5248C19.6826 26.9125 19.8983 27.223 20.188 27.4562C20.4809 27.6895 20.8494 27.8061 21.2934 27.8061ZM25.9948 21.5842H27.4072V29.319C27.4072 29.8044 27.319 30.2141 27.1426 30.5482C26.9694 30.8823 26.7112 31.136 26.3679 31.3094C26.0278 31.4827 25.6074 31.5694 25.1067 31.5694C25.0563 31.5694 25.009 31.5694 24.9649 31.5694C24.9177 31.5694 24.8689 31.5679 24.8185 31.5647V30.3496C24.8626 30.3496 24.902 30.3496 24.9366 30.3496C24.9681 30.3496 25.0043 30.3496 25.0453 30.3496C25.3791 30.3496 25.62 30.2598 25.768 30.0801C25.9192 29.9037 25.9948 29.6468 25.9948 29.3095V21.5842ZM26.6938 20.4637C26.4482 20.4637 26.2372 20.3817 26.0609 20.2178C25.8877 20.0508 25.801 19.8522 25.801 19.6221C25.801 19.3889 25.8877 19.1903 26.0609 19.0264C26.2372 18.8594 26.4482 18.7758 26.6938 18.7758C26.9395 18.7758 27.1489 18.8594 27.3221 19.0264C27.4985 19.1903 27.5866 19.3889 27.5866 19.6221C27.5866 19.8522 27.4985 20.0508 27.3221 20.2178C27.1489 20.3817 26.9395 20.4637 26.6938 20.4637ZM32.1817 28.9927C31.4668 28.9927 30.8512 28.8399 30.3347 28.5341C29.8214 28.2253 29.4246 27.7919 29.1443 27.234C28.8671 26.673 28.7286 26.0158 28.7286 25.2625C28.7286 24.5186 28.8671 23.863 29.1443 23.2957C29.4246 22.7283 29.8151 22.2855 30.3158 21.9671C30.8197 21.6488 31.4086 21.4896 32.0825 21.4896C32.4919 21.4896 32.8887 21.5574 33.2729 21.6929C33.6571 21.8284 34.002 22.0412 34.3074 22.3312C34.6129 22.6212 34.8538 22.9978 35.0302 23.4611C35.2065 23.9213 35.2947 24.4808 35.2947 25.1395V25.6407H29.5269V24.5816H33.9106C33.9106 24.2097 33.835 23.8804 33.6839 23.5935C33.5327 23.3035 33.3201 23.075 33.0461 22.908C32.7753 22.7409 32.4572 22.6574 32.0919 22.6574C31.6951 22.6574 31.3487 22.7551 31.0527 22.9506C30.7598 23.1428 30.5331 23.395 30.3725 23.707C30.215 24.0159 30.1363 24.3515 30.1363 24.714V25.5414C30.1363 26.0268 30.2213 26.4397 30.3914 26.7801C30.5646 27.1205 30.8055 27.3806 31.1141 27.5602C31.4227 27.7367 31.7833 27.825 32.1958 27.825C32.4636 27.825 32.7076 27.7871 32.9281 27.7115C33.1485 27.6327 33.339 27.5161 33.4996 27.3617C33.6603 27.2072 33.7831 27.0165 33.8681 26.7896L35.2049 27.0307C35.0978 27.4247 34.9057 27.7698 34.6286 28.0661C34.3546 28.3592 34.0098 28.5877 33.5941 28.7516C33.1815 28.9124 32.7108 28.9927 32.1817 28.9927ZM39.6654 28.9927C38.9631 28.9927 38.3584 28.8336 37.8514 28.5152C37.3475 28.1938 36.9602 27.7509 36.6893 27.1867C36.4185 26.6225 36.2831 25.9764 36.2831 25.2483C36.2831 24.5108 36.4217 23.8599 36.6988 23.2957C36.9759 22.7283 37.3664 22.2855 37.8703 21.9671C38.3742 21.6488 38.9678 21.4896 39.6512 21.4896C40.2023 21.4896 40.6936 21.5921 41.125 21.7969C41.5564 21.9986 41.9044 22.2823 42.1689 22.6479C42.4367 23.0136 42.5957 23.4407 42.6461 23.9292H41.2714C41.1958 23.5888 41.0226 23.2957 40.7518 23.0498C40.4841 22.804 40.1251 22.6811 39.6748 22.6811C39.2812 22.6811 38.9363 22.7851 38.6403 22.9931C38.3474 23.198 38.1191 23.4911 37.9553 23.8725C37.7916 24.2507 37.7097 24.6983 37.7097 25.2152C37.7097 25.7447 37.79 26.2018 37.9506 26.5862C38.1112 26.9708 38.338 27.2686 38.6308 27.4798C38.9269 27.691 39.2748 27.7966 39.6748 27.7966C39.9425 27.7966 40.185 27.7478 40.4023 27.6501C40.6227 27.5492 40.8069 27.4058 40.955 27.2198C41.1061 27.0339 41.2116 26.81 41.2714 26.5485H42.6461C42.5957 27.0181 42.4429 27.4373 42.1879 27.8061C41.9328 28.1748 41.5911 28.4648 41.1628 28.676C40.7376 28.8872 40.2385 28.9927 39.6654 28.9927ZM47.2907 21.5842V22.7188H43.3275V21.5842H47.2907ZM44.3903 19.8443H45.8027V26.7139C45.8027 26.9882 45.8436 27.1946 45.9255 27.3333C46.0074 27.4688 46.1129 27.5618 46.242 27.6122C46.3743 27.6595 46.5176 27.6831 46.6719 27.6831C46.7853 27.6831 46.8845 27.6753 46.9695 27.6595C47.0545 27.6437 47.1206 27.6311 47.1679 27.6217L47.423 28.7894C47.3411 28.8209 47.2246 28.8525 47.0734 28.884C46.9223 28.9187 46.7333 28.9376 46.5066 28.9408C46.1349 28.947 45.7885 28.8809 45.4673 28.7422C45.1461 28.6035 44.8863 28.3891 44.6879 28.0992C44.4895 27.8092 44.3903 27.4451 44.3903 27.0071V19.8443ZM50.6694 28.8462L47.9013 19.1635H50.1356L51.7369 25.8913H51.8173L53.584 19.1635H55.4969L57.2589 25.9055H57.3443L58.9455 19.1635H61.1797L58.4118 28.8462H56.4181L54.576 22.5156H54.5004L52.6628 28.8462H50.6694ZM61.984 28.8462V21.5842H63.9965V28.8462H61.984ZM62.9949 20.6481C62.6956 20.6481 62.439 20.5488 62.2251 20.3502C62.0139 20.1485 61.9086 19.9074 61.9086 19.6268C61.9086 19.3495 62.0139 19.1115 62.2251 18.913C62.439 18.7112 62.6956 18.6104 62.9949 18.6104C63.2942 18.6104 63.5492 18.7112 63.7604 18.913C63.9743 19.1115 64.0813 19.3495 64.0813 19.6268C64.0813 19.9074 63.9743 20.1485 63.7604 20.3502C63.5492 20.5488 63.2942 20.6481 62.9949 20.6481ZM65.3555 28.8462V21.5842H67.3065V22.8513H67.3819C67.5143 22.4005 67.7366 22.0601 68.0481 21.83C68.3601 21.5968 68.7188 21.4802 69.125 21.4802C69.2259 21.4802 69.3345 21.4865 69.4509 21.4991C69.5679 21.5117 69.6699 21.529 69.758 21.5511V23.3382C69.6638 23.3099 69.533 23.2846 69.3661 23.2626C69.1993 23.2405 69.0463 23.2295 68.9078 23.2295C68.6118 23.2295 68.3474 23.2941 68.1141 23.4233C67.8846 23.5494 67.7017 23.7259 67.5664 23.9529C67.434 24.1798 67.368 24.4414 67.368 24.7377V28.8462H65.3555ZM73.5147 28.988C72.7682 28.988 72.1258 28.8368 71.5876 28.5341C71.0522 28.2284 70.6398 27.7966 70.3499 27.2387C70.0601 26.6777 69.9154 26.0142 69.9154 25.2483C69.9154 24.5013 70.0601 23.8457 70.3499 23.2815C70.6398 22.7173 71.0472 22.2776 71.5732 21.9624C72.1025 21.6472 72.7227 21.4896 73.4344 21.4896C73.9133 21.4896 74.3589 21.5668 74.7713 21.7213C75.1869 21.8726 75.5489 22.1011 75.8576 22.4068C76.1696 22.7126 76.4119 23.0971 76.5853 23.5604C76.7583 24.0206 76.8453 24.5596 76.8453 25.1774V25.7305H70.7185V24.4824H74.9508C74.9508 24.1924 74.8876 23.9355 74.7618 23.7117C74.636 23.4879 74.4609 23.313 74.2375 23.1869C74.0169 23.0577 73.7603 22.9931 73.4676 22.9931C73.1622 22.9931 72.8912 23.064 72.6551 23.2058C72.4218 23.3445 72.2394 23.5321 72.1069 23.7685C71.975 24.0017 71.9068 24.2617 71.9041 24.5485V25.7352C71.9041 26.0946 71.97 26.405 72.1025 26.6666C72.2377 26.9282 72.4284 27.1299 72.6739 27.2718C72.9195 27.4136 73.211 27.4846 73.548 27.4846C73.7714 27.4846 73.9759 27.453 74.1621 27.39C74.3478 27.327 74.5069 27.2324 74.6388 27.1063C74.7713 26.9803 74.8721 26.8258 74.9414 26.643L76.8026 26.7659C76.7078 27.2135 76.5144 27.6044 76.2217 27.9384C75.9319 28.2694 75.5572 28.5278 75.0972 28.7138C74.6404 28.8966 74.1133 28.988 73.5147 28.988Z" fill="#333333"/>
<path d="M761.9 30.5104C765.978 30.5104 769.284 27.6542 769.284 24.1309C769.284 20.6077 765.978 17.7515 761.9 17.7515C757.822 17.7515 754.516 20.6077 754.516 24.1309C754.516 27.6542 757.822 30.5104 761.9 30.5104Z" fill="#4ECB71"/>
<path d="M780.363 30.5104C784.441 30.5104 787.747 27.6542 787.747 24.1309C787.747 20.6077 784.441 17.7515 780.363 17.7515C776.285 17.7515 772.979 20.6077 772.979 24.1309C772.979 27.6542 776.285 30.5104 780.363 30.5104Z" fill="#FF9A62"/>
<path d="M743.437 30.5104C747.515 30.5104 750.821 27.6542 750.821 24.1309C750.821 20.6077 747.515 17.7515 743.437 17.7515C739.359 17.7515 736.053 20.6077 736.053 24.1309C736.053 27.6542 739.359 30.5104 743.437 30.5104Z" fill="#FFD233"/>
<path d="M727.741 142.013H79.8129C77.9762 142.013 76.4873 143.503 76.4873 145.341V406.067C76.4873 407.906 77.9762 409.396 79.8129 409.396H727.741C729.577 409.396 731.066 407.906 731.066 406.067V145.341C731.066 143.503 729.577 142.013 727.741 142.013Z" fill="#4ECB71"/>
<path d="M386.607 219.705C382.423 218.383 383.614 217.331 387.608 215.829C389.521 215.108 388.357 213.588 388.41 212.372C388.433 211.816 390.619 211.927 390.461 209.781C390.349 208.269 387.022 206.115 386.115 205.196C385.592 204.666 387.182 203.215 386.063 201.938C384.533 200.194 384.292 197.159 383.366 195.462C383.366 195.462 384.072 194.383 383.531 193.77C378.867 188.486 361.462 188.971 357.014 196.748C352.021 205.479 351.954 217.545 362.336 224.046C366.953 226.936 361.039 237.173 361.039 237.173H379.349C379.349 235.425 377.307 229.155 380.881 229.437C383.986 229.681 387.789 229.546 387.452 226.037C387.35 224.978 387.23 224.024 387.969 223.146C388.708 222.27 389.778 220.706 386.607 219.705Z" fill="black"/>
<path d="M390.797 218.058L407.802 220.288V215.829L390.797 218.058Z" fill="black"/>
<path d="M404.612 232.737L406.436 228.876L390.797 220.427L404.612 232.737Z" fill="black"/>
<path d="M406.436 207.2L404.612 203.338L390.797 215.65L406.436 207.2Z" fill="black"/>
<path d="M437.853 224.581C442.11 224.581 445.573 221.116 445.573 216.855V205.265C445.573 200.982 442.128 197.498 437.893 197.498C437.757 197.499 437.622 197.515 437.49 197.546C435.508 197.642 433.64 198.497 432.27 199.934C430.9 201.371 430.136 203.28 430.133 205.265V216.855C430.133 221.116 433.595 224.581 437.853 224.581Z" fill="black"/>
<path d="M435.922 232.175V236.171H439.782V232.175C447.384 231.218 453.292 224.722 453.292 216.854H449.432C449.432 223.246 444.238 228.445 437.852 228.445C431.466 228.445 426.272 223.246 426.272 216.854H422.412C422.412 224.72 428.32 231.218 435.922 232.175Z" fill="black"/>
<path d="M321.781 302.678V296.223H325.781V297.062H322.755V299.028H325.494V299.864H322.755V302.678H321.781ZM328.487 302.776C328.033 302.776 327.638 302.672 327.299 302.464C326.961 302.256 326.699 301.965 326.512 301.591C326.326 301.217 326.232 300.78 326.232 300.28C326.232 299.778 326.326 299.338 326.512 298.962C326.699 298.586 326.961 298.294 327.299 298.086C327.638 297.878 328.033 297.774 328.487 297.774C328.94 297.774 329.336 297.878 329.674 298.086C330.012 298.294 330.275 298.586 330.461 298.962C330.648 299.338 330.741 299.778 330.741 300.28C330.741 300.78 330.648 301.217 330.461 301.591C330.275 301.965 330.012 302.256 329.674 302.464C329.336 302.672 328.94 302.776 328.487 302.776ZM328.49 301.985C328.784 301.985 329.028 301.907 329.221 301.752C329.413 301.596 329.556 301.389 329.649 301.131C329.743 300.872 329.79 300.588 329.79 300.276C329.79 299.968 329.743 299.684 329.649 299.425C329.556 299.165 329.413 298.956 329.221 298.798C329.028 298.641 328.784 298.562 328.49 298.562C328.194 298.562 327.948 298.641 327.753 298.798C327.56 298.956 327.416 299.165 327.322 299.425C327.229 299.684 327.183 299.968 327.183 300.276C327.183 300.588 327.229 300.872 327.322 301.131C327.416 301.389 327.56 301.596 327.753 301.752C327.948 301.907 328.194 301.985 328.49 301.985ZM331.695 302.678V297.837H332.605V298.606H332.656C332.744 298.345 332.899 298.141 333.121 297.991C333.346 297.84 333.6 297.764 333.883 297.764C333.943 297.764 334.012 297.767 334.091 297.771C334.173 297.775 334.238 297.78 334.284 297.787V298.688C334.246 298.678 334.179 298.666 334.082 298.653C333.985 298.639 333.889 298.632 333.793 298.632C333.57 298.632 333.371 298.679 333.197 298.773C333.025 298.866 332.889 298.995 332.788 299.161C332.687 299.325 332.636 299.512 332.636 299.722V302.678H331.695ZM339.335 302.776C338.858 302.776 338.448 302.674 338.104 302.47C337.762 302.264 337.497 301.975 337.31 301.604C337.125 301.229 337.033 300.791 337.033 300.289C337.033 299.793 337.125 299.356 337.31 298.978C337.497 298.6 337.757 298.305 338.091 298.092C338.427 297.88 338.82 297.774 339.269 297.774C339.542 297.774 339.806 297.819 340.062 297.909C340.319 298 340.548 298.142 340.752 298.335C340.956 298.528 341.117 298.78 341.234 299.088C341.352 299.395 341.41 299.768 341.41 300.207V300.541H337.565V299.835H340.488C340.488 299.587 340.438 299.368 340.337 299.176C340.236 298.983 340.094 298.831 339.912 298.72C339.731 298.608 339.519 298.553 339.275 298.553C339.011 298.553 338.78 298.618 338.582 298.748C338.387 298.876 338.236 299.044 338.129 299.252C338.024 299.458 337.972 299.682 337.972 299.923V300.475C337.972 300.799 338.028 301.074 338.142 301.301C338.257 301.528 338.418 301.701 338.623 301.821C338.829 301.939 339.07 301.998 339.345 301.998C339.523 301.998 339.686 301.972 339.833 301.922C339.98 301.87 340.107 301.792 340.214 301.689C340.321 301.585 340.403 301.458 340.459 301.307L341.35 301.468C341.28 301.731 341.151 301.96 340.966 302.159C340.784 302.354 340.554 302.506 340.277 302.615C340.002 302.723 339.688 302.776 339.335 302.776ZM342.988 297.837L344.056 299.722L345.133 297.837H346.163L344.654 300.257L346.175 302.678H345.145L344.056 300.869L342.969 302.678H341.936L343.442 300.257L341.955 297.837H342.988ZM348.431 302.785C348.125 302.785 347.847 302.729 347.6 302.615C347.352 302.5 347.156 302.333 347.011 302.114C346.868 301.896 346.797 301.628 346.797 301.31C346.797 301.037 346.849 300.812 346.954 300.636C347.059 300.459 347.201 300.32 347.379 300.217C347.558 300.114 347.757 300.036 347.978 299.983C348.198 299.931 348.423 299.891 348.651 299.864C348.941 299.83 349.176 299.803 349.357 299.781C349.537 299.759 349.669 299.722 349.75 299.672C349.832 299.621 349.873 299.539 349.873 299.425V299.404C349.873 299.128 349.796 298.915 349.64 298.764C349.487 298.612 349.258 298.537 348.954 298.537C348.637 298.537 348.387 298.607 348.204 298.748C348.024 298.887 347.899 299.041 347.83 299.211L346.945 299.009C347.049 298.715 347.203 298.478 347.404 298.297C347.608 298.114 347.842 297.982 348.107 297.9C348.371 297.816 348.649 297.774 348.941 297.774C349.134 297.774 349.339 297.797 349.555 297.843C349.773 297.888 349.977 297.969 350.166 298.089C350.357 298.209 350.513 298.38 350.635 298.603C350.757 298.823 350.818 299.11 350.818 299.464V302.678H349.898V302.017H349.861C349.8 302.139 349.709 302.258 349.587 302.376C349.465 302.494 349.308 302.591 349.117 302.669C348.927 302.747 348.698 302.785 348.431 302.785ZM348.636 302.029C348.896 302.029 349.118 301.978 349.303 301.875C349.49 301.772 349.632 301.637 349.729 301.471C349.827 301.303 349.877 301.123 349.877 300.932V300.308C349.843 300.342 349.778 300.373 349.681 300.403C349.587 300.43 349.479 300.454 349.357 300.475C349.235 300.494 349.117 300.512 349.001 300.529C348.886 300.544 348.789 300.556 348.711 300.566C348.529 300.59 348.362 300.629 348.21 300.683C348.061 300.738 347.942 300.817 347.851 300.92C347.763 301.02 347.719 301.155 347.719 301.323C347.719 301.556 347.805 301.732 347.978 301.852C348.15 301.97 348.369 302.029 348.636 302.029ZM351.974 302.678V297.837H352.878V298.625H352.938C353.039 298.358 353.204 298.15 353.433 298.001C353.662 297.849 353.935 297.774 354.255 297.774C354.578 297.774 354.849 297.849 355.067 298.001C355.288 298.152 355.45 298.36 355.556 298.625H355.606C355.721 298.366 355.905 298.161 356.157 298.007C356.409 297.852 356.709 297.774 357.058 297.774C357.496 297.774 357.854 297.911 358.131 298.187C358.411 298.462 358.55 298.877 358.55 299.432V302.678H357.609V299.52C357.609 299.192 357.519 298.955 357.341 298.808C357.162 298.661 356.949 298.587 356.702 298.587C356.395 298.587 356.157 298.681 355.987 298.871C355.817 299.058 355.732 299.298 355.732 299.592V302.678H354.793V299.46C354.793 299.197 354.711 298.987 354.547 298.827C354.384 298.667 354.17 298.587 353.908 298.587C353.73 298.587 353.565 298.634 353.414 298.729C353.265 298.821 353.144 298.951 353.052 299.117C352.962 299.283 352.916 299.475 352.916 299.693V302.678H351.974ZM359.715 304.494V297.837H360.634V298.622H360.713C360.768 298.521 360.846 298.404 360.949 298.272C361.052 298.139 361.195 298.024 361.377 297.925C361.56 297.824 361.801 297.774 362.102 297.774C362.492 297.774 362.841 297.873 363.147 298.07C363.454 298.268 363.694 298.552 363.868 298.924C364.045 299.296 364.133 299.744 364.133 300.267C364.133 300.791 364.046 301.239 363.872 301.613C363.698 301.985 363.458 302.272 363.154 302.474C362.849 302.673 362.501 302.773 362.111 302.773C361.818 302.773 361.577 302.723 361.39 302.625C361.205 302.526 361.06 302.41 360.956 302.278C360.85 302.146 360.769 302.028 360.713 301.925H360.656V304.494H359.715ZM360.638 300.257C360.638 300.598 360.687 300.897 360.786 301.153C360.884 301.409 361.027 301.61 361.214 301.755C361.401 301.898 361.63 301.969 361.9 301.969C362.182 301.969 362.417 301.894 362.606 301.745C362.795 301.594 362.937 301.389 363.034 301.131C363.133 300.872 363.182 300.581 363.182 300.257C363.182 299.938 363.134 299.652 363.037 299.397C362.943 299.143 362.8 298.942 362.609 298.795C362.42 298.648 362.184 298.574 361.9 298.574C361.627 298.574 361.396 298.645 361.207 298.786C361.021 298.927 360.879 299.123 360.782 299.375C360.686 299.627 360.638 299.921 360.638 300.257ZM366.032 296.223V302.678H365.09V296.223H366.032ZM369.286 302.776C368.809 302.776 368.399 302.674 368.055 302.47C367.713 302.264 367.448 301.975 367.261 301.604C367.076 301.229 366.984 300.791 366.984 300.289C366.984 299.793 367.076 299.356 367.261 298.978C367.448 298.6 367.708 298.305 368.042 298.092C368.378 297.88 368.771 297.774 369.22 297.774C369.493 297.774 369.757 297.819 370.013 297.909C370.269 298 370.499 298.142 370.703 298.335C370.907 298.528 371.068 298.78 371.185 299.088C371.303 299.395 371.361 299.768 371.361 300.207V300.541H367.516V299.835H370.438C370.438 299.587 370.388 299.368 370.288 299.176C370.187 298.983 370.045 298.831 369.862 298.72C369.682 298.608 369.47 298.553 369.226 298.553C368.961 298.553 368.731 298.618 368.533 298.748C368.338 298.876 368.187 299.044 368.08 299.252C367.975 299.458 367.922 299.682 367.922 299.923V300.475C367.922 300.799 367.979 301.074 368.092 301.301C368.208 301.528 368.368 301.701 368.574 301.821C368.78 301.939 369.021 301.998 369.296 301.998C369.474 301.998 369.636 301.972 369.783 301.922C369.931 301.87 370.058 301.792 370.165 301.689C370.272 301.585 370.354 301.458 370.41 301.307L371.301 301.468C371.23 301.731 371.102 301.96 370.917 302.159C370.734 302.354 370.505 302.506 370.228 302.615C369.952 302.723 369.639 302.776 369.286 302.776ZM373.533 301.796L373.486 302.139C373.455 302.392 373.402 302.654 373.326 302.927C373.252 303.203 373.175 303.458 373.096 303.694C373.018 303.929 372.954 304.116 372.904 304.254H372.236C372.264 304.124 372.301 303.948 372.35 303.725C372.398 303.504 372.445 303.257 372.491 302.984C372.537 302.711 372.572 302.433 372.595 302.149L372.627 301.796H373.533ZM376.576 298.24V297.56C376.576 297.366 376.613 297.169 376.689 296.967C376.765 296.765 376.865 296.575 376.988 296.396C377.112 296.218 377.246 296.069 377.392 295.949L377.984 296.299C377.866 296.484 377.77 296.677 377.694 296.879C377.621 297.08 377.583 297.305 377.583 297.553V298.24H376.576ZM378.166 298.24V297.56C378.166 297.366 378.204 297.169 378.28 296.967C378.355 296.765 378.455 296.575 378.579 296.396C378.702 296.218 378.837 296.069 378.982 295.949L379.574 296.299C379.456 296.484 379.36 296.677 379.284 296.879C379.211 297.08 379.174 297.305 379.174 297.553V298.24H378.166ZM381.656 296.223V302.678H380.292V296.223H381.656ZM383.779 296.223V296.904C383.779 297.097 383.741 297.295 383.666 297.497C383.592 297.696 383.493 297.885 383.37 298.064C383.246 298.24 383.11 298.391 382.964 298.514L382.371 298.165C382.476 297.999 382.568 297.815 382.648 297.613C382.73 297.412 382.771 297.177 382.771 296.91V296.223H383.779ZM384.385 302.678V297.837H385.663V298.691H385.72C385.821 298.407 385.989 298.184 386.224 298.02C386.459 297.856 386.74 297.774 387.068 297.774C387.399 297.774 387.681 297.857 387.915 298.023C388.148 298.187 388.303 298.41 388.381 298.691H388.431C388.53 298.414 388.708 298.192 388.967 298.026C389.227 297.858 389.534 297.774 389.889 297.774C390.341 297.774 390.707 297.918 390.988 298.205C391.272 298.492 391.413 298.897 391.413 299.423V302.678H390.075V299.687C390.075 299.418 390.004 299.216 389.861 299.082C389.718 298.948 389.54 298.88 389.325 298.88C389.082 298.88 388.892 298.958 388.756 299.114C388.619 299.267 388.551 299.47 388.551 299.722V302.678H387.25V299.659C387.25 299.421 387.182 299.232 387.046 299.091C386.911 298.95 386.734 298.88 386.514 298.88C386.365 298.88 386.23 298.918 386.11 298.994C385.993 299.068 385.899 299.171 385.83 299.306C385.761 299.438 385.726 299.593 385.726 299.772V302.678H384.385ZM394.33 297.837H395.672V302.918C395.672 303.292 395.598 303.595 395.452 303.826C395.305 304.057 395.094 304.226 394.819 304.333C394.546 304.44 394.219 304.494 393.839 304.494C393.793 304.494 393.749 304.493 393.707 304.491C393.663 304.491 393.617 304.49 393.568 304.487V303.438C393.604 303.44 393.636 303.441 393.663 303.441C393.688 303.443 393.716 303.444 393.745 303.444C393.961 303.444 394.113 303.398 394.198 303.306C394.287 303.215 394.33 303.079 394.33 302.896V297.837ZM394.998 297.213C394.801 297.213 394.631 297.146 394.488 297.014C394.345 296.88 394.274 296.719 394.274 296.532C394.274 296.347 394.345 296.188 394.488 296.056C394.631 295.922 394.801 295.854 394.998 295.854C395.2 295.854 395.371 295.922 395.511 296.056C395.654 296.188 395.726 296.347 395.726 296.532C395.726 296.719 395.654 296.88 395.511 297.014C395.371 297.146 395.2 297.213 394.998 297.213ZM399.751 300.617V297.837H401.093V302.678H399.805V301.799H399.754C399.645 302.083 399.464 302.311 399.209 302.483C398.958 302.655 398.65 302.742 398.287 302.742C397.963 302.742 397.679 302.668 397.434 302.521C397.188 302.374 396.996 302.165 396.857 301.893C396.721 301.623 396.652 301.298 396.649 300.92V297.837H397.991V300.68C397.993 300.966 398.069 301.192 398.221 301.358C398.372 301.524 398.574 301.607 398.829 301.607C398.99 301.607 399.141 301.57 399.282 301.496C399.423 301.421 399.536 301.309 399.622 301.162C399.71 301.015 399.753 300.833 399.751 300.617ZM406.093 299.217L404.865 299.293C404.844 299.188 404.799 299.094 404.729 299.009C404.66 298.923 404.569 298.855 404.456 298.805C404.344 298.752 404.211 298.726 404.055 298.726C403.847 298.726 403.672 298.77 403.529 298.858C403.387 298.944 403.315 299.06 403.315 299.205C403.315 299.321 403.361 299.418 403.454 299.498C403.547 299.578 403.705 299.642 403.93 299.691L404.805 299.867C405.275 299.963 405.626 300.119 405.857 300.333C406.088 300.548 406.203 300.829 406.203 301.178C406.203 301.495 406.11 301.774 405.923 302.013C405.738 302.253 405.484 302.44 405.161 302.575C404.84 302.707 404.469 302.773 404.049 302.773C403.409 302.773 402.899 302.639 402.518 302.373C402.141 302.104 401.919 301.738 401.854 301.276L403.174 301.207C403.213 301.402 403.31 301.551 403.463 301.654C403.617 301.755 403.813 301.805 404.053 301.805C404.288 301.805 404.477 301.76 404.619 301.67C404.764 301.577 404.837 301.458 404.84 301.314C404.837 301.192 404.786 301.092 404.686 301.014C404.585 300.934 404.429 300.873 404.219 300.831L403.381 300.664C402.909 300.57 402.558 300.406 402.327 300.173C402.098 299.939 401.984 299.642 401.984 299.281C401.984 298.969 402.067 298.701 402.235 298.477C402.405 298.252 402.644 298.078 402.95 297.957C403.259 297.835 403.62 297.774 404.033 297.774C404.644 297.774 405.125 297.903 405.476 298.162C405.828 298.42 406.034 298.772 406.093 299.217ZM409.523 297.837V298.846H406.61V297.837H409.523ZM407.272 296.677H408.613V301.191C408.613 301.315 408.632 301.411 408.67 301.481C408.708 301.548 408.76 301.595 408.827 301.623C408.897 301.65 408.977 301.663 409.067 301.663C409.13 301.663 409.193 301.658 409.255 301.648C409.319 301.635 409.367 301.625 409.401 301.619L409.611 302.618C409.544 302.64 409.45 302.663 409.328 302.691C409.206 302.72 409.058 302.738 408.884 302.744C408.561 302.757 408.277 302.714 408.034 302.615C407.792 302.516 407.604 302.363 407.47 302.155C407.335 301.947 407.269 301.684 407.272 301.367V296.677ZM414.827 297.837V298.846H411.915V297.837H414.827ZM412.576 296.677H413.917V301.191C413.917 301.315 413.936 301.411 413.974 301.481C414.012 301.548 414.064 301.595 414.132 301.623C414.201 301.65 414.281 301.663 414.371 301.663C414.434 301.663 414.497 301.658 414.56 301.648C414.623 301.635 414.671 301.625 414.705 301.619L414.915 302.618C414.848 302.64 414.754 302.663 414.632 302.691C414.51 302.72 414.362 302.738 414.188 302.744C413.865 302.757 413.581 302.714 413.338 302.615C413.096 302.516 412.908 302.363 412.774 302.155C412.64 301.947 412.574 301.684 412.576 301.367V296.677ZM417.757 302.773C417.259 302.773 416.83 302.672 416.471 302.47C416.114 302.267 415.839 301.979 415.647 301.607C415.453 301.233 415.357 300.791 415.357 300.28C415.357 299.782 415.453 299.345 415.647 298.969C415.839 298.592 416.112 298.299 416.462 298.089C416.815 297.879 417.228 297.774 417.703 297.774C418.022 297.774 418.319 297.825 418.594 297.928C418.871 298.029 419.112 298.182 419.318 298.385C419.526 298.589 419.688 298.846 419.803 299.155C419.919 299.461 419.976 299.82 419.976 300.232V300.601H415.892V299.769H418.714C418.714 299.576 418.672 299.404 418.588 299.256C418.504 299.106 418.387 298.989 418.238 298.906C418.091 298.82 417.92 298.776 417.725 298.776C417.521 298.776 417.341 298.823 417.183 298.918C417.028 299.01 416.906 299.136 416.818 299.293C416.73 299.449 416.685 299.622 416.682 299.813V300.604C416.682 300.844 416.727 301.051 416.815 301.225C416.905 301.4 417.032 301.534 417.196 301.629C417.36 301.723 417.554 301.771 417.778 301.771C417.927 301.771 418.064 301.75 418.188 301.708C418.311 301.665 418.418 301.603 418.506 301.518C418.594 301.435 418.661 301.331 418.707 301.209L419.948 301.291C419.885 301.59 419.756 301.851 419.561 302.073C419.368 302.294 419.118 302.466 418.811 302.59C418.507 302.712 418.155 302.773 417.757 302.773ZM424.779 299.217L423.551 299.293C423.53 299.188 423.485 299.094 423.416 299.009C423.346 298.923 423.255 298.855 423.142 298.805C423.03 298.752 422.897 298.726 422.742 298.726C422.534 298.726 422.359 298.77 422.216 298.858C422.073 298.944 422.002 299.06 422.002 299.205C422.002 299.321 422.048 299.418 422.14 299.498C422.232 299.578 422.391 299.642 422.616 299.691L423.491 299.867C423.962 299.963 424.312 300.119 424.543 300.333C424.774 300.548 424.889 300.829 424.889 301.178C424.889 301.495 424.796 301.774 424.609 302.013C424.424 302.253 424.17 302.44 423.847 302.575C423.526 302.707 423.155 302.773 422.736 302.773C422.095 302.773 421.585 302.639 421.205 302.373C420.827 302.104 420.605 301.738 420.54 301.276L421.86 301.207C421.9 301.402 421.996 301.551 422.15 301.654C422.303 301.755 422.499 301.805 422.738 301.805C422.974 301.805 423.162 301.76 423.305 301.67C423.45 301.577 423.524 301.458 423.526 301.314C423.524 301.192 423.472 301.092 423.371 301.014C423.271 300.934 423.115 300.873 422.905 300.831L422.068 300.664C421.595 300.57 421.243 300.406 421.013 300.173C420.784 299.939 420.669 299.642 420.669 299.281C420.669 298.969 420.753 298.701 420.921 298.477C421.092 298.252 421.33 298.078 421.636 297.957C421.945 297.835 422.306 297.774 422.719 297.774C423.33 297.774 423.811 297.903 424.162 298.162C424.515 298.42 424.72 298.772 424.779 299.217ZM428.209 297.837V298.846H425.296V297.837H428.209ZM425.958 296.677H427.299V301.191C427.299 301.315 427.318 301.411 427.356 301.481C427.394 301.548 427.446 301.595 427.513 301.623C427.582 301.65 427.662 301.663 427.753 301.663C427.816 301.663 427.879 301.658 427.942 301.648C428.005 301.635 428.053 301.625 428.087 301.619L428.297 302.618C428.23 302.64 428.136 302.663 428.014 302.691C427.892 302.72 427.744 302.738 427.57 302.744C427.247 302.757 426.963 302.714 426.72 302.615C426.478 302.516 426.291 302.363 426.156 302.155C426.022 301.947 425.956 301.684 425.958 301.367V296.677ZM428.986 302.678V297.837H430.327V302.678H428.986ZM429.66 297.213C429.46 297.213 429.289 297.146 429.147 297.014C429.006 296.88 428.935 296.719 428.935 296.532C428.935 296.347 429.006 296.188 429.147 296.056C429.289 295.922 429.46 295.854 429.66 295.854C429.859 295.854 430.029 295.922 430.17 296.056C430.313 296.188 430.384 296.347 430.384 296.532C430.384 296.719 430.313 296.88 430.17 297.014C430.029 297.146 429.859 297.213 429.66 297.213ZM432.646 299.88V302.678H431.304V297.837H432.583V298.691H432.64C432.747 298.41 432.926 298.187 433.178 298.023C433.43 297.857 433.736 297.774 434.094 297.774C434.43 297.774 434.724 297.848 434.974 297.995C435.223 298.142 435.417 298.352 435.556 298.625C435.695 298.896 435.764 299.22 435.764 299.596V302.678H434.422V299.835C434.424 299.539 434.349 299.308 434.195 299.142C434.042 298.974 433.831 298.889 433.562 298.889C433.382 298.889 433.222 298.929 433.084 299.007C432.947 299.084 432.84 299.197 432.763 299.347C432.687 299.494 432.648 299.672 432.646 299.88ZM438.903 304.595C438.468 304.595 438.096 304.535 437.785 304.415C437.476 304.298 437.23 304.137 437.048 303.933C436.865 303.729 436.747 303.5 436.692 303.246L437.933 303.079C437.97 303.175 438.03 303.266 438.112 303.35C438.194 303.434 438.302 303.501 438.437 303.551C438.573 303.604 438.739 303.63 438.934 303.63C439.226 303.63 439.466 303.559 439.655 303.416C439.847 303.275 439.942 303.039 439.942 302.707V301.821H439.885C439.827 301.956 439.738 302.083 439.621 302.202C439.503 302.322 439.352 302.42 439.167 302.495C438.982 302.571 438.762 302.609 438.506 302.609C438.143 302.609 437.812 302.525 437.514 302.357C437.218 302.187 436.982 301.927 436.805 301.578C436.631 301.227 436.544 300.784 436.544 300.248C436.544 299.7 436.633 299.242 436.811 298.874C436.99 298.506 437.227 298.231 437.524 298.048C437.821 297.865 438.148 297.774 438.503 297.774C438.774 297.774 439 297.82 439.183 297.913C439.365 298.003 439.513 298.117 439.624 298.253C439.737 298.387 439.824 298.52 439.885 298.65H439.936V297.837H441.268V302.725C441.268 303.138 441.167 303.482 440.966 303.759C440.764 304.037 440.485 304.245 440.128 304.384C439.773 304.524 439.365 304.595 438.903 304.595ZM438.931 301.6C439.147 301.6 439.33 301.547 439.479 301.44C439.63 301.33 439.746 301.175 439.825 300.973C439.908 300.769 439.949 300.525 439.949 300.242C439.949 299.958 439.909 299.712 439.829 299.504C439.749 299.294 439.633 299.131 439.482 299.016C439.331 298.9 439.147 298.842 438.931 298.842C438.711 298.842 438.525 298.902 438.374 299.022C438.223 299.14 438.108 299.304 438.03 299.514C437.953 299.724 437.914 299.967 437.914 300.242C437.914 300.521 437.953 300.763 438.03 300.967C438.11 301.168 438.225 301.325 438.374 301.436C438.525 301.546 438.711 301.6 438.931 301.6ZM444.193 302.678V297.837H445.471V298.691H445.528C445.629 298.407 445.797 298.184 446.032 298.02C446.267 297.856 446.548 297.774 446.876 297.774C447.208 297.774 447.49 297.857 447.723 298.023C447.956 298.187 448.112 298.41 448.189 298.691H448.24C448.338 298.414 448.517 298.192 448.775 298.026C449.035 297.858 449.343 297.774 449.697 297.774C450.149 297.774 450.515 297.918 450.796 298.205C451.08 298.492 451.222 298.897 451.222 299.423V302.678H449.884V299.687C449.884 299.418 449.812 299.216 449.669 299.082C449.527 298.948 449.348 298.88 449.134 298.88C448.89 298.88 448.7 298.958 448.564 299.114C448.428 299.267 448.359 299.47 448.359 299.722V302.678H447.059V299.659C447.059 299.421 446.99 299.232 446.854 299.091C446.719 298.95 446.542 298.88 446.321 298.88C446.172 298.88 446.038 298.918 445.918 298.994C445.801 299.068 445.707 299.171 445.638 299.306C445.569 299.438 445.534 299.593 445.534 299.772V302.678H444.193ZM452.839 304.494C452.669 304.494 452.509 304.48 452.36 304.453C452.213 304.427 452.092 304.395 451.995 304.355L452.297 303.353C452.455 303.401 452.597 303.427 452.723 303.432C452.851 303.436 452.961 303.407 453.053 303.343C453.148 303.28 453.224 303.173 453.283 303.022L453.362 302.817L451.627 297.837H453.037L454.039 301.392H454.089L455.1 297.837H456.52L454.64 303.201C454.55 303.462 454.427 303.689 454.272 303.882C454.119 304.078 453.924 304.228 453.689 304.333C453.454 304.44 453.171 304.494 452.839 304.494ZM460.443 302.77C460.135 302.77 459.86 302.716 459.619 302.609C459.377 302.5 459.186 302.339 459.046 302.127C458.907 301.912 458.838 301.645 458.838 301.326C458.838 301.057 458.887 300.831 458.986 300.649C459.084 300.465 459.218 300.318 459.389 300.207C459.559 300.096 459.752 300.012 459.968 299.955C460.186 299.899 460.415 299.859 460.655 299.835C460.936 299.806 461.163 299.779 461.335 299.753C461.507 299.726 461.632 299.686 461.71 299.633C461.787 299.581 461.826 299.504 461.826 299.4V299.382C461.826 299.182 461.763 299.028 461.637 298.918C461.513 298.809 461.337 298.754 461.108 298.754C460.867 298.754 460.674 298.808 460.532 298.915C460.389 299.02 460.295 299.152 460.248 299.312L459.008 299.211C459.07 298.917 459.195 298.663 459.379 298.448C459.564 298.232 459.802 298.066 460.094 297.95C460.388 297.833 460.728 297.774 461.115 297.774C461.383 297.774 461.641 297.806 461.886 297.869C462.134 297.931 462.353 298.029 462.544 298.162C462.737 298.294 462.889 298.464 463.001 298.672C463.112 298.878 463.168 299.125 463.168 299.413V302.678H461.895V302.007H461.858C461.78 302.159 461.676 302.292 461.546 302.407C461.416 302.521 461.259 302.61 461.077 302.675C460.894 302.738 460.683 302.77 460.443 302.77ZM460.828 301.843C461.025 301.843 461.199 301.804 461.351 301.726C461.502 301.647 461.621 301.539 461.707 301.405C461.792 301.27 461.836 301.118 461.836 300.948V300.434C461.794 300.462 461.736 300.487 461.662 300.51C461.591 300.531 461.51 300.551 461.42 300.57C461.33 300.586 461.239 300.602 461.149 300.617C461.059 300.63 460.977 300.641 460.903 300.652C460.746 300.675 460.609 300.712 460.491 300.762C460.373 300.812 460.282 300.88 460.217 300.967C460.152 301.051 460.119 301.156 460.119 301.282C460.119 301.465 460.186 301.604 460.318 301.701C460.452 301.796 460.622 301.843 460.828 301.843ZM467.213 300.617V297.837H468.554V302.678H467.266V301.799H467.216C467.107 302.083 466.925 302.311 466.671 302.483C466.419 302.655 466.112 302.742 465.749 302.742C465.425 302.742 465.141 302.668 464.895 302.521C464.65 302.374 464.457 302.165 464.319 301.893C464.182 301.623 464.113 301.298 464.111 300.92V297.837H465.453V300.68C465.454 300.966 465.531 301.192 465.682 301.358C465.834 301.524 466.036 301.607 466.29 301.607C466.452 301.607 466.603 301.57 466.744 301.496C466.884 301.421 466.997 301.309 467.084 301.162C467.172 301.015 467.215 300.833 467.213 300.617ZM471.312 302.757C470.945 302.757 470.612 302.663 470.314 302.474C470.018 302.282 469.783 302.002 469.609 301.632C469.437 301.26 469.35 300.804 469.35 300.264C469.35 299.709 469.44 299.248 469.618 298.88C469.796 298.511 470.034 298.234 470.33 298.051C470.628 297.867 470.954 297.774 471.309 297.774C471.58 297.774 471.806 297.82 471.986 297.913C472.169 298.003 472.316 298.117 472.428 298.253C472.541 298.387 472.627 298.52 472.685 298.65H472.726V296.223H474.065V302.678H472.742V301.903H472.685C472.623 302.038 472.533 302.171 472.418 302.303C472.304 302.434 472.156 302.542 471.974 302.628C471.793 302.714 471.573 302.757 471.312 302.757ZM471.737 301.689C471.954 301.689 472.137 301.63 472.286 301.512C472.437 301.392 472.552 301.225 472.632 301.011C472.714 300.797 472.755 300.545 472.755 300.257C472.755 299.97 472.715 299.72 472.635 299.507C472.556 299.296 472.44 299.131 472.289 299.016C472.138 298.9 471.954 298.842 471.737 298.842C471.517 298.842 471.331 298.902 471.18 299.022C471.029 299.142 470.914 299.308 470.837 299.52C470.759 299.732 470.72 299.978 470.72 300.257C470.72 300.539 470.759 300.788 470.837 301.005C470.917 301.219 471.031 301.387 471.18 301.509C471.331 301.629 471.517 301.689 471.737 301.689ZM475.07 302.678V297.837H476.412V302.678H475.07ZM475.744 297.213C475.545 297.213 475.373 297.146 475.231 297.014C475.09 296.88 475.02 296.719 475.02 296.532C475.02 296.347 475.09 296.188 475.231 296.056C475.373 295.922 475.545 295.854 475.744 295.854C475.944 295.854 476.114 295.922 476.254 296.056C476.397 296.188 476.469 296.347 476.469 296.532C476.469 296.719 476.397 296.88 476.254 297.014C476.114 297.146 475.944 297.213 475.744 297.213ZM479.575 302.773C479.085 302.773 478.662 302.669 478.305 302.461C477.951 302.251 477.676 301.959 477.483 301.584C477.29 301.208 477.194 300.772 477.194 300.276C477.194 299.776 477.29 299.339 477.483 298.965C477.676 298.589 477.951 298.297 478.305 298.089C478.662 297.879 479.085 297.774 479.575 297.774C480.064 297.774 480.486 297.879 480.841 298.089C481.198 298.297 481.472 298.589 481.665 298.965C481.859 299.339 481.955 299.776 481.955 300.276C481.955 300.772 481.859 301.208 481.665 301.584C481.472 301.959 481.198 302.251 480.841 302.461C480.486 302.669 480.064 302.773 479.575 302.773ZM479.581 301.732C479.804 301.732 479.989 301.67 480.138 301.544C480.287 301.415 480.399 301.241 480.475 301.02C480.553 300.8 480.592 300.549 480.592 300.267C480.592 299.986 480.553 299.734 480.475 299.514C480.399 299.293 480.287 299.119 480.138 298.99C479.989 298.862 479.804 298.798 479.581 298.798C479.356 298.798 479.167 298.862 479.014 298.99C478.863 299.119 478.748 299.293 478.671 299.514C478.595 299.734 478.557 299.986 478.557 300.267C478.557 300.549 478.595 300.8 478.671 301.02C478.748 301.241 478.863 301.415 479.014 301.544C479.167 301.67 479.356 301.732 479.581 301.732ZM483.854 296.223V296.904C483.854 297.097 483.816 297.295 483.741 297.497C483.667 297.696 483.569 297.885 483.445 298.064C483.321 298.24 483.186 298.391 483.039 298.514L482.447 298.165C482.552 297.999 482.644 297.815 482.724 297.613C482.805 297.412 482.846 297.177 482.846 296.91V296.223H483.854ZM485.438 296.223V296.904C485.438 297.097 485.4 297.295 485.325 297.497C485.251 297.696 485.153 297.885 485.029 298.064C484.905 298.24 484.769 298.391 484.62 298.514L484.028 298.165C484.135 297.999 484.228 297.815 484.308 297.613C484.39 297.412 484.431 297.177 484.431 296.91V296.223H485.438Z" fill="#333333"/>
<path d="M330.831 370.312V376.768H329.468V371.608H329.43L327.953 372.535V371.324L329.55 370.312H330.831ZM334.795 376.909C334.254 376.908 333.788 376.774 333.398 376.509C333.009 376.244 332.71 375.861 332.5 375.359C332.292 374.857 332.189 374.253 332.192 373.546C332.192 372.842 332.295 372.242 332.503 371.747C332.713 371.251 333.012 370.874 333.4 370.615C333.791 370.354 334.256 370.224 334.795 370.224C335.335 370.224 335.799 370.354 336.188 370.615C336.578 370.875 336.878 371.254 337.088 371.75C337.298 372.243 337.402 372.842 337.4 373.546C337.4 374.254 337.295 374.859 337.085 375.362C336.877 375.864 336.579 376.247 336.191 376.512C335.803 376.777 335.337 376.909 334.795 376.909ZM334.795 375.778C335.165 375.778 335.46 375.592 335.681 375.22C335.901 374.848 336.01 374.29 336.008 373.546C336.008 373.057 335.958 372.649 335.857 372.323C335.758 371.998 335.617 371.753 335.435 371.589C335.254 371.425 335.042 371.343 334.795 371.343C334.429 371.343 334.134 371.527 333.914 371.895C333.694 372.262 333.582 372.813 333.58 373.546C333.58 374.042 333.629 374.456 333.728 374.788C333.829 375.118 333.971 375.366 334.153 375.532C334.336 375.696 334.55 375.778 334.795 375.778ZM343.965 373.108L343.112 373.26C343.076 373.15 343.019 373.046 342.941 372.947C342.865 372.848 342.763 372.767 342.633 372.705C342.502 372.642 342.34 372.61 342.144 372.61C341.878 372.61 341.655 372.67 341.477 372.79C341.299 372.907 341.209 373.06 341.209 373.247C341.209 373.409 341.269 373.539 341.389 373.638C341.509 373.737 341.701 373.817 341.968 373.88L342.736 374.057C343.182 374.16 343.513 374.319 343.732 374.533C343.95 374.747 344.059 375.025 344.059 375.368C344.059 375.658 343.975 375.917 343.807 376.144C343.641 376.368 343.409 376.545 343.112 376.673C342.816 376.801 342.472 376.865 342.082 376.865C341.54 376.865 341.098 376.749 340.756 376.519C340.413 376.285 340.203 375.954 340.126 375.526L341.036 375.387C341.093 375.624 341.209 375.804 341.386 375.926C341.562 376.046 341.792 376.105 342.075 376.105C342.384 376.105 342.63 376.042 342.816 375.913C343 375.783 343.093 375.624 343.093 375.437C343.093 375.286 343.036 375.159 342.923 375.056C342.811 374.953 342.64 374.876 342.409 374.823L341.59 374.643C341.139 374.54 340.805 374.376 340.589 374.152C340.375 373.926 340.268 373.642 340.268 373.297C340.268 373.012 340.347 372.761 340.507 372.547C340.667 372.333 340.887 372.166 341.168 372.046C341.45 371.924 341.772 371.863 342.135 371.863C342.658 371.863 343.069 371.976 343.37 372.203C343.67 372.429 343.868 372.73 343.965 373.108ZM347.082 376.865C346.605 376.865 346.195 376.763 345.851 376.56C345.508 376.353 345.244 376.065 345.057 375.693C344.872 375.319 344.78 374.88 344.78 374.378C344.78 373.883 344.872 373.445 345.057 373.067C345.244 372.689 345.504 372.394 345.838 372.182C346.174 371.969 346.566 371.863 347.016 371.863C347.288 371.863 347.553 371.908 347.809 371.999C348.065 372.089 348.295 372.231 348.499 372.424C348.702 372.618 348.863 372.868 348.981 373.177C349.098 373.484 349.157 373.857 349.157 374.296V374.63H345.312V373.925H348.235C348.235 373.677 348.184 373.457 348.083 373.266C347.982 373.073 347.84 372.92 347.658 372.809C347.477 372.698 347.266 372.642 347.022 372.642C346.757 372.642 346.526 372.707 346.329 372.837C346.134 372.965 345.983 373.134 345.876 373.342C345.771 373.547 345.718 373.771 345.718 374.013V374.564C345.718 374.888 345.775 375.163 345.888 375.39C346.004 375.617 346.164 375.79 346.37 375.91C346.576 376.028 346.816 376.086 347.091 376.086C347.27 376.086 347.433 376.062 347.579 376.011C347.726 375.958 347.853 375.881 347.96 375.778C348.068 375.675 348.149 375.548 348.206 375.396L349.097 375.557C349.026 375.82 348.898 376.05 348.713 376.247C348.53 376.443 348.301 376.595 348.023 376.704C347.748 376.812 347.434 376.865 347.082 376.865ZM352.142 376.865C351.674 376.865 351.271 376.759 350.933 376.547C350.597 376.333 350.338 376.037 350.158 375.661C349.977 375.285 349.887 374.854 349.887 374.369C349.887 373.877 349.979 373.443 350.164 373.067C350.349 372.689 350.609 372.394 350.945 372.182C351.281 371.969 351.676 371.863 352.132 371.863C352.5 371.863 352.827 371.932 353.115 372.068C353.402 372.202 353.635 372.391 353.811 372.635C353.989 372.879 354.095 373.164 354.129 373.49H353.212C353.162 373.262 353.047 373.067 352.866 372.903C352.687 372.739 352.449 372.658 352.148 372.658C351.885 372.658 351.656 372.727 351.459 372.866C351.263 373.002 351.111 373.197 351.002 373.451C350.893 373.704 350.838 374.002 350.838 374.347C350.838 374.7 350.892 375.005 350.999 375.261C351.106 375.517 351.257 375.716 351.452 375.857C351.649 375.997 351.882 376.068 352.148 376.068C352.327 376.068 352.488 376.035 352.633 375.97C352.78 375.903 352.903 375.807 353.002 375.683C353.102 375.559 353.172 375.41 353.212 375.236H354.129C354.095 375.549 353.993 375.828 353.824 376.074C353.654 376.32 353.426 376.513 353.14 376.654C352.857 376.795 352.524 376.865 352.142 376.865ZM357.076 376.865C356.622 376.865 356.226 376.761 355.889 376.553C355.551 376.345 355.288 376.054 355.101 375.68C354.914 375.306 354.821 374.869 354.821 374.369C354.821 373.866 354.914 373.428 355.101 373.052C355.288 372.675 355.551 372.383 355.889 372.175C356.226 371.967 356.622 371.863 357.076 371.863C357.529 371.863 357.925 371.967 358.263 372.175C358.601 372.383 358.864 372.675 359.05 373.052C359.237 373.428 359.331 373.866 359.331 374.369C359.331 374.869 359.237 375.306 359.05 375.68C358.864 376.054 358.601 376.345 358.263 376.553C357.925 376.761 357.529 376.865 357.076 376.865ZM357.079 376.074C357.373 376.074 357.616 375.996 357.809 375.841C358.003 375.685 358.146 375.479 358.238 375.22C358.333 374.961 358.38 374.677 358.38 374.366C358.38 374.057 358.333 373.773 358.238 373.515C358.146 373.254 358.003 373.045 357.809 372.887C357.616 372.73 357.373 372.651 357.079 372.651C356.783 372.651 356.537 372.73 356.342 372.887C356.149 373.045 356.005 373.254 355.91 373.515C355.818 373.773 355.772 374.057 355.772 374.366C355.772 374.677 355.818 374.961 355.91 375.22C356.005 375.479 356.149 375.685 356.342 375.841C356.537 375.996 356.783 376.074 357.079 376.074ZM361.226 373.893V376.768H360.284V371.926H361.188V372.714H361.248C361.359 372.458 361.533 372.252 361.771 372.096C362.01 371.941 362.311 371.863 362.675 371.863C363.004 371.863 363.293 371.933 363.54 372.071C363.788 372.208 363.98 372.411 364.117 372.683C364.253 372.954 364.321 373.289 364.321 373.688V376.768H363.38V373.802C363.38 373.45 363.289 373.176 363.106 372.979C362.923 372.779 362.672 372.679 362.353 372.679C362.135 372.679 361.941 372.727 361.771 372.821C361.603 372.916 361.469 373.054 361.37 373.237C361.274 373.418 361.226 373.637 361.226 373.893ZM367.298 376.862C366.907 376.862 366.558 376.762 366.252 376.562C365.948 376.361 365.708 376.074 365.534 375.702C365.362 375.328 365.276 374.879 365.276 374.356C365.276 373.833 365.363 373.385 365.537 373.014C365.714 372.642 365.955 372.357 366.261 372.16C366.568 371.962 366.915 371.863 367.304 371.863C367.604 371.863 367.845 371.914 368.028 372.014C368.213 372.113 368.356 372.229 368.457 372.361C368.559 372.493 368.639 372.61 368.696 372.711H368.753V370.312H369.694V376.768H368.774V376.014H368.696C368.639 376.117 368.557 376.235 368.45 376.367C368.345 376.5 368.2 376.615 368.015 376.714C367.831 376.813 367.591 376.862 367.298 376.862ZM367.506 376.058C367.776 376.058 368.005 375.987 368.192 375.844C368.381 375.699 368.524 375.498 368.62 375.242C368.719 374.986 368.768 374.687 368.768 374.347C368.768 374.011 368.72 373.717 368.623 373.464C368.526 373.212 368.385 373.015 368.198 372.875C368.012 372.734 367.78 372.664 367.506 372.664C367.222 372.664 366.986 372.737 366.797 372.885C366.608 373.032 366.465 373.232 366.369 373.486C366.274 373.741 366.227 374.027 366.227 374.347C366.227 374.67 366.275 374.961 366.372 375.22C366.468 375.479 366.611 375.683 366.8 375.835C366.991 375.984 367.226 376.058 367.506 376.058ZM374.565 373.108L373.712 373.26C373.676 373.15 373.62 373.046 373.541 372.947C373.466 372.848 373.363 372.767 373.233 372.705C373.103 372.642 372.94 372.61 372.745 372.61C372.478 372.61 372.256 372.67 372.077 372.79C371.899 372.907 371.809 373.06 371.809 373.247C371.809 373.409 371.869 373.539 371.989 373.638C372.109 373.737 372.302 373.817 372.569 373.88L373.337 374.057C373.782 374.16 374.114 374.319 374.332 374.533C374.55 374.747 374.659 375.025 374.659 375.368C374.659 375.658 374.576 375.917 374.408 376.144C374.242 376.368 374.01 376.545 373.712 376.673C373.416 376.801 373.072 376.865 372.682 376.865C372.14 376.865 371.699 376.749 371.356 376.519C371.014 376.285 370.804 375.954 370.726 375.526L371.636 375.387C371.693 375.624 371.809 375.804 371.986 375.926C372.162 376.046 372.392 376.105 372.676 376.105C372.984 376.105 373.231 376.042 373.416 375.913C373.6 375.783 373.693 375.624 373.693 375.437C373.693 375.286 373.636 375.159 373.523 375.056C373.412 374.953 373.24 374.876 373.009 374.823L372.191 374.643C371.74 374.54 371.405 374.376 371.189 374.152C370.975 373.926 370.868 373.642 370.868 373.297C370.868 373.012 370.947 372.761 371.107 372.547C371.267 372.333 371.487 372.166 371.769 372.046C372.05 371.924 372.372 371.863 372.736 371.863C373.258 371.863 373.669 371.976 373.97 372.203C374.27 372.429 374.469 372.73 374.565 373.108ZM380.105 371.926V372.683H377.463V371.926H380.105ZM378.171 370.766H379.113V375.346C379.113 375.529 379.14 375.667 379.195 375.759C379.249 375.849 379.32 375.911 379.405 375.945C379.494 375.977 379.589 375.992 379.692 375.992C379.768 375.992 379.834 375.987 379.89 375.977C379.948 375.966 379.991 375.957 380.023 375.951L380.193 376.729C380.138 376.75 380.061 376.772 379.96 376.793C379.859 376.816 379.733 376.828 379.582 376.83C379.334 376.835 379.103 376.79 378.889 376.698C378.675 376.606 378.502 376.463 378.37 376.27C378.237 376.076 378.171 375.834 378.171 375.541V370.766ZM381.049 376.768V371.926H381.991V376.768H381.049ZM381.524 371.179C381.36 371.179 381.22 371.124 381.102 371.015C380.987 370.904 380.929 370.772 380.929 370.618C380.929 370.463 380.987 370.33 381.102 370.221C381.22 370.11 381.36 370.054 381.524 370.054C381.688 370.054 381.828 370.11 381.943 370.221C382.061 370.33 382.12 370.463 382.12 370.618C382.12 370.772 382.061 370.904 381.943 371.015C381.828 371.124 381.688 371.179 381.524 371.179ZM384.101 370.312V376.768H383.159V370.312H384.101ZM386.212 370.312V376.768H385.271V370.312H386.212ZM390.679 376.768L389.256 371.926H390.229L391.177 375.481H391.224L392.175 371.926H393.148L394.093 375.466H394.14L395.082 371.926H396.055L394.635 376.768H393.674L392.692 373.272H392.619L391.637 376.768H390.679ZM398.788 376.865C398.312 376.865 397.902 376.763 397.557 376.56C397.215 376.353 396.951 376.065 396.764 375.693C396.579 375.319 396.487 374.88 396.487 374.378C396.487 373.883 396.579 373.445 396.764 373.067C396.951 372.689 397.211 372.394 397.545 372.182C397.881 371.969 398.273 371.863 398.722 371.863C398.995 371.863 399.26 371.908 399.516 371.999C399.772 372.089 400.002 372.231 400.206 372.424C400.409 372.618 400.57 372.868 400.687 373.177C400.805 373.484 400.864 373.857 400.864 374.296V374.63H397.019V373.925H399.941C399.941 373.677 399.891 373.457 399.79 373.266C399.689 373.073 399.548 372.92 399.365 372.809C399.184 372.698 398.972 372.642 398.729 372.642C398.464 372.642 398.233 372.707 398.036 372.837C397.841 372.965 397.689 373.134 397.582 373.342C397.478 373.547 397.425 373.771 397.425 374.013V374.564C397.425 374.888 397.481 375.163 397.595 375.39C397.71 375.617 397.871 375.79 398.077 375.91C398.282 376.028 398.523 376.086 398.798 376.086C398.976 376.086 399.139 376.062 399.286 376.011C399.433 375.958 399.56 375.881 399.667 375.778C399.774 375.675 399.856 375.548 399.913 375.396L400.804 375.557C400.733 375.82 400.605 376.05 400.42 376.247C400.237 376.443 400.007 376.595 399.73 376.704C399.455 376.812 399.142 376.865 398.788 376.865ZM404.061 376.768V371.926H404.965V372.714H405.024C405.125 372.447 405.29 372.239 405.519 372.09C405.747 371.939 406.022 371.863 406.341 371.863C406.664 371.863 406.934 371.939 407.153 372.09C407.373 372.242 407.536 372.45 407.641 372.714H407.691C407.807 372.456 407.991 372.25 408.242 372.096C408.495 371.941 408.795 371.863 409.143 371.863C409.582 371.863 409.94 372.001 410.217 372.276C410.497 372.551 410.636 372.966 410.636 373.521V376.768H409.695V373.609C409.695 373.282 409.605 373.044 409.427 372.897C409.248 372.75 409.035 372.677 408.787 372.677C408.481 372.677 408.242 372.771 408.073 372.96C407.903 373.147 407.817 373.388 407.817 373.682V376.768H406.879V373.55C406.879 373.287 406.797 373.075 406.633 372.916C406.469 372.756 406.257 372.677 405.994 372.677C405.816 372.677 405.651 372.724 405.499 372.818C405.351 372.911 405.23 373.04 405.137 373.206C405.047 373.372 405.002 373.564 405.002 373.783V376.768H404.061ZM413.208 376.875C412.902 376.875 412.624 376.818 412.377 376.704C412.129 376.589 411.933 376.422 411.788 376.204C411.645 375.985 411.573 375.717 411.573 375.4C411.573 375.126 411.626 374.902 411.731 374.725C411.836 374.549 411.978 374.409 412.157 374.306C412.334 374.203 412.534 374.125 412.755 374.073C412.975 374.02 413.2 373.98 413.429 373.953C413.718 373.919 413.953 373.892 414.134 373.871C414.314 373.848 414.446 373.811 414.528 373.76C414.61 373.71 414.651 373.628 414.651 373.515V373.493C414.651 373.217 414.573 373.004 414.417 372.853C414.264 372.701 414.036 372.626 413.731 372.626C413.414 372.626 413.164 372.696 412.981 372.837C412.801 372.976 412.676 373.13 412.607 373.301L411.721 373.099C411.827 372.805 411.98 372.567 412.182 372.386C412.385 372.203 412.619 372.071 412.884 371.989C413.148 371.905 413.426 371.863 413.718 371.863C413.911 371.863 414.116 371.886 414.333 371.933C414.551 371.976 414.754 372.059 414.943 372.178C415.135 372.298 415.291 372.47 415.413 372.692C415.534 372.913 415.595 373.2 415.595 373.552V376.768H414.676V376.105H414.638C414.577 376.227 414.486 376.347 414.364 376.465C414.242 376.582 414.086 376.68 413.895 376.758C413.704 376.836 413.475 376.875 413.208 376.875ZM413.413 376.118C413.673 376.118 413.896 376.066 414.08 375.964C414.267 375.861 414.409 375.726 414.506 375.561C414.604 375.392 414.654 375.213 414.654 375.021V374.397C414.62 374.431 414.555 374.462 414.458 374.492C414.364 374.519 414.256 374.543 414.134 374.564C414.012 374.583 413.894 374.601 413.778 374.618C413.663 374.633 413.566 374.645 413.488 374.656C413.306 374.679 413.139 374.718 412.988 374.772C412.839 374.827 412.719 374.906 412.629 375.009C412.541 375.11 412.496 375.244 412.496 375.412C412.496 375.645 412.582 375.822 412.755 375.942C412.927 376.059 413.146 376.118 413.413 376.118ZM417.618 375.125L417.612 373.975H417.775L419.703 371.926H420.83L418.632 374.259H418.484L417.618 375.125ZM416.752 376.768V370.312H417.694V376.768H416.752ZM419.806 376.768L418.074 374.467L418.723 373.808L420.962 376.768H419.806ZM423.476 376.865C423 376.865 422.589 376.763 422.245 376.56C421.903 376.353 421.638 376.065 421.451 375.693C421.266 375.319 421.174 374.88 421.174 374.378C421.174 373.883 421.266 373.445 421.451 373.067C421.638 372.689 421.899 372.394 422.232 372.182C422.568 371.969 422.961 371.863 423.41 371.863C423.683 371.863 423.947 371.908 424.204 371.999C424.46 372.089 424.689 372.231 424.893 372.424C425.097 372.618 425.258 372.868 425.375 373.177C425.493 373.484 425.551 373.857 425.551 374.296V374.63H421.706V373.925H424.629C424.629 373.677 424.579 373.457 424.478 373.266C424.377 373.073 424.235 372.92 424.053 372.809C423.872 372.698 423.66 372.642 423.416 372.642C423.152 372.642 422.921 372.707 422.724 372.837C422.528 372.965 422.377 373.134 422.27 373.342C422.165 373.547 422.113 373.771 422.113 374.013V374.564C422.113 374.888 422.169 375.163 422.283 375.39C422.398 375.617 422.559 375.79 422.765 375.91C422.97 376.028 423.211 376.086 423.486 376.086C423.664 376.086 423.827 376.062 423.974 376.011C424.121 375.958 424.248 375.881 424.355 375.778C424.462 375.675 424.544 375.548 424.601 375.396L425.491 375.557C425.421 375.82 425.293 376.05 425.107 376.247C424.925 376.443 424.695 376.595 424.418 376.704C424.143 376.812 423.829 376.865 423.476 376.865ZM430.156 376.875C429.849 376.875 429.572 376.818 429.325 376.704C429.077 376.589 428.88 376.422 428.736 376.204C428.593 375.985 428.522 375.717 428.522 375.4C428.522 375.126 428.574 374.902 428.679 374.725C428.784 374.549 428.926 374.409 429.104 374.306C429.283 374.203 429.482 374.125 429.702 374.073C429.923 374.02 430.147 373.98 430.376 373.953C430.666 373.919 430.901 373.892 431.082 373.871C431.262 373.848 431.393 373.811 431.475 373.76C431.557 373.71 431.598 373.628 431.598 373.515V373.493C431.598 373.217 431.521 373.004 431.365 372.853C431.212 372.701 430.983 372.626 430.679 372.626C430.362 372.626 430.112 372.696 429.929 372.837C429.749 372.976 429.623 373.13 429.554 373.301L428.67 373.099C428.774 372.805 428.928 372.567 429.129 372.386C429.333 372.203 429.567 372.071 429.831 371.989C430.096 371.905 430.374 371.863 430.666 371.863C430.859 371.863 431.064 371.886 431.28 371.933C431.499 371.976 431.702 372.059 431.891 372.178C432.082 372.298 432.238 372.47 432.36 372.692C432.482 372.913 432.543 373.2 432.543 373.552V376.768H431.623V376.105H431.586C431.525 376.227 431.433 376.347 431.312 376.465C431.19 376.582 431.034 376.68 430.842 376.758C430.651 376.836 430.423 376.875 430.156 376.875ZM430.361 376.118C430.621 376.118 430.843 376.066 431.028 375.964C431.215 375.861 431.357 375.726 431.453 375.561C431.552 375.392 431.601 375.213 431.601 375.021V374.397C431.568 374.431 431.502 374.462 431.406 374.492C431.312 374.519 431.204 374.543 431.082 374.564C430.96 374.583 430.841 374.601 430.726 374.618C430.611 374.633 430.514 374.645 430.436 374.656C430.254 374.679 430.087 374.718 429.936 374.772C429.786 374.827 429.667 374.906 429.576 375.009C429.488 375.11 429.444 375.244 429.444 375.412C429.444 375.645 429.53 375.822 429.702 375.942C429.875 376.059 430.094 376.118 430.361 376.118ZM435.51 376.862C435.12 376.862 434.771 376.762 434.465 376.562C434.161 376.361 433.921 376.074 433.747 375.702C433.575 375.328 433.488 374.879 433.488 374.356C433.488 373.833 433.576 373.385 433.75 373.014C433.926 372.642 434.168 372.357 434.474 372.16C434.781 371.962 435.128 371.863 435.517 371.863C435.817 371.863 436.058 371.914 436.241 372.014C436.426 372.113 436.568 372.229 436.669 372.361C436.772 372.493 436.852 372.61 436.909 372.711H436.965V370.312H437.907V376.768H436.987V376.014H436.909C436.852 376.117 436.77 376.235 436.663 376.367C436.558 376.5 436.413 376.615 436.229 376.714C436.043 376.813 435.804 376.862 435.51 376.862ZM435.718 376.058C435.989 376.058 436.218 375.987 436.405 375.844C436.594 375.699 436.736 375.498 436.833 375.242C436.932 374.986 436.981 374.687 436.981 374.347C436.981 374.011 436.932 373.717 436.836 373.464C436.74 373.212 436.598 373.015 436.411 372.875C436.224 372.734 435.993 372.664 435.718 372.664C435.435 372.664 435.199 372.737 435.01 372.885C434.821 373.032 434.678 373.232 434.581 373.486C434.487 373.741 434.439 374.027 434.439 374.347C434.439 374.67 434.488 374.961 434.585 375.22C434.681 375.479 434.824 375.683 435.013 375.835C435.204 375.984 435.439 376.058 435.718 376.058ZM439.153 371.926H440.095V377.083C440.095 377.406 440.036 377.68 439.918 377.902C439.803 378.125 439.631 378.294 439.402 378.41C439.176 378.525 438.895 378.583 438.561 378.583C438.528 378.583 438.496 378.583 438.467 378.583C438.435 378.583 438.403 378.582 438.369 378.58V377.77C438.399 377.77 438.425 377.77 438.448 377.77C438.469 377.77 438.493 377.77 438.52 377.77C438.743 377.77 438.903 377.71 439.002 377.59C439.103 377.472 439.153 377.301 439.153 377.076V371.926ZM439.62 371.179C439.455 371.179 439.315 371.124 439.197 371.015C439.082 370.904 439.024 370.772 439.024 370.618C439.024 370.463 439.082 370.33 439.197 370.221C439.315 370.11 439.455 370.054 439.62 370.054C439.783 370.054 439.923 370.11 440.038 370.221C440.155 370.33 440.215 370.463 440.215 370.618C440.215 370.772 440.155 370.904 440.038 371.015C439.923 371.124 439.783 371.179 439.62 371.179ZM444.329 374.76V371.926H445.273V376.768H444.347V375.929H444.297C444.186 376.187 444.007 376.403 443.762 376.575C443.518 376.746 443.214 376.83 442.851 376.83C442.54 376.83 442.266 376.762 442.026 376.626C441.789 376.487 441.602 376.282 441.466 376.011C441.331 375.74 441.264 375.405 441.264 375.006V371.926H442.206V374.892C442.206 375.222 442.297 375.485 442.48 375.68C442.662 375.876 442.9 375.973 443.191 375.973C443.368 375.973 443.543 375.929 443.717 375.841C443.893 375.753 444.04 375.619 444.155 375.441C444.273 375.262 444.33 375.035 444.329 374.76ZM450.066 373.108L449.212 373.26C449.176 373.15 449.12 373.046 449.042 372.947C448.967 372.848 448.863 372.767 448.733 372.705C448.603 372.642 448.441 372.61 448.245 372.61C447.978 372.61 447.756 372.67 447.578 372.79C447.399 372.907 447.31 373.06 447.31 373.247C447.31 373.409 447.37 373.539 447.489 373.638C447.609 373.737 447.802 373.817 448.069 373.88L448.837 374.057C449.282 374.16 449.614 374.319 449.832 374.533C450.051 374.747 450.16 375.025 450.16 375.368C450.16 375.658 450.076 375.917 449.908 376.144C449.742 376.368 449.51 376.545 449.212 376.673C448.916 376.801 448.572 376.865 448.182 376.865C447.641 376.865 447.198 376.749 446.856 376.519C446.514 376.285 446.304 375.954 446.226 375.526L447.136 375.387C447.193 375.624 447.31 375.804 447.486 375.926C447.662 376.046 447.892 376.105 448.176 376.105C448.484 376.105 448.731 376.042 448.916 375.913C449.101 375.783 449.193 375.624 449.193 375.437C449.193 375.286 449.136 375.159 449.023 375.056C448.912 374.953 448.74 374.876 448.51 374.823L447.691 374.643C447.239 374.54 446.906 374.376 446.69 374.152C446.475 373.926 446.368 373.642 446.368 373.297C446.368 373.012 446.448 372.761 446.608 372.547C446.767 372.333 446.987 372.166 447.269 372.046C447.55 371.924 447.872 371.863 448.235 371.863C448.759 371.863 449.17 371.976 449.47 372.203C449.77 372.429 449.969 372.73 450.066 373.108ZM453.356 371.926V372.683H450.714V371.926H453.356ZM451.422 370.766H452.364V375.346C452.364 375.529 452.391 375.667 452.446 375.759C452.5 375.849 452.57 375.911 452.656 375.945C452.744 375.977 452.84 375.992 452.943 375.992C453.019 375.992 453.085 375.987 453.141 375.977C453.198 375.966 453.242 375.957 453.274 375.951L453.444 376.729C453.389 376.75 453.311 376.772 453.21 376.793C453.11 376.816 452.984 376.828 452.833 376.83C452.585 376.835 452.354 376.79 452.14 376.698C451.926 376.606 451.753 376.463 451.62 376.27C451.488 376.076 451.422 375.834 451.422 375.541V370.766ZM454.3 376.768V371.926H455.204V372.714H455.263C455.364 372.447 455.529 372.239 455.758 372.09C455.987 371.939 456.261 371.863 456.58 371.863C456.903 371.863 457.174 371.939 457.392 372.09C457.612 372.242 457.775 372.45 457.88 372.714H457.931C458.046 372.456 458.23 372.25 458.481 372.096C458.734 371.941 459.034 371.863 459.382 371.863C459.821 371.863 460.179 372.001 460.456 372.276C460.736 372.551 460.875 372.966 460.875 373.521V376.768H459.934V373.609C459.934 373.282 459.844 373.044 459.666 372.897C459.487 372.75 459.274 372.677 459.026 372.677C458.72 372.677 458.482 372.771 458.312 372.96C458.142 373.147 458.056 373.388 458.056 373.682V376.768H457.118V373.55C457.118 373.287 457.036 373.075 456.872 372.916C456.709 372.756 456.496 372.677 456.233 372.677C456.055 372.677 455.89 372.724 455.739 372.818C455.59 372.911 455.469 373.04 455.377 373.206C455.286 373.372 455.241 373.564 455.241 373.783V376.768H454.3ZM464.124 376.865C463.648 376.865 463.238 376.763 462.893 376.56C462.551 376.353 462.286 376.065 462.1 375.693C461.915 375.319 461.823 374.88 461.823 374.378C461.823 373.883 461.915 373.445 462.1 373.067C462.286 372.689 462.546 372.394 462.881 372.182C463.217 371.969 463.609 371.863 464.058 371.863C464.331 371.863 464.596 371.908 464.852 371.999C465.108 372.089 465.338 372.231 465.542 372.424C465.745 372.618 465.906 372.868 466.023 373.177C466.141 373.484 466.2 373.857 466.2 374.296V374.63H462.355V373.925H465.277C465.277 373.677 465.227 373.457 465.126 373.266C465.025 373.073 464.883 372.92 464.701 372.809C464.52 372.698 464.308 372.642 464.065 372.642C463.8 372.642 463.569 372.707 463.372 372.837C463.177 372.965 463.025 373.134 462.918 373.342C462.813 373.547 462.761 373.771 462.761 374.013V374.564C462.761 374.888 462.817 375.163 462.931 375.39C463.046 375.617 463.207 375.79 463.413 375.91C463.618 376.028 463.859 376.086 464.134 376.086C464.312 376.086 464.475 376.062 464.622 376.011C464.769 375.958 464.896 375.881 465.003 375.778C465.11 375.675 465.192 375.548 465.248 375.396L466.14 375.557C466.069 375.82 465.941 376.05 465.756 376.247C465.573 376.443 465.343 376.595 465.066 376.704C464.791 376.812 464.477 376.865 464.124 376.865ZM468.088 373.893V376.768H467.147V371.926H468.051V372.714H468.111C468.222 372.458 468.396 372.252 468.633 372.096C468.873 371.941 469.174 371.863 469.537 371.863C469.867 371.863 470.155 371.933 470.403 372.071C470.651 372.208 470.843 372.411 470.979 372.683C471.116 372.954 471.184 373.289 471.184 373.688V376.768H470.242V373.802C470.242 373.45 470.151 373.176 469.968 372.979C469.786 372.779 469.535 372.679 469.216 372.679C468.997 372.679 468.803 372.727 468.633 372.821C468.465 372.916 468.332 373.054 468.233 373.237C468.137 373.418 468.088 373.637 468.088 373.893ZM474.608 371.926V372.683H471.965V371.926H474.608ZM472.674 370.766H473.616V375.346C473.616 375.529 473.643 375.667 473.698 375.759C473.752 375.849 473.822 375.911 473.908 375.945C473.996 375.977 474.092 375.992 474.195 375.992C474.271 375.992 474.337 375.987 474.393 375.977C474.45 375.966 474.494 375.957 474.526 375.951L474.696 376.729C474.641 376.75 474.563 376.772 474.462 376.793C474.362 376.816 474.236 376.828 474.084 376.83C473.837 376.835 473.606 376.79 473.392 376.698C473.178 376.606 473.005 376.463 472.872 376.27C472.74 376.076 472.674 375.834 472.674 375.541V370.766ZM479.098 373.108L478.245 373.26C478.209 373.15 478.153 373.046 478.075 372.947C477.999 372.848 477.896 372.767 477.766 372.705C477.636 372.642 477.473 372.61 477.278 372.61C477.011 372.61 476.789 372.67 476.61 372.79C476.432 372.907 476.342 373.06 476.342 373.247C476.342 373.409 476.402 373.539 476.522 373.638C476.642 373.737 476.835 373.817 477.102 373.88L477.87 374.057C478.315 374.16 478.647 374.319 478.865 374.533C479.083 374.747 479.192 375.025 479.192 375.368C479.192 375.658 479.109 375.917 478.941 376.144C478.775 376.368 478.543 376.545 478.245 376.673C477.949 376.801 477.606 376.865 477.215 376.865C476.673 376.865 476.232 376.749 475.889 376.519C475.547 376.285 475.337 375.954 475.259 375.526L476.17 375.387C476.226 375.624 476.342 375.804 476.519 375.926C476.696 376.046 476.926 376.105 477.209 376.105C477.518 376.105 477.764 376.042 477.949 375.913C478.133 375.783 478.226 375.624 478.226 375.437C478.226 375.286 478.169 375.159 478.056 375.056C477.945 374.953 477.774 374.876 477.542 374.823L476.724 374.643C476.273 374.54 475.938 374.376 475.722 374.152C475.508 373.926 475.401 373.642 475.401 373.297C475.401 373.012 475.481 372.761 475.64 372.547C475.8 372.333 476.02 372.166 476.302 372.046C476.583 371.924 476.906 371.863 477.269 371.863C477.791 371.863 478.203 371.976 478.503 372.203C478.803 372.429 479.002 372.73 479.098 373.108ZM350.638 390.188C350.332 390.188 350.055 390.132 349.807 390.018C349.559 389.903 349.363 389.736 349.218 389.517C349.075 389.299 349.004 389.031 349.004 388.713C349.004 388.44 349.056 388.215 349.161 388.039C349.267 387.862 349.408 387.723 349.586 387.619C349.765 387.517 349.964 387.439 350.185 387.386C350.406 387.334 350.63 387.294 350.859 387.267C351.149 387.233 351.384 387.206 351.565 387.185C351.745 387.161 351.876 387.125 351.958 387.074C352.04 387.024 352.081 386.942 352.081 386.828V386.806C352.081 386.531 352.003 386.318 351.848 386.167C351.694 386.015 351.465 385.94 351.161 385.94C350.844 385.94 350.595 386.01 350.412 386.151C350.231 386.289 350.106 386.444 350.037 386.614L349.152 386.412C349.257 386.118 349.41 385.881 349.612 385.7C349.815 385.517 350.05 385.385 350.314 385.303C350.578 385.219 350.857 385.177 351.149 385.177C351.342 385.177 351.546 385.2 351.762 385.246C351.981 385.29 352.185 385.372 352.374 385.492C352.564 385.612 352.721 385.783 352.843 386.006C352.965 386.227 353.026 386.513 353.026 386.866V390.081H352.106V389.419H352.068C352.007 389.541 351.916 389.661 351.794 389.778C351.673 389.896 351.516 389.994 351.325 390.072C351.134 390.15 350.905 390.188 350.638 390.188ZM350.843 389.432C351.103 389.432 351.326 389.38 351.511 389.278C351.698 389.174 351.839 389.04 351.936 388.874C352.035 388.706 352.084 388.526 352.084 388.335V387.711C352.05 387.745 351.985 387.776 351.889 387.805C351.794 387.833 351.686 387.857 351.565 387.878C351.443 387.897 351.324 387.915 351.208 387.932C351.093 387.946 350.996 387.959 350.919 387.97C350.736 387.992 350.569 388.032 350.418 388.086C350.269 388.141 350.149 388.22 350.059 388.322C349.971 388.423 349.927 388.558 349.927 388.726C349.927 388.959 350.013 389.136 350.185 389.255C350.357 389.373 350.576 389.432 350.843 389.432ZM355.124 387.207V390.081H354.182V385.24H355.086V386.028H355.146C355.257 385.772 355.431 385.565 355.668 385.41C355.908 385.255 356.209 385.177 356.572 385.177C356.902 385.177 357.191 385.246 357.439 385.385C357.686 385.521 357.878 385.725 358.014 385.996C358.151 386.268 358.22 386.603 358.22 387.002V390.081H357.278V387.115C357.278 386.764 357.186 386.49 357.004 386.293C356.821 386.093 356.57 385.993 356.251 385.993C356.033 385.993 355.838 386.041 355.668 386.135C355.5 386.229 355.367 386.368 355.269 386.551C355.172 386.732 355.124 386.95 355.124 387.207ZM361.195 390.176C360.805 390.176 360.456 390.076 360.15 389.876C359.846 389.675 359.606 389.388 359.432 389.016C359.26 388.642 359.173 388.193 359.173 387.67C359.173 387.147 359.261 386.699 359.435 386.327C359.611 385.955 359.853 385.671 360.159 385.473C360.466 385.276 360.813 385.177 361.202 385.177C361.502 385.177 361.743 385.227 361.926 385.328C362.111 385.427 362.253 385.543 362.354 385.675C362.457 385.807 362.537 385.924 362.594 386.025H362.65V383.626H363.592V390.081H362.672V389.328H362.594C362.537 389.431 362.455 389.548 362.348 389.681C362.243 389.813 362.098 389.929 361.914 390.028C361.729 390.126 361.49 390.176 361.195 390.176ZM361.403 389.372C361.674 389.372 361.903 389.3 362.09 389.158C362.279 389.013 362.421 388.812 362.518 388.556C362.617 388.3 362.666 388.001 362.666 387.661C362.666 387.324 362.618 387.03 362.521 386.778C362.425 386.526 362.283 386.329 362.096 386.189C361.909 386.048 361.678 385.977 361.403 385.977C361.12 385.977 360.884 386.051 360.695 386.198C360.506 386.345 360.363 386.546 360.266 386.8C360.172 387.054 360.124 387.341 360.124 387.661C360.124 387.984 360.173 388.275 360.27 388.534C360.366 388.792 360.509 388.997 360.698 389.148C360.889 389.298 361.124 389.372 361.403 389.372ZM368.495 390.188C368.189 390.188 367.912 390.132 367.664 390.018C367.416 389.903 367.22 389.736 367.075 389.517C366.932 389.299 366.861 389.031 366.861 388.713C366.861 388.44 366.914 388.215 367.018 388.039C367.124 387.862 367.265 387.723 367.443 387.619C367.622 387.517 367.821 387.439 368.042 387.386C368.262 387.334 368.487 387.294 368.716 387.267C369.005 387.233 369.241 387.206 369.421 387.185C369.602 387.161 369.733 387.125 369.815 387.074C369.897 387.024 369.938 386.942 369.938 386.828V386.806C369.938 386.531 369.86 386.318 369.705 386.167C369.551 386.015 369.322 385.94 369.018 385.94C368.701 385.94 368.451 386.01 368.269 386.151C368.088 386.289 367.963 386.444 367.894 386.614L367.009 386.412C367.114 386.118 367.267 385.881 367.469 385.7C367.672 385.517 367.906 385.385 368.171 385.303C368.436 385.219 368.714 385.177 369.005 385.177C369.199 385.177 369.403 385.2 369.619 385.246C369.838 385.29 370.042 385.372 370.231 385.492C370.421 385.612 370.578 385.783 370.7 386.006C370.822 386.227 370.883 386.513 370.883 386.866V390.081H369.963V389.419H369.925C369.864 389.541 369.773 389.661 369.651 389.778C369.529 389.896 369.373 389.994 369.182 390.072C368.991 390.15 368.762 390.188 368.495 390.188ZM368.7 389.432C368.96 389.432 369.183 389.38 369.368 389.278C369.555 389.174 369.697 389.04 369.793 388.874C369.892 388.706 369.941 388.526 369.941 388.335V387.711C369.907 387.745 369.842 387.776 369.746 387.805C369.651 387.833 369.543 387.857 369.421 387.878C369.3 387.897 369.181 387.915 369.065 387.932C368.95 387.946 368.853 387.959 368.776 387.97C368.593 387.992 368.426 388.032 368.275 388.086C368.126 388.141 368.006 388.22 367.916 388.322C367.828 388.423 367.784 388.558 367.784 388.726C367.784 388.959 367.87 389.136 368.042 389.255C368.214 389.373 368.433 389.432 368.7 389.432ZM375.103 388.073V385.24H376.048V390.081H375.122V389.243H375.072C374.96 389.501 374.782 389.716 374.536 389.889C374.293 390.059 373.989 390.144 373.626 390.144C373.316 390.144 373.04 390.076 372.801 389.939C372.564 389.801 372.377 389.596 372.241 389.325C372.106 389.053 372.039 388.718 372.039 388.32V385.24H372.98V388.206C372.98 388.536 373.072 388.798 373.255 388.994C373.437 389.189 373.674 389.287 373.967 389.287C374.143 389.287 374.318 389.243 374.493 389.154C374.669 389.066 374.815 388.933 374.93 388.754C375.048 388.576 375.106 388.349 375.103 388.073ZM379.474 385.24V385.996H376.831V385.24H379.474ZM377.54 384.08H378.482V388.66C378.482 388.843 378.509 388.98 378.564 389.072C378.618 389.163 378.688 389.225 378.775 389.259C378.863 389.29 378.958 389.306 379.061 389.306C379.137 389.306 379.203 389.3 379.26 389.29C379.316 389.28 379.36 389.271 379.392 389.265L379.562 390.043C379.507 390.064 379.429 390.085 379.329 390.106C379.228 390.13 379.102 390.142 378.951 390.144C378.703 390.149 378.472 390.104 378.258 390.012C378.044 389.919 377.871 389.776 377.738 389.583C377.606 389.39 377.54 389.147 377.54 388.855V384.08ZM382.403 390.179C381.95 390.179 381.554 390.075 381.216 389.867C380.878 389.659 380.615 389.368 380.429 388.994C380.242 388.62 380.148 388.183 380.148 387.683C380.148 387.18 380.242 386.741 380.429 386.365C380.615 385.989 380.878 385.697 381.216 385.489C381.554 385.281 381.95 385.177 382.403 385.177C382.857 385.177 383.253 385.281 383.591 385.489C383.929 385.697 384.191 385.989 384.378 386.365C384.565 386.741 384.658 387.18 384.658 387.683C384.658 388.183 384.565 388.62 384.378 388.994C384.191 389.368 383.929 389.659 383.591 389.867C383.253 390.075 382.857 390.179 382.403 390.179ZM382.406 389.388C382.701 389.388 382.944 389.31 383.137 389.154C383.33 388.999 383.473 388.792 383.565 388.534C383.66 388.275 383.707 387.991 383.707 387.679C383.707 387.37 383.66 387.087 383.565 386.828C383.473 386.568 383.33 386.359 383.137 386.201C382.944 386.043 382.701 385.965 382.406 385.965C382.11 385.965 381.865 386.043 381.67 386.201C381.476 386.359 381.333 386.568 381.238 386.828C381.146 387.087 381.099 387.37 381.099 387.679C381.099 387.991 381.146 388.275 381.238 388.534C381.333 388.792 381.476 388.999 381.67 389.154C381.865 389.31 382.11 389.388 382.406 389.388ZM390.119 385.24V385.996H387.477V385.24H390.119ZM388.185 384.08H389.127V388.66C389.127 388.843 389.154 388.98 389.209 389.072C389.264 389.163 389.334 389.225 389.42 389.259C389.508 389.29 389.603 389.306 389.706 389.306C389.782 389.306 389.848 389.3 389.905 389.29C389.961 389.28 390.006 389.271 390.037 389.265L390.207 390.043C390.153 390.064 390.075 390.085 389.974 390.106C389.873 390.13 389.747 390.142 389.596 390.144C389.348 390.149 389.118 390.104 388.903 390.012C388.689 389.919 388.516 389.776 388.384 389.583C388.251 389.39 388.185 389.147 388.185 388.855V384.08ZM394.127 388.073V385.24H395.072V390.081H394.146V389.243H394.096C393.985 389.501 393.806 389.716 393.56 389.889C393.317 390.059 393.014 390.144 392.65 390.144C392.34 390.144 392.064 390.076 391.825 389.939C391.588 389.801 391.401 389.596 391.264 389.325C391.13 389.053 391.063 388.718 391.063 388.32V385.24H392.005V388.206C392.005 388.536 392.096 388.798 392.279 388.994C392.461 389.189 392.698 389.287 392.99 389.287C393.167 389.287 393.342 389.243 393.516 389.154C393.693 389.066 393.838 388.933 393.954 388.754C394.072 388.576 394.129 388.349 394.127 388.073ZM397.181 387.207V390.081H396.239V385.24H397.143V386.028H397.203C397.315 385.772 397.489 385.565 397.726 385.41C397.965 385.255 398.266 385.177 398.63 385.177C398.959 385.177 399.248 385.246 399.496 385.385C399.743 385.521 399.936 385.725 400.072 385.996C400.208 386.268 400.277 386.603 400.277 387.002V390.081H399.335V387.115C399.335 386.764 399.244 386.49 399.061 386.293C398.879 386.093 398.628 385.993 398.308 385.993C398.09 385.993 397.896 386.041 397.726 386.135C397.558 386.229 397.425 386.368 397.326 386.551C397.229 386.732 397.181 386.95 397.181 387.207ZM403.527 390.179C403.05 390.179 402.64 390.077 402.296 389.873C401.953 389.667 401.689 389.379 401.502 389.006C401.317 388.632 401.225 388.194 401.225 387.692C401.225 387.196 401.317 386.759 401.502 386.381C401.689 386.002 401.949 385.707 402.283 385.495C402.619 385.283 403.011 385.177 403.461 385.177C403.734 385.177 403.998 385.222 404.255 385.312C404.511 385.403 404.741 385.545 404.944 385.738C405.147 385.931 405.308 386.182 405.426 386.491C405.543 386.798 405.602 387.171 405.602 387.61V387.944H401.757V387.238H404.68C404.68 386.99 404.629 386.771 404.528 386.579C404.427 386.386 404.286 386.234 404.103 386.122C403.923 386.011 403.711 385.955 403.467 385.955C403.203 385.955 402.971 386.021 402.774 386.151C402.579 386.279 402.428 386.447 402.321 386.655C402.216 386.861 402.163 387.085 402.163 387.327V387.878C402.163 388.201 402.22 388.477 402.333 388.704C402.449 388.931 402.609 389.104 402.815 389.224C403.021 389.341 403.261 389.4 403.536 389.4C403.715 389.4 403.878 389.375 404.024 389.325C404.171 389.272 404.298 389.194 404.405 389.092C404.513 388.989 404.594 388.862 404.651 388.71L405.543 388.871C405.471 389.133 405.343 389.364 405.158 389.561C404.976 389.756 404.746 389.909 404.468 390.018C404.194 390.125 403.88 390.179 403.527 390.179ZM409.394 391.896C409.253 391.896 409.125 391.885 409.01 391.862C408.894 391.841 408.808 391.818 408.752 391.793L408.978 391.021C409.15 391.067 409.304 391.087 409.438 391.08C409.573 391.074 409.691 391.024 409.794 390.929C409.899 390.835 409.991 390.68 410.071 390.466L410.187 390.144L408.418 385.24H409.425L410.651 388.997H410.701L411.926 385.24H412.937L410.943 390.727C410.851 390.98 410.733 391.193 410.591 391.367C410.448 391.544 410.278 391.676 410.08 391.764C409.883 391.853 409.654 391.896 409.394 391.896ZM415.597 390.179C415.143 390.179 414.748 390.075 414.41 389.867C414.072 389.659 413.809 389.368 413.623 388.994C413.436 388.62 413.342 388.183 413.342 387.683C413.342 387.18 413.436 386.741 413.623 386.365C413.809 385.989 414.072 385.697 414.41 385.489C414.748 385.281 415.143 385.177 415.597 385.177C416.051 385.177 416.447 385.281 416.785 385.489C417.122 385.697 417.385 385.989 417.572 386.365C417.758 386.741 417.852 387.18 417.852 387.683C417.852 388.183 417.758 388.62 417.572 388.994C417.385 389.368 417.122 389.659 416.785 389.867C416.447 390.075 416.051 390.179 415.597 390.179ZM415.6 389.388C415.895 389.388 416.138 389.31 416.331 389.154C416.524 388.999 416.667 388.792 416.759 388.534C416.854 388.275 416.901 387.991 416.901 387.679C416.901 387.37 416.854 387.087 416.759 386.828C416.667 386.568 416.524 386.359 416.331 386.201C416.138 386.043 415.895 385.965 415.6 385.965C415.304 385.965 415.059 386.043 414.864 386.201C414.67 386.359 414.527 386.568 414.432 386.828C414.34 387.087 414.293 387.37 414.293 387.679C414.293 387.991 414.34 388.275 414.432 388.534C414.527 388.792 414.67 388.999 414.864 389.154C415.059 389.31 415.304 389.388 415.6 389.388ZM421.869 388.073V385.24H422.814V390.081H421.889V389.243H421.838C421.727 389.501 421.548 389.716 421.303 389.889C421.059 390.059 420.756 390.144 420.393 390.144C420.082 390.144 419.807 390.076 419.568 389.939C419.33 389.801 419.144 389.596 419.007 389.325C418.873 389.053 418.805 388.718 418.805 388.32V385.24H419.747V388.206C419.747 388.536 419.839 388.798 420.021 388.994C420.204 389.189 420.441 389.287 420.733 389.287C420.909 389.287 421.085 389.243 421.259 389.154C421.435 389.066 421.581 388.933 421.696 388.754C421.814 388.576 421.872 388.349 421.869 388.073ZM423.982 390.081V385.24H424.892V386.009H424.943C425.031 385.748 425.186 385.544 425.409 385.394C425.633 385.243 425.887 385.168 426.171 385.168C426.23 385.168 426.299 385.169 426.379 385.174C426.46 385.178 426.525 385.183 426.571 385.189V386.091C426.533 386.081 426.466 386.069 426.369 386.056C426.272 386.041 426.176 386.034 426.08 386.034C425.857 386.034 425.658 386.081 425.484 386.176C425.312 386.269 425.176 386.397 425.075 386.564C424.974 386.727 424.924 386.914 424.924 387.125V390.081H423.982ZM433.676 385.24L431.921 390.081H430.914L429.156 385.24H430.167L431.392 388.965H431.443L432.665 385.24H433.676ZM436.336 390.179C435.882 390.179 435.486 390.075 435.148 389.867C434.811 389.659 434.548 389.368 434.361 388.994C434.174 388.62 434.081 388.183 434.081 387.683C434.081 387.18 434.174 386.741 434.361 386.365C434.548 385.989 434.811 385.697 435.148 385.489C435.486 385.281 435.882 385.177 436.336 385.177C436.789 385.177 437.185 385.281 437.523 385.489C437.861 385.697 438.124 385.989 438.31 386.365C438.497 386.741 438.591 387.18 438.591 387.683C438.591 388.183 438.497 388.62 438.31 388.994C438.124 389.368 437.861 389.659 437.523 389.867C437.185 390.075 436.789 390.179 436.336 390.179ZM436.339 389.388C436.633 389.388 436.876 389.31 437.069 389.154C437.263 388.999 437.405 388.792 437.498 388.534C437.592 388.275 437.64 387.991 437.64 387.679C437.64 387.37 437.592 387.087 437.498 386.828C437.405 386.568 437.263 386.359 437.069 386.201C436.876 386.043 436.633 385.965 436.339 385.965C436.043 385.965 435.797 386.043 435.602 386.201C435.409 386.359 435.265 386.568 435.171 386.828C435.078 387.087 435.032 387.37 435.032 387.679C435.032 387.991 435.078 388.275 435.171 388.534C435.265 388.792 435.409 388.999 435.602 389.154C435.797 389.31 436.043 389.388 436.339 389.388ZM439.544 390.081V385.24H440.486V390.081H439.544ZM440.02 384.493C439.856 384.493 439.715 384.438 439.598 384.329C439.482 384.218 439.424 384.085 439.424 383.932C439.424 383.776 439.482 383.644 439.598 383.535C439.715 383.423 439.856 383.367 440.02 383.367C440.183 383.367 440.323 383.423 440.439 383.535C440.556 383.644 440.615 383.776 440.615 383.932C440.615 384.085 440.556 384.218 440.439 384.329C440.323 384.438 440.183 384.493 440.02 384.493ZM443.692 390.179C443.224 390.179 442.821 390.073 442.483 389.861C442.147 389.646 441.889 389.351 441.709 388.975C441.528 388.599 441.438 388.168 441.438 387.683C441.438 387.191 441.53 386.757 441.715 386.381C441.9 386.002 442.16 385.707 442.496 385.495C442.831 385.283 443.227 385.177 443.683 385.177C444.05 385.177 444.378 385.245 444.665 385.382C444.953 385.516 445.185 385.705 445.362 385.949C445.54 386.193 445.646 386.477 445.68 386.803H444.763C444.713 386.576 444.597 386.381 444.417 386.217C444.238 386.053 443.999 385.971 443.699 385.971C443.436 385.971 443.207 386.041 443.009 386.179C442.814 386.316 442.662 386.511 442.553 386.765C442.443 387.018 442.389 387.316 442.389 387.661C442.389 388.013 442.442 388.318 442.549 388.575C442.656 388.831 442.808 389.03 443.003 389.17C443.2 389.311 443.432 389.381 443.699 389.381C443.877 389.381 444.039 389.349 444.184 389.284C444.331 389.217 444.454 389.121 444.552 388.997C444.653 388.873 444.723 388.724 444.763 388.549H445.68C445.646 388.863 445.544 389.142 445.374 389.388C445.204 389.634 444.976 389.827 444.691 389.968C444.407 390.109 444.075 390.179 443.692 390.179ZM448.674 390.179C448.197 390.179 447.787 390.077 447.442 389.873C447.1 389.667 446.835 389.379 446.649 389.006C446.464 388.632 446.372 388.194 446.372 387.692C446.372 387.196 446.464 386.759 446.649 386.381C446.835 386.002 447.096 385.707 447.43 385.495C447.766 385.283 448.158 385.177 448.607 385.177C448.881 385.177 449.145 385.222 449.401 385.312C449.657 385.403 449.887 385.545 450.091 385.738C450.295 385.931 450.455 386.182 450.573 386.491C450.69 386.798 450.749 387.171 450.749 387.61V387.944H446.904V387.238H449.826C449.826 386.99 449.776 386.771 449.675 386.579C449.575 386.386 449.433 386.234 449.25 386.122C449.07 386.011 448.857 385.955 448.614 385.955C448.35 385.955 448.119 386.021 447.921 386.151C447.726 386.279 447.575 386.447 447.468 386.655C447.363 386.861 447.31 387.085 447.31 387.327V387.878C447.31 388.201 447.367 388.477 447.48 388.704C447.596 388.931 447.756 389.104 447.962 389.224C448.168 389.341 448.408 389.4 448.683 389.4C448.862 389.4 449.024 389.375 449.172 389.325C449.318 389.272 449.445 389.194 449.552 389.092C449.659 388.989 449.741 388.862 449.798 388.71L450.689 388.871C450.618 389.133 450.49 389.364 450.305 389.561C450.122 389.756 449.893 389.909 449.616 390.018C449.34 390.125 449.026 390.179 448.674 390.179ZM452.316 390.141C452.145 390.141 451.997 390.08 451.873 389.958C451.749 389.835 451.687 389.685 451.687 389.511C451.687 389.339 451.749 389.191 451.873 389.07C451.997 388.945 452.145 388.884 452.316 388.884C452.489 388.884 452.637 388.945 452.76 389.07C452.885 389.191 452.947 389.339 452.947 389.511C452.947 389.627 452.917 389.732 452.859 389.829C452.801 389.924 452.726 389.999 452.632 390.056C452.537 390.112 452.432 390.141 452.316 390.141ZM454.731 390.141C454.558 390.141 454.41 390.08 454.286 389.958C454.163 389.835 454.101 389.685 454.101 389.511C454.101 389.339 454.163 389.191 454.286 389.07C454.41 388.945 454.558 388.884 454.731 388.884C454.903 388.884 455.051 388.945 455.175 389.07C455.298 389.191 455.36 389.339 455.36 389.511C455.36 389.627 455.331 389.732 455.272 389.829C455.216 389.924 455.14 389.999 455.046 390.056C454.951 390.112 454.846 390.141 454.731 390.141ZM457.145 390.141C456.972 390.141 456.824 390.08 456.701 389.958C456.577 389.835 456.515 389.685 456.515 389.511C456.515 389.339 456.577 389.191 456.701 389.07C456.824 388.945 456.972 388.884 457.145 388.884C457.316 388.884 457.465 388.945 457.589 389.07C457.712 389.191 457.774 389.339 457.774 389.511C457.774 389.627 457.745 389.732 457.686 389.829C457.63 389.924 457.554 389.999 457.459 390.056C457.365 390.112 457.26 390.141 457.145 390.141Z" fill="#333333"/>
<path d="M338.476 265.716C338.392 264.971 338.046 264.392 337.437 263.983C336.828 263.568 336.061 263.36 335.138 263.36C334.476 263.36 333.904 263.466 333.421 263.676C332.939 263.88 332.563 264.164 332.296 264.527C332.033 264.884 331.902 265.291 331.902 265.748C331.902 266.132 331.991 266.462 332.17 266.741C332.353 267.019 332.592 267.253 332.886 267.442C333.185 267.626 333.506 267.781 333.847 267.907C334.188 268.028 334.516 268.128 334.831 268.206L336.406 268.616C336.92 268.742 337.447 268.913 337.988 269.128C338.528 269.343 339.029 269.628 339.492 269.979C339.953 270.331 340.326 270.767 340.61 271.287C340.898 271.808 341.043 272.43 341.043 273.155C341.043 274.069 340.806 274.88 340.334 275.59C339.867 276.299 339.187 276.859 338.295 277.268C337.408 277.678 336.335 277.883 335.075 277.883C333.868 277.883 332.823 277.691 331.942 277.307C331.06 276.924 330.369 276.38 329.871 275.676C329.372 274.967 329.097 274.126 329.044 273.155H331.485C331.532 273.738 331.721 274.224 332.051 274.612C332.387 274.996 332.815 275.283 333.335 275.472C333.86 275.655 334.435 275.747 335.059 275.747C335.747 275.747 336.358 275.64 336.893 275.424C337.434 275.204 337.859 274.899 338.169 274.51C338.479 274.116 338.633 273.657 338.633 273.131C338.633 272.653 338.497 272.262 338.224 271.957C337.956 271.652 337.592 271.4 337.129 271.201C336.673 271.001 336.156 270.825 335.579 270.673L333.674 270.153C332.382 269.801 331.359 269.283 330.603 268.6C329.853 267.917 329.477 267.014 329.477 265.89C329.477 264.96 329.729 264.148 330.233 263.455C330.737 262.762 331.419 262.223 332.28 261.84C333.14 261.451 334.112 261.257 335.193 261.257C336.285 261.257 337.248 261.448 338.082 261.832C338.922 262.215 339.583 262.743 340.066 263.416C340.549 264.082 340.801 264.85 340.822 265.716H338.476ZM346.792 277.883C346.026 277.883 345.333 277.741 344.714 277.457C344.094 277.168 343.604 276.751 343.241 276.204C342.884 275.658 342.706 274.988 342.706 274.195C342.706 273.512 342.837 272.95 343.1 272.509C343.362 272.067 343.716 271.718 344.162 271.461C344.609 271.204 345.107 271.009 345.658 270.877C346.209 270.746 346.771 270.647 347.343 270.578C348.068 270.494 348.655 270.426 349.107 270.373C349.558 270.315 349.886 270.223 350.091 270.097C350.296 269.971 350.398 269.767 350.398 269.483V269.428C350.398 268.739 350.204 268.206 349.815 267.828C349.432 267.45 348.86 267.261 348.099 267.261C347.307 267.261 346.682 267.437 346.225 267.789C345.774 268.135 345.462 268.521 345.289 268.947L343.076 268.443C343.339 267.708 343.722 267.113 344.226 266.662C344.734 266.205 345.32 265.874 345.982 265.669C346.643 265.459 347.338 265.354 348.068 265.354C348.551 265.354 349.062 265.412 349.603 265.527C350.148 265.637 350.658 265.843 351.13 266.142C351.608 266.441 351.999 266.869 352.303 267.426C352.608 267.978 352.76 268.695 352.76 269.578V277.615H350.461V275.96H350.366C350.214 276.265 349.986 276.564 349.682 276.859C349.377 277.153 348.986 277.397 348.508 277.591C348.031 277.785 347.459 277.883 346.792 277.883ZM347.304 275.991C347.955 275.991 348.511 275.863 348.973 275.605C349.44 275.348 349.794 275.012 350.036 274.597C350.283 274.176 350.406 273.728 350.406 273.249V271.689C350.322 271.773 350.159 271.852 349.918 271.926C349.682 271.994 349.411 272.055 349.107 272.107C348.802 272.154 348.506 272.199 348.217 272.241C347.929 272.278 347.687 272.309 347.493 272.335C347.036 272.393 346.619 272.491 346.241 272.627C345.868 272.763 345.569 272.96 345.344 273.218C345.123 273.47 345.013 273.806 345.013 274.226C345.013 274.81 345.228 275.251 345.658 275.55C346.089 275.844 346.637 275.991 347.304 275.991ZM356.463 282.153C356.111 282.153 355.791 282.125 355.502 282.067C355.213 282.014 354.998 281.957 354.856 281.893L355.423 279.963C355.854 280.079 356.237 280.129 356.573 280.113C356.909 280.097 357.205 279.971 357.462 279.734C357.725 279.498 357.956 279.112 358.155 278.576L358.447 277.772L354.022 265.511H356.541L359.604 274.904H359.73L362.792 265.511H365.32L360.336 279.23C360.105 279.861 359.811 280.394 359.454 280.83C359.097 281.271 358.672 281.602 358.179 281.823C357.685 282.043 357.113 282.153 356.463 282.153ZM381.486 268.466L379.352 268.845C379.263 268.571 379.121 268.312 378.927 268.064C378.738 267.817 378.481 267.615 378.155 267.458C377.83 267.3 377.423 267.222 376.935 267.222C376.268 267.222 375.712 267.371 375.266 267.67C374.82 267.965 374.597 268.346 374.597 268.813C374.597 269.218 374.746 269.543 375.046 269.79C375.344 270.037 375.828 270.239 376.494 270.397L378.415 270.838C379.528 271.095 380.357 271.492 380.903 272.028C381.449 272.564 381.722 273.26 381.722 274.116C381.722 274.841 381.512 275.487 381.092 276.055C380.678 276.617 380.097 277.058 379.352 277.378C378.612 277.699 377.754 277.859 376.778 277.859C375.423 277.859 374.319 277.57 373.463 276.992C372.608 276.409 372.083 275.582 371.889 274.51L374.164 274.164C374.305 274.757 374.597 275.207 375.037 275.511C375.479 275.811 376.053 275.96 376.762 275.96C377.533 275.96 378.15 275.8 378.612 275.479C379.074 275.154 379.305 274.757 379.305 274.29C379.305 273.911 379.163 273.593 378.88 273.336C378.601 273.079 378.174 272.884 377.596 272.753L375.55 272.304C374.421 272.046 373.586 271.637 373.046 271.075C372.511 270.512 372.243 269.801 372.243 268.939C372.243 268.225 372.442 267.599 372.841 267.064C373.24 266.528 373.791 266.11 374.494 265.811C375.198 265.506 376.003 265.354 376.911 265.354C378.218 265.354 379.247 265.637 379.997 266.205C380.748 266.767 381.244 267.521 381.486 268.466ZM388.916 277.859C387.783 277.859 386.793 277.599 385.948 277.079C385.103 276.559 384.447 275.831 383.98 274.896C383.513 273.961 383.279 272.868 383.279 271.618C383.279 270.363 383.513 269.265 383.98 268.324C384.447 267.384 385.103 266.654 385.948 266.134C386.793 265.614 387.783 265.354 388.916 265.354C390.05 265.354 391.039 265.614 391.884 266.134C392.729 266.654 393.386 267.384 393.852 268.324C394.32 269.265 394.553 270.363 394.553 271.618C394.553 272.868 394.32 273.961 393.852 274.896C393.386 275.831 392.729 276.559 391.884 277.079C391.039 277.599 390.05 277.859 388.916 277.859ZM388.924 275.881C389.659 275.881 390.268 275.687 390.751 275.298C391.233 274.909 391.59 274.392 391.821 273.746C392.058 273.1 392.176 272.388 392.176 271.61C392.176 270.838 392.058 270.129 391.821 269.483C391.59 268.831 391.233 268.309 390.751 267.915C390.268 267.521 389.659 267.324 388.924 267.324C388.184 267.324 387.57 267.521 387.082 267.915C386.599 268.309 386.24 268.831 386.003 269.483C385.772 270.129 385.656 270.838 385.656 271.61C385.656 272.388 385.772 273.1 386.003 273.746C386.24 274.392 386.599 274.909 387.082 275.298C387.57 275.687 388.184 275.881 388.924 275.881ZM396.693 277.615V265.511H398.953V267.481H399.102C399.354 266.814 399.766 266.294 400.338 265.921C400.91 265.543 401.595 265.354 402.393 265.354C403.201 265.354 403.878 265.543 404.424 265.921C404.976 266.3 405.382 266.819 405.645 267.481H405.77C406.059 266.836 406.519 266.321 407.148 265.937C407.778 265.548 408.529 265.354 409.4 265.354C410.497 265.354 411.392 265.698 412.085 266.386C412.783 267.074 413.132 268.112 413.132 269.499V277.615H410.778V269.719C410.778 268.9 410.555 268.306 410.109 267.938C409.662 267.571 409.13 267.387 408.51 267.387C407.744 267.387 407.148 267.623 406.723 268.096C406.298 268.564 406.085 269.165 406.085 269.9V277.615H403.739V269.57C403.739 268.913 403.535 268.385 403.126 267.985C402.716 267.587 402.183 267.387 401.527 267.387C401.081 267.387 400.669 267.505 400.291 267.741C399.919 267.973 399.617 268.296 399.385 268.711C399.16 269.125 399.047 269.606 399.047 270.153V277.615H396.693ZM421.011 277.859C419.82 277.859 418.793 277.604 417.933 277.095C417.077 276.58 416.416 275.858 415.949 274.928C415.487 273.993 415.256 272.898 415.256 271.642C415.256 270.402 415.487 269.31 415.949 268.364C416.416 267.419 417.067 266.68 417.902 266.15C418.741 265.619 419.723 265.354 420.846 265.354C421.528 265.354 422.189 265.467 422.83 265.693C423.47 265.919 424.045 266.273 424.554 266.756C425.063 267.24 425.464 267.867 425.759 268.64C426.052 269.407 426.199 270.339 426.199 271.437V272.273H416.586V270.507H423.893C423.893 269.887 423.767 269.338 423.514 268.86C423.263 268.377 422.909 267.996 422.452 267.718C422 267.44 421.47 267.3 420.861 267.3C420.2 267.3 419.623 267.463 419.129 267.789C418.641 268.109 418.263 268.53 417.996 269.049C417.734 269.564 417.602 270.124 417.602 270.728V272.107C417.602 272.916 417.744 273.604 418.027 274.171C418.316 274.739 418.717 275.172 419.232 275.472C419.746 275.766 420.347 275.913 421.035 275.913C421.481 275.913 421.888 275.85 422.255 275.724C422.623 275.593 422.94 275.398 423.207 275.14C423.475 274.883 423.68 274.565 423.822 274.187L426.05 274.589C425.871 275.246 425.551 275.821 425.089 276.315C424.632 276.803 424.058 277.184 423.365 277.457C422.678 277.725 421.893 277.859 421.011 277.859ZM433.968 265.511V267.402H427.363V265.511H433.968ZM429.135 262.612H431.489V274.061C431.489 274.518 431.557 274.862 431.693 275.093C431.829 275.319 432.006 275.474 432.221 275.558C432.441 275.637 432.68 275.676 432.937 275.676C433.126 275.676 433.292 275.663 433.433 275.637C433.575 275.611 433.685 275.59 433.764 275.574L434.189 277.52C434.053 277.573 433.858 277.625 433.606 277.678C433.354 277.736 433.039 277.767 432.661 277.772C432.042 277.783 431.465 277.673 430.929 277.442C430.394 277.21 429.961 276.853 429.63 276.37C429.3 275.887 429.135 275.28 429.135 274.55V262.612ZM438.698 270.429V277.615H436.344V261.477H438.667V267.481H438.816C439.1 266.83 439.533 266.312 440.116 265.929C440.698 265.546 441.459 265.354 442.399 265.354C443.228 265.354 443.952 265.525 444.572 265.866C445.197 266.208 445.679 266.717 446.02 267.395C446.367 268.067 446.54 268.907 446.54 269.917V277.615H444.186V270.2C444.186 269.312 443.958 268.624 443.501 268.135C443.044 267.642 442.409 267.395 441.596 267.395C441.04 267.395 440.541 267.513 440.1 267.749C439.664 267.985 439.32 268.332 439.069 268.789C438.822 269.241 438.698 269.788 438.698 270.429ZM449.194 277.615V265.511H451.548V277.615H449.194ZM450.382 263.644C449.973 263.644 449.621 263.507 449.327 263.234C449.039 262.956 448.895 262.625 448.895 262.241C448.895 261.853 449.039 261.522 449.327 261.249C449.621 260.97 449.973 260.831 450.382 260.831C450.792 260.831 451.141 260.97 451.43 261.249C451.723 261.522 451.87 261.853 451.87 262.241C451.87 262.625 451.723 262.956 451.43 263.234C451.141 263.507 450.792 263.644 450.382 263.644ZM456.581 270.429V277.615H454.227V265.511H456.486V267.481H456.636C456.914 266.841 457.35 266.326 457.943 265.937C458.541 265.548 459.295 265.354 460.203 265.354C461.027 265.354 461.748 265.527 462.367 265.874C462.987 266.215 463.467 266.725 463.808 267.402C464.149 268.08 464.32 268.918 464.32 269.917V277.615H461.966V270.2C461.966 269.322 461.738 268.637 461.281 268.143C460.824 267.644 460.197 267.395 459.399 267.395C458.853 267.395 458.368 267.513 457.943 267.749C457.523 267.985 457.19 268.332 456.943 268.789C456.701 269.241 456.581 269.788 456.581 270.429ZM472.059 282.406C471.099 282.406 470.272 282.279 469.579 282.028C468.892 281.775 468.33 281.442 467.895 281.027C467.459 280.612 467.134 280.158 466.918 279.664L468.942 278.828C469.083 279.06 469.272 279.304 469.509 279.561C469.75 279.824 470.076 280.047 470.485 280.231C470.9 280.415 471.432 280.506 472.083 280.506C472.975 280.506 473.713 280.288 474.296 279.852C474.878 279.422 475.169 278.734 475.169 277.788V275.408H475.02C474.878 275.666 474.673 275.952 474.405 276.267C474.143 276.583 473.781 276.856 473.319 277.087C472.857 277.318 472.257 277.434 471.516 277.434C470.561 277.434 469.7 277.21 468.934 276.764C468.173 276.312 467.569 275.648 467.123 274.77C466.682 273.888 466.462 272.803 466.462 271.516C466.462 270.229 466.68 269.125 467.115 268.206C467.556 267.287 468.16 266.583 468.926 266.094C469.693 265.601 470.561 265.354 471.532 265.354C472.283 265.354 472.889 265.48 473.351 265.732C473.812 265.979 474.172 266.268 474.429 266.599C474.692 266.93 474.894 267.222 475.036 267.473H475.209V265.511H477.515V277.883C477.515 278.923 477.274 279.776 476.791 280.444C476.308 281.111 475.655 281.605 474.831 281.925C474.012 282.246 473.088 282.406 472.059 282.406ZM472.036 275.479C472.713 275.479 473.285 275.322 473.752 275.007C474.225 274.686 474.582 274.229 474.823 273.635C475.069 273.037 475.193 272.32 475.193 271.484C475.193 270.67 475.072 269.953 474.831 269.333C474.589 268.713 474.235 268.23 473.768 267.883C473.301 267.531 472.723 267.355 472.036 267.355C471.327 267.355 470.737 267.539 470.265 267.907C469.792 268.27 469.435 268.763 469.194 269.388C468.958 270.014 468.84 270.712 468.84 271.484C468.84 272.277 468.96 272.974 469.201 273.572C469.443 274.171 469.8 274.639 470.272 274.975C470.75 275.311 471.338 275.479 472.036 275.479Z" fill="#333333"/>
<path d="M415.459 336.289L413.232 338.517C411.429 336.712 409.057 335.589 406.52 335.339C403.982 335.088 401.436 335.727 399.316 337.144C397.196 338.562 395.632 340.672 394.892 343.114C394.152 345.556 394.28 348.18 395.256 350.537C396.231 352.895 397.994 354.841 400.243 356.045C402.491 357.247 405.087 357.633 407.588 357.135C410.089 356.638 412.34 355.287 413.958 353.315C415.576 351.342 416.46 348.869 416.46 346.317H419.609C419.609 349.599 418.472 352.778 416.392 355.315C414.312 357.851 411.418 359.587 408.203 360.227C404.988 360.867 401.65 360.372 398.759 358.825C395.867 357.278 393.601 354.776 392.347 351.744C391.092 348.713 390.927 345.34 391.879 342.2C392.831 339.06 394.84 336.348 397.566 334.525C400.292 332.702 403.565 331.881 406.828 332.203C410.09 332.525 413.14 333.968 415.459 336.289Z" fill="black"/>
</svg>
