<svg width="807" height="590" viewBox="0 0 807 590" fill="none" xmlns="http://www.w3.org/2000/svg">
<path d="M803.674 48H3.32555C1.4889 48 0 49.6735 0 51.7379V586.262C0 588.326 1.4889 590 3.32555 590H803.674C805.511 590 807 588.326 807 586.262V51.7379C807 49.6735 805.511 48 803.674 48Z" fill="#FFD233"/>
<path d="M803.674 0H3.32555C1.4889 0 0 1.49018 0 3.32842V44.7729C0 46.6112 1.4889 48.1013 3.32555 48.1013H803.674C805.511 48.1013 807 46.6112 807 44.7729V3.32842C807 1.49018 805.511 0 803.674 0Z" fill="#F8F8F8"/>
<path d="M5.49707 28.8462V19.1635H8.94544C9.69812 19.1635 10.3217 19.3006 10.8161 19.5748C11.3105 19.849 11.6805 20.2241 11.9261 20.7C12.1718 21.1728 12.2946 21.7055 12.2946 22.2981C12.2946 22.8938 12.1702 23.4296 11.9214 23.9056C11.6758 24.3783 11.3042 24.7535 10.8066 25.0308C10.3122 25.305 9.69025 25.4421 8.94073 25.4421H6.56939V24.2034H8.80843C9.28398 24.2034 9.66974 24.1215 9.96577 23.9576C10.2618 23.7905 10.4791 23.5636 10.6176 23.2767C10.7562 22.9899 10.8255 22.6637 10.8255 22.2981C10.8255 21.9324 10.7562 21.6078 10.6176 21.3241C10.4791 21.0405 10.2602 20.8183 9.96106 20.6575C9.66503 20.4968 9.27456 20.4164 8.78958 20.4164H6.9567V28.8462H5.49707ZM13.6397 28.8462V21.5842H15.0049V22.7378H15.0805C15.2127 22.3469 15.4458 22.0396 15.7796 21.8158C16.1165 21.5889 16.4976 21.4755 16.9227 21.4755C17.0109 21.4755 17.1148 21.4786 17.2345 21.4849C17.3573 21.4912 17.4534 21.4991 17.5226 21.5085V22.8607C17.4659 22.8449 17.3652 22.8276 17.2203 22.8087C17.0755 22.7866 16.9306 22.7756 16.7858 22.7756C16.4519 22.7756 16.1543 22.8465 15.893 22.9883C15.6347 23.127 15.43 23.3209 15.2788 23.5699C15.1277 23.8157 15.0521 24.0963 15.0521 24.4115V28.8462H13.6397ZM21.2887 28.9927C20.6084 28.9927 20.0148 28.8368 19.5078 28.5247C19.0008 28.2127 18.6072 27.7761 18.3269 27.2151C18.0466 26.654 17.9064 25.9984 17.9064 25.2483C17.9064 24.4949 18.0466 23.8362 18.3269 23.272C18.6072 22.7079 19.0008 22.2697 19.5078 21.9577C20.0148 21.6456 20.6084 21.4896 21.2887 21.4896C21.9689 21.4896 22.5625 21.6456 23.0695 21.9577C23.5766 22.2697 23.9702 22.7079 24.2505 23.272C24.5308 23.8362 24.6709 24.4949 24.6709 25.2483C24.6709 25.9984 24.5308 26.654 24.2505 27.2151C23.9702 27.7761 23.5766 28.2127 23.0695 28.5247C22.5625 28.8368 21.9689 28.9927 21.2887 28.9927ZM21.2934 27.8061C21.7343 27.8061 22.0996 27.6895 22.3893 27.4562C22.679 27.223 22.8932 26.9125 23.0317 26.5248C23.1735 26.1371 23.2443 25.71 23.2443 25.2436C23.2443 24.7802 23.1735 24.3547 23.0317 23.967C22.8932 23.5762 22.679 23.2626 22.3893 23.0262C22.0996 22.7898 21.7343 22.6716 21.2934 22.6716C20.8494 22.6716 20.4809 22.7898 20.188 23.0262C19.8983 23.2626 19.6826 23.5762 19.5409 23.967C19.4023 24.3547 19.333 24.7802 19.333 25.2436C19.333 25.71 19.4023 26.1371 19.5409 26.5248C19.6826 26.9125 19.8983 27.223 20.188 27.4562C20.4809 27.6895 20.8494 27.8061 21.2934 27.8061ZM25.9948 21.5842H27.4072V29.319C27.4072 29.8044 27.319 30.2141 27.1426 30.5482C26.9694 30.8823 26.7112 31.136 26.3679 31.3094C26.0278 31.4827 25.6074 31.5694 25.1067 31.5694C25.0563 31.5694 25.009 31.5694 24.9649 31.5694C24.9177 31.5694 24.8689 31.5679 24.8185 31.5647V30.3496C24.8626 30.3496 24.902 30.3496 24.9366 30.3496C24.9681 30.3496 25.0043 30.3496 25.0453 30.3496C25.3791 30.3496 25.62 30.2598 25.768 30.0801C25.9192 29.9037 25.9948 29.6468 25.9948 29.3095V21.5842ZM26.6938 20.4637C26.4482 20.4637 26.2372 20.3817 26.0609 20.2178C25.8877 20.0508 25.801 19.8522 25.801 19.6221C25.801 19.3889 25.8877 19.1903 26.0609 19.0264C26.2372 18.8594 26.4482 18.7758 26.6938 18.7758C26.9395 18.7758 27.1489 18.8594 27.3221 19.0264C27.4985 19.1903 27.5866 19.3889 27.5866 19.6221C27.5866 19.8522 27.4985 20.0508 27.3221 20.2178C27.1489 20.3817 26.9395 20.4637 26.6938 20.4637ZM32.1817 28.9927C31.4668 28.9927 30.8512 28.8399 30.3347 28.5341C29.8214 28.2253 29.4246 27.7919 29.1443 27.234C28.8671 26.673 28.7286 26.0158 28.7286 25.2625C28.7286 24.5186 28.8671 23.863 29.1443 23.2957C29.4246 22.7283 29.8151 22.2855 30.3158 21.9671C30.8197 21.6488 31.4086 21.4896 32.0825 21.4896C32.4919 21.4896 32.8887 21.5574 33.2729 21.6929C33.6571 21.8284 34.002 22.0412 34.3074 22.3312C34.6129 22.6212 34.8538 22.9978 35.0302 23.4611C35.2065 23.9213 35.2947 24.4808 35.2947 25.1395V25.6407H29.5269V24.5816H33.9106C33.9106 24.2097 33.835 23.8804 33.6839 23.5935C33.5327 23.3035 33.3201 23.075 33.0461 22.908C32.7753 22.7409 32.4572 22.6574 32.0919 22.6574C31.6951 22.6574 31.3487 22.7551 31.0527 22.9506C30.7598 23.1428 30.5331 23.395 30.3725 23.707C30.215 24.0159 30.1363 24.3515 30.1363 24.714V25.5414C30.1363 26.0268 30.2213 26.4397 30.3914 26.7801C30.5646 27.1205 30.8055 27.3806 31.1141 27.5602C31.4227 27.7367 31.7833 27.825 32.1958 27.825C32.4636 27.825 32.7076 27.7871 32.9281 27.7115C33.1485 27.6327 33.339 27.5161 33.4996 27.3617C33.6603 27.2072 33.7831 27.0165 33.8681 26.7896L35.2049 27.0307C35.0978 27.4247 34.9057 27.7698 34.6286 28.0661C34.3546 28.3592 34.0098 28.5877 33.5941 28.7516C33.1815 28.9124 32.7108 28.9927 32.1817 28.9927ZM39.6654 28.9927C38.9631 28.9927 38.3584 28.8336 37.8514 28.5152C37.3475 28.1938 36.9602 27.7509 36.6893 27.1867C36.4185 26.6225 36.2831 25.9764 36.2831 25.2483C36.2831 24.5108 36.4217 23.8599 36.6988 23.2957C36.9759 22.7283 37.3664 22.2855 37.8703 21.9671C38.3742 21.6488 38.9678 21.4896 39.6512 21.4896C40.2023 21.4896 40.6936 21.5921 41.125 21.7969C41.5564 21.9986 41.9044 22.2823 42.1689 22.6479C42.4367 23.0136 42.5957 23.4407 42.6461 23.9292H41.2714C41.1958 23.5888 41.0226 23.2957 40.7518 23.0498C40.4841 22.804 40.1251 22.6811 39.6748 22.6811C39.2812 22.6811 38.9363 22.7851 38.6403 22.9931C38.3474 23.198 38.1191 23.4911 37.9553 23.8725C37.7916 24.2507 37.7097 24.6983 37.7097 25.2152C37.7097 25.7447 37.79 26.2018 37.9506 26.5862C38.1112 26.9708 38.338 27.2686 38.6308 27.4798C38.9269 27.691 39.2748 27.7966 39.6748 27.7966C39.9425 27.7966 40.185 27.7478 40.4023 27.6501C40.6227 27.5492 40.8069 27.4058 40.955 27.2198C41.1061 27.0339 41.2116 26.81 41.2714 26.5485H42.6461C42.5957 27.0181 42.4429 27.4373 42.1879 27.8061C41.9328 28.1748 41.5911 28.4648 41.1628 28.676C40.7376 28.8872 40.2385 28.9927 39.6654 28.9927ZM47.2907 21.5842V22.7188H43.3275V21.5842H47.2907ZM44.3903 19.8443H45.8027V26.7139C45.8027 26.9882 45.8436 27.1946 45.9255 27.3333C46.0074 27.4688 46.1129 27.5618 46.242 27.6122C46.3743 27.6595 46.5176 27.6831 46.6719 27.6831C46.7853 27.6831 46.8845 27.6753 46.9695 27.6595C47.0545 27.6437 47.1206 27.6311 47.1679 27.6217L47.423 28.7894C47.3411 28.8209 47.2246 28.8525 47.0734 28.884C46.9223 28.9187 46.7333 28.9376 46.5066 28.9408C46.1349 28.947 45.7885 28.8809 45.4673 28.7422C45.1461 28.6035 44.8863 28.3891 44.6879 28.0992C44.4895 27.8092 44.3903 27.4451 44.3903 27.0071V19.8443ZM50.6694 28.8462L47.9013 19.1635H50.1356L51.7369 25.8913H51.8173L53.584 19.1635H55.4969L57.2589 25.9055H57.3443L58.9455 19.1635H61.1797L58.4118 28.8462H56.4181L54.576 22.5156H54.5004L52.6628 28.8462H50.6694ZM61.984 28.8462V21.5842H63.9965V28.8462H61.984ZM62.9949 20.6481C62.6956 20.6481 62.439 20.5488 62.2251 20.3502C62.0139 20.1485 61.9086 19.9074 61.9086 19.6268C61.9086 19.3495 62.0139 19.1115 62.2251 18.913C62.439 18.7112 62.6956 18.6104 62.9949 18.6104C63.2942 18.6104 63.5492 18.7112 63.7604 18.913C63.9743 19.1115 64.0813 19.3495 64.0813 19.6268C64.0813 19.9074 63.9743 20.1485 63.7604 20.3502C63.5492 20.5488 63.2942 20.6481 62.9949 20.6481ZM65.3555 28.8462V21.5842H67.3065V22.8513H67.3819C67.5143 22.4005 67.7366 22.0601 68.0481 21.83C68.3601 21.5968 68.7188 21.4802 69.125 21.4802C69.2259 21.4802 69.3345 21.4865 69.4509 21.4991C69.5679 21.5117 69.6699 21.529 69.758 21.5511V23.3382C69.6638 23.3099 69.533 23.2846 69.3661 23.2626C69.1993 23.2405 69.0463 23.2295 68.9078 23.2295C68.6118 23.2295 68.3474 23.2941 68.1141 23.4233C67.8846 23.5494 67.7017 23.7259 67.5664 23.9529C67.434 24.1798 67.368 24.4414 67.368 24.7377V28.8462H65.3555ZM73.5147 28.988C72.7682 28.988 72.1258 28.8368 71.5876 28.5341C71.0522 28.2284 70.6398 27.7966 70.3499 27.2387C70.0601 26.6777 69.9154 26.0142 69.9154 25.2483C69.9154 24.5013 70.0601 23.8457 70.3499 23.2815C70.6398 22.7173 71.0472 22.2776 71.5732 21.9624C72.1025 21.6472 72.7227 21.4896 73.4344 21.4896C73.9133 21.4896 74.3589 21.5668 74.7713 21.7213C75.1869 21.8726 75.5489 22.1011 75.8576 22.4068C76.1696 22.7126 76.4119 23.0971 76.5853 23.5604C76.7583 24.0206 76.8453 24.5596 76.8453 25.1774V25.7305H70.7185V24.4824H74.9508C74.9508 24.1924 74.8876 23.9355 74.7618 23.7117C74.636 23.4879 74.4609 23.313 74.2375 23.1869C74.0169 23.0577 73.7603 22.9931 73.4676 22.9931C73.1622 22.9931 72.8912 23.064 72.6551 23.2058C72.4218 23.3445 72.2394 23.5321 72.1069 23.7685C71.975 24.0017 71.9068 24.2617 71.9041 24.5485V25.7352C71.9041 26.0946 71.97 26.405 72.1025 26.6666C72.2377 26.9282 72.4284 27.1299 72.6739 27.2718C72.9195 27.4136 73.211 27.4846 73.548 27.4846C73.7714 27.4846 73.9759 27.453 74.1621 27.39C74.3478 27.327 74.5069 27.2324 74.6388 27.1063C74.7713 26.9803 74.8721 26.8258 74.9414 26.643L76.8026 26.7659C76.7078 27.2135 76.5144 27.6044 76.2217 27.9384C75.9319 28.2694 75.5572 28.5278 75.0972 28.7138C74.6404 28.8966 74.1133 28.988 73.5147 28.988Z" fill="#333333"/>
<path d="M727.187 130.363H79.2591C77.4225 130.363 75.9336 131.853 75.9336 133.692V448.782C75.9336 450.62 77.4225 452.111 79.2591 452.111H727.187C729.024 452.111 730.513 450.62 730.513 448.782V133.692C730.513 131.853 729.024 130.363 727.187 130.363Z" fill="#4ECB71"/>
<path d="M481.65 322.302H325.904C324.067 322.302 322.578 323.792 322.578 325.63V355.031C322.578 356.869 324.067 358.36 325.904 358.36H481.65C483.487 358.36 484.976 356.869 484.976 355.031V325.63C484.976 323.792 483.487 322.302 481.65 322.302Z" fill="#FF9A62"/>
<path d="M352.177 338.703C352.139 338.322 351.977 338.026 351.69 337.814C351.404 337.603 351.015 337.498 350.524 337.498C350.19 337.498 349.908 337.545 349.678 337.64C349.448 337.731 349.272 337.859 349.149 338.022C349.029 338.187 348.969 338.372 348.969 338.581C348.963 338.754 348.999 338.905 349.078 339.034C349.16 339.164 349.272 339.276 349.414 339.37C349.555 339.461 349.719 339.542 349.905 339.611C350.091 339.677 350.289 339.734 350.5 339.781L351.369 339.99C351.791 340.084 352.179 340.21 352.532 340.367C352.884 340.525 353.19 340.719 353.448 340.949C353.706 341.179 353.906 341.45 354.048 341.762C354.193 342.074 354.267 342.432 354.27 342.835C354.267 343.428 354.115 343.942 353.816 344.377C353.52 344.809 353.092 345.144 352.532 345.384C351.974 345.62 351.302 345.738 350.514 345.738C349.733 345.738 349.053 345.618 348.474 345.379C347.898 345.14 347.447 344.785 347.123 344.315C346.801 343.843 346.633 343.258 346.617 342.561H348.596C348.619 342.886 348.711 343.157 348.875 343.375C349.042 343.589 349.264 343.751 349.541 343.862C349.821 343.969 350.138 344.022 350.491 344.022C350.837 344.022 351.138 343.971 351.393 343.871C351.651 343.77 351.851 343.63 351.993 343.45C352.135 343.27 352.205 343.064 352.205 342.831C352.205 342.613 352.141 342.43 352.012 342.282C351.886 342.134 351.7 342.008 351.454 341.904C351.212 341.8 350.914 341.705 350.562 341.62L349.508 341.356C348.692 341.157 348.048 340.847 347.576 340.424C347.104 340.002 346.869 339.433 346.872 338.718C346.869 338.131 347.025 337.619 347.34 337.181C347.658 336.743 348.094 336.401 348.649 336.155C349.203 335.909 349.832 335.786 350.538 335.786C351.256 335.786 351.883 335.909 352.418 336.155C352.957 336.401 353.375 336.743 353.675 337.181C353.974 337.619 354.128 338.127 354.137 338.703H352.177ZM358.662 345.743C357.915 345.743 357.273 345.592 356.735 345.289C356.199 344.983 355.786 344.552 355.497 343.994C355.207 343.433 355.062 342.769 355.062 342.003C355.062 341.257 355.207 340.601 355.497 340.037C355.786 339.473 356.194 339.033 356.72 338.718C357.25 338.402 357.87 338.245 358.581 338.245C359.06 338.245 359.506 338.322 359.918 338.476C360.334 338.628 360.696 338.856 361.005 339.162C361.317 339.468 361.559 339.852 361.732 340.316C361.905 340.776 361.992 341.315 361.992 341.932V342.486H355.865V341.238H360.098C360.098 340.948 360.035 340.691 359.909 340.467C359.783 340.243 359.608 340.068 359.385 339.942C359.164 339.813 358.907 339.748 358.615 339.748C358.309 339.748 358.038 339.819 357.802 339.961C357.569 340.099 357.386 340.287 357.254 340.524C357.121 340.757 357.054 341.017 357.051 341.304V342.49C357.051 342.85 357.117 343.16 357.25 343.422C357.385 343.684 357.575 343.885 357.821 344.027C358.066 344.169 358.358 344.239 358.695 344.239C358.918 344.239 359.123 344.208 359.309 344.145C359.495 344.082 359.654 343.988 359.786 343.862C359.918 343.735 360.019 343.581 360.088 343.398L361.95 343.521C361.855 343.969 361.661 344.359 361.368 344.694C361.079 345.024 360.704 345.283 360.244 345.469C359.787 345.652 359.26 345.743 358.662 345.743ZM366.912 338.339V339.852H362.542V338.339H366.912ZM363.534 336.6H365.547V343.37C365.547 343.555 365.575 343.701 365.632 343.804C365.688 343.905 365.767 343.976 365.868 344.017C365.972 344.059 366.092 344.079 366.227 344.079C366.321 344.079 366.416 344.071 366.51 344.055C366.605 344.036 366.677 344.022 366.727 344.012L367.044 345.511C366.944 345.543 366.802 345.579 366.619 345.62C366.436 345.664 366.214 345.691 365.953 345.701C365.468 345.719 365.043 345.655 364.678 345.507C364.315 345.358 364.034 345.129 363.832 344.816C363.63 344.505 363.531 344.11 363.534 343.635V336.6ZM372.623 342.509V338.339H374.635V345.601H372.703V344.282H372.627C372.464 344.708 372.191 345.05 371.81 345.308C371.432 345.566 370.971 345.696 370.426 345.696C369.941 345.696 369.515 345.586 369.146 345.365C368.778 345.144 368.489 344.831 368.281 344.424C368.077 344.017 367.973 343.53 367.97 342.963V338.339H369.983V342.604C369.985 343.032 370.101 343.371 370.327 343.62C370.554 343.869 370.858 343.994 371.239 343.994C371.481 343.994 371.708 343.939 371.919 343.828C372.13 343.715 372.3 343.548 372.429 343.327C372.561 343.107 372.626 342.834 372.623 342.509ZM375.992 348.324V338.339H377.976V339.559H378.066C378.154 339.364 378.281 339.165 378.448 338.963C378.618 338.759 378.839 338.588 379.11 338.453C379.384 338.314 379.724 338.245 380.13 338.245C380.659 338.245 381.147 338.384 381.594 338.661C382.042 338.935 382.399 339.349 382.667 339.904C382.934 340.456 383.069 341.148 383.069 341.98C383.069 342.79 382.938 343.474 382.676 344.031C382.418 344.586 382.065 345.007 381.618 345.294C381.174 345.577 380.676 345.719 380.125 345.719C379.735 345.719 379.403 345.655 379.129 345.526C378.858 345.397 378.636 345.234 378.463 345.039C378.289 344.84 378.157 344.64 378.066 344.438H378.004V348.324H375.992ZM377.962 341.971C377.962 342.402 378.021 342.779 378.141 343.1C378.261 343.422 378.434 343.672 378.661 343.852C378.888 344.029 379.163 344.117 379.487 344.117C379.815 344.117 380.092 344.027 380.319 343.847C380.546 343.665 380.717 343.412 380.834 343.091C380.953 342.766 381.013 342.393 381.013 341.971C381.013 341.551 380.955 341.182 380.839 340.864C380.722 340.545 380.551 340.296 380.324 340.117C380.097 339.937 379.818 339.848 379.487 339.848C379.16 339.848 378.883 339.934 378.656 340.108C378.433 340.281 378.261 340.527 378.141 340.845C378.021 341.163 377.962 341.538 377.962 341.971ZM389.052 345.738C388.589 345.738 388.177 345.658 387.815 345.497C387.452 345.333 387.166 345.092 386.955 344.774C386.747 344.452 386.643 344.052 386.643 343.573C386.643 343.169 386.717 342.831 386.865 342.556C387.013 342.282 387.214 342.061 387.47 341.894C387.725 341.728 388.015 341.602 388.339 341.516C388.667 341.431 389.01 341.371 389.369 341.336C389.791 341.293 390.131 341.252 390.389 341.214C390.647 341.173 390.835 341.113 390.951 341.034C391.068 340.955 391.126 340.839 391.126 340.684V340.656C391.126 340.356 391.032 340.125 390.843 339.961C390.657 339.797 390.392 339.715 390.049 339.715C389.687 339.715 389.399 339.795 389.184 339.956C388.97 340.114 388.828 340.312 388.759 340.552L386.898 340.401C386.993 339.96 387.178 339.578 387.455 339.256C387.733 338.932 388.09 338.683 388.528 338.509C388.969 338.333 389.479 338.245 390.058 338.245C390.461 338.245 390.847 338.292 391.216 338.386C391.587 338.481 391.916 338.628 392.203 338.826C392.493 339.025 392.721 339.28 392.888 339.592C393.055 339.901 393.138 340.271 393.138 340.703V345.601H391.23V344.594H391.173C391.057 344.821 390.901 345.022 390.706 345.195C390.51 345.365 390.276 345.499 390.002 345.596C389.727 345.691 389.411 345.738 389.052 345.738ZM389.628 344.348C389.925 344.348 390.186 344.29 390.412 344.173C390.639 344.054 390.817 343.893 390.946 343.691C391.075 343.489 391.14 343.261 391.14 343.006V342.235C391.077 342.276 390.991 342.314 390.88 342.348C390.773 342.38 390.652 342.41 390.517 342.438C390.381 342.464 390.246 342.487 390.11 342.509C389.975 342.528 389.852 342.545 389.742 342.561C389.506 342.596 389.3 342.651 389.123 342.727C388.946 342.803 388.81 342.905 388.712 343.034C388.614 343.16 388.566 343.318 388.566 343.507C388.566 343.781 388.665 343.991 388.863 344.136C389.065 344.278 389.32 344.348 389.628 344.348ZM396.459 341.403V345.601H394.447V338.339H396.365V339.621H396.449C396.61 339.198 396.88 338.864 397.258 338.618C397.635 338.369 398.093 338.245 398.632 338.245C399.136 338.245 399.575 338.355 399.95 338.576C400.325 338.796 400.616 339.111 400.824 339.521C401.031 339.928 401.136 340.413 401.136 340.978V345.601H399.123V341.336C399.127 340.892 399.013 340.545 398.783 340.297C398.553 340.044 398.237 339.919 397.833 339.919C397.563 339.919 397.323 339.977 397.116 340.093C396.911 340.21 396.75 340.38 396.634 340.604C396.52 340.824 396.462 341.091 396.459 341.403ZM405.747 345.743C405.013 345.743 404.379 345.587 403.843 345.275C403.311 344.96 402.9 344.522 402.611 343.961C402.321 343.397 402.176 342.743 402.176 341.999C402.176 341.248 402.321 340.593 402.611 340.032C402.9 339.468 403.311 339.029 403.843 338.718C404.379 338.402 405.013 338.245 405.747 338.245C406.481 338.245 407.114 338.402 407.646 338.718C408.181 339.029 408.594 339.468 408.884 340.032C409.174 340.593 409.318 341.248 409.318 341.999C409.318 342.743 409.174 343.397 408.884 343.961C408.594 344.522 408.181 344.96 407.646 345.275C407.114 345.587 406.481 345.743 405.747 345.743ZM405.757 344.183C406.09 344.183 406.369 344.088 406.593 343.899C406.816 343.707 406.985 343.446 407.098 343.114C407.215 342.783 407.273 342.407 407.273 341.984C407.273 341.562 407.215 341.186 407.098 340.854C406.985 340.524 406.816 340.262 406.593 340.069C406.369 339.877 406.09 339.781 405.757 339.781C405.42 339.781 405.136 339.877 404.906 340.069C404.68 340.262 404.508 340.524 404.391 340.854C404.278 341.186 404.221 341.562 404.221 341.984C404.221 342.407 404.278 342.783 404.391 343.114C404.508 343.446 404.68 343.707 404.906 343.899C405.136 344.088 405.42 344.183 405.757 344.183ZM414.233 338.339V339.852H409.864V338.339H414.233ZM410.856 336.6H412.868V343.37C412.868 343.555 412.897 343.701 412.953 343.804C413.01 343.905 413.089 343.976 413.19 344.017C413.293 344.059 413.413 344.079 413.548 344.079C413.643 344.079 413.737 344.071 413.832 344.055C413.926 344.036 413.999 344.022 414.049 344.012L414.366 345.511C414.265 345.543 414.123 345.579 413.941 345.62C413.758 345.664 413.536 345.691 413.274 345.701C412.79 345.719 412.364 345.655 411.999 345.507C411.637 345.358 411.355 345.129 411.153 344.816C410.952 344.505 410.853 344.11 410.856 343.635V336.6ZM417.46 341.403V345.601H415.447V335.918H417.403V339.621H417.488C417.652 339.192 417.916 338.856 418.282 338.613C418.647 338.367 419.105 338.245 419.656 338.245C420.16 338.245 420.6 338.355 420.974 338.576C421.352 338.793 421.645 339.107 421.853 339.516C422.064 339.923 422.168 340.41 422.165 340.978V345.601H420.152V341.336C420.156 340.889 420.042 340.541 419.812 340.292C419.585 340.043 419.267 339.919 418.858 339.919C418.584 339.919 418.342 339.977 418.13 340.093C417.922 340.21 417.759 340.38 417.639 340.604C417.523 340.824 417.463 341.091 417.46 341.403ZM426.802 345.743C426.056 345.743 425.413 345.592 424.875 345.289C424.34 344.983 423.927 344.552 423.637 343.994C423.348 343.433 423.203 342.769 423.203 342.003C423.203 341.257 423.348 340.601 423.637 340.037C423.927 339.473 424.335 339.033 424.861 338.718C425.39 338.402 426.01 338.245 426.722 338.245C427.201 338.245 427.646 338.322 428.059 338.476C428.474 338.628 428.836 338.856 429.145 339.162C429.457 339.468 429.699 339.852 429.873 340.316C430.046 340.776 430.132 341.315 430.132 341.932V342.486H424.005V341.238H428.238C428.238 340.948 428.175 340.691 428.049 340.467C427.924 340.243 427.748 340.068 427.525 339.942C427.304 339.813 427.048 339.748 426.755 339.748C426.449 339.748 426.179 339.819 425.943 339.961C425.709 340.099 425.527 340.287 425.394 340.524C425.262 340.757 425.194 341.017 425.192 341.304V342.49C425.192 342.85 425.258 343.16 425.39 343.422C425.525 343.684 425.716 343.885 425.961 344.027C426.207 344.169 426.499 344.239 426.836 344.239C427.059 344.239 427.263 344.208 427.449 344.145C427.635 344.082 427.794 343.988 427.926 343.862C428.059 343.735 428.16 343.581 428.229 343.398L430.09 343.521C429.995 343.969 429.802 344.359 429.509 344.694C429.219 345.024 428.845 345.283 428.385 345.469C427.928 345.652 427.4 345.743 426.802 345.743ZM431.193 345.601V338.339H433.144V339.606H433.219C433.352 339.156 433.574 338.815 433.886 338.585C434.197 338.352 434.556 338.235 434.963 338.235C435.063 338.235 435.172 338.242 435.289 338.254C435.405 338.267 435.507 338.284 435.596 338.306V340.093C435.501 340.065 435.371 340.039 435.203 340.018C435.036 339.996 434.884 339.985 434.745 339.985C434.449 339.985 434.184 340.049 433.952 340.178C433.722 340.305 433.539 340.481 433.403 340.708C433.272 340.935 433.205 341.197 433.205 341.493V345.601H431.193ZM439.209 345.601V338.339H441.127V339.621H441.212C441.363 339.195 441.615 338.86 441.968 338.613C442.32 338.367 442.743 338.245 443.234 338.245C443.732 338.245 444.155 338.369 444.505 338.618C444.854 338.864 445.087 339.198 445.204 339.621H445.279C445.427 339.205 445.695 338.872 446.082 338.623C446.473 338.371 446.934 338.245 447.466 338.245C448.143 338.245 448.693 338.461 449.115 338.892C449.54 339.321 449.752 339.93 449.752 340.717V345.601H447.745V341.115C447.745 340.711 447.638 340.408 447.424 340.207C447.21 340.005 446.942 339.904 446.621 339.904C446.256 339.904 445.971 340.021 445.766 340.254C445.561 340.484 445.459 340.788 445.459 341.167V345.601H443.508V341.072C443.508 340.716 443.406 340.432 443.201 340.221C442.999 340.01 442.733 339.904 442.402 339.904C442.179 339.904 441.977 339.961 441.798 340.074C441.621 340.185 441.481 340.341 441.378 340.543C441.273 340.741 441.221 340.974 441.221 341.242V345.601H439.209ZM451.089 345.601V338.339H453.102V345.601H451.089ZM452.1 337.403C451.801 337.403 451.544 337.304 451.33 337.105C451.119 336.904 451.014 336.662 451.014 336.382C451.014 336.105 451.119 335.867 451.33 335.668C451.544 335.466 451.801 335.365 452.1 335.365C452.4 335.365 452.655 335.466 452.866 335.668C453.08 335.867 453.187 336.105 453.187 336.382C453.187 336.662 453.08 336.904 452.866 337.105C452.655 337.304 452.4 337.403 452.1 337.403ZM457.739 345.743C456.996 345.743 456.357 345.586 455.822 345.27C455.289 344.952 454.88 344.511 454.593 343.946C454.31 343.382 454.168 342.733 454.168 341.999C454.168 341.255 454.311 340.603 454.598 340.041C454.888 339.477 455.299 339.038 455.831 338.722C456.363 338.404 456.996 338.245 457.73 338.245C458.363 338.245 458.917 338.36 459.393 338.59C459.868 338.82 460.245 339.143 460.522 339.559C460.799 339.975 460.952 340.464 460.98 341.025H459.081C459.027 340.662 458.885 340.371 458.656 340.15C458.429 339.926 458.132 339.814 457.763 339.814C457.451 339.814 457.179 339.9 456.946 340.069C456.716 340.237 456.537 340.481 456.407 340.802C456.278 341.124 456.213 341.513 456.213 341.971C456.213 342.434 456.277 342.828 456.402 343.152C456.532 343.477 456.713 343.724 456.946 343.894C457.179 344.065 457.451 344.15 457.763 344.15C457.993 344.15 458.199 344.102 458.382 344.008C458.567 343.913 458.72 343.776 458.84 343.596C458.963 343.414 459.043 343.195 459.081 342.94H460.98C460.948 343.494 460.797 343.983 460.527 344.405C460.259 344.824 459.889 345.152 459.416 345.388C458.944 345.625 458.385 345.743 457.739 345.743Z" fill="#333333"/>
<path d="M481.65 275.149H325.904C324.067 275.149 322.578 276.64 322.578 278.478V307.879C322.578 309.717 324.067 311.207 325.904 311.207H481.65C483.487 311.207 484.976 309.717 484.976 307.879V278.478C484.976 276.64 483.487 275.149 481.65 275.149Z" fill="#4ECB71" stroke="black" stroke-opacity="0.2" stroke-width="4" stroke-miterlimit="0"/>
<path d="M385.712 298.449V288.766H392.117V290.454H387.757V292.761H391.692V294.449H387.757V298.449H385.712ZM393.203 298.449V291.187H395.215V298.449H393.203ZM394.214 290.251C393.914 290.251 393.658 290.152 393.444 289.953C393.233 289.751 393.127 289.51 393.127 289.23C393.127 288.952 393.233 288.714 393.444 288.516C393.658 288.314 393.914 288.213 394.214 288.213C394.513 288.213 394.768 288.314 394.979 288.516C395.193 288.714 395.3 288.952 395.3 289.23C395.3 289.51 395.193 289.751 394.979 289.953C394.768 290.152 394.513 290.251 394.214 290.251ZM398.587 294.251V298.449H396.574V291.187H398.492V292.468H398.577C398.738 292.046 399.007 291.712 399.385 291.466C399.763 291.217 400.221 291.093 400.759 291.093C401.263 291.093 401.703 291.203 402.078 291.423C402.452 291.644 402.744 291.959 402.952 292.369C403.159 292.776 403.263 293.261 403.263 293.825V298.449H401.251V294.184C401.254 293.74 401.141 293.393 400.911 293.145C400.681 292.892 400.364 292.766 399.961 292.766C399.69 292.766 399.451 292.824 399.243 292.941C399.039 293.057 398.878 293.228 398.761 293.451C398.648 293.672 398.59 293.938 398.587 294.251ZM404.597 298.449V291.187H406.609V298.449H404.597ZM405.608 290.251C405.308 290.251 405.052 290.152 404.837 289.953C404.627 289.751 404.521 289.51 404.521 289.23C404.521 288.952 404.627 288.714 404.837 288.516C405.052 288.314 405.308 288.213 405.608 288.213C405.906 288.213 406.162 288.314 406.372 288.516C406.587 288.714 406.694 288.952 406.694 289.23C406.694 289.51 406.587 289.751 406.372 289.953C406.162 290.152 405.906 290.251 405.608 290.251ZM414.005 293.258L412.163 293.371C412.131 293.213 412.064 293.072 411.959 292.946C411.856 292.817 411.719 292.714 411.549 292.639C411.382 292.56 411.182 292.52 410.949 292.52C410.637 292.52 410.374 292.586 410.16 292.718C409.946 292.848 409.839 293.021 409.839 293.239C409.839 293.412 409.908 293.559 410.047 293.679C410.185 293.798 410.423 293.895 410.76 293.967L412.073 294.232C412.779 294.377 413.305 294.61 413.651 294.931C413.997 295.253 414.17 295.675 414.17 296.198C414.17 296.674 414.03 297.092 413.75 297.452C413.473 297.81 413.092 298.091 412.607 298.293C412.125 298.492 411.569 298.591 410.94 298.591C409.979 298.591 409.214 298.391 408.643 297.99C408.077 297.587 407.744 297.038 407.647 296.345L409.626 296.241C409.686 296.534 409.831 296.758 410.06 296.912C410.29 297.064 410.585 297.139 410.944 297.139C411.297 297.139 411.58 297.072 411.794 296.936C412.011 296.797 412.122 296.619 412.125 296.402C412.122 296.219 412.045 296.069 411.893 295.953C411.742 295.833 411.509 295.741 411.195 295.679L409.938 295.428C409.229 295.286 408.702 295.04 408.356 294.69C408.012 294.341 407.841 293.895 407.841 293.352C407.841 292.886 407.967 292.484 408.218 292.147C408.474 291.809 408.831 291.549 409.291 291.367C409.753 291.184 410.295 291.093 410.916 291.093C411.832 291.093 412.553 291.286 413.079 291.674C413.608 292.062 413.917 292.589 414.005 293.258ZM417.197 294.251V298.449H415.185V288.766H417.141V292.468H417.225C417.389 292.039 417.654 291.704 418.019 291.461C418.384 291.215 418.843 291.093 419.394 291.093C419.897 291.093 420.337 291.203 420.712 291.423C421.09 291.641 421.382 291.955 421.59 292.364C421.801 292.771 421.905 293.258 421.902 293.825V298.449H419.89V294.184C419.893 293.737 419.779 293.389 419.549 293.14C419.323 292.89 419.005 292.766 418.596 292.766C418.321 292.766 418.079 292.824 417.868 292.941C417.66 293.057 417.496 293.228 417.377 293.451C417.26 293.672 417.2 293.938 417.197 294.251Z" fill="#333333"/>
<path d="M333.786 231.023V214.885H340.147C341.371 214.885 342.413 215.119 343.273 215.586C344.134 216.049 344.79 216.692 345.242 217.517C345.698 218.336 345.926 219.282 345.926 220.353C345.926 221.425 345.695 222.37 345.233 223.19C344.772 224.01 344.103 224.648 343.226 225.105C342.354 225.562 341.3 225.79 340.061 225.79H336.006V223.056H339.51C340.166 223.056 340.707 222.944 341.132 222.717C341.562 222.486 341.882 222.169 342.092 221.764C342.307 221.354 342.415 220.884 342.415 220.353C342.415 219.818 342.307 219.35 342.092 218.951C341.882 218.547 341.562 218.234 341.132 218.013C340.701 217.787 340.156 217.675 339.494 217.675H337.195V231.023H333.786ZM350.944 214.885V231.023H347.59V214.885H350.944ZM356.591 231.251C355.82 231.251 355.132 231.118 354.528 230.85C353.925 230.576 353.447 230.175 353.095 229.644C352.749 229.108 352.576 228.441 352.576 227.642C352.576 226.97 352.699 226.405 352.946 225.948C353.192 225.491 353.528 225.124 353.953 224.845C354.378 224.567 354.862 224.356 355.402 224.214C355.948 224.073 356.52 223.973 357.119 223.915C357.822 223.842 358.389 223.773 358.819 223.71C359.249 223.642 359.562 223.542 359.756 223.411C359.95 223.28 360.047 223.085 360.047 222.828V222.78C360.047 222.282 359.89 221.895 359.575 221.622C359.265 221.349 358.824 221.212 358.252 221.212C357.649 221.212 357.169 221.346 356.812 221.614C356.455 221.877 356.219 222.208 356.103 222.607L353.001 222.355C353.159 221.619 353.468 220.984 353.93 220.448C354.392 219.907 354.988 219.492 355.717 219.203C356.452 218.909 357.302 218.762 358.268 218.762C358.94 218.762 359.583 218.841 360.197 218.998C360.816 219.156 361.365 219.4 361.842 219.731C362.325 220.062 362.706 220.488 362.984 221.007C363.262 221.522 363.401 222.14 363.401 222.859V231.023H360.22V229.345H360.126C359.932 229.722 359.672 230.056 359.346 230.345C359.021 230.629 358.63 230.852 358.173 231.015C357.717 231.172 357.189 231.251 356.591 231.251ZM357.552 228.935C358.045 228.935 358.481 228.838 358.859 228.643C359.237 228.443 359.533 228.176 359.748 227.839C359.963 227.503 360.071 227.122 360.071 226.697V225.412C359.966 225.481 359.822 225.544 359.638 225.601C359.459 225.654 359.258 225.704 359.031 225.751C358.806 225.793 358.58 225.833 358.355 225.869C358.129 225.901 357.924 225.93 357.741 225.956C357.347 226.014 357.003 226.106 356.709 226.232C356.415 226.358 356.187 226.529 356.024 226.744C355.862 226.954 355.78 227.217 355.78 227.532C355.78 227.989 355.945 228.338 356.276 228.58C356.612 228.817 357.037 228.935 357.552 228.935ZM367.153 235.562C366.728 235.562 366.329 235.527 365.956 235.459C365.589 235.396 365.285 235.315 365.043 235.215L365.799 232.709C366.193 232.83 366.547 232.896 366.861 232.906C367.182 232.917 367.457 232.843 367.688 232.685C367.925 232.528 368.116 232.26 368.263 231.881L368.46 231.369L364.122 218.919H367.649L370.153 227.808H370.278L372.806 218.919H376.356L371.656 232.331C371.431 232.982 371.124 233.55 370.735 234.033C370.352 234.521 369.867 234.897 369.279 235.159C368.691 235.427 367.982 235.562 367.153 235.562ZM377.585 231.023V218.919H380.939V231.023H377.585ZM379.27 217.359C378.771 217.359 378.344 217.194 377.987 216.863C377.635 216.526 377.459 216.125 377.459 215.657C377.459 215.195 377.635 214.798 377.987 214.467C378.344 214.131 378.771 213.963 379.27 213.963C379.769 213.963 380.194 214.131 380.546 214.467C380.903 214.798 381.081 215.195 381.081 215.657C381.081 216.125 380.903 216.526 380.546 216.863C380.194 217.194 379.769 217.359 379.27 217.359ZM386.492 224.025V231.023H383.138V218.919H386.334V221.055H386.476C386.744 220.351 387.192 219.794 387.822 219.384C388.452 218.969 389.216 218.762 390.113 218.762C390.953 218.762 391.686 218.946 392.31 219.313C392.934 219.681 393.42 220.206 393.766 220.889C394.113 221.567 394.286 222.376 394.286 223.316V231.023H390.932V223.915C390.937 223.174 390.748 222.597 390.365 222.182C389.982 221.761 389.455 221.551 388.783 221.551C388.331 221.551 387.933 221.648 387.586 221.843C387.245 222.037 386.977 222.321 386.783 222.694C386.594 223.062 386.497 223.505 386.492 224.025ZM401.889 235.813C400.803 235.813 399.871 235.664 399.095 235.365C398.323 235.07 397.709 234.668 397.253 234.159C396.796 233.649 396.499 233.077 396.363 232.441L399.465 232.023C399.559 232.265 399.709 232.491 399.914 232.701C400.118 232.911 400.389 233.079 400.724 233.206C401.066 233.337 401.48 233.403 401.969 233.403C402.698 233.403 403.299 233.224 403.771 232.867C404.249 232.514 404.488 231.924 404.488 231.094V228.879H404.346C404.199 229.216 403.979 229.533 403.685 229.833C403.391 230.132 403.013 230.376 402.551 230.566C402.089 230.755 401.538 230.85 400.898 230.85C399.989 230.85 399.163 230.639 398.418 230.219C397.678 229.793 397.087 229.145 396.646 228.273C396.211 227.395 395.993 226.287 395.993 224.947C395.993 223.576 396.216 222.431 396.662 221.512C397.108 220.593 397.702 219.904 398.441 219.448C399.187 218.99 400.003 218.762 400.89 218.762C401.567 218.762 402.134 218.877 402.591 219.109C403.047 219.334 403.414 219.618 403.692 219.96C403.976 220.296 404.194 220.627 404.346 220.953H404.472V218.919H407.802V231.141C407.802 232.17 407.551 233.032 407.046 233.725C406.543 234.419 405.845 234.939 404.952 235.286C404.066 235.638 403.045 235.813 401.889 235.813ZM401.96 228.328C402.501 228.328 402.958 228.194 403.331 227.926C403.709 227.653 403.997 227.264 404.196 226.76C404.401 226.25 404.503 225.641 404.503 224.932C404.503 224.223 404.404 223.608 404.205 223.088C404.005 222.562 403.716 222.155 403.338 221.866C402.96 221.578 402.501 221.433 401.96 221.433C401.41 221.433 400.945 221.583 400.567 221.882C400.189 222.176 399.903 222.586 399.709 223.112C399.514 223.637 399.417 224.243 399.417 224.932C399.417 225.63 399.514 226.234 399.709 226.744C399.909 227.248 400.195 227.64 400.567 227.918C400.945 228.191 401.41 228.328 401.96 228.328ZM414.627 231.023V218.919H417.879V221.031H418.005C418.225 220.28 418.595 219.713 419.115 219.329C419.634 218.941 420.233 218.746 420.909 218.746C421.078 218.746 421.259 218.756 421.453 218.777C421.647 218.799 421.818 218.827 421.965 218.864V221.843C421.807 221.796 421.59 221.754 421.311 221.717C421.033 221.68 420.779 221.662 420.548 221.662C420.054 221.662 419.613 221.769 419.225 221.984C418.841 222.195 418.537 222.489 418.312 222.867C418.091 223.245 417.981 223.681 417.981 224.175V231.023H414.627ZM428.159 231.259C426.915 231.259 425.845 231.007 424.947 230.503C424.055 229.993 423.367 229.274 422.884 228.344C422.402 227.409 422.16 226.303 422.16 225.026C422.16 223.781 422.402 222.688 422.884 221.748C423.367 220.808 424.047 220.075 424.923 219.55C425.805 219.024 426.839 218.762 428.026 218.762C428.823 218.762 429.566 218.891 430.253 219.148C430.946 219.4 431.55 219.781 432.064 220.29C432.584 220.8 432.988 221.441 433.277 222.213C433.565 222.98 433.709 223.878 433.709 224.908V225.83H423.498V223.75H430.552C430.552 223.266 430.448 222.838 430.238 222.465C430.028 222.093 429.737 221.801 429.364 221.591C428.996 221.375 428.569 221.268 428.08 221.268C427.571 221.268 427.12 221.386 426.726 221.622C426.338 221.853 426.034 222.166 425.813 222.56C425.592 222.949 425.48 223.382 425.474 223.86V225.838C425.474 226.437 425.585 226.954 425.805 227.39C426.031 227.826 426.348 228.162 426.758 228.399C427.167 228.635 427.653 228.753 428.214 228.753C428.587 228.753 428.928 228.701 429.238 228.596C429.548 228.491 429.812 228.333 430.033 228.123C430.253 227.913 430.421 227.655 430.537 227.351L433.639 227.556C433.481 228.302 433.159 228.953 432.67 229.51C432.187 230.061 431.563 230.492 430.797 230.802C430.035 231.107 429.156 231.259 428.159 231.259ZM445.472 222.37L442.402 222.56C442.349 222.297 442.236 222.061 442.063 221.851C441.89 221.635 441.661 221.465 441.378 221.339C441.1 221.207 440.767 221.142 440.378 221.142C439.859 221.142 439.421 221.252 439.064 221.472C438.707 221.688 438.528 221.977 438.528 222.339C438.528 222.628 438.643 222.873 438.875 223.072C439.106 223.272 439.502 223.432 440.063 223.553L442.252 223.994C443.428 224.236 444.304 224.624 444.882 225.16C445.459 225.696 445.748 226.4 445.748 227.272C445.748 228.065 445.514 228.761 445.047 229.36C444.585 229.959 443.95 230.426 443.142 230.763C442.339 231.094 441.413 231.259 440.363 231.259C438.762 231.259 437.486 230.926 436.536 230.258C435.592 229.586 435.038 228.672 434.875 227.516L438.174 227.343C438.274 227.831 438.515 228.205 438.898 228.462C439.281 228.714 439.772 228.84 440.371 228.84C440.959 228.84 441.431 228.727 441.788 228.501C442.15 228.27 442.334 227.973 442.339 227.611C442.334 227.306 442.205 227.056 441.953 226.862C441.701 226.662 441.313 226.51 440.788 226.405L438.693 225.987C437.513 225.751 436.633 225.342 436.056 224.758C435.484 224.175 435.198 223.432 435.198 222.529C435.198 221.751 435.408 221.081 435.828 220.519C436.253 219.957 436.849 219.524 437.615 219.219C438.386 218.914 439.289 218.762 440.323 218.762C441.85 218.762 443.053 219.085 443.929 219.731C444.811 220.377 445.325 221.257 445.472 222.37ZM455.127 225.869V218.919H458.481V231.023H455.261V228.824H455.135C454.862 229.533 454.408 230.104 453.773 230.534C453.143 230.965 452.374 231.18 451.466 231.18C450.658 231.18 449.946 230.997 449.332 230.629C448.718 230.261 448.238 229.738 447.892 229.061C447.55 228.383 447.377 227.571 447.372 226.626V218.919H450.726V226.027C450.731 226.741 450.923 227.306 451.301 227.721C451.679 228.136 452.185 228.344 452.82 228.344C453.224 228.344 453.602 228.252 453.954 228.068C454.305 227.878 454.589 227.601 454.804 227.233C455.025 226.865 455.132 226.411 455.127 225.869ZM464.03 214.885V231.023H460.676V214.885H464.03ZM472.661 218.919V221.441H465.378V218.919H472.661ZM467.031 216.02H470.385V227.304C470.385 227.613 470.432 227.855 470.527 228.028C470.621 228.196 470.753 228.314 470.921 228.383C471.094 228.452 471.293 228.485 471.519 228.485C471.677 228.485 471.834 228.473 471.992 228.446C472.149 228.414 472.27 228.391 472.353 228.375L472.881 230.873C472.713 230.926 472.477 230.986 472.173 231.054C471.868 231.128 471.498 231.172 471.063 231.188C470.254 231.22 469.546 231.112 468.937 230.865C468.333 230.618 467.863 230.235 467.528 229.715C467.192 229.195 467.026 228.538 467.031 227.745V216.02Z" fill="#333333"/>
<path d="M290.456 257.499H288.368V251.044H290.523C291.154 251.044 291.697 251.173 292.15 251.431C292.604 251.688 292.951 252.057 293.193 252.538C293.436 253.017 293.558 253.592 293.558 254.262C293.558 254.935 293.435 255.512 293.19 255.995C292.946 256.479 292.594 256.851 292.132 257.111C291.67 257.37 291.111 257.499 290.456 257.499ZM289.341 256.648H290.403C290.894 256.648 291.302 256.556 291.628 256.371C291.953 256.183 292.197 255.914 292.358 255.56C292.52 255.205 292.601 254.773 292.601 254.262C292.601 253.756 292.52 253.326 292.358 252.973C292.199 252.62 291.96 252.352 291.644 252.169C291.327 251.986 290.933 251.895 290.463 251.895H289.341V256.648ZM296.633 257.597C296.179 257.597 295.784 257.492 295.445 257.284C295.107 257.076 294.845 256.786 294.658 256.411C294.471 256.037 294.378 255.6 294.378 255.1C294.378 254.598 294.471 254.159 294.658 253.783C294.845 253.407 295.107 253.114 295.445 252.906C295.784 252.698 296.179 252.595 296.633 252.595C297.086 252.595 297.482 252.698 297.82 252.906C298.158 253.114 298.42 253.407 298.608 253.783C298.794 254.159 298.887 254.598 298.887 255.1C298.887 255.6 298.794 256.037 298.608 256.411C298.42 256.786 298.158 257.076 297.82 257.284C297.482 257.492 297.086 257.597 296.633 257.597ZM296.636 256.806C296.93 256.806 297.173 256.727 297.367 256.572C297.559 256.417 297.702 256.21 297.795 255.951C297.889 255.693 297.936 255.408 297.936 255.097C297.936 254.788 297.889 254.505 297.795 254.246C297.702 253.985 297.559 253.776 297.367 253.619C297.173 253.461 296.93 253.382 296.636 253.382C296.34 253.382 296.094 253.461 295.899 253.619C295.706 253.776 295.562 253.985 295.468 254.246C295.375 254.505 295.329 254.788 295.329 255.097C295.329 255.408 295.375 255.693 295.468 255.951C295.562 256.21 295.706 256.417 295.899 256.572C296.094 256.727 296.34 256.806 296.636 256.806ZM300.782 254.624V257.499H299.841V252.657H300.745V253.446H300.805C300.916 253.189 301.09 252.983 301.327 252.828C301.567 252.672 301.868 252.595 302.231 252.595C302.561 252.595 302.85 252.664 303.098 252.803C303.345 252.939 303.537 253.143 303.673 253.414C303.81 253.685 303.879 254.02 303.879 254.42V257.499H302.937V254.533C302.937 254.182 302.845 253.908 302.662 253.71C302.48 253.511 302.229 253.411 301.91 253.411C301.692 253.411 301.497 253.458 301.327 253.553C301.159 253.647 301.026 253.786 300.928 253.969C300.831 254.15 300.782 254.368 300.782 254.624ZM305.853 251.044V251.649C305.853 251.827 305.82 252.016 305.752 252.213C305.687 252.409 305.595 252.597 305.475 252.777C305.356 252.958 305.215 253.113 305.053 253.244L304.587 252.91C304.711 252.729 304.818 252.537 304.908 252.333C305 252.129 305.047 251.904 305.047 251.658V251.044H305.853ZM309.109 252.657V253.414H306.467V252.657H309.109ZM307.176 251.497H308.117V256.077C308.117 256.26 308.145 256.398 308.199 256.49C308.254 256.58 308.324 256.643 308.41 256.676C308.498 256.708 308.594 256.724 308.697 256.724C308.772 256.724 308.839 256.718 308.895 256.708C308.952 256.698 308.996 256.689 309.028 256.683L309.198 257.461C309.143 257.482 309.065 257.503 308.964 257.524C308.864 257.547 308.738 257.56 308.586 257.562C308.339 257.566 308.108 257.522 307.894 257.43C307.68 257.337 307.506 257.194 307.374 257.001C307.242 256.807 307.176 256.565 307.176 256.273V251.497ZM313.244 251.044V257.499H312.303V251.044H313.244ZM314.413 257.499V252.657H315.355V257.499H314.413ZM314.889 251.911C314.725 251.911 314.585 251.856 314.467 251.747C314.352 251.636 314.294 251.503 314.294 251.349C314.294 251.194 314.352 251.061 314.467 250.953C314.585 250.841 314.725 250.785 314.889 250.785C315.053 250.785 315.193 250.841 315.308 250.953C315.425 251.061 315.484 251.194 315.484 251.349C315.484 251.503 315.425 251.636 315.308 251.747C315.193 251.856 315.053 251.911 314.889 251.911ZM317.39 255.857L317.384 254.707H317.548L319.475 252.657H320.603L318.405 254.99H318.257L317.39 255.857ZM316.524 257.499V251.044H317.466V257.499H316.524ZM319.579 257.499L317.847 255.198L318.496 254.539L320.735 257.499H319.579ZM323.249 257.597C322.772 257.597 322.362 257.495 322.017 257.291C321.675 257.085 321.411 256.796 321.224 256.424C321.039 256.05 320.947 255.612 320.947 255.11C320.947 254.614 321.039 254.177 321.224 253.798C321.411 253.42 321.671 253.125 322.005 252.913C322.341 252.701 322.733 252.595 323.183 252.595C323.455 252.595 323.72 252.64 323.976 252.73C324.233 252.82 324.462 252.962 324.666 253.156C324.869 253.349 325.03 253.6 325.148 253.909C325.265 254.216 325.324 254.588 325.324 255.028V255.362H321.479V254.656H324.402C324.402 254.408 324.351 254.188 324.25 253.997C324.149 253.804 324.008 253.651 323.825 253.54C323.644 253.429 323.432 253.373 323.189 253.373C322.924 253.373 322.693 253.438 322.496 253.568C322.301 253.696 322.15 253.865 322.043 254.073C321.938 254.279 321.885 254.502 321.885 254.744V255.296C321.885 255.619 321.942 255.895 322.055 256.122C322.171 256.349 322.331 256.522 322.537 256.642C322.743 256.759 322.983 256.818 323.258 256.818C323.437 256.818 323.6 256.793 323.746 256.742C323.893 256.69 324.02 256.612 324.127 256.509C324.234 256.406 324.316 256.279 324.373 256.128L325.264 256.289C325.193 256.551 325.065 256.781 324.88 256.979C324.698 257.174 324.468 257.327 324.19 257.436C323.916 257.543 323.601 257.597 323.249 257.597ZM329.57 257.499L328.146 252.657H329.119L330.067 256.213H330.114L331.065 252.657H332.038L332.983 256.197H333.03L333.972 252.657H334.945L333.525 257.499H332.564L331.581 254.004H331.509L330.527 257.499H329.57ZM336.683 254.624V257.499H335.741V251.044H336.67V253.446H336.73C336.843 253.185 337.016 252.978 337.249 252.825C337.483 252.671 337.787 252.595 338.163 252.595C338.495 252.595 338.784 252.663 339.032 252.799C339.282 252.936 339.475 253.14 339.612 253.411C339.75 253.68 339.819 254.016 339.819 254.42V257.499H338.878V254.533C338.878 254.178 338.786 253.903 338.604 253.707C338.421 253.509 338.167 253.411 337.842 253.411C337.619 253.411 337.419 253.458 337.243 253.553C337.069 253.647 336.932 253.786 336.831 253.969C336.732 254.15 336.683 254.368 336.683 254.624ZM342.386 257.606C342.08 257.606 341.803 257.55 341.555 257.436C341.307 257.321 341.11 257.154 340.966 256.935C340.823 256.716 340.752 256.448 340.752 256.131C340.752 255.858 340.804 255.633 340.909 255.457C341.014 255.28 341.156 255.14 341.334 255.037C341.513 254.935 341.712 254.856 341.932 254.804C342.153 254.752 342.377 254.712 342.606 254.684C342.896 254.651 343.131 254.623 343.312 254.602C343.492 254.579 343.624 254.542 343.705 254.492C343.787 254.441 343.828 254.36 343.828 254.246V254.224C343.828 253.949 343.751 253.736 343.595 253.584C343.442 253.433 343.213 253.357 342.909 253.357C342.592 253.357 342.342 253.428 342.159 253.568C341.979 253.707 341.854 253.862 341.784 254.032L340.9 253.83C341.004 253.536 341.158 253.299 341.359 253.118C341.563 252.935 341.797 252.803 342.061 252.721C342.326 252.636 342.605 252.595 342.896 252.595C343.09 252.595 343.294 252.617 343.51 252.664C343.729 252.708 343.932 252.79 344.121 252.91C344.312 253.03 344.469 253.201 344.59 253.423C344.712 253.644 344.773 253.931 344.773 254.284V257.499H343.853V256.837H343.816C343.755 256.959 343.663 257.079 343.542 257.196C343.42 257.314 343.264 257.411 343.072 257.49C342.882 257.567 342.653 257.606 342.386 257.606ZM342.591 256.85C342.851 256.85 343.073 256.798 343.258 256.695C343.445 256.592 343.587 256.458 343.683 256.292C343.782 256.123 343.832 255.944 343.832 255.753V255.129C343.798 255.163 343.732 255.194 343.636 255.223C343.542 255.251 343.434 255.275 343.312 255.296C343.19 255.315 343.071 255.332 342.956 255.35C342.841 255.364 342.744 255.377 342.666 255.387C342.484 255.41 342.317 255.449 342.166 255.504C342.016 255.559 341.897 255.637 341.806 255.74C341.718 255.841 341.674 255.975 341.674 256.143C341.674 256.377 341.76 256.553 341.932 256.673C342.105 256.791 342.324 256.85 342.591 256.85ZM348.188 252.657V253.414H345.545V252.657H348.188ZM346.254 251.497H347.195V256.077C347.195 256.26 347.223 256.398 347.277 256.49C347.332 256.58 347.402 256.643 347.489 256.676C347.577 256.708 347.672 256.724 347.775 256.724C347.851 256.724 347.917 256.718 347.974 256.708C348.03 256.698 348.074 256.689 348.106 256.683L348.276 257.461C348.221 257.482 348.143 257.503 348.043 257.524C347.942 257.547 347.816 257.56 347.665 257.562C347.417 257.566 347.186 257.522 346.972 257.43C346.758 257.337 346.585 257.194 346.452 257.001C346.32 256.807 346.254 256.565 346.254 256.273V251.497ZM351.977 259.314C351.836 259.314 351.708 259.303 351.592 259.28C351.477 259.259 351.391 259.235 351.334 259.21L351.561 258.438C351.733 258.484 351.886 258.504 352.02 258.498C352.155 258.492 352.274 258.442 352.376 258.347C352.481 258.252 352.573 258.098 352.653 257.884L352.77 257.562L351 252.657H352.008L353.233 256.415H353.283L354.508 252.657H355.519L353.526 258.145C353.433 258.397 353.316 258.61 353.173 258.785C353.03 258.961 352.86 259.094 352.663 259.182C352.465 259.27 352.236 259.314 351.977 259.314ZM358.179 257.597C357.726 257.597 357.33 257.492 356.992 257.284C356.654 257.076 356.392 256.786 356.205 256.411C356.018 256.037 355.924 255.6 355.924 255.1C355.924 254.598 356.018 254.159 356.205 253.783C356.392 253.407 356.654 253.114 356.992 252.906C357.33 252.698 357.726 252.595 358.179 252.595C358.633 252.595 359.029 252.698 359.366 252.906C359.705 253.114 359.967 253.407 360.154 253.783C360.341 254.159 360.434 254.598 360.434 255.1C360.434 255.6 360.341 256.037 360.154 256.411C359.967 256.786 359.705 257.076 359.366 257.284C359.029 257.492 358.633 257.597 358.179 257.597ZM358.183 256.806C358.476 256.806 358.72 256.727 358.913 256.572C359.106 256.417 359.249 256.21 359.341 255.951C359.436 255.693 359.483 255.408 359.483 255.097C359.483 254.788 359.436 254.505 359.341 254.246C359.249 253.985 359.106 253.776 358.913 253.619C358.72 253.461 358.476 253.382 358.183 253.382C357.887 253.382 357.641 253.461 357.446 253.619C357.252 253.776 357.109 253.985 357.014 254.246C356.922 254.505 356.876 254.788 356.876 255.097C356.876 255.408 356.922 255.693 357.014 255.951C357.109 256.21 357.252 256.417 357.446 256.572C357.641 256.727 357.887 256.806 358.183 256.806ZM364.452 255.491V252.657H365.397V257.499H364.471V256.66H364.421C364.309 256.919 364.131 257.134 363.885 257.307C363.641 257.477 363.338 257.562 362.975 257.562C362.664 257.562 362.389 257.494 362.15 257.357C361.913 257.218 361.726 257.014 361.59 256.742C361.455 256.471 361.388 256.136 361.388 255.737V252.657H362.329V255.624C362.329 255.954 362.421 256.216 362.603 256.411C362.786 256.607 363.023 256.705 363.315 256.705C363.491 256.705 363.667 256.66 363.841 256.572C364.017 256.484 364.163 256.351 364.279 256.172C364.396 255.994 364.454 255.767 364.452 255.491ZM367.503 251.044V251.649C367.503 251.827 367.47 252.016 367.403 252.213C367.338 252.409 367.245 252.597 367.125 252.777C367.006 252.958 366.866 253.113 366.704 253.244L366.238 252.91C366.362 252.729 366.469 252.537 366.559 252.333C366.651 252.129 366.698 251.904 366.698 251.658V251.044H367.503ZM368.173 257.499V252.657H369.083V253.427H369.134C369.222 253.166 369.377 252.961 369.6 252.812C369.824 252.661 370.078 252.585 370.362 252.585C370.421 252.585 370.49 252.587 370.57 252.591C370.651 252.596 370.715 252.601 370.761 252.607V253.508C370.724 253.498 370.657 253.487 370.56 253.474C370.463 253.459 370.367 253.452 370.27 253.452C370.048 253.452 369.849 253.499 369.675 253.594C369.503 253.686 369.366 253.815 369.265 253.982C369.165 254.145 369.115 254.332 369.115 254.542V257.499H368.173ZM373.39 257.597C372.914 257.597 372.503 257.495 372.159 257.291C371.817 257.085 371.552 256.796 371.366 256.424C371.18 256.05 371.088 255.612 371.088 255.11C371.088 254.614 371.18 254.177 371.366 253.798C371.552 253.42 371.813 253.125 372.147 252.913C372.482 252.701 372.875 252.595 373.324 252.595C373.597 252.595 373.862 252.64 374.118 252.73C374.374 252.82 374.604 252.962 374.807 253.156C375.011 253.349 375.172 253.6 375.289 253.909C375.407 254.216 375.465 254.588 375.465 255.028V255.362H371.621V254.656H374.543C374.543 254.408 374.493 254.188 374.392 253.997C374.291 253.804 374.149 253.651 373.967 253.54C373.786 253.429 373.574 253.373 373.33 253.373C373.066 253.373 372.835 253.438 372.638 253.568C372.442 253.696 372.291 253.865 372.184 254.073C372.079 254.279 372.027 254.502 372.027 254.744V255.296C372.027 255.619 372.083 255.895 372.197 256.122C372.312 256.349 372.473 256.522 372.679 256.642C372.884 256.759 373.125 256.818 373.4 256.818C373.578 256.818 373.741 256.793 373.888 256.742C374.035 256.69 374.162 256.612 374.269 256.509C374.376 256.406 374.458 256.279 374.515 256.128L375.406 256.289C375.335 256.551 375.207 256.781 375.021 256.979C374.839 257.174 374.609 257.327 374.332 257.436C374.057 257.543 373.743 257.597 373.39 257.597ZM379.604 254.624V257.499H378.662V251.044H379.591V253.446H379.651C379.764 253.185 379.938 252.978 380.171 252.825C380.404 252.671 380.708 252.595 381.084 252.595C381.416 252.595 381.705 252.663 381.953 252.799C382.203 252.936 382.396 253.14 382.533 253.411C382.671 253.68 382.741 254.016 382.741 254.42V257.499H381.799V254.533C381.799 254.178 381.707 253.903 381.525 253.707C381.342 253.509 381.088 253.411 380.763 253.411C380.54 253.411 380.341 253.458 380.164 253.553C379.99 253.647 379.853 253.786 379.752 253.969C379.653 254.15 379.604 254.368 379.604 254.624ZM385.984 257.597C385.507 257.597 385.097 257.495 384.753 257.291C384.411 257.085 384.146 256.796 383.959 256.424C383.774 256.05 383.682 255.612 383.682 255.11C383.682 254.614 383.774 254.177 383.959 253.798C384.146 253.42 384.407 253.125 384.74 252.913C385.076 252.701 385.469 252.595 385.918 252.595C386.191 252.595 386.456 252.64 386.712 252.73C386.968 252.82 387.198 252.962 387.401 253.156C387.605 253.349 387.765 253.6 387.883 253.909C388.001 254.216 388.059 254.588 388.059 255.028V255.362H384.214V254.656H387.137C387.137 254.408 387.087 254.188 386.986 253.997C386.885 253.804 386.743 253.651 386.561 253.54C386.38 253.429 386.168 253.373 385.924 253.373C385.66 253.373 385.429 253.438 385.231 253.568C385.036 253.696 384.885 253.865 384.778 254.073C384.673 254.279 384.621 254.502 384.621 254.744V255.296C384.621 255.619 384.677 255.895 384.791 256.122C384.906 256.349 385.067 256.522 385.272 256.642C385.478 256.759 385.719 256.818 385.994 256.818C386.172 256.818 386.335 256.793 386.482 256.742C386.629 256.69 386.756 256.612 386.863 256.509C386.97 256.406 387.052 256.279 387.109 256.128L388 256.289C387.928 256.551 387.8 256.781 387.615 256.979C387.433 257.174 387.203 257.327 386.926 257.436C386.651 257.543 386.337 257.597 385.984 257.597ZM390.414 257.606C390.108 257.606 389.831 257.55 389.583 257.436C389.335 257.321 389.139 257.154 388.994 256.935C388.851 256.716 388.78 256.448 388.78 256.131C388.78 255.858 388.832 255.633 388.937 255.457C389.043 255.28 389.184 255.14 389.362 255.037C389.541 254.935 389.74 254.856 389.961 254.804C390.182 254.752 390.406 254.712 390.635 254.684C390.925 254.651 391.16 254.623 391.34 254.602C391.521 254.579 391.652 254.542 391.734 254.492C391.816 254.441 391.856 254.36 391.856 254.246V254.224C391.856 253.949 391.779 253.736 391.624 253.584C391.471 253.433 391.242 253.357 390.937 253.357C390.62 253.357 390.371 253.428 390.188 253.568C390.007 253.707 389.882 253.862 389.813 254.032L388.928 253.83C389.033 253.536 389.186 253.299 389.388 253.118C389.591 252.935 389.826 252.803 390.09 252.721C390.354 252.636 390.633 252.595 390.925 252.595C391.118 252.595 391.322 252.617 391.539 252.664C391.757 252.708 391.961 252.79 392.15 252.91C392.341 253.03 392.497 253.201 392.619 253.423C392.741 253.644 392.802 253.931 392.802 254.284V257.499H391.882V256.837H391.844C391.783 256.959 391.692 257.079 391.57 257.196C391.449 257.314 391.292 257.411 391.101 257.49C390.91 257.567 390.681 257.606 390.414 257.606ZM390.619 256.85C390.879 256.85 391.102 256.798 391.287 256.695C391.474 256.592 391.615 256.458 391.712 256.292C391.81 256.123 391.86 255.944 391.86 255.753V255.129C391.827 255.163 391.761 255.194 391.665 255.223C391.57 255.251 391.462 255.275 391.34 255.296C391.219 255.315 391.1 255.332 390.985 255.35C390.869 255.364 390.772 255.377 390.695 255.387C390.512 255.41 390.345 255.449 390.194 255.504C390.045 255.559 389.925 255.637 389.835 255.74C389.747 255.841 389.703 255.975 389.703 256.143C389.703 256.377 389.789 256.553 389.961 256.673C390.133 256.791 390.352 256.85 390.619 256.85ZM393.958 257.499V252.657H394.868V253.427H394.919C395.007 253.166 395.162 252.961 395.385 252.812C395.609 252.661 395.863 252.585 396.147 252.585C396.206 252.585 396.275 252.587 396.355 252.591C396.436 252.596 396.501 252.601 396.547 252.607V253.508C396.509 253.498 396.442 253.487 396.345 253.474C396.248 253.459 396.152 253.452 396.056 253.452C395.833 253.452 395.634 253.499 395.46 253.594C395.288 253.686 395.152 253.815 395.051 253.982C394.95 254.145 394.9 254.332 394.9 254.542V257.499H393.958ZM397.264 257.499V252.657H398.206V257.499H397.264ZM397.739 251.911C397.576 251.911 397.435 251.856 397.318 251.747C397.202 251.636 397.145 251.503 397.145 251.349C397.145 251.194 397.202 251.061 397.318 250.953C397.435 250.841 397.576 250.785 397.739 250.785C397.903 250.785 398.043 250.841 398.158 250.953C398.276 251.061 398.335 251.194 398.335 251.349C398.335 251.503 398.276 251.636 398.158 251.747C398.043 251.856 397.903 251.911 397.739 251.911ZM400.317 254.624V257.499H399.375V252.657H400.278V253.446H400.338C400.45 253.189 400.624 252.983 400.862 252.828C401.1 252.672 401.402 252.595 401.765 252.595C402.095 252.595 402.384 252.664 402.631 252.803C402.879 252.939 403.071 253.143 403.208 253.414C403.344 253.685 403.412 254.02 403.412 254.42V257.499H402.471V254.533C402.471 254.182 402.379 253.908 402.197 253.71C402.014 253.511 401.763 253.411 401.444 253.411C401.226 253.411 401.031 253.458 400.862 253.553C400.694 253.647 400.56 253.786 400.461 253.969C400.365 254.15 400.317 254.368 400.317 254.624ZM406.605 259.415C406.221 259.415 405.891 259.365 405.614 259.264C405.338 259.163 405.114 259.03 404.94 258.864C404.765 258.698 404.635 258.516 404.549 258.318L405.358 257.985C405.415 258.077 405.491 258.174 405.585 258.277C405.682 258.382 405.812 258.472 405.976 258.545C406.141 258.619 406.355 258.656 406.615 258.656C406.972 258.656 407.267 258.569 407.5 258.394C407.733 258.222 407.85 257.946 407.85 257.568V256.617H407.79C407.733 256.719 407.651 256.834 407.544 256.96C407.439 257.086 407.294 257.195 407.109 257.288C406.925 257.38 406.684 257.426 406.388 257.426C406.006 257.426 405.662 257.337 405.355 257.159C405.051 256.978 404.81 256.712 404.631 256.361C404.455 256.008 404.367 255.574 404.367 255.059C404.367 254.545 404.454 254.103 404.628 253.736C404.804 253.368 405.046 253.086 405.352 252.891C405.659 252.693 406.006 252.595 406.395 252.595C406.695 252.595 406.937 252.645 407.122 252.746C407.307 252.844 407.451 252.96 407.554 253.092C407.658 253.225 407.739 253.341 407.796 253.442H407.865V252.657H408.788V257.606C408.788 258.022 408.692 258.363 408.498 258.63C408.305 258.897 408.044 259.095 407.714 259.223C407.386 259.351 407.017 259.415 406.605 259.415ZM406.596 256.645C406.867 256.645 407.096 256.582 407.283 256.456C407.472 256.328 407.614 256.144 407.711 255.907C407.81 255.668 407.859 255.381 407.859 255.047C407.859 254.721 407.811 254.434 407.714 254.186C407.617 253.938 407.475 253.745 407.289 253.607C407.102 253.466 406.871 253.395 406.596 253.395C406.313 253.395 406.077 253.468 405.888 253.616C405.699 253.761 405.556 253.958 405.459 254.208C405.365 254.459 405.318 254.738 405.318 255.047C405.318 255.364 405.366 255.642 405.462 255.882C405.559 256.122 405.702 256.309 405.891 256.443C406.082 256.578 406.317 256.645 406.596 256.645ZM410.983 255.642V255.583C410.987 255.192 411.026 254.881 411.099 254.649C411.175 254.419 411.282 254.231 411.421 254.089C411.559 253.945 411.726 253.815 411.921 253.698C412.048 253.618 412.161 253.528 412.262 253.43C412.362 253.331 412.442 253.218 412.501 253.09C412.56 252.961 412.589 252.819 412.589 252.664C412.589 252.477 412.545 252.315 412.457 252.179C412.368 252.042 412.251 251.937 412.104 251.864C411.959 251.788 411.798 251.75 411.619 251.75C411.457 251.75 411.303 251.784 411.156 251.851C411.009 251.918 410.888 252.023 410.791 252.166C410.694 252.307 410.639 252.488 410.624 252.711H409.666C409.681 252.333 409.777 252.013 409.953 251.753C410.129 251.49 410.363 251.292 410.653 251.157C410.944 251.023 411.267 250.955 411.619 250.955C412.005 250.955 412.344 251.028 412.633 251.173C412.923 251.316 413.148 251.517 413.307 251.775C413.469 252.032 413.55 252.331 413.55 252.673C413.55 252.909 413.513 253.121 413.439 253.31C413.366 253.497 413.261 253.664 413.124 253.811C412.99 253.958 412.829 254.089 412.64 254.202C412.461 254.313 412.316 254.429 412.205 254.548C412.096 254.668 412.016 254.81 411.966 254.975C411.915 255.138 411.888 255.341 411.883 255.583V255.642H410.983ZM411.458 257.559C411.287 257.559 411.139 257.498 411.014 257.376C410.891 257.252 410.829 257.103 410.829 256.928C410.829 256.756 410.891 256.609 411.014 256.487C411.139 256.363 411.287 256.301 411.458 256.301C411.629 256.301 411.775 256.363 411.9 256.487C412.025 256.609 412.089 256.756 412.089 256.928C412.089 257.044 412.059 257.15 412 257.247C411.943 257.342 411.868 257.417 411.773 257.474C411.679 257.53 411.574 257.559 411.458 257.559ZM416.84 257.499V251.044H420.839V251.882H417.813V253.849H420.553V254.684H417.813V257.499H416.84ZM421.863 257.499V252.657H422.805V257.499H421.863ZM422.338 251.911C422.174 251.911 422.034 251.856 421.917 251.747C421.801 251.636 421.743 251.503 421.743 251.349C421.743 251.194 421.801 251.061 421.917 250.953C422.034 250.841 422.174 250.785 422.338 250.785C422.502 250.785 422.642 250.841 422.757 250.953C422.875 251.061 422.934 251.194 422.934 251.349C422.934 251.503 422.875 251.636 422.757 251.747C422.642 251.856 422.502 251.911 422.338 251.911ZM424.915 254.624V257.499H423.974V252.657H424.878V253.446H424.937C425.049 253.189 425.223 252.983 425.46 252.828C425.699 252.672 426 252.595 426.364 252.595C426.693 252.595 426.982 252.664 427.23 252.803C427.478 252.939 427.67 253.143 427.806 253.414C427.943 253.685 428.011 254.02 428.011 254.42V257.499H427.07V254.533C427.07 254.182 426.978 253.908 426.795 253.71C426.613 253.511 426.362 253.411 426.043 253.411C425.824 253.411 425.63 253.458 425.46 253.553C425.292 253.647 425.159 253.786 425.06 253.969C424.963 254.15 424.915 254.368 424.915 254.624ZM431.261 257.597C430.784 257.597 430.374 257.495 430.03 257.291C429.687 257.085 429.423 256.796 429.236 256.424C429.051 256.05 428.959 255.612 428.959 255.11C428.959 254.614 429.051 254.177 429.236 253.798C429.423 253.42 429.684 253.125 430.017 252.913C430.353 252.701 430.745 252.595 431.195 252.595C431.468 252.595 431.733 252.64 431.989 252.73C432.245 252.82 432.475 252.962 432.678 253.156C432.882 253.349 433.042 253.6 433.16 253.909C433.277 254.216 433.336 254.588 433.336 255.028V255.362H429.491V254.656H432.414C432.414 254.408 432.363 254.188 432.262 253.997C432.162 253.804 432.02 253.651 431.837 253.54C431.657 253.429 431.445 253.373 431.201 253.373C430.937 253.373 430.706 253.438 430.508 253.568C430.313 253.696 430.162 253.865 430.055 254.073C429.95 254.279 429.897 254.502 429.897 254.744V255.296C429.897 255.619 429.954 255.895 430.068 256.122C430.183 256.349 430.344 256.522 430.549 256.642C430.755 256.759 430.995 256.818 431.27 256.818C431.449 256.818 431.612 256.793 431.759 256.742C431.906 256.69 432.032 256.612 432.139 256.509C432.247 256.406 432.328 256.279 432.386 256.128L433.277 256.289C433.205 256.551 433.077 256.781 432.892 256.979C432.71 257.174 432.48 257.327 432.203 257.436C431.928 257.543 431.614 257.597 431.261 257.597ZM438.791 252.657V253.414H436.149V252.657H438.791ZM436.857 251.497H437.799V256.077C437.799 256.26 437.826 256.398 437.881 256.49C437.935 256.58 438.006 256.643 438.092 256.676C438.18 256.708 438.276 256.724 438.378 256.724C438.454 256.724 438.52 256.718 438.577 256.708C438.634 256.698 438.677 256.689 438.709 256.683L438.879 257.461C438.824 257.482 438.747 257.503 438.646 257.524C438.545 257.547 438.419 257.56 438.268 257.562C438.021 257.566 437.79 257.522 437.575 257.43C437.361 257.337 437.188 257.194 437.056 257.001C436.923 256.807 436.857 256.565 436.857 256.273V251.497ZM442.799 255.491V252.657H443.744V257.499H442.818V256.66H442.768C442.656 256.919 442.478 257.134 442.232 257.307C441.989 257.477 441.685 257.562 441.322 257.562C441.011 257.562 440.737 257.494 440.497 257.357C440.26 257.218 440.073 257.014 439.937 256.742C439.802 256.471 439.735 256.136 439.735 255.737V252.657H440.677V255.624C440.677 255.954 440.768 256.216 440.95 256.411C441.133 256.607 441.371 256.705 441.662 256.705C441.838 256.705 442.014 256.66 442.188 256.572C442.364 256.484 442.511 256.351 442.626 256.172C442.743 255.994 442.801 255.767 442.799 255.491ZM445.853 254.624V257.499H444.912V252.657H445.815V253.446H445.875C445.986 253.189 446.16 252.983 446.398 252.828C446.637 252.672 446.939 252.595 447.302 252.595C447.632 252.595 447.92 252.664 448.168 252.803C448.416 252.939 448.608 253.143 448.744 253.414C448.881 253.685 448.949 254.02 448.949 254.42V257.499H448.007V254.533C448.007 254.182 447.916 253.908 447.733 253.71C447.551 253.511 447.3 253.411 446.98 253.411C446.762 253.411 446.568 253.458 446.398 253.553C446.23 253.647 446.097 253.786 445.998 253.969C445.902 254.15 445.853 254.368 445.853 254.624ZM452.199 257.597C451.722 257.597 451.312 257.495 450.968 257.291C450.625 257.085 450.361 256.796 450.174 256.424C449.989 256.05 449.897 255.612 449.897 255.11C449.897 254.614 449.989 254.177 450.174 253.798C450.361 253.42 450.621 253.125 450.955 252.913C451.291 252.701 451.683 252.595 452.133 252.595C452.406 252.595 452.67 252.64 452.926 252.73C453.182 252.82 453.412 252.962 453.616 253.156C453.82 253.349 453.98 253.6 454.098 253.909C454.216 254.216 454.274 254.588 454.274 255.028V255.362H450.429V254.656H453.351C453.351 254.408 453.301 254.188 453.2 253.997C453.099 253.804 452.958 253.651 452.775 253.54C452.594 253.429 452.383 253.373 452.139 253.373C451.874 253.373 451.644 253.438 451.446 253.568C451.251 253.696 451.1 253.865 450.993 254.073C450.888 254.279 450.835 254.502 450.835 254.744V255.296C450.835 255.619 450.892 255.895 451.005 256.122C451.121 256.349 451.281 256.522 451.487 256.642C451.693 256.759 451.933 256.818 452.208 256.818C452.386 256.818 452.549 256.793 452.696 256.742C452.843 256.69 452.97 256.612 453.078 256.509C453.185 256.406 453.267 256.279 453.323 256.128L454.214 256.289C454.143 256.551 454.015 256.781 453.83 256.979C453.647 257.174 453.417 257.327 453.14 257.436C452.865 257.543 452.552 257.597 452.199 257.597ZM458.066 259.314C457.925 259.314 457.797 259.303 457.682 259.28C457.566 259.259 457.48 259.235 457.424 259.21L457.65 258.438C457.823 258.484 457.976 258.504 458.11 258.498C458.244 258.492 458.363 258.442 458.466 258.347C458.571 258.252 458.663 258.098 458.743 257.884L458.86 257.562L457.09 252.657H458.098L459.322 256.415H459.373L460.598 252.657H461.609L459.615 258.145C459.523 258.397 459.406 258.61 459.263 258.785C459.12 258.961 458.95 259.094 458.753 259.182C458.555 259.27 458.326 259.314 458.066 259.314ZM464.269 257.597C463.816 257.597 463.42 257.492 463.082 257.284C462.744 257.076 462.481 256.786 462.294 256.411C462.108 256.037 462.015 255.6 462.015 255.1C462.015 254.598 462.108 254.159 462.294 253.783C462.481 253.407 462.744 253.114 463.082 252.906C463.42 252.698 463.816 252.595 464.269 252.595C464.723 252.595 465.118 252.698 465.456 252.906C465.795 253.114 466.057 253.407 466.243 253.783C466.43 254.159 466.524 254.598 466.524 255.1C466.524 255.6 466.43 256.037 466.243 256.411C466.057 256.786 465.795 257.076 465.456 257.284C465.118 257.492 464.723 257.597 464.269 257.597ZM464.272 256.806C464.566 256.806 464.81 256.727 465.003 256.572C465.196 256.417 465.339 256.21 465.431 255.951C465.526 255.693 465.573 255.408 465.573 255.097C465.573 254.788 465.526 254.505 465.431 254.246C465.339 253.985 465.196 253.776 465.003 253.619C464.81 253.461 464.566 253.382 464.272 253.382C463.976 253.382 463.73 253.461 463.535 253.619C463.342 253.776 463.198 253.985 463.104 254.246C463.012 254.505 462.966 254.788 462.966 255.097C462.966 255.408 463.012 255.693 463.104 255.951C463.198 256.21 463.342 256.417 463.535 256.572C463.73 256.727 463.976 256.806 464.272 256.806ZM470.542 255.491V252.657H471.486V257.499H470.561V256.66H470.51C470.399 256.919 470.22 257.134 469.975 257.307C469.731 257.477 469.428 257.562 469.065 257.562C468.754 257.562 468.479 257.494 468.239 257.357C468.002 257.218 467.815 257.014 467.679 256.742C467.545 256.471 467.477 256.136 467.477 255.737V252.657H468.419V255.624C468.419 255.954 468.51 256.216 468.693 256.411C468.876 256.607 469.113 256.705 469.405 256.705C469.581 256.705 469.756 256.66 469.93 256.572C470.107 256.484 470.253 256.351 470.368 256.172C470.486 255.994 470.544 255.767 470.542 255.491ZM472.654 257.499V252.657H473.564V253.427H473.615C473.703 253.166 473.858 252.961 474.081 252.812C474.305 252.661 474.559 252.585 474.843 252.585C474.902 252.585 474.971 252.587 475.051 252.591C475.132 252.596 475.196 252.601 475.242 252.607V253.508C475.205 253.498 475.138 253.487 475.041 253.474C474.944 253.459 474.848 253.452 474.751 253.452C474.529 253.452 474.331 253.499 474.156 253.594C473.984 253.686 473.847 253.815 473.746 253.982C473.646 254.145 473.596 254.332 473.596 254.542V257.499H472.654ZM480.247 257.597C479.778 257.597 479.376 257.49 479.037 257.278C478.702 257.064 478.443 256.769 478.263 256.392C478.082 256.016 477.992 255.586 477.992 255.1C477.992 254.608 478.085 254.175 478.269 253.798C478.454 253.42 478.714 253.125 479.05 252.913C479.386 252.701 479.782 252.595 480.237 252.595C480.605 252.595 480.932 252.663 481.22 252.799C481.508 252.934 481.739 253.123 481.916 253.367C482.094 253.61 482.201 253.895 482.234 254.221H481.318C481.267 253.994 481.152 253.798 480.971 253.635C480.793 253.471 480.553 253.389 480.253 253.389C479.991 253.389 479.761 253.458 479.563 253.597C479.368 253.734 479.216 253.929 479.107 254.183C478.998 254.435 478.943 254.734 478.943 255.078C478.943 255.431 478.996 255.736 479.104 255.992C479.211 256.249 479.362 256.447 479.557 256.588C479.755 256.729 479.986 256.799 480.253 256.799C480.431 256.799 480.593 256.767 480.738 256.701C480.885 256.634 481.008 256.539 481.106 256.415C481.207 256.291 481.278 256.142 481.318 255.967H482.234C482.201 256.28 482.099 256.559 481.928 256.806C481.758 257.051 481.53 257.245 481.245 257.385C480.962 257.526 480.629 257.597 480.247 257.597ZM484.551 257.606C484.245 257.606 483.968 257.55 483.72 257.436C483.472 257.321 483.276 257.154 483.131 256.935C482.988 256.716 482.917 256.448 482.917 256.131C482.917 255.858 482.969 255.633 483.074 255.457C483.179 255.28 483.321 255.14 483.499 255.037C483.678 254.935 483.877 254.856 484.098 254.804C484.318 254.752 484.543 254.712 484.772 254.684C485.061 254.651 485.297 254.623 485.477 254.602C485.657 254.579 485.789 254.542 485.871 254.492C485.952 254.441 485.993 254.36 485.993 254.246V254.224C485.993 253.949 485.916 253.736 485.761 253.584C485.607 253.433 485.378 253.357 485.074 253.357C484.757 253.357 484.507 253.428 484.325 253.568C484.144 253.707 484.019 253.862 483.95 254.032L483.065 253.83C483.169 253.536 483.323 253.299 483.525 253.118C483.728 252.935 483.962 252.803 484.227 252.721C484.491 252.636 484.77 252.595 485.061 252.595C485.255 252.595 485.459 252.617 485.675 252.664C485.894 252.708 486.098 252.79 486.287 252.91C486.477 253.03 486.634 253.201 486.755 253.423C486.877 253.644 486.938 253.931 486.938 254.284V257.499H486.019V256.837H485.981C485.92 256.959 485.829 257.079 485.707 257.196C485.585 257.314 485.429 257.411 485.237 257.49C485.047 257.567 484.818 257.606 484.551 257.606ZM484.756 256.85C485.016 256.85 485.238 256.798 485.424 256.695C485.61 256.592 485.752 256.458 485.849 256.292C485.947 256.123 485.997 255.944 485.997 255.753V255.129C485.963 255.163 485.898 255.194 485.802 255.223C485.707 255.251 485.599 255.275 485.477 255.296C485.355 255.315 485.237 255.332 485.121 255.35C485.006 255.364 484.909 255.377 484.832 255.387C484.649 255.41 484.482 255.449 484.331 255.504C484.182 255.559 484.062 255.637 483.971 255.74C483.883 255.841 483.84 255.975 483.84 256.143C483.84 256.377 483.925 256.553 484.098 256.673C484.27 256.791 484.489 256.85 484.756 256.85ZM489.036 251.044V257.499H488.095V251.044H489.036ZM490.206 257.499V252.657H491.147V257.499H490.206ZM490.681 251.911C490.517 251.911 490.377 251.856 490.259 251.747C490.144 251.636 490.086 251.503 490.086 251.349C490.086 251.194 490.144 251.061 490.259 250.953C490.377 250.841 490.517 250.785 490.681 250.785C490.845 250.785 490.984 250.841 491.1 250.953C491.218 251.061 491.277 251.194 491.277 251.349C491.277 251.503 491.218 251.636 491.1 251.747C490.984 251.856 490.845 251.911 490.681 251.911ZM492.392 257.499V251.044H493.333V253.442H493.391C493.445 253.341 493.524 253.225 493.627 253.092C493.729 252.96 493.872 252.844 494.055 252.746C494.237 252.645 494.479 252.595 494.779 252.595C495.17 252.595 495.518 252.693 495.825 252.891C496.131 253.088 496.371 253.373 496.546 253.745C496.722 254.117 496.81 254.565 496.81 255.088C496.81 255.611 496.723 256.06 496.549 256.433C496.375 256.806 496.135 257.093 495.831 257.294C495.527 257.494 495.179 257.593 494.788 257.593C494.495 257.593 494.254 257.544 494.067 257.445C493.883 257.347 493.738 257.231 493.633 257.099C493.528 256.966 493.447 256.848 493.391 256.746H493.312V257.499H492.392ZM493.315 255.078C493.315 255.419 493.364 255.717 493.463 255.974C493.561 256.23 493.704 256.431 493.891 256.575C494.078 256.718 494.307 256.79 494.578 256.79C494.859 256.79 495.094 256.715 495.283 256.566C495.472 256.415 495.615 256.21 495.711 255.951C495.81 255.693 495.859 255.402 495.859 255.078C495.859 254.759 495.811 254.472 495.715 254.218C495.62 253.964 495.477 253.763 495.286 253.616C495.097 253.468 494.861 253.395 494.578 253.395C494.304 253.395 494.074 253.466 493.885 253.607C493.698 253.747 493.556 253.944 493.46 254.196C493.363 254.448 493.315 254.742 493.315 255.078ZM497.77 257.499V252.657H498.68V253.427H498.731C498.819 253.166 498.974 252.961 499.197 252.812C499.421 252.661 499.675 252.585 499.959 252.585C500.018 252.585 500.087 252.587 500.167 252.591C500.248 252.596 500.313 252.601 500.359 252.607V253.508C500.321 253.498 500.254 253.487 500.157 253.474C500.06 253.459 499.964 253.452 499.868 253.452C499.645 253.452 499.446 253.499 499.272 253.594C499.1 253.686 498.964 253.815 498.863 253.982C498.762 254.145 498.712 254.332 498.712 254.542V257.499H497.77ZM502.44 257.606C502.134 257.606 501.857 257.55 501.609 257.436C501.361 257.321 501.165 257.154 501.02 256.935C500.877 256.716 500.806 256.448 500.806 256.131C500.806 255.858 500.859 255.633 500.963 255.457C501.069 255.28 501.21 255.14 501.388 255.037C501.567 254.935 501.766 254.856 501.987 254.804C502.208 254.752 502.432 254.712 502.661 254.684C502.951 254.651 503.186 254.623 503.367 254.602C503.547 254.579 503.678 254.542 503.76 254.492C503.842 254.441 503.883 254.36 503.883 254.246V254.224C503.883 253.949 503.805 253.736 503.65 253.584C503.496 253.433 503.267 253.357 502.963 253.357C502.646 253.357 502.397 253.428 502.214 253.568C502.033 253.707 501.908 253.862 501.839 254.032L500.954 253.83C501.059 253.536 501.212 253.299 501.414 253.118C501.617 252.935 501.852 252.803 502.116 252.721C502.381 252.636 502.659 252.595 502.951 252.595C503.144 252.595 503.348 252.617 503.564 252.664C503.783 252.708 503.987 252.79 504.176 252.91C504.366 253.03 504.523 253.201 504.645 253.423C504.767 253.644 504.828 253.931 504.828 254.284V257.499H503.908V256.837H503.87C503.809 256.959 503.718 257.079 503.596 257.196C503.475 257.314 503.318 257.411 503.127 257.49C502.936 257.567 502.707 257.606 502.44 257.606ZM502.645 256.85C502.905 256.85 503.128 256.798 503.313 256.695C503.5 256.592 503.642 256.458 503.738 256.292C503.837 256.123 503.886 255.944 503.886 255.753V255.129C503.852 255.163 503.787 255.194 503.691 255.223C503.596 255.251 503.488 255.275 503.367 255.296C503.245 255.315 503.126 255.332 503.01 255.35C502.895 255.364 502.798 255.377 502.721 255.387C502.538 255.41 502.371 255.449 502.22 255.504C502.071 255.559 501.951 255.637 501.861 255.74C501.773 255.841 501.729 255.975 501.729 256.143C501.729 256.377 501.815 256.553 501.987 256.673C502.159 256.791 502.378 256.85 502.645 256.85ZM508.242 252.657V253.414H505.6V252.657H508.242ZM506.309 251.497H507.25V256.077C507.25 256.26 507.277 256.398 507.332 256.49C507.387 256.58 507.457 256.643 507.543 256.676C507.631 256.708 507.727 256.724 507.829 256.724C507.905 256.724 507.971 256.718 508.028 256.708C508.084 256.698 508.129 256.689 508.16 256.683L508.331 257.461C508.276 257.482 508.198 257.503 508.097 257.524C507.996 257.547 507.871 257.56 507.719 257.562C507.471 257.566 507.241 257.522 507.026 257.43C506.812 257.337 506.639 257.194 506.507 257.001C506.375 256.807 506.309 256.565 506.309 256.273V251.497ZM509.186 257.499V252.657H510.128V257.499H509.186ZM509.662 251.911C509.498 251.911 509.358 251.856 509.24 251.747C509.124 251.636 509.067 251.503 509.067 251.349C509.067 251.194 509.124 251.061 509.24 250.953C509.358 250.841 509.498 250.785 509.662 250.785C509.825 250.785 509.965 250.841 510.08 250.953C510.198 251.061 510.257 251.194 510.257 251.349C510.257 251.503 510.198 251.636 510.08 251.747C509.965 251.856 509.825 251.911 509.662 251.911ZM513.334 257.597C512.881 257.597 512.485 257.492 512.147 257.284C511.809 257.076 511.547 256.786 511.36 256.411C511.173 256.037 511.08 255.6 511.08 255.1C511.08 254.598 511.173 254.159 511.36 253.783C511.547 253.407 511.809 253.114 512.147 252.906C512.485 252.698 512.881 252.595 513.334 252.595C513.788 252.595 514.184 252.698 514.522 252.906C514.86 253.114 515.122 253.407 515.309 253.783C515.496 254.159 515.59 254.598 515.59 255.1C515.59 255.6 515.496 256.037 515.309 256.411C515.122 256.786 514.86 257.076 514.522 257.284C514.184 257.492 513.788 257.597 513.334 257.597ZM513.338 256.806C513.631 256.806 513.875 256.727 514.068 256.572C514.262 256.417 514.404 256.21 514.497 255.951C514.591 255.693 514.639 255.408 514.639 255.097C514.639 254.788 514.591 254.505 514.497 254.246C514.404 253.985 514.262 253.776 514.068 253.619C513.875 253.461 513.631 253.382 513.338 253.382C513.042 253.382 512.796 253.461 512.601 253.619C512.408 253.776 512.264 253.985 512.169 254.246C512.077 254.505 512.031 254.788 512.031 255.097C512.031 255.408 512.077 255.693 512.169 255.951C512.264 256.21 512.408 256.417 512.601 256.572C512.796 256.727 513.042 256.806 513.338 256.806ZM517.485 254.624V257.499H516.543V252.657H517.446V253.446H517.506C517.618 253.189 517.792 252.983 518.03 252.828C518.268 252.672 518.57 252.595 518.933 252.595C519.263 252.595 519.551 252.664 519.799 252.803C520.047 252.939 520.239 253.143 520.376 253.414C520.512 253.685 520.58 254.02 520.58 254.42V257.499H519.639V254.533C519.639 254.182 519.547 253.908 519.365 253.71C519.182 253.511 518.931 253.411 518.612 253.411C518.394 253.411 518.199 253.458 518.03 253.553C517.862 253.647 517.728 253.786 517.629 253.969C517.533 254.15 517.485 254.368 517.485 254.624ZM522.366 257.559C522.194 257.559 522.046 257.498 521.922 257.376C521.798 257.252 521.736 257.103 521.736 256.928C521.736 256.756 521.798 256.609 521.922 256.487C522.046 256.363 522.194 256.301 522.366 256.301C522.538 256.301 522.686 256.363 522.81 256.487C522.934 256.609 522.996 256.756 522.996 256.928C522.996 257.044 522.966 257.15 522.908 257.247C522.851 257.342 522.775 257.417 522.681 257.474C522.586 257.53 522.481 257.559 522.366 257.559Z" fill="#333333"/>
<path d="M416.132 259.264H521.11V259.869H416.132V259.264Z" fill="#333333"/>
<path d="M387.218 374.781C387.184 374.483 387.046 374.252 386.802 374.088C386.559 373.922 386.253 373.839 385.883 373.839C385.619 373.839 385.39 373.881 385.196 373.965C385.003 374.047 384.853 374.16 384.746 374.305C384.641 374.448 384.589 374.611 384.589 374.794C384.589 374.947 384.624 375.08 384.696 375.191C384.769 375.302 384.865 375.396 384.982 375.471C385.102 375.545 385.23 375.607 385.366 375.658C385.503 375.706 385.634 375.746 385.76 375.777L386.39 375.941C386.596 375.992 386.807 376.06 387.023 376.146C387.239 376.232 387.44 376.345 387.624 376.486C387.809 376.627 387.958 376.801 388.072 377.009C388.187 377.218 388.245 377.467 388.245 377.757C388.245 378.122 388.15 378.447 387.961 378.73C387.775 379.014 387.502 379.238 387.146 379.402C386.791 379.566 386.362 379.648 385.857 379.648C385.375 379.648 384.957 379.571 384.604 379.418C384.252 379.265 383.976 379.046 383.776 378.765C383.577 378.482 383.466 378.145 383.445 377.757H384.422C384.441 377.99 384.516 378.184 384.649 378.34C384.783 378.493 384.954 378.608 385.162 378.683C385.372 378.757 385.601 378.794 385.851 378.794C386.126 378.794 386.371 378.75 386.585 378.664C386.801 378.576 386.972 378.454 387.095 378.299C387.219 378.141 387.281 377.957 387.281 377.747C387.281 377.556 387.226 377.399 387.117 377.277C387.01 377.155 386.865 377.055 386.679 376.975C386.497 376.895 386.29 376.825 386.059 376.764L385.297 376.556C384.781 376.415 384.371 376.208 384.069 375.935C383.769 375.661 383.619 375.3 383.619 374.85C383.619 374.479 383.72 374.154 383.921 373.876C384.123 373.599 384.395 373.384 384.74 373.231C385.084 373.075 385.472 372.997 385.905 372.997C386.342 372.997 386.727 373.074 387.061 373.227C387.397 373.38 387.661 373.592 387.854 373.861C388.047 374.128 388.148 374.434 388.157 374.781H387.218ZM391.493 374.699V375.456H388.85V374.699H391.493ZM389.559 373.539H390.5V378.119C390.5 378.302 390.528 378.44 390.583 378.532C390.637 378.622 390.707 378.684 390.793 378.718C390.882 378.75 390.977 378.765 391.08 378.765C391.156 378.765 391.222 378.76 391.278 378.75C391.335 378.739 391.379 378.73 391.411 378.724L391.581 379.502C391.526 379.524 391.448 379.545 391.347 379.566C391.247 379.589 391.121 379.601 390.97 379.603C390.722 379.608 390.491 379.564 390.277 379.471C390.063 379.379 389.89 379.236 389.757 379.043C389.625 378.849 389.559 378.607 389.559 378.314V373.539ZM393.844 379.648C393.538 379.648 393.261 379.591 393.013 379.478C392.765 379.362 392.569 379.195 392.424 378.977C392.281 378.758 392.21 378.49 392.21 378.173C392.21 377.899 392.262 377.675 392.367 377.498C392.472 377.322 392.614 377.182 392.792 377.079C392.971 376.976 393.17 376.898 393.391 376.846C393.611 376.793 393.836 376.753 394.065 376.726C394.354 376.692 394.59 376.665 394.77 376.644C394.951 376.621 395.082 376.584 395.163 376.534C395.245 376.483 395.286 376.401 395.286 376.288V376.266C395.286 375.99 395.209 375.777 395.054 375.626C394.9 375.475 394.671 375.399 394.367 375.399C394.05 375.399 393.8 375.47 393.618 375.61C393.437 375.749 393.312 375.903 393.243 376.074L392.358 375.872C392.463 375.578 392.616 375.34 392.818 375.159C393.021 374.976 393.255 374.844 393.52 374.762C393.784 374.678 394.063 374.636 394.354 374.636C394.548 374.636 394.752 374.659 394.968 374.706C395.187 374.749 395.391 374.832 395.579 374.951C395.77 375.071 395.927 375.243 396.049 375.465C396.171 375.686 396.232 375.973 396.232 376.325V379.541H395.312V378.878H395.274C395.213 379 395.122 379.12 395 379.238C394.878 379.355 394.722 379.453 394.53 379.531C394.34 379.609 394.111 379.648 393.844 379.648ZM394.049 378.891C394.309 378.891 394.532 378.84 394.717 378.737C394.903 378.634 395.045 378.5 395.142 378.334C395.24 378.165 395.29 377.986 395.29 377.794V377.17C395.256 377.204 395.191 377.235 395.094 377.265C395 377.292 394.892 377.316 394.77 377.337C394.649 377.356 394.53 377.374 394.414 377.391C394.299 377.406 394.202 377.418 394.124 377.429C393.942 377.452 393.775 377.491 393.624 377.545C393.475 377.6 393.355 377.679 393.265 377.782C393.176 377.883 393.133 378.017 393.133 378.185C393.133 378.419 393.219 378.595 393.391 378.715C393.563 378.832 393.782 378.891 394.049 378.891ZM397.388 379.541V374.699H398.298V375.468H398.348C398.436 375.208 398.592 375.003 398.814 374.854C399.039 374.702 399.293 374.627 399.576 374.627C399.635 374.627 399.704 374.629 399.784 374.633C399.866 374.637 399.931 374.642 399.977 374.649V375.55C399.939 375.54 399.871 375.528 399.775 375.516C399.678 375.501 399.582 375.493 399.486 375.493C399.263 375.493 399.064 375.541 398.89 375.635C398.718 375.728 398.582 375.857 398.481 376.023C398.38 376.187 398.329 376.374 398.329 376.584V379.541H397.388ZM403.238 374.699V375.456H400.595V374.699H403.238ZM401.304 373.539H402.246V378.119C402.246 378.302 402.273 378.44 402.327 378.532C402.382 378.622 402.452 378.684 402.538 378.718C402.627 378.75 402.722 378.765 402.825 378.765C402.901 378.765 402.967 378.76 403.023 378.75C403.08 378.739 403.124 378.73 403.156 378.724L403.326 379.502C403.271 379.524 403.194 379.545 403.093 379.566C402.992 379.589 402.866 379.601 402.715 379.603C402.467 379.608 402.236 379.564 402.022 379.471C401.808 379.379 401.634 379.236 401.502 379.043C401.37 378.849 401.304 378.607 401.304 378.314V373.539ZM408.468 379.638C408.015 379.638 407.619 379.534 407.281 379.326C406.943 379.118 406.681 378.827 406.494 378.453C406.307 378.079 406.214 377.642 406.214 377.142C406.214 376.639 406.307 376.201 406.494 375.825C406.681 375.448 406.943 375.156 407.281 374.948C407.619 374.74 408.015 374.636 408.468 374.636C408.922 374.636 409.318 374.74 409.656 374.948C409.994 375.156 410.256 375.448 410.443 375.825C410.63 376.201 410.723 376.639 410.723 377.142C410.723 377.642 410.63 378.079 410.443 378.453C410.256 378.827 409.994 379.118 409.656 379.326C409.318 379.534 408.922 379.638 408.468 379.638ZM408.472 378.847C408.765 378.847 409.009 378.769 409.202 378.614C409.396 378.458 409.538 378.252 409.631 377.993C409.725 377.735 409.773 377.45 409.773 377.139C409.773 376.83 409.725 376.546 409.631 376.288C409.538 376.027 409.396 375.818 409.202 375.66C409.009 375.503 408.765 375.424 408.472 375.424C408.176 375.424 407.93 375.503 407.735 375.66C407.542 375.818 407.398 376.027 407.303 376.288C407.211 376.546 407.165 376.83 407.165 377.139C407.165 377.45 407.211 377.735 407.303 377.993C407.398 378.252 407.542 378.458 407.735 378.614C407.93 378.769 408.176 378.847 408.472 378.847ZM415.65 374.699L413.896 379.541H412.889L411.131 374.699H412.142L413.368 378.425H413.417L414.64 374.699H415.65ZM418.358 379.638C417.881 379.638 417.471 379.536 417.126 379.333C416.785 379.126 416.52 378.838 416.333 378.466C416.148 378.092 416.056 377.654 416.056 377.152C416.056 376.656 416.148 376.218 416.333 375.84C416.52 375.462 416.78 375.167 417.114 374.955C417.45 374.742 417.843 374.636 418.292 374.636C418.565 374.636 418.829 374.681 419.085 374.772C419.342 374.862 419.571 375.004 419.775 375.197C419.979 375.391 420.139 375.642 420.257 375.951C420.374 376.257 420.433 376.63 420.433 377.069V377.403H416.588V376.698H419.51C419.51 376.45 419.46 376.23 419.36 376.039C419.259 375.846 419.117 375.693 418.934 375.582C418.754 375.471 418.542 375.415 418.298 375.415C418.034 375.415 417.803 375.48 417.605 375.61C417.41 375.738 417.259 375.907 417.152 376.115C417.047 376.32 416.995 376.544 416.995 376.786V377.337C416.995 377.661 417.051 377.936 417.164 378.163C417.28 378.39 417.441 378.563 417.646 378.683C417.852 378.801 418.093 378.86 418.367 378.86C418.546 378.86 418.708 378.835 418.856 378.784C419.003 378.731 419.13 378.654 419.237 378.551C419.344 378.448 419.426 378.321 419.482 378.169L420.373 378.33C420.302 378.593 420.174 378.823 419.989 379.02C419.807 379.216 419.577 379.368 419.3 379.478C419.025 379.585 418.711 379.638 418.358 379.638ZM421.38 379.541V374.699H422.291V375.468H422.341C422.429 375.208 422.585 375.003 422.807 374.854C423.032 374.702 423.286 374.627 423.569 374.627C423.628 374.627 423.697 374.629 423.777 374.633C423.859 374.637 423.923 374.642 423.969 374.649V375.55C423.931 375.54 423.864 375.528 423.768 375.516C423.671 375.501 423.575 375.493 423.478 375.493C423.255 375.493 423.057 375.541 422.882 375.635C422.711 375.728 422.574 375.857 422.473 376.023C422.373 376.187 422.322 376.374 422.322 376.584V379.541H421.38Z" fill="#333333"/>
<path d="M382.992 381.306H424.155V381.911H382.992V381.306Z" fill="#333333"/>
<path d="M402.938 168.64C393.373 168.64 385.61 176.41 385.61 185.983C385.61 195.557 393.373 203.326 402.938 203.326C412.504 203.326 420.266 195.557 420.266 185.983C420.266 176.41 412.504 168.64 402.938 168.64ZM401.205 192.92H397.74V179.046H401.205V192.92ZM408.136 192.92H404.671V179.046H408.136V192.92Z" fill="black"/>
<path d="M755.631 35.5031C759.71 35.5031 763.016 32.6469 763.016 29.1236C763.016 25.6003 759.71 22.7441 755.631 22.7441C751.553 22.7441 748.247 25.6003 748.247 29.1236C748.247 32.6469 751.553 35.5031 755.631 35.5031Z" fill="#4ECB71"/>
<path d="M773.368 35.5031C777.446 35.5031 780.752 32.6469 780.752 29.1236C780.752 25.6003 777.446 22.7441 773.368 22.7441C769.289 22.7441 765.983 25.6003 765.983 29.1236C765.983 32.6469 769.289 35.5031 773.368 35.5031Z" fill="#FF9A62"/>
<path d="M737.895 35.5031C741.973 35.5031 745.28 32.6469 745.28 29.1236C745.28 25.6003 741.973 22.7441 737.895 22.7441C733.817 22.7441 730.511 25.6003 730.511 29.1236C730.511 32.6469 733.817 35.5031 737.895 35.5031Z" fill="#FFD233"/>
</svg>
