<svg width="314" height="247" viewBox="0 0 314 247" fill="none" xmlns="http://www.w3.org/2000/svg">
<path d="M290.926 97.0868C290.825 97.9203 290.85 98.5518 292.037 98.8802C296.735 100.118 300.954 102.24 303.656 106.508C304.793 108.327 305.879 113.581 305.854 114.187C305.753 116.966 305.147 119.643 304.591 122.371C304.364 123.558 304.086 124.771 304.212 125.983C304.439 127.979 311.537 131.641 313.305 131.743C313.912 131.768 313.684 132.374 313.634 132.677C313.23 136.188 312.143 139.421 309.693 142.074C307.42 144.524 304.591 145.66 301.257 145.585C299.16 145.559 299.16 145.585 299.16 147.732C299.16 152.682 299.16 157.608 299.16 162.559C299.16 165.64 297.493 167.333 294.386 167.358C293.401 167.358 292.391 167.383 291.406 167.358C290.85 167.333 290.597 167.434 290.597 168.091C290.648 173.218 290.648 178.346 290.648 183.499C290.648 186.454 290.597 189.384 290.597 192.339C290.597 202.847 290.597 213.33 290.597 223.838C290.597 230.001 290.597 236.164 290.623 242.328C290.623 242.858 290.244 243.565 291.229 243.868C291.582 243.969 291.33 244.853 291.33 245.384C291.355 246.925 291.33 246.925 289.839 246.925C229.293 246.925 168.772 246.925 108.225 246.925C106.71 246.925 106.71 246.925 106.71 245.434C106.71 245.232 106.735 245.056 106.71 244.853C106.584 243.995 106.861 243.692 107.796 243.717C112.267 243.767 116.763 243.717 121.234 243.767C122.067 243.767 122.472 243.692 122.371 242.681C122.093 240.357 124.442 237.554 126.639 236.619C128.433 235.861 130.277 235.836 132.121 235.886C132.904 235.912 133.156 235.71 133.156 234.876C133.131 221.691 133.131 208.505 133.156 195.345C133.156 194.79 133.055 194.284 132.777 193.805C132.5 193.35 132.272 192.87 132.02 192.39C129.494 187.616 129.494 187.616 129.494 182.135C129.494 179.154 129.468 176.148 129.519 173.168C129.519 172.385 129.292 172.157 128.559 172.233C126.159 172.486 123.76 172.713 121.335 172.915C120.577 172.991 119.794 172.839 119.036 172.94C118.127 173.067 117.824 172.637 117.748 171.854C117.597 170.263 117.42 168.697 117.268 167.105C116.915 163.721 116.536 160.361 116.157 156.977C115.854 154.198 115.879 151.419 116.435 148.641C117.723 142.124 120.653 136.491 125.073 131.566C126.816 129.621 128.66 127.752 130.908 126.463C132.55 125.529 133.055 124.241 133.131 122.523C133.207 121.209 133.081 119.719 133.661 118.633C134.495 117.092 133.358 116.562 132.727 115.804C131.287 114.036 129.898 112.217 128.989 110.095C127.776 107.216 126.867 104.286 126.791 101.103C126.665 95.5965 126.589 90.0647 126.993 84.5835C127.119 82.9921 127.372 81.325 128.079 79.7842C128.812 78.1676 129.468 76.5763 130.479 75.0607C133.055 71.1203 136.339 68.0892 140.684 66.1947C142.224 65.538 143.79 64.856 145.432 64.7297C148.564 64.4771 151.671 63.8203 154.829 64.3508C157.38 64.7802 159.704 66.8515 160.335 69.3016C160.588 70.2867 161.548 70.0341 162.154 70.1352C165.059 70.6151 167.383 71.9791 169.353 74.1766C170.111 75.0355 170.793 75.8943 171.374 76.8794C171.651 77.3341 172.005 77.7635 171.803 78.3444C171.576 79.0264 172.384 78.9759 172.51 79.4811C172.788 80.744 173.268 81.9818 173.268 83.27C173.268 89.7111 173.622 96.1522 173.091 102.568C172.788 106.407 171.399 110.02 169.201 113.253C168.671 114.036 168.014 114.768 167.307 115.425C166.65 116.031 166.372 116.663 166.499 117.522C166.701 119.012 166.524 120.553 167.13 121.992C167.181 122.119 167.231 122.296 167.206 122.422C166.877 124.493 168.014 125.731 169.706 126.564C170.995 127.196 172.03 128.105 172.965 129.141C174.354 130.682 175.945 132.02 177.183 133.738C178.093 135.001 179.027 136.239 179.709 137.653C180.972 140.305 182.286 142.958 182.942 145.862C184.887 151.571 182.336 172.46 182.008 172.764C181.654 174.33 176.173 172.46 174.329 172.132C173.293 171.955 173.268 172.258 173.268 173.041C173.293 177.26 173.243 181.478 173.319 185.696C173.344 186.858 172.965 187.793 172.409 188.727C171.348 190.496 170.641 192.441 169.782 194.31C169.58 194.739 169.656 195.295 169.656 195.775C169.656 208.884 169.631 221.969 169.681 235.078C169.681 236.063 169.504 236.467 168.443 236.341C167.61 236.24 166.751 236.341 165.918 236.316C165.337 236.291 165.084 236.442 165.109 237.074C165.135 239.069 165.135 241.065 165.109 243.06C165.109 243.641 165.337 243.793 165.867 243.742C166.044 243.717 166.246 243.742 166.448 243.742C192.92 243.742 219.391 243.742 245.888 243.767C246.949 243.767 247.353 243.489 247.151 242.454C247 241.545 247.353 241.014 248.212 240.585C252.228 238.589 255.866 235.937 259.655 233.563C260.135 233.259 260.286 232.906 260.286 232.35C260.261 230.43 260.311 228.511 260.261 226.616C260.236 225.909 260.387 225.631 261.195 225.631C263.898 225.631 263.898 225.606 263.898 222.878C263.898 211.309 263.873 199.74 263.923 188.172C263.923 187.01 263.646 186.656 262.458 186.707C260.286 186.808 260.286 186.732 260.286 184.534C260.286 177.512 260.261 170.515 260.261 163.493C260.311 163.317 260.236 163.266 260.084 163.291C257.407 163.291 254.729 163.241 252.052 163.266C250.41 163.291 249.021 162.811 248.061 161.447C247.732 160.993 247.353 160.967 246.873 160.967C244.575 160.967 242.276 160.942 239.978 160.967C237.578 160.993 235.759 159.856 234.143 158.29C233.511 157.659 233.006 156.951 233.208 155.966C233.36 155.183 232.93 155.107 232.299 155.133C228.788 155.158 225.252 155.107 221.741 155.158C220.932 155.158 220.579 154.931 220.301 154.122C218.634 149.171 216.866 144.246 215.148 139.32C212.95 132.98 210.803 126.64 208.631 120.275C208.404 119.593 208.202 118.911 207.974 118.254C207.57 117.042 207.57 117.042 208.934 117.042C217.825 117.042 226.717 117.042 235.583 117.042C237.881 117.042 240.18 117.067 242.478 117.016C243.261 116.991 243.64 117.269 243.842 118.052C244.499 120.452 250.713 145.332 253.618 147.429C255.638 147.353 257.659 147.378 259.68 147.353C259.831 147.378 259.907 147.302 259.857 147.151C259.882 145.509 264.151 118.557 263.696 117.926C263.292 117.345 262.08 117.345 261.221 117.117C258.846 116.511 256.674 115.425 254.552 114.238C254.249 114.061 253.82 113.985 253.719 113.556C253.618 113.379 253.441 113.354 253.264 113.354C250.991 111.939 249.5 109.767 247.909 107.696C246.09 105.296 245.611 102.467 244.827 99.7138C244.524 98.6781 244.676 97.5162 244.676 96.4048C244.676 92.4896 244.297 84.8613 245.206 82.0828C246.596 75.2881 250.738 70.3372 257.028 67.4577C261.094 65.6138 265.363 64.6034 269.834 65.0581C274.532 65.538 278.877 67.003 282.59 70.1099C285.192 71.9538 288.728 77.334 289.259 78.7486C289.814 80.1883 290.395 81.6281 290.648 83.1437C290.749 84.0278 291.406 93.4747 290.926 97.0868ZM287.238 204.464C286.404 204.262 286.051 204.439 286.076 205.449C286.126 211.814 286.126 218.18 286.076 224.57C286.076 225.555 286.404 225.757 287.238 225.555C287.389 225.581 287.465 225.53 287.415 225.353C287.415 218.458 287.415 211.562 287.415 204.666C287.465 204.489 287.389 204.439 287.238 204.464ZM251.622 160.109C256.523 160.109 261.423 160.058 266.323 160.109C267.308 160.109 267.637 159.831 267.485 158.921C267.536 158.871 267.561 158.795 267.611 158.745C267.561 158.745 267.485 158.745 267.435 158.745C265.49 158.745 263.545 158.745 261.574 158.719C260.387 158.719 259.023 159.048 258.063 158.568C257.154 158.088 256.674 156.774 255.992 155.815C255.891 155.663 255.841 155.436 255.689 155.335C255.411 155.158 254.931 155.006 254.881 155.486C254.805 156.269 254.274 156.042 253.87 156.042C252.329 156.067 250.814 156.067 249.273 156.042C248.515 156.017 248.364 156.32 248.717 156.926C249.374 157.962 250.081 158.997 250.789 160.008C250.915 160.21 251.142 160.083 251.319 160.083C251.37 160.159 251.395 160.26 251.445 160.336C251.521 160.26 251.572 160.184 251.622 160.109ZM287.415 242.58C287.415 238.741 287.44 234.927 287.44 231.087C287.44 228.814 287.44 228.814 285.192 228.814C282.439 228.814 282.236 228.839 282.489 231.517C282.742 234.043 281.933 235.558 279.66 236.771C277.033 238.16 274.608 239.953 272.082 241.545C271.703 241.772 271.527 242.024 271.577 242.454C271.628 243.035 272.082 242.782 272.36 242.807C272.941 242.858 273.497 242.807 274.078 242.833C276.098 242.858 278.043 242.934 279.887 241.646C281.782 240.332 283.878 239.322 286.051 238.084C286.051 239.448 286.126 240.635 286.025 241.797C285.95 242.807 286.354 242.984 287.187 242.782C287.389 242.807 287.465 242.757 287.415 242.58ZM161.699 120.275C159.628 121.285 157.582 122.27 155.283 122.75C152.177 123.407 149.095 123.382 145.937 123.003C142.805 122.624 140.052 121.285 137.4 119.77C136.92 119.492 136.718 119.391 136.617 120.098C136.44 121.664 136.162 123.205 135.96 124.746C135.809 125.832 136.086 126.615 137.248 127.044C138.713 127.575 140.204 127.928 141.694 128.333C142.881 128.661 144.094 128.913 145.331 128.989C147.074 129.09 148.842 129.116 150.61 129.116C154.98 129.116 159.274 128.585 163.417 126.994C164.478 126.59 164.579 125.958 164.453 125.074C164.25 123.609 163.998 122.119 163.796 120.654C163.72 120.174 163.72 119.593 163.316 119.391C162.735 119.138 162.23 119.467 161.927 120.047C161.826 120.123 161.75 120.199 161.699 120.275ZM271.653 204.666C271.653 207.798 271.628 210.93 271.628 214.062C271.628 221.969 271.653 229.875 271.653 237.781C271.678 237.857 271.729 237.932 271.754 238.033C271.855 237.958 271.981 237.882 272.082 237.806C274.305 236.392 276.503 234.952 278.751 233.563C279.281 233.234 279.306 232.805 279.306 232.3C279.306 230.38 279.332 228.485 279.281 226.566C279.256 225.859 279.508 225.631 280.19 225.682C280.872 225.732 281.58 225.656 282.262 225.707C282.767 225.732 282.893 225.53 282.893 225.05C282.868 218.407 282.868 211.739 282.893 205.095C282.893 204.615 282.767 204.413 282.262 204.439C278.776 204.489 275.315 204.489 271.83 204.514C271.653 204.413 271.602 204.489 271.653 204.666ZM160.739 135.658C160.866 135.658 160.992 135.658 161.118 135.658C162.785 137.83 164.453 140.002 166.17 142.25C168.014 139.042 169.782 135.91 171.601 132.803C171.828 132.425 171.727 132.222 171.449 131.945C170.338 130.783 169.1 129.772 167.761 128.838C167.282 128.509 166.903 128.509 166.448 128.787C165.21 129.57 163.897 130.202 162.482 130.656C158.213 132.046 153.793 132.222 149.373 132.399C147.428 132.475 145.458 132.298 143.538 131.945C140.204 131.313 136.819 130.707 133.889 128.812C133.459 128.535 133.207 128.661 132.878 128.913C131.767 129.772 130.63 130.606 129.494 131.439C129.14 131.717 128.989 132.02 129.241 132.526C130.858 135.708 132.424 138.891 134.04 142.175C135.809 139.825 137.501 137.603 139.244 135.304C140.86 137.451 142.452 139.447 143.891 141.543C144.573 142.528 144.851 142.326 145.432 141.493C146.923 139.421 148.489 137.401 150.029 135.355C151.646 137.552 153.237 139.649 154.778 141.77C155.258 142.452 155.561 142.478 156.092 141.77C157.607 139.724 159.173 137.704 160.739 135.658ZM302.014 110.398C301.762 109.54 301.408 108.731 300.878 107.974C298.933 105.17 290.496 101.457 290.269 101.886C290.218 102.568 292.719 103.755 293.275 104.286C295.346 106.382 296.079 108.782 295.573 111.687C295.068 114.541 294.487 117.37 293.932 120.199C293.25 123.685 292.77 127.196 291.936 130.631C291.178 133.713 291.481 136.643 293.654 139.068C296.053 141.745 298.983 143.084 302.722 142.351C306.561 141.619 308.607 139.118 309.769 135.658C310.274 134.193 310.274 134.243 308.809 134.041C305.121 133.536 302.393 131.414 301.231 127.474C300.474 124.821 301.585 122.346 301.863 119.795C301.989 118.608 302.469 117.446 302.595 116.259C302.823 114.364 302.595 112.47 302.166 110.626C302.116 110.55 302.065 110.474 302.014 110.398ZM287.238 167.409C286.808 167.383 286.404 167.358 285.975 167.358C280.19 167.358 274.406 167.333 268.622 167.383C267.813 167.383 267.46 167.257 267.485 166.322C267.51 165.312 267.99 163.948 267.258 163.418C266.576 162.938 265.262 163.317 264.227 163.266C263.595 163.241 263.469 163.443 263.469 164.049C263.494 170.288 263.494 176.527 263.469 182.766C263.469 183.322 263.57 183.575 264.201 183.575C271.678 183.549 279.13 183.549 286.606 183.575C287.288 183.575 287.44 183.322 287.44 182.716C287.415 177.689 287.415 172.688 287.389 167.661C287.465 167.484 287.415 167.409 287.238 167.409ZM132.777 185.115C132.752 185.267 132.803 185.343 132.954 185.292C145.079 185.292 157.228 185.317 169.353 185.343C170.035 185.343 170.161 185.115 170.161 184.484C170.136 180.341 170.136 176.224 170.161 172.082C170.161 171.602 170.111 171.4 169.504 171.299C166.549 170.793 163.594 170.137 160.638 169.631C159.123 169.379 157.582 168.823 155.991 169.278C155.309 169.48 154.652 169.48 153.97 169.48C152.303 169.48 150.661 169.859 149.019 170.036C146.215 170.339 143.386 170.566 140.583 170.894C138.158 171.172 135.733 171.526 133.283 171.778C132.702 171.829 132.727 172.107 132.727 172.511C132.752 176.679 132.752 180.897 132.777 185.115ZM166.499 232.931C166.524 232.577 166.549 232.249 166.549 231.895C166.549 220.2 166.549 208.531 166.574 196.836C166.574 195.876 166.322 195.648 165.387 195.674C156.142 195.724 146.923 195.724 137.678 195.674C136.667 195.674 136.339 195.851 136.339 196.962C136.389 210.602 136.364 224.242 136.389 237.882C136.389 238.791 136.162 239.044 135.253 239.019C133.308 238.993 131.338 238.892 129.393 239.12C127.801 239.322 126.614 240.155 125.831 241.519C125.25 242.53 125.528 243.06 126.639 243.06C130.656 243.06 134.697 243.035 138.713 243.085C139.623 243.111 139.774 242.807 139.749 241.999C139.698 239.423 139.774 236.872 139.724 234.295C139.698 233.436 139.875 233.057 140.835 233.133C142.048 233.234 143.285 233.133 144.523 233.158C145.154 233.184 145.407 232.982 145.432 232.325C145.483 231.037 145.559 229.723 145.71 228.435C145.912 226.49 146.241 224.545 146.342 222.6C146.443 220.756 146.771 218.937 146.847 217.068C146.973 214.441 147.453 211.84 147.731 209.213C148.009 206.586 148.16 203.959 148.413 201.332C148.564 199.791 148.59 199.791 150.206 199.791C151.848 199.791 153.515 199.841 155.157 199.766C156.092 199.715 156.269 200.044 156.269 200.902C156.243 212.976 156.243 225.025 156.243 237.099C156.243 238.817 156.243 238.817 154.5 238.918C151.621 239.094 150.711 239.903 150.711 242.201C150.711 242.959 150.964 243.06 151.621 243.06C154.803 243.035 157.986 243.035 161.169 243.06C161.901 243.06 162.129 242.883 162.129 242.125C162.078 239.397 162.129 236.695 162.103 233.967C162.103 233.335 162.255 233.108 162.937 233.133C164.074 233.184 165.236 233.133 166.372 233.108C166.448 233.158 166.499 233.083 166.499 232.931ZM274.154 101.431C275.139 102.619 275.896 103.932 277.311 104.74C279.256 105.877 281.251 106.559 283.499 106.508C284.005 106.508 284.409 106.433 284.737 105.953C286.606 103.073 287.566 99.8906 287.92 96.5058C288.172 93.9546 288.046 91.3782 288.122 88.827C288.172 86.3516 287.819 83.952 286.96 81.6281C284.661 75.4649 280.468 71.2718 274.179 69.2006C270.87 68.1144 267.536 67.9629 264.126 68.5943C260.337 69.3016 256.826 70.6151 253.896 73.1915C250.966 75.7427 249.223 79.1022 248.212 82.7648C247.454 85.518 247.985 88.4481 247.859 91.3024C247.833 91.8076 248.136 91.8329 248.515 91.8329C249.475 91.8076 250.41 91.6561 251.344 91.6813C254.477 91.7318 257.583 91.5803 260.716 92.0097C264.277 92.4896 267.334 93.8536 269.96 96.2532C271.451 97.6172 272.865 99.1075 273.648 101.053C273.674 101.305 273.876 101.406 274.154 101.431ZM264.1 134.824C263.671 134.824 263.519 135.102 263.545 135.506C263.57 135.809 262.812 145.585 262.837 146.671C262.837 147.277 263.039 147.454 263.62 147.454C265.111 147.429 266.601 147.403 268.091 147.454C269.657 147.479 270.668 148.515 270.693 150.106C270.693 150.864 270.642 151.647 270.718 152.405C270.819 153.339 270.541 153.668 269.556 153.617C267.561 153.541 267.485 153.592 267.561 151.647C267.586 150.737 267.258 150.611 266.449 150.611C261.65 150.636 256.876 150.636 252.077 150.636C250.233 150.636 250.208 149.954 249.753 149.02C249.526 148.338 241.468 121.437 241.316 121.083C241.14 120.123 240.66 120.25 240.053 120.25C232.248 120.25 224.418 120.25 216.613 120.25C215.375 120.25 214.163 120.3 212.925 120.224C211.99 120.174 211.94 120.452 212.218 121.235C212.824 122.902 213.354 124.569 213.91 126.261C213.834 126.438 213.961 126.463 214.062 126.514C215.148 129.09 215.805 131.818 216.815 134.445C218.078 137.805 219.189 141.24 220.301 144.65C221.008 146.848 222.069 148.944 222.549 151.217C222.726 152.127 223.281 152 223.888 152C232.703 152 253.188 152.101 253.87 151.975C256.421 151.521 258.19 152.379 259.175 154.804C259.453 155.461 259.983 155.587 260.665 155.587C263.671 155.562 266.677 155.587 269.683 155.587C275.593 155.587 281.479 155.587 287.389 155.613C288.147 155.613 288.4 155.41 288.374 154.653C288.324 153.036 288.349 151.445 288.349 149.828C288.349 147.656 288.349 147.706 290.496 147.656C291.406 147.631 291.557 147.959 291.532 148.767C291.481 151.672 291.456 154.602 291.532 157.507C291.557 158.517 291.305 158.795 290.269 158.77C284.106 158.719 277.942 158.77 271.779 158.719C270.971 158.719 270.592 158.871 270.668 159.78C270.743 160.917 270.743 162.079 270.668 163.216C270.617 163.948 270.845 164.175 271.628 164.175C279.281 164.15 286.96 164.15 294.613 164.175C295.7 164.175 296.003 163.67 296.003 162.71C295.978 157.078 295.978 151.445 296.003 145.812C296.003 144.953 295.7 144.574 294.992 144.17C290.673 141.669 288.223 138.057 288.4 132.904C288.425 131.844 288.652 130.808 288.981 129.823C289.637 127.777 289.259 126.11 287.44 124.872C287.288 124.771 287.288 124.645 287.187 124.518C286.076 122.978 284.383 122.043 283.121 120.628C282.363 119.77 280.948 119.34 279.887 118.582C279.508 118.305 279.205 118.38 278.928 118.759C277.942 120.224 267.081 134.9 264.1 134.824ZM146.316 167.105C144.675 166.6 143.083 166.297 141.467 166.07C138.587 165.666 135.783 164.782 132.853 164.807C131.009 164.832 129.165 164.807 127.347 164.807C126.917 164.807 126.513 164.883 126.513 164.201C126.513 162.761 126.589 161.346 126.917 159.932C127.574 157.229 128.205 154.526 128.786 151.798C128.913 151.217 129.09 151.091 129.645 151.015C132.247 150.687 134.52 151.445 136.718 152.834C139.067 154.324 141.593 155.562 143.993 156.951C144.75 157.406 145.559 158.012 146.594 157.987C150.585 157.936 154.551 157.936 158.542 157.962C159.224 157.962 159.476 157.734 159.35 157.103C158.946 155.032 159.805 153.491 161.421 152.304C161.674 152.127 161.851 151.874 162.078 151.647C163.316 150.384 163.366 150.359 164.68 151.495C165.261 152 165.589 151.899 166.069 151.394C166.776 150.662 167.61 150.03 168.342 149.298C168.747 148.894 169.151 148.691 169.732 148.717C171.853 148.843 174.001 148.919 176.122 148.969C176.703 148.995 176.931 149.121 176.931 149.752C176.905 151.773 176.905 153.819 176.931 155.84C176.931 156.143 176.905 156.396 176.678 156.673C175.794 157.861 174.935 159.073 174.102 160.311C173.672 160.942 173.167 161.17 172.409 161.17C164.402 161.144 156.395 161.094 148.388 161.195C146.215 161.22 144.321 160.816 142.452 159.679C139.446 157.861 136.339 156.244 133.232 154.552C132.095 153.92 131.641 154.122 131.287 155.309C131.06 156.118 130.504 156.749 130.63 157.76C130.757 158.669 130.277 159.654 130.075 160.614C129.923 161.321 130.1 161.675 130.933 161.624C132.222 161.548 133.56 161.473 134.849 161.649C136.869 161.927 138.865 162.331 140.86 162.786C143.134 163.291 145.483 163.367 147.68 163.973C150.232 164.681 152.884 164.933 155.46 165.438C157.885 165.944 160.335 166.474 162.785 166.853C164.958 167.181 167.13 167.51 169.302 168.015C172.081 168.646 174.935 168.924 177.739 169.581C178.219 169.682 179.305 170.238 179.381 169.151C179.482 167.333 179.785 165.539 179.911 163.746C180.037 161.978 180.416 160.235 180.492 158.492C180.618 156.219 181.225 153.996 180.922 151.672C180.543 148.641 179.987 145.686 178.775 142.831C177.714 140.381 176.526 138.007 174.96 135.835C174.152 134.698 174.127 134.723 173.47 135.885C171.399 139.497 169.353 143.134 167.256 146.746C166.524 147.984 166.448 147.984 165.614 146.873C164.048 144.827 162.508 142.781 160.891 140.634C159.249 142.831 157.633 144.928 156.092 147.05C155.587 147.757 155.359 147.656 154.905 147.024C154.02 145.761 153.086 144.574 152.151 143.337C151.469 142.452 150.787 141.568 150.055 140.609C148.413 142.806 146.847 144.852 145.331 146.923C144.826 147.631 144.573 147.782 143.993 146.949C142.629 145.004 141.163 143.134 139.749 141.24C139.32 140.659 138.991 140.533 138.587 141.215C138.486 141.417 138.309 141.594 138.183 141.77C136.844 143.539 135.531 145.281 134.192 147.024C133.712 147.631 133.283 147.934 132.904 146.923C132.727 146.443 132.449 145.963 132.222 145.509C130.529 142.124 128.862 138.765 127.145 135.405C126.993 135.127 126.816 134.268 126.286 134.95C125.149 136.466 124.038 137.982 123.078 139.623C121.966 141.568 121.209 143.665 120.426 145.736C119.769 147.454 119.264 149.298 119.213 151.091C119.137 153.415 119.314 155.764 119.516 158.088C119.845 161.599 120.501 165.11 120.527 168.646C120.527 169.354 120.83 169.808 121.663 169.657C122.219 169.556 122.775 169.48 123.33 169.429C127.776 169.076 132.196 168.596 136.642 168.065C139.825 167.737 143.033 167.459 146.316 167.105ZM130.1 95.0913C130.1 95.4449 130.049 95.7986 130.1 96.1269C130.327 97.693 129.948 99.3096 131.11 100.775C132.601 102.644 134.621 103.351 136.794 103.806C137.046 103.856 137.779 104.008 138.082 103.098C138.259 102.492 137.905 102.189 138.006 101.709C138.435 99.4612 139.572 97.4909 141.012 95.8744C143.108 93.5252 145.912 92.1865 148.994 91.6055C150.307 91.3529 151.57 91.0751 152.682 90.3678C155.056 88.8523 156.647 86.7052 157.254 84.0025C158.087 80.4409 158.112 80.3146 161.674 80.4915C161.75 80.4915 161.826 80.4915 161.901 80.4915C162.356 80.4915 162.558 80.7693 162.659 81.1987C163.392 84.2803 166.221 86.9073 169.328 87.4125C169.883 87.5135 170.186 87.4378 170.161 86.7558C170.111 85.6191 170.161 84.4572 170.136 83.3205C169.984 78.3192 165.564 72.7369 159.375 72.9389C159.325 72.9389 159.3 72.9389 159.249 72.9389C157.557 72.9389 157.557 72.9389 157.506 71.2213C157.43 69.3016 156.243 68.0134 154.374 67.6345C152.429 67.2303 150.509 67.4072 148.564 67.4829C145.331 67.6345 142.275 68.5691 139.547 70.2615C136.996 71.8528 134.899 73.9493 133.182 76.5005C131.514 79.0012 130.251 82.6385 130.024 85.7959C129.873 88.9028 130.226 91.9844 130.1 95.0913ZM130.681 104.766C130.706 105.296 130.731 105.7 130.832 106.155C131.363 108.327 132.626 110.07 133.763 111.914C135.531 114.718 138.057 116.789 140.961 118.103C144.978 119.896 149.221 120.957 153.743 119.871C157.228 119.037 160.361 117.698 163.089 115.349C166.145 112.697 168.292 109.489 169.353 105.549C170.616 100.825 170.01 96.0006 170.161 91.2266C170.161 90.8225 169.959 90.7215 169.605 90.6709C165.867 90.191 163.038 88.2966 160.967 85.1644C160.84 84.9876 160.79 84.634 160.537 84.735C160.335 84.8108 160.158 85.1139 160.108 85.3412C159.83 86.9326 158.971 88.2208 158.087 89.4838C156.319 92.0097 154.071 93.7778 150.914 94.384C148.463 94.8387 146.114 95.5965 144.094 97.2889C141.795 99.2338 140.911 101.633 141.037 104.513C141.062 105.094 141.315 105.675 141.467 106.281C141.643 106.938 141.441 107.14 140.759 107.14C139.016 107.165 137.274 106.913 135.556 106.711C133.813 106.483 132.222 105.725 130.681 104.766ZM281.504 109.514C280.089 109.262 278.751 109.009 277.488 108.453C274.532 107.14 272.512 104.841 270.87 102.189C269.556 100.042 267.864 98.1982 265.793 96.8847C264.05 95.7986 262.029 95.1671 259.907 94.9903C256.169 94.6619 252.431 94.8135 248.667 94.7629C248.339 94.7629 247.859 94.5103 247.783 95.1671C247.581 97.4152 247.682 99.7643 248.313 101.836C248.717 103.174 249.526 104.639 250.435 105.877C251.496 107.317 252.936 108.176 254.704 108.075C257.104 107.923 258.973 106.837 259.933 104.488C260.008 104.311 259.933 103.806 260.488 104.008C261.196 104.26 261.953 104.361 262.686 104.538C263.115 104.639 263.241 104.841 263.065 105.246C262.307 106.963 261.423 108.529 259.705 109.565C258.442 110.323 257.104 110.904 255.664 111.207C255.714 111.358 255.74 111.459 255.79 111.485C259.048 113.202 262.307 114.819 266.146 114.869C268.016 114.895 269.859 114.794 271.729 114.566C274.305 114.238 276.452 112.697 278.902 112.116C279.407 110.904 280.771 110.626 281.504 109.514ZM277.26 186.732C274.204 186.732 271.148 186.757 268.066 186.732C267.384 186.732 267.056 186.808 267.056 187.641C267.106 191.86 267.106 196.053 267.056 200.271C267.056 201.029 267.283 201.231 268.041 201.231C274.204 201.205 280.367 201.205 286.531 201.231C287.187 201.231 287.465 201.13 287.465 200.372C287.415 196.128 287.44 191.885 287.465 187.616C287.465 186.883 287.238 186.732 286.556 186.732C283.449 186.757 280.342 186.732 277.26 186.732ZM152.985 219.518C152.985 214.315 152.985 209.112 152.985 203.908C152.985 203.327 152.934 202.948 152.202 203.049C151.772 203.1 151.343 202.898 151.292 203.681C151.116 206.358 150.964 209.036 150.585 211.688C150.004 215.755 149.827 219.872 149.272 223.964C148.767 227.854 148.59 231.794 148.11 235.71C148.034 236.215 147.908 236.341 147.428 236.341C146.241 236.316 145.053 236.366 143.866 236.316C143.083 236.291 142.78 236.493 142.831 237.326C142.906 238.539 142.856 239.776 142.856 240.989C142.856 243.742 142.856 243.742 145.66 243.742C147.605 243.742 147.655 243.742 147.579 241.747C147.529 240.206 147.655 238.766 148.893 237.655C149.777 236.872 150.787 236.341 151.949 236.164C152.833 236.038 152.985 235.609 152.985 234.8C152.985 229.698 152.985 224.621 152.985 219.518ZM169.1 188.576C157.203 188.576 145.458 188.576 133.737 188.576C133.965 188.828 133.99 189.132 134.04 189.359C134.748 192.036 136.44 192.643 139.117 192.592C148.11 192.39 157.127 192.516 166.12 192.516C166.574 192.516 167.105 192.693 167.383 192.036C167.913 190.9 168.494 189.788 169.1 188.576ZM279.306 114.895C283.727 116.764 286.96 119.694 290.016 122.927C290.218 122.599 290.37 122.422 290.42 122.22C291.128 118.608 291.885 114.996 292.492 111.358C292.694 110.07 292.845 108.706 291.86 107.519C291.153 106.66 290.496 105.801 289.461 105.271C288.981 105.018 288.703 105.119 288.501 105.624C287.895 107.039 287.086 108.327 286.025 109.413C284.08 111.384 282.363 113.632 279.306 114.895ZM267.03 240.711C267.712 240.307 268.445 240.332 268.445 239.473C268.445 236.139 268.445 232.805 268.445 229.496C268.445 229.016 268.293 228.814 267.788 228.839C266.601 228.864 265.414 228.864 264.227 228.839C263.671 228.814 263.494 229.041 263.519 229.572C263.545 230.986 263.494 232.401 263.545 233.815C263.57 234.598 263.343 235.078 262.661 235.482C260.943 236.543 259.251 237.655 257.558 238.766C255.462 240.13 253.39 241.519 251.218 242.757C252.153 242.833 253.087 242.757 253.971 242.858C257.306 243.262 260.261 242.429 262.989 240.458C264.201 239.574 265.591 238.943 267.03 238.135C267.03 239.044 267.03 239.776 267.03 240.711ZM276.452 116.84C275.972 116.84 275.72 116.789 275.518 116.84C272.891 117.648 270.213 118.128 267.485 118.204C267.056 118.204 267.056 118.532 266.955 118.81C265.641 122.775 264.959 126.893 264.252 130.985C264.151 131.641 264.53 131.717 264.984 131.515C265.843 131.136 266.399 130.48 266.955 129.696C268.546 127.423 270.264 125.251 271.931 123.028C273.37 121.058 274.835 119.037 276.452 116.84ZM167.206 158.012C168.469 158.012 169.732 158.012 170.995 158.012C171.298 158.012 171.651 158.037 171.879 157.911C173.041 157.204 174.152 153.617 173.622 152.354C173.571 152.253 173.521 152.152 173.42 152.101C172.813 151.723 169.833 152.076 169.277 152.607C168.241 153.592 167.206 154.577 166.195 155.587C165.286 156.471 164.983 155.941 164.427 155.486C163.467 154.703 163.038 154.804 162.508 155.89C161.876 157.153 162.381 158.037 163.745 158.037C164.932 158.012 166.069 158.012 167.206 158.012ZM267.081 214.947C267.081 218.154 267.081 221.388 267.081 224.596C267.081 225.05 266.879 225.581 267.738 225.606C268.571 225.631 268.42 225.101 268.42 224.646C268.42 218.205 268.42 211.789 268.42 205.348C268.42 204.868 268.571 204.363 267.738 204.388C266.879 204.413 267.106 204.969 267.106 205.398C267.081 208.606 267.081 211.764 267.081 214.947ZM240.963 155.158C239.826 155.158 238.664 155.133 237.528 155.183C237.174 155.208 236.643 154.905 236.467 155.461C236.29 156.042 236.542 156.572 237.048 156.825C237.881 157.254 238.715 157.76 239.7 157.785C241.392 157.81 243.059 157.81 244.752 157.835C245.232 157.835 245.459 157.734 245.408 157.204C245.383 156.825 245.358 156.446 245.408 156.067C245.509 155.36 245.257 155.133 244.524 155.158C243.337 155.208 242.15 155.158 240.963 155.158Z" fill="white"/>
<path d="M57.3023 105.346C57.6812 105.649 57.5549 106.23 57.5549 106.584C57.5549 115.627 57.5549 124.644 57.5296 133.687C57.5296 134.293 57.757 134.672 58.1611 135.051C60.2576 136.92 62.1016 138.991 63.5414 141.416C63.8697 141.972 65.4105 144.725 65.6631 145.357C66.6988 147.933 67.8859 150.51 68.1133 153.288C68.3406 156.117 68.8458 158.921 68.8205 161.826C68.7195 173.193 68.7953 184.559 68.77 195.951C68.77 201.003 67.3808 205.55 63.9202 209.364C61.167 212.395 57.8328 214.441 53.7408 215.098C52.8567 215.224 52.503 215.527 52.6041 216.462C52.7051 217.396 52.6546 218.381 52.6546 219.316C51.5937 219.518 50.5328 219.366 49.4972 219.417C49.4719 218.356 49.4467 217.27 49.4719 216.209C49.4972 215.552 49.2699 215.325 48.6131 215.35C46.7439 215.375 44.8748 215.325 43.0056 215.375C41.9194 215.401 40.4039 214.87 39.8229 215.603C39.2672 216.285 39.6713 217.725 39.6208 218.811C39.5703 219.442 39.7724 219.67 40.4291 219.67C43.3592 219.619 46.3145 219.644 49.2699 219.619C50.4318 219.619 51.5685 219.619 52.7304 219.619C53.8418 219.442 54.1954 219.872 54.1449 221.034C54.0439 223.837 54.1449 226.616 54.0944 229.42C54.0691 230.405 54.3217 230.784 55.3826 230.708C57.1002 230.582 58.7673 230.657 60.2576 231.794C62.1268 233.209 63.0614 235.052 63.1372 237.351C63.1877 239.144 63.213 240.963 63.1119 242.757C63.0614 243.641 63.2888 243.817 64.1476 243.817C71.6243 243.792 79.1011 243.817 86.5525 243.767C87.7145 243.767 88.0681 244.095 87.866 245.156C87.8408 245.308 87.8408 245.459 87.866 245.611C88.0428 246.697 87.6892 247 86.5273 247C58.1611 246.975 29.8202 246.975 1.45408 247C0.342676 247 -0.0867315 246.798 0.0143055 245.586C0.140602 243.792 0.0395654 243.767 1.80771 243.767C3.98001 243.767 6.17756 243.742 8.34986 243.792C9.08238 243.817 9.36023 243.742 9.33497 242.858C9.28445 240.711 9.10764 238.563 9.41075 236.442C9.78964 233.815 11.3052 231.971 13.7301 230.986C14.5131 230.657 14.791 230.329 14.7657 229.495C14.7152 226.54 14.7657 223.585 14.7405 220.655C14.7405 219.897 14.8668 219.493 15.7256 219.644C16.7107 219.821 17.0896 219.467 16.9885 218.432C16.8875 217.497 17.2664 216.335 16.8622 215.603C16.4581 214.87 15.1951 215.098 14.311 214.845C10.5222 213.809 7.41527 211.738 4.93986 208.758C2.08556 205.297 0.57001 201.281 0.57001 196.785C0.57001 184.256 0.57001 171.727 0.696306 159.199C0.772084 150.257 4.13156 142.604 10.1938 136.087C10.6232 135.632 10.8253 135.203 10.8253 134.571C10.8 116.612 10.8505 98.6272 10.7748 80.6678C10.7495 77.0558 11.9114 74.252 15.0688 72.408C16.2813 71.7008 17.5948 71.3472 19.0345 71.3472C28.8856 71.3472 38.7368 71.3219 48.5879 71.3472C52.7051 71.3472 56.0141 73.4942 57.1255 77.7125C57.4791 79.026 57.4033 80.4152 57.4033 81.754C57.4033 83.4463 57.4286 85.1387 57.3781 86.8058C57.3528 87.5383 57.5802 87.7152 58.2874 87.6899C61.6469 87.6646 65.0316 87.6899 68.3911 87.6899C68.4669 87.7657 68.5427 87.8162 68.6185 87.892C68.6185 88.8013 68.6185 89.7359 68.6185 90.6452C68.5427 90.6958 68.4669 90.7715 68.4164 90.8221C65.0822 90.8221 61.7732 90.8726 58.439 90.8221C57.5549 90.7968 57.3781 91.0746 57.3781 91.9082C57.3528 96.3791 57.3276 100.85 57.3023 105.346C56.2919 105.346 55.3068 105.346 54.3217 105.346C54.3217 104.437 54.1449 95.9749 54.1954 91.8324C54.1954 91.0241 53.9681 90.8221 53.1851 90.8221C50.0529 90.8726 46.8955 90.7968 43.7633 90.8473C37.0191 90.9736 30.2496 90.4432 23.5307 91.3525C23.3791 91.3272 23.3033 91.3778 23.3539 91.5293C23.3539 94.5857 23.4802 97.6673 23.2528 100.698C23.1013 102.795 23.859 104.336 25.223 105.75C25.804 106.356 29.5676 109.009 30.9316 109.64C31.6136 109.943 32.2451 110.322 32.5735 111.08C33.4323 110.423 33.6344 109.438 34.0891 108.605C35.0489 106.912 36.2361 105.675 38.3831 105.725C41.1111 105.776 43.8139 105.75 46.5419 105.725C47.6028 105.725 48.4363 106.154 49.2951 106.761C50.4318 107.569 50.8359 108.781 51.4674 109.893C51.5937 110.12 51.5685 110.474 52.0736 110.297C53.4882 109.792 54.3975 108.529 54.4228 106.988C54.4228 106.533 54.347 105.801 54.347 105.346C55.3068 105.296 56.1656 105.119 57.3023 105.346ZM13.9069 91.9335C13.9827 91.9082 14.0585 91.8577 14.109 91.8324C14.1848 91.7566 14.2605 91.6809 14.3363 91.6051C15.2456 90.8978 16.1297 90.1906 17.1653 89.7106C20.0449 87.8667 45.3042 87.6394 52.8819 87.6899C53.9933 87.6899 54.1954 87.3363 54.1449 86.3512C54.0691 84.3557 53.9933 82.3602 54.1449 80.39C54.3722 77.2326 52.1494 74.3783 48.2342 74.4288C38.8631 74.5551 29.4666 74.4793 20.0954 74.454C18.7062 74.454 17.3422 74.5804 16.1297 75.2876C15.9024 75.4392 15.9024 75.4392 15.9024 75.4392C14.9425 76.1212 14.2353 77.0558 14.0837 78.1924C13.8816 78.6471 14.0837 78.6471 13.8816 78.9755C13.9069 83.0927 13.9322 91.8829 13.9069 91.9335ZM30.9316 168.545C31.26 168.545 31.5884 168.57 31.9168 168.57C33.205 169.404 34.0133 170.389 33.9122 172.081C33.8365 173.445 33.2808 174.329 32.2199 174.935C31.0327 175.592 29.7697 175.794 28.5825 174.885C28.5068 174.834 28.431 174.809 28.3552 174.759C26.486 173.496 26.486 170.262 28.3552 168.999C28.431 168.949 28.5068 168.898 28.5825 168.848C28.8604 168.696 29.1382 168.57 29.4413 168.393C26.4355 168.166 23.5812 167.61 20.8532 166.448C20.3228 166.221 20.0954 166.271 20.0954 166.903C20.1207 167.787 20.0954 168.671 20.0954 169.555C20.0954 179.128 20.0954 188.676 20.0954 198.25C20.0954 198.78 19.8933 199.361 20.8785 199.361C25.8798 199.311 30.9064 199.311 35.9077 199.311C36.0593 199.336 36.1856 199.336 36.1603 199.134C36.1856 198.704 36.2361 198.3 36.2361 197.871C36.2361 188.879 36.2361 179.911 36.2361 170.919C36.2361 168.393 36.2361 168.393 33.6596 168.393C33.2808 168.393 32.9019 168.393 32.523 168.393C31.9925 168.191 31.4621 168.368 30.9316 168.343C30.6791 168.418 30.3759 167.964 30.0981 168.419C30.3507 168.621 30.6538 168.545 30.9316 168.545ZM12.7197 243.009C17.6958 243.009 22.6719 243.034 27.6479 243.034C27.7995 243.034 27.9258 242.933 28.0773 242.883C29.5676 240.837 29.3908 238.513 29.214 236.214C29.113 234.876 27.8753 233.865 26.5365 233.815C26.4608 233.587 26.385 233.284 26.0566 233.638C22.7224 233.638 19.4134 233.638 16.0792 233.613C14.4626 233.587 12.3913 235.406 12.4924 237.301C12.5934 239.043 12.5176 240.812 12.5429 242.58C12.4924 242.782 12.3661 242.984 12.7197 243.009ZM20.3228 215.325C20.1459 215.249 20.0702 215.3 20.1207 215.502C20.1207 216.613 20.1459 217.725 20.0954 218.836C20.0702 219.442 20.2722 219.619 20.8785 219.619C23.4044 219.594 25.9303 219.594 28.4562 219.619C29.0372 219.619 29.2898 219.493 29.2393 218.861C29.1888 217.977 29.1888 217.093 29.2393 216.234C29.2898 215.527 29.0372 215.325 28.3299 215.325C25.6777 215.325 23.0002 215.325 20.3228 215.325ZM29.214 230.859C29.214 228.409 29.214 225.959 29.2645 223.509C29.2645 222.979 29.113 222.751 28.5573 222.751C25.2736 222.776 21.9646 222.751 18.6809 222.751C18.1757 222.751 17.9484 222.903 17.9736 223.484C17.9989 225.555 18.0242 227.626 17.9736 229.672C17.9484 230.354 18.2768 230.379 18.8072 230.379C20.9795 230.354 23.177 230.379 25.3493 230.379C26.5365 230.379 27.6732 230.607 28.8099 230.859C28.9362 230.986 29.0877 231.314 29.214 230.859ZM20.1207 211.991C20.0702 212.193 20.1207 212.243 20.3228 212.168C29.6687 212.168 39.0146 212.168 48.3605 212.193C49.1941 212.193 49.4972 212.016 49.4719 211.132C49.3962 208.606 49.4214 206.08 49.4719 203.554C49.4972 202.721 49.1941 202.569 48.4363 202.569C39.3177 202.594 30.1991 202.594 21.0805 202.569C20.348 202.569 20.0954 202.721 20.0954 203.504C20.1459 206.307 20.1207 209.162 20.1207 211.991ZM39.4188 199.134C39.3935 199.285 39.444 199.361 39.5956 199.311C42.7277 199.311 45.8851 199.311 49.0173 199.311C49.1688 199.361 49.2193 199.26 49.2446 199.134C49.4719 199.033 49.4214 198.831 49.4214 198.654C49.4214 188.853 49.4214 179.053 49.4467 169.227C49.4467 168.545 49.2193 168.368 48.5879 168.393C45.8346 168.419 43.0813 168.444 40.3028 168.393C39.4945 168.368 39.3682 168.671 39.3682 169.404C39.4188 179.305 39.4188 189.232 39.4188 199.134ZM52.7304 193.855C52.7304 194.006 52.7809 194.082 52.9325 194.031C57.075 194.031 61.2175 194.031 65.36 194.031C65.5116 194.082 65.5873 194.006 65.5621 193.855C65.5621 193.4 65.5621 192.945 65.6126 192.491C65.6884 191.708 65.5873 191.329 64.577 191.278C62.9099 191.228 61.1922 189.283 61.2428 187.843C61.2933 185.948 62.7078 184.332 64.6275 184.281C65.5621 184.256 65.6379 183.953 65.6126 183.195C65.5873 175.415 65.6126 167.635 65.5873 159.856C65.5873 158.012 65.5621 156.193 65.1579 154.349C64.2234 150.03 62.9099 145.887 60.2829 142.25C59.4999 141.164 58.8431 140.002 57.7822 139.168C57.7317 139.118 57.6812 139.067 57.6307 139.017C57.6307 139.067 57.6307 139.118 57.6054 139.194C57.6054 143.033 57.6307 146.847 57.5802 150.687C57.5549 152.404 57.858 153.995 58.6916 155.486C58.9442 155.94 59.1462 156.168 59.7525 156.168C60.5102 156.193 61.2933 156.269 62.051 156.244C62.7836 156.218 63.0109 156.42 63.0362 157.178C63.0867 158.593 62.7836 159.982 62.4805 161.321C62.0258 163.341 60.9144 165.009 59.3988 166.474C57.8075 167.989 55.7615 168.166 53.766 168.343C52.8314 168.418 52.5536 168.621 52.5788 169.58C52.6041 177.36 52.6041 185.14 52.6041 192.895C52.6293 193.173 52.7051 193.501 52.7304 193.855ZM3.77794 191.329C3.77794 192.162 3.77794 193.021 3.77794 193.855C3.75268 194.006 3.8032 194.082 3.95475 194.031C8.17305 194.031 12.3913 194.031 16.6096 194.031C16.7865 194.082 16.837 193.981 16.837 193.829C17.0138 193.627 16.9633 193.4 16.9633 193.173C16.9633 183.751 16.9633 174.329 16.9885 164.907C16.9885 164.352 16.7865 163.998 16.4328 163.619C15.0183 162.078 13.8816 160.411 13.1239 158.441C12.6439 157.178 12.5429 155.764 12.1388 154.551C11.482 152.657 11.3052 150.712 11.2042 148.843C11.0779 146.089 10.5474 143.336 10.8 140.558C10.8 140.507 10.8253 140.457 10.8253 140.381C10.7748 140.406 10.7242 140.456 10.6485 140.482C7.79416 143.765 5.87445 147.605 4.78831 151.773C4.28312 153.692 3.85371 155.688 3.87897 157.759C3.92949 166.474 3.82845 175.213 3.80319 183.928C3.75268 184.104 3.80319 184.206 4.00527 184.155C4.40942 184.231 4.81357 184.332 5.21771 184.382C6.43016 184.534 8.17305 186.529 7.66786 188.197C7.11216 190.091 6.2786 191.177 4.00527 191.101C3.80319 191.101 3.75268 191.152 3.77794 191.329ZM34.67 114.566C33.9122 114.364 28.7593 112.166 27.2691 111.232C24.6421 109.59 22.3688 107.594 20.6511 104.992C20.2722 104.412 20.1207 103.856 20.1207 103.174C20.1459 99.8396 20.0954 96.5054 20.1459 93.1712C20.1712 92.1355 19.7923 91.984 18.9335 92.3629C17.2916 93.0954 15.9782 94.1815 15.2456 95.8486C14.3616 97.8441 13.9322 99.9659 13.9574 102.138C14.1595 116.359 13.4775 130.58 14.2858 144.801C14.4373 147.403 14.1848 150.005 14.7657 152.606C15.3719 155.435 16.0792 158.188 17.9231 160.512C18.3778 161.068 18.7314 161.775 19.3629 162.104C21.7373 163.341 23.9853 164.781 26.8144 164.882C28.2036 164.933 29.5929 165.185 31.0074 165.185C38.3326 165.135 45.6325 165.185 52.9577 165.261C56.8729 165.286 58.5905 163.67 59.5756 160.083C59.7272 159.553 59.6514 159.249 58.9442 159.073C57.5802 158.719 56.3677 157.911 55.7615 156.648C54.8522 154.728 54.3975 152.707 54.3975 150.535C54.448 138.234 54.4228 125.932 54.3975 113.631C54.3975 113.353 54.4985 113.025 54.2459 112.722C52.6293 113.429 51.1643 114.49 49.3204 114.692C49.1941 114.111 49.0425 113.606 48.8152 112.924C48.5879 112.469 48.5879 111.762 48.5373 111.206C48.3858 109.792 47.1481 108.857 45.7083 108.857C43.6371 108.857 41.5658 108.857 39.4945 108.857C37.4738 108.857 36.2361 110.07 36.0593 112.267C36.1603 112.242 35.8572 114.894 34.67 114.566ZM39.6208 232.804C39.6208 235.911 39.6208 239.018 39.6208 242.1C39.6208 242.655 39.6461 243.034 40.4039 243.034C46.6934 243.009 52.9577 243.009 59.2473 243.034C59.803 243.034 60.0051 242.832 60.0051 242.302C59.9798 240.584 60.0808 238.841 59.9798 237.124C59.8535 235.052 58.2874 233.663 56.1656 233.613C54.7764 233.587 53.4124 233.512 52.0231 233.562C51.0633 233.613 50.8865 233.234 50.9117 232.375C50.9622 229.47 50.9117 226.565 50.937 223.635C50.937 222.877 50.7349 222.675 49.9771 222.701C46.8702 222.751 43.7633 222.726 40.6817 222.701C39.9239 222.701 39.5956 222.827 39.6208 223.686C39.6461 226.767 39.6208 229.799 39.6208 232.804ZM16.9633 204.666C16.9633 202.493 16.938 200.296 16.9633 198.123C16.9633 197.517 16.8622 197.239 16.155 197.239C12.2398 197.265 8.34986 197.265 4.43468 197.239C3.90423 197.239 3.70216 197.391 3.72742 197.947C3.82845 199.336 4.15682 200.7 4.66201 201.988C5.69764 204.741 7.31423 207.09 9.63808 208.96C11.4568 210.45 13.528 211.385 15.8013 211.94C16.6096 212.142 17.039 211.991 16.9885 210.955C16.9128 208.884 16.9633 206.762 16.9633 204.666ZM52.6293 204.539C52.6293 206.762 52.6293 208.985 52.6293 211.182C52.6293 211.561 52.4778 212.117 53.2103 211.965C56.2414 211.334 58.8684 209.97 61.0407 207.772C63.7182 205.044 65.1327 201.71 65.5873 197.921C65.6884 197.164 65.2337 197.239 64.7791 197.239C61.0407 197.239 57.2771 197.265 53.5387 197.214C52.7304 197.214 52.6293 197.517 52.6293 198.199C52.6546 200.346 52.6293 202.443 52.6293 204.539ZM31.2095 243.742C32.9524 243.742 34.4679 243.716 35.9835 243.742C36.4634 243.742 36.4887 243.565 36.4887 243.135C36.4634 234.876 36.4634 226.616 36.4634 218.356C36.4634 217.371 36.8928 216.032 36.2613 215.502C35.6551 214.997 34.3669 215.375 33.3818 215.3C32.5988 215.224 32.4219 215.527 32.4219 216.26C32.4725 218.432 32.4977 220.629 32.4977 222.802C32.4977 226.818 32.5482 230.834 32.4219 234.85C32.3209 237.806 33.1797 240.887 31.2095 243.742ZM65.1579 187.464C65.0316 187.565 64.9053 187.59 64.8801 187.666C64.8296 187.818 64.9306 187.868 65.0569 187.843C65.1327 187.843 65.2337 187.792 65.2337 187.742C65.2337 187.666 65.1832 187.59 65.1579 187.464Z" fill="white"/>
<path d="M59.2218 60.9401C59.2218 58.2121 59.1966 55.5094 59.1966 52.7814C59.1966 52.1246 59.0955 51.7963 58.3378 51.6447C53.7153 50.6091 50.8105 47.6285 49.3455 43.2081C49.1434 42.5766 49.0171 41.8441 49.0171 41.1116C49.0423 31.0079 48.9666 20.8789 49.0929 10.7752C49.1434 7.44099 50.8358 4.73825 53.3869 2.61647C55.4077 0.949356 57.8073 0.0400223 60.4595 0.0400223C75.5646 0.014763 90.6444 -0.0357555 105.749 0.0400223C111.433 0.0652815 115.676 3.80365 116.939 8.83025C117.192 9.81536 117.318 10.851 117.318 11.8614C117.343 21.2831 117.343 30.7048 117.343 40.1265C117.343 45.7593 113.428 50.5586 107.896 51.6952C107.012 51.872 106.103 51.9226 105.194 51.9226C95.0395 51.9478 84.8852 51.9478 74.731 51.9226C73.8975 51.9226 73.1902 52.0994 72.4829 52.5793C68.4415 55.3326 64.3747 58.01 60.2069 60.5612C60.0301 60.6875 59.8786 60.8643 59.7018 61.0159C59.5249 60.9906 59.3734 60.9654 59.2218 60.9401ZM62.3792 55.5094C65.4861 53.4381 68.4162 51.5184 71.321 49.5229C72.1041 48.9925 72.8871 48.7399 73.8722 48.7399C84.1022 48.7651 94.3322 48.7651 104.562 48.7651C105.219 48.7651 105.876 48.8914 106.507 48.7651C111.155 47.8811 114.135 44.7237 114.135 39.7981C114.135 30.5532 114.085 21.3336 114.161 12.0887C114.186 7.1884 110.549 3.17217 105.472 3.17217C90.5938 3.17217 75.7414 3.19743 60.8637 3.14691C56.0392 3.12165 52.124 7.28943 52.1998 12.0129C52.3261 21.2831 52.225 30.5532 52.2503 39.8234C52.2503 40.4801 52.2755 41.1368 52.4018 41.7683C52.9575 45.0773 55.9381 48.7399 60.99 48.6894C62.2277 48.6641 62.5055 49.043 62.4298 50.2049C62.3035 51.8973 62.3792 53.5897 62.3792 55.5094Z" fill="#FEFEFE"/>
<path d="M234.446 73.014C232.021 71.3974 229.596 69.7808 227.171 68.1895C225.201 66.876 223.231 65.5878 221.311 64.249C220.654 63.7944 219.972 63.6428 219.164 63.6428C209.085 63.6681 199.007 63.6176 188.929 63.6681C183.018 63.6933 178.446 60.4602 176.703 54.4484C176.45 53.5896 176.526 52.6298 176.526 51.6952C176.526 42.3998 176.577 33.0791 176.501 23.7837C176.45 18.1509 180.214 13.4274 185.342 12.1392C186.403 11.8866 187.514 11.7855 188.6 11.7855C203.301 11.7603 218.027 11.7603 232.728 11.7855C240.129 11.7855 244.853 17.4689 244.802 23.8847C244.726 33.1044 244.777 42.3493 244.777 51.5689C244.777 55.181 243.59 58.3131 240.811 60.6622C239.321 61.9252 237.578 62.8345 235.633 63.2639C234.875 63.4407 234.522 63.6933 234.547 64.5774C234.623 66.977 234.572 69.4019 234.572 71.8268C234.623 72.1804 234.724 72.5593 234.446 73.014ZM184.003 59.3487C184.003 59.475 184.028 59.6013 184.205 59.5003C185.897 60.3086 187.716 60.4601 189.585 60.4601C199.765 60.4349 209.97 60.4601 220.149 60.4349C221.008 60.4349 221.69 60.6622 222.372 61.1169C225.1 62.9608 227.828 64.7795 230.581 66.5981C230.808 66.7497 231.01 67.0781 231.44 66.8507C231.44 65.0826 231.49 63.2892 231.415 61.4958C231.389 60.7127 231.617 60.4602 232.425 60.4854C234.016 60.5359 235.557 60.3339 236.997 59.5003C240.23 57.6564 241.645 54.8526 241.645 51.19C241.619 42.1977 241.544 33.1801 241.67 24.1878C241.746 18.8329 237.78 14.7661 232.425 14.8924C226.211 15.044 220.023 14.9177 213.809 14.9177C205.423 14.9177 197.037 14.8924 188.651 14.9177C183.498 14.943 179.734 18.454 179.684 23.3795C179.608 32.9275 179.633 42.4503 179.684 51.9983C179.709 54.9789 181.022 57.3785 183.498 59.1214C183.548 59.2224 183.574 59.374 183.725 59.2477C183.851 59.2982 183.927 59.3235 184.003 59.3487Z" fill="white"/>
<path d="M52.7305 219.542C51.5686 219.542 50.4319 219.542 49.27 219.542C49.3458 219.492 49.4216 219.416 49.4974 219.366C50.5582 219.315 51.6191 219.467 52.6548 219.265C52.68 219.366 52.7053 219.467 52.7305 219.542Z" fill="#404040"/>
<path d="M253.213 113.378C253.39 113.378 253.567 113.403 253.668 113.58C253.517 113.504 253.365 113.454 253.213 113.378Z" fill="#F6F6F6"/>
<path d="M59.2222 60.9404C59.3737 60.9657 59.5253 60.991 59.6768 61.0162C59.5 61.193 59.2979 61.3951 59.2222 60.9404Z" fill="#C7C7C7"/>
<path d="M68.3408 90.8229C68.4168 90.7722 68.4928 90.6962 68.5435 90.6455C68.5942 90.7975 68.4929 90.8482 68.3408 90.8229Z" fill="#F6F6F6"/>
<path d="M68.5679 87.8672C68.4922 87.7914 68.4165 87.741 68.3408 87.6653C68.5175 87.64 68.5932 87.6905 68.5679 87.8672Z" fill="#C7C7C7"/>
<path d="M260.109 163.316C260.261 163.29 260.337 163.341 260.287 163.518C260.236 163.442 260.16 163.366 260.109 163.316Z" fill="#404040"/>
<path d="M273.673 100.977C273.8 101.153 274.179 101.078 274.153 101.406C273.875 101.406 273.673 101.305 273.673 100.977Z" fill="#F6F6F6"/>
<path d="M271.652 237.756C271.804 237.756 271.955 237.756 272.082 237.781C271.981 237.857 271.854 237.933 271.753 238.008C271.728 237.933 271.678 237.832 271.652 237.756Z" fill="#2E2E2E"/>
<path d="M251.344 160.107C251.42 160.107 251.521 160.107 251.597 160.107C251.546 160.183 251.521 160.259 251.47 160.361C251.445 160.259 251.394 160.183 251.344 160.107Z" fill="#C7C7C7"/>
<path d="M287.237 242.783C287.288 242.707 287.364 242.656 287.415 242.58C287.465 242.757 287.389 242.808 287.237 242.783Z" fill="#404040"/>
<path d="M132.777 185.114C132.828 185.165 132.904 185.241 132.954 185.292C132.802 185.342 132.726 185.266 132.777 185.114Z" fill="#404040"/>
<path d="M160.739 135.657C160.865 135.329 160.991 135.405 161.118 135.657C160.991 135.657 160.865 135.657 160.739 135.657Z" fill="#F6F6F6"/>
<path d="M302.165 110.626C302.039 110.6 301.913 110.575 301.989 110.398C302.064 110.474 302.115 110.55 302.165 110.626Z" fill="#F6F6F6"/>
<path d="M161.877 120.047C161.902 120.199 161.826 120.275 161.674 120.25C161.75 120.199 161.826 120.123 161.877 120.047Z" fill="#F6F6F6"/>
<path d="M271.829 204.438C271.778 204.514 271.702 204.59 271.652 204.665C271.601 204.489 271.652 204.413 271.829 204.438Z" fill="#2E2E2E"/>
<path d="M287.415 204.666C287.364 204.59 287.288 204.539 287.237 204.463C287.389 204.438 287.465 204.488 287.415 204.666Z" fill="#404040"/>
<path d="M287.414 167.636C287.363 167.561 287.288 167.485 287.237 167.409C287.414 167.409 287.464 167.485 287.414 167.636Z" fill="#404040"/>
<path d="M275.744 123.228C275.82 123.178 275.896 123.102 275.971 123.052L275.744 123.228Z" fill="#F6F6F6"/>
<path d="M287.237 225.53C287.288 225.454 287.364 225.403 287.415 225.327C287.465 225.505 287.389 225.581 287.237 225.53Z" fill="#404040"/>
<path d="M166.296 233.108C166.372 233.057 166.423 232.981 166.499 232.931C166.499 233.083 166.448 233.159 166.296 233.108Z" fill="#404040"/>
<path d="M267.485 158.921C267.409 158.87 267.383 158.819 267.434 158.743C267.485 158.743 267.561 158.743 267.611 158.743C267.561 158.794 267.51 158.87 267.485 158.921Z" fill="#777777"/>
<path d="M213.961 126.261C214.011 126.337 214.062 126.438 214.113 126.514C213.986 126.463 213.885 126.438 213.961 126.261Z" fill="#212121"/>
<path d="M12.7196 242.833C13.1237 242.58 13.6037 242.605 14.0583 242.605C18.2009 242.605 22.3686 242.605 26.5112 242.605C27.0416 242.605 27.572 242.63 28.052 242.908C27.9004 242.959 27.7741 243.06 27.6226 243.06C22.6465 243.06 17.6704 243.035 12.6943 243.035C12.7196 242.959 12.7196 242.883 12.7196 242.833Z" fill="#202020"/>
<path d="M30.9317 168.342C30.9064 168.418 30.9064 168.469 30.9317 168.544C30.6538 168.544 30.3507 168.62 30.0981 168.418C30.376 167.963 30.6538 168.443 30.9317 168.342Z" fill="#FEFEFE"/>
<path d="M65.1583 187.463C65.1836 187.589 65.2341 187.69 65.2341 187.766C65.2341 187.817 65.1331 187.842 65.0573 187.867C64.931 187.867 64.83 187.817 64.8805 187.69C64.9057 187.589 65.0068 187.539 65.1583 187.463Z" fill="#F6F6F6"/>
<path d="M26.5112 233.814C26.3091 233.865 26.107 233.915 26.0312 233.637C26.3596 233.284 26.4354 233.587 26.5112 233.814Z" fill="#C7C7C7"/>
<path d="M28.7842 230.885C28.9357 230.885 29.0873 230.859 29.2136 230.859C29.0873 231.314 28.9357 230.986 28.7842 230.885Z" fill="#404040"/>
<path d="M12.7193 242.832C12.7193 242.908 12.7193 242.958 12.7193 243.034C12.3909 243.009 12.4919 242.781 12.5425 242.604C12.593 242.655 12.6435 242.731 12.7193 242.832Z" fill="#404040"/>
<path d="M28.5567 174.909C28.3801 175.01 28.3801 174.884 28.3296 174.783C28.4053 174.808 28.481 174.859 28.5567 174.909Z" fill="#FEFEFE"/>
<path d="M10.7751 140.558L10.6737 140.584L10.623 140.508C10.6737 140.482 10.7244 140.432 10.8004 140.406C10.7751 140.457 10.7751 140.508 10.7751 140.558Z" fill="#777777"/>
<path d="M3.77797 183.952C3.85368 184.028 3.90415 184.104 3.97986 184.179C3.77797 184.23 3.7275 184.129 3.77797 183.952Z" fill="#777777"/>
<path d="M28.3296 169.024C28.3801 168.923 28.4053 168.771 28.5567 168.872C28.481 168.923 28.4053 168.973 28.3296 169.024Z" fill="#FEFEFE"/>
<path d="M3.98066 191.126C3.92999 191.177 3.85397 191.253 3.80329 191.304C3.75262 191.152 3.80329 191.101 3.98066 191.126Z" fill="#2E2E2E"/>
<path d="M3.77819 193.854C3.82887 193.905 3.90489 193.981 3.95556 194.032C3.80353 194.057 3.75286 194.007 3.77819 193.854Z" fill="#2E2E2E"/>
<path d="M16.6099 194.031C16.6856 193.955 16.7613 193.905 16.837 193.829C16.837 194.006 16.7865 194.081 16.6099 194.031Z" fill="#2E2E2E"/>
<path d="M52.7305 193.854C52.8065 193.905 52.8825 193.981 52.9332 194.032C52.7812 194.083 52.7305 194.007 52.7305 193.854Z" fill="#2E2E2E"/>
<path d="M65.3604 194.032C65.4364 193.981 65.487 193.905 65.5631 193.854C65.5884 194.007 65.5124 194.083 65.3604 194.032Z" fill="#2E2E2E"/>
<path d="M35.9326 199.336C36.0086 199.285 36.0846 199.209 36.186 199.158C36.2113 199.336 36.0846 199.361 35.9326 199.336Z" fill="#212121"/>
<path d="M39.4188 199.134C39.4695 199.184 39.5455 199.26 39.5962 199.311C39.4442 199.362 39.3935 199.311 39.4188 199.134Z" fill="#202020"/>
<path d="M49.0425 199.335C49.1182 199.284 49.1939 199.209 49.2696 199.158C49.2444 199.284 49.1939 199.36 49.0425 199.335Z" fill="#202020"/>
<path d="M23.506 91.3519C23.4553 91.4026 23.3793 91.4786 23.3286 91.5293C23.2779 91.3773 23.354 91.3266 23.506 91.3519Z" fill="#2E2E2E"/>
<path d="M20.1209 211.99C20.1969 212.041 20.2476 212.117 20.3236 212.168C20.1462 212.244 20.0702 212.168 20.1209 211.99Z" fill="#777777"/>
<path d="M20.3236 215.325C20.2476 215.375 20.1969 215.451 20.1209 215.502C20.0702 215.299 20.1462 215.249 20.3236 215.325Z" fill="#777777"/>
<path d="M57.7829 139.143L57.7069 139.169H57.6309C57.6309 139.118 57.6309 139.067 57.6562 138.991C57.6815 139.042 57.7322 139.093 57.7829 139.143Z" fill="#404040"/>
<path d="M184.002 59.3486C184.078 59.3993 184.154 59.45 184.205 59.5007C184.053 59.602 184.002 59.5007 184.002 59.3486Z" fill="#212121"/>
<path d="M183.523 59.1221C183.599 59.1725 183.674 59.223 183.75 59.2482C183.599 59.3744 183.573 59.223 183.523 59.1221Z" fill="#212121"/>
<path d="M150.256 116.157C146.543 115.854 143.386 113.682 142.173 110.12C142.148 110.019 142.072 109.867 142.097 109.792C142.653 108.983 143.638 109.211 144.396 108.882C144.8 108.705 145.053 108.781 145.23 109.286C145.684 110.549 146.543 111.509 147.705 112.191C150.559 113.858 154.171 112.671 155.586 109.615C155.965 108.806 156.293 108.781 157.026 108.983C159.274 109.615 159.324 109.615 158.112 111.636C156.647 114.111 154.55 115.677 151.595 115.904C151.09 115.955 150.584 116.233 150.256 116.157Z" fill="#FEFEFE"/>
<path d="M30.932 185.797C28.987 185.771 27.1684 184.003 27.1936 182.185C27.2189 180.997 28.8102 178.724 29.6185 178.749C33.0538 178.85 34.6704 180.265 34.5441 183.018C34.4935 184.129 32.3213 185.822 30.932 185.797Z" fill="#FEFEFE"/>
<path d="M30.755 189.258C33.483 189.157 34.2913 191.076 34.5186 193.4C34.6449 194.613 32.2706 196.153 30.4014 196.153C28.8858 196.153 27.446 194.385 27.345 192.617C27.2945 191.051 28.7848 188.929 30.755 189.258Z" fill="#FEFEFE"/>
<path d="M83.5216 18.3279C88.4977 18.3279 93.4738 18.3531 98.4499 18.3026C99.2581 18.3026 99.6876 18.3784 99.637 19.3888C99.5613 21.46 99.6118 21.46 97.5153 21.46C87.7904 21.46 78.0656 21.4348 68.3408 21.4853C67.381 21.4853 67.1031 21.2327 67.1536 20.2728C67.2294 18.2773 67.1789 18.2773 69.1744 18.2773C73.9484 18.3026 78.7476 18.3026 83.5216 18.3279C83.5216 18.3026 83.5216 18.3026 83.5216 18.3279Z" fill="#1AEBFF"/>
<path d="M81.3241 33.6093C76.929 33.6093 72.5087 33.584 68.1135 33.6346C67.381 33.6346 67.1284 33.4577 67.1284 32.7C67.1284 30.4266 67.1032 30.4266 69.427 30.4266C77.7373 30.4266 86.0476 30.4519 94.3579 30.4014C95.3935 30.4014 95.7472 30.6287 95.6967 31.7148C95.5956 33.6093 95.6714 33.6093 93.7264 33.6093C89.6092 33.6093 85.4667 33.6093 81.3241 33.6093Z" fill="#1AEBFF"/>
<path d="M210.904 29.9715C215.956 29.9715 221.008 29.9968 226.06 29.9463C226.919 29.9463 227.272 30.0726 227.247 31.0577C227.171 33.1542 227.247 33.1542 225.15 33.1542C215.375 33.1542 205.625 33.129 195.85 33.1795C194.814 33.1795 194.561 32.9016 194.612 31.9165C194.688 29.9715 194.637 29.9715 196.557 29.9715C201.331 29.9715 206.105 29.9715 210.904 29.9715Z" fill="#1AEBFF"/>
<path d="M213.076 42.0965C217.395 42.0965 221.74 42.1218 226.059 42.0713C226.893 42.0713 227.272 42.1976 227.221 43.1574C227.145 45.254 227.221 45.254 225.099 45.254C216.713 45.254 208.327 45.2287 199.941 45.2792C198.981 45.2792 198.602 45.1024 198.653 44.0415C198.754 42.0713 198.678 42.0713 200.648 42.0713C204.816 42.0965 208.959 42.0965 213.076 42.0965Z" fill="#1AEBFF"/>
</svg>
