<?xml version="1.0" encoding="utf-8"?>
<!-- Generator: Adobe Illustrator 27.6.0, SVG Export Plug-In . SVG Version: 6.00 Build 0)  -->
<svg version="1.1" id="Layer_1" xmlns="http://www.w3.org/2000/svg" xmlns:xlink="http://www.w3.org/1999/xlink" x="0px" y="0px"
	 viewBox="0 0 194.5 184.7" style="enable-background:new 0 0 194.5 184.7;" xml:space="preserve">
<style type="text/css">
	.st0{fill:#16013E;}
</style>
<path class="st0" d="M91.6,149.1c-0.3-1.1-1.4-1.6-2.2-2.2c-2.9-2-2.6-4.6-1.6-7.3c0.4-1.1,0.9-2.1,1.6-2.9c0.7-0.9,0.5-1.8-0.1-2.4
	c-1.5-1.4-1.1-3.2-0.7-4.7c0.7-2.9,2-5.7,3.3-8.4c1.4-3.1,3.1-6,5-8.8c0.6-0.9,1.3-1.7,1.9-2.5c0.7-0.9,0.5-1.4-0.7-1.7
	c-2.9-0.7-5.7-1.8-8.6-2.8c-3.9-1.4-7.8-3.1-11.6-4.8c-0.9-0.4-1.7,0.1-2.5,0.2c-3,0.2-5.9,0.2-9.2,0.2c4,6.1,7.9,12,12,18.2
	c-2.4-0.3-3-2-3.9-3.3c-3.1-4.5-6-9.1-9-13.6c-0.6-0.9-1.3-1.4-2.6-1.4c-2-0.1-4.2,0.4-6-1.3c-0.7-0.6-1.2-1.2-1.5-2
	c-0.6-1.5-0.3-2.3,1.3-2.8c1.3-0.4,2.6-0.6,4-0.6c1.9,0,3.8,0,6,0c-2.4-2.1-4.4-4-5.8-6.4c-1.9-3.1-2.2-6.2-0.8-9.5
	c2.6-6.2,7.4-10.6,12.6-14.5c4.3-3.2,9-5.7,13.9-8c3.9-1.8,7.9-3.4,12.1-4.8c2.8-0.9,5.5-1.9,8.3-2.7c5.2-1.5,10.5-2.8,15.9-3.3
	c0.7-0.1,1.3,0,2,0.2c-3.2,1.2-6.5,2.2-9.8,2.7c-1.6,0.2-3.1,0.8-4.7,1.2c-3.1,0.8-6,1.9-9.1,2.8c-4.2,1.3-8.3,2.9-12.3,4.6
	c-4.2,1.8-8.2,3.9-12,6.4c-0.8,0.5-0.3,1.1-0.1,1.5c2.4,4.4,5.4,8.4,9.8,11c2,1.2,4.2,1.9,6.5,2.4c1.9,0.4,3.4-0.9,5-1.4
	c3.3-1.2,6.7-1.9,10.1-2.7c0.4-0.1,0.8,0,1.2,0c0.1,0.6-0.4,0.8-0.7,0.9c-3.7,1.1-7.5,2-11,3.4c-3.2,1.3-6.5,2.6-9.3,4.7
	c-1.1,0.8,0,1.4,0.5,1.7c4.1,1.7,8.1,3.6,12.1,5.4c4,1.9,7.9,3.9,11.3,6.6c2,1.6,3.7,3.4,4.8,5.7c0.5,1.2,0.6,2.4,0.6,3.6
	c0,4.2-1.2,8-2.8,11.8c-1.7,3.9-3.8,7.5-6.1,11.1c-2,3.1-4.1,6.1-6.7,8.8c-1,1-2.3,1.6-3.8,1.6c-0.8,0-1.9-0.6-2.2,0.6
	c-0.4,1.4-1.5,2.8,0,4.2c1.9,1.8,3.8,3.7,5.7,5.5c1.4,1.4,2.2,3.5,1.5,4.1c-1.4,1-3,0.5-4.3-0.2c-2.2-1.1-4.5-2.1-6.4-3.7
	C92.3,149.1,91.9,149.1,91.6,149.1L91.6,149.1L91.6,149.1z M91.1,136.8c-0.1,0.1-0.3,0.2-0.4,0.3c-0.8,1.5-1.7,3-2.3,4.6
	c-0.3,0.9-0.4,2,0.5,3c3.2,3.4,7.2,5.4,11.4,7.2c0.3,0.1,0.8,0.4,1-0.1c0.2-0.4-0.2-0.5-0.4-0.8c-1.8-1.8-3.6-3.6-5.6-5.4
	c-1.6-1.4-2.4-3.2-1.6-5.1c0.5-1.2,0-1.6-0.6-2.1C92.5,137.9,91.8,137.4,91.1,136.8L91.1,136.8z M58.9,98.4c-0.6-0.9-0.4-1.9-1.5-2
	c-0.3,0-0.4,0.3-0.4,0.6C57,97.9,57.6,98.3,58.9,98.4L58.9,98.4z"/>
<path class="st0" d="M154.5,21.5c-3.2,2.9-6.6,4.5-10.5,5.9c1.3,0.2,2.1,0.2,2.9,0.5c2.2,0.7,3.3-0.9,4.7-1.9c2.8-2,6-1.6,8.2,1
	c0.6,0.7,0.4,1.5,0.8,2.3c-0.8,0-1-0.5-1.4-0.9c-1.7-2-3.9-2.8-5.8-1.9c-2.1,0.9-4.3,3.7-3.9,6.3c0.5,3.2,4.3,4.9,7,3
	c0.6-0.4,0.7-0.7,0.4-1.3c-0.2-0.4-0.5-0.8-0.3-1.2c0.3-0.8,0.4-1.2-0.6-1.4c-0.3,0-0.6-0.3-0.5-0.7c0.1-0.4,0.4-0.7,0.9-0.5
	c1,0.3,2,0.6,2.9,0.9c0.6,0.2,0.6,0.6,0.6,1.1c0.1,3.4-4.5,6.6-7.7,5.4c-2.6-1-4.5-4.2-3.9-6.9c0.3-1.2,0.1-1.6-1.1-1.5
	c-0.3,0-0.5,0-0.8-0.1c-3.2-0.6-3.2-0.6-3.4,2.7c-0.1,0.9-0.1,1.8-1.2,2c-1,0.2-1.7-0.4-2.1-1.3c-0.4-0.9-0.8-1.9-1-2.9
	c-0.2-1.1-0.6-2.3-1.8-2.6c-0.9-0.2-1.9-0.2-2.6,0.8c-0.8,1.2-1.2,2.3-0.4,3.6c0.9,1.6,1.3,1.9,4.8,3.3c-0.6,0.8-1.4,0.7-2.2,0.7
	c-0.4,0-1-0.2-1.1,0.3c-0.1,0.4,0.2,0.8,0.4,1.2c0.1,0.3,0.4,0.5,0.7,0.7c0.4,0.2,0.5,0.5,0.3,0.8c-0.3,0.4-0.7,0.3-1,0
	c-0.9-0.9-2-1.8-2.2-3.2c-0.1-0.5-0.2-0.9-0.4-1.5c-0.7,0.7-1.4,1.3-2,1.9c-2.4,2.4-7.3,2-9.3-1.7c-1.1-2,0-5.6,3.6-6.5
	c0.5-0.1,0.9-0.2,1.7-0.3c-1.4-1.2-2.7-2-3.6-3.3c-2.6-4.2-2.7-7.4,0.8-11.9c2.8-3.6,7.6-3,11.1-0.7c0.4,0.2,0.7,0.6,1.1,0.7
	c0.8,0.2,1.4,0.5,1.6-0.9c0.7-3.9,2.7-7.1,6.2-9.2c3.3-2,6.9-2.5,10.6-1.8c3.5,0.7,6.1,5,5.4,8.5c-0.1,0.5-0.2,1.1-0.1,1.8
	c2.2-1.6,4.5-3,7.2-3.6c4.2-1,8.5,2.4,9.1,6.5c0.3,2.4,0.4,4.7-0.7,6.9c-1,2.2-2.5,3.9-4.9,4.8c-0.3,0.1-0.8,0.1-0.9,0.7
	c0.6,0.6,1.4,0.3,2.1,0.4c0.4,0,1-0.3,1,0.4c0,0.7-0.6,0.5-1,0.5c-4.7,0.4-8.1-1.9-10.6-5.5c-0.9-1.3-2-2.6-2.7-4.1
	c-0.4-0.9-1.1-0.1-1.3,0.3c-0.9,1.2-1.9,2.3-3.1,3.6c1.4,0.5,2.8,0.1,4,0.2c1.4,0.1,2.1,1.1,3,1.7c0.3,0.2,0.4,0.7,0.1,1
	c-0.4,0.4-0.7,0.2-1-0.1c-1.3-1.5-3.1-1.3-4.8-1.3C155.2,23.1,154.2,23.3,154.5,21.5L154.5,21.5z M141.5,7.6
	c2.6-2.6,5.6-4.3,9.2-4.7c4.1-0.4,6.6,2,8.5,5.6c0.2-2.6-1.4-4.9-3.2-6.1C152.2-0.1,143.4,2.7,141.5,7.6z M169,8.9
	c6.2,2.6,6.1,7.3,4.3,12.9c2.9-3.5,2.6-6.8,0.9-10.1C173.2,9.7,171.4,8.8,169,8.9L169,8.9z M123.8,19c0.8-4.9,4.1-6.7,8.8-6.9
	c-2.3-1.9-4.4-1-6.1,0.3C124.5,14,123.5,16.3,123.8,19z M125.5,35.5c-1.8-2-1.7-3.9,0.3-5.9c-1.6,0-2.2,0.9-2.5,2
	C122.8,33.1,123.5,34.2,125.5,35.5z"/>
<path class="st0" d="M54.7,112.4c-2.8,1-5.4,1.6-7.9,1.8c-9.9,0.8-19.7,0.5-29.5-0.6c-3.3-0.4-6.4-3.7-6.5-6.7
	c-0.1-1.5,0.6-1.9,1.9-1.9c2.3,0,4.6-0.1,6.8-0.1c7.1,0,14.2,0,21.3,0c0.7,0,1.8,0.5,1.8-0.7c0-1-0.6-1.6-1.9-1.7
	c-1.7-0.1-2.9,0.7-4.3,1.3c-0.8,0.4-1.8,0.9-2.5-0.1c-0.6-0.8-0.2-1.5,0.4-2.3c1-1.3,1.9-2.7,2.8-4c0.8-1.4,1-2.9,0.3-4.3
	c-1-1.9-1.2-1.9-2.8-0.5c-1,0.9-3.8,1-4.8,0c-1-1-1.8-0.8-2.7,0.1c-2,2-3,4.5-4,7.1c-0.2,0.4-0.2,0.9-0.9,1.2
	c-0.4-3.1,1.2-5.5,2.8-7.8c1.8-2.6,4.5-3.8,7.5-4.4c3.7-0.7,7.3,3.7,6.5,7.7c-0.5,2.1-1.7,3.8-3,5.3c-0.2,0.2-0.4,0.3-0.2,0.8
	c1-0.5,2.1-1,3.2-1.2c1.6-0.3,3-0.2,4.4,0.9c0.7,0.7,0.6,1.3,0.6,2c0,0.5,0.1,0.9,0.7,0.8c0.6-0.1,0.6-0.5,0.5-0.9
	c-0.3-0.9-0.5-1.8-0.8-2.6c-1-2.2-2.2-2.5-4.2-1.1c0-1.4,1.2-2.2,2.8-1.7c1.2,0.4,2.1,1,3.5,0.7c1.2-0.3,3.1,2.2,2.9,3.9
	c-0.2,2.1,0.8,2.3,2.4,2.3c1.2,0,2.4,0.2,3.5,0.3c2.1,0.1,2.8,2,3.8,3.3c2.8,3.8,5.4,7.8,8.1,11.8c0.9,1.3,2,2.5,2.7,3.9
	c0.6,1.2,1.3,0.9,2,0.3c1.4-1.1,2.4-2.5,3.9-3.6c0.5-0.4,1.1-0.8,1.6-0.2c0.4,0.5-0.2,1-0.6,1.3c-1.4,1.3-2.8,2.6-4.2,3.9
	c-0.6,0.6-1,1-0.4,1.9c2.1,2.8,4.1,5.7,6.1,8.6c2.3,3.3,4.5,6.7,6.8,10.1c2.3,3.4,4.7,6.8,7,10.2c0.3,0.5,0.5,0.8,1.4,0.6
	c4.2-1.1,9.5,0.3,11.1,4.8c0.2,0.6,0.3,1.2,0,2c-1.3-1.5-2-3.5-3.8-4.3c-2-0.9-3.9-2-6.3-1.3c-0.8,0.3-0.8,0.5-0.4,1.1
	c0.6,0.9,1.2,1.9,1.8,2.8c0.3,0.5,0.7,0.7,1.3,0.7c1.6,0,3,1.3,2.8,3.1c-0.2,1.6-1.3,2.9-2.9,3.2c-1.3,0.2-3.3-1.1-3.6-2.5
	c-0.2-0.9,0-1.8,0.7-2.5c0.7-0.7,0.8-1.4,0-2.1c-0.3-0.3-0.5-0.7-0.7-1.1c-1.1-1.8-1.5-1.9-2.7-0.1c-2.9,4.2-2.6,9.4,1.9,12.5
	c2.4,1.7,5.2,1.7,7.8,0.3c2.3-1.2,3.6-3.3,3.7-5.9c0.1-0.8,0.1-1.5,1.1-1.9c1.1,1.6,0.7,3.4,0,4.8c-2.7,5.8-10,7.6-14.8,2.8
	c-4.3-4.3-4.1-10.5,0.2-14.5c0.8-0.8,0.8-1.1,0.2-2c-4.4-6.2-8.7-12.5-13.1-18.8c-2.3-3.3-4.5-6.6-6.7-9.9c-0.4-0.6-0.5-0.6-1-0.1
	c-1.7,1.6-3.3,3.1-5.1,4.6c-0.7,0.5-0.8,0.9-0.3,1.6c1.4,1.8,2.6,3.8,3.5,5.9c1.3,3,2.4,6.1,2.2,9.5c-0.2,2.9,0.4,5.7,0,8.6
	c-0.6,4.9-2.6,9.3-5.3,13.3c-2.7,4-6.5,6.7-10.8,8.7c-5,2.2-10.2,3.2-15.7,2.6c-3.2-0.4-6.5-0.1-9.8-0.2c-5.5-0.1-11.1-0.2-16.6-0.2
	c-0.2,0-0.3,0-0.5,0c-0.7-0.1-1.8,0-1.7-0.8c0.1-0.6,0.9-1.2,1.9-1.2c5.2,0.2,10.5,0.1,15.8,0c-1.1-1.1-2.6-1.5-3.9-2.3
	c-4.1-2.6-7.4-5.8-9.8-10c-1.1-1.9-1.9-3.9-2.5-6c-1.1-4.1-1.2-8.1-0.8-12.4c0.5-5.3,2.6-9.9,5.5-14.1c2.2-3.2,5-5.8,8.3-7.9
	c3-1.9,6.3-3.3,9.8-4c3.5-0.7,7.1-0.8,10.7-0.6c3,0.2,5.9,0.9,8.7,2.1c2.8,1.2,5.2,2.8,7.4,4.8c0.5,0.5,1.2,0.8,1.6,1.5
	c0.3,0.6,0.9,0.2,1.2-0.1c1.8-1.6,3.5-3.2,5.3-4.8c0.5-0.4,0.5-0.7,0.2-1.2c-3.4-4.9-6.7-9.8-10.1-14.7c-0.8-1.1-1.5-2.2-2.3-3.3
	c-0.9-1.3-2.3-1.3-3.7-1.4c-6.2-0.2-12.4-0.3-18.5-0.4c-5.8-0.1-11.5-0.1-17.3-0.2c-0.5,0-1.2-0.3-1.5,0.4c-0.2,0.7,0,1.4,0.5,2
	c2.2,2.7,5.1,3.7,8.5,3.8c8.1,0.4,16.2,0.5,24.2,0C50.9,112.5,52.6,112.2,54.7,112.4L54.7,112.4z M21.7,167.3
	c0.1-0.6,0.5-0.9,0.9-1.1c3.8-2.6,7.7-5.1,11.5-7.7c1.2-0.8,2.8-1.7,1.5-3.6c-0.1-0.1,0-0.3,0-0.5c-0.3-3.8,3.3-6.2,7.3-5
	c1.2,0.4,1.7-0.3,2.4-0.6c0.3-0.1,0.5-0.6,0.8-0.8c5.2-3.8,9.7-8.3,14.6-12.5c1.3-1.1,0.9-1.7,0-2.5c-3.8-3.4-7.9-6-13.1-6.8
	c-3.5-0.6-7-0.7-10.5-0.2c-5.5,0.7-10.4,2.8-14.6,6.4c-5.3,4.5-8.6,10-9.9,16.9c-0.6,3.5-0.8,6.8-0.2,10.3
	c0.9,5.6,3.4,10.4,7.3,14.3c4.1,4.1,9.1,6.6,14.8,7.8c3.5,0.7,6.8,0.9,10.2,0.2c4.4-0.8,8.6-2.3,12.1-5c3.8-2.9,7-6.4,9-10.8
	c1.6-3.4,2.7-7,2.8-10.6c0.3-6.3-1.2-12.3-4.2-17.8c-1.2-2.1-1.5-2.1-3.2-0.6c-5.2,4.5-10.5,9.1-16,13.3c-0.5,0.4-0.4,0.6-0.1,1.1
	c1.1,2.4,0.7,4.8-1,6.2c-1.7,1.5-3.9,1.6-6.2,0.2c-0.7-0.4-0.9,0.1-1.2,0.3c-3.8,2.9-7.9,5.4-12,7.8
	C23.8,166.4,23.1,167.6,21.7,167.3L21.7,167.3z M47.2,105.2c0.7-0.1,1.4,0.2,1.3-0.7c-0.1-1.3-0.6-2.6-1.4-3.7
	c-0.3-0.3-0.8-0.6-1.3-0.3c-0.5,0.3-0.1,0.7,0,1.1c0.3,0.8,0.5,1.5,0.4,2.3C46.2,104.9,46.5,105.3,47.2,105.2L47.2,105.2z
	 M43.2,156.5c1.2-1.3,1.3-2.7,0.8-4.2c-0.1-0.3-0.3-0.5-0.6-0.4c-0.4,0-0.4,0.4-0.3,0.6C43.3,153.8,43.5,155.1,43.2,156.5z"/>
<path class="st0" d="M149.6,181.8c-4.8-2.3-8.8-5.3-11.8-9.6c-1.8-2.6-3.3-5.3-4.1-8.3c-1.2-4.7-1.6-9.4-0.5-14.2
	c1-4.5,2.7-8.7,5.4-12.4c2.7-3.6,6-6.6,10.1-8.8c2.8-1.6,5.8-2.3,8.8-3c0.5-0.1,0.9-0.2,0.8-0.9c-1.2-6.1-1.7-12.3-2.5-18.5
	c-12.4,12.3-25.8,23.2-37.6,36.1c0.3-2.5,2.1-4.1,3.7-5.8c3.3-3.4,6.7-6.7,10.1-10c4.1-3.9,8.4-7.8,12.6-11.7
	c3.5-3.2,6.7-6.5,10.4-9.5c0.6-0.4,0.6-1,0.5-1.6c-0.4-2.4-0.7-4.9-1.1-7.4c-0.1-1-0.3-2.3,0.8-2.4c0.8-0.1,0.9,1.4,1,2.3
	c0.7,4.8,1.4,9.6,2.1,14.4c0.5,3.5,0.8,7.1,1.2,10.6c0.1,1,0.2,2,0.4,3.1c0.1,0.8,0.5,1.3,1.5,1.2c3.4-0.3,6.8,0.2,10.1,1
	c3.6,1,6.9,2.5,10,4.7c4.6,3.3,8.1,7.6,10.1,12.9c1.1,3.1,2.3,6.2,1.2,9.8c-0.4,1.2,0.3,2.8,0.4,4.3c0.2,3.7-1.2,7.1-2.6,10.4
	c-1.8,4.1-4.5,7.5-8.1,10.2c-4.8,3.6-10.2,5.7-16.2,6C159,185,152,184,145,183.8c-3.9-0.1-7.8-0.4-11.7-0.5c-0.5,0-1.5,0.4-1.5-0.4
	c-0.1-0.8,0.8-1.2,1.6-1.2c1.2,0,2.4-0.1,3.6,0c3.5,0.5,6.9,0,10.4,0C148,181.8,148.8,182.3,149.6,181.8L149.6,181.8z M177.6,170.4
	c-0.1,0.1-0.2,0.2-0.3,0.3c-1.4-0.6-2.5-1.6-3.6-2.7c-2.6-2.7-5.1-5.4-7.6-8.1c-0.4-0.4-0.7-0.8-1.3-0.3c-1.7,1.1-5.5-0.5-6.3-2.6
	c-1.1-2.9-0.5-5.3,2.2-6.7c0.9-0.4,1-0.8,0.8-1.5c-1.4-6.4-1.6-12.9-2.8-19.4c-0.4-2.2-0.8-2.5-3-2c-0.3,0.1-0.6,0.2-0.9,0.3
	c-3,1.1-5.9,2.4-8.6,4.3c-3,2.1-5.7,4.7-7.3,7.8c-1.8,3.5-3.1,7.4-3.6,11.4c-0.7,5.6,0.2,10.8,2.8,15.6c2.2,4.2,5.2,7.8,9.2,10.6
	c5.3,3.7,11.2,5.4,17.6,5.5c1.5,0,2.9-0.5,4.3-0.7c4.8-0.6,8.9-2.8,12.5-5.8c4.8-4,7.4-9.3,8.8-15.4c1-4.6,1.2-8.9,0-13.4
	c-1.4-5.6-4.3-10.2-8.5-13.8c-5.7-4.9-12.5-7-19.9-7c-2.2,0-2.4,0.1-2,2.3c1.2,6.2,1.6,12.6,2.5,18.9c0.1,1,0.4,1.6,1.6,1.8
	c3.3,0.8,4.8,4.8,2.8,7.6c-0.4,0.5-0.6,1-0.1,1.4c1.8,1.5,3.2,3.4,4.7,5.1C173.7,166.2,175.7,168.3,177.6,170.4L177.6,170.4z
	 M159.6,155.6c0-1.9,1-3.2,2.4-4.3C159.5,152.3,159.1,153,159.6,155.6z"/>
<path class="st0" d="M96,111.9c-0.6,1.1-1.1,2-1.6,2.9c-1.8,3.4-3.6,6.8-5.1,10.4c-0.6,1.3-1.3,0.1-1.6-0.3
	c-1.2-1.3-2.2-2.7-3.3-4.1c-2.1-2.9-4.2-5.8-6.2-8.7c-1.9-2.9-3.8-5.8-5.3-8.9c-0.6-1.2-0.6-1.8,1-1.7c0.2,0,0.5,0.1,0.7,0
	c3.1-1.4,5.3,0.8,7.8,1.9c3.4,1.4,6.8,2.9,10.4,3.6c0.7,0.2,1.2,0.3,1.4,1.1C94.6,109.5,95.2,110.8,96,111.9L96,111.9z"/>
<path class="st0" d="M110.3,150.5c2,0.3,2.6,2,3.7,3.2c1.6,1.8,2.2,2.1,4.1,0.9c3.2-1.9,5.8-4.4,8.6-6.9c0.2-0.2,0.5-0.4,0.3-0.7
	c-0.2-0.3-0.6-0.2-0.9-0.1c-2,0.9-4,1.8-6.1,2.6c-1.6,0.6-3.1,1.8-5,1.4c-0.4-0.1-0.8,0.1-1.1-0.3c-1.6-2.2-3.6-1.1-5.3-0.5
	c-3.1,1.2-2.9,1.2-5.1-1.4c-2.1-2.5-3.6-5.5-5-8.5c-0.2-0.5-0.1-0.7,0.4-0.8c3.4-0.1,4.3-3.4,6.4-5.2c0.1-0.1,0.1-0.4,0.2-0.6
	c2-2.9,2.9-2.8,5,0.3c1.5,2.3,2.7,4.7,3.9,7.1c0.8,1.8,1,3.5-0.4,5.1c-0.5,0.6-0.8,1-0.2,1.8c0.6,0.8,1.2,1,2.2,0.9
	c1.5-0.2,2.6-1.2,4-1.7c1.8-0.7,3.5-1.5,5.4-2.1c0.6-0.2,1.2-0.1,1.8-0.2c0.8-0.1,1.4,0.4,1.7,1c0.3,0.6-0.1,1.1-0.5,1.6
	c-2.6,3.1-5.8,5.4-9.1,7.4c-0.8,0.5-1.6,1.2-2.7,1.4c-2.3,0.3-3.3-1.5-4.5-2.9C111.4,152.9,110.7,151.8,110.3,150.5L110.3,150.5z"/>
<path class="st0" d="M28.2,67.3c-0.1,0.6-0.1,1.2-0.3,1.7c-0.5,1.5-0.2,2.1,1.6,2.8c1.7,0.7,2.1,0.6,2.9-1c1.1-2.1,0.9-4.5,2.1-6.6
	c0.6-1.1,1.2-2.2,2.1-3.1c0.2-0.2,0.5-0.5,0.8-0.3c0.3,0.3,0.1,0.6-0.1,0.8c-1.6,2.1-2.7,4.4-2.9,7.2c-0.1,1.2-0.8,2.3-1.3,3.4
	c-0.7,1.3-3.4,1.6-4.8,0.7c-0.1-0.1-0.2-0.2-0.4-0.3c-1.2-1-2.2-1.1-3.4,0.1c-1.1,1.1-2.7,0.8-4,0.5c-1.2-0.3-1.7-2.3-1.1-4.1
	c0.1-0.2,0.1-0.4,0.2-0.6c1.1-2.4,0.6-3.3-2-3.6c-2.7-0.3-3.8-1.1-3.9-2.9c-0.2-1.8,1.2-3.6,3.2-4.6c3.3-1.7,6.9-1.9,10.4-2.6
	c2.5-0.5,4.8-1.5,6.6-3.5c1.1-1.3,1.8-2.8,2.5-4.3c2-4.5,6.5-4.9,10.2-2.9c2.4,1.3,4.2,3.4,6.3,5c1.8,1.3,3.8,2.2,6.1,2.4
	c1.3,0.1,2.6-0.6,4-0.7c1.4,0,1.7,0.8,1.7,1.8c0,1.2-0.7,1.7-1.8,1.8c-1.2,0.2-2.2-0.2-2.6-1.5c-0.2-0.5-0.1-0.9-0.8-0.8
	c-2.7,0.6-4.8-0.6-7-2.1c-2.5-1.6-4.3-4-7-5.4c-3-1.5-6.4-0.4-7.7,2.6c-1.2,2.8-2.5,5.7-5.5,7.1c-1.6,0.7-2.4,2-3.4,3.3
	c-1.7,2.3-5.8,2.3-8.2,1c-2-1.1-5.3,0.5-5.6,2.7c-0.2,1.1,0.7,1.3,1.4,1.8c0.4,0.3,0.9,0.2,1.4,0.2c3.1,0.1,4.6,2.5,3.4,5.3
	c-0.3,0.8-1.4,1.7-0.3,2.4c1,0.6,2.5,0.5,3.5-0.5c0.8-0.9,1.6-1.8,2.3-2.7C27.1,67.8,27.4,67.3,28.2,67.3L28.2,67.3z"/>
<path class="st0" d="M28.1,73.6c0.3,1.2-0.2,2.2-0.9,3.1c-0.4,0.4-0.8,0.7,0.1,1.2c1.5,0.7,2,2.1,1.9,3.7c-0.1,2-1.4,3.2-3,4
	c-1.2,0.5-2.3,1.2-3.7,1c-0.6-0.1-0.8,0.4-0.9,0.8c-1.3,4.6-2.4,9.3-1.3,14.2c0.1,0.4,0.2,0.8,0,1.3c-0.1,0.3-0.2,0.7-0.6,0.7
	c-0.4-0.1-0.5-0.4-0.5-0.7c-0.2-1.4-0.8-2.8-0.7-4.3c0-0.6-0.2-1-0.6-1.4c-1.9-1.9-3.9-3.8-6.3-4.9c-2.2-1-4.7-1.6-7.3-1.2
	c1.3,0.8,2.7,0.7,3.9,0.9c1.8,0.3,2.9,1.5,4.2,2.4c0.5,0.3,0.4,0.9-0.3,1c-0.5,0-1,0-1.6-0.1c0.3,0.8,1.1,0.9,1.6,1.3
	c0.4,0.4,0.7,0.7,0.5,1.2c-0.2,0.5-0.8,0.4-1.2,0.3c-1.6-0.3-3.1-0.7-4.7-1.1c-0.6-0.1-1.2-0.4-2,0.2c2.8,1,6.1,0.4,7.9,3.2
	c-2.7-1.3-5.5-2-8.5-2c-1,0-1.5-1-0.8-1.8c0.2-0.3,0.6-0.5,1-0.9c-1.1-0.4-2.6,0.1-2.9-1.2c-0.4-1.4,1.4-1.2,2.1-2.1
	c-1-0.1-1.9-0.1-2.7-0.2c-0.9-0.2-1.3-0.6-0.4-1.4C2.6,88.7,5,88.4,7.7,89c4.2,1.1,7.9,3.1,10.8,6.7C19.2,87,23.4,80.2,28.1,73.6
	L28.1,73.6z M9.8,94.9C8,93.9,6.1,94,4.2,94.1C6,94.5,7.9,95.1,9.8,94.9z"/>
<path class="st0" d="M137.8,82.5c3.7,2,7.4,2.8,11.5,3.3c-1.2-1.7-0.1-2.9,0.5-4.2c0.4-0.9,0.4-1.3-0.5-1.6
	c-2.7-1.1-5.3-2.4-8.3-2.3c-0.5,0-1.1,0-1.1-0.7c0-0.7,0.6-0.6,1.1-0.6c3.8-0.1,7.3,1.2,10.5,3.1c1.2,0.7,1.6,1.5-0.2,2.8
	c2.7-0.2,4.6,0.5,6.6,1c2.2,0.5,3.6,1.8,3.6,4.1c0,1.1,0.3,1.5,1.3,0.8c1.1-0.8,2.5-0.3,3.5-1.1c0.3-0.2,0.5,0,0.6,0.3
	c0.3,0.6,0.1,0.9-0.4,1.2c-1.1,0.7-2.4,1-3.6,1.2c-1.1,0.2-2,0.5-2.9,1.3c-0.5,0.5-1.5,0-1.9,0.9c-0.1,0.1-0.4-0.5-0.2-0.8
	c0.6-1,0.8-2.1,0.8-3.2c0-0.3,0-0.6,0.4-0.6c0.4-0.1,0.6,0.2,0.7,0.6c0.2,0.8-0.1,1.5-0.1,2.2c1.1-1.1,0.8-2.6,0.6-3.9
	c-0.3-1.2-1.7-1.8-2.8-1.8c-1.9-0.1-3.7-0.7-5.6-1c-1.4-0.3-1.8,0.8-2.2,1.9c-0.4,1.3,0.7,1.1,1.3,1.3c1.5,0.6,2.8,1.3,3.2,3
	c0.1,0.6,0.4,1.1,1.2,0.8c0.7-0.2,1.6-0.2,1.4-1.3c-0.1-0.3-0.4-1,0.3-1c0.4,0,0.8,0.5,0.9,1c0.3,1.4-0.8,2.6-2.2,2.8
	c-0.8,0.1-1.5,0.4-1.6,1.5c-0.2,1.6-1.2,2.8-2.5,4c0-2,1.3-3.5,1.4-5.5c0.1-2.9-0.7-3.6-3.6-4.2c-3.1-0.7-6.3-1.2-9.4-2.1
	c-0.1-0.1-0.3-0.2-0.4-0.2c-0.9-0.3-1.6-1.4-2.6-0.9c-1.3,0.7-2.5,1.6-3.3,2.9c-0.6,0.9-1.5,1.8-1.3,3c0,0.2,0,0.5-0.3,0.5
	c-0.3,0-0.5-0.2-0.6-0.5c-0.1-0.9-0.2-1.7,0.1-2.6c1.1-2.7,2.5-5.1,4.9-6.8c0.7-0.5,0.4-0.8-0.2-1c-1.7-0.9-3.5-1.6-5.4-2
	c-1.4-0.3-2.6-1.1-4-1.2c-0.3,0-0.8-0.3-0.8-0.7c0-0.5,0.4-0.5,0.7-0.4c4.2,1.1,8.6,1.6,12.2,4.3c1.4,1.1,1.4,1.2-0.1,2.1
	C138.6,82,138.4,82.1,137.8,82.5L137.8,82.5z"/>
<path class="st0" d="M127.5,69.6c1.9-2.3,3.8-4.5,5.6-6.8c1.9-2.5,4-5.1,4.7-8.2c0.6-2.7-1.1-4.1-3.9-3.7c-3,0.4-5,2.2-7.1,4
	c-5,4.5-8.8,9.7-11.7,15.8c-0.8,1.7-1.6,3.3-2,5.1c-0.8,3.7,1.2,5.8,4.1,7.7c3.7,2.4,7.9,3.6,12,5.2c0.2,0.1,0.5,0.2,0.8,0.3
	c0.4,0.1,0.5,0.4,0.4,0.8c-0.1,0.4-0.6,0.3-0.8,0.2c-1.7-0.5-3.3-0.9-4.9-1.5c-3.6-1.2-7.1-2.7-10.1-5.1c-2.2-1.8-3.7-4.2-2.8-7.6
	c1.7-6.5,5.3-11.9,9.4-17c2.1-2.6,4.5-5.1,7.2-7c1.9-1.3,3.9-2.5,6.2-2.6c3.1-0.2,5.4,1.3,4.9,4.7c-0.2,1.1-0.5,2.2-1,3.2
	c-2.2,4.4-5.1,8.4-8.9,11.6c-0.3,0.2-0.3,0.7-0.8,0.8c-0.4,0-0.7,0.3-0.9,0.6C127.7,69.8,127.6,69.7,127.5,69.6L127.5,69.6z"/>
<path class="st0" d="M163.3,41.6c-2.1-0.5-2.9-1.4-3.1-3.1c-0.5-3.9,0.9-7.1,3.3-9.9c0.7-0.8,1.8-1.3,2.9-1c1.1,0.4,1.6,1.1,1.8,2.3
	c0.7,3.1-1.6,7.9-4.1,8.2c-0.4,0.1-0.9,0.1-1.3,0.1c-0.4,0-0.9-0.2-1-0.7c0-0.6,0.5-0.5,0.9-0.6c1.2-0.2,2.4-1.9,1.9-3
	c-0.1-0.1-0.2-0.2-0.4-0.2c-0.7,0-1.1-0.2-0.9-0.9c0.2-0.6,0.8-0.3,1.3-0.2c0.7,0.1,1.6,0.5,1.9-0.2c0.3-0.9,0.5-2-0.1-2.8
	c-0.6-0.9-1.6-0.5-2.3,0.2c-1.4,1.3-2.2,3-2.7,4.8C161,37.1,161.1,39.4,163.3,41.6L163.3,41.6z"/>
<path class="st0" d="M44.1,70c0.8,0.8,0.6,1.7,0.5,2.5C43.9,78.4,44,84.3,44,90.3c0,1.6,0.1,3.2,0.5,4.8c0.2,0.6,0.3,1.5-0.5,1.6
	c-0.7,0.1-0.8-0.8-0.8-1.3c-0.3-3-0.5-6-0.3-9.1c0.1-1.4,0.6-2.6-1.2-3.6c-1.3-0.7-1.5-3.5-0.3-5.2c1.5-2.2,2.7-4.3,2.4-7
	C43.8,70.3,44,70.1,44.1,70L44.1,70z"/>
<path class="st0" d="M154.7,45.7c-1.3-0.3-1.9-0.9-2.4-1.8c-0.2-0.4-0.3-0.8,0.1-1.2c0.5-0.4,0.7,0,1,0.4c2,2.1,3.5,1.9,4.9-0.7
	c0.3-0.6,0.6-1.1,1.2-1.6c0.3,1.2-0.1,2.2-0.8,3.1c-3.7,4.3-8.4,6-13.9,4.7c-2.1-0.5-4-1.8-5.6-3.3c-0.2-0.2-0.4-0.5-0.2-0.9
	c0.2-0.4,0.6-0.3,0.8-0.2c0.9,0.5,1.9,1,2.8,1.6c3.6,2.5,7.3,2.4,11.1,0.6C154,46.4,154.2,46.2,154.7,45.7L154.7,45.7z"/>
<path class="st0" d="M145,93c-2.6,0.5-4.8-0.4-6.6-2.1c-0.3-0.3-0.7-0.4-0.4-0.9c0.2-0.3,0.7-0.2,1.1-0.1c0.1,0,0.1,0,0.1,0.1
	c2.1,1.8,4.6,2.2,7.3,1.6c1-0.2,1.6,1.5,1.1,3c-0.3,0.8-0.8,1.4-1.1,2.1c-0.2,0.5-0.4,0.8-0.9,0.6c-0.4-0.2-0.3-0.6-0.2-1
	c0.1-0.3,0.2-0.7,0.3-1.2c-1.9,0.1-3.5,0.8-5.3,1.1c-0.7,0.1-1.8,0.7-2.1-0.2c-0.4-1.3,1-1.1,1.8-1.3c1.7-0.4,3.4-0.8,5.1-1.1
	C145,93.3,145,93.2,145,93L145,93z"/>
<path class="st0" d="M135.5,74.8c-1.1-1-0.9-1.9-0.7-2.9c0.6-2.5,2.1-4.7,3.5-6.8c2.3-3.5,4.7-7,4.8-11.5c0-0.5,0.1-0.9,0.6-1
	c0.7,0,0.6,0.6,0.6,1c0.3,3.4-1.2,6.2-2.8,8.9c-1.6,2.8-3.9,5.2-5.2,8.3C135.9,72.2,135.5,73.3,135.5,74.8z"/>
<path class="st0" d="M91.6,149.1c1,1.2,2.5,1.9,3.7,2.9c1.8,1.4,3.7,2.8,5.8,3.8c0.5,0.2,1.4,0.7,0.9,1.5c-0.5,0.9-1.3,0.2-1.9-0.1
	c-3.4-1.8-6.4-4.2-9.5-6.6c-1.7-1.3-3.4-2.6-5.2-4.1c0.9-0.5,1.4-0.3,2,0.1C88.8,147.4,90.2,148.3,91.6,149.1
	C91.6,149.1,91.5,149.1,91.6,149.1z"/>
<path class="st0" d="M43.7,59.6c7.5,1.9,14.2,0.5,20.1-5.1c-0.5,2.6-4,5.2-7.2,6C52.2,61.6,47.9,62.1,43.7,59.6L43.7,59.6z"/>
<path class="st0" d="M116.1,159.9c0.7-1.9,2.4-2.2,3.7-3.1c2.5-1.9,5.2-3.5,7.7-5.2c0.3-0.2,0.7-0.4,1-0.6c0.4-0.2,0.7-0.3,1,0.1
	c0.3,0.5,0,0.7-0.4,1.1c-1.4,1.3-3.1,2.1-4.6,3.1c-2.2,1.5-4.6,2.8-6.8,4.3C117.2,159.8,116.8,159.9,116.1,159.9L116.1,159.9z"/>
<path class="st0" d="M43.7,67c-1.9-0.4-3.8-0.8-5.5-1.9c-0.4-0.3-0.7-0.5-0.5-1c0.2-0.4,0.7-0.4,1.2-0.1c1,0.6,2,1.1,3.3,1.2
	c1.1,0.1,2.1,0.4,3.2,0c0.3-0.1,0.8-0.2,0.9,0.3c0.1,0.4,0,0.7-0.4,1C45.2,66.8,44.6,67.1,43.7,67L43.7,67z"/>
<path class="st0" d="M49.9,54.6c-1.6-0.1-2.9-1-4.1-2.1c-0.3-0.3-0.5-0.7-0.1-1c0.3-0.2,0.6-0.1,0.9,0.1c0.8,0.7,1.7,1.3,2.8,1.6
	c0.3,0.1,0.6,0.3,0.9,0c0.3-0.3,0.1-0.7,0-1c-0.3-0.7-1.5-1.6-0.4-2.1c0.7-0.3,1.3,1.1,1.7,1.9C52.3,53.6,51.7,54.6,49.9,54.6
	L49.9,54.6z"/>
<path class="st0" d="M189.3,16.4c1.6,0.6,3.6,0.7,4.9,2.2c0.2,0.3,0.5,0.5,0.2,0.8c-0.2,0.3-0.6,0.4-0.9,0.2
	c-1.8-0.6-3.6-1.2-5.3-1.8c-0.4-0.1-0.9-0.3-0.7-0.9C187.9,16.1,188.7,16.7,189.3,16.4L189.3,16.4z"/>
<path class="st0" d="M40.8,84.2c0.8,0.6,0.7,1.1,0.6,1.5c-0.2,3.8,0.4,7.5,0.8,11.3c0,0.4,0.2,0.8-0.2,1c-0.5,0.2-0.6-0.3-0.8-0.7
	c-0.2-0.4-0.3-0.8-0.3-1.2C40.7,92.2,40.8,88.3,40.8,84.2z"/>
<path class="st0" d="M190.6,6.5c-0.4,0.4-1,0.8-1.4,1.3c-1,1-2.1,1.8-3.2,2.6c-0.2,0.2-0.6,0.4-0.9,0.1c-0.2-0.2-0.4-0.5-0.2-0.9
	c1.2-1.6,2.7-2.9,4.6-3.8C189.7,5.7,190.4,5.5,190.6,6.5L190.6,6.5z"/>
<path class="st0" d="M149.7,96.8c-0.3-0.6-0.1-1.1,0.2-1.5c1-1.4,1.1-3,0.8-4.6c-0.1-0.4-0.3-0.8,0.3-0.9c0.4-0.1,0.7,0,0.9,0.5
	C152.6,92.2,151.5,95.8,149.7,96.8z"/>
<path class="st0" d="M150.2,92.7c-0.3,1.4-0.8,2.8-1.9,4c-0.2,0.2-0.5,0.5-0.8,0.2c-0.3-0.2,0-0.5,0.1-0.7c0.4-1,1.3-1.8,1.2-3.1
	c0-0.3,0.1-0.6,0.1-0.9c0.1-0.5-0.9-1.2,0.2-1.3C150.1,90.7,150.1,91.7,150.2,92.7L150.2,92.7z"/>
<path class="st0" d="M34.8,173.7c-0.7-2.2,0.6-4,1.1-5.9c0.5-1.9,1.7-3.6,2.2-5.5c0.1-0.6,0.3-1.6,1.1-1.3c1,0.3,0.6,1.3,0.4,1.9
	c-0.5,1.4-1.1,2.9-1.8,4.3C36.6,169.3,35.8,171.5,34.8,173.7L34.8,173.7z"/>
<path class="st0" d="M182.1,151.3c-3.4,0.8-6.8,1.7-10.3,2.1c-0.4,0-0.9,0.2-1-0.4c-0.1-0.5,0.3-0.8,0.8-0.8
	C175.1,152.2,178.5,150.9,182.1,151.3z"/>
</svg>
