<svg width="150" height="199" viewBox="0 0 150 199" fill="none" xmlns="http://www.w3.org/2000/svg">
<path d="M75.0651 29.2097C72.0808 29.2097 69.0965 28.5814 66.2693 27.4819C65.3269 27.0107 64.5415 27.0107 63.5991 27.9531C60.4577 30.7803 58.573 34.3929 57.4735 38.4767C56.5311 42.0892 55.9028 45.7018 56.531 49.4714C56.6881 50.0997 56.374 50.728 55.5887 50.885C54.8033 51.0421 54.6462 50.2568 54.4892 49.6285C54.018 47.7437 53.5468 45.7018 52.4473 44.1311C51.5049 42.8746 50.4055 42.0892 48.8348 42.4034C47.2641 42.7175 46.4788 43.6599 46.0076 45.2306C45.0652 48.8431 47.4211 51.8274 50.2483 53.084C51.3478 53.5552 52.4474 54.1834 53.861 54.4976C54.1751 54.4976 54.4892 54.6547 54.4892 54.9688C54.4892 55.44 54.018 55.44 53.7038 55.5971C52.1332 56.2253 50.7195 55.44 49.463 54.8117C46.4787 53.5552 44.4369 51.5133 43.8086 48.0578C43.3374 45.7018 43.9656 43.5028 45.5363 41.7751C46.1646 41.1468 46.1646 40.6756 45.6934 40.2044C43.8086 37.8484 42.395 35.3353 41.4526 32.5081C39.7248 27.796 39.0965 23.084 40.8243 18.2149C42.0808 14.6023 44.1227 11.7751 47.4211 9.89031C50.0913 8.4767 52.9185 7.84842 55.9028 8.31963C58.4159 8.79083 60.6149 9.57617 62.4997 11.461C63.128 12.0893 63.442 11.6181 63.5991 11.1469C65.1698 6.74895 68.3112 3.76466 72.395 1.72278C76.6358 -0.3191 81.0337 -0.63324 85.4316 1.25157C87.9447 2.35105 90.1436 3.76466 91.5573 6.12068C93.5991 9.41911 94.0703 12.7175 92.9708 16.3301C91.7143 21.0421 89.2012 24.6547 84.8033 26.8536C81.819 28.4243 78.5206 29.2097 75.0651 29.2097ZM86.6881 23.2411C89.6724 21.3563 93.1279 14.2882 90.6148 8.63377C89.2012 5.33534 84.3321 2.19398 81.0337 2.82225C84.6463 4.86414 87.4734 7.37722 88.73 11.461C89.6724 15.7018 88.73 19.4714 86.6881 23.2411ZM58.4159 11.6181C54.6462 9.73324 50.5625 9.73324 46.9499 12.8746C42.552 16.6442 41.4526 21.6704 42.2379 27.1678C42.395 22.7699 43.6515 19.0002 46.9499 15.7018C50.0913 12.5605 53.8609 11.3039 58.4159 11.6181Z" fill="#16013E"/>
<path d="M104.908 85.2829C102.866 87.1677 100.353 87.796 97.9969 88.2672C94.8556 88.8954 91.7142 89.3666 88.4158 89.8378C85.4315 90.3091 82.6042 91.2515 79.6199 91.7227C78.3634 91.8797 78.2064 92.508 78.2064 93.4504C78.0493 97.6912 77.5781 101.775 77.1069 105.859C76.9498 107.429 77.1069 107.744 78.6776 107.744C83.8608 107.901 88.2587 109.943 92.4995 112.613C95.955 114.969 98.7822 117.796 101.138 121.251C103.494 124.707 105.065 128.477 105.85 132.403C106.479 135.859 106.479 139.314 106.164 142.77C105.693 146.382 104.594 149.681 103.023 152.979C101.452 156.12 99.0964 158.791 96.4262 161.147C94.0702 163.189 91.5571 164.759 88.7299 166.016C88.5728 166.173 88.2587 166.33 88.1017 166.33C85.4315 167.272 85.4314 167.272 86.3738 169.942C87.6304 173.398 88.5728 176.853 89.3582 180.309C89.6723 181.88 90.4576 183.45 90.9289 185.021C91.8713 188.476 92.9707 191.932 93.7561 195.545C93.2849 194.916 92.8137 194.288 92.3425 193.817C92.0284 193.346 91.5571 193.503 91.0859 193.66C90.6147 193.817 90.9289 194.288 90.9289 194.602C91.243 195.702 91.5571 196.801 92.9707 197.115C93.2849 197.115 93.599 197.586 94.0702 197.743C94.3843 197.901 94.5414 198.215 94.3844 198.529C94.2273 198.843 93.9132 199 93.599 199C92.6566 198.843 91.5571 198.843 90.6147 198.529C88.7299 198.058 86.8451 197.586 85.1173 196.801C83.7037 196.173 83.5467 194.445 83.0755 193.188C82.4472 190.832 81.976 188.319 81.5048 185.963C80.4053 180.309 78.8346 174.812 78.0493 169.157C77.421 164.759 77.421 164.916 81.5048 162.717C84.4891 161.147 87.6304 159.576 90.3005 157.534C93.9131 154.864 96.8975 151.408 98.3111 147.168C100.039 142.299 100.196 137.272 98.6252 132.089C96.8975 125.963 93.4419 121.094 87.9445 117.796C84.0178 115.44 79.777 114.497 75.3791 114.497C74.1226 114.497 73.3373 114.026 72.709 113.084C72.2378 112.299 71.6095 111.67 70.9812 111.042C69.8817 109.785 69.5676 108.215 69.7247 106.644C70.0388 102.717 69.7247 98.7907 69.8817 94.864C70.0388 92.6651 70.1959 92.3509 72.3949 91.5656C76.3216 90.309 80.5624 89.5237 84.6461 88.7384C89.9864 87.6389 95.4838 86.6965 100.824 85.597C102.238 84.9687 103.651 85.2829 104.908 85.2829ZM102.395 149.524C100.51 149.995 100.196 151.566 99.4106 152.822C99.2535 153.136 98.6252 153.607 99.0964 153.922C99.5676 154.236 100.039 153.764 100.353 153.293C101.295 152.351 101.767 151.094 102.395 149.524ZM74.4367 109.943C76.6357 110.414 78.6776 111.042 81.0336 110.571C78.8346 109.628 76.6357 109.943 74.4367 109.943ZM87.9445 181.408C87.1592 183.293 88.5728 184.707 88.7299 186.435C88.7299 186.749 89.044 186.749 89.3582 186.749C89.6723 186.592 89.6723 186.435 89.5152 186.12C89.044 184.55 88.4157 182.979 87.9445 181.408ZM89.9865 188.005C89.6723 188.005 89.5152 188.162 89.3582 188.476C89.2011 189.576 89.6723 190.675 90.3005 191.618C90.6147 191.932 91.243 191.932 91.243 191.461C91.0859 190.361 90.6147 189.262 90.3005 188.162C90.3005 188.005 89.9865 188.005 89.9865 188.005ZM84.175 111.513C85.9027 113.084 87.9445 113.398 89.8294 114.183C88.2587 112.77 86.688 111.513 84.175 111.513ZM75.5362 100.99C76.1645 99.5761 76.1645 98.4766 75.6933 97.063C74.7508 98.4766 74.9079 99.5761 75.5362 100.99ZM96.1121 158.476C96.7403 158.319 96.8975 157.848 97.0545 157.377C97.2116 156.906 96.7404 156.749 96.4262 156.906C95.955 157.063 95.3268 157.22 95.4839 158.005C95.6409 158.319 95.7979 158.476 96.1121 158.476ZM103.651 143.712C103.023 144.812 103.023 145.597 103.18 146.539C103.494 145.597 104.123 144.969 103.651 143.712Z" fill="#16013E"/>
<path d="M94.5415 35.1783C96.4263 38.9479 99.4107 41.304 102.552 43.66C100.353 43.9741 98.9394 43.1888 97.3687 42.2464C95.1697 40.6757 93.5991 38.4767 92.4996 36.1207C92.3426 35.8066 92.1855 35.4925 91.8713 35.4925C90.4577 35.9637 88.8871 35.4925 87.6306 35.8066C86.0599 36.2778 85.2745 37.6914 85.7457 39.7333C86.374 43.0317 87.1593 46.1731 87.7876 49.4715C87.9447 50.4139 88.4159 51.0422 89.3583 51.0422C90.3007 51.1992 90.4578 50.2568 90.7719 49.7856C91.7143 48.372 91.4002 46.6443 91.7143 45.2307C91.8714 44.4453 92.0284 43.817 92.9708 43.9741C94.0703 44.1312 93.442 44.9165 93.442 45.3877C93.5991 47.4296 92.8138 49.3144 92.0284 51.1992C91.7143 52.1416 90.6148 52.927 89.5153 52.927C88.5729 52.927 88.4159 53.3982 88.5729 54.1835C88.73 55.9113 89.2012 57.639 88.5729 59.5238C88.2588 60.6233 87.4735 61.2516 86.5311 61.5657C84.8033 62.0369 82.9185 62.194 81.0337 61.7228C80.0913 61.4086 79.6201 60.9374 79.9342 60.1521C80.2483 59.2097 80.8766 59.838 81.5049 59.995C81.9761 59.995 82.4473 60.3092 83.0756 60.3092C86.531 60.4662 87.6305 59.0526 87.1593 55.7542C86.531 51.6704 85.7457 47.4296 84.6462 43.5029C84.175 41.7752 84.175 39.8904 84.175 38.1626C84.175 35.4925 86.0599 34.55 89.2012 34.0788C91.4002 33.7647 91.5572 33.9218 91.2431 31.7228C90.7719 28.4244 91.4002 25.4401 92.3426 22.2988C93.4421 18.8433 95.1698 15.5448 97.6828 12.8747C100.824 9.57626 104.437 8.47678 108.992 8.94798C117.159 9.89039 122.185 19.7857 119.672 26.6967C118.102 30.9375 115.746 34.393 111.662 36.4349C108.521 38.0055 105.222 38.3197 101.767 38.0055C99.2536 37.3773 97.0546 36.4349 94.5415 35.1783ZM93.1279 27.9532C94.0703 27.0108 93.7562 26.0684 94.0703 25.4401C95.4839 22.1417 97.2117 18.8433 99.8818 16.3302C102.709 13.66 106.007 12.0893 109.934 11.9323C111.034 11.9323 111.976 12.2464 113.39 12.5605C112.761 11.7752 112.133 11.7752 111.505 11.4611C107.735 9.89039 104.28 10.2045 100.824 12.7176C97.997 14.7595 96.2693 17.7438 94.8556 20.8851C93.7562 22.77 93.285 25.283 93.1279 27.9532Z" fill="#16013E"/>
<path d="M21.5049 119.367C26.374 117.482 31.4002 118.738 36.4264 117.482C30.4578 115.126 24.9604 116.225 19.6201 118.11C16.3217 119.21 13.9657 121.723 11.9238 124.55C8.31127 129.262 5.48407 134.602 2.81391 139.943C2.02857 141.513 1.24321 143.084 0.14374 144.812C-0.327464 142.613 0.457837 141.042 1.08611 139.628C2.49972 136.487 4.0704 133.346 5.79815 130.361C8.31123 125.964 10.9814 121.251 15.2222 118.424C17.7353 116.696 18.5207 114.655 19.7772 112.456C22.2903 107.901 25.7458 104.131 29.6725 100.676C33.285 97.6913 37.3688 95.3353 41.7667 93.4505C43.9657 92.5081 46.1646 92.0368 48.5206 91.4086C48.9918 91.2515 49.4631 91.2515 49.9343 91.4086C53.5468 92.6651 57.4735 92.9793 61.0861 94.3929C61.5573 94.5499 61.8714 94.707 62.1855 95.1782C61.2431 96.7489 59.5154 96.2777 58.2589 96.5918C55.2746 97.2201 52.1332 97.3772 49.1489 98.4766C46.3217 99.5761 43.6516 101.147 41.2955 103.032C38.4683 105.231 35.9552 107.744 34.2275 110.885C33.5992 111.984 32.9709 113.084 32.3427 114.183C33.9133 115.126 35.7982 114.655 37.3688 115.597C38.6254 116.225 39.4107 117.011 38.7824 118.424C38.6253 118.738 38.6253 118.895 39.0966 119.053C40.3531 119.681 40.3531 120.623 40.0389 121.723C39.7248 122.665 38.9395 123.45 39.5677 124.707C39.8819 125.492 37.84 128.162 36.5835 128.32C35.0128 128.634 34.0704 129.576 33.5992 131.147C33.285 132.403 32.0285 132.874 31.0861 133.189C29.6725 133.66 27.9448 133.974 26.3741 134.131C25.4317 134.288 24.9605 134.759 24.4893 135.545C23.2327 137.901 20.8767 138.686 18.5207 139.471C17.4212 139.785 16.1646 139.785 14.9081 139.785C14.5939 139.785 14.1227 139.943 14.1227 139.157C14.1227 138.529 14.4369 138.529 14.9081 138.529C17.2641 138.215 19.463 137.744 21.5049 136.33C21.9761 136.016 22.2903 135.545 22.6044 135.073C22.9186 134.759 22.9186 134.445 22.4474 134.445C22.1333 134.445 21.8191 134.445 21.8191 133.974C21.8191 133.503 22.1332 133.346 22.6044 133.346C24.018 133.032 25.2745 132.56 26.6882 132.246C28.573 132.089 30.1437 131.147 31.8715 129.733C28.416 129.262 25.2746 130.676 21.8191 129.89C23.2327 128.791 24.4892 128.477 25.9028 128.32C29.5154 127.691 33.2851 127.22 36.5835 125.335C36.7406 125.335 36.8976 125.178 37.2117 125.021C35.641 124.393 34.3845 124.707 33.128 124.864C30.6149 125.335 28.1018 125.335 25.5888 125.806C25.1176 125.806 24.6463 125.806 24.1751 125.806C23.861 125.649 23.3898 125.492 23.2327 125.021C23.0757 124.55 23.5468 124.393 23.861 124.079C24.8034 123.45 25.9029 123.293 27.1594 123.293C29.9867 123.293 32.8138 122.508 35.641 122.194C35.9552 122.194 36.2694 122.037 36.5835 121.88C37.2118 121.723 38.1541 121.409 37.9971 120.623C37.84 119.995 37.0547 119.995 36.4264 119.995C33.285 119.838 30.3008 120.152 27.1594 120.466C25.4317 120.623 23.861 120.309 22.1332 119.995C22.1332 119.995 21.8191 119.681 21.5049 119.367ZM28.8871 109.943C29.6725 109.943 30.3008 109.943 31.0861 109.943C31.5573 109.943 32.3427 110.257 32.6568 109.628C33.128 108.529 33.9133 107.744 34.6987 106.801C35.3269 106.016 35.1698 105.388 34.0704 105.388C33.4421 105.388 32.8138 105.231 32.1855 105.231C29.6724 105.231 27.1594 105.231 25.5888 107.744C25.2746 108.372 25.1175 109 25.2746 109.471C25.4317 110.1 26.0599 109.943 26.6882 109.943C27.3164 109.943 28.1018 109.943 28.8871 109.943ZM27.9448 114.498C29.6725 114.969 30.6149 114.34 31.0861 112.77C31.4003 111.827 31.0861 111.356 30.3008 111.356C28.2589 111.356 26.0599 110.885 23.861 111.67C22.4473 112.142 21.9762 112.927 21.6621 114.026C21.3479 114.969 21.662 115.44 22.7615 115.283C24.4892 114.812 26.3741 114.655 27.9448 114.498ZM43.9656 98.3196C43.6515 98.3196 43.3374 98.3196 43.0232 98.3196C42.0808 98.1625 40.8243 97.6913 40.3531 98.0054C39.4107 98.7908 38.4683 98.7908 37.3688 98.6337C36.8976 98.6337 36.7406 98.7908 36.5835 99.1049C36.5835 99.5761 36.8976 99.7332 37.2117 99.8902C39.8819 100.519 42.2379 100.833 43.9656 98.3196ZM38.7824 102.246C37.9971 101.461 37.2118 101.618 36.5835 101.618C35.327 101.618 35.0128 101.775 35.1699 102.403C35.3269 103.503 35.7981 103.974 36.8976 103.817C37.84 103.66 37.9971 102.56 38.7824 102.246ZM48.3636 96.1206C47.8924 95.9635 47.2641 95.6494 46.7929 95.4923C46.4788 95.3353 46.0076 95.0211 45.6934 95.3353C45.3793 95.8065 45.2222 96.4347 45.3793 96.9059C45.5363 97.5342 46.3217 97.2201 46.7929 97.2201C47.4212 97.063 48.0495 96.7489 48.3636 96.1206Z" fill="#16013E"/>
<path d="M26.8452 138.686C27.3164 142.77 27.6306 147.011 28.73 150.937C29.6725 154.707 31.2431 158.477 33.4421 161.775C36.1122 165.702 39.2535 169 42.709 171.984C43.4944 172.613 43.8085 172.613 44.1227 171.67C45.3792 168.843 47.4211 166.801 50.0912 165.388C51.6619 164.602 51.819 163.817 50.8766 161.618C48.6776 156.906 45.8504 152.508 41.7667 149.21C39.0965 147.168 34.5415 146.697 31.7143 148.424C31.2431 148.738 30.929 148.895 30.3007 148.738C32.6567 146.854 34.8556 145.754 37.6828 146.225C40.6671 146.854 43.0232 148.424 45.065 150.309C48.6776 153.765 51.1908 157.848 53.0756 162.403C53.5468 163.346 53.8608 163.66 54.9603 163.503C57.6305 163.032 59.9865 163.974 62.3425 164.916C62.8137 165.073 63.7561 165.388 63.442 166.016C63.1279 166.801 62.3426 166.33 61.7143 166.173C59.6724 165.388 57.4734 165.388 55.2745 165.545C54.175 165.545 54.0179 166.016 54.175 166.958C54.8032 170.414 55.2744 173.712 54.175 177.168C53.8608 177.953 54.018 178.738 55.1174 179.052C58.5729 180.309 62.0284 181.094 65.641 181.409C67.3687 181.566 69.2535 181.88 70.9812 182.037C71.6095 182.037 72.2378 182.351 72.2378 182.822C72.2378 183.45 71.6096 183.45 71.1384 183.607C65.1698 184.393 59.0441 184.707 53.0756 183.136C50.2483 182.351 47.264 181.723 44.5939 180.78C41.6096 179.681 38.6253 178.424 35.9551 176.696C32.6567 174.655 29.5154 172.456 26.8452 169.628C23.5468 166.173 20.8766 162.403 18.9918 158.005C18.0494 155.649 17.264 153.293 16.4787 150.78C15.8504 148.738 15.8505 146.697 15.8505 144.498C15.8505 144.183 15.8504 143.869 16.4787 143.712C17.1069 145.44 17.7352 147.168 18.0494 148.895C18.0494 149.21 18.0494 149.681 18.2065 149.995C18.9918 152.979 19.306 153.293 22.4473 153.293C23.7039 153.293 24.8033 153.293 26.0599 153.293C27.0023 153.293 27.0023 152.979 26.8452 152.194C26.374 150.152 26.0599 148.11 25.7457 146.068C25.2745 143.398 26.374 141.042 26.8452 138.686ZM27.3164 166.644C27.1593 166.958 27.0023 167.115 26.8452 167.429C28.1018 168.529 29.3582 169.628 30.6148 170.571C32.3425 171.827 33.7562 173.555 36.2693 172.613C37.997 171.984 38.3111 171.199 37.2117 169.943C35.1698 167.587 33.1279 165.545 31.7143 162.874C31.5572 162.56 31.2431 162.246 30.7719 162.403C29.0442 163.189 27.3164 162.56 25.5887 162.717C25.1175 162.717 24.6462 162.403 24.3321 163.032C24.0179 163.503 24.3321 163.974 24.6462 164.445C25.7457 165.859 29.3582 166.487 31.4001 165.702C31.7143 165.545 32.0284 165.073 32.4996 165.388C32.6567 165.545 32.6567 165.859 32.6567 166.173C32.6567 166.801 32.0285 166.644 31.5573 166.801C30.1436 166.958 28.73 166.801 27.3164 166.644ZM53.3896 173.084C53.3896 170.885 53.0755 169.314 52.7614 167.901C52.6043 167.115 52.1331 166.801 51.3478 167.272C48.9917 168.529 47.4211 170.257 46.1645 172.456C45.6933 173.241 45.3792 174.183 46.4787 174.812C48.2064 175.754 49.9342 176.854 51.6619 177.796C52.2902 178.11 52.7614 177.796 52.9184 177.168C53.0755 175.44 53.2326 173.869 53.3896 173.084ZM26.5311 160.676C27.4735 160.99 28.2588 160.676 29.2012 160.676C29.9866 160.676 30.3007 160.518 29.9866 159.576C29.3583 158.162 28.73 156.749 28.1017 155.178C27.9447 154.707 27.6305 154.079 27.0022 154.393C25.2745 155.021 23.5468 154.55 21.819 154.079C21.3478 153.922 20.7195 153.922 20.4054 154.393C19.7771 155.335 22.2903 160.361 23.2327 160.518H23.3897C24.3321 160.676 25.4316 160.676 26.5311 160.676ZM42.709 177.325C43.6514 177.482 43.9656 177.325 44.2797 176.854C44.5938 176.382 43.9656 176.225 43.6515 175.911C42.552 174.812 40.9813 174.34 39.5677 173.712C38.9394 173.398 38.4683 173.398 38.1541 173.869C37.84 174.34 38.6253 175.126 38.7823 175.126C40.1959 175.283 40.9813 176.225 41.9237 177.011C42.2378 177.168 42.552 177.168 42.709 177.325Z" fill="#16013E"/>
<path d="M119.986 117.325C119.515 117.953 119.044 117.953 118.416 117.953C115.274 118.11 111.662 115.44 111.191 112.456C111.034 111.042 110.248 110.885 109.306 110.885C106.007 110.728 104.28 108.058 104.123 105.545C103.651 100.362 105.379 95.9636 108.992 92.3511C109.62 91.7228 109.62 90.9374 108.992 90.3092C108.206 89.3668 107.892 88.2673 107.421 87.1678C107.107 86.5395 107.107 85.9113 107.578 85.5971C108.206 85.1259 108.363 85.9113 108.678 86.2254C109.777 87.3249 110.248 88.7385 111.034 89.995C112.447 92.3511 113.704 94.8641 114.803 97.2202C116.845 101.618 119.044 105.702 120.615 110.257C121.4 112.456 122.185 114.812 123.285 117.011C123.756 117.953 123.913 119.053 124.07 120.152C124.227 121.094 124.699 121.566 125.798 121.409C128.939 121.094 131.767 122.194 134.123 124.236C136.164 125.964 137.735 128.32 138.992 130.676C140.091 132.875 141.034 135.074 141.662 137.43C142.761 141.356 144.332 145.126 144.175 149.367C144.175 149.681 144.175 149.838 143.704 150.152C143.232 148.738 142.133 147.796 141.976 146.068C141.505 143.555 140.876 141.042 139.934 138.686C138.52 135.074 137.421 131.461 134.908 128.32C132.081 124.55 128.468 122.822 123.756 123.608C120.615 124.079 117.473 124.707 114.489 126.278C114.175 126.435 114.018 126.592 113.704 126.749C113.075 127.063 112.447 127.534 112.604 128.32C112.918 129.105 113.704 128.634 114.332 128.634C116.845 128.477 119.044 127.063 121.714 127.063C122.028 127.063 122.342 126.906 122.657 126.906C123.442 127.063 124.698 126.906 124.698 127.848C124.698 128.948 123.599 128.32 122.971 128.477C119.515 129.262 116.06 130.361 112.761 131.775C112.29 131.932 111.662 132.403 111.819 133.032C111.976 133.66 112.761 133.503 113.233 133.346C115.589 132.875 118.102 132.403 120.458 131.932C121.871 131.618 123.128 131.304 124.541 130.99C125.013 130.833 125.484 130.99 125.955 131.147C126.269 131.304 126.583 131.461 126.583 131.775C126.74 132.246 126.269 132.403 125.955 132.56C122.971 133.974 120.301 135.702 117.63 137.43C117.473 137.587 117.316 137.587 117.159 137.744C116.845 138.215 116.06 138.372 116.531 139.157C117.002 139.786 117.63 139.314 118.102 139.157C120.615 138.058 122.971 136.644 125.484 135.388C126.112 135.074 126.897 134.602 127.369 135.231C127.997 135.859 127.84 136.801 127.212 137.587C126.112 139 124.698 140.1 123.285 141.356C122.971 141.67 122.185 141.984 122.657 142.613C123.128 143.241 123.756 142.77 124.227 142.456C125.484 141.513 126.74 140.414 127.997 139.471C128.468 139 129.253 138.215 129.725 138.843C130.196 139.314 129.568 140.257 129.096 140.728C127.054 142.456 125.484 144.812 122.657 145.283C120.929 145.597 119.986 144.969 120.143 143.241C120.301 141.827 119.515 141.67 118.416 141.984C117.159 142.456 116.06 142.456 114.803 141.827C113.547 141.199 113.233 140.414 113.547 139.157C113.704 138.372 114.646 137.744 114.175 136.958C113.547 136.016 112.447 135.859 111.505 135.702C108.678 135.074 108.206 133.817 109.934 131.618C110.405 130.99 110.405 130.519 110.091 129.89C109.306 128.163 110.091 127.063 111.348 125.964C114.018 123.765 117.159 122.665 120.458 122.037C120.772 122.037 121.086 121.88 121.557 121.88C122.814 121.723 122.971 121.094 122.342 119.995C120.458 117.011 119.672 113.712 118.416 110.414C118.259 109.943 118.102 109.471 117.787 109C117.159 108.058 116.531 107.744 115.746 108.843C115.117 109.786 114.175 110.1 113.233 110.571C112.604 110.885 112.447 111.356 112.604 112.142C113.075 113.869 115.431 115.911 117.316 116.068C118.416 116.225 119.201 116.54 119.986 117.325ZM109.777 109.629C110.562 109.629 110.876 109.314 111.034 108.529C111.505 106.644 112.29 104.916 114.018 103.817C114.803 103.346 114.803 102.718 114.489 102.089C113.233 99.4191 111.976 96.7489 110.719 94.0788C110.405 93.6076 109.934 92.8223 109.149 93.6076C106.164 96.749 104.751 100.676 105.065 104.916C105.379 107.587 107.735 109.786 109.777 109.629ZM115.903 105.702C115.903 105.388 115.903 105.231 115.589 105.074C115.117 104.916 114.803 104.916 114.489 105.231C113.547 105.859 113.233 106.801 112.918 107.744C112.761 108.058 112.604 108.372 112.918 108.529C113.233 108.843 113.547 108.686 113.861 108.686C115.117 108.058 115.589 106.958 115.903 105.702Z" fill="#16013E"/>
<path d="M96.5834 198.215C97.8399 196.487 99.5677 195.387 101.453 194.602C103.966 193.503 106.165 192.089 108.835 191.147C109.934 190.832 109.934 189.576 110.091 188.633C110.405 185.963 111.505 183.607 112.604 181.251C114.332 177.01 116.688 172.927 119.515 169.314C121.243 167.272 122.971 165.073 125.484 163.974C129.254 162.246 132.238 163.188 133.966 166.801C134.123 166.958 134.123 167.115 134.28 167.429C134.751 168.843 135.536 169.314 136.95 168.372C138.678 167.115 141.505 169.314 142.133 171.513C142.29 172.141 142.133 172.77 142.761 172.927C143.704 173.084 144.018 172.141 144.646 171.827C145.274 171.513 144.803 171.042 144.646 170.571C142.918 166.33 141.034 162.246 139.306 157.848C137.892 154.236 136.479 150.623 134.908 147.01C134.123 145.283 133.023 143.869 132.395 142.141C132.238 141.67 131.924 141.356 132.238 140.728C134.437 140.885 135.065 142.927 135.85 144.34C137.578 147.639 139.149 151.094 140.72 154.393C142.29 157.691 143.704 160.99 145.117 164.445C145.746 166.016 147.002 167.429 147.473 169C147.788 169.628 148.259 170.257 147.788 171.042C147.63 171.356 147.631 171.67 148.102 171.827C149.829 172.141 148.887 172.455 148.259 173.084C145.432 175.597 141.976 177.168 138.521 178.895C135.379 180.623 132.081 182.037 128.782 183.607C125.641 185.178 122.343 186.592 119.201 188.162C115.746 189.733 112.29 191.461 108.835 192.874C105.065 194.445 101.452 196.644 97.3687 198.058C97.2116 198.215 96.8975 198.372 96.5834 198.215ZM110.091 190.518C111.976 189.576 113.861 188.791 115.589 188.005C119.672 185.963 123.756 183.921 127.997 182.037C129.411 181.408 130.981 180.78 130.667 178.581C130.51 177.01 131.295 175.283 132.081 173.869C133.337 171.984 133.808 170.257 132.709 168.372V168.215C131.452 165.859 129.725 163.974 126.269 165.545C122.028 167.586 119.672 171.199 117.159 174.969C114.803 178.581 113.076 182.665 111.348 186.749C110.877 187.848 109.934 188.948 110.091 190.518ZM135.693 173.869C135.85 173.869 135.85 173.869 135.693 173.869C135.693 174.654 135.85 175.283 135.693 176.068C135.693 177.325 136.322 177.168 136.95 176.853C137.892 176.382 138.835 175.597 139.777 175.126C140.719 174.654 140.719 174.026 140.405 173.398C140.248 172.77 140.091 172.141 139.777 171.513C139.306 170.728 138.52 169.471 137.421 169.942C136.322 170.257 135.065 170.885 135.536 172.613C135.85 172.927 135.693 173.398 135.693 173.869ZM133.808 175.283C132.709 176.225 132.552 177.325 132.709 178.738C133.808 177.639 134.123 176.539 133.808 175.283Z" fill="#16013E"/>
<path d="M63.7562 98.0054C64.8557 99.8902 64.8556 101.618 65.1698 103.189C66.1122 107.272 65.641 111.67 66.4264 115.754C66.7405 117.168 66.8975 117.639 68.6253 117.482C74.1227 117.011 79.463 117.796 84.175 121.094C87.3164 123.136 89.3583 125.963 90.7719 129.419C91.8714 132.403 92.6567 135.388 92.4996 138.686C92.3425 143.555 90.6148 147.796 87.1593 151.251C84.4891 154.079 81.1907 155.963 77.5782 157.063C76.0075 157.534 74.2798 158.162 72.3949 157.691C72.0808 157.534 71.6096 157.534 71.6096 157.22C71.6096 156.906 71.9237 156.592 72.3949 156.592C75.3792 155.963 78.2064 154.864 80.8765 153.45C84.9603 151.094 87.9446 147.953 89.3583 143.084C90.9289 137.586 89.9865 132.56 87.3164 127.691C85.7457 124.707 82.9185 122.665 79.7772 121.094C76.1646 119.524 72.3949 119.052 68.4682 119.21C67.6829 119.21 66.7405 119.21 66.1122 119.524C65.1698 119.995 64.8556 119.367 64.6986 118.581C64.3844 114.498 64.0703 110.414 63.7562 106.487C63.7562 103.817 63.5991 101.147 63.7562 98.0054Z" fill="#16013E"/>
<path d="M54.8032 57.3248C56.531 59.6808 56.8451 62.0368 57.6304 64.2357C58.887 68.1624 60.7718 71.775 63.9131 74.7593C67.5257 78.0577 71.6095 79.7855 76.4786 79.1572C78.9917 78.8431 81.1906 77.2724 83.2325 75.5446C87.0021 72.0891 89.5153 67.8483 91.5571 63.2933C93.442 59.0525 94.8556 54.6546 95.955 49.9426C96.2692 48.3719 96.4262 46.4871 98.1539 45.5447C98.6251 46.0159 98.6251 46.33 98.4681 46.8012C97.9969 50.0996 97.2116 53.241 96.2692 56.3824C94.8556 60.9373 92.9708 65.1782 90.7718 69.2619C89.0441 72.4033 86.688 75.2305 83.8608 77.5865C81.1906 79.7855 78.0493 81.1991 74.9079 81.9844C70.8241 83.241 66.8975 81.5132 64.0703 78.3719C61.243 75.2305 58.73 71.775 57.0022 67.6912C55.9027 65.0211 54.9603 62.1939 54.8032 59.3666C54.6462 58.7384 54.6462 58.2672 54.8032 57.3248Z" fill="#16013E"/>
<path d="M5.484 122.665C5.16987 120.466 6.5835 118.895 7.36884 117.168C10.9814 110.728 15.5364 105.073 20.8767 99.8902C24.1752 96.7488 27.6306 93.7645 31.2432 91.0944C34.8557 88.4242 38.7825 86.0682 42.8662 84.1834C45.8505 82.7698 49.1489 81.6703 52.4473 80.7279C54.9604 80.0996 57.3165 79.6284 59.8295 79.6284C59.9866 80.0996 59.6725 80.4138 59.5154 80.5708C57.0023 81.8274 54.4892 83.3981 51.662 84.0263C48.3636 84.8117 45.0652 85.9111 42.0809 87.3247C38.1542 89.2096 34.2275 91.4085 30.772 94.2357C27.0024 97.3771 23.3898 100.518 19.9343 104.131C15.8505 108.529 12.238 113.398 9.09664 118.424C8.46837 119.524 7.84008 120.466 7.21181 121.566C6.7406 122.194 6.26934 122.351 5.484 122.665Z" fill="#16013E"/>
<path d="M73.4944 181.723C72.8661 180.309 72.0807 178.895 72.0807 177.325C72.0807 174.969 71.2954 172.77 70.9812 170.571C70.6671 168.058 70.1959 165.388 69.8817 162.874C69.7247 161.932 69.4106 161.147 69.2535 160.204C69.0965 159.576 69.4106 158.948 70.0389 158.634C70.8242 158.32 70.6671 159.105 70.9812 159.576C72.3948 161.775 72.2378 164.445 72.5519 166.801C73.0231 171.356 73.9656 175.754 73.9656 180.309C73.9656 180.78 73.9656 181.094 73.9656 181.566C73.8085 181.723 73.6514 181.723 73.4944 181.723Z" fill="#16013E"/>
<path d="M80.0912 47.5864C80.2482 46.644 79.7771 45.7016 79.9341 44.6022C79.9341 43.9739 80.2482 43.5027 80.8765 43.5027C81.5048 43.5027 81.6619 43.9739 81.6619 44.6022C81.6619 46.644 82.4472 48.5289 81.6619 50.5707C81.0336 52.1414 79.1488 53.0838 77.5781 52.7697C74.908 52.1414 73.3373 50.2566 72.0808 48.0577C71.7666 47.4294 71.4525 46.644 71.1384 46.0158C70.8242 45.3875 71.1383 44.9163 71.7666 44.7592C72.3949 44.6022 72.709 44.7592 72.8661 45.5446C73.3373 47.7435 74.5939 49.1571 76.3216 50.5707C77.1069 51.199 78.0493 51.5132 78.8347 51.0419C79.7771 50.5707 80.0912 49.7854 79.9341 48.6859C80.0912 48.3718 80.0912 48.0577 80.0912 47.5864Z" fill="#16013E"/>
<path d="M132.552 21.9847C132.081 21.8276 131.61 22.1418 131.452 21.6705C131.138 21.0423 131.767 20.8852 132.081 20.5711C133.966 19.0004 136.322 18.2151 138.363 16.9585C139.777 16.0161 141.191 15.859 142.761 15.5449C143.075 15.5449 143.547 15.3878 143.704 15.859C144.018 16.3302 143.547 16.4873 143.39 16.8014C142.29 18.2151 140.562 19.0004 138.992 19.7857C137.264 20.7281 135.222 21.0423 133.494 21.9847C133.18 22.1418 132.866 21.9847 132.552 21.9847Z" fill="#16013E"/>
<path d="M75.8504 33.4505C77.264 33.2934 78.6776 33.4505 80.0912 34.2358C80.5624 34.55 81.0337 34.8641 80.5625 35.4924C80.2483 35.9636 79.9342 36.2777 79.1488 36.1206C75.2221 34.8641 71.7666 35.1782 68.9394 38.4767C68.4682 38.9479 67.997 38.7908 67.5258 38.4767C67.0546 38.1625 67.0546 37.6913 67.3687 37.0631C67.8399 36.2777 68.6253 35.8065 69.4106 35.1782C71.2954 34.0788 73.3373 33.2934 75.8504 33.4505Z" fill="#16013E"/>
<path d="M139.149 35.3354C137.578 35.3354 136.007 35.1783 134.437 35.1783C133.966 35.1783 133.337 35.0212 133.18 34.3929C133.023 33.7647 133.651 33.6076 133.966 33.2935C135.693 32.0369 137.735 32.3511 139.777 32.3511C140.876 32.3511 141.976 32.8223 141.976 33.9217C141.976 35.1783 140.719 35.1783 139.777 35.1783C139.463 35.4924 139.306 35.3354 139.149 35.3354Z" fill="#16013E"/>
<path d="M126.269 14.4451C126.74 11.932 127.055 9.57602 128.939 7.6912C129.253 7.37707 129.568 7.06293 130.039 7.22C130.51 7.37707 130.353 8.00534 130.353 8.31947C130.51 9.26188 129.882 10.2043 129.568 11.1467C129.253 12.5603 128.782 13.9739 128.154 15.2305C127.997 15.7017 127.84 16.3299 127.055 16.3299C126.112 16.3299 126.583 15.5446 126.269 15.0734C126.269 14.9163 126.269 14.6022 126.269 14.4451Z" fill="#16013E"/>
<path d="M93.2849 86.0683C92.9708 86.6965 92.3425 86.5395 92.0284 86.3824C90.6148 85.7541 89.3582 84.8117 88.1017 83.8693C87.1593 83.084 85.9027 82.7699 84.9603 82.1416C84.332 81.8274 84.4891 81.1992 84.4891 80.885C84.6462 80.4138 85.1173 80.2568 85.5885 80.5709C88.5728 81.6704 90.6147 83.8693 92.9707 85.9112C93.1278 85.7541 93.1278 85.9112 93.2849 86.0683Z" fill="#16013E"/>
<path d="M77.107 69.1048C75.3793 68.4766 73.1803 68.0053 72.2378 65.6493C72.0808 65.1781 71.9238 64.7069 72.395 64.5499C72.8662 64.3928 73.4944 64.0786 73.8085 64.864C74.5939 66.5917 76.1645 66.9059 77.7352 67.5341C78.2064 67.6912 79.1489 67.3771 78.9918 68.4765C78.8348 69.1048 78.0494 69.2619 77.107 69.1048Z" fill="#16013E"/>
</svg>
