<svg width="100" height="102" viewBox="0 0 100 102" fill="none" xmlns="http://www.w3.org/2000/svg">
<path fill-rule="evenodd" clip-rule="evenodd" d="M29.6333 19.201L42.6625 27.2964L53.0578 63.2065L51.9843 63.5163L41.7081 28.0175L29.5963 20.4922L23.7367 23.6837L23.2017 22.7041L29.6333 19.201Z" fill="#BCBCBC"/>
<path d="M77.5677 42.7515C80.2646 47.2211 81.2198 53.2093 81.3603 55.6447H83.4673C84.2398 50.2009 85.5321 38.5828 84.5208 35.6604C83.2566 32.0073 80.5175 28.9989 71.8788 28.9989C63.2401 28.9989 58.1833 37.3795 53.5479 38.024C48.9125 38.6686 48.7018 37.1646 39.8524 37.3795C31.003 37.5944 24.4713 44.4707 24.0499 49.4131C23.7127 53.367 17.5884 55.2149 14.5684 55.6447C15.9028 56.1461 19.3302 57.106 22.3643 56.9341C26.1569 56.7192 26.1569 47.9089 37.7454 45.76C49.3339 43.6112 50.3874 47.2642 54.3907 46.6196C58.394 45.9749 63.8722 39.5282 65.5578 38.024C67.2434 36.5199 74.1965 37.1645 77.5677 42.7515Z" fill="url(#paint0_linear_1878_3736)"/>
<path fill-rule="evenodd" clip-rule="evenodd" d="M71.9196 32.5091C74.6173 32.5885 76.7369 33.7157 78.238 35.0872C79.0966 35.8718 79.7849 37.1749 80.3368 38.7655C80.8896 40.3589 81.3099 42.254 81.6247 44.2356C82.2543 48.199 82.464 52.5208 82.464 55.4947H82.2406C82.2406 52.5288 82.0313 48.2192 81.404 44.2704C81.0903 42.296 80.6726 40.4149 80.1256 38.8383C79.5776 37.2588 78.9042 35.9982 78.087 35.2514C76.6183 33.9096 74.5482 32.8093 71.913 32.7317C69.2777 32.6541 66.0637 33.599 62.3076 36.3725C61.0029 37.3358 59.909 38.2062 58.9411 38.9763C58.5112 39.3183 58.1061 39.6406 57.7185 39.9425C56.4608 40.9219 55.387 41.6861 54.2567 42.1966C51.986 43.2223 49.5102 43.214 44.8938 41.959C35.7261 39.4667 29.63 43.8991 27.6995 46.9231C27.4943 47.2445 27.27 47.7824 27.0108 48.4351C26.9676 48.5437 26.9236 48.6554 26.8786 48.7694C26.6553 49.3354 26.4087 49.9603 26.1321 50.5744C25.7997 51.3121 25.4216 52.0396 24.9836 52.6367C24.5465 53.2326 24.0424 53.7086 23.4546 53.9284C22.5684 54.2596 21.7828 54.6741 21.1567 55.0082C21.1343 55.0201 21.1122 55.0319 21.0902 55.0437C20.8057 55.1955 20.5538 55.3301 20.3441 55.4284C20.231 55.4815 20.1276 55.5252 20.0361 55.5559C19.946 55.5861 19.8602 55.6061 19.7842 55.6061V55.3833C19.8246 55.3833 19.8837 55.372 19.965 55.3447C20.0449 55.318 20.1395 55.2782 20.249 55.2269C20.4531 55.1311 20.7 54.9993 20.9868 54.8462C21.008 54.8349 21.0295 54.8234 21.0512 54.8118C21.6774 54.4777 22.4746 54.0568 23.3761 53.7198C23.9056 53.5219 24.3779 53.0851 24.8033 52.5052C25.2278 51.9264 25.5985 51.2151 25.9282 50.4831C26.2025 49.8744 26.4468 49.2552 26.6701 48.6893C26.7152 48.5749 26.7595 48.4626 26.803 48.3531C27.0598 47.7065 27.292 47.1465 27.5109 46.8035C29.4909 43.7021 35.6849 39.2246 44.9525 41.7441C49.5537 42.995 51.9661 42.9867 54.1645 41.9938C55.2688 41.495 56.3248 40.7452 57.581 39.7669C57.9655 39.4674 58.3689 39.1465 58.7979 38.8052C59.7671 38.0341 60.8667 37.1592 62.1746 36.1935C65.9602 33.3983 69.2221 32.4297 71.9196 32.5091Z" fill="#F9F9F9"/>
<path d="M82.4117 40.724C82.4117 48.3493 84.3185 53.9445 85.8841 55.551L88.6237 55.551C86.7891 50.7156 88.9091 39.9325 89.9758 35.2168C90.7423 31.8283 90.1938 26.24 86.3734 22.9315C82.553 19.623 69.0385 23.6965 66.3535 20.5019C63.6686 17.3073 60.0795 13.2709 57.4533 10.2798C54.827 7.28878 48.4249 8.03013 46.4851 12.777C44.7591 17.0009 42.2144 20.9137 40.483 23.3227C42.479 22.0866 47.4352 21.2765 50.3399 18.5003C53.9708 15.03 56.9834 21.6571 61.7942 25.3417C66.6051 29.0262 79.9891 26.4947 82.4117 29.5444C84.8344 32.5941 82.4117 33.2833 82.4117 40.724Z" fill="url(#paint1_linear_1878_3736)"/>
<path fill-rule="evenodd" clip-rule="evenodd" d="M51.3496 13.517C52.0362 13.0409 52.7214 12.729 53.3825 12.729C54.0524 12.729 54.6889 13.1016 55.3277 13.6973C55.9677 14.2941 56.6266 15.1308 57.341 16.0907C57.5517 16.3737 57.7674 16.6678 57.9892 16.9701C59.2755 18.7236 60.766 20.7554 62.6609 22.5347C63.7548 23.5619 65.248 24.1494 66.9584 24.479C68.6685 24.8086 70.5856 24.8785 72.5187 24.8785C73.2272 24.8785 73.9389 24.8691 74.6429 24.8598C75.8548 24.8437 77.044 24.828 78.1557 24.8611C79.9135 24.9135 81.4994 25.0882 82.7044 25.5852C83.8985 26.0777 84.7359 26.6276 85.2965 27.3015C85.8589 27.9774 86.1351 28.7686 86.2238 29.728C86.3122 30.6843 86.2147 31.8123 86.0272 33.1663C85.9275 33.8859 85.8015 34.675 85.6635 35.5393C85.5424 36.2984 85.4119 37.1154 85.282 37.994C84.8381 40.9947 85.0689 44.5434 85.5399 47.7648C86.0108 50.985 86.7207 53.8703 87.2303 55.5408L87.0169 55.6061C86.5041 53.925 85.7918 51.0288 85.3192 47.7972C84.8468 44.5668 84.6128 40.9934 85.0613 37.9613C85.1923 37.0754 85.3229 36.2579 85.4439 35.4999C85.5813 34.6394 85.7065 33.8556 85.8062 33.1357C85.9934 31.784 86.0876 30.6776 86.0017 29.7486C85.9161 28.8227 85.652 28.0778 85.1251 27.4445C84.5965 26.8092 83.7956 26.2769 82.6195 25.7918C81.4543 25.3112 79.9031 25.1368 78.1491 25.0845C77.0413 25.0514 75.8615 25.0671 74.6537 25.0831C73.9487 25.0925 73.2341 25.102 72.5187 25.102C70.5828 25.102 68.6482 25.0322 66.9162 24.6985C65.1846 24.3647 63.6452 23.7652 62.5083 22.6977C60.5971 20.903 59.0931 18.8527 57.8073 17.0996C57.5861 16.7981 57.3714 16.5053 57.1621 16.2242C56.4474 15.2638 55.7992 14.4422 55.1756 13.8608C54.5508 13.2782 53.9674 12.9525 53.3825 12.9525C52.7887 12.9525 52.1494 13.2342 51.4766 13.7007C50.8054 14.1661 50.1141 14.8061 49.418 15.5033C49.0703 15.8515 48.7224 16.213 48.3759 16.5732L48.369 16.5804C48.0251 16.9378 47.6825 17.2939 47.344 17.6329C46.6635 18.3145 45.9948 18.9321 45.3576 19.3576L45.2339 19.1717C45.8516 18.7592 46.5074 18.1549 47.1863 17.4749C47.5232 17.1374 47.8646 16.7826 48.2091 16.4246L48.2153 16.4181C48.5615 16.0582 48.9108 15.6953 49.2602 15.3453C49.9584 14.646 50.6613 13.9942 51.3496 13.517Z" fill="#F9F9F9"/>
<path d="M86.9535 42.0117C85.9099 44.8881 87.4608 52.7279 89.1276 55.3364H93.0409C92.8235 52.2343 91.3016 49.2028 93.6931 45.1842C95.7484 41.7306 99.1283 34.8206 98.9108 28.687C98.6934 22.5534 92.1712 20.6498 91.3016 15.7853C90.6059 11.8936 92.6061 6.97262 93.6931 4.99859C90.9393 6.90212 85.4316 11.7244 85.4316 15.7853C85.4316 20.8613 90.6494 21.7074 91.3016 26.5719C91.9538 31.4365 88.2579 38.4161 86.9535 42.0117Z" fill="url(#paint2_linear_1878_3736)"/>
<path fill-rule="evenodd" clip-rule="evenodd" d="M90.8302 8.73366C90.0927 9.6566 88.4484 12.1729 87.7845 14.8316C87.5861 15.626 87.8813 16.6225 88.4807 17.7663C89.0777 18.9053 89.9617 20.1638 90.9033 21.4731C91.011 21.6229 91.1195 21.7734 91.2284 21.9244C92.0691 23.0903 92.9325 24.2879 93.6523 25.4618C94.4646 26.7866 95.1009 28.092 95.3137 29.2994C95.7395 31.7146 94.7434 33.8397 93.4893 36.1067C93.3235 36.4064 93.1531 36.7086 92.9807 37.0146C91.8441 39.0313 90.6168 41.2088 90.0154 43.8578C88.9078 48.7371 90.4783 53.6599 91.4005 55.5062L91.201 55.6061C90.2644 53.7308 88.6752 48.7541 89.7979 43.8084C90.4071 41.1251 91.6517 38.9174 92.7879 36.9021C92.96 36.5968 93.1296 36.2959 93.2942 35.9985C94.5492 33.7298 95.5048 31.6681 95.0941 29.3382C94.8887 28.1731 94.2704 26.8967 93.4622 25.5786C92.7471 24.4124 91.8889 23.222 91.0476 22.0551C90.9387 21.9042 90.8302 21.7536 90.7223 21.6036C89.782 20.2961 88.8886 19.0252 88.2832 17.8701C87.6804 16.7199 87.3482 15.6579 87.5681 14.7775C88.2424 12.0771 89.9066 9.53203 90.656 8.59417L90.8302 8.73366Z" fill="#F9F9F9"/>
<path d="M72.5723 55.3364H100L96.7353 90.3025C96.5212 92.595 94.589 94.3482 92.2765 94.3482H81.4508C79.1937 94.3482 77.2895 92.6758 77.0078 90.4461L72.5723 55.3364Z" fill="#D7E9F9"/>
<path d="M72.5723 55.3364H100L96.7353 90.3025C96.5212 92.595 94.589 94.3482 92.2765 94.3482H81.4508C79.1937 94.3482 77.2895 92.6758 77.0078 90.4461L72.5723 55.3364Z" fill="url(#paint3_linear_1878_3736)" fill-opacity="0.25"/>
<path d="M72.5723 55.3364H100L96.7353 90.3025C96.5212 92.595 94.589 94.3482 92.2765 94.3482H81.4508C79.1937 94.3482 77.2895 92.6758 77.0078 90.4461L72.5723 55.3364Z" fill="url(#paint4_linear_1878_3736)" fill-opacity="0.5"/>
<mask id="mask0_1878_3736" style="mask-type:alpha" maskUnits="userSpaceOnUse" x="72" y="55" width="29" height="40">
<path d="M72.5723 55.3364H100L96.7353 90.3025C96.5212 92.595 94.589 94.3482 92.2765 94.3482H81.4508C79.1937 94.3482 77.2895 92.6758 77.0078 90.4461L72.5723 55.3364Z" fill="#424242"/>
</mask>
<g mask="url(#mask0_1878_3736)">
<path fill-rule="evenodd" clip-rule="evenodd" d="M100.54 59.6512H72.3921V59.2915H100.54V59.6512Z" fill="black"/>
<path fill-rule="evenodd" clip-rule="evenodd" d="M100.54 60.9096H72.3921V60.7298H100.54V60.9096Z" fill="black"/>
<path fill-rule="evenodd" clip-rule="evenodd" d="M100.54 90.573H72.3921V90.3931H100.54V90.573Z" fill="black"/>
</g>
<path d="M20.747 96.5954H79.3162L70.889 100.011H12.3198L20.747 96.5954Z" fill="#D7E9F9"/>
<path d="M22.2601 97.3146H26.6186L24.2326 98.2139H19.874L22.2601 97.3146Z" fill="#F9F9F9"/>
<path d="M28.1956 97.3146H32.5542L30.1681 98.2138H25.8096L28.1956 97.3146Z" fill="#F9F9F9"/>
<path d="M34.1625 97.3146H38.5792L36.1613 98.2138H31.7446L34.1625 97.3146Z" fill="#F9F9F9"/>
<path d="M40.0976 97.3146H44.5142L42.0963 98.2138H37.6797L40.0976 97.3146Z" fill="#F9F9F9"/>
<path d="M46.0326 97.3146H50.4493L48.0314 98.2138H43.6147L46.0326 97.3146Z" fill="#F9F9F9"/>
<path d="M51.9097 97.3146H56.3844L53.9347 98.2138H49.46L51.9097 97.3146Z" fill="#F9F9F9"/>
<path d="M57.9032 97.3146H62.3199L59.902 98.2138H55.4854L57.9032 97.3146Z" fill="#F9F9F9"/>
<path d="M63.8065 97.3146H68.165L65.7789 98.2138H61.4204L63.8065 97.3146Z" fill="#F9F9F9"/>
<path d="M69.742 97.3146H74.1006L71.7145 98.2138H67.356L69.742 97.3146Z" fill="#F9F9F9"/>
<path d="M19.742 98.6629H24.1006L21.7145 99.4723H17.356L19.742 98.6629Z" fill="#F9F9F9"/>
<path d="M25.6771 98.6629H30.0356L27.6496 99.4722H23.291L25.6771 98.6629Z" fill="#F9F9F9"/>
<path d="M31.6126 98.6629H35.9712L33.5851 99.4722H29.2266L31.6126 98.6629Z" fill="#F9F9F9"/>
<path d="M37.5472 98.6629H41.9057L39.5197 99.4722H35.1611L37.5472 98.6629Z" fill="#F9F9F9"/>
<path d="M43.4827 98.6629H47.8413L45.4552 99.4722H41.0967L43.4827 98.6629Z" fill="#F9F9F9"/>
<path d="M49.4183 98.6629H53.7768L51.3908 99.4722H47.0322L49.4183 98.6629Z" fill="#F9F9F9"/>
<path d="M55.3533 98.6629H59.7119L57.3258 99.4722H52.9673L55.3533 98.6629Z" fill="#F9F9F9"/>
<path d="M61.2627 98.6629H65.7374L63.2878 99.4722H58.813L61.2627 98.6629Z" fill="#F9F9F9"/>
<path d="M67.1346 98.6629H71.4931L69.1071 99.4722H64.7485L67.1346 98.6629Z" fill="#F9F9F9"/>
<path d="M20.6831 63.7348C20.6831 63.1177 21.184 62.6174 21.8018 62.6174H78.5572C79.175 62.6174 79.6759 63.1177 79.6759 63.7348V96.955H20.6831V63.7348Z" fill="#D7E9F9"/>
<path d="M20.6831 63.7348C20.6831 63.1177 21.184 62.6174 21.8018 62.6174H78.5572C79.175 62.6174 79.6759 63.1177 79.6759 63.7348V96.955H20.6831V63.7348Z" fill="url(#paint5_linear_1878_3736)" fill-opacity="0.25"/>
<path d="M23.291 65.5838H77.068V93.8988H23.291V65.5838Z" fill="url(#paint6_linear_1878_3736)"/>
<path d="M57.5536 78.9312C57.5536 75.0346 54.4334 71.876 50.5842 71.876C46.735 71.876 43.6147 75.0346 43.6147 78.9312C43.6147 80.0903 43.8914 81.21 44.4127 82.2118L43.635 85.2385C43.6091 85.3396 43.6097 85.4457 43.6369 85.5465C43.664 85.6472 43.7166 85.7391 43.7895 85.8129C43.8625 85.8867 43.9532 85.94 44.0527 85.9675C44.1523 85.9949 44.2571 85.9956 44.357 85.9694L47.3469 85.1813C48.3454 85.7119 49.4565 85.9882 50.5842 85.9863C54.4334 85.9863 57.5536 82.8277 57.5536 78.9312ZM50.5842 76.1091C50.9538 76.1091 51.3084 76.2578 51.5698 76.5224C51.8312 76.787 51.9781 77.1459 51.9781 77.5201V80.3422C51.9781 80.7164 51.8312 81.0753 51.5698 81.3399C51.3084 81.6046 50.9538 81.7532 50.5842 81.7532H48.4933C48.1237 81.7532 47.7691 81.6046 47.5077 81.3399C47.2463 81.0753 47.0995 80.7164 47.0995 80.3422V77.5201C47.0995 77.1459 47.2463 76.787 47.5077 76.5224C47.7691 76.2578 48.1237 76.1091 48.4933 76.1091H50.5842ZM52.675 79.751V78.1113L53.8835 76.9529C53.9577 76.8817 54.0509 76.8341 54.1515 76.8159C54.2522 76.7978 54.3559 76.8099 54.4498 76.8509C54.5437 76.8918 54.6237 76.9597 54.6799 77.0462C54.736 77.1326 54.7659 77.2339 54.7658 77.3374V80.5249C54.7659 80.6284 54.736 80.7297 54.6799 80.8161C54.6237 80.9026 54.5437 80.9705 54.4498 81.0114C54.3559 81.0524 54.2522 81.0645 54.1515 81.0464C54.0509 81.0282 53.9577 80.9806 53.8835 80.9094L52.675 79.751Z" fill="white"/>
<mask id="mask1_1878_3736" style="mask-type:alpha" maskUnits="userSpaceOnUse" x="20" y="62" width="60" height="35">
<path d="M20.6831 63.7348C20.6831 63.1177 21.184 62.6174 21.8018 62.6174H78.5572C79.175 62.6174 79.6759 63.1177 79.6759 63.7348V96.955H20.6831V63.7348Z" fill="#D7E9F9"/>
<path d="M20.6831 63.7348C20.6831 63.1177 21.184 62.6174 21.8018 62.6174H78.5572C79.175 62.6174 79.6759 63.1177 79.6759 63.7348V96.955H20.6831V63.7348Z" fill="url(#paint7_linear_1878_3736)" fill-opacity="0.25"/>
<path d="M57.5536 78.9312C57.5536 75.0346 54.4334 71.876 50.5842 71.876C46.735 71.876 43.6147 75.0346 43.6147 78.9312C43.6147 80.0903 43.8914 81.21 44.4127 82.2118L43.635 85.2385C43.6091 85.3396 43.6097 85.4457 43.6369 85.5465C43.664 85.6472 43.7166 85.7391 43.7895 85.8129C43.8625 85.8867 43.9532 85.94 44.0527 85.9675C44.1523 85.9949 44.2571 85.9956 44.357 85.9694L47.3469 85.1813C48.3454 85.7119 49.4565 85.9882 50.5842 85.9863C54.4334 85.9863 57.5536 82.8277 57.5536 78.9312ZM50.5842 76.1091C50.9538 76.1091 51.3084 76.2578 51.5698 76.5224C51.8312 76.787 51.9781 77.1459 51.9781 77.5201V80.3422C51.9781 80.7164 51.8312 81.0753 51.5698 81.3399C51.3084 81.6046 50.9538 81.7532 50.5842 81.7532H48.4933C48.1237 81.7532 47.7691 81.6046 47.5077 81.3399C47.2463 81.0753 47.0995 80.7164 47.0995 80.3422V77.5201C47.0995 77.1459 47.2463 76.787 47.5077 76.5224C47.7691 76.2578 48.1237 76.1091 48.4933 76.1091H50.5842ZM52.675 79.751V78.1113L53.8835 76.9529C53.9577 76.8817 54.0509 76.8341 54.1515 76.8159C54.2522 76.7978 54.3559 76.8099 54.4498 76.8509C54.5437 76.8918 54.6237 76.9597 54.6799 77.0462C54.736 77.1326 54.7659 77.2339 54.7658 77.3374V80.5249C54.7659 80.6284 54.736 80.7297 54.6799 80.8161C54.6237 80.9026 54.5437 80.9705 54.4498 81.0114C54.3559 81.0524 54.2522 81.0645 54.1515 81.0464C54.0509 81.0282 53.9577 80.9806 53.8835 80.9094L52.675 79.751Z" fill="white"/>
</mask>
<g mask="url(#mask1_1878_3736)">
<g filter="url(#filter0_d_1878_3736)">
<path d="M64.9861 43.5636C75.5143 43.3939 81.6841 51.6908 83.453 55.8605H80.0568C76.6606 52.2563 66.8965 50.984 62.0144 52.2561C57.286 53.4882 55.1963 53.011 45.2199 63.3998C35.2436 73.7886 25.9175 74.5766 20.3226 72.9001C18.5042 72.3552 14.4676 68.7934 12.7695 66.8853C13.4063 67.38 15.7837 68.3694 20.1987 68.3694C25.7175 68.3694 38.0288 55.2244 41.8495 52.2561C45.6702 49.2879 51.8258 43.7756 64.9861 43.5636Z" fill="url(#paint8_linear_1878_3736)"/>
</g>
</g>
<path d="M71.2229 99.6786L79.3164 96.5954C79.3164 97.3916 78.8211 98.1055 78.0702 98.3916L71.4159 100.926C71.2884 100.975 71.1528 101 71.0161 101H70.4136L71.2229 99.6786Z" fill="#64B0F6"/>
<path d="M12.3198 100.011H70.9529C70.9529 100.558 70.4529 101 69.8361 101H13.4366C12.8198 101 12.3198 100.558 12.3198 100.011Z" fill="#D7E9F9"/>
<path d="M12.3198 100.011H70.9529C70.9529 100.558 70.4529 101 69.8361 101H13.4366C12.8198 101 12.3198 100.558 12.3198 100.011Z" fill="url(#paint9_linear_1878_3736)"/>
<path fill-rule="evenodd" clip-rule="evenodd" d="M3.11183 86.6088C3.81987 87.1282 4.49439 87.8851 4.90091 88.4179C5.11653 88.7004 5.06886 89.1095 4.79443 89.3316C4.52 89.5536 4.12274 89.5045 3.90712 89.2219C3.54128 88.7425 2.95194 88.0894 2.37857 87.6688C2.08796 87.4557 1.84913 87.338 1.67839 87.3014C1.53585 87.2708 1.50393 87.3037 1.48131 87.3271C1.48106 87.3273 1.48081 87.3276 1.48057 87.3278C1.39991 87.4109 1.27023 87.7021 1.26408 88.2847C1.25837 88.8254 1.36231 89.483 1.57823 90.1254C2.0297 91.4685 2.84439 92.4319 3.82055 92.5093C4.16853 92.5368 4.42892 92.8497 4.40215 93.208C4.37538 93.5663 4.07159 93.8345 3.72362 93.8069C1.96142 93.6673 0.88032 92.0279 0.383903 90.5511C0.12588 89.7835 -0.00716079 88.9771 0.000297206 88.2705C0.00731341 87.6058 0.140938 86.8667 0.586886 86.4075C0.98549 85.9971 1.48984 85.9316 1.93597 86.0272C2.35547 86.1172 2.76173 86.352 3.11183 86.6088Z" fill="#D8D8D8"/>
<path d="M3.41748 84.2807H14.5686V93.2696C14.5686 95.7518 12.5716 97.764 10.1081 97.764H7.87791C5.41448 97.764 3.41748 95.7518 3.41748 93.2696V84.2807Z" fill="#D8D8D8"/>
<g style="mix-blend-mode:multiply">
<path d="M3.41748 84.2807H14.5686V93.2696C14.5686 95.7518 12.5716 97.764 10.1081 97.764H7.87791C5.41448 97.764 3.41748 95.7518 3.41748 93.2696V84.2807Z" fill="url(#paint10_linear_1878_3736)" fill-opacity="0.5"/>
</g>
<path d="M6.66879 81.1977C6.84305 82.9023 8.19364 84.3228 8.84714 84.82C7.97579 81.6239 11.8969 83.1154 12.5504 81.1977C13.2039 79.2801 12.3325 77.7885 10.8077 76.0839C9.5878 74.7203 8.12104 74.6634 7.54014 74.8055C7.97581 75.3027 8.84714 76.5953 8.84714 77.7885C8.84714 79.2801 6.45095 79.067 6.66879 81.1977Z" fill="url(#paint11_linear_1878_3736)"/>
<g filter="url(#filter1_d_1878_3736)">
<path d="M82.4596 71.7495L82.3909 71.8032C82.1295 72.007 81.9119 72.2614 81.7511 72.5512C81.4649 72.2418 81.1039 72.0111 80.7027 71.8813C80.3016 71.7516 79.8738 71.7271 79.4605 71.8103C79.0472 71.8935 78.6622 72.0815 78.3426 72.3563C78.0229 72.6311 77.7793 72.9835 77.6352 73.3795C77.0801 73.1586 76.4636 73.1473 75.9008 73.3477C75.338 73.5481 74.8675 73.9465 74.5771 74.4684L72.4926 71.8056C72.087 71.2874 71.4921 70.9516 70.8387 70.8719C70.1854 70.7922 69.5271 70.9752 69.0087 71.3806C68.4904 71.7861 68.1543 72.3807 68.0746 73.0338C67.9949 73.6869 68.178 74.3449 68.5836 74.863L74.2171 82.0595L74.031 81.9966L73.9463 81.9716C73.6251 81.8995 73.2926 81.8933 72.969 81.9534C72.6453 82.0134 72.3373 82.1385 72.0634 82.3211C71.7895 82.5036 71.5555 82.7398 71.3756 83.0153C71.1957 83.2909 71.0736 83.6001 71.0167 83.9241C70.9139 84.5235 71.0384 85.1398 71.3661 85.6522C71.6937 86.1647 72.2008 86.5365 72.7882 86.695L82.3676 90.0235L84.5407 92.7995C84.6665 92.9602 84.8511 93.0644 85.0538 93.0891C85.2565 93.1139 85.4607 93.0571 85.6215 92.9313L93.6417 86.6584C93.8025 86.5326 93.9068 86.3481 93.9315 86.1455C93.9563 85.9429 93.8995 85.7388 93.7736 85.578L91.6132 82.8182L91.4579 79.4478C91.4511 79.2878 91.3944 79.134 91.2959 79.0077L85.9376 72.1628C85.53 71.6487 84.9355 71.3167 84.2839 71.2393C83.6322 71.1618 82.9764 71.3453 82.4596 71.7495Z" fill="white"/>
</g>
<path d="M82.4596 71.7495L82.3909 71.8032C82.1295 72.007 81.9119 72.2614 81.7511 72.5512C81.4649 72.2418 81.1039 72.0111 80.7027 71.8813C80.3016 71.7516 79.8738 71.7271 79.4605 71.8103C79.0472 71.8935 78.6622 72.0815 78.3426 72.3563C78.0229 72.6311 77.7793 72.9835 77.6352 73.3795C77.0801 73.1586 76.4636 73.1473 75.9008 73.3477C75.338 73.5481 74.8675 73.9465 74.5771 74.4684L72.4926 71.8056C72.087 71.2874 71.4921 70.9516 70.8387 70.8719C70.1854 70.7922 69.5271 70.9752 69.0087 71.3806C68.4904 71.7861 68.1543 72.3807 68.0746 73.0338C67.9949 73.6869 68.178 74.3449 68.5836 74.863L74.2171 82.0595L74.031 81.9966L73.9463 81.9716C73.6251 81.8995 73.2926 81.8933 72.969 81.9534C72.6453 82.0134 72.3373 82.1385 72.0634 82.3211C71.7895 82.5036 71.5555 82.7398 71.3756 83.0153C71.1957 83.2909 71.0736 83.6001 71.0167 83.9241C70.9139 84.5235 71.0384 85.1398 71.3661 85.6522C71.6937 86.1647 72.2008 86.5365 72.7882 86.695L82.3676 90.0235L84.5407 92.7995C84.6665 92.9602 84.8511 93.0644 85.0538 93.0891C85.2565 93.1139 85.4607 93.0571 85.6215 92.9313L93.6417 86.6584C93.8025 86.5326 93.9068 86.3481 93.9315 86.1455C93.9563 85.9429 93.8995 85.7388 93.7736 85.578L91.6132 82.8182L91.4579 79.4478C91.4511 79.2878 91.3944 79.134 91.2959 79.0077L85.9376 72.1628C85.53 71.6487 84.9355 71.3167 84.2839 71.2393C83.6322 71.1618 82.9764 71.3453 82.4596 71.7495Z" fill="white"/>
<path d="M82.4596 71.7495L82.3909 71.8032C82.1295 72.007 81.9119 72.2614 81.7511 72.5512C81.4649 72.2418 81.1039 72.0111 80.7027 71.8813C80.3016 71.7516 79.8738 71.7271 79.4605 71.8103C79.0472 71.8935 78.6622 72.0815 78.3426 72.3563C78.0229 72.6311 77.7793 72.9835 77.6352 73.3795C77.0801 73.1586 76.4636 73.1473 75.9008 73.3477C75.338 73.5481 74.8675 73.9465 74.5771 74.4684L72.4926 71.8056C72.087 71.2874 71.4921 70.9516 70.8387 70.8719C70.1854 70.7922 69.5271 70.9752 69.0087 71.3806C68.4904 71.7861 68.1543 72.3807 68.0746 73.0338C67.9949 73.6869 68.178 74.3449 68.5836 74.863L74.2171 82.0595L74.031 81.9966L73.9463 81.9716C73.6251 81.8995 73.2926 81.8933 72.969 81.9534C72.6453 82.0134 72.3373 82.1385 72.0634 82.3211C71.7895 82.5036 71.5555 82.7398 71.3756 83.0153C71.1957 83.2909 71.0736 83.6001 71.0167 83.9241C70.9139 84.5235 71.0384 85.1398 71.3661 85.6522C71.6937 86.1647 72.2008 86.5365 72.7882 86.695L82.3676 90.0235L84.5407 92.7995C84.6665 92.9602 84.8511 93.0644 85.0538 93.0891C85.2565 93.1139 85.4607 93.0571 85.6215 92.9313L93.6417 86.6584C93.8025 86.5326 93.9068 86.3481 93.9315 86.1455C93.9563 85.9429 93.8995 85.7388 93.7736 85.578L91.6132 82.8182L91.4579 79.4478C91.4511 79.2878 91.3944 79.134 91.2959 79.0077L85.9376 72.1628C85.53 71.6487 84.9355 71.3167 84.2839 71.2393C83.6322 71.1618 82.9764 71.3453 82.4596 71.7495ZM89.9273 79.7655L90.0826 83.1359C90.0895 83.2959 90.1461 83.4497 90.2446 83.576L92.0887 85.9317L85.2852 91.2529L83.4412 88.8972C83.3499 88.7813 83.2273 88.694 83.0879 88.6458L73.2639 85.2545L73.1968 85.2354C72.9772 85.1798 72.7868 85.0435 72.6635 84.8536C72.5402 84.6637 72.4933 84.4343 72.532 84.2113C72.5527 84.0957 72.596 83.9853 72.6594 83.8865C72.7229 83.7876 72.8052 83.7023 72.9017 83.6353C72.9982 83.5683 73.1069 83.521 73.2217 83.496C73.3365 83.4711 73.4551 83.4691 73.5707 83.4901L76.1821 84.3532C76.339 84.4075 76.5092 84.4097 76.6675 84.3593C76.8257 84.309 76.9634 84.2089 77.06 84.074C77.1567 83.939 77.2071 83.7765 77.2038 83.6106C77.2005 83.4446 77.1436 83.2842 77.0416 83.1533L69.8044 73.9082C69.6504 73.7115 69.581 73.4618 69.6112 73.2139C69.6415 72.9661 69.769 72.7404 69.9657 72.5865C70.1625 72.4326 70.4123 72.3632 70.6603 72.3934C70.9082 72.4237 71.134 72.5511 71.288 72.7478L77.048 80.1059C77.1738 80.2666 77.3584 80.3708 77.5611 80.3956C77.7638 80.4203 77.968 80.3635 78.1288 80.2377C78.2897 80.112 78.3939 79.9275 78.4186 79.7249C78.4434 79.5223 78.3866 79.3181 78.2607 79.1574L75.9928 76.2602C75.8388 76.0635 75.7694 75.8138 75.7996 75.566C75.8299 75.3181 75.9574 75.0924 76.1541 74.9385C76.3509 74.7847 76.6007 74.7152 76.8487 74.7455C77.0966 74.7757 77.3224 74.9032 77.4764 75.0998L79.7443 77.997C79.8702 78.1578 80.0547 78.262 80.2574 78.2867C80.4601 78.3114 80.6643 78.2546 80.8252 78.1289C80.986 78.0031 81.0902 77.8186 81.115 77.616C81.1397 77.4134 81.0829 77.2092 80.9571 77.0485L79.211 74.818C79.0571 74.6214 78.9876 74.3717 79.0179 74.1238C79.0481 73.8759 79.1756 73.6503 79.3724 73.4964C79.5691 73.3425 79.8189 73.2731 80.0669 73.3033C80.3149 73.3335 80.5407 73.461 80.6946 73.6577L83.1587 76.8054C83.2845 76.9661 83.4691 77.0703 83.6718 77.095C83.8745 77.1198 84.0787 77.063 84.2395 76.9372C84.4003 76.8114 84.5046 76.6269 84.5293 76.4243C84.554 76.2217 84.4972 76.0176 84.3714 75.8568L83.8337 75.1699C83.8337 75.1699 83.8337 75.1699 83.8115 75.1416L83.1726 74.3254C83.0191 74.1293 82.9498 73.8803 82.9799 73.6331C83.0101 73.3859 83.1373 73.1608 83.3335 73.0074L83.4022 72.9536C83.5984 72.8002 83.8476 72.7309 84.0949 72.7611C84.3421 72.7912 84.5673 72.9184 84.7208 73.1145L89.9273 79.7655Z" fill="#1473E6"/>
<path d="M64.8387 43.5636C75.3371 43.3955 81.24 51.1379 83.0038 55.2717H79.6172C76.2306 51.6985 66.7437 50.9203 61.8755 52.1815C57.1604 53.4029 55.1023 53.2324 45.1542 63.5319C35.2061 73.8313 25.893 74.8823 20.1782 72.7804C18.4029 72.1274 14.4633 68.5765 12.77 66.6848C13.405 67.1752 15.7756 68.1561 20.1782 68.1561C25.6814 68.1561 37.9577 55.1242 41.7676 52.1815C45.5775 49.2388 51.7157 43.7738 64.8387 43.5636Z" fill="url(#paint12_linear_1878_3736)"/>
<path fill-rule="evenodd" clip-rule="evenodd" d="M74.3608 49.8564C77.7712 51.5624 80.3012 53.7388 81.3854 55.2006L81.2059 55.3338C80.148 53.9075 77.649 51.7513 74.2609 50.0563C70.8749 48.3625 66.6118 47.1349 62.0277 47.5518C53.9688 48.2848 48.9644 52.5523 42.8204 58.978C39.746 62.1932 36.2445 65.5569 32.3185 67.836C28.3903 70.1165 24.0303 71.3149 19.2451 70.1886L19.2963 69.9709C24.0104 71.0805 28.3116 69.9036 32.2063 67.6426C36.1033 65.3803 39.5866 62.0365 42.6588 58.8234C48.808 52.3924 53.8617 48.0701 62.0075 47.3292C66.6433 46.9075 70.9483 48.1492 74.3608 49.8564Z" fill="#F9F9F9"/>
<path fill-rule="evenodd" clip-rule="evenodd" d="M22.0591 21.0304C21.1368 20.2079 19.7172 20.283 18.8884 21.1983L15.8869 24.5128L15.8868 24.5128L6.83447 26.1755L22.6988 40.325L23.4015 31.2153L26.403 27.9007C27.2319 26.9854 27.1562 25.5766 26.2339 24.754L22.0591 21.0304Z" fill="#64B0F6"/>
<path fill-rule="evenodd" clip-rule="evenodd" d="M22.0591 21.0304C21.1368 20.2079 19.7172 20.283 18.8884 21.1983L15.8869 24.5128L15.8868 24.5128L6.83447 26.1755L22.6988 40.325L23.4015 31.2153L26.403 27.9007C27.2319 26.9854 27.1562 25.5766 26.2339 24.754L22.0591 21.0304Z" fill="url(#paint13_linear_1878_3736)"/>
<path d="M22.4932 40.579C21.5653 41.6111 17.2792 39.2731 12.9198 35.357C8.56047 31.441 5.77873 27.4297 6.70662 26.3977C7.63451 25.3657 11.9207 27.7037 16.28 31.6197C20.6394 35.5358 23.4211 39.547 22.4932 40.579Z" fill="#D7E9F9"/>
<mask id="mask2_1878_3736" style="mask-type:alpha" maskUnits="userSpaceOnUse" x="6" y="26" width="17" height="15">
<path d="M22.4906 40.5828C21.5629 41.615 17.2776 39.2765 12.9191 35.3595C8.5606 31.4425 5.77936 27.4303 6.70703 26.3981C7.63469 25.3658 11.92 27.7044 16.2785 31.6214C20.637 35.5384 23.4182 39.5506 22.4906 40.5828Z" fill="#D7E9F9"/>
</mask>
<g mask="url(#mask2_1878_3736)">
<path d="M19.6041 31.7855C19.6041 33.9699 17.8326 35.7406 15.6473 35.7406C13.462 35.7406 11.6904 33.9699 11.6904 31.7855C11.6904 29.6012 13.462 27.8304 15.6473 27.8304C17.8326 27.8304 19.6041 29.6012 19.6041 31.7855Z" fill="white"/>
</g>
<path d="M31.2947 20.1449C31.2947 21.0633 30.5297 21.8078 29.5861 21.8078C28.6424 21.8078 27.8774 21.0633 27.8774 20.1449C27.8774 19.2265 28.6424 18.4819 29.5861 18.4819C30.5297 18.4819 31.2947 19.2265 31.2947 20.1449Z" fill="#1473E6"/>
<path d="M43.5256 27.336C43.5256 28.2544 42.7807 28.999 41.8619 28.999C40.9431 28.999 40.1982 28.2544 40.1982 27.336C40.1982 26.4176 40.9431 25.6731 41.8619 25.6731C42.7807 25.6731 43.5256 26.4176 43.5256 27.336Z" fill="#1473E6"/>
<defs>
<filter id="filter0_d_1878_3736" x="8.76953" y="43.561" width="78.6836" height="38.0229" filterUnits="userSpaceOnUse" color-interpolation-filters="sRGB">
<feFlood flood-opacity="0" result="BackgroundImageFix"/>
<feColorMatrix in="SourceAlpha" type="matrix" values="0 0 0 0 0 0 0 0 0 0 0 0 0 0 0 0 0 0 127 0" result="hardAlpha"/>
<feOffset dy="4"/>
<feGaussianBlur stdDeviation="2"/>
<feComposite in2="hardAlpha" operator="out"/>
<feColorMatrix type="matrix" values="0 0 0 0 0 0 0 0 0 0 0 0 0 0 0 0 0 0 0.25 0"/>
<feBlend mode="normal" in2="BackgroundImageFix" result="effect1_dropShadow_1878_3736"/>
<feBlend mode="normal" in="SourceGraphic" in2="effect1_dropShadow_1878_3736" result="shape"/>
</filter>
<filter id="filter1_d_1878_3736" x="64.0562" y="70.8536" width="33.8809" height="30.2412" filterUnits="userSpaceOnUse" color-interpolation-filters="sRGB">
<feFlood flood-opacity="0" result="BackgroundImageFix"/>
<feColorMatrix in="SourceAlpha" type="matrix" values="0 0 0 0 0 0 0 0 0 0 0 0 0 0 0 0 0 0 127 0" result="hardAlpha"/>
<feOffset dy="4"/>
<feGaussianBlur stdDeviation="2"/>
<feComposite in2="hardAlpha" operator="out"/>
<feColorMatrix type="matrix" values="0 0 0 0 0 0 0 0 0 0 0 0 0 0 0 0 0 0 0.25 0"/>
<feBlend mode="normal" in2="BackgroundImageFix" result="effect1_dropShadow_1878_3736"/>
<feBlend mode="normal" in="SourceGraphic" in2="effect1_dropShadow_1878_3736" result="shape"/>
</filter>
<linearGradient id="paint0_linear_1878_3736" x1="54.4743" y1="28.9989" x2="65.4265" y2="47.4256" gradientUnits="userSpaceOnUse">
<stop stop-color="#13E28E"/>
<stop offset="1" stop-color="#1473E6"/>
</linearGradient>
<linearGradient id="paint1_linear_1878_3736" x1="67.0262" y1="7.53712" x2="55.7283" y2="35.3102" gradientUnits="userSpaceOnUse">
<stop stop-color="#13E28E"/>
<stop offset="1" stop-color="#1473E6"/>
</linearGradient>
<linearGradient id="paint2_linear_1878_3736" x1="85.4316" y1="44.1502" x2="101.683" y2="49.0934" gradientUnits="userSpaceOnUse">
<stop stop-color="#13E28E"/>
<stop offset="1" stop-color="#1473E6"/>
</linearGradient>
<linearGradient id="paint3_linear_1878_3736" x1="95.3823" y1="58.123" x2="64.6982" y2="83.454" gradientUnits="userSpaceOnUse">
<stop stop-color="#13E28E"/>
<stop offset="1" stop-color="#1473E6"/>
</linearGradient>
<linearGradient id="paint4_linear_1878_3736" x1="74.9294" y1="74.8423" x2="95.4723" y2="82.4452" gradientUnits="userSpaceOnUse">
<stop stop-color="#13E28E" stop-opacity="0"/>
<stop offset="0.823723" stop-color="#1473E6"/>
</linearGradient>
<linearGradient id="paint5_linear_1878_3736" x1="50.1795" y1="62.6174" x2="50.1795" y2="96.955" gradientUnits="userSpaceOnUse">
<stop offset="0.606248" stop-color="#1473E6" stop-opacity="0"/>
<stop offset="1" stop-color="#1473E6"/>
</linearGradient>
<linearGradient id="paint6_linear_1878_3736" x1="50.1795" y1="65.5838" x2="50.1795" y2="93.8988" gradientUnits="userSpaceOnUse">
<stop stop-color="#1473E6"/>
<stop offset="1" stop-color="#0A58B7"/>
</linearGradient>
<linearGradient id="paint7_linear_1878_3736" x1="50.1795" y1="62.6174" x2="50.1795" y2="96.955" gradientUnits="userSpaceOnUse">
<stop offset="0.606248" stop-color="#1473E6" stop-opacity="0"/>
<stop offset="1" stop-color="#1473E6"/>
</linearGradient>
<linearGradient id="paint8_linear_1878_3736" x1="71.5522" y1="45.7055" x2="56.1663" y2="88.2386" gradientUnits="userSpaceOnUse">
<stop stop-color="#13E28E"/>
<stop offset="1" stop-color="#1473E6"/>
</linearGradient>
<linearGradient id="paint9_linear_1878_3736" x1="41.6364" y1="100.011" x2="41.6364" y2="101" gradientUnits="userSpaceOnUse">
<stop stop-color="#D7E9F9" stop-opacity="0"/>
<stop offset="0.708333" stop-color="#64B0F6"/>
</linearGradient>
<linearGradient id="paint10_linear_1878_3736" x1="14.5686" y1="91.0223" x2="3.41748" y2="91.0223" gradientUnits="userSpaceOnUse">
<stop stop-color="#D8D8D8"/>
<stop offset="1" stop-color="#D8D8D8" stop-opacity="0"/>
</linearGradient>
<linearGradient id="paint11_linear_1878_3736" x1="9.71234" y1="74.7524" x2="9.71234" y2="84.82" gradientUnits="userSpaceOnUse">
<stop stop-color="#ABCAE6"/>
<stop offset="1" stop-color="#64B0F6" stop-opacity="0"/>
</linearGradient>
<linearGradient id="paint12_linear_1878_3736" x1="48.0116" y1="47.1859" x2="56.8071" y2="63.782" gradientUnits="userSpaceOnUse">
<stop stop-color="#13E28E"/>
<stop offset="1" stop-color="#1473E6"/>
</linearGradient>
<linearGradient id="paint13_linear_1878_3736" x1="16.9064" y1="20.4595" x2="16.9064" y2="40.325" gradientUnits="userSpaceOnUse">
<stop stop-color="#1473E6"/>
<stop offset="1" stop-color="#1473E6" stop-opacity="0"/>
</linearGradient>
</defs>
</svg>
