<svg width="120" height="121" viewBox="0 0 120 121" fill="none" xmlns="http://www.w3.org/2000/svg">
<g filter="url(#filter0_d_1878_3637)">
<path d="M21.3275 63.3697L29.5143 107.963C29.6247 108.564 30.1482 109 30.7589 109H87.1982C87.9882 109 88.585 108.284 88.443 107.506L80.4754 63.8993C80.3655 63.2979 79.8418 62.861 79.2307 62.861H53.6199C53.2354 62.861 52.8719 62.6862 52.6318 62.3859L51.408 60.8556C51.1679 60.5552 50.8043 60.3804 50.4199 60.3804H23.8167C22.2359 60.3804 21.042 61.8142 21.3275 63.3697Z" fill="#BCBCBC"/>
<path d="M21.3275 63.3697L29.5143 107.963C29.6247 108.564 30.1482 109 30.7589 109H87.1982C87.9882 109 88.585 108.284 88.443 107.506L80.4754 63.8993C80.3655 63.2979 79.8418 62.861 79.2307 62.861H53.6199C53.2354 62.861 52.8719 62.6862 52.6318 62.3859L51.408 60.8556C51.1679 60.5552 50.8043 60.3804 50.4199 60.3804H23.8167C22.2359 60.3804 21.042 61.8142 21.3275 63.3697Z" fill="url(#paint0_linear_1878_3637)"/>
<path d="M59.2262 46.8312L63.0415 30.5577C63.0415 29.8383 63.5444 28.8265 64.1747 28.5408C64.4889 28.3936 64.8441 28.3592 65.1806 28.4433L74.2697 30.7628C74.5483 30.8272 74.8019 30.9725 74.9986 31.1805C75.1954 31.3886 75.3267 31.6502 75.376 31.9326L75.8689 34.3933L87.7575 37.4187C89.3735 37.6877 90.044 39.1869 89.635 40.3097L86.0107 54.0384C85.4341 55.6217 83.7041 56.4857 82.3228 56.1327L61.3082 50.7743C59.8699 50.4113 58.9714 48.8246 59.2262 46.8312Z" fill="#1473E6"/>
<path d="M58.9701 46.5082L62.3228 32.8974C62.7184 31.8556 63.627 31.2405 64.4618 31.4556L88.6327 37.5563C89.6385 37.8151 90.1313 39.1593 89.682 40.4331L86.3109 53.0213C85.5163 56.1568 83.6288 56.6676 82.1905 56.3047L61.3136 50.978C59.1679 50.4302 58.1756 49.1968 58.9701 46.5082Z" fill="#64B0F6"/>
<path d="M74.8033 47.945C74.4177 47.9446 74.0345 47.8859 73.6665 47.7709C72.9327 47.5451 72.2822 47.1065 71.7972 46.5105C71.3123 45.9145 71.0146 45.1878 70.9418 44.4224C70.869 43.6569 71.0244 42.887 71.3884 42.21C71.7523 41.533 72.3085 40.9793 72.9865 40.6189C73.6645 40.2585 74.434 40.1075 75.1977 40.1851C75.9614 40.2626 76.685 40.5653 77.277 41.0547C77.869 41.5441 78.3028 42.1984 78.5237 42.9348C78.7446 43.6712 78.7425 44.4567 78.5179 45.1919C78.2735 45.9881 77.7811 46.685 77.1126 47.1805C76.4441 47.6759 75.6348 47.9439 74.8033 47.945ZM74.8033 40.4963C74.1458 40.496 73.5012 40.6786 72.9412 41.0237C72.3812 41.3688 71.9279 41.8628 71.6317 42.4508C71.3355 43.0388 71.2081 43.6976 71.2637 44.3539C71.3193 45.0101 71.5557 45.638 71.9465 46.1676C72.3373 46.6972 72.8673 47.1077 73.4773 47.3534C74.0873 47.599 74.7534 47.6702 75.4014 47.559C76.0495 47.4478 76.6539 47.1585 77.1475 46.7234C77.6411 46.2883 78.0044 45.7245 78.1969 45.0948C78.3581 44.5638 78.393 44.0023 78.2989 43.4553C78.2047 42.9083 77.984 42.391 77.6545 41.9448C77.3251 41.4985 76.8959 41.1357 76.4014 40.8853C75.9068 40.635 75.3607 40.504 74.8066 40.503L74.8033 40.4963Z" fill="#F9F9F9"/>
<path d="M73.9452 43.7617L74.4422 42.2074L75.595 43.3975L76.7478 44.5909L75.098 44.9551L73.4482 45.3193L73.9452 43.7617Z" fill="#F9F9F9"/>
<path d="M84.5608 15.8063L85.4728 18.0452C85.3384 18.0522 85.2024 18.0767 85.0697 18.1308C84.4463 18.3851 84.1406 19.0753 84.3853 19.6761C84.6301 20.2768 85.3308 20.5565 85.9542 20.3022C86.5326 20.0663 86.8338 19.451 86.6753 18.8827L86.6878 18.8776L85.6067 16.2237L86.6082 15.8152L86.3134 15.0914L84.5608 15.8063Z" fill="#1473E6"/>
<path d="M92.3579 21.7389L90.7399 25.9696C90.5474 25.8066 90.3302 25.6654 90.0796 25.5689C88.9025 25.1155 87.6018 25.6659 87.1677 26.801C86.7336 27.9362 87.3333 29.2186 88.5104 29.672C89.6025 30.0926 90.8011 29.6389 91.3116 28.6586L91.3352 28.6677L93.2531 23.6528L95.1441 24.3812L95.6671 23.0135L92.3579 21.7389Z" fill="#64B0F6"/>
<path d="M100.5 99.3298L87.0993 94.4598C86.6523 94.297 86.2879 93.963 86.0862 93.5312C85.8846 93.0995 85.8622 92.6053 86.024 92.1576L92.781 73.4709C92.943 73.0228 93.276 72.6577 93.7068 72.4559C94.1376 72.2542 94.6309 72.2322 95.0784 72.3948L103.626 75.5165L107.697 84.7143L102.802 98.259C102.721 98.481 102.598 98.6847 102.438 98.8587C102.279 99.0326 102.087 99.1733 101.873 99.2728C101.659 99.3722 101.428 99.4284 101.192 99.4382C100.957 99.448 100.721 99.4111 100.5 99.3298Z" fill="#64B0F6"/>
<path d="M98.6755 87.6314C98.2817 87.6415 97.8887 87.5921 97.5097 87.4848C96.7541 87.2745 96.0777 86.8448 95.5662 86.2499C95.0546 85.6551 94.7308 84.9217 94.6356 84.1427C94.5405 83.3637 94.6783 82.5738 95.0316 81.8731C95.3849 81.1724 95.9379 80.5922 96.6206 80.2059C97.3033 79.8196 98.0852 79.6445 98.8673 79.7028C99.6494 79.761 100.397 80.05 101.015 80.5333C101.633 81.0165 102.094 81.6722 102.339 82.4175C102.585 83.1629 102.604 83.9644 102.395 84.7208C102.167 85.5399 101.683 86.2644 101.013 86.7882C100.344 87.312 99.5248 87.6075 98.6755 87.6314ZM98.4729 80.0311C97.8013 80.0488 97.1479 80.2527 96.5853 80.6201C96.0228 80.9876 95.5732 81.5041 95.2866 82.1122C95.0001 82.7202 94.8879 83.3959 94.9625 84.064C95.0372 84.7321 95.2957 85.3663 95.7093 85.896C96.1229 86.4257 96.6753 86.83 97.3051 87.064C97.9348 87.298 98.6171 87.3524 99.276 87.2212C99.9348 87.09 100.544 86.7783 101.037 86.3209C101.529 85.8635 101.885 85.2782 102.064 84.6304C102.214 84.0842 102.235 83.5103 102.124 82.9548C102.013 82.3993 101.773 81.8775 101.425 81.4311C101.076 80.9848 100.628 80.6263 100.116 80.3844C99.6039 80.1425 99.0425 80.0238 98.4765 80.0378L98.4729 80.0311Z" fill="#F9F9F9"/>
<path d="M97.6691 83.4075L98.1276 81.7605L99.3254 82.9801L100.523 84.2032L98.8671 84.6305L97.2107 85.0579L97.6691 83.4075Z" fill="#F9F9F9"/>
<path d="M87.8315 87.1512L104.592 93.2602L102.682 98.5405C102.547 98.9152 102.268 99.2205 101.908 99.389C101.547 99.5576 101.135 99.5757 100.761 99.4393L86.8213 94.3584C86.4473 94.2221 86.1424 93.9425 85.9737 93.5812C85.805 93.2198 85.7864 92.8063 85.9219 92.4316L87.8315 87.1512Z" fill="#1473E6"/>
<path d="M93.8649 94.6388L94.8791 91.8365L94.1741 91.5803L92.6201 93.2921L92.604 93.2862L92.5063 90.9742L91.8013 90.718L90.7871 93.5203L91.329 93.7172L92.0135 91.8257L92.0296 91.8316L92.1347 94.01L92.5174 94.1491L93.9915 92.5445L94.0076 92.5504L93.3231 94.4419L93.8649 94.6388Z" fill="#F9F9F9"/>
<path d="M95.3625 92.0122L94.3483 94.8145L94.9566 95.0356L95.2764 94.152L95.8203 94.3496C96.4326 94.5721 96.9968 94.3421 97.2048 93.7672C97.4135 93.1905 97.1411 92.6585 96.5449 92.4419L95.3625 92.0122ZM95.8028 92.6974L96.2157 92.8475C96.5642 92.9741 96.701 93.226 96.5857 93.5444C96.4698 93.8649 96.2017 93.9696 95.8532 93.843L95.4423 93.6936L95.8028 92.6974Z" fill="#F9F9F9"/>
<path d="M98.2157 96.22L98.7938 96.4301L98.9801 95.9154L99.3628 96.0545L99.5321 95.5865L99.1494 95.4474L99.808 93.6277L98.9499 93.3159C98.0479 93.944 97.5546 94.3185 97.1328 94.6904L96.9557 95.1797L98.402 95.7053L98.2157 96.22ZM97.6548 94.9042C98.0376 94.5709 98.4455 94.2687 99.0781 93.8371L99.0902 93.8415L98.5778 95.2572L97.6492 94.9198L97.6548 94.9042Z" fill="#F9F9F9"/>
<g style="mix-blend-mode:multiply">
<path d="M100.5 99.3298L87.0993 94.4598C86.6523 94.297 86.2879 93.963 86.0862 93.5312C85.8846 93.0995 85.8622 92.6053 86.024 92.1576L92.781 73.4709C92.943 73.0228 93.276 72.6577 93.7068 72.4559C94.1376 72.2542 94.6309 72.2322 95.0784 72.3948L103.626 75.5165L107.697 84.7143L102.802 98.259C102.721 98.481 102.598 98.6847 102.438 98.8587C102.279 99.0326 102.087 99.1733 101.873 99.2728C101.659 99.3722 101.428 99.4284 101.192 99.4382C100.957 99.448 100.721 99.4111 100.5 99.3298Z" fill="url(#paint1_linear_1878_3637)" fill-opacity="0.5"/>
</g>
<path d="M32.007 92.1047L18.3799 96.2961C17.9251 96.4356 17.4335 96.3886 17.0132 96.1653C16.5929 95.9421 16.2783 95.561 16.1386 95.1057L10.3137 76.1066C10.174 75.651 10.2207 75.1586 10.4436 74.7377C10.6665 74.3168 11.0473 74.0017 11.5023 73.8618L20.2038 71.2005L28.9786 76.0916L33.2026 89.8613C33.2714 90.0873 33.2951 90.3245 33.2722 90.5596C33.2494 90.7946 33.1805 91.0229 33.0694 91.2312C32.9584 91.4395 32.8074 91.6239 32.6251 91.7738C32.4428 91.9237 32.2328 92.0361 32.007 92.1047Z" fill="#64B0F6"/>
<path d="M23.7006 83.8077C23.3922 84.0533 23.0486 84.2508 22.6814 84.3937C21.9517 84.6814 21.1534 84.746 20.3876 84.5794C19.6218 84.4127 18.9229 84.0223 18.379 83.4575C17.8352 82.8927 17.471 82.1788 17.3324 81.4061C17.1937 80.6334 17.287 79.8366 17.6003 79.1163C17.9136 78.3961 18.4329 77.7848 19.0925 77.3596C19.7522 76.9345 20.5226 76.7147 21.3063 76.728C22.0901 76.7413 22.852 76.987 23.4957 77.4342C24.1395 77.8814 24.6362 78.5099 24.9231 79.2403C25.233 80.0319 25.2815 80.9025 25.0615 81.7244C24.8415 82.5464 24.3645 83.2765 23.7006 83.8077ZM18.9747 77.8597C18.449 78.2788 18.0495 78.8357 17.8209 79.4684C17.5922 80.1011 17.5433 80.7848 17.6796 81.4432C17.8159 82.1016 18.1321 82.7089 18.5929 83.1975C19.0537 83.6861 19.641 84.0367 20.2894 84.2104C20.9378 84.384 21.6219 84.3738 22.2653 84.1809C22.9088 83.9881 23.4864 83.6201 23.9338 83.118C24.3813 82.6159 24.6809 81.9994 24.7994 81.3372C24.9179 80.675 24.8506 79.9931 24.6049 79.3674C24.3969 78.8406 24.0686 78.3699 23.6463 77.9932C23.2239 77.6165 22.7194 77.3442 22.1729 77.198C21.6264 77.0517 21.0531 77.0357 20.499 77.1512C19.9448 77.2667 19.4252 77.5104 18.9816 77.8629L18.9747 77.8597Z" fill="#F9F9F9"/>
<path d="M22.5418 80.1365L22.3721 79.5823C22.3454 79.4953 22.2288 79.4532 22.1129 79.4888L19.5852 80.2663C19.4693 80.3019 19.3963 80.4023 19.423 80.4894L19.9079 82.0726C19.9346 82.1597 20.0512 82.2017 20.1671 82.1661L22.6948 81.3886C22.8107 81.353 22.8837 81.2526 22.857 81.1655L22.6873 80.6114L23.7238 80.9855L23.1904 79.244L22.5418 80.1365Z" fill="#F9F9F9"/>
<path d="M14.5757 90.0171L31.6301 84.7893L33.2758 90.1581C33.3926 90.5391 33.3534 90.9508 33.1668 91.3027C32.9803 91.6546 32.6616 91.9179 32.281 92.0345L18.0969 96.3825C17.7162 96.4991 17.3048 96.4597 16.9531 96.2728C16.6014 96.0859 16.3382 95.7668 16.2214 95.3859L14.5757 90.0171Z" fill="#1473E6"/>
<path d="M22.9527 92.3963L23.6529 92.1809L21.685 89.668L20.9107 89.9062L20.6907 93.092L21.3669 92.884L21.3951 92.119L22.501 91.7789L22.9527 92.3963ZM21.4463 90.3378L21.4615 90.3331L22.2226 91.3762L21.4002 91.6291L21.4463 90.3378Z" fill="#F9F9F9"/>
<path d="M25.2866 91.6784L25.4717 88.5033L24.7541 88.724L24.719 91.181L24.7037 91.1857L23.2992 89.1715L22.5619 89.3983L24.4927 91.9226L25.2866 91.6784Z" fill="#F9F9F9"/>
<path d="M27.3261 91.0511L26.4533 88.2014L25.7945 88.404L26.6674 91.2537L27.3261 91.0511Z" fill="#F9F9F9"/>
<g style="mix-blend-mode:multiply">
<path d="M32.007 92.1047L18.3799 96.2961C17.9251 96.4356 17.4335 96.3886 17.0132 96.1653C16.5929 95.9421 16.2783 95.561 16.1386 95.1057L10.3137 76.1066C10.174 75.651 10.2207 75.1586 10.4436 74.7377C10.6665 74.3168 11.0473 74.0017 11.5023 73.8618L20.2038 71.2005L28.9786 76.0916L33.2026 89.8613C33.2714 90.0873 33.2951 90.3245 33.2722 90.5596C33.2494 90.7946 33.1805 91.0229 33.0694 91.2312C32.9584 91.4395 32.8074 91.6239 32.6251 91.7738C32.4428 91.9237 32.2328 92.0361 32.007 92.1047Z" fill="url(#paint2_linear_1878_3637)" fill-opacity="0.5"/>
</g>
<path d="M28.7495 67.9986C28.7495 67.2978 29.316 66.7297 30.0148 66.7297H87.9798C88.6786 66.7297 89.2451 67.2978 89.2451 67.9986V107.731C89.2451 108.432 88.6786 109 87.9798 109H30.0148C29.316 109 28.7495 108.432 28.7495 107.731V67.9986Z" fill="#D8D8D8"/>
<path fill-rule="evenodd" clip-rule="evenodd" d="M85.984 68.5482H32.0104C31.4516 68.5482 30.9986 69.0013 30.9986 69.5603V106.691C30.9986 107.25 31.4516 107.703 32.0104 107.703H85.984C86.5428 107.703 86.9958 107.25 86.9958 106.691V69.5603C86.9958 69.0013 86.5428 68.5482 85.984 68.5482ZM32.0104 68.2952C31.3119 68.2952 30.7456 68.8616 30.7456 69.5603V106.691C30.7456 107.39 31.3119 107.956 32.0104 107.956H85.984C86.6825 107.956 87.2487 107.39 87.2487 106.691V69.5603C87.2487 68.8616 86.6825 68.2952 85.984 68.2952H32.0104Z" fill="#BCBCBC"/>
<path d="M28.7495 67.9986C28.7495 67.2978 29.316 66.7297 30.0148 66.7297H87.9798C88.6786 66.7297 89.2451 67.2978 89.2451 67.9986V107.731C89.2451 108.432 88.6786 109 87.9798 109H30.0148C29.316 109 28.7495 108.432 28.7495 107.731V67.9986Z" fill="url(#paint3_linear_1878_3637)"/>
<path d="M56.952 82.1467L43.5514 77.2767C43.1044 77.1139 42.74 76.7799 42.5384 76.3481C42.3367 75.9164 42.3144 75.4222 42.4762 74.9745L49.2331 56.2878C49.3952 55.8397 49.7282 55.4746 50.159 55.2728C50.5897 55.0711 51.083 55.0491 51.5305 55.2117L60.0782 58.3334L64.1493 67.5312L59.2541 81.0759C59.1733 81.2979 59.0497 81.5016 58.8903 81.6756C58.7309 81.8495 58.5388 81.9902 58.3251 82.0897C58.1113 82.1891 57.88 82.2453 57.6444 82.2551C57.4088 82.2649 57.1735 82.228 56.952 82.1467Z" fill="#64B0F6"/>
<path d="M56.952 82.1467L43.5514 77.2767C43.1044 77.1139 42.74 76.7799 42.5384 76.3481C42.3367 75.9164 42.3144 75.4222 42.4762 74.9745L49.2331 56.2878C49.3952 55.8397 49.7282 55.4746 50.159 55.2728C50.5897 55.0711 51.083 55.0491 51.5305 55.2117L60.0782 58.3334L64.1493 67.5312L59.2541 81.0759C59.1733 81.2979 59.0497 81.5016 58.8903 81.6756C58.7309 81.8495 58.5388 81.9902 58.3251 82.0897C58.1113 82.1891 57.88 82.2453 57.6444 82.2551C57.4088 82.2649 57.1735 82.228 56.952 82.1467Z" fill="url(#paint4_linear_1878_3637)"/>
<path d="M55.1272 70.4483C54.7334 70.4584 54.3403 70.409 53.9613 70.3017C53.2057 70.0914 52.5294 69.6617 52.0178 69.0668C51.5063 68.4719 51.1824 67.7386 51.0873 66.9596C50.9921 66.1805 51.1299 65.3907 51.4832 64.69C51.8365 63.9893 52.3895 63.4091 53.0723 63.0228C53.755 62.6365 54.5368 62.4614 55.319 62.5196C56.1011 62.5779 56.8484 62.8669 57.4664 63.3501C58.0844 63.8333 58.5453 64.4891 58.7909 65.2344C59.0366 65.9798 59.0558 66.7813 58.8464 67.5376C58.6185 68.3567 58.1344 69.0813 57.4651 69.6051C56.7958 70.1289 55.9765 70.4244 55.1272 70.4483ZM54.9245 62.848C54.253 62.8657 53.5996 63.0696 53.037 63.437C52.4744 63.8045 52.0248 64.321 51.7383 64.929C51.4518 65.5371 51.3396 66.2128 51.4142 66.8809C51.4888 67.5489 51.7473 68.1832 52.1609 68.7128C52.5745 69.2425 53.127 69.6469 53.7567 69.8809C54.3865 70.1149 55.0688 70.1693 55.7276 70.0381C56.3865 69.9069 56.996 69.5952 57.4883 69.1378C57.9806 68.6803 58.3363 68.0951 58.5159 67.4473C58.6661 66.901 58.6865 66.3272 58.5754 65.7717C58.4644 65.2161 58.2249 64.6943 57.8762 64.248C57.5276 63.8017 57.0793 63.4432 56.5674 63.2013C56.0555 62.9593 55.4941 62.8406 54.9281 62.8547L54.9245 62.848Z" fill="#F9F9F9"/>
<path d="M54.1198 66.2244L54.5782 64.5775L55.7761 65.7971L56.9741 67.0201L55.3177 67.4475L53.6614 67.8748L54.1198 66.2244Z" fill="#F9F9F9"/>
<path d="M44.2832 69.9682L61.0434 76.0772L59.1337 81.3575C58.9982 81.7322 58.7197 82.0374 58.3594 82.206C57.999 82.3745 57.5865 82.3926 57.2124 82.2563L43.273 77.1754C42.8989 77.0391 42.594 76.7595 42.4254 76.3981C42.2567 76.0368 42.2381 75.6233 42.3736 75.2486L44.2832 69.9682Z" fill="#1473E6"/>
<path d="M50.3166 77.4558L51.3307 74.6535L50.6257 74.3973L49.0718 76.1091L49.0557 76.1032L48.9579 73.7912L48.2529 73.535L47.2388 76.3373L47.7806 76.5342L48.4651 74.6427L48.4813 74.6486L48.5863 76.827L48.969 76.9661L50.4432 75.3615L50.4593 75.3674L49.7747 77.2589L50.3166 77.4558Z" fill="#F9F9F9"/>
<path d="M51.8141 74.8292L50.8 77.6315L51.4083 77.8526L51.7281 76.969L52.2719 77.1666C52.8843 77.3891 53.4484 77.1591 53.6565 76.5842C53.8652 76.0075 53.5927 75.4755 52.9965 75.2589L51.8141 74.8292ZM52.2545 75.5144L52.6674 75.6645C53.0159 75.7911 53.1526 76.043 53.0374 76.3614C52.9214 76.6819 52.6533 76.7866 52.3049 76.66L51.8939 76.5106L52.2545 75.5144Z" fill="#F9F9F9"/>
<path d="M54.6674 79.037L55.2455 79.2471L55.4317 78.7324L55.8144 78.8715L55.9838 78.4035L55.6011 78.2644L56.2596 76.4447L55.4016 76.1329C54.4996 76.761 54.0063 77.1355 53.5845 77.5074L53.4074 77.9967L54.8536 78.5223L54.6674 79.037ZM54.1065 77.7212C54.4893 77.3879 54.8972 77.0857 55.5297 76.6541L55.5418 76.6585L55.0295 78.0742L54.1009 77.7368L54.1065 77.7212Z" fill="#F9F9F9"/>
<path d="M33.574 70.3625C33.6531 69.7281 34.1912 69.252 34.8291 69.252H92.754C93.5148 69.252 94.1035 69.9203 94.0091 70.677L89.3684 107.889C89.2893 108.524 88.7512 109 88.1133 109H30.1884C29.4276 109 28.8389 108.332 28.9333 107.575L33.574 70.3625Z" fill="#F0F0F0"/>
<path fill-rule="evenodd" clip-rule="evenodd" d="M93.3798 75.6882L32.916 75.6882L33.0347 74.7315L93.4984 74.7315L93.3798 75.6882Z" fill="#F9F9F9"/>
<path fill-rule="evenodd" clip-rule="evenodd" d="M31.4604 12.7925L57.3695 8.72972L60.3308 27.6933L34.4217 31.7561L31.4604 12.7925ZM31.804 13.0436L34.6723 31.4118L59.9872 27.4422L57.1189 9.07399L31.804 13.0436Z" fill="#F0F0F0"/>
<path d="M32.9785 13.9023L56.2622 10.2512L58.8126 26.5839L35.5289 30.2349L32.9785 13.9023Z" fill="#F0F0F0"/>
<path d="M42.0384 18.4574L36.1107 30.1435L58.2302 26.675L51.2252 20.0047L48.1881 23.469L42.0384 18.4574Z" fill="#D8D8D8"/>
<path d="M42.7295 41.7298L41.3666 37.5125C41.1525 36.8498 40.4362 36.4832 39.7748 36.6978L25.346 41.3802C24.6846 41.5948 24.3188 42.3127 24.5329 42.9754L28.4268 55.0246C28.6409 55.6873 29.3572 56.0539 30.0186 55.8393L44.4474 51.1569C45.1087 50.9423 45.4746 50.2245 45.2604 49.5618L43.8976 45.3445L50.2648 48.6034L45.9815 35.3493L42.7295 41.7298Z" fill="url(#paint5_linear_1878_3637)"/>
<path fill-rule="evenodd" clip-rule="evenodd" d="M42.1057 51.9047L37.4214 37.4494L38.3405 37.1503L43.0248 51.6056L42.1057 51.9047Z" fill="#D7E9F9"/>
<path d="M54.071 14.2204C54.071 15.2749 53.2789 16.1297 52.3019 16.1297C51.3248 16.1297 50.5327 15.2749 50.5327 14.2204C50.5327 13.166 51.3248 12.3112 52.3019 12.3112C53.2789 12.3112 54.071 13.166 54.071 14.2204Z" fill="#BCBCBC"/>
<path d="M91.4044 60.2093L89.6809 65.6211C89.4282 65.4307 89.1463 65.2695 88.8258 65.1667C87.32 64.6835 85.7311 65.4656 85.2687 66.9177C84.8062 68.3698 85.6485 69.932 87.1543 70.4152C88.5513 70.8634 90.0192 70.2097 90.5883 68.946L90.6185 68.9557L92.6614 62.5409L95.0804 63.3171L95.6376 61.5676L91.4044 60.2093Z" fill="url(#paint6_linear_1878_3637)"/>
<path d="M31.4528 8.94711C31.4763 8.82354 31.6317 8.78162 31.714 8.87662L33.0025 10.3642C33.0354 10.4022 33.085 10.4212 33.1348 10.4149L35.085 10.1686C35.2096 10.1528 35.2974 10.288 35.2327 10.3957L34.219 12.0834C34.1932 12.1265 34.1904 12.1797 34.2118 12.2252L35.0482 14.0078C35.1016 14.1216 35.0005 14.247 34.8783 14.2187L32.9633 13.7741C32.9144 13.7628 32.8631 13.7766 32.8265 13.8111L31.3932 15.1591C31.3016 15.2451 31.1514 15.1876 31.1405 15.0622L30.9706 13.0998C30.9663 13.0497 30.9373 13.0051 30.8933 12.9808L29.1711 12.0314C29.0611 11.9708 29.0693 11.8097 29.1849 11.7607L30.9948 10.9923C31.0411 10.9727 31.0745 10.9313 31.0839 10.8819L31.4528 8.94711Z" fill="#64B0F6"/>
<path d="M86.1313 91.5178C86.1691 91.4018 86.3336 91.4018 86.3714 91.5178L86.8893 93.1078C86.9062 93.1597 86.9547 93.1948 87.0093 93.1948H88.6853C88.8076 93.1948 88.8584 93.3509 88.7595 93.4226L87.4036 94.4053C87.3594 94.4374 87.3409 94.4942 87.3578 94.5461L87.8757 96.1361C87.9134 96.2521 87.7804 96.3485 87.6814 96.2769L86.3255 95.2942C86.2813 95.2621 86.2214 95.2621 86.1772 95.2942L84.8213 96.2769C84.7223 96.3485 84.5893 96.2521 84.627 96.1361L85.1449 94.5461C85.1618 94.4942 85.1433 94.4374 85.0991 94.4053L83.7432 93.4226C83.6443 93.3509 83.6951 93.1948 83.8174 93.1948H85.4934C85.548 93.1948 85.5965 93.1597 85.6134 93.1078L86.1313 91.5178Z" fill="#00C9A5"/>
<path d="M97.9784 40.9977C98.0508 40.8987 98.2074 40.9504 98.2069 41.0732L98.1967 43.3299C98.1964 43.3848 98.2315 43.4337 98.2835 43.4509L100.422 44.158C100.538 44.1964 100.538 44.3617 100.421 44.3991L98.2761 45.0867C98.2239 45.1034 98.1884 45.152 98.1882 45.2069L98.178 47.4635C98.1774 47.5864 98.0204 47.6367 97.9488 47.537L96.6334 45.7053C96.6014 45.6608 96.5443 45.6419 96.4921 45.6586L94.3472 46.3463C94.2305 46.3837 94.1342 46.2496 94.2067 46.1505L95.5386 44.3309C95.571 44.2866 95.5713 44.2264 95.5393 44.1818L94.2239 42.3501C94.1523 42.2505 94.2498 42.1172 94.3662 42.1557L96.5048 42.8628C96.5568 42.88 96.614 42.8616 96.6464 42.8174L97.9784 40.9977Z" fill="#D8D8D8"/>
<path d="M81.7383 25.867C81.7383 26.3954 81.272 26.8237 80.6968 26.8237C80.1216 26.8237 79.6553 26.3954 79.6553 25.867C79.6553 25.3386 80.1216 24.9103 80.6968 24.9103C81.272 24.9103 81.7383 25.3386 81.7383 25.867Z" fill="#C4C4C4"/>
<path d="M19.4252 56.5534L17.8021 60.265C17.637 60.1111 17.4489 59.9759 17.2291 59.8791C16.1965 59.4244 15.0114 59.8613 14.5759 60.8572C14.1404 61.853 14.6224 63.024 15.655 63.4786C16.6129 63.9004 17.7028 63.5456 18.2 62.6914L18.2207 62.7005L20.1446 58.3011L21.8034 59.0314L22.3281 57.8316L19.4252 56.5534Z" fill="#64B0F6"/>
</g>
<defs>
<filter id="filter0_d_1878_3637" x="2.23486" y="0.729721" width="117.462" height="120.27" filterUnits="userSpaceOnUse" color-interpolation-filters="sRGB">
<feFlood flood-opacity="0" result="BackgroundImageFix"/>
<feColorMatrix in="SourceAlpha" type="matrix" values="0 0 0 0 0 0 0 0 0 0 0 0 0 0 0 0 0 0 127 0" result="hardAlpha"/>
<feOffset dx="2" dy="2"/>
<feGaussianBlur stdDeviation="5"/>
<feComposite in2="hardAlpha" operator="out"/>
<feColorMatrix type="matrix" values="0 0 0 0 0 0 0 0 0 0 0 0 0 0 0 0 0 0 0.1 0"/>
<feBlend mode="normal" in2="BackgroundImageFix" result="effect1_dropShadow_1878_3637"/>
<feBlend mode="normal" in="SourceGraphic" in2="effect1_dropShadow_1878_3637" result="shape"/>
</filter>
<linearGradient id="paint0_linear_1878_3637" x1="63.1708" y1="96.2723" x2="45.4403" y2="27.5978" gradientUnits="userSpaceOnUse">
<stop offset="0.125993" stop-color="#2663BE"/>
<stop offset="1" stop-color="#BCBCBC" stop-opacity="0"/>
</linearGradient>
<linearGradient id="paint1_linear_1878_3637" x1="89.2541" y1="84.4844" x2="104.119" y2="84.8" gradientUnits="userSpaceOnUse">
<stop stop-color="#0B4376"/>
<stop offset="1" stop-color="#64B0F6" stop-opacity="0"/>
</linearGradient>
<linearGradient id="paint2_linear_1878_3637" x1="30.7739" y1="85.3249" x2="11.7973" y2="85.6405" gradientUnits="userSpaceOnUse">
<stop stop-color="#083762"/>
<stop offset="1" stop-color="#64B0F6" stop-opacity="0"/>
</linearGradient>
<linearGradient id="paint3_linear_1878_3637" x1="70.1644" y1="70.8626" x2="62.8484" y2="107.655" gradientUnits="userSpaceOnUse">
<stop stop-color="#D8D8D8" stop-opacity="0"/>
<stop offset="1" stop-color="#C0C0C0"/>
</linearGradient>
<linearGradient id="paint4_linear_1878_3637" x1="55.4082" y1="63.3781" x2="55.4082" y2="55.1377" gradientUnits="userSpaceOnUse">
<stop stop-color="#00539F"/>
<stop offset="1" stop-color="#64B0F6" stop-opacity="0"/>
</linearGradient>
<linearGradient id="paint5_linear_1878_3637" x1="42.4766" y1="36.9622" x2="38.1954" y2="57.697" gradientUnits="userSpaceOnUse">
<stop stop-color="#13E28E"/>
<stop offset="1" stop-color="#1473E6"/>
</linearGradient>
<linearGradient id="paint6_linear_1878_3637" x1="94.0751" y1="61.8927" x2="83.4046" y2="66.5609" gradientUnits="userSpaceOnUse">
<stop stop-color="#13E28E"/>
<stop offset="1" stop-color="#1473E6"/>
</linearGradient>
</defs>
</svg>
