<svg width="120" height="87" viewBox="0 0 120 87" fill="none" xmlns="http://www.w3.org/2000/svg">
<g filter="url(#filter0_d_1878_3702)">
<path d="M59.4837 48.5644C59.4837 62.7403 47.9587 74.2321 33.7418 74.2321C19.525 74.2321 8 62.7403 8 48.5644C8 34.3886 19.525 22.8968 33.7418 22.8968C47.9587 22.8968 59.4837 34.3886 59.4837 48.5644Z" fill="#D8D8D8" fill-opacity="0.25"/>
<path fill-rule="evenodd" clip-rule="evenodd" d="M33.7418 71.8987C46.6662 71.8987 57.1435 61.4516 57.1435 48.5644C57.1435 35.6773 46.6662 25.2302 33.7418 25.2302C20.8175 25.2302 10.3402 35.6773 10.3402 48.5644C10.3402 61.4516 20.8175 71.8987 33.7418 71.8987ZM33.7418 74.2321C47.9587 74.2321 59.4837 62.7403 59.4837 48.5644C59.4837 34.3886 47.9587 22.8968 33.7418 22.8968C19.525 22.8968 8 34.3886 8 48.5644C8 62.7403 19.525 74.2321 33.7418 74.2321Z" fill="url(#paint0_linear_1878_3702)"/>
<path d="M29.4841 51.3304H18.9795V54.319H29.4841V58.8018L35.4632 52.8247L29.4841 46.8476V51.3304ZM38.4452 49.8362V45.3533H48.9498V42.3648H38.4452V37.8819L32.4661 43.859L38.4452 49.8362Z" fill="url(#paint1_linear_1878_3702)"/>
<path fill-rule="evenodd" clip-rule="evenodd" d="M84.3254 20.1256C85.1025 20.3339 85.8718 20.5714 86.6166 20.8417L87.9463 15.879L91.0324 15.2202C91.1748 15.179 91.3035 15.1002 91.4048 14.9919C91.5062 14.8837 91.5764 14.7502 91.6082 14.6054L92.4355 11.5181C92.5034 11.3395 92.4989 11.1414 92.4229 10.9661C92.347 10.7907 92.2056 10.6519 92.0288 10.5793L82.4272 8.00657C82.2378 7.98108 82.046 8.03054 81.8925 8.14442C81.739 8.2583 81.6361 8.42759 81.6055 8.61625L80.7783 11.7035C80.7334 11.8449 80.7275 11.9957 80.7612 12.1401C80.7949 12.2845 80.8669 12.4171 80.9697 12.5239L83.3128 14.6375L81.983 19.6002C82.7631 19.7385 83.5482 19.9174 84.3254 20.1256ZM83.4321 23.4602C78.4917 22.1365 73.2697 22.3075 68.4264 23.9517C63.5832 25.5958 59.3362 28.6392 56.2227 32.697C53.1091 36.7548 51.2687 41.6448 50.9343 46.7485C50.5998 51.8523 51.7863 56.9406 54.3437 61.37C56.9011 65.7995 60.7146 69.3711 65.3019 71.6332C69.8891 73.8953 75.0442 74.7463 80.1151 74.0786C85.1861 73.411 89.9451 71.2546 93.7905 67.8822C97.6359 64.5098 100.395 60.0728 101.719 55.1324C103.486 48.5077 102.553 41.4526 99.1246 35.515C95.6964 29.5773 90.0528 25.242 83.4321 23.4602ZM71.0004 69.8561C66.7646 68.7211 62.9605 66.3555 60.0692 63.0585C57.1779 59.7614 55.3292 55.6811 54.7568 51.3334C54.1845 46.9857 54.9142 42.5659 56.8537 38.633C58.7933 34.7 61.8555 31.4305 65.6532 29.2379C69.4509 27.0453 73.8135 26.028 78.1893 26.3148C82.5652 26.6016 86.7577 28.1795 90.2367 30.8491C93.7158 33.5186 96.3251 37.1598 97.7347 41.3123C99.1443 45.4647 99.291 49.942 98.1561 54.1778C96.6283 59.8543 92.9112 64.693 87.8202 67.6322C82.7293 70.5715 76.6803 71.3713 71.0004 69.8561ZM96.89 42.1888L93.2975 43.1503L93.7228 44.739L97.3152 43.7775L96.89 42.1888ZM88.4351 35.5807L91.0649 32.9513L92.2277 34.1144L89.5979 36.7438L88.4351 35.5807ZM82.989 28.2892L81.4002 27.8634L80.4371 31.4579L82.0259 31.8836L82.989 28.2892ZM56.5887 42.1889L60.1832 43.152L59.7575 44.7408L56.163 43.7777L56.5887 42.1889ZM59.7541 52.1394L56.1628 53.1021L56.5887 54.6906L60.1799 53.728L59.7541 52.1394ZM61.25 34.1139L62.4127 32.9507L65.0425 35.5794L63.8798 36.7426L61.25 34.1139ZM63.8792 60.1355L61.25 62.7645L62.4129 63.9275L65.0421 61.2985L63.8792 60.1355ZM70.4885 28.2887L72.0777 27.8636L73.0386 31.4558L71.4494 31.8809L70.4885 28.2887ZM73.0389 65.4209L71.4501 64.9952L70.4871 68.5892L72.0759 69.0149L73.0389 65.4209ZM80.4395 65.4235L82.0282 64.9982L82.9898 68.5901L81.4011 69.0154L80.4395 65.4235ZM89.5964 60.1361L88.4337 61.2998L91.0643 63.9281L92.227 62.7644L89.5964 60.1361ZM93.7207 52.1383L97.3152 53.1014L96.8895 54.6902L93.295 53.7271L93.7207 52.1383ZM93.9308 48.0914C93.9415 48.1264 93.9451 48.1632 93.9415 48.1996C93.9353 48.2622 93.9081 48.3208 93.8643 48.366C93.8206 48.4112 93.7628 48.4403 93.7004 48.4484L79.5772 50.2872C79.181 50.8987 78.5989 51.3667 77.9165 51.6222C77.2342 51.8777 76.4878 51.9071 75.7875 51.7061C75.0872 51.5051 74.47 51.0843 74.027 50.5058C73.584 49.9274 73.3387 49.2218 73.3272 48.4933C73.3157 47.7648 73.5386 47.0519 73.9631 46.4598C74.3876 45.8676 74.9912 45.4276 75.6849 45.2046C76.3785 44.9816 77.1254 44.9874 77.8155 45.2212C78.5056 45.455 79.1022 45.9044 79.5174 46.5031L93.6916 47.8952C93.728 47.8988 93.7633 47.9095 93.7956 47.9267C93.8278 47.944 93.8564 47.9674 93.8796 47.9956C93.9028 48.0239 93.9202 48.0564 93.9308 48.0914ZM56.8895 20.624L61.4509 17.879C61.7498 17.6992 62.1078 17.6454 62.4463 17.7296C62.7848 17.8137 63.076 18.0289 63.2559 18.3278L64.3658 20.1723C64.5457 20.4711 64.5994 20.8291 64.5153 21.1676C64.4311 21.5061 64.2159 21.7972 63.9171 21.9771L59.3556 24.7221C59.0567 24.9019 58.6987 24.9556 58.3602 24.8715C58.0218 24.7873 57.7306 24.5722 57.5508 24.2734L56.4408 22.4287C56.2609 22.1299 56.2072 21.7719 56.2913 21.4334C56.3755 21.095 56.5906 20.8038 56.8895 20.624ZM103.471 29.1031L101.587 30.1455C101.282 30.3143 101.057 30.5975 100.96 30.9327C100.864 31.2679 100.905 31.6277 101.074 31.9328L103.651 36.591C103.82 36.8961 104.103 37.1217 104.438 37.2181C104.774 37.3145 105.133 37.2737 105.438 37.1049L107.322 36.0625C107.627 35.8936 107.853 35.6105 107.949 35.2753C108.046 34.9401 108.005 34.5803 107.836 34.2752L105.258 29.617C105.09 29.3118 104.806 29.0863 104.471 28.9899C104.136 28.8935 103.776 28.9342 103.471 29.1031Z" fill="url(#paint2_linear_1878_3702)"/>
<mask id="mask0_1878_3702" style="mask-type:alpha" maskUnits="userSpaceOnUse" x="48" y="29" width="17" height="20">
<path d="M55.181 48.0451L48.5786 38.6238L55.181 29.5733L64.6765 46.4873L55.181 48.0451Z" fill="#C4C4C4"/>
</mask>
<g mask="url(#mask0_1878_3702)">
<path fill-rule="evenodd" clip-rule="evenodd" d="M33.7418 71.8987C46.6662 71.8987 57.1435 61.4516 57.1435 48.5644C57.1435 35.6773 46.6662 25.2302 33.7418 25.2302C20.8175 25.2302 10.3402 35.6773 10.3402 48.5644C10.3402 61.4516 20.8175 71.8987 33.7418 71.8987ZM33.7418 74.2321C47.9587 74.2321 59.4837 62.7403 59.4837 48.5644C59.4837 34.3886 47.9587 22.8968 33.7418 22.8968C19.525 22.8968 8 34.3886 8 48.5644C8 62.7403 19.525 74.2321 33.7418 74.2321Z" fill="url(#paint3_linear_1878_3702)"/>
</g>
</g>
<defs>
<filter id="filter0_d_1878_3702" x="0" y="1.52588e-05" width="120" height="86.2999" filterUnits="userSpaceOnUse" color-interpolation-filters="sRGB">
<feFlood flood-opacity="0" result="BackgroundImageFix"/>
<feColorMatrix in="SourceAlpha" type="matrix" values="0 0 0 0 0 0 0 0 0 0 0 0 0 0 0 0 0 0 127 0" result="hardAlpha"/>
<feOffset dx="2" dy="2"/>
<feGaussianBlur stdDeviation="5"/>
<feComposite in2="hardAlpha" operator="out"/>
<feColorMatrix type="matrix" values="0 0 0 0 0 0 0 0 0 0 0 0 0 0 0 0 0 0 0.1 0"/>
<feBlend mode="normal" in2="BackgroundImageFix" result="effect1_dropShadow_1878_3702"/>
<feBlend mode="normal" in="SourceGraphic" in2="effect1_dropShadow_1878_3702" result="shape"/>
</filter>
<linearGradient id="paint0_linear_1878_3702" x1="50.8155" y1="26.5636" x2="10.2375" y2="74.3477" gradientUnits="userSpaceOnUse">
<stop stop-color="#13E28E"/>
<stop offset="1" stop-color="#1473E6"/>
</linearGradient>
<linearGradient id="paint1_linear_1878_3702" x1="43.9038" y1="39.3762" x2="29.1825" y2="64.14" gradientUnits="userSpaceOnUse">
<stop stop-color="#13E28E"/>
<stop offset="1" stop-color="#1473E6"/>
</linearGradient>
<linearGradient id="paint2_linear_1878_3702" x1="104.736" y1="15.2558" x2="61.3388" y2="78.609" gradientUnits="userSpaceOnUse">
<stop stop-color="#2794FF"/>
<stop offset="1" stop-color="#E7F0F9"/>
</linearGradient>
<linearGradient id="paint3_linear_1878_3702" x1="50.8155" y1="26.5636" x2="10.2375" y2="74.3477" gradientUnits="userSpaceOnUse">
<stop stop-color="#13E28E"/>
<stop offset="1" stop-color="#1473E6"/>
</linearGradient>
</defs>
</svg>
