<?xml version="1.0" encoding="utf-8"?>
<!-- Generator: Adobe Illustrator 27.6.0, SVG Export Plug-In . SVG Version: 6.00 Build 0)  -->
<svg version="1.1" id="Layer_1" xmlns="http://www.w3.org/2000/svg" xmlns:xlink="http://www.w3.org/1999/xlink" x="0px" y="0px"
	 viewBox="0 0 130.2 169.5" style="enable-background:new 0 0 130.2 169.5;" xml:space="preserve">
<style type="text/css">
	.st0{fill:#16013E;}
</style>
<path class="st0" d="M100.1,127.8c-3.9,6.3-7.9,12.7-11.8,19c-0.2,0.4-0.5,0.8-0.7,1.2c-0.3,0.7-1.3,1.3-0.8,2
	c0.2,0.4,1.3,0.2,2,0.2c7.1-0.1,14.1-0.1,21.2-0.2c0.1,0,0.1,0,0.2,0c4,0.1,4.1,0.1,4.2,4c0,1.2,0.6,1.4,1.5,1.5c1,0.1,2,0,3.1,0
	c0.8,0,1.2-0.3,1.4-1.2c0.5-2.1,1.2-4.1,2.4-5.9c0.5-0.9,1.2-1.9,2.3-1.6c1.1,0.3,0.9,1.5,0.9,2.5c0,0.2,0.1,0.3,0.1,0.6
	c0.2-0.1,0.4-0.2,0.4-0.3c0.6-0.9,1.3-1.9,2.6-1.5c1.4,0.5,1.1,1.9,1,2.9c-0.2,3.6-0.9,7.1-2.5,10.5h2.7c-0.6,1-1.5,0.8-2.1,0.9
	c-4.7,0.5-9.4,1.4-14.2,1.8c-4.7,0.4-9.4,0.9-14.1,1.5c-2.8,0.4-5.2,0-7.3-1.9c-0.6-0.6-1.3-1.2-2.4-1.1c-0.1,0.8,0.6,1.1,0.9,1.7
	c0.2,0.3,0.8,0.6,0.3,1c-0.3,0.3-0.8,0.1-1.1-0.2c-1.8-1.1-3.7-1.7-5.6-2.2c-0.5-0.1-1.2-0.3-1.5,0.2c-0.3,0.5,0.2,1,0.6,1.4
	c0.5,0.6,1,1.2,1.6,1.9c-5.2,0.4-10.3,0.8-15.4,1.1c-5.1,0.3-10.3,0.6-15.3,0.4c-0.5,0.7,1,1,0.2,1.6c-0.7,0.5-1.2-0.3-1.6-0.7
	c-1.5-1.3-2.9-2.2-4.6-0.4c-0.1,0.1-0.4,0.2-0.7,0.2c-0.5-0.1-1,0.8-1.4,0.1c-0.3-0.4,0.2-0.9,0.4-1.3c0.3-0.6,0.5-1.2,1-2.1
	c-2,0.8-3.7,1.8-5,3.1c-0.8,0.7-1.3,0.6-2,0.2c-1.4-0.8-2.8-1.7-4.2-2.4c-0.5-0.3-1.1-0.7-1.9-0.7c0.7,1.8,2.2,2.6,3.4,3.5
	c-0.2,0.5-0.6,0.4-0.8,0.3c-1.6-1.3-3.7-1.2-5.4-1.8c-4-1.5-5.5-4.9-6.5-8.6c-0.2-0.9-0.3-1.9-0.4-2.8c-0.2-1.5-0.7-2.8-1.7-4.1
	c-2.2-2.8-2.8-6.3-3.3-9.7c-0.7-4.4-0.9-8.9-0.4-13.4c0.8-6.2,2.2-12.3,6-17.5c1.1-1.6,2.5-2.8,4.4-3.7c-0.1,1-0.8,1.3-1.3,1.8
	c-4.5,4.7-6.6,10.6-7.7,16.8c-1.3,7.3-0.8,14.5,1.3,21.7c1.2,4.1,4,5.8,7.9,6.4c5.5,0.8,10.8-0.5,16.1-1.6c1-0.2,2.4-0.2,3-0.8
	c0.7-0.7-0.2-2,0-3c0.2-1.7,0.2-3.5,0.4-5.2c0.2-1.2-0.1-1.6-1.4-1.3c-3.7,0.8-7.3,1.5-11,2.3c-0.8,0.2-1.5,0.2-2.6,0.1
	c2-1.3,4-1.2,5.9-1.6c6.2-1.2,12.3-2.9,18.3-4.7c4.4-1.3,9.4-0.2,11,4.2c-0.6,0.2-0.8-0.4-1.1-0.7c-3-3.5-6.7-3.7-10.7-2.3
	c-1.9,0.6-3.7,1.2-5.7,1.7c-1.2,0.3-1.8,0.8-1.9,2.2c-0.1,2.8-0.2,2.8,2.4,1.9c1.4-0.4,2.7-0.7,4.2-0.4c1.2,0.3,2.4-0.1,3.3-0.9
	c2.1-1.7,4.4-1.3,6,1.3c-1.3-0.2-2-1.6-3.4-1.4c-0.6,0.1-1.3-0.1-1.8,0.5c-1.2,1.3-2.8,1.5-4.5,1.4c-2.9-0.2-2.9-0.2-3.7,2.7
	c-0.1,0.3-0.1,0.5-0.2,0.9c1.2-0.7,0.7-2.2,1.8-2.9c0.7,1.1-0.1,1.9-0.3,2.8c-0.1,0.5-0.8,1.3-0.2,1.6c0.7,0.3,2.1,0.5,2.4-0.4
	c0.7-1.9,2.2-1.7,3.7-1.8c7.3-0.1,14.6-0.2,21.9-0.3c1.1,0,1.7-0.4,2.3-1.3c3.9-6,7.8-11.9,11.6-17.9
	C97.2,128.1,98.1,127.1,100.1,127.8L100.1,127.8z M117.7,159.2c-3.1-0.2-3-0.1-3.7,2.8c-0.3,1.4,0.2,1.4,1.2,1.3
	c2.4-0.3,4.8-0.6,7.3-1c1.4-0.2,3.2-0.1,4-1.3c2.2-3.4,2.7-7.3,2.6-11.3c0-0.9-0.6-0.9-1.2-0.2c-0.3,0.4-0.6,0.9-0.9,1.3
	c-1.1,1.9-1.7,4.1-2.4,6.2c-0.3,1-0.8,1.9-1.9,1.9C120.9,158.9,119.2,159.4,117.7,159.2L117.7,159.2z M116.9,156.3
	C116.9,156.3,116.9,156.3,116.9,156.3c-0.3,0-0.6-0.1-0.9,0c-0.6,0.1-1.6-0.6-1.6,0.7c0,1.2,0.9,0.9,1.5,0.9c1.9,0,3.9,0,5.8-0.1
	c0.6,0,1.1,0,1.3-0.6c1.1-2.7,1.9-5.5,1.8-8.4c0-0.3-0.1-0.7-0.3-0.8c-0.4-0.3-0.6,0.2-0.8,0.4c-1.3,1.7-2.1,3.6-2.6,5.6
	c-0.4,1.8-1.4,2.2-3,2.3C117.8,156.3,117.4,156.3,116.9,156.3L116.9,156.3z"/>
<path class="st0" d="M20,93.1c-2,1.8-3.7,1.8-5.5,0.6c-1.6-1.1-2.4-3-1.6-4.7c0.6-1.4,0.1-1.7-1-2.3c-4.2-2.3-6.1-7.1-5-12.1
	c1.1-4.6,4.7-7.7,9.6-7.9c1.9-0.1,3.7-0.1,5.5,0.6c0.8,0.3,1,0.2,1.5-0.7c2.1-4.2,5.5-7.3,9.7-9.5c2.4-1.2,4.9-1.3,7.5-0.5
	c1.9,0.6,3.2,1.8,3.5,3.8c0.1,0.7,0.3,0.8,1,0.9c4.4,0.2,6.9,3.8,5.7,8.2c-1.2,4.1-4.3,6.1-8.1,7.4c-0.9,0.3-2.4-0.1-2.6,1.7
	c0,0.4-0.7,0.2-1.1,0.1c-3.4-1.2-6.5-0.4-9.4,1.6c-0.3,0.2-0.6,0.4-1,0.1c-0.4-0.4-0.3-0.7,0-1.1c0.6-0.8,1.6-1.1,2.5-1.7
	c-1.8-0.7-3.6-1.2-5.1-2.1c-0.5-0.3-0.8,0.1-1.1,0.4c-3.9,2.5-5.1,5.6-4.1,10.3c0.2,1.2,1,2.8-0.3,3.7c-1.2,0.8-2.1-0.6-3.1-1.3
	c-1.1-0.7-2.1-1.2-3.2-0.2c-1,0.9-1,2.7,0,3.9C15.7,94,17.6,93.8,20,93.1L20,93.1z"/>
<path class="st0" d="M22,50.4c5.4,0.8,10.7,1,15.9-1c4.2-1.6,7.2-4.4,9-8.5c2.4-5.4,0.9-9.1-4.5-11.3c0.5-0.6,1.2-0.9,1.9-1
	c2.3-0.5,4.6-1.1,6.8-2.2c6.9-3.4,6.1-11.6,1-14.9c-6.4-4.2-13.3-4.6-20.2-1.1c-0.5,0.3-1,0.6-1.8,1c0.2-1,0.8-1.4,1.4-1.8
	c3.3-2.3,7-3,10.9-2.8c4.6,0.2,9,1.3,12.4,4.8c4.5,4.5,3.8,11.1-1.5,14.7c-1.9,1.3-4,2.1-6.2,2.7c-1,0.3-1.1,0.6-0.3,1.2
	c3.1,2.7,3.1,6,1.9,9.5c-2.4,6.9-7.7,10.4-14.5,11.9c-3.3,0.7-6.6,0.7-9.9,0.1C23.4,51.5,22.9,50.6,22,50.4z"/>
<path class="st0" d="M0.5,43.8C1.1,44.7,1,45.5,1,46.3c0,9.8,0,19.5,0,29.2C1.2,86.4,1.2,97.2,1.6,108c0.2,7.3,0.1,14.7,0.3,22.1
	c0.2,8.7,0.4,17.4,0.6,26.2c0,1.4,0,2.9-0.2,4.3c-0.7-1-0.8-2.1-0.8-3.2c-0.2-8.8-0.4-17.7-0.5-26.5c-0.2-15.5-0.3-31.1-0.7-46.6
	C-0.1,71.5,0.1,58.7,0,46C0,45.3,0,44.6,0.5,43.8z"/>
<path class="st0" d="M24.5,169.4c-1.5-0.2-2-1.1-2.4-2c-1.1-2.4-2.2-4.8-3.4-7.1c-0.4-0.7-0.6-1.7-1.6-1.8c-1.1,0-1.6,0.9-2,1.8
	c-0.8,1.9-1.5,3.8-2.3,5.6c-0.1,0.4-0.3,0.9-0.8,0.8c-0.3-0.1-0.4-0.5-0.5-0.9c-0.3-1.4-0.6-2.9-1-4.3c-0.6-1.8-1.2-2-2.7-0.8
	c-1.7,1.4-2.8,3.2-4.2,4.8c-0.6,0.7-1.1,1.6-2.5,1.5c2.1-2.4,3.7-5,5.9-7c2.2-2,3.6-1.6,4.7,1.1c0.2,0.5,0.4,1.1,0.7,2.1
	c0.6-2.1,1.1-3.8,2.7-4.9c0.3-0.2,0.3-0.6,0.3-1c-0.4-10.1-1-20.1-1.2-30.2c-0.2-7.7-0.1-15.3-0.1-23c0-1.3,0.9-2.3,1.1-4
	c0.6,1,0.4,1.7,0.4,2.4c0.1,10.1-0.4,20.2,0,30.3c0.4,7.6,0.7,15.3,0.8,22.9c0,0.9,0,1.6,1.3,1.8c1.1,0.2,1.6,1.5,2.1,2.5
	C21.3,163.1,22.3,166.3,24.5,169.4L24.5,169.4z"/>
<path class="st0" d="M42.8,129.8c-1.3-2.7-4.5-1.5-6.5-3.7c0,1.9,0.5,3.3,0.9,4.7c0.2,0.6,4.5,2.9,5.2,2.9c0.6,0,0.7-0.4,0.7-0.9
	c0-0.5-0.2-0.9-0.3-1.4c0-0.3-0.1-0.8,0.4-0.9c0.4,0,0.5,0.4,0.6,0.7c0.1,0.6,0.2,1.2,0.2,1.8c-0.1,1.7-0.7,1.9-2.3,1.4
	c-4.2-1.4-5.9-4.5-6.3-8.8c-0.3-3.6-1-7.1-1.1-10.6c0-0.5-0.2-1.5,0.3-1.3c0.9,0.3,2.1-0.8,2.8,0.5c0.2,0.5,0.5,0.9,0.7,1.5
	c1.2,4.4,2.8,8.6,5,12.6C43,128.8,43.3,129.2,42.8,129.8L42.8,129.8z M35.5,121.6c0.1,1.9,1.8,3.5,3.7,3.7c0.7,0.1,0.8-0.2,0.6-0.8
	c-0.4-1.8-1.2-3.2-3.3-3.6C35.7,120.7,35.4,120.8,35.5,121.6z M37.9,119.4c-0.4-1.5-0.7-2.7-1-3.8c-0.1-0.6-0.4-0.8-1-0.7
	c-0.5,0.1-1,0.1-1,0.9C35,117.8,36.1,118.6,37.9,119.4L37.9,119.4z"/>
<path class="st0" d="M23.1,36c6.8-5.9,7.1-6.1,9.1-5.8c-12.9,7.8-16.8,19.9-15.7,34.3c-0.1,0-0.3,0-0.5,0c-0.4-1.3-0.9-2.6-1-4
	c-0.5-8.3,1.5-15.8,6.5-22.5c0.5-0.7,0.6-1.3,0.3-2.1c-0.7-1.9-1.3-3.8-1.2-5.9c0-0.4-0.2-1,0.4-1c0.5,0,0.6,0.6,0.6,1
	c0.1,1.7,0.5,3.3,0.8,4.9C22.7,35.3,22.7,35.8,23.1,36L23.1,36z"/>
<path class="st0" d="M39.8,85.2c1.1-1.1,0-2.7,1.2-4.3c0.2,2.1,0.7,3.6-0.5,5.1c-0.3,0.3-0.6,0.6-0.2,1c1.4,1.3,1.6,2.9,1.4,4.8
	c-0.3,2.1-0.2,4.3-0.9,6.3c-1.5,4.9-6.1,7.2-10.9,5.4c-3.8-1.4-6.5-4.2-8.3-7.8c-0.3-0.6-0.7-1.3-0.3-2c0.8,0.4,1,1.1,1.4,1.8
	c1.4,2.8,3.3,5,6,6.4c5.2,2.8,10.4,0.4,11.5-5.5c0.3-1.5,0.4-3.1,0.7-4.6C41,91.2,40.6,91,40,91c-0.8-0.1-1.5-0.2-2.3-0.3
	c-0.4-0.1-0.9-0.1-0.8-0.7c0.1-0.6,0.7-0.4,1.1-0.3c1,0.3,2.3,0.8,2.8,0c0.4-0.8-0.8-1.7-1.3-2.5c-0.8-1.4-1.4-2.8-2-4.3
	c-0.1-0.2-0.2-0.6,0.2-0.8c0.4-0.1,0.5,0.2,0.7,0.5C38.7,83.5,38.8,84.6,39.8,85.2L39.8,85.2z"/>
<path class="st0" d="M34.1,6.3C26.3-0.8,18.2,0.5,9.8,4.6C10.9,2,18.2-0.3,23.1,0C28.3,0.4,33.2,3,34.1,6.3z"/>
<path class="st0" d="M60.4,135.2c-0.4-0.2-0.9-0.4-1.3-0.6c-2.3-1.4-4.6-1.6-6.9-0.2c-0.6,0.4-1.3,0.6-2,0.8
	c-1.5,0.5-2.8,0.1-3.7-1.3c-1.6-2.7-2.1-5.8-2.5-9.1c1,0.8,0.9,1.7,1.1,2.5c0.5,1.9,0.8,3.7,1.8,5.4c1.1,2,1.8,2.2,3.9,1.3
	c2.1-0.9,4.1-2,6.5-1.2c1.3,0.5,2.7,0.7,3.4,2.1C60.6,134.9,60.5,135,60.4,135.2L60.4,135.2z"/>
<path class="st0" d="M34.8,112.1c-1.9,1.7-3.7,3.2-5.9,4.2c-1.1,0.4-2,0.3-2-1.1c0-2.6,2.2-6.2,4.5-7.1c0.2-0.1,0.5,0,1.1-0.1
	c-1.4,1.2-2.5,2.2-3.2,3.5c-0.4,0.7-0.7,1.4-0.9,2.1c-0.1,0.4-0.6,0.9-0.1,1.3c0.5,0.4,0.9-0.1,1.3-0.3c1-0.6,2-1.3,3-2
	C33.1,112.1,33.7,111.6,34.8,112.1z"/>
<path class="st0" d="M36,107.8c1.7,0.1,2.4,1,3.1,1.7c1.1,1.1,2,2.3,2.7,3.8c0.3,0.6,0.3,1.2-0.2,1.6c-0.4,0.3-0.8,0.4-1.3,0.2
	c-1.5-0.7-2.9-1.6-3.9-3.2c1.4-0.4,2,0.8,2.8,1.2c0.5,0.2,1,1.1,1.5,0.6c0.6-0.6-0.2-1.2-0.5-1.7C39.2,110.6,37.7,109.5,36,107.8
	L36,107.8z"/>
<path class="st0" d="M31.1,83.8c1.4,0.2,1.4,1.3,1.9,2c0.5,0.5,0.8,1.4,1.6,1.2c0.9-0.2,0.7-1.3,0.8-2c0-0.6-0.2-1.2-0.2-1.8
	c0-0.3-0.2-0.8,0.3-0.8c0.4-0.1,0.7,0.2,0.7,0.6c0,1.2,0.4,2.3,0.1,3.5c-0.5,1.7-1.8,2.2-3.1,0.9C32.2,86.5,31.5,85.4,31.1,83.8
	L31.1,83.8z"/>
<path class="st0" d="M28,134.1c1.1,0.7,1,1.5,1,2.2c0,2.4,0.7,4.5,2.4,6.3c0.3,0.3,0.8,0.6,0.4,1c-0.5,0.5-0.9-0.1-1.2-0.4
	c-1.7-1.7-2.3-4-2.5-6.3C27.9,136.1,28,135.2,28,134.1L28,134.1z"/>
<path class="st0" d="M12.8,123.5c-0.4-3.4-0.7-6.8-0.4-10.2C12.9,116.6,12.9,120,12.8,123.5z"/>
<path class="st0" d="M69.2,144c-1.5-1.5-2.9-3.2-5.1-3.6c-0.1,0-0.2-0.3-0.2-0.4c0-0.3,0.3-0.3,0.5-0.3c1.3,0.1,2.4,0.7,3.3,1.6
	c0.7,0.7,1.3,1.5,1.9,2.2C69.4,143.8,69.3,143.9,69.2,144L69.2,144z"/>
<path class="st0" d="M68.4,144.8c-1.6-1.1-2.9-2.4-4.9-2.6c-0.2,0-0.3-0.4-0.2-0.6c0.2-0.3,0.5-0.3,0.8-0.2
	C66.1,141.8,67.5,143,68.4,144.8z"/>
<path class="st0" d="M36.9,96.5c-0.4-0.1-0.8-0.2-1.3-0.3c-0.3-0.1-0.6-0.4-0.5-0.8c0.2-0.4,0.5-0.4,0.9-0.3
	c0.4,0.1,0.8,0.2,1.2,0.2c0.5,0.1,1.2-0.5,1.3,0.3C38.5,96.6,37.6,96.4,36.9,96.5z"/>
<path class="st0" d="M17.1,31c0.4-0.2,0.4-0.3,0.5-0.3c1.2,0,2,0.9,2.8,1.6c0,0-0.1,0.4-0.1,0.4C18.9,32.8,18.3,31.7,17.1,31z"/>
<path class="st0" d="M3.2,64.7v-7h0.3v7.2L3.2,64.7L3.2,64.7z"/>
</svg>
