<?xml version="1.0" encoding="utf-8"?>
<!-- Generator: Adobe Illustrator 27.6.0, SVG Export Plug-In . SVG Version: 6.00 Build 0)  -->
<svg version="1.1" id="Layer_1" xmlns="http://www.w3.org/2000/svg" xmlns:xlink="http://www.w3.org/1999/xlink" x="0px" y="0px"
	 viewBox="0 0 526.7 700.8" style="enable-background:new 0 0 526.7 700.8;" xml:space="preserve">
<style type="text/css">
	.st0{fill:#16013E;}
</style>
<g>
	<path class="st0" d="M199.7,206.8c-2.6,3.2-5.1,3.7-7.8,3.1c-10.7-2.1-19.8-6.9-24.9-17c-4.7-9.3-3.6-20.6,3.7-27.6
		c1.8-1.7,1.4-3,0.1-4.6c-5.9-7.5-10.6-15.7-13.8-24.6c-5.3-14.9-7.6-29.8-2.3-45.4c4-11.7,10.6-21.2,21.2-27.4
		c8.3-4.8,17.3-6.7,27-5.1c8.1,1.3,15.5,4.1,21.5,10c1.9,1.8,2.7,1.2,3.5-0.8c5.3-14,15.2-23.9,28.3-30.2
		c13.7-6.6,27.9-7.5,42.4-1.7c8.3,3.4,14.9,8.2,19.6,15.9c6.2,10.1,7.7,20.4,4.8,32c-3.9,15.5-12.3,27.7-26.7,34.4
		c-14.9,7-30.8,9.4-47.2,5.2c-4.4-1.1-9-1.6-13.1-4c-2.6-1.5-5.1-1-7.8,1.4c-10.5,9.3-16.6,20.7-20.1,34.2c-3,11.6-5.1,23-3,35
		c0.4,2.3-0.7,4.7-3.1,4.9c-2.4,0.3-2.9-2.2-3.3-4.1c-1.2-5.5-2.4-10.9-5.6-15.6c-4.2-6.4-8.7-8.8-14-7.2c-5.1,1.5-8.1,6.4-8.4,13.5
		c-0.4,9.4,6.1,16.2,13.8,20.1C189.2,203.5,194.1,205.2,199.7,206.8z M283.5,39.7c11.5,7,21.3,14.7,24.9,28.4
		c3.6,13.5,0.3,25.5-5.8,37.4c11.5-9.3,19.8-30.8,11.7-47.5C309.2,47.5,294.7,38.4,283.5,39.7z M159.2,118.4
		c3.1-31.8,19.1-49.9,53.2-50.1C183.7,55.2,154,79.1,159.2,118.4z"/>
	<path class="st0" d="M326.2,659.2c-2.8-1.2-4-3.2-4.9-4.9c-1.2-2.3-2.7-2.2-4.4-1.7c-2.4,0.8-0.6,2.4-0.4,3.7
		c0.7,3.8,2.2,6.8,6.6,7.2c0.7,0.1,1.4,0.8,2.1,1.3c1.2,0.8,3,1.3,2.3,3.2c-0.6,1.5-2.2,1.3-3.5,1.2c-9.5-1.1-18.7-3.9-27.3-7.6
		c-3.7-1.6-4.4-7.1-5.5-11.2c-1.8-6.6-2.8-13.4-4.3-20.1c-4.2-19-9.1-37.8-11.9-57.1c0-0.3-0.1-0.7-0.2-1
		c-4.8-11.8,0.5-14.5,9.6-19.1c14.9-7.5,29.8-14.9,41.4-27.4c12-13,17.8-28.5,18.8-46c0.9-15.5-3-30.1-10.2-43.6
		c-8.2-15.2-20.6-26.1-37-32.6c-10.5-4.2-21.2-5.7-32.3-5.9c-1.5,0-3,0.1-4.1-1.2c-6.7-8.5-14.5-15.9-12.3-29
		c1.8-10.8,0.5-22.1,0.6-33.2c0.1-7,1.2-8,7.8-10.1c12.6-4,25.7-6.5,38.6-9c17.6-3.5,35.4-6.6,53-10.4c3.8-0.8,7.9-0.1,12.9-0.1
		c-3.1,3.3-6.3,4.7-9.7,5.9c-12.7,4.3-25.9,5.6-39,7.9c-11.4,2-22.7,4.7-34.2,6.9c-3,0.6-3.7,2.1-3.8,4.7
		c-0.6,13.9-1.9,27.7-3.8,41.4c-0.5,3.9,0.5,5.7,4.9,5.7c16.7,0,31,6.8,44.7,15.7c13.9,9,24.7,21,32.6,35.3
		c7,12.8,11.4,26.7,12.2,41.7c0.8,16.7-1.1,33-8.2,48.2c-5.7,12.2-14,22.6-24.5,31.3c-7.5,6.2-15.5,11.3-24.2,15.4
		c-0.6,0.3-1.1,0.8-1.7,1c-8.4,3.1-8.5,3.2-5.4,11.4c4.1,10.9,6.9,22.2,9.5,33.5c1.2,5,3.5,9.8,5,14.9
		C319.2,636.5,322.7,647.5,326.2,659.2z M352.8,511.1c-2.3,0.7-4.1,0.8-5.1,2.5c-1.7,2.8-3.3,5.6-4.8,8.5c-0.6,1.1-2.7,2.4-0.6,3.7
		c1.5,0.9,2.9-0.4,3.8-1.6C348.9,520.4,350.9,516.2,352.8,511.1z M262.1,383.9c7.3,1.5,14.5,3.8,22.1,2.3
		C277.1,383,269.5,383.8,262.1,383.9z M293.3,388.6c5.7,5.2,12.9,6.2,19.2,9.2C308.2,392.7,300.3,388.7,293.3,388.6z M306.2,613
		c-2.6,6.1,1.9,10.7,2.3,16.2c0.1,0.9,1.3,1.4,2.4,1.1c1.1-0.3,1-1,0.7-1.9C309.8,623.3,308,618.2,306.2,613z M310.6,638.2
		c0.7,1.9,1.7,4.5,2.7,7.1c0.6,1.4,1.9,1.9,3.3,1.2c1.6-0.8,0.5-2,0.2-3c-0.8-2.3-2.2-4.3-2.1-6.9c0.1-1.2-0.8-2.2-2.2-2.1
		C310.7,634.7,310.8,636.2,310.6,638.2z M267.3,341c-2.5,4.7-3.6,9.6-0.9,15.3C269.4,350.9,267.8,345.9,267.3,341z M356.3,489.6
		c-0.6,3-1.2,6-1.9,9c-0.2,0.9-1,2.1,0.3,2.5c1.7,0.5,1.5-1.2,1.9-2.2C358,495.9,357.3,492.8,356.3,489.6z M300.3,595.6
		c-0.4,0.1-0.8,0.1-1.2,0.2c1,3.5,2.1,7.1,3.1,10.6c0.2,0.8,0.8,1.1,1.5,0.8c0.7-0.3,0.6-0.8,0.3-1.6
		C302.7,602.4,301.5,599,300.3,595.6z M336.4,535.9c0.2-1.1-0.6-1.7-1.3-1.7c-2.2,0.2-3.9,1.4-4.5,3.6c-0.3,1,0.1,2.1,1.4,2.1
		C334.5,539.8,335.2,537.5,336.4,535.9z"/>
	<path class="st0" d="M327.3,144.1c6.1,12.3,15.6,19.5,25.9,27.1c-10.4,1.1-16.8-4.3-22.7-10.4c-4.1-4.2-7.4-9-9.7-14.5
		c-0.3-0.8-0.7-1.9-1.5-1.6c-4.8,1.4-9.9-0.5-14.6,1.6c-4.9,2.2-6.8,5.8-5.6,11.8c2,10.4,4.6,20.7,6.8,31.1c0.6,2.9,2,4.9,4.9,5.4
		c3.4,0.6,3.8-2.5,5.1-4.5c2.9-4.6,1.7-10,3.1-14.9c0.6-2.2,0.7-4.2,3.8-4c3.6,0.2,1.9,2.9,2,4.5c0.5,6.6-2.1,12.7-4.4,18.6
		c-1.3,3.3-4.8,6-9,5.8c-2.6-0.1-2.8,1-2.6,3.2c0.6,6,2.1,11.9-0.2,18.1c-1.3,3.4-3.5,5.1-6.3,6.1c-5.9,2-11.9,2-18,0.3
		c-2.7-0.8-4-2.6-3.4-5.1c0.8-3.3,3.1-1.1,4.8-0.9c1.3,0.2,2.5,0.8,3.8,1c11.4,1.5,15.9-3.5,14-15c-2.2-13.1-4.7-26.2-7.8-39.1
		c-1.3-5.5-1.9-11.4-1.5-17.2c0.6-8.7,6.1-11.8,16.2-13.1c7.2-0.9,7.5-0.4,6.6-7.2c-2.2-15.8,2.3-30.2,9.3-43.9
		c4.6-9,10.6-16.9,19.1-22.9c8.3-5.8,17.4-7.3,27.1-6.3c24.3,2.7,39.4,25.8,37.8,47.3c-1,13.9-7.4,25.8-18.1,34.9
		c-12.3,10.4-26.6,13.1-42.4,11.1C341.9,150.8,335.2,147.7,327.3,144.1z M386.8,70.7c-1.3-2.2-3.4-2.5-5.1-3.2
		c-12.3-5.4-23.7-4.3-34.6,3.7c-9.2,6.7-14.7,16-18.9,26.1c-3,7.1-4.6,14.9-5.2,23.1c3-2.1,1.8-5.2,2.8-7.5
		c4.7-10.9,10.1-21.4,18.8-29.9c4.7-4.6,9.9-8.7,15.9-10.8C368.9,69.3,377.7,66.6,386.8,70.7z"/>
	<path class="st0" d="M141.3,408.2c-19.1-7.5-36.7-3.7-53.9,1.9c-10.4,3.4-18,11.4-24.5,20c-7.3,9.6-13.9,19.7-19.6,30.3
		c-4.8,9-9.2,18.3-13.7,27.5c-1.2,2.5-2.8,4.7-4.5,7.4c-2.1-2.4-1.3-4.4-0.7-6.4c2.3-8.6,6.2-16.5,10.4-24.2
		c3.7-6.8,7.4-13.7,11.4-20.4c7.5-12.4,15.2-25,27-33c7.9-5.3,10.8-12.4,14.7-19.6c8-14.8,19.2-26.9,31.9-37.6
		c11.6-9.7,24.6-17.2,38.5-22.9c7.1-2.9,14.6-4.7,22-6.8c1.2-0.4,2.8-0.4,3.9,0c11.9,4.2,24.7,5.1,36.5,9.8c1.4,0.6,2.7,1.1,3.5,2.3
		c-2.9,5-8.2,3.6-12.5,4.3c-10.4,1.7-20.9,2.5-30.8,6.3c-8.7,3.4-16.8,8.1-24,14c-8.9,7.2-17.2,15.2-22.9,25.3
		c-2.1,3.8-4.4,7.5-6.7,11.5c6.2,2.1,13.2,1.3,18.7,5.4c0.9,0.7,2.6,1,2.5,2.1c-0.6,4.6,0.6,8.5,3.8,11.8c0.2,0.2,0.4,0.7,0.3,0.9
		c-3.3,7.1-0.7,16.1-7,22.2c-0.5,0.5-0.9,1-1.5,1.2c-6.4,2.4-10.9,6-13.7,13c-2.2,5.3-9.5,5.8-14.8,6.3c-7.3,0.7-12.2,3.6-16.2,9.5
		c-3.9,5.8-10.6,7.4-16.9,8.7c-3.2,0.7-6.4,1.5-9.8,1.1c-1.3-0.2-3.1,0.7-3.3-1.8c-0.1-2.3,1.4-2,2.9-2.2c7.4-0.9,14.5-2.4,20.7-7
		c1.5-1.1,2.7-2.4,3.8-3.8c0.7-0.9,1.2-1.8-0.4-2.1c-1.2-0.2-2.5-0.2-2.1-1.9c0.3-1.3,1.5-1.6,2.6-2.1c6.8-3,14.4-2.5,21.2-5.8
		c2.9-1.4,5.2-3.1,8.3-5.4c-7.2-1.8-13.4,0.7-19.6,0.7c-1.6,0-3.3,0.6-4.9,0.5c-2.1-0.2-5.6,1.3-6.1-1.4c-0.3-1.8,3.4-2.9,5.4-3.3
		c8.2-1.4,16.3-3.4,24.5-5.1c5.5-1.1,10.5-3.3,15.5-5.8c0.7-0.4,1.7-0.8,1.3-1.7c-0.4-0.9-1.6-1.2-2.6-1.1c-3.3,0.3-6.6,0.6-9.8,1
		c-8,0.9-16,1.9-24,2.8c-1.1,0.1-2.4,0.1-3.4-0.2c-1.4-0.4-2.8-1-3.1-2.8c-0.3-1.8,1.2-2.1,2.2-2.8c3-1.9,6.4-2.3,9.9-2.4
		c9.9-0.2,19.6-2.4,29.3-3.9c0.6-0.1,1.3-0.3,1.9-0.5c1.8-0.7,4.3-1.6,3.9-3.7c-0.3-1.5-2.9-1.8-4.7-1.9
		c-10.1-0.5-20.2,0.5-30.2,1.5c-6.4,0.6-12.6,0-19.4-3.8C108.7,408.3,124.9,412.1,141.3,408.2z M116.9,384
		C116.9,384,116.9,384,116.9,384c2.8,0,5.6,0.1,8.4,0c1.2,0,2.8,0.4,3.5-1.2c1.6-3.4,3.8-6.4,6.4-9.1c0.9-0.9,1.2-2.1,0.8-3.2
		c-0.4-1.3-1.7-1.6-2.9-1.4c-4.3,0.5-8.7-0.3-13-0.2c-7.5,0.2-11.7,4.5-15.2,10c-1.8,2.8-0.7,4.9,2.6,5.1
		C110.6,384.2,113.7,384,116.9,384z M111.3,398.7c10.3,0.2,10.1,0.1,12.6-5.9c1.5-3.6-0.3-4.7-3-4.6c-6.9,0.1-13.9-1.2-20.9,1.2
		c-4.6,1.6-5.7,4.9-6.8,8.5c-0.7,2.3,0,3.6,3.1,2.9C102,399.6,107.9,399.1,111.3,398.7z M165.3,347.2c-4.1-0.1-8.1-3.1-11.5-1
		c-2.9,1.8-5.4,2.7-8.6,2c-1.1-0.3-2.5-0.5-2.8,1.1c-0.3,1.7,0.9,2.8,2.3,2.5c2.8-0.6,5.1,0.8,7.5,1.6
		C158.3,355.2,160.6,348.8,165.3,347.2z M142.3,357.1c-1.8,0.9-5.3-1.1-5.7,2c-0.2,1.4-0.1,5.8,4.8,5.2c3.9-0.5,5.8-3.3,6.4-5.6
		C148.3,356.9,144.6,357.3,142.3,357.1z M180.8,339.8c-2.7-1-4.3-1.8-6-2.3c-1.3-0.3-2.9-1.6-3.7,0.6c-0.5,1.3-1.9,2.6-1.2,4
		c0.9,1.7,3,1.4,4.4,0.9C176.3,342.5,178,341.2,180.8,339.8z"/>
	<path class="st0" d="M109.9,476.2c2,13.1,3.3,26.2,6.3,39c1.7,7,4,13.9,6.9,20.4c8.3,18.4,21.7,32.9,36.2,46.5c4.3,4,5,3.8,7.6-1.2
		c4.2-8,10.1-14.3,18.3-18.4c5-2.5,5.7-5.1,2.8-12c-6.8-15.7-16.2-29.7-29.8-40.4c-9.1-7.1-22.4-7.8-32.5-1.7c-1,0.6-2,1-3.2,0.6
		c3.2-5.4,15.3-9.8,22.4-8.3c9.5,2.1,17.2,7,24.3,13.6c11.7,10.9,19.5,24.3,25.9,38.7c1.3,2.9,2.5,3.6,5.4,3.2
		c9.1-1.2,17.6,1,25.5,5.5c1.1,0.6,3.4,0.9,2.4,2.9c-0.9,1.8-2.9,1.4-4.4,0.7c-5.1-2.3-10.5-2.7-16-2.8c-0.2,0-0.3,0-0.5,0
		c-8.9-0.5-9.7,0.3-8,9c1.8,9.5,2.5,18.9-0.8,28.3c-1.1,3.2-0.4,5.5,3.2,6.7c11.1,3.7,22.3,6.5,34.1,7.2c5.7,0.3,11.4,1.3,17.2,1.8
		c1.9,0.2,3.6,1.1,3.7,2.7c0.1,2-2.1,2.2-3.7,2.4c-19.4,2.3-38.6,3.6-57.9-1.2c-11.9-3-23.8-5.9-35-10.8
		c-11.4-4.9-22-11.1-32.1-18.5c-10.4-7.6-19.7-16-27.6-26.2c-12.1-15.6-19.5-33.4-24.2-52.3c-1.2-5-0.8-10.5-1.2-15.8
		c-0.1-1-0.1-2.3,1-2.6c1.7-0.5,1.6,1.2,2.1,2.1c3,7,3.4,14.6,5.5,21.8c1.3,4.5,4,6.1,8.3,6c5,0,9.9-0.1,14.9,0.1c3.4,0.1,3.6-1,3-4
		c-2-10.4-5.7-20.8-3.1-31.7C108,483.7,108.9,480,109.9,476.2z M111.7,565.7c-0.5,0.8-0.9,1.5-1.4,2.3c4.1,3.5,7.9,7.3,12.3,10.5
		c5.1,3.6,9.5,9.5,17.2,6.4c2.1-0.8,4.8-0.8,5.6-3.4c0.7-2.3-0.8-3.9-2.2-5.6c-6.2-7.2-12.9-14-17.4-22.5c-0.5-1-1.4-2.2-2.7-1.6
		c-5.4,2.6-11,0.6-16.5,1.2c-1.5,0.1-3.7-1.3-4.5,0.6c-0.8,1.8,0.6,3.7,2,5.2c3.9,4.3,15,5.9,21.7,3.3c1.1-0.4,2.7-2.4,3.3,0.5
		c0.4,1.9-0.5,2.9-2.6,3.3C121.5,566.8,116.6,566.9,111.7,565.7z M195.5,585.6c-0.1-6.5-0.9-11.4-2.1-16.1c-0.6-2.4-1.9-3.4-4.7-2
		c-7.2,3.8-12.5,9.5-16.6,16.4c-1.5,2.5-3,5.9,0.9,8.2c5.3,3.1,10.8,6.1,16.2,9.1c2.2,1.2,3.9,0.6,4.3-2
		C194.3,594.2,195,589.1,195.5,585.6z M112.5,546.8c8.4,0.9,9.2-0.4,5.2-8c-0.4-0.7-0.9-1.4-1.1-2.2c-0.7-2.9-2.1-5.5-3.7-8
		c-2.4-3.8-5.7,0-8.6-0.5c-3.7-0.6-7.4-1.2-11.2-1.9c-2.9-0.5-5.6-0.7-4.2,4.2c1.6,5.4,4,10.3,6.9,15c0.7,1.2,1.6,1.4,2.8,1.4
		C103.3,546.8,107.9,546.8,112.5,546.8z M167,596.6c-0.6-0.3-1.6-0.7-2.3-1.3c-3.8-3.4-8.4-5-12.8-7.2c-2.1-1-4-1.4-5.2,0.4
		c-1.4,2,1.4,4.2,2.1,4.2c4.8,0.3,7,4.3,10.3,6.6c1,0.7,2.4,1.2,3.7,1.3C164.7,600.8,165.9,599.4,167,596.6z"/>
	<path class="st0" d="M409.1,407.4c-1.3,1.9-2.9,2.3-4.8,2.4c-9.7,0.6-21.9-7.9-23.5-17.5c-0.7-4.3-2.9-5-6.1-5.3
		c-8.6-0.9-15.3-6.5-16.7-15.3c-1.5-9.4-0.4-18.8,3.8-27.5c3-6.3,6-12.8,11.8-17.4c2.2-1.8,1.5-4.5-0.3-6.6c-2.5-3-3.2-6.8-5-10.1
		c-1-1.8-0.7-4,0.9-4.9c1.6-1,2.5,1.3,3.4,2.2c3.5,3.5,5.2,8.3,7.6,12.5c4.8,8.2,9.6,16.4,13.2,25.1c5.6,13.4,12.7,26.1,17.4,39.9
		c2.5,7.2,5.1,14.4,8.4,21.4c1.4,3.1,2.4,6.5,3,9.8c0.6,3.6,1.8,5.1,5.8,4.7c10.2-1,19.2,2.7,26.8,9.2c6.6,5.6,11.2,12.9,15.2,20.4
		c5.6,10.7,9.2,22.3,12.5,33.9c2.6,9.2,5.8,18.5,3.2,28.7c-1.9-3.4-4.7-6.7-5.4-10.4c-1.6-8.9-3.8-17.7-6.8-26.1
		c-4.2-11.6-8.2-23.4-16.1-33.5c-9.3-12-20.8-17.5-35.9-15c-10.2,1.7-20.4,3.6-29.5,8.8c-0.8,0.5-1.7,0.9-2.5,1.4
		c-1.9,1.3-4.6,2.7-3.4,5.3c1,2.1,3.7,0.7,5.8,0.6c8.1-0.3,15.3-5,23.5-4.9c1.3,0,2.8-0.7,3.9-0.3c2,0.7,5.6,0,5.5,2.9
		c0,3.2-3.3,1.4-5.2,1.9c-11.4,2.6-22.4,6.2-33.1,10.9c-1.6,0.7-3.7,1.9-3.3,3.7c0.4,1.9,2.8,1.5,4.4,1.2c7.6-1.3,15.2-2.4,22.7-4.2
		c4.4-1.1,9-1.7,13.4-3c1.3-0.4,2.6-0.4,3.9,0.1c1.2,0.5,2.6,0.9,2.7,2.6c0.1,1.7-1.4,1.6-2.4,2.1c-9.3,4.3-17.7,10.2-26.3,15.6
		c-2,1.3-5.4,3.1-4,5.3c1.8,3.1,4.5,0,6.9-0.8c7.8-2.6,14.5-7.4,21.8-11.2c2.4-1.2,4.8-2.8,6.5-0.3c1.6,2.2,1.3,5.2-0.8,7.8
		c-3.6,4.4-8.1,7.9-12.2,11.8c-1.2,1.2-3.7,2.2-1.9,4.2c1.5,1.6,3.6,0.2,4.9-0.8c3.8-2.7,7.4-5.8,11.1-8.8c1.2-0.9,2.2-2,3.4-2.9
		c1-0.8,2.3-0.8,3.3-0.2c1.4,0.8,0.5,2.1-0.1,3c-6.3,8-12.6,16-23.4,18c-4.8,0.9-7.5-1.6-7.6-6.6c-0.1-5-0.8-5.6-5.8-4
		c-3.8,1.2-7.3,1.3-10.9-0.7c-3.7-1.9-5.3-4.8-3.9-8.7c2.7-7.6,2-9-6-11.2c-10.7-2.9-11.4-4.7-5.3-13.6c1.1-1.7,1-3.4,0.3-5.2
		c-2.3-5.2,0.1-8.9,3.9-12.1c8.8-7.4,19.2-11.1,30.3-13c7.6-1.3,7.7-1.9,3.8-8.7c-5.1-8.8-7.3-18.8-11.2-28.1
		c-0.6-1.4-0.9-2.8-1.6-4.1c-2.6-4.5-4.2-4.8-7.3-0.7c-1.9,2.5-4.6,3.5-7.1,4.9c-2.9,1.5-3.3,3.3-2.1,6c2.9,6.7,8,10.6,15,11.8
		C404.2,404.3,406.7,405.6,409.1,407.4z M376.2,383.1c2.4,0,3.6-0.9,4.3-3.6c1.5-6,4.1-11.6,9.6-15c2.7-1.7,2.6-3.8,1.7-5.9
		c-3.8-8.5-7.8-16.9-12-25.1c-1.2-2.4-2.9-3.5-5.8-0.8c-3.9,3.6-6.2,8.1-8.1,12.7c-2.9,6.9-5.3,14.2-4.5,22
		C362.4,376,369.1,383.1,376.2,383.1z M396,370.3c0.1-0.9,0-1.7-0.8-2.2c-1.3-0.8-2.6-0.4-3.7,0.3c-3.1,2-4.3,5.3-5.5,8.6
		c-0.4,1-0.6,1.9,0.1,2.8c1,1.2,2.3,0.6,3.2,0.2C393.5,378.1,395.2,374.4,396,370.3z"/>
	<path class="st0" d="M448.1,482.6c7.3,0.6,9.1,6.6,11.5,11.3c5.7,10.9,10.9,22.2,16.1,33.4c4.9,10.8,9.4,21.8,14.4,32.5
		c2.1,4.6,5.3,8.6,7.3,13.3c1,2.4,2.6,4.5,1.4,7.4c-0.4,0.9,0.1,2,1.4,2.1c4.2,0.5,3,1.5,0.7,3.6c-9.3,8.3-20.7,13.3-31.5,19.1
		c-10.5,5.6-21.3,10.7-32,15.8c-10.1,4.8-20.4,9.5-30.6,14.2c-10.7,4.9-21.3,9.8-32.1,14.5c-12.7,5.6-24.8,12.5-37.9,17.1
		c-0.7,0.3-1.5,0.4-3.1,0.7c4.1-6.4,9.9-9.6,15.7-12.1c8-3.4,15.2-8.4,23.5-10.9c3.7-1.1,3.8-5,4.1-7.9c0.9-8.5,4.7-16.1,7.9-23.7
		c5.9-13.7,12.9-26.8,22.4-38.4c5.5-6.7,11.4-13.1,19.2-17.4c10-5.5,22.3-1.9,27.1,8.2c0.2,0.4,0.2,1,0.4,1.4c3,6.6,3,6.6,9.8,3.8
		c3.8-1.6,9.6,0.1,12.2,4c1.7,2.5,3.9,4.7,3.8,8.3c0,3.2,2.2,3.6,4.8,2c4.8-3,5-4.7,1.5-12c-8.5-17.9-15.3-36.5-22.6-54.8
		c-3.4-8.5-6.9-17-11.8-24.8C449.8,490.3,448,486.8,448.1,482.6z M436.4,559.9c-0.5,0.1-1.8,0.5-3.1,0.8
		c-11.6,3.5-19,12.2-25.9,21.3c-9.1,12-15.9,25.4-22,39.2c-2.6,5.8-5.1,11.6-7.7,17.5c-0.5,1.1-0.7,2.4,0.1,3.3
		c0.9,0.9,1.7-0.3,2.6-0.7c4.9-2.3,9.8-4.5,14.6-6.9c15-7.3,30-14.6,45-21.8c1.7-0.8,3.2-1.4,3.1-3.8c-0.4-8.1,2-15.5,6.4-22.2
		c3.1-4.7,4.1-9,0.8-13.8c-0.3-0.5-0.2-1.3-0.4-1.9C448,565,442.1,559.9,436.4,559.9z M459.8,589.1c0,0,0.1,0,0.1,0
		c0,2.5,0.1,5,0,7.4c-0.1,2.8,1,3.7,3.5,2.2c2.4-1.4,4.6-3,7.1-4.2c5.2-2.3,6.9-5.7,3.6-10.8c-0.4-0.7-0.2-1.7-0.6-2.4
		c-1.9-2.8-3.9-6.7-7.8-5.3c-3.4,1.2-7.6,3.1-6.1,8.5C460.1,586,459.8,587.6,459.8,589.1z M453.4,592.5c-3.8,5.7-4.2,7.1-3.2,12
		C453.7,601.3,454.2,597.6,453.4,592.5z"/>
	<path class="st0" d="M229.7,346.5c2,7.2,3.4,14.5,4.5,21.9c1.7,11.4,0.6,23.1,2.9,34.5c0.8,3.8,1.3,5.8,6.4,5.3
		c12.7-1.3,25.1,0.2,37.4,4.7c18.7,6.8,30,20.3,36.2,38.4c4.9,14.5,5.5,29.6,0.2,44.1c-5.5,14.9-16.1,25.8-29.9,33.6
		c-7.7,4.3-15.8,7.2-24.5,8.3c-0.7,0.1-1.3,0.4-1.9,0.4c-2.4-0.2-6,0.1-6.4-2.3c-0.4-2.4,3.2-1.8,5.1-2.5
		c13.1-4.7,26.5-8.8,36.8-18.9c15-14.6,19.6-32.4,15.8-52.7c-2.4-12.8-7.6-24-17.4-32.5c-10.6-9.2-23.2-14.1-37.1-14.8
		c-7.4-0.4-14.9-1.3-22.1,1.2c-2.3,0.8-2.7-0.5-3-1.9c-0.5-2.4-1.2-4.9-1.2-7.3c-0.1-18.5-3.6-36.9-3.1-55.4c0-1.3,0-2.6,0-3.9
		C228.8,346.6,229.3,346.6,229.7,346.5z"/>
	<path class="st0" d="M338.2,176.5c1.3,1.1,1.5,2.4,1.3,3.8c-1.5,9.6-3.2,19.1-6.2,28.3c-4.2,13.1-8.9,25.9-15.5,38.1
		c-8.7,16.2-19,31.1-36,39.5c-7.2,3.6-14.4,7.7-22.8,8.4c-14.5,1.2-25-5.8-33.3-16.5c-5.7-7.3-11.5-14.7-15.8-23
		c-5.5-10.8-9.7-22.1-10.4-34.4c-0.1-1.1,0-2.3,0.2-3.5c0-0.4,0.4-0.7,0.7-1.2c4.8,5.1,6.2,11.6,7.9,17.7
		c3.8,14.1,10.2,26.6,20.8,36.8c11.2,10.9,24.6,16,40.1,13.8c8.2-1.2,15.3-5.9,21.5-11.4c12.1-10.9,20-24.9,26.6-39.5
		c6.1-13.7,10.8-27.9,14-42.7C332.2,185.8,332.8,179.7,338.2,176.5z"/>
	<path class="st0" d="M41.5,424.7c-0.6-6.9,3.6-12.2,6.6-17.6c13.4-23.9,31-44.4,51.2-62.8c10.2-9.3,20.9-18.1,32.3-25.8
		c15.3-10.3,31.6-18.6,49.3-24.3c8.7-2.8,17.2-6.1,26.5-7.1c3-0.3,5.9-0.5,8.8-0.3c0.3,1.5-0.6,2.5-1.5,2.9
		c-8.1,3.8-15.7,8.8-24.6,10.6c-10.8,2.2-21.1,6.1-30.9,10.7c-12.8,6-25.1,13.1-36.3,22c-15.8,12.6-30.4,26.4-43.6,41.7
		c-11.5,13.4-21.3,27.9-30.1,43.2C47.6,420.7,46.3,424.7,41.5,424.7z"/>
	<path class="st0" d="M260.3,614.9c-3-4.7-4.7-9.6-4.8-14.3c-0.1-7.7-2.8-14.9-3.7-22.3c-1-8-2.4-15.9-3.4-23.8
		c-0.4-3.2-1.2-6.1-2-9.1c-0.6-2.2,0.4-4.2,2.3-5c2.4-0.9,2.3,1.7,3,2.9c4.4,7.2,4,15.6,4.8,23.5c1.6,14.2,4.4,28.3,4.6,42.7
		C261.2,611,261.6,612.7,260.3,614.9z"/>
	<path class="st0" d="M281.1,184.4c0.7-3-0.8-6.3-0.7-9.8c0.1-2.1,0.6-3.7,3-3.7c2.2,0,2.6,1.7,2.6,3.5c-0.2,6.4,2.7,12.7-0.1,19.1
		c-2.1,5.1-8.2,8.2-13.6,6.9c-8.2-2.1-13-8-16.9-14.9c-1.1-2-2-4.2-2.8-6.3c-0.8-2.1-0.6-4,2.1-4.5c2.1-0.4,3.1,0.4,3.7,2.8
		c1.7,7.5,6.6,13,12.9,17c4.4,2.8,9.5-0.2,9.9-5.5C281.1,187.5,281.1,186.2,281.1,184.4z"/>
	<path class="st0" d="M449.5,101.7c-1.5-0.3-3.1,0.6-3.7-1.1c-0.6-1.6,1-2.3,1.9-3.1c5.9-5.3,13.5-7.8,20.1-11.8
		c4.5-2.8,9.2-3.8,14.2-4.6c1.4-0.2,2.7-0.4,3.5,1c0.7,1.4-0.6,2-1.3,2.9c-3.9,4.7-9.5,7-14.8,9.6c-5.4,2.7-11.4,3.9-16.7,6.9
		C451.8,101.9,450.4,101.7,449.5,101.7z"/>
	<path class="st0" d="M267.3,138.6c4.3-0.4,8.6,0,12.6,2.4c1.7,1,3.9,1.8,2.5,4.4c-1.1,1.9-2.4,2.2-4.9,1.5
		c-12.1-3.8-23.2-2.3-32.2,7.5c-1.6,1.7-3.3,1.4-4.7,0.4c-1.4-1-1.6-2.8-0.4-4.4c1.7-2.3,3.9-3.9,6.3-5.5
		C252.7,140.6,259.4,137.8,267.3,138.6z"/>
	<path class="st0" d="M470.7,144.3c-5.2,0-10.5,0.1-15.7-0.1c-1.6,0-3.4-0.6-3.8-2.5c-0.4-2,1.4-2.3,2.6-3.1
		c5.8-4.1,12.5-3.3,18.9-3.2c3.4,0.1,7,1.4,6.8,5.3c-0.1,3.7-3.9,3.7-6.9,4c-0.7,0.1-1.3,0-2,0C470.7,144.6,470.7,144.4,470.7,144.3
		z"/>
	<path class="st0" d="M442.4,58.3c-0.8,2.9-1.4,6-2.4,8.9c-1.6,4.7-3.3,9.5-5.1,14.1c-0.5,1.2-1.1,2.9-3.1,2.4
		c-1.8-0.4-1.6-1.8-1.8-3.1c-1.5-9.5,1.9-17.4,7.7-24.6c0.7-0.9,1.7-2.3,3.3-1.7C442.8,55,441.9,56.9,442.4,58.3z"/>
	<path class="st0" d="M297.2,288.7c2.5,0.8,5.2,1,7.1,2.4c6,4.5,11.8,9.5,17.6,14.3c0.7,0.6,1.8,1.2,1.3,2.3c-0.6,1.2-1.8,1-3.1,1
		c-3.5-0.2-5.8-2.9-8.2-4.7c-4.9-3.5-9.9-6.9-15.3-9.5c-1.8-0.9-1.6-2.2-1.6-3.7C295.1,289.3,296.3,289.1,297.2,288.7z"/>
	<path class="st0" d="M272.2,252.8c-5.5-1.8-12.7-3-16.1-10.5c-0.7-1.5-1.8-3.4,0.5-4.1c1.4-0.4,3.3-1.4,4.7,1.6
		c2.4,5.1,7.8,6.7,12.9,8c1.7,0.4,3.6,0.3,3.3,2.5C277.3,252.4,275.6,253.1,272.2,252.8z"/>
</g>
</svg>
