<svg width="239" height="201" viewBox="0 0 239 201" fill="none" xmlns="http://www.w3.org/2000/svg">
<path d="M211.367 124.619C213.542 125.707 214.475 127.882 215.407 129.902C216.805 132.854 218.049 135.807 219.136 138.759C220.224 141.401 221.156 144.042 221.933 146.839C222.244 148.237 222.71 149.481 223.176 150.879C224.885 155.696 226.129 160.513 227.527 165.33C228.615 169.059 229.392 172.944 230.324 176.828C231.256 181.49 232.344 186.151 232.81 190.968C232.965 192.522 233.276 194.231 233.121 195.785C233.121 196.718 232.966 197.028 231.878 196.407C230.169 195.475 228.149 195.475 226.595 196.251C222.71 197.961 218.67 198.271 214.475 198.271C213.076 198.271 211.833 198.116 210.59 198.893C210.745 199.515 211.212 199.204 211.522 199.204C219.292 199.204 227.061 199.204 234.83 199.204C235.762 199.204 236.539 199.359 237.627 199.981C235.607 200.136 233.898 200.291 232.189 200.291C223.487 200.447 214.941 200.602 206.239 200.602C203.598 200.602 200.956 201.224 198.315 200.913C195.673 200.602 193.032 200.758 190.39 200.758C177.182 200.758 163.974 200.758 150.611 200.758C114.562 200.602 78.5126 200.291 42.6187 200.447C34.2279 200.447 25.9925 200.447 17.6017 200.447C16.9801 200.447 16.3586 200.447 15.7371 199.981C16.8248 199.359 17.9124 199.204 19.0001 199.204C24.4386 198.738 29.8771 198.893 35.3156 198.893C46.6587 198.893 58.1572 198.893 69.5003 199.048C71.0542 199.048 72.7634 199.048 74.3173 199.204C75.8711 199.359 75.8711 198.582 75.7157 197.495C75.5603 196.251 75.4049 195.164 74.9388 193.921C74.4726 192.211 74.7834 190.502 74.628 188.948C74.628 188.638 74.7834 188.171 74.3173 188.171C74.0065 188.171 73.8511 188.482 73.6957 188.793C72.2972 191.124 71.5203 193.61 70.7434 196.251C70.588 196.718 70.588 197.339 69.9665 197.339C69.3449 197.184 69.3449 196.562 69.5003 195.941C70.2772 192.988 71.3649 190.191 73.0742 187.55C73.8511 186.462 74.3173 185.375 74.3173 183.976C73.2296 173.565 73.6957 163.154 73.6957 152.588C73.6957 151.656 74.0065 151.19 74.9388 151.034C77.1142 150.568 79.1342 150.257 81.3096 150.102C89.545 149.636 97.7804 149.325 106.016 149.325C113.319 149.325 120.622 149.791 128.081 150.102C130.101 150.102 132.276 150.724 134.296 151.034C135.85 151.345 136.782 152.744 136.782 154.919C137.404 167.661 137.714 180.247 137.093 192.988C137.093 194.542 137.093 196.096 136.782 197.495C136.471 198.582 136.782 199.048 138.025 199.048C144.085 199.048 149.99 199.048 156.05 199.048C157.138 199.048 157.448 198.582 157.293 197.65C156.982 195.63 156.671 193.61 156.516 191.745C156.205 187.395 154.962 183.199 154.03 179.004C153.253 176.207 152.476 173.41 151.388 170.768C150.145 167.816 149.058 164.864 147.659 162.067C145.173 157.094 142.531 152.433 138.802 148.393C135.694 144.974 131.965 141.867 127.459 140.468C126.993 140.313 126.837 140.002 126.682 139.536C129.168 139.691 131.344 140.624 133.208 142.022C139.113 145.907 142.997 151.345 146.571 157.405C149.057 161.601 151.078 166.107 152.787 170.613C154.651 175.585 156.205 180.868 157.138 186.151C157.759 190.191 159.158 194.076 158.536 198.271C158.381 199.359 158.847 199.515 159.779 199.515C170.501 199.515 181.067 199.515 191.788 199.515C192.721 199.515 193.032 199.359 193.187 198.271C193.342 196.251 193.964 194.387 194.119 192.367C194.43 188.948 194.741 185.53 194.896 182.111C195.207 173.721 194.585 165.33 193.342 156.939C192.41 151.501 191.633 146.062 190.079 140.779C189.768 139.691 189.768 138.604 189.302 137.516C188.681 138.604 188.059 139.536 187.748 140.624C187.593 140.934 187.593 141.711 187.127 141.556C186.35 141.4 186.816 140.779 186.816 140.313C186.816 139.225 187.282 138.137 187.748 137.205C188.681 135.34 188.525 133.476 187.904 131.611C186.039 126.328 184.33 121.045 182.465 115.762C181.378 112.965 179.979 110.168 178.581 107.371C178.425 107.06 178.27 106.75 178.425 106.439C179.513 106.439 179.824 107.527 180.135 108.148C181.999 111.567 183.553 115.14 184.951 118.714C185.884 121.045 186.816 123.376 187.593 125.862C188.681 129.28 189.613 132.854 190.701 136.428C192.41 141.867 193.498 147.461 194.585 153.054C195.052 155.23 195.518 155.696 197.538 155.851C204.375 156.784 210.279 155.074 215.407 150.879C216.495 150.102 217.272 149.014 218.359 148.237C220.379 146.684 220.224 144.974 219.447 142.954C217.893 138.759 216.184 134.719 214.319 130.679C213.542 128.348 212.455 126.484 211.367 124.619ZM103.53 151.345C94.6727 151.501 85.9712 150.724 77.1142 152.122C75.5603 152.433 75.0942 152.588 75.0942 154.142C74.9388 161.756 75.5603 169.525 75.7157 177.139C75.8711 183.821 76.3373 190.658 76.8034 197.339C76.8034 197.65 76.8034 198.116 76.8034 198.427C76.8034 199.048 77.2696 199.204 77.8911 199.204C78.5127 199.204 78.668 198.738 78.5127 198.271C78.0465 196.407 78.3573 194.387 78.2019 192.522C77.1142 185.841 77.1142 179.004 76.3373 172.322C75.7157 167.039 76.1819 161.601 76.0265 156.317C76.0265 154.764 76.4926 153.987 78.0465 153.676C81.465 153.21 85.0388 152.744 88.4573 152.433C92.9635 151.811 97.625 152.122 102.131 152.122C113.008 151.967 123.73 151.656 134.451 154.297C134.762 154.297 135.073 154.608 135.228 154.142C135.384 153.831 135.228 153.521 134.917 153.21C134.296 152.744 133.674 152.588 133.053 152.433C129.168 151.967 125.284 151.345 121.399 151.345C115.339 151.19 109.434 151.345 103.53 151.345ZM102.597 174.653C102.597 176.984 105.084 179.625 107.57 179.625C109.434 179.625 111.92 177.605 111.92 175.43C111.765 172.944 110.211 170.613 107.104 170.458C104.617 170.458 102.597 172.322 102.597 174.653Z" fill="#3A2D52"/>
<path d="M78.8232 50.5002C83.0186 50.9664 85.6601 53.6079 87.8355 57.0264C88.3017 57.6479 88.4571 59.0464 87.3694 59.8233C86.9032 60.2895 86.7478 60.7556 87.5248 61.0664C87.6801 61.2218 87.8355 61.3772 87.9909 61.5325C88.7678 62.1541 89.7001 62.931 89.0786 63.7079C88.6124 64.4849 87.6801 65.4172 86.4371 65.4172C86.1263 65.4172 85.5047 64.7956 85.5047 65.4172C85.5047 66.0387 85.6601 66.8156 86.5924 66.971C88.4571 67.2818 90.0109 66.8157 91.4094 65.5726C94.5171 62.7756 94.0509 63.8633 91.4094 60.7556C90.9432 60.1341 90.3217 59.5125 89.5448 59.3572C89.234 59.3572 88.9232 59.0464 89.0786 58.5802C89.234 58.2695 89.5448 58.2695 89.8555 58.4248C91.8755 59.3572 93.4294 60.911 94.5171 62.931C94.8279 63.3972 94.3617 63.8633 94.0509 64.1741C92.0309 66.3495 89.8555 68.5249 86.4371 67.9033C85.6601 67.748 85.8155 68.3695 85.8155 68.6803C85.9709 69.768 85.5047 70.8557 84.7278 71.1664C83.4847 71.4772 82.2417 71.6326 80.9986 70.7003C79.9109 69.768 78.357 69.3018 77.2693 67.748C78.8232 67.9033 79.6001 68.991 80.6878 69.4572C80.8432 69.6126 80.9986 69.768 81.154 69.768C82.0863 69.9233 83.0186 70.7003 84.1063 69.9233C85.0386 69.1464 84.4171 68.2141 84.4171 67.2818C84.4171 66.971 84.2617 66.8156 84.1063 66.5049C83.6401 65.5726 83.9509 64.0187 83.174 63.5526C82.397 62.931 81.4647 64.1741 80.377 64.3295C76.6478 65.1064 72.297 61.6879 72.297 57.8033C72.297 55.7833 72.4524 53.7633 73.5401 51.8987C73.8509 51.4325 74.1616 50.811 73.3847 50.3448C71.2093 49.4125 69.1893 48.014 67.1693 46.6156C66.0816 45.994 65.46 46.3048 65.1493 47.2371C64.6831 48.6356 63.5954 49.7233 62.6631 50.811C62.0416 51.4325 61.42 51.7433 60.6431 51.4325C59.8662 51.1217 59.5554 50.5002 59.4 49.5679C59.4 47.5479 59.5554 45.6833 59.0893 43.6633C58.6231 41.6433 57.38 40.2448 55.8262 40.2448C53.6508 40.2448 52.2523 41.7986 51.9415 44.1294C51.32 48.014 53.6508 49.8787 56.9139 51.5879C55.5154 52.0541 54.5831 51.4325 53.8062 50.811C49.7662 48.1694 50.5431 41.4879 53.8062 39.4679C54.2723 39.1571 54.5831 39.0017 54.1169 38.2248C52.2523 34.6509 52.0969 30.9217 52.8739 27.037C53.9616 22.2201 56.7585 18.6462 61.1093 16.6262C67.1693 13.6739 73.5401 13.5185 79.7555 18.1801C82.7078 20.3555 85.0386 23.1524 86.7478 26.2601C87.0586 26.7263 87.214 27.1924 87.9909 26.8817C92.9632 24.5509 98.2463 24.5509 103.529 25.1724C108.813 25.794 113.474 27.9694 116.271 32.7863C117.514 34.8063 117.825 37.2925 117.514 39.6232C117.514 39.934 117.048 40.4002 116.893 40.7109C116.582 41.1771 116.271 41.6433 115.805 41.3325C115.183 41.0217 115.649 40.5556 115.96 40.0894C116.737 39.1571 116.737 37.914 116.426 36.8263C115.183 32.7863 112.853 29.6786 108.657 27.9694C104.151 26.1047 99.6448 25.6386 94.8279 26.2601C94.6725 26.2601 94.5171 26.4155 94.3617 26.8817C95.7602 26.8817 97.1586 26.8817 98.4017 26.8817C102.752 26.7263 106.793 27.9694 110.366 30.3001C114.096 32.6309 116.271 36.2048 114.717 41.0217C114.406 42.2648 115.339 42.4202 115.805 42.8863C116.582 43.6633 116.271 42.4202 116.582 42.2648C117.203 41.954 117.514 42.4202 117.825 42.7309C119.689 44.751 120.156 47.0817 119.379 49.7233C117.669 55.6279 111.454 59.5125 105.705 59.5125C102.286 59.5125 99.0232 58.7356 96.3817 56.4048C95.4494 55.4725 93.8955 56.0941 92.9632 55.3171C92.4971 55.0064 92.0309 54.3848 91.4094 54.3848C90.9432 54.3848 90.6325 54.0741 90.6325 53.6079C90.6325 52.9864 91.254 53.1418 91.7201 53.1418C91.8755 53.1418 92.1863 53.1418 92.4971 53.1418C92.3417 51.8987 91.5648 51.1217 90.9432 50.3448C89.3894 47.8587 88.1463 45.2171 87.0586 42.5756C86.5924 41.4879 85.8155 40.7109 85.6601 39.4679C85.6601 39.0017 85.194 39.1571 84.8832 39.3125C79.4447 41.7986 73.5401 42.4202 67.6355 43.3525C67.1693 43.5079 66.8585 43.5079 66.7031 43.974C66.5477 44.5956 67.0139 44.5956 67.1693 44.751C69.1893 46.1494 71.3647 47.5479 73.5401 48.791C75.5601 49.8787 75.5601 50.1894 74.6278 52.5202C73.6955 54.5402 73.2293 56.7156 74.0063 59.0464C74.7832 61.5325 78.357 63.5526 80.6878 62.7756C83.3293 61.9987 85.194 60.1341 86.7478 57.8033C87.3694 56.871 86.9032 56.0941 86.4371 55.4725C84.7278 53.1418 82.5524 51.5879 79.9109 50.3448C79.4447 51.2771 78.9786 51.1217 78.8232 50.5002ZM117.514 46.771C117.203 48.791 117.514 50.5002 116.582 52.2094C115.805 53.6079 114.562 54.851 113.785 56.4048C117.359 53.9187 118.757 49.4125 117.514 46.771Z" fill="#3A2D52"/>
<path d="M79.8537 21.1013C76.8747 17.7913 73.3717 16.688 71.9925 16.55H71.165H65.3725L61.235 17.7913L56.6837 21.1013L53.7875 26.0663L52.96 31.4451L53.7875 35.9963L55.8562 38.0651L58.3387 40.1338L59.58 41.7888L60.4075 46.7538L61.235 49.6501L62.4762 48.4088L65.3725 44.2713L66.6137 42.6163L68.2687 41.7888H71.165L76.5437 40.9613L80.6812 39.3063L84.405 38.4788H86.06L86.4737 39.3063L87.3013 40.9613L89.7838 45.0988L91.025 47.5813L93.0938 51.3051L94.335 53.7876L95.5763 54.6151L97.2313 55.8563L101.369 57.9251L106.334 58.3388L109.644 57.9251L112.54 56.6838L115.85 53.7876L117.505 50.8913V47.5813L117.091 44.2713L115.023 42.6163V41.7888L115.85 38.0651L115.023 34.7551L112.54 31.4451L109.23 28.5488L105.506 26.8938L100.128 26.4801H95.5763C94.7488 26.7559 92.68 27.4731 91.025 28.1351C88.9563 28.9626 86.06 29.3763 85.6462 28.1351C85.2325 26.8938 83.5775 25.2388 79.8537 21.1013Z" fill="#00C9A5"/>
<path d="M54.8939 77.8479C53.0293 77.3818 51.6309 77.071 50.2324 76.7603C47.7462 76.1387 45.1047 76.2941 42.6185 76.7603C36.0923 78.0033 30.3431 80.9557 24.7492 84.5295C17.1353 89.5018 10.9199 95.8726 5.48146 103.176C3.30607 106.283 0.975282 109.391 0.664512 113.431C0.353741 117.627 0.664521 121.822 1.59683 125.862C2.21837 128.97 2.9953 131.922 3.92761 134.874C4.23838 135.962 4.85992 136.894 5.1707 137.827C5.32608 138.293 5.94762 138.293 6.25839 138.293C8.58916 138.137 10.9199 137.982 12.7846 136.273C12.9399 136.117 13.0953 135.962 13.2507 135.962C15.4261 135.496 14.8046 134.408 14.183 133.01C12.163 128.659 11.3861 123.997 11.0753 119.18C11.0753 118.714 10.7645 117.937 11.5415 117.782C12.3184 117.782 12.163 118.559 12.163 119.025C12.6292 120.89 12.4738 122.91 13.2507 125.085C15.2707 120.579 17.4461 116.539 20.0877 112.81C21.3307 110.945 22.4185 108.925 24.2831 107.371C24.4385 107.216 24.7492 106.594 25.2154 106.905C25.5261 107.216 25.3708 107.682 25.06 107.993C24.1277 109.391 23.1954 110.634 22.1077 112.033C21.4861 112.965 20.8646 113.897 20.0877 114.83C19.1553 116.073 19.7769 117.005 20.3984 118.093C23.04 123.065 26.4585 127.571 31.4308 130.524C34.0723 132.077 37.0246 133.01 40.2877 132.699C42.4631 132.544 44.6385 130.524 45.2601 127.882C45.8816 125.396 47.1247 123.376 48.057 121.045C49.7662 117.16 51.7862 113.276 54.117 109.702C55.0493 108.303 55.8263 106.75 57.2247 105.507C57.5355 107.06 56.4478 108.148 55.8262 109.08C53.8062 112.654 51.7862 116.073 50.077 119.802C48.6785 122.599 47.4355 125.551 46.3478 128.504C45.5708 130.524 44.9493 132.854 44.1724 134.874C42.3077 140.157 41.0647 145.751 39.977 151.19C38.5785 157.716 37.9569 164.553 37.18 171.234C36.2477 179.314 36.5585 187.239 36.8693 195.319C36.8693 196.096 37.0246 196.873 36.4031 197.495C35.7816 196.096 35.6262 194.853 35.6262 193.455C35.3154 186.618 35.3154 179.625 35.7816 172.788C36.0923 167.35 36.7139 161.911 37.8016 156.473C38.4231 152.588 39.3554 148.704 39.977 144.664C40.2877 142.799 41.22 140.934 41.5308 139.07C41.6862 138.137 41.3754 137.982 40.5985 138.137C34.3831 138.604 29.5662 135.651 24.9046 131.922C21.6415 129.436 19.4661 126.017 17.4461 122.443C17.2907 121.977 17.1353 121.511 16.98 121.045C16.203 121.977 15.7369 123.065 15.2707 123.997C15.1153 124.463 14.8046 125.085 14.4938 125.396C13.7169 126.017 13.7169 126.95 14.0276 127.727C15.1153 130.524 15.7369 133.476 17.2907 136.117C17.4461 136.428 17.6015 137.05 18.223 136.894C18.6892 136.894 18.5338 136.273 18.6892 135.962C18.8446 135.34 19.1554 134.564 19.9323 134.719C20.8646 135.03 20.3984 135.807 20.0877 136.273C17.9123 141.711 14.183 145.596 8.74456 147.927C8.2784 148.082 7.96763 148.237 7.50147 148.237C5.79224 148.393 5.17069 147.771 5.48146 145.907C5.63685 144.974 6.25839 144.353 6.72455 143.576C6.87993 143.265 7.1907 143.11 7.50147 143.42C7.65686 143.731 7.65685 144.353 8.123 143.887C8.58916 143.576 9.05532 143.265 9.05532 142.644C9.05532 140.624 7.96763 139.38 5.94762 138.914C4.083 138.448 3.9276 136.584 3.46145 135.185C1.13067 128.348 -0.26779 121.2 0.0429805 113.897C0.198366 110.013 1.75222 107.06 3.61684 104.108C6.72455 99.6019 10.143 95.4065 14.183 91.6772C18.5338 87.6372 23.1954 84.0634 28.3231 80.9556C32.0523 78.7803 35.7816 77.071 39.977 75.8279C44.9493 74.4295 49.9216 74.1187 54.7385 76.7603C54.4278 77.2264 54.5832 77.3818 54.8939 77.8479ZM11.0753 144.664C11.2307 144.664 11.2307 144.664 11.3861 144.508C13.2507 142.954 15.5815 141.556 16.8246 139.225C16.98 138.914 16.0477 136.117 15.5815 135.962C15.4261 135.962 15.2707 135.962 15.1153 136.117C13.5615 137.671 11.5415 138.604 9.36609 139.07C8.58916 139.225 8.74454 139.691 8.89993 140.157C9.52147 141.4 9.67685 142.799 10.4538 144.042C10.6092 144.353 10.6092 144.664 11.0753 144.664Z" fill="#3A2D52"/>
<path d="M121.088 138.759C122.797 138.604 123.73 140.468 125.283 139.847C125.283 140.934 124.662 141.711 124.04 142.333C121.399 145.596 117.98 147.771 113.785 148.859C110.056 149.791 105.86 147.616 103.374 143.887C103.063 143.265 102.597 142.799 102.286 142.333C101.82 141.556 101.665 140.779 102.597 140.158C103.685 139.381 103.53 138.914 102.442 137.982C100.422 136.118 99.0233 133.631 97.7803 131.145C96.5372 128.659 95.4495 126.328 94.8279 123.687C94.3618 121.511 93.5849 119.336 94.2064 117.005C94.5172 118.093 95.1387 119.181 95.2941 120.424C95.6049 123.221 96.8479 125.707 97.7803 128.193C99.1787 131.767 101.354 135.185 104.151 137.827C105.083 138.759 106.171 139.691 107.414 140.313C110.366 141.867 113.474 141.556 116.426 140.002C120.156 137.982 122.487 134.874 123.885 130.834C124.351 129.591 124.817 128.504 125.439 127.261C125.594 126.95 126.06 126.328 126.527 126.639C126.837 126.794 126.682 127.416 126.527 127.882C125.594 131.767 124.04 135.185 121.399 138.293C121.399 138.293 121.243 138.448 121.088 138.759Z" fill="#3A2D52"/>
<path d="M228.304 156.939C229.702 154.608 230.945 152.433 232.188 150.257C234.364 146.528 236.228 142.799 236.695 138.448C237.005 136.428 236.384 134.564 235.762 132.699C232.499 124.153 226.75 117.471 220.224 111.411C216.65 108.148 212.765 105.196 208.725 102.554C205.151 100.223 201.422 98.2034 197.382 96.4941C196.605 96.1834 195.984 95.7172 195.051 95.4065C194.274 95.2511 194.896 94.4741 194.741 94.1634C194.585 93.2311 193.964 92.2988 193.342 91.5218C191.477 88.5695 188.991 86.3941 185.728 85.151C183.708 84.3741 181.999 85.4618 180.601 86.2387C177.337 87.948 174.696 90.4341 172.676 93.5418C172.054 94.4742 172.054 95.7172 170.967 96.6495C170.656 95.4065 170.811 94.4741 171.433 93.3864C173.453 89.8126 176.561 87.3264 179.824 85.151C183.398 82.8203 186.816 83.2864 190.545 86.3941C192.565 88.1034 194.274 89.968 195.362 92.4541C195.518 92.7649 195.673 93.0757 195.673 93.2311C194.896 95.2511 196.605 95.0957 197.693 95.5618C202.199 97.1157 206.239 99.2911 210.124 101.933C215.251 105.196 219.913 109.08 224.108 113.12C227.061 115.917 229.702 118.87 232.033 122.133C234.053 125.085 235.918 128.193 237.161 131.456C238.248 134.408 238.87 137.516 238.093 140.779C236.695 146.217 233.898 151.034 230.79 155.541C230.168 156.162 229.702 156.939 228.304 156.939Z" fill="#3A2D52"/>
<path d="M190.234 55.1618C191.477 56.0941 191.633 57.648 192.41 58.8911C195.828 64.3295 201.888 65.1065 207.016 62.6203C209.347 61.5326 210.59 57.8034 209.657 54.8511C209.191 53.1418 208.259 51.7433 207.171 50.5003C204.841 47.8587 203.908 44.751 204.53 41.0218C205.307 36.3602 204.996 31.854 202.51 27.6586C199.868 23.3079 193.653 20.8217 188.836 22.2202C185.107 23.3079 182.776 25.3279 181.067 28.7463C180.6 29.5233 180.911 30.4556 179.979 31.2325C180.134 28.1248 181.067 25.4833 183.242 23.774C186.971 20.8217 191.322 19.5786 196.139 21.1325C201.422 22.8417 204.374 26.5709 205.928 32.0094C206.861 35.5833 206.861 38.8464 205.928 42.4202C205.462 44.2849 206.239 46.1495 207.327 47.7033C208.725 49.568 210.279 51.4326 211.677 53.2972C214.164 57.0264 213.076 61.688 209.347 64.0188C206.239 65.8834 202.976 66.3495 199.402 65.4172C195.828 64.4849 193.031 62.6203 191.011 59.5126C190.079 58.2695 189.613 56.2495 190.234 55.1618Z" fill="#3A2D52"/>
<path d="M177.182 65.2617C177.804 65.8833 178.27 66.194 178.581 66.8156C179.513 68.0586 180.911 67.7479 181.844 66.5048C182.776 65.2617 182.776 63.7079 183.087 62.3094C184.019 57.9586 183.708 53.7632 182.931 49.4124C182.31 45.217 180.756 41.6432 178.581 38.0693C176.561 34.9616 173.919 32.4754 170.501 31.3877C167.859 30.6108 165.062 30.6108 162.421 31.2324C158.691 32.1647 155.273 33.7185 152.942 36.8262C152.476 37.4478 152.165 38.2247 151.699 38.8462C151.544 36.9816 152.476 35.5831 153.719 34.4955C158.07 30.7662 163.197 29.2124 168.947 30.1447C170.967 30.4554 172.831 30.9216 174.541 32.1647C175.007 32.4754 175.473 32.4754 176.094 32.3201C178.736 31.3878 182.621 32.7862 183.708 35.4278C184.641 37.2924 185.573 39.3124 184.796 41.4878C184.641 41.7986 184.641 42.2647 184.485 42.4201C182.776 43.8186 183.553 45.5278 184.019 47.0817C185.884 53.7632 185.573 60.2894 183.864 66.8156C183.708 67.2817 183.398 67.5925 183.242 67.9033C182.465 69.1463 181.533 70.5448 179.668 70.0786C177.959 69.6125 176.871 67.2817 177.182 65.2617Z" fill="#3A2D52"/>
<path d="M156.671 41.1772C154.962 42.2649 153.097 42.1095 151.543 41.7987C148.591 41.1772 145.794 40.4002 142.997 39.6233C139.579 38.691 136.316 38.8464 132.897 39.7787C129.013 40.8664 126.216 43.1972 124.506 46.6156C122.797 50.0341 122.486 53.7634 123.574 57.4926C124.506 60.2895 125.905 62.6203 128.236 64.3296C130.256 65.728 132.431 66.3496 134.762 65.728C135.85 65.4173 136.937 65.2619 138.025 64.9511C138.646 64.7957 139.734 64.6403 138.957 63.5526C138.802 63.3972 138.957 63.0865 139.113 63.0865C140.2 62.4649 141.443 61.8434 142.842 62.1542C143.463 62.3095 143.93 62.7757 143.774 63.3973C143.619 64.1742 142.997 63.8634 142.531 63.708C141.443 63.5526 140.511 63.5526 139.89 64.7957C139.268 65.8834 138.025 66.0388 136.782 66.505C133.208 67.9034 129.79 67.5926 126.837 65.1065C122.797 61.688 121.088 57.3372 121.399 52.0541C121.71 47.548 123.419 43.6633 127.148 40.711C130.877 37.7587 135.383 37.1372 140.045 37.4479C142.997 37.6033 145.639 39.0018 148.436 39.6233C150.456 40.0895 152.631 40.4002 154.651 40.5556C155.273 40.711 156.05 40.5556 156.671 41.1772Z" fill="#3A2D52"/>
<path d="M134.14 58.4249C135.539 57.9587 136.627 58.7357 137.714 59.0464C142.842 60.6003 147.504 59.8234 152.01 57.3372C152.942 56.8711 153.874 56.0941 154.34 55.0064C155.117 53.4526 156.205 53.2972 157.293 54.6957C159.624 57.3372 162.576 57.9587 165.839 58.4249C166.927 58.5803 167.548 58.2695 167.393 56.8711C167.237 55.1618 168.014 53.608 168.791 52.3649C170.345 49.8787 174.23 50.1895 176.094 52.831C176.871 53.9187 177.182 55.0064 177.027 56.4049C177.027 58.7357 177.337 61.2218 176.094 63.3972C175.317 64.7957 174.074 65.728 172.676 65.2619C172.365 65.1065 172.054 65.1065 172.054 64.6403C172.054 64.3295 172.365 64.0188 172.676 64.0188C174.541 63.8634 175.007 62.4649 175.473 61.0665C176.25 58.7357 176.405 56.5603 175.473 54.2295C174.851 52.831 173.608 52.0541 172.054 52.0541C170.501 52.0541 169.724 52.9864 169.257 54.3849C168.947 55.1618 168.636 55.9387 168.636 56.7157C168.636 59.2018 167.548 60.1341 165.062 60.1341C161.644 60.1341 158.847 58.7357 156.671 56.0941C156.05 55.4726 156.05 55.1618 155.584 56.0941C155.117 56.8711 154.34 57.4926 153.719 58.1141C153.408 58.5803 152.787 58.8911 153.253 59.668C153.564 60.1341 153.253 60.6003 152.631 60.4449C150.767 60.2895 149.057 60.4449 148.125 62.3095C147.97 62.6203 147.659 62.6203 147.193 62.6203C146.727 62.4649 146.727 61.9988 146.727 61.688C146.882 60.9111 146.727 60.9111 145.95 61.0665C142.376 61.3772 138.802 60.7557 135.383 59.668C135.073 59.3572 134.607 59.0464 134.14 58.4249Z" fill="#3A2D52"/>
<path d="M6.10303 165.796C6.72457 163.31 8.4338 161.756 9.98766 160.047C10.6092 159.425 10.4538 159.115 10.1431 158.493C9.21074 156.939 7.81226 155.696 6.87995 153.987C8.58919 154.608 9.6769 156.007 10.6092 157.405C11.3861 158.493 11.8523 158.182 12.4738 157.405C13.5615 156.318 14.4938 155.23 15.5815 154.298C17.1354 152.899 17.1354 152.744 15.7369 151.035C15.2708 150.413 14.8046 149.791 14.4938 148.859C15.8923 148.859 16.5138 149.947 16.98 150.724C17.9123 152.433 18.6892 151.656 19.3108 150.879C21.1754 148.859 23.1954 147.305 25.5262 145.751C25.8369 146.218 25.3708 146.373 25.2154 146.684C23.5062 148.393 21.9523 149.947 20.2431 151.656C18.5338 153.21 18.5339 153.521 19.9323 155.385C21.1754 157.095 21.7969 158.959 22.5739 161.135C20.3985 159.581 19.6215 157.405 18.6892 155.385C18.2231 154.298 17.7569 153.831 16.8246 154.919C15.8923 156.007 14.8046 157.095 13.7169 158.027C12.4738 158.959 12.6292 159.892 13.4061 161.135C14.4938 162.999 15.4262 164.864 16.5139 166.728C17.1354 167.972 17.7569 167.972 18.6892 167.039C20.2431 165.33 21.6416 163.621 23.3508 161.912C22.8846 163.932 21.4862 165.33 20.2431 166.728C18.5338 168.593 17.6015 170.302 19.9323 172.322C19 172.633 19 171.856 18.6892 171.701C17.1354 170.302 16.98 170.302 15.5815 172.012C13.5615 174.498 11.2308 176.828 8.74459 178.848C9.05536 176.984 10.4538 175.741 11.5415 174.498C12.94 172.788 14.4938 171.235 16.0477 169.681C16.5138 169.215 16.5138 169.059 16.2031 168.593C14.6492 166.418 13.5615 163.932 12.3184 161.445C11.8523 160.358 11.5415 160.202 10.7646 161.135C9.05535 162.999 7.50149 164.398 6.10303 165.796Z" fill="#3A2D52"/>
<path d="M115.184 92.6096C113.63 91.988 113.008 90.7449 111.92 89.6573C108.036 85.3065 101.043 83.1311 95.4496 87.0157C93.2742 88.5696 91.7204 90.9003 90.3219 93.0757C88.6127 95.7173 86.9034 98.5142 84.5726 100.69C84.4173 100.845 84.1065 101 83.9511 101.156C81.1542 102.865 80.3773 106.905 82.0865 109.702C83.6403 112.188 85.6603 113.897 88.6127 114.363C88.9234 114.363 89.2342 114.674 89.545 114.985C88.1465 115.607 86.1265 115.451 84.2619 114.053C81.1542 111.877 79.4449 108.925 79.6003 105.04C79.6003 103.331 80.3772 101.933 81.9311 101C85.1942 98.9804 87.0588 95.8727 89.2342 92.765C91.0988 90.1234 92.6527 87.1711 95.605 85.6172C98.4019 84.2188 101.199 83.1311 104.462 83.908C108.191 84.8403 111.61 86.2388 113.785 89.6573C114.251 90.5896 114.717 91.6773 115.184 92.6096Z" fill="#3A2D52"/>
<path d="M65.4602 87.4819C67.014 88.2589 67.3248 89.6573 67.4802 91.2112C67.6356 94.4743 67.014 97.7374 66.3925 100.845C65.3048 106.594 63.5956 112.344 61.8863 117.937C60.954 120.734 60.0217 123.687 58.4679 126.328C57.0694 128.504 55.0494 130.213 53.1848 132.077C50.077 135.341 47.1247 138.604 44.4832 142.178C44.1724 142.644 43.7063 142.954 43.0847 143.421C43.2401 142.333 43.8616 141.711 44.3278 140.934C47.4355 136.273 51.6309 132.388 55.3602 128.193C57.5356 125.707 58.7786 122.91 59.8663 119.957C60.7986 117.316 61.7309 114.519 62.5079 111.877C64.5279 104.73 66.8587 97.4266 66.2371 89.8127C66.0817 88.5696 66.0817 88.5696 65.4602 87.4819Z" fill="#3A2D52"/>
<path d="M114.406 101C115.028 103.797 116.426 106.128 117.98 108.148C119.845 110.634 122.02 112.965 124.662 114.83C125.594 115.607 126.526 115.762 127.614 114.83C129.479 113.276 131.343 113.276 133.053 114.519C134.296 115.451 135.073 117.937 134.606 119.802C133.674 123.22 131.033 124.774 126.837 124.308C127.925 123.22 129.323 123.22 130.411 122.91C133.363 122.133 134.606 118.404 132.742 115.917C131.965 114.83 129.945 114.83 128.546 115.762C126.371 117.316 126.06 117.316 123.885 115.917C121.088 114.208 118.446 112.188 116.582 109.391C115.96 108.459 115.028 108.614 114.096 108.925C113.785 109.08 113.474 109.391 113.163 109.547C112.542 109.857 111.765 110.168 111.299 109.391C110.677 108.459 112.076 108.459 112.076 107.837C112.076 107.682 112.386 107.682 112.386 107.527C113.319 107.371 114.406 107.06 114.717 106.439C115.028 105.817 114.251 104.885 114.096 104.108C113.474 102.243 113.319 102.243 114.406 101Z" fill="#3A2D52"/>
<path d="M23.8169 197.65C22.8846 196.718 22.7292 195.63 22.7292 194.542C22.5738 188.016 23.04 181.49 23.5061 174.964C23.8169 170.302 24.7492 165.796 25.3708 161.29C25.6815 159.27 25.8369 157.25 26.7692 155.385C26.9246 155.074 27.08 154.453 27.5461 154.608C28.1677 154.764 27.8569 155.385 27.8569 155.696C26.9246 158.804 26.4584 161.911 26.1477 165.019C25.6815 168.593 25.06 172.011 24.9046 175.585C24.7492 178.848 24.5938 182.111 24.2831 185.375C23.9723 188.793 24.1277 192.367 24.1277 195.785C23.9723 196.407 24.1277 197.028 23.8169 197.65Z" fill="#3A2D52"/>
<path d="M144.551 75.5173C145.017 77.3819 143.619 78.7803 143.463 80.4896C143.463 81.2665 142.997 82.0434 142.997 82.8204C142.997 83.5973 143.308 84.5296 143.93 84.8404C144.707 85.1511 145.484 84.8404 146.105 84.2188C146.727 83.5973 147.193 82.8204 147.97 82.665C148.436 85.6173 150.456 87.4819 152.631 89.3465C155.894 92.1435 159.779 93.2312 163.819 91.5219C166.771 90.2788 169.257 88.4142 170.967 85.6173C171.744 84.3742 172.365 83.2865 173.297 81.7327C173.608 83.7527 172.831 84.9957 171.899 86.2388C169.724 89.6573 166.616 91.9881 162.731 93.0758C159.002 94.1635 155.584 93.2312 152.476 90.9004C150.456 89.5019 148.902 87.6373 147.659 85.6173C147.193 84.9957 146.727 84.8404 146.26 85.3065C145.328 85.9281 144.396 86.2388 143.463 85.6173C142.376 84.8404 141.91 83.7527 142.065 82.665C142.376 80.3342 143.153 78.1588 144.085 75.9834C143.774 75.5173 144.085 75.3619 144.551 75.5173Z" fill="#3A2D52"/>
<path d="M4.0829 199.204C0.819807 193.765 2.06289 153.987 5.63675 150.257C5.63675 152.588 4.70443 154.608 4.39366 156.939C4.08289 160.668 3.61673 164.553 3.46134 168.282C3.15057 176.828 3.77213 185.374 4.0829 193.921C4.0829 195.164 4.39366 196.407 4.39366 197.65C4.39366 197.961 4.54905 198.737 4.0829 199.204Z" fill="#3A2D52"/>
<path d="M117.203 92.7648C116.892 90.4341 118.602 89.8125 120 89.191C124.04 87.4817 128.08 87.4817 131.809 90.1233C134.917 92.4541 136.626 95.7172 137.093 99.4464C137.248 101.933 137.559 104.574 136.782 107.06C136.471 108.303 136.16 109.702 135.228 110.634C134.917 110.945 134.606 111.256 134.14 110.945C133.829 110.634 133.985 110.168 134.14 109.857C135.073 107.837 135.849 105.817 136.005 103.642C136.471 98.2033 134.917 93.3864 130.256 90.2787C127.769 88.5694 124.973 88.2587 122.02 89.5017C120.156 90.4341 118.757 91.3664 117.203 92.7648Z" fill="#3A2D52"/>
<path d="M56.4479 63.0863C56.914 63.7078 57.2248 64.174 57.3802 64.9509C57.8463 67.7479 58.4679 70.5448 59.5556 73.1863C61.4202 77.2264 66.7033 80.1787 71.0541 78.6248C74.3172 77.3817 76.9587 75.5171 79.2895 73.1863C79.911 72.5648 80.3772 72.4094 81.1541 72.254C80.2218 74.274 78.8234 75.6725 77.1141 76.9156C75.5603 78.0033 74.0064 78.9356 72.1418 79.7125C66.8587 81.8879 60.7987 78.7802 58.6233 73.8079C57.3802 70.8556 56.4479 68.0586 56.2925 64.7955C56.1371 64.174 56.1371 63.7078 56.4479 63.0863Z" fill="#3A2D52"/>
<path d="M55.36 81.7327C54.8938 84.5297 56.4477 86.7051 58.6231 88.5697C59.5554 89.3466 60.4877 89.1912 61.42 89.0358C62.1969 88.7251 62.3523 87.7928 62.3523 87.0158C62.3523 85.9281 62.6631 84.9958 62.9739 84.0635C63.1292 83.5974 63.2846 83.2866 63.7508 83.442C64.2169 83.442 64.3723 83.9081 64.2169 84.3743C64.0616 86.0835 63.9062 87.7928 63.44 89.502C62.6631 92.1435 59.7108 92.7651 57.5354 90.9005C54.2723 87.9481 53.6508 84.2189 53.8061 80.0235C53.8061 79.5573 54.1169 79.2466 54.2723 78.7804C54.4277 78.4697 54.7384 78.3143 55.0492 78.4696C55.36 78.625 55.36 78.9358 55.36 79.0912C55.36 79.8681 55.36 80.645 55.36 81.7327Z" fill="#3A2D52"/>
<path d="M106.482 116.228C107.103 118.404 105.394 119.802 104.773 121.356C104.151 122.91 103.374 124.308 102.908 126.017C102.597 127.416 103.53 128.504 104.928 128.193C106.016 127.882 107.103 127.416 108.036 126.794C108.502 126.484 109.123 126.017 109.59 126.639C110.211 127.416 109.123 127.727 108.657 128.037C107.259 128.97 105.55 129.591 103.84 129.436C102.131 129.281 101.043 127.882 101.51 126.328C101.82 125.085 101.976 123.842 102.908 122.754C103.374 122.288 103.996 121.356 102.442 121.356C101.51 121.2 101.199 120.268 101.199 119.491C101.199 118.559 100.888 118.093 99.9557 117.937C99.4895 117.782 99.1787 117.627 99.3341 117.16C99.4895 116.694 99.8003 116.694 100.422 116.85C101.51 117.16 102.442 117.471 103.53 117.627C104.773 117.316 105.705 117.16 106.482 116.228Z" fill="#3A2D52"/>
<path d="M30.8092 95.4065C30.1877 97.1157 28.7892 97.8927 27.5461 98.825C23.04 101.933 18.9999 105.507 15.4261 109.702C14.183 111.1 12.9399 112.499 12.6292 114.519C12.6292 114.83 12.3184 115.14 12.163 115.296C11.8522 115.607 11.6968 115.917 11.2307 115.607C10.7645 115.451 10.9199 114.985 11.0753 114.674C11.6969 112.499 12.9399 110.479 14.3384 108.77C16.8246 105.973 19.4661 103.176 22.4184 100.845C24.4384 99.2911 26.6138 98.3588 28.6338 96.805C29.1 96.1834 29.7215 95.4065 30.8092 95.4065Z" fill="#3A2D52"/>
<path d="M4.08301 176.984C6.2584 178.537 7.81224 180.557 9.36609 182.733C10.6092 184.287 11.6969 185.841 12.7846 187.55C13.2507 188.327 13.2507 188.171 13.8723 187.55C15.2707 185.996 16.3584 184.131 18.223 183.199C17.1353 185.219 16.0477 187.239 14.4938 188.948C14.0277 189.57 13.8723 189.881 14.4938 190.347C15.2707 191.279 15.8923 192.367 16.5138 193.454C15.2707 192.678 14.183 191.59 13.2507 190.191C12.0076 192.211 10.4538 193.765 8.89993 195.319C8.74455 195.474 8.58917 195.785 8.2784 195.63C7.96763 195.474 8.12302 195.164 8.2784 194.853C9.05533 193.299 9.98764 191.745 11.3861 190.502C12.6292 189.414 12.3184 188.482 11.5415 187.394C9.2107 183.976 7.03531 180.558 4.23838 177.45C4.08299 177.294 4.08301 177.139 4.08301 176.984Z" fill="#3A2D52"/>
<path d="M93.8956 116.228C93.5849 116.228 93.2741 116.228 92.9634 116.228C92.6526 116.228 92.4972 116.073 92.3418 115.762C92.3418 115.451 92.4972 115.296 92.808 115.296C94.051 114.985 95.1387 114.363 96.3818 114.363C99.8003 114.363 102.442 112.499 105.083 110.79C107.414 109.236 109.123 106.905 110.522 104.419C110.988 103.642 110.833 102.865 111.299 102.088C111.61 101.622 111.61 101 112.386 101.311C113.008 101.622 112.542 102.088 112.386 102.399C110.833 107.526 107.88 111.411 103.063 113.742C100.266 115.296 97.0034 115.762 93.8956 116.228Z" fill="#3A2D52"/>
<path d="M189.302 153.521C186.505 151.034 183.553 148.859 181.844 145.596C181.377 144.819 180.911 144.198 180.6 143.421C179.513 141.09 180.29 138.914 180.756 136.739C181.844 132.699 182.776 128.504 184.174 124.153C184.64 125.085 184.485 126.017 184.33 126.639C183.708 129.125 183.242 131.456 182.465 133.787C181.844 135.651 181.688 137.671 181.222 139.536C180.6 141.867 181.999 143.731 183.242 145.596C184.64 147.771 186.505 149.481 188.525 151.345C188.991 151.967 189.768 152.433 189.302 153.521Z" fill="#3A2D52"/>
<path d="M218.515 127.571C219.447 127.105 219.913 127.727 220.535 128.037C222.865 129.902 224.73 132.233 226.439 134.874C227.061 135.807 227.682 136.739 228.459 137.982C228.77 137.05 228.459 136.117 229.702 135.651C229.702 136.584 229.858 137.516 229.547 138.448C228.459 141.711 227.993 145.13 226.439 148.393C226.284 148.704 226.284 149.325 225.818 149.014C225.196 148.704 225.507 148.237 225.662 147.927C226.439 145.44 227.216 142.954 227.682 140.313C227.682 139.847 227.838 139.536 227.527 139.225C225.352 136.117 223.642 132.544 221.001 129.747C220.379 128.814 219.136 128.503 218.515 127.571Z" fill="#3A2D52"/>
<path d="M92.031 103.797C93.4295 101 93.4295 97.7372 94.8279 95.0956C96.6926 91.3664 101.976 88.8802 106.482 90.9002C107.414 91.3664 108.502 91.5218 109.123 92.4541C109.279 92.7648 109.9 92.9202 109.59 93.231C109.279 93.6971 108.813 93.231 108.502 93.0756C106.793 92.1433 105.239 91.5218 103.219 91.5218C98.091 91.6771 95.7602 94.7848 94.6725 98.9802C94.051 100.689 93.7402 102.554 92.031 103.797Z" fill="#3A2D52"/>
<path d="M22.7292 138.448C24.2831 139.38 33.14 150.413 33.7616 151.967C31.2754 151.19 22.8846 141.09 22.7292 138.448Z" fill="#3A2D52"/>
<path d="M175.317 67.748C175.628 69.6126 174.23 69.768 173.297 70.0787C172.054 70.5449 170.345 69.768 170.034 68.6803C169.568 67.4372 170.19 66.5049 171.122 65.728C171.588 65.4172 172.054 65.4172 172.676 65.728C173.453 66.1941 174.074 66.8156 175.162 66.8156C175.473 66.8156 175.317 67.5926 175.317 67.748Z" fill="#3A2D52"/>
<path d="M151.077 189.259C151.077 189.881 150.456 190.036 150.145 190.347C148.125 191.745 146.105 192.988 144.085 194.387C142.842 195.319 141.599 196.407 140.667 197.805C140.356 198.116 140.2 198.893 139.579 198.427C139.113 198.116 139.268 197.65 139.579 197.184C142.376 193.61 146.105 191.279 150.145 189.259C150.611 188.793 150.922 188.638 151.077 189.259Z" fill="#3A2D52"/>
<path d="M114.096 120.734C113.319 120.89 113.008 120.424 112.697 119.957C112.076 119.025 112.542 117.627 110.988 117.16C110.677 117.16 110.988 116.228 111.61 116.384C113.319 116.85 115.184 117.005 116.893 116.539C117.204 116.384 117.514 116.694 117.67 117.005C117.825 117.316 117.514 117.782 117.204 117.782C115.805 117.782 115.65 118.87 115.184 119.802C115.028 120.579 114.873 121.045 114.096 120.734Z" fill="#3A2D52"/>
<path d="M144.862 68.8356C144.396 70.3895 144.551 72.0987 143.619 73.6526C142.997 74.5849 142.531 75.3618 141.288 75.3618C140.2 75.3618 139.734 74.4295 139.423 73.6526C139.113 73.031 138.957 72.2541 138.802 71.4772C138.647 71.011 138.647 70.7002 139.113 70.5449C139.734 70.3895 139.89 70.8556 140.045 71.1664C140.2 71.6326 140.2 72.0987 140.2 72.5649C140.356 73.1864 140.667 73.8079 141.443 73.9633C142.065 73.9633 142.376 73.4972 142.531 72.8756C142.997 71.4772 143.463 70.2341 143.463 68.8356C143.463 68.3695 143.619 67.9033 144.24 67.9033C145.017 67.9033 144.862 68.3695 144.862 68.8356Z" fill="#3A2D52"/>
<path d="M149.213 72.7204C147.97 73.0312 147.504 72.0988 147.037 71.3219C146.571 70.7004 146.571 69.7681 146.261 68.9911C146.105 68.525 145.794 68.0588 146.416 67.7481C147.193 67.4373 147.193 68.2142 147.348 68.525C147.659 69.3019 147.814 70.0788 148.125 70.7004C148.591 71.6327 149.213 72.0988 150.145 70.8558C150.922 69.9235 151.233 68.8358 151.699 67.7481C151.854 67.2819 152.01 66.505 152.787 66.8157C153.408 67.1265 153.097 67.7481 152.942 68.0588C152.476 69.3019 152.165 70.545 151.233 71.6327C150.611 72.4096 150.145 72.8758 149.213 72.7204Z" fill="#3A2D52"/>
<path d="M80.5324 60.134C80.5324 59.6679 80.5324 59.2017 80.9986 58.7356C81.6201 58.2694 81.6201 57.8033 80.8432 57.3371C80.377 57.1817 80.377 56.871 80.6878 56.5602C80.8432 56.2494 81.3093 56.2494 81.6201 56.4048C82.8632 57.0263 84.1063 57.8033 84.7278 58.891C85.3493 59.8233 83.9509 60.134 83.4847 60.7556C83.0186 61.3771 82.397 61.8433 81.4647 61.5325C80.8432 61.3771 80.377 60.911 80.5324 60.134Z" fill="#3A2D52"/>
<path d="M31.2754 172.477C31.897 172.167 32.5185 170.923 33.14 171.39C33.917 172.011 32.8293 172.633 32.3631 173.254C31.897 174.031 32.3631 174.497 32.3631 175.119C32.5185 175.896 33.14 176.517 32.9846 177.605C32.2077 177.139 31.897 176.673 31.5862 176.051C31.12 174.653 30.6539 175.119 30.0323 175.896C29.5662 176.517 29.1 176.984 28.1677 176.984C28.3231 175.43 30.1877 174.964 30.0323 173.41C29.877 172.011 28.6339 171.079 28.6339 169.68C30.0323 170.147 30.1877 171.856 31.2754 172.477Z" fill="#3A2D52"/>
<path d="M80.9988 46.9264C83.3296 45.994 86.1265 46.9264 87.0588 49.2571C87.3696 50.0341 88.1465 50.6556 88.1465 51.5879C88.1465 51.8987 88.3019 52.2095 87.8357 52.5202C87.5249 52.6756 87.2142 52.3648 87.0588 52.0541C86.748 51.4325 86.1265 50.9664 85.6603 50.1894C84.8834 48.791 83.6403 48.1694 82.2418 47.7033C81.7757 47.3925 81.3095 47.3925 80.9988 46.9264Z" fill="#3A2D52"/>
<path d="M110.677 96.4942C109.589 96.6496 109.279 96.0281 108.968 95.5619C106.482 92.9204 104.617 93.8527 101.975 95.0958C101.354 95.4066 100.732 96.0281 100.111 96.3389C99.8001 96.4943 99.4893 96.4943 99.3339 96.3389C99.0231 96.0281 99.3339 95.8727 99.4893 95.7173C101.354 93.3865 104.772 92.2989 107.414 93.2312C109.123 93.8527 109.745 95.0958 110.677 96.4942Z" fill="#3A2D52"/>
<path d="M172.365 98.048C173.453 98.3588 174.851 99.2911 176.094 100.379C176.871 101.156 177.648 102.088 178.425 102.865C178.736 103.176 179.202 103.642 178.736 104.108C178.27 104.574 177.804 104.108 177.493 103.797C176.405 102.865 175.628 101.622 174.541 100.69C173.764 100.068 172.831 99.4465 171.744 99.1357C171.433 98.9803 170.811 99.2911 170.967 98.6695C170.967 97.8926 171.433 97.8926 172.365 98.048Z" fill="#3A2D52"/>
<path d="M101.199 142.177C100.732 142.643 100.422 143.265 99.9555 143.576C97.7802 145.13 95.4494 146.528 93.5847 148.703C93.274 149.014 92.9632 149.014 92.8078 148.859C92.4971 148.548 92.6524 148.237 92.9632 147.927C94.3617 146.373 95.9155 144.974 97.6248 143.731C98.5571 143.11 99.334 142.488 100.266 141.866C100.422 141.556 100.888 141.556 101.199 142.177Z" fill="#3A2D52"/>
<path d="M143.619 20.0448C143.619 20.8217 143.153 21.1325 142.687 20.6663C141.444 19.2679 139.734 18.1802 138.802 16.6263C138.647 16.3155 138.336 16.0048 138.647 15.694C138.802 15.5386 138.957 15.3832 139.424 15.5386C140.667 15.694 143.774 18.8017 143.619 20.0448Z" fill="#3A2D52"/>
<path d="M53.1846 3.57386C53.1846 4.04002 53.34 4.66156 53.34 5.2831C53.34 5.74925 53.1846 6.21541 52.7185 6.3708C52.0969 6.52618 52.0969 5.90464 51.9416 5.59387C51.32 3.88463 51.1646 2.33078 51.9416 0.621543C52.0969 0.310773 52.097 0 52.5631 0C53.1847 0 53.1846 0.466155 53.1846 0.776926C53.4954 1.55385 53.34 2.48617 53.1846 3.57386Z" fill="#3A2D52"/>
<path d="M119.068 98.048C119.689 101.777 121.088 105.196 124.04 107.993C121.088 107.682 118.446 102.554 119.068 98.048Z" fill="#3A2D52"/>
<path d="M45.2601 13.0523C43.8616 13.2077 42.6185 11.8092 40.9093 11.1877C40.5985 11.0323 40.4431 10.7216 40.4431 10.4108C40.5985 9.94463 41.0647 9.94463 41.3754 10.1C42.9293 10.5662 44.4831 11.0323 45.8816 11.6539C46.1924 11.8092 46.6585 12.12 46.5031 12.5862C46.5031 13.2077 46.1924 13.2077 45.2601 13.0523Z" fill="#3A2D52"/>
<path d="M150.145 18.18C150.3 16.9369 150.922 16.0046 151.388 14.9169C151.543 14.6061 152.01 14.14 152.476 14.4508C152.787 14.6061 153.097 15.0723 152.942 15.5384C152.631 16.6261 152.32 17.8692 151.543 18.8015C151.388 19.1123 151.077 19.2677 150.611 19.2677C150.145 18.9569 150.145 18.4908 150.145 18.18Z" fill="#3A2D52"/>
<path d="M32.9845 155.385C32.6737 155.385 32.5183 155.385 32.5183 155.074C32.5183 154.919 32.5183 154.608 32.6737 154.453C34.0722 153.21 35.3152 151.501 37.1799 150.724C37.4906 150.568 37.646 150.413 37.9568 150.724C37.9568 150.879 37.9568 151.034 37.9568 151.19C37.8014 151.656 33.4506 155.385 32.9845 155.385Z" fill="#3A2D52"/>
<path d="M176.405 95.4065C178.425 95.5619 179.357 96.4942 179.979 98.048C180.134 98.3588 180.29 98.6696 179.824 98.825C179.668 98.9803 179.202 98.825 179.047 98.6696C178.114 97.7373 177.337 96.6496 175.939 96.3388C175.784 96.3388 175.628 95.8727 175.628 95.8727C175.939 95.4065 176.405 95.4065 176.405 95.4065Z" fill="#3A2D52"/>
<path d="M185.573 108.77C185.573 108.77 185.262 108.614 185.107 108.459C184.951 107.993 184.951 107.682 185.262 107.216C185.884 106.439 186.505 105.817 186.971 105.04C187.282 104.73 187.437 104.73 187.904 104.73C188.214 104.73 188.214 105.04 188.37 105.351C188.525 106.283 186.661 108.77 185.573 108.77Z" fill="#3A2D52"/>
<path d="M50.6985 120.734C51.1647 123.687 49.7662 127.105 47.28 128.504C48.6785 125.707 50.2324 123.531 50.6985 120.734Z" fill="#3A2D52"/>
<path d="M182.31 101.156C184.796 98.3588 187.748 96.3388 191.477 95.5619C188.214 97.2711 184.951 98.6696 182.31 101.156Z" fill="#3A2D52"/>
<path d="M110.522 135.03C110.211 134.874 109.279 135.03 109.279 134.253C109.279 133.32 110.056 133.787 110.522 133.787C111.765 133.942 112.387 133.165 113.319 132.544C113.63 132.388 114.096 132.077 114.407 132.544C114.717 133.01 114.407 133.32 114.096 133.631C113.008 134.564 112.076 135.03 110.522 135.03Z" fill="#3A2D52"/>
<path d="M126.837 144.198C125.905 146.528 124.196 146.994 122.642 147.927C122.486 148.082 122.176 148.082 121.865 148.082C121.399 148.393 120.933 148.859 120.466 148.238C120.156 147.771 120.933 147.461 121.399 147.305C123.419 146.839 124.662 145.285 126.837 144.198Z" fill="#3A2D52"/>
<path d="M55.2046 97.8926C54.1169 98.048 53.8062 97.2711 53.8062 96.4942C53.9615 95.8726 54.1169 94.7849 55.2046 94.9403C56.1369 94.9403 56.4477 95.7172 56.4477 96.3388C56.4477 97.1157 56.6031 98.2034 55.2046 97.8926Z" fill="#3A2D52"/>
<path d="M54.2725 101.622C53.9617 102.399 53.4956 102.865 52.7186 102.865C51.9417 102.865 51.4756 102.399 51.4756 101.622C51.4756 100.845 51.9417 100.068 52.7186 100.068C53.4956 99.9126 53.9617 100.69 54.2725 101.622Z" fill="#3A2D52"/>
<path d="M30.809 160.979C30.9644 160.979 31.2752 160.979 31.4306 161.29C32.0521 162.222 32.6737 163.154 33.2952 164.087C33.4506 164.397 33.606 164.864 33.2952 165.019C32.9844 165.174 32.6737 165.019 32.3629 164.708C31.4306 163.776 30.9644 162.533 30.3429 161.445C30.0321 161.29 30.1875 160.979 30.809 160.979Z" fill="#3A2D52"/>
<path d="M210.434 138.759C209.813 138.138 208.414 138.138 208.104 136.894C207.948 136.428 208.57 135.962 209.036 136.118C209.968 136.739 211.211 136.739 211.522 137.982C211.522 138.448 211.211 138.914 210.434 138.759Z" fill="#3A2D52"/>
<path d="M28.0125 181.024C29.2555 182.422 30.1879 183.821 31.2755 185.064C31.5863 185.374 31.7417 185.841 31.4309 185.996C31.1201 186.307 30.654 185.841 30.4986 185.685C29.1002 184.442 28.0125 183.199 28.0125 181.024Z" fill="#3A2D52"/>
<path d="M200.801 143.576C200.024 144.042 200.334 145.596 198.936 145.751C198.314 145.751 198.004 145.596 198.159 144.974C198.47 144.042 198.936 143.11 199.868 142.644C200.335 142.488 200.645 142.954 200.801 143.576Z" fill="#3A2D52"/>
<path d="M208.725 107.371C208.725 107.682 208.414 107.837 208.104 107.837C207.637 107.837 207.171 107.682 206.705 107.527C205.928 107.216 204.996 106.594 205.462 105.662C205.928 104.885 206.705 105.507 207.327 105.973C207.793 106.439 208.57 106.283 208.725 107.371Z" fill="#3A2D52"/>
<path d="M200.801 120.734C201.267 120.734 201.578 120.89 201.422 121.356C201.422 121.822 199.713 123.687 199.247 123.531C198.781 123.531 198.625 123.22 198.625 122.754C198.47 122.443 200.179 120.734 200.801 120.734Z" fill="#3A2D52"/>
<path d="M183.708 94.1633C182.931 93.5417 182.154 92.7648 181.222 91.9879C181.067 91.8325 181.222 91.5217 181.533 91.3663C182.465 91.0556 184.485 92.7648 184.33 93.6971C184.33 94.0079 184.33 94.3187 183.708 94.1633Z" fill="#3A2D52"/>
<path d="M74.3171 73.1864C74.0063 73.808 74.0063 74.7403 73.074 74.7403C72.2971 74.7403 71.9863 74.2741 71.9863 73.6526C72.1417 72.8757 72.2971 72.0988 73.2294 72.0988C74.1617 72.0988 74.0063 72.8757 74.3171 73.1864Z" fill="#3A2D52"/>
<path d="M227.216 125.085C226.594 124.93 225.507 125.085 225.351 123.842C225.351 123.376 225.507 123.065 225.973 123.22C226.905 123.531 227.993 123.687 228.304 124.619C228.614 125.085 227.682 124.93 227.216 125.085Z" fill="#3A2D52"/>
<path d="M233.432 142.644C233.432 143.265 233.276 143.731 232.81 143.576C231.567 143.265 232.033 142.022 231.722 141.245C231.412 140.779 231.878 140.313 232.344 140.468C233.276 140.934 232.965 142.022 233.432 142.644Z" fill="#3A2D52"/>
<path d="M152.942 86.2387C152.32 86.0834 151.699 85.7726 151.699 84.9957C151.699 84.2187 152.32 84.0634 152.942 84.0634C153.564 84.0634 153.719 84.8403 153.874 85.4618C153.874 85.7726 153.564 86.2387 152.942 86.2387Z" fill="#3A2D52"/>
<path d="M186.039 135.185C186.039 135.807 185.728 135.962 185.262 135.962C184.485 135.807 184.019 135.03 183.708 134.408C183.553 134.097 183.864 133.942 184.174 133.787C185.418 133.787 185.573 134.719 186.039 135.185Z" fill="#3A2D52"/>
<path d="M104.462 147.771C103.374 148.393 103.063 147.46 102.597 146.994C101.976 146.683 101.976 145.907 101.354 145.44C101.199 145.285 101.043 144.974 101.354 144.663C101.665 144.353 101.82 144.663 101.976 144.819C102.442 146.062 103.529 146.839 104.462 147.771Z" fill="#3A2D52"/>
<path d="M111.713 88.9564L114.195 92.2664L116.264 93.5077L117.091 93.0939L117.919 91.8527L120.401 90.1977L122.884 88.9564L124.953 88.5427H127.021L130.331 89.7839L134.055 93.0939L135.71 95.9902L136.538 99.3002V102.61L135.296 109.23L131.159 114.609H129.918L127.849 115.436L125.78 116.678L124.953 115.436L120.815 112.954L115.85 106.748L114.195 101.369L112.54 102.61H111.713L110.058 106.748L105.506 111.299L100.128 114.609L95.5764 115.436L92.6802 115.85L87.7152 115.436L84.4052 112.954L81.9226 111.299L80.6814 106.748V103.851L83.1639 101.369L86.0602 98.0589L87.7152 95.5764L91.0252 91.4389L92.6802 88.9564L95.5764 86.0602L98.0589 85.2327L102.61 84.4052L107.575 86.0602L111.713 88.9564Z" fill="#3A2D52"/>
</svg>
