<svg width="291" height="199" viewBox="0 0 291 199" fill="none" xmlns="http://www.w3.org/2000/svg">
<path d="M53.8754 157.349C55.0335 157.493 55.9021 158.072 56.0469 158.94C56.7707 161.543 57.6393 164.001 56.4812 166.749C56.3364 167.183 56.1917 167.617 56.626 168.051C58.7975 170.365 59.087 173.547 60.1004 176.439C61.4033 180.344 61.9823 184.682 62.7062 188.732C62.8509 189.889 63.1405 190.901 61.2585 190.612C60.3899 190.467 59.8108 191.335 59.087 191.914C55.1783 196.108 50.6905 197.988 45.0447 195.818C43.1627 195.095 41.8598 195.384 39.9778 196.397C36.5034 198.566 32.45 198.422 28.9756 196.252C26.5146 194.661 24.4878 195.674 22.3163 196.686C21.882 196.831 21.882 197.265 21.882 197.698C21.882 198.277 21.882 199 21.303 199C20.5791 199 20.1448 198.132 20.0001 197.698C19.7105 195.818 18.8419 194.083 18.6972 192.347C18.5524 187.864 17.2495 183.525 18.2629 179.042C18.8419 176.728 17.8286 173.98 19.7105 171.956C19.8553 171.811 19.7105 171.377 19.7105 171.233C18.6972 168.774 19.421 166.315 19.8553 163.857C20.0001 163.134 20.2896 162.7 20.7239 162.411C21.1582 161.977 21.882 161.977 22.4611 162.266C23.0402 162.555 22.6059 163.134 22.3163 163.568C21.4477 165.303 21.4477 167.183 21.4477 169.063C21.4477 170.365 21.882 170.943 23.0402 171.088C28.107 171.956 33.3186 172.534 38.5302 171.666C43.8865 170.799 48.8086 168.919 53.8754 167.328C54.744 167.039 54.8888 166.46 55.0335 165.882C55.7574 162.7 55.3231 159.952 53.8754 157.349Z" fill="#3A2D52"/>
<path d="M32.3052 91.8351C33.8976 92.7029 34.6214 94.0045 34.911 95.5953C35.2005 97.7646 35.3453 100.079 35.6348 102.393C35.6348 102.826 35.6348 103.26 36.0691 103.405C37.5168 103.983 38.9644 103.55 40.2673 102.971C41.2807 102.537 41.8598 101.814 41.8598 100.657C41.8598 98.777 42.1493 96.7523 41.5702 94.8722C41.4255 94.4383 41.1359 93.8599 41.715 93.7152C42.2941 93.5706 42.5836 94.0045 42.7284 94.4384C43.4522 96.3184 44.0312 98.1985 43.8865 100.223C44.176 100.223 44.3208 100.368 44.4655 100.368C45.3341 100.079 46.4923 99.0662 46.9266 99.934C47.5056 101.091 45.9132 101.38 45.0446 101.814C44.3208 102.103 43.597 102.682 43.0179 103.405C41.4255 104.996 39.5435 105.719 37.5168 105.719C35.2005 105.719 33.6081 106.876 32.3052 108.611C32.0156 109.045 31.8709 109.479 31.5813 109.768C31.2918 110.058 31.0023 110.636 30.4232 110.347C29.8441 109.913 29.9889 109.334 30.2785 108.901C31.4366 107.599 30.8575 107.31 29.4098 106.876C28.107 106.442 27.3831 105.14 26.9488 103.839C26.8041 103.26 26.6593 102.682 26.225 102.248C25.9355 102.248 25.6459 102.537 25.7907 102.826C25.9355 104.273 25.2116 105.285 24.0535 105.719C22.7506 106.297 21.4477 105.719 20.4343 104.706C18.9867 103.116 18.1181 101.236 18.4076 99.0662C19.421 100.512 20.4343 101.814 21.7372 103.116C22.1715 103.55 22.7506 104.128 23.4744 103.839C24.0535 103.55 24.1983 102.826 24.1983 102.103C24.343 98.6324 23.764 95.3061 21.882 92.269C20.8686 90.5336 19.5657 90.3889 18.5524 92.269C17.1047 94.8722 16.2361 97.9093 16.2361 100.802C16.2361 104.128 15.3675 107.31 16.0913 110.781C16.6704 113.528 17.9733 115.987 19.421 118.301C22.0268 122.64 25.3564 126.255 29.2651 129.437C29.9889 130.015 30.8575 130.449 31.0023 131.606C29.2651 131.895 28.2517 130.594 27.0936 129.582C22.3163 125.387 18.2628 120.615 15.5123 114.975C14.2094 112.227 13.3408 109.19 13.9199 106.153C14.6437 101.525 14.7885 96.8969 16.2361 92.4136C16.9599 90.2443 18.8419 88.7981 21.1582 89.0873C22.1715 89.2319 22.4611 88.6534 22.7506 88.0749C23.6192 86.0502 25.0669 84.8933 27.2384 84.8933C28.2517 84.8933 28.2517 84.3148 28.2517 83.5917C28.3965 80.9885 29.5546 80.1208 32.1604 80.6993C37.372 82.1455 42.4388 84.0256 47.7952 84.8933C49.3876 85.1825 50.401 86.7734 50.8353 88.3642C52.4277 93.5706 53.5858 98.777 53.8754 104.273C54.0201 107.454 52.7172 110.202 51.8486 113.095C50.5457 117.289 48.6638 121.193 47.0713 125.243C46.7818 125.966 46.3475 126.544 45.6237 127.701C45.4789 125.677 45.7684 124.23 46.3475 122.784C47.9399 118.879 49.5324 114.975 50.98 111.07C52.5725 106.731 52.5725 102.393 51.5591 97.9093C50.98 95.5953 50.6905 93.1368 49.9667 90.8228C48.8085 87.3519 47.9399 86.1949 44.4655 85.9056C42.0045 85.761 39.5435 84.8933 37.2272 84.1702C35.49 83.5917 33.8976 82.8685 32.1604 82.2901C31.5813 82.1454 31.0023 81.8562 30.568 82.4347C30.1337 83.0132 29.8442 83.5917 30.2785 84.3148C31.5813 87.3519 34.0424 89.0873 37.2272 89.9551C39.5435 90.5335 42.0045 90.0997 44.6103 91.2566C41.4255 92.7029 38.8197 93.426 35.7796 91.9798C33.4633 90.8228 31.0023 89.8104 29.5546 87.3518C28.9756 86.3395 27.8174 86.0502 26.5145 86.6287C24.0535 87.6411 23.1849 89.5212 24.1983 92.1244C25.3564 95.1615 26.225 98.1985 27.9622 100.946C28.2517 101.38 28.2517 101.814 28.3965 102.248C28.8308 104.562 31.2918 105.719 33.4633 104.851C34.1871 104.562 34.0424 103.839 34.0424 103.26C34.0424 100.079 34.3319 97.0415 32.8842 94.0045C32.3052 92.9921 32.4499 92.4136 32.3052 91.8351Z" fill="#3A2D52"/>
<path d="M184.744 156.047C186.481 156.915 186.771 156.047 186.337 154.746C185.613 152.576 185.034 150.552 184.165 148.382C183.586 146.936 183.441 145.49 183.731 143.465C185.178 145.49 185.613 147.514 186.337 149.539C187.06 151.419 187.495 153.299 188.653 155.035C189.956 156.915 190.245 159.374 191.403 161.398C193.864 165.737 196.181 170.076 198.642 174.414C199.221 175.282 199.655 174.993 200.234 174.703C200.668 174.559 201.248 174.414 201.537 174.993C201.682 175.427 201.537 175.86 201.248 176.15C200.089 177.307 200.813 178.174 201.537 179.187C202.84 181.067 204.288 182.802 205.156 184.972C205.446 185.695 205.735 186.129 204.143 186.562C201.103 187.575 197.628 187.43 194.733 189.6C192.417 191.335 188.942 191.335 185.902 191.19C184.889 191.19 183.586 190.467 183.441 192.347C183.296 193.07 182.573 192.492 182.138 192.058C180.546 190.467 179.533 188.443 178.519 186.418C176.637 182.658 174.9 178.753 173.308 174.848C172.149 172.1 171.426 169.352 170.557 166.605C170.412 166.026 170.123 165.158 170.847 165.014C171.715 164.725 171.86 165.737 172.149 166.171C173.163 169.642 174.321 173.113 175.769 176.439C176.782 178.608 177.795 180.778 178.809 183.092C179.243 183.959 180.112 183.959 180.835 183.959C185.323 183.815 189.521 182.224 193.285 180.054C194.299 179.476 195.023 178.608 196.036 178.174C198.207 177.307 197.628 176.005 196.76 174.703C194.009 170.22 191.693 165.448 189.232 160.82C188.798 160.097 188.653 159.518 187.495 160.097C186.337 160.675 185.034 159.663 184.889 158.361C184.599 157.638 184.744 156.915 184.744 156.047Z" fill="#3A2D52"/>
<path d="M113.085 90.6781C113.809 89.6658 114.532 88.5088 115.401 87.6411C117.862 85.0379 120.323 82.2901 123.942 81.1331C126.693 80.2653 128.141 81.4223 128.575 84.3148C128.864 85.761 128.43 87.2072 128.43 88.6534C128.43 89.2319 128.141 89.6658 127.417 89.8104C127.127 88.2196 127.417 86.4841 126.982 84.8933C126.259 82.4347 125.535 82.1454 123.363 83.3024C118.152 86.3395 114.677 90.9674 111.637 96.1738L111.492 96.3184C111.348 97.4754 110.479 98.6324 111.348 99.5001C112.216 100.368 113.085 99.0662 113.953 98.6324C116.125 97.4754 117.717 95.8845 119.31 94.0044C119.744 93.4259 120.323 93.2813 120.902 92.9921C121.192 92.8475 121.626 92.9921 121.771 93.1367C122.06 93.4259 121.771 93.7152 121.481 94.0044C119.31 96.1738 117.862 99.0662 115.112 100.657C113.953 101.236 110.624 101.669 109.9 100.946C108.452 99.5001 108.887 97.9092 109.466 96.3184C110.045 95.0168 110.624 93.8598 110.913 92.5582C109.321 93.7152 107.873 94.7276 106.136 95.5953C104.688 96.3184 103.241 96.6076 101.793 95.7399C99.9111 94.4383 99.6216 93.1367 100.924 90.9674C102.227 88.798 103.385 86.7733 104.688 84.4594C101.648 84.0255 98.753 83.1578 96.871 80.5546C97.5948 79.9761 98.1739 80.1207 98.753 80.41C102.227 82.1454 105.847 82.2901 109.61 81.4223C110.334 81.2777 110.913 81.1331 111.058 80.2653C111.058 79.5422 110.624 79.1084 110.045 78.9637C106.57 77.6621 103.675 75.4928 100.49 73.7573C98.1739 72.4557 97.0158 72.6004 95.1338 74.4804C91.5146 78.096 88.7641 82.4347 86.8821 87.2072C85.5792 90.5335 84.8554 93.8598 85.8688 97.1861C86.8821 100.512 88.6193 103.55 90.5013 106.587C92.8175 110.202 94.989 113.962 97.1605 117.578C97.3053 117.867 97.5948 118.156 97.1605 118.446C96.7262 118.735 96.4367 118.446 96.1472 118.156C93.3966 115.553 91.8042 112.371 89.9222 109.19C88.185 106.297 86.5926 103.26 85.1449 100.079C83.263 95.8845 83.1182 91.6905 84.8554 87.3518C87.0269 82.0008 89.7774 76.939 94.2652 72.8896C97.0158 70.2864 98.753 70.2864 102.083 72.4557C104.544 74.0466 107.149 75.3482 109.755 76.939C110.769 77.5175 110.913 76.9391 111.203 76.3606C112.506 74.3359 114.098 72.4557 116.414 71.7326C118.296 71.1541 119.744 72.0219 120.468 73.7573C121.481 75.9267 121.192 78.2406 121.047 80.41C121.047 80.9885 120.757 81.5669 120.178 81.5669C119.599 81.5669 119.165 81.1331 119.165 80.41C119.165 78.6745 119.165 77.0837 119.165 75.3482C119.02 73.1789 117.717 72.6004 115.835 73.6127C114.388 74.3358 113.519 75.6374 112.506 76.939C112.071 77.3729 111.782 77.9514 112.506 78.6745C113.809 80.1207 112.94 81.2777 111.927 82.29C110.913 83.1578 109.755 84.0255 108.452 84.0255C107.294 84.0255 106.715 84.7486 106.281 85.6164C105.412 87.9303 103.385 89.5211 102.517 91.8351C102.372 92.269 101.648 92.8475 102.372 93.426C102.951 93.8598 103.53 94.149 104.399 93.8598C107.873 92.7028 110.479 90.3889 112.506 87.4964C112.94 86.9179 113.23 86.1948 114.098 86.6287C114.967 87.0626 114.098 87.7857 113.953 88.3642C113.519 89.2319 112.795 89.6658 113.085 90.6781Z" fill="#3A2D52"/>
<path d="M80.2229 189.889C78.92 186.563 80.0781 183.525 80.2229 180.633C80.5124 174.704 82.2496 168.919 83.263 162.989C83.6973 160.531 84.5659 158.072 85.1449 155.613C86.7374 149.395 88.185 143.176 90.067 137.102C91.3699 132.763 92.0937 128.28 93.6862 124.086C93.9757 123.218 93.9757 122.35 94.2652 121.193C95.5681 122.784 95.2786 124.375 94.9891 125.821C94.5548 127.557 94.1205 129.292 93.6862 131.028C93.3966 132.185 93.8309 132.329 94.6995 132.185C99.4768 131.462 104.109 131.895 108.742 133.342C111.058 134.065 111.203 133.92 111.203 131.462C111.203 127.846 112.506 124.375 112.94 120.759C112.94 120.47 113.085 119.892 113.664 120.036C114.243 120.181 114.098 120.76 114.098 121.193C114.098 124.52 113.23 127.701 112.651 131.028C112.506 131.895 112.506 132.763 112.361 133.631C112.361 134.209 112.506 134.499 113.23 134.643C115.112 135.077 116.704 136.234 118.296 137.391C119.165 137.97 119.165 138.548 119.31 139.416C119.455 144.333 118.731 149.25 118.296 154.167C117.573 161.398 115.98 168.485 115.256 175.571C114.677 180.633 113.664 185.695 112.795 190.612C112.361 192.492 112.94 194.661 111.637 196.397C110.913 195.385 110.913 194.228 111.058 193.071C111.348 189.455 111.782 185.984 112.361 182.369C113.374 175.282 114.822 168.196 115.546 160.964C115.98 155.903 116.559 150.841 117.283 145.779C117.573 143.899 117.428 141.874 117.428 139.994C117.428 139.271 117.138 138.837 116.414 138.403C113.23 136.234 109.466 135.945 105.847 135.077C102.083 134.209 98.1739 134.788 94.2652 134.643C92.6728 134.643 92.8176 136.234 92.528 137.102C91.3699 141.007 90.2118 144.767 89.0536 148.672C87.8955 152.576 86.7374 156.626 86.0135 160.675C85.5792 163.134 84.7106 165.448 84.2763 168.051C83.4077 172.534 82.6839 177.017 81.9601 181.501C81.381 184.249 81.381 187.141 80.2229 189.889Z" fill="#3A2D52"/>
<path d="M161.002 107.165C158.541 107.02 157.528 105.285 156.659 103.839C153.909 99.5 151.882 94.7274 150 89.8103C148.118 85.327 146.671 80.4099 143.775 76.2158C142.472 78.3851 142.472 80.5544 142.907 83.013C143.92 89.521 146.526 95.4505 148.842 101.525C149.711 103.694 150.724 105.719 151.593 107.888C152.316 109.768 152.461 111.793 152.316 113.673C152.316 114.975 152.172 116.132 152.461 117.433C152.606 117.867 152.896 118.445 152.172 118.59C151.448 118.735 151.448 118.156 151.303 117.578C150.579 115.119 149.855 112.516 150.145 109.913C150.29 109.045 150.29 108.033 149.132 107.31C148.697 109.334 148.697 111.07 148.987 112.95C149.566 117.288 150 121.772 151.448 126.11C152.461 129.292 154.922 131.461 157.239 133.775C160.134 136.668 163.753 138.548 167.372 140.573C167.662 140.717 167.806 141.006 168.096 141.296C166.214 142.019 164.911 141.874 162.45 140.139C158.107 137.102 153.909 133.92 151.014 129.292C149.421 126.544 148.842 123.507 148.263 120.47C147.394 116.276 147.25 112.082 147.539 107.743C147.539 107.454 147.539 106.876 147.684 106.876C149.855 106.153 148.408 104.996 148.118 103.983C146.671 99.6446 144.644 95.5952 143.341 91.2565C142.472 88.3641 141.604 85.4716 140.88 82.4345C140.301 79.8313 140.735 77.3728 142.328 75.2034C143.196 74.0465 144.21 74.1911 145.223 75.2034C146.815 76.9389 147.684 79.2529 148.697 81.2776C150.724 86.0501 152.606 90.8226 154.633 95.5952C155.212 96.7521 155.936 97.7645 157.528 97.0414C158.107 96.7521 158.831 97.0414 159.555 97.0414C161.292 97.3306 162.74 98.4876 164.911 97.3306C167.083 96.1737 169.109 97.6199 170.702 99.3553C171.86 100.657 173.018 101.814 174.031 103.26C174.466 103.839 174.61 104.562 174.031 104.996C173.308 105.574 172.729 105.14 172.439 104.562C171.281 102.682 170.123 100.946 168.241 99.6446C167.662 99.2107 166.938 98.9215 166.359 98.6322C165.635 98.343 164.766 98.6322 164.332 99.2107C163.753 99.9338 164.766 100.368 165.056 100.512C166.648 101.959 167.372 103.983 168.53 105.574C168.82 106.008 169.109 106.586 168.53 107.02C167.951 107.454 167.517 106.876 167.227 106.586C166.504 105.574 165.78 104.417 165.201 103.26C163.898 101.091 161.871 99.7892 159.555 98.7769C158.686 98.343 157.528 98.343 156.949 99.0661C156.515 99.7892 157.383 100.512 157.673 101.091C158.397 103.405 160.134 104.996 161.002 107.165Z" fill="#3A2D52"/>
<path d="M214.856 66.6708C220.357 66.96 224.7 69.274 228.464 73.3234C228.753 73.6126 229.043 74.0465 228.608 74.3357C228.319 74.625 227.885 74.3357 227.595 74.1911C225.134 73.0341 223.397 71.0094 220.791 69.997C217.896 68.8401 215 67.2493 211.671 69.1293C210.078 69.9971 209.789 71.4433 210.802 73.0341C212.539 75.7819 215.435 77.2282 218.185 78.819C220.067 79.8314 221.949 80.8437 224.265 80.4099C224.989 80.2652 225.713 80.1206 226.003 79.3975C226.292 78.5297 225.858 78.0959 225.279 77.5174C224.41 76.5051 222.818 76.2158 222.239 74.7696C222.094 74.4804 221.66 74.0465 222.239 73.7572C222.528 73.6126 222.963 73.6126 223.252 73.6126C224.989 74.7696 226.871 75.4927 227.885 77.662C228.608 79.2529 228.174 80.5545 227.306 81.2776C226.292 82.1453 226.292 83.013 226.437 84.0254C226.726 86.1947 225.424 87.4963 223.686 88.2194C222.963 88.5087 222.528 88.7979 222.383 89.6657C222.239 91.6904 220.936 92.8474 219.199 93.5705C218.62 93.8597 218.185 94.0043 218.185 94.5828C218.185 96.7521 216.303 97.9091 214.421 97.9091C211.092 97.9091 207.762 97.4752 204.722 96.1737C202.261 95.1613 201.537 92.7027 203.13 90.678C203.709 89.8103 203.564 89.3764 202.985 88.7979C200.813 86.7732 201.248 83.0131 203.998 82.0007C205.011 81.7115 204.722 81.133 204.577 80.4099C204.288 79.5421 203.853 78.5298 203.998 77.5174C204.143 75.4927 205.446 74.3357 207.328 73.9019C208.052 73.7572 208.775 73.6126 208.486 72.4556C207.762 68.5508 209.499 66.5261 213.408 66.5261C214.132 66.6707 214.566 66.6708 214.856 66.6708ZM219.778 86.7732C220.212 86.7732 220.791 86.9178 221.225 86.7732C222.383 86.484 223.542 86.3394 223.686 84.8931C223.831 83.4469 223.542 82.1453 221.66 81.8561C220.501 81.7115 219.343 81.4222 218.33 80.8437C215.435 79.3975 212.829 77.662 210.513 75.4927C210.223 75.2035 209.934 75.0588 209.644 75.2034C208.196 75.6373 206.749 75.7819 206.025 77.3728C205.446 78.9636 206.025 80.2652 207.038 81.4222C210.657 84.7485 215 86.1947 219.778 86.7732ZM215 92.2689C216.448 92.1243 217.751 92.1242 218.909 91.1119C219.633 90.3888 219.922 89.5211 219.778 88.6533C219.633 87.9302 218.62 88.5087 218.04 88.3641C214.132 87.4963 210.513 86.1948 207.328 83.5916C206.604 83.0131 206.025 82.7238 205.156 83.4469C202.84 85.327 202.84 87.3517 205.446 89.0872C208.486 90.9673 211.671 91.835 215 92.2689ZM212.539 96.3183C213.118 96.3183 213.553 96.3183 213.842 96.3183C215 96.3183 216.303 96.4629 216.303 94.8721C216.303 93.2812 215 93.4258 213.987 93.5705C211.381 93.7151 208.92 92.8473 206.893 91.6904C205.446 90.8226 205.012 91.4011 204.288 92.4135C203.564 93.7151 204.722 94.4382 205.446 94.7274C207.907 95.4505 210.223 96.7521 212.539 96.3183Z" fill="#3A2D52"/>
<path d="M234.254 139.271C232.372 138.982 230.346 139.271 228.608 138.114C227.161 137.246 227.306 136.09 228.174 134.933C229.187 133.631 230.346 132.474 231.938 132.04C232.807 131.751 232.951 131.462 232.662 130.594C231.648 127.412 231.214 124.086 230.346 120.76C229.911 119.313 229.187 118.156 228.608 116.71C228.464 116.276 228.174 115.842 228.753 115.553C229.187 115.409 229.477 115.698 229.767 115.987C230.49 116.999 231.214 118.156 231.649 119.458C232.807 123.941 233.965 128.569 234.544 133.197C234.689 134.354 235.412 135.366 235.702 136.379C235.991 137.247 236.426 136.957 237.005 136.957C242.651 136.813 247.573 134.643 252.495 132.185C253.219 131.751 253.508 131.028 254.377 130.738C254.811 130.594 254.666 130.16 254.377 129.726C250.323 124.086 247.138 117.867 244.243 111.504C244.098 111.215 243.954 110.925 243.809 110.636C243.664 110.058 243.519 109.479 244.098 109.19C244.677 108.901 244.967 109.479 245.257 109.768C246.415 111.07 246.704 112.805 247.283 114.252C248.876 118.012 250.902 121.483 252.784 125.098C253.219 125.821 253.363 125.821 254.087 125.677C255.68 125.387 257.272 125.243 258.865 125.532C259.878 125.677 260.891 125.677 261.181 126.978C261.615 128.135 261.036 129.148 260.167 130.015C257.851 132.329 254.956 133.486 252.061 134.788C249.165 136.09 245.98 137.102 242.94 137.97C240.19 138.837 237.15 138.837 234.254 139.271Z" fill="#3A2D52"/>
<path d="M182.428 138.114C181.704 133.197 182.138 128.28 183.007 123.652C184.02 118.59 183.152 114.107 181.27 109.479C178.519 102.826 176.637 96.0291 175.479 88.9426C174.9 85.6163 174.176 82.1453 173.018 78.9637C172.584 77.5174 172.584 75.9266 171.136 74.7696C170.412 75.782 170.268 76.9389 170.268 78.0959C170.268 81.133 170.991 84.1701 171.281 87.2071C171.57 91.2566 173.452 95.1613 172.584 99.7892C171.281 97.6199 170.702 95.5952 170.557 93.5705C170.268 90.5334 169.544 87.641 169.109 84.7485C168.675 81.5669 168.965 78.3852 168.82 75.2035C168.82 73.7573 169.833 72.7449 171.281 72.7449C173.163 72.6003 174.031 74.3358 174.321 75.6374C175.769 81.133 177.216 86.6287 178.23 92.2689C179.243 98.1984 181.27 103.694 183.297 109.334C184.889 113.528 185.468 118.012 184.889 122.64C184.455 127.412 183.441 132.185 183.152 137.102C183.007 137.246 183.007 137.68 182.428 138.114Z" fill="#3A2D52"/>
<path d="M50.1116 157.638C51.1249 157.493 52.2831 155.903 52.7174 157.204C53.1517 158.217 51.5593 158.506 50.5459 158.94C43.7419 161.977 36.5035 162.989 29.1205 162.844C27.0937 162.844 25.3565 162.411 23.4746 161.543C23.7641 161.109 24.1984 160.82 24.4879 160.964C26.6594 161.688 26.6594 160.531 26.6594 158.94C26.3699 153.01 27.3833 147.081 27.8176 141.151C27.9623 138.259 27.6728 135.366 27.3833 132.329C28.5414 132.763 28.8309 133.486 28.9757 134.499C29.6995 138.548 29.2652 142.453 29.1205 146.502C28.8309 151.13 28.5414 155.613 28.1071 160.241C27.9623 161.398 28.3966 161.543 29.41 161.543C35.7797 161.977 41.5704 159.952 47.2163 157.493C47.9401 157.204 47.9401 156.481 47.9401 155.758C47.7953 151.419 46.4924 147.081 45.9134 142.887C45.3343 139.416 44.9 135.8 44.1762 132.329C44.0314 131.606 43.8866 130.883 44.9 130.738C45.7686 130.594 45.7686 131.461 45.9134 131.895C47.0715 134.932 46.9267 138.259 47.5058 141.44C48.6639 146.936 49.3878 152.287 50.1116 157.638Z" fill="#3A2D52"/>
<path d="M240.334 107.31C242.94 103.549 243.23 99.7892 242.795 95.8844C242.506 92.7027 242.361 89.521 241.348 86.484C240.479 83.7361 240.769 80.8437 241.493 78.2405C242.651 73.1787 244.243 68.2616 246.704 63.7783C247.428 62.6213 248.007 61.3197 248.731 60.1627C249.165 59.5842 249.31 58.8611 248.731 58.2826C248.297 57.7042 247.573 57.5595 246.849 57.8488C243.519 58.8611 241.203 61.0304 239.611 64.2121C237.873 67.9723 237.005 72.311 234.399 75.6373C233.386 76.9389 232.372 78.2405 230.346 78.5297C231.793 76.3604 233.241 74.3357 234.399 72.4556C236.281 69.5632 236.715 66.0922 238.308 63.0552C239.9 60.1627 243.954 56.2579 247.138 56.5472C250.179 56.6918 251.337 58.4273 249.889 61.1751C248.297 64.0675 246.704 66.9599 245.546 69.997C243.664 75.4926 241.782 81.1329 243.23 87.2071C244.098 91.4011 245.112 95.5951 244.677 100.078C244.388 102.392 243.954 104.417 242.506 106.297C242.072 106.731 241.493 106.876 240.334 107.31Z" fill="#3A2D52"/>
<path d="M262.484 185.55C259.878 186.563 257.562 186.129 255.245 185.406C247.862 183.092 243.085 178.175 239.611 171.377C237.729 167.617 235.412 164.002 233.53 160.241C231.504 156.192 229.187 152.287 228.608 147.515C228.464 146.792 228.608 146.213 228.753 145.635C229.043 144.333 229.477 142.887 227.884 141.874C227.016 141.296 226.726 140.284 227.161 138.982C228.029 140.139 228.898 141.007 230.056 141.585C230.78 142.019 230.925 143.031 230.925 143.899C231.069 147.659 232.372 151.13 233.82 154.746C235.702 159.808 238.597 164.291 241.058 168.919C243.23 173.113 245.836 177.162 249.31 180.199C252.35 182.802 256.114 184.538 260.457 184.827C260.891 184.827 261.326 184.972 261.76 184.972C261.905 185.261 262.049 185.406 262.484 185.55Z" fill="#3A2D52"/>
<path d="M94.5548 72.0218C92.2385 68.2616 91.8042 64.2122 91.3699 60.1627C90.9356 55.101 90.067 50.0392 90.3565 44.8328C90.3565 43.8204 90.5013 42.8081 90.7908 41.9403C91.0804 40.6387 91.3699 39.1925 93.1071 39.0479C94.8443 38.9033 95.7129 40.0603 96.4367 41.3619C98.6082 44.6882 99.1873 48.593 99.7663 52.4978C100.635 58.2827 102.227 63.9229 102.372 69.8524C100.924 69.4186 100.635 68.4062 100.345 67.3938C99.1873 61.8982 98.6082 56.4026 97.4501 51.0516C96.871 48.3037 95.8576 45.7005 94.989 43.0973C94.6995 42.3742 94.2652 41.2173 93.2519 41.5065C92.3833 41.6511 92.3833 42.6635 92.3833 43.5312C92.3833 50.3284 92.0937 57.1257 93.8309 63.7783C94.41 65.9476 94.5547 68.2616 94.989 70.4309C95.1338 70.8648 94.9891 71.2987 94.5548 72.0218Z" fill="#3A2D52"/>
<path d="M104.544 71.4433C103.82 66.5262 104.688 62.1875 105.702 57.7042C106.86 52.4979 108.163 47.4361 110.189 42.6636C111.058 40.4942 112.071 38.0357 114.532 37.0233C116.849 36.011 119.02 37.1679 118.731 39.6265C118.296 42.5189 118.296 45.4114 117.573 48.3038C115.835 55.2457 114.677 62.1875 114.098 69.274C114.098 69.9971 114.098 70.7202 113.085 70.7202C112.071 70.7202 112.506 69.8525 112.506 69.274C112.361 65.2246 112.94 61.3198 113.809 57.415C115.112 51.9194 116.414 46.5684 116.994 40.9281C117.138 40.0604 117.573 38.7588 116.27 38.3249C115.112 38.0357 114.532 38.9034 113.809 39.7711C110.913 43.5313 110.045 48.0146 108.597 52.3533C107.439 55.9688 106.86 59.8736 106.281 63.6338C105.847 66.0923 105.702 68.6955 104.544 71.4433Z" fill="#3A2D52"/>
<path d="M262.628 129.292C264.655 129.292 265.234 130.304 265.379 131.606C265.958 136.234 268.13 140.139 270.012 144.333C271.749 148.382 273.631 152.576 274.789 156.77C275.802 160.675 277.395 164.001 281.014 166.315C283.475 167.906 286.081 169.352 289.121 169.497C289.845 169.497 290.713 169.497 290.713 170.509C290.713 171.666 289.7 171.522 289.121 171.522C286.515 171.666 284.054 170.799 281.882 169.352C280.579 168.485 278.842 167.472 277.829 167.472C274.499 167.762 275.223 164.869 274.934 163.712C273.92 160.097 272.617 156.481 271.459 153.01C269.432 147.225 266.971 141.44 264.8 135.656C264.366 134.354 264.221 132.908 264.076 131.606C263.787 130.738 263.642 130.015 262.628 129.292Z" fill="#3A2D52"/>
<path d="M126.982 96.029C126.693 97.3306 126.548 98.7768 125.969 99.9338C123.653 104.706 121.481 109.479 118.007 113.384C116.125 115.553 114.243 117.578 112.361 119.602C112.072 119.892 111.637 120.326 111.203 120.036C110.624 119.602 111.058 119.024 111.348 118.735C112.795 116.855 114.243 115.119 115.835 113.384C118.586 110.636 120.323 107.02 122.06 103.694C123.508 101.091 124.232 98.0537 125.39 95.3059C125.535 94.7274 125.969 94.2936 126.548 94.4382C127.127 95.0167 126.838 95.5951 126.982 96.029Z" fill="#3A2D52"/>
<path d="M231.793 112.227C231.069 113.239 230.201 113.239 229.477 113.094C222.094 111.504 216.303 107.599 211.815 101.525C211.671 101.235 211.526 100.946 211.381 100.657C211.236 100.223 211.236 99.6446 211.526 99.3554C212.105 99.0662 212.394 99.5 212.684 99.7892C214.276 101.525 215.869 103.549 217.606 105.14C221.08 108.467 225.279 110.636 230.056 111.504C230.635 111.793 231.069 111.938 231.793 112.227Z" fill="#3A2D52"/>
<path d="M237.15 144.622C238.018 143.899 238.742 143.899 239.611 143.754C245.546 142.597 251.337 141.006 256.548 137.969C256.548 137.969 256.693 137.969 256.693 137.825C257.562 137.68 258.575 136.668 259.009 137.536C259.444 138.403 258.141 138.693 257.562 139.271C252.929 142.308 247.718 143.754 242.361 144.622C240.769 144.767 239.176 145.634 237.15 144.622Z" fill="#3A2D52"/>
<path d="M175.334 160.82C175.334 159.373 175.334 159.373 177.072 158.795C177.506 158.65 177.506 158.361 177.506 157.927C177.506 156.481 178.519 156.626 179.243 157.06C180.98 157.927 180.98 159.663 180.691 161.254C180.256 162.7 179.098 163.568 177.506 163.568C175.624 163.568 175.19 162.266 175.334 160.82Z" fill="#3A2D52"/>
<path d="M169.109 158.795C169.688 158.217 168.82 157.06 170.123 156.915C171.281 156.771 172.15 157.349 172.439 158.072C172.873 159.084 173.018 160.531 172.15 161.398C171.281 162.266 170.123 162.845 168.965 161.977C167.662 161.109 167.372 159.808 167.662 158.361C167.662 158.217 167.951 157.927 168.241 157.783C168.965 157.638 168.386 158.795 169.109 158.795Z" fill="#3A2D52"/>
<path d="M194.299 148.382C194.588 149.395 194.009 150.262 192.996 150.696C192.127 151.13 190.824 151.275 189.956 150.552C189.377 149.973 187.929 149.25 189.811 148.527C190.245 148.382 190.245 147.948 190.245 147.659C189.956 146.068 190.535 145.49 192.127 145.634C193.72 145.924 194.444 146.647 194.299 148.382Z" fill="#3A2D52"/>
<path d="M102.227 0C102.517 2.31395 101.069 3.47092 100.201 4.91714C99.332 6.21874 98.3187 7.37574 97.7396 8.96659C97.5948 9.40045 97.0158 10.1235 96.4367 9.97892C95.7129 9.68967 96.0024 8.9666 96.1472 8.38811C97.1605 4.77256 99.1873 2.31395 102.227 0Z" fill="#3A2D52"/>
<path d="M166.214 157.204C166.504 158.94 165.49 160.097 164.043 160.241C162.74 160.386 162.161 159.229 162.161 157.783C162.305 156.047 163.319 154.456 164.477 154.601C166.069 154.746 166.504 155.758 166.214 157.204Z" fill="#3A2D52"/>
<path d="M35.0558 22.1273C37.6616 23.7182 38.6749 26.1767 40.1226 28.4907C40.2674 28.7799 40.4121 29.0692 40.4121 29.3584C40.5569 30.2262 42.0046 31.0939 40.8464 31.6723C40.1226 32.1062 39.5435 30.66 38.9645 29.9369C37.5168 28.0568 36.3587 26.0321 35.0558 24.0074C34.911 23.5735 34.7662 22.9951 35.0558 22.1273Z" fill="#3A2D52"/>
<path d="M278.698 80.9883C278.698 81.856 278.263 82.4345 277.395 82.8684C276.526 83.3022 275.802 83.013 275.223 82.5791C274.644 82.0006 274.065 81.2775 275.223 80.699C275.223 80.699 275.223 80.5544 275.223 80.4098C275.078 80.4098 274.934 80.4098 274.789 80.2652C274.21 79.542 274.355 78.8189 275.078 78.2405C275.657 77.662 276.381 77.8066 276.96 78.3851C277.974 79.1082 278.698 79.8313 278.698 80.9883Z" fill="#3A2D52"/>
<path d="M169.688 154.167C169.833 154.601 169.688 154.89 169.254 155.035C168.82 155.18 168.53 155.035 168.241 154.601C167.806 153.733 167.517 152.721 167.517 151.709C167.517 149.684 167.227 147.804 166.504 145.924C166.359 145.49 166.069 144.911 166.648 144.622C167.227 144.333 167.662 144.767 167.951 145.201C168.241 145.779 168.675 146.358 168.82 146.936C168.675 149.539 168.675 151.998 169.688 154.167Z" fill="#3A2D52"/>
<path d="M184.31 47.2915C183.731 49.8947 182.573 52.3532 180.546 54.3779C180.401 54.5226 180.112 54.8118 179.822 54.5226C179.533 54.378 179.388 54.0887 179.533 53.6548C180.546 51.3409 181.415 49.1715 182.573 46.8576C182.717 46.4237 183.152 45.7006 183.876 45.9899C184.455 46.1345 184.31 46.713 184.31 47.2915Z" fill="#3A2D52"/>
<path d="M55.3231 35.8662C55.1784 36.5894 55.0336 37.3124 54.0202 37.457C53.0069 37.6017 52.1383 37.3125 51.4144 36.4447C50.6906 35.577 50.6906 34.42 51.1249 33.6969C51.704 32.5399 51.9935 33.9861 52.4278 34.1308C52.5726 34.1308 52.7173 33.9861 53.0069 33.9861C54.5993 33.5523 55.4679 34.1308 55.3231 35.8662Z" fill="#3A2D52"/>
<path d="M171.57 20.2471C171.426 21.1148 171.86 21.8379 171.136 22.1272C170.123 22.4164 170.268 21.2594 169.978 20.8255C168.965 18.8008 168.965 16.4869 167.807 14.4622C167.662 14.1729 167.517 13.7391 167.951 13.4498C168.386 13.3052 168.675 13.5945 168.965 13.8837C170.557 15.7638 170.847 18.2223 171.57 20.2471Z" fill="#3A2D52"/>
<path d="M18.842 65.6585C18.6972 66.8155 17.8286 67.5386 16.5257 67.5386C15.2228 67.5386 14.499 66.5263 14.499 65.5139C14.499 64.2123 15.5123 63.3446 16.8152 63.3446C17.9734 63.3446 18.842 64.0677 18.842 65.6585Z" fill="#3A2D52"/>
<path d="M231.069 39.9157C230.49 38.4695 231.504 38.0356 232.662 38.0356C233.82 38.0356 234.689 38.6141 234.544 40.205C234.399 41.6512 233.82 42.6635 232.517 42.5189C231.069 42.5189 230.78 41.2173 231.069 39.9157Z" fill="#3A2D52"/>
<path d="M92.6728 92.2689C91.8042 92.2689 92.0937 91.5457 92.2385 91.2565C94.1204 88.7979 94.989 85.9055 96.2919 83.1576C96.4367 82.7238 96.871 82.5792 97.3053 82.7238C97.7396 82.8684 97.7396 83.3023 97.5948 83.5915C96.4367 86.6286 95.2786 89.6657 92.9623 92.1242C92.9623 92.1242 92.8175 92.2689 92.6728 92.2689Z" fill="#3A2D52"/>
<path d="M153.04 18.9456C153.04 20.3918 152.172 21.1149 151.014 21.1149C149.856 21.1149 149.132 20.2472 149.132 19.2348C148.987 17.644 150.435 17.644 151.448 17.3547C152.751 17.0655 152.606 18.3671 153.04 18.9456Z" fill="#3A2D52"/>
<path d="M195.891 32.1061C197.339 32.2507 198.352 32.3953 198.352 33.6969C198.352 34.9985 197.339 35.7216 196.326 35.7216C195.312 35.7216 194.444 34.9985 194.444 33.8415C194.299 32.6845 195.167 32.1061 195.891 32.1061Z" fill="#3A2D52"/>
<path d="M158.541 63.4891C158.976 62.1875 160.279 61.7537 161.292 61.3198C162.016 61.0306 163.029 61.609 162.884 62.766C162.884 64.2122 161.871 64.7907 160.713 64.9354C159.844 64.9354 159.121 64.3569 158.541 63.4891Z" fill="#3A2D52"/>
<path d="M256.548 15.9084C256.548 16.9207 253.363 21.1148 252.495 21.2594C251.771 21.404 251.337 20.9702 251.771 20.3917C252.784 18.5116 254.087 16.9208 255.68 15.6192C256.404 15.1853 256.548 15.4745 256.548 15.9084Z" fill="#3A2D52"/>
<path d="M67.0492 154.89C65.891 155.035 65.4567 153.878 65.6015 153.444C66.1806 152.576 65.6015 150.841 67.3387 150.841C68.6416 150.841 68.9311 151.998 68.7864 152.866C68.7864 153.733 68.4968 155.035 67.0492 154.89Z" fill="#3A2D52"/>
<path d="M136.103 169.931C136.103 170.943 135.234 171.667 134.655 171.377C133.786 171.088 132.484 170.799 132.484 169.353C132.484 168.34 133.352 167.762 134.221 167.762C135.379 167.906 135.958 168.919 136.103 169.931Z" fill="#3A2D52"/>
<path d="M72.1159 71.0094C71.9711 72.0218 71.5368 72.7449 70.6682 72.8895C69.9444 73.0341 69.0758 72.4556 69.2206 71.4433C69.3653 70.7202 69.0758 69.4186 70.5235 69.4186C71.5368 69.4186 71.8264 70.1417 72.1159 71.0094Z" fill="#3A2D52"/>
<path d="M100.201 144.767C100.056 145.634 99.1873 145.779 98.4634 146.358C98.1739 145.634 96.871 145.779 97.0158 144.767C97.1605 143.899 97.5948 143.176 98.4634 143.031C99.6216 142.887 99.9111 143.754 100.201 144.767Z" fill="#3A2D52"/>
<path d="M107.729 168.629C107.584 169.353 107.005 169.931 106.281 169.931C105.557 169.931 104.688 169.786 104.688 168.774C104.688 167.762 105.267 167.183 105.991 167.328C106.715 167.328 107.584 167.762 107.729 168.629Z" fill="#3A2D52"/>
<path d="M91.3699 156.626C92.0937 156.915 92.9623 157.204 93.1071 158.072C93.1071 158.94 92.0937 159.084 91.5146 159.663C91.0803 159.084 90.067 158.94 89.9222 157.927C89.9222 156.77 90.9356 157.06 91.3699 156.626Z" fill="#3A2D52"/>
<path d="M98.4634 136.668C101.069 136.523 103.53 136.234 106.136 137.246C104.688 137.969 103.385 137.68 102.227 137.246C101.069 136.812 99.7663 136.957 98.4634 136.668Z" fill="#3A2D52"/>
<path d="M137.695 64.2121C137.695 65.0799 137.261 65.3691 136.537 65.3691C135.668 65.3691 135.379 64.9352 135.234 64.2121C135.234 63.489 135.668 63.0552 136.247 63.0552C137.261 63.0552 137.55 63.7783 137.695 64.2121Z" fill="#3A2D52"/>
<path d="M220.791 5.3512C221.515 5.20658 222.094 5.64042 222.239 6.36353C222.383 7.08664 221.804 7.52053 221.225 7.52053C220.357 7.52053 219.778 7.08667 219.778 6.21894C219.633 5.49583 220.212 5.3512 220.791 5.3512Z" fill="#3A2D52"/>
<path d="M29.2652 40.205C29.2652 40.9281 28.9756 41.2173 28.3966 41.3619C27.6727 41.5065 27.0937 41.0727 27.0937 40.205C26.9489 39.4818 27.2384 39.0479 27.9623 38.9033C28.6861 38.9033 28.9756 39.6265 29.2652 40.205Z" fill="#3A2D52"/>
<path d="M107.439 142.453C108.018 142.597 108.597 142.887 108.742 143.465C108.887 144.333 108.163 144.767 107.729 144.911C107.149 145.056 106.426 144.333 106.426 143.754C106.136 143.176 106.86 142.887 107.439 142.453Z" fill="#3A2D52"/>
<path d="M62.9957 63.923C62.9957 64.6461 62.9957 65.2246 62.2718 65.3692C61.548 65.3692 60.9689 64.9353 60.9689 64.2122C60.9689 63.6337 61.2585 63.1999 61.9823 63.1999C62.5614 63.0553 62.8509 63.4891 62.9957 63.923Z" fill="#3A2D52"/>
<path d="M91.2252 173.836C91.2252 174.704 90.7908 174.993 90.067 175.137C89.3432 175.137 88.9089 174.848 88.7641 174.125C88.7641 173.402 89.3432 172.824 89.9223 172.824C90.6461 172.679 91.2252 173.257 91.2252 173.836Z" fill="#3A2D52"/>
<path d="M219.633 47.1469C219.633 47.5808 219.633 48.3039 218.909 48.1593C218.185 48.1593 217.606 47.7254 217.606 46.8576C217.606 46.1345 218.041 45.7007 218.764 45.7007C219.633 45.7007 219.633 46.4238 219.633 47.1469Z" fill="#3A2D52"/>
<path d="M108.742 22.7056C108.597 23.2841 108.452 24.0072 107.729 23.8626C107.005 23.8626 106.57 23.1395 106.57 22.4164C106.57 21.8379 106.86 21.404 107.584 21.2594C108.597 21.404 108.308 22.4164 108.742 22.7056Z" fill="#3A2D52"/>
<path d="M149.276 36.1555C150.145 36.1555 150.435 36.5894 150.579 37.3125C150.579 37.891 150.29 38.3248 149.566 38.3248C148.987 38.3248 148.408 37.891 148.553 37.1679C148.553 36.734 148.408 36.1555 149.276 36.1555Z" fill="#3A2D52"/>
<path d="M1.18046 110.057C0.45663 109.913 -0.122434 109.624 0.0223319 108.9C0.0223319 108.322 0.456632 107.888 1.0357 108.033C1.61476 108.177 2.19383 108.611 2.19383 109.19C2.19383 109.768 1.61476 109.913 1.18046 110.057Z" fill="#3A2D52"/>
<path d="M184.744 34.1308C184.744 34.7093 184.455 34.9986 183.876 34.8539C183.297 34.7093 182.573 34.5647 182.717 33.8416C182.862 33.1185 183.297 32.9739 184.02 32.9739C184.744 32.9739 184.744 33.5523 184.744 34.1308Z" fill="#3A2D52"/>
<path d="M262.918 31.6724C263.642 31.6724 263.931 32.1062 263.931 32.6847C263.931 33.2632 263.787 33.6971 263.063 33.6971C262.629 33.5525 261.905 33.5525 261.905 32.8294C261.76 32.1063 262.339 31.817 262.918 31.6724Z" fill="#3A2D52"/>
</svg>
