<?xml version="1.0" encoding="utf-8"?>
<!-- Generator: Adobe Illustrator 27.6.0, SVG Export Plug-In . SVG Version: 6.00 Build 0)  -->
<svg version="1.1" id="Layer_1" xmlns="http://www.w3.org/2000/svg" xmlns:xlink="http://www.w3.org/1999/xlink" x="0px" y="0px"
	 viewBox="0 0 213.8 159.3" style="enable-background:new 0 0 213.8 159.3;" xml:space="preserve">
<style type="text/css">
	.st0{fill:#16013E;}
</style>
<path class="st0" d="M72.8,117.7c-1.6,1.2-2.9,2.7-4.4,3.9c-2.1,1.6-3,3.6-3.2,6.2c-0.1,0.7,0,1.5-0.3,2.1
	c-2.5,4.5,0.5,7.6,2.7,10.9c0.2,0.4,0.6,0.6,0.9,0.9c1.8,2.1,4.3,2.4,6.4,0.6c2.6-2.2,5.2-4.4,7.8-6.6c1.1-0.9,1.3-2.2,1.9-3.4
	c0.2-0.4,0.1-0.8-0.3-1c-1.8-1.2-2.7-3.2-4.3-4.6c-1.9-1.6-2.9-3.8-3.8-6.1c-0.3-0.8-0.5-1.7-1.3-2.3c-0.2-0.1-0.4-0.5-0.4-0.6
	c1.6-1.8-0.4-2.9-0.9-4.2c-1.2-3.2-2.3-6.3-2-9.7c0-0.4-0.3-1.1,0.5-1.2c0.5,0,0.5,0.6,0.6,0.9c1.4,2.8,1.4,5.9,2.6,8.7
	c2.4,5.6,5.7,10.4,11.6,13.2c5.2,2.5,10.4,2.6,15.6,0.8c3.8-1.3,7.3-3.4,10.2-6.3c2.3-2.3,4-4.9,5.5-7.7c0.2-0.4,0.2-0.8,0.6-1.1
	c0.5-0.3,0.6-1.4,1.3-1c0.7,0.4,0.4,1.3,0.2,1.9c-0.3,0.8-0.7,1.5-1,2.3c-0.6,1.4-0.2,1.5,1,1.3c6.7-0.6,13.4-0.7,20-0.5
	c1.4,0,1.9-1,2.9-1.2c2.3-0.4,4.7-0.4,7-0.2c5,0.4,9.9,0.7,14.9,1.3c5.8,0.8,11.5,1.5,17.2,2.7c4.6,0.9,9.2,2,13.7,3.1
	c4,1,7.9,2.5,11.6,4.5c2,1.1,3.9,2.5,5.2,4.6c1.4,2.2,1.3,3.8-1.3,5.9c-3.2,2.7-7.1,4.3-11.2,5.2c-1.2,0.2-2.4-0.3-3.7,0.4
	c-0.9,0.5-0.9,0.8-0.4,1.6c1.4,1.9,2.1,4,1.9,6.4c0,0.2,0,0.5-0.1,0.7c-0.2,0.6-4.9,3.1-5.4,2.8c-0.8-0.4-1.2-0.2-1.5,0.6
	c-0.4,0.9-1.3,1.1-2.1,1c-1.1-0.2-2.3-0.6-2.7-1.8c-0.3-0.9,0-1.6,1.1-1.4c0.5,0.1,1,0.3,1.6,0.5c-0.3-4.1-2-7.6-4.2-10.7
	c-0.8-1.1-2.3-1.8-4.1-1.2c1.8,1.9,3,4.1,3.8,6.6c0.7,2.1,1.3,4.1,1.3,6.3c0,1,0,2.1-1.2,2.5c-1.4,0.4-2.4-0.3-3.1-1.5
	c-0.9-1.9-1.7-3.8-2.6-5.6c-0.3-0.6-0.6-1.4-1.2-1.5c-0.6-0.1-0.7,0.8-1,1.3c-1.8,2.8-4.1,4.8-7.4,5.4c-1.2,0.2-2.7,0.3-3.3-1.1
	c-0.5-1.4,0.1-2.6,1.5-3.3c0.3-0.2,0.6-0.3,0.8-0.9c-1.2-0.1-2.1,0.6-3.1,1c-7.5,3.1-15.5,3.8-23.4,5c-12.2,1.8-24.4,2-36.7,2.6
	c-10.4,0.5-20.8-0.2-31.2-0.9c-5.1-0.3-10.2-0.4-15.2-1.8c-1.1-0.3-1.2-0.2-2-0.9c-1.5,3-4.7,3.7-7.7,1.5c-1.4-1-2.7-2.2-3.7-3.5
	c-0.9-1.2-1.6-0.8-2.6-0.4c-2.7,1.2-4.2,3.6-6,5.6c-0.4,0.5-0.7,0.9-1.2,1.4c-1,1.1-2.3,1.7-3.7,0.9c-1.5-0.9-0.9-2.3-0.7-3.6
	c0.1-0.8,1.1-1.4,0.7-2.7c-1.3,1.6-2.6,3-4.2,4.1c-1.7,1.2-3.2,0.7-3.5-1.4c-0.1-0.9-0.3-1-1.2-0.8c-1.4,0.3-2.3-0.7-2-2.2
	c0.2-1.2,0.3-2.5,1.3-3.4c0.4-0.4,0.8-1,0.5-1.6c-0.3-0.6-1-0.3-1.5-0.4c-5.8-0.7-11.2-2.2-15.6-6.2c-3-2.7-2.9-5.4,0-8.2
	c3-2.8,6.5-4.4,10.2-5.9c2.7-1.1,5.4-2.2,8.2-3c5.6-1.7,11.2-3.2,17-4.2c4.8-0.8,9.6-1.6,14.4-2.1c4-0.4,7.9-1.3,12-0.1
	c0.9,0.3,2-0.1,3-0.1C71.3,117.1,72,117,72.8,117.7L72.8,117.7z M110.7,154.7c0-0.1,0-0.3,0-0.4c4.9,0.4,9.8-0.2,14.6-0.8
	c5.2-0.6,10.5-0.8,15.8-1.6c4.2-0.6,8.4-1.2,12.6-2c2.9-0.6,5.8-1.5,8.8-1.7c0.4,0,1.1-0.1,0.7-0.6c-0.7-1-0.6-2.5-1.8-3.2
	c-1.2-0.7-2-1.7-3-2.6c-5.5-5.4-11.2-10.6-18.6-13.3c-5.4-1.9-10.8-2.4-16.4-1.5c-0.9,0.2-2,0.7-2.4,1.7c-1,2.2-2.2,4.2-3.6,6.1
	c-2.3,3.1-4.9,5.9-9,6.4c-4.6,0.6-7.8-0.4-9.9-4c-0.9-1.6-1.8-1.9-3.3-1.7c-7.1,1.1-13.6,3.5-19.1,8.5c-2.9,2.7-5.2,6-8.4,8.3
	c-0.6,0.4-0.4,0.8,0.3,0.9c1,0.1,2,0.3,3,0.4c8.7,0.8,17.4,1.1,26.1,1.1C101.5,154.6,106.1,154.6,110.7,154.7L110.7,154.7z
	 M33.3,157.1c0.6,0.1,0.9-0.2,1.2-0.5c1.6-1.7,3-3.6,4.7-5.3c1.4-1.3,3-2.3,4.8-2.9c0.9-0.3,1.8-0.4,2.4,0.8c1,2.3,3,3.7,5.1,4.9
	c0.9,0.5,2.2,0.8,2.8-0.2c0.6-1.1-0.9-1.3-1.5-1.9c-0.2-0.2-0.5-0.2-0.6-0.3c-1.5-1.6-4-2.1-4.5-4.7c-0.2-1.1-2.4-1.8-2.8-1.1
	c-0.8,1.5-2.2,1.6-3.5,1.9c-2.7,0.5-4.8,1.9-6,4.2C34.4,153.5,33,155,33.3,157.1L33.3,157.1z M183.6,152.3
	c-0.4-4.2-1.1-8.3-4.8-11.1c-0.7-0.6-1.6-1.2-2.4-1.3c-1.3-0.2-4.2,3.4-3.8,4.7c0.8,2.3-0.9,3.3-2,4.6c-0.5,0.6-1.2,1-1.8,1.5
	c-0.3,0.2-0.7,0.4-0.5,0.8c0.2,0.5,0.8,0.3,1.1,0.2c2.1-0.9,3.8-2.2,5.1-4.1c0.7-1,1.5-2.1,1.2-3.2c-0.4-1.4,0.4-1.3,1.1-1.2
	c0.7,0.1,1.5,0.4,2.1,0.9c1.2,1.2,1.9,2.7,2.6,4.2C182.2,149.7,182.4,151.2,183.6,152.3L183.6,152.3z M10.1,136.3
	c0.1,0.7,0.1,1.7,1,2.1c1,0.5,1.7-0.2,2.4-0.8c1-0.8,2-1.6,3-2.3c1-0.7,2-1.3,2.6-2.4c0.4-0.6,0.6-1.3,0.2-2.1
	c-0.4-0.7-1.1-0.7-1.8-0.6c-0.5,0.1-1,0.2-1.6,0.3c-2.6,0.5-3.4,3.3-5.7,4.2C9.9,135.1,10.1,135.7,10.1,136.3L10.1,136.3z
	 M42.2,145.5c-0.4-0.7-0.8-1.3-1.4-1.1c-1.6,0.5-3.2,0.2-4.8,0.1c-0.5,0-0.9,0.3-1.3,0.5c-2.7,1.4-4.3,3.9-6.2,6.1
	c-0.8,1-1.7,2-1.7,3.4c0.7-0.1,1.2-0.4,1.6-0.9c1.1-1.2,2.3-2.4,3.4-3.7c0.9-1.1,1.5-0.8,2.1,0.4C35.8,147.2,38.5,145.8,42.2,145.5
	L42.2,145.5z M23.2,152.2c0.6-0.3,1.2-0.6,1.7-1.1c2.7-2.7,5-5.8,8.3-7.9c0.2-0.1,0.5-0.5,0.5-0.7c0-0.2-0.4-0.4-0.7-0.5
	c-1.5-0.4-2.5,0.2-3.6,1.2C26.7,145.7,24.6,148.7,23.2,152.2L23.2,152.2z M183.3,137.9c5.8,2.5,7.1,8.2,9.4,13.1
	c0.5-0.2,0.5-0.5,0.4-0.8c-1-4.2-2.6-8.2-5.6-11.6C186.3,137.2,185.1,136.9,183.3,137.9L183.3,137.9z M195.5,147.6
	c0.5-1.6-0.6-2.4-0.9-3.4c-0.7-2.2-2.2-3.9-3.5-5.8c-0.3-0.4-0.6-0.6-1.1-0.3c-0.2,0.2-0.1,0.4,0.1,0.6
	C192.5,141.2,193.6,144.5,195.5,147.6L195.5,147.6z M129.5,118.9c0.9,0,1.7-0.2,2.3-0.8c0.2-0.2,0.2-0.5-0.1-0.6
	c-0.8-0.4-1.6-0.4-2.4-0.2c-0.6,0.2-1.4,0.2-1.3,0.9C128.2,119,129,118.7,129.5,118.9L129.5,118.9z M185.9,133.2
	c0.6,0,1.1-0.2,1-0.8c-0.2-0.9-0.9-1.2-1.7-1.3c-0.5,0-1,0.3-0.9,0.8C184.3,132.9,185.2,133.1,185.9,133.2L185.9,133.2z"/>
<path class="st0" d="M101.2,73.6c-0.9-0.2-1.8-0.4-2.8-0.6c-1.6-0.4-3.2-1-4-2.5c-0.7-1.4-1.6-1.4-2.7-1c-2.1,0.7-4.2,0.9-6.4,0.6
	c-2.5-0.4-5-1.1-6.5-3.5c-0.4-0.7-0.9-0.6-1.5-0.4c-4.5,1.4-8.8,0.5-13.1-1.1c-3.5-1.3-6.5-3.3-8.5-6.6c-3.2-5.2-1.9-11.9,2.5-15.6
	c4.3-3.5,9.1-4.4,14.4-2.9c0.4,0.1,0.9,0.2,1.5,0.3c0.1-2.3-0.3-4.6,1.1-6.7c1.9-2.9,4.6-4.6,8-4.8c8.4-0.4,15,3.3,20.5,9.4
	c2.6,2.9,4.4,6.2,5.6,10.4c1.8-2.2,4-3.2,6.2-4c2.2-0.8,4.4-1.7,6.9-1.7c3.8-0.1,7.7-0.3,11.2,1.2c4.9,2.1,9.5,4.8,12.8,9.1
	c4.7,6.3,6.2,13.3,5.2,21.1c-0.9,7.9-5,14.2-10.1,20c-0.9,1.1-1.9,2.1-3.2,2.8c-0.8,0.4-1.4,0.8-2.5,0.2c-0.8-0.4-1.6,0.3-1.6,1.2
	c0.4,5.8-5.5,10.2-10.6,10.8c-1.6,0.2-3.1-0.3-4.3-1.2c0-0.2,0.1-0.3,0.1-0.5c0.8,0,1.5,0,2.2,0c4.6,0,8-2.1,10.1-6.2
	c1.6-3,0.2-4.7-2.5-5.7c-3.5-1.2-2.2-1.2-5.3,2.6c-1.2,1.5-2.4,2.9-4.1,3.9c-1.3,0.8-2.9,0.9-4.1,0.1c-1.4-1-1.5-2.7-1.4-4.3
	c0.1-1.8,0.7-3.5,1.6-5c0.4-0.7,0.3-1.1-0.5-1.3c-0.4-0.1-0.8-0.4-1.1-0.6c-2-0.9-2.5-0.6-3.4,1.4c-1.2,2.7-2.4,5.5-4.8,7.3
	c-6.2,4.7-14.4,3.3-17.7-3.8c-0.7-1.6-0.8-3.5-0.7-5.3c0.2-2.7,0.8-5.2,2.6-7.4c1.6-1.9,3.4-1.9,5.4-1.6c3.7,0.6,7.2,2,10.8,3.3
	c0.6,0.2,1.2,0.7,1,1.3c-0.2,0.8-0.9,0.9-1.6,0.6c-2.8-1.1-5.8-1.9-8.8-2.5c-1-0.2-1.6-0.5-2,1c-0.5,2.4-2.5,2.9-4.3,1.3
	c-1.3,3.6-1.9,7.1,0.6,10.3c3.1,4,7.9,4.3,11.9,1.6c3.2-2.2,5.6-5.1,6.6-8.9c0.3-1,0.8-1.4,1.8-1.1c1.4,0.6,2.8,0.8,4.1,1.7
	c0.7,0.4,1.4,0.7,2.2-0.1c0.8-0.8,0.7-1.2,0.3-2.2c-1.7-4.9-3.2-9.9-1.7-15.2c0.1-0.5,0.3-1,0-1.4c-0.5-0.5-1,0.1-1.4,0.3
	c-3.2,1.2-6.6,1.5-10.1,2.1c2.3,0.9,4.3,1.9,5.8,3.9c0.6,0.8,0.4,1.3-0.2,1.8c-0.7,0.6-1,0.1-1.4-0.5c-2-2.7-4.6-3.2-7.6-1.8
	c-1.2,0.6-2.5,0.3-3.7,0.3c-0.8,0-1.1-0.7-1.3-1.3c-0.1-0.6,0.3-0.9,0.8-1.3C98.9,74.3,100,74,101.2,73.6L101.2,73.6z M89.4,32.1
	c-0.8-1.1-1.6-0.8-2.2-0.9c-3.2-0.5-6.1-0.2-8.7,2.1c-2.3,2-2.2,4.4-2.1,7c0,0.4-0.1,1,0.4,1.1c0.8,0.2,0.6-0.6,0.7-1
	c0.2-0.5,0.2-0.9,0.3-1.4c0.5-1.8,1.3-3.3,2.8-4.5C83.2,32.7,86,31.8,89.4,32.1L89.4,32.1z M56.9,54.8c0.1-6.9,4-10.7,10.1-12.8
	c-3.8,0.2-7,1.6-9,4.9C56.4,49.4,55.8,52,56.9,54.8z"/>
<path class="st0" d="M78.3,71.7c1.6-1.5,2.9-0.7,4.3,0c2.4,1.2,4.4,2.8,5.7,5.2c1.7,3,1.5,4.2-1.7,6.9c-2.7,2.3-5.8,4.2-8.3,6.8
	c-1.2,1.3-2.6,2.6-3.1,4.3c-0.8,2.9,1.5,4.1,3.3,5.5c0.7,0.6,1.5,1,2.2,1.6c0.5,0.4,0.9,1.1,0.4,1.8c-0.5,0.6-1.1,0.2-1.6-0.1
	c-2.2-1.6-4.7-2.8-6.2-5.4c-0.8-1.4-1-2.6-0.3-4.1c0.2-0.3,0.5-0.7,0.1-0.9c-3.8-1.9-3-5.3-2.8-8.5c0.2-2.3,1.2-4.3,2.3-6.3
	c0.4-0.7,0.9-1.1,1.5-1.1c3.6-0.1,7.1,0.6,10.3,2.4c0.4,0.2,1.2,0.6,0.7,1.4c-0.4,0.6-1,0.6-1.6,0.3c-0.5-0.2-1.1-0.2-1.5-0.4
	c-1.7-0.9-3-1.4-3.4,1.3c-0.1,0.7-0.9,1.6-1.9,1.3c-1.1-0.3-1.5-1.3-1.5-2.4c0-0.6,0.6-1.5-0.1-1.7c-0.9-0.3-1,0.8-1.3,1.4
	c-2,3.3-2.6,6.6-0.7,10.2c0.5,0.9,0.9,1.4,1.7,0.2c2.1-3.1,5.2-5.2,8.1-7.5c0.7-0.6,1.5-1.2,2.2-1.7c2.6-1.8,2.6-3.3,0.3-5.6
	C83.4,74.5,80.8,73.2,78.3,71.7L78.3,71.7z"/>
<path class="st0" d="M172.2,45.7c-1.4-2.8,0.4-4.4,1.3-6c2.7-5.1,6.1-9.8,10.2-14c1.3-1.3,2.5-2.8,4.3-3.6c0.4-0.2,0.8-0.4,1.2-0.1
	c0.5,0.4,0,0.7-0.1,1.1c-0.5,2.5-2.6,4-4.2,5.5c-3.3,3-5.6,6.6-8,10.2C175.3,41,173.8,43.3,172.2,45.7L172.2,45.7z"/>
<path class="st0" d="M190,49c-0.1,1.1-0.5,1.7-1.1,2.4c-2.1,2.1-4.6,3.8-6.5,6.1c-2.2,2.8-4.3,5.7-5.5,9.1c-0.1,0.3-0.3,0.5-0.5,0.8
	c-0.4,0.6-0.5,1.7-1.4,1.4c-0.9-0.3-0.8-1.5-0.5-2.3c1.1-3.4,2.8-6.7,5-9.5c2.6-3.3,5.6-6.2,9.1-8.4c0.4-0.2,0.7-0.6,1.1-0.3
	C189.9,48.3,189.9,48.8,190,49z"/>
<path class="st0" d="M16.7,40.3c-0.2,0.7,0.2,1.2-0.4,1.4c-0.5,0.2-0.6-0.3-0.9-0.7c-1.7-3-3-6.3-4.6-9.4c-1.7-3.2-3.6-6.4-5.4-9.5
	c-0.6-1-1.1-1.9-1.7-2.9c-0.2-0.3-0.2-0.7,0-1c0.3-0.3,0.6-0.2,1,0c1,0.4,1.7,1,2.3,1.9c3.1,4.6,5.2,9.6,7.5,14.6
	C15.5,36.6,16,38.6,16.7,40.3L16.7,40.3z"/>
<path class="st0" d="M1.5,32.1c1.9,0.5,3.4,1.8,4.5,3.3c2.1,3.1,4.3,6.1,5.6,9.7c0.3,0.8,0.3,1.6,0.6,2.4c0.2,0.5,0.4,1-0.2,1.2
	C11.3,49,11,48.5,10.6,48c-0.9-1.1-1.6-2.4-2.1-3.7c-1.5-3.6-4.1-6.3-6.8-9c-0.4-0.4-0.9-0.8-1.3-1.3c-0.4-0.4-0.6-0.8-0.4-1.3
	C0.3,32.3,0.9,32.1,1.5,32.1L1.5,32.1z"/>
<path class="st0" d="M110.7,39.7c-0.1,0.7,0.3,1.7-0.6,2c-0.8,0.3-1.4-0.5-1.9-1.2c-1.3-1.5-2.1-3.3-2.8-5.2c-0.5-1.2-0.3-2.5,1-3.1
	c1.2-0.6,1.8,0.3,2.4,1.2C109.6,34.7,110.6,37.8,110.7,39.7L110.7,39.7z"/>
<path class="st0" d="M89.2,114.9c-1.5,0.4-2.2-1-3-2c-0.3-0.3-0.4-1.2,0.1-1.5c0.5-0.3,1.5-0.5,1.8,0.1c1,1.7,2,0.8,3.1,0.3
	c0.9-0.5,1.7-1.2,2-2.2c0.4-1.1,1.2-1.1,1.9-0.8c0.8,0.3,0.4,1.2,0.3,1.7C95,112.2,91.2,114.9,89.2,114.9L89.2,114.9z"/>
<path class="st0" d="M120.5,38.3c-0.2,1.6-1.8,2.3-3.2,3.2c-0.9,0.6-2,1-3,1.4c-0.3,0.1-0.9,0.2-1.2-0.2c-0.2-0.3,0.1-0.6,0.3-1
	c1-2.3,2.9-3.9,5-5.1C119.5,35.9,120.4,36.5,120.5,38.3L120.5,38.3z"/>
<path class="st0" d="M19.5,21.8c0.1,0.4,0.1,0.7-0.4,0.8c-0.4,0-0.8,0-1-0.5c-1.3-2.8-2.7-5.5-4.9-7.8c-0.7-0.7-0.2-1.2,0.6-1.4
	c0.9-0.3,1.8,0.1,2.2,0.8C17.7,16.2,19.2,18.8,19.5,21.8L19.5,21.8z"/>
<path class="st0" d="M41.8,101.5c-0.5,0-0.9-0.5-1.2-0.9c-1.3-1.8-2.7-3.6-4-5.4c-0.3-0.4-0.7-0.7-0.3-1.2c0.4-0.5,1.1-0.6,1.5-0.3
	c0.6,0.4,1.3,0.6,1.7,1.5c0.8,1.8,2.2,3.3,2.9,5.2C42.7,101,42.9,101.5,41.8,101.5L41.8,101.5z"/>
<path class="st0" d="M179.1,52.6c-0.1,0.5,0,1-0.5,1.3c-1.4,1.1-2.1,2.8-3.2,4.2c-0.3,0.3-0.4,0.8-0.9,0.6c-0.5-0.2-0.5-0.7-0.4-1.2
	c0.6-2.4,2.5-4,3.8-5.9c0.2-0.3,0.5-0.4,0.8-0.2C179.2,51.6,179,52.2,179.1,52.6L179.1,52.6z"/>
<path class="st0" d="M52.4,65.2c0,1.2-1.1,2.4-2.2,2.3c-1.2,0-1.9-1.2-1.6-1.7c0.6-1-0.8-2.8,1.2-3C51.2,62.7,52.4,63.9,52.4,65.2z"
	/>
<path class="st0" d="M197.1,36.7c0.3,1.4-0.7,1.7-1.8,1.7c-1.2,0-1.9-0.7-1.8-1.9c0.1-1.3,0.6-1.8,1.9-1.8
	C196.8,34.6,197.2,35.3,197.1,36.7z"/>
<path class="st0" d="M46.4,34.6c0,1.1-0.9,1.7-1.5,2.5c-0.2,0.3-1.3,0.4-1.6-0.3c-0.3-0.5-0.6-1.2-0.4-1.8c0.1-0.3,0.4-0.3,0.6-0.2
	c1.7,1.2,1.5,0.5,0.8-0.8c-0.2-0.4-0.1-0.8,0.2-1.1c0.5-0.3,0.8,0,1.1,0.2C46.2,33.4,46.4,33.9,46.4,34.6L46.4,34.6z"/>
<path class="st0" d="M25,1.6c0,1.3-0.5,2-1.7,1.9c-1.1,0-1.4-0.9-1.3-1.6C22,1,22.6,0.1,23.7,0C24.7-0.1,25,0.8,25,1.6L25,1.6z"/>
<path class="st0" d="M162.8,52.9c0.1-0.1,0.2-0.2,0.2-0.2c0.1-0.6,0.2-1.2,0.9-1.3c0.4-0.1,0.5,0.4,0.7,0.7c0.3,0.6,0.5,1.2-0.2,1.8
	c-0.6,0.5-1.1,1.3-2.1,0.8c-0.7-0.3-1.1-0.7-1-1.5c0.1-0.5,0.1-1,0.6-1.2C162.8,51.7,162.3,52.8,162.8,52.9L162.8,52.9z"/>
<path class="st0" d="M167.3,24.1c0.5-0.4,0.5-1.6,1.4-1.3c0.6,0.2,0.7,1.1,0.6,1.7c-0.3,0.9-0.9,1.5-1.9,1.4c-0.9,0-1.4-0.6-1.6-1.4
	c-0.1-0.6,0.1-1.1,0.7-1.3C167.3,23,166.9,23.9,167.3,24.1L167.3,24.1z"/>
<path class="st0" d="M28.2,28.9c0,0.8-0.3,1.4-1.2,1.3c-0.6,0-1.3-0.7-1-1c0.5-0.6-0.2-1.8,1-1.8C28,27.4,28.2,28.1,28.2,28.9z"/>
<path class="st0" d="M98.8,141.6c1.3,0.7,2.3,1.4,3.4,1.8c4.5,1.7,8.2,0.1,11.6-2.7c0.3-0.3,0.6-0.6,0.8-0.9
	c0.3-0.4,0.8-0.4,1.1-0.2c0.4,0.3,0.1,0.6-0.1,0.9c-0.7,2-2.5,2.9-4.2,3.7c-3.3,1.4-6.7,2.3-10.1,0.3
	C100.4,143.9,99.3,143.2,98.8,141.6L98.8,141.6z"/>
</svg>
