<?xml version="1.0" encoding="utf-8"?>
<!-- Generator: Adobe Illustrator 27.6.0, SVG Export Plug-In . SVG Version: 6.00 Build 0)  -->
<svg version="1.1" id="Layer_1" xmlns="http://www.w3.org/2000/svg" xmlns:xlink="http://www.w3.org/1999/xlink" x="0px" y="0px"
	 viewBox="0 0 231.6 152.9" style="enable-background:new 0 0 231.6 152.9;" xml:space="preserve">
<style type="text/css">
	.st0{fill:#16013E;}
</style>
<path class="st0" d="M229.4,84.6c1.7-5.4-2-12.9-7.1-15.5c-4.1-2.1-8.1-2.7-12.5-1.2c-0.8,0.3-1.7,0.1-2.4,0.7
	c-0.2,0.2-0.5,0.1-0.7-0.2c-0.1-0.3,0-0.6,0.2-0.7c0.7-0.5,1.4-1.2,2.2-1.5c5.3-1.6,10.5-1.1,15.1,2.1c3.2,2.2,5.7,5.2,6.8,9
	c0.7,2.3,0.7,4.8,0.4,7.3c-0.4,4-1.9,7.7-4.1,11c-1.2,1.8-2.6,3.3-4.2,4.7c-1.6,1.4-3.3,2.8-5.3,3.6c-0.6,0.2-0.6,0.6-0.6,1.1
	c0.4,4-4.1,7.9-8.3,7.4c-0.2,0-0.4,0-0.5,0c-0.6-0.3-1.9-0.3-1.7-1.3c0.1-0.9,1.2-0.4,1.8-0.3c3.8,0.2,6.6-2.2,6.9-4.8
	c0.1-0.9,0-1.8-0.3-2.7c-0.5-1.8-2.6-2.1-4-0.8c-0.9,0.8-1.9,1.6-2.9,2.3c-1.3,0.9-2.4,0.3-2.6-1.3c-0.2-2.7,0.7-5,2.3-7
	c0.4-0.6,0.7-0.9,0-1.5c-2.8-2.6-3.9-6.3-5.5-9.6c-1.2-2.4-2-5.1-4.2-6.9c-0.4-0.4-1-0.6-1.4-1c-0.3-0.2-0.9-0.2-0.3-1
	c0.4-0.5-0.5-0.7-0.9-0.8c-1.4-0.3-2.3,0.8-3.5,1.2c0.4,0.8,1-0.2,1.4,0.4c-3.2,3.1-6.9,5.6-11.2,7.7c1.7,0.3,3.1,0,4.4,0.9
	c1.5,1.1,1.8,2.6,1.7,4c-0.2,2.9-1.3,5.6-3.3,7.9c-1.8,2.1-3.7,4.1-6.1,5.4c-0.3,0.2-0.7,0.4-0.6,0.8c0.1,0.4,0.5,0.3,0.8,0.4
	c1.4,0.5,2.7,0.3,4.1-0.2c0.8-0.3,2.1-0.5,2.3,0c0.3,1-1,1.1-1.7,1.4c-2.6,1.1-5.1,0.7-7.4-0.5c-1-0.5-0.7-1.9,0.4-2.6
	c1.8-1.1,3.5-2.3,5-3.7c2.5-2.3,4.5-5,5-8.6c0.4-2.9-1.5-4.6-4.3-3.9c-1.4,0.3-2.8,0.9-4.3,1c-0.2-0.5,0.6-0.7,0.3-1.2
	c-0.2,0-0.4-0.1-0.6,0c-7.4,2.3-14.1-1.6-17.1-7.9c-1.8-3.8-1.7-8.7,1.7-11.8c0.8-0.7,1.7-1.2,2.6-1.4c1.3-0.3,1.5-1,1.5-2.1
	c0-3.9,3.1-7.8,6.9-8.7c4.4-1.1,8.4-0.2,11.8,3c0.3,0.3,0.8,0.6,1.4,1c0-1.7,0.3-3.2,1.3-4.5c1.5-2.1,4.5-3.4,7.1-3.1
	c5.3,0.7,8.7,5,9.9,9.5c0.4,1.7,1.1,3.3,0.9,5.1c0,0.4,0,0.9-0.4,0.9c-0.5,0.1-0.5-0.4-0.6-0.7c-1-2.1-1.2-4.4-2.1-6.6
	c-1.3-3-5.4-7-9.1-6.5c-2.9,0.4-5.1,1.8-5.2,5.2c1.3-1.6,2.5-3.2,4.6-3.5c3.9-0.5,7.1,0.5,8.7,4.6c1.1,2.6,2,5.2,2.2,8
	c0.1,2,1.7,2.9,3.8,2.5c2.5-0.6,4.9-1.2,7.5-1.2c4.7,0,8.2,2.1,10.7,5.9c1.8,2.8,3.2,5.7,3.2,9.1C229,83.4,229.2,83.9,229.4,84.6
	L229.4,84.6z M168.4,63.7c3.6-7.8,9.5-7.3,16.3-4.4c-4.6-4.8-8.4-4.5-12.1-2.6C169.7,58.3,167.7,60.5,168.4,63.7L168.4,63.7z
	 M167.7,66.7c-3-0.2-4.7,0.9-6.1,3.8c-0.9,2-0.6,5.5,1.4,7.8C162.8,71.7,164.2,68.1,167.7,66.7z"/>
<path class="st0" d="M61.8,77.8c0.5,0.3,0.9,0.5,1.3,0.7c0.8,0.4,0.9,0.9,0.6,1.7c-0.4,1-1.1,0.7-1.7,0.4c-1.5-0.8-3.1-0.7-4.8-0.6
	c-2.1,0.1-4.1,0.8-6.2,0.8c-0.6,0-1.4-0.1-1.2,1.1c0.1,0.7-0.5,1.2-1.4,1.1c-3.2-0.2-6.2,0.5-8.8,2.3c-0.8,0.5-1.6,0.4-2.1-0.3
	c-0.7-0.9,0.3-1.4,0.8-1.7c0.9-0.6,1.8-1.2,2.8-1.7c-1.5-0.2-3.1-0.4-4.6-0.6c-1.9-0.2-3.8-0.3-5.6-1.1c-0.3-0.1-0.8-0.2-1,0.2
	c-0.2,0.3,0.1,0.6,0.3,0.8c2.4,3.1,4.1,6.7,4.9,10.5c0.7,3.3,0.6,6.9-1.5,9.9c-0.2,0.2-0.3,0.4-0.4,0.7c-0.1,0.6-0.3,1.1-0.9,1.1
	c-0.8,0.1-1-0.6-1.2-1.1c-0.7-1.3-1.5-2.4-2.8-3.2c-1.9-1.1-3-1.1-4.4,0.3c-0.9,0.9-1.1,2.9-0.5,4.3c1,2.2,2.8,3.6,4.8,4.9
	c1.1,0.7,3.4,0.3,4.5-0.6c0.3-0.3,0.6-1.2,1.2-0.6c0.5,0.5,0.3,1.2-0.1,1.8c-1,1.4-3.6,2.2-5.3,1.4c-0.9-0.4-1.9-0.6-2.6-1.4
	c-1-1.2-2.6-0.8-3.9-1.3c-4-1.3-6.8-4.1-8.8-7.6c-3.2-5.2-3.2-10.8-1.2-16.4c1.2-3.4,2.8-7.1,6.2-8.2c3.3-1.1,3.7-3.8,5.1-5.9
	c1.8-2.5,3.7-4.8,6-6.9c3.1-2.8,6.6-5,10.4-6.6c5.9-2.5,12-3.4,18.3-2.3c4.2,0.8,8,2.6,10.7,6c2,2.5,2.7,5.4,2,8.6
	C69.3,73.1,65.9,75.7,61.8,77.8L61.8,77.8z M43.8,56.6c8.7-0.9,16.9,0.6,24.1,6.3C66.2,56.2,53.2,52.9,43.8,56.6z M15.8,79.6
	c5-1.8,9.1-0.6,12.8,2.6c-1.9-3-4.3-5.4-7.6-6.6c-0.4-0.1-0.8-0.4-1.2,0C18.5,76.9,16.9,77.8,15.8,79.6z"/>
<path class="st0" d="M88.2,121.9c-1.1-0.4-1.3-0.9-1.3-1.6c0-1.1,0-2.1,0-3.2c0.1-2.5-0.2-4.7-1.9-6.9c-2.8-3.6-2.6-7.9-1.7-12.2
	c1.3-6.1,3.2-12,6-17.5c2.6-5.1,5.4-10.1,9.1-14.6c2.4-3,4.9-5.8,7.9-8.1c3.2-2.5,6.9-3.4,10.9-2.2c1.2,0.4,2.3,1.3,3,2.5
	c0.4,0.8,0.9,0.8,1.5,0.1c4-4.2,9.7-4.8,14.5-1.1c4.2,3.3,7.2,7.6,10,12.1c2.2,3.6,4.3,7.3,6,11.2c1.7,3.8,3.3,7.7,4.7,11.6
	c0.9,2.5,1.8,5,2.5,7.6c1.2,4.1,2.2,8.1,1.9,12.4c-0.1,1.3-0.9,2.1-1.8,2.8c-2.9,2.8-6.4,4.6-10.2,6.2c-4,1.7-8.1,2.3-12.4,2.1
	c-1.6-0.1-3.2-0.1-4.1-1.8c-1-1.8,0.1-3.4,1-4.8c0.5-0.8,1.1-1.8,2.5-2c-1.1,1.3-0.9,2.8-0.8,4.1c0.1,1.3,1.5,2.1,3.2,2.2
	c2.6,0.2,4.9-0.6,7.3-1.3c3.3-1,6.3-2.8,9.2-4.8c3.8-2.6,4.9-6.2,3.4-10.6c-1.6-4.8-3.1-9.7-4.9-14.4c-1.5-3.8-3.1-7.6-5-11.2
	c-1.4-2.8-2.9-5.7-4.5-8.4c-2.6-4.2-5.4-8.2-9.4-11.1c-3.1-2.3-6.3-2.6-9.7-0.9c-0.5,0.3-1.1,0.4-1.6,0.7c-1,0.7-2.1,2.2-2.9,2
	c-1-0.2-1.7-1.8-2.8-2.6c-2.1-1.6-5.9-1.8-8.2-0.5c-5.1,2.8-8.7,7.1-11.9,11.8c-2.8,4-5.3,8.3-7.3,12.8c-1.9,4.2-3.5,8.5-4.6,13
	c-0.6,2.4-1.1,4.8-1.2,7.3c-0.3,5.2,2.4,8.6,6.9,10.8c0.2,0.1,0.6,0.2,0.7,0.3c0.3,0.4,1.3,0.7,1,1.3c-0.4,0.8-1.1,0.1-1.7,0
	c-0.6-0.1-1.1-0.3-1.6-0.5c-1.6-0.7-1.6-0.8-1.7,1.1C88.1,117.8,88.1,119.8,88.2,121.9L88.2,121.9z"/>
<path class="st0" d="M107.7,83.1c1-0.8,2.1-1,3.2-1c2.7,0,5.4,0.6,7.7,1.9c1.3,0.7,2,1.9,1.6,3.6c-0.6,2.8-1.3,5.3-3.4,7.4
	c-2.4,2.5-6.5,2.1-8.5-0.4c-1.1-1.3-1.4-2.9-2.2-4.6c-1.1,1.4-2.1,2.8-3.1,4.1c-1,1.3-2,2.5-2.9,3.8c-0.2,0.3-0.6,0.6-0.3,1
	c0.2,0.4,0.6,0.4,1,0.4c1.4,0,2.8-0.1,4.1,0c0.4,0,1-0.1,1.1,0.4c0.1,0.5-0.4,0.7-0.8,0.9c-0.4,0.3-0.8,0.2-1.2,0.2
	c-1.3,0-2.7,0.1-4,0c-1.2-0.1-1.6,0.5-1.3,1.5c1.4,4.4,3.2,8.5,7.2,11.3c2.8,2,6,3.1,9.5,2.9c2.1-0.2,4.1-0.8,6.3-1.2
	c-1.1,1.7-2.8,2.2-4.4,2.4c-4.3,0.5-8.4-0.1-12.1-2.6c-2.9-2-5.2-4.6-6.5-8c-1.3-3.2-2.3-6.3-2.2-9.8c0-0.4,0-0.8,0.1-1.1
	c0.1-0.4,0.5-0.6,0.8-0.7c0.5-0.1,0.5,0.4,0.6,0.7c0.2,0.4-0.2,0.9,0.3,1.4c0.7-0.9,1.3-1.8,2.1-3c-1.9,0.4-3.6,0.4-5.2-0.6
	c-3-1.9-3.3-4.8-3-7.9c0.1-0.9-0.1-1.9,0.6-2.7c0.3-0.3,0.6-0.7,1.1-0.5c0.6,0.2,0.3,0.7,0.2,1.1c-0.4,2-0.8,3.9,0.2,5.9
	c1.2,2.4,3.9,3.4,6.6,2.8c0.9-0.2,1.2-1,1.7-1.6c0.5-0.5-0.3-0.6-0.6-0.6c-0.7-0.1-0.9-0.5-0.9-1.1c0-0.6-0.1-1.3,0.6-1.7
	c0.2-0.2,0.7,0.4,0.7-0.2c0-0.4-0.3-0.6-0.7-0.5c-0.7,0.2-1.2,0.3-1.2-0.7c0-0.8,0.5-1,1.3-1c1.4,0,1.8,0.2,2.4,1.9
	c0.1-0.9,0.7-1.4,1.4-1.2c0.8,0.2,1.5-0.8,1.6-0.7c0.8,1.5,2.3,0.1,3.4,0.9c1.1,0.8,1.3,1.7,0.9,2.7c-0.4,1.1-0.9,2.5-2.6,2
	c0.5,2.1,1.9,3.7,3.8,3.6c1.8-0.1,3.3-0.9,4.3-2.8c0.7-1.4,1.1-2.8,1.6-4.2c0.4-1.2-0.4-1.7-1.1-2.1c-1.8-1-3.8-1.5-5.9-1.7
	C110.1,83.5,109,83.3,107.7,83.1L107.7,83.1z"/>
<path class="st0" d="M116.4,74.8c-1.2-0.9-1.9-2.2-2.7-3.3c-1.8,2-4.2,3.3-6.7,4.1c-0.4,0.1-0.8,0.2-0.9,0.6
	c-0.2,1.7-1.4,1.1-2.2,0.8c-1.1-0.3-2-0.5-3,0c-1.1,0.6-1.6-0.4-2.3-0.9c-0.5-0.3,0.1-0.7,0.4-0.7c0.9-0.2,1.9-0.4,2.8-0.4
	c3.6-0.2,6.9-1.5,9.6-3.9c0.7-0.7,1.2-1.6,1.9-2.3c0.4-0.5,1-0.8,1.3,0c1.2,3.3,3.9,5,6.7,6.7c1.4,0.9,3.1,1.5,4.7,2.1
	c2.4,0.9,2.4,3.1,2.7,5.1c0.2,1.6,0.1,3.1-0.4,4.7c1.1-0.1,1.4-0.9,2-1.3c3.5-1.8,6.8,0.3,7.3,4.3c0.3,2.7-0.8,4.8-3.1,6.2
	c-0.5,0.3-0.6,0.3-0.3,0.9c1.3,1.9,0.9,4.1-0.5,5.8c-0.9,1-1.9,0.7-2.8,0.6c-0.9-0.2-0.9-1.2-1-2c0-0.4,0-0.8,0-1.1
	c0.2-0.8,0.7-1.7,0.5-2.4c-0.2-0.9-1.6,0-2.1-1.2c1.4-0.5,2.9-0.9,4.3-1.5c3-1.3,4-4.3,2.3-6.7c-1.2-1.8-3.3-1.8-4.6,0
	c-0.1,0.1-0.1,0.2-0.1,0.3c-0.6,0.6-0.7,1.9-1.9,1.5c-1.2-0.5-0.1-1.5-0.3-2.6c-1.5,2.6-4.5,4.1-3.8,7.5c0.4,1.7,1.6,2.9,2.5,4.3
	c0.8,1.1,1,3.4,0.3,4.7c-1.2,2-2.2,2.7-4.1,2.5c1-1.1,2.2-1.9,2.6-3.4c0.2-0.8,0.4-1.4-0.1-2.1c-0.9-1.4-1.9-2.7-2.5-4.2
	c-1.5-3.3-0.7-6.3,1.6-8.9c1.8-2.2,2-4.5,1.1-7.1c-0.3-0.9-1-1.4-1.8-1.6c-1.1-0.2-1.8-0.9-2.6-1.4c-0.9-0.5-1.5-1.7-2.8-0.8
	c-0.1,0-0.2,0-0.3-0.1c-1.7-0.9-3.4-0.9-5.2-0.1c-0.3,0.1-1.1,0.3-1.1-0.4c0-0.7,0.5-1.3,1.1-1.4C114.1,75.5,115.2,74.8,116.4,74.8
	L116.4,74.8z"/>
<path class="st0" d="M118.7,29.1c-2.1,0.7-4.1,0.8-6.1,0.8c-9.4,0.2-18.7-0.2-28.1-0.1c-7.7,0-15.3-0.3-23-0.1
	C59.7,29.8,57.9,30,56,30c-1.1,0-1.4,0.5-1.4,1.4c0,1.3-0.1,2.7-0.2,4c0,0.5-0.1,1.2-0.8,1.2c-0.7,0-0.6-0.8-0.6-1.3
	c0-1.7,0-3.3,0-5c0-1.2,0.6-1.7,1.7-1.9c1.8-0.5,3.7-0.6,5.5-0.6c10.1,0.1,20.2,0,30.3,0.5c8.7,0.4,17.4,0.2,26.1,0.5
	C117.2,28.8,117.8,28.6,118.7,29.1z"/>
<path class="st0" d="M53.3,41.7c-1.2-1.2-2.1-2.2-2.8-3.5c-0.4-0.7-0.2-0.9,0.5-0.9c0.2,0,0.5-0.1,0.6,0c1.6,0.9,3,0.3,4.5-0.7
	c0.5,2.1-1,3.3-1.7,5.2c0.9,0,1.7,0,2.5,0c2.9,0,5.7,0,8.6,0.3c2.3,0.2,2.6,0.4,2.9,2.7c0.3,2.4,0.3,4.9,0.2,7.3
	c0,0.4-0.1,0.8-0.3,1.2c-0.1,0.3-0.2,0.8-0.7,0.8c-0.6,0-0.5-0.6-0.5-1c-0.2-2.7-0.3-5.4-0.4-8.1c0-1-0.2-1.4-1.3-1.4
	c-9.1-0.1-18.3-0.2-27.4-0.4c-1.5,0-2.1,0.4-2,2c0.2,3-0.4,6,0.3,9c0.1,0.4-0.2,0.5-0.4,0.5c-0.5,0.1-0.8-0.2-0.8-0.7
	c-0.1-2.4-0.2-4.8-0.2-7.2c0-1.1,0.3-2.1,0.2-3.2c-0.1-1.3,0.5-1.6,1.7-1.6c5.3,0,10.5-0.2,15.8-0.3C52.7,41.8,52.9,41.8,53.3,41.7
	L53.3,41.7z"/>
<path class="st0" d="M173.7,135.5c-0.9,0.5-1.6,0.4-2.4,0.4c-5.5,0-11,0-16.4,0c-1.4,0-1.9,0.5-1.9,1.8c0,2.4,0,4.8,0,7.2
	c0,0.9,0.4,1.2,1.4,1.3c7.1,0.5,14.1,0.2,21.2,0.3c1.3,0,1.9-0.4,1.7-1.8c-0.3-1.8-0.1-3.6,0-5.4c0-0.7,0.2-1.3,0.8-1.3
	c0.8,0,0.5,0.8,0.5,1.3c0.3,2.3-0.1,4.7-0.2,7c0,0.7-0.4,1.1-1.1,1.2c-1.7,0.4-3.4,0.3-5.1,0.2c-6.2-0.1-12.3-0.3-18.5-0.4
	c-1.5,0-2.1-0.6-2-2.1c0.1-2.9,0.1-5.9,0-8.8c0-1.1,0.4-1.5,1.3-1.8c0.9-0.2,1.8-0.5,2.6-0.6c5.8-0.3,11.6,0,17.3,0.9
	C173.1,135.1,173.3,135.3,173.7,135.5L173.7,135.5z"/>
<path class="st0" d="M104.2,136.9c-1.3-3.1-1.1-6.1-1-8.9c0-1.3-0.4-1.7-1.7-1.7c-8-0.1-16-0.2-24.1-0.4c-2.1,0-2.1,0-2.1,2
	c0,2.3,0,4.6,0,6.9c0,0.5,0.2,1.2-0.6,1.3c-0.8,0.1-0.6-0.7-0.7-1.1c-0.2-2.8-0.5-5.5-0.6-8.3c-0.1-2.2,0.2-2.5,2.4-2.5
	c8.9-0.1,17.8,0.2,26.8,0.4c1.4,0,2.1,0.5,2,2C104.6,129.9,104.9,133.2,104.2,136.9L104.2,136.9z"/>
<path class="st0" d="M112.2,139c-1,1-2.2,0.9-3.5,0.9c-2.7,0-5.3,0-8-0.1c-1.5,0-2.2,0.3-2.2,2.1c0.1,2.5,0,5.1,0,7.6
	c0,1.1,0.4,1.6,1.6,1.7c4.6,0.4,9.2-0.1,13.8-0.4c0.8-0.1,0.9-0.5,0.9-1.2c0-1.8,0-3.6-0.1-5.4c0-0.7,0-1.4,0-2.1
	c0-0.6,0.2-1.4,0.8-1.4c0.7,0,0.5,0.8,0.6,1.2c0.4,2.9,0.2,5.8,0.2,8.8c0,0.9-0.6,1.5-1.5,1.6c-5.2,0.5-10.5,1-15.7,0.4
	c-1-0.1-1.5-0.5-1.6-1.5c-0.5-3.4-0.7-6.9-0.4-10.3c0.1-2,0.8-2.5,2.8-2.5c3.3,0,6.7,0,10.1,0C110.8,138.3,111.5,138.4,112.2,139
	L112.2,139z"/>
<path class="st0" d="M174.9,89.9c0.4,2.8-0.1,5.6-0.3,8.3c-0.5,5.7-0.3,11.3,1.5,16.6c1.3,3.9,3.7,7.4,7.7,9.2c3,1.3,6,0.8,8.9-0.1
	c0.8-0.2,1.8-1.1,2.2-0.3c0.3,0.6-0.9,1.4-1.7,1.7c-5.9,2.4-11.1,0.9-15.2-3.9c-3.9-4.5-5.2-9.8-5.3-15.6c0-3,0-5.9,0-8.9
	c0-2.1,0.5-4.2,1.2-6.2C174.1,90.3,174.3,90.1,174.9,89.9L174.9,89.9z"/>
<path class="st0" d="M65.9,105.8c0.8,1.8,0.2,3.5,0,5.2c-0.5,3.8-1.9,7.3-4.3,10.3c-2.9,3.6-6.5,5.4-11.3,4.5
	c-3.8-0.8-7.2-2.4-10.3-4.8c-0.7-0.5-0.7-0.5-1.3-1.7c1.6,0.2,2.9,1.1,4.1,1.9c2.4,1.5,5,2.6,7.8,3c4,0.5,7.1-0.8,9.6-4.1
	c2.7-3.7,3.7-7.9,4.4-12.3C64.9,107.2,65.1,106.4,65.9,105.8L65.9,105.8z"/>
<path class="st0" d="M56.8,100.9c1.9-0.2,2.9,1.3,4.3,1.7c1.3,0.4,2.6,0.6,3.9,0.5c1.1-0.1,1.4-0.8,1.1-1.8c-0.3-1.2-1.1-2-1.9-2.8
	c-2-2.1-4.1-4.1-6.2-6.1c-0.5-0.5-0.9-1.2-1.2-1.9c-0.2-0.4-0.5-0.9,0-1.3c0.5-0.3,0.9,0.1,1.2,0.4c1.3,1.6,2.7,3.1,4.4,4.3
	c0.5,0.3,0.9,0.7,1.4,0.4c0.6-0.3,0.5-1.1,0.3-1.6c-0.5-1.3-1.1-2.5-2.1-3.5c-0.5-0.6-0.8-1.3,0-1.8c0.7-0.5,1.1,0.2,1.5,0.7
	c1.4,1.8,2.9,3.7,2.3,6.2c-0.1,0.2,0,0.5-0.1,0.6c-1.7,1.2-0.1,1.8,0.4,2.6c0.7,1.2,1.9,2,1.9,3.6c0,1.9-0.9,3.2-2.8,3.3
	c-3,0.2-5.7-0.9-8-2.7C57,101.8,57,101.4,56.8,100.9L56.8,100.9z"/>
<path class="st0" d="M116.9,17.8c-3.1,0-6.2,0.3-9.3-0.5c-0.9-0.2-1.2-0.6-1.3-1.4c-0.1-3.8-0.2-7.5-0.3-11.3c0-0.5-0.2-1.1,0.4-1.2
	c0.6-0.1,0.6,0.6,0.8,1c1,2.7,1,5.5,1,8.3c0,3.2,0,3.1,3.2,3.3c4.9,0.4,9.8-0.1,14.8-0.1c0.6,0,1.2,0,1.8,0c0.5,0,1,0.1,1,0.7
	c0,0.6-0.5,0.7-1,0.8c-2,0.1-3.9,0.2-5.9,0.3C120.3,17.8,118.6,17.8,116.9,17.8L116.9,17.8z"/>
<path class="st0" d="M111.4,45.1c-0.1-2.1-0.4-4.5-0.3-6.8c0-0.3-0.1-0.7,0.3-0.8c0.5-0.2,0.6,0.3,0.7,0.7c0.2,1.5,0.5,3,0.5,4.5
	c0.1,1.3,0.2,2.5,0.3,3.8c0.1,0.7,0.4,1.1,1.1,1.1c7.8-0.4,15.6,0.8,23.4,0.3c1.3-0.1,2.9,0.5,3.4-1.6c0.2-0.6,0.8-0.1,1,0.3
	c0.4,0.9-0.4,2.3-1.4,2.5c-0.2,0.1-0.5,0-0.8,0c-8.8,0-17.6,0-26.4,0c-1.3,0-1.8-0.6-1.8-1.8C111.4,46.7,111.4,46,111.4,45.1
	L111.4,45.1z"/>
<path class="st0" d="M85.2,141.7c0.4,3.4,0.6,6.5,0.6,9.6c0,0.9-0.8,1.2-1.6,1.2c-6,0.5-12,0.4-18,0.3c-0.9,0-1.5-0.3-1.5-1.4
	c0-3.4,0-6.9,0.1-10.4c0-0.4,0-1,0.6-0.9c0.6,0,0.4,0.7,0.5,1c0.1,2.8,0.2,5.5,0.1,8.3c0,1.4,0.4,1.7,1.8,1.9
	c5.2,0.6,10.3-0.1,15.4-0.1c1.1,0,1.5-0.4,1.4-1.5c-0.1-1.7-0.1-3.4-0.1-5.1C84.6,143.8,84.6,142.9,85.2,141.7L85.2,141.7z"/>
<path class="st0" d="M91.3,70.1c-0.8,0.9-1.8,1.1-2.8,1.1c-2.9,0-5.8,0.1-8.6,0c-1.4-0.1-2.1,0.2-2.2,1.8c-0.3,3-0.1,5.9-0.2,8.9
	c0,0.7,0.3,0.9,1,0.8c1.1-0.1,2.2-0.1,3.3-0.2c0.9-0.1,1.9-0.1,2.9-0.1c0.5,0,1.2,0.1,1.1,0.8c-0.1,0.6-0.7,0.6-1.1,0.6
	c-2.4,0-4.9,0-7.3,0.1c-0.9,0-1.1-0.4-1.1-1.2c0-3.8,0.1-7.7,0-11.5c0-1.2,0.9-1.5,1.6-1.6C82.4,69,86.9,69.6,91.3,70.1L91.3,70.1z"
	/>
<path class="st0" d="M85.1,63.5c-1-0.5-1.1-1.2-1.1-2c0-5.9,0-11.8,0-17.7c0-2.3-0.2-4.7-0.3-7c0-0.5-0.1-1.2,0.6-1.3
	c0.7-0.1,0.8,0.5,0.9,1c0.2,0.9,0.3,1.9,0.3,2.8c-0.1,7.5-0.2,15-0.2,22.5C85.3,62.4,85.2,62.8,85.1,63.5L85.1,63.5z"/>
<path class="st0" d="M55.2,95.2c0,2.7-1.7,3.8-4,3c-2.8-0.9-4.6-2.8-5.9-5.4c-0.3-0.6-0.4-1.2,0.3-1.5c0.5-0.2,0.8,0.1,1.1,0.6
	c1.1,1.6,2.2,3.2,3.9,4.2c0.6,0.3,1.2,0.4,1.8,0.5c1,0.1,1.4-0.4,1.2-1.3c-0.3-1.3-0.6-2.6-1.2-3.8c-0.2-0.3-0.4-0.7-0.4-1
	c0-0.4-0.3-1,0.3-1.2c0.6-0.2,1.1,0.1,1.2,0.7C54.2,91.9,55.6,93.4,55.2,95.2z"/>
<path class="st0" d="M166.2,108.7c-0.2,3.8,0,7.5-0.5,11.3c-0.1,1,0,2,0.1,3c0.1,0.9,0.1,1.9,0.2,2.9c0,0.5,0,1.1-0.6,1.1
	c-0.4,0-0.5-0.6-0.5-1c0-1.4-0.3-2.8,0.2-4.1c0.1-0.4,0.2-0.8,0.1-1.2c-1.1-5.2-0.2-10.4-0.1-15.5c0-0.4,0-1,0.5-1
	c0.6,0,0.5,0.6,0.5,1C166.2,106.2,166.2,107.5,166.2,108.7L166.2,108.7z"/>
<path class="st0" d="M112.3,35.6c3.6-1,7-0.5,10.5-0.8c2.5-0.2,2.5-0.1,2.8-2.5c0.1-0.7-0.1-2,0.8-1.9c0.9,0.1,0.6,1.3,0.6,2
	c-0.1,3.4-0.1,3.5-3.4,3.8c-3.1,0.2-6.3,0.2-9.4,0.2C113.7,36.3,113.1,36.2,112.3,35.6z"/>
<path class="st0" d="M69.3,137.6c4.1,0.2,8.2,0.8,12.4,0.6c0.3,0,1-0.3,1,0.4c0,0.5-0.6,0.5-1,0.5c-4.2,0.3-8.5-0.2-12.7,0
	c-0.8,0-1.7,0-2.5,0c-0.5,0-0.9-0.2-0.9-0.7c0-0.5,0.3-0.8,0.8-0.8C67.3,137.6,68.3,137.6,69.3,137.6L69.3,137.6z"/>
<path class="st0" d="M190.7,94.5c0.5,0,1.1-0.1,1.6,0c0.5,0.1,1,0.4,1,0.8c0.1,0.5-0.6,0.6-0.9,0.6c-0.6,0.1-0.7,0.3-0.6,0.9
	c0.1,1.8-0.6,2.7-2.1,2.7c-1.3,0-2-0.8-2-2.2c0-2,0.6-2.8,2.2-2.9C190.2,94.5,190.5,94.5,190.7,94.5
	C190.7,94.5,190.7,94.5,190.7,94.5L190.7,94.5z"/>
<path class="st0" d="M181.1,96.5c-0.9,0-1.4-1.1-1.5-2.2c-0.1-1.1,0.1-2.5,1.4-2.9c1.1-0.3,2.4-0.3,3.6,0.1c0.3,0.1,0.8,0.3,0.8,0.7
	c0.1,0.5-0.5,0.6-0.8,0.6c-1.1,0-1.2,0.5-1.1,1.5C183.7,95.6,182.8,96.5,181.1,96.5L181.1,96.5z"/>
<path class="st0" d="M176.4,30.1c1.7-0.9,3.4-0.7,5.1-0.6c1.4,0,2.8,0.1,4.1,0.3c1.9,0.2,2.1,0.5,2.1,2.4c0,0.6,0,1.3-0.4,2
	c-0.6-0.4-0.8-1-0.9-1.6c-0.1-1.3-0.9-1.6-2.1-1.6c-2.3,0-4.7,0.2-7-0.4C177,30.4,176.7,30.2,176.4,30.1L176.4,30.1z"/>
<path class="st0" d="M194.4,85.9c2.6,0,4.5,0.8,5.9,2.6c0.4,0.5,1,1.3,0.2,1.9c-0.8,0.6-1.2-0.1-1.6-0.7c-1.4-2-3.4-2.3-5.6-1.8
	c-0.8,0.2-1.4,0.2-1.5-0.7c-0.1-0.8,0.4-1.1,1.2-1.1C193.4,86.1,194.1,86,194.4,85.9L194.4,85.9z"/>
<path class="st0" d="M87.6,64.5c-0.5,1.4-0.9,2.8-2.1,3.7c-0.6,0.5-1.2,0.1-1.7-0.3c-0.8-0.7-1.3-1.6-1.8-2.5c-0.2-0.3-0.3-0.7,0-1
	c0.3-0.3,0.7-0.3,1-0.1c1.1,0.8,1.9,0.4,2.9-0.2C86.4,63.7,87.2,63.5,87.6,64.5L87.6,64.5z"/>
<path class="st0" d="M130.3,4.8c-0.6,0.6-1.3,0.5-2,0.5c-2.9-0.1-5.8-0.2-8.8-0.3c-1.6-0.1-3.2,0.1-4.8,0.3c-0.4,0.1-1,0.1-1.1-0.4
	c-0.1-0.7,0.6-0.4,0.9-0.5c2.3-0.6,4.7-0.4,7-0.2c2.6,0.2,5.2,0.4,7.8,0.3C129.7,4.5,130.1,4.4,130.3,4.8L130.3,4.8z"/>
<path class="st0" d="M121.6,1c-5.2,0.3-10.3,0.5-15.4,0.8c0-0.1,0-0.3,0-0.4c5-1.9,10.3-0.6,15.4-1.3C121.5,0.3,121.5,0.6,121.6,1
	L121.6,1z"/>
<path class="st0" d="M105,83.3c-2,0.8-3.3-0.3-4.8-0.5c-1.6-0.2-3.2-0.6-4.9-0.5c-0.4,0-0.9,0-0.9-0.6c0-0.4-0.1-1,0.7-1
	C98.6,80.4,101.8,81.1,105,83.3L105,83.3z"/>
<path class="st0" d="M60.5,112.9c-1.9-0.2-3.6-0.5-4.8-2c-0.3-0.4-0.8-0.9-0.3-1.3c0.3-0.3,1-0.3,1.5,0.1c1.5,1.1,3.1,1.8,5,0.8
	c0.3-0.2,0.7-0.1,0.7,0.3c0,0.6,0.5,1.4-0.5,1.8C61.5,112.8,60.9,112.9,60.5,112.9L60.5,112.9z"/>
<path class="st0" d="M55.8,46.9c-0.4,0.9-1.1,0.8-1.7,0.8c-3.7,0-7.3,0-11,0c-0.4,0-1.2,0.2-1.2-0.4c0-0.6,0.7-0.4,1.2-0.4
	C47.4,46.9,51.6,46.9,55.8,46.9L55.8,46.9z"/>
<path class="st0" d="M166.7,129.8c-0.6-0.1-1.2,0.1-1.5,0.7s0.1,0.9,0.5,1.1c0.3,0.2,0.6,0.3,0.4,0.7c-0.2,0.4-0.6,0.4-0.9,0.4
	c-0.7-0.1-2.7-2.6-2.6-3.4c0-1,1.1-0.7,1.3-0.6c1,0.7,1.8,0.2,2.7-0.1c0.4-0.2,0.8-0.2,1.2,0.1c0.3,0.3,0.2,0.6,0.1,0.9
	C167.6,130.1,167.2,130,166.7,129.8L166.7,129.8z"/>
<path class="st0" d="M12.8,56.1c0,1,0,1.9,0,2.9c0,0.2,0.1,0.6-0.3,0.7c-0.2,0.1-0.4,0-0.7-0.2c-1.1-1.2-1.5-5.5-0.1-6.7
	c0.2-0.2,0.3-0.4,0.6-0.3c0.5,0,0.4,0.4,0.4,0.7C12.8,54.1,12.7,55.1,12.8,56.1L12.8,56.1z"/>
<path class="st0" d="M215.2,52c0.1,0.5-0.1,0.9-0.5,1.3c-1,0.9-2,1.8-3,2.6c-0.3,0.3-0.7,0.4-1,0.2c-0.5-0.3-0.1-0.7,0-1
	c0.7-1.7,1.9-3,3.5-3.9C214.9,50.8,215.3,51.1,215.2,52L215.2,52z"/>
<path class="st0" d="M106,106.9c0.1-0.5,0.3-0.6,0.7-0.5c2.2,0.5,3.9-0.1,5.3-1.9c0.2-0.3,0.5-0.4,0.8-0.2c0.4,0.2,0.7,0.5,0.5,1
	c-0.4,0.9-1,1.6-2,1.9c-1.7,0.4-3.3,1.3-5,0C106.1,107.2,106.1,107,106,106.9z"/>
<path class="st0" d="M184.6,115.6c-0.4-0.1-0.9-0.2-1.2-0.4c-0.4-0.2-1.1-0.3-0.9-1.1c0.2-0.6,0.7-0.5,1.2-0.5
	c1.1,0,2.2,0.1,3.1-0.8c0.5-0.4,1.4-0.6,1.9,0c0.5,0.6-0.4,1-0.7,1.4C187,115.2,185.7,115.2,184.6,115.6L184.6,115.6z"/>
<path class="st0" d="M169.7,139.3c-4,0.8-8,0.7-12,0.1C161.7,138.5,165.7,139.3,169.7,139.3z"/>
<path class="st0" d="M71.2,147.4c0.2-1.4-0.9-1.3-1.5-1.6c-0.5-0.3-1.5-0.2-1.2-1.1c0.2-0.7,1-0.9,1.7-0.9c2.2,0,4.4,0,6.7,0.1
	c-2.1,0.7-4.4,0.3-6.6,1C70.6,145.7,73.5,145.4,71.2,147.4L71.2,147.4z"/>
<path class="st0" d="M170.7,52c-0.8-0.9-0.9-1.7-0.8-2.6c0.1-1.3,0.2-2.6,0.4-4c0.1-0.6,0.4-1.3,1.1-1.1c0.9,0.2,0,0.7,0,1.1
	c0.1,1.2,0,2.3,0,3.5C171.4,50,171.4,51,170.7,52L170.7,52z"/>
<path class="st0" d="M3.5,64.8c0.7,0.2,2-0.1,2.1,0.8c0.2,1-1.1,0.8-1.8,1c-1,0.4-2,0.7-3,0.6c-0.3,0-0.7,0-0.8-0.4
	c-0.1-0.4,0-0.7,0.3-0.9C1.3,65.2,2.3,64.9,3.5,64.8L3.5,64.8z"/>
<path class="st0" d="M8.3,61.1c-0.1,0.4-0.4,0.7-0.8,0.4c-1.3-0.9-2.6-1.9-3.9-2.8C3.2,58.4,3,58,3.3,57.6c0.3-0.4,0.7-0.3,1.1-0.2
	C5.5,57.6,8.3,60.2,8.3,61.1L8.3,61.1z"/>
<path class="st0" d="M124.7,8.9c-2.6,0-5.2,0-7.9,0c-0.3,0-0.6,0-0.7-0.3c-0.1-0.4,0.2-0.6,0.4-0.7c0.3-0.1,0.6-0.1,0.9-0.1
	C119.9,7.7,122.3,7.9,124.7,8.9z"/>
<path class="st0" d="M103.5,144.6c1.9-0.5,3.8-0.2,5.7,0c0.2,0,0.6-0.1,0.6,0.3c0.1,0.4-0.3,0.6-0.6,0.6c-0.8,0.1-1.7,0.1-2.5-0.2
	C105.6,145,104.5,144.9,103.5,144.6L103.5,144.6z"/>
<path class="st0" d="M205.6,50.7c0.1-0.6-0.4-1.5,0.8-1.5c0.9,0,0.9,0.7,0.8,1.2c-0.2,0.8,0.2,2-0.9,2.1
	C205.2,52.5,205.8,51.3,205.6,50.7z"/>
<path class="st0" d="M130.6,35.8c1.6-0.6,2.9-1.3,4.3-0.5C133.8,36.3,132.7,36.4,130.6,35.8z"/>
</svg>
