<svg width="224" height="199" viewBox="0 0 224 199" fill="none" xmlns="http://www.w3.org/2000/svg">
<path d="M79.2242 17.4973C76.5602 16.2541 73.8963 17.3197 71.41 18.2076C68.7461 19.0956 66.4374 20.8716 65.0166 23.3579C64.3062 24.7786 63.7736 26.377 63.596 27.9753C63.4184 29.0409 63.9511 29.5737 65.0166 29.7513C63.0631 30.6392 60.2217 29.7513 58.4457 27.9753C55.9594 25.6666 53.8282 22.8251 53.473 19.4508C52.585 14.3006 52.7626 8.97275 57.0249 4.88808C60.5768 1.3362 65.0167 -0.439735 69.9893 0.0930478C74.074 0.62583 77.8034 2.57936 80.2897 6.13125C82.2432 8.97275 83.1314 12.1694 83.1314 15.5437C83.1314 16.4317 83.4865 16.6093 84.1969 16.4317C88.104 15.7213 91.4782 16.6093 94.8525 18.3852C94.6749 15.3661 96.4509 13.4126 98.4044 11.6367C101.246 8.97276 104.62 7.552 108.35 6.48644C113.5 5.06568 118.472 4.71049 123.8 5.95365C126.819 6.66403 129.483 7.90719 131.97 9.86073C135.699 12.8798 136.409 16.9645 136.054 21.4043C135.699 25.6666 133.746 29.3961 130.904 32.4152C127.707 35.6119 123.978 37.5654 119.538 38.8086C115.986 39.6965 112.612 39.8741 109.06 39.8741C106.929 39.8741 105.153 40.7621 104.265 42.8932C104.087 43.426 103.732 43.7812 103.022 43.6036C102.311 43.426 102.489 42.8932 102.489 42.3605C102.489 40.9397 103.732 40.4069 104.265 39.3414C103.555 38.8086 102.667 38.631 101.779 38.2758C100.713 37.9206 100.358 38.4534 100.713 39.3414C101.601 42.1829 101.068 44.8468 100.713 47.6883C100.003 51.9505 98.4045 55.68 95.5629 58.8767C94.4974 60.1199 93.787 59.9423 92.899 58.8767C92.1887 57.9887 91.6557 57.1008 90.7678 56.2128C89.8798 55.5024 87.2159 54.9696 86.1504 55.5024C84.9072 56.0352 83.8416 57.9888 83.8416 59.4095C84.0192 61.5406 86.1503 64.0269 88.1039 64.5597C88.8142 64.7373 89.5247 65.0925 90.2351 64.9149C90.9455 64.9149 91.6557 64.9149 92.5437 64.5597C91.8333 65.8029 89.8799 66.5133 88.4592 66.3357C85.9729 65.8029 84.0192 64.5597 82.776 62.251C82.4209 61.5406 81.888 61.1854 81.1776 61.363C78.5137 61.8958 76.3827 60.2975 74.6068 58.8767C71.2325 56.3904 68.9238 53.1937 67.3254 49.2866C65.1943 43.9588 64.1287 38.631 65.5495 32.7704C67.1478 26.1994 70.8773 21.2267 77.0931 18.2076C77.4483 18.3852 78.1586 17.6749 79.2242 17.4973ZM127.885 32.4152C134.634 27.2649 136.232 15.011 130.016 11.6367C133.39 18.7404 132.147 25.489 127.885 32.4152Z" fill="#3A2D52"/>
<path d="M26.8338 180.529C26.8338 178.398 24.8804 177.154 21.8613 177.154C19.7302 177.154 17.7766 177.332 15.6455 176.799C13.1592 176.089 11.028 175.023 9.60726 172.715C8.36411 170.939 3.39147 169.695 1.61553 170.583C1.08275 170.761 0.905065 172.182 0.194689 171.471C-0.338094 170.939 0.372413 170.051 0.550007 169.163C2.14835 163.48 4.98969 158.685 9.25195 154.6C11.2055 152.646 13.8694 152.646 16.3557 152.646C17.7765 152.646 18.1318 151.936 18.487 151.048C19.9077 147.141 19.9077 143.056 19.3749 138.972C19.0198 135.775 19.9077 133.289 22.2164 130.98C24.1699 129.026 26.4786 127.606 28.7873 126.362C30.7408 125.474 32.517 125.297 34.2929 126.362C34.8257 126.718 35.1808 126.718 35.3584 126.007C35.3584 125.83 35.5359 125.474 35.7135 125.297C36.2463 124.586 36.7792 123.699 36.9568 122.988C37.1344 121.923 35.7135 122.278 35.0031 121.745C33.0496 120.147 32.6945 118.193 32.8721 115.884C33.2272 111.622 35.7136 108.248 37.8448 104.696C39.7983 101.499 42.107 98.4801 44.2381 95.461C45.3037 93.8627 46.3693 92.2643 47.79 91.0212C49.7435 89.0676 52.4074 88.8901 55.0713 89.4228C58.4456 90.1332 61.6423 91.3764 63.951 94.3955C65.5494 96.5266 65.9046 99.9009 64.839 102.387C62.5303 107.36 59.3337 111.977 56.4922 116.595C55.0714 118.903 53.4729 121.212 51.697 123.521C50.6314 124.942 49.2106 125.297 47.4347 125.119C47.0795 125.119 46.5467 124.942 46.5467 124.409C46.5467 124.054 46.7244 124.054 47.0796 123.876C48.8555 123.521 50.4538 122.988 50.809 121.035C51.1642 118.726 50.0988 116.95 48.5004 115.529C45.8365 112.865 42.4622 111.8 38.7327 113.043C36.0688 113.931 35.0031 117.838 36.779 119.791C37.667 120.679 38.1999 120.857 38.9103 119.614C39.4431 118.548 40.1534 117.66 41.0413 116.772C42.4621 115.707 44.0606 115.707 45.8365 117.305C47.2573 118.371 47.6124 119.969 46.902 121.39C46.0141 123.343 44.7708 125.119 43.7053 126.895C43.5277 127.073 43.5277 127.25 43.3502 127.428C42.8174 131.157 39.6207 131.157 36.9568 131.868C35.5361 132.223 33.9377 132.578 32.517 132.578C31.629 132.578 30.7408 132.578 30.5632 131.69C30.3856 130.802 30.741 130.092 31.629 129.559C32.517 128.849 33.5823 128.671 34.1151 127.783C29.8529 127.073 26.6563 129.026 23.6372 131.69C20.6181 134.354 20.0854 137.728 20.9733 141.458C21.5061 143.944 21.3284 146.431 20.618 148.739C20.4404 149.45 20.263 150.338 20.0854 151.048C19.9078 151.581 20.0852 151.758 20.618 151.936C22.5716 152.469 24.7028 152.824 26.4787 153.89C28.7874 155.31 30.2082 154.955 31.8065 153.002C33.5825 150.87 36.2464 150.16 38.7327 149.272C39.9759 148.739 40.5086 147.674 41.0413 146.608C41.2189 146.431 41.2189 146.075 41.0413 145.898C40.8637 145.72 40.6863 145.72 40.5087 145.898C40.1535 146.075 39.6206 146.608 39.2654 145.898C38.9102 145.187 39.6206 144.832 40.1534 144.477C41.3965 143.944 42.6397 143.589 43.5277 142.523C43.8829 141.991 44.5934 141.28 44.0606 140.57C43.7054 140.037 42.8174 140.392 42.2846 140.57C41.9294 140.57 41.2189 140.925 41.0413 140.392C40.6862 139.682 41.219 139.327 41.7518 138.972C42.8173 138.439 43.8828 137.906 44.5932 136.84C44.9484 136.13 45.4813 135.42 44.9485 134.532C44.0606 135.242 42.9949 135.42 41.9293 135.775C41.3965 135.953 40.6861 135.953 40.3309 135.42C40.1533 134.887 40.5085 134.354 41.2189 133.999C42.2845 133.466 43.5277 132.933 44.4157 132.045C45.4812 130.98 45.8365 129.559 45.1261 128.138C44.9485 127.606 44.5933 127.073 45.3036 126.895C46.014 126.718 46.1916 126.895 46.3692 127.606C46.7244 129.204 46.902 130.625 46.1916 132.045C45.8364 132.578 46.014 132.933 46.3692 133.289C46.9019 134.177 47.2572 135.065 46.902 135.953C46.1917 137.728 45.8363 139.327 45.6587 141.28C45.4812 143.234 43.883 144.477 42.2846 145.187C41.5743 145.543 41.3965 145.72 41.9293 146.253C42.6397 147.141 42.107 147.851 41.5742 148.739C40.3311 150.693 38.0223 151.048 36.2464 151.936C34.4704 152.824 32.8721 153.712 31.629 155.133C30.9186 156.021 31.2737 156.553 32.1616 156.909C33.5824 157.619 35.0031 158.507 35.8911 159.928C34.2927 160.283 33.4047 159.395 32.3392 158.685C29.3201 156.909 26.1234 155.665 22.394 154.955C22.7491 155.665 23.282 155.665 23.8148 155.843C27.0115 156.731 30.2081 158.152 32.8721 160.105C35.536 162.059 36.0687 164.19 34.648 167.742C32.8721 171.827 30.3857 175.734 27.7218 179.285C27.7218 180.173 27.3666 180.351 26.8338 180.529ZM48.5004 100.966C47.4349 100.966 46.1915 101.322 45.6587 102.565C45.126 103.63 45.8363 104.518 46.5467 105.406C48.6778 107.537 52.9402 106.472 54.1834 103.63C54.5385 102.92 54.361 102.21 53.8283 101.677C53.2955 101.144 52.4073 100.966 51.8745 101.322C50.9866 101.854 50.4538 101.499 49.921 101.144C49.5659 100.966 49.0332 100.789 48.5004 100.966ZM45.8365 120.502C45.6589 120.324 45.4812 120.324 45.3036 120.147C43.5277 123.343 41.7518 126.54 39.7983 129.559C39.9759 129.737 40.1533 129.737 40.3309 129.914C42.1069 126.718 44.5934 123.876 45.8365 120.502Z" fill="#3A2D52"/>
<path d="M182.584 75.038C181.519 75.2156 180.63 75.7483 179.565 75.3932C180.453 77.1691 182.229 78.0571 183.117 79.6554C183.294 80.0106 183.65 79.833 184.005 79.833C184.182 79.833 184.36 79.833 184.538 79.6554C185.781 79.1226 186.314 80.1882 187.024 80.5434C187.734 80.721 188.8 79.833 189.865 80.1882C190.931 80.721 190.576 81.9641 191.108 82.4969C191.464 83.0297 192.884 82.3193 193.417 83.3849C194.128 84.8057 193.417 85.8712 192.707 86.7592C190.753 89.0679 188.089 90.8438 185.248 91.9094C184.893 92.087 184.537 92.087 184.182 92.087C184.005 92.087 183.65 92.2646 183.472 91.9094C183.294 91.5542 183.65 91.3766 183.827 91.199C185.07 90.4887 186.491 89.7783 187.557 89.0679C188.8 88.1799 190.22 87.292 191.108 85.8712C191.286 85.516 191.997 85.3384 191.464 84.9832C191.109 84.8056 190.398 84.8057 190.22 85.1608C188.8 86.7592 186.846 87.8248 184.893 88.7127C183.472 89.4231 182.406 90.3111 180.808 90.6663C180.275 90.8438 179.742 91.3766 179.387 90.4887C179.21 89.7783 179.742 89.4231 180.275 89.2455C181.696 88.7127 182.939 88.1799 184.182 87.292C185.603 86.0488 187.201 84.9832 188.267 83.3849C188.445 83.0297 188.8 82.6745 188.622 82.3193C188.267 81.7865 188.089 82.3193 187.734 82.4969C185.781 83.3849 184.715 85.3384 182.939 86.404C180.986 87.8247 178.855 88.3575 176.546 88.8903C174.77 89.2455 172.994 87.292 173.349 85.6936C173.527 85.1608 173.704 84.8056 174.237 84.8056C174.592 84.8056 174.77 85.1608 174.947 85.516C175.48 87.1144 176.191 87.6472 177.611 86.9368C180.453 85.516 183.294 84.0953 185.248 80.8986C183.65 81.4314 182.406 82.1417 181.341 83.0297C180.275 83.7401 179.21 84.0953 178.144 84.4505C176.546 84.9832 175.125 84.0953 174.947 82.3193C174.947 81.4314 174.237 81.4314 173.882 81.2538C171.928 79.6554 171.751 79.6554 169.797 81.4314C168.909 82.1417 167.844 83.0297 167.133 83.9177C166.956 84.0953 166.601 84.2729 166.778 84.6281C166.956 84.9832 167.311 84.8056 167.666 84.8056C169.264 84.8056 170.508 83.9177 171.751 83.0297C172.283 82.6745 172.816 81.7866 173.349 82.4969C173.882 83.2073 173.349 83.9177 172.639 84.4505C171.04 85.6936 169.087 86.404 166.956 86.7592C166.068 86.9368 165.18 86.5816 164.647 85.6936C164.114 84.8056 164.647 83.9177 165.18 83.2073C166.245 81.7865 167.666 80.8986 168.909 79.833C169.62 79.3002 170.152 78.945 168.732 78.4123C166.245 77.1691 163.581 76.2811 160.917 75.7483C155.767 74.5052 153.281 71.3085 153.103 66.5135C153.103 62.784 154.702 60.2977 159.319 59.4097C161.273 59.0545 163.226 59.5873 165.002 60.1201C166.601 60.6528 168.199 64.2047 167.844 65.9807C167.133 68.9998 165.535 71.1309 162.693 72.5516C162.161 72.9068 161.628 73.262 161.095 73.7948C162.693 74.8604 165.713 73.9724 167.666 71.8413C169.442 69.8877 169.62 67.4014 169.797 64.7375C171.04 65.4479 170.685 66.691 171.04 67.579C171.751 67.2238 171.928 65.9807 173.171 66.1583C174.059 66.3358 174.77 66.691 175.658 67.0462C177.789 68.1118 179.565 69.5325 181.696 70.4205C184.36 71.4861 187.379 71.3085 190.22 72.1965C192.529 72.9068 194.305 73.9724 195.726 75.9259C197.502 78.4123 198.39 81.2538 199.988 83.9177C201.054 85.6936 202.297 87.292 203.895 88.7127C204.251 88.8903 204.428 89.2455 204.783 88.8903C205.849 87.6472 207.625 87.6471 208.69 86.5816C209.046 86.2264 209.223 86.404 209.756 86.404C213.663 86.7592 216.682 89.0679 219.701 91.3766C220.767 92.087 221.832 92.975 222.72 93.8629C223.076 94.2181 224.141 95.1061 222.543 95.2837C222.01 95.2837 222.01 95.6389 222.187 96.1717C222.543 100.612 220.589 104.163 218.103 107.538C217.748 108.07 217.215 108.426 216.682 108.603C214.196 109.491 213.663 111.622 213.13 113.753C212.775 114.819 212.775 116.062 212.42 117.305C211.887 118.904 210.466 119.614 208.868 120.324C208.158 120.68 207.092 119.969 206.737 121.39C206.737 121.745 205.849 121.212 205.494 120.857C203.718 119.081 202.297 117.128 200.521 115.352C198.745 113.576 196.791 111.8 194.66 110.379C194.305 110.024 193.772 109.846 193.95 109.314C193.95 108.781 193.595 108.603 193.24 108.248C190.753 106.827 190.22 103.808 191.286 100.967C191.641 100.256 191.464 98.8356 192.529 99.0132C193.24 99.1908 192.707 100.434 192.884 101.322C192.884 102.21 192.884 102.92 193.062 103.808C194.305 101.855 195.193 99.546 196.792 97.77C197.324 97.2372 196.614 96.8821 196.259 96.7045C194.305 95.4613 192.174 95.1061 190.043 94.7509C189.51 94.7509 188.977 94.7509 188.622 94.5733C188.267 94.3957 187.557 94.5733 187.557 93.8629C187.734 93.3302 188.267 93.1526 188.8 93.3302C193.417 93.8629 197.679 94.5733 200.166 99.1908C201.054 100.967 201.231 100.789 202.475 99.3684C203.895 97.5924 204.961 95.4613 205.494 93.3302C205.671 92.6198 205.671 92.087 204.783 91.5542C201.764 89.7783 199.633 87.1144 198.035 84.0953C196.792 81.4314 195.548 78.7674 193.772 76.4587C192.707 75.038 190.753 74.3276 189.155 74.15C184.182 73.7948 179.743 72.1965 175.658 69.355C174.947 68.8222 173.882 67.9342 173.349 68.6446C172.639 69.5325 173.882 70.4205 174.415 71.1309C176.191 73.0844 178.322 74.5052 180.986 75.038C181.696 74.5052 182.229 74.8604 182.584 75.038ZM220.589 95.2837C220.944 94.5733 220.412 94.0405 219.879 93.5078C218.636 92.2646 217.215 91.3766 215.794 90.4887C214.196 89.4231 212.242 89.4231 210.466 90.1335C209.223 90.4887 209.223 91.9094 208.868 92.7974C207.447 96.1717 205.316 99.0132 203.007 101.677C202.297 102.565 201.764 103.275 201.054 104.163C200.699 104.696 201.054 104.696 201.409 105.051C204.073 106.827 204.606 106.65 206.737 104.341C207.27 103.631 207.802 103.098 208.157 102.21C209.045 100.434 210.111 100.434 211.354 102.032C211.887 102.92 212.42 102.92 213.13 102.387C214.196 101.855 215.084 100.967 215.794 100.256C215.972 100.079 216.327 99.546 216.682 99.7236C217.037 100.079 216.86 100.434 216.682 100.789C215.972 102.21 214.906 103.275 213.841 104.341C213.663 104.519 213.308 104.696 213.485 104.874C213.663 105.229 214.018 105.229 214.196 105.229C215.439 105.229 216.327 104.519 217.037 103.631C218.458 101.855 219.168 99.9012 219.346 97.77C219.346 97.4148 218.991 96.882 219.701 96.882C220.767 97.0596 220.589 96.1717 220.589 95.2837ZM204.073 110.024C204.606 110.024 205.316 109.846 206.026 109.491C208.335 108.07 209.401 105.939 210.289 103.453C210.466 102.92 210.821 102.032 209.933 101.677C209.045 101.322 208.868 102.21 208.513 102.92C207.625 105.584 205.849 107.36 203.54 108.781C203.185 108.958 202.474 108.781 202.652 109.669C203.007 110.024 203.54 110.024 204.073 110.024Z" fill="#3A2D52"/>
<path d="M163.581 189.231C162.871 192.25 163.581 195.091 163.937 197.933C163.937 198.288 164.469 198.821 163.759 198.821C163.226 198.998 163.048 198.643 162.871 198.11C161.805 194.559 161.983 190.652 161.983 186.922C161.983 186.389 162.161 186.034 162.516 185.856C163.049 185.679 163.226 186.034 163.581 186.212C164.469 187.277 165.535 188.165 167.133 188.52C167.488 188.52 168.021 188.698 168.021 188.165C168.021 184.969 168.199 181.772 166.423 178.93C165.535 177.51 163.937 178.042 163.049 177.154C162.161 176.444 161.095 176.089 160.029 175.378C159.497 175.023 158.786 174.668 158.076 174.668C157.188 174.668 157.188 174.49 157.188 173.603C157.188 173.07 156.655 173.07 156.477 173.07C155.412 173.78 154.879 172.892 154.346 172.182C153.991 171.827 153.814 171.294 153.458 170.939C152.748 170.051 152.038 169.34 150.439 169.34C147.775 169.34 145.644 167.387 144.579 165.078C144.046 164.19 143.336 163.657 142.625 163.302C141.56 162.592 141.027 161.526 140.316 160.461C140.139 160.283 140.139 159.75 140.139 159.75C141.56 158.329 140.139 157.619 139.429 156.731C138.185 154.955 138.541 153.534 140.316 152.469C140.849 152.114 140.849 151.936 140.494 151.581C139.606 150.693 139.251 149.272 138.185 148.562C137.83 148.207 137.83 147.851 138.008 147.496C138.363 146.963 138.008 146.431 137.653 146.253C136.232 145.898 136.942 145.187 137.475 144.655C138.896 142.879 141.027 141.813 142.803 140.57C144.934 139.149 147.42 138.261 149.907 137.551C152.038 136.841 152.571 137.196 154.346 139.86C155.057 140.925 155.767 142.168 156.655 143.411C157.188 144.299 157.721 145.01 158.786 145.365C160.74 146.075 162.16 147.674 163.759 149.095C166.245 151.581 168.909 153.534 171.928 155.133C173.527 156.021 174.415 157.264 175.125 158.685C177.078 162.059 177.611 165.966 178.144 169.873C178.499 173.07 178.322 176.266 178.677 179.286C178.854 180.173 179.032 180.351 179.92 179.818C183.117 178.042 184.715 178.575 186.136 181.949C187.734 185.856 188.089 189.941 187.912 194.203C187.912 194.914 187.734 195.624 187.201 196.335C186.491 195.802 186.846 195.269 186.846 194.559C187.024 190.652 186.136 186.744 184.893 183.015C184.715 182.305 184.182 181.772 183.827 181.239C182.939 180.173 181.696 180.351 180.275 181.594C178.677 182.837 177.256 184.258 176.013 186.034C174.947 187.455 173.527 188.698 171.928 189.764C169.264 191.362 166.778 191.007 164.292 189.408C163.759 189.408 163.759 189.408 163.581 189.231ZM149.551 160.993C150.794 161.348 151.505 161.171 152.393 161.526C153.281 161.881 154.169 162.236 154.346 163.124C154.524 164.012 153.458 164.545 152.748 164.723C151.86 165.078 152.038 165.611 152.393 166.144C153.281 167.564 154.169 169.163 155.412 170.406C155.945 170.939 156.478 170.939 157.01 170.406C157.898 169.695 158.609 168.807 159.674 168.275C161.983 166.676 164.292 165.078 166.956 164.368C167.311 164.19 167.666 164.012 167.844 164.545C168.021 164.9 167.844 165.256 167.666 165.611C167.311 165.788 166.956 165.966 166.6 166.321C163.049 169.518 161.983 170.406 163.759 175.023C164.292 176.444 165.713 177.332 167.488 177.332C169.62 177.332 169.619 177.332 169.087 179.286C169.087 179.463 168.909 179.818 168.909 179.996C169.797 182.127 169.087 184.258 169.264 186.389C169.264 187.277 169.442 187.81 170.507 187.632C171.04 187.632 171.396 187.455 171.928 187.277C173.704 186.034 174.947 184.258 176.368 182.66C177.079 181.949 177.789 181.061 177.434 179.641C176.901 176.799 176.546 173.958 176.546 171.116C176.546 166.676 175.303 162.769 173.171 159.04C172.639 158.152 171.928 157.619 170.685 157.797C169.087 158.152 167.844 158.862 167.488 160.461C167.311 161.526 167.844 162.414 168.909 162.769C169.442 162.947 169.797 163.302 170.152 163.657C170.33 163.835 170.685 164.012 170.507 164.19C170.507 164.368 170.152 164.545 169.975 164.545C169.619 164.545 168.909 164.723 168.732 164.545C166.423 162.592 163.581 160.993 162.693 157.797C162.516 157.086 162.338 156.021 161.45 155.665C160.029 154.955 158.964 153.89 157.898 152.824C156.478 151.048 154.879 149.095 156.122 146.431C156.3 146.075 156.122 145.898 155.945 145.543C154.346 143.944 153.281 141.991 152.215 140.215C151.682 139.504 151.327 139.327 150.439 139.504C146.532 140.215 143.336 142.346 140.139 144.477C139.429 145.01 139.606 145.187 139.961 145.543C140.672 146.253 140.849 147.141 140.849 148.029C140.672 148.562 140.849 149.272 141.382 149.627C142.625 150.693 144.046 151.581 145.467 152.469C146.355 153.002 147.775 152.824 148.486 153.89C148.663 154.067 148.841 154.067 149.019 153.89C149.374 152.824 150.617 152.824 151.327 152.291C152.57 151.403 153.636 151.936 154.346 153.179C155.59 155.133 156.655 157.086 157.898 159.04C159.141 160.993 158.786 161.881 156.655 162.592C156.122 162.769 155.412 163.302 154.879 162.414C153.991 160.993 152.215 160.283 151.327 158.685C151.86 159.928 150.972 160.461 149.551 160.993ZM144.046 157.264C144.046 157.086 144.046 157.086 144.046 156.909C143.691 156.553 142.803 157.086 142.803 156.198C142.803 155.31 143.691 155.488 144.223 155.31C145.111 155.133 146.177 154.955 147.243 154.778C145.289 153.357 143.158 153.89 141.204 153.89C140.316 153.89 140.316 154.777 140.494 155.488C141.027 157.264 141.915 157.797 144.046 157.264ZM149.196 159.395C147.065 158.507 145.111 158.862 143.158 159.395C142.625 159.573 142.27 159.928 141.915 160.283C142.98 160.461 142.092 162.236 143.335 162.236C143.868 162.236 144.579 162.592 144.756 161.704C144.934 160.638 145.822 160.283 146.532 160.283C147.598 160.283 148.308 159.75 149.196 159.395ZM148.841 162.592C148.131 162.769 146.887 162.414 146.71 163.48C146.532 164.368 147.775 164.19 148.308 164.723C148.308 164.723 148.486 164.9 148.663 164.9C149.196 164.723 150.084 164.723 150.262 163.657C150.084 162.592 149.551 162.592 148.841 162.592ZM147.598 156.731C148.841 157.086 150.084 157.619 151.327 157.974C151.327 157.441 151.15 157.264 150.795 156.909C150.084 156.376 150.262 155.133 149.551 155.133C148.663 155.31 148.486 156.376 147.598 156.731Z" fill="#3A2D52"/>
<path d="M105.686 84.4502C104.265 86.4037 102.311 87.1141 100.713 88.0021C97.6937 89.6004 94.4971 91.1988 91.6556 92.9747C88.6365 94.7506 85.7949 96.7042 82.9534 98.6577C78.8688 101.677 74.9617 104.874 71.4098 108.425C66.6148 113.043 62.3526 118.015 58.6231 123.521C56.1368 127.428 54.0057 131.335 53.1177 135.952C52.585 138.972 54.0056 141.28 55.4263 143.767C58.0902 148.206 61.6423 151.581 65.5493 154.777C69.2788 157.619 73.3634 160.105 77.4481 162.414C80.112 163.835 82.9535 164.9 85.2622 167.031C83.6639 167.387 82.4208 166.676 81.3553 166.321C77.6258 164.723 74.0739 162.769 70.6996 160.638C66.7925 157.974 62.8854 155.31 59.5111 151.936C56.8472 149.272 54.5384 146.608 52.7624 143.234C51.5193 141.103 50.8089 138.794 50.9865 136.308C51.1641 133.821 52.0522 131.335 53.1177 129.026C56.1368 122.633 60.399 117.128 65.194 111.977C69.1011 107.715 73.1857 103.986 77.6256 100.434C81.8879 96.8818 86.5055 93.6851 91.1229 90.666C94.6748 88.3573 98.4041 86.4037 102.489 84.983C103.377 84.8054 104.442 84.8054 105.686 84.4502Z" fill="#3A2D52"/>
<path d="M129.128 83.5624C132.147 83.5624 134.633 84.2728 137.12 85.3383C142.092 87.4694 146.887 89.6006 151.683 92.2645C154.702 94.0404 157.721 95.6388 160.74 97.4147C165.002 99.901 168.909 102.743 172.638 105.939C174.77 107.893 176.723 110.024 178.144 112.688C178.322 113.221 178.499 113.576 178.499 114.109C178.854 118.726 177.611 122.811 175.658 126.895C173.882 130.447 172.106 133.999 169.264 137.018C168.376 138.084 167.488 138.972 166.068 139.505C165.535 139.682 165.002 139.86 164.292 139.505C165.535 138.084 167.133 136.841 168.199 135.242C171.218 131.335 173.704 127.073 175.302 122.278C176.013 120.324 176.368 118.193 176.723 116.24C176.901 114.286 176.013 112.688 174.947 111.267C171.573 107.005 167.311 103.808 162.871 100.789C160.207 99.0131 157.543 97.4147 154.879 95.8164C151.15 93.8628 147.42 91.9093 143.691 90.1334C140.672 88.7126 137.475 87.647 134.456 86.2263C132.68 85.5159 131.081 84.8055 129.128 83.5624Z" fill="#3A2D52"/>
<path d="M94.142 64.0269C95.5628 64.2044 96.9836 64.9148 98.2268 65.4476C100.536 66.5132 102.844 67.7563 105.153 69.1771C105.863 69.7099 106.574 70.0651 106.574 71.1306C106.574 72.1962 105.863 72.3738 105.153 72.729C101.423 74.6825 97.694 76.4584 93.9645 78.412C92.7213 78.9448 92.3661 78.412 92.3661 77.3464C92.5437 73.4393 92.7213 69.5323 93.0765 65.6252C93.0765 64.0269 93.2541 64.0269 94.142 64.0269ZM104.087 70.953C100.891 68.6443 97.5163 66.8684 93.4316 65.8028C94.4972 67.2236 94.4973 68.4667 94.6749 69.8875C95.0301 73.2617 97.3388 74.6825 100.003 73.2617C101.246 72.3738 102.489 71.6634 104.087 70.953Z" fill="#3A2D52"/>
<path d="M129.128 61.5405C129.306 58.1662 128.595 54.9695 127.352 51.9504C126.997 51.2401 126.642 49.9969 127.53 49.6417C128.063 49.4641 128.595 50.5297 128.95 51.2401C130.549 55.3247 131.259 59.4094 130.904 63.8493C130.371 69.5323 127.885 73.9721 122.557 76.2808C119.005 77.8792 115.276 77.8792 111.546 76.9912C110.126 76.636 108.882 76.2808 107.639 75.3929C107.284 75.2153 107.106 75.0377 107.106 74.6825C107.284 74.3273 107.461 74.5049 107.817 74.5049C108.527 74.5049 109.238 74.5049 109.77 74.8601C113.145 76.2808 116.874 76.2808 120.248 75.3929C123.8 74.3273 126.464 72.0186 128.062 68.1115C129.128 65.9804 129.128 63.6717 129.128 61.5405Z" fill="#3A2D52"/>
<path d="M86.3278 162.592C87.0382 159.217 87.571 155.665 89.8797 153.001C90.7676 151.936 90.7678 151.225 89.347 150.515C84.7296 148.029 80.8223 144.655 76.7377 141.458C76.5601 141.28 76.2051 141.103 76.0275 140.747C75.8499 140.392 75.4945 140.037 75.8497 139.682C76.2049 139.327 76.5602 139.504 76.9154 139.682C78.1586 140.747 79.5792 141.813 81 142.879C84.5518 145.72 88.4591 148.029 92.8989 148.917C94.1421 149.094 94.3197 149.982 93.7869 151.048C92.7213 153.179 90.9452 154.6 89.8797 156.731C88.4589 159.217 87.9262 161.881 87.7486 164.545C87.7486 164.9 88.1037 165.611 87.3933 165.611C86.8605 165.611 86.6829 165.078 86.5053 164.545C86.5053 164.012 86.3278 163.302 86.3278 162.592Z" fill="#3A2D52"/>
<path d="M108.349 167.209C107.462 166.854 107.462 166.144 107.284 165.433C107.106 164.368 107.284 163.302 106.929 162.237C106.751 161.704 106.929 160.638 106.218 160.993C105.508 161.349 104.442 161.171 104.265 162.414C104.265 162.947 104.087 163.302 104.087 163.835C103.732 165.256 102.666 165.966 101.246 165.789C99.825 165.611 98.2266 165.611 96.8059 164.901C96.0955 164.545 95.2075 164.19 94.3195 164.19C94.1419 164.19 93.7869 164.19 93.7869 163.835C93.7869 163.48 93.9643 163.302 94.3195 163.302C95.2075 163.302 95.9179 163.125 96.8059 163.48C98.049 164.19 99.4699 164.19 100.891 164.19C101.779 164.19 102.489 164.013 103.022 163.125C103.377 162.237 103.022 161.704 102.311 160.993C102.666 160.461 103.199 160.283 103.91 160.461C104.798 160.461 105.33 160.106 105.686 159.218C106.041 158.33 105.863 157.442 105.153 156.909C104.798 156.554 104.265 156.198 104.62 155.666C104.798 155.133 105.508 155.31 105.863 155.31C106.396 155.31 107.106 155.666 107.284 154.955C107.639 154.067 106.929 153.712 106.396 153.357C105.508 152.647 104.265 152.469 103.377 151.936C102.134 151.226 102.134 150.16 102.311 149.095C102.489 148.207 104.798 146.964 105.686 147.141C106.396 147.496 106.218 147.852 105.863 148.384C105.508 149.095 104.442 149.627 104.62 150.338C104.798 150.871 105.863 151.048 106.574 151.403C107.639 151.936 108.35 152.647 108.882 153.712C109.238 154.423 109.237 155.31 108.705 156.021C107.639 157.264 107.817 158.685 108.172 160.106C108.527 162.414 108.882 164.723 108.349 167.209Z" fill="#3A2D52"/>
<path d="M124.866 83.0297C125.754 83.5624 126.464 84.0952 126.287 85.3384C126.109 87.1143 126.642 88.8903 125.754 90.4886C123.978 93.3301 121.136 93.6853 117.94 91.9094C114.921 90.311 112.257 88.1799 109.238 86.7591C108.527 86.4039 107.994 86.0488 108.172 85.3384C108.527 84.628 109.415 84.8056 109.948 85.1608C111.014 85.6936 112.079 86.2264 113.145 86.5815C115.986 87.6471 118.828 89.2455 122.024 89.0679C123.978 89.0679 124.688 88.3575 124.688 86.404C124.688 85.1608 124.333 84.0952 124.866 83.0297Z" fill="#3A2D52"/>
<path d="M141.737 104.874C144.401 105.051 145.112 105.584 145.289 108.248C145.467 110.557 146.532 112.51 147.243 114.464C149.196 119.081 150.795 123.699 151.327 128.671C151.505 130.447 152.393 132.045 152.215 133.999C152.215 134.532 152.215 135.065 151.505 135.242C150.795 135.42 150.795 134.709 150.617 134.354C149.552 131.868 149.552 129.382 149.019 126.895C148.486 124.764 148.131 122.633 147.42 120.679C146.355 117.128 145.112 113.753 143.691 110.379C143.158 108.603 142.448 106.827 141.737 104.874Z" fill="#3A2D52"/>
<path d="M74.2515 136.308C73.5411 134.354 74.429 133.111 75.4946 132.045C78.5137 128.138 82.2431 124.764 86.3278 121.745C87.7485 120.679 88.6366 118.726 90.4125 118.016C90.7677 117.838 90.9453 117.66 91.3005 117.66C91.8333 117.66 92.5435 117.483 92.7211 117.838C93.0763 118.371 92.5437 118.726 92.1885 119.259C90.7677 121.035 88.9917 122.278 87.2158 123.699C82.9535 126.895 78.6912 130.27 75.8497 134.887C75.3169 135.242 74.7843 135.597 74.2515 136.308Z" fill="#3A2D52"/>
<path d="M103.022 142.701C103.022 143.056 103.022 143.234 102.667 143.412C102.312 143.589 102.134 143.412 101.956 143.056C101.424 142.346 101.068 141.636 100.891 140.925C100.18 138.261 99.4701 135.775 98.2269 133.289C97.1613 130.802 96.0957 128.316 94.8526 126.007C94.4974 125.297 93.4317 124.764 93.6093 123.699C93.6093 123.343 93.6094 122.988 93.9646 122.811C94.3198 122.633 94.4974 122.988 94.8526 123.166C96.0957 124.231 96.9837 125.652 97.694 127.25C99.2924 130.625 100.536 134.177 101.779 137.729C102.312 139.149 102.667 140.925 103.022 142.701Z" fill="#3A2D52"/>
<path d="M123.445 43.7812C124.866 43.7812 125.221 44.6692 125.931 45.0244C127.352 45.9124 127.352 47.8659 125.931 49.2867C124.866 50.1746 123.623 51.0626 122.735 52.3058C122.379 52.661 122.024 52.8386 121.669 52.661C121.136 52.4834 121.492 51.9506 121.492 51.5954C121.847 50.7074 122.735 50.3522 123.267 49.6419C124.155 48.9315 125.221 48.2211 125.043 47.1555C124.866 46.09 123.623 45.5572 122.557 45.202C121.492 44.8468 120.604 44.1364 119.538 44.1364C119.183 44.1364 118.828 43.7813 118.828 43.4261C118.828 42.8933 119.183 42.8933 119.538 42.7157C120.959 42.3605 122.557 42.5381 123.623 41.2949C123.978 40.9397 124.511 41.1173 124.688 41.4725C125.043 41.8277 125.043 42.5381 124.688 42.8933C124.511 43.0709 124.155 43.2485 123.445 43.7812Z" fill="#3A2D52"/>
<path d="M145.467 43.7812C149.374 43.9588 152.748 45.7348 155.767 47.6883C156.655 48.2211 157.365 49.1091 158.253 49.6418C158.609 49.8194 158.786 50.3522 158.609 50.7074C158.253 51.2402 157.898 50.7074 157.721 50.7074C155.59 49.8194 153.458 48.7539 151.505 47.5107C150.972 47.1555 150.439 47.1555 150.084 46.9779C148.486 46.4451 146.71 45.9123 145.289 45.0244C144.756 44.6692 143.868 44.6692 144.046 44.1364C144.046 43.426 144.934 43.9588 145.467 43.7812Z" fill="#3A2D52"/>
<path d="M151.86 100.789C153.281 100.611 155.057 102.387 155.057 103.808C155.057 105.051 154.169 105.939 152.748 105.939C151.15 105.939 149.019 103.986 149.196 102.743C149.196 101.499 150.439 100.789 151.86 100.789Z" fill="#3A2D52"/>
<path d="M122.557 98.4804C120.071 98.658 118.117 97.77 116.164 96.7044C115.098 96.1717 114.032 95.8165 113.144 95.2837C112.612 94.9285 111.901 94.5733 112.256 93.8629C112.612 93.1525 113.322 93.6853 113.855 93.8629C115.986 94.9285 118.117 96.1717 120.426 96.882C122.202 97.4148 123.8 97.5924 125.399 96.5268C125.576 96.3492 126.109 95.9941 126.464 96.3492C126.819 96.7044 126.464 97.0596 126.109 97.4148C125.043 98.658 123.8 98.658 122.557 98.4804Z" fill="#3A2D52"/>
<path d="M161.806 117.128C161.983 117.305 161.806 117.483 161.628 117.483C161.273 117.483 160.918 117.483 160.74 117.305C158.964 114.996 156.122 115.174 153.814 114.464C152.571 114.109 151.683 113.398 150.439 113.043C150.084 112.865 149.907 112.688 150.084 112.333C150.262 111.977 150.617 111.8 150.795 111.977C154.524 112.865 158.609 112.688 161.273 116.24C161.628 116.595 161.806 116.772 161.806 117.128Z" fill="#3A2D52"/>
<path d="M155.057 132.046C155.234 130.447 156.122 129.737 156.833 129.026C159.319 126.895 160.917 124.231 162.338 121.39C162.516 121.035 162.693 120.502 162.693 119.969C162.693 119.436 162.871 119.081 163.404 119.081C163.937 119.081 164.114 119.436 164.292 119.792C164.469 120.324 164.292 120.857 164.114 121.567C163.049 124.409 161.095 126.718 158.786 128.849C157.721 129.914 156.478 130.802 155.057 132.046Z" fill="#3A2D52"/>
<path d="M105.331 122.1C105.153 120.68 106.219 119.969 107.107 119.614C108.35 119.081 109.77 118.548 111.014 119.614C111.724 120.147 111.724 121.212 111.369 121.923C111.013 122.633 110.303 122.633 109.593 122.278C108.705 121.923 107.994 122.278 107.639 122.988C107.284 123.521 106.929 124.054 106.041 123.699C105.33 123.343 105.331 122.811 105.331 122.1Z" fill="#3A2D52"/>
<path d="M137.475 174.846C138.541 174.846 138.185 175.378 138.008 176.089C137.475 178.042 136.054 179.641 134.989 181.239C134.456 181.949 133.923 182.837 133.39 183.548C133.213 183.903 132.858 184.613 132.325 184.258C131.792 184.081 131.97 183.37 132.147 183.015C132.502 181.949 132.68 180.884 133.39 179.996C134.278 178.575 134.811 176.622 136.232 175.556C136.765 175.201 137.12 174.846 137.475 174.846Z" fill="#3A2D52"/>
<path d="M166.956 193.316C170.152 194.381 172.461 192.605 174.947 191.184C176.19 190.474 177.256 189.764 178.322 189.053C178.677 188.876 179.032 188.343 179.387 188.876C179.565 189.231 179.742 189.941 179.21 190.119C176.546 192.072 173.704 193.848 170.33 194.559C169.087 194.914 167.844 194.736 166.956 193.316Z" fill="#3A2D52"/>
<path d="M172.639 197.933C174.059 198.288 175.48 197.4 176.901 196.868C178.499 196.157 180.275 195.447 181.518 194.204C181.873 193.848 182.584 193.316 183.117 193.848C183.649 194.381 182.939 194.736 182.584 195.092C181.874 196.157 180.63 196.868 179.565 197.4C177.078 198.643 174.592 199.354 171.751 198.821C171.218 198.821 170.685 198.821 170.685 198.288C170.685 197.578 171.396 197.933 171.928 197.933C172.106 197.933 172.283 197.933 172.639 197.933Z" fill="#3A2D52"/>
<path d="M105.153 146.608C104.975 146.608 104.798 146.608 104.798 146.608C101.423 145.01 99.1146 147.141 96.8059 149.272C96.4507 149.627 95.918 150.16 95.5628 149.627C95.03 149.095 95.5627 148.739 95.9179 148.207C97.6939 145.365 102.311 143.767 105.508 145.188C105.863 145.365 106.751 145.365 106.574 146.076C106.218 146.963 105.508 146.608 105.153 146.608Z" fill="#3A2D52"/>
<path d="M99.1148 99.5458C100.536 99.5458 101.246 100.434 101.246 101.854C101.246 103.453 100.003 104.874 98.7595 104.874C97.6939 104.874 96.6284 103.808 96.6284 102.387C96.6284 100.611 97.5164 99.5458 99.1148 99.5458ZM97.8715 103.275C98.2267 103.275 98.5819 103.098 98.5819 102.565C98.5819 102.032 98.2267 101.854 97.8715 101.854C97.5163 101.854 97.3387 102.032 97.1611 102.387C97.1611 102.92 97.3387 103.098 97.8715 103.275Z" fill="#3A2D52"/>
<path d="M108.35 48.0435C107.994 48.0435 107.639 48.0435 107.462 48.0435C106.574 47.8659 105.508 47.5107 105.863 46.4451C106.041 45.5571 106.929 45.9123 107.639 46.0899C109.593 46.6227 111.014 45.3796 112.434 44.314C113.145 43.7812 113.855 43.6036 114.388 44.1364C114.921 44.6692 114.388 45.3795 113.855 45.7347C112.257 47.3331 110.303 48.0435 108.35 48.0435Z" fill="#3A2D52"/>
<path d="M38.3774 80.7208C38.7326 78.7673 39.0878 76.8137 40.3309 75.393C40.6861 75.0378 41.0414 74.505 41.5742 74.8602C41.9294 75.0378 42.1069 75.5706 41.9293 75.9257C41.3965 78.2345 40.331 80.3656 39.2654 82.3191C39.0878 82.6743 38.555 82.6743 38.3774 82.1415C38.3774 81.7863 38.3774 81.2536 38.3774 80.7208Z" fill="#3A2D52"/>
<path d="M156.3 35.7894C155.412 35.7894 154.702 35.7894 153.991 35.7894C153.636 35.7894 153.281 35.6118 153.281 35.2566C153.281 34.9014 153.458 34.7238 153.814 34.5462C155.945 33.3031 158.076 33.3031 160.385 34.0134C160.74 34.191 161.273 34.191 161.273 34.9014C161.273 35.4342 160.74 35.4342 160.385 35.4342C158.964 35.6118 157.543 35.967 156.3 35.7894Z" fill="#3A2D52"/>
<path d="M172.283 120.147C172.283 121.745 171.396 122.633 170.152 122.633C169.087 122.633 168.376 121.922 168.376 120.857C168.199 119.614 169.619 118.548 170.863 118.371C172.283 118.371 172.461 119.259 172.283 120.147Z" fill="#3A2D52"/>
<path d="M128.595 141.813C128.595 142.879 127.53 144.299 126.464 144.122C125.399 143.944 124.511 143.589 124.511 142.168C124.511 140.925 125.754 139.682 126.819 139.86C128.063 140.037 128.595 140.748 128.595 141.813Z" fill="#3A2D52"/>
<path d="M121.136 62.9614C119.893 62.9614 117.762 61.1855 117.762 60.1199C117.762 59.5871 117.94 59.4095 118.295 59.0544C119.005 58.6992 119.361 59.0544 119.538 59.5871C120.071 60.8303 120.604 61.3631 121.847 60.4751C122.202 60.2975 122.557 60.2975 122.735 60.6527C122.912 61.0079 123.09 61.1855 122.912 61.7183C122.912 62.6062 122.202 63.139 121.136 62.9614Z" fill="#3A2D52"/>
<path d="M30.3858 90.3108C29.1426 90.1332 27.5443 90.8436 26.4788 89.2452C26.3012 88.89 25.9459 88.7125 26.1235 88.3573C26.3011 88.0021 26.6562 88.1797 27.0114 88.0021C29.1426 87.6469 30.9185 88.89 33.0497 89.0676C33.2273 89.0676 33.5825 89.4228 33.5825 89.778C33.5825 90.3108 33.0498 90.1332 32.6946 90.1332C31.9842 90.3108 31.2737 90.3108 30.3858 90.3108Z" fill="#3A2D52"/>
<path d="M30.741 76.6361C31.2738 76.8137 31.6289 77.1689 31.9841 77.5241C33.2272 78.7672 33.5824 80.5432 34.8255 81.9639C35.0031 82.1415 35.0032 82.6743 34.648 83.0295C34.2928 83.3847 34.1152 83.0295 33.9376 82.8519C32.1616 81.4312 30.9185 79.6552 30.2081 77.5241C30.0305 77.1689 30.0306 76.6361 30.741 76.6361Z" fill="#3A2D52"/>
<path d="M128.595 173.247C128.24 173.247 127.885 173.248 127.708 173.07C127.53 172.715 127.707 172.36 128.063 172.182C129.661 170.761 131.792 170.761 133.923 170.406C134.101 170.406 134.456 170.584 134.634 170.939C134.634 171.294 134.456 171.472 134.278 171.472C132.147 171.827 130.549 172.892 128.595 173.247Z" fill="#3A2D52"/>
<path d="M150.084 147.674C148.841 147.674 147.598 146.431 147.598 145.187C147.598 144.122 148.841 142.701 149.907 142.701C151.15 142.701 152.571 143.944 152.571 145.01C152.571 146.253 151.327 147.674 150.084 147.674Z" fill="#3A2D52"/>
<path d="M144.401 145.72C146.532 145.898 146.887 146.253 146.887 148.384C146.887 149.627 145.644 150.515 144.401 150.338C142.98 150.16 142.092 149.095 142.092 147.851C142.092 146.431 142.98 145.543 144.401 145.72ZM145.289 146.963C144.934 148.207 144.934 148.207 144.046 147.496C144.046 147.496 143.868 147.319 143.868 147.496C143.691 147.674 143.513 147.851 143.513 148.029C143.513 148.384 143.691 148.917 144.046 148.917C144.401 149.095 144.934 149.095 145.289 148.739C145.822 148.207 145.822 147.674 145.289 146.963Z" fill="#3A2D52"/>
</svg>
