<svg width="265" height="204" viewBox="0 0 265 204" fill="none" xmlns="http://www.w3.org/2000/svg">
<path d="M98.0199 200.289C100.867 197.945 104.216 198.112 107.565 197.777C111.584 197.442 115.771 197.777 119.79 197.442C121.967 197.275 124.981 198.782 125.484 194.763C125.651 193.758 127.326 194.26 128.331 194.26C141.393 194.26 154.455 194.26 167.685 194.26C169.192 194.26 170.699 194.26 172.206 193.926C169.192 190.744 165.675 188.567 161.154 188.567C154.455 188.734 148.259 187.897 142.063 184.883C139.383 183.71 136.536 185.552 133.689 186.055C121.632 188.567 110.245 192.921 98.8572 197.442C88.307 201.461 77.2544 204.308 65.8669 203.973C63.5224 203.973 61.1779 203.471 59.0009 202.969C53.4746 201.461 51.1301 198.447 50.6277 192.586C49.288 175.17 53.977 158.758 59.3358 142.514C63.1875 130.959 68.2114 119.739 75.9147 109.859C78.929 105.84 82.4457 102.658 87.3022 100.983C92.1586 99.3088 95.8428 100.146 99.527 104.333C102.876 108.017 105.556 112.371 108.235 116.558C110.245 119.404 112.087 122.419 115.101 124.428C116.776 125.601 118.618 126.103 120.292 124.931C121.8 123.758 121.967 122.084 121.632 120.242C121.297 118.065 121.297 115.888 121.297 113.543C121.297 112.203 121.632 110.864 123.307 110.696C124.814 110.529 125.149 112.036 125.316 113.208C127.326 121.581 127.828 129.955 127.661 138.495C127.493 144.356 127.996 150.385 126.823 156.246C126.489 157.753 127.326 158.591 128.666 158.926C142.9 163.447 157.134 167.299 172.206 167.634C180.579 167.801 187.278 171.151 190.962 179.189C191.464 180.528 192.972 182.705 190.962 183.04C189.12 183.375 187.11 186.892 184.933 183.208C183.426 180.696 181.584 178.351 178.067 178.519C177.397 178.519 177.063 178.017 177.063 177.347C177.063 176.509 177.732 176.509 178.402 176.509C180.412 176.844 182.589 177.179 184.263 179.021C184.096 176.509 181.751 176.509 181.082 175.002C183.426 174.667 183.426 174.667 187.78 178.854C186.943 174.667 182.086 170.648 177.063 169.978C164.503 168.471 151.776 167.801 139.383 164.619C135.532 163.615 133.355 167.634 130.173 170.816C133.689 170.816 136.536 171.151 139.216 170.816C154.12 168.806 167.015 174.165 179.407 181.366C180.244 181.868 181.249 182.203 180.914 183.375C180.747 184.38 179.574 184.213 178.905 184.38C178.402 184.548 177.9 184.548 177.23 184.548C177.23 186.055 178.402 186.725 178.905 187.729C179.407 188.902 181.584 190.074 179.742 191.079C178.57 191.916 176.895 193.926 174.551 191.079C171.369 187.227 166.847 184.715 161.823 183.543C160.986 183.375 159.646 183.375 159.981 182.036C160.316 180.863 161.656 181.031 162.326 181.366C166.68 183.04 171.034 184.715 174.551 188.064C175.053 188.567 175.555 188.902 176.225 189.571C175.555 185.72 174.885 185.217 160.149 178.519C161.823 176.509 164.168 178.686 166.177 177.514C159.144 172.825 151.273 172.155 143.402 172.49C131.68 172.993 119.958 173.997 108.57 177.012C105.723 177.682 104.216 178.854 103.714 181.533C103.546 182.371 103.211 183.04 103.211 183.878C102.374 191.916 103.379 192.921 110.747 190.241C120.125 186.892 129.838 184.213 139.551 182.203C140.555 182.036 141.393 181.868 142.23 182.371C147.421 185.72 153.115 186.39 158.976 186.055C163.33 185.887 167.182 187.227 170.699 189.906C171.034 190.074 171.536 190.241 171.536 190.576C173.043 195.768 177.397 193.256 180.412 193.926C186.106 195.098 189.12 192.418 191.967 187.729C203.354 169.476 215.412 151.39 227.134 133.304C227.971 132.132 228.474 130.792 230.316 131.964C232.493 133.304 230.818 134.309 230.148 135.313C217.923 154.404 205.531 173.328 193.306 192.418C192.804 193.256 191.464 194.093 192.302 195.098C192.637 195.6 193.976 195.433 194.981 195.433C215.746 195.265 236.512 194.595 257.277 193.423C259.454 193.256 261.966 192.753 264.143 194.595C262.469 195.768 260.627 195.768 258.785 195.935C243.378 196.605 227.971 197.275 212.565 197.61C181.919 198.447 151.106 198.949 120.46 199.787C113.761 200.289 105.891 200.624 98.0199 200.289Z" fill="#3A2D52"/>
<path d="M102.541 27.8021C101.034 23.1132 102.374 19.429 106.728 17.0845C119.288 10.051 132.685 6.70178 147.087 10.2185C152.278 11.3908 156.632 14.0702 159.981 18.2567C166.68 26.6299 165.34 37.8499 156.8 44.2135C151.608 48.0652 145.58 50.0748 139.048 50.2422C135.029 50.4097 130.675 50.7446 129.336 55.4336C128.498 58.2805 128.666 61.4623 128.498 64.6441C128.498 65.6488 128.833 66.4862 130.173 66.3187C131.68 66.1512 130.843 65.1464 130.843 64.4766C130.843 63.4718 131.178 62.9694 132.182 62.802C133.187 62.6345 134.359 62.6345 134.862 63.8067C135.532 65.3139 134.359 65.9838 133.02 67.156C136.034 67.8259 138.881 68.6632 140.723 66.4862C142.9 64.1417 144.742 60.6249 143.402 57.9455C141.058 53.2566 135.699 54.5963 131.513 54.2613C131.513 53.9264 131.345 53.5915 131.513 53.424C134.025 51.4145 139.718 52.0843 143.905 54.7637C146.584 56.4384 146.082 58.9503 145.245 61.2948C144.407 64.3091 143.737 67.4909 140.723 69.1656C139.551 69.8354 139.886 71.0077 139.718 72.0124C138.714 78.2086 137.709 84.4047 135.364 90.2659C133.355 95.6248 130.005 99.4764 124.144 100.816C121.967 101.319 120.125 102.826 118.116 103.496C110.077 106.175 102.876 99.6439 104.886 91.6056C105.221 89.931 104.886 88.7588 104.216 87.4191C101.872 82.8976 99.8621 78.376 97.685 73.8545C97.5176 73.3521 97.3501 72.8498 97.0152 71.6775C99.3597 72.5148 100.029 74.022 100.699 75.5292C102.709 79.7157 104.718 83.9023 106.896 88.0889C108.403 90.9358 110.245 93.4477 112.589 95.6248C118.953 101.486 127.326 100.314 132.015 92.9453C135.029 88.2564 135.867 82.7301 136.871 77.3713C137.374 74.8593 137.709 72.3474 138.881 69.8354C135.699 69.668 132.685 69.668 129.671 68.3283C129.671 70.6727 132.182 71.845 131.01 74.5244C126.991 71.1751 126.489 66.4862 125.819 61.9646C125.651 61.2948 126.321 60.1226 124.982 59.9551C123.809 59.7876 123.809 60.7924 123.642 61.6297C121.632 67.4909 120.125 68.8306 114.934 68.9981C110.077 69.1656 104.719 66.4862 103.881 62.1321C102.876 56.6058 99.5271 56.2709 95.3406 56.1034C95.1731 56.2709 95.0056 56.6058 95.0056 56.6058C95.3405 57.7781 97.3501 59.1178 96.0104 60.29C94.8382 61.1273 94.1683 59.1178 93.1635 58.4479C91.6563 57.4431 90.1492 56.2709 88.3071 57.4431C86.6324 58.6154 86.6324 60.29 87.3023 62.1321C88.642 66.3187 91.6563 68.1608 95.8429 68.9981C96.5128 69.1656 97.8525 68.8306 97.685 70.0029C97.685 71.3426 96.3453 71.0077 95.508 71.0077C91.154 71.0077 86.7999 67.4909 85.4602 63.1369C85.1253 62.2996 85.2928 61.2948 84.6229 60.4575C78.2593 54.7637 78.7617 47.5628 80.4363 40.027C81.2737 36.3428 82.4459 32.6586 84.6229 29.6442C87.1349 26.1275 90.3166 22.9457 95.0056 22.4433C98.6898 22.2759 100.699 25.1227 102.541 27.8021C103.546 36.8452 101.872 45.2183 97.685 53.2566C101.369 54.7637 101.369 54.7637 103.714 51.7494C104.049 51.4145 104.384 51.0795 104.719 50.9121C108.068 48.7351 118.618 49.07 121.967 51.4145C120.962 52.5867 119.623 52.0843 118.45 51.9169C115.101 51.4145 111.752 51.247 108.403 51.5819C106.561 51.9169 105.053 52.5867 104.719 54.7637C104.384 57.6106 104.551 60.29 106.226 62.802C108.403 66.1512 111.752 67.3235 115.604 66.9885C118.45 66.8211 120.628 65.4814 121.297 62.6345C121.8 60.1226 122.135 57.6106 125.651 57.7781C125.986 57.7781 126.489 57.2757 126.489 56.7733C127.326 53.0891 129.336 50.4097 133.187 48.5676C127.326 46.558 122.135 44.381 117.278 41.3667C111.584 37.8499 106.895 32.9935 102.541 27.8021Z" fill="#3A2D52"/>
<path d="M12.6554 199.117C26.2199 199.117 29.8625 199.117 43.427 199.117C44.2643 199.117 45.1016 199.117 45.9389 199.117C47.1112 199.117 48.7857 198.782 48.7857 200.289C48.7857 201.629 47.1112 201.126 46.1064 201.294C33.0443 202.634 19.9823 201.796 6.92013 201.964C11.0139 202.131 19.4364 201.964 3.02501 201.964C2.02024 201.964 0.178161 202.634 0.0106979 201.126C-0.156765 199.787 1.68529 199.787 2.69007 199.452C3.86231 199.117 5.03456 199.284 6.20681 199.284C20.1063 199.117 9.3393 199.117 12.6554 199.117Z" fill="#3A2D52"/>
<path d="M63.5225 5.69682C65.1971 6.7016 65.6995 5.69681 66.3693 4.52457C67.3741 2.68248 69.0487 2.18009 70.8908 2.84994C72.2305 3.35233 72.9004 4.69204 72.5655 6.36667C72.2305 8.20877 70.8908 9.21354 69.0487 9.04608C67.5416 8.87862 66.5368 9.21355 65.532 10.5533C64.3598 12.0604 62.5177 12.3953 60.843 11.3906C59.5033 10.7207 59.3359 9.21355 59.8383 8.0413C60.5081 6.19921 62.0153 5.69682 63.5225 5.69682ZM68.8813 7.53891C70.0535 7.37145 70.8908 6.70159 71.0583 5.36189C71.0583 4.52457 70.5559 4.02218 69.7186 4.02218C68.3789 4.02218 67.5416 4.8595 67.3741 6.03174C67.0392 7.20399 67.8765 7.53891 68.8813 7.53891Z" fill="#3A2D52"/>
<path d="M59.3361 51.0793C53.4748 53.4238 50.293 57.4429 50.1256 64.1414C47.4462 61.9644 45.939 59.9549 44.9342 57.2754C47.2787 57.108 47.1112 59.7874 48.7858 59.9549C50.6279 58.1128 49.6232 54.7635 52.1351 53.4238C54.3121 52.5865 56.1543 50.7444 59.3361 51.0793Z" fill="#3A2D52"/>
<path d="M56.1542 105.17C55.3169 104.835 54.4795 104.668 53.4747 104.333C52.8049 104.165 51.4652 103.998 51.6326 103.161C51.9676 101.653 53.1398 102.658 53.8096 102.993C56.824 104.165 56.824 101.486 57.6613 99.9787C58.8336 97.9692 57.3264 97.2993 55.8192 96.7969C55.3168 96.6294 54.9819 96.462 54.4795 96.2945C53.8097 95.9596 52.6374 95.7921 53.1398 94.7873C53.6422 93.6151 54.647 94.7874 55.1494 94.9548C60.8431 97.1318 60.8431 97.1318 57.9962 102.658C57.9962 103.495 58.1637 105.17 56.1542 105.17Z" fill="#3A2D52"/>
<path d="M124.48 86.5815C122.303 86.2466 120.46 85.0743 119.121 83.2322C118.786 82.7299 118.618 82.06 119.121 81.5576C119.791 80.8878 120.461 81.2227 120.963 81.7251C123.14 84.237 125.317 85.0743 128.164 82.7299C128.666 82.3949 129.336 82.3949 129.838 82.8973C130.508 83.5672 130.006 84.237 129.504 84.7394C127.996 85.9116 126.322 86.414 124.48 86.5815Z" fill="#3A2D52"/>
<path d="M178.403 8.04131C178.068 6.53414 178.905 6.03174 179.575 5.36189C180.58 4.35711 181.082 3.35233 179.743 2.18009C179.24 1.6777 178.57 1.00785 179.24 0.337992C180.245 -0.666787 180.747 0.840386 180.915 1.34278C181.752 4.18965 184.934 -0.164394 184.599 2.18009C184.264 3.85472 183.259 5.02696 184.766 6.53413C184.934 6.7016 184.934 7.37145 184.934 7.87384C184.934 8.0413 184.264 8.20877 184.097 8.04131C180.915 7.03653 180.245 7.03653 178.403 8.04131Z" fill="#3A2D52"/>
<path d="M20.4846 120.074C18.4751 122.754 16.633 125.601 13.1163 128.28C13.9536 125.935 15.4608 124.093 13.1163 122.754C12.7813 122.586 13.4512 121.247 13.9536 120.744C14.2885 120.409 14.7909 120.242 15.1259 120.409C16.8005 120.912 15.2933 122.419 15.9632 123.424C17.8053 122.586 17.9727 119.907 20.4846 120.074Z" fill="#3A2D52"/>
<path d="M192.47 59.4526C189.623 60.1224 186.944 60.2899 183.762 59.955C185.102 58.2804 186.776 59.1177 187.781 58.6153C188.283 57.778 187.279 57.443 187.279 56.7732C187.279 55.9359 187.781 55.6009 188.618 55.4335C189.288 55.4335 189.958 55.9359 189.79 56.4383C188.618 58.9502 190.963 58.6153 192.47 59.4526Z" fill="#3A2D52"/>
<path d="M209.383 111.869C211.895 112.371 212.565 108.854 215.914 109.524C212.397 112.538 209.048 114.548 205.364 116.223C206.034 114.046 208.546 113.711 209.383 111.869Z" fill="#3A2D52"/>
<path d="M148.427 133.806C147.255 134.643 144.91 134.643 146.585 136.82C147.087 137.49 146.417 137.825 145.748 137.993C145.245 137.993 144.408 138.328 144.24 137.658C143.738 135.983 144.408 134.309 145.078 132.969C145.915 131.629 147.255 132.634 148.427 133.806Z" fill="#3A2D52"/>
<path d="M209.551 111.869C208.043 112.371 206.536 113.041 205.866 111.031C205.531 110.194 205.699 109.189 206.536 108.519C207.206 108.017 208.043 107.849 208.713 108.352C210.388 109.357 209.718 110.696 209.551 111.869Z" fill="#3A2D52"/>
<path d="M214.072 116.557C213.737 117.73 213.234 118.567 211.895 118.4C210.555 118.4 210.052 117.562 210.052 116.39C210.052 115.218 210.89 114.715 211.895 114.715C213.234 114.715 214.072 115.218 214.072 116.557Z" fill="#3A2D52"/>
<path d="M111.753 43.376C115.102 43.2085 118.116 43.8784 120.461 46.0554C120.963 46.5578 121.633 47.2276 120.963 48.2324C120.293 49.0697 119.623 48.9023 118.953 48.2324C114.599 44.7157 110.078 45.8879 105.389 47.5625C104.217 48.0649 102.71 49.0697 102.207 47.2276C101.705 45.7205 103.547 45.553 104.384 45.2181C106.729 44.0458 109.241 43.041 111.753 43.376Z" fill="#3A2D52"/>
<path d="M118.954 63.1368C118.786 64.4765 118.116 64.9789 116.944 64.9789C115.604 64.9789 114.934 64.1415 114.767 62.8018C114.599 61.2947 115.772 61.1272 116.776 61.1272C117.949 61.1272 118.786 61.9645 118.954 63.1368Z" fill="#3A2D52"/>
</svg>
